<?xml version="1.0" encoding="UTF-8" standalone="no"?>
<!DOCTYPE svg PUBLIC "-//W3C//DTD SVG 1.1//EN"
 "http://www.w3.org/Graphics/SVG/1.1/DTD/svg11.dtd">
<!-- Generated by graphviz version 2.40.1 (20161225.0304)
 -->
<!-- Title: /home/jbigot/data/projects/pdi/pdi/include/pdi/array_datatype.h Pages: 1 -->
<svg width="342pt" height="442pt"
 viewBox="0.00 0.00 342.00 442.00" xmlns="http://www.w3.org/2000/svg" xmlns:xlink="http://www.w3.org/1999/xlink">
<g id="graph0" class="graph" transform="scale(1 1) rotate(0) translate(4 438)">
<title>/home/jbigot/data/projects/pdi/pdi/include/pdi/array_datatype.h</title>
<polygon fill="#ffffff" stroke="transparent" points="-4,4 -4,-438 338,-438 338,4 -4,4"/>
<!-- Node0 -->
<g id="node1" class="node">
<title>Node0</title>
<polygon fill="#bfbfbf" stroke="#000000" points="196,-392.5 196,-433.5 334,-433.5 334,-392.5 196,-392.5"/>
<text text-anchor="start" x="204" y="-421.5" font-family="Helvetica,sans-Serif" font-size="10.00" fill="#000000">/home/jbigot/data/projects</text>
<text text-anchor="start" x="204" y="-410.5" font-family="Helvetica,sans-Serif" font-size="10.00" fill="#000000">/pdi/pdi/include/pdi/array</text>
<text text-anchor="middle" x="265" y="-399.5" font-family="Helvetica,sans-Serif" font-size="10.00" fill="#000000">_datatype.h</text>
</g>
<!-- Node1 -->
<g id="node2" class="node">
<title>Node1</title>
<g id="a_node2"><a xlink:href="pdi__fwd_8h.html" target="_top" xlink:title="pdi/pdi_fwd.h">
<polygon fill="#ffffff" stroke="#000000" points="165.5,-112.5 165.5,-131.5 244.5,-131.5 244.5,-112.5 165.5,-112.5"/>
<text text-anchor="middle" x="205" y="-119.5" font-family="Helvetica,sans-Serif" font-size="10.00" fill="#000000">pdi/pdi_fwd.h</text>
</a>
</g>
</g>
<!-- Node0&#45;&gt;Node1 -->
<g id="edge1" class="edge">
<title>Node0&#45;&gt;Node1</title>
<path fill="none" stroke="#191970" d="M274.7495,-392.1816C285.1057,-368.1231 300,-327.0771 300,-290 300,-290 300,-290 300,-234 300,-190.9765 258.7265,-156.0102 230.5891,-137.1715"/>
<polygon fill="#191970" stroke="#191970" points="232.287,-134.102 221.9841,-131.632 228.4979,-139.9879 232.287,-134.102"/>
</g>
<!-- Node7 -->
<g id="node8" class="node">
<title>Node7</title>
<g id="a_node8"><a xlink:href="datatype_8h.html" target="_top" xlink:title="pdi/datatype.h">
<polygon fill="#ffffff" stroke="#000000" points="188.5,-336.5 188.5,-355.5 271.5,-355.5 271.5,-336.5 188.5,-336.5"/>
<text text-anchor="middle" x="230" y="-343.5" font-family="Helvetica,sans-Serif" font-size="10.00" fill="#000000">pdi/datatype.h</text>
</a>
</g>
</g>
<!-- Node0&#45;&gt;Node7 -->
<g id="edge7" class="edge">
<title>Node0&#45;&gt;Node7</title>
<path fill="none" stroke="#191970" d="M254.1176,-392.168C249.5599,-383.4433 244.2999,-373.374 239.8575,-364.87"/>
<polygon fill="#191970" stroke="#191970" points="242.8417,-363.0234 235.1092,-355.7805 236.6372,-366.2646 242.8417,-363.0234"/>
</g>
<!-- Node2 -->
<g id="node3" class="node">
<title>Node2</title>
<polygon fill="#ffffff" stroke="#bfbfbf" points="113,-56.5 113,-75.5 167,-75.5 167,-56.5 113,-56.5"/>
<text text-anchor="middle" x="140" y="-63.5" font-family="Helvetica,sans-Serif" font-size="10.00" fill="#000000">memory</text>
</g>
<!-- Node1&#45;&gt;Node2 -->
<g id="edge2" class="edge">
<title>Node1&#45;&gt;Node2</title>
<path fill="none" stroke="#191970" d="M193.6779,-112.2455C184.0777,-103.9746 170.1108,-91.9416 158.8305,-82.2232"/>
<polygon fill="#191970" stroke="#191970" points="161.053,-79.5182 151.1924,-75.6427 156.484,-84.8214 161.053,-79.5182"/>
</g>
<!-- Node3 -->
<g id="node4" class="node">
<title>Node3</title>
<g id="a_node4"><a xlink:href="pdi_8h.html" target="_top" xlink:title="pdi.h">
<polygon fill="#ffffff" stroke="#000000" points="185.5,-56.5 185.5,-75.5 224.5,-75.5 224.5,-56.5 185.5,-56.5"/>
<text text-anchor="middle" x="205" y="-63.5" font-family="Helvetica,sans-Serif" font-size="10.00" fill="#000000">pdi.h</text>
</a>
</g>
</g>
<!-- Node1&#45;&gt;Node3 -->
<g id="edge3" class="edge">
<title>Node1&#45;&gt;Node3</title>
<path fill="none" stroke="#191970" d="M205,-112.2455C205,-104.9382 205,-94.6944 205,-85.7046"/>
<polygon fill="#191970" stroke="#191970" points="208.5001,-85.6426 205,-75.6427 201.5001,-85.6427 208.5001,-85.6426"/>
</g>
<!-- Node4 -->
<g id="node5" class="node">
<title>Node4</title>
<polygon fill="#ffffff" stroke="#bfbfbf" points="35.5,-.5 35.5,-19.5 102.5,-19.5 102.5,-.5 35.5,-.5"/>
<text text-anchor="middle" x="69" y="-7.5" font-family="Helvetica,sans-Serif" font-size="10.00" fill="#000000">paraconf.h</text>
</g>
<!-- Node3&#45;&gt;Node4 -->
<g id="edge4" class="edge">
<title>Node3&#45;&gt;Node4</title>
<path fill="none" stroke="#191970" d="M185.2244,-57.8571C163.4059,-48.873 127.9404,-34.2696 101.9165,-23.5539"/>
<polygon fill="#191970" stroke="#191970" points="103.0324,-20.2283 92.453,-19.6571 100.3671,-26.7011 103.0324,-20.2283"/>
</g>
<!-- Node5 -->
<g id="node6" class="node">
<title>Node5</title>
<polygon fill="#ffffff" stroke="#bfbfbf" points="235,-.5 235,-19.5 307,-19.5 307,-.5 235,-.5"/>
<text text-anchor="middle" x="271" y="-7.5" font-family="Helvetica,sans-Serif" font-size="10.00" fill="#000000">pdi/export.h</text>
</g>
<!-- Node3&#45;&gt;Node5 -->
<g id="edge5" class="edge">
<title>Node3&#45;&gt;Node5</title>
<path fill="none" stroke="#191970" d="M216.4963,-56.2455C226.2442,-47.9746 240.4259,-35.9416 251.8798,-26.2232"/>
<polygon fill="#191970" stroke="#191970" points="254.2747,-28.7813 259.6354,-19.6427 249.7459,-23.4437 254.2747,-28.7813"/>
</g>
<!-- Node6 -->
<g id="node7" class="node">
<title>Node6</title>
<polygon fill="#ffffff" stroke="#bfbfbf" points="139.5,-.5 139.5,-19.5 216.5,-19.5 216.5,-.5 139.5,-.5"/>
<text text-anchor="middle" x="178" y="-7.5" font-family="Helvetica,sans-Serif" font-size="10.00" fill="#000000">pdi/version.h</text>
</g>
<!-- Node3&#45;&gt;Node6 -->
<g id="edge6" class="edge">
<title>Node3&#45;&gt;Node6</title>
<path fill="none" stroke="#191970" d="M200.297,-56.2455C196.6576,-48.6973 191.5076,-38.0158 187.0738,-28.8197"/>
<polygon fill="#191970" stroke="#191970" points="190.1449,-27.1303 182.6491,-19.6427 183.8395,-30.1704 190.1449,-27.1303"/>
</g>
<!-- Node7&#45;&gt;Node1 -->
<g id="edge8" class="edge">
<title>Node7&#45;&gt;Node1</title>
<path fill="none" stroke="#191970" d="M232.4865,-336.2105C234.7014,-326.9529 237.7755,-312.6354 239,-300 243.3437,-255.1763 232.1301,-189.9863 226,-168 223.3851,-158.6213 219.0945,-148.7353 215.0709,-140.5417"/>
<polygon fill="#191970" stroke="#191970" points="218.1201,-138.8182 210.4259,-131.5347 211.8987,-142.0267 218.1201,-138.8182"/>
</g>
<!-- Node8 -->
<g id="node9" class="node">
<title>Node8</title>
<g id="a_node9"><a xlink:href="datatype__template_8h.html" target="_top" xlink:title="pdi/datatype_template.h">
<polygon fill="#ffffff" stroke="#000000" points="100,-280.5 100,-299.5 230,-299.5 230,-280.5 100,-280.5"/>
<text text-anchor="middle" x="165" y="-287.5" font-family="Helvetica,sans-Serif" font-size="10.00" fill="#000000">pdi/datatype_template.h</text>
</a>
</g>
</g>
<!-- Node7&#45;&gt;Node8 -->
<g id="edge9" class="edge">
<title>Node7&#45;&gt;Node8</title>
<path fill="none" stroke="#191970" d="M218.6779,-336.2455C209.0777,-327.9746 195.1108,-315.9416 183.8305,-306.2232"/>
<polygon fill="#191970" stroke="#191970" points="186.053,-303.5182 176.1924,-299.6427 181.484,-308.8214 186.053,-303.5182"/>
</g>
<!-- Node8&#45;&gt;Node1 -->
<g id="edge11" class="edge">
<title>Node8&#45;&gt;Node1</title>
<path fill="none" stroke="#191970" d="M177.4212,-280.18C187.0016,-271.7529 199.5135,-258.6707 205,-244 217.8033,-209.7644 213.3451,-166.2468 209.0795,-141.5185"/>
<polygon fill="#191970" stroke="#191970" points="212.4968,-140.7531 207.1958,-131.5798 205.6192,-142.0567 212.4968,-140.7531"/>
</g>
<!-- Node8&#45;&gt;Node4 -->
<g id="edge10" class="edge">
<title>Node8&#45;&gt;Node4</title>
<path fill="none" stroke="#191970" d="M121.2162,-280.38C72.3342,-266.7571 0,-236.684 0,-178 0,-178 0,-178 0,-122 0,-83.3203 30.2001,-46.7993 50.6409,-26.5101"/>
<polygon fill="#191970" stroke="#191970" points="53.1035,-28.998 57.914,-19.5582 48.2667,-23.9378 53.1035,-28.998"/>
</g>
<!-- Node9 -->
<g id="node10" class="node">
<title>Node9</title>
<g id="a_node10"><a xlink:href="logger_8h.html" target="_top" xlink:title="pdi/logger.h">
<polygon fill="#ffffff" stroke="#000000" points="124,-224.5 124,-243.5 196,-243.5 196,-224.5 124,-224.5"/>
<text text-anchor="middle" x="160" y="-231.5" font-family="Helvetica,sans-Serif" font-size="10.00" fill="#000000">pdi/logger.h</text>
</a>
</g>
</g>
<!-- Node8&#45;&gt;Node9 -->
<g id="edge12" class="edge">
<title>Node8&#45;&gt;Node9</title>
<path fill="none" stroke="#191970" d="M164.1291,-280.2455C163.4766,-272.9382 162.562,-262.6944 161.7593,-253.7046"/>
<polygon fill="#191970" stroke="#191970" points="165.2365,-253.2918 160.861,-243.6427 158.2642,-253.9143 165.2365,-253.2918"/>
</g>
<!-- Node9&#45;&gt;Node1 -->
<g id="edge13" class="edge">
<title>Node9&#45;&gt;Node1</title>
<path fill="none" stroke="#191970" d="M163.8367,-224.4509C171.2425,-206.0186 187.6327,-165.2254 197.3488,-141.043"/>
<polygon fill="#191970" stroke="#191970" points="200.6925,-142.1088 201.173,-131.5249 194.1971,-139.499 200.6925,-142.1088"/>
</g>
<!-- Node10 -->
<g id="node11" class="node">
<title>Node10</title>
<g id="a_node11"><a xlink:href="paraconf__wrapper_8h.html" target="_top" xlink:title="pdi/paraconf_wrapper.h">
<polygon fill="#ffffff" stroke="#000000" points="28.5,-168.5 28.5,-187.5 157.5,-187.5 157.5,-168.5 28.5,-168.5"/>
<text text-anchor="middle" x="93" y="-175.5" font-family="Helvetica,sans-Serif" font-size="10.00" fill="#000000">pdi/paraconf_wrapper.h</text>
</a>
</g>
</g>
<!-- Node9&#45;&gt;Node10 -->
<g id="edge14" class="edge">
<title>Node9&#45;&gt;Node10</title>
<path fill="none" stroke="#191970" d="M148.3295,-224.2455C138.4339,-215.9746 124.0373,-203.9416 112.4099,-194.2232"/>
<polygon fill="#191970" stroke="#191970" points="114.4542,-191.3703 104.5368,-187.6427 109.965,-196.7413 114.4542,-191.3703"/>
</g>
<!-- Node10&#45;&gt;Node1 -->
<g id="edge17" class="edge">
<title>Node10&#45;&gt;Node1</title>
<path fill="none" stroke="#191970" d="M112.2535,-168.3733C130.0712,-159.4644 156.7747,-146.1127 176.9594,-136.0203"/>
<polygon fill="#191970" stroke="#191970" points="178.6187,-139.1038 185.9978,-131.5011 175.4882,-132.8428 178.6187,-139.1038"/>
</g>
<!-- Node10&#45;&gt;Node4 -->
<g id="edge16" class="edge">
<title>Node10&#45;&gt;Node4</title>
<path fill="none" stroke="#191970" d="M91.6409,-168.4862C87.847,-141.9293 77.0807,-66.5651 71.8808,-30.1655"/>
<polygon fill="#191970" stroke="#191970" points="75.2831,-29.2324 70.404,-19.8279 68.3535,-30.2224 75.2831,-29.2324"/>
</g>
<!-- Node11 -->
<g id="node12" class="node">
<title>Node11</title>
<polygon fill="#ffffff" stroke="#bfbfbf" points="97.5,-112.5 97.5,-131.5 140.5,-131.5 140.5,-112.5 97.5,-112.5"/>
<text text-anchor="middle" x="119" y="-119.5" font-family="Helvetica,sans-Serif" font-size="10.00" fill="#000000">string</text>
</g>
<!-- Node10&#45;&gt;Node11 -->
<g id="edge15" class="edge">
<title>Node10&#45;&gt;Node11</title>
<path fill="none" stroke="#191970" d="M97.5289,-168.2455C101.0334,-160.6973 105.9927,-150.0158 110.2623,-140.8197"/>
<polygon fill="#191970" stroke="#191970" points="113.4864,-142.1867 114.523,-131.6427 107.1373,-139.2389 113.4864,-142.1867"/>
</g>
</g>
</svg>
