<?xml version="1.0" encoding="UTF-8" standalone="no"?>
<!DOCTYPE svg PUBLIC "-//W3C//DTD SVG 1.1//EN"
 "http://www.w3.org/Graphics/SVG/1.1/DTD/svg11.dtd">
<!-- Generated by graphviz version 2.40.1 (20161225.0304)
 -->
<!-- Title: /home/jbigot/data/projects/pdi/pdi/include/pdi/array_datatype.h Pages: 1 -->
<svg width="1002pt" height="117pt"
 viewBox="0.00 0.00 1001.50 117.00" xmlns="http://www.w3.org/2000/svg" xmlns:xlink="http://www.w3.org/1999/xlink">
<g id="graph0" class="graph" transform="scale(1 1) rotate(0) translate(4 113)">
<title>/home/jbigot/data/projects/pdi/pdi/include/pdi/array_datatype.h</title>
<polygon fill="#ffffff" stroke="transparent" points="-4,4 -4,-113 997.5,-113 997.5,4 -4,4"/>
<!-- Node12 -->
<g id="node1" class="node">
<title>Node12</title>
<polygon fill="#bfbfbf" stroke="#000000" points="454.5,-67.5 454.5,-108.5 592.5,-108.5 592.5,-67.5 454.5,-67.5"/>
<text text-anchor="start" x="462.5" y="-96.5" font-family="Helvetica,sans-Serif" font-size="10.00" fill="#000000">/home/jbigot/data/projects</text>
<text text-anchor="start" x="462.5" y="-85.5" font-family="Helvetica,sans-Serif" font-size="10.00" fill="#000000">/pdi/pdi/include/pdi/array</text>
<text text-anchor="middle" x="523.5" y="-74.5" font-family="Helvetica,sans-Serif" font-size="10.00" fill="#000000">_datatype.h</text>
</g>
<!-- Node13 -->
<g id="node2" class="node">
<title>Node13</title>
<g id="a_node2"><a xlink:href="array__datatype_8cxx.html" target="_top" xlink:title="/home/jbigot/data/projects\l/pdi/pdi/src/array_datatype.cxx">
<polygon fill="#ffffff" stroke="#000000" points="0,-.5 0,-30.5 161,-30.5 161,-.5 0,-.5"/>
<text text-anchor="start" x="8" y="-18.5" font-family="Helvetica,sans-Serif" font-size="10.00" fill="#000000">/home/jbigot/data/projects</text>
<text text-anchor="middle" x="80.5" y="-7.5" font-family="Helvetica,sans-Serif" font-size="10.00" fill="#000000">/pdi/pdi/src/array_datatype.cxx</text>
</a>
</g>
</g>
<!-- Node12&#45;&gt;Node13 -->
<g id="edge1" class="edge">
<title>Node12&#45;&gt;Node13</title>
<path fill="none" stroke="#191970" d="M443.9504,-75.4888C372.1731,-64.1292 263.7108,-46.7878 169.5,-31 166.7157,-30.5334 163.883,-30.0558 161.0223,-29.571"/>
<polygon fill="#191970" stroke="#191970" points="443.8443,-79.0155 454.2683,-77.1205 444.9378,-72.1014 443.8443,-79.0155"/>
</g>
<!-- Node14 -->
<g id="node3" class="node">
<title>Node14</title>
<g id="a_node3"><a xlink:href="datatype__template_8cxx.html" target="_top" xlink:title="/home/jbigot/data/projects\l/pdi/pdi/src/datatype_template.cxx">
<polygon fill="#ffffff" stroke="#000000" points="179,-.5 179,-30.5 356,-30.5 356,-.5 179,-.5"/>
<text text-anchor="start" x="187" y="-18.5" font-family="Helvetica,sans-Serif" font-size="10.00" fill="#000000">/home/jbigot/data/projects</text>
<text text-anchor="middle" x="267.5" y="-7.5" font-family="Helvetica,sans-Serif" font-size="10.00" fill="#000000">/pdi/pdi/src/datatype_template.cxx</text>
</a>
</g>
</g>
<!-- Node12&#45;&gt;Node14 -->
<g id="edge2" class="edge">
<title>Node12&#45;&gt;Node14</title>
<path fill="none" stroke="#191970" d="M444.4358,-65.6088C404.1992,-54.2137 356.3677,-40.6676 320.5871,-30.5344"/>
<polygon fill="#191970" stroke="#191970" points="443.6474,-69.0231 454.2227,-68.3805 445.5548,-62.288 443.6474,-69.0231"/>
</g>
<!-- Node15 -->
<g id="node4" class="node">
<title>Node15</title>
<g id="a_node4"><a xlink:href="expression_8cxx.html" target="_top" xlink:title="/home/jbigot/data/projects\l/pdi/pdi/src/expression.cxx">
<polygon fill="#ffffff" stroke="#000000" points="374,-.5 374,-30.5 515,-30.5 515,-.5 374,-.5"/>
<text text-anchor="start" x="382" y="-18.5" font-family="Helvetica,sans-Serif" font-size="10.00" fill="#000000">/home/jbigot/data/projects</text>
<text text-anchor="middle" x="444.5" y="-7.5" font-family="Helvetica,sans-Serif" font-size="10.00" fill="#000000">/pdi/pdi/src/expression.cxx</text>
</a>
</g>
</g>
<!-- Node12&#45;&gt;Node15 -->
<g id="edge3" class="edge">
<title>Node12&#45;&gt;Node15</title>
<path fill="none" stroke="#191970" d="M493.6238,-60.582C482.5486,-50.418 470.3986,-39.2677 460.9528,-30.5991"/>
<polygon fill="#191970" stroke="#191970" points="491.3389,-63.2355 501.0731,-67.4183 496.0719,-58.0781 491.3389,-63.2355"/>
</g>
<!-- Node16 -->
<g id="node5" class="node">
<title>Node16</title>
<g id="a_node5"><a xlink:href="python_2pdi_8cxx.html" target="_top" xlink:title="/home/jbigot/data/projects\l/pdi/pdi/src/python/pdi.cxx">
<polygon fill="#ffffff" stroke="#000000" points="533,-.5 533,-30.5 672,-30.5 672,-.5 533,-.5"/>
<text text-anchor="start" x="541" y="-18.5" font-family="Helvetica,sans-Serif" font-size="10.00" fill="#000000">/home/jbigot/data/projects</text>
<text text-anchor="middle" x="602.5" y="-7.5" font-family="Helvetica,sans-Serif" font-size="10.00" fill="#000000">/pdi/pdi/src/python/pdi.cxx</text>
</a>
</g>
</g>
<!-- Node12&#45;&gt;Node16 -->
<g id="edge4" class="edge">
<title>Node12&#45;&gt;Node16</title>
<path fill="none" stroke="#191970" d="M553.3762,-60.582C564.4514,-50.418 576.6014,-39.2677 586.0472,-30.5991"/>
<polygon fill="#191970" stroke="#191970" points="550.9281,-58.0781 545.9269,-67.4183 555.6611,-63.2355 550.9281,-58.0781"/>
</g>
<!-- Node17 -->
<g id="node6" class="node">
<title>Node17</title>
<g id="a_node6"><a xlink:href="tools_8cxx.html" target="_top" xlink:title="/home/jbigot/data/projects\l/pdi/pdi/src/python/tools.cxx">
<polygon fill="#ffffff" stroke="#000000" points="690,-.5 690,-30.5 837,-30.5 837,-.5 690,-.5"/>
<text text-anchor="start" x="698" y="-18.5" font-family="Helvetica,sans-Serif" font-size="10.00" fill="#000000">/home/jbigot/data/projects</text>
<text text-anchor="middle" x="763.5" y="-7.5" font-family="Helvetica,sans-Serif" font-size="10.00" fill="#000000">/pdi/pdi/src/python/tools.cxx</text>
</a>
</g>
</g>
<!-- Node12&#45;&gt;Node17 -->
<g id="edge5" class="edge">
<title>Node12&#45;&gt;Node17</title>
<path fill="none" stroke="#191970" d="M601.3507,-64.4826C638.188,-53.3547 681.0959,-40.3929 713.5168,-30.5991"/>
<polygon fill="#191970" stroke="#191970" points="600.193,-61.176 591.6324,-67.4183 602.2173,-67.877 600.193,-61.176"/>
</g>
<!-- Node18 -->
<g id="node7" class="node">
<title>Node18</title>
<g id="a_node7"><a xlink:href="ref__any_8cxx.html" target="_top" xlink:title="/home/jbigot/data/projects\l/pdi/pdi/src/ref_any.cxx">
<polygon fill="#ffffff" stroke="#000000" points="855.5,-.5 855.5,-30.5 993.5,-30.5 993.5,-.5 855.5,-.5"/>
<text text-anchor="start" x="863.5" y="-18.5" font-family="Helvetica,sans-Serif" font-size="10.00" fill="#000000">/home/jbigot/data/projects</text>
<text text-anchor="middle" x="924.5" y="-7.5" font-family="Helvetica,sans-Serif" font-size="10.00" fill="#000000">/pdi/pdi/src/ref_any.cxx</text>
</a>
</g>
</g>
<!-- Node12&#45;&gt;Node18 -->
<g id="edge6" class="edge">
<title>Node12&#45;&gt;Node18</title>
<path fill="none" stroke="#191970" d="M602.8122,-74.4929C668.2506,-63.231 763.4926,-46.5699 846.5,-31 849.3497,-30.4655 852.2567,-29.9144 855.1924,-29.353"/>
<polygon fill="#191970" stroke="#191970" points="601.8346,-71.1095 592.5721,-76.253 603.0205,-78.0083 601.8346,-71.1095"/>
</g>
</g>
</svg>
