<?xml version="1.0" encoding="UTF-8" standalone="no"?>
<!DOCTYPE svg PUBLIC "-//W3C//DTD SVG 1.1//EN"
 "http://www.w3.org/Graphics/SVG/1.1/DTD/svg11.dtd">
<!-- Generated by graphviz version 2.40.1 (20161225.0304)
 -->
<!-- Title: /home/jbigot/data/projects/pdi/pdi/src/array_datatype.cxx Pages: 1 -->
<svg width="1161pt" height="543pt"
 viewBox="0.00 0.00 1160.50 543.00" xmlns="http://www.w3.org/2000/svg" xmlns:xlink="http://www.w3.org/1999/xlink">
<g id="graph0" class="graph" transform="scale(1 1) rotate(0) translate(4 539)">
<title>/home/jbigot/data/projects/pdi/pdi/src/array_datatype.cxx</title>
<polygon fill="#ffffff" stroke="transparent" points="-4,4 -4,-539 1156.5,-539 1156.5,4 -4,4"/>
<!-- Node0 -->
<g id="node1" class="node">
<title>Node0</title>
<polygon fill="#bfbfbf" stroke="#000000" points="722,-504.5 722,-534.5 883,-534.5 883,-504.5 722,-504.5"/>
<text text-anchor="start" x="730" y="-522.5" font-family="Helvetica,sans-Serif" font-size="10.00" fill="#000000">/home/jbigot/data/projects</text>
<text text-anchor="middle" x="802.5" y="-511.5" font-family="Helvetica,sans-Serif" font-size="10.00" fill="#000000">/pdi/pdi/src/array_datatype.cxx</text>
</g>
<!-- Node1 -->
<g id="node2" class="node">
<title>Node1</title>
<polygon fill="#ffffff" stroke="#bfbfbf" points="0,-448.5 0,-467.5 53,-467.5 53,-448.5 0,-448.5"/>
<text text-anchor="middle" x="26.5" y="-455.5" font-family="Helvetica,sans-Serif" font-size="10.00" fill="#000000">config.h</text>
</g>
<!-- Node0&#45;&gt;Node1 -->
<g id="edge1" class="edge">
<title>Node0&#45;&gt;Node1</title>
<path fill="none" stroke="#191970" d="M721.9952,-515.9496C561.4152,-508.5392 205.3051,-490.3763 63.3491,-467.7403"/>
<polygon fill="#191970" stroke="#191970" points="63.5398,-464.2239 53.1005,-466.0326 62.3892,-471.1287 63.5398,-464.2239"/>
</g>
<!-- Node2 -->
<g id="node3" class="node">
<title>Node2</title>
<polygon fill="#ffffff" stroke="#bfbfbf" points="71.5,-448.5 71.5,-467.5 131.5,-467.5 131.5,-448.5 71.5,-448.5"/>
<text text-anchor="middle" x="101.5" y="-455.5" font-family="Helvetica,sans-Serif" font-size="10.00" fill="#000000">algorithm</text>
</g>
<!-- Node0&#45;&gt;Node2 -->
<g id="edge2" class="edge">
<title>Node0&#45;&gt;Node2</title>
<path fill="none" stroke="#191970" d="M721.9193,-516.952C597.5957,-512.1738 351.7899,-499.3574 145.5,-468 144.2366,-467.808 142.9556,-467.5998 141.6644,-467.3783"/>
<polygon fill="#191970" stroke="#191970" points="142.1663,-463.9109 131.6865,-465.4673 140.8495,-470.786 142.1663,-463.9109"/>
</g>
<!-- Node3 -->
<g id="node4" class="node">
<title>Node3</title>
<polygon fill="#ffffff" stroke="#bfbfbf" points="289,-336.5 289,-355.5 340,-355.5 340,-336.5 289,-336.5"/>
<text text-anchor="middle" x="314.5" y="-343.5" font-family="Helvetica,sans-Serif" font-size="10.00" fill="#000000">cassert</text>
</g>
<!-- Node0&#45;&gt;Node3 -->
<g id="edge3" class="edge">
<title>Node0&#45;&gt;Node3</title>
<path fill="none" stroke="#191970" d="M742.2972,-504.4284C671.0328,-485.8567 549.306,-451.8245 448.5,-412 410.0495,-396.8097 367.5223,-374.9434 340.9072,-360.6068"/>
<polygon fill="#191970" stroke="#191970" points="342.3166,-357.3894 331.8586,-355.6919 338.9755,-363.5406 342.3166,-357.3894"/>
</g>
<!-- Node4 -->
<g id="node5" class="node">
<title>Node4</title>
<polygon fill="#ffffff" stroke="#bfbfbf" points="907,-448.5 907,-467.5 954,-467.5 954,-448.5 907,-448.5"/>
<text text-anchor="middle" x="930.5" y="-455.5" font-family="Helvetica,sans-Serif" font-size="10.00" fill="#000000">cstdint</text>
</g>
<!-- Node0&#45;&gt;Node4 -->
<g id="edge4" class="edge">
<title>Node0&#45;&gt;Node4</title>
<path fill="none" stroke="#191970" d="M833.8123,-504.4554C854.5138,-494.509 881.4523,-481.5659 901.6353,-471.8686"/>
<polygon fill="#191970" stroke="#191970" points="903.1667,-475.0159 910.6645,-467.5303 900.1352,-468.7064 903.1667,-475.0159"/>
</g>
<!-- Node5 -->
<g id="node6" class="node">
<title>Node5</title>
<polygon fill="#ffffff" stroke="#bfbfbf" points="748.5,-56.5 748.5,-75.5 802.5,-75.5 802.5,-56.5 748.5,-56.5"/>
<text text-anchor="middle" x="775.5" y="-63.5" font-family="Helvetica,sans-Serif" font-size="10.00" fill="#000000">memory</text>
</g>
<!-- Node0&#45;&gt;Node5 -->
<g id="edge5" class="edge">
<title>Node0&#45;&gt;Node5</title>
<path fill="none" stroke="#191970" d="M820.5109,-504.4232C842.9852,-483.8121 878.5,-444.5155 878.5,-402 878.5,-402 878.5,-402 878.5,-178 878.5,-133.4711 833.8441,-99.0241 803.3393,-80.6879"/>
<polygon fill="#191970" stroke="#191970" points="804.8019,-77.4909 794.3918,-75.5213 801.3015,-83.5529 804.8019,-77.4909"/>
</g>
<!-- Node6 -->
<g id="node7" class="node">
<title>Node6</title>
<polygon fill="#ffffff" stroke="#bfbfbf" points="972.5,-448.5 972.5,-467.5 1016.5,-467.5 1016.5,-448.5 972.5,-448.5"/>
<text text-anchor="middle" x="994.5" y="-455.5" font-family="Helvetica,sans-Serif" font-size="10.00" fill="#000000">regex</text>
</g>
<!-- Node0&#45;&gt;Node6 -->
<g id="edge6" class="edge">
<title>Node0&#45;&gt;Node6</title>
<path fill="none" stroke="#191970" d="M849.7102,-504.4321C879.61,-494.8815 919.3385,-482.1774 962.85,-468.2041"/>
<polygon fill="#191970" stroke="#191970" points="964.0363,-471.4992 972.4867,-465.1084 961.8954,-464.8346 964.0363,-471.4992"/>
</g>
<!-- Node7 -->
<g id="node8" class="node">
<title>Node7</title>
<polygon fill="#ffffff" stroke="#bfbfbf" points="738,-112.5 738,-131.5 781,-131.5 781,-112.5 738,-112.5"/>
<text text-anchor="middle" x="759.5" y="-119.5" font-family="Helvetica,sans-Serif" font-size="10.00" fill="#000000">string</text>
</g>
<!-- Node0&#45;&gt;Node7 -->
<g id="edge7" class="edge">
<title>Node0&#45;&gt;Node7</title>
<path fill="none" stroke="#191970" d="M810.7454,-504.42C821.9215,-482.5326 840.5,-440.3768 840.5,-402 840.5,-402 840.5,-402 840.5,-290 840.5,-230.1379 798.2563,-169.1203 774.7831,-139.8358"/>
<polygon fill="#191970" stroke="#191970" points="777.2269,-137.2976 768.1684,-131.8027 771.8231,-141.7473 777.2269,-137.2976"/>
</g>
<!-- Node8 -->
<g id="node9" class="node">
<title>Node8</title>
<polygon fill="#ffffff" stroke="#bfbfbf" points="1034.5,-448.5 1034.5,-467.5 1088.5,-467.5 1088.5,-448.5 1034.5,-448.5"/>
<text text-anchor="middle" x="1061.5" y="-455.5" font-family="Helvetica,sans-Serif" font-size="10.00" fill="#000000">sstream</text>
</g>
<!-- Node0&#45;&gt;Node8 -->
<g id="edge8" class="edge">
<title>Node0&#45;&gt;Node8</title>
<path fill="none" stroke="#191970" d="M871.0073,-504.4975C912.7996,-495.1547 967.5227,-482.5841 1024.4984,-468.1811"/>
<polygon fill="#191970" stroke="#191970" points="1025.5772,-471.5182 1034.4073,-465.6632 1023.8533,-464.7338 1025.5772,-471.5182"/>
</g>
<!-- Node9 -->
<g id="node10" class="node">
<title>Node9</title>
<polygon fill="#ffffff" stroke="#bfbfbf" points="1106.5,-448.5 1106.5,-467.5 1152.5,-467.5 1152.5,-448.5 1106.5,-448.5"/>
<text text-anchor="middle" x="1129.5" y="-455.5" font-family="Helvetica,sans-Serif" font-size="10.00" fill="#000000">vector</text>
</g>
<!-- Node0&#45;&gt;Node9 -->
<g id="edge9" class="edge">
<title>Node0&#45;&gt;Node9</title>
<path fill="none" stroke="#191970" d="M883.2143,-508.3062C940.3899,-499.7057 1018.9903,-486.5304 1096.2724,-468.0702"/>
<polygon fill="#191970" stroke="#191970" points="1097.2834,-471.4267 1106.1795,-465.6725 1095.6367,-464.6231 1097.2834,-471.4267"/>
</g>
<!-- Node10 -->
<g id="node11" class="node">
<title>Node10</title>
<g id="a_node11"><a xlink:href="paraconf__wrapper_8h.html" target="_top" xlink:title="pdi/paraconf_wrapper.h">
<polygon fill="#ffffff" stroke="#000000" points="208,-168.5 208,-187.5 337,-187.5 337,-168.5 208,-168.5"/>
<text text-anchor="middle" x="272.5" y="-175.5" font-family="Helvetica,sans-Serif" font-size="10.00" fill="#000000">pdi/paraconf_wrapper.h</text>
</a>
</g>
</g>
<!-- Node0&#45;&gt;Node10 -->
<g id="edge10" class="edge">
<title>Node0&#45;&gt;Node10</title>
<path fill="none" stroke="#191970" d="M721.9543,-513.7092C604.2639,-504.7805 391.1896,-486.7164 316.5,-468 252.2943,-451.9107 215.4717,-466.9029 178.5,-412 128.9806,-338.4639 216.6188,-234.8491 255.4115,-194.753"/>
<polygon fill="#191970" stroke="#191970" points="257.9297,-197.1841 262.4637,-187.6084 252.9478,-192.2666 257.9297,-197.1841"/>
</g>
<!-- Node16 -->
<g id="node17" class="node">
<title>Node16</title>
<g id="a_node17"><a xlink:href="error_8h.html" target="_top" xlink:title="pdi/error.h">
<polygon fill="#ffffff" stroke="#000000" points="656,-168.5 656,-187.5 721,-187.5 721,-168.5 656,-168.5"/>
<text text-anchor="middle" x="688.5" y="-175.5" font-family="Helvetica,sans-Serif" font-size="10.00" fill="#000000">pdi/error.h</text>
</a>
</g>
</g>
<!-- Node0&#45;&gt;Node16 -->
<g id="edge19" class="edge">
<title>Node0&#45;&gt;Node16</title>
<path fill="none" stroke="#191970" d="M802.5,-504.2899C802.5,-481.892 802.5,-438.7188 802.5,-402 802.5,-402 802.5,-402 802.5,-290 802.5,-243.4628 753.5617,-209.828 719.8136,-192.1659"/>
<polygon fill="#191970" stroke="#191970" points="721.2576,-188.9746 710.751,-187.6105 718.1138,-195.2289 721.2576,-188.9746"/>
</g>
<!-- Node18 -->
<g id="node19" class="node">
<title>Node18</title>
<g id="a_node19"><a xlink:href="expression_8h.html" target="_top" xlink:title="pdi/expression.h">
<polygon fill="#ffffff" stroke="#000000" points="679.5,-448.5 679.5,-467.5 773.5,-467.5 773.5,-448.5 679.5,-448.5"/>
<text text-anchor="middle" x="726.5" y="-455.5" font-family="Helvetica,sans-Serif" font-size="10.00" fill="#000000">pdi/expression.h</text>
</a>
</g>
</g>
<!-- Node0&#45;&gt;Node18 -->
<g id="edge24" class="edge">
<title>Node0&#45;&gt;Node18</title>
<path fill="none" stroke="#191970" d="M783.7135,-504.2977C772.3947,-495.1384 757.9895,-483.4816 746.4654,-474.1562"/>
<polygon fill="#191970" stroke="#191970" points="748.6439,-471.4167 738.6686,-467.8469 744.2405,-476.8583 748.6439,-471.4167"/>
</g>
<!-- Node26 -->
<g id="node27" class="node">
<title>Node26</title>
<g id="a_node27"><a xlink:href="array__datatype_8h.html" target="_top" xlink:title="pdi/array_datatype.h">
<polygon fill="#ffffff" stroke="#000000" points="187.5,-392.5 187.5,-411.5 301.5,-411.5 301.5,-392.5 187.5,-392.5"/>
<text text-anchor="middle" x="244.5" y="-399.5" font-family="Helvetica,sans-Serif" font-size="10.00" fill="#000000">pdi/array_datatype.h</text>
</a>
</g>
</g>
<!-- Node0&#45;&gt;Node26 -->
<g id="edge43" class="edge">
<title>Node0&#45;&gt;Node26</title>
<path fill="none" stroke="#191970" d="M721.742,-513.6753C614.1636,-505.2818 429.9197,-488.5166 365.5,-468 328.4637,-456.2045 289.7113,-432.8053 266.3321,-417.277"/>
<polygon fill="#191970" stroke="#191970" points="268.1182,-414.2596 257.8745,-411.5548 264.1956,-420.0573 268.1182,-414.2596"/>
</g>
<!-- Node10&#45;&gt;Node7 -->
<g id="edge11" class="edge">
<title>Node10&#45;&gt;Node7</title>
<path fill="none" stroke="#191970" d="M337.3457,-175.7692C424.3669,-171.8229 583.6801,-161.2551 728.05,-131.6566"/>
<polygon fill="#191970" stroke="#191970" points="728.9022,-135.0543 737.9769,-129.5861 727.4729,-128.2017 728.9022,-135.0543"/>
</g>
<!-- Node11 -->
<g id="node12" class="node">
<title>Node11</title>
<polygon fill="#ffffff" stroke="#bfbfbf" points="418,-.5 418,-19.5 485,-19.5 485,-.5 418,-.5"/>
<text text-anchor="middle" x="451.5" y="-7.5" font-family="Helvetica,sans-Serif" font-size="10.00" fill="#000000">paraconf.h</text>
</g>
<!-- Node10&#45;&gt;Node11 -->
<g id="edge12" class="edge">
<title>Node10&#45;&gt;Node11</title>
<path fill="none" stroke="#191970" d="M282.6367,-168.4862C311.7899,-141.1246 396.1455,-61.9528 433.4228,-26.9663"/>
<polygon fill="#191970" stroke="#191970" points="436.1323,-29.2234 441.0286,-19.8279 431.3418,-24.1193 436.1323,-29.2234"/>
</g>
<!-- Node12 -->
<g id="node13" class="node">
<title>Node12</title>
<g id="a_node13"><a xlink:href="pdi__fwd_8h.html" target="_top" xlink:title="pdi/pdi_fwd.h">
<polygon fill="#ffffff" stroke="#000000" points="383,-112.5 383,-131.5 462,-131.5 462,-112.5 383,-112.5"/>
<text text-anchor="middle" x="422.5" y="-119.5" font-family="Helvetica,sans-Serif" font-size="10.00" fill="#000000">pdi/pdi_fwd.h</text>
</a>
</g>
</g>
<!-- Node10&#45;&gt;Node12 -->
<g id="edge13" class="edge">
<title>Node10&#45;&gt;Node12</title>
<path fill="none" stroke="#191970" d="M298.2859,-168.3733C322.9047,-159.1822 360.19,-145.2624 387.4875,-135.0713"/>
<polygon fill="#191970" stroke="#191970" points="388.9063,-138.2777 397.0506,-131.5011 386.458,-131.7198 388.9063,-138.2777"/>
</g>
<!-- Node12&#45;&gt;Node5 -->
<g id="edge14" class="edge">
<title>Node12&#45;&gt;Node5</title>
<path fill="none" stroke="#191970" d="M462.3074,-115.6849C531.111,-104.7699 671.3208,-82.527 738.2839,-71.904"/>
<polygon fill="#191970" stroke="#191970" points="739.0519,-75.326 748.38,-70.3023 737.9551,-68.4124 739.0519,-75.326"/>
</g>
<!-- Node13 -->
<g id="node14" class="node">
<title>Node13</title>
<g id="a_node14"><a xlink:href="pdi_8h.html" target="_top" xlink:title="pdi.h">
<polygon fill="#ffffff" stroke="#000000" points="658,-56.5 658,-75.5 697,-75.5 697,-56.5 658,-56.5"/>
<text text-anchor="middle" x="677.5" y="-63.5" font-family="Helvetica,sans-Serif" font-size="10.00" fill="#000000">pdi.h</text>
</a>
</g>
</g>
<!-- Node12&#45;&gt;Node13 -->
<g id="edge15" class="edge">
<title>Node12&#45;&gt;Node13</title>
<path fill="none" stroke="#191970" d="M462.064,-113.3114C513.4579,-102.0249 602.0186,-82.5763 647.9472,-72.49"/>
<polygon fill="#191970" stroke="#191970" points="648.8497,-75.8753 657.8662,-70.3117 647.3482,-69.0382 648.8497,-75.8753"/>
</g>
<!-- Node13&#45;&gt;Node11 -->
<g id="edge16" class="edge">
<title>Node13&#45;&gt;Node11</title>
<path fill="none" stroke="#191970" d="M657.7713,-60.0128C653.1049,-58.6479 648.1371,-57.2366 643.5,-56 592.8798,-42.5014 534.2647,-28.7242 495.245,-19.8128"/>
<polygon fill="#191970" stroke="#191970" points="495.8009,-16.3499 485.2736,-17.544 494.2478,-23.1754 495.8009,-16.3499"/>
</g>
<!-- Node14 -->
<g id="node15" class="node">
<title>Node14</title>
<polygon fill="#ffffff" stroke="#bfbfbf" points="594.5,-.5 594.5,-19.5 666.5,-19.5 666.5,-.5 594.5,-.5"/>
<text text-anchor="middle" x="630.5" y="-7.5" font-family="Helvetica,sans-Serif" font-size="10.00" fill="#000000">pdi/export.h</text>
</g>
<!-- Node13&#45;&gt;Node14 -->
<g id="edge17" class="edge">
<title>Node13&#45;&gt;Node14</title>
<path fill="none" stroke="#191970" d="M669.3132,-56.2455C662.6411,-48.2958 653.0521,-36.8706 645.0747,-27.3656"/>
<polygon fill="#191970" stroke="#191970" points="647.7026,-25.0524 638.593,-19.6427 642.3408,-29.5525 647.7026,-25.0524"/>
</g>
<!-- Node15 -->
<g id="node16" class="node">
<title>Node15</title>
<polygon fill="#ffffff" stroke="#bfbfbf" points="685,-.5 685,-19.5 762,-19.5 762,-.5 685,-.5"/>
<text text-anchor="middle" x="723.5" y="-7.5" font-family="Helvetica,sans-Serif" font-size="10.00" fill="#000000">pdi/version.h</text>
</g>
<!-- Node13&#45;&gt;Node15 -->
<g id="edge18" class="edge">
<title>Node13&#45;&gt;Node15</title>
<path fill="none" stroke="#191970" d="M685.5126,-56.2455C691.9768,-48.3761 701.2385,-37.101 708.9983,-27.6542"/>
<polygon fill="#191970" stroke="#191970" points="711.9364,-29.5916 715.5792,-19.6427 706.5273,-25.1484 711.9364,-29.5916"/>
</g>
<!-- Node16&#45;&gt;Node7 -->
<g id="edge21" class="edge">
<title>Node16&#45;&gt;Node7</title>
<path fill="none" stroke="#191970" d="M700.8673,-168.2455C711.4554,-159.8943 726.9064,-147.7076 739.2893,-137.9408"/>
<polygon fill="#191970" stroke="#191970" points="741.5903,-140.5837 747.2745,-131.6427 737.2553,-135.0875 741.5903,-140.5837"/>
</g>
<!-- Node16&#45;&gt;Node11 -->
<g id="edge22" class="edge">
<title>Node16&#45;&gt;Node11</title>
<path fill="none" stroke="#191970" d="M675.0788,-168.4862C635.9006,-140.7144 521.425,-59.5671 473.257,-25.4227"/>
<polygon fill="#191970" stroke="#191970" points="475.2501,-22.5454 465.0678,-19.6177 471.2019,-28.2561 475.2501,-22.5454"/>
</g>
<!-- Node16&#45;&gt;Node12 -->
<g id="edge23" class="edge">
<title>Node16&#45;&gt;Node12</title>
<path fill="none" stroke="#191970" d="M655.8832,-171.1333C610.007,-161.4752 526.0347,-143.7968 472.3143,-132.4872"/>
<polygon fill="#191970" stroke="#191970" points="472.8295,-129.019 462.3229,-130.3838 471.3873,-135.8689 472.8295,-129.019"/>
</g>
<!-- Node17 -->
<g id="node18" class="node">
<title>Node17</title>
<polygon fill="#ffffff" stroke="#bfbfbf" points="657.5,-112.5 657.5,-131.5 719.5,-131.5 719.5,-112.5 657.5,-112.5"/>
<text text-anchor="middle" x="688.5" y="-119.5" font-family="Helvetica,sans-Serif" font-size="10.00" fill="#000000">exception</text>
</g>
<!-- Node16&#45;&gt;Node17 -->
<g id="edge20" class="edge">
<title>Node16&#45;&gt;Node17</title>
<path fill="none" stroke="#191970" d="M688.5,-168.2455C688.5,-160.9382 688.5,-150.6944 688.5,-141.7046"/>
<polygon fill="#191970" stroke="#191970" points="692.0001,-141.6426 688.5,-131.6427 685.0001,-141.6427 692.0001,-141.6426"/>
</g>
<!-- Node18&#45;&gt;Node5 -->
<g id="edge25" class="edge">
<title>Node18&#45;&gt;Node5</title>
<path fill="none" stroke="#191970" d="M732.107,-448.4834C742.6774,-429.6141 764.5,-385.8343 764.5,-346 764.5,-346 764.5,-346 764.5,-290 764.5,-218.8334 784.703,-202.9301 790.5,-132 791.2241,-123.1407 791.8952,-120.7787 790.5,-112 789.0699,-103.0016 786.1588,-93.3703 783.2784,-85.2579"/>
<polygon fill="#191970" stroke="#191970" points="786.4537,-83.7599 779.6368,-75.6493 779.908,-86.2407 786.4537,-83.7599"/>
</g>
<!-- Node18&#45;&gt;Node12 -->
<g id="edge26" class="edge">
<title>Node18&#45;&gt;Node12</title>
<path fill="none" stroke="#191970" d="M721.658,-448.2462C710.763,-426.7796 682.8112,-374.309 651.5,-336 583.8455,-253.2253 485.1596,-171.4614 442.9179,-137.9082"/>
<polygon fill="#191970" stroke="#191970" points="445.038,-135.1228 435.0197,-131.6754 440.7016,-140.6178 445.038,-135.1228"/>
</g>
<!-- Node19 -->
<g id="node20" class="node">
<title>Node19</title>
<g id="a_node20"><a xlink:href="ref__any_8h.html" target="_top" xlink:title="pdi/ref_any.h">
<polygon fill="#ffffff" stroke="#000000" points="457.5,-392.5 457.5,-411.5 535.5,-411.5 535.5,-392.5 457.5,-392.5"/>
<text text-anchor="middle" x="496.5" y="-399.5" font-family="Helvetica,sans-Serif" font-size="10.00" fill="#000000">pdi/ref_any.h</text>
</a>
</g>
</g>
<!-- Node18&#45;&gt;Node19 -->
<g id="edge27" class="edge">
<title>Node18&#45;&gt;Node19</title>
<path fill="none" stroke="#191970" d="M687.2229,-448.4369C648.0256,-438.8932 587.7,-424.2052 545.4165,-413.9101"/>
<polygon fill="#191970" stroke="#191970" points="546.1592,-410.4888 535.6151,-411.5237 544.5032,-417.2901 546.1592,-410.4888"/>
</g>
<!-- Node19&#45;&gt;Node3 -->
<g id="edge28" class="edge">
<title>Node19&#45;&gt;Node3</title>
<path fill="none" stroke="#191970" d="M465.2131,-392.3733C433.1603,-382.5109 383.4116,-367.2036 349.9285,-356.9011"/>
<polygon fill="#191970" stroke="#191970" points="350.6841,-353.4717 340.097,-353.876 348.6255,-360.1622 350.6841,-353.4717"/>
</g>
<!-- Node19&#45;&gt;Node5 -->
<g id="edge30" class="edge">
<title>Node19&#45;&gt;Node5</title>
<path fill="none" stroke="#191970" d="M535.796,-393.6732C571.2486,-385.3025 619.6069,-371.4521 631.5,-356 697.8043,-269.8546 583.0216,-198.7748 648.5,-112 659.6047,-97.2836 704.9776,-83.2918 738.3348,-74.6861"/>
<polygon fill="#191970" stroke="#191970" points="739.4052,-78.026 748.2501,-72.1934 737.6985,-71.2372 739.4052,-78.026"/>
</g>
<!-- Node19&#45;&gt;Node12 -->
<g id="edge33" class="edge">
<title>Node19&#45;&gt;Node12</title>
<path fill="none" stroke="#191970" d="M457.2818,-396.4977C432.7397,-390.8053 402.9421,-379.2777 387.5,-356 364.1197,-320.756 401.0004,-190.8014 416.3229,-141.311"/>
<polygon fill="#191970" stroke="#191970" points="419.7349,-142.1279 419.3941,-131.5386 413.0569,-140.0292 419.7349,-142.1279"/>
</g>
<!-- Node19&#45;&gt;Node16 -->
<g id="edge42" class="edge">
<title>Node19&#45;&gt;Node16</title>
<path fill="none" stroke="#191970" d="M535.6911,-396.3362C579.8482,-389.1185 647.6742,-375.2314 664.5,-356 703.7782,-311.1061 697.7562,-233.9134 692.2029,-197.7609"/>
<polygon fill="#191970" stroke="#191970" points="695.5957,-196.833 690.4744,-187.5581 688.694,-198.0023 695.5957,-196.833"/>
</g>
<!-- Node20 -->
<g id="node21" class="node">
<title>Node20</title>
<polygon fill="#ffffff" stroke="#bfbfbf" points="560.5,-336.5 560.5,-355.5 622.5,-355.5 622.5,-336.5 560.5,-336.5"/>
<text text-anchor="middle" x="591.5" y="-343.5" font-family="Helvetica,sans-Serif" font-size="10.00" fill="#000000">functional</text>
</g>
<!-- Node19&#45;&gt;Node20 -->
<g id="edge29" class="edge">
<title>Node19&#45;&gt;Node20</title>
<path fill="none" stroke="#191970" d="M513.0477,-392.2455C527.7599,-383.5731 549.4888,-370.7645 566.3505,-360.825"/>
<polygon fill="#191970" stroke="#191970" points="568.3046,-363.736 575.1419,-355.6427 564.7498,-357.7057 568.3046,-363.736"/>
</g>
<!-- Node21 -->
<g id="node22" class="node">
<title>Node21</title>
<polygon fill="#ffffff" stroke="#bfbfbf" points="396.5,-336.5 396.5,-355.5 432.5,-355.5 432.5,-336.5 396.5,-336.5"/>
<text text-anchor="middle" x="414.5" y="-343.5" font-family="Helvetica,sans-Serif" font-size="10.00" fill="#000000">new</text>
</g>
<!-- Node19&#45;&gt;Node21 -->
<g id="edge31" class="edge">
<title>Node19&#45;&gt;Node21</title>
<path fill="none" stroke="#191970" d="M482.2167,-392.2455C469.753,-383.7337 451.4549,-371.2375 437.0208,-361.3801"/>
<polygon fill="#191970" stroke="#191970" points="438.8515,-358.392 428.6196,-355.6427 434.9038,-364.1726 438.8515,-358.392"/>
</g>
<!-- Node22 -->
<g id="node23" class="node">
<title>Node22</title>
<polygon fill="#ffffff" stroke="#bfbfbf" points="450.5,-336.5 450.5,-355.5 542.5,-355.5 542.5,-336.5 450.5,-336.5"/>
<text text-anchor="middle" x="496.5" y="-343.5" font-family="Helvetica,sans-Serif" font-size="10.00" fill="#000000">unordered_map</text>
</g>
<!-- Node19&#45;&gt;Node22 -->
<g id="edge32" class="edge">
<title>Node19&#45;&gt;Node22</title>
<path fill="none" stroke="#191970" d="M496.5,-392.2455C496.5,-384.9382 496.5,-374.6944 496.5,-365.7046"/>
<polygon fill="#191970" stroke="#191970" points="500.0001,-365.6426 496.5,-355.6427 493.0001,-365.6427 500.0001,-365.6426"/>
</g>
<!-- Node23 -->
<g id="node24" class="node">
<title>Node23</title>
<g id="a_node24"><a xlink:href="datatype_8h.html" target="_top" xlink:title="pdi/datatype.h">
<polygon fill="#ffffff" stroke="#000000" points="188,-336.5 188,-355.5 271,-355.5 271,-336.5 188,-336.5"/>
<text text-anchor="middle" x="229.5" y="-343.5" font-family="Helvetica,sans-Serif" font-size="10.00" fill="#000000">pdi/datatype.h</text>
</a>
</g>
</g>
<!-- Node19&#45;&gt;Node23 -->
<g id="edge34" class="edge">
<title>Node19&#45;&gt;Node23</title>
<path fill="none" stroke="#191970" d="M457.39,-393.7971C410.8125,-384.0281 332.8502,-367.6764 281.2981,-356.864"/>
<polygon fill="#191970" stroke="#191970" points="281.8624,-353.4063 271.3569,-354.779 280.4255,-360.2572 281.8624,-353.4063"/>
</g>
<!-- Node23&#45;&gt;Node12 -->
<g id="edge35" class="edge">
<title>Node23&#45;&gt;Node12</title>
<path fill="none" stroke="#191970" d="M220.4259,-336.3243C212.9037,-327.5913 202.7769,-313.9994 198.5,-300 181.359,-243.8933 161.4228,-213.465 198.5,-168 220.0392,-141.5881 313.4417,-129.9128 372.6262,-125.0874"/>
<polygon fill="#191970" stroke="#191970" points="373.1945,-128.5539 382.8937,-124.2906 372.6528,-121.5749 373.1945,-128.5539"/>
</g>
<!-- Node24 -->
<g id="node25" class="node">
<title>Node24</title>
<g id="a_node25"><a xlink:href="datatype__template_8h.html" target="_top" xlink:title="pdi/datatype_template.h">
<polygon fill="#ffffff" stroke="#000000" points="207.5,-280.5 207.5,-299.5 337.5,-299.5 337.5,-280.5 207.5,-280.5"/>
<text text-anchor="middle" x="272.5" y="-287.5" font-family="Helvetica,sans-Serif" font-size="10.00" fill="#000000">pdi/datatype_template.h</text>
</a>
</g>
</g>
<!-- Node23&#45;&gt;Node24 -->
<g id="edge36" class="edge">
<title>Node23&#45;&gt;Node24</title>
<path fill="none" stroke="#191970" d="M236.99,-336.2455C243.0326,-328.3761 251.6903,-317.101 258.9441,-307.6542"/>
<polygon fill="#191970" stroke="#191970" points="261.7815,-309.7058 265.0958,-299.6427 256.2295,-305.4426 261.7815,-309.7058"/>
</g>
<!-- Node24&#45;&gt;Node11 -->
<g id="edge37" class="edge">
<title>Node24&#45;&gt;Node11</title>
<path fill="none" stroke="#191970" d="M258.7491,-280.3474C231.4131,-259.9184 174.835,-210.6796 198.5,-168 243.3398,-87.1318 348.7137,-42.2069 408.3621,-22.4271"/>
<polygon fill="#191970" stroke="#191970" points="409.4386,-25.7576 417.8806,-19.3556 407.2889,-19.0958 409.4386,-25.7576"/>
</g>
<!-- Node24&#45;&gt;Node12 -->
<g id="edge38" class="edge">
<title>Node24&#45;&gt;Node12</title>
<path fill="none" stroke="#191970" d="M283.2713,-280.3915C293.3753,-271.2618 308.7907,-257.0307 321.5,-244 344.7968,-220.114 350.1747,-213.6616 371.5,-188 384.7348,-172.0741 399.0972,-153.3466 409.1979,-139.9168"/>
<polygon fill="#191970" stroke="#191970" points="412.2575,-141.6696 415.4435,-131.5651 406.6517,-137.4773 412.2575,-141.6696"/>
</g>
<!-- Node25 -->
<g id="node26" class="node">
<title>Node25</title>
<g id="a_node26"><a xlink:href="logger_8h.html" target="_top" xlink:title="pdi/logger.h">
<polygon fill="#ffffff" stroke="#000000" points="240.5,-224.5 240.5,-243.5 312.5,-243.5 312.5,-224.5 240.5,-224.5"/>
<text text-anchor="middle" x="276.5" y="-231.5" font-family="Helvetica,sans-Serif" font-size="10.00" fill="#000000">pdi/logger.h</text>
</a>
</g>
</g>
<!-- Node24&#45;&gt;Node25 -->
<g id="edge39" class="edge">
<title>Node24&#45;&gt;Node25</title>
<path fill="none" stroke="#191970" d="M273.1967,-280.2455C273.7187,-272.9382 274.4504,-262.6944 275.0925,-253.7046"/>
<polygon fill="#191970" stroke="#191970" points="278.5898,-253.8667 275.8112,-243.6427 271.6076,-253.3679 278.5898,-253.8667"/>
</g>
<!-- Node25&#45;&gt;Node10 -->
<g id="edge41" class="edge">
<title>Node25&#45;&gt;Node10</title>
<path fill="none" stroke="#191970" d="M275.8033,-224.2455C275.2813,-216.9382 274.5496,-206.6944 273.9075,-197.7046"/>
<polygon fill="#191970" stroke="#191970" points="277.3924,-197.3679 273.1888,-187.6427 270.4102,-197.8667 277.3924,-197.3679"/>
</g>
<!-- Node25&#45;&gt;Node12 -->
<g id="edge40" class="edge">
<title>Node25&#45;&gt;Node12</title>
<path fill="none" stroke="#191970" d="M291.9396,-224.4618C306.1694,-215.496 327.7122,-201.4751 345.5,-188 366.3411,-172.2119 388.913,-152.5321 404.1949,-138.7881"/>
<polygon fill="#191970" stroke="#191970" points="406.8181,-141.1343 411.8776,-131.8256 402.1174,-135.9474 406.8181,-141.1343"/>
</g>
<!-- Node26&#45;&gt;Node12 -->
<g id="edge44" class="edge">
<title>Node26&#45;&gt;Node12</title>
<path fill="none" stroke="#191970" d="M210.6377,-392.4958C167.5078,-378.0785 98.5,-346.2255 98.5,-290 98.5,-290 98.5,-290 98.5,-234 98.5,-186.5213 139.2975,-187.6918 182.5,-168 244.3095,-139.827 322.6839,-128.901 372.7247,-124.6686"/>
<polygon fill="#191970" stroke="#191970" points="373.2621,-128.1373 382.9566,-123.8633 372.7128,-121.1588 373.2621,-128.1373"/>
</g>
<!-- Node26&#45;&gt;Node23 -->
<g id="edge45" class="edge">
<title>Node26&#45;&gt;Node23</title>
<path fill="none" stroke="#191970" d="M241.8872,-392.2455C239.9084,-384.8579 237.1256,-374.4689 234.6988,-365.4087"/>
<polygon fill="#191970" stroke="#191970" points="238.0511,-364.3966 232.0829,-355.6427 231.2895,-366.2078 238.0511,-364.3966"/>
</g>
</g>
</svg>
