<?xml version="1.0" encoding="UTF-8" standalone="no"?>
<!DOCTYPE svg PUBLIC "-//W3C//DTD SVG 1.1//EN"
 "http://www.w3.org/Graphics/SVG/1.1/DTD/svg11.dtd">
<!-- Generated by graphviz version 2.40.1 (20161225.0304)
 -->
<!-- Title: PDI::Data_descriptor_impl::ref Pages: 1 -->
<svg width="272pt" height="116pt"
 viewBox="0.00 0.00 272.00 115.50" xmlns="http://www.w3.org/2000/svg" xmlns:xlink="http://www.w3.org/1999/xlink">
<g id="graph0" class="graph" transform="scale(1 1) rotate(0) translate(4 111.5)">
<title>PDI::Data_descriptor_impl::ref</title>
<polygon fill="#ffffff" stroke="transparent" points="-4,4 -4,-111.5 268,-111.5 268,4 -4,4"/>
<!-- Node47 -->
<g id="node1" class="node">
<title>Node47</title>
<polygon fill="#bfbfbf" stroke="#000000" points="0,-33 0,-63 114,-63 114,-33 0,-33"/>
<text text-anchor="start" x="8" y="-51" font-family="Helvetica,sans-Serif" font-size="10.00" fill="#000000">PDI::Data_descriptor</text>
<text text-anchor="middle" x="57" y="-40" font-family="Helvetica,sans-Serif" font-size="10.00" fill="#000000">_impl::ref</text>
</g>
<!-- Node48 -->
<g id="node2" class="node">
<title>Node48</title>
<g id="a_node2"><a xlink:href="classPDI_1_1Data__descriptor__impl.html#a00fee097289f95d6120342e7242951cd" target="_top" xlink:title="PDI::Data_descriptor\l_impl::metadata">
<polygon fill="#ffffff" stroke="#000000" points="150,-77 150,-107 264,-107 264,-77 150,-77"/>
<text text-anchor="start" x="158" y="-95" font-family="Helvetica,sans-Serif" font-size="10.00" fill="#000000">PDI::Data_descriptor</text>
<text text-anchor="middle" x="207" y="-84" font-family="Helvetica,sans-Serif" font-size="10.00" fill="#000000">_impl::metadata</text>
</a>
</g>
</g>
<!-- Node47&#45;&gt;Node48 -->
<g id="edge1" class="edge">
<title>Node47&#45;&gt;Node48</title>
<path fill="none" stroke="#191970" d="M108.202,-63.0192C120.3232,-66.5748 133.3697,-70.4018 145.882,-74.0721"/>
<polygon fill="#191970" stroke="#191970" points="145.1934,-77.5175 155.7743,-76.9738 147.1638,-70.8005 145.1934,-77.5175"/>
</g>
<!-- Node49 -->
<g id="node3" class="node">
<title>Node49</title>
<g id="a_node3"><a xlink:href="classPDI_1_1Error.html#a96f2da1344848f7862d6d4227ba7c82a" target="_top" xlink:title="PDI::Error::status">
<polygon fill="#ffffff" stroke="#000000" points="159.5,-38.5 159.5,-57.5 254.5,-57.5 254.5,-38.5 159.5,-38.5"/>
<text text-anchor="middle" x="207" y="-45.5" font-family="Helvetica,sans-Serif" font-size="10.00" fill="#000000">PDI::Error::status</text>
</a>
</g>
</g>
<!-- Node47&#45;&gt;Node49 -->
<g id="edge2" class="edge">
<title>Node47&#45;&gt;Node49</title>
<path fill="none" stroke="#191970" d="M114.1365,-48C125.5464,-48 137.5419,-48 148.9812,-48"/>
<polygon fill="#191970" stroke="#191970" points="149.2976,-51.5001 159.2975,-48 149.2975,-44.5001 149.2976,-51.5001"/>
</g>
<!-- Node50 -->
<g id="node4" class="node">
<title>Node50</title>
<g id="a_node4"><a xlink:href="classPDI_1_1Error.html#aca3b34b8350235c8455bfe56236c4454" target="_top" xlink:title="PDI::Error::what">
<polygon fill="#ffffff" stroke="#000000" points="162.5,-.5 162.5,-19.5 251.5,-19.5 251.5,-.5 162.5,-.5"/>
<text text-anchor="middle" x="207" y="-7.5" font-family="Helvetica,sans-Serif" font-size="10.00" fill="#000000">PDI::Error::what</text>
</a>
</g>
</g>
<!-- Node47&#45;&gt;Node50 -->
<g id="edge3" class="edge">
<title>Node47&#45;&gt;Node50</title>
<path fill="none" stroke="#191970" d="M114.1365,-33.5254C128.9266,-29.7786 144.7009,-25.7824 158.972,-22.1671"/>
<polygon fill="#191970" stroke="#191970" points="160.2281,-25.4595 169.0624,-19.6109 158.509,-18.6739 160.2281,-25.4595"/>
</g>
</g>
</svg>
