<?xml version="1.0" encoding="UTF-8" standalone="no"?>
<!DOCTYPE svg PUBLIC "-//W3C//DTD SVG 1.1//EN"
 "http://www.w3.org/Graphics/SVG/1.1/DTD/svg11.dtd">
<!-- Generated by graphviz version 2.40.1 (20161225.0304)
 -->
<!-- Title: PDI::Data_descriptor::share Pages: 1 -->
<svg width="276pt" height="66pt"
 viewBox="0.00 0.00 276.00 66.00" xmlns="http://www.w3.org/2000/svg" xmlns:xlink="http://www.w3.org/1999/xlink">
<g id="graph0" class="graph" transform="scale(1 1) rotate(0) translate(4 62)">
<title>PDI::Data_descriptor::share</title>
<polygon fill="#ffffff" stroke="transparent" points="-4,4 -4,-62 272,-62 272,4 -4,4"/>
<!-- Node23 -->
<g id="node1" class="node">
<title>Node23</title>
<polygon fill="#bfbfbf" stroke="#000000" points="0,-14 0,-44 114,-44 114,-14 0,-14"/>
<text text-anchor="start" x="8" y="-32" font-family="Helvetica,sans-Serif" font-size="10.00" fill="#000000">PDI::Data_descriptor</text>
<text text-anchor="middle" x="57" y="-21" font-family="Helvetica,sans-Serif" font-size="10.00" fill="#000000">::share</text>
</g>
<!-- Node24 -->
<g id="node2" class="node">
<title>Node24</title>
<g id="a_node2"><a xlink:href="pdi_8cxx.html#a8dcd0c81d7697ea473a55bd57efb717d" target="_top" xlink:title="PDI_access">
<polygon fill="#ffffff" stroke="#000000" points="172.5,-38.5 172.5,-57.5 245.5,-57.5 245.5,-38.5 172.5,-38.5"/>
<text text-anchor="middle" x="209" y="-45.5" font-family="Helvetica,sans-Serif" font-size="10.00" fill="#000000">PDI_access</text>
</a>
</g>
</g>
<!-- Node23&#45;&gt;Node24 -->
<g id="edge1" class="edge">
<title>Node23&#45;&gt;Node24</title>
<path fill="none" stroke="#191970" d="M124.2386,-37.4048C140.7943,-39.4743 157.912,-41.614 172.3927,-43.4241"/>
<polygon fill="#191970" stroke="#191970" points="124.3886,-33.8964 114.0316,-36.129 123.5203,-40.8424 124.3886,-33.8964"/>
</g>
<!-- Node25 -->
<g id="node3" class="node">
<title>Node25</title>
<g id="a_node3"><a xlink:href="python_2pdi_8cxx.html#a727b802ea287c6ae55678b2643aa61b6" target="_top" xlink:title="PYBIND11_MODULE">
<polygon fill="#ffffff" stroke="#000000" points="150,-.5 150,-19.5 268,-19.5 268,-.5 150,-.5"/>
<text text-anchor="middle" x="209" y="-7.5" font-family="Helvetica,sans-Serif" font-size="10.00" fill="#000000">PYBIND11_MODULE</text>
</a>
</g>
</g>
<!-- Node23&#45;&gt;Node25 -->
<g id="edge2" class="edge">
<title>Node23&#45;&gt;Node25</title>
<path fill="none" stroke="#191970" d="M124.0367,-20.6204C132.6433,-19.5446 141.4055,-18.4493 149.8733,-17.3908"/>
<polygon fill="#191970" stroke="#191970" points="123.5203,-17.1576 114.0316,-21.871 124.3886,-24.1036 123.5203,-17.1576"/>
</g>
</g>
</svg>
