<?xml version="1.0" encoding="UTF-8" standalone="no"?>
<!DOCTYPE svg PUBLIC "-//W3C//DTD SVG 1.1//EN"
 "http://www.w3.org/Graphics/SVG/1.1/DTD/svg11.dtd">
<!-- Generated by graphviz version 2.40.1 (20161225.0304)
 -->
<!-- Title: PDI::Error::what Pages: 1 -->
<!--zoomable 232 -->
<svg id="main" version="1.1" xmlns="http://www.w3.org/2000/svg" xmlns:xlink="http://www.w3.org/1999/xlink" xml:space="preserve" onload="init(evt)">
<style type="text/css"><![CDATA[
.edge:hover path { stroke: red; }
.edge:hover polygon { stroke: red; fill: red; }
]]></style>
<script type="text/javascript"><![CDATA[
var edges = document.getElementsByTagName('g');
if (edges && edges.length) {
  for (var i=0;i<edges.length;i++) {
    if (edges[i].id.substr(0,4)=='edge') {
      edges[i].setAttribute('class','edge');
    }
  }
}
]]></script>
        <defs>
                <circle id="rim" cx="0" cy="0" r="7"/>
                <circle id="rim2" cx="0" cy="0" r="3.5"/>
                <g id="zoomPlus">
                        <use xlink:href="#rim" fill="#404040">
                                <set attributeName="fill" to="#808080" begin="zoomplus.mouseover" end="zoomplus.mouseout"/>
                        </use>
                        <path d="M-4,0h8M0,-4v8" fill="none" stroke="white" stroke-width="1.5" pointer-events="none"/>
                </g>
                <g id="zoomMin">
                        <use xlink:href="#rim" fill="#404040">
                                <set attributeName="fill" to="#808080" begin="zoomminus.mouseover" end="zoomminus.mouseout"/>
                        </use>
                        <path d="M-4,0h8" fill="none" stroke="white" stroke-width="1.5" pointer-events="none"/>
                </g>
                <g id="dirArrow">
                        <path fill="none" stroke="white" stroke-width="1.5" d="M0,-3.0v7 M-2.5,-0.5L0,-3.0L2.5,-0.5"/>
                </g>
               <g id="resetDef">
                       <use xlink:href="#rim2" fill="#404040">
                               <set attributeName="fill" to="#808080" begin="reset.mouseover" end="reset.mouseout"/>
                       </use>
               </g>
        </defs>

<script type="text/javascript">
var viewWidth = 567;
var viewHeight = 232;
var sectionId = 'dynsection-3';
</script>
<script xlink:href="svgpan.js"/>
<svg id="graph" class="graph">
<g id="viewport">
<title>PDI::Error::what</title>
<polygon fill="#ffffff" stroke="transparent" points="-4,4 -4,-227.5 563,-227.5 563,4 -4,4"/>
<!-- Node17 -->
<g id="node1" class="node">
<title>Node17</title>
<polygon fill="#bfbfbf" stroke="#000000" points="0,-96.5 0,-115.5 89,-115.5 89,-96.5 0,-96.5"/>
<text text-anchor="middle" x="44.5" y="-103.5" font-family="Helvetica,sans-Serif" font-size="10.00" fill="#000000">PDI::Error::what</text>
</g>
<!-- Node18 -->
<g id="node2" class="node">
<title>Node18</title>
<g id="a_node2"><a xlink:href="classPDI_1_1Data__descriptor__impl.html#adb5530d2a46c093c6cc03a8ed1d45fd7" target="_top" xlink:title="PDI::Data_descriptor\l_impl::ref">
<polygon fill="#ffffff" stroke="#000000" points="132,-146 132,-176 246,-176 246,-146 132,-146"/>
<text text-anchor="start" x="140" y="-164" font-family="Helvetica,sans-Serif" font-size="10.00" fill="#000000">PDI::Data_descriptor</text>
<text text-anchor="middle" x="189" y="-153" font-family="Helvetica,sans-Serif" font-size="10.00" fill="#000000">_impl::ref</text>
</a>
</g>
</g>
<!-- Node17&#45;&gt;Node18 -->
<g id="edge1" class="edge">
<title>Node17&#45;&gt;Node18</title>
<path fill="none" stroke="#191970" d="M79.2252,-119.2172C100.3688,-127.2649 127.4471,-137.5716 149.4192,-145.9346"/>
<polygon fill="#191970" stroke="#191970" points="80.261,-115.8665 69.67,-115.5803 77.7708,-122.4087 80.261,-115.8665"/>
</g>
<!-- Node19 -->
<g id="node3" class="node">
<title>Node19</title>
<g id="a_node3"><a xlink:href="classPDI_1_1Data__descriptor__impl.html#ae8113dda0a9b7d787ab27a3d1f62f66a" target="_top" xlink:title="PDI::Data_descriptor\l_impl::share">
<polygon fill="#ffffff" stroke="#000000" points="291,-193 291,-223 405,-223 405,-193 291,-193"/>
<text text-anchor="start" x="299" y="-211" font-family="Helvetica,sans-Serif" font-size="10.00" fill="#000000">PDI::Data_descriptor</text>
<text text-anchor="middle" x="348" y="-200" font-family="Helvetica,sans-Serif" font-size="10.00" fill="#000000">_impl::share</text>
</a>
</g>
</g>
<!-- Node17&#45;&gt;Node19 -->
<g id="edge5" class="edge">
<title>Node17&#45;&gt;Node19</title>
<path fill="none" stroke="#191970" d="M56.6644,-123.9258C70.6845,-142.9553 95.6106,-172.1529 125,-186 177.261,-210.6233 243.9285,-214.0825 290.7034,-212.6458"/>
<polygon fill="#191970" stroke="#191970" points="59.498,-121.8711 50.8495,-115.7512 53.7939,-125.9286 59.498,-121.8711"/>
</g>
<!-- Node22 -->
<g id="node6" class="node">
<title>Node22</title>
<g id="a_node6"><a xlink:href="structPDI_1_1Expression_1_1Impl_1_1Reference__expression.html#abb744e12f3e2948937c1cab9b6cda333" target="_top" xlink:title="PDI::Expression::Impl\l::Reference_expression\l::to_long">
<polygon fill="#ffffff" stroke="#000000" points="125,-85.5 125,-126.5 253,-126.5 253,-85.5 125,-85.5"/>
<text text-anchor="start" x="133" y="-114.5" font-family="Helvetica,sans-Serif" font-size="10.00" fill="#000000">PDI::Expression::Impl</text>
<text text-anchor="start" x="133" y="-103.5" font-family="Helvetica,sans-Serif" font-size="10.00" fill="#000000">::Reference_expression</text>
<text text-anchor="middle" x="189" y="-92.5" font-family="Helvetica,sans-Serif" font-size="10.00" fill="#000000">::to_long</text>
</a>
</g>
</g>
<!-- Node17&#45;&gt;Node22 -->
<g id="edge6" class="edge">
<title>Node17&#45;&gt;Node22</title>
<path fill="none" stroke="#191970" d="M99.1223,-106C107.5594,-106 116.338,-106 124.9587,-106"/>
<polygon fill="#191970" stroke="#191970" points="99.0339,-102.5001 89.0338,-106 99.0338,-109.5001 99.0339,-102.5001"/>
</g>
<!-- Node23 -->
<g id="node7" class="node">
<title>Node23</title>
<g id="a_node7"><a xlink:href="classPDI_1_1Global__context.html#a1ce31d6999286d62b4954260354740ba" target="_top" xlink:title="PDI::Global_context\l::event">
<polygon fill="#ffffff" stroke="#000000" points="134.5,-36 134.5,-66 243.5,-66 243.5,-36 134.5,-36"/>
<text text-anchor="start" x="142.5" y="-54" font-family="Helvetica,sans-Serif" font-size="10.00" fill="#000000">PDI::Global_context</text>
<text text-anchor="middle" x="189" y="-43" font-family="Helvetica,sans-Serif" font-size="10.00" fill="#000000">::event</text>
</a>
</g>
</g>
<!-- Node17&#45;&gt;Node23 -->
<g id="edge7" class="edge">
<title>Node17&#45;&gt;Node23</title>
<path fill="none" stroke="#191970" d="M79.2252,-92.7828C100.3688,-84.7351 127.4471,-74.4284 149.4192,-66.0654"/>
<polygon fill="#191970" stroke="#191970" points="77.7708,-89.5913 69.67,-96.4197 80.261,-96.1335 77.7708,-89.5913"/>
</g>
<!-- Node27 -->
<g id="node11" class="node">
<title>Node27</title>
<g id="a_node11"><a xlink:href="python_2pdi_8cxx.html#a727b802ea287c6ae55678b2643aa61b6" target="_top" xlink:title="PYBIND11_MODULE">
<polygon fill="#ffffff" stroke="#000000" points="289,-.5 289,-19.5 407,-19.5 407,-.5 289,-.5"/>
<text text-anchor="middle" x="348" y="-7.5" font-family="Helvetica,sans-Serif" font-size="10.00" fill="#000000">PYBIND11_MODULE</text>
</a>
</g>
</g>
<!-- Node17&#45;&gt;Node27 -->
<g id="edge12" class="edge">
<title>Node17&#45;&gt;Node27</title>
<path fill="none" stroke="#191970" d="M56.851,-87.9153C70.902,-69.0097 95.7322,-40.2828 125,-27 176.7977,-3.4923 242.3411,-1.3226 288.9347,-3.7674"/>
<polygon fill="#191970" stroke="#191970" points="53.8252,-86.129 50.8469,-96.2966 59.5158,-90.2055 53.8252,-86.129"/>
</g>
<!-- Node18&#45;&gt;Node19 -->
<g id="edge2" class="edge">
<title>Node18&#45;&gt;Node19</title>
<path fill="none" stroke="#191970" d="M249.3974,-178.8533C265.158,-183.5121 281.9834,-188.4856 297.191,-192.981"/>
<polygon fill="#191970" stroke="#191970" points="250.3277,-175.4787 239.7458,-176.0003 248.3434,-182.1915 250.3277,-175.4787"/>
</g>
<!-- Node20 -->
<g id="node4" class="node">
<title>Node20</title>
<g id="a_node4"><a xlink:href="classPDI_1_1Data__descriptor__impl.html#a63809cc6270b2a1e7c8b57b9fd0aeedd" target="_top" xlink:title="PDI::Data_descriptor\l_impl::release">
<polygon fill="#ffffff" stroke="#000000" points="291,-144 291,-174 405,-174 405,-144 291,-144"/>
<text text-anchor="start" x="299" y="-162" font-family="Helvetica,sans-Serif" font-size="10.00" fill="#000000">PDI::Data_descriptor</text>
<text text-anchor="middle" x="348" y="-151" font-family="Helvetica,sans-Serif" font-size="10.00" fill="#000000">_impl::release</text>
</a>
</g>
</g>
<!-- Node18&#45;&gt;Node20 -->
<g id="edge3" class="edge">
<title>Node18&#45;&gt;Node20</title>
<path fill="none" stroke="#191970" d="M256.7453,-160.1479C268.1383,-160.0046 279.8606,-159.8571 290.9483,-159.7176"/>
<polygon fill="#191970" stroke="#191970" points="256.3578,-156.6524 246.4026,-160.278 256.4459,-163.6518 256.3578,-156.6524"/>
</g>
<!-- Node21 -->
<g id="node5" class="node">
<title>Node21</title>
<g id="a_node5"><a xlink:href="classPDI_1_1Data__descriptor__impl.html#a799ecffb5b3234c677c0aeb7b0b72ac7" target="_top" xlink:title="PDI::Data_descriptor\l_impl::reclaim">
<polygon fill="#ffffff" stroke="#000000" points="291,-95 291,-125 405,-125 405,-95 291,-95"/>
<text text-anchor="start" x="299" y="-113" font-family="Helvetica,sans-Serif" font-size="10.00" fill="#000000">PDI::Data_descriptor</text>
<text text-anchor="middle" x="348" y="-102" font-family="Helvetica,sans-Serif" font-size="10.00" fill="#000000">_impl::reclaim</text>
</a>
</g>
</g>
<!-- Node18&#45;&gt;Node21 -->
<g id="edge4" class="edge">
<title>Node18&#45;&gt;Node21</title>
<path fill="none" stroke="#191970" d="M245.4867,-142.8816C263.7334,-137.0289 283.75,-130.6085 301.215,-125.0065"/>
<polygon fill="#191970" stroke="#191970" points="244.2984,-139.5871 235.8453,-145.9742 246.4364,-146.2526 244.2984,-139.5871"/>
</g>
<!-- Node24 -->
<g id="node8" class="node">
<title>Node24</title>
<g id="a_node8"><a xlink:href="pdi_8cxx.html#af047cf4c39c3e80684372feb273cc06d" target="_top" xlink:title="PDI_event">
<polygon fill="#ffffff" stroke="#000000" points="315,-41.5 315,-60.5 381,-60.5 381,-41.5 315,-41.5"/>
<text text-anchor="middle" x="348" y="-48.5" font-family="Helvetica,sans-Serif" font-size="10.00" fill="#000000">PDI_event</text>
</a>
</g>
</g>
<!-- Node23&#45;&gt;Node24 -->
<g id="edge8" class="edge">
<title>Node23&#45;&gt;Node24</title>
<path fill="none" stroke="#191970" d="M253.8906,-51C274.8965,-51 297.3116,-51 314.9948,-51"/>
<polygon fill="#191970" stroke="#191970" points="253.7188,-47.5001 243.7188,-51 253.7187,-54.5001 253.7188,-47.5001"/>
</g>
<!-- Node23&#45;&gt;Node27 -->
<g id="edge11" class="edge">
<title>Node23&#45;&gt;Node27</title>
<path fill="none" stroke="#191970" d="M253.4547,-34.3796C272.921,-29.36 293.6364,-24.0183 310.6996,-19.6183"/>
<polygon fill="#191970" stroke="#191970" points="252.5281,-31.004 243.7188,-36.8901 254.276,-37.7823 252.5281,-31.004"/>
</g>
<!-- Node25 -->
<g id="node9" class="node">
<title>Node25</title>
<g id="a_node9"><a xlink:href="pdi_8cxx.html#ae5c670b378e423e3083122f62c1f0a59" target="_top" xlink:title="PDI_multi_expose">
<polygon fill="#ffffff" stroke="#000000" points="450.5,-60.5 450.5,-79.5 551.5,-79.5 551.5,-60.5 450.5,-60.5"/>
<text text-anchor="middle" x="501" y="-67.5" font-family="Helvetica,sans-Serif" font-size="10.00" fill="#000000">PDI_multi_expose</text>
</a>
</g>
</g>
<!-- Node24&#45;&gt;Node25 -->
<g id="edge9" class="edge">
<title>Node24&#45;&gt;Node25</title>
<path fill="none" stroke="#191970" d="M391.3349,-56.3815C409.7253,-58.6652 431.2867,-61.3428 450.4018,-63.7166"/>
<polygon fill="#191970" stroke="#191970" points="391.5539,-52.8818 381.1987,-55.1227 390.6911,-59.8285 391.5539,-52.8818"/>
</g>
<!-- Node26 -->
<g id="node10" class="node">
<title>Node26</title>
<g id="a_node10"><a xlink:href="pdi_8cxx.html#aec4ebe672273ed893952e34bc408ba73" target="_top" xlink:title="PDI_transaction_end">
<polygon fill="#ffffff" stroke="#000000" points="443,-22.5 443,-41.5 559,-41.5 559,-22.5 443,-22.5"/>
<text text-anchor="middle" x="501" y="-29.5" font-family="Helvetica,sans-Serif" font-size="10.00" fill="#000000">PDI_transaction_end</text>
</a>
</g>
</g>
<!-- Node24&#45;&gt;Node26 -->
<g id="edge10" class="edge">
<title>Node24&#45;&gt;Node26</title>
<path fill="none" stroke="#191970" d="M391.3349,-45.6185C407.3451,-43.6303 425.7587,-41.3437 442.8692,-39.2189"/>
<polygon fill="#191970" stroke="#191970" points="390.6911,-42.1715 381.1987,-46.8773 391.5539,-49.1182 390.6911,-42.1715"/>
</g>
</g>
</svg>
        <g id="navigator" transform="translate(0 0)" fill="#404254">
                <rect fill="#f2f5e9" fill-opacity="0.5" stroke="#606060" stroke-width=".5" x="0" y="0" width="60" height="60"/>
                <use id="zoomplus" xlink:href="#zoomPlus" x="17" y="9" onmousedown="handleZoom(evt,'in')"/>
                <use id="zoomminus" xlink:href="#zoomMin" x="42" y="9" onmousedown="handleZoom(evt,'out')"/>
                <use id="reset" xlink:href="#resetDef" x="30" y="36" onmousedown="handleReset()"/>
                <g id="arrowUp" xlink:href="#dirArrow" transform="translate(30 24)" onmousedown="handlePan(0,-1)">
                  <use xlink:href="#rim" fill="#404040">
                        <set attributeName="fill" to="#808080" begin="arrowUp.mouseover" end="arrowUp.mouseout"/>
                  </use>
                  <path fill="none" stroke="white" stroke-width="1.5" d="M0,-3.0v7 M-2.5,-0.5L0,-3.0L2.5,-0.5"/>
                </g>
                <g id="arrowRight" xlink:href="#dirArrow" transform="rotate(90) translate(36 -43)" onmousedown="handlePan(1,0)">
                  <use xlink:href="#rim" fill="#404040">
                        <set attributeName="fill" to="#808080" begin="arrowRight.mouseover" end="arrowRight.mouseout"/>
                  </use>
                  <path fill="none" stroke="white" stroke-width="1.5" d="M0,-3.0v7 M-2.5,-0.5L0,-3.0L2.5,-0.5"/>
                </g>
                <g id="arrowDown" xlink:href="#dirArrow" transform="rotate(180) translate(-30 -48)" onmousedown="handlePan(0,1)">
                  <use xlink:href="#rim" fill="#404040">
                        <set attributeName="fill" to="#808080" begin="arrowDown.mouseover" end="arrowDown.mouseout"/>
                  </use>
                  <path fill="none" stroke="white" stroke-width="1.5" d="M0,-3.0v7 M-2.5,-0.5L0,-3.0L2.5,-0.5"/>
                </g>
                <g id="arrowLeft" xlink:href="#dirArrow" transform="rotate(270) translate(-36 17)" onmousedown="handlePan(-1,0)">
                  <use xlink:href="#rim" fill="#404040">
                        <set attributeName="fill" to="#808080" begin="arrowLeft.mouseover" end="arrowLeft.mouseout"/>
                  </use>
                  <path fill="none" stroke="white" stroke-width="1.5" d="M0,-3.0v7 M-2.5,-0.5L0,-3.0L2.5,-0.5"/>
                </g>
        </g>
        <svg viewBox="0 0 15 15" width="100%" height="30px" preserveAspectRatio="xMaxYMin meet">
         <g id="arrow_out" transform="scale(0.3 0.3)">
          <a xlink:href="classPDI_1_1Error_aca3b34b8350235c8455bfe56236c4454_icgraph_org.svg" target="_base">
           <rect id="button" ry="5" rx="5" y="6" x="6" height="38" width="38"
                fill="#f2f5e9" fill-opacity="0.5" stroke="#606060" stroke-width="1.0"/>
           <path id="arrow"
             d="M 11.500037,31.436501 C 11.940474,20.09759 22.043105,11.32322 32.158766,21.979434 L 37.068811,17.246167 C 37.068811,17.246167 37.088388,32 37.088388,32 L 22.160133,31.978069 C 22.160133,31.978069 26.997745,27.140456 26.997745,27.140456 C 18.528582,18.264221 13.291696,25.230495 11.500037,31.436501 z"
             style="fill:#404040;"/>
          </a>
         </g>
        </svg>
</svg>
