<?xml version="1.0" encoding="UTF-8" standalone="no"?>
<!DOCTYPE svg PUBLIC "-//W3C//DTD SVG 1.1//EN"
 "http://www.w3.org/Graphics/SVG/1.1/DTD/svg11.dtd">
<!-- Generated by graphviz version 2.40.1 (20161225.0304)
 -->
<!-- Title: PDI::Record_datatype::datasize Pages: 1 -->
<svg width="297pt" height="88pt"
 viewBox="0.00 0.00 297.00 88.00" xmlns="http://www.w3.org/2000/svg" xmlns:xlink="http://www.w3.org/1999/xlink">
<g id="graph0" class="graph" transform="scale(1 1) rotate(0) translate(4 84)">
<title>PDI::Record_datatype::datasize</title>
<polygon fill="#ffffff" stroke="transparent" points="-4,4 -4,-84 293,-84 293,4 -4,4"/>
<!-- Node39 -->
<g id="node1" class="node">
<title>Node39</title>
<polygon fill="#bfbfbf" stroke="#000000" points="0,-24.5 0,-54.5 120,-54.5 120,-24.5 0,-24.5"/>
<text text-anchor="start" x="8" y="-42.5" font-family="Helvetica,sans-Serif" font-size="10.00" fill="#000000">PDI::Record_datatype</text>
<text text-anchor="middle" x="60" y="-31.5" font-family="Helvetica,sans-Serif" font-size="10.00" fill="#000000">::datasize</text>
</g>
<!-- Node40 -->
<g id="node2" class="node">
<title>Node40</title>
<g id="a_node2"><a xlink:href="classPDI_1_1Record__datatype.html#a3ffff5ec6228ae7b6c8aaa67139588e1" target="_top" xlink:title="PDI::Record_datatype\l::data_from_dense_copy">
<polygon fill="#ffffff" stroke="#000000" points="156,-49.5 156,-79.5 289,-79.5 289,-49.5 156,-49.5"/>
<text text-anchor="start" x="164" y="-67.5" font-family="Helvetica,sans-Serif" font-size="10.00" fill="#000000">PDI::Record_datatype</text>
<text text-anchor="middle" x="222.5" y="-56.5" font-family="Helvetica,sans-Serif" font-size="10.00" fill="#000000">::data_from_dense_copy</text>
</a>
</g>
</g>
<!-- Node39&#45;&gt;Node40 -->
<g id="edge1" class="edge">
<title>Node39&#45;&gt;Node40</title>
<path fill="none" stroke="#191970" d="M130.0132,-50.2713C138.5892,-51.5907 147.3356,-52.9362 155.8601,-54.2477"/>
<polygon fill="#191970" stroke="#191970" points="130.4633,-46.7994 120.0473,-48.738 129.3988,-53.718 130.4633,-46.7994"/>
</g>
<!-- Node41 -->
<g id="node3" class="node">
<title>Node41</title>
<g id="a_node3"><a xlink:href="classPDI_1_1Record__datatype.html#a9050d4e6cd9f520581ccfeba402b358c" target="_top" xlink:title="PDI::Record_datatype\l::debug_string">
<polygon fill="#ffffff" stroke="#000000" points="162.5,-.5 162.5,-30.5 282.5,-30.5 282.5,-.5 162.5,-.5"/>
<text text-anchor="start" x="170.5" y="-18.5" font-family="Helvetica,sans-Serif" font-size="10.00" fill="#000000">PDI::Record_datatype</text>
<text text-anchor="middle" x="222.5" y="-7.5" font-family="Helvetica,sans-Serif" font-size="10.00" fill="#000000">::debug_string</text>
</a>
</g>
</g>
<!-- Node39&#45;&gt;Node41 -->
<g id="edge2" class="edge">
<title>Node39&#45;&gt;Node41</title>
<path fill="none" stroke="#191970" d="M130.2278,-29.1279C140.9558,-27.5435 151.9449,-25.9204 162.4284,-24.3721"/>
<polygon fill="#191970" stroke="#191970" points="129.4286,-25.7079 120.0473,-30.6315 130.4514,-32.6328 129.4286,-25.7079"/>
</g>
</g>
</svg>
