<?xml version="1.0" encoding="UTF-8" standalone="no"?>
<!DOCTYPE svg PUBLIC "-//W3C//DTD SVG 1.1//EN"
 "http://www.w3.org/Graphics/SVG/1.1/DTD/svg11.dtd">
<!-- Generated by graphviz version 2.40.1 (20161225.0304)
 -->
<!-- Title: PDI::Datatype::buffersize Pages: 1 -->
<svg width="308pt" height="137pt"
 viewBox="0.00 0.00 308.00 137.00" xmlns="http://www.w3.org/2000/svg" xmlns:xlink="http://www.w3.org/1999/xlink">
<g id="graph0" class="graph" transform="scale(1 1) rotate(0) translate(4 133)">
<title>PDI::Datatype::buffersize</title>
<polygon fill="#ffffff" stroke="transparent" points="-4,4 -4,-133 304,-133 304,4 -4,4"/>
<!-- Node8 -->
<g id="node1" class="node">
<title>Node8</title>
<polygon fill="#bfbfbf" stroke="#000000" points="0,-55 0,-74 131,-74 131,-55 0,-55"/>
<text text-anchor="middle" x="65.5" y="-62" font-family="Helvetica,sans-Serif" font-size="10.00" fill="#000000">PDI::Datatype::buffersize</text>
</g>
<!-- Node9 -->
<g id="node2" class="node">
<title>Node9</title>
<g id="a_node2"><a xlink:href="classPDI_1_1Array__datatype.html#a0b95036d9845592fc5e6e0e7f3784424" target="_top" xlink:title="PDI::Array_datatype\l::data_to_dense_copy">
<polygon fill="#ffffff" stroke="#000000" points="173,-98.5 173,-128.5 294,-128.5 294,-98.5 173,-98.5"/>
<text text-anchor="start" x="181" y="-116.5" font-family="Helvetica,sans-Serif" font-size="10.00" fill="#000000">PDI::Array_datatype</text>
<text text-anchor="middle" x="233.5" y="-105.5" font-family="Helvetica,sans-Serif" font-size="10.00" fill="#000000">::data_to_dense_copy</text>
</a>
</g>
</g>
<!-- Node8&#45;&gt;Node9 -->
<g id="edge1" class="edge">
<title>Node8&#45;&gt;Node9</title>
<path fill="none" stroke="#191970" d="M107.8967,-76.8657C130.3908,-83.4265 158.2095,-91.5403 181.9447,-98.463"/>
<polygon fill="#191970" stroke="#191970" points="108.8709,-73.5041 98.2909,-74.064 106.9109,-80.2241 108.8709,-73.5041"/>
</g>
<!-- Node10 -->
<g id="node3" class="node">
<title>Node10</title>
<g id="a_node3"><a xlink:href="classPDI_1_1Array__datatype.html#ab4b67b416c0e5f99fc9bf947030703b3" target="_top" xlink:title="PDI::Array_datatype\l::data_from_dense_copy">
<polygon fill="#ffffff" stroke="#000000" points="167,-49.5 167,-79.5 300,-79.5 300,-49.5 167,-49.5"/>
<text text-anchor="start" x="175" y="-67.5" font-family="Helvetica,sans-Serif" font-size="10.00" fill="#000000">PDI::Array_datatype</text>
<text text-anchor="middle" x="233.5" y="-56.5" font-family="Helvetica,sans-Serif" font-size="10.00" fill="#000000">::data_from_dense_copy</text>
</a>
</g>
</g>
<!-- Node8&#45;&gt;Node10 -->
<g id="edge2" class="edge">
<title>Node8&#45;&gt;Node10</title>
<path fill="none" stroke="#191970" d="M141.6394,-64.5C150.0833,-64.5 158.6341,-64.5 166.9464,-64.5"/>
<polygon fill="#191970" stroke="#191970" points="141.4159,-61.0001 131.4159,-64.5 141.4158,-68.0001 141.4159,-61.0001"/>
</g>
<!-- Node11 -->
<g id="node4" class="node">
<title>Node11</title>
<g id="a_node4"><a xlink:href="classPDI_1_1Array__datatype.html#a97d34f930cdf5e76850b0d9ae6b24d8f" target="_top" xlink:title="PDI::Array_datatype\l::destroy_data">
<polygon fill="#ffffff" stroke="#000000" points="178,-.5 178,-30.5 289,-30.5 289,-.5 178,-.5"/>
<text text-anchor="start" x="186" y="-18.5" font-family="Helvetica,sans-Serif" font-size="10.00" fill="#000000">PDI::Array_datatype</text>
<text text-anchor="middle" x="233.5" y="-7.5" font-family="Helvetica,sans-Serif" font-size="10.00" fill="#000000">::destroy_data</text>
</a>
</g>
</g>
<!-- Node8&#45;&gt;Node11 -->
<g id="edge3" class="edge">
<title>Node8&#45;&gt;Node11</title>
<path fill="none" stroke="#191970" d="M107.8967,-52.1343C130.3908,-45.5735 158.2095,-37.4597 181.9447,-30.537"/>
<polygon fill="#191970" stroke="#191970" points="106.9109,-48.7759 98.2909,-54.936 108.8709,-55.4959 106.9109,-48.7759"/>
</g>
</g>
</svg>
