<?xml version="1.0" encoding="UTF-8" standalone="no"?>
<!DOCTYPE svg PUBLIC "-//W3C//DTD SVG 1.1//EN"
 "http://www.w3.org/Graphics/SVG/1.1/DTD/svg11.dtd">
<!-- Generated by graphviz version 2.40.1 (20161225.0304)
 -->
<!-- Title: PDI::Record_datatype::data_from_dense_copy Pages: 1 -->
<svg width="453pt" height="225pt"
 viewBox="0.00 0.00 453.00 225.00" xmlns="http://www.w3.org/2000/svg" xmlns:xlink="http://www.w3.org/1999/xlink">
<g id="graph0" class="graph" transform="scale(1 1) rotate(0) translate(4 221)">
<title>PDI::Record_datatype::data_from_dense_copy</title>
<polygon fill="#ffffff" stroke="transparent" points="-4,4 -4,-221 449,-221 449,4 -4,4"/>
<!-- Node23 -->
<g id="node1" class="node">
<title>Node23</title>
<polygon fill="#bfbfbf" stroke="#000000" points="0,-93.5 0,-123.5 133,-123.5 133,-93.5 0,-93.5"/>
<text text-anchor="start" x="8" y="-111.5" font-family="Helvetica,sans-Serif" font-size="10.00" fill="#000000">PDI::Record_datatype</text>
<text text-anchor="middle" x="66.5" y="-100.5" font-family="Helvetica,sans-Serif" font-size="10.00" fill="#000000">::data_from_dense_copy</text>
</g>
<!-- Node24 -->
<g id="node2" class="node">
<title>Node24</title>
<g id="a_node2"><a xlink:href="classPDI_1_1Record__datatype.html#a6286765cf6a1d050603f7adaed1edc93" target="_top" xlink:title="PDI::Record_datatype\l::simple">
<polygon fill="#ffffff" stroke="#000000" points="169,-186.5 169,-216.5 289,-216.5 289,-186.5 169,-186.5"/>
<text text-anchor="start" x="177" y="-204.5" font-family="Helvetica,sans-Serif" font-size="10.00" fill="#000000">PDI::Record_datatype</text>
<text text-anchor="middle" x="229" y="-193.5" font-family="Helvetica,sans-Serif" font-size="10.00" fill="#000000">::simple</text>
</a>
</g>
</g>
<!-- Node23&#45;&gt;Node24 -->
<g id="edge1" class="edge">
<title>Node23&#45;&gt;Node24</title>
<path fill="none" stroke="#191970" d="M86.1319,-123.5622C106.2058,-138.5117 138.6598,-161.4531 169,-177.5 172.0682,-179.1228 175.2711,-180.7038 178.5313,-182.2296"/>
<polygon fill="#191970" stroke="#191970" points="177.2488,-185.4899 187.8069,-186.3716 180.103,-179.0982 177.2488,-185.4899"/>
</g>
<!-- Node25 -->
<g id="node3" class="node">
<title>Node25</title>
<g id="a_node3"><a xlink:href="classPDI_1_1Record__datatype.html#ab5211f58ddcfbbb88243259182db1271" target="_top" xlink:title="PDI::Record_datatype\l::dense">
<polygon fill="#ffffff" stroke="#000000" points="169,-137.5 169,-167.5 289,-167.5 289,-137.5 169,-137.5"/>
<text text-anchor="start" x="177" y="-155.5" font-family="Helvetica,sans-Serif" font-size="10.00" fill="#000000">PDI::Record_datatype</text>
<text text-anchor="middle" x="229" y="-144.5" font-family="Helvetica,sans-Serif" font-size="10.00" fill="#000000">::dense</text>
</a>
</g>
</g>
<!-- Node23&#45;&gt;Node25 -->
<g id="edge2" class="edge">
<title>Node23&#45;&gt;Node25</title>
<path fill="none" stroke="#191970" d="M121.9688,-123.5192C135.3602,-127.1452 149.794,-131.0534 163.5934,-134.7899"/>
<polygon fill="#191970" stroke="#191970" points="162.9383,-138.2385 173.5055,-137.4738 164.7678,-131.4818 162.9383,-138.2385"/>
</g>
<!-- Node27 -->
<g id="node5" class="node">
<title>Node27</title>
<g id="a_node5"><a xlink:href="classPDI_1_1Record__datatype.html#aed94e24402cada695d056a4aea0e258e" target="_top" xlink:title="PDI::Record_datatype\l::buffersize">
<polygon fill="#ffffff" stroke="#000000" points="325,-93.5 325,-123.5 445,-123.5 445,-93.5 325,-93.5"/>
<text text-anchor="start" x="333" y="-111.5" font-family="Helvetica,sans-Serif" font-size="10.00" fill="#000000">PDI::Record_datatype</text>
<text text-anchor="middle" x="385" y="-100.5" font-family="Helvetica,sans-Serif" font-size="10.00" fill="#000000">::buffersize</text>
</a>
</g>
</g>
<!-- Node23&#45;&gt;Node27 -->
<g id="edge6" class="edge">
<title>Node23&#45;&gt;Node27</title>
<path fill="none" stroke="#191970" d="M133.268,-108.5C186.3917,-108.5 260.5273,-108.5 314.5834,-108.5"/>
<polygon fill="#191970" stroke="#191970" points="314.7738,-112.0001 324.7738,-108.5 314.7737,-105.0001 314.7738,-112.0001"/>
</g>
<!-- Node28 -->
<g id="node6" class="node">
<title>Node28</title>
<g id="a_node6"><a xlink:href="classPDI_1_1Record__datatype.html#aa0e39bbe49abdbc4d6e806e148bbef30" target="_top" xlink:title="PDI::Record_datatype\l::datasize">
<polygon fill="#ffffff" stroke="#000000" points="169,-49.5 169,-79.5 289,-79.5 289,-49.5 169,-49.5"/>
<text text-anchor="start" x="177" y="-67.5" font-family="Helvetica,sans-Serif" font-size="10.00" fill="#000000">PDI::Record_datatype</text>
<text text-anchor="middle" x="229" y="-56.5" font-family="Helvetica,sans-Serif" font-size="10.00" fill="#000000">::datasize</text>
</a>
</g>
</g>
<!-- Node23&#45;&gt;Node28 -->
<g id="edge5" class="edge">
<title>Node23&#45;&gt;Node28</title>
<path fill="none" stroke="#191970" d="M121.9688,-93.4808C135.3602,-89.8548 149.794,-85.9466 163.5934,-82.2101"/>
<polygon fill="#191970" stroke="#191970" points="164.7678,-85.5182 173.5055,-79.5262 162.9383,-78.7615 164.7678,-85.5182"/>
</g>
<!-- Node29 -->
<g id="node7" class="node">
<title>Node29</title>
<g id="a_node7"><a xlink:href="classPDI_1_1Record__datatype.html#a8fd1085ad804c4b9410a4c3d97be2375" target="_top" xlink:title="PDI::Record_datatype\l::members">
<polygon fill="#ffffff" stroke="#000000" points="169,-.5 169,-30.5 289,-30.5 289,-.5 169,-.5"/>
<text text-anchor="start" x="177" y="-18.5" font-family="Helvetica,sans-Serif" font-size="10.00" fill="#000000">PDI::Record_datatype</text>
<text text-anchor="middle" x="229" y="-7.5" font-family="Helvetica,sans-Serif" font-size="10.00" fill="#000000">::members</text>
</a>
</g>
</g>
<!-- Node23&#45;&gt;Node29 -->
<g id="edge7" class="edge">
<title>Node23&#45;&gt;Node29</title>
<path fill="none" stroke="#191970" d="M86.1319,-93.4378C106.2058,-78.4883 138.6598,-55.5469 169,-39.5 172.0682,-37.8772 175.2711,-36.2962 178.5313,-34.7704"/>
<polygon fill="#191970" stroke="#191970" points="180.103,-37.9018 187.8069,-30.6284 177.2488,-31.5101 180.103,-37.9018"/>
</g>
<!-- Node26 -->
<g id="node4" class="node">
<title>Node26</title>
<g id="a_node4"><a xlink:href="classPDI_1_1Record__datatype.html#a359deae4113398d9bf252b81be2fa282" target="_top" xlink:title="PDI::Record_datatype\l::alignment">
<polygon fill="#ffffff" stroke="#000000" points="325,-142.5 325,-172.5 445,-172.5 445,-142.5 325,-142.5"/>
<text text-anchor="start" x="333" y="-160.5" font-family="Helvetica,sans-Serif" font-size="10.00" fill="#000000">PDI::Record_datatype</text>
<text text-anchor="middle" x="385" y="-149.5" font-family="Helvetica,sans-Serif" font-size="10.00" fill="#000000">::alignment</text>
</a>
</g>
</g>
<!-- Node25&#45;&gt;Node26 -->
<g id="edge3" class="edge">
<title>Node25&#45;&gt;Node26</title>
<path fill="none" stroke="#191970" d="M289.3137,-154.4331C297.6036,-154.6988 306.1748,-154.9736 314.6255,-155.2444"/>
<polygon fill="#191970" stroke="#191970" points="314.7397,-158.7498 324.8467,-155.572 314.964,-151.7534 314.7397,-158.7498"/>
</g>
<!-- Node25&#45;&gt;Node27 -->
<g id="edge4" class="edge">
<title>Node25&#45;&gt;Node27</title>
<path fill="none" stroke="#191970" d="M282.25,-137.4808C294.981,-133.89 308.6933,-130.0224 321.8237,-126.319"/>
<polygon fill="#191970" stroke="#191970" points="323.0509,-129.6095 331.7253,-123.5262 321.1506,-122.8723 323.0509,-129.6095"/>
</g>
</g>
</svg>
