<?xml version="1.0" encoding="UTF-8" standalone="no"?>
<!DOCTYPE svg PUBLIC "-//W3C//DTD SVG 1.1//EN"
 "http://www.w3.org/Graphics/SVG/1.1/DTD/svg11.dtd">
<!-- Generated by graphviz version 2.40.1 (20161225.0304)
 -->
<!-- Title: PDI::Error::status Pages: 1 -->
<!--zoomable 222 -->
<svg id="main" version="1.1" xmlns="http://www.w3.org/2000/svg" xmlns:xlink="http://www.w3.org/1999/xlink" xml:space="preserve" onload="init(evt)">
<style type="text/css"><![CDATA[
.edge:hover path { stroke: red; }
.edge:hover polygon { stroke: red; fill: red; }
]]></style>
<script type="text/javascript"><![CDATA[
var edges = document.getElementsByTagName('g');
if (edges && edges.length) {
  for (var i=0;i<edges.length;i++) {
    if (edges[i].id.substr(0,4)=='edge') {
      edges[i].setAttribute('class','edge');
    }
  }
}
]]></script>
        <defs>
                <circle id="rim" cx="0" cy="0" r="7"/>
                <circle id="rim2" cx="0" cy="0" r="3.5"/>
                <g id="zoomPlus">
                        <use xlink:href="#rim" fill="#404040">
                                <set attributeName="fill" to="#808080" begin="zoomplus.mouseover" end="zoomplus.mouseout"/>
                        </use>
                        <path d="M-4,0h8M0,-4v8" fill="none" stroke="white" stroke-width="1.5" pointer-events="none"/>
                </g>
                <g id="zoomMin">
                        <use xlink:href="#rim" fill="#404040">
                                <set attributeName="fill" to="#808080" begin="zoomminus.mouseover" end="zoomminus.mouseout"/>
                        </use>
                        <path d="M-4,0h8" fill="none" stroke="white" stroke-width="1.5" pointer-events="none"/>
                </g>
                <g id="dirArrow">
                        <path fill="none" stroke="white" stroke-width="1.5" d="M0,-3.0v7 M-2.5,-0.5L0,-3.0L2.5,-0.5"/>
                </g>
               <g id="resetDef">
                       <use xlink:href="#rim2" fill="#404040">
                               <set attributeName="fill" to="#808080" begin="reset.mouseover" end="reset.mouseout"/>
                       </use>
               </g>
        </defs>

<script type="text/javascript">
var viewWidth = 573;
var viewHeight = 222;
var sectionId = 'dynsection-2';
</script>
<script xlink:href="svgpan.js"/>
<svg id="graph" class="graph">
<g id="viewport">
<title>PDI::Error::status</title>
<polygon fill="#ffffff" stroke="transparent" points="-4,4 -4,-217.5 569,-217.5 569,4 -4,4"/>
<!-- Node5 -->
<g id="node1" class="node">
<title>Node5</title>
<polygon fill="#bfbfbf" stroke="#000000" points="0,-112.5 0,-131.5 95,-131.5 95,-112.5 0,-112.5"/>
<text text-anchor="middle" x="47.5" y="-119.5" font-family="Helvetica,sans-Serif" font-size="10.00" fill="#000000">PDI::Error::status</text>
</g>
<!-- Node6 -->
<g id="node2" class="node">
<title>Node6</title>
<g id="a_node2"><a xlink:href="classPDI_1_1Data__descriptor__impl.html#adb5530d2a46c093c6cc03a8ed1d45fd7" target="_top" xlink:title="PDI::Data_descriptor\l_impl::ref">
<polygon fill="#ffffff" stroke="#000000" points="138,-135 138,-165 252,-165 252,-135 138,-135"/>
<text text-anchor="start" x="146" y="-153" font-family="Helvetica,sans-Serif" font-size="10.00" fill="#000000">PDI::Data_descriptor</text>
<text text-anchor="middle" x="195" y="-142" font-family="Helvetica,sans-Serif" font-size="10.00" fill="#000000">_impl::ref</text>
</a>
</g>
</g>
<!-- Node5&#45;&gt;Node6 -->
<g id="edge1" class="edge">
<title>Node5&#45;&gt;Node6</title>
<path fill="none" stroke="#191970" d="M105.4325,-132.9974C116.0879,-135.0201 127.2057,-137.1306 137.8382,-139.149"/>
<polygon fill="#191970" stroke="#191970" points="105.8664,-129.5173 95.389,-131.0908 104.5608,-136.3945 105.8664,-129.5173"/>
</g>
<!-- Node7 -->
<g id="node3" class="node">
<title>Node7</title>
<g id="a_node3"><a xlink:href="classPDI_1_1Data__descriptor__impl.html#ae8113dda0a9b7d787ab27a3d1f62f66a" target="_top" xlink:title="PDI::Data_descriptor\l_impl::share">
<polygon fill="#ffffff" stroke="#000000" points="297,-183 297,-213 411,-213 411,-183 297,-183"/>
<text text-anchor="start" x="305" y="-201" font-family="Helvetica,sans-Serif" font-size="10.00" fill="#000000">PDI::Data_descriptor</text>
<text text-anchor="middle" x="354" y="-190" font-family="Helvetica,sans-Serif" font-size="10.00" fill="#000000">_impl::share</text>
</a>
</g>
</g>
<!-- Node5&#45;&gt;Node7 -->
<g id="edge5" class="edge">
<title>Node5&#45;&gt;Node7</title>
<path fill="none" stroke="#191970" d="M66.8391,-137.9756C82.949,-150.3297 107.0496,-166.6846 131,-175 185.0485,-193.7652 250.5548,-198.5634 296.5391,-199.2475"/>
<polygon fill="#191970" stroke="#191970" points="68.7808,-135.0493 58.763,-131.6003 64.4435,-140.5437 68.7808,-135.0493"/>
</g>
<!-- Node10 -->
<g id="node6" class="node">
<title>Node10</title>
<g id="a_node6"><a xlink:href="structPDI_1_1Expression_1_1Impl_1_1Reference__expression.html#abb744e12f3e2948937c1cab9b6cda333" target="_top" xlink:title="PDI::Expression::Impl\l::Reference_expression\l::to_long">
<polygon fill="#ffffff" stroke="#000000" points="131,-74.5 131,-115.5 259,-115.5 259,-74.5 131,-74.5"/>
<text text-anchor="start" x="139" y="-103.5" font-family="Helvetica,sans-Serif" font-size="10.00" fill="#000000">PDI::Expression::Impl</text>
<text text-anchor="start" x="139" y="-92.5" font-family="Helvetica,sans-Serif" font-size="10.00" fill="#000000">::Reference_expression</text>
<text text-anchor="middle" x="195" y="-81.5" font-family="Helvetica,sans-Serif" font-size="10.00" fill="#000000">::to_long</text>
</a>
</g>
</g>
<!-- Node5&#45;&gt;Node10 -->
<g id="edge6" class="edge">
<title>Node5&#45;&gt;Node10</title>
<path fill="none" stroke="#191970" d="M105.4407,-111.3939C113.8229,-109.8595 122.491,-108.2728 130.9839,-106.7182"/>
<polygon fill="#191970" stroke="#191970" points="104.5953,-107.9904 95.389,-113.2339 105.8558,-114.876 104.5953,-107.9904"/>
</g>
<!-- Node11 -->
<g id="node7" class="node">
<title>Node11</title>
<g id="a_node7"><a xlink:href="classPDI_1_1Global__context.html#a1ce31d6999286d62b4954260354740ba" target="_top" xlink:title="PDI::Global_context\l::event">
<polygon fill="#ffffff" stroke="#000000" points="140.5,-25 140.5,-55 249.5,-55 249.5,-25 140.5,-25"/>
<text text-anchor="start" x="148.5" y="-43" font-family="Helvetica,sans-Serif" font-size="10.00" fill="#000000">PDI::Global_context</text>
<text text-anchor="middle" x="195" y="-32" font-family="Helvetica,sans-Serif" font-size="10.00" fill="#000000">::event</text>
</a>
</g>
</g>
<!-- Node5&#45;&gt;Node11 -->
<g id="edge7" class="edge">
<title>Node5&#45;&gt;Node11</title>
<path fill="none" stroke="#191970" d="M67.9593,-106.0903C84.3757,-93.8128 108.3423,-76.9601 131,-65 137.7515,-61.4361 145.1273,-58.0917 152.3932,-55.0797"/>
<polygon fill="#191970" stroke="#191970" points="65.5216,-103.5465 59.6721,-112.3802 69.7536,-109.1223 65.5216,-103.5465"/>
</g>
<!-- Node6&#45;&gt;Node7 -->
<g id="edge2" class="edge">
<title>Node6&#45;&gt;Node7</title>
<path fill="none" stroke="#191970" d="M254.8454,-168.0665C271.1497,-172.9886 288.6308,-178.2659 304.3046,-182.9976"/>
<polygon fill="#191970" stroke="#191970" points="255.4572,-164.5953 244.8723,-165.0558 253.4341,-171.2966 255.4572,-164.5953"/>
</g>
<!-- Node8 -->
<g id="node4" class="node">
<title>Node8</title>
<g id="a_node4"><a xlink:href="classPDI_1_1Data__descriptor__impl.html#a63809cc6270b2a1e7c8b57b9fd0aeedd" target="_top" xlink:title="PDI::Data_descriptor\l_impl::release">
<polygon fill="#ffffff" stroke="#000000" points="297,-134 297,-164 411,-164 411,-134 297,-134"/>
<text text-anchor="start" x="305" y="-152" font-family="Helvetica,sans-Serif" font-size="10.00" fill="#000000">PDI::Data_descriptor</text>
<text text-anchor="middle" x="354" y="-141" font-family="Helvetica,sans-Serif" font-size="10.00" fill="#000000">_impl::release</text>
</a>
</g>
</g>
<!-- Node6&#45;&gt;Node8 -->
<g id="edge3" class="edge">
<title>Node6&#45;&gt;Node8</title>
<path fill="none" stroke="#191970" d="M262.7453,-149.5739C274.1383,-149.5023 285.8606,-149.4285 296.9483,-149.3588"/>
<polygon fill="#191970" stroke="#191970" points="262.3804,-146.0761 252.4026,-149.639 262.4245,-153.0759 262.3804,-146.0761"/>
</g>
<!-- Node9 -->
<g id="node5" class="node">
<title>Node9</title>
<g id="a_node5"><a xlink:href="classPDI_1_1Data__descriptor__impl.html#a799ecffb5b3234c677c0aeb7b0b72ac7" target="_top" xlink:title="PDI::Data_descriptor\l_impl::reclaim">
<polygon fill="#ffffff" stroke="#000000" points="297,-85 297,-115 411,-115 411,-85 297,-85"/>
<text text-anchor="start" x="305" y="-103" font-family="Helvetica,sans-Serif" font-size="10.00" fill="#000000">PDI::Data_descriptor</text>
<text text-anchor="middle" x="354" y="-92" font-family="Helvetica,sans-Serif" font-size="10.00" fill="#000000">_impl::reclaim</text>
</a>
</g>
</g>
<!-- Node6&#45;&gt;Node9 -->
<g id="edge4" class="edge">
<title>Node6&#45;&gt;Node9</title>
<path fill="none" stroke="#191970" d="M252.3073,-131.9789C269.9278,-126.4378 289.1295,-120.3995 306.0539,-115.0774"/>
<polygon fill="#191970" stroke="#191970" points="251.1947,-128.6596 242.7052,-134.9984 253.2947,-135.3373 251.1947,-128.6596"/>
</g>
<!-- Node12 -->
<g id="node8" class="node">
<title>Node12</title>
<g id="a_node8"><a xlink:href="pdi_8cxx.html#af047cf4c39c3e80684372feb273cc06d" target="_top" xlink:title="PDI_event">
<polygon fill="#ffffff" stroke="#000000" points="321,-38.5 321,-57.5 387,-57.5 387,-38.5 321,-38.5"/>
<text text-anchor="middle" x="354" y="-45.5" font-family="Helvetica,sans-Serif" font-size="10.00" fill="#000000">PDI_event</text>
</a>
</g>
</g>
<!-- Node11&#45;&gt;Node12 -->
<g id="edge8" class="edge">
<title>Node11&#45;&gt;Node12</title>
<path fill="none" stroke="#191970" d="M259.8906,-43.2649C280.8965,-44.3218 303.3116,-45.4496 320.9948,-46.3394"/>
<polygon fill="#191970" stroke="#191970" points="259.8821,-39.7602 249.7188,-42.7531 259.5302,-46.7513 259.8821,-39.7602"/>
</g>
<!-- Node15 -->
<g id="node11" class="node">
<title>Node15</title>
<g id="a_node11"><a xlink:href="python_2pdi_8cxx.html#a727b802ea287c6ae55678b2643aa61b6" target="_top" xlink:title="PYBIND11_MODULE">
<polygon fill="#ffffff" stroke="#000000" points="295,-.5 295,-19.5 413,-19.5 413,-.5 295,-.5"/>
<text text-anchor="middle" x="354" y="-7.5" font-family="Helvetica,sans-Serif" font-size="10.00" fill="#000000">PYBIND11_MODULE</text>
</a>
</g>
</g>
<!-- Node11&#45;&gt;Node15 -->
<g id="edge11" class="edge">
<title>Node11&#45;&gt;Node15</title>
<path fill="none" stroke="#191970" d="M259.6824,-27.7958C274.27,-25.0434 289.5477,-22.1608 303.4559,-19.5366"/>
<polygon fill="#191970" stroke="#191970" points="258.8964,-24.3822 249.7188,-29.6757 260.1944,-31.2609 258.8964,-24.3822"/>
</g>
<!-- Node13 -->
<g id="node9" class="node">
<title>Node13</title>
<g id="a_node9"><a xlink:href="pdi_8cxx.html#ae5c670b378e423e3083122f62c1f0a59" target="_top" xlink:title="PDI_multi_expose">
<polygon fill="#ffffff" stroke="#000000" points="456.5,-57.5 456.5,-76.5 557.5,-76.5 557.5,-57.5 456.5,-57.5"/>
<text text-anchor="middle" x="507" y="-64.5" font-family="Helvetica,sans-Serif" font-size="10.00" fill="#000000">PDI_multi_expose</text>
</a>
</g>
</g>
<!-- Node12&#45;&gt;Node13 -->
<g id="edge9" class="edge">
<title>Node12&#45;&gt;Node13</title>
<path fill="none" stroke="#191970" d="M397.3349,-53.3815C415.7253,-55.6652 437.2867,-58.3428 456.4018,-60.7166"/>
<polygon fill="#191970" stroke="#191970" points="397.5539,-49.8818 387.1987,-52.1227 396.6911,-56.8285 397.5539,-49.8818"/>
</g>
<!-- Node14 -->
<g id="node10" class="node">
<title>Node14</title>
<g id="a_node10"><a xlink:href="pdi_8cxx.html#aec4ebe672273ed893952e34bc408ba73" target="_top" xlink:title="PDI_transaction_end">
<polygon fill="#ffffff" stroke="#000000" points="449,-19.5 449,-38.5 565,-38.5 565,-19.5 449,-19.5"/>
<text text-anchor="middle" x="507" y="-26.5" font-family="Helvetica,sans-Serif" font-size="10.00" fill="#000000">PDI_transaction_end</text>
</a>
</g>
</g>
<!-- Node12&#45;&gt;Node14 -->
<g id="edge10" class="edge">
<title>Node12&#45;&gt;Node14</title>
<path fill="none" stroke="#191970" d="M397.3349,-42.6185C413.3451,-40.6303 431.7587,-38.3437 448.8692,-36.2189"/>
<polygon fill="#191970" stroke="#191970" points="396.6911,-39.1715 387.1987,-43.8773 397.5539,-46.1182 396.6911,-39.1715"/>
</g>
</g>
</svg>
        <g id="navigator" transform="translate(0 0)" fill="#404254">
                <rect fill="#f2f5e9" fill-opacity="0.5" stroke="#606060" stroke-width=".5" x="0" y="0" width="60" height="60"/>
                <use id="zoomplus" xlink:href="#zoomPlus" x="17" y="9" onmousedown="handleZoom(evt,'in')"/>
                <use id="zoomminus" xlink:href="#zoomMin" x="42" y="9" onmousedown="handleZoom(evt,'out')"/>
                <use id="reset" xlink:href="#resetDef" x="30" y="36" onmousedown="handleReset()"/>
                <g id="arrowUp" xlink:href="#dirArrow" transform="translate(30 24)" onmousedown="handlePan(0,-1)">
                  <use xlink:href="#rim" fill="#404040">
                        <set attributeName="fill" to="#808080" begin="arrowUp.mouseover" end="arrowUp.mouseout"/>
                  </use>
                  <path fill="none" stroke="white" stroke-width="1.5" d="M0,-3.0v7 M-2.5,-0.5L0,-3.0L2.5,-0.5"/>
                </g>
                <g id="arrowRight" xlink:href="#dirArrow" transform="rotate(90) translate(36 -43)" onmousedown="handlePan(1,0)">
                  <use xlink:href="#rim" fill="#404040">
                        <set attributeName="fill" to="#808080" begin="arrowRight.mouseover" end="arrowRight.mouseout"/>
                  </use>
                  <path fill="none" stroke="white" stroke-width="1.5" d="M0,-3.0v7 M-2.5,-0.5L0,-3.0L2.5,-0.5"/>
                </g>
                <g id="arrowDown" xlink:href="#dirArrow" transform="rotate(180) translate(-30 -48)" onmousedown="handlePan(0,1)">
                  <use xlink:href="#rim" fill="#404040">
                        <set attributeName="fill" to="#808080" begin="arrowDown.mouseover" end="arrowDown.mouseout"/>
                  </use>
                  <path fill="none" stroke="white" stroke-width="1.5" d="M0,-3.0v7 M-2.5,-0.5L0,-3.0L2.5,-0.5"/>
                </g>
                <g id="arrowLeft" xlink:href="#dirArrow" transform="rotate(270) translate(-36 17)" onmousedown="handlePan(-1,0)">
                  <use xlink:href="#rim" fill="#404040">
                        <set attributeName="fill" to="#808080" begin="arrowLeft.mouseover" end="arrowLeft.mouseout"/>
                  </use>
                  <path fill="none" stroke="white" stroke-width="1.5" d="M0,-3.0v7 M-2.5,-0.5L0,-3.0L2.5,-0.5"/>
                </g>
        </g>
        <svg viewBox="0 0 15 15" width="100%" height="30px" preserveAspectRatio="xMaxYMin meet">
         <g id="arrow_out" transform="scale(0.3 0.3)">
          <a xlink:href="classPDI_1_1Error_a96f2da1344848f7862d6d4227ba7c82a_icgraph_org.svg" target="_base">
           <rect id="button" ry="5" rx="5" y="6" x="6" height="38" width="38"
                fill="#f2f5e9" fill-opacity="0.5" stroke="#606060" stroke-width="1.0"/>
           <path id="arrow"
             d="M 11.500037,31.436501 C 11.940474,20.09759 22.043105,11.32322 32.158766,21.979434 L 37.068811,17.246167 C 37.068811,17.246167 37.088388,32 37.088388,32 L 22.160133,31.978069 C 22.160133,31.978069 26.997745,27.140456 26.997745,27.140456 C 18.528582,18.264221 13.291696,25.230495 11.500037,31.436501 z"
             style="fill:#404040;"/>
          </a>
         </g>
        </svg>
</svg>
