<?xml version="1.0" encoding="UTF-8" standalone="no"?>
<!DOCTYPE svg PUBLIC "-//W3C//DTD SVG 1.1//EN"
 "http://www.w3.org/Graphics/SVG/1.1/DTD/svg11.dtd">
<!-- Generated by graphviz version 2.40.1 (20161225.0304)
 -->
<!-- Title: PDI::Data_descriptor_impl::Data_descriptor_impl Pages: 1 -->
<svg width="306pt" height="88pt"
 viewBox="0.00 0.00 306.00 88.00" xmlns="http://www.w3.org/2000/svg" xmlns:xlink="http://www.w3.org/1999/xlink">
<g id="graph0" class="graph" transform="scale(1 1) rotate(0) translate(4 84)">
<title>PDI::Data_descriptor_impl::Data_descriptor_impl</title>
<polygon fill="#ffffff" stroke="transparent" points="-4,4 -4,-84 302,-84 302,4 -4,4"/>
<!-- Node0 -->
<g id="node1" class="node">
<title>Node0</title>
<polygon fill="#bfbfbf" stroke="#000000" points="0,-24.5 0,-54.5 146,-54.5 146,-24.5 0,-24.5"/>
<text text-anchor="start" x="8" y="-42.5" font-family="Helvetica,sans-Serif" font-size="10.00" fill="#000000">PDI::Data_descriptor</text>
<text text-anchor="middle" x="73" y="-31.5" font-family="Helvetica,sans-Serif" font-size="10.00" fill="#000000">_impl::Data_descriptor_impl</text>
</g>
<!-- Node1 -->
<g id="node2" class="node">
<title>Node1</title>
<g id="a_node2"><a xlink:href="classPDI_1_1Scalar__datatype.html#a6c851958754a3f04881f6e12b27ff019" target="_top" xlink:title="PDI::Scalar_datatype\l::clone_type">
<polygon fill="#ffffff" stroke="#000000" points="182,-49.5 182,-79.5 298,-79.5 298,-49.5 182,-49.5"/>
<text text-anchor="start" x="190" y="-67.5" font-family="Helvetica,sans-Serif" font-size="10.00" fill="#000000">PDI::Scalar_datatype</text>
<text text-anchor="middle" x="240" y="-56.5" font-family="Helvetica,sans-Serif" font-size="10.00" fill="#000000">::clone_type</text>
</a>
</g>
</g>
<!-- Node0&#45;&gt;Node1 -->
<g id="edge1" class="edge">
<title>Node0&#45;&gt;Node1</title>
<path fill="none" stroke="#191970" d="M146.2486,-50.4654C154.7222,-51.7339 163.3387,-53.0238 171.742,-54.2817"/>
<polygon fill="#191970" stroke="#191970" points="171.4545,-57.7776 181.8626,-55.7968 172.491,-50.8548 171.4545,-57.7776"/>
</g>
<!-- Node2 -->
<g id="node3" class="node">
<title>Node2</title>
<g id="a_node3"><a xlink:href="classPDI_1_1Data__descriptor__impl.html#a4d7fd65f5687ac192c82466b021d3037" target="_top" xlink:title="PDI::Data_descriptor\l_impl::name">
<polygon fill="#ffffff" stroke="#000000" points="183,-.5 183,-30.5 297,-30.5 297,-.5 183,-.5"/>
<text text-anchor="start" x="191" y="-18.5" font-family="Helvetica,sans-Serif" font-size="10.00" fill="#000000">PDI::Data_descriptor</text>
<text text-anchor="middle" x="240" y="-7.5" font-family="Helvetica,sans-Serif" font-size="10.00" fill="#000000">_impl::name</text>
</a>
</g>
</g>
<!-- Node0&#45;&gt;Node2 -->
<g id="edge2" class="edge">
<title>Node0&#45;&gt;Node2</title>
<path fill="none" stroke="#191970" d="M146.2486,-28.9733C155.0672,-27.7059 164.0407,-26.4163 172.7676,-25.1621"/>
<polygon fill="#191970" stroke="#191970" points="173.4744,-28.5966 182.8748,-23.7096 172.4786,-21.6678 173.4744,-28.5966"/>
</g>
</g>
</svg>
