<?xml version="1.0" encoding="UTF-8" standalone="no"?>
<!DOCTYPE svg PUBLIC "-//W3C//DTD SVG 1.1//EN"
 "http://www.w3.org/Graphics/SVG/1.1/DTD/svg11.dtd">
<!-- Generated by graphviz version 2.40.1 (20161225.0304)
 -->
<!-- Title: PDI::Data_descriptor_impl::ref Pages: 1 -->
<svg width="272pt" height="137pt"
 viewBox="0.00 0.00 272.00 137.00" xmlns="http://www.w3.org/2000/svg" xmlns:xlink="http://www.w3.org/1999/xlink">
<g id="graph0" class="graph" transform="scale(1 1) rotate(0) translate(4 133)">
<title>PDI::Data_descriptor_impl::ref</title>
<polygon fill="#ffffff" stroke="transparent" points="-4,4 -4,-133 268,-133 268,4 -4,4"/>
<!-- Node51 -->
<g id="node1" class="node">
<title>Node51</title>
<polygon fill="#bfbfbf" stroke="#000000" points="0,-49.5 0,-79.5 114,-79.5 114,-49.5 0,-49.5"/>
<text text-anchor="start" x="8" y="-67.5" font-family="Helvetica,sans-Serif" font-size="10.00" fill="#000000">PDI::Data_descriptor</text>
<text text-anchor="middle" x="57" y="-56.5" font-family="Helvetica,sans-Serif" font-size="10.00" fill="#000000">_impl::ref</text>
</g>
<!-- Node52 -->
<g id="node2" class="node">
<title>Node52</title>
<g id="a_node2"><a xlink:href="classPDI_1_1Data__descriptor__impl.html#ae8113dda0a9b7d787ab27a3d1f62f66a" target="_top" xlink:title="PDI::Data_descriptor\l_impl::share">
<polygon fill="#ffffff" stroke="#000000" points="150,-98.5 150,-128.5 264,-128.5 264,-98.5 150,-98.5"/>
<text text-anchor="start" x="158" y="-116.5" font-family="Helvetica,sans-Serif" font-size="10.00" fill="#000000">PDI::Data_descriptor</text>
<text text-anchor="middle" x="207" y="-105.5" font-family="Helvetica,sans-Serif" font-size="10.00" fill="#000000">_impl::share</text>
</a>
</g>
</g>
<!-- Node51&#45;&gt;Node52 -->
<g id="edge1" class="edge">
<title>Node51&#45;&gt;Node52</title>
<path fill="none" stroke="#191970" d="M112.8951,-82.7591C128.7161,-87.9273 145.7523,-93.4924 160.9237,-98.4484"/>
<polygon fill="#191970" stroke="#191970" points="113.8214,-79.3797 103.2289,-79.6014 111.6477,-86.0337 113.8214,-79.3797"/>
</g>
<!-- Node53 -->
<g id="node3" class="node">
<title>Node53</title>
<g id="a_node3"><a xlink:href="classPDI_1_1Data__descriptor__impl.html#a63809cc6270b2a1e7c8b57b9fd0aeedd" target="_top" xlink:title="PDI::Data_descriptor\l_impl::release">
<polygon fill="#ffffff" stroke="#000000" points="150,-49.5 150,-79.5 264,-79.5 264,-49.5 150,-49.5"/>
<text text-anchor="start" x="158" y="-67.5" font-family="Helvetica,sans-Serif" font-size="10.00" fill="#000000">PDI::Data_descriptor</text>
<text text-anchor="middle" x="207" y="-56.5" font-family="Helvetica,sans-Serif" font-size="10.00" fill="#000000">_impl::release</text>
</a>
</g>
</g>
<!-- Node51&#45;&gt;Node53 -->
<g id="edge2" class="edge">
<title>Node51&#45;&gt;Node53</title>
<path fill="none" stroke="#191970" d="M124.3106,-64.5C132.7284,-64.5 141.2768,-64.5 149.5255,-64.5"/>
<polygon fill="#191970" stroke="#191970" points="124.1365,-61.0001 114.1365,-64.5 124.1364,-68.0001 124.1365,-61.0001"/>
</g>
<!-- Node54 -->
<g id="node4" class="node">
<title>Node54</title>
<g id="a_node4"><a xlink:href="classPDI_1_1Data__descriptor__impl.html#a799ecffb5b3234c677c0aeb7b0b72ac7" target="_top" xlink:title="PDI::Data_descriptor\l_impl::reclaim">
<polygon fill="#ffffff" stroke="#000000" points="150,-.5 150,-30.5 264,-30.5 264,-.5 150,-.5"/>
<text text-anchor="start" x="158" y="-18.5" font-family="Helvetica,sans-Serif" font-size="10.00" fill="#000000">PDI::Data_descriptor</text>
<text text-anchor="middle" x="207" y="-7.5" font-family="Helvetica,sans-Serif" font-size="10.00" fill="#000000">_impl::reclaim</text>
</a>
</g>
</g>
<!-- Node51&#45;&gt;Node54 -->
<g id="edge3" class="edge">
<title>Node51&#45;&gt;Node54</title>
<path fill="none" stroke="#191970" d="M112.8951,-46.2409C128.7161,-41.0727 145.7523,-35.5076 160.9237,-30.5516"/>
<polygon fill="#191970" stroke="#191970" points="111.6477,-42.9663 103.2289,-49.3986 113.8214,-49.6203 111.6477,-42.9663"/>
</g>
</g>
</svg>
