<?xml version="1.0" encoding="UTF-8" standalone="no"?>
<!DOCTYPE svg PUBLIC "-//W3C//DTD SVG 1.1//EN"
 "http://www.w3.org/Graphics/SVG/1.1/DTD/svg11.dtd">
<!-- Generated by graphviz version 2.40.1 (20161225.0304)
 -->
<!-- Title: PDI::Data_descriptor_impl::metadata Pages: 1 -->
<svg width="460pt" height="313pt"
 viewBox="0.00 0.00 460.00 313.00" xmlns="http://www.w3.org/2000/svg" xmlns:xlink="http://www.w3.org/1999/xlink">
<g id="graph0" class="graph" transform="scale(1 1) rotate(0) translate(4 309)">
<title>PDI::Data_descriptor_impl::metadata</title>
<polygon fill="#ffffff" stroke="transparent" points="-4,4 -4,-309 456,-309 456,4 -4,4"/>
<!-- Node20 -->
<g id="node1" class="node">
<title>Node20</title>
<polygon fill="#bfbfbf" stroke="#000000" points="0,-137.5 0,-167.5 114,-167.5 114,-137.5 0,-137.5"/>
<text text-anchor="start" x="8" y="-155.5" font-family="Helvetica,sans-Serif" font-size="10.00" fill="#000000">PDI::Data_descriptor</text>
<text text-anchor="middle" x="57" y="-144.5" font-family="Helvetica,sans-Serif" font-size="10.00" fill="#000000">_impl::metadata</text>
</g>
<!-- Node21 -->
<g id="node2" class="node">
<title>Node21</title>
<g id="a_node2"><a xlink:href="classPDI_1_1Data__descriptor__impl.html#a2cf21a84e04ad98ecef668c4986a47e4" target="_top" xlink:title="PDI::Data_descriptor\l_impl::~Data_descriptor_impl">
<polygon fill="#ffffff" stroke="#000000" points="150,-274.5 150,-304.5 302,-304.5 302,-274.5 150,-274.5"/>
<text text-anchor="start" x="158" y="-292.5" font-family="Helvetica,sans-Serif" font-size="10.00" fill="#000000">PDI::Data_descriptor</text>
<text text-anchor="middle" x="226" y="-281.5" font-family="Helvetica,sans-Serif" font-size="10.00" fill="#000000">_impl::~Data_descriptor_impl</text>
</a>
</g>
</g>
<!-- Node20&#45;&gt;Node21 -->
<g id="edge1" class="edge">
<title>Node20&#45;&gt;Node21</title>
<path fill="none" stroke="#191970" d="M70.798,-176.3986C86.7484,-201.9898 115.3082,-242.0689 150,-265.5 155.0452,-268.9076 160.6012,-271.8528 166.3434,-274.3939"/>
<polygon fill="#191970" stroke="#191970" points="73.6871,-174.4131 65.504,-167.6835 67.7044,-178.0473 73.6871,-174.4131"/>
</g>
<!-- Node22 -->
<g id="node3" class="node">
<title>Node22</title>
<g id="a_node3"><a xlink:href="classPDI_1_1Data__descriptor__impl.html#afa9b374221afb10e73a7405cc9369645" target="_top" xlink:title="PDI::Data_descriptor\l_impl::metadata">
<polygon fill="#ffffff" stroke="#000000" points="169,-225.5 169,-255.5 283,-255.5 283,-225.5 169,-225.5"/>
<text text-anchor="start" x="177" y="-243.5" font-family="Helvetica,sans-Serif" font-size="10.00" fill="#000000">PDI::Data_descriptor</text>
<text text-anchor="middle" x="226" y="-232.5" font-family="Helvetica,sans-Serif" font-size="10.00" fill="#000000">_impl::metadata</text>
</a>
</g>
</g>
<!-- Node20&#45;&gt;Node22 -->
<g id="edge2" class="edge">
<title>Node20&#45;&gt;Node22</title>
<path fill="none" stroke="#191970" d="M87.6547,-173.5877C105.4051,-185.2918 128.4392,-199.6346 150,-210.5 160.7675,-215.9262 172.7632,-221.0564 183.9846,-225.4889"/>
<polygon fill="#191970" stroke="#191970" points="89.1508,-170.3785 78.8897,-167.7402 85.266,-176.2016 89.1508,-170.3785"/>
</g>
<!-- Node23 -->
<g id="node4" class="node">
<title>Node23</title>
<g id="a_node4"><a xlink:href="classPDI_1_1Data__descriptor__impl.html#adb5530d2a46c093c6cc03a8ed1d45fd7" target="_top" xlink:title="PDI::Data_descriptor\l_impl::ref">
<polygon fill="#ffffff" stroke="#000000" points="169,-137.5 169,-167.5 283,-167.5 283,-137.5 169,-137.5"/>
<text text-anchor="start" x="177" y="-155.5" font-family="Helvetica,sans-Serif" font-size="10.00" fill="#000000">PDI::Data_descriptor</text>
<text text-anchor="middle" x="226" y="-144.5" font-family="Helvetica,sans-Serif" font-size="10.00" fill="#000000">_impl::ref</text>
</a>
</g>
</g>
<!-- Node20&#45;&gt;Node23 -->
<g id="edge3" class="edge">
<title>Node20&#45;&gt;Node23</title>
<path fill="none" stroke="#191970" d="M124.2903,-152.5C139.0449,-152.5 154.5306,-152.5 168.8432,-152.5"/>
<polygon fill="#191970" stroke="#191970" points="124.2157,-149.0001 114.2157,-152.5 124.2157,-156.0001 124.2157,-149.0001"/>
</g>
<!-- Node25 -->
<g id="node6" class="node">
<title>Node25</title>
<g id="a_node6"><a xlink:href="classPDI_1_1Data__descriptor__impl.html#a63809cc6270b2a1e7c8b57b9fd0aeedd" target="_top" xlink:title="PDI::Data_descriptor\l_impl::release">
<polygon fill="#ffffff" stroke="#000000" points="338,-186.5 338,-216.5 452,-216.5 452,-186.5 338,-186.5"/>
<text text-anchor="start" x="346" y="-204.5" font-family="Helvetica,sans-Serif" font-size="10.00" fill="#000000">PDI::Data_descriptor</text>
<text text-anchor="middle" x="395" y="-193.5" font-family="Helvetica,sans-Serif" font-size="10.00" fill="#000000">_impl::release</text>
</a>
</g>
</g>
<!-- Node20&#45;&gt;Node25 -->
<g id="edge9" class="edge">
<title>Node20&#45;&gt;Node25</title>
<path fill="none" stroke="#191970" d="M119.75,-170.0629C129.8111,-172.4823 140.1516,-174.7372 150,-176.5 213.7613,-187.9131 287.8599,-194.5733 337.7299,-198.109"/>
<polygon fill="#191970" stroke="#191970" points="120.3588,-166.608 109.8106,-167.6007 118.6757,-173.4026 120.3588,-166.608"/>
</g>
<!-- Node26 -->
<g id="node7" class="node">
<title>Node26</title>
<g id="a_node7"><a xlink:href="classPDI_1_1Data__descriptor__impl.html#a799ecffb5b3234c677c0aeb7b0b72ac7" target="_top" xlink:title="PDI::Data_descriptor\l_impl::reclaim">
<polygon fill="#ffffff" stroke="#000000" points="338,-88.5 338,-118.5 452,-118.5 452,-88.5 338,-88.5"/>
<text text-anchor="start" x="346" y="-106.5" font-family="Helvetica,sans-Serif" font-size="10.00" fill="#000000">PDI::Data_descriptor</text>
<text text-anchor="middle" x="395" y="-95.5" font-family="Helvetica,sans-Serif" font-size="10.00" fill="#000000">_impl::reclaim</text>
</a>
</g>
</g>
<!-- Node20&#45;&gt;Node26 -->
<g id="edge10" class="edge">
<title>Node20&#45;&gt;Node26</title>
<path fill="none" stroke="#191970" d="M116.7812,-134.8753C127.7583,-132.0838 139.1697,-129.4722 150,-127.5 213.701,-115.8999 287.8106,-109.6243 337.6998,-106.4337"/>
<polygon fill="#191970" stroke="#191970" points="115.6382,-131.5565 106.8514,-137.4763 117.412,-138.328 115.6382,-131.5565"/>
</g>
<!-- Node27 -->
<g id="node8" class="node">
<title>Node27</title>
<g id="a_node8"><a xlink:href="classPDI_1_1Data__descriptor__impl.html#aa61ea26a18c822351411755f90c2486b" target="_top" xlink:title="PDI::Data_descriptor\l_impl::empty">
<polygon fill="#ffffff" stroke="#000000" points="169,-49.5 169,-79.5 283,-79.5 283,-49.5 169,-49.5"/>
<text text-anchor="start" x="177" y="-67.5" font-family="Helvetica,sans-Serif" font-size="10.00" fill="#000000">PDI::Data_descriptor</text>
<text text-anchor="middle" x="226" y="-56.5" font-family="Helvetica,sans-Serif" font-size="10.00" fill="#000000">_impl::empty</text>
</a>
</g>
</g>
<!-- Node20&#45;&gt;Node27 -->
<g id="edge7" class="edge">
<title>Node20&#45;&gt;Node27</title>
<path fill="none" stroke="#191970" d="M87.6547,-131.4123C105.4051,-119.7082 128.4392,-105.3654 150,-94.5 160.7675,-89.0738 172.7632,-83.9436 183.9846,-79.5111"/>
<polygon fill="#191970" stroke="#191970" points="85.266,-128.7984 78.8897,-137.2598 89.1508,-134.6215 85.266,-128.7984"/>
</g>
<!-- Node28 -->
<g id="node9" class="node">
<title>Node28</title>
<g id="a_node9"><a xlink:href="classPDI_1_1Data__descriptor__impl.html#a34460fdabdf0c63cbf9d06f559196f8d" target="_top" xlink:title="PDI::Data_descriptor\l_impl::share">
<polygon fill="#ffffff" stroke="#000000" points="169,-.5 169,-30.5 283,-30.5 283,-.5 169,-.5"/>
<text text-anchor="start" x="177" y="-18.5" font-family="Helvetica,sans-Serif" font-size="10.00" fill="#000000">PDI::Data_descriptor</text>
<text text-anchor="middle" x="226" y="-7.5" font-family="Helvetica,sans-Serif" font-size="10.00" fill="#000000">_impl::share</text>
</a>
</g>
</g>
<!-- Node20&#45;&gt;Node28 -->
<g id="edge8" class="edge">
<title>Node20&#45;&gt;Node28</title>
<path fill="none" stroke="#191970" d="M70.798,-128.6014C86.7484,-103.0102 115.3082,-62.9311 150,-39.5 155.7332,-35.6278 162.126,-32.3526 168.7021,-29.589"/>
<polygon fill="#191970" stroke="#191970" points="67.7044,-126.9527 65.504,-137.3165 73.6871,-130.5869 67.7044,-126.9527"/>
</g>
<!-- Node24 -->
<g id="node5" class="node">
<title>Node24</title>
<g id="a_node5"><a xlink:href="classPDI_1_1Data__descriptor__impl.html#ae8113dda0a9b7d787ab27a3d1f62f66a" target="_top" xlink:title="PDI::Data_descriptor\l_impl::share">
<polygon fill="#ffffff" stroke="#000000" points="338,-137.5 338,-167.5 452,-167.5 452,-137.5 338,-137.5"/>
<text text-anchor="start" x="346" y="-155.5" font-family="Helvetica,sans-Serif" font-size="10.00" fill="#000000">PDI::Data_descriptor</text>
<text text-anchor="middle" x="395" y="-144.5" font-family="Helvetica,sans-Serif" font-size="10.00" fill="#000000">_impl::share</text>
</a>
</g>
</g>
<!-- Node23&#45;&gt;Node24 -->
<g id="edge4" class="edge">
<title>Node23&#45;&gt;Node24</title>
<path fill="none" stroke="#191970" d="M293.2903,-152.5C308.0449,-152.5 323.5306,-152.5 337.8432,-152.5"/>
<polygon fill="#191970" stroke="#191970" points="293.2157,-149.0001 283.2157,-152.5 293.2157,-156.0001 293.2157,-149.0001"/>
</g>
<!-- Node23&#45;&gt;Node25 -->
<g id="edge5" class="edge">
<title>Node23&#45;&gt;Node25</title>
<path fill="none" stroke="#191970" d="M287.7163,-170.3941C305.8936,-175.6644 325.5911,-181.3755 343.0874,-186.4484"/>
<polygon fill="#191970" stroke="#191970" points="288.6637,-167.0247 278.0846,-167.6014 286.7143,-173.7478 288.6637,-167.0247"/>
</g>
<!-- Node23&#45;&gt;Node26 -->
<g id="edge6" class="edge">
<title>Node23&#45;&gt;Node26</title>
<path fill="none" stroke="#191970" d="M287.7163,-134.6059C305.8936,-129.3356 325.5911,-123.6245 343.0874,-118.5516"/>
<polygon fill="#191970" stroke="#191970" points="286.7143,-131.2522 278.0846,-137.3986 288.6637,-137.9753 286.7143,-131.2522"/>
</g>
</g>
</svg>
