<?xml version="1.0" encoding="UTF-8" standalone="no"?>
<!DOCTYPE svg PUBLIC "-//W3C//DTD SVG 1.1//EN"
 "http://www.w3.org/Graphics/SVG/1.1/DTD/svg11.dtd">
<!-- Generated by graphviz version 2.40.1 (20161225.0304)
 -->
<!-- Title: PDI::Array_datatype::debug_string Pages: 1 -->
<svg width="269pt" height="431pt"
 viewBox="0.00 0.00 269.00 431.00" xmlns="http://www.w3.org/2000/svg" xmlns:xlink="http://www.w3.org/1999/xlink">
<g id="graph0" class="graph" transform="scale(1 1) rotate(0) translate(4 427)">
<title>PDI::Array_datatype::debug_string</title>
<polygon fill="#ffffff" stroke="transparent" points="-4,4 -4,-427 265,-427 265,4 -4,4"/>
<!-- Node51 -->
<g id="node1" class="node">
<title>Node51</title>
<polygon fill="#bfbfbf" stroke="#000000" points="0,-196.5 0,-226.5 111,-226.5 111,-196.5 0,-196.5"/>
<text text-anchor="start" x="8" y="-214.5" font-family="Helvetica,sans-Serif" font-size="10.00" fill="#000000">PDI::Array_datatype</text>
<text text-anchor="middle" x="55.5" y="-203.5" font-family="Helvetica,sans-Serif" font-size="10.00" fill="#000000">::debug_string</text>
</g>
<!-- Node52 -->
<g id="node2" class="node">
<title>Node52</title>
<g id="a_node2"><a xlink:href="classPDI_1_1Array__datatype.html#a6f9201d70ad6f5dcb52ce714f543f447" target="_top" xlink:title="PDI::Array_datatype\l::subtype">
<polygon fill="#ffffff" stroke="#000000" points="148.5,-392.5 148.5,-422.5 259.5,-422.5 259.5,-392.5 148.5,-392.5"/>
<text text-anchor="start" x="156.5" y="-410.5" font-family="Helvetica,sans-Serif" font-size="10.00" fill="#000000">PDI::Array_datatype</text>
<text text-anchor="middle" x="204" y="-399.5" font-family="Helvetica,sans-Serif" font-size="10.00" fill="#000000">::subtype</text>
</a>
</g>
</g>
<!-- Node51&#45;&gt;Node52 -->
<g id="edge1" class="edge">
<title>Node51&#45;&gt;Node52</title>
<path fill="none" stroke="#191970" d="M59.6974,-226.5323C69.5797,-259.3513 97.304,-338.1041 147,-383.5 148.2808,-384.67 149.627,-385.7879 151.0251,-386.8556"/>
<polygon fill="#191970" stroke="#191970" points="149.2305,-389.8644 159.5087,-392.4355 153.0772,-384.016 149.2305,-389.8644"/>
</g>
<!-- Node53 -->
<g id="node3" class="node">
<title>Node53</title>
<g id="a_node3"><a xlink:href="classPDI_1_1Datatype.html#aff4be6868c49816ef432098357ab5789" target="_top" xlink:title="PDI::Datatype::debug\l_string">
<polygon fill="#ffffff" stroke="#000000" points="147,-343.5 147,-373.5 261,-373.5 261,-343.5 147,-343.5"/>
<text text-anchor="start" x="155" y="-361.5" font-family="Helvetica,sans-Serif" font-size="10.00" fill="#000000">PDI::Datatype::debug</text>
<text text-anchor="middle" x="204" y="-350.5" font-family="Helvetica,sans-Serif" font-size="10.00" fill="#000000">_string</text>
</a>
</g>
</g>
<!-- Node51&#45;&gt;Node53 -->
<g id="edge2" class="edge">
<title>Node51&#45;&gt;Node53</title>
<path fill="none" stroke="#191970" d="M63.3219,-226.7979C77.0626,-252.3169 107.8313,-303.7944 147,-334.5 148.7508,-335.8725 150.5915,-337.18 152.4962,-338.4241"/>
<polygon fill="#191970" stroke="#191970" points="150.7728,-341.4707 161.1759,-343.4773 154.2948,-335.4212 150.7728,-341.4707"/>
</g>
<!-- Node54 -->
<g id="node4" class="node">
<title>Node54</title>
<g id="a_node4"><a xlink:href="classPDI_1_1Array__datatype.html#a31286281747dffd22dd10c3a929eef51" target="_top" xlink:title="PDI::Array_datatype\l::dense">
<polygon fill="#ffffff" stroke="#000000" points="148.5,-294.5 148.5,-324.5 259.5,-324.5 259.5,-294.5 148.5,-294.5"/>
<text text-anchor="start" x="156.5" y="-312.5" font-family="Helvetica,sans-Serif" font-size="10.00" fill="#000000">PDI::Array_datatype</text>
<text text-anchor="middle" x="204" y="-301.5" font-family="Helvetica,sans-Serif" font-size="10.00" fill="#000000">::dense</text>
</a>
</g>
</g>
<!-- Node51&#45;&gt;Node54 -->
<g id="edge3" class="edge">
<title>Node51&#45;&gt;Node54</title>
<path fill="none" stroke="#191970" d="M71.3187,-226.6357C88.784,-242.7636 118.2496,-268.294 147,-285.5 149.5049,-286.9991 152.1206,-288.4504 154.7954,-289.8473"/>
<polygon fill="#191970" stroke="#191970" points="153.5216,-293.1207 164.0418,-294.3768 156.6011,-286.8344 153.5216,-293.1207"/>
</g>
<!-- Node55 -->
<g id="node5" class="node">
<title>Node55</title>
<g id="a_node5"><a xlink:href="classPDI_1_1Array__datatype.html#adb00b9bfc6a70d320111bff1244ad979" target="_top" xlink:title="PDI::Array_datatype\l::buffersize">
<polygon fill="#ffffff" stroke="#000000" points="148.5,-245.5 148.5,-275.5 259.5,-275.5 259.5,-245.5 148.5,-245.5"/>
<text text-anchor="start" x="156.5" y="-263.5" font-family="Helvetica,sans-Serif" font-size="10.00" fill="#000000">PDI::Array_datatype</text>
<text text-anchor="middle" x="204" y="-252.5" font-family="Helvetica,sans-Serif" font-size="10.00" fill="#000000">::buffersize</text>
</a>
</g>
</g>
<!-- Node51&#45;&gt;Node55 -->
<g id="edge4" class="edge">
<title>Node51&#45;&gt;Node55</title>
<path fill="none" stroke="#191970" d="M101.2666,-226.6014C116.2987,-231.5615 133.1666,-237.1274 148.8213,-242.2929"/>
<polygon fill="#191970" stroke="#191970" points="147.7914,-245.6386 158.3845,-245.4484 149.9849,-238.9911 147.7914,-245.6386"/>
</g>
<!-- Node56 -->
<g id="node6" class="node">
<title>Node56</title>
<g id="a_node6"><a xlink:href="classPDI_1_1Array__datatype.html#a00fb46532bb0b8a63111130715a10137" target="_top" xlink:title="PDI::Array_datatype\l::datasize">
<polygon fill="#ffffff" stroke="#000000" points="148.5,-196.5 148.5,-226.5 259.5,-226.5 259.5,-196.5 148.5,-196.5"/>
<text text-anchor="start" x="156.5" y="-214.5" font-family="Helvetica,sans-Serif" font-size="10.00" fill="#000000">PDI::Array_datatype</text>
<text text-anchor="middle" x="204" y="-203.5" font-family="Helvetica,sans-Serif" font-size="10.00" fill="#000000">::datasize</text>
</a>
</g>
</g>
<!-- Node51&#45;&gt;Node56 -->
<g id="edge5" class="edge">
<title>Node51&#45;&gt;Node56</title>
<path fill="none" stroke="#191970" d="M111.2184,-211.5C120.0682,-211.5 129.2932,-211.5 138.3455,-211.5"/>
<polygon fill="#191970" stroke="#191970" points="138.4632,-215.0001 148.4632,-211.5 138.4632,-208.0001 138.4632,-215.0001"/>
</g>
<!-- Node57 -->
<g id="node7" class="node">
<title>Node57</title>
<g id="a_node7"><a xlink:href="classPDI_1_1Array__datatype.html#ae744734eedbb48f61e0bde159940d9ce" target="_top" xlink:title="PDI::Array_datatype\l::alignment">
<polygon fill="#ffffff" stroke="#000000" points="148.5,-147.5 148.5,-177.5 259.5,-177.5 259.5,-147.5 148.5,-147.5"/>
<text text-anchor="start" x="156.5" y="-165.5" font-family="Helvetica,sans-Serif" font-size="10.00" fill="#000000">PDI::Array_datatype</text>
<text text-anchor="middle" x="204" y="-154.5" font-family="Helvetica,sans-Serif" font-size="10.00" fill="#000000">::alignment</text>
</a>
</g>
</g>
<!-- Node51&#45;&gt;Node57 -->
<g id="edge6" class="edge">
<title>Node51&#45;&gt;Node57</title>
<path fill="none" stroke="#191970" d="M101.2666,-196.3986C116.2987,-191.4385 133.1666,-185.8726 148.8213,-180.7071"/>
<polygon fill="#191970" stroke="#191970" points="149.9849,-184.0089 158.3845,-177.5516 147.7914,-177.3614 149.9849,-184.0089"/>
</g>
<!-- Node58 -->
<g id="node8" class="node">
<title>Node58</title>
<g id="a_node8"><a xlink:href="classPDI_1_1Array__datatype.html#a26b0a7a4a180e1135846627372ed9589" target="_top" xlink:title="PDI::Array_datatype\l::size">
<polygon fill="#ffffff" stroke="#000000" points="148.5,-98.5 148.5,-128.5 259.5,-128.5 259.5,-98.5 148.5,-98.5"/>
<text text-anchor="start" x="156.5" y="-116.5" font-family="Helvetica,sans-Serif" font-size="10.00" fill="#000000">PDI::Array_datatype</text>
<text text-anchor="middle" x="204" y="-105.5" font-family="Helvetica,sans-Serif" font-size="10.00" fill="#000000">::size</text>
</a>
</g>
</g>
<!-- Node51&#45;&gt;Node58 -->
<g id="edge7" class="edge">
<title>Node51&#45;&gt;Node58</title>
<path fill="none" stroke="#191970" d="M71.7274,-196.3781C89.3044,-180.5381 118.6466,-155.6259 147,-138.5 150.1448,-136.6005 153.4597,-134.7645 156.8441,-133.0088"/>
<polygon fill="#191970" stroke="#191970" points="158.4649,-136.1121 165.8957,-128.56 155.3772,-129.8299 158.4649,-136.1121"/>
</g>
<!-- Node59 -->
<g id="node9" class="node">
<title>Node59</title>
<g id="a_node9"><a xlink:href="classPDI_1_1Array__datatype.html#ac8bc6acc7335a71d63e1a19f2227d2f9" target="_top" xlink:title="PDI::Array_datatype\l::start">
<polygon fill="#ffffff" stroke="#000000" points="148.5,-49.5 148.5,-79.5 259.5,-79.5 259.5,-49.5 148.5,-49.5"/>
<text text-anchor="start" x="156.5" y="-67.5" font-family="Helvetica,sans-Serif" font-size="10.00" fill="#000000">PDI::Array_datatype</text>
<text text-anchor="middle" x="204" y="-56.5" font-family="Helvetica,sans-Serif" font-size="10.00" fill="#000000">::start</text>
</a>
</g>
</g>
<!-- Node51&#45;&gt;Node59 -->
<g id="edge8" class="edge">
<title>Node51&#45;&gt;Node59</title>
<path fill="none" stroke="#191970" d="M63.4029,-196.392C77.263,-171.1772 108.203,-120.2569 147,-89.5 149.0746,-87.8553 151.2742,-86.2965 153.5558,-84.8221"/>
<polygon fill="#191970" stroke="#191970" points="155.7669,-87.5867 162.672,-79.5512 152.263,-81.5267 155.7669,-87.5867"/>
</g>
<!-- Node60 -->
<g id="node10" class="node">
<title>Node60</title>
<g id="a_node10"><a xlink:href="classPDI_1_1Array__datatype.html#ab50be2accef49e18e36c9ac96d196a04" target="_top" xlink:title="PDI::Array_datatype\l::subsize">
<polygon fill="#ffffff" stroke="#000000" points="148.5,-.5 148.5,-30.5 259.5,-30.5 259.5,-.5 148.5,-.5"/>
<text text-anchor="start" x="156.5" y="-18.5" font-family="Helvetica,sans-Serif" font-size="10.00" fill="#000000">PDI::Array_datatype</text>
<text text-anchor="middle" x="204" y="-7.5" font-family="Helvetica,sans-Serif" font-size="10.00" fill="#000000">::subsize</text>
</a>
</g>
</g>
<!-- Node51&#45;&gt;Node60 -->
<g id="edge9" class="edge">
<title>Node51&#45;&gt;Node60</title>
<path fill="none" stroke="#191970" d="M59.9252,-196.1155C70.0869,-163.3049 98.0571,-85.7673 147,-40.5 148.6758,-38.95 150.4632,-37.4856 152.3324,-36.1032"/>
<polygon fill="#191970" stroke="#191970" points="154.4404,-38.9089 160.9585,-30.5563 150.6543,-33.0211 154.4404,-38.9089"/>
</g>
</g>
</svg>
