<?xml version="1.0" encoding="UTF-8" standalone="no"?>
<!DOCTYPE svg PUBLIC "-//W3C//DTD SVG 1.1//EN"
 "http://www.w3.org/Graphics/SVG/1.1/DTD/svg11.dtd">
<!-- Generated by graphviz version 2.40.1 (20161225.0304)
 -->
<!-- Title: PDI::Array_datatype::subsize Pages: 1 -->
<svg width="288pt" height="235pt"
 viewBox="0.00 0.00 288.00 235.00" xmlns="http://www.w3.org/2000/svg" xmlns:xlink="http://www.w3.org/1999/xlink">
<g id="graph0" class="graph" transform="scale(1 1) rotate(0) translate(4 231)">
<title>PDI::Array_datatype::subsize</title>
<polygon fill="#ffffff" stroke="transparent" points="-4,4 -4,-231 284,-231 284,4 -4,4"/>
<!-- Node95 -->
<g id="node1" class="node">
<title>Node95</title>
<polygon fill="#bfbfbf" stroke="#000000" points="0,-98.5 0,-128.5 111,-128.5 111,-98.5 0,-98.5"/>
<text text-anchor="start" x="8" y="-116.5" font-family="Helvetica,sans-Serif" font-size="10.00" fill="#000000">PDI::Array_datatype</text>
<text text-anchor="middle" x="55.5" y="-105.5" font-family="Helvetica,sans-Serif" font-size="10.00" fill="#000000">::subsize</text>
</g>
<!-- Node96 -->
<g id="node2" class="node">
<title>Node96</title>
<g id="a_node2"><a xlink:href="classPDI_1_1Array__datatype.html#a5a7e92c1dac8a64f6bca955475b0332d" target="_top" xlink:title="PDI::Array_datatype\l::Array_datatype">
<polygon fill="#ffffff" stroke="#000000" points="158,-196.5 158,-226.5 269,-226.5 269,-196.5 158,-196.5"/>
<text text-anchor="start" x="166" y="-214.5" font-family="Helvetica,sans-Serif" font-size="10.00" fill="#000000">PDI::Array_datatype</text>
<text text-anchor="middle" x="213.5" y="-203.5" font-family="Helvetica,sans-Serif" font-size="10.00" fill="#000000">::Array_datatype</text>
</a>
</g>
</g>
<!-- Node95&#45;&gt;Node96 -->
<g id="edge1" class="edge">
<title>Node95&#45;&gt;Node96</title>
<path fill="none" stroke="#191970" d="M78.3361,-135.6126C95.9497,-151.7214 121.533,-173.1475 147,-187.5 152.8811,-190.8144 159.3046,-193.8124 165.7661,-196.477"/>
<polygon fill="#191970" stroke="#191970" points="80.538,-132.8806 70.8332,-128.63 75.7691,-138.0048 80.538,-132.8806"/>
</g>
<!-- Node97 -->
<g id="node3" class="node">
<title>Node97</title>
<g id="a_node3"><a xlink:href="classPDI_1_1Array__datatype.html#a0b95036d9845592fc5e6e0e7f3784424" target="_top" xlink:title="PDI::Array_datatype\l::data_to_dense_copy">
<polygon fill="#ffffff" stroke="#000000" points="153,-147.5 153,-177.5 274,-177.5 274,-147.5 153,-147.5"/>
<text text-anchor="start" x="161" y="-165.5" font-family="Helvetica,sans-Serif" font-size="10.00" fill="#000000">PDI::Array_datatype</text>
<text text-anchor="middle" x="213.5" y="-154.5" font-family="Helvetica,sans-Serif" font-size="10.00" fill="#000000">::data_to_dense_copy</text>
</a>
</g>
</g>
<!-- Node95&#45;&gt;Node97 -->
<g id="edge2" class="edge">
<title>Node95&#45;&gt;Node97</title>
<path fill="none" stroke="#191970" d="M113.9049,-131.6129C130.7022,-136.8222 148.835,-142.4457 164.9663,-147.4484"/>
<polygon fill="#191970" stroke="#191970" points="114.7824,-128.2207 104.1944,-128.6014 112.7089,-134.9065 114.7824,-128.2207"/>
</g>
<!-- Node98 -->
<g id="node4" class="node">
<title>Node98</title>
<g id="a_node4"><a xlink:href="classPDI_1_1Array__datatype.html#ab4b67b416c0e5f99fc9bf947030703b3" target="_top" xlink:title="PDI::Array_datatype\l::data_from_dense_copy">
<polygon fill="#ffffff" stroke="#000000" points="147,-98.5 147,-128.5 280,-128.5 280,-98.5 147,-98.5"/>
<text text-anchor="start" x="155" y="-116.5" font-family="Helvetica,sans-Serif" font-size="10.00" fill="#000000">PDI::Array_datatype</text>
<text text-anchor="middle" x="213.5" y="-105.5" font-family="Helvetica,sans-Serif" font-size="10.00" fill="#000000">::data_from_dense_copy</text>
</a>
</g>
</g>
<!-- Node95&#45;&gt;Node98 -->
<g id="edge3" class="edge">
<title>Node95&#45;&gt;Node98</title>
<path fill="none" stroke="#191970" d="M121.3768,-113.5C129.8218,-113.5 138.4725,-113.5 146.9285,-113.5"/>
<polygon fill="#191970" stroke="#191970" points="121.2049,-110.0001 111.2049,-113.5 121.2049,-117.0001 121.2049,-110.0001"/>
</g>
<!-- Node99 -->
<g id="node5" class="node">
<title>Node99</title>
<g id="a_node5"><a xlink:href="classPDI_1_1Array__datatype.html#a97d34f930cdf5e76850b0d9ae6b24d8f" target="_top" xlink:title="PDI::Array_datatype\l::destroy_data">
<polygon fill="#ffffff" stroke="#000000" points="158,-49.5 158,-79.5 269,-79.5 269,-49.5 158,-49.5"/>
<text text-anchor="start" x="166" y="-67.5" font-family="Helvetica,sans-Serif" font-size="10.00" fill="#000000">PDI::Array_datatype</text>
<text text-anchor="middle" x="213.5" y="-56.5" font-family="Helvetica,sans-Serif" font-size="10.00" fill="#000000">::destroy_data</text>
</a>
</g>
</g>
<!-- Node95&#45;&gt;Node99 -->
<g id="edge4" class="edge">
<title>Node95&#45;&gt;Node99</title>
<path fill="none" stroke="#191970" d="M113.9049,-95.3871C130.7022,-90.1778 148.835,-84.5543 164.9663,-79.5516"/>
<polygon fill="#191970" stroke="#191970" points="112.7089,-92.0935 104.1944,-98.3986 114.7824,-98.7793 112.7089,-92.0935"/>
</g>
<!-- Node100 -->
<g id="node6" class="node">
<title>Node100</title>
<g id="a_node6"><a xlink:href="classPDI_1_1Array__datatype.html#ad478b9ad939aab3a15f64f0e2c252c41" target="_top" xlink:title="PDI::Array_datatype\l::debug_string">
<polygon fill="#ffffff" stroke="#000000" points="158,-.5 158,-30.5 269,-30.5 269,-.5 158,-.5"/>
<text text-anchor="start" x="166" y="-18.5" font-family="Helvetica,sans-Serif" font-size="10.00" fill="#000000">PDI::Array_datatype</text>
<text text-anchor="middle" x="213.5" y="-7.5" font-family="Helvetica,sans-Serif" font-size="10.00" fill="#000000">::debug_string</text>
</a>
</g>
</g>
<!-- Node95&#45;&gt;Node100 -->
<g id="edge5" class="edge">
<title>Node95&#45;&gt;Node100</title>
<path fill="none" stroke="#191970" d="M78.7648,-91.5151C96.4213,-75.7168 121.869,-54.7725 147,-40.5 153.4351,-36.8454 160.5066,-33.5306 167.5629,-30.597"/>
<polygon fill="#191970" stroke="#191970" points="76.2721,-89.0512 71.2298,-98.3693 80.9824,-94.2294 76.2721,-89.0512"/>
</g>
</g>
</svg>
