<?xml version="1.0" encoding="UTF-8" standalone="no"?>
<!DOCTYPE svg PUBLIC "-//W3C//DTD SVG 1.1//EN"
 "http://www.w3.org/Graphics/SVG/1.1/DTD/svg11.dtd">
<!-- Generated by graphviz version 2.40.1 (20161225.0304)
 -->
<!-- Title: PDI::Data_descriptor_impl::reclaim Pages: 1 -->
<svg width="426pt" height="160pt"
 viewBox="0.00 0.00 426.00 159.50" xmlns="http://www.w3.org/2000/svg" xmlns:xlink="http://www.w3.org/1999/xlink">
<g id="graph0" class="graph" transform="scale(1 1) rotate(0) translate(4 155.5)">
<title>PDI::Data_descriptor_impl::reclaim</title>
<polygon fill="#ffffff" stroke="transparent" points="-4,4 -4,-155.5 422,-155.5 422,4 -4,4"/>
<!-- Node39 -->
<g id="node1" class="node">
<title>Node39</title>
<polygon fill="#bfbfbf" stroke="#000000" points="0,-55 0,-85 114,-85 114,-55 0,-55"/>
<text text-anchor="start" x="8" y="-73" font-family="Helvetica,sans-Serif" font-size="10.00" fill="#000000">PDI::Data_descriptor</text>
<text text-anchor="middle" x="57" y="-62" font-family="Helvetica,sans-Serif" font-size="10.00" fill="#000000">_impl::reclaim</text>
</g>
<!-- Node40 -->
<g id="node2" class="node">
<title>Node40</title>
<g id="a_node2"><a xlink:href="classPDI_1_1Data__descriptor__impl.html#a00fee097289f95d6120342e7242951cd" target="_top" xlink:title="PDI::Data_descriptor\l_impl::metadata">
<polygon fill="#ffffff" stroke="#000000" points="304,-121 304,-151 418,-151 418,-121 304,-121"/>
<text text-anchor="start" x="312" y="-139" font-family="Helvetica,sans-Serif" font-size="10.00" fill="#000000">PDI::Data_descriptor</text>
<text text-anchor="middle" x="361" y="-128" font-family="Helvetica,sans-Serif" font-size="10.00" fill="#000000">_impl::metadata</text>
</a>
</g>
</g>
<!-- Node39&#45;&gt;Node40 -->
<g id="edge1" class="edge">
<title>Node39&#45;&gt;Node40</title>
<path fill="none" stroke="#191970" d="M80.8266,-85.2256C99.0259,-96.0481 125.1299,-109.8789 150,-117 196.8755,-130.422 251.7855,-135.0381 293.8382,-136.3691"/>
<polygon fill="#191970" stroke="#191970" points="293.878,-139.8713 303.9663,-136.6345 294.0614,-132.8737 293.878,-139.8713"/>
</g>
<!-- Node41 -->
<g id="node3" class="node">
<title>Node41</title>
<g id="a_node3"><a xlink:href="classPDI_1_1Data__descriptor__impl.html#adb5530d2a46c093c6cc03a8ed1d45fd7" target="_top" xlink:title="PDI::Data_descriptor\l_impl::ref">
<polygon fill="#ffffff" stroke="#000000" points="152,-77 152,-107 266,-107 266,-77 152,-77"/>
<text text-anchor="start" x="160" y="-95" font-family="Helvetica,sans-Serif" font-size="10.00" fill="#000000">PDI::Data_descriptor</text>
<text text-anchor="middle" x="209" y="-84" font-family="Helvetica,sans-Serif" font-size="10.00" fill="#000000">_impl::ref</text>
</a>
</g>
</g>
<!-- Node39&#45;&gt;Node41 -->
<g id="edge2" class="edge">
<title>Node39&#45;&gt;Node41</title>
<path fill="none" stroke="#191970" d="M114.0316,-78.2546C123.1256,-79.5708 132.6066,-80.9431 141.9071,-82.2892"/>
<polygon fill="#191970" stroke="#191970" points="141.5033,-85.7671 151.9016,-83.7358 142.5061,-78.8393 141.5033,-85.7671"/>
</g>
<!-- Node44 -->
<g id="node6" class="node">
<title>Node44</title>
<g id="a_node6"><a xlink:href="classPDI_1_1Ref__any.html#a92c53a0398732686e7b50480d4e2d82b" target="_top" xlink:title="PDI::Ref_any::copy">
<polygon fill="#ffffff" stroke="#000000" points="156.5,-38.5 156.5,-57.5 261.5,-57.5 261.5,-38.5 156.5,-38.5"/>
<text text-anchor="middle" x="209" y="-45.5" font-family="Helvetica,sans-Serif" font-size="10.00" fill="#000000">PDI::Ref_any::copy</text>
</a>
</g>
</g>
<!-- Node39&#45;&gt;Node44 -->
<g id="edge6" class="edge">
<title>Node39&#45;&gt;Node44</title>
<path fill="none" stroke="#191970" d="M114.0316,-61.7454C124.501,-60.2301 135.4835,-58.6406 146.113,-57.1021"/>
<polygon fill="#191970" stroke="#191970" points="146.7723,-60.5432 156.1678,-55.6468 145.7695,-53.6154 146.7723,-60.5432"/>
</g>
<!-- Node45 -->
<g id="node7" class="node">
<title>Node45</title>
<g id="a_node7"><a xlink:href="classPDI_1_1Ref__any.html#a2f653ad7b6152b4c1f027ed155c12e25" target="_top" xlink:title="PDI::Ref_any::release">
<polygon fill="#ffffff" stroke="#000000" points="150,-.5 150,-19.5 268,-19.5 268,-.5 150,-.5"/>
<text text-anchor="middle" x="209" y="-7.5" font-family="Helvetica,sans-Serif" font-size="10.00" fill="#000000">PDI::Ref_any::release</text>
</a>
</g>
</g>
<!-- Node39&#45;&gt;Node45 -->
<g id="edge7" class="edge">
<title>Node39&#45;&gt;Node45</title>
<path fill="none" stroke="#191970" d="M88.939,-54.9382C106.7277,-46.7987 129.3838,-36.8398 150,-29 155.606,-26.8682 161.5675,-24.764 167.464,-22.7766"/>
<polygon fill="#191970" stroke="#191970" points="168.8458,-26.0066 177.2519,-19.5576 166.6589,-19.357 168.8458,-26.0066"/>
</g>
<!-- Node41&#45;&gt;Node40 -->
<g id="edge3" class="edge">
<title>Node41&#45;&gt;Node40</title>
<path fill="none" stroke="#191970" d="M260.8846,-107.0192C273.2892,-110.61 286.6498,-114.4776 299.4436,-118.181"/>
<polygon fill="#191970" stroke="#191970" points="298.5124,-121.5551 309.0913,-120.9738 300.4589,-114.8312 298.5124,-121.5551"/>
</g>
<!-- Node42 -->
<g id="node4" class="node">
<title>Node42</title>
<g id="a_node4"><a xlink:href="classPDI_1_1Error.html#a96f2da1344848f7862d6d4227ba7c82a" target="_top" xlink:title="PDI::Error::status">
<polygon fill="#ffffff" stroke="#000000" points="313.5,-82.5 313.5,-101.5 408.5,-101.5 408.5,-82.5 313.5,-82.5"/>
<text text-anchor="middle" x="361" y="-89.5" font-family="Helvetica,sans-Serif" font-size="10.00" fill="#000000">PDI::Error::status</text>
</a>
</g>
</g>
<!-- Node41&#45;&gt;Node42 -->
<g id="edge4" class="edge">
<title>Node41&#45;&gt;Node42</title>
<path fill="none" stroke="#191970" d="M266.0316,-92C278.1411,-92 290.9369,-92 303.079,-92"/>
<polygon fill="#191970" stroke="#191970" points="303.0954,-95.5001 313.0953,-92 303.0953,-88.5001 303.0954,-95.5001"/>
</g>
<!-- Node43 -->
<g id="node5" class="node">
<title>Node43</title>
<g id="a_node5"><a xlink:href="classPDI_1_1Error.html#aca3b34b8350235c8455bfe56236c4454" target="_top" xlink:title="PDI::Error::what">
<polygon fill="#ffffff" stroke="#000000" points="316.5,-44.5 316.5,-63.5 405.5,-63.5 405.5,-44.5 316.5,-44.5"/>
<text text-anchor="middle" x="361" y="-51.5" font-family="Helvetica,sans-Serif" font-size="10.00" fill="#000000">PDI::Error::what</text>
</a>
</g>
</g>
<!-- Node41&#45;&gt;Node43 -->
<g id="edge5" class="edge">
<title>Node41&#45;&gt;Node43</title>
<path fill="none" stroke="#191970" d="M266.0316,-77.7421C281.3632,-73.9092 297.795,-69.8012 312.6076,-66.0981"/>
<polygon fill="#191970" stroke="#191970" points="313.7178,-69.4283 322.5703,-63.6074 312.02,-62.6373 313.7178,-69.4283"/>
</g>
</g>
</svg>
