<?xml version="1.0" encoding="UTF-8" standalone="no"?>
<!DOCTYPE svg PUBLIC "-//W3C//DTD SVG 1.1//EN"
 "http://www.w3.org/Graphics/SVG/1.1/DTD/svg11.dtd">
<!-- Generated by graphviz version 2.40.1 (20161225.0304)
 -->
<!-- Title: PDI::Global_context::Global_context Pages: 1 -->
<svg width="578pt" height="154pt"
 viewBox="0.00 0.00 578.00 154.00" xmlns="http://www.w3.org/2000/svg" xmlns:xlink="http://www.w3.org/1999/xlink">
<g id="graph0" class="graph" transform="scale(1 1) rotate(0) translate(4 150)">
<title>PDI::Global_context::Global_context</title>
<polygon fill="#ffffff" stroke="transparent" points="-4,4 -4,-150 574,-150 574,4 -4,4"/>
<!-- Node7 -->
<g id="node1" class="node">
<title>Node7</title>
<polygon fill="#bfbfbf" stroke="#000000" points="0,-61 0,-91 109,-91 109,-61 0,-61"/>
<text text-anchor="start" x="8" y="-79" font-family="Helvetica,sans-Serif" font-size="10.00" fill="#000000">PDI::Global_context</text>
<text text-anchor="middle" x="54.5" y="-68" font-family="Helvetica,sans-Serif" font-size="10.00" fill="#000000">::Global_context</text>
</g>
<!-- Node8 -->
<g id="node2" class="node">
<title>Node8</title>
<g id="a_node2"><a xlink:href="namespacePDI.html#ad9ecaf71ea20794c1486e8933bb175c0" target="_top" xlink:title="PDI::configure_logger">
<polygon fill="#ffffff" stroke="#000000" points="150,-126.5 150,-145.5 268,-145.5 268,-126.5 150,-126.5"/>
<text text-anchor="middle" x="209" y="-133.5" font-family="Helvetica,sans-Serif" font-size="10.00" fill="#000000">PDI::configure_logger</text>
</a>
</g>
</g>
<!-- Node7&#45;&gt;Node8 -->
<g id="edge1" class="edge">
<title>Node7&#45;&gt;Node8</title>
<path fill="none" stroke="#191970" d="M91.8611,-91.0546C108.1524,-97.5692 127.492,-105.2357 145,-112 154.2835,-115.5867 164.3532,-119.3991 173.6975,-122.9045"/>
<polygon fill="#191970" stroke="#191970" points="172.517,-126.1997 183.1095,-126.424 174.9688,-119.6431 172.517,-126.1997"/>
</g>
<!-- Node10 -->
<g id="node4" class="node">
<title>Node10</title>
<g id="a_node4"><a xlink:href="namespacePDI.html#ac2afdb3c131681f8a4726000547d72af" target="_top" xlink:title="PDI::to_string">
<polygon fill="#ffffff" stroke="#000000" points="490,-107.5 490,-126.5 570,-126.5 570,-107.5 490,-107.5"/>
<text text-anchor="middle" x="530" y="-114.5" font-family="Helvetica,sans-Serif" font-size="10.00" fill="#000000">PDI::to_string</text>
</a>
</g>
</g>
<!-- Node7&#45;&gt;Node10 -->
<g id="edge8" class="edge">
<title>Node7&#45;&gt;Node10</title>
<path fill="none" stroke="#191970" d="M109.0459,-80.7032C201.9679,-88.7154 389.6266,-104.8963 479.6245,-112.6564"/>
<polygon fill="#191970" stroke="#191970" points="479.5796,-116.1654 489.8434,-113.5375 480.181,-109.1913 479.5796,-116.1654"/>
</g>
<!-- Node11 -->
<g id="node5" class="node">
<title>Node11</title>
<g id="a_node5"><a xlink:href="classPDI_1_1Datatype__template.html#ae3d538ff1bbc559c3d3e7adbbf4a2173" target="_top" xlink:title="PDI::Datatype_template\l::load_basic_datatypes">
<polygon fill="#ffffff" stroke="#000000" points="145,-39 145,-69 273,-69 273,-39 145,-39"/>
<text text-anchor="start" x="153" y="-57" font-family="Helvetica,sans-Serif" font-size="10.00" fill="#000000">PDI::Datatype_template</text>
<text text-anchor="middle" x="209" y="-46" font-family="Helvetica,sans-Serif" font-size="10.00" fill="#000000">::load_basic_datatypes</text>
</a>
</g>
</g>
<!-- Node7&#45;&gt;Node11 -->
<g id="edge4" class="edge">
<title>Node7&#45;&gt;Node11</title>
<path fill="none" stroke="#191970" d="M109.4059,-68.1817C117.6348,-67.0099 126.2338,-65.7855 134.7832,-64.5681"/>
<polygon fill="#191970" stroke="#191970" points="135.3647,-68.0207 144.7714,-63.1458 134.3779,-61.0906 135.3647,-68.0207"/>
</g>
<!-- Node14 -->
<g id="node8" class="node">
<title>Node14</title>
<g id="a_node8"><a xlink:href="namespacePDI.html#a00f2173a7fb0dc37655e9e39756e135e" target="_top" xlink:title="PDI::len">
<polygon fill="#ffffff" stroke="#000000" points="182.5,-.5 182.5,-19.5 235.5,-19.5 235.5,-.5 182.5,-.5"/>
<text text-anchor="middle" x="209" y="-7.5" font-family="Helvetica,sans-Serif" font-size="10.00" fill="#000000">PDI::len</text>
</a>
</g>
</g>
<!-- Node7&#45;&gt;Node14 -->
<g id="edge7" class="edge">
<title>Node7&#45;&gt;Node14</title>
<path fill="none" stroke="#191970" d="M80.4063,-60.8617C98.1725,-50.9038 122.5096,-38.082 145,-29 153.8396,-25.4304 163.6056,-22.1933 172.7902,-19.4434"/>
<polygon fill="#191970" stroke="#191970" points="173.8169,-22.7901 182.4569,-16.6581 171.8787,-16.0637 173.8169,-22.7901"/>
</g>
<!-- Node9 -->
<g id="node3" class="node">
<title>Node9</title>
<g id="a_node3"><a xlink:href="namespacePDI.html#acb8e99799a9d8bc02471370808320f2a" target="_top" xlink:title="PDI::read_log_level">
<polygon fill="#ffffff" stroke="#000000" points="327.5,-126.5 327.5,-145.5 435.5,-145.5 435.5,-126.5 327.5,-126.5"/>
<text text-anchor="middle" x="381.5" y="-133.5" font-family="Helvetica,sans-Serif" font-size="10.00" fill="#000000">PDI::read_log_level</text>
</a>
</g>
</g>
<!-- Node8&#45;&gt;Node9 -->
<g id="edge2" class="edge">
<title>Node8&#45;&gt;Node9</title>
<path fill="none" stroke="#191970" d="M268.3647,-136C284.034,-136 301.0187,-136 316.9475,-136"/>
<polygon fill="#191970" stroke="#191970" points="317.2381,-139.5001 327.238,-136 317.238,-132.5001 317.2381,-139.5001"/>
</g>
<!-- Node9&#45;&gt;Node10 -->
<g id="edge3" class="edge">
<title>Node9&#45;&gt;Node10</title>
<path fill="none" stroke="#191970" d="M435.532,-129.0868C449.9461,-127.2426 465.4607,-125.2576 479.6674,-123.4399"/>
<polygon fill="#191970" stroke="#191970" points="480.2715,-126.8912 489.7465,-122.1503 479.3831,-119.9478 480.2715,-126.8912"/>
</g>
<!-- Node12 -->
<g id="node6" class="node">
<title>Node12</title>
<g id="a_node6"><a xlink:href="classPDI_1_1Context.html#a49ae5a3b3cb8d97b0f61e6a3dd9b0fd6" target="_top" xlink:title="PDI::Context::add_datatype">
<polygon fill="#ffffff" stroke="#000000" points="309,-47.5 309,-66.5 454,-66.5 454,-47.5 309,-47.5"/>
<text text-anchor="middle" x="381.5" y="-54.5" font-family="Helvetica,sans-Serif" font-size="10.00" fill="#000000">PDI::Context::add_datatype</text>
</a>
</g>
</g>
<!-- Node11&#45;&gt;Node12 -->
<g id="edge5" class="edge">
<title>Node11&#45;&gt;Node12</title>
<path fill="none" stroke="#191970" d="M273.2326,-55.1171C281.5633,-55.262 290.1877,-55.412 298.7656,-55.5611"/>
<polygon fill="#191970" stroke="#191970" points="298.7343,-59.061 308.7937,-55.7355 298.8561,-52.0621 298.7343,-59.061"/>
</g>
<!-- Node13 -->
<g id="node7" class="node">
<title>Node13</title>
<g id="a_node7"><a xlink:href="namespacePDI.html#ac4e2b53893618edfb9bff90c65c4ee01" target="_top" xlink:title="PDI::to_long">
<polygon fill="#ffffff" stroke="#000000" points="344.5,-9.5 344.5,-28.5 418.5,-28.5 418.5,-9.5 344.5,-9.5"/>
<text text-anchor="middle" x="381.5" y="-16.5" font-family="Helvetica,sans-Serif" font-size="10.00" fill="#000000">PDI::to_long</text>
</a>
</g>
</g>
<!-- Node11&#45;&gt;Node13 -->
<g id="edge6" class="edge">
<title>Node11&#45;&gt;Node13</title>
<path fill="none" stroke="#191970" d="M273.2326,-40.9673C293.5318,-36.8486 315.5746,-32.3762 334.4404,-28.5483"/>
<polygon fill="#191970" stroke="#191970" points="335.1715,-31.9714 344.2758,-26.5527 333.7795,-25.1112 335.1715,-31.9714"/>
</g>
</g>
</svg>
