<?xml version="1.0" encoding="UTF-8" standalone="no"?>
<!DOCTYPE svg PUBLIC "-//W3C//DTD SVG 1.1//EN"
 "http://www.w3.org/Graphics/SVG/1.1/DTD/svg11.dtd">
<!-- Generated by graphviz version 2.40.1 (20161225.0304)
 -->
<!-- Title: PDI::Error Pages: 1 -->
<svg width="89pt" height="204pt"
 viewBox="0.00 0.00 89.00 204.00" xmlns="http://www.w3.org/2000/svg" xmlns:xlink="http://www.w3.org/1999/xlink">
<g id="graph0" class="graph" transform="scale(1 1) rotate(0) translate(4 200)">
<title>PDI::Error</title>
<polygon fill="#ffffff" stroke="transparent" points="-4,4 -4,-200 85,-200 85,4 -4,4"/>
<!-- Node0 -->
<g id="node1" class="node">
<title>Node0</title>
<polygon fill="#bfbfbf" stroke="#000000" points="8,-.5 8,-101.5 73,-101.5 73,-.5 8,-.5"/>
<text text-anchor="middle" x="40.5" y="-89.5" font-family="Helvetica,sans-Serif" font-size="10.00" fill="#000000">PDI::Error</text>
<polyline fill="none" stroke="#000000" points="8,-82.5 73,-82.5 "/>
<text text-anchor="start" x="16" y="-70.5" font-family="Helvetica,sans-Serif" font-size="10.00" fill="#000000">&#45; m_what</text>
<text text-anchor="start" x="16" y="-59.5" font-family="Helvetica,sans-Serif" font-size="10.00" fill="#000000">&#45; m_status</text>
<polyline fill="none" stroke="#000000" points="8,-52.5 73,-52.5 "/>
<text text-anchor="start" x="16" y="-40.5" font-family="Helvetica,sans-Serif" font-size="10.00" fill="#000000">+ Error()</text>
<text text-anchor="start" x="16" y="-29.5" font-family="Helvetica,sans-Serif" font-size="10.00" fill="#000000">+ Error()</text>
<text text-anchor="start" x="16" y="-18.5" font-family="Helvetica,sans-Serif" font-size="10.00" fill="#000000">+ what()</text>
<text text-anchor="start" x="16" y="-7.5" font-family="Helvetica,sans-Serif" font-size="10.00" fill="#000000">+ status()</text>
</g>
<!-- Node1 -->
<g id="node2" class="node">
<title>Node1</title>
<polygon fill="#ffffff" stroke="#bfbfbf" points="0,-138.5 0,-195.5 81,-195.5 81,-138.5 0,-138.5"/>
<text text-anchor="middle" x="40.5" y="-183.5" font-family="Helvetica,sans-Serif" font-size="10.00" fill="#000000">std::exception</text>
<polyline fill="none" stroke="#bfbfbf" points="0,-176.5 81,-176.5 "/>
<text text-anchor="middle" x="40.5" y="-164.5" font-family="Helvetica,sans-Serif" font-size="10.00" fill="#000000"> </text>
<polyline fill="none" stroke="#bfbfbf" points="0,-157.5 81,-157.5 "/>
<text text-anchor="middle" x="40.5" y="-145.5" font-family="Helvetica,sans-Serif" font-size="10.00" fill="#000000"> </text>
</g>
<!-- Node1&#45;&gt;Node0 -->
<g id="edge1" class="edge">
<title>Node1&#45;&gt;Node0</title>
<path fill="none" stroke="#191970" d="M40.5,-128.0826C40.5,-119.6942 40.5,-110.7064 40.5,-101.9373"/>
<polygon fill="none" stroke="#191970" points="37.0001,-128.3258 40.5,-138.3258 44.0001,-128.3259 37.0001,-128.3258"/>
</g>
</g>
</svg>
