<?xml version="1.0" encoding="UTF-8" standalone="no"?>
<!DOCTYPE svg PUBLIC "-//W3C//DTD SVG 1.1//EN"
 "http://www.w3.org/Graphics/SVG/1.1/DTD/svg11.dtd">
<!-- Generated by graphviz version 2.40.1 (20161225.0304)
 -->
<!-- Title: PDI::Global_context::context Pages: 1 -->
<svg width="423pt" height="294pt"
 viewBox="0.00 0.00 423.00 294.00" xmlns="http://www.w3.org/2000/svg" xmlns:xlink="http://www.w3.org/1999/xlink">
<g id="graph0" class="graph" transform="scale(1 1) rotate(0) translate(4 290)">
<title>PDI::Global_context::context</title>
<polygon fill="#ffffff" stroke="transparent" points="-4,4 -4,-290 419,-290 419,4 -4,4"/>
<!-- Node22 -->
<g id="node1" class="node">
<title>Node22</title>
<polygon fill="#bfbfbf" stroke="#000000" points="0,-128 0,-158 109,-158 109,-128 0,-128"/>
<text text-anchor="start" x="8" y="-146" font-family="Helvetica,sans-Serif" font-size="10.00" fill="#000000">PDI::Global_context</text>
<text text-anchor="middle" x="54.5" y="-135" font-family="Helvetica,sans-Serif" font-size="10.00" fill="#000000">::context</text>
</g>
<!-- Node23 -->
<g id="node2" class="node">
<title>Node23</title>
<g id="a_node2"><a xlink:href="pdi_8cxx.html#a3dc660be40c93c169337e3d2692b2ed0" target="_top" xlink:title="Initialization / Finalization stuff. ">
<polygon fill="#ffffff" stroke="#000000" points="177.5,-266.5 177.5,-285.5 230.5,-285.5 230.5,-266.5 177.5,-266.5"/>
<text text-anchor="middle" x="204" y="-273.5" font-family="Helvetica,sans-Serif" font-size="10.00" fill="#000000">PDI_init</text>
</a>
</g>
</g>
<!-- Node22&#45;&gt;Node23 -->
<g id="edge1" class="edge">
<title>Node22&#45;&gt;Node23</title>
<path fill="none" stroke="#191970" d="M67.7478,-167.085C83.1133,-192.8808 110.7702,-233.2957 145,-257 154.5546,-263.6166 166.5483,-268.0321 177.2225,-270.926"/>
<polygon fill="#191970" stroke="#191970" points="70.698,-165.1955 62.6535,-158.3008 64.6426,-168.7073 70.698,-165.1955"/>
</g>
<!-- Node24 -->
<g id="node3" class="node">
<title>Node24</title>
<g id="a_node3"><a xlink:href="pdi_8cxx.html#a53d83851dcb286b25c8f7061d00d997b" target="_top" xlink:title="PDI_finalize">
<polygon fill="#ffffff" stroke="#000000" points="167.5,-228.5 167.5,-247.5 240.5,-247.5 240.5,-228.5 167.5,-228.5"/>
<text text-anchor="middle" x="204" y="-235.5" font-family="Helvetica,sans-Serif" font-size="10.00" fill="#000000">PDI_finalize</text>
</a>
</g>
</g>
<!-- Node22&#45;&gt;Node24 -->
<g id="edge2" class="edge">
<title>Node22&#45;&gt;Node24</title>
<path fill="none" stroke="#191970" d="M76.1682,-165.4181C93.4516,-182.1912 118.9965,-204.6236 145,-219 151.8749,-222.8009 159.6264,-225.979 167.1957,-228.5805"/>
<polygon fill="#191970" stroke="#191970" points="78.4053,-162.7077 68.8365,-158.1591 73.4802,-167.6821 78.4053,-162.7077"/>
</g>
<!-- Node25 -->
<g id="node4" class="node">
<title>Node25</title>
<g id="a_node4"><a xlink:href="pdi_8cxx.html#af047cf4c39c3e80684372feb273cc06d" target="_top" xlink:title="PDI_event">
<polygon fill="#ffffff" stroke="#000000" points="171,-114.5 171,-133.5 237,-133.5 237,-114.5 171,-114.5"/>
<text text-anchor="middle" x="204" y="-121.5" font-family="Helvetica,sans-Serif" font-size="10.00" fill="#000000">PDI_event</text>
</a>
</g>
</g>
<!-- Node22&#45;&gt;Node25 -->
<g id="edge3" class="edge">
<title>Node22&#45;&gt;Node25</title>
<path fill="none" stroke="#191970" d="M119.6377,-134.7216C137.3585,-132.4695 155.8122,-130.1242 170.9254,-128.2035"/>
<polygon fill="#191970" stroke="#191970" points="118.7983,-131.3001 109.3194,-136.033 119.6809,-138.2442 118.7983,-131.3001"/>
</g>
<!-- Node28 -->
<g id="node7" class="node">
<title>Node28</title>
<g id="a_node7"><a xlink:href="pdi_8cxx.html#a1e7bd53812b4bc1f2708d0c6176aae29" target="_top" xlink:title="PDI_share">
<polygon fill="#ffffff" stroke="#000000" points="170.5,-190.5 170.5,-209.5 237.5,-209.5 237.5,-190.5 170.5,-190.5"/>
<text text-anchor="middle" x="204" y="-197.5" font-family="Helvetica,sans-Serif" font-size="10.00" fill="#000000">PDI_share</text>
</a>
</g>
</g>
<!-- Node22&#45;&gt;Node28 -->
<g id="edge6" class="edge">
<title>Node22&#45;&gt;Node28</title>
<path fill="none" stroke="#191970" d="M98.0209,-162.1661C112.8214,-168.4449 129.531,-175.2737 145,-181 153.8808,-184.2875 163.6277,-187.56 172.5959,-190.4393"/>
<polygon fill="#191970" stroke="#191970" points="99.1734,-158.8523 88.6027,-158.1365 96.4198,-165.288 99.1734,-158.8523"/>
</g>
<!-- Node30 -->
<g id="node9" class="node">
<title>Node30</title>
<g id="a_node9"><a xlink:href="pdi_8cxx.html#a8dcd0c81d7697ea473a55bd57efb717d" target="_top" xlink:title="PDI_access">
<polygon fill="#ffffff" stroke="#000000" points="167.5,-76.5 167.5,-95.5 240.5,-95.5 240.5,-76.5 167.5,-76.5"/>
<text text-anchor="middle" x="204" y="-83.5" font-family="Helvetica,sans-Serif" font-size="10.00" fill="#000000">PDI_access</text>
</a>
</g>
</g>
<!-- Node22&#45;&gt;Node30 -->
<g id="edge9" class="edge">
<title>Node22&#45;&gt;Node30</title>
<path fill="none" stroke="#191970" d="M98.0209,-123.8339C112.8214,-117.5551 129.531,-110.7263 145,-105 153.8808,-101.7125 163.6277,-98.44 172.5959,-95.5607"/>
<polygon fill="#191970" stroke="#191970" points="96.4198,-120.712 88.6027,-127.8635 99.1734,-127.1477 96.4198,-120.712"/>
</g>
<!-- Node31 -->
<g id="node10" class="node">
<title>Node31</title>
<g id="a_node10"><a xlink:href="pdi_8cxx.html#a001117ae897dd4e4a25c312b5d00c43a" target="_top" xlink:title="PDI_release">
<polygon fill="#ffffff" stroke="#000000" points="166.5,-38.5 166.5,-57.5 241.5,-57.5 241.5,-38.5 166.5,-38.5"/>
<text text-anchor="middle" x="204" y="-45.5" font-family="Helvetica,sans-Serif" font-size="10.00" fill="#000000">PDI_release</text>
</a>
</g>
</g>
<!-- Node22&#45;&gt;Node31 -->
<g id="edge10" class="edge">
<title>Node22&#45;&gt;Node31</title>
<path fill="none" stroke="#191970" d="M76.1682,-120.5819C93.4516,-103.8088 118.9965,-81.3764 145,-67 151.7807,-63.2512 159.4142,-60.1082 166.8845,-57.5267"/>
<polygon fill="#191970" stroke="#191970" points="73.4802,-118.3179 68.8365,-127.8409 78.4053,-123.2923 73.4802,-118.3179"/>
</g>
<!-- Node32 -->
<g id="node11" class="node">
<title>Node32</title>
<g id="a_node11"><a xlink:href="pdi_8cxx.html#abf58b7c146cbf7e3341245f60cec0f7e" target="_top" xlink:title="PDI_reclaim">
<polygon fill="#ffffff" stroke="#000000" points="167,-152.5 167,-171.5 241,-171.5 241,-152.5 167,-152.5"/>
<text text-anchor="middle" x="204" y="-159.5" font-family="Helvetica,sans-Serif" font-size="10.00" fill="#000000">PDI_reclaim</text>
</a>
</g>
</g>
<!-- Node22&#45;&gt;Node32 -->
<g id="edge11" class="edge">
<title>Node22&#45;&gt;Node32</title>
<path fill="none" stroke="#191970" d="M119.3412,-151.2407C135.6146,-153.3089 152.5259,-155.4581 166.9159,-157.287"/>
<polygon fill="#191970" stroke="#191970" points="119.6809,-147.7558 109.3194,-149.967 118.7983,-154.6999 119.6809,-147.7558"/>
</g>
<!-- Node33 -->
<g id="node12" class="node">
<title>Node33</title>
<g id="a_node12"><a xlink:href="python_2pdi_8cxx.html#a727b802ea287c6ae55678b2643aa61b6" target="_top" xlink:title="PYBIND11_MODULE">
<polygon fill="#ffffff" stroke="#000000" points="145,-.5 145,-19.5 263,-19.5 263,-.5 145,-.5"/>
<text text-anchor="middle" x="204" y="-7.5" font-family="Helvetica,sans-Serif" font-size="10.00" fill="#000000">PYBIND11_MODULE</text>
</a>
</g>
</g>
<!-- Node22&#45;&gt;Node33 -->
<g id="edge15" class="edge">
<title>Node22&#45;&gt;Node33</title>
<path fill="none" stroke="#191970" d="M67.7478,-118.915C83.1133,-93.1192 110.7702,-52.7043 145,-29 150.5735,-25.1403 156.977,-22.0296 163.4644,-19.533"/>
<polygon fill="#191970" stroke="#191970" points="64.6426,-117.2927 62.6535,-127.6992 70.698,-120.8045 64.6426,-117.2927"/>
</g>
<!-- Node26 -->
<g id="node5" class="node">
<title>Node26</title>
<g id="a_node5"><a xlink:href="pdi_8cxx.html#ae5c670b378e423e3083122f62c1f0a59" target="_top" xlink:title="PDI_multi_expose">
<polygon fill="#ffffff" stroke="#000000" points="306.5,-152.5 306.5,-171.5 407.5,-171.5 407.5,-152.5 306.5,-152.5"/>
<text text-anchor="middle" x="357" y="-159.5" font-family="Helvetica,sans-Serif" font-size="10.00" fill="#000000">PDI_multi_expose</text>
</a>
</g>
</g>
<!-- Node25&#45;&gt;Node26 -->
<g id="edge4" class="edge">
<title>Node25&#45;&gt;Node26</title>
<path fill="none" stroke="#191970" d="M247.1698,-134.7219C269.6858,-140.3141 296.9902,-147.0956 318.7417,-152.4979"/>
<polygon fill="#191970" stroke="#191970" points="247.7475,-131.2591 237.1987,-132.2454 246.0602,-138.0527 247.7475,-131.2591"/>
</g>
<!-- Node27 -->
<g id="node6" class="node">
<title>Node27</title>
<g id="a_node6"><a xlink:href="pdi_8cxx.html#aec4ebe672273ed893952e34bc408ba73" target="_top" xlink:title="PDI_transaction_end">
<polygon fill="#ffffff" stroke="#000000" points="299,-114.5 299,-133.5 415,-133.5 415,-114.5 299,-114.5"/>
<text text-anchor="middle" x="357" y="-121.5" font-family="Helvetica,sans-Serif" font-size="10.00" fill="#000000">PDI_transaction_end</text>
</a>
</g>
</g>
<!-- Node25&#45;&gt;Node27 -->
<g id="edge5" class="edge">
<title>Node25&#45;&gt;Node27</title>
<path fill="none" stroke="#191970" d="M247.3349,-124C263.3451,-124 281.7587,-124 298.8692,-124"/>
<polygon fill="#191970" stroke="#191970" points="247.1988,-120.5001 237.1987,-124 247.1987,-127.5001 247.1988,-120.5001"/>
</g>
<!-- Node28&#45;&gt;Node26 -->
<g id="edge8" class="edge">
<title>Node28&#45;&gt;Node26</title>
<path fill="none" stroke="#191970" d="M247.5116,-189.1932C269.9303,-183.6252 297.0242,-176.8959 318.6508,-171.5246"/>
<polygon fill="#191970" stroke="#191970" points="246.438,-185.8534 237.5765,-191.6607 248.1253,-192.647 246.438,-185.8534"/>
</g>
<!-- Node29 -->
<g id="node8" class="node">
<title>Node29</title>
<g id="a_node8"><a xlink:href="pdi_8cxx.html#abf3f81774644eff9a3cf511e57273454" target="_top" xlink:title="PDI_expose">
<polygon fill="#ffffff" stroke="#000000" points="320,-190.5 320,-209.5 394,-209.5 394,-190.5 320,-190.5"/>
<text text-anchor="middle" x="357" y="-197.5" font-family="Helvetica,sans-Serif" font-size="10.00" fill="#000000">PDI_expose</text>
</a>
</g>
</g>
<!-- Node28&#45;&gt;Node29 -->
<g id="edge7" class="edge">
<title>Node28&#45;&gt;Node29</title>
<path fill="none" stroke="#191970" d="M247.6631,-200C270.4328,-200 297.9928,-200 319.7463,-200"/>
<polygon fill="#191970" stroke="#191970" points="247.5765,-196.5001 237.5765,-200 247.5765,-203.5001 247.5765,-196.5001"/>
</g>
<!-- Node32&#45;&gt;Node26 -->
<g id="edge13" class="edge">
<title>Node32&#45;&gt;Node26</title>
<path fill="none" stroke="#191970" d="M251.0514,-162C268.5974,-162 288.5826,-162 306.4316,-162"/>
<polygon fill="#191970" stroke="#191970" points="251.0371,-158.5001 241.037,-162 251.037,-165.5001 251.0371,-158.5001"/>
</g>
<!-- Node32&#45;&gt;Node27 -->
<g id="edge14" class="edge">
<title>Node32&#45;&gt;Node27</title>
<path fill="none" stroke="#191970" d="M251.0359,-150.3179C272.7454,-144.926 298.1917,-138.606 318.7062,-133.5109"/>
<polygon fill="#191970" stroke="#191970" points="249.8985,-146.994 241.037,-152.8013 251.5859,-153.7876 249.8985,-146.994"/>
</g>
<!-- Node32&#45;&gt;Node29 -->
<g id="edge12" class="edge">
<title>Node32&#45;&gt;Node29</title>
<path fill="none" stroke="#191970" d="M250.8919,-173.6464C273.0107,-179.1399 299.0343,-185.6033 319.7737,-190.7543"/>
<polygon fill="#191970" stroke="#191970" points="251.5859,-170.2124 241.037,-171.1987 249.8985,-177.006 251.5859,-170.2124"/>
</g>
</g>
</svg>
