<?xml version="1.0" encoding="UTF-8" standalone="no"?>
<!DOCTYPE svg PUBLIC "-//W3C//DTD SVG 1.1//EN"
 "http://www.w3.org/Graphics/SVG/1.1/DTD/svg11.dtd">
<!-- Generated by graphviz version 2.40.1 (20161225.0304)
 -->
<!-- Title: PDI::Array_datatype::buffersize Pages: 1 -->
<svg width="288pt" height="88pt"
 viewBox="0.00 0.00 288.00 88.00" xmlns="http://www.w3.org/2000/svg" xmlns:xlink="http://www.w3.org/1999/xlink">
<g id="graph0" class="graph" transform="scale(1 1) rotate(0) translate(4 84)">
<title>PDI::Array_datatype::buffersize</title>
<polygon fill="#ffffff" stroke="transparent" points="-4,4 -4,-84 284,-84 284,4 -4,4"/>
<!-- Node12 -->
<g id="node1" class="node">
<title>Node12</title>
<polygon fill="#bfbfbf" stroke="#000000" points="0,-24.5 0,-54.5 111,-54.5 111,-24.5 0,-24.5"/>
<text text-anchor="start" x="8" y="-42.5" font-family="Helvetica,sans-Serif" font-size="10.00" fill="#000000">PDI::Array_datatype</text>
<text text-anchor="middle" x="55.5" y="-31.5" font-family="Helvetica,sans-Serif" font-size="10.00" fill="#000000">::buffersize</text>
</g>
<!-- Node13 -->
<g id="node2" class="node">
<title>Node13</title>
<g id="a_node2"><a xlink:href="classPDI_1_1Array__datatype.html#ab4b67b416c0e5f99fc9bf947030703b3" target="_top" xlink:title="PDI::Array_datatype\l::data_from_dense_copy">
<polygon fill="#ffffff" stroke="#000000" points="147,-49.5 147,-79.5 280,-79.5 280,-49.5 147,-49.5"/>
<text text-anchor="start" x="155" y="-67.5" font-family="Helvetica,sans-Serif" font-size="10.00" fill="#000000">PDI::Array_datatype</text>
<text text-anchor="middle" x="213.5" y="-56.5" font-family="Helvetica,sans-Serif" font-size="10.00" fill="#000000">::data_from_dense_copy</text>
</a>
</g>
</g>
<!-- Node12&#45;&gt;Node13 -->
<g id="edge1" class="edge">
<title>Node12&#45;&gt;Node13</title>
<path fill="none" stroke="#191970" d="M121.0985,-49.8795C129.6316,-51.2297 138.3796,-52.6139 146.9285,-53.9665"/>
<polygon fill="#191970" stroke="#191970" points="121.629,-46.42 111.2049,-48.3141 120.535,-53.334 121.629,-46.42"/>
</g>
<!-- Node14 -->
<g id="node3" class="node">
<title>Node14</title>
<g id="a_node3"><a xlink:href="classPDI_1_1Array__datatype.html#ad478b9ad939aab3a15f64f0e2c252c41" target="_top" xlink:title="PDI::Array_datatype\l::debug_string">
<polygon fill="#ffffff" stroke="#000000" points="158,-.5 158,-30.5 269,-30.5 269,-.5 158,-.5"/>
<text text-anchor="start" x="166" y="-18.5" font-family="Helvetica,sans-Serif" font-size="10.00" fill="#000000">PDI::Array_datatype</text>
<text text-anchor="middle" x="213.5" y="-7.5" font-family="Helvetica,sans-Serif" font-size="10.00" fill="#000000">::debug_string</text>
</a>
</g>
</g>
<!-- Node12&#45;&gt;Node14 -->
<g id="edge2" class="edge">
<title>Node12&#45;&gt;Node14</title>
<path fill="none" stroke="#191970" d="M121.2698,-29.5097C133.4028,-27.6667 145.9645,-25.7586 157.7656,-23.966"/>
<polygon fill="#191970" stroke="#191970" points="120.5658,-26.0763 111.2049,-31.0385 121.6171,-32.997 120.5658,-26.0763"/>
</g>
</g>
</svg>
