<?xml version="1.0" encoding="UTF-8" standalone="no"?>
<!DOCTYPE svg PUBLIC "-//W3C//DTD SVG 1.1//EN"
 "http://www.w3.org/Graphics/SVG/1.1/DTD/svg11.dtd">
<!-- Generated by graphviz version 2.40.1 (20161225.0304)
 -->
<!-- Title: PDI::Expression::Expression Pages: 1 -->
<svg width="806pt" height="124pt"
 viewBox="0.00 0.00 806.00 123.50" xmlns="http://www.w3.org/2000/svg" xmlns:xlink="http://www.w3.org/1999/xlink">
<g id="graph0" class="graph" transform="scale(1 1) rotate(0) translate(4 119.5)">
<title>PDI::Expression::Expression</title>
<polygon fill="#ffffff" stroke="transparent" points="-4,4 -4,-119.5 802,-119.5 802,4 -4,4"/>
<!-- Node10 -->
<g id="node1" class="node">
<title>Node10</title>
<polygon fill="#bfbfbf" stroke="#000000" points="0,-44.5 0,-63.5 148,-63.5 148,-44.5 0,-44.5"/>
<text text-anchor="middle" x="74" y="-51.5" font-family="Helvetica,sans-Serif" font-size="10.00" fill="#000000">PDI::Expression::Expression</text>
</g>
<!-- Node11 -->
<g id="node2" class="node">
<title>Node11</title>
<g id="a_node2"><a xlink:href="structPDI_1_1Expression_1_1Impl_1_1Operation.html#a5116425b93990eb079c296765a875fd7" target="_top" xlink:title="PDI::Expression::Impl\l::Operation::parse">
<polygon fill="#ffffff" stroke="#000000" points="532,-85 532,-115 647,-115 647,-85 532,-85"/>
<text text-anchor="start" x="540" y="-103" font-family="Helvetica,sans-Serif" font-size="10.00" fill="#000000">PDI::Expression::Impl</text>
<text text-anchor="middle" x="589.5" y="-92" font-family="Helvetica,sans-Serif" font-size="10.00" fill="#000000">::Operation::parse</text>
</a>
</g>
</g>
<!-- Node10&#45;&gt;Node11 -->
<g id="edge1" class="edge">
<title>Node10&#45;&gt;Node11</title>
<path fill="none" stroke="#191970" d="M108.8901,-63.5434C130.3786,-69.0168 158.5872,-75.4807 184,-79 302.0227,-95.3443 440.9626,-99.2605 521.7511,-100.035"/>
<polygon fill="#191970" stroke="#191970" points="521.7632,-103.5351 531.7918,-100.1178 521.821,-96.5353 521.7632,-103.5351"/>
</g>
<!-- Node14 -->
<g id="node5" class="node">
<title>Node14</title>
<g id="a_node5"><a xlink:href="structPDI_1_1Expression_1_1Impl_1_1String__literal.html#a6a113b6b984ff9ae864a2c4ac3dd3365" target="_top" xlink:title="PDI::Expression::Impl\l::String_literal::parse">
<polygon fill="#ffffff" stroke="#000000" points="200.5,-39 200.5,-69 315.5,-69 315.5,-39 200.5,-39"/>
<text text-anchor="start" x="208.5" y="-57" font-family="Helvetica,sans-Serif" font-size="10.00" fill="#000000">PDI::Expression::Impl</text>
<text text-anchor="middle" x="258" y="-46" font-family="Helvetica,sans-Serif" font-size="10.00" fill="#000000">::String_literal::parse</text>
</a>
</g>
</g>
<!-- Node10&#45;&gt;Node14 -->
<g id="edge4" class="edge">
<title>Node10&#45;&gt;Node14</title>
<path fill="none" stroke="#191970" d="M148.0445,-54C161.8908,-54 176.3017,-54 189.9559,-54"/>
<polygon fill="#191970" stroke="#191970" points="190.228,-57.5001 200.228,-54 190.2279,-50.5001 190.228,-57.5001"/>
</g>
<!-- Node17 -->
<g id="node8" class="node">
<title>Node17</title>
<g id="a_node8"><a xlink:href="classPDI_1_1Expression.html#a293023f0af1aae062d79ec60ff08f923" target="_top" xlink:title="PDI::Expression::Expression">
<polygon fill="#ffffff" stroke="#000000" points="184,-.5 184,-19.5 332,-19.5 332,-.5 184,-.5"/>
<text text-anchor="middle" x="258" y="-7.5" font-family="Helvetica,sans-Serif" font-size="10.00" fill="#000000">PDI::Expression::Expression</text>
</a>
</g>
</g>
<!-- Node10&#45;&gt;Node17 -->
<g id="edge9" class="edge">
<title>Node10&#45;&gt;Node17</title>
<path fill="none" stroke="#191970" d="M113.9253,-44.4527C141.6537,-37.8219 178.7925,-28.9409 208.4182,-21.8565"/>
<polygon fill="#191970" stroke="#191970" points="209.2409,-25.2585 218.1527,-19.5287 207.6128,-18.4505 209.2409,-25.2585"/>
</g>
<!-- Node12 -->
<g id="node3" class="node">
<title>Node12</title>
<g id="a_node3"><a xlink:href="structPDI_1_1Expression_1_1Impl.html#a6cdce6e298de06f6c558ee9a96642d31" target="_top" xlink:title="PDI::Expression::Impl\l::parse_term">
<polygon fill="#ffffff" stroke="#000000" points="683,-14 683,-44 798,-44 798,-14 683,-14"/>
<text text-anchor="start" x="691" y="-32" font-family="Helvetica,sans-Serif" font-size="10.00" fill="#000000">PDI::Expression::Impl</text>
<text text-anchor="middle" x="740.5" y="-21" font-family="Helvetica,sans-Serif" font-size="10.00" fill="#000000">::parse_term</text>
</a>
</g>
</g>
<!-- Node11&#45;&gt;Node12 -->
<g id="edge2" class="edge">
<title>Node11&#45;&gt;Node12</title>
<path fill="none" stroke="#191970" d="M626.7839,-84.8878C633.5479,-82.0188 640.5123,-78.9801 647,-76 665.5269,-67.4898 685.7776,-57.4093 702.6807,-48.7705"/>
<polygon fill="#191970" stroke="#191970" points="704.4,-51.8221 711.6948,-44.1386 701.2007,-45.596 704.4,-51.8221"/>
</g>
<!-- Node13 -->
<g id="node4" class="node">
<title>Node13</title>
<g id="a_node4"><a xlink:href="structPDI_1_1Expression_1_1Impl_1_1Int__literal.html#adece4188b33ff22d6561cf94f94d5231" target="_top" xlink:title="PDI::Expression::Impl\l::Int_literal::parse">
<polygon fill="#ffffff" stroke="#000000" points="683,-85 683,-115 798,-115 798,-85 683,-85"/>
<text text-anchor="start" x="691" y="-103" font-family="Helvetica,sans-Serif" font-size="10.00" fill="#000000">PDI::Expression::Impl</text>
<text text-anchor="middle" x="740.5" y="-92" font-family="Helvetica,sans-Serif" font-size="10.00" fill="#000000">::Int_literal::parse</text>
</a>
</g>
</g>
<!-- Node11&#45;&gt;Node13 -->
<g id="edge3" class="edge">
<title>Node11&#45;&gt;Node13</title>
<path fill="none" stroke="#191970" d="M647.0174,-100C655.4639,-100 664.2292,-100 672.8561,-100"/>
<polygon fill="#191970" stroke="#191970" points="672.8926,-103.5001 682.8925,-100 672.8925,-96.5001 672.8926,-103.5001"/>
</g>
<!-- Node14&#45;&gt;Node12 -->
<g id="edge5" class="edge">
<title>Node14&#45;&gt;Node12</title>
<path fill="none" stroke="#191970" d="M302.4007,-38.9954C322.2247,-33.0527 346.0261,-26.9427 368,-24 473.6115,-9.8567 597.566,-15.9883 672.5131,-22.1564"/>
<polygon fill="#191970" stroke="#191970" points="672.4963,-25.6674 682.7562,-23.0248 673.0877,-18.6924 672.4963,-25.6674"/>
</g>
<!-- Node15 -->
<g id="node6" class="node">
<title>Node15</title>
<g id="a_node6"><a xlink:href="structPDI_1_1Expression_1_1Impl_1_1Reference__expression.html#a1e35e94523d137348848fb2fdb287216" target="_top" xlink:title="PDI::Expression::Impl\l::Reference_expression\l::parse">
<polygon fill="#ffffff" stroke="#000000" points="368,-33.5 368,-74.5 496,-74.5 496,-33.5 368,-33.5"/>
<text text-anchor="start" x="376" y="-62.5" font-family="Helvetica,sans-Serif" font-size="10.00" fill="#000000">PDI::Expression::Impl</text>
<text text-anchor="start" x="376" y="-51.5" font-family="Helvetica,sans-Serif" font-size="10.00" fill="#000000">::Reference_expression</text>
<text text-anchor="middle" x="432" y="-40.5" font-family="Helvetica,sans-Serif" font-size="10.00" fill="#000000">::parse</text>
</a>
</g>
</g>
<!-- Node14&#45;&gt;Node15 -->
<g id="edge6" class="edge">
<title>Node14&#45;&gt;Node15</title>
<path fill="none" stroke="#191970" d="M315.9395,-54C329.3042,-54 343.7026,-54 357.6572,-54"/>
<polygon fill="#191970" stroke="#191970" points="357.7187,-57.5001 367.7186,-54 357.7186,-50.5001 357.7187,-57.5001"/>
</g>
<!-- Node15&#45;&gt;Node11 -->
<g id="edge8" class="edge">
<title>Node15&#45;&gt;Node11</title>
<path fill="none" stroke="#191970" d="M496.0613,-72.71C506.6458,-75.8013 517.5973,-78.9998 528.114,-82.0714"/>
<polygon fill="#191970" stroke="#191970" points="527.4574,-85.5258 538.0376,-84.9697 529.4199,-78.8065 527.4574,-85.5258"/>
</g>
<!-- Node16 -->
<g id="node7" class="node">
<title>Node16</title>
<g id="a_node7"><a xlink:href="structPDI_1_1Expression_1_1Impl.html#a4df2c86a5deaf2ad3670ab249203c5f8" target="_top" xlink:title="PDI::Expression::Impl\l::parse_id">
<polygon fill="#ffffff" stroke="#000000" points="532,-36 532,-66 647,-66 647,-36 532,-36"/>
<text text-anchor="start" x="540" y="-54" font-family="Helvetica,sans-Serif" font-size="10.00" fill="#000000">PDI::Expression::Impl</text>
<text text-anchor="middle" x="589.5" y="-43" font-family="Helvetica,sans-Serif" font-size="10.00" fill="#000000">::parse_id</text>
</a>
</g>
</g>
<!-- Node15&#45;&gt;Node16 -->
<g id="edge7" class="edge">
<title>Node15&#45;&gt;Node16</title>
<path fill="none" stroke="#191970" d="M496.0613,-52.7798C504.4774,-52.6195 513.1255,-52.4548 521.6026,-52.2933"/>
<polygon fill="#191970" stroke="#191970" points="521.8994,-55.7884 531.8309,-52.0985 521.766,-48.7896 521.8994,-55.7884"/>
</g>
</g>
</svg>
