<?xml version="1.0" encoding="UTF-8" standalone="no"?>
<!DOCTYPE svg PUBLIC "-//W3C//DTD SVG 1.1//EN"
 "http://www.w3.org/Graphics/SVG/1.1/DTD/svg11.dtd">
<!-- Generated by graphviz version 2.40.1 (20161225.0304)
 -->
<!-- Title: PDI::Data_descriptor_impl::release Pages: 1 -->
<svg width="422pt" height="116pt"
 viewBox="0.00 0.00 422.00 115.50" xmlns="http://www.w3.org/2000/svg" xmlns:xlink="http://www.w3.org/1999/xlink">
<g id="graph0" class="graph" transform="scale(1 1) rotate(0) translate(4 111.5)">
<title>PDI::Data_descriptor_impl::release</title>
<polygon fill="#ffffff" stroke="transparent" points="-4,4 -4,-111.5 418,-111.5 418,4 -4,4"/>
<!-- Node55 -->
<g id="node1" class="node">
<title>Node55</title>
<polygon fill="#bfbfbf" stroke="#000000" points="0,-55 0,-85 114,-85 114,-55 0,-55"/>
<text text-anchor="start" x="8" y="-73" font-family="Helvetica,sans-Serif" font-size="10.00" fill="#000000">PDI::Data_descriptor</text>
<text text-anchor="middle" x="57" y="-62" font-family="Helvetica,sans-Serif" font-size="10.00" fill="#000000">_impl::release</text>
</g>
<!-- Node56 -->
<g id="node2" class="node">
<title>Node56</title>
<g id="a_node2"><a xlink:href="classPDI_1_1Data__descriptor__impl.html#a00fee097289f95d6120342e7242951cd" target="_top" xlink:title="PDI::Data_descriptor\l_impl::metadata">
<polygon fill="#ffffff" stroke="#000000" points="300,-77 300,-107 414,-107 414,-77 300,-77"/>
<text text-anchor="start" x="308" y="-95" font-family="Helvetica,sans-Serif" font-size="10.00" fill="#000000">PDI::Data_descriptor</text>
<text text-anchor="middle" x="357" y="-84" font-family="Helvetica,sans-Serif" font-size="10.00" fill="#000000">_impl::metadata</text>
</a>
</g>
</g>
<!-- Node55&#45;&gt;Node56 -->
<g id="edge1" class="edge">
<title>Node55&#45;&gt;Node56</title>
<path fill="none" stroke="#191970" d="M114.1338,-74.1898C164.0992,-77.8539 236.7293,-83.1801 289.5389,-87.0529"/>
<polygon fill="#191970" stroke="#191970" points="289.5948,-90.5663 299.824,-87.8071 290.1068,-83.585 289.5948,-90.5663"/>
</g>
<!-- Node57 -->
<g id="node3" class="node">
<title>Node57</title>
<g id="a_node3"><a xlink:href="classPDI_1_1Data__descriptor__impl.html#adb5530d2a46c093c6cc03a8ed1d45fd7" target="_top" xlink:title="PDI::Data_descriptor\l_impl::ref">
<polygon fill="#ffffff" stroke="#000000" points="150,-33 150,-63 264,-63 264,-33 150,-33"/>
<text text-anchor="start" x="158" y="-51" font-family="Helvetica,sans-Serif" font-size="10.00" fill="#000000">PDI::Data_descriptor</text>
<text text-anchor="middle" x="207" y="-40" font-family="Helvetica,sans-Serif" font-size="10.00" fill="#000000">_impl::ref</text>
</a>
</g>
</g>
<!-- Node55&#45;&gt;Node57 -->
<g id="edge2" class="edge">
<title>Node55&#45;&gt;Node57</title>
<path fill="none" stroke="#191970" d="M114.1365,-61.62C122.4675,-60.3981 131.1108,-59.1304 139.6217,-57.8821"/>
<polygon fill="#191970" stroke="#191970" points="140.1393,-61.3438 149.5255,-56.4296 139.1234,-54.4179 140.1393,-61.3438"/>
</g>
<!-- Node57&#45;&gt;Node56 -->
<g id="edge3" class="edge">
<title>Node57&#45;&gt;Node56</title>
<path fill="none" stroke="#191970" d="M258.202,-63.0192C270.3232,-66.5748 283.3697,-70.4018 295.882,-74.0721"/>
<polygon fill="#191970" stroke="#191970" points="295.1934,-77.5175 305.7743,-76.9738 297.1638,-70.8005 295.1934,-77.5175"/>
</g>
<!-- Node58 -->
<g id="node4" class="node">
<title>Node58</title>
<g id="a_node4"><a xlink:href="classPDI_1_1Error.html#a96f2da1344848f7862d6d4227ba7c82a" target="_top" xlink:title="PDI::Error::status">
<polygon fill="#ffffff" stroke="#000000" points="309.5,-38.5 309.5,-57.5 404.5,-57.5 404.5,-38.5 309.5,-38.5"/>
<text text-anchor="middle" x="357" y="-45.5" font-family="Helvetica,sans-Serif" font-size="10.00" fill="#000000">PDI::Error::status</text>
</a>
</g>
</g>
<!-- Node57&#45;&gt;Node58 -->
<g id="edge4" class="edge">
<title>Node57&#45;&gt;Node58</title>
<path fill="none" stroke="#191970" d="M264.1365,-48C275.5464,-48 287.5419,-48 298.9812,-48"/>
<polygon fill="#191970" stroke="#191970" points="299.2976,-51.5001 309.2975,-48 299.2975,-44.5001 299.2976,-51.5001"/>
</g>
<!-- Node59 -->
<g id="node5" class="node">
<title>Node59</title>
<g id="a_node5"><a xlink:href="classPDI_1_1Error.html#aca3b34b8350235c8455bfe56236c4454" target="_top" xlink:title="PDI::Error::what">
<polygon fill="#ffffff" stroke="#000000" points="312.5,-.5 312.5,-19.5 401.5,-19.5 401.5,-.5 312.5,-.5"/>
<text text-anchor="middle" x="357" y="-7.5" font-family="Helvetica,sans-Serif" font-size="10.00" fill="#000000">PDI::Error::what</text>
</a>
</g>
</g>
<!-- Node57&#45;&gt;Node59 -->
<g id="edge5" class="edge">
<title>Node57&#45;&gt;Node59</title>
<path fill="none" stroke="#191970" d="M264.1365,-33.5254C278.9266,-29.7786 294.7009,-25.7824 308.972,-22.1671"/>
<polygon fill="#191970" stroke="#191970" points="310.2281,-25.4595 319.0624,-19.6109 308.509,-18.6739 310.2281,-25.4595"/>
</g>
</g>
</svg>
