<?xml version="1.0" encoding="UTF-8" standalone="no"?>
<!DOCTYPE svg PUBLIC "-//W3C//DTD SVG 1.1//EN"
 "http://www.w3.org/Graphics/SVG/1.1/DTD/svg11.dtd">
<!-- Generated by graphviz version 2.40.1 (20161225.0304)
 -->
<!-- Title: PDI::Ref_base::type Pages: 1 -->
<svg width="434pt" height="66pt"
 viewBox="0.00 0.00 434.00 66.00" xmlns="http://www.w3.org/2000/svg" xmlns:xlink="http://www.w3.org/1999/xlink">
<g id="graph0" class="graph" transform="scale(1 1) rotate(0) translate(4 62)">
<title>PDI::Ref_base::type</title>
<polygon fill="#ffffff" stroke="transparent" points="-4,4 -4,-62 430,-62 430,4 -4,4"/>
<!-- Node21 -->
<g id="node1" class="node">
<title>Node21</title>
<polygon fill="#bfbfbf" stroke="#000000" points="0,-19.5 0,-38.5 108,-38.5 108,-19.5 0,-19.5"/>
<text text-anchor="middle" x="54" y="-26.5" font-family="Helvetica,sans-Serif" font-size="10.00" fill="#000000">PDI::Ref_base::type</text>
</g>
<!-- Node22 -->
<g id="node2" class="node">
<title>Node22</title>
<g id="a_node2"><a xlink:href="namespacePDI.html#aa0743bfc1fbd24c7a617fd1e312962ad" target="_top" xlink:title="PDI::to_python">
<polygon fill="#ffffff" stroke="#000000" points="165,-38.5 165,-57.5 251,-57.5 251,-38.5 165,-38.5"/>
<text text-anchor="middle" x="208" y="-45.5" font-family="Helvetica,sans-Serif" font-size="10.00" fill="#000000">PDI::to_python</text>
</a>
</g>
</g>
<!-- Node21&#45;&gt;Node22 -->
<g id="edge1" class="edge">
<title>Node21&#45;&gt;Node22</title>
<path fill="none" stroke="#191970" d="M118.4429,-36.9507C134.0844,-38.8805 150.4363,-40.898 164.8224,-42.6729"/>
<polygon fill="#191970" stroke="#191970" points="118.648,-33.4496 108.2946,-35.6987 117.7908,-40.3969 118.648,-33.4496"/>
</g>
<!-- Node24 -->
<g id="node4" class="node">
<title>Node24</title>
<g id="a_node4"><a xlink:href="classPDI_1_1Ref__base.html#ac096ceaa80d0946c9c9f2044d2306f65" target="_top" xlink:title="PDI::Ref_base::do_copy">
<polygon fill="#ffffff" stroke="#000000" points="144,-.5 144,-19.5 272,-19.5 272,-.5 144,-.5"/>
<text text-anchor="middle" x="208" y="-7.5" font-family="Helvetica,sans-Serif" font-size="10.00" fill="#000000">PDI::Ref_base::do_copy</text>
</a>
</g>
</g>
<!-- Node21&#45;&gt;Node24 -->
<g id="edge3" class="edge">
<title>Node21&#45;&gt;Node24</title>
<path fill="none" stroke="#191970" d="M118.4408,-21.0495C126.8657,-20.0101 135.4968,-18.9452 143.9158,-17.9065"/>
<polygon fill="#191970" stroke="#191970" points="117.7908,-17.6031 108.2946,-22.3013 118.648,-24.5504 117.7908,-17.6031"/>
</g>
<!-- Node23 -->
<g id="node3" class="node">
<title>Node23</title>
<g id="a_node3"><a xlink:href="python_2pdi_8cxx.html#a727b802ea287c6ae55678b2643aa61b6" target="_top" xlink:title="PYBIND11_MODULE">
<polygon fill="#ffffff" stroke="#000000" points="308,-38.5 308,-57.5 426,-57.5 426,-38.5 308,-38.5"/>
<text text-anchor="middle" x="367" y="-45.5" font-family="Helvetica,sans-Serif" font-size="10.00" fill="#000000">PYBIND11_MODULE</text>
</a>
</g>
</g>
<!-- Node22&#45;&gt;Node23 -->
<g id="edge2" class="edge">
<title>Node22&#45;&gt;Node23</title>
<path fill="none" stroke="#191970" d="M261.143,-48C276.1229,-48 292.5107,-48 307.8208,-48"/>
<polygon fill="#191970" stroke="#191970" points="261.0277,-44.5001 251.0277,-48 261.0277,-51.5001 261.0277,-44.5001"/>
</g>
</g>
</svg>
