<?xml version="1.0" encoding="UTF-8" standalone="no"?>
<!DOCTYPE svg PUBLIC "-//W3C//DTD SVG 1.1//EN"
 "http://www.w3.org/Graphics/SVG/1.1/DTD/svg11.dtd">
<!-- Generated by graphviz version 2.40.1 (20161225.0304)
 -->
<!-- Title: PDI::Global_context::logger Pages: 1 -->
<svg width="305pt" height="165pt"
 viewBox="0.00 0.00 305.00 164.50" xmlns="http://www.w3.org/2000/svg" xmlns:xlink="http://www.w3.org/1999/xlink">
<g id="graph0" class="graph" transform="scale(1 1) rotate(0) translate(4 160.5)">
<title>PDI::Global_context::logger</title>
<polygon fill="#ffffff" stroke="transparent" points="-4,4 -4,-160.5 301,-160.5 301,4 -4,4"/>
<!-- Node66 -->
<g id="node1" class="node">
<title>Node66</title>
<polygon fill="#bfbfbf" stroke="#000000" points="0,-55 0,-85 109,-85 109,-55 0,-55"/>
<text text-anchor="start" x="8" y="-73" font-family="Helvetica,sans-Serif" font-size="10.00" fill="#000000">PDI::Global_context</text>
<text text-anchor="middle" x="54.5" y="-62" font-family="Helvetica,sans-Serif" font-size="10.00" fill="#000000">::logger</text>
</g>
<!-- Node67 -->
<g id="node2" class="node">
<title>Node67</title>
<g id="a_node2"><a xlink:href="classPDI_1_1Data__descriptor__impl.html#a2cf21a84e04ad98ecef668c4986a47e4" target="_top" xlink:title="PDI::Data_descriptor\l_impl::~Data_descriptor_impl">
<polygon fill="#ffffff" stroke="#000000" points="145,-126 145,-156 297,-156 297,-126 145,-126"/>
<text text-anchor="start" x="153" y="-144" font-family="Helvetica,sans-Serif" font-size="10.00" fill="#000000">PDI::Data_descriptor</text>
<text text-anchor="middle" x="221" y="-133" font-family="Helvetica,sans-Serif" font-size="10.00" fill="#000000">_impl::~Data_descriptor_impl</text>
</a>
</g>
</g>
<!-- Node66&#45;&gt;Node67 -->
<g id="edge1" class="edge">
<title>Node66&#45;&gt;Node67</title>
<path fill="none" stroke="#191970" d="M89.2438,-89.8428C105.8062,-98.832 126.0907,-109.1733 145,-117 152.6709,-120.175 160.9209,-123.1801 169.0571,-125.9206"/>
<polygon fill="#191970" stroke="#191970" points="90.9069,-86.7631 80.4577,-85.0124 87.5345,-92.8972 90.9069,-86.7631"/>
</g>
<!-- Node68 -->
<g id="node3" class="node">
<title>Node68</title>
<g id="a_node3"><a xlink:href="classPDI_1_1Global__context.html#a1f3e6d548f1663a45febb56d9c116430" target="_top" xlink:title="PDI::Global_context\l::datatype">
<polygon fill="#ffffff" stroke="#000000" points="166.5,-77 166.5,-107 275.5,-107 275.5,-77 166.5,-77"/>
<text text-anchor="start" x="174.5" y="-95" font-family="Helvetica,sans-Serif" font-size="10.00" fill="#000000">PDI::Global_context</text>
<text text-anchor="middle" x="221" y="-84" font-family="Helvetica,sans-Serif" font-size="10.00" fill="#000000">::datatype</text>
</a>
</g>
</g>
<!-- Node66&#45;&gt;Node68 -->
<g id="edge2" class="edge">
<title>Node66&#45;&gt;Node68</title>
<path fill="none" stroke="#191970" d="M119.1186,-78.5382C134.7279,-80.6007 151.2584,-82.7849 166.3592,-84.7802"/>
<polygon fill="#191970" stroke="#191970" points="119.3907,-75.0438 109.0183,-77.2036 118.4737,-81.9835 119.3907,-75.0438"/>
</g>
<!-- Node69 -->
<g id="node4" class="node">
<title>Node69</title>
<g id="a_node4"><a xlink:href="pdi_8cxx.html#a3dc660be40c93c169337e3d2692b2ed0" target="_top" xlink:title="Initialization / Finalization stuff. ">
<polygon fill="#ffffff" stroke="#000000" points="194.5,-38.5 194.5,-57.5 247.5,-57.5 247.5,-38.5 194.5,-38.5"/>
<text text-anchor="middle" x="221" y="-45.5" font-family="Helvetica,sans-Serif" font-size="10.00" fill="#000000">PDI_init</text>
</a>
</g>
</g>
<!-- Node66&#45;&gt;Node69 -->
<g id="edge3" class="edge">
<title>Node66&#45;&gt;Node69</title>
<path fill="none" stroke="#191970" d="M119.275,-61.4411C145.4357,-57.9845 174.1597,-54.1891 194.3931,-51.5156"/>
<polygon fill="#191970" stroke="#191970" points="118.4737,-58.0165 109.0183,-62.7964 119.3907,-64.9562 118.4737,-58.0165"/>
</g>
<!-- Node70 -->
<g id="node5" class="node">
<title>Node70</title>
<g id="a_node5"><a xlink:href="pdi_8cxx.html#a53d83851dcb286b25c8f7061d00d997b" target="_top" xlink:title="PDI_finalize">
<polygon fill="#ffffff" stroke="#000000" points="184.5,-.5 184.5,-19.5 257.5,-19.5 257.5,-.5 184.5,-.5"/>
<text text-anchor="middle" x="221" y="-7.5" font-family="Helvetica,sans-Serif" font-size="10.00" fill="#000000">PDI_finalize</text>
</a>
</g>
</g>
<!-- Node66&#45;&gt;Node70 -->
<g id="edge4" class="edge">
<title>Node66&#45;&gt;Node70</title>
<path fill="none" stroke="#191970" d="M93.5172,-50.4614C109.2499,-43.0773 127.7335,-35.0143 145,-29 157.5868,-24.6158 171.6743,-20.8038 184.269,-17.7685"/>
<polygon fill="#191970" stroke="#191970" points="91.6317,-47.4829 84.1125,-54.9469 94.6452,-53.8011 91.6317,-47.4829"/>
</g>
</g>
</svg>
