<?xml version="1.0" encoding="UTF-8" standalone="no"?>
<!DOCTYPE svg PUBLIC "-//W3C//DTD SVG 1.1//EN"
 "http://www.w3.org/Graphics/SVG/1.1/DTD/svg11.dtd">
<!-- Generated by graphviz version 2.40.1 (20161225.0304)
 -->
<!-- Title: PDI::Error Pages: 1 -->
<svg width="155pt" height="204pt"
 viewBox="0.00 0.00 154.50 204.00" xmlns="http://www.w3.org/2000/svg" xmlns:xlink="http://www.w3.org/1999/xlink">
<g id="graph0" class="graph" transform="scale(1 1) rotate(0) translate(4 200)">
<title>PDI::Error</title>
<polygon fill="#ffffff" stroke="transparent" points="-4,4 -4,-200 150.5,-200 150.5,4 -4,4"/>
<!-- Node2 -->
<g id="node1" class="node">
<title>Node2</title>
<polygon fill="#bfbfbf" stroke="#000000" points="48,-.5 48,-90.5 113,-90.5 113,-.5 48,-.5"/>
<text text-anchor="middle" x="80.5" y="-78.5" font-family="Helvetica,sans-Serif" font-size="10.00" fill="#000000">PDI::Error</text>
<polyline fill="none" stroke="#000000" points="48,-71.5 113,-71.5 "/>
<text text-anchor="start" x="56" y="-59.5" font-family="Helvetica,sans-Serif" font-size="10.00" fill="#000000">&#45; m_status</text>
<polyline fill="none" stroke="#000000" points="48,-52.5 113,-52.5 "/>
<text text-anchor="start" x="56" y="-40.5" font-family="Helvetica,sans-Serif" font-size="10.00" fill="#000000">+ Error()</text>
<text text-anchor="start" x="56" y="-29.5" font-family="Helvetica,sans-Serif" font-size="10.00" fill="#000000">+ Error()</text>
<text text-anchor="start" x="56" y="-18.5" font-family="Helvetica,sans-Serif" font-size="10.00" fill="#000000">+ what()</text>
<text text-anchor="start" x="56" y="-7.5" font-family="Helvetica,sans-Serif" font-size="10.00" fill="#000000">+ status()</text>
</g>
<!-- Node3 -->
<g id="node2" class="node">
<title>Node3</title>
<polygon fill="#ffffff" stroke="#bfbfbf" points="0,-138.5 0,-195.5 81,-195.5 81,-138.5 0,-138.5"/>
<text text-anchor="middle" x="40.5" y="-183.5" font-family="Helvetica,sans-Serif" font-size="10.00" fill="#000000">std::exception</text>
<polyline fill="none" stroke="#bfbfbf" points="0,-176.5 81,-176.5 "/>
<text text-anchor="middle" x="40.5" y="-164.5" font-family="Helvetica,sans-Serif" font-size="10.00" fill="#000000"> </text>
<polyline fill="none" stroke="#bfbfbf" points="0,-157.5 81,-157.5 "/>
<text text-anchor="middle" x="40.5" y="-145.5" font-family="Helvetica,sans-Serif" font-size="10.00" fill="#000000"> </text>
</g>
<!-- Node3&#45;&gt;Node2 -->
<g id="edge1" class="edge">
<title>Node3&#45;&gt;Node2</title>
<path fill="none" stroke="#191970" d="M53.1789,-128.4878C57.1313,-116.4825 61.5262,-103.133 65.6152,-90.7124"/>
<polygon fill="none" stroke="#191970" points="49.7821,-127.6132 49.9794,-138.2062 56.4311,-129.8022 49.7821,-127.6132"/>
</g>
<!-- Node4 -->
<g id="node3" class="node">
<title>Node4</title>
<polygon fill="#ffffff" stroke="#bfbfbf" points="99,-138.5 99,-195.5 142,-195.5 142,-138.5 99,-138.5"/>
<text text-anchor="middle" x="120.5" y="-183.5" font-family="Helvetica,sans-Serif" font-size="10.00" fill="#000000">string</text>
<polyline fill="none" stroke="#bfbfbf" points="99,-176.5 142,-176.5 "/>
<text text-anchor="middle" x="120.5" y="-164.5" font-family="Helvetica,sans-Serif" font-size="10.00" fill="#000000"> </text>
<polyline fill="none" stroke="#bfbfbf" points="99,-157.5 142,-157.5 "/>
<text text-anchor="middle" x="120.5" y="-145.5" font-family="Helvetica,sans-Serif" font-size="10.00" fill="#000000"> </text>
</g>
<!-- Node4&#45;&gt;Node2 -->
<g id="edge2" class="edge">
<title>Node4&#45;&gt;Node2</title>
<path fill="none" stroke="#404040" d="M111.0206,-138.2062C107.4841,-127.4641 103.334,-114.8583 99.2535,-102.4636"/>
<polygon fill="none" stroke="#404040" points="99.1373,-102.1106 93.4616,-97.6624 95.3848,-90.7124 101.0604,-95.1607 99.1373,-102.1106"/>
<text text-anchor="middle" x="125" y="-112" font-family="Helvetica,sans-Serif" font-size="10.00" fill="#000000"> &#45;m_what</text>
</g>
</g>
</svg>
