<?xml version="1.0" encoding="UTF-8" standalone="no"?>
<!DOCTYPE svg PUBLIC "-//W3C//DTD SVG 1.1//EN"
 "http://www.w3.org/Graphics/SVG/1.1/DTD/svg11.dtd">
<!-- Generated by graphviz version 2.40.1 (20161225.0304)
 -->
<!-- Title: PDI::Context::Iterator::operator!= Pages: 1 -->
<svg width="292pt" height="66pt"
 viewBox="0.00 0.00 292.00 66.00" xmlns="http://www.w3.org/2000/svg" xmlns:xlink="http://www.w3.org/1999/xlink">
<g id="graph0" class="graph" transform="scale(1 1) rotate(0) translate(4 62)">
<title>PDI::Context::Iterator::operator!=</title>
<polygon fill="#ffffff" stroke="transparent" points="-4,4 -4,-62 288,-62 288,4 -4,4"/>
<!-- Node4 -->
<g id="node1" class="node">
<title>Node4</title>
<polygon fill="#bfbfbf" stroke="#000000" points="0,-14 0,-44 114,-44 114,-14 0,-14"/>
<text text-anchor="start" x="8" y="-32" font-family="Helvetica,sans-Serif" font-size="10.00" fill="#000000">PDI::Context::Iterator</text>
<text text-anchor="middle" x="57" y="-21" font-family="Helvetica,sans-Serif" font-size="10.00" fill="#000000">::operator!=</text>
</g>
<!-- Node5 -->
<g id="node2" class="node">
<title>Node5</title>
<g id="a_node2"><a xlink:href="classPDI_1_1Context.html#a128400c36b4d57f4594abbf8d3aefd5e" target="_top" xlink:title="PDI::Context::get_iterator">
<polygon fill="#ffffff" stroke="#000000" points="150,-38.5 150,-57.5 284,-57.5 284,-38.5 150,-38.5"/>
<text text-anchor="middle" x="217" y="-45.5" font-family="Helvetica,sans-Serif" font-size="10.00" fill="#000000">PDI::Context::get_iterator</text>
</a>
</g>
</g>
<!-- Node4&#45;&gt;Node5 -->
<g id="edge1" class="edge">
<title>Node4&#45;&gt;Node5</title>
<path fill="none" stroke="#191970" d="M114.3117,-35.8058C122.5613,-36.7854 131.1617,-37.8067 139.7205,-38.8231"/>
<polygon fill="#191970" stroke="#191970" points="139.3822,-42.3074 149.7252,-40.0111 140.2077,-35.3562 139.3822,-42.3074"/>
</g>
<!-- Node6 -->
<g id="node3" class="node">
<title>Node6</title>
<g id="a_node3"><a xlink:href="classPDI_1_1Context.html#a62de48cb0b693bf13c88918ddc92fa9b" target="_top" xlink:title="PDI::Context::~Context">
<polygon fill="#ffffff" stroke="#000000" points="156,-.5 156,-19.5 278,-19.5 278,-.5 156,-.5"/>
<text text-anchor="middle" x="217" y="-7.5" font-family="Helvetica,sans-Serif" font-size="10.00" fill="#000000">PDI::Context::~Context</text>
</a>
</g>
</g>
<!-- Node4&#45;&gt;Node6 -->
<g id="edge2" class="edge">
<title>Node4&#45;&gt;Node6</title>
<path fill="none" stroke="#191970" d="M114.3117,-22.1942C124.5045,-20.9838 135.233,-19.7098 145.7569,-18.4601"/>
<polygon fill="#191970" stroke="#191970" points="146.2425,-21.9271 155.7599,-17.2723 145.4169,-14.976 146.2425,-21.9271"/>
</g>
</g>
</svg>
