<?xml version="1.0" encoding="UTF-8" standalone="no"?>
<!DOCTYPE svg PUBLIC "-//W3C//DTD SVG 1.1//EN"
 "http://www.w3.org/Graphics/SVG/1.1/DTD/svg11.dtd">
<!-- Generated by graphviz version 2.40.1 (20161225.0304)
 -->
<!-- Title: PDI::Record_datatype::debug_string Pages: 1 -->
<svg width="440pt" height="210pt"
 viewBox="0.00 0.00 440.00 210.00" xmlns="http://www.w3.org/2000/svg" xmlns:xlink="http://www.w3.org/1999/xlink">
<g id="graph0" class="graph" transform="scale(1 1) rotate(0) translate(4 206)">
<title>PDI::Record_datatype::debug_string</title>
<polygon fill="#ffffff" stroke="transparent" points="-4,4 -4,-206 436,-206 436,4 -4,4"/>
<!-- Node42 -->
<g id="node1" class="node">
<title>Node42</title>
<polygon fill="#bfbfbf" stroke="#000000" points="0,-93.5 0,-123.5 120,-123.5 120,-93.5 0,-93.5"/>
<text text-anchor="start" x="8" y="-111.5" font-family="Helvetica,sans-Serif" font-size="10.00" fill="#000000">PDI::Record_datatype</text>
<text text-anchor="middle" x="60" y="-100.5" font-family="Helvetica,sans-Serif" font-size="10.00" fill="#000000">::debug_string</text>
</g>
<!-- Node43 -->
<g id="node2" class="node">
<title>Node43</title>
<g id="a_node2"><a xlink:href="classPDI_1_1Record__datatype.html#ab5211f58ddcfbbb88243259182db1271" target="_top" xlink:title="PDI::Record_datatype\l::dense">
<polygon fill="#ffffff" stroke="#000000" points="156,-137.5 156,-167.5 276,-167.5 276,-137.5 156,-137.5"/>
<text text-anchor="start" x="164" y="-155.5" font-family="Helvetica,sans-Serif" font-size="10.00" fill="#000000">PDI::Record_datatype</text>
<text text-anchor="middle" x="216" y="-144.5" font-family="Helvetica,sans-Serif" font-size="10.00" fill="#000000">::dense</text>
</a>
</g>
</g>
<!-- Node42&#45;&gt;Node43 -->
<g id="edge1" class="edge">
<title>Node42&#45;&gt;Node43</title>
<path fill="none" stroke="#191970" d="M113.25,-123.5192C125.981,-127.11 139.6933,-130.9776 152.8237,-134.681"/>
<polygon fill="#191970" stroke="#191970" points="152.1506,-138.1277 162.7253,-137.4738 154.0509,-131.3905 152.1506,-138.1277"/>
</g>
<!-- Node44 -->
<g id="node3" class="node">
<title>Node44</title>
<g id="a_node3"><a xlink:href="classPDI_1_1Record__datatype.html#a359deae4113398d9bf252b81be2fa282" target="_top" xlink:title="PDI::Record_datatype\l::alignment">
<polygon fill="#ffffff" stroke="#000000" points="312,-171.5 312,-201.5 432,-201.5 432,-171.5 312,-171.5"/>
<text text-anchor="start" x="320" y="-189.5" font-family="Helvetica,sans-Serif" font-size="10.00" fill="#000000">PDI::Record_datatype</text>
<text text-anchor="middle" x="372" y="-178.5" font-family="Helvetica,sans-Serif" font-size="10.00" fill="#000000">::alignment</text>
</a>
</g>
</g>
<!-- Node42&#45;&gt;Node44 -->
<g id="edge6" class="edge">
<title>Node42&#45;&gt;Node44</title>
<path fill="none" stroke="#191970" d="M74.9932,-123.6645C92.6186,-140.3594 123.5996,-166.3144 156,-177.5 202.6395,-193.6014 258.3381,-195.5394 301.4928,-193.6143"/>
<polygon fill="#191970" stroke="#191970" points="301.8163,-197.1023 311.6188,-193.0822 301.4488,-190.1119 301.8163,-197.1023"/>
</g>
<!-- Node45 -->
<g id="node4" class="node">
<title>Node45</title>
<g id="a_node4"><a xlink:href="classPDI_1_1Record__datatype.html#aed94e24402cada695d056a4aea0e258e" target="_top" xlink:title="PDI::Record_datatype\l::buffersize">
<polygon fill="#ffffff" stroke="#000000" points="312,-112.5 312,-142.5 432,-142.5 432,-112.5 312,-112.5"/>
<text text-anchor="start" x="320" y="-130.5" font-family="Helvetica,sans-Serif" font-size="10.00" fill="#000000">PDI::Record_datatype</text>
<text text-anchor="middle" x="372" y="-119.5" font-family="Helvetica,sans-Serif" font-size="10.00" fill="#000000">::buffersize</text>
</a>
</g>
</g>
<!-- Node42&#45;&gt;Node45 -->
<g id="edge4" class="edge">
<title>Node42&#45;&gt;Node45</title>
<path fill="none" stroke="#191970" d="M120.1567,-112.1634C171.9766,-115.3191 246.8328,-119.8776 301.4634,-123.2045"/>
<polygon fill="#191970" stroke="#191970" points="301.5681,-126.7173 311.7624,-123.8317 301.9937,-119.7302 301.5681,-126.7173"/>
</g>
<!-- Node46 -->
<g id="node5" class="node">
<title>Node46</title>
<g id="a_node5"><a xlink:href="classPDI_1_1Record__datatype.html#aa0e39bbe49abdbc4d6e806e148bbef30" target="_top" xlink:title="PDI::Record_datatype\l::datasize">
<polygon fill="#ffffff" stroke="#000000" points="156,-49.5 156,-79.5 276,-79.5 276,-49.5 156,-49.5"/>
<text text-anchor="start" x="164" y="-67.5" font-family="Helvetica,sans-Serif" font-size="10.00" fill="#000000">PDI::Record_datatype</text>
<text text-anchor="middle" x="216" y="-56.5" font-family="Helvetica,sans-Serif" font-size="10.00" fill="#000000">::datasize</text>
</a>
</g>
</g>
<!-- Node42&#45;&gt;Node46 -->
<g id="edge5" class="edge">
<title>Node42&#45;&gt;Node46</title>
<path fill="none" stroke="#191970" d="M113.25,-93.4808C125.981,-89.89 139.6933,-86.0224 152.8237,-82.319"/>
<polygon fill="#191970" stroke="#191970" points="154.0509,-85.6095 162.7253,-79.5262 152.1506,-78.8723 154.0509,-85.6095"/>
</g>
<!-- Node47 -->
<g id="node6" class="node">
<title>Node47</title>
<g id="a_node6"><a xlink:href="classPDI_1_1Record__datatype.html#a8fd1085ad804c4b9410a4c3d97be2375" target="_top" xlink:title="PDI::Record_datatype\l::members">
<polygon fill="#ffffff" stroke="#000000" points="156,-.5 156,-30.5 276,-30.5 276,-.5 156,-.5"/>
<text text-anchor="start" x="164" y="-18.5" font-family="Helvetica,sans-Serif" font-size="10.00" fill="#000000">PDI::Record_datatype</text>
<text text-anchor="middle" x="216" y="-7.5" font-family="Helvetica,sans-Serif" font-size="10.00" fill="#000000">::members</text>
</a>
</g>
</g>
<!-- Node42&#45;&gt;Node47 -->
<g id="edge7" class="edge">
<title>Node42&#45;&gt;Node47</title>
<path fill="none" stroke="#191970" d="M78.2289,-93.3326C96.907,-78.3014 127.2093,-55.2978 156,-39.5 158.9015,-37.9079 161.9311,-36.364 165.0206,-34.8784"/>
<polygon fill="#191970" stroke="#191970" points="166.7511,-37.9363 174.4012,-30.6064 163.8499,-31.5658 166.7511,-37.9363"/>
</g>
<!-- Node43&#45;&gt;Node44 -->
<g id="edge2" class="edge">
<title>Node43&#45;&gt;Node44</title>
<path fill="none" stroke="#191970" d="M276.3137,-165.6453C284.6947,-167.4719 293.3632,-169.3612 301.9041,-171.2227"/>
<polygon fill="#191970" stroke="#191970" points="301.3307,-174.6798 311.8467,-173.3897 302.8214,-167.8404 301.3307,-174.6798"/>
</g>
<!-- Node43&#45;&gt;Node45 -->
<g id="edge3" class="edge">
<title>Node43&#45;&gt;Node45</title>
<path fill="none" stroke="#191970" d="M276.3137,-142.8343C284.6947,-141.4912 293.3632,-140.102 301.9041,-138.7333"/>
<polygon fill="#191970" stroke="#191970" points="302.5266,-142.1783 311.8467,-137.1399 301.4189,-135.2665 302.5266,-142.1783"/>
</g>
</g>
</svg>
