<?xml version="1.0" encoding="UTF-8" standalone="no"?>
<!DOCTYPE svg PUBLIC "-//W3C//DTD SVG 1.1//EN"
 "http://www.w3.org/Graphics/SVG/1.1/DTD/svg11.dtd">
<!-- Generated by graphviz version 2.40.1 (20161225.0304)
 -->
<!-- Title: PDI::Global_context::operator[] Pages: 1 -->
<svg width="262pt" height="39pt"
 viewBox="0.00 0.00 262.00 39.00" xmlns="http://www.w3.org/2000/svg" xmlns:xlink="http://www.w3.org/1999/xlink">
<g id="graph0" class="graph" transform="scale(1 1) rotate(0) translate(4 35)">
<title>PDI::Global_context::operator[]</title>
<polygon fill="#ffffff" stroke="transparent" points="-4,4 -4,-35 258,-35 258,4 -4,4"/>
<!-- Node72 -->
<g id="node1" class="node">
<title>Node72</title>
<polygon fill="#bfbfbf" stroke="#000000" points="0,-.5 0,-30.5 109,-30.5 109,-.5 0,-.5"/>
<text text-anchor="start" x="8" y="-18.5" font-family="Helvetica,sans-Serif" font-size="10.00" fill="#000000">PDI::Global_context</text>
<text text-anchor="middle" x="54.5" y="-7.5" font-family="Helvetica,sans-Serif" font-size="10.00" fill="#000000">::operator[]</text>
</g>
<!-- Node73 -->
<g id="node2" class="node">
<title>Node73</title>
<g id="a_node2"><a xlink:href="classPDI_1_1Global__context.html#a3df1caa736e05c5b16e10aab4f2b550d" target="_top" xlink:title="PDI::Global_context\l::operator[]">
<polygon fill="#ffffff" stroke="#000000" points="145,-.5 145,-30.5 254,-30.5 254,-.5 145,-.5"/>
<text text-anchor="start" x="153" y="-18.5" font-family="Helvetica,sans-Serif" font-size="10.00" fill="#000000">PDI::Global_context</text>
<text text-anchor="middle" x="199.5" y="-7.5" font-family="Helvetica,sans-Serif" font-size="10.00" fill="#000000">::operator[]</text>
</a>
</g>
</g>
<!-- Node72&#45;&gt;Node73 -->
<g id="edge1" class="edge">
<title>Node72&#45;&gt;Node73</title>
<path fill="none" stroke="#191970" d="M119.4621,-15.5C127.8588,-15.5 136.3919,-15.5 144.6042,-15.5"/>
<polygon fill="#191970" stroke="#191970" points="119.3183,-12.0001 109.3183,-15.5 119.3182,-19.0001 119.3183,-12.0001"/>
</g>
</g>
</svg>
