<?xml version="1.0" encoding="UTF-8" standalone="no"?>
<!DOCTYPE svg PUBLIC "-//W3C//DTD SVG 1.1//EN"
 "http://www.w3.org/Graphics/SVG/1.1/DTD/svg11.dtd">
<!-- Generated by graphviz version 2.40.1 (20161225.0304)
 -->
<!-- Title: PDI::Scalar_datatype::datasize Pages: 1 -->
<svg width="450pt" height="88pt"
 viewBox="0.00 0.00 450.00 88.00" xmlns="http://www.w3.org/2000/svg" xmlns:xlink="http://www.w3.org/1999/xlink">
<g id="graph0" class="graph" transform="scale(1 1) rotate(0) translate(4 84)">
<title>PDI::Scalar_datatype::datasize</title>
<polygon fill="#ffffff" stroke="transparent" points="-4,4 -4,-84 446,-84 446,4 -4,4"/>
<!-- Node31 -->
<g id="node1" class="node">
<title>Node31</title>
<polygon fill="#bfbfbf" stroke="#000000" points="0,-24.5 0,-54.5 116,-54.5 116,-24.5 0,-24.5"/>
<text text-anchor="start" x="8" y="-42.5" font-family="Helvetica,sans-Serif" font-size="10.00" fill="#000000">PDI::Scalar_datatype</text>
<text text-anchor="middle" x="58" y="-31.5" font-family="Helvetica,sans-Serif" font-size="10.00" fill="#000000">::datasize</text>
</g>
<!-- Node32 -->
<g id="node2" class="node">
<title>Node32</title>
<g id="a_node2"><a xlink:href="classPDI_1_1Scalar__datatype.html#a6c79e2f579e87bd8dca650b75f02e260" target="_top" xlink:title="PDI::Scalar_datatype\l::data_to_dense_copy">
<polygon fill="#ffffff" stroke="#000000" points="152,-49.5 152,-79.5 273,-79.5 273,-49.5 152,-49.5"/>
<text text-anchor="start" x="160" y="-67.5" font-family="Helvetica,sans-Serif" font-size="10.00" fill="#000000">PDI::Scalar_datatype</text>
<text text-anchor="middle" x="212.5" y="-56.5" font-family="Helvetica,sans-Serif" font-size="10.00" fill="#000000">::data_to_dense_copy</text>
</a>
</g>
</g>
<!-- Node31&#45;&gt;Node32 -->
<g id="edge1" class="edge">
<title>Node31&#45;&gt;Node32</title>
<path fill="none" stroke="#191970" d="M126.3339,-50.5573C134.8669,-51.938 143.547,-53.3426 151.9502,-54.7023"/>
<polygon fill="#191970" stroke="#191970" points="126.8405,-47.0938 116.4098,-48.9514 125.7223,-54.0039 126.8405,-47.0938"/>
</g>
<!-- Node34 -->
<g id="node4" class="node">
<title>Node34</title>
<g id="a_node4"><a xlink:href="classPDI_1_1Scalar__datatype.html#a064c8153c626a62ed78db8b6ff4a6435" target="_top" xlink:title="PDI::Scalar_datatype\l::debug_string">
<polygon fill="#ffffff" stroke="#000000" points="154.5,-.5 154.5,-30.5 270.5,-30.5 270.5,-.5 154.5,-.5"/>
<text text-anchor="start" x="162.5" y="-18.5" font-family="Helvetica,sans-Serif" font-size="10.00" fill="#000000">PDI::Scalar_datatype</text>
<text text-anchor="middle" x="212.5" y="-7.5" font-family="Helvetica,sans-Serif" font-size="10.00" fill="#000000">::debug_string</text>
</a>
</g>
</g>
<!-- Node31&#45;&gt;Node34 -->
<g id="edge3" class="edge">
<title>Node31&#45;&gt;Node34</title>
<path fill="none" stroke="#191970" d="M126.4034,-28.8742C135.6998,-27.4301 145.1693,-25.9591 154.2639,-24.5464"/>
<polygon fill="#191970" stroke="#191970" points="125.754,-25.433 116.4098,-30.4266 126.8286,-32.3501 125.754,-25.433"/>
</g>
<!-- Node33 -->
<g id="node3" class="node">
<title>Node33</title>
<g id="a_node3"><a xlink:href="classPDI_1_1Scalar__datatype.html#a0f92cb5110cfe8c8337edc210a7d80e5" target="_top" xlink:title="PDI::Scalar_datatype\l::data_from_dense_copy">
<polygon fill="#ffffff" stroke="#000000" points="309,-49.5 309,-79.5 442,-79.5 442,-49.5 309,-49.5"/>
<text text-anchor="start" x="317" y="-67.5" font-family="Helvetica,sans-Serif" font-size="10.00" fill="#000000">PDI::Scalar_datatype</text>
<text text-anchor="middle" x="375.5" y="-56.5" font-family="Helvetica,sans-Serif" font-size="10.00" fill="#000000">::data_from_dense_copy</text>
</a>
</g>
</g>
<!-- Node32&#45;&gt;Node33 -->
<g id="edge2" class="edge">
<title>Node32&#45;&gt;Node33</title>
<path fill="none" stroke="#191970" d="M283.3682,-64.5C291.7912,-64.5 300.3683,-64.5 308.7314,-64.5"/>
<polygon fill="#191970" stroke="#191970" points="283.1952,-61.0001 273.1952,-64.5 283.1951,-68.0001 283.1952,-61.0001"/>
</g>
</g>
</svg>
