<?xml version="1.0" encoding="UTF-8" standalone="no"?>
<!DOCTYPE svg PUBLIC "-//W3C//DTD SVG 1.1//EN"
 "http://www.w3.org/Graphics/SVG/1.1/DTD/svg11.dtd">
<!-- Generated by graphviz version 2.40.1 (20161225.0304)
 -->
<!-- Title: PDI::Context::get_iterator Pages: 1 -->
<svg width="309pt" height="127pt"
 viewBox="0.00 0.00 309.00 126.50" xmlns="http://www.w3.org/2000/svg" xmlns:xlink="http://www.w3.org/1999/xlink">
<g id="graph0" class="graph" transform="scale(1 1) rotate(0) translate(4 122.5)">
<title>PDI::Context::get_iterator</title>
<polygon fill="#ffffff" stroke="transparent" points="-4,4 -4,-122.5 305,-122.5 305,4 -4,4"/>
<!-- Node21 -->
<g id="node1" class="node">
<title>Node21</title>
<polygon fill="#bfbfbf" stroke="#000000" points="0,-44.5 0,-63.5 134,-63.5 134,-44.5 0,-44.5"/>
<text text-anchor="middle" x="67" y="-51.5" font-family="Helvetica,sans-Serif" font-size="10.00" fill="#000000">PDI::Context::get_iterator</text>
</g>
<!-- Node22 -->
<g id="node2" class="node">
<title>Node22</title>
<g id="a_node2"><a xlink:href="classPDI_1_1Context_1_1Iterator.html#a36f7819bd97ee740dc69722ef6646ab3" target="_top" xlink:title="PDI::Context::Iterator\l::operator!=">
<polygon fill="#ffffff" stroke="#000000" points="178.5,-88 178.5,-118 292.5,-118 292.5,-88 178.5,-88"/>
<text text-anchor="start" x="186.5" y="-106" font-family="Helvetica,sans-Serif" font-size="10.00" fill="#000000">PDI::Context::Iterator</text>
<text text-anchor="middle" x="235.5" y="-95" font-family="Helvetica,sans-Serif" font-size="10.00" fill="#000000">::operator!=</text>
</a>
</g>
</g>
<!-- Node21&#45;&gt;Node22 -->
<g id="edge1" class="edge">
<title>Node21&#45;&gt;Node22</title>
<path fill="none" stroke="#191970" d="M109.5229,-66.3657C132.0839,-72.9265 159.9854,-81.0403 183.7913,-87.963"/>
<polygon fill="#191970" stroke="#191970" points="110.4681,-62.9956 99.8885,-63.564 108.5134,-69.7172 110.4681,-62.9956"/>
</g>
<!-- Node23 -->
<g id="node3" class="node">
<title>Node23</title>
<g id="a_node3"><a xlink:href="classPDI_1_1Global__context.html#a4665fab342b662b8589092eed4e7b9c9" target="_top" xlink:title="PDI::Global_context\l::begin">
<polygon fill="#ffffff" stroke="#000000" points="181,-39 181,-69 290,-69 290,-39 181,-39"/>
<text text-anchor="start" x="189" y="-57" font-family="Helvetica,sans-Serif" font-size="10.00" fill="#000000">PDI::Global_context</text>
<text text-anchor="middle" x="235.5" y="-46" font-family="Helvetica,sans-Serif" font-size="10.00" fill="#000000">::begin</text>
</a>
</g>
</g>
<!-- Node21&#45;&gt;Node23 -->
<g id="edge2" class="edge">
<title>Node21&#45;&gt;Node23</title>
<path fill="none" stroke="#191970" d="M144.3514,-54C156.6627,-54 169.1717,-54 180.8174,-54"/>
<polygon fill="#191970" stroke="#191970" points="144.0799,-50.5001 134.0798,-54 144.0798,-57.5001 144.0799,-50.5001"/>
</g>
<!-- Node24 -->
<g id="node4" class="node">
<title>Node24</title>
<g id="a_node4"><a xlink:href="classPDI_1_1Global__context.html#a612ec7b0cec375dc503b05eb5b7724fb" target="_top" xlink:title="PDI::Global_context::end">
<polygon fill="#ffffff" stroke="#000000" points="170,-.5 170,-19.5 301,-19.5 301,-.5 170,-.5"/>
<text text-anchor="middle" x="235.5" y="-7.5" font-family="Helvetica,sans-Serif" font-size="10.00" fill="#000000">PDI::Global_context::end</text>
</a>
</g>
</g>
<!-- Node21&#45;&gt;Node24 -->
<g id="edge3" class="edge">
<title>Node21&#45;&gt;Node24</title>
<path fill="none" stroke="#191970" d="M113.547,-41.8453C140.51,-34.8045 173.9639,-26.0688 199.0094,-19.5287"/>
<polygon fill="#191970" stroke="#191970" points="112.3532,-38.5396 103.562,-44.4527 114.1219,-45.3125 112.3532,-38.5396"/>
</g>
</g>
</svg>
