<?xml version="1.0" encoding="UTF-8" standalone="no"?>
<!DOCTYPE svg PUBLIC "-//W3C//DTD SVG 1.1//EN"
 "http://www.w3.org/Graphics/SVG/1.1/DTD/svg11.dtd">
<!-- Generated by graphviz version 2.40.1 (20161225.0304)
 -->
<!-- Title: PDI::Record_datatype::alignment Pages: 1 -->
<svg width="453pt" height="137pt"
 viewBox="0.00 0.00 453.00 137.00" xmlns="http://www.w3.org/2000/svg" xmlns:xlink="http://www.w3.org/1999/xlink">
<g id="graph0" class="graph" transform="scale(1 1) rotate(0) translate(4 133)">
<title>PDI::Record_datatype::alignment</title>
<polygon fill="#ffffff" stroke="transparent" points="-4,4 -4,-133 449,-133 449,4 -4,4"/>
<!-- Node4 -->
<g id="node1" class="node">
<title>Node4</title>
<polygon fill="#bfbfbf" stroke="#000000" points="0,-47.5 0,-77.5 120,-77.5 120,-47.5 0,-47.5"/>
<text text-anchor="start" x="8" y="-65.5" font-family="Helvetica,sans-Serif" font-size="10.00" fill="#000000">PDI::Record_datatype</text>
<text text-anchor="middle" x="60" y="-54.5" font-family="Helvetica,sans-Serif" font-size="10.00" fill="#000000">::alignment</text>
</g>
<!-- Node5 -->
<g id="node2" class="node">
<title>Node5</title>
<g id="a_node2"><a xlink:href="classPDI_1_1Record__datatype.html#abb72cae0af1e9d4923165abd7044450c" target="_top" xlink:title="PDI::Record_datatype\l::densify">
<polygon fill="#ffffff" stroke="#000000" points="156,-96.5 156,-126.5 276,-126.5 276,-96.5 156,-96.5"/>
<text text-anchor="start" x="164" y="-114.5" font-family="Helvetica,sans-Serif" font-size="10.00" fill="#000000">PDI::Record_datatype</text>
<text text-anchor="middle" x="216" y="-103.5" font-family="Helvetica,sans-Serif" font-size="10.00" fill="#000000">::densify</text>
</a>
</g>
</g>
<!-- Node4&#45;&gt;Node5 -->
<g id="edge1" class="edge">
<title>Node4&#45;&gt;Node5</title>
<path fill="none" stroke="#191970" d="M117.6656,-80.6129C134.2503,-85.8222 152.1535,-91.4457 168.0807,-96.4484"/>
<polygon fill="#191970" stroke="#191970" points="118.6674,-77.259 108.0781,-77.6014 116.5696,-83.9373 118.6674,-77.259"/>
</g>
<!-- Node6 -->
<g id="node3" class="node">
<title>Node6</title>
<g id="a_node3"><a xlink:href="classPDI_1_1Record__datatype.html#ab5211f58ddcfbbb88243259182db1271" target="_top" xlink:title="PDI::Record_datatype\l::dense">
<polygon fill="#ffffff" stroke="#000000" points="156,-47.5 156,-77.5 276,-77.5 276,-47.5 156,-47.5"/>
<text text-anchor="start" x="164" y="-65.5" font-family="Helvetica,sans-Serif" font-size="10.00" fill="#000000">PDI::Record_datatype</text>
<text text-anchor="middle" x="216" y="-54.5" font-family="Helvetica,sans-Serif" font-size="10.00" fill="#000000">::dense</text>
</a>
</g>
</g>
<!-- Node4&#45;&gt;Node6 -->
<g id="edge2" class="edge">
<title>Node4&#45;&gt;Node6</title>
<path fill="none" stroke="#191970" d="M130.538,-62.5C138.9903,-62.5 147.5605,-62.5 155.8467,-62.5"/>
<polygon fill="#191970" stroke="#191970" points="130.3137,-59.0001 120.3137,-62.5 130.3136,-66.0001 130.3137,-59.0001"/>
</g>
<!-- Node9 -->
<g id="node6" class="node">
<title>Node9</title>
<g id="a_node6"><a xlink:href="classPDI_1_1Record__datatype.html#a9050d4e6cd9f520581ccfeba402b358c" target="_top" xlink:title="PDI::Record_datatype\l::debug_string">
<polygon fill="#ffffff" stroke="#000000" points="318.5,-.5 318.5,-30.5 438.5,-30.5 438.5,-.5 318.5,-.5"/>
<text text-anchor="start" x="326.5" y="-18.5" font-family="Helvetica,sans-Serif" font-size="10.00" fill="#000000">PDI::Record_datatype</text>
<text text-anchor="middle" x="378.5" y="-7.5" font-family="Helvetica,sans-Serif" font-size="10.00" fill="#000000">::debug_string</text>
</a>
</g>
</g>
<!-- Node4&#45;&gt;Node9 -->
<g id="edge6" class="edge">
<title>Node4&#45;&gt;Node9</title>
<path fill="none" stroke="#191970" d="M121.7889,-44.8965C133.1012,-42.1064 144.8537,-39.4898 156,-37.5 210.4531,-27.7791 273.226,-22.0637 318.1841,-18.9064"/>
<polygon fill="#191970" stroke="#191970" points="120.8204,-41.5313 111.9874,-47.3818 122.5409,-48.3165 120.8204,-41.5313"/>
</g>
<!-- Node7 -->
<g id="node4" class="node">
<title>Node7</title>
<g id="a_node4"><a xlink:href="classPDI_1_1Record__datatype.html#a3d477bbeb305b9d51e3a7793eea75e32" target="_top" xlink:title="PDI::Record_datatype\l::data_to_dense_copy">
<polygon fill="#ffffff" stroke="#000000" points="318,-98.5 318,-128.5 439,-128.5 439,-98.5 318,-98.5"/>
<text text-anchor="start" x="326" y="-116.5" font-family="Helvetica,sans-Serif" font-size="10.00" fill="#000000">PDI::Record_datatype</text>
<text text-anchor="middle" x="378.5" y="-105.5" font-family="Helvetica,sans-Serif" font-size="10.00" fill="#000000">::data_to_dense_copy</text>
</a>
</g>
</g>
<!-- Node6&#45;&gt;Node7 -->
<g id="edge3" class="edge">
<title>Node6&#45;&gt;Node7</title>
<path fill="none" stroke="#191970" d="M273.4725,-80.5375C292.1899,-86.4119 312.7535,-92.8657 330.6852,-98.4935"/>
<polygon fill="#191970" stroke="#191970" points="274.4657,-77.181 263.8765,-77.5258 272.3695,-83.8598 274.4657,-77.181"/>
</g>
<!-- Node8 -->
<g id="node5" class="node">
<title>Node8</title>
<g id="a_node5"><a xlink:href="classPDI_1_1Record__datatype.html#a3ffff5ec6228ae7b6c8aaa67139588e1" target="_top" xlink:title="PDI::Record_datatype\l::data_from_dense_copy">
<polygon fill="#ffffff" stroke="#000000" points="312,-49.5 312,-79.5 445,-79.5 445,-49.5 312,-49.5"/>
<text text-anchor="start" x="320" y="-67.5" font-family="Helvetica,sans-Serif" font-size="10.00" fill="#000000">PDI::Record_datatype</text>
<text text-anchor="middle" x="378.5" y="-56.5" font-family="Helvetica,sans-Serif" font-size="10.00" fill="#000000">::data_from_dense_copy</text>
</a>
</g>
</g>
<!-- Node6&#45;&gt;Node8 -->
<g id="edge4" class="edge">
<title>Node6&#45;&gt;Node8</title>
<path fill="none" stroke="#191970" d="M286.2929,-63.3651C294.7793,-63.4696 303.4283,-63.576 311.8601,-63.6798"/>
<polygon fill="#191970" stroke="#191970" points="286.0897,-59.8625 276.0473,-63.239 286.0034,-66.8619 286.0897,-59.8625"/>
</g>
<!-- Node6&#45;&gt;Node9 -->
<g id="edge5" class="edge">
<title>Node6&#45;&gt;Node9</title>
<path fill="none" stroke="#191970" d="M277.7269,-44.6467C293.8345,-39.9879 311.0302,-35.0144 326.5726,-30.519"/>
<polygon fill="#191970" stroke="#191970" points="276.4966,-41.359 267.8628,-47.4997 278.4415,-48.0834 276.4966,-41.359"/>
</g>
</g>
</svg>
