<?xml version="1.0" encoding="UTF-8" standalone="no"?>
<!DOCTYPE svg PUBLIC "-//W3C//DTD SVG 1.1//EN"
 "http://www.w3.org/Graphics/SVG/1.1/DTD/svg11.dtd">
<!-- Generated by graphviz version 2.40.1 (20161225.0304)
 -->
<!-- Title: PDI::Record_datatype::data_to_dense_copy Pages: 1 -->
<svg width="441pt" height="176pt"
 viewBox="0.00 0.00 441.00 176.00" xmlns="http://www.w3.org/2000/svg" xmlns:xlink="http://www.w3.org/1999/xlink">
<g id="graph0" class="graph" transform="scale(1 1) rotate(0) translate(4 172)">
<title>PDI::Record_datatype::data_to_dense_copy</title>
<polygon fill="#ffffff" stroke="transparent" points="-4,4 -4,-172 437,-172 437,4 -4,4"/>
<!-- Node31 -->
<g id="node1" class="node">
<title>Node31</title>
<polygon fill="#bfbfbf" stroke="#000000" points="0,-66.5 0,-96.5 121,-96.5 121,-66.5 0,-66.5"/>
<text text-anchor="start" x="8" y="-84.5" font-family="Helvetica,sans-Serif" font-size="10.00" fill="#000000">PDI::Record_datatype</text>
<text text-anchor="middle" x="60.5" y="-73.5" font-family="Helvetica,sans-Serif" font-size="10.00" fill="#000000">::data_to_dense_copy</text>
</g>
<!-- Node32 -->
<g id="node2" class="node">
<title>Node32</title>
<g id="a_node2"><a xlink:href="classPDI_1_1Record__datatype.html#a6286765cf6a1d050603f7adaed1edc93" target="_top" xlink:title="PDI::Record_datatype\l::simple">
<polygon fill="#ffffff" stroke="#000000" points="157,-137.5 157,-167.5 277,-167.5 277,-137.5 157,-137.5"/>
<text text-anchor="start" x="165" y="-155.5" font-family="Helvetica,sans-Serif" font-size="10.00" fill="#000000">PDI::Record_datatype</text>
<text text-anchor="middle" x="217" y="-144.5" font-family="Helvetica,sans-Serif" font-size="10.00" fill="#000000">::simple</text>
</a>
</g>
</g>
<!-- Node31&#45;&gt;Node32 -->
<g id="edge1" class="edge">
<title>Node31&#45;&gt;Node32</title>
<path fill="none" stroke="#191970" d="M90.2298,-96.6739C109.1767,-106.1709 134.3381,-118.4648 157,-128.5 160.8084,-130.1864 164.774,-131.8885 168.7713,-133.5661"/>
<polygon fill="#191970" stroke="#191970" points="167.5174,-136.835 178.0962,-137.4176 170.1896,-130.3651 167.5174,-136.835"/>
</g>
<!-- Node33 -->
<g id="node3" class="node">
<title>Node33</title>
<g id="a_node3"><a xlink:href="classPDI_1_1Record__datatype.html#ab5211f58ddcfbbb88243259182db1271" target="_top" xlink:title="PDI::Record_datatype\l::dense">
<polygon fill="#ffffff" stroke="#000000" points="157,-88.5 157,-118.5 277,-118.5 277,-88.5 157,-88.5"/>
<text text-anchor="start" x="165" y="-106.5" font-family="Helvetica,sans-Serif" font-size="10.00" fill="#000000">PDI::Record_datatype</text>
<text text-anchor="middle" x="217" y="-95.5" font-family="Helvetica,sans-Serif" font-size="10.00" fill="#000000">::dense</text>
</a>
</g>
</g>
<!-- Node31&#45;&gt;Node33 -->
<g id="edge2" class="edge">
<title>Node31&#45;&gt;Node33</title>
<path fill="none" stroke="#191970" d="M121.007,-90.0058C129.4767,-91.1964 138.2391,-92.4282 146.8684,-93.6412"/>
<polygon fill="#191970" stroke="#191970" points="146.5219,-97.1269 156.9118,-95.0531 147.4964,-90.195 146.5219,-97.1269"/>
</g>
<!-- Node35 -->
<g id="node5" class="node">
<title>Node35</title>
<g id="a_node5"><a xlink:href="classPDI_1_1Record__datatype.html#aed94e24402cada695d056a4aea0e258e" target="_top" xlink:title="PDI::Record_datatype\l::buffersize">
<polygon fill="#ffffff" stroke="#000000" points="313,-44.5 313,-74.5 433,-74.5 433,-44.5 313,-44.5"/>
<text text-anchor="start" x="321" y="-62.5" font-family="Helvetica,sans-Serif" font-size="10.00" fill="#000000">PDI::Record_datatype</text>
<text text-anchor="middle" x="373" y="-51.5" font-family="Helvetica,sans-Serif" font-size="10.00" fill="#000000">::buffersize</text>
</a>
</g>
</g>
<!-- Node31&#45;&gt;Node35 -->
<g id="edge5" class="edge">
<title>Node31&#45;&gt;Node35</title>
<path fill="none" stroke="#191970" d="M121.1237,-77.2321C173.0653,-73.5754 247.915,-68.306 302.5174,-64.462"/>
<polygon fill="#191970" stroke="#191970" points="303.0813,-67.931 312.8108,-63.7373 302.5897,-60.9483 303.0813,-67.931"/>
</g>
<!-- Node36 -->
<g id="node6" class="node">
<title>Node36</title>
<g id="a_node6"><a xlink:href="classPDI_1_1Record__datatype.html#a8fd1085ad804c4b9410a4c3d97be2375" target="_top" xlink:title="PDI::Record_datatype\l::members">
<polygon fill="#ffffff" stroke="#000000" points="157,-.5 157,-30.5 277,-30.5 277,-.5 157,-.5"/>
<text text-anchor="start" x="165" y="-18.5" font-family="Helvetica,sans-Serif" font-size="10.00" fill="#000000">PDI::Record_datatype</text>
<text text-anchor="middle" x="217" y="-7.5" font-family="Helvetica,sans-Serif" font-size="10.00" fill="#000000">::members</text>
</a>
</g>
</g>
<!-- Node31&#45;&gt;Node36 -->
<g id="edge6" class="edge">
<title>Node31&#45;&gt;Node36</title>
<path fill="none" stroke="#191970" d="M96.4043,-66.3583C118.8704,-56.8837 148.0008,-44.5987 172.0031,-34.4763"/>
<polygon fill="#191970" stroke="#191970" points="173.4087,-37.6821 181.2628,-30.5713 170.6886,-31.2322 173.4087,-37.6821"/>
</g>
<!-- Node34 -->
<g id="node4" class="node">
<title>Node34</title>
<g id="a_node4"><a xlink:href="classPDI_1_1Record__datatype.html#a359deae4113398d9bf252b81be2fa282" target="_top" xlink:title="PDI::Record_datatype\l::alignment">
<polygon fill="#ffffff" stroke="#000000" points="313,-93.5 313,-123.5 433,-123.5 433,-93.5 313,-93.5"/>
<text text-anchor="start" x="321" y="-111.5" font-family="Helvetica,sans-Serif" font-size="10.00" fill="#000000">PDI::Record_datatype</text>
<text text-anchor="middle" x="373" y="-100.5" font-family="Helvetica,sans-Serif" font-size="10.00" fill="#000000">::alignment</text>
</a>
</g>
</g>
<!-- Node33&#45;&gt;Node34 -->
<g id="edge3" class="edge">
<title>Node33&#45;&gt;Node34</title>
<path fill="none" stroke="#191970" d="M277.3137,-105.4331C285.6036,-105.6988 294.1748,-105.9736 302.6255,-106.2444"/>
<polygon fill="#191970" stroke="#191970" points="302.7397,-109.7498 312.8467,-106.572 302.964,-102.7534 302.7397,-109.7498"/>
</g>
<!-- Node33&#45;&gt;Node35 -->
<g id="edge4" class="edge">
<title>Node33&#45;&gt;Node35</title>
<path fill="none" stroke="#191970" d="M270.25,-88.4808C282.981,-84.89 296.6933,-81.0224 309.8237,-77.319"/>
<polygon fill="#191970" stroke="#191970" points="311.0509,-80.6095 319.7253,-74.5262 309.1506,-73.8723 311.0509,-80.6095"/>
</g>
</g>
</svg>
