<?xml version="1.0" encoding="UTF-8" standalone="no"?>
<!DOCTYPE svg PUBLIC "-//W3C//DTD SVG 1.1//EN"
 "http://www.w3.org/Graphics/SVG/1.1/DTD/svg11.dtd">
<!-- Generated by graphviz version 2.40.1 (20161225.0304)
 -->
<!-- Title: PDI::Data_descriptor_impl::share Pages: 1 -->
<svg width="422pt" height="188pt"
 viewBox="0.00 0.00 422.00 187.50" xmlns="http://www.w3.org/2000/svg" xmlns:xlink="http://www.w3.org/1999/xlink">
<g id="graph0" class="graph" transform="scale(1 1) rotate(0) translate(4 183.5)">
<title>PDI::Data_descriptor_impl::share</title>
<polygon fill="#ffffff" stroke="transparent" points="-4,4 -4,-183.5 418,-183.5 418,4 -4,4"/>
<!-- Node64 -->
<g id="node1" class="node">
<title>Node64</title>
<polygon fill="#bfbfbf" stroke="#000000" points="0,-77 0,-107 114,-107 114,-77 0,-77"/>
<text text-anchor="start" x="8" y="-95" font-family="Helvetica,sans-Serif" font-size="10.00" fill="#000000">PDI::Data_descriptor</text>
<text text-anchor="middle" x="57" y="-84" font-family="Helvetica,sans-Serif" font-size="10.00" fill="#000000">_impl::share</text>
</g>
<!-- Node65 -->
<g id="node2" class="node">
<title>Node65</title>
<g id="a_node2"><a xlink:href="classPDI_1_1Data__descriptor__impl.html#a00fee097289f95d6120342e7242951cd" target="_top" xlink:title="PDI::Data_descriptor\l_impl::metadata">
<polygon fill="#ffffff" stroke="#000000" points="300,-149 300,-179 414,-179 414,-149 300,-149"/>
<text text-anchor="start" x="308" y="-167" font-family="Helvetica,sans-Serif" font-size="10.00" fill="#000000">PDI::Data_descriptor</text>
<text text-anchor="middle" x="357" y="-156" font-family="Helvetica,sans-Serif" font-size="10.00" fill="#000000">_impl::metadata</text>
</a>
</g>
</g>
<!-- Node64&#45;&gt;Node65 -->
<g id="edge1" class="edge">
<title>Node64&#45;&gt;Node65</title>
<path fill="none" stroke="#191970" d="M85.985,-107.1795C103.9651,-115.9835 127.7974,-126.5689 150,-133 195.6909,-146.2347 248.7801,-154.0401 289.7541,-158.5082"/>
<polygon fill="#191970" stroke="#191970" points="289.5874,-162.0098 299.8983,-159.5735 290.3185,-155.0481 289.5874,-162.0098"/>
</g>
<!-- Node66 -->
<g id="node3" class="node">
<title>Node66</title>
<g id="a_node3"><a xlink:href="classPDI_1_1Ref__any.html#ad8d6851233a405e0e1c27d2e762c6cb9" target="_top" xlink:title="PDI::Ref_any::get">
<polygon fill="#ffffff" stroke="#000000" points="158,-.5 158,-19.5 256,-19.5 256,-.5 158,-.5"/>
<text text-anchor="middle" x="207" y="-7.5" font-family="Helvetica,sans-Serif" font-size="10.00" fill="#000000">PDI::Ref_any::get</text>
</a>
</g>
</g>
<!-- Node64&#45;&gt;Node66 -->
<g id="edge2" class="edge">
<title>Node64&#45;&gt;Node66</title>
<path fill="none" stroke="#191970" d="M78.966,-76.909C97.4518,-64.5522 124.8265,-47.0442 150,-34 157.1724,-30.2835 165.0521,-26.6786 172.6038,-23.4407"/>
<polygon fill="#191970" stroke="#191970" points="174.0352,-26.636 181.9161,-19.5549 171.3395,-20.1758 174.0352,-26.636"/>
</g>
<!-- Node67 -->
<g id="node4" class="node">
<title>Node67</title>
<g id="a_node4"><a xlink:href="classPDI_1_1Data__descriptor__impl.html#adb5530d2a46c093c6cc03a8ed1d45fd7" target="_top" xlink:title="PDI::Data_descriptor\l_impl::ref">
<polygon fill="#ffffff" stroke="#000000" points="150,-77 150,-107 264,-107 264,-77 150,-77"/>
<text text-anchor="start" x="158" y="-95" font-family="Helvetica,sans-Serif" font-size="10.00" fill="#000000">PDI::Data_descriptor</text>
<text text-anchor="middle" x="207" y="-84" font-family="Helvetica,sans-Serif" font-size="10.00" fill="#000000">_impl::ref</text>
</a>
</g>
</g>
<!-- Node64&#45;&gt;Node67 -->
<g id="edge3" class="edge">
<title>Node64&#45;&gt;Node67</title>
<path fill="none" stroke="#191970" d="M114.1365,-92C122.3769,-92 130.9229,-92 139.3442,-92"/>
<polygon fill="#191970" stroke="#191970" points="139.5255,-95.5001 149.5255,-92 139.5255,-88.5001 139.5255,-95.5001"/>
</g>
<!-- Node68 -->
<g id="node5" class="node">
<title>Node68</title>
<g id="a_node5"><a xlink:href="classPDI_1_1Error.html#a96f2da1344848f7862d6d4227ba7c82a" target="_top" xlink:title="PDI::Error::status">
<polygon fill="#ffffff" stroke="#000000" points="309.5,-91.5 309.5,-110.5 404.5,-110.5 404.5,-91.5 309.5,-91.5"/>
<text text-anchor="middle" x="357" y="-98.5" font-family="Helvetica,sans-Serif" font-size="10.00" fill="#000000">PDI::Error::status</text>
</a>
</g>
</g>
<!-- Node64&#45;&gt;Node68 -->
<g id="edge7" class="edge">
<title>Node64&#45;&gt;Node68</title>
<path fill="none" stroke="#191970" d="M103.3489,-107.0232C118.0966,-111.1083 134.5851,-114.9642 150,-117 200.2305,-123.6337 213.5171,-121.311 264,-117 275.9877,-115.9763 288.7508,-114.2233 300.8579,-112.2436"/>
<polygon fill="#191970" stroke="#191970" points="301.5742,-115.672 310.8422,-110.5384 300.3957,-108.7719 301.5742,-115.672"/>
</g>
<!-- Node69 -->
<g id="node6" class="node">
<title>Node69</title>
<g id="a_node6"><a xlink:href="classPDI_1_1Error.html#aca3b34b8350235c8455bfe56236c4454" target="_top" xlink:title="PDI::Error::what">
<polygon fill="#ffffff" stroke="#000000" points="312.5,-50.5 312.5,-69.5 401.5,-69.5 401.5,-50.5 312.5,-50.5"/>
<text text-anchor="middle" x="357" y="-57.5" font-family="Helvetica,sans-Serif" font-size="10.00" fill="#000000">PDI::Error::what</text>
</a>
</g>
</g>
<!-- Node64&#45;&gt;Node69 -->
<g id="edge8" class="edge">
<title>Node64&#45;&gt;Node69</title>
<path fill="none" stroke="#191970" d="M104.8261,-76.8999C119.2052,-72.9715 135.1178,-69.2219 150,-67 201.2536,-59.3478 260.4027,-58.0929 302.3143,-58.4576"/>
<polygon fill="#191970" stroke="#191970" points="302.2743,-61.9573 312.3158,-58.5781 302.3587,-54.9578 302.2743,-61.9573"/>
</g>
<!-- Node67&#45;&gt;Node65 -->
<g id="edge4" class="edge">
<title>Node67&#45;&gt;Node65</title>
<path fill="none" stroke="#191970" d="M238.4449,-107.0936C261.1454,-117.9898 291.9925,-132.7964 316.5309,-144.5748"/>
<polygon fill="#191970" stroke="#191970" points="315.0667,-147.7543 325.5965,-148.9263 318.0958,-141.4436 315.0667,-147.7543"/>
</g>
<!-- Node67&#45;&gt;Node68 -->
<g id="edge5" class="edge">
<title>Node67&#45;&gt;Node68</title>
<path fill="none" stroke="#191970" d="M264.1365,-95.4282C275.5464,-96.1128 287.5419,-96.8325 298.9812,-97.5189"/>
<polygon fill="#191970" stroke="#191970" points="299.1058,-101.0326 309.2975,-98.1379 299.5251,-94.0451 299.1058,-101.0326"/>
</g>
<!-- Node67&#45;&gt;Node69 -->
<g id="edge6" class="edge">
<title>Node67&#45;&gt;Node69</title>
<path fill="none" stroke="#191970" d="M264.1365,-79.8109C276.5554,-77.1615 289.6681,-74.3641 302.0023,-71.7329"/>
<polygon fill="#191970" stroke="#191970" points="303.0978,-75.078 312.1475,-69.5685 301.6373,-68.232 303.0978,-75.078"/>
</g>
</g>
</svg>
