<?xml version="1.0" encoding="UTF-8" standalone="no"?>
<!DOCTYPE svg PUBLIC "-//W3C//DTD SVG 1.1//EN"
 "http://www.w3.org/Graphics/SVG/1.1/DTD/svg11.dtd">
<!-- Generated by graphviz version 2.40.1 (20161225.0304)
 -->
<!-- Title: PDI::Record_datatype::Member Pages: 1 -->
<svg width="128pt" height="259pt"
 viewBox="0.00 0.00 128.00 259.00" xmlns="http://www.w3.org/2000/svg" xmlns:xlink="http://www.w3.org/1999/xlink">
<g id="graph0" class="graph" transform="scale(1 1) rotate(0) translate(4 255)">
<title>PDI::Record_datatype::Member</title>
<polygon fill="#ffffff" stroke="transparent" points="-4,4 -4,-255 124,-255 124,4 -4,4"/>
<!-- Node1 -->
<g id="node1" class="node">
<title>Node1</title>
<polygon fill="#bfbfbf" stroke="#000000" points="0,-.5 0,-145.5 120,-145.5 120,-.5 0,-.5"/>
<text text-anchor="start" x="8" y="-133.5" font-family="Helvetica,sans-Serif" font-size="10.00" fill="#000000">PDI::Record_datatype</text>
<text text-anchor="middle" x="60" y="-122.5" font-family="Helvetica,sans-Serif" font-size="10.00" fill="#000000">::Member</text>
<polyline fill="none" stroke="#000000" points="0,-115.5 120,-115.5 "/>
<text text-anchor="start" x="8" y="-103.5" font-family="Helvetica,sans-Serif" font-size="10.00" fill="#000000">&#45; m_displacement</text>
<text text-anchor="start" x="8" y="-92.5" font-family="Helvetica,sans-Serif" font-size="10.00" fill="#000000">&#45; m_type</text>
<polyline fill="none" stroke="#000000" points="0,-85.5 120,-85.5 "/>
<text text-anchor="start" x="8" y="-73.5" font-family="Helvetica,sans-Serif" font-size="10.00" fill="#000000">+ Member()</text>
<text text-anchor="start" x="8" y="-62.5" font-family="Helvetica,sans-Serif" font-size="10.00" fill="#000000">+ Member()</text>
<text text-anchor="start" x="8" y="-51.5" font-family="Helvetica,sans-Serif" font-size="10.00" fill="#000000">+ displacement()</text>
<text text-anchor="start" x="8" y="-40.5" font-family="Helvetica,sans-Serif" font-size="10.00" fill="#000000">+ type()</text>
<text text-anchor="start" x="8" y="-29.5" font-family="Helvetica,sans-Serif" font-size="10.00" fill="#000000">+ name()</text>
<text text-anchor="start" x="8" y="-18.5" font-family="Helvetica,sans-Serif" font-size="10.00" fill="#000000">+ operator==()</text>
<text text-anchor="start" x="8" y="-7.5" font-family="Helvetica,sans-Serif" font-size="10.00" fill="#000000">+ operator!=()</text>
</g>
<!-- Node2 -->
<g id="node2" class="node">
<title>Node2</title>
<polygon fill="#ffffff" stroke="#bfbfbf" points="38.5,-193.5 38.5,-250.5 81.5,-250.5 81.5,-193.5 38.5,-193.5"/>
<text text-anchor="middle" x="60" y="-238.5" font-family="Helvetica,sans-Serif" font-size="10.00" fill="#000000">string</text>
<polyline fill="none" stroke="#bfbfbf" points="38.5,-231.5 81.5,-231.5 "/>
<text text-anchor="middle" x="60" y="-219.5" font-family="Helvetica,sans-Serif" font-size="10.00" fill="#000000"> </text>
<polyline fill="none" stroke="#bfbfbf" points="38.5,-212.5 81.5,-212.5 "/>
<text text-anchor="middle" x="60" y="-200.5" font-family="Helvetica,sans-Serif" font-size="10.00" fill="#000000"> </text>
</g>
<!-- Node2&#45;&gt;Node1 -->
<g id="edge1" class="edge">
<title>Node2&#45;&gt;Node1</title>
<path fill="none" stroke="#404040" d="M60,-193.2713C60,-182.8895 60,-170.5716 60,-157.843"/>
<polygon fill="none" stroke="#404040" points="60.0001,-157.5631 56,-151.5632 60,-145.5631 64,-151.5631 60.0001,-157.5631"/>
<text text-anchor="middle" x="83.5" y="-167" font-family="Helvetica,sans-Serif" font-size="10.00" fill="#000000"> &#45;m_name</text>
</g>
</g>
</svg>
