<?xml version="1.0" encoding="UTF-8" standalone="no"?>
<!DOCTYPE svg PUBLIC "-//W3C//DTD SVG 1.1//EN"
 "http://www.w3.org/Graphics/SVG/1.1/DTD/svg11.dtd">
<!-- Generated by graphviz version 2.40.1 (20161225.0304)
 -->
<!-- Title: PDI::Array_datatype::data_to_dense_copy Pages: 1 -->
<svg width="296pt" height="390pt"
 viewBox="0.00 0.00 296.00 390.00" xmlns="http://www.w3.org/2000/svg" xmlns:xlink="http://www.w3.org/1999/xlink">
<g id="graph0" class="graph" transform="scale(1 1) rotate(0) translate(4 386)">
<title>PDI::Array_datatype::data_to_dense_copy</title>
<polygon fill="#ffffff" stroke="transparent" points="-4,4 -4,-386 292,-386 292,4 -4,4"/>
<!-- Node35 -->
<g id="node1" class="node">
<title>Node35</title>
<polygon fill="#bfbfbf" stroke="#000000" points="0,-181.5 0,-211.5 121,-211.5 121,-181.5 0,-181.5"/>
<text text-anchor="start" x="8" y="-199.5" font-family="Helvetica,sans-Serif" font-size="10.00" fill="#000000">PDI::Array_datatype</text>
<text text-anchor="middle" x="60.5" y="-188.5" font-family="Helvetica,sans-Serif" font-size="10.00" fill="#000000">::data_to_dense_copy</text>
</g>
<!-- Node36 -->
<g id="node2" class="node">
<title>Node36</title>
<g id="a_node2"><a xlink:href="classPDI_1_1Array__datatype.html#a6f9201d70ad6f5dcb52ce714f543f447" target="_top" xlink:title="PDI::Array_datatype\l::subtype">
<polygon fill="#ffffff" stroke="#000000" points="167,-351.5 167,-381.5 278,-381.5 278,-351.5 167,-351.5"/>
<text text-anchor="start" x="175" y="-369.5" font-family="Helvetica,sans-Serif" font-size="10.00" fill="#000000">PDI::Array_datatype</text>
<text text-anchor="middle" x="222.5" y="-358.5" font-family="Helvetica,sans-Serif" font-size="10.00" fill="#000000">::subtype</text>
</a>
</g>
</g>
<!-- Node35&#45;&gt;Node36 -->
<g id="edge1" class="edge">
<title>Node35&#45;&gt;Node36</title>
<path fill="none" stroke="#191970" d="M66.8722,-211.9038C79.7103,-241.1559 111.4044,-305.0713 157,-341.5 159.0802,-343.162 161.2831,-344.7224 163.5726,-346.1866"/>
<polygon fill="#191970" stroke="#191970" points="162.3268,-349.5023 172.7561,-351.3678 165.7665,-343.4057 162.3268,-349.5023"/>
</g>
<!-- Node37 -->
<g id="node3" class="node">
<title>Node37</title>
<g id="a_node3"><a xlink:href="classPDI_1_1Datatype.html#a341a15d47396f1cd9bb12e43a5cd5a40" target="_top" xlink:title="PDI::Datatype::buffersize">
<polygon fill="#ffffff" stroke="#000000" points="157,-313 157,-332 288,-332 288,-313 157,-313"/>
<text text-anchor="middle" x="222.5" y="-320" font-family="Helvetica,sans-Serif" font-size="10.00" fill="#000000">PDI::Datatype::buffersize</text>
</a>
</g>
</g>
<!-- Node35&#45;&gt;Node37 -->
<g id="edge2" class="edge">
<title>Node35&#45;&gt;Node37</title>
<path fill="none" stroke="#191970" d="M70.1017,-211.7113C85.5635,-234.9628 118.2057,-279.1975 157,-303.5 160.3473,-305.5969 163.9344,-307.4699 167.6421,-309.1418"/>
<polygon fill="#191970" stroke="#191970" points="166.4538,-312.436 177.0386,-312.8964 169.0512,-305.9357 166.4538,-312.436"/>
</g>
<!-- Node38 -->
<g id="node4" class="node">
<title>Node38</title>
<g id="a_node4"><a xlink:href="classPDI_1_1Array__datatype.html#ac8bc6acc7335a71d63e1a19f2227d2f9" target="_top" xlink:title="PDI::Array_datatype\l::start">
<polygon fill="#ffffff" stroke="#000000" points="167,-263.5 167,-293.5 278,-293.5 278,-263.5 167,-263.5"/>
<text text-anchor="start" x="175" y="-281.5" font-family="Helvetica,sans-Serif" font-size="10.00" fill="#000000">PDI::Array_datatype</text>
<text text-anchor="middle" x="222.5" y="-270.5" font-family="Helvetica,sans-Serif" font-size="10.00" fill="#000000">::start</text>
</a>
</g>
</g>
<!-- Node35&#45;&gt;Node38 -->
<g id="edge3" class="edge">
<title>Node35&#45;&gt;Node38</title>
<path fill="none" stroke="#191970" d="M83.6819,-211.6995C102.8582,-223.9005 131.0577,-240.9981 157,-253.5 161.2969,-255.5707 165.813,-257.5933 170.3807,-259.5339"/>
<polygon fill="#191970" stroke="#191970" points="169.195,-262.8306 179.775,-263.3914 171.854,-256.3552 169.195,-262.8306"/>
</g>
<!-- Node39 -->
<g id="node5" class="node">
<title>Node39</title>
<g id="a_node5"><a xlink:href="classPDI_1_1Datatype.html#ae5f85834cbae56fca2b4cf7e7fbd0df3" target="_top" xlink:title="PDI::Datatype::simple">
<polygon fill="#ffffff" stroke="#000000" points="164.5,-225 164.5,-244 280.5,-244 280.5,-225 164.5,-225"/>
<text text-anchor="middle" x="222.5" y="-232" font-family="Helvetica,sans-Serif" font-size="10.00" fill="#000000">PDI::Datatype::simple</text>
</a>
</g>
</g>
<!-- Node35&#45;&gt;Node39 -->
<g id="edge4" class="edge">
<title>Node35&#45;&gt;Node39</title>
<path fill="none" stroke="#191970" d="M121.2837,-210.7579C137.7811,-214.6277 155.4737,-218.7778 171.3788,-222.5086"/>
<polygon fill="#191970" stroke="#191970" points="171.007,-226.0163 181.5421,-224.8926 172.6056,-219.2013 171.007,-226.0163"/>
</g>
<!-- Node40 -->
<g id="node6" class="node">
<title>Node40</title>
<g id="a_node6"><a xlink:href="classPDI_1_1Datatype.html#a15b82a52cfafc5fc1dbc21b043588693" target="_top" xlink:title="PDI::Datatype::dense">
<polygon fill="#ffffff" stroke="#000000" points="165,-187 165,-206 280,-206 280,-187 165,-187"/>
<text text-anchor="middle" x="222.5" y="-194" font-family="Helvetica,sans-Serif" font-size="10.00" fill="#000000">PDI::Datatype::dense</text>
</a>
</g>
</g>
<!-- Node35&#45;&gt;Node40 -->
<g id="edge5" class="edge">
<title>Node35&#45;&gt;Node40</title>
<path fill="none" stroke="#191970" d="M121.2837,-196.5C132.2132,-196.5 143.6673,-196.5 154.7787,-196.5"/>
<polygon fill="#191970" stroke="#191970" points="154.8619,-200.0001 164.8618,-196.5 154.8618,-193.0001 154.8619,-200.0001"/>
</g>
<!-- Node41 -->
<g id="node7" class="node">
<title>Node41</title>
<g id="a_node7"><a xlink:href="classPDI_1_1Array__datatype.html#a00fb46532bb0b8a63111130715a10137" target="_top" xlink:title="PDI::Array_datatype\l::datasize">
<polygon fill="#ffffff" stroke="#000000" points="167,-137.5 167,-167.5 278,-167.5 278,-137.5 167,-137.5"/>
<text text-anchor="start" x="175" y="-155.5" font-family="Helvetica,sans-Serif" font-size="10.00" fill="#000000">PDI::Array_datatype</text>
<text text-anchor="middle" x="222.5" y="-144.5" font-family="Helvetica,sans-Serif" font-size="10.00" fill="#000000">::datasize</text>
</a>
</g>
</g>
<!-- Node35&#45;&gt;Node41 -->
<g id="edge6" class="edge">
<title>Node35&#45;&gt;Node41</title>
<path fill="none" stroke="#191970" d="M115.7981,-181.4808C129.1483,-177.8548 143.5377,-173.9466 157.2947,-170.2101"/>
<polygon fill="#191970" stroke="#191970" points="158.4433,-173.525 167.1762,-167.5262 156.6085,-166.7697 158.4433,-173.525"/>
</g>
<!-- Node42 -->
<g id="node8" class="node">
<title>Node42</title>
<g id="a_node8"><a xlink:href="classPDI_1_1Datatype.html#a2d1d0228dddffc6ee786d56494fde972" target="_top" xlink:title="PDI::Datatype::alignment">
<polygon fill="#ffffff" stroke="#000000" points="157,-99 157,-118 288,-118 288,-99 157,-99"/>
<text text-anchor="middle" x="222.5" y="-106" font-family="Helvetica,sans-Serif" font-size="10.00" fill="#000000">PDI::Datatype::alignment</text>
</a>
</g>
</g>
<!-- Node35&#45;&gt;Node42 -->
<g id="edge7" class="edge">
<title>Node35&#45;&gt;Node42</title>
<path fill="none" stroke="#191970" d="M78.2596,-181.3492C96.8346,-166.1602 127.3614,-143.004 157,-128.5 162.4049,-125.8551 168.2327,-123.4742 174.1049,-121.3565"/>
<polygon fill="#191970" stroke="#191970" points="175.6003,-124.5462 183.9626,-118.0406 173.3685,-117.9115 175.6003,-124.5462"/>
</g>
<!-- Node43 -->
<g id="node9" class="node">
<title>Node43</title>
<g id="a_node9"><a xlink:href="classPDI_1_1Array__datatype.html#ab50be2accef49e18e36c9ac96d196a04" target="_top" xlink:title="PDI::Array_datatype\l::subsize">
<polygon fill="#ffffff" stroke="#000000" points="167,-49.5 167,-79.5 278,-79.5 278,-49.5 167,-49.5"/>
<text text-anchor="start" x="175" y="-67.5" font-family="Helvetica,sans-Serif" font-size="10.00" fill="#000000">PDI::Array_datatype</text>
<text text-anchor="middle" x="222.5" y="-56.5" font-family="Helvetica,sans-Serif" font-size="10.00" fill="#000000">::subsize</text>
</a>
</g>
</g>
<!-- Node35&#45;&gt;Node43 -->
<g id="edge8" class="edge">
<title>Node35&#45;&gt;Node43</title>
<path fill="none" stroke="#191970" d="M70.6141,-181.2983C86.514,-158.46 119.4445,-115.2362 157,-89.5 159.8474,-87.5487 162.8677,-85.723 165.9877,-84.0189"/>
<polygon fill="#191970" stroke="#191970" points="167.595,-87.1285 174.9837,-79.5353 164.4725,-80.8635 167.595,-87.1285"/>
</g>
<!-- Node44 -->
<g id="node10" class="node">
<title>Node44</title>
<g id="a_node10"><a xlink:href="classPDI_1_1Datatype.html#a988bab02472c4dc4206b40cd093030c3" target="_top" xlink:title="PDI::Datatype::data\l_to_dense_copy">
<polygon fill="#ffffff" stroke="#000000" points="169,-.5 169,-30.5 276,-30.5 276,-.5 169,-.5"/>
<text text-anchor="start" x="177" y="-18.5" font-family="Helvetica,sans-Serif" font-size="10.00" fill="#000000">PDI::Datatype::data</text>
<text text-anchor="middle" x="222.5" y="-7.5" font-family="Helvetica,sans-Serif" font-size="10.00" fill="#000000">_to_dense_copy</text>
</a>
</g>
</g>
<!-- Node35&#45;&gt;Node44 -->
<g id="edge9" class="edge">
<title>Node35&#45;&gt;Node44</title>
<path fill="none" stroke="#191970" d="M65.9893,-181.3622C77.8811,-150.5848 108.8883,-80.2663 157,-40.5 159.0112,-38.8376 161.1449,-37.2784 163.3665,-35.8166"/>
<polygon fill="#191970" stroke="#191970" points="165.3942,-38.6871 172.2975,-30.6499 161.8889,-32.628 165.3942,-38.6871"/>
</g>
</g>
</svg>
