<?xml version="1.0" encoding="UTF-8" standalone="no"?>
<!DOCTYPE svg PUBLIC "-//W3C//DTD SVG 1.1//EN"
 "http://www.w3.org/Graphics/SVG/1.1/DTD/svg11.dtd">
<!-- Generated by graphviz version 2.40.1 (20161225.0304)
 -->
<!-- Title: PDI::Scalar_datatype::clone_type Pages: 1 -->
<svg width="306pt" height="137pt"
 viewBox="0.00 0.00 306.00 137.00" xmlns="http://www.w3.org/2000/svg" xmlns:xlink="http://www.w3.org/1999/xlink">
<g id="graph0" class="graph" transform="scale(1 1) rotate(0) translate(4 133)">
<title>PDI::Scalar_datatype::clone_type</title>
<polygon fill="#ffffff" stroke="transparent" points="-4,4 -4,-133 302,-133 302,4 -4,4"/>
<!-- Node18 -->
<g id="node1" class="node">
<title>Node18</title>
<polygon fill="#bfbfbf" stroke="#000000" points="0,-49.5 0,-79.5 116,-79.5 116,-49.5 0,-49.5"/>
<text text-anchor="start" x="8" y="-67.5" font-family="Helvetica,sans-Serif" font-size="10.00" fill="#000000">PDI::Scalar_datatype</text>
<text text-anchor="middle" x="58" y="-56.5" font-family="Helvetica,sans-Serif" font-size="10.00" fill="#000000">::clone_type</text>
</g>
<!-- Node19 -->
<g id="node2" class="node">
<title>Node19</title>
<g id="a_node2"><a xlink:href="classPDI_1_1Data__descriptor__impl.html#a22744fd02d081ffea6c227fb68c5e474" target="_top" xlink:title="PDI::Data_descriptor\l_impl::Data_descriptor_impl">
<polygon fill="#ffffff" stroke="#000000" points="152,-98.5 152,-128.5 298,-128.5 298,-98.5 152,-98.5"/>
<text text-anchor="start" x="160" y="-116.5" font-family="Helvetica,sans-Serif" font-size="10.00" fill="#000000">PDI::Data_descriptor</text>
<text text-anchor="middle" x="225" y="-105.5" font-family="Helvetica,sans-Serif" font-size="10.00" fill="#000000">_impl::Data_descriptor_impl</text>
</a>
</g>
</g>
<!-- Node18&#45;&gt;Node19 -->
<g id="edge1" class="edge">
<title>Node18&#45;&gt;Node19</title>
<path fill="none" stroke="#191970" d="M119.2344,-82.467C137.1275,-87.717 156.4922,-93.3989 173.7018,-98.4484"/>
<polygon fill="#191970" stroke="#191970" points="120.0491,-79.0585 109.4682,-79.6014 118.0782,-85.7754 120.0491,-79.0585"/>
</g>
<!-- Node20 -->
<g id="node3" class="node">
<title>Node20</title>
<g id="a_node3"><a xlink:href="classPDI_1_1Scalar__datatype.html#a8f929d17ea26d91d1de5b17aa3654b38" target="_top" xlink:title="PDI::Scalar_datatype\l::clone">
<polygon fill="#ffffff" stroke="#000000" points="167,-49.5 167,-79.5 283,-79.5 283,-49.5 167,-49.5"/>
<text text-anchor="start" x="175" y="-67.5" font-family="Helvetica,sans-Serif" font-size="10.00" fill="#000000">PDI::Scalar_datatype</text>
<text text-anchor="middle" x="225" y="-56.5" font-family="Helvetica,sans-Serif" font-size="10.00" fill="#000000">::clone</text>
</a>
</g>
</g>
<!-- Node18&#45;&gt;Node20 -->
<g id="edge2" class="edge">
<title>Node18&#45;&gt;Node20</title>
<path fill="none" stroke="#191970" d="M126.5332,-64.5C139.9402,-64.5 153.8793,-64.5 166.9065,-64.5"/>
<polygon fill="#191970" stroke="#191970" points="126.4085,-61.0001 116.4085,-64.5 126.4085,-68.0001 126.4085,-61.0001"/>
</g>
<!-- Node21 -->
<g id="node4" class="node">
<title>Node21</title>
<g id="a_node4"><a xlink:href="classPDI_1_1Scalar__datatype.html#afffe6f77d615f1d570607758a62722bd" target="_top" xlink:title="PDI::Scalar_datatype\l::evaluate">
<polygon fill="#ffffff" stroke="#000000" points="167,-.5 167,-30.5 283,-30.5 283,-.5 167,-.5"/>
<text text-anchor="start" x="175" y="-18.5" font-family="Helvetica,sans-Serif" font-size="10.00" fill="#000000">PDI::Scalar_datatype</text>
<text text-anchor="middle" x="225" y="-7.5" font-family="Helvetica,sans-Serif" font-size="10.00" fill="#000000">::evaluate</text>
</a>
</g>
</g>
<!-- Node18&#45;&gt;Node21 -->
<g id="edge3" class="edge">
<title>Node18&#45;&gt;Node21</title>
<path fill="none" stroke="#191970" d="M119.2344,-46.533C137.1275,-41.283 156.4922,-35.6011 173.7018,-30.5516"/>
<polygon fill="#191970" stroke="#191970" points="118.0782,-43.2246 109.4682,-49.3986 120.0491,-49.9415 118.0782,-43.2246"/>
</g>
</g>
</svg>
