<?xml version="1.0" encoding="UTF-8" standalone="no"?>
<!DOCTYPE svg PUBLIC "-//W3C//DTD SVG 1.1//EN"
 "http://www.w3.org/Graphics/SVG/1.1/DTD/svg11.dtd">
<!-- Generated by graphviz version 2.40.1 (20161225.0304)
 -->
<!-- Title: PDI::Global_context::Global_context Pages: 1 -->
<svg width="416pt" height="66pt"
 viewBox="0.00 0.00 416.00 66.00" xmlns="http://www.w3.org/2000/svg" xmlns:xlink="http://www.w3.org/1999/xlink">
<g id="graph0" class="graph" transform="scale(1 1) rotate(0) translate(4 62)">
<title>PDI::Global_context::Global_context</title>
<polygon fill="#ffffff" stroke="transparent" points="-4,4 -4,-62 412,-62 412,4 -4,4"/>
<!-- Node1 -->
<g id="node1" class="node">
<title>Node1</title>
<polygon fill="#bfbfbf" stroke="#000000" points="0,-14 0,-44 109,-44 109,-14 0,-14"/>
<text text-anchor="start" x="8" y="-32" font-family="Helvetica,sans-Serif" font-size="10.00" fill="#000000">PDI::Global_context</text>
<text text-anchor="middle" x="54.5" y="-21" font-family="Helvetica,sans-Serif" font-size="10.00" fill="#000000">::Global_context</text>
</g>
<!-- Node2 -->
<g id="node2" class="node">
<title>Node2</title>
<g id="a_node2"><a xlink:href="classPDI_1_1Global__context.html#a20281f105cdf8d2b5002e89b3b076b3a" target="_top" xlink:title="PDI::Global_context\l::init">
<polygon fill="#ffffff" stroke="#000000" points="145,-14 145,-44 254,-44 254,-14 145,-14"/>
<text text-anchor="start" x="153" y="-32" font-family="Helvetica,sans-Serif" font-size="10.00" fill="#000000">PDI::Global_context</text>
<text text-anchor="middle" x="199.5" y="-21" font-family="Helvetica,sans-Serif" font-size="10.00" fill="#000000">::init</text>
</a>
</g>
</g>
<!-- Node1&#45;&gt;Node2 -->
<g id="edge1" class="edge">
<title>Node1&#45;&gt;Node2</title>
<path fill="none" stroke="#191970" d="M119.4621,-29C127.8588,-29 136.3919,-29 144.6042,-29"/>
<polygon fill="#191970" stroke="#191970" points="119.3183,-25.5001 109.3183,-29 119.3182,-32.5001 119.3183,-25.5001"/>
</g>
<!-- Node3 -->
<g id="node3" class="node">
<title>Node3</title>
<g id="a_node3"><a xlink:href="pdi_8cxx.html#a3dc660be40c93c169337e3d2692b2ed0" target="_top" xlink:title="Initialization / Finalization stuff. ">
<polygon fill="#ffffff" stroke="#000000" points="322.5,-38.5 322.5,-57.5 375.5,-57.5 375.5,-38.5 322.5,-38.5"/>
<text text-anchor="middle" x="349" y="-45.5" font-family="Helvetica,sans-Serif" font-size="10.00" fill="#000000">PDI_init</text>
</a>
</g>
</g>
<!-- Node2&#45;&gt;Node3 -->
<g id="edge2" class="edge">
<title>Node2&#45;&gt;Node3</title>
<path fill="none" stroke="#191970" d="M264.5075,-37.2618C284.8319,-39.8449 306.1339,-42.5521 322.2643,-44.6022"/>
<polygon fill="#191970" stroke="#191970" points="264.6809,-33.7558 254.3194,-35.967 263.7983,-40.6999 264.6809,-33.7558"/>
</g>
<!-- Node4 -->
<g id="node4" class="node">
<title>Node4</title>
<g id="a_node4"><a xlink:href="python_2pdi_8cxx.html#a727b802ea287c6ae55678b2643aa61b6" target="_top" xlink:title="PYBIND11_MODULE">
<polygon fill="#ffffff" stroke="#000000" points="290,-.5 290,-19.5 408,-19.5 408,-.5 290,-.5"/>
<text text-anchor="middle" x="349" y="-7.5" font-family="Helvetica,sans-Serif" font-size="10.00" fill="#000000">PYBIND11_MODULE</text>
</a>
</g>
</g>
<!-- Node2&#45;&gt;Node4 -->
<g id="edge3" class="edge">
<title>Node2&#45;&gt;Node4</title>
<path fill="none" stroke="#191970" d="M264.5075,-20.7382C272.9528,-19.6649 281.5669,-18.5701 289.9086,-17.5099"/>
<polygon fill="#191970" stroke="#191970" points="263.7983,-17.3001 254.3194,-22.033 264.6809,-24.2442 263.7983,-17.3001"/>
</g>
</g>
</svg>
