<?xml version="1.0" encoding="UTF-8" standalone="no"?>
<!DOCTYPE svg PUBLIC "-//W3C//DTD SVG 1.1//EN"
 "http://www.w3.org/Graphics/SVG/1.1/DTD/svg11.dtd">
<!-- Generated by graphviz version 2.40.1 (20161225.0304)
 -->
<!-- Title: PDI::Datatype::simple Pages: 1 -->
<svg width="293pt" height="88pt"
 viewBox="0.00 0.00 293.00 88.00" xmlns="http://www.w3.org/2000/svg" xmlns:xlink="http://www.w3.org/1999/xlink">
<g id="graph0" class="graph" transform="scale(1 1) rotate(0) translate(4 84)">
<title>PDI::Datatype::simple</title>
<polygon fill="#ffffff" stroke="transparent" points="-4,4 -4,-84 289,-84 289,4 -4,4"/>
<!-- Node43 -->
<g id="node1" class="node">
<title>Node43</title>
<polygon fill="#bfbfbf" stroke="#000000" points="0,-30 0,-49 116,-49 116,-30 0,-30"/>
<text text-anchor="middle" x="58" y="-37" font-family="Helvetica,sans-Serif" font-size="10.00" fill="#000000">PDI::Datatype::simple</text>
</g>
<!-- Node44 -->
<g id="node2" class="node">
<title>Node44</title>
<g id="a_node2"><a xlink:href="classPDI_1_1Array__datatype.html#a0b95036d9845592fc5e6e0e7f3784424" target="_top" xlink:title="PDI::Array_datatype\l::data_to_dense_copy">
<polygon fill="#ffffff" stroke="#000000" points="158,-49.5 158,-79.5 279,-79.5 279,-49.5 158,-49.5"/>
<text text-anchor="start" x="166" y="-67.5" font-family="Helvetica,sans-Serif" font-size="10.00" fill="#000000">PDI::Array_datatype</text>
<text text-anchor="middle" x="218.5" y="-56.5" font-family="Helvetica,sans-Serif" font-size="10.00" fill="#000000">::data_to_dense_copy</text>
</a>
</g>
</g>
<!-- Node43&#45;&gt;Node44 -->
<g id="edge1" class="edge">
<title>Node43&#45;&gt;Node44</title>
<path fill="none" stroke="#191970" d="M126.3654,-50.1488C136.8754,-51.7859 147.6636,-53.4663 157.9871,-55.0743"/>
<polygon fill="#191970" stroke="#191970" points="126.8178,-46.6772 116.3982,-48.5963 125.7404,-53.5938 126.8178,-46.6772"/>
</g>
<!-- Node45 -->
<g id="node3" class="node">
<title>Node45</title>
<g id="a_node3"><a xlink:href="classPDI_1_1Array__datatype.html#ab4b67b416c0e5f99fc9bf947030703b3" target="_top" xlink:title="PDI::Array_datatype\l::data_from_dense_copy">
<polygon fill="#ffffff" stroke="#000000" points="152,-.5 152,-30.5 285,-30.5 285,-.5 152,-.5"/>
<text text-anchor="start" x="160" y="-18.5" font-family="Helvetica,sans-Serif" font-size="10.00" fill="#000000">PDI::Array_datatype</text>
<text text-anchor="middle" x="218.5" y="-7.5" font-family="Helvetica,sans-Serif" font-size="10.00" fill="#000000">::data_from_dense_copy</text>
</a>
</g>
</g>
<!-- Node43&#45;&gt;Node45 -->
<g id="edge2" class="edge">
<title>Node43&#45;&gt;Node45</title>
<path fill="none" stroke="#191970" d="M126.5635,-29.2475C134.9896,-27.9875 143.5914,-26.7013 151.9865,-25.4459"/>
<polygon fill="#191970" stroke="#191970" points="125.7706,-25.8271 116.3982,-30.7676 126.8059,-32.7501 125.7706,-25.8271"/>
</g>
</g>
</svg>
