<?xml version="1.0" encoding="UTF-8" standalone="no"?>
<!DOCTYPE svg PUBLIC "-//W3C//DTD SVG 1.1//EN"
 "http://www.w3.org/Graphics/SVG/1.1/DTD/svg11.dtd">
<!-- Generated by graphviz version 2.40.1 (20161225.0304)
 -->
<!-- Title: PDI::Global_context::desc Pages: 1 -->
<svg width="262pt" height="88pt"
 viewBox="0.00 0.00 262.00 88.00" xmlns="http://www.w3.org/2000/svg" xmlns:xlink="http://www.w3.org/1999/xlink">
<g id="graph0" class="graph" transform="scale(1 1) rotate(0) translate(4 84)">
<title>PDI::Global_context::desc</title>
<polygon fill="#ffffff" stroke="transparent" points="-4,4 -4,-84 258,-84 258,4 -4,4"/>
<!-- Node38 -->
<g id="node1" class="node">
<title>Node38</title>
<polygon fill="#bfbfbf" stroke="#000000" points="0,-24.5 0,-54.5 109,-54.5 109,-24.5 0,-24.5"/>
<text text-anchor="start" x="8" y="-42.5" font-family="Helvetica,sans-Serif" font-size="10.00" fill="#000000">PDI::Global_context</text>
<text text-anchor="middle" x="54.5" y="-31.5" font-family="Helvetica,sans-Serif" font-size="10.00" fill="#000000">::desc</text>
</g>
<!-- Node39 -->
<g id="node2" class="node">
<title>Node39</title>
<g id="a_node2"><a xlink:href="classPDI_1_1Global__context.html#a1620bb4d46c173cab8f2dded9663b9ef" target="_top" xlink:title="PDI::Global_context\l::desc">
<polygon fill="#ffffff" stroke="#000000" points="145,-49.5 145,-79.5 254,-79.5 254,-49.5 145,-49.5"/>
<text text-anchor="start" x="153" y="-67.5" font-family="Helvetica,sans-Serif" font-size="10.00" fill="#000000">PDI::Global_context</text>
<text text-anchor="middle" x="199.5" y="-56.5" font-family="Helvetica,sans-Serif" font-size="10.00" fill="#000000">::desc</text>
</a>
</g>
</g>
<!-- Node38&#45;&gt;Node39 -->
<g id="edge1" class="edge">
<title>Node38&#45;&gt;Node39</title>
<path fill="none" stroke="#191970" d="M119.1853,-50.6526C127.6712,-52.1157 136.3016,-53.6037 144.6042,-55.0352"/>
<polygon fill="#191970" stroke="#191970" points="119.7676,-47.2015 109.3183,-48.9514 118.5782,-54.0997 119.7676,-47.2015"/>
</g>
<!-- Node40 -->
<g id="node3" class="node">
<title>Node40</title>
<g id="a_node3"><a xlink:href="classPDI_1_1Global__context.html#a3df1caa736e05c5b16e10aab4f2b550d" target="_top" xlink:title="PDI::Global_context\l::operator[]">
<polygon fill="#ffffff" stroke="#000000" points="145,-.5 145,-30.5 254,-30.5 254,-.5 145,-.5"/>
<text text-anchor="start" x="153" y="-18.5" font-family="Helvetica,sans-Serif" font-size="10.00" fill="#000000">PDI::Global_context</text>
<text text-anchor="middle" x="199.5" y="-7.5" font-family="Helvetica,sans-Serif" font-size="10.00" fill="#000000">::operator[]</text>
</a>
</g>
</g>
<!-- Node38&#45;&gt;Node40 -->
<g id="edge2" class="edge">
<title>Node38&#45;&gt;Node40</title>
<path fill="none" stroke="#191970" d="M119.1853,-28.7935C127.6712,-27.3889 136.3016,-25.9604 144.6042,-24.5862"/>
<polygon fill="#191970" stroke="#191970" points="118.6125,-25.3406 109.3183,-30.4266 119.7556,-32.2466 118.6125,-25.3406"/>
</g>
</g>
</svg>
