<?xml version="1.0" encoding="UTF-8" standalone="no"?>
<!DOCTYPE svg PUBLIC "-//W3C//DTD SVG 1.1//EN"
 "http://www.w3.org/Graphics/SVG/1.1/DTD/svg11.dtd">
<!-- Generated by graphviz version 2.40.1 (20161225.0304)
 -->
<!-- Title: PDI::Data_descriptor_impl::~Data_descriptor_impl Pages: 1 -->
<svg width="310pt" height="88pt"
 viewBox="0.00 0.00 310.00 88.00" xmlns="http://www.w3.org/2000/svg" xmlns:xlink="http://www.w3.org/1999/xlink">
<g id="graph0" class="graph" transform="scale(1 1) rotate(0) translate(4 84)">
<title>PDI::Data_descriptor_impl::~Data_descriptor_impl</title>
<polygon fill="#ffffff" stroke="transparent" points="-4,4 -4,-84 306,-84 306,4 -4,4"/>
<!-- Node8 -->
<g id="node1" class="node">
<title>Node8</title>
<polygon fill="#bfbfbf" stroke="#000000" points="0,-24.5 0,-54.5 152,-54.5 152,-24.5 0,-24.5"/>
<text text-anchor="start" x="8" y="-42.5" font-family="Helvetica,sans-Serif" font-size="10.00" fill="#000000">PDI::Data_descriptor</text>
<text text-anchor="middle" x="76" y="-31.5" font-family="Helvetica,sans-Serif" font-size="10.00" fill="#000000">_impl::~Data_descriptor_impl</text>
</g>
<!-- Node9 -->
<g id="node2" class="node">
<title>Node9</title>
<g id="a_node2"><a xlink:href="classPDI_1_1Data__descriptor__impl.html#a00fee097289f95d6120342e7242951cd" target="_top" xlink:title="PDI::Data_descriptor\l_impl::metadata">
<polygon fill="#ffffff" stroke="#000000" points="188,-49.5 188,-79.5 302,-79.5 302,-49.5 188,-49.5"/>
<text text-anchor="start" x="196" y="-67.5" font-family="Helvetica,sans-Serif" font-size="10.00" fill="#000000">PDI::Data_descriptor</text>
<text text-anchor="middle" x="245" y="-56.5" font-family="Helvetica,sans-Serif" font-size="10.00" fill="#000000">_impl::metadata</text>
</a>
</g>
</g>
<!-- Node8&#45;&gt;Node9 -->
<g id="edge1" class="edge">
<title>Node8&#45;&gt;Node9</title>
<path fill="none" stroke="#191970" d="M152.0954,-50.7567C160.6286,-52.019 169.2772,-53.2984 177.6886,-54.5427"/>
<polygon fill="#191970" stroke="#191970" points="177.4028,-58.0384 187.8073,-56.0395 178.4272,-51.1138 177.4028,-58.0384"/>
</g>
<!-- Node10 -->
<g id="node3" class="node">
<title>Node10</title>
<g id="a_node3"><a xlink:href="classPDI_1_1Global__context.html#ac513ebf3880a1068ba39ebd4ec4ab818" target="_top" xlink:title="PDI::Global_context\l::logger">
<polygon fill="#ffffff" stroke="#000000" points="190.5,-.5 190.5,-30.5 299.5,-30.5 299.5,-.5 190.5,-.5"/>
<text text-anchor="start" x="198.5" y="-18.5" font-family="Helvetica,sans-Serif" font-size="10.00" fill="#000000">PDI::Global_context</text>
<text text-anchor="middle" x="245" y="-7.5" font-family="Helvetica,sans-Serif" font-size="10.00" fill="#000000">::logger</text>
</a>
</g>
</g>
<!-- Node8&#45;&gt;Node10 -->
<g id="edge2" class="edge">
<title>Node8&#45;&gt;Node10</title>
<path fill="none" stroke="#191970" d="M152.0954,-28.6936C161.389,-27.3737 170.8196,-26.0345 179.9315,-24.7405"/>
<polygon fill="#191970" stroke="#191970" points="180.6509,-28.1735 190.0594,-23.3022 179.6666,-21.2431 180.6509,-28.1735"/>
</g>
</g>
</svg>
