<?xml version="1.0" encoding="UTF-8" standalone="no"?>
<!DOCTYPE svg PUBLIC "-//W3C//DTD SVG 1.1//EN"
 "http://www.w3.org/Graphics/SVG/1.1/DTD/svg11.dtd">
<!-- Generated by graphviz version 2.40.1 (20161225.0304)
 -->
<!-- Title: PDI::Record_datatype::simple Pages: 1 -->
<svg width="297pt" height="137pt"
 viewBox="0.00 0.00 297.00 137.00" xmlns="http://www.w3.org/2000/svg" xmlns:xlink="http://www.w3.org/1999/xlink">
<g id="graph0" class="graph" transform="scale(1 1) rotate(0) translate(4 133)">
<title>PDI::Record_datatype::simple</title>
<polygon fill="#ffffff" stroke="transparent" points="-4,4 -4,-133 293,-133 293,4 -4,4"/>
<!-- Node76 -->
<g id="node1" class="node">
<title>Node76</title>
<polygon fill="#bfbfbf" stroke="#000000" points="0,-49.5 0,-79.5 120,-79.5 120,-49.5 0,-49.5"/>
<text text-anchor="start" x="8" y="-67.5" font-family="Helvetica,sans-Serif" font-size="10.00" fill="#000000">PDI::Record_datatype</text>
<text text-anchor="middle" x="60" y="-56.5" font-family="Helvetica,sans-Serif" font-size="10.00" fill="#000000">::simple</text>
</g>
<!-- Node77 -->
<g id="node2" class="node">
<title>Node77</title>
<g id="a_node2"><a xlink:href="classPDI_1_1Record__datatype.html#a3d477bbeb305b9d51e3a7793eea75e32" target="_top" xlink:title="PDI::Record_datatype\l::data_to_dense_copy">
<polygon fill="#ffffff" stroke="#000000" points="162,-98.5 162,-128.5 283,-128.5 283,-98.5 162,-98.5"/>
<text text-anchor="start" x="170" y="-116.5" font-family="Helvetica,sans-Serif" font-size="10.00" fill="#000000">PDI::Record_datatype</text>
<text text-anchor="middle" x="222.5" y="-105.5" font-family="Helvetica,sans-Serif" font-size="10.00" fill="#000000">::data_to_dense_copy</text>
</a>
</g>
</g>
<!-- Node76&#45;&gt;Node77 -->
<g id="edge1" class="edge">
<title>Node76&#45;&gt;Node77</title>
<path fill="none" stroke="#191970" d="M120.0683,-82.6129C137.3441,-87.8222 155.9933,-93.4457 172.5841,-98.4484"/>
<polygon fill="#191970" stroke="#191970" points="120.666,-79.1375 110.0813,-79.6014 118.645,-85.8395 120.666,-79.1375"/>
</g>
<!-- Node78 -->
<g id="node3" class="node">
<title>Node78</title>
<g id="a_node3"><a xlink:href="classPDI_1_1Record__datatype.html#a3ffff5ec6228ae7b6c8aaa67139588e1" target="_top" xlink:title="PDI::Record_datatype\l::data_from_dense_copy">
<polygon fill="#ffffff" stroke="#000000" points="156,-49.5 156,-79.5 289,-79.5 289,-49.5 156,-49.5"/>
<text text-anchor="start" x="164" y="-67.5" font-family="Helvetica,sans-Serif" font-size="10.00" fill="#000000">PDI::Record_datatype</text>
<text text-anchor="middle" x="222.5" y="-56.5" font-family="Helvetica,sans-Serif" font-size="10.00" fill="#000000">::data_from_dense_copy</text>
</a>
</g>
</g>
<!-- Node76&#45;&gt;Node78 -->
<g id="edge2" class="edge">
<title>Node76&#45;&gt;Node78</title>
<path fill="none" stroke="#191970" d="M130.2929,-64.5C138.7793,-64.5 147.4283,-64.5 155.8601,-64.5"/>
<polygon fill="#191970" stroke="#191970" points="130.0473,-61.0001 120.0473,-64.5 130.0473,-68.0001 130.0473,-61.0001"/>
</g>
<!-- Node79 -->
<g id="node4" class="node">
<title>Node79</title>
<g id="a_node4"><a xlink:href="classPDI_1_1Record__datatype.html#a41cee70933ff1be0fec3fc25573265c8" target="_top" xlink:title="PDI::Record_datatype\l::destroy_data">
<polygon fill="#ffffff" stroke="#000000" points="162.5,-.5 162.5,-30.5 282.5,-30.5 282.5,-.5 162.5,-.5"/>
<text text-anchor="start" x="170.5" y="-18.5" font-family="Helvetica,sans-Serif" font-size="10.00" fill="#000000">PDI::Record_datatype</text>
<text text-anchor="middle" x="222.5" y="-7.5" font-family="Helvetica,sans-Serif" font-size="10.00" fill="#000000">::destroy_data</text>
</a>
</g>
</g>
<!-- Node76&#45;&gt;Node79 -->
<g id="edge3" class="edge">
<title>Node76&#45;&gt;Node79</title>
<path fill="none" stroke="#191970" d="M120.0683,-46.3871C137.3441,-41.1778 155.9933,-35.5543 172.5841,-30.5516"/>
<polygon fill="#191970" stroke="#191970" points="118.645,-43.1605 110.0813,-49.3986 120.666,-49.8625 118.645,-43.1605"/>
</g>
</g>
</svg>
