<?xml version="1.0" encoding="UTF-8" standalone="no"?>
<!DOCTYPE svg PUBLIC "-//W3C//DTD SVG 1.1//EN"
 "http://www.w3.org/Graphics/SVG/1.1/DTD/svg11.dtd">
<!-- Generated by graphviz version 2.40.1 (20161225.0304)
 -->
<!-- Title: PDI::Array_datatype::data_from_dense_copy Pages: 1 -->
<!--zoomable 478 -->
<svg id="main" version="1.1" xmlns="http://www.w3.org/2000/svg" xmlns:xlink="http://www.w3.org/1999/xlink" xml:space="preserve" onload="init(evt)">
<style type="text/css"><![CDATA[
.edge:hover path { stroke: red; }
.edge:hover polygon { stroke: red; fill: red; }
]]></style>
<script type="text/javascript"><![CDATA[
var edges = document.getElementsByTagName('g');
if (edges && edges.length) {
  for (var i=0;i<edges.length;i++) {
    if (edges[i].id.substr(0,4)=='edge') {
      edges[i].setAttribute('class','edge');
    }
  }
}
]]></script>
        <defs>
                <circle id="rim" cx="0" cy="0" r="7"/>
                <circle id="rim2" cx="0" cy="0" r="3.5"/>
                <g id="zoomPlus">
                        <use xlink:href="#rim" fill="#404040">
                                <set attributeName="fill" to="#808080" begin="zoomplus.mouseover" end="zoomplus.mouseout"/>
                        </use>
                        <path d="M-4,0h8M0,-4v8" fill="none" stroke="white" stroke-width="1.5" pointer-events="none"/>
                </g>
                <g id="zoomMin">
                        <use xlink:href="#rim" fill="#404040">
                                <set attributeName="fill" to="#808080" begin="zoomminus.mouseover" end="zoomminus.mouseout"/>
                        </use>
                        <path d="M-4,0h8" fill="none" stroke="white" stroke-width="1.5" pointer-events="none"/>
                </g>
                <g id="dirArrow">
                        <path fill="none" stroke="white" stroke-width="1.5" d="M0,-3.0v7 M-2.5,-0.5L0,-3.0L2.5,-0.5"/>
                </g>
               <g id="resetDef">
                       <use xlink:href="#rim2" fill="#404040">
                               <set attributeName="fill" to="#808080" begin="reset.mouseover" end="reset.mouseout"/>
                       </use>
               </g>
        </defs>

<script type="text/javascript">
var viewWidth = 308;
var viewHeight = 478;
var sectionId = 'dynsection-8';
</script>
<script xlink:href="svgpan.js"/>
<svg id="graph" class="graph">
<g id="viewport">
<title>PDI::Array_datatype::data_from_dense_copy</title>
<polygon fill="#ffffff" stroke="transparent" points="-4,4 -4,-473.5 304,-473.5 304,4 -4,4"/>
<!-- Node22 -->
<g id="node1" class="node">
<title>Node22</title>
<polygon fill="#bfbfbf" stroke="#000000" points="0,-225 0,-255 133,-255 133,-225 0,-225"/>
<text text-anchor="start" x="8" y="-243" font-family="Helvetica,sans-Serif" font-size="10.00" fill="#000000">PDI::Array_datatype</text>
<text text-anchor="middle" x="66.5" y="-232" font-family="Helvetica,sans-Serif" font-size="10.00" fill="#000000">::data_from_dense_copy</text>
</g>
<!-- Node23 -->
<g id="node2" class="node">
<title>Node23</title>
<g id="a_node2"><a xlink:href="classPDI_1_1Array__datatype.html#a6f9201d70ad6f5dcb52ce714f543f447" target="_top" xlink:title="PDI::Array_datatype\l::subtype">
<polygon fill="#ffffff" stroke="#000000" points="179,-439 179,-469 290,-469 290,-439 179,-439"/>
<text text-anchor="start" x="187" y="-457" font-family="Helvetica,sans-Serif" font-size="10.00" fill="#000000">PDI::Array_datatype</text>
<text text-anchor="middle" x="234.5" y="-446" font-family="Helvetica,sans-Serif" font-size="10.00" fill="#000000">::subtype</text>
</a>
</g>
</g>
<!-- Node22&#45;&gt;Node23 -->
<g id="edge1" class="edge">
<title>Node22&#45;&gt;Node23</title>
<path fill="none" stroke="#191970" d="M70.6862,-255.0499C81.2507,-290.3682 112.2751,-379.3249 169,-429 170.9229,-430.684 172.9712,-432.2599 175.1111,-433.7341"/>
<polygon fill="#191970" stroke="#191970" points="173.3761,-436.7748 183.7494,-438.93 176.9842,-430.7763 173.3761,-436.7748"/>
</g>
<!-- Node24 -->
<g id="node3" class="node">
<title>Node24</title>
<g id="a_node3"><a xlink:href="classPDI_1_1Datatype.html#a341a15d47396f1cd9bb12e43a5cd5a40" target="_top" xlink:title="PDI::Datatype::buffersize">
<polygon fill="#ffffff" stroke="#000000" points="169,-400.5 169,-419.5 300,-419.5 300,-400.5 169,-400.5"/>
<text text-anchor="middle" x="234.5" y="-407.5" font-family="Helvetica,sans-Serif" font-size="10.00" fill="#000000">PDI::Datatype::buffersize</text>
</a>
</g>
</g>
<!-- Node22&#45;&gt;Node24 -->
<g id="edge2" class="edge">
<title>Node22&#45;&gt;Node24</title>
<path fill="none" stroke="#191970" d="M72.672,-255.4482C85.7081,-286.079 119.0174,-354.6807 169,-391 171.682,-392.9488 174.5609,-394.6987 177.5615,-396.2697"/>
<polygon fill="#191970" stroke="#191970" points="176.2991,-399.5399 186.8533,-400.4666 179.1806,-393.1605 176.2991,-399.5399"/>
</g>
<!-- Node25 -->
<g id="node4" class="node">
<title>Node25</title>
<g id="a_node4"><a xlink:href="classPDI_1_1Array__datatype.html#ac8bc6acc7335a71d63e1a19f2227d2f9" target="_top" xlink:title="PDI::Array_datatype\l::start">
<polygon fill="#ffffff" stroke="#000000" points="179,-351 179,-381 290,-381 290,-351 179,-351"/>
<text text-anchor="start" x="187" y="-369" font-family="Helvetica,sans-Serif" font-size="10.00" fill="#000000">PDI::Array_datatype</text>
<text text-anchor="middle" x="234.5" y="-358" font-family="Helvetica,sans-Serif" font-size="10.00" fill="#000000">::start</text>
</a>
</g>
</g>
<!-- Node22&#45;&gt;Node25 -->
<g id="edge3" class="edge">
<title>Node22&#45;&gt;Node25</title>
<path fill="none" stroke="#191970" d="M78.5314,-255.3524C96.258,-277.0737 131.383,-316.8185 169,-341 172.1004,-342.993 175.3838,-344.8644 178.7635,-346.6149"/>
<polygon fill="#191970" stroke="#191970" points="177.3431,-349.8152 187.8751,-350.9671 180.3602,-343.4987 177.3431,-349.8152"/>
</g>
<!-- Node26 -->
<g id="node5" class="node">
<title>Node26</title>
<g id="a_node5"><a xlink:href="classPDI_1_1Datatype.html#ae5f85834cbae56fca2b4cf7e7fbd0df3" target="_top" xlink:title="PDI::Datatype::simple">
<polygon fill="#ffffff" stroke="#000000" points="176.5,-312.5 176.5,-331.5 292.5,-331.5 292.5,-312.5 176.5,-312.5"/>
<text text-anchor="middle" x="234.5" y="-319.5" font-family="Helvetica,sans-Serif" font-size="10.00" fill="#000000">PDI::Datatype::simple</text>
</a>
</g>
</g>
<!-- Node22&#45;&gt;Node26 -->
<g id="edge4" class="edge">
<title>Node22&#45;&gt;Node26</title>
<path fill="none" stroke="#191970" d="M87.1771,-255.0228C107.2551,-269.0385 139.0127,-289.7263 169,-303 174.1428,-305.2764 179.6322,-307.3622 185.1625,-309.2498"/>
<polygon fill="#191970" stroke="#191970" points="184.504,-312.714 195.0951,-312.4315 186.6395,-306.0476 184.504,-312.714"/>
</g>
<!-- Node27 -->
<g id="node6" class="node">
<title>Node27</title>
<g id="a_node6"><a xlink:href="classPDI_1_1Datatype.html#a15b82a52cfafc5fc1dbc21b043588693" target="_top" xlink:title="PDI::Datatype::dense">
<polygon fill="#ffffff" stroke="#000000" points="177,-274.5 177,-293.5 292,-293.5 292,-274.5 177,-274.5"/>
<text text-anchor="middle" x="234.5" y="-281.5" font-family="Helvetica,sans-Serif" font-size="10.00" fill="#000000">PDI::Datatype::dense</text>
</a>
</g>
</g>
<!-- Node22&#45;&gt;Node27 -->
<g id="edge5" class="edge">
<title>Node22&#45;&gt;Node27</title>
<path fill="none" stroke="#191970" d="M123.8462,-255.0192C144.9072,-260.5352 168.4622,-266.7044 188.4085,-271.9284"/>
<polygon fill="#191970" stroke="#191970" points="187.6193,-275.3397 198.1799,-274.4876 189.3929,-268.5681 187.6193,-275.3397"/>
</g>
<!-- Node28 -->
<g id="node7" class="node">
<title>Node28</title>
<g id="a_node7"><a xlink:href="classPDI_1_1Array__datatype.html#a00fb46532bb0b8a63111130715a10137" target="_top" xlink:title="PDI::Array_datatype\l::datasize">
<polygon fill="#ffffff" stroke="#000000" points="179,-225 179,-255 290,-255 290,-225 179,-225"/>
<text text-anchor="start" x="187" y="-243" font-family="Helvetica,sans-Serif" font-size="10.00" fill="#000000">PDI::Array_datatype</text>
<text text-anchor="middle" x="234.5" y="-232" font-family="Helvetica,sans-Serif" font-size="10.00" fill="#000000">::datasize</text>
</a>
</g>
</g>
<!-- Node22&#45;&gt;Node28 -->
<g id="edge6" class="edge">
<title>Node22&#45;&gt;Node28</title>
<path fill="none" stroke="#191970" d="M133.3808,-240C145.0582,-240 157.1966,-240 168.8406,-240"/>
<polygon fill="#191970" stroke="#191970" points="168.9221,-243.5001 178.922,-240 168.922,-236.5001 168.9221,-243.5001"/>
</g>
<!-- Node29 -->
<g id="node8" class="node">
<title>Node29</title>
<g id="a_node8"><a xlink:href="classPDI_1_1Array__datatype.html#adb00b9bfc6a70d320111bff1244ad979" target="_top" xlink:title="PDI::Array_datatype\l::buffersize">
<polygon fill="#ffffff" stroke="#000000" points="179,-176 179,-206 290,-206 290,-176 179,-176"/>
<text text-anchor="start" x="187" y="-194" font-family="Helvetica,sans-Serif" font-size="10.00" fill="#000000">PDI::Array_datatype</text>
<text text-anchor="middle" x="234.5" y="-183" font-family="Helvetica,sans-Serif" font-size="10.00" fill="#000000">::buffersize</text>
</a>
</g>
</g>
<!-- Node22&#45;&gt;Node29 -->
<g id="edge7" class="edge">
<title>Node22&#45;&gt;Node29</title>
<path fill="none" stroke="#191970" d="M118.2764,-224.8986C135.6032,-219.8449 155.0861,-214.1624 173.0766,-208.9152"/>
<polygon fill="#191970" stroke="#191970" points="174.2746,-212.2116 182.8946,-206.0516 172.3146,-205.4916 174.2746,-212.2116"/>
</g>
<!-- Node30 -->
<g id="node9" class="node">
<title>Node30</title>
<g id="a_node9"><a xlink:href="classPDI_1_1Datatype.html#a2d1d0228dddffc6ee786d56494fde972" target="_top" xlink:title="PDI::Datatype::alignment">
<polygon fill="#ffffff" stroke="#000000" points="169,-137.5 169,-156.5 300,-156.5 300,-137.5 169,-137.5"/>
<text text-anchor="middle" x="234.5" y="-144.5" font-family="Helvetica,sans-Serif" font-size="10.00" fill="#000000">PDI::Datatype::alignment</text>
</a>
</g>
</g>
<!-- Node22&#45;&gt;Node30 -->
<g id="edge8" class="edge">
<title>Node22&#45;&gt;Node30</title>
<path fill="none" stroke="#191970" d="M83.8885,-224.9225C103.4287,-208.648 136.6614,-182.9259 169,-167 174.3983,-164.3415 180.222,-161.9525 186.0921,-159.8303"/>
<polygon fill="#191970" stroke="#191970" points="187.5883,-163.0196 195.9477,-156.5103 185.3536,-156.3859 187.5883,-163.0196"/>
</g>
<!-- Node31 -->
<g id="node10" class="node">
<title>Node31</title>
<g id="a_node10"><a xlink:href="classPDI_1_1Array__datatype.html#ab50be2accef49e18e36c9ac96d196a04" target="_top" xlink:title="PDI::Array_datatype\l::subsize">
<polygon fill="#ffffff" stroke="#000000" points="179,-88 179,-118 290,-118 290,-88 179,-88"/>
<text text-anchor="start" x="187" y="-106" font-family="Helvetica,sans-Serif" font-size="10.00" fill="#000000">PDI::Array_datatype</text>
<text text-anchor="middle" x="234.5" y="-95" font-family="Helvetica,sans-Serif" font-size="10.00" fill="#000000">::subsize</text>
</a>
</g>
</g>
<!-- Node22&#45;&gt;Node31 -->
<g id="edge9" class="edge">
<title>Node22&#45;&gt;Node31</title>
<path fill="none" stroke="#191970" d="M76.7456,-224.8765C93.4886,-201.1987 128.8937,-155.2699 169,-128 171.8545,-126.0591 174.8803,-124.2415 178.0046,-122.5436"/>
<polygon fill="#191970" stroke="#191970" points="179.609,-125.6547 187.0092,-118.0726 176.4959,-119.385 179.609,-125.6547"/>
</g>
<!-- Node32 -->
<g id="node11" class="node">
<title>Node32</title>
<g id="a_node11"><a xlink:href="classPDI_1_1Datatype.html#a00559b1afaf47436b64a26841b486a14" target="_top" xlink:title="PDI::Datatype::data\l_from_dense_copy">
<polygon fill="#ffffff" stroke="#000000" points="181,-39 181,-69 288,-69 288,-39 181,-39"/>
<text text-anchor="start" x="189" y="-57" font-family="Helvetica,sans-Serif" font-size="10.00" fill="#000000">PDI::Datatype::data</text>
<text text-anchor="middle" x="234.5" y="-46" font-family="Helvetica,sans-Serif" font-size="10.00" fill="#000000">_from_dense_copy</text>
</a>
</g>
</g>
<!-- Node22&#45;&gt;Node32 -->
<g id="edge10" class="edge">
<title>Node22&#45;&gt;Node32</title>
<path fill="none" stroke="#191970" d="M72.2634,-224.8615C84.9862,-193.3591 118.4173,-120.2603 169,-79 171.0632,-77.317 173.2521,-75.7392 175.5301,-74.2607"/>
<polygon fill="#191970" stroke="#191970" points="177.7301,-77.0351 184.6808,-69.0389 174.2607,-70.9553 177.7301,-77.0351"/>
</g>
<!-- Node33 -->
<g id="node12" class="node">
<title>Node33</title>
<g id="a_node12"><a xlink:href="classPDI_1_1Datatype.html#aa5254560c8fd98403b2067091f93b3c9" target="_top" xlink:title="PDI::Datatype::datasize">
<polygon fill="#ffffff" stroke="#000000" points="172,-.5 172,-19.5 297,-19.5 297,-.5 172,-.5"/>
<text text-anchor="middle" x="234.5" y="-7.5" font-family="Helvetica,sans-Serif" font-size="10.00" fill="#000000">PDI::Datatype::datasize</text>
</a>
</g>
</g>
<!-- Node22&#45;&gt;Node33 -->
<g id="edge11" class="edge">
<title>Node22&#45;&gt;Node33</title>
<path fill="none" stroke="#191970" d="M69.5514,-224.7458C78.0673,-186.1752 105.7416,-83.9924 169,-30 171.5322,-27.8387 174.2941,-25.9109 177.205,-24.1915"/>
<polygon fill="#191970" stroke="#191970" points="178.9317,-27.2412 186.3048,-19.6327 175.7963,-20.9826 178.9317,-27.2412"/>
</g>
</g>
</svg>
        <g id="navigator" transform="translate(0 0)" fill="#404254">
                <rect fill="#f2f5e9" fill-opacity="0.5" stroke="#606060" stroke-width=".5" x="0" y="0" width="60" height="60"/>
                <use id="zoomplus" xlink:href="#zoomPlus" x="17" y="9" onmousedown="handleZoom(evt,'in')"/>
                <use id="zoomminus" xlink:href="#zoomMin" x="42" y="9" onmousedown="handleZoom(evt,'out')"/>
                <use id="reset" xlink:href="#resetDef" x="30" y="36" onmousedown="handleReset()"/>
                <g id="arrowUp" xlink:href="#dirArrow" transform="translate(30 24)" onmousedown="handlePan(0,-1)">
                  <use xlink:href="#rim" fill="#404040">
                        <set attributeName="fill" to="#808080" begin="arrowUp.mouseover" end="arrowUp.mouseout"/>
                  </use>
                  <path fill="none" stroke="white" stroke-width="1.5" d="M0,-3.0v7 M-2.5,-0.5L0,-3.0L2.5,-0.5"/>
                </g>
                <g id="arrowRight" xlink:href="#dirArrow" transform="rotate(90) translate(36 -43)" onmousedown="handlePan(1,0)">
                  <use xlink:href="#rim" fill="#404040">
                        <set attributeName="fill" to="#808080" begin="arrowRight.mouseover" end="arrowRight.mouseout"/>
                  </use>
                  <path fill="none" stroke="white" stroke-width="1.5" d="M0,-3.0v7 M-2.5,-0.5L0,-3.0L2.5,-0.5"/>
                </g>
                <g id="arrowDown" xlink:href="#dirArrow" transform="rotate(180) translate(-30 -48)" onmousedown="handlePan(0,1)">
                  <use xlink:href="#rim" fill="#404040">
                        <set attributeName="fill" to="#808080" begin="arrowDown.mouseover" end="arrowDown.mouseout"/>
                  </use>
                  <path fill="none" stroke="white" stroke-width="1.5" d="M0,-3.0v7 M-2.5,-0.5L0,-3.0L2.5,-0.5"/>
                </g>
                <g id="arrowLeft" xlink:href="#dirArrow" transform="rotate(270) translate(-36 17)" onmousedown="handlePan(-1,0)">
                  <use xlink:href="#rim" fill="#404040">
                        <set attributeName="fill" to="#808080" begin="arrowLeft.mouseover" end="arrowLeft.mouseout"/>
                  </use>
                  <path fill="none" stroke="white" stroke-width="1.5" d="M0,-3.0v7 M-2.5,-0.5L0,-3.0L2.5,-0.5"/>
                </g>
        </g>
        <svg viewBox="0 0 15 15" width="100%" height="30px" preserveAspectRatio="xMaxYMin meet">
         <g id="arrow_out" transform="scale(0.3 0.3)">
          <a xlink:href="classPDI_1_1Array__datatype_ab4b67b416c0e5f99fc9bf947030703b3_cgraph_org.svg" target="_base">
           <rect id="button" ry="5" rx="5" y="6" x="6" height="38" width="38"
                fill="#f2f5e9" fill-opacity="0.5" stroke="#606060" stroke-width="1.0"/>
           <path id="arrow"
             d="M 11.500037,31.436501 C 11.940474,20.09759 22.043105,11.32322 32.158766,21.979434 L 37.068811,17.246167 C 37.068811,17.246167 37.088388,32 37.088388,32 L 22.160133,31.978069 C 22.160133,31.978069 26.997745,27.140456 26.997745,27.140456 C 18.528582,18.264221 13.291696,25.230495 11.500037,31.436501 z"
             style="fill:#404040;"/>
          </a>
         </g>
        </svg>
</svg>
