<?xml version="1.0" encoding="UTF-8" standalone="no"?>
<!DOCTYPE svg PUBLIC "-//W3C//DTD SVG 1.1//EN"
 "http://www.w3.org/Graphics/SVG/1.1/DTD/svg11.dtd">
<!-- Generated by graphviz version 2.40.1 (20161225.0304)
 -->
<!-- Title: PDI::Record_datatype::members Pages: 1 -->
<svg width="297pt" height="235pt"
 viewBox="0.00 0.00 297.00 235.00" xmlns="http://www.w3.org/2000/svg" xmlns:xlink="http://www.w3.org/1999/xlink">
<g id="graph0" class="graph" transform="scale(1 1) rotate(0) translate(4 231)">
<title>PDI::Record_datatype::members</title>
<polygon fill="#ffffff" stroke="transparent" points="-4,4 -4,-231 293,-231 293,4 -4,4"/>
<!-- Node67 -->
<g id="node1" class="node">
<title>Node67</title>
<polygon fill="#bfbfbf" stroke="#000000" points="0,-98.5 0,-128.5 120,-128.5 120,-98.5 0,-98.5"/>
<text text-anchor="start" x="8" y="-116.5" font-family="Helvetica,sans-Serif" font-size="10.00" fill="#000000">PDI::Record_datatype</text>
<text text-anchor="middle" x="60" y="-105.5" font-family="Helvetica,sans-Serif" font-size="10.00" fill="#000000">::members</text>
</g>
<!-- Node68 -->
<g id="node2" class="node">
<title>Node68</title>
<g id="a_node2"><a xlink:href="classPDI_1_1Record__datatype.html#acf74cad00490ddb45a9bb36b6f30c3fd" target="_top" xlink:title="PDI::Record_datatype\l::Record_datatype">
<polygon fill="#ffffff" stroke="#000000" points="162.5,-196.5 162.5,-226.5 282.5,-226.5 282.5,-196.5 162.5,-196.5"/>
<text text-anchor="start" x="170.5" y="-214.5" font-family="Helvetica,sans-Serif" font-size="10.00" fill="#000000">PDI::Record_datatype</text>
<text text-anchor="middle" x="222.5" y="-203.5" font-family="Helvetica,sans-Serif" font-size="10.00" fill="#000000">::Record_datatype</text>
</a>
</g>
</g>
<!-- Node67&#45;&gt;Node68 -->
<g id="edge1" class="edge">
<title>Node67&#45;&gt;Node68</title>
<path fill="none" stroke="#191970" d="M83.8939,-135.3236C102.4768,-151.4193 129.4789,-172.9588 156,-187.5 162.027,-190.8045 168.5993,-193.8117 175.1899,-196.4936"/>
<polygon fill="#191970" stroke="#191970" points="86.0454,-132.5547 76.226,-128.576 81.421,-137.8098 86.0454,-132.5547"/>
</g>
<!-- Node69 -->
<g id="node3" class="node">
<title>Node69</title>
<g id="a_node3"><a xlink:href="classPDI_1_1Record__datatype.html#a3d477bbeb305b9d51e3a7793eea75e32" target="_top" xlink:title="PDI::Record_datatype\l::data_to_dense_copy">
<polygon fill="#ffffff" stroke="#000000" points="162,-147.5 162,-177.5 283,-177.5 283,-147.5 162,-147.5"/>
<text text-anchor="start" x="170" y="-165.5" font-family="Helvetica,sans-Serif" font-size="10.00" fill="#000000">PDI::Record_datatype</text>
<text text-anchor="middle" x="222.5" y="-154.5" font-family="Helvetica,sans-Serif" font-size="10.00" fill="#000000">::data_to_dense_copy</text>
</a>
</g>
</g>
<!-- Node67&#45;&gt;Node69 -->
<g id="edge2" class="edge">
<title>Node67&#45;&gt;Node69</title>
<path fill="none" stroke="#191970" d="M120.0683,-131.6129C137.3441,-136.8222 155.9933,-142.4457 172.5841,-147.4484"/>
<polygon fill="#191970" stroke="#191970" points="120.666,-128.1375 110.0813,-128.6014 118.645,-134.8395 120.666,-128.1375"/>
</g>
<!-- Node70 -->
<g id="node4" class="node">
<title>Node70</title>
<g id="a_node4"><a xlink:href="classPDI_1_1Record__datatype.html#a3ffff5ec6228ae7b6c8aaa67139588e1" target="_top" xlink:title="PDI::Record_datatype\l::data_from_dense_copy">
<polygon fill="#ffffff" stroke="#000000" points="156,-98.5 156,-128.5 289,-128.5 289,-98.5 156,-98.5"/>
<text text-anchor="start" x="164" y="-116.5" font-family="Helvetica,sans-Serif" font-size="10.00" fill="#000000">PDI::Record_datatype</text>
<text text-anchor="middle" x="222.5" y="-105.5" font-family="Helvetica,sans-Serif" font-size="10.00" fill="#000000">::data_from_dense_copy</text>
</a>
</g>
</g>
<!-- Node67&#45;&gt;Node70 -->
<g id="edge3" class="edge">
<title>Node67&#45;&gt;Node70</title>
<path fill="none" stroke="#191970" d="M130.2929,-113.5C138.7793,-113.5 147.4283,-113.5 155.8601,-113.5"/>
<polygon fill="#191970" stroke="#191970" points="130.0473,-110.0001 120.0473,-113.5 130.0473,-117.0001 130.0473,-110.0001"/>
</g>
<!-- Node71 -->
<g id="node5" class="node">
<title>Node71</title>
<g id="a_node5"><a xlink:href="classPDI_1_1Record__datatype.html#a41cee70933ff1be0fec3fc25573265c8" target="_top" xlink:title="PDI::Record_datatype\l::destroy_data">
<polygon fill="#ffffff" stroke="#000000" points="162.5,-49.5 162.5,-79.5 282.5,-79.5 282.5,-49.5 162.5,-49.5"/>
<text text-anchor="start" x="170.5" y="-67.5" font-family="Helvetica,sans-Serif" font-size="10.00" fill="#000000">PDI::Record_datatype</text>
<text text-anchor="middle" x="222.5" y="-56.5" font-family="Helvetica,sans-Serif" font-size="10.00" fill="#000000">::destroy_data</text>
</a>
</g>
</g>
<!-- Node67&#45;&gt;Node71 -->
<g id="edge4" class="edge">
<title>Node67&#45;&gt;Node71</title>
<path fill="none" stroke="#191970" d="M120.0683,-95.3871C137.3441,-90.1778 155.9933,-84.5543 172.5841,-79.5516"/>
<polygon fill="#191970" stroke="#191970" points="118.645,-92.1605 110.0813,-98.3986 120.666,-98.8625 118.645,-92.1605"/>
</g>
<!-- Node72 -->
<g id="node6" class="node">
<title>Node72</title>
<g id="a_node6"><a xlink:href="classPDI_1_1Record__datatype.html#a9050d4e6cd9f520581ccfeba402b358c" target="_top" xlink:title="PDI::Record_datatype\l::debug_string">
<polygon fill="#ffffff" stroke="#000000" points="162.5,-.5 162.5,-30.5 282.5,-30.5 282.5,-.5 162.5,-.5"/>
<text text-anchor="start" x="170.5" y="-18.5" font-family="Helvetica,sans-Serif" font-size="10.00" fill="#000000">PDI::Record_datatype</text>
<text text-anchor="middle" x="222.5" y="-7.5" font-family="Helvetica,sans-Serif" font-size="10.00" fill="#000000">::debug_string</text>
</a>
</g>
</g>
<!-- Node67&#45;&gt;Node72 -->
<g id="edge5" class="edge">
<title>Node67&#45;&gt;Node72</title>
<path fill="none" stroke="#191970" d="M84.3383,-91.8052C102.9635,-76.0216 129.82,-54.968 156,-40.5 162.5851,-36.8608 169.8077,-33.5365 176.9901,-30.5836"/>
<polygon fill="#191970" stroke="#191970" points="81.9382,-89.253 76.6394,-98.4276 86.503,-94.5599 81.9382,-89.253"/>
</g>
</g>
</svg>
