<?xml version="1.0" encoding="UTF-8" standalone="no"?>
<!DOCTYPE svg PUBLIC "-//W3C//DTD SVG 1.1//EN"
 "http://www.w3.org/Graphics/SVG/1.1/DTD/svg11.dtd">
<!-- Generated by graphviz version 2.40.1 (20161225.0304)
 -->
<!-- Title: PDI::Datatype::data_to_dense_copy Pages: 1 -->
<svg width="279pt" height="78pt"
 viewBox="0.00 0.00 279.00 77.50" xmlns="http://www.w3.org/2000/svg" xmlns:xlink="http://www.w3.org/1999/xlink">
<g id="graph0" class="graph" transform="scale(1 1) rotate(0) translate(4 73.5)">
<title>PDI::Datatype::data_to_dense_copy</title>
<polygon fill="#ffffff" stroke="transparent" points="-4,4 -4,-73.5 275,-73.5 275,4 -4,4"/>
<!-- Node18 -->
<g id="node1" class="node">
<title>Node18</title>
<polygon fill="#bfbfbf" stroke="#000000" points="0,-17 0,-47 107,-47 107,-17 0,-17"/>
<text text-anchor="start" x="8" y="-35" font-family="Helvetica,sans-Serif" font-size="10.00" fill="#000000">PDI::Datatype::data</text>
<text text-anchor="middle" x="53.5" y="-24" font-family="Helvetica,sans-Serif" font-size="10.00" fill="#000000">_to_dense_copy</text>
</g>
<!-- Node19 -->
<g id="node2" class="node">
<title>Node19</title>
<g id="a_node2"><a xlink:href="classPDI_1_1Array__datatype.html#a0b95036d9845592fc5e6e0e7f3784424" target="_top" xlink:title="PDI::Array_datatype\l::data_to_dense_copy">
<polygon fill="#ffffff" stroke="#000000" points="146.5,-39 146.5,-69 267.5,-69 267.5,-39 146.5,-39"/>
<text text-anchor="start" x="154.5" y="-57" font-family="Helvetica,sans-Serif" font-size="10.00" fill="#000000">PDI::Array_datatype</text>
<text text-anchor="middle" x="207" y="-46" font-family="Helvetica,sans-Serif" font-size="10.00" fill="#000000">::data_to_dense_copy</text>
</a>
</g>
</g>
<!-- Node18&#45;&gt;Node19 -->
<g id="edge1" class="edge">
<title>Node18&#45;&gt;Node19</title>
<path fill="none" stroke="#191970" d="M117.1059,-41.1162C126.7488,-42.4982 136.677,-43.9211 146.257,-45.2942"/>
<polygon fill="#191970" stroke="#191970" points="117.5823,-37.6487 107.1869,-39.6945 116.5891,-44.5779 117.5823,-37.6487"/>
</g>
<!-- Node20 -->
<g id="node3" class="node">
<title>Node20</title>
<g id="a_node3"><a xlink:href="classPDI_1_1Ref__base.html#ac096ceaa80d0946c9c9f2044d2306f65" target="_top" xlink:title="PDI::Ref_base::do_copy">
<polygon fill="#ffffff" stroke="#000000" points="143,-.5 143,-19.5 271,-19.5 271,-.5 143,-.5"/>
<text text-anchor="middle" x="207" y="-7.5" font-family="Helvetica,sans-Serif" font-size="10.00" fill="#000000">PDI::Ref_base::do_copy</text>
</a>
</g>
</g>
<!-- Node18&#45;&gt;Node20 -->
<g id="edge2" class="edge">
<title>Node18&#45;&gt;Node20</title>
<path fill="none" stroke="#191970" d="M117.3208,-22.853C125.7388,-21.6465 134.3706,-20.4094 142.7951,-19.202"/>
<polygon fill="#191970" stroke="#191970" points="116.5891,-19.4221 107.1869,-24.3055 117.5823,-26.3513 116.5891,-19.4221"/>
</g>
</g>
</svg>
