<?xml version="1.0" encoding="UTF-8" standalone="no"?>
<!DOCTYPE svg PUBLIC "-//W3C//DTD SVG 1.1//EN"
 "http://www.w3.org/Graphics/SVG/1.1/DTD/svg11.dtd">
<!-- Generated by graphviz version 2.40.1 (20161225.0304)
 -->
<!-- Title: PDI::Global_context::event Pages: 1 -->
<svg width="423pt" height="85pt"
 viewBox="0.00 0.00 423.00 85.00" xmlns="http://www.w3.org/2000/svg" xmlns:xlink="http://www.w3.org/1999/xlink">
<g id="graph0" class="graph" transform="scale(1 1) rotate(0) translate(4 81)">
<title>PDI::Global_context::event</title>
<polygon fill="#ffffff" stroke="transparent" points="-4,4 -4,-81 419,-81 419,4 -4,4"/>
<!-- Node50 -->
<g id="node1" class="node">
<title>Node50</title>
<polygon fill="#bfbfbf" stroke="#000000" points="0,-14 0,-44 109,-44 109,-14 0,-14"/>
<text text-anchor="start" x="8" y="-32" font-family="Helvetica,sans-Serif" font-size="10.00" fill="#000000">PDI::Global_context</text>
<text text-anchor="middle" x="54.5" y="-21" font-family="Helvetica,sans-Serif" font-size="10.00" fill="#000000">::event</text>
</g>
<!-- Node51 -->
<g id="node2" class="node">
<title>Node51</title>
<g id="a_node2"><a xlink:href="pdi_8cxx.html#af047cf4c39c3e80684372feb273cc06d" target="_top" xlink:title="PDI_event">
<polygon fill="#ffffff" stroke="#000000" points="171,-38.5 171,-57.5 237,-57.5 237,-38.5 171,-38.5"/>
<text text-anchor="middle" x="204" y="-45.5" font-family="Helvetica,sans-Serif" font-size="10.00" fill="#000000">PDI_event</text>
</a>
</g>
</g>
<!-- Node50&#45;&gt;Node51 -->
<g id="edge1" class="edge">
<title>Node50&#45;&gt;Node51</title>
<path fill="none" stroke="#191970" d="M119.6377,-37.2784C137.3585,-39.5305 155.8122,-41.8758 170.9254,-43.7965"/>
<polygon fill="#191970" stroke="#191970" points="119.6809,-33.7558 109.3194,-35.967 118.7983,-40.6999 119.6809,-33.7558"/>
</g>
<!-- Node54 -->
<g id="node5" class="node">
<title>Node54</title>
<g id="a_node5"><a xlink:href="python_2pdi_8cxx.html#a727b802ea287c6ae55678b2643aa61b6" target="_top" xlink:title="PYBIND11_MODULE">
<polygon fill="#ffffff" stroke="#000000" points="145,-.5 145,-19.5 263,-19.5 263,-.5 145,-.5"/>
<text text-anchor="middle" x="204" y="-7.5" font-family="Helvetica,sans-Serif" font-size="10.00" fill="#000000">PYBIND11_MODULE</text>
</a>
</g>
</g>
<!-- Node50&#45;&gt;Node54 -->
<g id="edge4" class="edge">
<title>Node50&#45;&gt;Node54</title>
<path fill="none" stroke="#191970" d="M119.5075,-20.7382C127.9528,-19.6649 136.5669,-18.5701 144.9086,-17.5099"/>
<polygon fill="#191970" stroke="#191970" points="118.7983,-17.3001 109.3194,-22.033 119.6809,-24.2442 118.7983,-17.3001"/>
</g>
<!-- Node52 -->
<g id="node3" class="node">
<title>Node52</title>
<g id="a_node3"><a xlink:href="pdi_8cxx.html#ae5c670b378e423e3083122f62c1f0a59" target="_top" xlink:title="PDI_multi_expose">
<polygon fill="#ffffff" stroke="#000000" points="306.5,-57.5 306.5,-76.5 407.5,-76.5 407.5,-57.5 306.5,-57.5"/>
<text text-anchor="middle" x="357" y="-64.5" font-family="Helvetica,sans-Serif" font-size="10.00" fill="#000000">PDI_multi_expose</text>
</a>
</g>
</g>
<!-- Node51&#45;&gt;Node52 -->
<g id="edge2" class="edge">
<title>Node51&#45;&gt;Node52</title>
<path fill="none" stroke="#191970" d="M247.3349,-53.3815C265.7253,-55.6652 287.2867,-58.3428 306.4018,-60.7166"/>
<polygon fill="#191970" stroke="#191970" points="247.5539,-49.8818 237.1987,-52.1227 246.6911,-56.8285 247.5539,-49.8818"/>
</g>
<!-- Node53 -->
<g id="node4" class="node">
<title>Node53</title>
<g id="a_node4"><a xlink:href="pdi_8cxx.html#aec4ebe672273ed893952e34bc408ba73" target="_top" xlink:title="PDI_transaction_end">
<polygon fill="#ffffff" stroke="#000000" points="299,-19.5 299,-38.5 415,-38.5 415,-19.5 299,-19.5"/>
<text text-anchor="middle" x="357" y="-26.5" font-family="Helvetica,sans-Serif" font-size="10.00" fill="#000000">PDI_transaction_end</text>
</a>
</g>
</g>
<!-- Node51&#45;&gt;Node53 -->
<g id="edge3" class="edge">
<title>Node51&#45;&gt;Node53</title>
<path fill="none" stroke="#191970" d="M247.3349,-42.6185C263.3451,-40.6303 281.7587,-38.3437 298.8692,-36.2189"/>
<polygon fill="#191970" stroke="#191970" points="246.6911,-39.1715 237.1987,-43.8773 247.5539,-46.1182 246.6911,-39.1715"/>
</g>
</g>
</svg>
