<?xml version="1.0" encoding="UTF-8" standalone="no"?>
<!DOCTYPE svg PUBLIC "-//W3C//DTD SVG 1.1//EN"
 "http://www.w3.org/Graphics/SVG/1.1/DTD/svg11.dtd">
<!-- Generated by graphviz version 2.40.1 (20161225.0304)
 -->
<!-- Title: PDI::Datatype::dense Pages: 1 -->
<svg width="292pt" height="88pt"
 viewBox="0.00 0.00 292.00 88.00" xmlns="http://www.w3.org/2000/svg" xmlns:xlink="http://www.w3.org/1999/xlink">
<g id="graph0" class="graph" transform="scale(1 1) rotate(0) translate(4 84)">
<title>PDI::Datatype::dense</title>
<polygon fill="#ffffff" stroke="transparent" points="-4,4 -4,-84 288,-84 288,4 -4,4"/>
<!-- Node28 -->
<g id="node1" class="node">
<title>Node28</title>
<polygon fill="#bfbfbf" stroke="#000000" points="0,-30 0,-49 115,-49 115,-30 0,-30"/>
<text text-anchor="middle" x="57.5" y="-37" font-family="Helvetica,sans-Serif" font-size="10.00" fill="#000000">PDI::Datatype::dense</text>
</g>
<!-- Node29 -->
<g id="node2" class="node">
<title>Node29</title>
<g id="a_node2"><a xlink:href="classPDI_1_1Array__datatype.html#a0b95036d9845592fc5e6e0e7f3784424" target="_top" xlink:title="PDI::Array_datatype\l::data_to_dense_copy">
<polygon fill="#ffffff" stroke="#000000" points="157,-49.5 157,-79.5 278,-79.5 278,-49.5 157,-49.5"/>
<text text-anchor="start" x="165" y="-67.5" font-family="Helvetica,sans-Serif" font-size="10.00" fill="#000000">PDI::Array_datatype</text>
<text text-anchor="middle" x="217.5" y="-56.5" font-family="Helvetica,sans-Serif" font-size="10.00" fill="#000000">::data_to_dense_copy</text>
</a>
</g>
</g>
<!-- Node28&#45;&gt;Node29 -->
<g id="edge1" class="edge">
<title>Node28&#45;&gt;Node29</title>
<path fill="none" stroke="#191970" d="M125.2216,-50.0815C135.7257,-51.7228 146.5191,-53.4092 156.854,-55.0241"/>
<polygon fill="#191970" stroke="#191970" points="125.6841,-46.6114 115.2637,-48.5256 124.6034,-53.5275 125.6841,-46.6114"/>
</g>
<!-- Node30 -->
<g id="node3" class="node">
<title>Node30</title>
<g id="a_node3"><a xlink:href="classPDI_1_1Array__datatype.html#ab4b67b416c0e5f99fc9bf947030703b3" target="_top" xlink:title="PDI::Array_datatype\l::data_from_dense_copy">
<polygon fill="#ffffff" stroke="#000000" points="151,-.5 151,-30.5 284,-30.5 284,-.5 151,-.5"/>
<text text-anchor="start" x="159" y="-18.5" font-family="Helvetica,sans-Serif" font-size="10.00" fill="#000000">PDI::Array_datatype</text>
<text text-anchor="middle" x="217.5" y="-7.5" font-family="Helvetica,sans-Serif" font-size="10.00" fill="#000000">::data_from_dense_copy</text>
</a>
</g>
</g>
<!-- Node28&#45;&gt;Node30 -->
<g id="edge2" class="edge">
<title>Node28&#45;&gt;Node30</title>
<path fill="none" stroke="#191970" d="M125.4195,-29.3121C133.8411,-28.0488 142.4454,-26.7582 150.8476,-25.4979"/>
<polygon fill="#191970" stroke="#191970" points="124.6338,-25.8907 115.2637,-30.8354 125.6723,-32.8132 124.6338,-25.8907"/>
</g>
</g>
</svg>
