<?xml version="1.0" encoding="UTF-8" standalone="no"?>
<!DOCTYPE svg PUBLIC "-//W3C//DTD SVG 1.1//EN"
 "http://www.w3.org/Graphics/SVG/1.1/DTD/svg11.dtd">
<!-- Generated by graphviz version 2.40.1 (20161225.0304)
 -->
<!-- Title: PDI::Ref_base::do_copy Pages: 1 -->
<svg width="291pt" height="154pt"
 viewBox="0.00 0.00 291.00 154.00" xmlns="http://www.w3.org/2000/svg" xmlns:xlink="http://www.w3.org/1999/xlink">
<g id="graph0" class="graph" transform="scale(1 1) rotate(0) translate(4 150)">
<title>PDI::Ref_base::do_copy</title>
<polygon fill="#ffffff" stroke="transparent" points="-4,4 -4,-150 287,-150 287,4 -4,4"/>
<!-- Node6 -->
<g id="node1" class="node">
<title>Node6</title>
<polygon fill="#bfbfbf" stroke="#000000" points="0,-66.5 0,-85.5 128,-85.5 128,-66.5 0,-66.5"/>
<text text-anchor="middle" x="64" y="-73.5" font-family="Helvetica,sans-Serif" font-size="10.00" fill="#000000">PDI::Ref_base::do_copy</text>
</g>
<!-- Node7 -->
<g id="node2" class="node">
<title>Node7</title>
<g id="a_node2"><a xlink:href="classPDI_1_1Ref__base.html#a1294f5b1c0565f6171d23c311c18e3e7" target="_top" xlink:title="PDI::Ref_base::type">
<polygon fill="#ffffff" stroke="#000000" points="169.5,-126.5 169.5,-145.5 277.5,-145.5 277.5,-126.5 169.5,-126.5"/>
<text text-anchor="middle" x="223.5" y="-133.5" font-family="Helvetica,sans-Serif" font-size="10.00" fill="#000000">PDI::Ref_base::type</text>
</a>
</g>
</g>
<!-- Node6&#45;&gt;Node7 -->
<g id="edge1" class="edge">
<title>Node6&#45;&gt;Node7</title>
<path fill="none" stroke="#191970" d="M86.0433,-85.6326C106.1746,-94.2869 136.8469,-107.1162 164,-117 169.8845,-119.142 176.142,-121.2845 182.3048,-123.3182"/>
<polygon fill="#191970" stroke="#191970" points="181.2519,-126.6561 191.8438,-126.4089 183.4095,-119.9969 181.2519,-126.6561"/>
</g>
<!-- Node8 -->
<g id="node3" class="node">
<title>Node8</title>
<g id="a_node3"><a xlink:href="classPDI_1_1Datatype.html#a565e585893035b39f95520543cea49de" target="_top" xlink:title="PDI::Datatype::densify">
<polygon fill="#ffffff" stroke="#000000" points="164,-88.5 164,-107.5 283,-107.5 283,-88.5 164,-88.5"/>
<text text-anchor="middle" x="223.5" y="-95.5" font-family="Helvetica,sans-Serif" font-size="10.00" fill="#000000">PDI::Datatype::densify</text>
</a>
</g>
</g>
<!-- Node6&#45;&gt;Node8 -->
<g id="edge2" class="edge">
<title>Node6&#45;&gt;Node8</title>
<path fill="none" stroke="#191970" d="M128.415,-84.8848C136.7131,-86.0294 145.2413,-87.2057 153.6219,-88.3616"/>
<polygon fill="#191970" stroke="#191970" points="153.3612,-91.8587 163.7456,-89.758 154.3177,-84.9244 153.3612,-91.8587"/>
</g>
<!-- Node9 -->
<g id="node4" class="node">
<title>Node9</title>
<g id="a_node4"><a xlink:href="classPDI_1_1Datatype.html#a988bab02472c4dc4206b40cd093030c3" target="_top" xlink:title="PDI::Datatype::data\l_to_dense_copy">
<polygon fill="#ffffff" stroke="#000000" points="170,-39 170,-69 277,-69 277,-39 170,-39"/>
<text text-anchor="start" x="178" y="-57" font-family="Helvetica,sans-Serif" font-size="10.00" fill="#000000">PDI::Datatype::data</text>
<text text-anchor="middle" x="223.5" y="-46" font-family="Helvetica,sans-Serif" font-size="10.00" fill="#000000">_to_dense_copy</text>
</a>
</g>
</g>
<!-- Node6&#45;&gt;Node9 -->
<g id="edge3" class="edge">
<title>Node6&#45;&gt;Node9</title>
<path fill="none" stroke="#191970" d="M128.415,-67.1152C138.7253,-65.6931 149.3909,-64.2219 159.687,-62.8018"/>
<polygon fill="#191970" stroke="#191970" points="160.4052,-66.236 169.8332,-61.4023 159.4487,-59.3016 160.4052,-66.236"/>
</g>
<!-- Node10 -->
<g id="node5" class="node">
<title>Node10</title>
<g id="a_node5"><a xlink:href="classPDI_1_1Ref__any.html#ad8d6851233a405e0e1c27d2e762c6cb9" target="_top" xlink:title="PDI::Ref_any::get">
<polygon fill="#ffffff" stroke="#000000" points="174.5,-.5 174.5,-19.5 272.5,-19.5 272.5,-.5 174.5,-.5"/>
<text text-anchor="middle" x="223.5" y="-7.5" font-family="Helvetica,sans-Serif" font-size="10.00" fill="#000000">PDI::Ref_any::get</text>
</a>
</g>
</g>
<!-- Node6&#45;&gt;Node10 -->
<g id="edge4" class="edge">
<title>Node6&#45;&gt;Node10</title>
<path fill="none" stroke="#191970" d="M83.2776,-66.385C103.2225,-56.6152 135.4018,-41.3464 164,-30 170.1158,-27.5735 176.6563,-25.1792 183.081,-22.9368"/>
<polygon fill="#191970" stroke="#191970" points="184.6676,-26.0938 193.0041,-19.5552 182.4096,-19.468 184.6676,-26.0938"/>
</g>
</g>
</svg>
