<?xml version="1.0" encoding="UTF-8" standalone="no"?>
<!DOCTYPE svg PUBLIC "-//W3C//DTD SVG 1.1//EN"
 "http://www.w3.org/Graphics/SVG/1.1/DTD/svg11.dtd">
<!-- Generated by graphviz version 2.40.1 (20161225.0304)
 -->
<!-- Title: PDI::Context::desc Pages: 1 -->
<svg width="274pt" height="50pt"
 viewBox="0.00 0.00 274.00 50.00" xmlns="http://www.w3.org/2000/svg" xmlns:xlink="http://www.w3.org/1999/xlink">
<g id="graph0" class="graph" transform="scale(1 1) rotate(0) translate(4 46)">
<title>PDI::Context::desc</title>
<polygon fill="#ffffff" stroke="transparent" points="-4,4 -4,-46 270,-46 270,4 -4,4"/>
<!-- Node12 -->
<g id="node1" class="node">
<title>Node12</title>
<polygon fill="#bfbfbf" stroke="#000000" points="0,-11.5 0,-30.5 102,-30.5 102,-11.5 0,-11.5"/>
<text text-anchor="middle" x="51" y="-18.5" font-family="Helvetica,sans-Serif" font-size="10.00" fill="#000000">PDI::Context::desc</text>
</g>
<!-- Node13 -->
<g id="node2" class="node">
<title>Node13</title>
<g id="a_node2"><a xlink:href="structPDI_1_1Expression_1_1Impl_1_1Reference__expression.html#a6521d256707281f5733433be63fd4b3d" target="_top" xlink:title="PDI::Expression::Impl\l::Reference_expression\l::to_ref">
<polygon fill="#ffffff" stroke="#000000" points="138,-.5 138,-41.5 266,-41.5 266,-.5 138,-.5"/>
<text text-anchor="start" x="146" y="-29.5" font-family="Helvetica,sans-Serif" font-size="10.00" fill="#000000">PDI::Expression::Impl</text>
<text text-anchor="start" x="146" y="-18.5" font-family="Helvetica,sans-Serif" font-size="10.00" fill="#000000">::Reference_expression</text>
<text text-anchor="middle" x="202" y="-7.5" font-family="Helvetica,sans-Serif" font-size="10.00" fill="#000000">::to_ref</text>
</a>
</g>
</g>
<!-- Node12&#45;&gt;Node13 -->
<g id="edge1" class="edge">
<title>Node12&#45;&gt;Node13</title>
<path fill="none" stroke="#191970" d="M112.245,-21C120.6683,-21 129.3374,-21 137.8119,-21"/>
<polygon fill="#191970" stroke="#191970" points="112.1217,-17.5001 102.1217,-21 112.1217,-24.5001 112.1217,-17.5001"/>
</g>
</g>
</svg>
