<?xml version="1.0" encoding="UTF-8" standalone="no"?>
<!DOCTYPE svg PUBLIC "-//W3C//DTD SVG 1.1//EN"
 "http://www.w3.org/Graphics/SVG/1.1/DTD/svg11.dtd">
<!-- Generated by graphviz version 2.40.1 (20161225.0304)
 -->
<!-- Title: PDI::Datatype_template::load_basic_datatypes Pages: 1 -->
<svg width="317pt" height="66pt"
 viewBox="0.00 0.00 317.00 66.00" xmlns="http://www.w3.org/2000/svg" xmlns:xlink="http://www.w3.org/1999/xlink">
<g id="graph0" class="graph" transform="scale(1 1) rotate(0) translate(4 62)">
<title>PDI::Datatype_template::load_basic_datatypes</title>
<polygon fill="#ffffff" stroke="transparent" points="-4,4 -4,-62 313,-62 313,4 -4,4"/>
<!-- Node6 -->
<g id="node1" class="node">
<title>Node6</title>
<polygon fill="#bfbfbf" stroke="#000000" points="0,-14 0,-44 128,-44 128,-14 0,-14"/>
<text text-anchor="start" x="8" y="-32" font-family="Helvetica,sans-Serif" font-size="10.00" fill="#000000">PDI::Datatype_template</text>
<text text-anchor="middle" x="64" y="-21" font-family="Helvetica,sans-Serif" font-size="10.00" fill="#000000">::load_basic_datatypes</text>
</g>
<!-- Node7 -->
<g id="node2" class="node">
<title>Node7</title>
<g id="a_node2"><a xlink:href="classPDI_1_1Context.html#a49ae5a3b3cb8d97b0f61e6a3dd9b0fd6" target="_top" xlink:title="PDI::Context::add_datatype">
<polygon fill="#ffffff" stroke="#000000" points="164,-38.5 164,-57.5 309,-57.5 309,-38.5 164,-38.5"/>
<text text-anchor="middle" x="236.5" y="-45.5" font-family="Helvetica,sans-Serif" font-size="10.00" fill="#000000">PDI::Context::add_datatype</text>
</a>
</g>
</g>
<!-- Node6&#45;&gt;Node7 -->
<g id="edge1" class="edge">
<title>Node6&#45;&gt;Node7</title>
<path fill="none" stroke="#191970" d="M128.2326,-36.0749C136.5633,-36.9925 145.1877,-37.9424 153.7656,-38.8872"/>
<polygon fill="#191970" stroke="#191970" points="153.4706,-42.3758 163.7937,-39.9918 154.237,-35.4179 153.4706,-42.3758"/>
</g>
<!-- Node8 -->
<g id="node3" class="node">
<title>Node8</title>
<g id="a_node3"><a xlink:href="namespacePDI.html#ac4e2b53893618edfb9bff90c65c4ee01" target="_top" xlink:title="PDI::to_long">
<polygon fill="#ffffff" stroke="#000000" points="199.5,-.5 199.5,-19.5 273.5,-19.5 273.5,-.5 199.5,-.5"/>
<text text-anchor="middle" x="236.5" y="-7.5" font-family="Helvetica,sans-Serif" font-size="10.00" fill="#000000">PDI::to_long</text>
</a>
</g>
</g>
<!-- Node6&#45;&gt;Node8 -->
<g id="edge2" class="edge">
<title>Node6&#45;&gt;Node8</title>
<path fill="none" stroke="#191970" d="M128.2326,-21.9251C148.4382,-19.6996 170.3715,-17.2837 189.1794,-15.2121"/>
<polygon fill="#191970" stroke="#191970" points="189.7191,-18.6739 199.2758,-14.1001 188.9527,-11.716 189.7191,-18.6739"/>
</g>
</g>
</svg>
