<?xml version="1.0" encoding="UTF-8" standalone="no"?>
<!DOCTYPE svg PUBLIC "-//W3C//DTD SVG 1.1//EN"
 "http://www.w3.org/Graphics/SVG/1.1/DTD/svg11.dtd">
<!-- Generated by graphviz version 2.40.1 (20161225.0304)
 -->
<!-- Title: PDI::Scalar_datatype::debug_string Pages: 1 -->
<svg width="276pt" height="235pt"
 viewBox="0.00 0.00 276.00 235.00" xmlns="http://www.w3.org/2000/svg" xmlns:xlink="http://www.w3.org/1999/xlink">
<g id="graph0" class="graph" transform="scale(1 1) rotate(0) translate(4 231)">
<title>PDI::Scalar_datatype::debug_string</title>
<polygon fill="#ffffff" stroke="transparent" points="-4,4 -4,-231 272,-231 272,4 -4,4"/>
<!-- Node35 -->
<g id="node1" class="node">
<title>Node35</title>
<polygon fill="#bfbfbf" stroke="#000000" points="0,-98.5 0,-128.5 116,-128.5 116,-98.5 0,-98.5"/>
<text text-anchor="start" x="8" y="-116.5" font-family="Helvetica,sans-Serif" font-size="10.00" fill="#000000">PDI::Scalar_datatype</text>
<text text-anchor="middle" x="58" y="-105.5" font-family="Helvetica,sans-Serif" font-size="10.00" fill="#000000">::debug_string</text>
</g>
<!-- Node36 -->
<g id="node2" class="node">
<title>Node36</title>
<g id="a_node2"><a xlink:href="classPDI_1_1Scalar__datatype.html#a553f70f9bdc343bc96659a31cdf19529" target="_top" xlink:title="PDI::Scalar_datatype\l::kind">
<polygon fill="#ffffff" stroke="#000000" points="152,-196.5 152,-226.5 268,-226.5 268,-196.5 152,-196.5"/>
<text text-anchor="start" x="160" y="-214.5" font-family="Helvetica,sans-Serif" font-size="10.00" fill="#000000">PDI::Scalar_datatype</text>
<text text-anchor="middle" x="210" y="-203.5" font-family="Helvetica,sans-Serif" font-size="10.00" fill="#000000">::kind</text>
</a>
</g>
</g>
<!-- Node35&#45;&gt;Node36 -->
<g id="edge1" class="edge">
<title>Node35&#45;&gt;Node36</title>
<path fill="none" stroke="#191970" d="M74.3054,-128.6348C92.2943,-144.7618 122.6045,-170.2915 152,-187.5 154.6421,-189.0467 157.4028,-190.543 160.2242,-191.9812"/>
<polygon fill="#191970" stroke="#191970" points="158.8412,-195.1996 169.3714,-196.3681 161.8682,-188.8879 158.8412,-195.1996"/>
</g>
<!-- Node37 -->
<g id="node3" class="node">
<title>Node37</title>
<g id="a_node3"><a xlink:href="classPDI_1_1Scalar__datatype.html#aa1e4967c4b564a06ee80d2d9f3499931" target="_top" xlink:title="PDI::Scalar_datatype\l::dense">
<polygon fill="#ffffff" stroke="#000000" points="152,-147.5 152,-177.5 268,-177.5 268,-147.5 152,-147.5"/>
<text text-anchor="start" x="160" y="-165.5" font-family="Helvetica,sans-Serif" font-size="10.00" fill="#000000">PDI::Scalar_datatype</text>
<text text-anchor="middle" x="210" y="-154.5" font-family="Helvetica,sans-Serif" font-size="10.00" fill="#000000">::dense</text>
</a>
</g>
</g>
<!-- Node35&#45;&gt;Node37 -->
<g id="edge2" class="edge">
<title>Node35&#45;&gt;Node37</title>
<path fill="none" stroke="#191970" d="M104.8453,-128.6014C120.2317,-133.5615 137.4971,-139.1274 153.5208,-144.2929"/>
<polygon fill="#191970" stroke="#191970" points="152.7178,-147.7113 163.3094,-147.4484 154.8656,-141.049 152.7178,-147.7113"/>
</g>
<!-- Node38 -->
<g id="node4" class="node">
<title>Node38</title>
<g id="a_node4"><a xlink:href="classPDI_1_1Scalar__datatype.html#a8e0bb04f38f016e1050aae8ce95aa14d" target="_top" xlink:title="PDI::Scalar_datatype\l::buffersize">
<polygon fill="#ffffff" stroke="#000000" points="152,-98.5 152,-128.5 268,-128.5 268,-98.5 152,-98.5"/>
<text text-anchor="start" x="160" y="-116.5" font-family="Helvetica,sans-Serif" font-size="10.00" fill="#000000">PDI::Scalar_datatype</text>
<text text-anchor="middle" x="210" y="-105.5" font-family="Helvetica,sans-Serif" font-size="10.00" fill="#000000">::buffersize</text>
</a>
</g>
</g>
<!-- Node35&#45;&gt;Node38 -->
<g id="edge3" class="edge">
<title>Node35&#45;&gt;Node38</title>
<path fill="none" stroke="#191970" d="M116.3325,-113.5C124.6057,-113.5 133.1747,-113.5 141.617,-113.5"/>
<polygon fill="#191970" stroke="#191970" points="141.8237,-117.0001 151.8236,-113.5 141.8236,-110.0001 141.8237,-117.0001"/>
</g>
<!-- Node39 -->
<g id="node5" class="node">
<title>Node39</title>
<g id="a_node5"><a xlink:href="classPDI_1_1Scalar__datatype.html#ad8883c6045742e19ee34606681e2fcd4" target="_top" xlink:title="PDI::Scalar_datatype\l::datasize">
<polygon fill="#ffffff" stroke="#000000" points="152,-49.5 152,-79.5 268,-79.5 268,-49.5 152,-49.5"/>
<text text-anchor="start" x="160" y="-67.5" font-family="Helvetica,sans-Serif" font-size="10.00" fill="#000000">PDI::Scalar_datatype</text>
<text text-anchor="middle" x="210" y="-56.5" font-family="Helvetica,sans-Serif" font-size="10.00" fill="#000000">::datasize</text>
</a>
</g>
</g>
<!-- Node35&#45;&gt;Node39 -->
<g id="edge4" class="edge">
<title>Node35&#45;&gt;Node39</title>
<path fill="none" stroke="#191970" d="M104.8453,-98.3986C120.2317,-93.4385 137.4971,-87.8726 153.5208,-82.7071"/>
<polygon fill="#191970" stroke="#191970" points="154.8656,-85.951 163.3094,-79.5516 152.7178,-79.2887 154.8656,-85.951"/>
</g>
<!-- Node40 -->
<g id="node6" class="node">
<title>Node40</title>
<g id="a_node6"><a xlink:href="classPDI_1_1Scalar__datatype.html#a19cafc9d088635f5826f3c2cdc9246ee" target="_top" xlink:title="PDI::Scalar_datatype\l::alignment">
<polygon fill="#ffffff" stroke="#000000" points="152,-.5 152,-30.5 268,-30.5 268,-.5 152,-.5"/>
<text text-anchor="start" x="160" y="-18.5" font-family="Helvetica,sans-Serif" font-size="10.00" fill="#000000">PDI::Scalar_datatype</text>
<text text-anchor="middle" x="210" y="-7.5" font-family="Helvetica,sans-Serif" font-size="10.00" fill="#000000">::alignment</text>
</a>
</g>
</g>
<!-- Node35&#45;&gt;Node40 -->
<g id="edge5" class="edge">
<title>Node35&#45;&gt;Node40</title>
<path fill="none" stroke="#191970" d="M74.7225,-98.3805C92.823,-82.5425 123.0027,-57.632 152,-40.5 155.2098,-38.6036 158.59,-36.77 162.0388,-35.0159"/>
<polygon fill="#191970" stroke="#191970" points="163.7711,-38.0663 171.2582,-30.57 160.7305,-31.7611 163.7711,-38.0663"/>
</g>
</g>
</svg>
