<?xml version="1.0" encoding="UTF-8" standalone="no"?>
<!DOCTYPE svg PUBLIC "-//W3C//DTD SVG 1.1//EN"
 "http://www.w3.org/Graphics/SVG/1.1/DTD/svg11.dtd">
<!-- Generated by graphviz version 2.40.1 (20161225.0304)
 -->
<!-- Title: PDI::Record_datatype::buffersize Pages: 1 -->
<svg width="453pt" height="147pt"
 viewBox="0.00 0.00 453.00 147.00" xmlns="http://www.w3.org/2000/svg" xmlns:xlink="http://www.w3.org/1999/xlink">
<g id="graph0" class="graph" transform="scale(1 1) rotate(0) translate(4 143)">
<title>PDI::Record_datatype::buffersize</title>
<polygon fill="#ffffff" stroke="transparent" points="-4,4 -4,-143 449,-143 449,4 -4,4"/>
<!-- Node11 -->
<g id="node1" class="node">
<title>Node11</title>
<polygon fill="#bfbfbf" stroke="#000000" points="0,-46.5 0,-76.5 120,-76.5 120,-46.5 0,-46.5"/>
<text text-anchor="start" x="8" y="-64.5" font-family="Helvetica,sans-Serif" font-size="10.00" fill="#000000">PDI::Record_datatype</text>
<text text-anchor="middle" x="60" y="-53.5" font-family="Helvetica,sans-Serif" font-size="10.00" fill="#000000">::buffersize</text>
</g>
<!-- Node12 -->
<g id="node2" class="node">
<title>Node12</title>
<g id="a_node2"><a xlink:href="classPDI_1_1Record__datatype.html#ab5211f58ddcfbbb88243259182db1271" target="_top" xlink:title="PDI::Record_datatype\l::dense">
<polygon fill="#ffffff" stroke="#000000" points="156,-68.5 156,-98.5 276,-98.5 276,-68.5 156,-68.5"/>
<text text-anchor="start" x="164" y="-86.5" font-family="Helvetica,sans-Serif" font-size="10.00" fill="#000000">PDI::Record_datatype</text>
<text text-anchor="middle" x="216" y="-75.5" font-family="Helvetica,sans-Serif" font-size="10.00" fill="#000000">::dense</text>
</a>
</g>
</g>
<!-- Node11&#45;&gt;Node12 -->
<g id="edge1" class="edge">
<title>Node11&#45;&gt;Node12</title>
<path fill="none" stroke="#191970" d="M130.2594,-71.4084C138.8019,-72.6131 147.4694,-73.8354 155.8467,-75.0168"/>
<polygon fill="#191970" stroke="#191970" points="130.7045,-67.9366 120.3137,-70.0058 129.7269,-74.868 130.7045,-67.9366"/>
</g>
<!-- Node13 -->
<g id="node3" class="node">
<title>Node13</title>
<g id="a_node3"><a xlink:href="classPDI_1_1Record__datatype.html#a3d477bbeb305b9d51e3a7793eea75e32" target="_top" xlink:title="PDI::Record_datatype\l::data_to_dense_copy">
<polygon fill="#ffffff" stroke="#000000" points="318,-108.5 318,-138.5 439,-138.5 439,-108.5 318,-108.5"/>
<text text-anchor="start" x="326" y="-126.5" font-family="Helvetica,sans-Serif" font-size="10.00" fill="#000000">PDI::Record_datatype</text>
<text text-anchor="middle" x="378.5" y="-115.5" font-family="Helvetica,sans-Serif" font-size="10.00" fill="#000000">::data_to_dense_copy</text>
</a>
</g>
</g>
<!-- Node11&#45;&gt;Node13 -->
<g id="edge5" class="edge">
<title>Node11&#45;&gt;Node13</title>
<path fill="none" stroke="#191970" d="M93.1207,-81.6924C111.0672,-91.5908 134.017,-102.6215 156,-108.5 209.4848,-122.8024 272.6431,-125.8067 317.979,-125.6723"/>
<polygon fill="#191970" stroke="#191970" points="94.6496,-78.536 84.2235,-76.6528 91.1996,-84.6268 94.6496,-78.536"/>
</g>
<!-- Node14 -->
<g id="node4" class="node">
<title>Node14</title>
<g id="a_node4"><a xlink:href="classPDI_1_1Record__datatype.html#a3ffff5ec6228ae7b6c8aaa67139588e1" target="_top" xlink:title="PDI::Record_datatype\l::data_from_dense_copy">
<polygon fill="#ffffff" stroke="#000000" points="312,-56.5 312,-86.5 445,-86.5 445,-56.5 312,-56.5"/>
<text text-anchor="start" x="320" y="-74.5" font-family="Helvetica,sans-Serif" font-size="10.00" fill="#000000">PDI::Record_datatype</text>
<text text-anchor="middle" x="378.5" y="-63.5" font-family="Helvetica,sans-Serif" font-size="10.00" fill="#000000">::data_from_dense_copy</text>
</a>
</g>
</g>
<!-- Node11&#45;&gt;Node14 -->
<g id="edge6" class="edge">
<title>Node11&#45;&gt;Node14</title>
<path fill="none" stroke="#191970" d="M130.2779,-59.8673C138.9406,-59.7158 147.6731,-59.5867 156,-59.5 209.3304,-58.9445 222.7572,-56.394 276,-59.5 287.6261,-60.1782 299.9563,-61.2857 311.8836,-62.5606"/>
<polygon fill="#191970" stroke="#191970" points="130.1026,-56.3698 120.1691,-60.0543 130.2321,-63.3686 130.1026,-56.3698"/>
</g>
<!-- Node15 -->
<g id="node5" class="node">
<title>Node15</title>
<g id="a_node5"><a xlink:href="classPDI_1_1Record__datatype.html#a9050d4e6cd9f520581ccfeba402b358c" target="_top" xlink:title="PDI::Record_datatype\l::debug_string">
<polygon fill="#ffffff" stroke="#000000" points="318.5,-.5 318.5,-30.5 438.5,-30.5 438.5,-.5 318.5,-.5"/>
<text text-anchor="start" x="326.5" y="-18.5" font-family="Helvetica,sans-Serif" font-size="10.00" fill="#000000">PDI::Record_datatype</text>
<text text-anchor="middle" x="378.5" y="-7.5" font-family="Helvetica,sans-Serif" font-size="10.00" fill="#000000">::debug_string</text>
</a>
</g>
</g>
<!-- Node11&#45;&gt;Node15 -->
<g id="edge7" class="edge">
<title>Node11&#45;&gt;Node15</title>
<path fill="none" stroke="#191970" d="M130.1927,-51.3623C186.5897,-43.217 264.9499,-31.8997 318.4647,-24.1707"/>
<polygon fill="#191970" stroke="#191970" points="129.6788,-47.9001 120.2819,-52.7937 130.6795,-54.8282 129.6788,-47.9001"/>
</g>
<!-- Node12&#45;&gt;Node13 -->
<g id="edge2" class="edge">
<title>Node12&#45;&gt;Node13</title>
<path fill="none" stroke="#191970" d="M285.7661,-100.6732C296.4553,-103.3044 307.4152,-106.0022 317.8854,-108.5795"/>
<polygon fill="#191970" stroke="#191970" points="286.5941,-97.2726 276.0473,-98.2809 284.9209,-104.0697 286.5941,-97.2726"/>
</g>
<!-- Node12&#45;&gt;Node14 -->
<g id="edge3" class="edge">
<title>Node12&#45;&gt;Node14</title>
<path fill="none" stroke="#191970" d="M286.2929,-78.3091C294.7793,-77.6824 303.4283,-77.0438 311.8601,-76.4211"/>
<polygon fill="#191970" stroke="#191970" points="285.7624,-74.8387 276.0473,-79.0657 286.278,-81.8197 285.7624,-74.8387"/>
</g>
<!-- Node12&#45;&gt;Node15 -->
<g id="edge4" class="edge">
<title>Node12&#45;&gt;Node15</title>
<path fill="none" stroke="#191970" d="M261.5612,-64.4344C287.1691,-53.7184 318.6799,-40.5324 342.5368,-30.5492"/>
<polygon fill="#191970" stroke="#191970" points="259.9378,-61.3196 252.064,-68.4086 262.64,-67.777 259.9378,-61.3196"/>
</g>
</g>
</svg>
