<?xml version="1.0" encoding="UTF-8" standalone="no"?>
<!DOCTYPE svg PUBLIC "-//W3C//DTD SVG 1.1//EN"
 "http://www.w3.org/Graphics/SVG/1.1/DTD/svg11.dtd">
<!-- Generated by graphviz version 2.40.1 (20161225.0304)
 -->
<!-- Title: PDI::Datatype_template::load_basic_datatypes Pages: 1 -->
<svg width="281pt" height="39pt"
 viewBox="0.00 0.00 281.00 39.00" xmlns="http://www.w3.org/2000/svg" xmlns:xlink="http://www.w3.org/1999/xlink">
<g id="graph0" class="graph" transform="scale(1 1) rotate(0) translate(4 35)">
<title>PDI::Datatype_template::load_basic_datatypes</title>
<polygon fill="#ffffff" stroke="transparent" points="-4,4 -4,-35 277,-35 277,4 -4,4"/>
<!-- Node9 -->
<g id="node1" class="node">
<title>Node9</title>
<polygon fill="#bfbfbf" stroke="#000000" points="0,-.5 0,-30.5 128,-30.5 128,-.5 0,-.5"/>
<text text-anchor="start" x="8" y="-18.5" font-family="Helvetica,sans-Serif" font-size="10.00" fill="#000000">PDI::Datatype_template</text>
<text text-anchor="middle" x="64" y="-7.5" font-family="Helvetica,sans-Serif" font-size="10.00" fill="#000000">::load_basic_datatypes</text>
</g>
<!-- Node10 -->
<g id="node2" class="node">
<title>Node10</title>
<g id="a_node2"><a xlink:href="classPDI_1_1Global__context.html#aed04747fdfebca807c6f454d6aff9f6d" target="_top" xlink:title="PDI::Global_context\l::Global_context">
<polygon fill="#ffffff" stroke="#000000" points="164,-.5 164,-30.5 273,-30.5 273,-.5 164,-.5"/>
<text text-anchor="start" x="172" y="-18.5" font-family="Helvetica,sans-Serif" font-size="10.00" fill="#000000">PDI::Global_context</text>
<text text-anchor="middle" x="218.5" y="-7.5" font-family="Helvetica,sans-Serif" font-size="10.00" fill="#000000">::Global_context</text>
</a>
</g>
</g>
<!-- Node9&#45;&gt;Node10 -->
<g id="edge1" class="edge">
<title>Node9&#45;&gt;Node10</title>
<path fill="none" stroke="#191970" d="M138.1867,-15.5C146.7525,-15.5 155.3686,-15.5 163.6128,-15.5"/>
<polygon fill="#191970" stroke="#191970" points="138.1797,-12.0001 128.1797,-15.5 138.1796,-19.0001 138.1797,-12.0001"/>
</g>
</g>
</svg>
