<?xml version="1.0" encoding="UTF-8" standalone="no"?>
<!DOCTYPE svg PUBLIC "-//W3C//DTD SVG 1.1//EN"
 "http://www.w3.org/Graphics/SVG/1.1/DTD/svg11.dtd">
<!-- Generated by graphviz version 2.40.1 (20161225.0304)
 -->
<!-- Title: PDI::Scalar_datatype::data_from_dense_copy Pages: 1 -->
<svg width="450pt" height="39pt"
 viewBox="0.00 0.00 450.00 39.00" xmlns="http://www.w3.org/2000/svg" xmlns:xlink="http://www.w3.org/1999/xlink">
<g id="graph0" class="graph" transform="scale(1 1) rotate(0) translate(4 35)">
<title>PDI::Scalar_datatype::data_from_dense_copy</title>
<polygon fill="#ffffff" stroke="transparent" points="-4,4 -4,-35 446,-35 446,4 -4,4"/>
<!-- Node22 -->
<g id="node1" class="node">
<title>Node22</title>
<polygon fill="#bfbfbf" stroke="#000000" points="0,-.5 0,-30.5 133,-30.5 133,-.5 0,-.5"/>
<text text-anchor="start" x="8" y="-18.5" font-family="Helvetica,sans-Serif" font-size="10.00" fill="#000000">PDI::Scalar_datatype</text>
<text text-anchor="middle" x="66.5" y="-7.5" font-family="Helvetica,sans-Serif" font-size="10.00" fill="#000000">::data_from_dense_copy</text>
</g>
<!-- Node23 -->
<g id="node2" class="node">
<title>Node23</title>
<g id="a_node2"><a xlink:href="classPDI_1_1Scalar__datatype.html#a6c79e2f579e87bd8dca650b75f02e260" target="_top" xlink:title="PDI::Scalar_datatype\l::data_to_dense_copy">
<polygon fill="#ffffff" stroke="#000000" points="169,-.5 169,-30.5 290,-30.5 290,-.5 169,-.5"/>
<text text-anchor="start" x="177" y="-18.5" font-family="Helvetica,sans-Serif" font-size="10.00" fill="#000000">PDI::Scalar_datatype</text>
<text text-anchor="middle" x="229.5" y="-7.5" font-family="Helvetica,sans-Serif" font-size="10.00" fill="#000000">::data_to_dense_copy</text>
</a>
</g>
</g>
<!-- Node22&#45;&gt;Node23 -->
<g id="edge1" class="edge">
<title>Node22&#45;&gt;Node23</title>
<path fill="none" stroke="#191970" d="M133.2686,-15.5C141.6443,-15.5 150.2347,-15.5 158.67,-15.5"/>
<polygon fill="#191970" stroke="#191970" points="158.8573,-19.0001 168.8573,-15.5 158.8573,-12.0001 158.8573,-19.0001"/>
</g>
<!-- Node24 -->
<g id="node3" class="node">
<title>Node24</title>
<g id="a_node3"><a xlink:href="classPDI_1_1Scalar__datatype.html#ad8883c6045742e19ee34606681e2fcd4" target="_top" xlink:title="PDI::Scalar_datatype\l::datasize">
<polygon fill="#ffffff" stroke="#000000" points="326,-.5 326,-30.5 442,-30.5 442,-.5 326,-.5"/>
<text text-anchor="start" x="334" y="-18.5" font-family="Helvetica,sans-Serif" font-size="10.00" fill="#000000">PDI::Scalar_datatype</text>
<text text-anchor="middle" x="384" y="-7.5" font-family="Helvetica,sans-Serif" font-size="10.00" fill="#000000">::datasize</text>
</a>
</g>
</g>
<!-- Node23&#45;&gt;Node24 -->
<g id="edge2" class="edge">
<title>Node23&#45;&gt;Node24</title>
<path fill="none" stroke="#191970" d="M290.1191,-15.5C298.4732,-15.5 307.0999,-15.5 315.5825,-15.5"/>
<polygon fill="#191970" stroke="#191970" points="315.8301,-19.0001 325.8301,-15.5 315.8301,-12.0001 315.8301,-19.0001"/>
</g>
</g>
</svg>
