<?xml version="1.0" encoding="UTF-8" standalone="no"?>
<!DOCTYPE svg PUBLIC "-//W3C//DTD SVG 1.1//EN"
 "http://www.w3.org/Graphics/SVG/1.1/DTD/svg11.dtd">
<!-- Generated by graphviz version 2.40.1 (20161225.0304)
 -->
<!-- Title: PDI::Array_datatype::destroy_data Pages: 1 -->
<svg width="303pt" height="264pt"
 viewBox="0.00 0.00 303.00 263.50" xmlns="http://www.w3.org/2000/svg" xmlns:xlink="http://www.w3.org/1999/xlink">
<g id="graph0" class="graph" transform="scale(1 1) rotate(0) translate(4 259.5)">
<title>PDI::Array_datatype::destroy_data</title>
<polygon fill="#ffffff" stroke="transparent" points="-4,4 -4,-259.5 299,-259.5 299,4 -4,4"/>
<!-- Node67 -->
<g id="node1" class="node">
<title>Node67</title>
<polygon fill="#bfbfbf" stroke="#000000" points="0,-110 0,-140 111,-140 111,-110 0,-110"/>
<text text-anchor="start" x="8" y="-128" font-family="Helvetica,sans-Serif" font-size="10.00" fill="#000000">PDI::Array_datatype</text>
<text text-anchor="middle" x="55.5" y="-117" font-family="Helvetica,sans-Serif" font-size="10.00" fill="#000000">::destroy_data</text>
</g>
<!-- Node68 -->
<g id="node2" class="node">
<title>Node68</title>
<g id="a_node2"><a xlink:href="classPDI_1_1Array__datatype.html#a6f9201d70ad6f5dcb52ce714f543f447" target="_top" xlink:title="PDI::Array_datatype\l::subtype">
<polygon fill="#ffffff" stroke="#000000" points="165.5,-225 165.5,-255 276.5,-255 276.5,-225 165.5,-225"/>
<text text-anchor="start" x="173.5" y="-243" font-family="Helvetica,sans-Serif" font-size="10.00" fill="#000000">PDI::Array_datatype</text>
<text text-anchor="middle" x="221" y="-232" font-family="Helvetica,sans-Serif" font-size="10.00" fill="#000000">::subtype</text>
</a>
</g>
</g>
<!-- Node67&#45;&gt;Node68 -->
<g id="edge1" class="edge">
<title>Node67&#45;&gt;Node68</title>
<path fill="none" stroke="#191970" d="M66.8623,-140.0862C82.718,-160.146 113.3457,-195.4524 147,-216 149.8242,-217.7243 152.7856,-219.3384 155.8321,-220.8475"/>
<polygon fill="#191970" stroke="#191970" points="154.6202,-224.1406 165.1746,-225.0656 157.5007,-217.7607 154.6202,-224.1406"/>
</g>
<!-- Node69 -->
<g id="node3" class="node">
<title>Node69</title>
<g id="a_node3"><a xlink:href="classPDI_1_1Array__datatype.html#a9ba8909f75de2d4f18749fe9362a28d2" target="_top" xlink:title="PDI::Array_datatype\l::simple">
<polygon fill="#ffffff" stroke="#000000" points="165.5,-176 165.5,-206 276.5,-206 276.5,-176 165.5,-176"/>
<text text-anchor="start" x="173.5" y="-194" font-family="Helvetica,sans-Serif" font-size="10.00" fill="#000000">PDI::Array_datatype</text>
<text text-anchor="middle" x="221" y="-183" font-family="Helvetica,sans-Serif" font-size="10.00" fill="#000000">::simple</text>
</a>
</g>
</g>
<!-- Node67&#45;&gt;Node69 -->
<g id="edge2" class="edge">
<title>Node67&#45;&gt;Node69</title>
<path fill="none" stroke="#191970" d="M87.3646,-140.1783C104.8077,-148.258 126.9034,-158.1235 147,-166 152.5809,-168.1873 158.4407,-170.3646 164.3168,-172.4702"/>
<polygon fill="#191970" stroke="#191970" points="163.58,-175.921 174.1748,-175.935 165.9012,-169.3171 163.58,-175.921"/>
</g>
<!-- Node70 -->
<g id="node4" class="node">
<title>Node70</title>
<g id="a_node4"><a xlink:href="classPDI_1_1Datatype.html#a341a15d47396f1cd9bb12e43a5cd5a40" target="_top" xlink:title="PDI::Datatype::buffersize">
<polygon fill="#ffffff" stroke="#000000" points="155.5,-137.5 155.5,-156.5 286.5,-156.5 286.5,-137.5 155.5,-137.5"/>
<text text-anchor="middle" x="221" y="-144.5" font-family="Helvetica,sans-Serif" font-size="10.00" fill="#000000">PDI::Datatype::buffersize</text>
</a>
</g>
</g>
<!-- Node67&#45;&gt;Node70 -->
<g id="edge3" class="edge">
<title>Node67&#45;&gt;Node70</title>
<path fill="none" stroke="#191970" d="M111.0695,-132.3869C122.0366,-133.8447 133.7203,-135.3979 145.2229,-136.9269"/>
<polygon fill="#191970" stroke="#191970" points="144.8882,-140.4131 155.2622,-138.2614 145.8106,-133.4742 144.8882,-140.4131"/>
</g>
<!-- Node71 -->
<g id="node5" class="node">
<title>Node71</title>
<g id="a_node5"><a xlink:href="classPDI_1_1Array__datatype.html#ac8bc6acc7335a71d63e1a19f2227d2f9" target="_top" xlink:title="PDI::Array_datatype\l::start">
<polygon fill="#ffffff" stroke="#000000" points="165.5,-88 165.5,-118 276.5,-118 276.5,-88 165.5,-88"/>
<text text-anchor="start" x="173.5" y="-106" font-family="Helvetica,sans-Serif" font-size="10.00" fill="#000000">PDI::Array_datatype</text>
<text text-anchor="middle" x="221" y="-95" font-family="Helvetica,sans-Serif" font-size="10.00" fill="#000000">::start</text>
</a>
</g>
</g>
<!-- Node67&#45;&gt;Node71 -->
<g id="edge4" class="edge">
<title>Node67&#45;&gt;Node71</title>
<path fill="none" stroke="#191970" d="M111.0695,-117.6131C125.2609,-115.7266 140.6522,-113.6807 155.2986,-111.7337"/>
<polygon fill="#191970" stroke="#191970" points="155.8439,-115.1921 165.2955,-110.4048 154.9214,-108.2532 155.8439,-115.1921"/>
</g>
<!-- Node72 -->
<g id="node6" class="node">
<title>Node72</title>
<g id="a_node6"><a xlink:href="classPDI_1_1Array__datatype.html#ab50be2accef49e18e36c9ac96d196a04" target="_top" xlink:title="PDI::Array_datatype\l::subsize">
<polygon fill="#ffffff" stroke="#000000" points="165.5,-39 165.5,-69 276.5,-69 276.5,-39 165.5,-39"/>
<text text-anchor="start" x="173.5" y="-57" font-family="Helvetica,sans-Serif" font-size="10.00" fill="#000000">PDI::Array_datatype</text>
<text text-anchor="middle" x="221" y="-46" font-family="Helvetica,sans-Serif" font-size="10.00" fill="#000000">::subsize</text>
</a>
</g>
</g>
<!-- Node67&#45;&gt;Node72 -->
<g id="edge5" class="edge">
<title>Node67&#45;&gt;Node72</title>
<path fill="none" stroke="#191970" d="M83.0578,-109.8747C100.9777,-100.3588 125.017,-88.186 147,-79 152.3704,-76.7559 158.0202,-74.5615 163.7047,-72.4632"/>
<polygon fill="#191970" stroke="#191970" points="165.0327,-75.7053 173.261,-69.031 162.6665,-69.1173 165.0327,-75.7053"/>
</g>
<!-- Node73 -->
<g id="node7" class="node">
<title>Node73</title>
<g id="a_node7"><a xlink:href="classPDI_1_1Datatype.html#a73bcba3fb827468daeda6ab0a4fd92b5" target="_top" xlink:title="PDI::Datatype::destroy_data">
<polygon fill="#ffffff" stroke="#000000" points="147,-.5 147,-19.5 295,-19.5 295,-.5 147,-.5"/>
<text text-anchor="middle" x="221" y="-7.5" font-family="Helvetica,sans-Serif" font-size="10.00" fill="#000000">PDI::Datatype::destroy_data</text>
</a>
</g>
</g>
<!-- Node67&#45;&gt;Node73 -->
<g id="edge6" class="edge">
<title>Node67&#45;&gt;Node73</title>
<path fill="none" stroke="#191970" d="M66.0357,-109.6949C81.384,-88.5722 111.9157,-50.7484 147,-30 151.4674,-27.358 156.2911,-25.0568 161.2589,-23.0539"/>
<polygon fill="#191970" stroke="#191970" points="162.718,-26.2483 170.9339,-19.5587 160.3395,-19.6647 162.718,-26.2483"/>
</g>
</g>
</svg>
