<?xml version="1.0" encoding="UTF-8" standalone="no"?>
<!DOCTYPE svg PUBLIC "-//W3C//DTD SVG 1.1//EN"
 "http://www.w3.org/Graphics/SVG/1.1/DTD/svg11.dtd">
<!-- Generated by graphviz version 2.40.1 (20161225.0304)
 -->
<!-- Title: PDI::Global_context::init Pages: 1 -->
<svg width="271pt" height="66pt"
 viewBox="0.00 0.00 271.00 66.00" xmlns="http://www.w3.org/2000/svg" xmlns:xlink="http://www.w3.org/1999/xlink">
<g id="graph0" class="graph" transform="scale(1 1) rotate(0) translate(4 62)">
<title>PDI::Global_context::init</title>
<polygon fill="#ffffff" stroke="transparent" points="-4,4 -4,-62 267,-62 267,4 -4,4"/>
<!-- Node60 -->
<g id="node1" class="node">
<title>Node60</title>
<polygon fill="#bfbfbf" stroke="#000000" points="0,-14 0,-44 109,-44 109,-14 0,-14"/>
<text text-anchor="start" x="8" y="-32" font-family="Helvetica,sans-Serif" font-size="10.00" fill="#000000">PDI::Global_context</text>
<text text-anchor="middle" x="54.5" y="-21" font-family="Helvetica,sans-Serif" font-size="10.00" fill="#000000">::init</text>
</g>
<!-- Node61 -->
<g id="node2" class="node">
<title>Node61</title>
<g id="a_node2"><a xlink:href="pdi_8cxx.html#a3dc660be40c93c169337e3d2692b2ed0" target="_top" xlink:title="Initialization / Finalization stuff. ">
<polygon fill="#ffffff" stroke="#000000" points="177.5,-38.5 177.5,-57.5 230.5,-57.5 230.5,-38.5 177.5,-38.5"/>
<text text-anchor="middle" x="204" y="-45.5" font-family="Helvetica,sans-Serif" font-size="10.00" fill="#000000">PDI_init</text>
</a>
</g>
</g>
<!-- Node60&#45;&gt;Node61 -->
<g id="edge1" class="edge">
<title>Node60&#45;&gt;Node61</title>
<path fill="none" stroke="#191970" d="M119.5075,-37.2618C139.8319,-39.8449 161.1339,-42.5521 177.2643,-44.6022"/>
<polygon fill="#191970" stroke="#191970" points="119.6809,-33.7558 109.3194,-35.967 118.7983,-40.6999 119.6809,-33.7558"/>
</g>
<!-- Node62 -->
<g id="node3" class="node">
<title>Node62</title>
<g id="a_node3"><a xlink:href="python_2pdi_8cxx.html#a727b802ea287c6ae55678b2643aa61b6" target="_top" xlink:title="PYBIND11_MODULE">
<polygon fill="#ffffff" stroke="#000000" points="145,-.5 145,-19.5 263,-19.5 263,-.5 145,-.5"/>
<text text-anchor="middle" x="204" y="-7.5" font-family="Helvetica,sans-Serif" font-size="10.00" fill="#000000">PYBIND11_MODULE</text>
</a>
</g>
</g>
<!-- Node60&#45;&gt;Node62 -->
<g id="edge2" class="edge">
<title>Node60&#45;&gt;Node62</title>
<path fill="none" stroke="#191970" d="M119.5075,-20.7382C127.9528,-19.6649 136.5669,-18.5701 144.9086,-17.5099"/>
<polygon fill="#191970" stroke="#191970" points="118.7983,-17.3001 109.3194,-22.033 119.6809,-24.2442 118.7983,-17.3001"/>
</g>
</g>
</svg>
