<?xml version="1.0" encoding="UTF-8" standalone="no"?>
<!DOCTYPE svg PUBLIC "-//W3C//DTD SVG 1.1//EN"
 "http://www.w3.org/Graphics/SVG/1.1/DTD/svg11.dtd">
<!-- Generated by graphviz version 2.40.1 (20161225.0304)
 -->
<!-- Title: /home/jbigot/data/projects/pdi/pdi/src/context.cxx Pages: 1 -->
<!--zoomable 599 -->
<svg id="main" version="1.1" xmlns="http://www.w3.org/2000/svg" xmlns:xlink="http://www.w3.org/1999/xlink" xml:space="preserve" onload="init(evt)">
<style type="text/css"><![CDATA[
.edge:hover path { stroke: red; }
.edge:hover polygon { stroke: red; fill: red; }
]]></style>
<script type="text/javascript"><![CDATA[
var edges = document.getElementsByTagName('g');
if (edges && edges.length) {
  for (var i=0;i<edges.length;i++) {
    if (edges[i].id.substr(0,4)=='edge') {
      edges[i].setAttribute('class','edge');
    }
  }
}
]]></script>
        <defs>
                <circle id="rim" cx="0" cy="0" r="7"/>
                <circle id="rim2" cx="0" cy="0" r="3.5"/>
                <g id="zoomPlus">
                        <use xlink:href="#rim" fill="#404040">
                                <set attributeName="fill" to="#808080" begin="zoomplus.mouseover" end="zoomplus.mouseout"/>
                        </use>
                        <path d="M-4,0h8M0,-4v8" fill="none" stroke="white" stroke-width="1.5" pointer-events="none"/>
                </g>
                <g id="zoomMin">
                        <use xlink:href="#rim" fill="#404040">
                                <set attributeName="fill" to="#808080" begin="zoomminus.mouseover" end="zoomminus.mouseout"/>
                        </use>
                        <path d="M-4,0h8" fill="none" stroke="white" stroke-width="1.5" pointer-events="none"/>
                </g>
                <g id="dirArrow">
                        <path fill="none" stroke="white" stroke-width="1.5" d="M0,-3.0v7 M-2.5,-0.5L0,-3.0L2.5,-0.5"/>
                </g>
               <g id="resetDef">
                       <use xlink:href="#rim2" fill="#404040">
                               <set attributeName="fill" to="#808080" begin="reset.mouseover" end="reset.mouseout"/>
                       </use>
               </g>
        </defs>

<script type="text/javascript">
var viewWidth = 1188;
var viewHeight = 599;
var sectionId = 'dynsection-0';
</script>
<script xlink:href="svgpan.js"/>
<svg id="graph" class="graph">
<g id="viewport">
<title>/home/jbigot/data/projects/pdi/pdi/src/context.cxx</title>
<polygon fill="#ffffff" stroke="transparent" points="-4,4 -4,-595 1184,-595 1184,4 -4,4"/>
<!-- Node0 -->
<g id="node1" class="node">
<title>Node0</title>
<polygon fill="#bfbfbf" stroke="#000000" points="482.5,-560.5 482.5,-590.5 620.5,-590.5 620.5,-560.5 482.5,-560.5"/>
<text text-anchor="start" x="490.5" y="-578.5" font-family="Helvetica,sans-Serif" font-size="10.00" fill="#000000">/home/jbigot/data/projects</text>
<text text-anchor="middle" x="551.5" y="-567.5" font-family="Helvetica,sans-Serif" font-size="10.00" fill="#000000">/pdi/pdi/src/context.cxx</text>
</g>
<!-- Node1 -->
<g id="node2" class="node">
<title>Node1</title>
<polygon fill="#ffffff" stroke="#bfbfbf" points="0,-504.5 0,-523.5 53,-523.5 53,-504.5 0,-504.5"/>
<text text-anchor="middle" x="26.5" y="-511.5" font-family="Helvetica,sans-Serif" font-size="10.00" fill="#000000">config.h</text>
</g>
<!-- Node0&#45;&gt;Node1 -->
<g id="edge1" class="edge">
<title>Node0&#45;&gt;Node1</title>
<path fill="none" stroke="#191970" d="M482.3705,-572.0229C389.0248,-566.4884 217.4944,-553.3575 63.2699,-524.0784"/>
<polygon fill="#191970" stroke="#191970" points="63.619,-520.5814 53.1375,-522.1264 62.2948,-527.455 63.619,-520.5814"/>
</g>
<!-- Node2 -->
<g id="node3" class="node">
<title>Node2</title>
<polygon fill="#ffffff" stroke="#bfbfbf" points="71,-504.5 71,-523.5 128,-523.5 128,-504.5 71,-504.5"/>
<text text-anchor="middle" x="99.5" y="-511.5" font-family="Helvetica,sans-Serif" font-size="10.00" fill="#000000">iostream</text>
</g>
<!-- Node0&#45;&gt;Node2 -->
<g id="edge2" class="edge">
<title>Node0&#45;&gt;Node2</title>
<path fill="none" stroke="#191970" d="M482.4236,-569C400.841,-560.8165 261.21,-545.2188 142.5,-524 141.0382,-523.7387 139.5513,-523.4597 138.0516,-523.1671"/>
<polygon fill="#191970" stroke="#191970" points="138.6009,-519.7063 128.096,-521.0839 137.1672,-526.5579 138.6009,-519.7063"/>
</g>
<!-- Node3 -->
<g id="node4" class="node">
<title>Node3</title>
<polygon fill="#ffffff" stroke="#bfbfbf" points="1020.5,-56.5 1020.5,-75.5 1074.5,-75.5 1074.5,-56.5 1020.5,-56.5"/>
<text text-anchor="middle" x="1047.5" y="-63.5" font-family="Helvetica,sans-Serif" font-size="10.00" fill="#000000">memory</text>
</g>
<!-- Node0&#45;&gt;Node3 -->
<g id="edge3" class="edge">
<title>Node0&#45;&gt;Node3</title>
<path fill="none" stroke="#191970" d="M620.7459,-571.0625C697.9985,-564.9864 826.2237,-551.5269 933.5,-524 1012.408,-503.7524 1104.5,-539.4644 1104.5,-458 1104.5,-458 1104.5,-458 1104.5,-178 1104.5,-141.1826 1079.7325,-104.2377 1062.8499,-83.3313"/>
<polygon fill="#191970" stroke="#191970" points="1065.5131,-81.06 1056.4063,-75.6456 1060.1489,-85.5574 1065.5131,-81.06"/>
</g>
<!-- Node4 -->
<g id="node5" class="node">
<title>Node4</title>
<polygon fill="#ffffff" stroke="#bfbfbf" points="1133,-504.5 1133,-523.5 1180,-523.5 1180,-504.5 1133,-504.5"/>
<text text-anchor="middle" x="1156.5" y="-511.5" font-family="Helvetica,sans-Serif" font-size="10.00" fill="#000000">dlfcn.h</text>
</g>
<!-- Node0&#45;&gt;Node4 -->
<g id="edge4" class="edge">
<title>Node0&#45;&gt;Node4</title>
<path fill="none" stroke="#191970" d="M620.5016,-572.9425C727.742,-568.1358 940.591,-555.2636 1118.5,-524 1119.9698,-523.7417 1121.4658,-523.4546 1122.9729,-523.1454"/>
<polygon fill="#191970" stroke="#191970" points="1123.9577,-526.5103 1132.9182,-520.857 1122.388,-519.6886 1123.9577,-526.5103"/>
</g>
<!-- Node5 -->
<g id="node6" class="node">
<title>Node5</title>
<g id="a_node6"><a xlink:href="paraconf__wrapper_8h.html" target="_top" xlink:title="pdi/paraconf_wrapper.h">
<polygon fill="#ffffff" stroke="#000000" points="483,-168.5 483,-187.5 612,-187.5 612,-168.5 483,-168.5"/>
<text text-anchor="middle" x="547.5" y="-175.5" font-family="Helvetica,sans-Serif" font-size="10.00" fill="#000000">pdi/paraconf_wrapper.h</text>
</a>
</g>
</g>
<!-- Node0&#45;&gt;Node5 -->
<g id="edge5" class="edge">
<title>Node0&#45;&gt;Node5</title>
<path fill="none" stroke="#191970" d="M482.2435,-567.0305C378.4259,-552.3739 194.5,-517.9483 194.5,-458 194.5,-458 194.5,-458 194.5,-402 194.5,-268.7138 376.1376,-211.3864 478.8267,-189.6265"/>
<polygon fill="#191970" stroke="#191970" points="479.7247,-193.0151 488.813,-187.5695 478.3125,-186.159 479.7247,-193.0151"/>
</g>
<!-- Node12 -->
<g id="node13" class="node">
<title>Node12</title>
<g id="a_node13"><a xlink:href="plugin_8h.html" target="_top" xlink:title="pdi/plugin.h">
<polygon fill="#ffffff" stroke="#000000" points="930.5,-280.5 930.5,-299.5 1000.5,-299.5 1000.5,-280.5 930.5,-280.5"/>
<text text-anchor="middle" x="965.5" y="-287.5" font-family="Helvetica,sans-Serif" font-size="10.00" fill="#000000">pdi/plugin.h</text>
</a>
</g>
</g>
<!-- Node0&#45;&gt;Node12 -->
<g id="edge14" class="edge">
<title>Node0&#45;&gt;Node12</title>
<path fill="none" stroke="#191970" d="M620.8916,-569.3449C735.7539,-557.5616 957.4456,-527.5275 1004.5,-468 1040.8806,-421.9757 1024.7057,-391.0773 1004.5,-336 1000.4432,-324.9418 992.4203,-314.7193 984.7006,-306.7335"/>
<polygon fill="#191970" stroke="#191970" points="986.8698,-303.9632 977.24,-299.5451 982.0128,-309.0041 986.8698,-303.9632"/>
</g>
<!-- Node14 -->
<g id="node15" class="node">
<title>Node14</title>
<g id="a_node15"><a xlink:href="ref__any_8h.html" target="_top" xlink:title="pdi/ref_any.h">
<polygon fill="#ffffff" stroke="#000000" points="563.5,-392.5 563.5,-411.5 641.5,-411.5 641.5,-392.5 563.5,-392.5"/>
<text text-anchor="middle" x="602.5" y="-399.5" font-family="Helvetica,sans-Serif" font-size="10.00" fill="#000000">pdi/ref_any.h</text>
</a>
</g>
</g>
<!-- Node0&#45;&gt;Node14 -->
<g id="edge19" class="edge">
<title>Node0&#45;&gt;Node14</title>
<path fill="none" stroke="#191970" d="M555.9367,-560.4065C565.1649,-529.0126 586.4222,-456.6961 596.7114,-421.6925"/>
<polygon fill="#191970" stroke="#191970" points="600.1752,-422.3192 599.6375,-411.738 593.4594,-420.345 600.1752,-422.3192"/>
</g>
<!-- Node21 -->
<g id="node22" class="node">
<title>Node21</title>
<g id="a_node22"><a xlink:href="error_8h.html" target="_top" xlink:title="pdi/error.h">
<polygon fill="#ffffff" stroke="#000000" points="310,-168.5 310,-187.5 375,-187.5 375,-168.5 310,-168.5"/>
<text text-anchor="middle" x="342.5" y="-175.5" font-family="Helvetica,sans-Serif" font-size="10.00" fill="#000000">pdi/error.h</text>
</a>
</g>
</g>
<!-- Node0&#45;&gt;Node21 -->
<g id="edge37" class="edge">
<title>Node0&#45;&gt;Node21</title>
<path fill="none" stroke="#191970" d="M482.4343,-568.6438C402.8422,-559.9847 277.4824,-543.7988 234.5,-524 193.2537,-505.0009 156.5,-503.4117 156.5,-458 156.5,-458 156.5,-458 156.5,-290 156.5,-223.4649 244.928,-195.4356 299.8406,-184.4442"/>
<polygon fill="#191970" stroke="#191970" points="300.4995,-187.8817 309.6751,-182.5847 299.1989,-181.0036 300.4995,-187.8817"/>
</g>
<!-- Node23 -->
<g id="node24" class="node">
<title>Node23</title>
<g id="a_node24"><a xlink:href="context_8h.html" target="_top" xlink:title="pdi/context.h">
<polygon fill="#ffffff" stroke="#000000" points="594,-504.5 594,-523.5 671,-523.5 671,-504.5 594,-504.5"/>
<text text-anchor="middle" x="632.5" y="-511.5" font-family="Helvetica,sans-Serif" font-size="10.00" fill="#000000">pdi/context.h</text>
</a>
</g>
</g>
<!-- Node0&#45;&gt;Node23 -->
<g id="edge38" class="edge">
<title>Node0&#45;&gt;Node23</title>
<path fill="none" stroke="#191970" d="M571.5225,-560.2977C583.586,-551.1384 598.9388,-539.4816 611.2211,-530.1562"/>
<polygon fill="#191970" stroke="#191970" points="613.6829,-532.6816 619.5309,-523.8469 609.4499,-527.1065 613.6829,-532.6816"/>
</g>
<!-- Node6 -->
<g id="node7" class="node">
<title>Node6</title>
<polygon fill="#ffffff" stroke="#bfbfbf" points="390,-112.5 390,-131.5 433,-131.5 433,-112.5 390,-112.5"/>
<text text-anchor="middle" x="411.5" y="-119.5" font-family="Helvetica,sans-Serif" font-size="10.00" fill="#000000">string</text>
</g>
<!-- Node5&#45;&gt;Node6 -->
<g id="edge6" class="edge">
<title>Node5&#45;&gt;Node6</title>
<path fill="none" stroke="#191970" d="M524.1208,-168.3733C501.5933,-159.0972 467.368,-145.0045 442.5602,-134.7895"/>
<polygon fill="#191970" stroke="#191970" points="443.8077,-131.5181 433.2282,-130.9469 441.1424,-137.9909 443.8077,-131.5181"/>
</g>
<!-- Node7 -->
<g id="node8" class="node">
<title>Node7</title>
<polygon fill="#ffffff" stroke="#bfbfbf" points="428,-.5 428,-19.5 495,-19.5 495,-.5 428,-.5"/>
<text text-anchor="middle" x="461.5" y="-7.5" font-family="Helvetica,sans-Serif" font-size="10.00" fill="#000000">paraconf.h</text>
</g>
<!-- Node5&#45;&gt;Node7 -->
<g id="edge7" class="edge">
<title>Node5&#45;&gt;Node7</title>
<path fill="none" stroke="#191970" d="M542.6299,-168.4862C528.8587,-141.5845 489.4497,-64.5994 471.1071,-28.7673"/>
<polygon fill="#191970" stroke="#191970" points="474.2032,-27.1345 466.5309,-19.8279 467.9722,-30.3242 474.2032,-27.1345"/>
</g>
<!-- Node8 -->
<g id="node9" class="node">
<title>Node8</title>
<g id="a_node9"><a xlink:href="pdi__fwd_8h.html" target="_top" xlink:title="pdi/pdi_fwd.h">
<polygon fill="#ffffff" stroke="#000000" points="677,-112.5 677,-131.5 756,-131.5 756,-112.5 677,-112.5"/>
<text text-anchor="middle" x="716.5" y="-119.5" font-family="Helvetica,sans-Serif" font-size="10.00" fill="#000000">pdi/pdi_fwd.h</text>
</a>
</g>
</g>
<!-- Node5&#45;&gt;Node8 -->
<g id="edge8" class="edge">
<title>Node5&#45;&gt;Node8</title>
<path fill="none" stroke="#191970" d="M576.5521,-168.3733C604.6543,-159.0613 647.4054,-144.8953 678.2607,-134.671"/>
<polygon fill="#191970" stroke="#191970" points="679.4355,-137.969 687.827,-131.5011 677.2336,-131.3243 679.4355,-137.969"/>
</g>
<!-- Node8&#45;&gt;Node3 -->
<g id="edge9" class="edge">
<title>Node8&#45;&gt;Node3</title>
<path fill="none" stroke="#191970" d="M756.0976,-115.3007C820.6294,-104.3829 947.573,-82.9061 1010.431,-72.2715"/>
<polygon fill="#191970" stroke="#191970" points="1011.0353,-75.7191 1020.3113,-70.5999 1009.8675,-68.8172 1011.0353,-75.7191"/>
</g>
<!-- Node9 -->
<g id="node10" class="node">
<title>Node9</title>
<g id="a_node10"><a xlink:href="pdi_8h.html" target="_top" xlink:title="pdi.h">
<polygon fill="#ffffff" stroke="#000000" points="641,-56.5 641,-75.5 680,-75.5 680,-56.5 641,-56.5"/>
<text text-anchor="middle" x="660.5" y="-63.5" font-family="Helvetica,sans-Serif" font-size="10.00" fill="#000000">pdi.h</text>
</a>
</g>
</g>
<!-- Node8&#45;&gt;Node9 -->
<g id="edge10" class="edge">
<title>Node8&#45;&gt;Node9</title>
<path fill="none" stroke="#191970" d="M706.7455,-112.2455C698.6352,-104.1352 686.9075,-92.4075 677.2919,-82.7919"/>
<polygon fill="#191970" stroke="#191970" points="679.6887,-80.2389 670.1427,-75.6427 674.7389,-85.1887 679.6887,-80.2389"/>
</g>
<!-- Node9&#45;&gt;Node7 -->
<g id="edge11" class="edge">
<title>Node9&#45;&gt;Node7</title>
<path fill="none" stroke="#191970" d="M640.6916,-60.4258C609.2009,-51.5641 546.9761,-34.0536 504.7989,-22.1846"/>
<polygon fill="#191970" stroke="#191970" points="505.642,-18.786 495.0677,-19.4462 503.7457,-25.5243 505.642,-18.786"/>
</g>
<!-- Node10 -->
<g id="node11" class="node">
<title>Node10</title>
<polygon fill="#ffffff" stroke="#bfbfbf" points="653.5,-.5 653.5,-19.5 725.5,-19.5 725.5,-.5 653.5,-.5"/>
<text text-anchor="middle" x="689.5" y="-7.5" font-family="Helvetica,sans-Serif" font-size="10.00" fill="#000000">pdi/export.h</text>
</g>
<!-- Node9&#45;&gt;Node10 -->
<g id="edge12" class="edge">
<title>Node9&#45;&gt;Node10</title>
<path fill="none" stroke="#191970" d="M665.5514,-56.2455C669.5019,-48.617 675.1097,-37.7881 679.9058,-28.5267"/>
<polygon fill="#191970" stroke="#191970" points="683.0159,-30.1321 684.5065,-19.6427 676.7999,-26.9131 683.0159,-30.1321"/>
</g>
<!-- Node11 -->
<g id="node12" class="node">
<title>Node11</title>
<polygon fill="#ffffff" stroke="#bfbfbf" points="558,-.5 558,-19.5 635,-19.5 635,-.5 558,-.5"/>
<text text-anchor="middle" x="596.5" y="-7.5" font-family="Helvetica,sans-Serif" font-size="10.00" fill="#000000">pdi/version.h</text>
</g>
<!-- Node9&#45;&gt;Node11 -->
<g id="edge13" class="edge">
<title>Node9&#45;&gt;Node11</title>
<path fill="none" stroke="#191970" d="M649.3521,-56.2455C639.9913,-48.0549 626.4142,-36.1749 615.3651,-26.5069"/>
<polygon fill="#191970" stroke="#191970" points="617.3508,-23.5937 607.5202,-19.6427 612.7412,-28.8618 617.3508,-23.5937"/>
</g>
<!-- Node12&#45;&gt;Node8 -->
<g id="edge18" class="edge">
<title>Node12&#45;&gt;Node8</title>
<path fill="none" stroke="#191970" d="M964.5971,-280.3499C961.8923,-257.1825 951.7148,-198.1138 916.5,-168 894.224,-148.9508 817.9689,-135.3865 766.3208,-128.1254"/>
<polygon fill="#191970" stroke="#191970" points="766.7253,-124.6482 756.3426,-126.7574 765.7745,-131.5833 766.7253,-124.6482"/>
</g>
<!-- Node13 -->
<g id="node14" class="node">
<title>Node13</title>
<g id="a_node14"><a xlink:href="logger_8h.html" target="_top" xlink:title="pdi/logger.h">
<polygon fill="#ffffff" stroke="#000000" points="802.5,-224.5 802.5,-243.5 874.5,-243.5 874.5,-224.5 802.5,-224.5"/>
<text text-anchor="middle" x="838.5" y="-231.5" font-family="Helvetica,sans-Serif" font-size="10.00" fill="#000000">pdi/logger.h</text>
</a>
</g>
</g>
<!-- Node12&#45;&gt;Node13 -->
<g id="edge15" class="edge">
<title>Node12&#45;&gt;Node13</title>
<path fill="none" stroke="#191970" d="M943.6679,-280.3733C923.1897,-271.3435 892.3601,-257.7494 869.3681,-247.6111"/>
<polygon fill="#191970" stroke="#191970" points="870.6093,-244.3333 860.0472,-243.5011 867.785,-250.7383 870.6093,-244.3333"/>
</g>
<!-- Node13&#45;&gt;Node5 -->
<g id="edge17" class="edge">
<title>Node13&#45;&gt;Node5</title>
<path fill="none" stroke="#191970" d="M802.233,-227.0208C753.264,-217.5972 665.3937,-200.6874 606.7594,-189.4039"/>
<polygon fill="#191970" stroke="#191970" points="607.3712,-185.9575 596.8899,-187.5046 606.0483,-192.8313 607.3712,-185.9575"/>
</g>
<!-- Node13&#45;&gt;Node8 -->
<g id="edge16" class="edge">
<title>Node13&#45;&gt;Node8</title>
<path fill="none" stroke="#191970" d="M832.6394,-224.1865C824.1297,-210.4853 807.3007,-185.3571 788.5,-168 775.1787,-155.7016 758.165,-144.6609 744.0215,-136.4804"/>
<polygon fill="#191970" stroke="#191970" points="745.6425,-133.3767 735.2092,-131.5332 742.2157,-139.4806 745.6425,-133.3767"/>
</g>
<!-- Node14&#45;&gt;Node3 -->
<g id="edge22" class="edge">
<title>Node14&#45;&gt;Node3</title>
<path fill="none" stroke="#191970" d="M641.7467,-399.5948C698.7784,-395.2649 807.3716,-383.8578 895.5,-356 949.3246,-338.9858 973.2532,-343.2751 1009.5,-300 1029.1001,-276.5994 1028.5,-264.5246 1028.5,-234 1028.5,-234 1028.5,-234 1028.5,-178 1028.5,-145.2688 1036.4852,-107.9052 1042.1022,-85.6716"/>
<polygon fill="#191970" stroke="#191970" points="1045.5415,-86.3545 1044.6965,-75.7934 1038.7711,-84.5763 1045.5415,-86.3545"/>
</g>
<!-- Node14&#45;&gt;Node8 -->
<g id="edge25" class="edge">
<title>Node14&#45;&gt;Node8</title>
<path fill="none" stroke="#191970" d="M641.7362,-397.2457C688.1017,-390.727 761.0507,-377.3319 777.5,-356 829.3284,-288.7875 761.2557,-181.7993 730.3338,-139.7747"/>
<polygon fill="#191970" stroke="#191970" points="733.0006,-137.4977 724.1892,-131.6146 727.4087,-141.7085 733.0006,-137.4977"/>
</g>
<!-- Node15 -->
<g id="node16" class="node">
<title>Node15</title>
<polygon fill="#ffffff" stroke="#bfbfbf" points="717,-336.5 717,-355.5 768,-355.5 768,-336.5 717,-336.5"/>
<text text-anchor="middle" x="742.5" y="-343.5" font-family="Helvetica,sans-Serif" font-size="10.00" fill="#000000">cassert</text>
</g>
<!-- Node14&#45;&gt;Node15 -->
<g id="edge20" class="edge">
<title>Node14&#45;&gt;Node15</title>
<path fill="none" stroke="#191970" d="M626.5669,-392.3733C649.3428,-383.2629 683.7344,-369.5062 709.149,-359.3404"/>
<polygon fill="#191970" stroke="#191970" points="710.7623,-362.4648 718.7472,-355.5011 708.1625,-355.9654 710.7623,-362.4648"/>
</g>
<!-- Node16 -->
<g id="node17" class="node">
<title>Node16</title>
<polygon fill="#ffffff" stroke="#bfbfbf" points="824.5,-336.5 824.5,-355.5 886.5,-355.5 886.5,-336.5 824.5,-336.5"/>
<text text-anchor="middle" x="855.5" y="-343.5" font-family="Helvetica,sans-Serif" font-size="10.00" fill="#000000">functional</text>
</g>
<!-- Node14&#45;&gt;Node16 -->
<g id="edge21" class="edge">
<title>Node14&#45;&gt;Node16</title>
<path fill="none" stroke="#191970" d="M641.6052,-393.3642C683.4131,-384.1286 751.6455,-369.0473 810.5,-356 811.7306,-355.7272 812.9801,-355.4501 814.2416,-355.1703"/>
<polygon fill="#191970" stroke="#191970" points="815.0257,-358.5815 824.0297,-352.9977 813.5088,-351.7478 815.0257,-358.5815"/>
</g>
<!-- Node17 -->
<g id="node18" class="node">
<title>Node17</title>
<polygon fill="#ffffff" stroke="#bfbfbf" points="662.5,-336.5 662.5,-355.5 698.5,-355.5 698.5,-336.5 662.5,-336.5"/>
<text text-anchor="middle" x="680.5" y="-343.5" font-family="Helvetica,sans-Serif" font-size="10.00" fill="#000000">new</text>
</g>
<!-- Node14&#45;&gt;Node17 -->
<g id="edge23" class="edge">
<title>Node14&#45;&gt;Node17</title>
<path fill="none" stroke="#191970" d="M616.0866,-392.2455C627.8305,-383.814 645.0199,-371.4729 658.6882,-361.6598"/>
<polygon fill="#191970" stroke="#191970" points="660.9871,-364.3179 667.0691,-355.6427 656.9046,-358.6316 660.9871,-364.3179"/>
</g>
<!-- Node18 -->
<g id="node19" class="node">
<title>Node18</title>
<polygon fill="#ffffff" stroke="#bfbfbf" points="412.5,-336.5 412.5,-355.5 504.5,-355.5 504.5,-336.5 412.5,-336.5"/>
<text text-anchor="middle" x="458.5" y="-343.5" font-family="Helvetica,sans-Serif" font-size="10.00" fill="#000000">unordered_map</text>
</g>
<!-- Node14&#45;&gt;Node18 -->
<g id="edge24" class="edge">
<title>Node14&#45;&gt;Node18</title>
<path fill="none" stroke="#191970" d="M577.7455,-392.3733C554.2151,-383.2226 518.6313,-369.3844 492.4574,-359.2057"/>
<polygon fill="#191970" stroke="#191970" points="493.5201,-355.8636 482.9315,-355.5011 490.9829,-362.3877 493.5201,-355.8636"/>
</g>
<!-- Node19 -->
<g id="node20" class="node">
<title>Node19</title>
<g id="a_node20"><a xlink:href="datatype_8h.html" target="_top" xlink:title="pdi/datatype.h">
<polygon fill="#ffffff" stroke="#000000" points="561,-336.5 561,-355.5 644,-355.5 644,-336.5 561,-336.5"/>
<text text-anchor="middle" x="602.5" y="-343.5" font-family="Helvetica,sans-Serif" font-size="10.00" fill="#000000">pdi/datatype.h</text>
</a>
</g>
</g>
<!-- Node14&#45;&gt;Node19 -->
<g id="edge26" class="edge">
<title>Node14&#45;&gt;Node19</title>
<path fill="none" stroke="#191970" d="M602.5,-392.2455C602.5,-384.9382 602.5,-374.6944 602.5,-365.7046"/>
<polygon fill="#191970" stroke="#191970" points="606.0001,-365.6426 602.5,-355.6427 599.0001,-365.6427 606.0001,-365.6426"/>
</g>
<!-- Node14&#45;&gt;Node21 -->
<g id="edge32" class="edge">
<title>Node14&#45;&gt;Node21</title>
<path fill="none" stroke="#191970" d="M589.7761,-392.4823C566.3194,-374.8179 514.8751,-335.5229 473.5,-300 431.3711,-263.8299 384.2397,-218.7235 359.6081,-194.7718"/>
<polygon fill="#191970" stroke="#191970" points="362.0389,-192.2535 352.4364,-187.7767 357.1513,-197.2646 362.0389,-192.2535"/>
</g>
<!-- Node19&#45;&gt;Node8 -->
<g id="edge27" class="edge">
<title>Node19&#45;&gt;Node8</title>
<path fill="none" stroke="#191970" d="M624.9088,-336.3846C640.5318,-328.6359 660.7783,-316.341 673.5,-300 710.6836,-252.2379 716.3429,-177.0623 716.8015,-141.6684"/>
<polygon fill="#191970" stroke="#191970" points="720.3016,-141.6597 716.801,-131.6599 713.3016,-141.6601 720.3016,-141.6597"/>
</g>
<!-- Node20 -->
<g id="node21" class="node">
<title>Node20</title>
<g id="a_node21"><a xlink:href="datatype__template_8h.html" target="_top" xlink:title="pdi/datatype_template.h">
<polygon fill="#ffffff" stroke="#000000" points="482.5,-280.5 482.5,-299.5 612.5,-299.5 612.5,-280.5 482.5,-280.5"/>
<text text-anchor="middle" x="547.5" y="-287.5" font-family="Helvetica,sans-Serif" font-size="10.00" fill="#000000">pdi/datatype_template.h</text>
</a>
</g>
</g>
<!-- Node19&#45;&gt;Node20 -->
<g id="edge28" class="edge">
<title>Node19&#45;&gt;Node20</title>
<path fill="none" stroke="#191970" d="M592.9197,-336.2455C584.9542,-328.1352 573.4359,-316.4075 563.9921,-306.7919"/>
<polygon fill="#191970" stroke="#191970" points="566.4747,-304.3247 556.9705,-299.6427 561.4805,-309.2297 566.4747,-304.3247"/>
</g>
<!-- Node20&#45;&gt;Node7 -->
<g id="edge29" class="edge">
<title>Node20&#45;&gt;Node7</title>
<path fill="none" stroke="#191970" d="M537.7317,-280.382C521.2666,-263.4617 488.4241,-226.4987 474.5,-188 454.7975,-133.5247 456.9391,-63.6817 459.5274,-29.9709"/>
<polygon fill="#191970" stroke="#191970" points="463.0463,-29.9041 460.4264,-19.6383 456.0727,-29.2972 463.0463,-29.9041"/>
</g>
<!-- Node20&#45;&gt;Node8 -->
<g id="edge30" class="edge">
<title>Node20&#45;&gt;Node8</title>
<path fill="none" stroke="#191970" d="M556.3426,-280.2492C575.5216,-259.2204 622.5948,-208.2524 664.5,-168 675.0941,-157.8238 687.3866,-146.9111 697.3594,-138.2696"/>
<polygon fill="#191970" stroke="#191970" points="699.8026,-140.7848 705.1026,-131.6109 695.2385,-135.4773 699.8026,-140.7848"/>
</g>
<!-- Node20&#45;&gt;Node13 -->
<g id="edge31" class="edge">
<title>Node20&#45;&gt;Node13</title>
<path fill="none" stroke="#191970" d="M597.194,-280.4369C651.9421,-269.9012 739.2681,-253.0962 792.4969,-242.8528"/>
<polygon fill="#191970" stroke="#191970" points="793.1874,-246.2843 802.3458,-240.9575 791.8645,-239.4104 793.1874,-246.2843"/>
</g>
<!-- Node21&#45;&gt;Node6 -->
<g id="edge34" class="edge">
<title>Node21&#45;&gt;Node6</title>
<path fill="none" stroke="#191970" d="M354.5189,-168.2455C364.7098,-159.9746 379.5362,-147.9416 391.5107,-138.2232"/>
<polygon fill="#191970" stroke="#191970" points="394.0598,-140.662 399.6188,-131.6427 389.6486,-135.2268 394.0598,-140.662"/>
</g>
<!-- Node21&#45;&gt;Node7 -->
<g id="edge35" class="edge">
<title>Node21&#45;&gt;Node7</title>
<path fill="none" stroke="#191970" d="M328.8263,-168.3961C312.6044,-155.7542 289.1072,-132.7046 300.5,-112 325.8671,-65.8995 381.8441,-37.714 420.6138,-22.9754"/>
<polygon fill="#191970" stroke="#191970" points="421.8821,-26.2383 430.0706,-19.5152 419.4768,-19.6645 421.8821,-26.2383"/>
</g>
<!-- Node21&#45;&gt;Node8 -->
<g id="edge36" class="edge">
<title>Node21&#45;&gt;Node8</title>
<path fill="none" stroke="#191970" d="M375.0358,-173.1283C440.6025,-163.3109 588.9764,-141.0944 666.7753,-129.4454"/>
<polygon fill="#191970" stroke="#191970" points="667.4422,-132.8847 676.8136,-127.9423 666.4056,-125.9618 667.4422,-132.8847"/>
</g>
<!-- Node22 -->
<g id="node23" class="node">
<title>Node22</title>
<polygon fill="#ffffff" stroke="#bfbfbf" points="309.5,-112.5 309.5,-131.5 371.5,-131.5 371.5,-112.5 309.5,-112.5"/>
<text text-anchor="middle" x="340.5" y="-119.5" font-family="Helvetica,sans-Serif" font-size="10.00" fill="#000000">exception</text>
</g>
<!-- Node21&#45;&gt;Node22 -->
<g id="edge33" class="edge">
<title>Node21&#45;&gt;Node22</title>
<path fill="none" stroke="#191970" d="M342.1516,-168.2455C341.8907,-160.9382 341.5248,-150.6944 341.2037,-141.7046"/>
<polygon fill="#191970" stroke="#191970" points="344.6992,-141.5113 340.8444,-131.6427 337.7036,-141.7613 344.6992,-141.5113"/>
</g>
<!-- Node23&#45;&gt;Node3 -->
<g id="edge41" class="edge">
<title>Node23&#45;&gt;Node3</title>
<path fill="none" stroke="#191970" d="M671.0034,-509.5232C734.4766,-501.7808 858.0797,-485.0734 898.5,-468 983.5054,-432.094 1066.5,-438.2776 1066.5,-346 1066.5,-346 1066.5,-346 1066.5,-178 1066.5,-145.2688 1058.5148,-107.9052 1052.8978,-85.6716"/>
<polygon fill="#191970" stroke="#191970" points="1056.2289,-84.5763 1050.3035,-75.7934 1049.4585,-86.3545 1056.2289,-84.5763"/>
</g>
<!-- Node23&#45;&gt;Node6 -->
<g id="edge43" class="edge">
<title>Node23&#45;&gt;Node6</title>
<path fill="none" stroke="#191970" d="M593.9618,-511.3839C509.1171,-505.2641 311.978,-488.934 290.5,-468 208.3807,-387.9605 348.1104,-267.779 384.5,-188 391.5539,-172.5353 398.8077,-154.6747 404.018,-141.4362"/>
<polygon fill="#191970" stroke="#191970" points="407.347,-142.5327 407.7157,-131.9443 400.8245,-139.9917 407.347,-142.5327"/>
</g>
<!-- Node23&#45;&gt;Node8 -->
<g id="edge46" class="edge">
<title>Node23&#45;&gt;Node8</title>
<path fill="none" stroke="#191970" d="M671.0763,-511.5577C732.054,-506.9248 846.8481,-494.8203 876.5,-468 914.9858,-433.1893 902.0908,-407.3619 909.5,-356 916.5931,-306.8295 887.601,-230.4133 883.5,-224 854.3106,-178.3528 796.6757,-149.9933 757.3664,-135.0978"/>
<polygon fill="#191970" stroke="#191970" points="758.3897,-131.7454 747.7958,-131.5986 755.9859,-138.3197 758.3897,-131.7454"/>
</g>
<!-- Node23&#45;&gt;Node13 -->
<g id="edge54" class="edge">
<title>Node23&#45;&gt;Node13</title>
<path fill="none" stroke="#191970" d="M650.4572,-504.3876C667.3686,-495.2551 693.3427,-481.0222 715.5,-468 735.808,-456.0647 884.0604,-376.5913 895.5,-356 906.0521,-337.0062 871.2283,-281.2736 851.3606,-252.1686"/>
<polygon fill="#191970" stroke="#191970" points="854.0868,-249.9579 845.512,-243.7349 848.3346,-253.9469 854.0868,-249.9579"/>
</g>
<!-- Node23&#45;&gt;Node14 -->
<g id="edge53" class="edge">
<title>Node23&#45;&gt;Node14</title>
<path fill="none" stroke="#191970" d="M626.2948,-504.1966C620.9003,-495.1627 613.3615,-481.1969 609.5,-468 605.0952,-452.9461 603.3956,-435.2404 602.7697,-421.9595"/>
<polygon fill="#191970" stroke="#191970" points="606.2572,-421.4944 602.455,-411.6054 599.2605,-421.7071 606.2572,-421.4944"/>
</g>
<!-- Node23&#45;&gt;Node16 -->
<g id="edge39" class="edge">
<title>Node23&#45;&gt;Node16</title>
<path fill="none" stroke="#191970" d="M671.3254,-511.8062C729.3683,-507.6242 834.4314,-496.262 857.5,-468 881.2814,-438.8647 871.1155,-391.4638 862.6502,-365.145"/>
<polygon fill="#191970" stroke="#191970" points="865.9156,-363.8783 859.3412,-355.57 859.2995,-366.1648 865.9156,-363.8783"/>
</g>
<!-- Node23&#45;&gt;Node18 -->
<g id="edge44" class="edge">
<title>Node23&#45;&gt;Node18</title>
<path fill="none" stroke="#191970" d="M622.6465,-504.4862C594.3076,-477.1246 512.3083,-397.9528 476.0722,-362.9663"/>
<polygon fill="#191970" stroke="#191970" points="478.304,-360.2559 468.6789,-355.8279 473.4418,-365.2918 478.304,-360.2559"/>
</g>
<!-- Node23&#45;&gt;Node20 -->
<g id="edge52" class="edge">
<title>Node23&#45;&gt;Node20</title>
<path fill="none" stroke="#191970" d="M593.7709,-511.1494C513.5914,-504.854 335.3699,-488.669 317.5,-468 287.8429,-433.6975 235.5624,-445.5485 356.5,-336 373.692,-320.427 426.5357,-308.4165 472.2922,-300.5792"/>
<polygon fill="#191970" stroke="#191970" points="472.9449,-304.0188 482.233,-298.9217 471.7935,-297.1141 472.9449,-304.0188"/>
</g>
<!-- Node24 -->
<g id="node25" class="node">
<title>Node24</title>
<polygon fill="#ffffff" stroke="#bfbfbf" points="618,-448.5 618,-467.5 647,-467.5 647,-448.5 618,-448.5"/>
<text text-anchor="middle" x="632.5" y="-455.5" font-family="Helvetica,sans-Serif" font-size="10.00" fill="#000000">list</text>
</g>
<!-- Node23&#45;&gt;Node24 -->
<g id="edge40" class="edge">
<title>Node23&#45;&gt;Node24</title>
<path fill="none" stroke="#191970" d="M632.5,-504.2455C632.5,-496.9382 632.5,-486.6944 632.5,-477.7046"/>
<polygon fill="#191970" stroke="#191970" points="636.0001,-477.6426 632.5,-467.6427 629.0001,-477.6427 636.0001,-477.6426"/>
</g>
<!-- Node25 -->
<g id="node26" class="node">
<title>Node25</title>
<polygon fill="#ffffff" stroke="#bfbfbf" points="665,-448.5 665,-467.5 706,-467.5 706,-448.5 665,-448.5"/>
<text text-anchor="middle" x="685.5" y="-455.5" font-family="Helvetica,sans-Serif" font-size="10.00" fill="#000000">stack</text>
</g>
<!-- Node23&#45;&gt;Node25 -->
<g id="edge42" class="edge">
<title>Node23&#45;&gt;Node25</title>
<path fill="none" stroke="#191970" d="M641.7319,-504.2455C649.3317,-496.2155 660.2877,-484.6394 669.3368,-475.0781"/>
<polygon fill="#191970" stroke="#191970" points="672.0421,-477.3115 676.3739,-467.6427 666.958,-472.4998 672.0421,-477.3115"/>
</g>
<!-- Node26 -->
<g id="node27" class="node">
<title>Node26</title>
<polygon fill="#ffffff" stroke="#bfbfbf" points="762.5,-448.5 762.5,-467.5 848.5,-467.5 848.5,-448.5 762.5,-448.5"/>
<text text-anchor="middle" x="805.5" y="-455.5" font-family="Helvetica,sans-Serif" font-size="10.00" fill="#000000">unordered_set</text>
</g>
<!-- Node23&#45;&gt;Node26 -->
<g id="edge45" class="edge">
<title>Node23&#45;&gt;Node26</title>
<path fill="none" stroke="#191970" d="M662.2398,-504.3733C691.007,-495.0613 734.77,-480.8953 766.3556,-470.671"/>
<polygon fill="#191970" stroke="#191970" points="767.7122,-473.9107 776.1483,-467.5011 765.5564,-467.251 767.7122,-473.9107"/>
</g>
<!-- Node27 -->
<g id="node28" class="node">
<title>Node27</title>
<g id="a_node28"><a xlink:href="data__descriptor_8h.html" target="_top" xlink:title="pdi/data_descriptor.h">
<polygon fill="#ffffff" stroke="#000000" points="326.5,-448.5 326.5,-467.5 442.5,-467.5 442.5,-448.5 326.5,-448.5"/>
<text text-anchor="middle" x="384.5" y="-455.5" font-family="Helvetica,sans-Serif" font-size="10.00" fill="#000000">pdi/data_descriptor.h</text>
</a>
</g>
</g>
<!-- Node23&#45;&gt;Node27 -->
<g id="edge47" class="edge">
<title>Node23&#45;&gt;Node27</title>
<path fill="none" stroke="#191970" d="M593.75,-505.25C551.4864,-495.7066 483.6139,-480.3806 436.6841,-469.7835"/>
<polygon fill="#191970" stroke="#191970" points="437.2356,-466.32 426.7103,-467.5314 435.6938,-473.1481 437.2356,-466.32"/>
</g>
<!-- Node27&#45;&gt;Node7 -->
<g id="edge48" class="edge">
<title>Node27&#45;&gt;Node7</title>
<path fill="none" stroke="#191970" d="M375.2486,-448.2389C343.8799,-414.074 243.5,-295.5618 243.5,-178 243.5,-178 243.5,-178 243.5,-122 243.5,-44.4107 354.1067,-20.5296 417.75,-13.2105"/>
<polygon fill="#191970" stroke="#191970" points="418.3387,-16.6678 427.9153,-12.1357 417.6026,-9.7066 418.3387,-16.6678"/>
</g>
<!-- Node27&#45;&gt;Node8 -->
<g id="edge49" class="edge">
<title>Node27&#45;&gt;Node8</title>
<path fill="none" stroke="#191970" d="M382.6676,-448.4524C378.8708,-425.5123 372.8717,-366.9103 403.5,-336 472.6198,-266.2439 541.6965,-357.2263 621.5,-300 676.4485,-260.5969 702.5446,-179.4125 712.058,-141.8583"/>
<polygon fill="#191970" stroke="#191970" points="715.5657,-142.2391 714.4916,-131.6988 708.7583,-140.6084 715.5657,-142.2391"/>
</g>
<!-- Node27&#45;&gt;Node14 -->
<g id="edge51" class="edge">
<title>Node27&#45;&gt;Node14</title>
<path fill="none" stroke="#191970" d="M421.9755,-448.3733C459.0103,-438.8598 515.7682,-424.2797 555.7361,-414.0127"/>
<polygon fill="#191970" stroke="#191970" points="556.6988,-417.3792 565.5135,-411.5011 554.9571,-410.5993 556.6988,-417.3792"/>
</g>
<!-- Node27&#45;&gt;Node20 -->
<g id="edge50" class="edge">
<title>Node27&#45;&gt;Node20</title>
<path fill="none" stroke="#191970" d="M379.209,-448.22C367.8664,-425.7751 344.2852,-369.8985 370.5,-336 383.3117,-319.4331 429.9235,-307.7251 472.0969,-300.2676"/>
<polygon fill="#191970" stroke="#191970" points="472.8653,-303.6872 482.1346,-298.5557 471.6884,-296.7868 472.8653,-303.6872"/>
</g>
</g>
</svg>
        <g id="navigator" transform="translate(0 0)" fill="#404254">
                <rect fill="#f2f5e9" fill-opacity="0.5" stroke="#606060" stroke-width=".5" x="0" y="0" width="60" height="60"/>
                <use id="zoomplus" xlink:href="#zoomPlus" x="17" y="9" onmousedown="handleZoom(evt,'in')"/>
                <use id="zoomminus" xlink:href="#zoomMin" x="42" y="9" onmousedown="handleZoom(evt,'out')"/>
                <use id="reset" xlink:href="#resetDef" x="30" y="36" onmousedown="handleReset()"/>
                <g id="arrowUp" xlink:href="#dirArrow" transform="translate(30 24)" onmousedown="handlePan(0,-1)">
                  <use xlink:href="#rim" fill="#404040">
                        <set attributeName="fill" to="#808080" begin="arrowUp.mouseover" end="arrowUp.mouseout"/>
                  </use>
                  <path fill="none" stroke="white" stroke-width="1.5" d="M0,-3.0v7 M-2.5,-0.5L0,-3.0L2.5,-0.5"/>
                </g>
                <g id="arrowRight" xlink:href="#dirArrow" transform="rotate(90) translate(36 -43)" onmousedown="handlePan(1,0)">
                  <use xlink:href="#rim" fill="#404040">
                        <set attributeName="fill" to="#808080" begin="arrowRight.mouseover" end="arrowRight.mouseout"/>
                  </use>
                  <path fill="none" stroke="white" stroke-width="1.5" d="M0,-3.0v7 M-2.5,-0.5L0,-3.0L2.5,-0.5"/>
                </g>
                <g id="arrowDown" xlink:href="#dirArrow" transform="rotate(180) translate(-30 -48)" onmousedown="handlePan(0,1)">
                  <use xlink:href="#rim" fill="#404040">
                        <set attributeName="fill" to="#808080" begin="arrowDown.mouseover" end="arrowDown.mouseout"/>
                  </use>
                  <path fill="none" stroke="white" stroke-width="1.5" d="M0,-3.0v7 M-2.5,-0.5L0,-3.0L2.5,-0.5"/>
                </g>
                <g id="arrowLeft" xlink:href="#dirArrow" transform="rotate(270) translate(-36 17)" onmousedown="handlePan(-1,0)">
                  <use xlink:href="#rim" fill="#404040">
                        <set attributeName="fill" to="#808080" begin="arrowLeft.mouseover" end="arrowLeft.mouseout"/>
                  </use>
                  <path fill="none" stroke="white" stroke-width="1.5" d="M0,-3.0v7 M-2.5,-0.5L0,-3.0L2.5,-0.5"/>
                </g>
        </g>
        <svg viewBox="0 0 15 15" width="100%" height="30px" preserveAspectRatio="xMaxYMin meet">
         <g id="arrow_out" transform="scale(0.3 0.3)">
          <a xlink:href="context_8cxx__incl_org.svg" target="_base">
           <rect id="button" ry="5" rx="5" y="6" x="6" height="38" width="38"
                fill="#f2f5e9" fill-opacity="0.5" stroke="#606060" stroke-width="1.0"/>
           <path id="arrow"
             d="M 11.500037,31.436501 C 11.940474,20.09759 22.043105,11.32322 32.158766,21.979434 L 37.068811,17.246167 C 37.068811,17.246167 37.088388,32 37.088388,32 L 22.160133,31.978069 C 22.160133,31.978069 26.997745,27.140456 26.997745,27.140456 C 18.528582,18.264221 13.291696,25.230495 11.500037,31.436501 z"
             style="fill:#404040;"/>
          </a>
         </g>
        </svg>
</svg>
