<?xml version="1.0" encoding="UTF-8" standalone="no"?>
<!DOCTYPE svg PUBLIC "-//W3C//DTD SVG 1.1//EN"
 "http://www.w3.org/Graphics/SVG/1.1/DTD/svg11.dtd">
<!-- Generated by graphviz version 2.40.1 (20161225.0304)
 -->
<!-- Title: /home/jbigot/data/projects/pdi/pdi/include/pdi/context.h Pages: 1 -->
<svg width="1205pt" height="543pt"
 viewBox="0.00 0.00 1205.00 543.00" xmlns="http://www.w3.org/2000/svg" xmlns:xlink="http://www.w3.org/1999/xlink">
<g id="graph0" class="graph" transform="scale(1 1) rotate(0) translate(4 539)">
<title>/home/jbigot/data/projects/pdi/pdi/include/pdi/context.h</title>
<polygon fill="#ffffff" stroke="transparent" points="-4,4 -4,-539 1201,-539 1201,4 -4,4"/>
<!-- Node0 -->
<g id="node1" class="node">
<title>Node0</title>
<polygon fill="#bfbfbf" stroke="#000000" points="727,-504.5 727,-534.5 877,-534.5 877,-504.5 727,-504.5"/>
<text text-anchor="start" x="735" y="-522.5" font-family="Helvetica,sans-Serif" font-size="10.00" fill="#000000">/home/jbigot/data/projects</text>
<text text-anchor="middle" x="802" y="-511.5" font-family="Helvetica,sans-Serif" font-size="10.00" fill="#000000">/pdi/pdi/include/pdi/context.h</text>
</g>
<!-- Node1 -->
<g id="node2" class="node">
<title>Node1</title>
<polygon fill="#ffffff" stroke="#bfbfbf" points="738,-336.5 738,-355.5 800,-355.5 800,-336.5 738,-336.5"/>
<text text-anchor="middle" x="769" y="-343.5" font-family="Helvetica,sans-Serif" font-size="10.00" fill="#000000">functional</text>
</g>
<!-- Node0&#45;&gt;Node1 -->
<g id="edge1" class="edge">
<title>Node0&#45;&gt;Node1</title>
<path fill="none" stroke="#191970" d="M799.1292,-504.4065C793.158,-473.0126 779.4033,-400.6961 772.7455,-365.6925"/>
<polygon fill="#191970" stroke="#191970" points="776.1591,-364.9079 770.8522,-355.738 769.2824,-366.2159 776.1591,-364.9079"/>
</g>
<!-- Node2 -->
<g id="node3" class="node">
<title>Node2</title>
<polygon fill="#ffffff" stroke="#bfbfbf" points="1004.5,-448.5 1004.5,-467.5 1033.5,-467.5 1033.5,-448.5 1004.5,-448.5"/>
<text text-anchor="middle" x="1019" y="-455.5" font-family="Helvetica,sans-Serif" font-size="10.00" fill="#000000">list</text>
</g>
<!-- Node0&#45;&gt;Node2 -->
<g id="edge2" class="edge">
<title>Node0&#45;&gt;Node2</title>
<path fill="none" stroke="#191970" d="M860.7136,-504.4613C897.9337,-494.6704 946.9975,-481.289 990,-468 991.4629,-467.5479 992.9629,-467.0713 994.4733,-466.5813"/>
<polygon fill="#191970" stroke="#191970" points="995.9457,-469.7788 1004.3076,-463.2727 993.7135,-463.1442 995.9457,-469.7788"/>
</g>
<!-- Node3 -->
<g id="node4" class="node">
<title>Node3</title>
<polygon fill="#ffffff" stroke="#bfbfbf" points="683,-56.5 683,-75.5 737,-75.5 737,-56.5 683,-56.5"/>
<text text-anchor="middle" x="710" y="-63.5" font-family="Helvetica,sans-Serif" font-size="10.00" fill="#000000">memory</text>
</g>
<!-- Node0&#45;&gt;Node3 -->
<g id="edge3" class="edge">
<title>Node0&#45;&gt;Node3</title>
<path fill="none" stroke="#191970" d="M865.3102,-504.3529C915.0611,-488.2359 976,-457.2233 976,-402 976,-402 976,-402 976,-178 976,-129.0476 821.0437,-89.5758 747.6703,-73.6294"/>
<polygon fill="#191970" stroke="#191970" points="747.9754,-70.1156 737.4648,-71.449 746.5128,-76.9611 747.9754,-70.1156"/>
</g>
<!-- Node4 -->
<g id="node5" class="node">
<title>Node4</title>
<polygon fill="#ffffff" stroke="#bfbfbf" points="1051.5,-448.5 1051.5,-467.5 1092.5,-467.5 1092.5,-448.5 1051.5,-448.5"/>
<text text-anchor="middle" x="1072" y="-455.5" font-family="Helvetica,sans-Serif" font-size="10.00" fill="#000000">stack</text>
</g>
<!-- Node0&#45;&gt;Node4 -->
<g id="edge4" class="edge">
<title>Node0&#45;&gt;Node4</title>
<path fill="none" stroke="#191970" d="M877.2062,-505.8709C922.5112,-497.0925 981.4677,-484.6718 1041.2045,-468.2891"/>
<polygon fill="#191970" stroke="#191970" points="1042.488,-471.5651 1051.1862,-465.5161 1040.6142,-464.8206 1042.488,-471.5651"/>
</g>
<!-- Node5 -->
<g id="node6" class="node">
<title>Node5</title>
<polygon fill="#ffffff" stroke="#bfbfbf" points="149.5,-112.5 149.5,-131.5 192.5,-131.5 192.5,-112.5 149.5,-112.5"/>
<text text-anchor="middle" x="171" y="-119.5" font-family="Helvetica,sans-Serif" font-size="10.00" fill="#000000">string</text>
</g>
<!-- Node0&#45;&gt;Node5 -->
<g id="edge5" class="edge">
<title>Node0&#45;&gt;Node5</title>
<path fill="none" stroke="#191970" d="M726.9102,-516.3234C527.538,-506.8943 0,-475.0438 0,-402 0,-402 0,-402 0,-290 0,-212.3568 90.8165,-158.6568 140.0827,-135.2379"/>
<polygon fill="#191970" stroke="#191970" points="141.7327,-138.3312 149.3427,-130.9598 138.7968,-131.9766 141.7327,-138.3312"/>
</g>
<!-- Node6 -->
<g id="node7" class="node">
<title>Node6</title>
<polygon fill="#ffffff" stroke="#bfbfbf" points="818,-336.5 818,-355.5 910,-355.5 910,-336.5 818,-336.5"/>
<text text-anchor="middle" x="864" y="-343.5" font-family="Helvetica,sans-Serif" font-size="10.00" fill="#000000">unordered_map</text>
</g>
<!-- Node0&#45;&gt;Node6 -->
<g id="edge6" class="edge">
<title>Node0&#45;&gt;Node6</title>
<path fill="none" stroke="#191970" d="M807.3936,-504.4065C818.6608,-472.8767 844.6785,-400.0692 857.1246,-365.24"/>
<polygon fill="#191970" stroke="#191970" points="860.4509,-366.3326 860.5201,-355.738 853.8591,-363.977 860.4509,-366.3326"/>
</g>
<!-- Node7 -->
<g id="node8" class="node">
<title>Node7</title>
<polygon fill="#ffffff" stroke="#bfbfbf" points="1111,-448.5 1111,-467.5 1197,-467.5 1197,-448.5 1111,-448.5"/>
<text text-anchor="middle" x="1154" y="-455.5" font-family="Helvetica,sans-Serif" font-size="10.00" fill="#000000">unordered_set</text>
</g>
<!-- Node0&#45;&gt;Node7 -->
<g id="edge7" class="edge">
<title>Node0&#45;&gt;Node7</title>
<path fill="none" stroke="#191970" d="M877.2804,-507.0051C935.6273,-497.2216 1018.7719,-483.0655 1100.8764,-468.1794"/>
<polygon fill="#191970" stroke="#191970" points="1101.6694,-471.5927 1110.8822,-466.3606 1100.4175,-464.7055 1101.6694,-471.5927"/>
</g>
<!-- Node8 -->
<g id="node9" class="node">
<title>Node8</title>
<g id="a_node9"><a xlink:href="pdi__fwd_8h.html" target="_top" xlink:title="pdi/pdi_fwd.h">
<polygon fill="#ffffff" stroke="#000000" points="362.5,-112.5 362.5,-131.5 441.5,-131.5 441.5,-112.5 362.5,-112.5"/>
<text text-anchor="middle" x="402" y="-119.5" font-family="Helvetica,sans-Serif" font-size="10.00" fill="#000000">pdi/pdi_fwd.h</text>
</a>
</g>
</g>
<!-- Node0&#45;&gt;Node8 -->
<g id="edge8" class="edge">
<title>Node0&#45;&gt;Node8</title>
<path fill="none" stroke="#191970" d="M842.8045,-504.3828C882.8641,-486.5892 938,-452.8606 938,-402 938,-402 938,-402 938,-234 938,-184.6546 585.4235,-141.6791 452.1804,-127.1999"/>
<polygon fill="#191970" stroke="#191970" points="452.1667,-123.6783 441.8492,-126.0867 451.4167,-130.638 452.1667,-123.6783"/>
</g>
<!-- Node13 -->
<g id="node14" class="node">
<title>Node13</title>
<g id="a_node14"><a xlink:href="data__descriptor_8h.html" target="_top" xlink:title="pdi/data_descriptor.h">
<polygon fill="#ffffff" stroke="#000000" points="189,-448.5 189,-467.5 305,-467.5 305,-448.5 189,-448.5"/>
<text text-anchor="middle" x="247" y="-455.5" font-family="Helvetica,sans-Serif" font-size="10.00" fill="#000000">pdi/data_descriptor.h</text>
</a>
</g>
</g>
<!-- Node0&#45;&gt;Node13 -->
<g id="edge14" class="edge">
<title>Node0&#45;&gt;Node13</title>
<path fill="none" stroke="#191970" d="M726.6196,-512.2112C631.512,-502.8428 462.9666,-485.6684 319,-468 317.7317,-467.8444 316.4512,-467.6854 315.1613,-467.5236"/>
<polygon fill="#191970" stroke="#191970" points="315.5026,-464.0387 305.1381,-466.2362 314.6108,-470.9817 315.5026,-464.0387"/>
</g>
<!-- Node14 -->
<g id="node15" class="node">
<title>Node14</title>
<g id="a_node15"><a xlink:href="datatype__template_8h.html" target="_top" xlink:title="pdi/datatype_template.h">
<polygon fill="#ffffff" stroke="#000000" points="245,-280.5 245,-299.5 375,-299.5 375,-280.5 245,-280.5"/>
<text text-anchor="middle" x="310" y="-287.5" font-family="Helvetica,sans-Serif" font-size="10.00" fill="#000000">pdi/datatype_template.h</text>
</a>
</g>
</g>
<!-- Node0&#45;&gt;Node14 -->
<g id="edge41" class="edge">
<title>Node0&#45;&gt;Node14</title>
<path fill="none" stroke="#191970" d="M726.9929,-515.3949C607.4585,-508.1811 384.3695,-491.7125 357,-468 310.3702,-427.6006 307.3385,-346.9223 308.6683,-309.6774"/>
<polygon fill="#191970" stroke="#191970" points="312.168,-309.7698 309.1776,-299.6058 305.1769,-309.4162 312.168,-309.7698"/>
</g>
<!-- Node15 -->
<g id="node16" class="node">
<title>Node15</title>
<g id="a_node16"><a xlink:href="logger_8h.html" target="_top" xlink:title="pdi/logger.h">
<polygon fill="#ffffff" stroke="#000000" points="341,-224.5 341,-243.5 413,-243.5 413,-224.5 341,-224.5"/>
<text text-anchor="middle" x="377" y="-231.5" font-family="Helvetica,sans-Serif" font-size="10.00" fill="#000000">pdi/logger.h</text>
</a>
</g>
</g>
<!-- Node0&#45;&gt;Node15 -->
<g id="edge43" class="edge">
<title>Node0&#45;&gt;Node15</title>
<path fill="none" stroke="#191970" d="M726.6695,-507.4882C639.288,-489.6421 496.678,-447.7889 414,-356 400.3454,-340.8407 387.1686,-284.2436 380.863,-253.7539"/>
<polygon fill="#191970" stroke="#191970" points="384.2692,-252.9386 378.8626,-243.8271 377.4071,-254.3215 384.2692,-252.9386"/>
</g>
<!-- Node17 -->
<g id="node18" class="node">
<title>Node17</title>
<g id="a_node18"><a xlink:href="ref__any_8h.html" target="_top" xlink:title="pdi/ref_any.h">
<polygon fill="#ffffff" stroke="#000000" points="602,-392.5 602,-411.5 680,-411.5 680,-392.5 602,-392.5"/>
<text text-anchor="middle" x="641" y="-399.5" font-family="Helvetica,sans-Serif" font-size="10.00" fill="#000000">pdi/ref_any.h</text>
</a>
</g>
</g>
<!-- Node0&#45;&gt;Node17 -->
<g id="edge42" class="edge">
<title>Node0&#45;&gt;Node17</title>
<path fill="none" stroke="#191970" d="M781.2817,-504.3795C750.6715,-482.0397 693.6415,-440.4185 662.5569,-417.7325"/>
<polygon fill="#191970" stroke="#191970" points="664.3013,-414.6726 654.1604,-411.6046 660.1747,-420.3269 664.3013,-414.6726"/>
</g>
<!-- Node8&#45;&gt;Node3 -->
<g id="edge9" class="edge">
<title>Node8&#45;&gt;Node3</title>
<path fill="none" stroke="#191970" d="M441.6351,-114.7936C501.5636,-103.8975 614.4267,-83.377 672.8514,-72.7543"/>
<polygon fill="#191970" stroke="#191970" points="673.5506,-76.1846 682.7631,-70.9522 672.2983,-69.2975 673.5506,-76.1846"/>
</g>
<!-- Node9 -->
<g id="node10" class="node">
<title>Node9</title>
<g id="a_node10"><a xlink:href="pdi_8h.html" target="_top" xlink:title="pdi.h">
<polygon fill="#ffffff" stroke="#000000" points="287.5,-56.5 287.5,-75.5 326.5,-75.5 326.5,-56.5 287.5,-56.5"/>
<text text-anchor="middle" x="307" y="-63.5" font-family="Helvetica,sans-Serif" font-size="10.00" fill="#000000">pdi.h</text>
</a>
</g>
</g>
<!-- Node8&#45;&gt;Node9 -->
<g id="edge10" class="edge">
<title>Node8&#45;&gt;Node9</title>
<path fill="none" stroke="#191970" d="M385.4523,-112.2455C370.7401,-103.5731 349.0112,-90.7645 332.1495,-80.825"/>
<polygon fill="#191970" stroke="#191970" points="333.7502,-77.7057 323.3581,-75.6427 330.1954,-83.736 333.7502,-77.7057"/>
</g>
<!-- Node10 -->
<g id="node11" class="node">
<title>Node10</title>
<polygon fill="#ffffff" stroke="#bfbfbf" points="87.5,-.5 87.5,-19.5 154.5,-19.5 154.5,-.5 87.5,-.5"/>
<text text-anchor="middle" x="121" y="-7.5" font-family="Helvetica,sans-Serif" font-size="10.00" fill="#000000">paraconf.h</text>
</g>
<!-- Node9&#45;&gt;Node10 -->
<g id="edge11" class="edge">
<title>Node9&#45;&gt;Node10</title>
<path fill="none" stroke="#191970" d="M287.4463,-60.1129C257.993,-51.2452 201.5559,-34.2534 162.6239,-22.5319"/>
<polygon fill="#191970" stroke="#191970" points="163.2224,-19.057 152.638,-19.5254 161.2043,-25.7598 163.2224,-19.057"/>
</g>
<!-- Node11 -->
<g id="node12" class="node">
<title>Node11</title>
<polygon fill="#ffffff" stroke="#bfbfbf" points="213,-.5 213,-19.5 285,-19.5 285,-.5 213,-.5"/>
<text text-anchor="middle" x="249" y="-7.5" font-family="Helvetica,sans-Serif" font-size="10.00" fill="#000000">pdi/export.h</text>
</g>
<!-- Node9&#45;&gt;Node11 -->
<g id="edge12" class="edge">
<title>Node9&#45;&gt;Node11</title>
<path fill="none" stroke="#191970" d="M296.8972,-56.2455C288.4972,-48.1352 276.3506,-36.4075 266.3916,-26.7919"/>
<polygon fill="#191970" stroke="#191970" points="268.6122,-24.0707 258.9871,-19.6427 263.75,-29.1066 268.6122,-24.0707"/>
</g>
<!-- Node12 -->
<g id="node13" class="node">
<title>Node12</title>
<polygon fill="#ffffff" stroke="#bfbfbf" points="303.5,-.5 303.5,-19.5 380.5,-19.5 380.5,-.5 303.5,-.5"/>
<text text-anchor="middle" x="342" y="-7.5" font-family="Helvetica,sans-Serif" font-size="10.00" fill="#000000">pdi/version.h</text>
</g>
<!-- Node9&#45;&gt;Node12 -->
<g id="edge13" class="edge">
<title>Node9&#45;&gt;Node12</title>
<path fill="none" stroke="#191970" d="M313.0965,-56.2455C317.9145,-48.5367 324.7751,-37.5598 330.6032,-28.2348"/>
<polygon fill="#191970" stroke="#191970" points="333.6413,-29.9777 335.9733,-19.6427 327.7053,-26.2677 333.6413,-29.9777"/>
</g>
<!-- Node13&#45;&gt;Node8 -->
<g id="edge16" class="edge">
<title>Node13&#45;&gt;Node8</title>
<path fill="none" stroke="#191970" d="M243.4453,-448.2177C233.9686,-420.4785 210.5005,-339.4741 236,-280 243.8637,-261.6591 341.3545,-175.0262 383.1628,-138.4055"/>
<polygon fill="#191970" stroke="#191970" points="385.5132,-140.9996 390.739,-131.7832 380.9064,-135.7292 385.5132,-140.9996"/>
</g>
<!-- Node13&#45;&gt;Node10 -->
<g id="edge15" class="edge">
<title>Node13&#45;&gt;Node10</title>
<path fill="none" stroke="#191970" d="M188.7818,-451.7293C126.9404,-441.4631 38,-414.7478 38,-346 38,-346 38,-346 38,-290 38,-184.1774 29.1319,-147.67 82,-56 87.9631,-45.6604 96.3491,-35.4076 103.8176,-27.2146"/>
<polygon fill="#191970" stroke="#191970" points="106.5221,-29.4489 110.8567,-19.7813 101.4394,-24.6358 106.5221,-29.4489"/>
</g>
<!-- Node13&#45;&gt;Node14 -->
<g id="edge17" class="edge">
<title>Node13&#45;&gt;Node14</title>
<path fill="none" stroke="#191970" d="M250.5677,-448.4862C260.6127,-421.6994 289.2788,-345.2565 302.7892,-309.2289"/>
<polygon fill="#191970" stroke="#191970" points="306.0804,-310.4201 306.3145,-299.8279 299.5261,-307.9622 306.0804,-310.4201"/>
</g>
<!-- Node13&#45;&gt;Node17 -->
<g id="edge26" class="edge">
<title>Node13&#45;&gt;Node17</title>
<path fill="none" stroke="#191970" d="M305.1361,-449.737C382.6652,-438.7176 518.5766,-419.4003 591.4748,-409.0391"/>
<polygon fill="#191970" stroke="#191970" points="592.3507,-412.4499 601.7587,-407.5774 591.3656,-405.5195 592.3507,-412.4499"/>
</g>
<!-- Node14&#45;&gt;Node8 -->
<g id="edge19" class="edge">
<title>Node14&#45;&gt;Node8</title>
<path fill="none" stroke="#191970" d="M312.2122,-280.2088C315.4355,-266.9637 322.1342,-242.8295 332,-224 341.2821,-206.2844 347.5349,-204.3876 359,-188 370.1029,-172.1301 382.0814,-153.6198 390.5686,-140.2475"/>
<polygon fill="#191970" stroke="#191970" points="393.693,-141.8547 396.0692,-131.5298 387.7729,-138.1194 393.693,-141.8547"/>
</g>
<!-- Node14&#45;&gt;Node10 -->
<g id="edge18" class="edge">
<title>Node14&#45;&gt;Node10</title>
<path fill="none" stroke="#191970" d="M272.922,-280.4659C206.9403,-262.403 76,-221.1245 76,-178 76,-178 76,-178 76,-122 76,-86.7698 95.4078,-49.5087 108.7324,-28.0783"/>
<polygon fill="#191970" stroke="#191970" points="111.6822,-29.9621 114.1655,-19.6623 105.8012,-26.1655 111.6822,-29.9621"/>
</g>
<!-- Node14&#45;&gt;Node15 -->
<g id="edge20" class="edge">
<title>Node14&#45;&gt;Node15</title>
<path fill="none" stroke="#191970" d="M321.6705,-280.2455C331.5661,-271.9746 345.9627,-259.9416 357.5901,-250.2232"/>
<polygon fill="#191970" stroke="#191970" points="360.035,-252.7413 365.4632,-243.6427 355.5458,-247.3703 360.035,-252.7413"/>
</g>
<!-- Node15&#45;&gt;Node8 -->
<g id="edge21" class="edge">
<title>Node15&#45;&gt;Node8</title>
<path fill="none" stroke="#191970" d="M382.2756,-224.4627C387.0209,-215.3833 393.733,-201.1862 397,-188 400.7618,-172.8167 401.9368,-155.1193 402.2123,-141.8745"/>
<polygon fill="#191970" stroke="#191970" points="405.7138,-141.5743 402.2653,-131.5564 398.7139,-141.5382 405.7138,-141.5743"/>
</g>
<!-- Node16 -->
<g id="node17" class="node">
<title>Node16</title>
<g id="a_node17"><a xlink:href="paraconf__wrapper_8h.html" target="_top" xlink:title="pdi/paraconf_wrapper.h">
<polygon fill="#ffffff" stroke="#000000" points="104.5,-168.5 104.5,-187.5 233.5,-187.5 233.5,-168.5 104.5,-168.5"/>
<text text-anchor="middle" x="169" y="-175.5" font-family="Helvetica,sans-Serif" font-size="10.00" fill="#000000">pdi/paraconf_wrapper.h</text>
</a>
</g>
</g>
<!-- Node15&#45;&gt;Node16 -->
<g id="edge22" class="edge">
<title>Node15&#45;&gt;Node16</title>
<path fill="none" stroke="#191970" d="M341.2435,-224.3733C306.0574,-214.9001 252.2119,-200.4032 214.1044,-190.1435"/>
<polygon fill="#191970" stroke="#191970" points="214.856,-186.7213 204.2899,-187.5011 213.0361,-193.4806 214.856,-186.7213"/>
</g>
<!-- Node16&#45;&gt;Node5 -->
<g id="edge23" class="edge">
<title>Node16&#45;&gt;Node5</title>
<path fill="none" stroke="#191970" d="M169.3484,-168.2455C169.6093,-160.9382 169.9752,-150.6944 170.2963,-141.7046"/>
<polygon fill="#191970" stroke="#191970" points="173.7964,-141.7613 170.6556,-131.6427 166.8008,-141.5113 173.7964,-141.7613"/>
</g>
<!-- Node16&#45;&gt;Node8 -->
<g id="edge25" class="edge">
<title>Node16&#45;&gt;Node8</title>
<path fill="none" stroke="#191970" d="M208.7894,-168.4369C248.498,-158.8932 309.6104,-144.2052 352.4455,-133.9101"/>
<polygon fill="#191970" stroke="#191970" points="353.4695,-137.2637 362.3747,-131.5237 351.8337,-130.4575 353.4695,-137.2637"/>
</g>
<!-- Node16&#45;&gt;Node10 -->
<g id="edge24" class="edge">
<title>Node16&#45;&gt;Node10</title>
<path fill="none" stroke="#191970" d="M161.2867,-168.3954C154.5594,-159.4953 145.1011,-145.6144 140,-132 127.0792,-97.5158 122.9436,-54.3737 121.6208,-29.7231"/>
<polygon fill="#191970" stroke="#191970" points="125.1081,-29.3503 121.1803,-19.5104 118.1146,-29.652 125.1081,-29.3503"/>
</g>
<!-- Node17&#45;&gt;Node1 -->
<g id="edge28" class="edge">
<title>Node17&#45;&gt;Node1</title>
<path fill="none" stroke="#191970" d="M663.004,-392.3733C683.6435,-383.3435 714.7158,-369.7494 737.8889,-359.6111"/>
<polygon fill="#191970" stroke="#191970" points="739.5245,-362.7159 747.2831,-355.5011 736.7187,-356.3028 739.5245,-362.7159"/>
</g>
<!-- Node17&#45;&gt;Node3 -->
<g id="edge29" class="edge">
<title>Node17&#45;&gt;Node3</title>
<path fill="none" stroke="#191970" d="M655.2872,-392.2752C666.5437,-383.9034 681.8208,-370.849 691,-356 707.0502,-330.0357 710,-320.5246 710,-290 710,-290 710,-290 710,-178 710,-145.7116 710,-108.1872 710,-85.8048"/>
<polygon fill="#191970" stroke="#191970" points="713.5001,-85.5883 710,-75.5884 706.5001,-85.5884 713.5001,-85.5883"/>
</g>
<!-- Node17&#45;&gt;Node6 -->
<g id="edge31" class="edge">
<title>Node17&#45;&gt;Node6</title>
<path fill="none" stroke="#191970" d="M679.0817,-392.4369C717.0059,-382.9133 775.3289,-368.2672 816.3126,-357.9753"/>
<polygon fill="#191970" stroke="#191970" points="817.229,-361.3539 826.0754,-355.5237 815.524,-354.5647 817.229,-361.3539"/>
</g>
<!-- Node17&#45;&gt;Node8 -->
<g id="edge32" class="edge">
<title>Node17&#45;&gt;Node8</title>
<path fill="none" stroke="#191970" d="M637.6063,-392.2503C631.2084,-372.9723 618,-328.5094 618,-290 618,-290 618,-290 618,-234 618,-159.5743 515.6841,-134.5425 451.8896,-126.1685"/>
<polygon fill="#191970" stroke="#191970" points="451.9672,-122.6522 441.6177,-124.9192 451.122,-129.601 451.9672,-122.6522"/>
</g>
<!-- Node18 -->
<g id="node19" class="node">
<title>Node18</title>
<polygon fill="#ffffff" stroke="#bfbfbf" points="437.5,-336.5 437.5,-355.5 488.5,-355.5 488.5,-336.5 437.5,-336.5"/>
<text text-anchor="middle" x="463" y="-343.5" font-family="Helvetica,sans-Serif" font-size="10.00" fill="#000000">cassert</text>
</g>
<!-- Node17&#45;&gt;Node18 -->
<g id="edge27" class="edge">
<title>Node17&#45;&gt;Node18</title>
<path fill="none" stroke="#191970" d="M610.4007,-392.3733C579.2326,-382.5676 530.9558,-367.3793 498.216,-357.0792"/>
<polygon fill="#191970" stroke="#191970" points="499.1798,-353.7134 488.5904,-354.0509 497.079,-360.3907 499.1798,-353.7134"/>
</g>
<!-- Node19 -->
<g id="node20" class="node">
<title>Node19</title>
<polygon fill="#ffffff" stroke="#bfbfbf" points="646,-336.5 646,-355.5 682,-355.5 682,-336.5 646,-336.5"/>
<text text-anchor="middle" x="664" y="-343.5" font-family="Helvetica,sans-Serif" font-size="10.00" fill="#000000">new</text>
</g>
<!-- Node17&#45;&gt;Node19 -->
<g id="edge30" class="edge">
<title>Node17&#45;&gt;Node19</title>
<path fill="none" stroke="#191970" d="M645.0063,-392.2455C648.0735,-384.7776 652.4003,-374.2427 656.1497,-365.1137"/>
<polygon fill="#191970" stroke="#191970" points="659.4779,-366.2226 660.0396,-355.6427 653.0028,-363.5631 659.4779,-366.2226"/>
</g>
<!-- Node20 -->
<g id="node21" class="node">
<title>Node20</title>
<g id="a_node21"><a xlink:href="datatype_8h.html" target="_top" xlink:title="pdi/datatype.h">
<polygon fill="#ffffff" stroke="#000000" points="506.5,-336.5 506.5,-355.5 589.5,-355.5 589.5,-336.5 506.5,-336.5"/>
<text text-anchor="middle" x="548" y="-343.5" font-family="Helvetica,sans-Serif" font-size="10.00" fill="#000000">pdi/datatype.h</text>
</a>
</g>
</g>
<!-- Node17&#45;&gt;Node20 -->
<g id="edge33" class="edge">
<title>Node17&#45;&gt;Node20</title>
<path fill="none" stroke="#191970" d="M624.8006,-392.2455C610.3982,-383.5731 589.1268,-370.7645 572.6201,-360.825"/>
<polygon fill="#191970" stroke="#191970" points="574.386,-357.8028 564.0137,-355.6427 570.775,-363.7996 574.386,-357.8028"/>
</g>
<!-- Node21 -->
<g id="node22" class="node">
<title>Node21</title>
<g id="a_node22"><a xlink:href="error_8h.html" target="_top" xlink:title="pdi/error.h">
<polygon fill="#ffffff" stroke="#000000" points="251.5,-168.5 251.5,-187.5 316.5,-187.5 316.5,-168.5 251.5,-168.5"/>
<text text-anchor="middle" x="284" y="-175.5" font-family="Helvetica,sans-Serif" font-size="10.00" fill="#000000">pdi/error.h</text>
</a>
</g>
</g>
<!-- Node17&#45;&gt;Node21 -->
<g id="edge36" class="edge">
<title>Node17&#45;&gt;Node21</title>
<path fill="none" stroke="#191970" d="M601.6399,-399.1199C546.3549,-394.181 449.9805,-382.0031 428,-356 390.0878,-311.1497 457.4115,-270.8499 422,-224 410.2382,-208.439 362.4225,-194.9082 326.3471,-186.6236"/>
<polygon fill="#191970" stroke="#191970" points="327.0457,-183.1934 316.5231,-184.4287 325.5193,-190.025 327.0457,-183.1934"/>
</g>
<!-- Node20&#45;&gt;Node8 -->
<g id="edge34" class="edge">
<title>Node20&#45;&gt;Node8</title>
<path fill="none" stroke="#191970" d="M541.7266,-336.375C519.3568,-302.0543 443.2671,-185.3139 413.7953,-140.097"/>
<polygon fill="#191970" stroke="#191970" points="416.6427,-138.0556 408.2501,-131.5891 410.7783,-141.8779 416.6427,-138.0556"/>
</g>
<!-- Node20&#45;&gt;Node14 -->
<g id="edge35" class="edge">
<title>Node20&#45;&gt;Node14</title>
<path fill="none" stroke="#191970" d="M507.3568,-336.4369C466.7105,-326.8731 404.1087,-312.1432 360.3413,-301.845"/>
<polygon fill="#191970" stroke="#191970" points="361.0114,-298.4072 350.4756,-299.5237 359.4081,-305.2211 361.0114,-298.4072"/>
</g>
<!-- Node21&#45;&gt;Node5 -->
<g id="edge38" class="edge">
<title>Node21&#45;&gt;Node5</title>
<path fill="none" stroke="#191970" d="M264.5746,-168.3733C246.5979,-159.4644 219.6559,-146.1127 199.291,-136.0203"/>
<polygon fill="#191970" stroke="#191970" points="200.6861,-132.8055 190.1719,-131.5011 197.5778,-139.0776 200.6861,-132.8055"/>
</g>
<!-- Node21&#45;&gt;Node8 -->
<g id="edge40" class="edge">
<title>Node21&#45;&gt;Node8</title>
<path fill="none" stroke="#191970" d="M304.2849,-168.3733C323.1421,-159.4241 351.446,-145.9917 372.7455,-135.8835"/>
<polygon fill="#191970" stroke="#191970" points="374.4461,-138.9506 381.9798,-131.5011 371.4449,-132.6266 374.4461,-138.9506"/>
</g>
<!-- Node21&#45;&gt;Node10 -->
<g id="edge39" class="edge">
<title>Node21&#45;&gt;Node10</title>
<path fill="none" stroke="#191970" d="M274.7694,-168.4862C248.3336,-141.2396 172.0512,-62.6172 137.8915,-27.4096"/>
<polygon fill="#191970" stroke="#191970" points="140.0109,-24.5678 130.5354,-19.8279 134.9869,-29.4422 140.0109,-24.5678"/>
</g>
<!-- Node22 -->
<g id="node23" class="node">
<title>Node22</title>
<polygon fill="#ffffff" stroke="#bfbfbf" points="253,-112.5 253,-131.5 315,-131.5 315,-112.5 253,-112.5"/>
<text text-anchor="middle" x="284" y="-119.5" font-family="Helvetica,sans-Serif" font-size="10.00" fill="#000000">exception</text>
</g>
<!-- Node21&#45;&gt;Node22 -->
<g id="edge37" class="edge">
<title>Node21&#45;&gt;Node22</title>
<path fill="none" stroke="#191970" d="M284,-168.2455C284,-160.9382 284,-150.6944 284,-141.7046"/>
<polygon fill="#191970" stroke="#191970" points="287.5001,-141.6426 284,-131.6427 280.5001,-141.6427 287.5001,-141.6426"/>
</g>
</g>
</svg>
