<?xml version="1.0" encoding="UTF-8" standalone="no"?>
<!DOCTYPE svg PUBLIC "-//W3C//DTD SVG 1.1//EN"
 "http://www.w3.org/Graphics/SVG/1.1/DTD/svg11.dtd">
<!-- Generated by graphviz version 2.40.1 (20161225.0304)
 -->
<!-- Title: /home/jbigot/data/projects/pdi/pdi/include/pdi/context.h Pages: 1 -->
<svg width="1233pt" height="251pt"
 viewBox="0.00 0.00 1232.50 251.00" xmlns="http://www.w3.org/2000/svg" xmlns:xlink="http://www.w3.org/1999/xlink">
<g id="graph0" class="graph" transform="scale(1 1) rotate(0) translate(4 247)">
<title>/home/jbigot/data/projects/pdi/pdi/include/pdi/context.h</title>
<polygon fill="#ffffff" stroke="transparent" points="-4,4 -4,-247 1228.5,-247 1228.5,4 -4,4"/>
<!-- Node23 -->
<g id="node1" class="node">
<title>Node23</title>
<polygon fill="#bfbfbf" stroke="#000000" points="464,-212.5 464,-242.5 614,-242.5 614,-212.5 464,-212.5"/>
<text text-anchor="start" x="472" y="-230.5" font-family="Helvetica,sans-Serif" font-size="10.00" fill="#000000">/home/jbigot/data/projects</text>
<text text-anchor="middle" x="539" y="-219.5" font-family="Helvetica,sans-Serif" font-size="10.00" fill="#000000">/pdi/pdi/include/pdi/context.h</text>
</g>
<!-- Node24 -->
<g id="node2" class="node">
<title>Node24</title>
<g id="a_node2"><a xlink:href="context_8cxx.html" target="_top" xlink:title="/home/jbigot/data/projects\l/pdi/pdi/src/context.cxx">
<polygon fill="#ffffff" stroke="#000000" points="0,-145.5 0,-175.5 138,-175.5 138,-145.5 0,-145.5"/>
<text text-anchor="start" x="8" y="-163.5" font-family="Helvetica,sans-Serif" font-size="10.00" fill="#000000">/home/jbigot/data/projects</text>
<text text-anchor="middle" x="69" y="-152.5" font-family="Helvetica,sans-Serif" font-size="10.00" fill="#000000">/pdi/pdi/src/context.cxx</text>
</a>
</g>
</g>
<!-- Node23&#45;&gt;Node24 -->
<g id="edge1" class="edge">
<title>Node23&#45;&gt;Node24</title>
<path fill="none" stroke="#191970" d="M453.5917,-217.4365C375.0503,-207.8733 255.4483,-192.5309 152,-176 147.5127,-175.2829 142.8951,-174.5122 138.2445,-173.7114"/>
<polygon fill="#191970" stroke="#191970" points="453.5685,-220.9593 463.9172,-218.6892 454.4116,-214.0102 453.5685,-220.9593"/>
</g>
<!-- Node25 -->
<g id="node3" class="node">
<title>Node25</title>
<g id="a_node3"><a xlink:href="data__descriptor__impl_8cxx.html" target="_top" xlink:title="/home/jbigot/data/projects\l/pdi/pdi/src/data_descriptor\l_impl.cxx">
<polygon fill="#ffffff" stroke="#000000" points="126,-.5 126,-41.5 272,-41.5 272,-.5 126,-.5"/>
<text text-anchor="start" x="134" y="-29.5" font-family="Helvetica,sans-Serif" font-size="10.00" fill="#000000">/home/jbigot/data/projects</text>
<text text-anchor="start" x="134" y="-18.5" font-family="Helvetica,sans-Serif" font-size="10.00" fill="#000000">/pdi/pdi/src/data_descriptor</text>
<text text-anchor="middle" x="199" y="-7.5" font-family="Helvetica,sans-Serif" font-size="10.00" fill="#000000">_impl.cxx</text>
</a>
</g>
</g>
<!-- Node23&#45;&gt;Node25 -->
<g id="edge2" class="edge">
<title>Node23&#45;&gt;Node25</title>
<path fill="none" stroke="#191970" d="M454.0679,-211.937C358.7319,-192.4037 213.5819,-155.7215 185,-109 172.487,-88.5455 180.2587,-60.6 188.3388,-41.7331"/>
<polygon fill="#191970" stroke="#191970" points="453.4994,-215.3928 463.995,-213.946 454.888,-208.5319 453.4994,-215.3928"/>
</g>
<!-- Node26 -->
<g id="node4" class="node">
<title>Node26</title>
<g id="a_node4"><a xlink:href="global__context_8h.html" target="_top" xlink:title="/home/jbigot/data/projects\l/pdi/pdi/src/global_context.h">
<polygon fill="#ffffff" stroke="#000000" points="325,-145.5 325,-175.5 473,-175.5 473,-145.5 325,-145.5"/>
<text text-anchor="start" x="333" y="-163.5" font-family="Helvetica,sans-Serif" font-size="10.00" fill="#000000">/home/jbigot/data/projects</text>
<text text-anchor="middle" x="399" y="-152.5" font-family="Helvetica,sans-Serif" font-size="10.00" fill="#000000">/pdi/pdi/src/global_context.h</text>
</a>
</g>
</g>
<!-- Node23&#45;&gt;Node26 -->
<g id="edge3" class="edge">
<title>Node23&#45;&gt;Node26</title>
<path fill="none" stroke="#191970" d="M498.362,-208.0518C476.8498,-197.7567 450.819,-185.2991 430.7983,-175.7177"/>
<polygon fill="#191970" stroke="#191970" points="497.0501,-211.3041 507.5813,-212.4639 500.0719,-204.9899 497.0501,-211.3041"/>
</g>
<!-- Node29 -->
<g id="node7" class="node">
<title>Node29</title>
<g id="a_node7"><a xlink:href="pdi_8cxx.html" target="_top" xlink:title="/home/jbigot/data/projects\l/pdi/pdi/src/pdi.cxx">
<polygon fill="#ffffff" stroke="#000000" points="430,-78.5 430,-108.5 568,-108.5 568,-78.5 430,-78.5"/>
<text text-anchor="start" x="438" y="-96.5" font-family="Helvetica,sans-Serif" font-size="10.00" fill="#000000">/home/jbigot/data/projects</text>
<text text-anchor="middle" x="499" y="-85.5" font-family="Helvetica,sans-Serif" font-size="10.00" fill="#000000">/pdi/pdi/src/pdi.cxx</text>
</a>
</g>
</g>
<!-- Node23&#45;&gt;Node29 -->
<g id="edge12" class="edge">
<title>Node23&#45;&gt;Node29</title>
<path fill="none" stroke="#191970" d="M531.5988,-202.706C523.3869,-175.1962 510.3947,-131.6723 503.5556,-108.7614"/>
<polygon fill="#191970" stroke="#191970" points="528.2751,-203.8079 534.4892,-212.389 534.9826,-201.8056 528.2751,-203.8079"/>
</g>
<!-- Node30 -->
<g id="node8" class="node">
<title>Node30</title>
<g id="a_node8"><a xlink:href="python_2pdi_8cxx.html" target="_top" xlink:title="/home/jbigot/data/projects\l/pdi/pdi/src/python/pdi.cxx">
<polygon fill="#ffffff" stroke="#000000" points="586.5,-78.5 586.5,-108.5 725.5,-108.5 725.5,-78.5 586.5,-78.5"/>
<text text-anchor="start" x="594.5" y="-96.5" font-family="Helvetica,sans-Serif" font-size="10.00" fill="#000000">/home/jbigot/data/projects</text>
<text text-anchor="middle" x="656" y="-85.5" font-family="Helvetica,sans-Serif" font-size="10.00" fill="#000000">/pdi/pdi/src/python/pdi.cxx</text>
</a>
</g>
</g>
<!-- Node23&#45;&gt;Node30 -->
<g id="edge14" class="edge">
<title>Node23&#45;&gt;Node30</title>
<path fill="none" stroke="#191970" d="M539.4319,-202.055C540.9367,-184.4278 545.4426,-161.2923 558,-145 570.7893,-128.4068 590.4541,-116.6073 608.8209,-108.5276"/>
<polygon fill="#191970" stroke="#191970" points="535.9281,-202.0207 538.8377,-212.2081 542.9161,-202.4297 535.9281,-202.0207"/>
</g>
<!-- Node31 -->
<g id="node9" class="node">
<title>Node31</title>
<g id="a_node9"><a xlink:href="datatype__template_8cxx.html" target="_top" xlink:title="/home/jbigot/data/projects\l/pdi/pdi/src/datatype_template.cxx">
<polygon fill="#ffffff" stroke="#000000" points="566.5,-145.5 566.5,-175.5 743.5,-175.5 743.5,-145.5 566.5,-145.5"/>
<text text-anchor="start" x="574.5" y="-163.5" font-family="Helvetica,sans-Serif" font-size="10.00" fill="#000000">/home/jbigot/data/projects</text>
<text text-anchor="middle" x="655" y="-152.5" font-family="Helvetica,sans-Serif" font-size="10.00" fill="#000000">/pdi/pdi/src/datatype_template.cxx</text>
</a>
</g>
</g>
<!-- Node23&#45;&gt;Node31 -->
<g id="edge10" class="edge">
<title>Node23&#45;&gt;Node31</title>
<path fill="none" stroke="#191970" d="M573.876,-207.3561C591.4605,-197.1995 612.4362,-185.0843 628.6529,-175.7177"/>
<polygon fill="#191970" stroke="#191970" points="571.9415,-204.4315 565.0327,-212.4639 575.4426,-210.4931 571.9415,-204.4315"/>
</g>
<!-- Node32 -->
<g id="node10" class="node">
<title>Node32</title>
<g id="a_node10"><a xlink:href="expression_8cxx.html" target="_top" xlink:title="/home/jbigot/data/projects\l/pdi/pdi/src/expression.cxx">
<polygon fill="#ffffff" stroke="#000000" points="761.5,-145.5 761.5,-175.5 902.5,-175.5 902.5,-145.5 761.5,-145.5"/>
<text text-anchor="start" x="769.5" y="-163.5" font-family="Helvetica,sans-Serif" font-size="10.00" fill="#000000">/home/jbigot/data/projects</text>
<text text-anchor="middle" x="832" y="-152.5" font-family="Helvetica,sans-Serif" font-size="10.00" fill="#000000">/pdi/pdi/src/expression.cxx</text>
</a>
</g>
</g>
<!-- Node23&#45;&gt;Node32 -->
<g id="edge11" class="edge">
<title>Node23&#45;&gt;Node32</title>
<path fill="none" stroke="#191970" d="M614.5655,-210.2205C661.4978,-199.4886 721.2327,-185.8291 766.2116,-175.5438"/>
<polygon fill="#191970" stroke="#191970" points="613.7231,-206.8227 604.7549,-212.4639 615.2835,-213.6466 613.7231,-206.8227"/>
</g>
<!-- Node33 -->
<g id="node11" class="node">
<title>Node33</title>
<g id="a_node11"><a xlink:href="plugin_8cxx.html" target="_top" xlink:title="/home/jbigot/data/projects\l/pdi/pdi/src/plugin.cxx">
<polygon fill="#ffffff" stroke="#000000" points="921,-145.5 921,-175.5 1059,-175.5 1059,-145.5 921,-145.5"/>
<text text-anchor="start" x="929" y="-163.5" font-family="Helvetica,sans-Serif" font-size="10.00" fill="#000000">/home/jbigot/data/projects</text>
<text text-anchor="middle" x="990" y="-152.5" font-family="Helvetica,sans-Serif" font-size="10.00" fill="#000000">/pdi/pdi/src/plugin.cxx</text>
</a>
</g>
</g>
<!-- Node23&#45;&gt;Node33 -->
<g id="edge13" class="edge">
<title>Node23&#45;&gt;Node33</title>
<path fill="none" stroke="#191970" d="M624.182,-217.1908C699.9258,-207.6785 813.596,-192.5558 912,-176 914.8592,-175.519 917.7741,-175.0125 920.7165,-174.4881"/>
<polygon fill="#191970" stroke="#191970" points="623.7022,-213.7235 614.214,-218.4378 624.5711,-220.6694 623.7022,-213.7235"/>
</g>
<!-- Node34 -->
<g id="node12" class="node">
<title>Node34</title>
<g id="a_node12"><a xlink:href="tools_8cxx.html" target="_top" xlink:title="/home/jbigot/data/projects\l/pdi/pdi/src/python/tools.cxx">
<polygon fill="#ffffff" stroke="#000000" points="1077.5,-145.5 1077.5,-175.5 1224.5,-175.5 1224.5,-145.5 1077.5,-145.5"/>
<text text-anchor="start" x="1085.5" y="-163.5" font-family="Helvetica,sans-Serif" font-size="10.00" fill="#000000">/home/jbigot/data/projects</text>
<text text-anchor="middle" x="1151" y="-152.5" font-family="Helvetica,sans-Serif" font-size="10.00" fill="#000000">/pdi/pdi/src/python/tools.cxx</text>
</a>
</g>
</g>
<!-- Node23&#45;&gt;Node34 -->
<g id="edge15" class="edge">
<title>Node23&#45;&gt;Node34</title>
<path fill="none" stroke="#191970" d="M624.3519,-221.5033C729.1478,-213.6084 912.1657,-198.093 1068,-176 1071.0479,-175.5679 1074.1542,-175.1024 1077.289,-174.6118"/>
<polygon fill="#191970" stroke="#191970" points="623.8581,-218.0303 614.147,-222.2666 624.3803,-225.0108 623.8581,-218.0303"/>
</g>
<!-- Node27 -->
<g id="node5" class="node">
<title>Node27</title>
<g id="a_node5"><a xlink:href="data__descriptor__impl_8h.html" target="_top" xlink:title="/home/jbigot/data/projects\l/pdi/pdi/src/data_descriptor_impl.h">
<polygon fill="#ffffff" stroke="#000000" points="194.5,-78.5 194.5,-108.5 373.5,-108.5 373.5,-78.5 194.5,-78.5"/>
<text text-anchor="start" x="202.5" y="-96.5" font-family="Helvetica,sans-Serif" font-size="10.00" fill="#000000">/home/jbigot/data/projects</text>
<text text-anchor="middle" x="284" y="-85.5" font-family="Helvetica,sans-Serif" font-size="10.00" fill="#000000">/pdi/pdi/src/data_descriptor_impl.h</text>
</a>
</g>
</g>
<!-- Node26&#45;&gt;Node27 -->
<g id="edge4" class="edge">
<title>Node26&#45;&gt;Node27</title>
<path fill="none" stroke="#191970" d="M364.4247,-140.3561C346.9917,-130.1995 326.1969,-118.0843 310.12,-108.7177"/>
<polygon fill="#191970" stroke="#191970" points="362.7893,-143.454 373.1918,-145.4639 366.3132,-137.4056 362.7893,-143.454"/>
</g>
<!-- Node28 -->
<g id="node6" class="node">
<title>Node28</title>
<g id="a_node6"><a xlink:href="global__context_8cxx.html" target="_top" xlink:title="/home/jbigot/data/projects\l/pdi/pdi/src/global_context.cxx">
<polygon fill="#ffffff" stroke="#000000" points="306,-6 306,-36 464,-36 464,-6 306,-6"/>
<text text-anchor="start" x="314" y="-24" font-family="Helvetica,sans-Serif" font-size="10.00" fill="#000000">/home/jbigot/data/projects</text>
<text text-anchor="middle" x="385" y="-13" font-family="Helvetica,sans-Serif" font-size="10.00" fill="#000000">/pdi/pdi/src/global_context.cxx</text>
</a>
</g>
</g>
<!-- Node26&#45;&gt;Node28 -->
<g id="edge7" class="edge">
<title>Node26&#45;&gt;Node28</title>
<path fill="none" stroke="#191970" d="M396.4576,-135.1668C393.5576,-106.2706 388.9098,-59.9582 386.523,-36.1758"/>
<polygon fill="#191970" stroke="#191970" points="392.9939,-135.705 397.4751,-145.3055 399.959,-135.006 392.9939,-135.705"/>
</g>
<!-- Node26&#45;&gt;Node29 -->
<g id="edge8" class="edge">
<title>Node26&#45;&gt;Node29</title>
<path fill="none" stroke="#191970" d="M430.1513,-139.6286C445.1225,-129.5979 462.7349,-117.7976 476.3983,-108.6432"/>
<polygon fill="#191970" stroke="#191970" points="428.0511,-136.8228 421.6915,-145.2967 431.9474,-142.6382 428.0511,-136.8228"/>
</g>
<!-- Node26&#45;&gt;Node30 -->
<g id="edge9" class="edge">
<title>Node26&#45;&gt;Node30</title>
<path fill="none" stroke="#191970" d="M466.5588,-142.8874C507.449,-132.2273 559.0533,-118.774 598.0726,-108.6017"/>
<polygon fill="#191970" stroke="#191970" points="465.4694,-139.5543 456.6758,-145.4639 467.2354,-146.3279 465.4694,-139.5543"/>
</g>
<!-- Node27&#45;&gt;Node25 -->
<g id="edge5" class="edge">
<title>Node27&#45;&gt;Node25</title>
<path fill="none" stroke="#191970" d="M258.5829,-71.8207C247.3192,-62.2135 234.1351,-50.9681 223.0363,-41.5015"/>
<polygon fill="#191970" stroke="#191970" points="256.5083,-74.6514 266.3879,-78.478 261.0509,-69.3255 256.5083,-74.6514"/>
</g>
<!-- Node27&#45;&gt;Node28 -->
<g id="edge6" class="edge">
<title>Node27&#45;&gt;Node28</title>
<path fill="none" stroke="#191970" d="M313.0738,-72.6302C329.3799,-60.9253 349.3448,-46.5941 364.0995,-36.0028"/>
<polygon fill="#191970" stroke="#191970" points="311.01,-69.8032 304.9273,-78.478 315.092,-75.4898 311.01,-69.8032"/>
</g>
</g>
</svg>
