<?xml version="1.0" encoding="UTF-8" standalone="no"?>
<!DOCTYPE svg PUBLIC "-//W3C//DTD SVG 1.1//EN"
 "http://www.w3.org/Graphics/SVG/1.1/DTD/svg11.dtd">
<!-- Generated by graphviz version 2.40.1 (20161225.0304)
 -->
<!-- Title: /home/jbigot/data/projects/pdi/pdi/src/data_descriptor_impl.cxx Pages: 1 -->
<!--zoomable 722 -->
<svg id="main" version="1.1" xmlns="http://www.w3.org/2000/svg" xmlns:xlink="http://www.w3.org/1999/xlink" xml:space="preserve" onload="init(evt)">
<style type="text/css"><![CDATA[
.edge:hover path { stroke: red; }
.edge:hover polygon { stroke: red; fill: red; }
]]></style>
<script type="text/javascript"><![CDATA[
var edges = document.getElementsByTagName('g');
if (edges && edges.length) {
  for (var i=0;i<edges.length;i++) {
    if (edges[i].id.substr(0,4)=='edge') {
      edges[i].setAttribute('class','edge');
    }
  }
}
]]></script>
        <defs>
                <circle id="rim" cx="0" cy="0" r="7"/>
                <circle id="rim2" cx="0" cy="0" r="3.5"/>
                <g id="zoomPlus">
                        <use xlink:href="#rim" fill="#404040">
                                <set attributeName="fill" to="#808080" begin="zoomplus.mouseover" end="zoomplus.mouseout"/>
                        </use>
                        <path d="M-4,0h8M0,-4v8" fill="none" stroke="white" stroke-width="1.5" pointer-events="none"/>
                </g>
                <g id="zoomMin">
                        <use xlink:href="#rim" fill="#404040">
                                <set attributeName="fill" to="#808080" begin="zoomminus.mouseover" end="zoomminus.mouseout"/>
                        </use>
                        <path d="M-4,0h8" fill="none" stroke="white" stroke-width="1.5" pointer-events="none"/>
                </g>
                <g id="dirArrow">
                        <path fill="none" stroke="white" stroke-width="1.5" d="M0,-3.0v7 M-2.5,-0.5L0,-3.0L2.5,-0.5"/>
                </g>
               <g id="resetDef">
                       <use xlink:href="#rim2" fill="#404040">
                               <set attributeName="fill" to="#808080" begin="reset.mouseover" end="reset.mouseout"/>
                       </use>
               </g>
        </defs>

<script type="text/javascript">
var viewWidth = 1673;
var viewHeight = 722;
var sectionId = 'dynsection-0';
</script>
<script xlink:href="svgpan.js"/>
<svg id="graph" class="graph">
<g id="viewport">
<title>/home/jbigot/data/projects/pdi/pdi/src/data_descriptor_impl.cxx</title>
<polygon fill="#ffffff" stroke="transparent" points="-4,4 -4,-718 1668.5,-718 1668.5,4 -4,4"/>
<!-- Node0 -->
<g id="node1" class="node">
<title>Node0</title>
<polygon fill="#bfbfbf" stroke="#000000" points="333.5,-672.5 333.5,-713.5 479.5,-713.5 479.5,-672.5 333.5,-672.5"/>
<text text-anchor="start" x="341.5" y="-701.5" font-family="Helvetica,sans-Serif" font-size="10.00" fill="#000000">/home/jbigot/data/projects</text>
<text text-anchor="start" x="341.5" y="-690.5" font-family="Helvetica,sans-Serif" font-size="10.00" fill="#000000">/pdi/pdi/src/data_descriptor</text>
<text text-anchor="middle" x="406.5" y="-679.5" font-family="Helvetica,sans-Serif" font-size="10.00" fill="#000000">_impl.cxx</text>
</g>
<!-- Node1 -->
<g id="node2" class="node">
<title>Node1</title>
<polygon fill="#ffffff" stroke="#bfbfbf" points="0,-616.5 0,-635.5 53,-635.5 53,-616.5 0,-616.5"/>
<text text-anchor="middle" x="26.5" y="-623.5" font-family="Helvetica,sans-Serif" font-size="10.00" fill="#000000">config.h</text>
</g>
<!-- Node0&#45;&gt;Node1 -->
<g id="edge1" class="edge">
<title>Node0&#45;&gt;Node1</title>
<path fill="none" stroke="#191970" d="M333.3416,-683.3942C265.4444,-673.9148 161.4582,-657.964 62.9891,-636.159"/>
<polygon fill="#191970" stroke="#191970" points="63.6951,-632.7304 53.172,-633.9612 62.1658,-639.5614 63.6951,-632.7304"/>
</g>
<!-- Node2 -->
<g id="node3" class="node">
<title>Node2</title>
<polygon fill="#ffffff" stroke="#bfbfbf" points="71,-616.5 71,-635.5 128,-635.5 128,-616.5 71,-616.5"/>
<text text-anchor="middle" x="99.5" y="-623.5" font-family="Helvetica,sans-Serif" font-size="10.00" fill="#000000">iostream</text>
</g>
<!-- Node0&#45;&gt;Node2 -->
<g id="edge2" class="edge">
<title>Node0&#45;&gt;Node2</title>
<path fill="none" stroke="#191970" d="M333.3132,-677.5237C280.2866,-666.2312 206.898,-650.4392 142.5,-636 141.051,-635.6751 139.575,-635.3421 138.0844,-635.0041"/>
<polygon fill="#191970" stroke="#191970" points="138.6956,-631.5535 128.1666,-632.7333 137.1332,-638.377 138.6956,-631.5535"/>
</g>
<!-- Node3 -->
<g id="node4" class="node">
<title>Node3</title>
<polygon fill="#ffffff" stroke="#bfbfbf" points="1496.5,-56.5 1496.5,-75.5 1550.5,-75.5 1550.5,-56.5 1496.5,-56.5"/>
<text text-anchor="middle" x="1523.5" y="-63.5" font-family="Helvetica,sans-Serif" font-size="10.00" fill="#000000">memory</text>
</g>
<!-- Node0&#45;&gt;Node3 -->
<g id="edge3" class="edge">
<title>Node0&#45;&gt;Node3</title>
<path fill="none" stroke="#191970" d="M479.8395,-691.4394C682.3694,-686.7273 1246.4218,-670.7781 1428.5,-636 1519.613,-618.5969 1626.5,-662.7601 1626.5,-570 1626.5,-570 1626.5,-570 1626.5,-178 1626.5,-133.4711 1581.8441,-99.0241 1551.3393,-80.6879"/>
<polygon fill="#191970" stroke="#191970" points="1552.8019,-77.4909 1542.3918,-75.5213 1549.3015,-83.5529 1552.8019,-77.4909"/>
</g>
<!-- Node4 -->
<g id="node5" class="node">
<title>Node4</title>
<polygon fill="#ffffff" stroke="#bfbfbf" points="184.5,-616.5 184.5,-635.5 230.5,-635.5 230.5,-616.5 184.5,-616.5"/>
<text text-anchor="middle" x="207.5" y="-623.5" font-family="Helvetica,sans-Serif" font-size="10.00" fill="#000000">vector</text>
</g>
<!-- Node0&#45;&gt;Node4 -->
<g id="edge4" class="edge">
<title>Node0&#45;&gt;Node4</title>
<path fill="none" stroke="#191970" d="M345.441,-672.4425C310.8442,-660.7943 268.9202,-646.6792 240.4377,-637.0896"/>
<polygon fill="#191970" stroke="#191970" points="241.1848,-633.6481 230.5907,-633.7743 238.9512,-640.2822 241.1848,-633.6481"/>
</g>
<!-- Node5 -->
<g id="node6" class="node">
<title>Node5</title>
<polygon fill="#ffffff" stroke="#bfbfbf" points="249,-616.5 249,-635.5 340,-635.5 340,-616.5 249,-616.5"/>
<text text-anchor="middle" x="294.5" y="-623.5" font-family="Helvetica,sans-Serif" font-size="10.00" fill="#000000">spdlog/spdlog.h</text>
</g>
<!-- Node0&#45;&gt;Node5 -->
<g id="edge5" class="edge">
<title>Node0&#45;&gt;Node5</title>
<path fill="none" stroke="#191970" d="M371.9824,-672.3511C355.0563,-662.2256 335.0439,-650.254 319.5979,-641.0139"/>
<polygon fill="#191970" stroke="#191970" points="321.0176,-637.7848 310.6391,-635.6546 317.424,-643.792 321.0176,-637.7848"/>
</g>
<!-- Node6 -->
<g id="node7" class="node">
<title>Node6</title>
<g id="a_node7"><a xlink:href="context_8h.html" target="_top" xlink:title="pdi/context.h">
<polygon fill="#ffffff" stroke="#000000" points="1091,-504.5 1091,-523.5 1168,-523.5 1168,-504.5 1091,-504.5"/>
<text text-anchor="middle" x="1129.5" y="-511.5" font-family="Helvetica,sans-Serif" font-size="10.00" fill="#000000">pdi/context.h</text>
</a>
</g>
</g>
<!-- Node0&#45;&gt;Node6 -->
<g id="edge6" class="edge">
<title>Node0&#45;&gt;Node6</title>
<path fill="none" stroke="#191970" d="M479.5785,-685.9929C559.3479,-677.5254 690.521,-661.1971 801.5,-636 882.7891,-617.5438 902.4882,-609.3719 980.5,-580 1022.8436,-564.0574 1070.4299,-542.2772 1100.1843,-528.1744"/>
<polygon fill="#191970" stroke="#191970" points="1102.0376,-531.1683 1109.558,-523.7055 1099.0251,-524.8497 1102.0376,-531.1683"/>
</g>
<!-- Node20 -->
<g id="node21" class="node">
<title>Node20</title>
<g id="a_node21"><a xlink:href="logger_8h.html" target="_top" xlink:title="pdi/logger.h">
<polygon fill="#ffffff" stroke="#000000" points="672.5,-224.5 672.5,-243.5 744.5,-243.5 744.5,-224.5 672.5,-224.5"/>
<text text-anchor="middle" x="708.5" y="-231.5" font-family="Helvetica,sans-Serif" font-size="10.00" fill="#000000">pdi/logger.h</text>
</a>
</g>
</g>
<!-- Node0&#45;&gt;Node20 -->
<g id="edge52" class="edge">
<title>Node0&#45;&gt;Node20</title>
<path fill="none" stroke="#191970" d="M419.0405,-672.42C453.584,-616.3099 554.1605,-456.7841 653.5,-336 667.675,-318.765 677.1655,-319.2225 688.5,-300 696.9568,-285.6579 702.1276,-267.4221 705.0868,-253.7549"/>
<polygon fill="#191970" stroke="#191970" points="708.601,-254.0193 707.0761,-243.5348 701.7299,-252.6819 708.601,-254.0193"/>
</g>
<!-- Node22 -->
<g id="node23" class="node">
<title>Node22</title>
<g id="a_node23"><a xlink:href="ref__any_8h.html" target="_top" xlink:title="pdi/ref_any.h">
<polygon fill="#ffffff" stroke="#000000" points="905.5,-392.5 905.5,-411.5 983.5,-411.5 983.5,-392.5 905.5,-392.5"/>
<text text-anchor="middle" x="944.5" y="-399.5" font-family="Helvetica,sans-Serif" font-size="10.00" fill="#000000">pdi/ref_any.h</text>
</a>
</g>
</g>
<!-- Node0&#45;&gt;Node22 -->
<g id="edge56" class="edge">
<title>Node0&#45;&gt;Node22</title>
<path fill="none" stroke="#191970" d="M479.7493,-691.9494C715.0621,-687.6151 1436.5,-666.4607 1436.5,-570 1436.5,-570 1436.5,-570 1436.5,-514 1436.5,-474.9495 1413.1787,-465.9533 1378.5,-448 1312.5382,-413.8513 1093.0495,-405.0279 993.8857,-402.7682"/>
<polygon fill="#191970" stroke="#191970" points="993.8948,-399.2677 983.8219,-402.5521 993.7444,-406.2661 993.8948,-399.2677"/>
</g>
<!-- Node25 -->
<g id="node26" class="node">
<title>Node25</title>
<g id="a_node26"><a xlink:href="datatype_8h.html" target="_top" xlink:title="pdi/datatype.h">
<polygon fill="#ffffff" stroke="#000000" points="257,-336.5 257,-355.5 340,-355.5 340,-336.5 257,-336.5"/>
<text text-anchor="middle" x="298.5" y="-343.5" font-family="Helvetica,sans-Serif" font-size="10.00" fill="#000000">pdi/datatype.h</text>
</a>
</g>
</g>
<!-- Node0&#45;&gt;Node25 -->
<g id="edge50" class="edge">
<title>Node0&#45;&gt;Node25</title>
<path fill="none" stroke="#191970" d="M400.0675,-672.3327C380.7445,-610.2485 323.3867,-425.96 304.5608,-365.4732"/>
<polygon fill="#191970" stroke="#191970" points="307.8256,-364.1852 301.5119,-355.6772 301.1419,-366.2655 307.8256,-364.1852"/>
</g>
<!-- Node26 -->
<g id="node27" class="node">
<title>Node26</title>
<g id="a_node27"><a xlink:href="error_8h.html" target="_top" xlink:title="pdi/error.h">
<polygon fill="#ffffff" stroke="#000000" points="1400,-168.5 1400,-187.5 1465,-187.5 1465,-168.5 1400,-168.5"/>
<text text-anchor="middle" x="1432.5" y="-175.5" font-family="Helvetica,sans-Serif" font-size="10.00" fill="#000000">pdi/error.h</text>
</a>
</g>
</g>
<!-- Node0&#45;&gt;Node26 -->
<g id="edge51" class="edge">
<title>Node0&#45;&gt;Node26</title>
<path fill="none" stroke="#191970" d="M479.716,-691.412C669.9981,-686.8245 1176.6795,-671.5467 1340.5,-636 1420.5171,-618.6374 1512.5,-651.8792 1512.5,-570 1512.5,-570 1512.5,-570 1512.5,-346 1512.5,-286.2766 1470.7779,-225.1974 1447.5944,-195.868"/>
<polygon fill="#191970" stroke="#191970" points="1450.0819,-193.3789 1441.0614,-187.8217 1444.6475,-197.7912 1450.0819,-193.3789"/>
</g>
<!-- Node28 -->
<g id="node29" class="node">
<title>Node28</title>
<g id="a_node29"><a xlink:href="plugin_8h.html" target="_top" xlink:title="pdi/plugin.h">
<polygon fill="#ffffff" stroke="#000000" points="609.5,-280.5 609.5,-299.5 679.5,-299.5 679.5,-280.5 609.5,-280.5"/>
<text text-anchor="middle" x="644.5" y="-287.5" font-family="Helvetica,sans-Serif" font-size="10.00" fill="#000000">pdi/plugin.h</text>
</a>
</g>
</g>
<!-- Node0&#45;&gt;Node28 -->
<g id="edge53" class="edge">
<title>Node0&#45;&gt;Node28</title>
<path fill="none" stroke="#191970" d="M406.5,-672.1071C406.5,-647.6357 406.5,-605.875 406.5,-570 406.5,-570 406.5,-570 406.5,-458 406.5,-376.1353 475.913,-380.6951 544.5,-336 564.6337,-322.8798 589.1173,-311.5496 608.8189,-303.4168"/>
<polygon fill="#191970" stroke="#191970" points="610.3843,-306.5595 618.3512,-299.5753 607.7677,-300.0669 610.3843,-306.5595"/>
</g>
<!-- Node29 -->
<g id="node30" class="node">
<title>Node29</title>
<g id="a_node30"><a xlink:href="scalar__datatype_8h.html" target="_top" xlink:title="pdi/scalar_datatype.h">
<polygon fill="#ffffff" stroke="#000000" points="176.5,-392.5 176.5,-411.5 294.5,-411.5 294.5,-392.5 176.5,-392.5"/>
<text text-anchor="middle" x="235.5" y="-399.5" font-family="Helvetica,sans-Serif" font-size="10.00" fill="#000000">pdi/scalar_datatype.h</text>
</a>
</g>
</g>
<!-- Node0&#45;&gt;Node29 -->
<g id="edge57" class="edge">
<title>Node0&#45;&gt;Node29</title>
<path fill="none" stroke="#191970" d="M333.4289,-683.0597C274.5551,-673.6234 198.0087,-657.661 175.5,-636 153.5056,-614.834 156.5,-600.5246 156.5,-570 156.5,-570 156.5,-570 156.5,-514 156.5,-473.9466 190.6555,-438.143 214.0498,-418.3174"/>
<polygon fill="#191970" stroke="#191970" points="216.558,-420.7885 222.0987,-411.7579 212.1358,-415.3622 216.558,-420.7885"/>
</g>
<!-- Node30 -->
<g id="node31" class="node">
<title>Node30</title>
<g id="a_node31"><a xlink:href="data__descriptor__impl_8h.html" target="_top" xlink:title="data_descriptor_impl.h">
<polygon fill="#ffffff" stroke="#000000" points="668.5,-616.5 668.5,-635.5 792.5,-635.5 792.5,-616.5 668.5,-616.5"/>
<text text-anchor="middle" x="730.5" y="-623.5" font-family="Helvetica,sans-Serif" font-size="10.00" fill="#000000">data_descriptor_impl.h</text>
</a>
</g>
</g>
<!-- Node0&#45;&gt;Node30 -->
<g id="edge61" class="edge">
<title>Node0&#45;&gt;Node30</title>
<path fill="none" stroke="#191970" d="M479.6159,-677.8804C538.5305,-665.6974 620.1605,-648.8171 674.1042,-637.6621"/>
<polygon fill="#191970" stroke="#191970" points="675.0916,-641.0321 684.1756,-635.5794 673.674,-634.1771 675.0916,-641.0321"/>
</g>
<!-- Node6&#45;&gt;Node3 -->
<g id="edge9" class="edge">
<title>Node6&#45;&gt;Node3</title>
<path fill="none" stroke="#191970" d="M1162.907,-504.4658C1196.3476,-494.5517 1245.1187,-478.9751 1261.5,-468 1410.9743,-367.855 1494.7191,-150.559 1517.2511,-85.062"/>
<polygon fill="#191970" stroke="#191970" points="1520.5693,-86.1752 1520.4459,-75.5811 1513.9358,-83.9399 1520.5693,-86.1752"/>
</g>
<!-- Node7 -->
<g id="node8" class="node">
<title>Node7</title>
<polygon fill="#ffffff" stroke="#bfbfbf" points="662.5,-336.5 662.5,-355.5 724.5,-355.5 724.5,-336.5 662.5,-336.5"/>
<text text-anchor="middle" x="693.5" y="-343.5" font-family="Helvetica,sans-Serif" font-size="10.00" fill="#000000">functional</text>
</g>
<!-- Node6&#45;&gt;Node7 -->
<g id="edge7" class="edge">
<title>Node6&#45;&gt;Node7</title>
<path fill="none" stroke="#191970" d="M1121.2275,-504.2564C1108.3043,-489.6899 1081.8528,-462.4111 1053.5,-448 989.6818,-415.5627 965.4975,-431.0862 896.5,-412 837.5604,-395.696 770.2585,-372.9879 729.8642,-358.9061"/>
<polygon fill="#191970" stroke="#191970" points="730.7905,-355.5222 720.1956,-355.521 728.4773,-362.1289 730.7905,-355.5222"/>
</g>
<!-- Node8 -->
<g id="node9" class="node">
<title>Node8</title>
<polygon fill="#ffffff" stroke="#bfbfbf" points="911,-448.5 911,-467.5 940,-467.5 940,-448.5 911,-448.5"/>
<text text-anchor="middle" x="925.5" y="-455.5" font-family="Helvetica,sans-Serif" font-size="10.00" fill="#000000">list</text>
</g>
<!-- Node6&#45;&gt;Node8 -->
<g id="edge8" class="edge">
<title>Node6&#45;&gt;Node8</title>
<path fill="none" stroke="#191970" d="M1090.759,-505.8051C1053.9859,-497.6273 997.3757,-483.9982 949.5,-468 949.4037,-467.9678 949.3072,-467.9354 949.2105,-467.9028"/>
<polygon fill="#191970" stroke="#191970" points="950.6874,-464.7189 940.0954,-464.4755 948.2238,-471.2711 950.6874,-464.7189"/>
</g>
<!-- Node9 -->
<g id="node10" class="node">
<title>Node9</title>
<polygon fill="#ffffff" stroke="#bfbfbf" points="1329,-448.5 1329,-467.5 1370,-467.5 1370,-448.5 1329,-448.5"/>
<text text-anchor="middle" x="1349.5" y="-455.5" font-family="Helvetica,sans-Serif" font-size="10.00" fill="#000000">stack</text>
</g>
<!-- Node6&#45;&gt;Node9 -->
<g id="edge10" class="edge">
<title>Node6&#45;&gt;Node9</title>
<path fill="none" stroke="#191970" d="M1168.2217,-504.7845C1205.7208,-495.7627 1264.1392,-481.4512 1314.5,-468 1315.9501,-467.6127 1317.4323,-467.2112 1318.9283,-466.8014"/>
<polygon fill="#191970" stroke="#191970" points="1320.1159,-470.1037 1328.8047,-464.0411 1318.2317,-463.3621 1320.1159,-470.1037"/>
</g>
<!-- Node10 -->
<g id="node11" class="node">
<title>Node10</title>
<polygon fill="#ffffff" stroke="#bfbfbf" points="1273,-112.5 1273,-131.5 1316,-131.5 1316,-112.5 1273,-112.5"/>
<text text-anchor="middle" x="1294.5" y="-119.5" font-family="Helvetica,sans-Serif" font-size="10.00" fill="#000000">string</text>
</g>
<!-- Node6&#45;&gt;Node10 -->
<g id="edge11" class="edge">
<title>Node6&#45;&gt;Node10</title>
<path fill="none" stroke="#191970" d="M1159.9094,-504.4431C1188.2203,-494.9837 1227.6369,-480.1915 1238.5,-468 1293.3291,-406.4658 1290.5,-372.4178 1290.5,-290 1290.5,-290 1290.5,-290 1290.5,-234 1290.5,-201.691 1292.183,-164.1727 1293.3656,-141.7971"/>
<polygon fill="#191970" stroke="#191970" points="1296.8728,-141.7613 1293.9269,-131.5843 1289.8833,-141.3771 1296.8728,-141.7613"/>
</g>
<!-- Node11 -->
<g id="node12" class="node">
<title>Node11</title>
<polygon fill="#ffffff" stroke="#bfbfbf" points="1132.5,-336.5 1132.5,-355.5 1224.5,-355.5 1224.5,-336.5 1132.5,-336.5"/>
<text text-anchor="middle" x="1178.5" y="-343.5" font-family="Helvetica,sans-Serif" font-size="10.00" fill="#000000">unordered_map</text>
</g>
<!-- Node6&#45;&gt;Node11 -->
<g id="edge12" class="edge">
<title>Node6&#45;&gt;Node11</title>
<path fill="none" stroke="#191970" d="M1138.6952,-504.272C1146.405,-495.5056 1157.0093,-481.8939 1162.5,-468 1175.9878,-433.8702 1178.5784,-390.6068 1178.8234,-365.8381"/>
<polygon fill="#191970" stroke="#191970" points="1182.3228,-365.5625 1178.7973,-355.5714 1175.3229,-365.5804 1182.3228,-365.5625"/>
</g>
<!-- Node12 -->
<g id="node13" class="node">
<title>Node12</title>
<polygon fill="#ffffff" stroke="#bfbfbf" points="958.5,-448.5 958.5,-467.5 1044.5,-467.5 1044.5,-448.5 958.5,-448.5"/>
<text text-anchor="middle" x="1001.5" y="-455.5" font-family="Helvetica,sans-Serif" font-size="10.00" fill="#000000">unordered_set</text>
</g>
<!-- Node6&#45;&gt;Node12 -->
<g id="edge13" class="edge">
<title>Node6&#45;&gt;Node12</title>
<path fill="none" stroke="#191970" d="M1107.496,-504.3733C1086.8565,-495.3435 1055.7842,-481.7494 1032.6111,-471.6111"/>
<polygon fill="#191970" stroke="#191970" points="1033.7813,-468.3028 1023.2169,-467.5011 1030.9755,-474.7159 1033.7813,-468.3028"/>
</g>
<!-- Node13 -->
<g id="node14" class="node">
<title>Node13</title>
<g id="a_node14"><a xlink:href="pdi__fwd_8h.html" target="_top" xlink:title="pdi/pdi_fwd.h">
<polygon fill="#ffffff" stroke="#000000" points="630,-112.5 630,-131.5 709,-131.5 709,-112.5 630,-112.5"/>
<text text-anchor="middle" x="669.5" y="-119.5" font-family="Helvetica,sans-Serif" font-size="10.00" fill="#000000">pdi/pdi_fwd.h</text>
</a>
</g>
</g>
<!-- Node6&#45;&gt;Node13 -->
<g id="edge14" class="edge">
<title>Node6&#45;&gt;Node13</title>
<path fill="none" stroke="#191970" d="M1143.176,-504.3106C1179.8313,-477.1436 1274.778,-398.168 1233.5,-336 1226.848,-325.9816 845.8564,-171.956 834.5,-168 796.3245,-154.7016 752.1673,-142.5558 719.1452,-134.0882"/>
<polygon fill="#191970" stroke="#191970" points="719.8272,-130.6504 709.2734,-131.5812 718.1042,-137.435 719.8272,-130.6504"/>
</g>
<!-- Node18 -->
<g id="node19" class="node">
<title>Node18</title>
<g id="a_node19"><a xlink:href="data__descriptor_8h.html" target="_top" xlink:title="pdi/data_descriptor.h">
<polygon fill="#ffffff" stroke="#000000" points="700.5,-448.5 700.5,-467.5 816.5,-467.5 816.5,-448.5 700.5,-448.5"/>
<text text-anchor="middle" x="758.5" y="-455.5" font-family="Helvetica,sans-Serif" font-size="10.00" fill="#000000">pdi/data_descriptor.h</text>
</a>
</g>
</g>
<!-- Node6&#45;&gt;Node18 -->
<g id="edge20" class="edge">
<title>Node6&#45;&gt;Node18</title>
<path fill="none" stroke="#191970" d="M1090.8464,-508.1655C1028.4144,-498.7418 904.5535,-480.0458 826.9349,-468.3298"/>
<polygon fill="#191970" stroke="#191970" points="827.18,-464.8272 816.7696,-466.7954 826.1351,-471.7488 827.18,-464.8272"/>
</g>
<!-- Node19 -->
<g id="node20" class="node">
<title>Node19</title>
<g id="a_node20"><a xlink:href="datatype__template_8h.html" target="_top" xlink:title="pdi/datatype_template.h">
<polygon fill="#ffffff" stroke="#000000" points="461.5,-280.5 461.5,-299.5 591.5,-299.5 591.5,-280.5 461.5,-280.5"/>
<text text-anchor="middle" x="526.5" y="-287.5" font-family="Helvetica,sans-Serif" font-size="10.00" fill="#000000">pdi/datatype_template.h</text>
</a>
</g>
</g>
<!-- Node6&#45;&gt;Node19 -->
<g id="edge47" class="edge">
<title>Node6&#45;&gt;Node19</title>
<path fill="none" stroke="#191970" d="M1090.9156,-513.3896C997.3881,-511.3676 761.1592,-502.8568 691.5,-468 617.4735,-430.9578 559.8977,-345.9504 537.1155,-308.4035"/>
<polygon fill="#191970" stroke="#191970" points="539.9695,-306.3546 531.8546,-299.5429 533.9505,-309.9284 539.9695,-306.3546"/>
</g>
<!-- Node6&#45;&gt;Node20 -->
<g id="edge49" class="edge">
<title>Node6&#45;&gt;Node20</title>
<path fill="none" stroke="#191970" d="M1128.3716,-504.279C1126.4121,-490.6878 1121.3859,-465.6894 1109.5,-448 1065.4455,-382.4347 1039.8184,-375.651 971.5,-336 899.2777,-294.0832 806.5884,-262.7539 752.7367,-246.504"/>
<polygon fill="#191970" stroke="#191970" points="753.4075,-243.0519 742.8245,-243.5512 751.409,-249.7605 753.4075,-243.0519"/>
</g>
<!-- Node6&#45;&gt;Node22 -->
<g id="edge48" class="edge">
<title>Node6&#45;&gt;Node22</title>
<path fill="none" stroke="#191970" d="M1125.7526,-504.4362C1119.6598,-490.1047 1106.2642,-463.1285 1086.5,-448 1059.5333,-427.3583 1022.9643,-415.7956 993.6907,-409.4258"/>
<polygon fill="#191970" stroke="#191970" points="994.1658,-405.9508 983.6682,-407.383 992.7677,-412.8098 994.1658,-405.9508"/>
</g>
<!-- Node13&#45;&gt;Node3 -->
<g id="edge15" class="edge">
<title>Node13&#45;&gt;Node3</title>
<path fill="none" stroke="#191970" d="M709.2606,-119.3927C853.1882,-109.9549 1345.8831,-77.647 1486.0341,-68.4568"/>
<polygon fill="#191970" stroke="#191970" points="1486.508,-71.9333 1496.2575,-67.7864 1486.0499,-64.9483 1486.508,-71.9333"/>
</g>
<!-- Node14 -->
<g id="node15" class="node">
<title>Node14</title>
<g id="a_node15"><a xlink:href="pdi_8h.html" target="_top" xlink:title="pdi.h">
<polygon fill="#ffffff" stroke="#000000" points="199,-56.5 199,-75.5 238,-75.5 238,-56.5 199,-56.5"/>
<text text-anchor="middle" x="218.5" y="-63.5" font-family="Helvetica,sans-Serif" font-size="10.00" fill="#000000">pdi.h</text>
</a>
</g>
</g>
<!-- Node13&#45;&gt;Node14 -->
<g id="edge16" class="edge">
<title>Node13&#45;&gt;Node14</title>
<path fill="none" stroke="#191970" d="M629.872,-117.0795C540.9814,-106.042 327.308,-79.5105 248.4212,-69.7153"/>
<polygon fill="#191970" stroke="#191970" points="248.5666,-66.2065 238.2115,-68.4476 247.704,-73.1532 248.5666,-66.2065"/>
</g>
<!-- Node15 -->
<g id="node16" class="node">
<title>Node15</title>
<polygon fill="#ffffff" stroke="#bfbfbf" points="973,-.5 973,-19.5 1040,-19.5 1040,-.5 973,-.5"/>
<text text-anchor="middle" x="1006.5" y="-7.5" font-family="Helvetica,sans-Serif" font-size="10.00" fill="#000000">paraconf.h</text>
</g>
<!-- Node14&#45;&gt;Node15 -->
<g id="edge17" class="edge">
<title>Node14&#45;&gt;Node15</title>
<path fill="none" stroke="#191970" d="M238.0982,-59.4209C242.77,-58.0804 247.7729,-56.8284 252.5,-56 390.3578,-31.8399 822.4705,-15.9904 962.3394,-11.3882"/>
<polygon fill="#191970" stroke="#191970" points="962.7851,-14.8756 972.6656,-11.0515 962.5569,-7.8793 962.7851,-14.8756"/>
</g>
<!-- Node16 -->
<g id="node17" class="node">
<title>Node16</title>
<polygon fill="#ffffff" stroke="#bfbfbf" points="136.5,-.5 136.5,-19.5 208.5,-19.5 208.5,-.5 136.5,-.5"/>
<text text-anchor="middle" x="172.5" y="-7.5" font-family="Helvetica,sans-Serif" font-size="10.00" fill="#000000">pdi/export.h</text>
</g>
<!-- Node14&#45;&gt;Node16 -->
<g id="edge18" class="edge">
<title>Node14&#45;&gt;Node16</title>
<path fill="none" stroke="#191970" d="M210.4874,-56.2455C204.0232,-48.3761 194.7615,-37.101 187.0017,-27.6542"/>
<polygon fill="#191970" stroke="#191970" points="189.4727,-25.1484 180.4208,-19.6427 184.0636,-29.5916 189.4727,-25.1484"/>
</g>
<!-- Node17 -->
<g id="node18" class="node">
<title>Node17</title>
<polygon fill="#ffffff" stroke="#bfbfbf" points="227,-.5 227,-19.5 304,-19.5 304,-.5 227,-.5"/>
<text text-anchor="middle" x="265.5" y="-7.5" font-family="Helvetica,sans-Serif" font-size="10.00" fill="#000000">pdi/version.h</text>
</g>
<!-- Node14&#45;&gt;Node17 -->
<g id="edge19" class="edge">
<title>Node14&#45;&gt;Node17</title>
<path fill="none" stroke="#191970" d="M226.6868,-56.2455C233.3589,-48.2958 242.9479,-36.8706 250.9253,-27.3656"/>
<polygon fill="#191970" stroke="#191970" points="253.6592,-29.5525 257.407,-19.6427 248.2974,-25.0524 253.6592,-29.5525"/>
</g>
<!-- Node18&#45;&gt;Node13 -->
<g id="edge22" class="edge">
<title>Node18&#45;&gt;Node13</title>
<path fill="none" stroke="#191970" d="M763.2217,-448.3774C772.123,-429.3222 790.5,-385.2317 790.5,-346 790.5,-346 790.5,-346 790.5,-234 790.5,-186.1765 738.9648,-153.072 703.16,-135.8432"/>
<polygon fill="#191970" stroke="#191970" points="704.5322,-132.6217 693.9862,-131.6056 701.5967,-138.9765 704.5322,-132.6217"/>
</g>
<!-- Node18&#45;&gt;Node15 -->
<g id="edge21" class="edge">
<title>Node18&#45;&gt;Node15</title>
<path fill="none" stroke="#191970" d="M766.6632,-448.3025C774.3138,-439.11 785.9683,-424.8364 795.5,-412 819.8996,-379.1409 819.6606,-366.0005 847.5,-336 919.1236,-258.8166 986.887,-282.9035 1032.5,-188 1058.1244,-134.6853 1031.5989,-62.8242 1016.0647,-29.0452"/>
<polygon fill="#191970" stroke="#191970" points="1019.1381,-27.3592 1011.6665,-19.8474 1012.8229,-30.379 1019.1381,-27.3592"/>
</g>
<!-- Node18&#45;&gt;Node19 -->
<g id="edge23" class="edge">
<title>Node18&#45;&gt;Node19</title>
<path fill="none" stroke="#191970" d="M745.3619,-448.4862C707.0899,-420.772 595.4144,-339.9036 548.0923,-305.6358"/>
<polygon fill="#191970" stroke="#191970" points="549.9338,-302.648 539.7815,-299.6177 545.8282,-308.3176 549.9338,-302.648"/>
</g>
<!-- Node18&#45;&gt;Node22 -->
<g id="edge32" class="edge">
<title>Node18&#45;&gt;Node22</title>
<path fill="none" stroke="#191970" d="M790.4745,-448.3733C821.6713,-438.9807 869.271,-424.6496 903.2932,-414.4064"/>
<polygon fill="#191970" stroke="#191970" points="904.3763,-417.7355 912.9427,-411.5011 902.3582,-411.0327 904.3763,-417.7355"/>
</g>
<!-- Node19&#45;&gt;Node13 -->
<g id="edge25" class="edge">
<title>Node19&#45;&gt;Node13</title>
<path fill="none" stroke="#191970" d="M534.598,-280.4862C557.6923,-253.3545 624.1488,-175.2798 654.2998,-139.8576"/>
<polygon fill="#191970" stroke="#191970" points="657.318,-141.7114 661.1346,-131.8279 651.9876,-137.1742 657.318,-141.7114"/>
</g>
<!-- Node19&#45;&gt;Node15 -->
<g id="edge24" class="edge">
<title>Node19&#45;&gt;Node15</title>
<path fill="none" stroke="#191970" d="M482.0998,-280.4765C407.8407,-263.2551 266.5,-224.3842 266.5,-178 266.5,-178 266.5,-178 266.5,-122 266.5,-51.1881 803.0742,-19.7616 962.4065,-11.9907"/>
<polygon fill="#191970" stroke="#191970" points="962.9603,-15.4682 972.7808,-11.4923 962.6244,-8.4763 962.9603,-15.4682"/>
</g>
<!-- Node19&#45;&gt;Node20 -->
<g id="edge26" class="edge">
<title>Node19&#45;&gt;Node20</title>
<path fill="none" stroke="#191970" d="M557.7869,-280.3733C588.1818,-271.021 634.4893,-256.7725 667.75,-246.5385"/>
<polygon fill="#191970" stroke="#191970" points="669.0929,-249.7873 677.6214,-243.5011 667.0342,-243.0968 669.0929,-249.7873"/>
</g>
<!-- Node20&#45;&gt;Node13 -->
<g id="edge27" class="edge">
<title>Node20&#45;&gt;Node13</title>
<path fill="none" stroke="#191970" d="M705.1749,-224.4509C698.7565,-206.0186 684.5517,-165.2254 676.131,-141.043"/>
<polygon fill="#191970" stroke="#191970" points="679.4106,-139.8177 672.8167,-131.5249 672.7999,-142.1197 679.4106,-139.8177"/>
</g>
<!-- Node21 -->
<g id="node22" class="node">
<title>Node21</title>
<g id="a_node22"><a xlink:href="paraconf__wrapper_8h.html" target="_top" xlink:title="pdi/paraconf_wrapper.h">
<polygon fill="#ffffff" stroke="#000000" points="895,-168.5 895,-187.5 1024,-187.5 1024,-168.5 895,-168.5"/>
<text text-anchor="middle" x="959.5" y="-175.5" font-family="Helvetica,sans-Serif" font-size="10.00" fill="#000000">pdi/paraconf_wrapper.h</text>
</a>
</g>
</g>
<!-- Node20&#45;&gt;Node21 -->
<g id="edge28" class="edge">
<title>Node20&#45;&gt;Node21</title>
<path fill="none" stroke="#191970" d="M744.7295,-225.9169C787.1893,-216.4438 857.9145,-200.6645 906.5301,-189.818"/>
<polygon fill="#191970" stroke="#191970" points="907.5526,-193.176 916.5505,-187.5824 906.0283,-186.344 907.5526,-193.176"/>
</g>
<!-- Node21&#45;&gt;Node10 -->
<g id="edge29" class="edge">
<title>Node21&#45;&gt;Node10</title>
<path fill="none" stroke="#191970" d="M1016.7079,-168.4369C1087.6343,-156.5805 1206.0556,-136.7847 1262.5826,-127.3354"/>
<polygon fill="#191970" stroke="#191970" points="1263.4254,-130.7432 1272.7114,-125.6423 1262.2712,-123.839 1263.4254,-130.7432"/>
</g>
<!-- Node21&#45;&gt;Node13 -->
<g id="edge31" class="edge">
<title>Node21&#45;&gt;Node13</title>
<path fill="none" stroke="#191970" d="M909.9767,-168.4369C856.6326,-158.136 772.2534,-141.842 718.9412,-131.5473"/>
<polygon fill="#191970" stroke="#191970" points="719.5194,-128.0943 709.0371,-129.6348 718.1921,-134.9674 719.5194,-128.0943"/>
</g>
<!-- Node21&#45;&gt;Node15 -->
<g id="edge30" class="edge">
<title>Node21&#45;&gt;Node15</title>
<path fill="none" stroke="#191970" d="M962.1616,-168.4862C969.6234,-141.8144 990.858,-65.9117 1000.9901,-29.695"/>
<polygon fill="#191970" stroke="#191970" points="1004.4269,-30.4011 1003.7505,-19.8279 997.6857,-28.5151 1004.4269,-30.4011"/>
</g>
<!-- Node22&#45;&gt;Node3 -->
<g id="edge35" class="edge">
<title>Node22&#45;&gt;Node3</title>
<path fill="none" stroke="#191970" d="M954.3856,-392.3995C1004.0418,-344.2601 1225.3734,-130.7221 1263.5,-112 1302.1048,-93.0431 1423.806,-77.1621 1486.0453,-70.0328"/>
<polygon fill="#191970" stroke="#191970" points="1486.6781,-73.4837 1496.2226,-68.8845 1485.8932,-66.5278 1486.6781,-73.4837"/>
</g>
<!-- Node22&#45;&gt;Node7 -->
<g id="edge34" class="edge">
<title>Node22&#45;&gt;Node7</title>
<path fill="none" stroke="#191970" d="M905.2813,-393.25C858.7812,-382.8755 781.6517,-365.6673 734.4195,-355.1294"/>
<polygon fill="#191970" stroke="#191970" points="735.0515,-351.6845 724.5293,-352.9229 733.5271,-358.5165 735.0515,-351.6845"/>
</g>
<!-- Node22&#45;&gt;Node11 -->
<g id="edge37" class="edge">
<title>Node22&#45;&gt;Node11</title>
<path fill="none" stroke="#191970" d="M983.6663,-392.6269C1023.4985,-383.0944 1085.3576,-368.2905 1128.6595,-357.9276"/>
<polygon fill="#191970" stroke="#191970" points="1129.5108,-361.3228 1138.4215,-355.5914 1127.8815,-354.5151 1129.5108,-361.3228"/>
</g>
<!-- Node22&#45;&gt;Node13 -->
<g id="edge38" class="edge">
<title>Node22&#45;&gt;Node13</title>
<path fill="none" stroke="#191970" d="M953.5642,-392.1527C964.2886,-379.2477 979.7138,-355.9139 971.5,-336 931.356,-238.6732 893.7895,-223.7803 804.5,-168 778.3376,-151.656 745.6668,-140.3255 719.0184,-132.9995"/>
<polygon fill="#191970" stroke="#191970" points="719.6885,-129.5565 709.1262,-130.3858 717.9002,-136.3243 719.6885,-129.5565"/>
</g>
<!-- Node23 -->
<g id="node24" class="node">
<title>Node23</title>
<polygon fill="#ffffff" stroke="#bfbfbf" points="857,-336.5 857,-355.5 908,-355.5 908,-336.5 857,-336.5"/>
<text text-anchor="middle" x="882.5" y="-343.5" font-family="Helvetica,sans-Serif" font-size="10.00" fill="#000000">cassert</text>
</g>
<!-- Node22&#45;&gt;Node23 -->
<g id="edge33" class="edge">
<title>Node22&#45;&gt;Node23</title>
<path fill="none" stroke="#191970" d="M933.7004,-392.2455C924.6322,-384.0549 911.4794,-372.1749 900.7755,-362.5069"/>
<polygon fill="#191970" stroke="#191970" points="902.9429,-359.7482 893.1758,-355.6427 898.2509,-364.9429 902.9429,-359.7482"/>
</g>
<!-- Node24 -->
<g id="node25" class="node">
<title>Node24</title>
<polygon fill="#ffffff" stroke="#bfbfbf" points="926.5,-336.5 926.5,-355.5 962.5,-355.5 962.5,-336.5 926.5,-336.5"/>
<text text-anchor="middle" x="944.5" y="-343.5" font-family="Helvetica,sans-Serif" font-size="10.00" fill="#000000">new</text>
</g>
<!-- Node22&#45;&gt;Node24 -->
<g id="edge36" class="edge">
<title>Node22&#45;&gt;Node24</title>
<path fill="none" stroke="#191970" d="M944.5,-392.2455C944.5,-384.9382 944.5,-374.6944 944.5,-365.7046"/>
<polygon fill="#191970" stroke="#191970" points="948.0001,-365.6426 944.5,-355.6427 941.0001,-365.6427 948.0001,-365.6426"/>
</g>
<!-- Node22&#45;&gt;Node25 -->
<g id="edge39" class="edge">
<title>Node22&#45;&gt;Node25</title>
<path fill="none" stroke="#191970" d="M905.0623,-398.5812C793.5541,-388.9149 475.9573,-361.3833 350.4479,-350.5032"/>
<polygon fill="#191970" stroke="#191970" points="350.592,-347.0027 340.327,-349.6259 349.9874,-353.9765 350.592,-347.0027"/>
</g>
<!-- Node22&#45;&gt;Node26 -->
<g id="edge42" class="edge">
<title>Node22&#45;&gt;Node26</title>
<path fill="none" stroke="#191970" d="M965.4688,-392.375C1042.7417,-356.9054 1311.7933,-233.4063 1402.4302,-191.8025"/>
<polygon fill="#191970" stroke="#191970" points="1403.9812,-194.9418 1411.6094,-187.5891 1401.061,-188.58 1403.9812,-194.9418"/>
</g>
<!-- Node25&#45;&gt;Node13 -->
<g id="edge40" class="edge">
<title>Node25&#45;&gt;Node13</title>
<path fill="none" stroke="#191970" d="M298.9672,-336.3632C300.9936,-306.0775 311.6339,-212.2117 366.5,-168 404.5355,-137.3506 543.8836,-127.0032 619.6463,-123.6021"/>
<polygon fill="#191970" stroke="#191970" points="620.0551,-127.088 629.8976,-123.1669 619.7581,-120.0943 620.0551,-127.088"/>
</g>
<!-- Node25&#45;&gt;Node19 -->
<g id="edge41" class="edge">
<title>Node25&#45;&gt;Node19</title>
<path fill="none" stroke="#191970" d="M337.4355,-336.4369C376.292,-326.8932 436.093,-312.2052 478.0089,-301.9101"/>
<polygon fill="#191970" stroke="#191970" points="478.8486,-305.308 487.7251,-299.5237 477.1788,-298.51 478.8486,-305.308"/>
</g>
<!-- Node26&#45;&gt;Node10 -->
<g id="edge44" class="edge">
<title>Node26&#45;&gt;Node10</title>
<path fill="none" stroke="#191970" d="M1408.777,-168.3733C1385.7821,-159.042 1350.7757,-144.8365 1325.5685,-134.6075"/>
<polygon fill="#191970" stroke="#191970" points="1326.6814,-131.282 1316.0992,-130.7649 1324.0493,-137.7683 1326.6814,-131.282"/>
</g>
<!-- Node26&#45;&gt;Node13 -->
<g id="edge46" class="edge">
<title>Node26&#45;&gt;Node13</title>
<path fill="none" stroke="#191970" d="M1399.7148,-175.5938C1279.7778,-166.791 864.3474,-136.3007 719.6594,-125.6814"/>
<polygon fill="#191970" stroke="#191970" points="719.5439,-122.1636 709.3145,-124.9222 719.0315,-129.1448 719.5439,-122.1636"/>
</g>
<!-- Node26&#45;&gt;Node15 -->
<g id="edge45" class="edge">
<title>Node26&#45;&gt;Node15</title>
<path fill="none" stroke="#191970" d="M1432.5679,-168.4231C1432.1273,-154.0744 1429.1092,-127.0761 1413.5,-112 1361.3558,-61.6367 1144.2647,-27.929 1050.2384,-15.4221"/>
<polygon fill="#191970" stroke="#191970" points="1050.5683,-11.9355 1040.198,-14.1052 1049.6579,-18.8761 1050.5683,-11.9355"/>
</g>
<!-- Node27 -->
<g id="node28" class="node">
<title>Node27</title>
<polygon fill="#ffffff" stroke="#bfbfbf" points="1342.5,-112.5 1342.5,-131.5 1404.5,-131.5 1404.5,-112.5 1342.5,-112.5"/>
<text text-anchor="middle" x="1373.5" y="-119.5" font-family="Helvetica,sans-Serif" font-size="10.00" fill="#000000">exception</text>
</g>
<!-- Node26&#45;&gt;Node27 -->
<g id="edge43" class="edge">
<title>Node26&#45;&gt;Node27</title>
<path fill="none" stroke="#191970" d="M1422.223,-168.2455C1413.6782,-160.1352 1401.3222,-148.4075 1391.1915,-138.7919"/>
<polygon fill="#191970" stroke="#191970" points="1393.3218,-135.9884 1383.6592,-131.6427 1388.5028,-141.0655 1393.3218,-135.9884"/>
</g>
<!-- Node28&#45;&gt;Node13 -->
<g id="edge55" class="edge">
<title>Node28&#45;&gt;Node13</title>
<path fill="none" stroke="#191970" d="M645.9157,-280.4862C649.8677,-253.9293 661.0826,-178.5651 666.4992,-142.1655"/>
<polygon fill="#191970" stroke="#191970" points="670.0274,-142.2342 668.0375,-131.8279 663.1037,-141.2038 670.0274,-142.2342"/>
</g>
<!-- Node28&#45;&gt;Node20 -->
<g id="edge54" class="edge">
<title>Node28&#45;&gt;Node20</title>
<path fill="none" stroke="#191970" d="M655.6479,-280.2455C665.0087,-272.0549 678.5858,-260.1749 689.6349,-250.5069"/>
<polygon fill="#191970" stroke="#191970" points="692.2588,-252.8618 697.4798,-243.6427 687.6492,-247.5937 692.2588,-252.8618"/>
</g>
<!-- Node29&#45;&gt;Node7 -->
<g id="edge58" class="edge">
<title>Node29&#45;&gt;Node7</title>
<path fill="none" stroke="#191970" d="M294.906,-394.7364C389.0669,-383.2233 570.2603,-361.0686 651.8633,-351.0909"/>
<polygon fill="#191970" stroke="#191970" points="652.7343,-354.5106 662.2356,-349.8227 651.8847,-347.5624 652.7343,-354.5106"/>
</g>
<!-- Node29&#45;&gt;Node13 -->
<g id="edge59" class="edge">
<title>Node29&#45;&gt;Node13</title>
<path fill="none" stroke="#191970" d="M236.5838,-392.4384C241.3132,-355.7064 263.7279,-222.9736 345.5,-168 389.27,-138.5744 539.9717,-127.6352 619.4781,-123.8454"/>
<polygon fill="#191970" stroke="#191970" points="619.9104,-127.3294 629.7405,-123.3771 619.5913,-120.3367 619.9104,-127.3294"/>
</g>
<!-- Node29&#45;&gt;Node25 -->
<g id="edge60" class="edge">
<title>Node29&#45;&gt;Node25</title>
<path fill="none" stroke="#191970" d="M246.4738,-392.2455C255.6882,-384.0549 269.0532,-372.1749 279.9297,-362.5069"/>
<polygon fill="#191970" stroke="#191970" points="282.5032,-364.9023 287.652,-355.6427 277.8526,-359.6704 282.5032,-364.9023"/>
</g>
<!-- Node30&#45;&gt;Node3 -->
<g id="edge63" class="edge">
<title>Node30&#45;&gt;Node3</title>
<path fill="none" stroke="#191970" d="M792.5504,-623.1735C989.6371,-612.5269 1588.5,-566.6314 1588.5,-402 1588.5,-402 1588.5,-402 1588.5,-178 1588.5,-140.0918 1560.3008,-103.5315 1541.0498,-82.9893"/>
<polygon fill="#191970" stroke="#191970" points="1543.4269,-80.4136 1533.9434,-75.6899 1538.4113,-85.2966 1543.4269,-80.4136"/>
</g>
<!-- Node30&#45;&gt;Node7 -->
<g id="edge62" class="edge">
<title>Node30&#45;&gt;Node7</title>
<path fill="none" stroke="#191970" d="M724.1891,-616.177C709.1494,-592.1113 671.4831,-527.8 658.5,-468 650.4414,-430.882 669.1037,-388.4369 682.156,-364.6674"/>
<polygon fill="#191970" stroke="#191970" points="685.3648,-366.1082 687.3122,-355.6938 679.2954,-362.6207 685.3648,-366.1082"/>
</g>
<!-- Node30&#45;&gt;Node9 -->
<g id="edge64" class="edge">
<title>Node30&#45;&gt;Node9</title>
<path fill="none" stroke="#191970" d="M792.8244,-618.9424C887.4953,-606.9176 1072.2047,-578.3118 1220.5,-524 1258.4131,-510.1147 1299.4914,-487.6985 1324.8645,-472.9057"/>
<polygon fill="#191970" stroke="#191970" points="1326.9478,-475.7403 1333.7806,-467.6431 1323.3897,-469.712 1326.9478,-475.7403"/>
</g>
<!-- Node30&#45;&gt;Node13 -->
<g id="edge66" class="edge">
<title>Node30&#45;&gt;Node13</title>
<path fill="none" stroke="#191970" d="M681.4176,-616.4911C613.1776,-600.1214 493.912,-559.1564 457.5,-468 417.2513,-367.2385 402.6897,-321.8858 449.5,-224 479.9354,-160.356 564.7886,-136.3278 619.7784,-127.3218"/>
<polygon fill="#191970" stroke="#191970" points="620.3223,-130.7794 629.6788,-125.8088 619.2648,-123.8597 620.3223,-130.7794"/>
</g>
<!-- Node30&#45;&gt;Node15 -->
<g id="edge65" class="edge">
<title>Node30&#45;&gt;Node15</title>
<path fill="none" stroke="#191970" d="M792.7348,-624.5387C895.0369,-621.2997 1104.8285,-611.1322 1279.5,-580 1371.6402,-563.5776 1393.327,-552.4199 1482.5,-524 1564.4805,-497.8724 1664.5,-544.0433 1664.5,-458 1664.5,-458 1664.5,-458 1664.5,-122 1664.5,-66.8799 1611.7858,-73.4476 1559.5,-56 1465.2323,-24.5432 1163.7487,-13.9127 1050.2619,-10.971"/>
<polygon fill="#191970" stroke="#191970" points="1050.2798,-7.4704 1040.1949,-10.7176 1050.1036,-14.4682 1050.2798,-7.4704"/>
</g>
<!-- Node30&#45;&gt;Node18 -->
<g id="edge67" class="edge">
<title>Node30&#45;&gt;Node18</title>
<path fill="none" stroke="#191970" d="M732.0856,-616.4862C736.5309,-589.8144 749.1814,-513.9117 755.2175,-477.695"/>
<polygon fill="#191970" stroke="#191970" points="758.6703,-478.2672 756.862,-467.8279 751.7656,-477.1164 758.6703,-478.2672"/>
</g>
<!-- Node30&#45;&gt;Node19 -->
<g id="edge68" class="edge">
<title>Node30&#45;&gt;Node19</title>
<path fill="none" stroke="#191970" d="M709.1862,-616.4922C651.6473,-590.3429 495.6636,-516.1018 468.5,-468 437.8378,-413.7028 485.7102,-340.8158 511.6255,-307.6989"/>
<polygon fill="#191970" stroke="#191970" points="514.4283,-309.7986 517.9753,-299.8151 508.9767,-305.4077 514.4283,-309.7986"/>
</g>
<!-- Node30&#45;&gt;Node22 -->
<g id="edge69" class="edge">
<title>Node30&#45;&gt;Node22</title>
<path fill="none" stroke="#191970" d="M738.6797,-616.4419C762.0336,-589.2927 831.3417,-509.6914 893.5,-448 903.8143,-437.7631 915.8669,-426.8476 925.6649,-418.2196"/>
<polygon fill="#191970" stroke="#191970" points="928.0449,-420.788 933.2773,-411.5753 923.4418,-415.5143 928.0449,-420.788"/>
</g>
<!-- Node31 -->
<g id="node32" class="node">
<title>Node31</title>
<g id="a_node32"><a xlink:href="global__context_8h.html" target="_top" xlink:title="global_context.h">
<polygon fill="#ffffff" stroke="#000000" points="879,-560.5 879,-579.5 972,-579.5 972,-560.5 879,-560.5"/>
<text text-anchor="middle" x="925.5" y="-567.5" font-family="Helvetica,sans-Serif" font-size="10.00" fill="#000000">global_context.h</text>
</a>
</g>
</g>
<!-- Node30&#45;&gt;Node31 -->
<g id="edge70" class="edge">
<title>Node30&#45;&gt;Node31</title>
<path fill="none" stroke="#191970" d="M764.0217,-616.3733C796.8683,-606.9404 847.0595,-592.5265 882.7578,-582.2747"/>
<polygon fill="#191970" stroke="#191970" points="883.7703,-585.6255 892.4157,-579.5011 881.8381,-578.8974 883.7703,-585.6255"/>
</g>
<!-- Node31&#45;&gt;Node3 -->
<g id="edge72" class="edge">
<title>Node31&#45;&gt;Node3</title>
<path fill="none" stroke="#191970" d="M972.221,-567.5168C1117.3195,-558.5445 1550.5,-521.7321 1550.5,-402 1550.5,-402 1550.5,-402 1550.5,-178 1550.5,-144.6538 1539.0488,-107.2392 1531.0614,-85.1981"/>
<polygon fill="#191970" stroke="#191970" points="1534.2836,-83.823 1527.4839,-75.6981 1527.7327,-86.29 1534.2836,-83.823"/>
</g>
<!-- Node31&#45;&gt;Node6 -->
<g id="edge77" class="edge">
<title>Node31&#45;&gt;Node6</title>
<path fill="none" stroke="#191970" d="M960.5689,-560.3733C994.9315,-550.9404 1047.4392,-536.5265 1084.7851,-526.2747"/>
<polygon fill="#191970" stroke="#191970" points="1086.172,-529.5235 1094.8888,-523.5011 1084.319,-522.7732 1086.172,-529.5235"/>
</g>
<!-- Node31&#45;&gt;Node8 -->
<g id="edge71" class="edge">
<title>Node31&#45;&gt;Node8</title>
<path fill="none" stroke="#191970" d="M925.5,-560.4509C925.5,-542.184 925.5,-501.9553 925.5,-477.6976"/>
<polygon fill="#191970" stroke="#191970" points="929.0001,-477.5249 925.5,-467.5249 922.0001,-477.5249 929.0001,-477.5249"/>
</g>
<!-- Node31&#45;&gt;Node9 -->
<g id="edge73" class="edge">
<title>Node31&#45;&gt;Node9</title>
<path fill="none" stroke="#191970" d="M972.3417,-564.0334C1023.2003,-556.9512 1106.5324,-543.5795 1176.5,-524 1227.9206,-509.6106 1285.4458,-486.1084 1319.5059,-471.3768"/>
<polygon fill="#191970" stroke="#191970" points="1321.112,-474.4947 1328.878,-467.2878 1318.3127,-468.0788 1321.112,-474.4947"/>
</g>
<!-- Node31&#45;&gt;Node10 -->
<g id="edge74" class="edge">
<title>Node31&#45;&gt;Node10</title>
<path fill="none" stroke="#191970" d="M972.1805,-567.0565C1060.6181,-561.0483 1249.2189,-546.0516 1310.5,-524 1353.7683,-508.4302 1375.4765,-508.3675 1397.5,-468 1460.7771,-352.0175 1350.0002,-192.4324 1308.914,-139.6997"/>
<polygon fill="#191970" stroke="#191970" points="1311.4861,-137.3103 1302.5302,-131.6497 1306.0014,-141.6598 1311.4861,-137.3103"/>
</g>
<!-- Node31&#45;&gt;Node11 -->
<g id="edge75" class="edge">
<title>Node31&#45;&gt;Node11</title>
<path fill="none" stroke="#191970" d="M972.3741,-567.0902C1078.5224,-559.3745 1331.6919,-534.2514 1378.5,-468 1420.248,-408.9106 1307.4131,-373.0338 1234.6642,-356.6406"/>
<polygon fill="#191970" stroke="#191970" points="1235.2024,-353.1756 1224.6853,-354.4564 1233.7056,-360.0137 1235.2024,-353.1756"/>
</g>
<!-- Node31&#45;&gt;Node12 -->
<g id="edge76" class="edge">
<title>Node31&#45;&gt;Node12</title>
<path fill="none" stroke="#191970" d="M931.9797,-560.4509C944.6556,-541.7707 972.916,-500.1238 989.234,-476.0761"/>
<polygon fill="#191970" stroke="#191970" points="992.3178,-477.7649 995.0367,-467.5249 986.5255,-473.8344 992.3178,-477.7649"/>
</g>
<!-- Node31&#45;&gt;Node13 -->
<g id="edge79" class="edge">
<title>Node31&#45;&gt;Node13</title>
<path fill="none" stroke="#191970" d="M878.8924,-566.6423C833.8306,-561.9056 764.6162,-550.623 710.5,-524 647.4193,-492.9668 495.8363,-395.5032 452.5,-300 414.3282,-215.8781 551.702,-158.7306 625.5522,-134.7399"/>
<polygon fill="#191970" stroke="#191970" points="627.053,-137.9358 635.5263,-131.5755 624.9361,-131.2636 627.053,-137.9358"/>
</g>
<!-- Node31&#45;&gt;Node18 -->
<g id="edge80" class="edge">
<title>Node31&#45;&gt;Node18</title>
<path fill="none" stroke="#191970" d="M911.2617,-560.4509C882.2988,-541.0268 816.3093,-496.7703 781.2977,-473.2895"/>
<polygon fill="#191970" stroke="#191970" points="782.957,-470.188 772.7023,-467.5249 779.058,-476.0017 782.957,-470.188"/>
</g>
<!-- Node31&#45;&gt;Node20 -->
<g id="edge78" class="edge">
<title>Node31&#45;&gt;Node20</title>
<path fill="none" stroke="#191970" d="M899.4278,-560.4783C840.9969,-538.8846 703.7015,-486.629 691.5,-468 686.6297,-460.5641 689.6111,-456.6859 691.5,-448 701.0515,-404.0783 723.9485,-399.9217 733.5,-356 741.4242,-319.5611 727.3228,-276.8443 717.2776,-252.8492"/>
<polygon fill="#191970" stroke="#191970" points="720.399,-251.2524 713.1692,-243.5077 713.9913,-254.0706 720.399,-251.2524"/>
</g>
<!-- Node31&#45;&gt;Node22 -->
<g id="edge82" class="edge">
<title>Node31&#45;&gt;Node22</title>
<path fill="none" stroke="#191970" d="M920.1152,-560.4915C908.9806,-539.5142 885.7319,-487.9585 901.5,-448 906.0469,-436.4774 914.9932,-426.143 923.5534,-418.2024"/>
<polygon fill="#191970" stroke="#191970" points="925.8938,-420.8057 931.169,-411.6175 921.3153,-415.5106 925.8938,-420.8057"/>
</g>
<!-- Node31&#45;&gt;Node28 -->
<g id="edge81" class="edge">
<title>Node31&#45;&gt;Node28</title>
<path fill="none" stroke="#191970" d="M885.5905,-560.4341C818.0762,-543.3774 685.9655,-505.9305 658.5,-468 623.886,-420.1972 633.015,-345.0415 639.9673,-309.6604"/>
<polygon fill="#191970" stroke="#191970" points="643.4382,-310.1644 642.0898,-299.6557 636.5906,-308.7116 643.4382,-310.1644"/>
</g>
</g>
</svg>
        <g id="navigator" transform="translate(0 0)" fill="#404254">
                <rect fill="#f2f5e9" fill-opacity="0.5" stroke="#606060" stroke-width=".5" x="0" y="0" width="60" height="60"/>
                <use id="zoomplus" xlink:href="#zoomPlus" x="17" y="9" onmousedown="handleZoom(evt,'in')"/>
                <use id="zoomminus" xlink:href="#zoomMin" x="42" y="9" onmousedown="handleZoom(evt,'out')"/>
                <use id="reset" xlink:href="#resetDef" x="30" y="36" onmousedown="handleReset()"/>
                <g id="arrowUp" xlink:href="#dirArrow" transform="translate(30 24)" onmousedown="handlePan(0,-1)">
                  <use xlink:href="#rim" fill="#404040">
                        <set attributeName="fill" to="#808080" begin="arrowUp.mouseover" end="arrowUp.mouseout"/>
                  </use>
                  <path fill="none" stroke="white" stroke-width="1.5" d="M0,-3.0v7 M-2.5,-0.5L0,-3.0L2.5,-0.5"/>
                </g>
                <g id="arrowRight" xlink:href="#dirArrow" transform="rotate(90) translate(36 -43)" onmousedown="handlePan(1,0)">
                  <use xlink:href="#rim" fill="#404040">
                        <set attributeName="fill" to="#808080" begin="arrowRight.mouseover" end="arrowRight.mouseout"/>
                  </use>
                  <path fill="none" stroke="white" stroke-width="1.5" d="M0,-3.0v7 M-2.5,-0.5L0,-3.0L2.5,-0.5"/>
                </g>
                <g id="arrowDown" xlink:href="#dirArrow" transform="rotate(180) translate(-30 -48)" onmousedown="handlePan(0,1)">
                  <use xlink:href="#rim" fill="#404040">
                        <set attributeName="fill" to="#808080" begin="arrowDown.mouseover" end="arrowDown.mouseout"/>
                  </use>
                  <path fill="none" stroke="white" stroke-width="1.5" d="M0,-3.0v7 M-2.5,-0.5L0,-3.0L2.5,-0.5"/>
                </g>
                <g id="arrowLeft" xlink:href="#dirArrow" transform="rotate(270) translate(-36 17)" onmousedown="handlePan(-1,0)">
                  <use xlink:href="#rim" fill="#404040">
                        <set attributeName="fill" to="#808080" begin="arrowLeft.mouseover" end="arrowLeft.mouseout"/>
                  </use>
                  <path fill="none" stroke="white" stroke-width="1.5" d="M0,-3.0v7 M-2.5,-0.5L0,-3.0L2.5,-0.5"/>
                </g>
        </g>
        <svg viewBox="0 0 15 15" width="100%" height="30px" preserveAspectRatio="xMaxYMin meet">
         <g id="arrow_out" transform="scale(0.3 0.3)">
          <a xlink:href="data__descriptor__impl_8cxx__incl_org.svg" target="_base">
           <rect id="button" ry="5" rx="5" y="6" x="6" height="38" width="38"
                fill="#f2f5e9" fill-opacity="0.5" stroke="#606060" stroke-width="1.0"/>
           <path id="arrow"
             d="M 11.500037,31.436501 C 11.940474,20.09759 22.043105,11.32322 32.158766,21.979434 L 37.068811,17.246167 C 37.068811,17.246167 37.088388,32 37.088388,32 L 22.160133,31.978069 C 22.160133,31.978069 26.997745,27.140456 26.997745,27.140456 C 18.528582,18.264221 13.291696,25.230495 11.500037,31.436501 z"
             style="fill:#404040;"/>
          </a>
         </g>
        </svg>
</svg>
