<?xml version="1.0" encoding="UTF-8" standalone="no"?>
<!DOCTYPE svg PUBLIC "-//W3C//DTD SVG 1.1//EN"
 "http://www.w3.org/Graphics/SVG/1.1/DTD/svg11.dtd">
<!-- Generated by graphviz version 2.40.1 (20161225.0304)
 -->
<!-- Title: /home/jbigot/data/projects/pdi/pdi/include/pdi/data_descriptor.h Pages: 1 -->
<!--zoomable 329 -->
<svg id="main" version="1.1" xmlns="http://www.w3.org/2000/svg" xmlns:xlink="http://www.w3.org/1999/xlink" xml:space="preserve" onload="init(evt)">
<style type="text/css"><![CDATA[
.edge:hover path { stroke: red; }
.edge:hover polygon { stroke: red; fill: red; }
]]></style>
<script type="text/javascript"><![CDATA[
var edges = document.getElementsByTagName('g');
if (edges && edges.length) {
  for (var i=0;i<edges.length;i++) {
    if (edges[i].id.substr(0,4)=='edge') {
      edges[i].setAttribute('class','edge');
    }
  }
}
]]></script>
        <defs>
                <circle id="rim" cx="0" cy="0" r="7"/>
                <circle id="rim2" cx="0" cy="0" r="3.5"/>
                <g id="zoomPlus">
                        <use xlink:href="#rim" fill="#404040">
                                <set attributeName="fill" to="#808080" begin="zoomplus.mouseover" end="zoomplus.mouseout"/>
                        </use>
                        <path d="M-4,0h8M0,-4v8" fill="none" stroke="white" stroke-width="1.5" pointer-events="none"/>
                </g>
                <g id="zoomMin">
                        <use xlink:href="#rim" fill="#404040">
                                <set attributeName="fill" to="#808080" begin="zoomminus.mouseover" end="zoomminus.mouseout"/>
                        </use>
                        <path d="M-4,0h8" fill="none" stroke="white" stroke-width="1.5" pointer-events="none"/>
                </g>
                <g id="dirArrow">
                        <path fill="none" stroke="white" stroke-width="1.5" d="M0,-3.0v7 M-2.5,-0.5L0,-3.0L2.5,-0.5"/>
                </g>
               <g id="resetDef">
                       <use xlink:href="#rim2" fill="#404040">
                               <set attributeName="fill" to="#808080" begin="reset.mouseover" end="reset.mouseout"/>
                       </use>
               </g>
        </defs>

<script type="text/javascript">
var viewWidth = 1478;
var viewHeight = 329;
var sectionId = 'dynsection-1';
</script>
<script xlink:href="svgpan.js"/>
<svg id="graph" class="graph">
<g id="viewport">
<title>/home/jbigot/data/projects/pdi/pdi/include/pdi/data_descriptor.h</title>
<polygon fill="#ffffff" stroke="transparent" points="-4,4 -4,-325 1473.5,-325 1473.5,4 -4,4"/>
<!-- Node19 -->
<g id="node1" class="node">
<title>Node19</title>
<polygon fill="#bfbfbf" stroke="#000000" points="593.5,-279.5 593.5,-320.5 731.5,-320.5 731.5,-279.5 593.5,-279.5"/>
<text text-anchor="start" x="601.5" y="-308.5" font-family="Helvetica,sans-Serif" font-size="10.00" fill="#000000">/home/jbigot/data/projects</text>
<text text-anchor="start" x="601.5" y="-297.5" font-family="Helvetica,sans-Serif" font-size="10.00" fill="#000000">/pdi/pdi/include/pdi/data</text>
<text text-anchor="middle" x="662.5" y="-286.5" font-family="Helvetica,sans-Serif" font-size="10.00" fill="#000000">_descriptor.h</text>
</g>
<!-- Node20 -->
<g id="node2" class="node">
<title>Node20</title>
<g id="a_node2"><a xlink:href="context_8h.html" target="_top" xlink:title="/home/jbigot/data/projects\l/pdi/pdi/include/pdi/context.h">
<polygon fill="#ffffff" stroke="#000000" points="587.5,-212.5 587.5,-242.5 737.5,-242.5 737.5,-212.5 587.5,-212.5"/>
<text text-anchor="start" x="595.5" y="-230.5" font-family="Helvetica,sans-Serif" font-size="10.00" fill="#000000">/home/jbigot/data/projects</text>
<text text-anchor="middle" x="662.5" y="-219.5" font-family="Helvetica,sans-Serif" font-size="10.00" fill="#000000">/pdi/pdi/include/pdi/context.h</text>
</a>
</g>
</g>
<!-- Node19&#45;&gt;Node20 -->
<g id="edge1" class="edge">
<title>Node19&#45;&gt;Node20</title>
<path fill="none" stroke="#191970" d="M662.5,-269.3279C662.5,-260.0871 662.5,-250.3508 662.5,-242.5991"/>
<polygon fill="#191970" stroke="#191970" points="659.0001,-269.4183 662.5,-279.4183 666.0001,-269.4184 659.0001,-269.4183"/>
</g>
<!-- Node23 -->
<g id="node5" class="node">
<title>Node23</title>
<g id="a_node5"><a xlink:href="global__context_8h.html" target="_top" xlink:title="/home/jbigot/data/projects\l/pdi/pdi/src/global_context.h">
<polygon fill="#ffffff" stroke="#000000" points="117.5,-145.5 117.5,-175.5 265.5,-175.5 265.5,-145.5 117.5,-145.5"/>
<text text-anchor="start" x="125.5" y="-163.5" font-family="Helvetica,sans-Serif" font-size="10.00" fill="#000000">/home/jbigot/data/projects</text>
<text text-anchor="middle" x="191.5" y="-152.5" font-family="Helvetica,sans-Serif" font-size="10.00" fill="#000000">/pdi/pdi/src/global_context.h</text>
</a>
</g>
</g>
<!-- Node19&#45;&gt;Node23 -->
<g id="edge19" class="edge">
<title>Node19&#45;&gt;Node23</title>
<path fill="none" stroke="#191970" d="M583.3319,-293.8054C487.2678,-285.3279 331.6678,-268.2286 279.5,-243 246.696,-227.1358 217.8311,-194.7241 202.7053,-175.588"/>
<polygon fill="#191970" stroke="#191970" points="583.034,-297.2926 593.2999,-294.6731 583.6411,-290.319 583.034,-297.2926"/>
</g>
<!-- Node24 -->
<g id="node6" class="node">
<title>Node24</title>
<g id="a_node6"><a xlink:href="data__descriptor__impl_8h.html" target="_top" xlink:title="/home/jbigot/data/projects\l/pdi/pdi/src/data_descriptor_impl.h">
<polygon fill="#ffffff" stroke="#000000" points="0,-78.5 0,-108.5 179,-108.5 179,-78.5 0,-78.5"/>
<text text-anchor="start" x="8" y="-96.5" font-family="Helvetica,sans-Serif" font-size="10.00" fill="#000000">/home/jbigot/data/projects</text>
<text text-anchor="middle" x="89.5" y="-85.5" font-family="Helvetica,sans-Serif" font-size="10.00" fill="#000000">/pdi/pdi/src/data_descriptor_impl.h</text>
</a>
</g>
</g>
<!-- Node19&#45;&gt;Node24 -->
<g id="edge18" class="edge">
<title>Node19&#45;&gt;Node24</title>
<path fill="none" stroke="#191970" d="M583.3022,-292.9048C477.7169,-282.8568 296.7958,-263.4194 233.5,-243 173.5115,-223.6475 146.775,-226.0816 108.5,-176 93.417,-156.2643 89.9679,-126.6319 89.3657,-108.7704"/>
<polygon fill="#191970" stroke="#191970" points="582.9935,-296.3911 593.2785,-293.8476 583.6521,-289.4222 582.9935,-296.3911"/>
</g>
<!-- Node26 -->
<g id="node8" class="node">
<title>Node26</title>
<g id="a_node8"><a xlink:href="pdi_8cxx.html" target="_top" xlink:title="/home/jbigot/data/projects\l/pdi/pdi/src/pdi.cxx">
<polygon fill="#ffffff" stroke="#000000" points="235.5,-78.5 235.5,-108.5 373.5,-108.5 373.5,-78.5 235.5,-78.5"/>
<text text-anchor="start" x="243.5" y="-96.5" font-family="Helvetica,sans-Serif" font-size="10.00" fill="#000000">/home/jbigot/data/projects</text>
<text text-anchor="middle" x="304.5" y="-85.5" font-family="Helvetica,sans-Serif" font-size="10.00" fill="#000000">/pdi/pdi/src/pdi.cxx</text>
</a>
</g>
</g>
<!-- Node19&#45;&gt;Node26 -->
<g id="edge20" class="edge">
<title>Node19&#45;&gt;Node26</title>
<path fill="none" stroke="#191970" d="M583.314,-282.5348C490.5792,-260.3702 345.2922,-219.7277 311.5,-176 296.5577,-156.6644 298.3738,-126.6281 301.2803,-108.6296"/>
<polygon fill="#191970" stroke="#191970" points="582.6964,-285.9853 593.2337,-284.8833 584.3091,-279.1736 582.6964,-285.9853"/>
</g>
<!-- Node27 -->
<g id="node9" class="node">
<title>Node27</title>
<g id="a_node9"><a xlink:href="python_2pdi_8cxx.html" target="_top" xlink:title="/home/jbigot/data/projects\l/pdi/pdi/src/python/pdi.cxx">
<polygon fill="#ffffff" stroke="#000000" points="1004,-78.5 1004,-108.5 1143,-108.5 1143,-78.5 1004,-78.5"/>
<text text-anchor="start" x="1012" y="-96.5" font-family="Helvetica,sans-Serif" font-size="10.00" fill="#000000">/home/jbigot/data/projects</text>
<text text-anchor="middle" x="1073.5" y="-85.5" font-family="Helvetica,sans-Serif" font-size="10.00" fill="#000000">/pdi/pdi/src/python/pdi.cxx</text>
</a>
</g>
</g>
<!-- Node19&#45;&gt;Node27 -->
<g id="edge21" class="edge">
<title>Node19&#45;&gt;Node27</title>
<path fill="none" stroke="#191970" d="M741.9188,-295.5177C888.9193,-285.3824 1194.3292,-255.0999 1258.5,-176 1294.6137,-131.4845 1209.7379,-110.2103 1143.3042,-100.6282"/>
<polygon fill="#191970" stroke="#191970" points="741.3557,-292.0476 731.6141,-296.213 741.827,-299.0317 741.3557,-292.0476"/>
</g>
<!-- Node31 -->
<g id="node13" class="node">
<title>Node31</title>
<g id="a_node13"><a xlink:href="tools_8cxx.html" target="_top" xlink:title="/home/jbigot/data/projects\l/pdi/pdi/src/python/tools.cxx">
<polygon fill="#ffffff" stroke="#000000" points="1102,-145.5 1102,-175.5 1249,-175.5 1249,-145.5 1102,-145.5"/>
<text text-anchor="start" x="1110" y="-163.5" font-family="Helvetica,sans-Serif" font-size="10.00" fill="#000000">/home/jbigot/data/projects</text>
<text text-anchor="middle" x="1175.5" y="-152.5" font-family="Helvetica,sans-Serif" font-size="10.00" fill="#000000">/pdi/pdi/src/python/tools.cxx</text>
</a>
</g>
</g>
<!-- Node19&#45;&gt;Node31 -->
<g id="edge22" class="edge">
<title>Node19&#45;&gt;Node31</title>
<path fill="none" stroke="#191970" d="M741.5926,-278.4924C846.5296,-249.9569 1029.1183,-200.3055 1120.3356,-175.5009"/>
<polygon fill="#191970" stroke="#191970" points="740.4166,-275.185 731.6855,-281.1864 742.2535,-281.9397 740.4166,-275.185"/>
</g>
<!-- Node32 -->
<g id="node14" class="node">
<title>Node32</title>
<g id="a_node14"><a xlink:href="data__descriptor_8cxx.html" target="_top" xlink:title="/home/jbigot/data/projects\l/pdi/pdi/src/data_descriptor.cxx">
<polygon fill="#ffffff" stroke="#000000" points="1305.5,-212.5 1305.5,-242.5 1469.5,-242.5 1469.5,-212.5 1305.5,-212.5"/>
<text text-anchor="start" x="1313.5" y="-230.5" font-family="Helvetica,sans-Serif" font-size="10.00" fill="#000000">/home/jbigot/data/projects</text>
<text text-anchor="middle" x="1387.5" y="-219.5" font-family="Helvetica,sans-Serif" font-size="10.00" fill="#000000">/pdi/pdi/src/data_descriptor.cxx</text>
</a>
</g>
</g>
<!-- Node19&#45;&gt;Node32 -->
<g id="edge17" class="edge">
<title>Node19&#45;&gt;Node32</title>
<path fill="none" stroke="#191970" d="M741.6943,-294.6031C861.1283,-286.062 1094.3522,-267.8177 1291.5,-243 1296.0226,-242.4307 1300.6591,-241.809 1305.3351,-241.1524"/>
<polygon fill="#191970" stroke="#191970" points="741.2714,-291.1243 731.545,-295.3251 741.7682,-298.1066 741.2714,-291.1243"/>
</g>
<!-- Node21 -->
<g id="node3" class="node">
<title>Node21</title>
<g id="a_node3"><a xlink:href="context_8cxx.html" target="_top" xlink:title="/home/jbigot/data/projects\l/pdi/pdi/src/context.cxx">
<polygon fill="#ffffff" stroke="#000000" points="907.5,-145.5 907.5,-175.5 1045.5,-175.5 1045.5,-145.5 907.5,-145.5"/>
<text text-anchor="start" x="915.5" y="-163.5" font-family="Helvetica,sans-Serif" font-size="10.00" fill="#000000">/home/jbigot/data/projects</text>
<text text-anchor="middle" x="976.5" y="-152.5" font-family="Helvetica,sans-Serif" font-size="10.00" fill="#000000">/pdi/pdi/src/context.cxx</text>
</a>
</g>
</g>
<!-- Node20&#45;&gt;Node21 -->
<g id="edge2" class="edge">
<title>Node20&#45;&gt;Node21</title>
<path fill="none" stroke="#191970" d="M742.9391,-210.3362C793.7875,-199.4864 858.8234,-185.6093 907.3485,-175.2553"/>
<polygon fill="#191970" stroke="#191970" points="742.0172,-206.9541 732.9677,-212.4639 743.478,-213.8 742.0172,-206.9541"/>
</g>
<!-- Node22 -->
<g id="node4" class="node">
<title>Node22</title>
<g id="a_node4"><a xlink:href="data__descriptor__impl_8cxx.html" target="_top" xlink:title="/home/jbigot/data/projects\l/pdi/pdi/src/data_descriptor\l_impl.cxx">
<polygon fill="#ffffff" stroke="#000000" points="367.5,-.5 367.5,-41.5 513.5,-41.5 513.5,-.5 367.5,-.5"/>
<text text-anchor="start" x="375.5" y="-29.5" font-family="Helvetica,sans-Serif" font-size="10.00" fill="#000000">/home/jbigot/data/projects</text>
<text text-anchor="start" x="375.5" y="-18.5" font-family="Helvetica,sans-Serif" font-size="10.00" fill="#000000">/pdi/pdi/src/data_descriptor</text>
<text text-anchor="middle" x="440.5" y="-7.5" font-family="Helvetica,sans-Serif" font-size="10.00" fill="#000000">_impl.cxx</text>
</a>
</g>
</g>
<!-- Node20&#45;&gt;Node22 -->
<g id="edge3" class="edge">
<title>Node20&#45;&gt;Node22</title>
<path fill="none" stroke="#191970" d="M626.7386,-207.2105C612.403,-198.393 596.0945,-187.4634 582.5,-176 531.7221,-133.1822 481.3727,-72.904 456.5073,-41.6334"/>
<polygon fill="#191970" stroke="#191970" points="624.9967,-210.2471 635.3677,-212.4135 628.6113,-204.2525 624.9967,-210.2471"/>
</g>
<!-- Node20&#45;&gt;Node23 -->
<g id="edge4" class="edge">
<title>Node20&#45;&gt;Node23</title>
<path fill="none" stroke="#191970" d="M577.2863,-215.3783C488.3177,-202.7225 350.1976,-183.0748 265.6078,-171.0419"/>
<polygon fill="#191970" stroke="#191970" points="576.9546,-218.8663 587.3478,-216.8096 577.9405,-211.936 576.9546,-218.8663"/>
</g>
<!-- Node20&#45;&gt;Node26 -->
<g id="edge13" class="edge">
<title>Node20&#45;&gt;Node26</title>
<path fill="none" stroke="#191970" d="M615.4484,-208.5296C594.7501,-199.5605 570.437,-188.1588 549.5,-176 529.1266,-164.1685 527.8444,-154.9739 506.5,-145 464.3672,-125.312 413.6365,-112.4132 373.555,-104.4483"/>
<polygon fill="#191970" stroke="#191970" points="614.1079,-211.7629 624.6789,-212.4733 616.8581,-205.3258 614.1079,-211.7629"/>
</g>
<!-- Node20&#45;&gt;Node27 -->
<g id="edge15" class="edge">
<title>Node20&#45;&gt;Node27</title>
<path fill="none" stroke="#191970" d="M748.0844,-221.4104C856.5651,-212.9105 1032.2302,-196.2339 1054.5,-176 1073.3195,-158.901 1075.3802,-127.2363 1074.7381,-108.501"/>
<polygon fill="#191970" stroke="#191970" points="747.503,-217.9449 737.8034,-222.2073 748.044,-224.924 747.503,-217.9449"/>
</g>
<!-- Node28 -->
<g id="node10" class="node">
<title>Node28</title>
<g id="a_node10"><a xlink:href="datatype__template_8cxx.html" target="_top" xlink:title="/home/jbigot/data/projects\l/pdi/pdi/src/datatype_template.cxx">
<polygon fill="#ffffff" stroke="#000000" points="321,-145.5 321,-175.5 498,-175.5 498,-145.5 321,-145.5"/>
<text text-anchor="start" x="329" y="-163.5" font-family="Helvetica,sans-Serif" font-size="10.00" fill="#000000">/home/jbigot/data/projects</text>
<text text-anchor="middle" x="409.5" y="-152.5" font-family="Helvetica,sans-Serif" font-size="10.00" fill="#000000">/pdi/pdi/src/datatype_template.cxx</text>
</a>
</g>
</g>
<!-- Node20&#45;&gt;Node28 -->
<g id="edge11" class="edge">
<title>Node20&#45;&gt;Node28</title>
<path fill="none" stroke="#191970" d="M595.9927,-209.8874C555.7389,-199.2273 504.9378,-185.774 466.5258,-175.6017"/>
<polygon fill="#191970" stroke="#191970" points="595.1591,-213.2872 605.7219,-212.4639 596.9511,-206.5205 595.1591,-213.2872"/>
</g>
<!-- Node29 -->
<g id="node11" class="node">
<title>Node29</title>
<g id="a_node11"><a xlink:href="expression_8cxx.html" target="_top" xlink:title="/home/jbigot/data/projects\l/pdi/pdi/src/expression.cxx">
<polygon fill="#ffffff" stroke="#000000" points="592,-145.5 592,-175.5 733,-175.5 733,-145.5 592,-145.5"/>
<text text-anchor="start" x="600" y="-163.5" font-family="Helvetica,sans-Serif" font-size="10.00" fill="#000000">/home/jbigot/data/projects</text>
<text text-anchor="middle" x="662.5" y="-152.5" font-family="Helvetica,sans-Serif" font-size="10.00" fill="#000000">/pdi/pdi/src/expression.cxx</text>
</a>
</g>
</g>
<!-- Node20&#45;&gt;Node29 -->
<g id="edge12" class="edge">
<title>Node20&#45;&gt;Node29</title>
<path fill="none" stroke="#191970" d="M662.5,-202.0249C662.5,-193.128 662.5,-183.4287 662.5,-175.6432"/>
<polygon fill="#191970" stroke="#191970" points="659.0001,-202.2966 662.5,-212.2967 666.0001,-202.2967 659.0001,-202.2966"/>
</g>
<!-- Node30 -->
<g id="node12" class="node">
<title>Node30</title>
<g id="a_node12"><a xlink:href="plugin_8cxx.html" target="_top" xlink:title="/home/jbigot/data/projects\l/pdi/pdi/src/plugin.cxx">
<polygon fill="#ffffff" stroke="#000000" points="751.5,-145.5 751.5,-175.5 889.5,-175.5 889.5,-145.5 751.5,-145.5"/>
<text text-anchor="start" x="759.5" y="-163.5" font-family="Helvetica,sans-Serif" font-size="10.00" fill="#000000">/home/jbigot/data/projects</text>
<text text-anchor="middle" x="820.5" y="-152.5" font-family="Helvetica,sans-Serif" font-size="10.00" fill="#000000">/pdi/pdi/src/plugin.cxx</text>
</a>
</g>
</g>
<!-- Node20&#45;&gt;Node30 -->
<g id="edge14" class="edge">
<title>Node20&#45;&gt;Node30</title>
<path fill="none" stroke="#191970" d="M707.4202,-208.4516C731.9748,-198.0392 761.9636,-185.3224 784.8871,-175.6017"/>
<polygon fill="#191970" stroke="#191970" points="705.7983,-205.3376 697.9583,-212.4639 708.5312,-211.7821 705.7983,-205.3376"/>
</g>
<!-- Node20&#45;&gt;Node31 -->
<g id="edge16" class="edge">
<title>Node20&#45;&gt;Node31</title>
<path fill="none" stroke="#191970" d="M747.48,-218.5623C833.4027,-209.2061 969.9317,-193.4644 1087.5,-176 1092.1034,-175.3162 1096.8363,-174.5798 1101.6053,-173.8125"/>
<polygon fill="#191970" stroke="#191970" points="747.0803,-215.085 737.5162,-219.6433 747.8354,-222.0442 747.0803,-215.085"/>
</g>
<!-- Node23&#45;&gt;Node24 -->
<g id="edge5" class="edge">
<title>Node23&#45;&gt;Node24</title>
<path fill="none" stroke="#191970" d="M159.9791,-139.7951C144.6955,-129.7558 126.6652,-117.9124 112.6673,-108.7177"/>
<polygon fill="#191970" stroke="#191970" points="158.3295,-142.8991 168.6092,-145.4639 162.1726,-137.0484 158.3295,-142.8991"/>
</g>
<!-- Node25 -->
<g id="node7" class="node">
<title>Node25</title>
<g id="a_node7"><a xlink:href="global__context_8cxx.html" target="_top" xlink:title="/home/jbigot/data/projects\l/pdi/pdi/src/global_context.cxx">
<polygon fill="#ffffff" stroke="#000000" points="69.5,-6 69.5,-36 227.5,-36 227.5,-6 69.5,-6"/>
<text text-anchor="start" x="77.5" y="-24" font-family="Helvetica,sans-Serif" font-size="10.00" fill="#000000">/home/jbigot/data/projects</text>
<text text-anchor="middle" x="148.5" y="-13" font-family="Helvetica,sans-Serif" font-size="10.00" fill="#000000">/pdi/pdi/src/global_context.cxx</text>
</a>
</g>
</g>
<!-- Node23&#45;&gt;Node25 -->
<g id="edge8" class="edge">
<title>Node23&#45;&gt;Node25</title>
<path fill="none" stroke="#191970" d="M193.7804,-135.3608C194.4557,-118.6701 193.7211,-96.5092 187.5,-78 182.2282,-62.3154 171.3071,-46.9772 162.3593,-36.1697"/>
<polygon fill="#191970" stroke="#191970" points="190.2806,-135.2544 193.1765,-145.4458 197.2681,-135.6729 190.2806,-135.2544"/>
</g>
<!-- Node23&#45;&gt;Node26 -->
<g id="edge9" class="edge">
<title>Node23&#45;&gt;Node26</title>
<path fill="none" stroke="#191970" d="M225.474,-140.3561C242.6038,-130.1995 263.037,-118.0843 278.8343,-108.7177"/>
<polygon fill="#191970" stroke="#191970" points="223.676,-137.3531 216.8594,-145.4639 227.2462,-143.3743 223.676,-137.3531"/>
</g>
<!-- Node23&#45;&gt;Node27 -->
<g id="edge10" class="edge">
<title>Node23&#45;&gt;Node27</title>
<path fill="none" stroke="#191970" d="M275.694,-148.9657C287.6992,-147.5132 299.9039,-146.1397 311.5,-145 566.0133,-119.9855 869.5575,-103.4304 1003.7794,-96.7869"/>
<polygon fill="#191970" stroke="#191970" points="275.171,-145.5036 265.6744,-150.201 276.0275,-152.451 275.171,-145.5036"/>
</g>
<!-- Node24&#45;&gt;Node22 -->
<g id="edge6" class="edge">
<title>Node24&#45;&gt;Node22</title>
<path fill="none" stroke="#191970" d="M172.2919,-76.3991C231.47,-64.1757 310.3746,-47.8777 367.2628,-36.1273"/>
<polygon fill="#191970" stroke="#191970" points="171.3127,-73.0274 162.2274,-78.478 172.7287,-79.8827 171.3127,-73.0274"/>
</g>
<!-- Node24&#45;&gt;Node25 -->
<g id="edge7" class="edge">
<title>Node24&#45;&gt;Node25</title>
<path fill="none" stroke="#191970" d="M108.0753,-70.6745C117.2838,-59.3589 128.1462,-46.0111 136.2908,-36.0028"/>
<polygon fill="#191970" stroke="#191970" points="105.3222,-68.5125 101.7248,-78.478 110.7515,-72.9309 105.3222,-68.5125"/>
</g>
</g>
</svg>
        <g id="navigator" transform="translate(0 0)" fill="#404254">
                <rect fill="#f2f5e9" fill-opacity="0.5" stroke="#606060" stroke-width=".5" x="0" y="0" width="60" height="60"/>
                <use id="zoomplus" xlink:href="#zoomPlus" x="17" y="9" onmousedown="handleZoom(evt,'in')"/>
                <use id="zoomminus" xlink:href="#zoomMin" x="42" y="9" onmousedown="handleZoom(evt,'out')"/>
                <use id="reset" xlink:href="#resetDef" x="30" y="36" onmousedown="handleReset()"/>
                <g id="arrowUp" xlink:href="#dirArrow" transform="translate(30 24)" onmousedown="handlePan(0,-1)">
                  <use xlink:href="#rim" fill="#404040">
                        <set attributeName="fill" to="#808080" begin="arrowUp.mouseover" end="arrowUp.mouseout"/>
                  </use>
                  <path fill="none" stroke="white" stroke-width="1.5" d="M0,-3.0v7 M-2.5,-0.5L0,-3.0L2.5,-0.5"/>
                </g>
                <g id="arrowRight" xlink:href="#dirArrow" transform="rotate(90) translate(36 -43)" onmousedown="handlePan(1,0)">
                  <use xlink:href="#rim" fill="#404040">
                        <set attributeName="fill" to="#808080" begin="arrowRight.mouseover" end="arrowRight.mouseout"/>
                  </use>
                  <path fill="none" stroke="white" stroke-width="1.5" d="M0,-3.0v7 M-2.5,-0.5L0,-3.0L2.5,-0.5"/>
                </g>
                <g id="arrowDown" xlink:href="#dirArrow" transform="rotate(180) translate(-30 -48)" onmousedown="handlePan(0,1)">
                  <use xlink:href="#rim" fill="#404040">
                        <set attributeName="fill" to="#808080" begin="arrowDown.mouseover" end="arrowDown.mouseout"/>
                  </use>
                  <path fill="none" stroke="white" stroke-width="1.5" d="M0,-3.0v7 M-2.5,-0.5L0,-3.0L2.5,-0.5"/>
                </g>
                <g id="arrowLeft" xlink:href="#dirArrow" transform="rotate(270) translate(-36 17)" onmousedown="handlePan(-1,0)">
                  <use xlink:href="#rim" fill="#404040">
                        <set attributeName="fill" to="#808080" begin="arrowLeft.mouseover" end="arrowLeft.mouseout"/>
                  </use>
                  <path fill="none" stroke="white" stroke-width="1.5" d="M0,-3.0v7 M-2.5,-0.5L0,-3.0L2.5,-0.5"/>
                </g>
        </g>
        <svg viewBox="0 0 15 15" width="100%" height="30px" preserveAspectRatio="xMaxYMin meet">
         <g id="arrow_out" transform="scale(0.3 0.3)">
          <a xlink:href="data__descriptor_8h__dep__incl_org.svg" target="_base">
           <rect id="button" ry="5" rx="5" y="6" x="6" height="38" width="38"
                fill="#f2f5e9" fill-opacity="0.5" stroke="#606060" stroke-width="1.0"/>
           <path id="arrow"
             d="M 11.500037,31.436501 C 11.940474,20.09759 22.043105,11.32322 32.158766,21.979434 L 37.068811,17.246167 C 37.068811,17.246167 37.088388,32 37.088388,32 L 22.160133,31.978069 C 22.160133,31.978069 26.997745,27.140456 26.997745,27.140456 C 18.528582,18.264221 13.291696,25.230495 11.500037,31.436501 z"
             style="fill:#404040;"/>
          </a>
         </g>
        </svg>
</svg>
