<?xml version="1.0" encoding="UTF-8" standalone="no"?>
<!DOCTYPE svg PUBLIC "-//W3C//DTD SVG 1.1//EN"
 "http://www.w3.org/Graphics/SVG/1.1/DTD/svg11.dtd">
<!-- Generated by graphviz version 2.40.1 (20161225.0304)
 -->
<!-- Title: /home/jbigot/data/projects/pdi/pdi/include/pdi/datatype_template.h Pages: 1 -->
<svg width="298pt" height="330pt"
 viewBox="0.00 0.00 297.50 330.00" xmlns="http://www.w3.org/2000/svg" xmlns:xlink="http://www.w3.org/1999/xlink">
<g id="graph0" class="graph" transform="scale(1 1) rotate(0) translate(4 326)">
<title>/home/jbigot/data/projects/pdi/pdi/include/pdi/datatype_template.h</title>
<polygon fill="#ffffff" stroke="transparent" points="-4,4 -4,-326 293.5,-326 293.5,4 -4,4"/>
<!-- Node0 -->
<g id="node1" class="node">
<title>Node0</title>
<polygon fill="#bfbfbf" stroke="#000000" points="51.5,-280.5 51.5,-321.5 200.5,-321.5 200.5,-280.5 51.5,-280.5"/>
<text text-anchor="start" x="59.5" y="-309.5" font-family="Helvetica,sans-Serif" font-size="10.00" fill="#000000">/home/jbigot/data/projects</text>
<text text-anchor="start" x="59.5" y="-298.5" font-family="Helvetica,sans-Serif" font-size="10.00" fill="#000000">/pdi/pdi/include/pdi/datatype</text>
<text text-anchor="middle" x="126" y="-287.5" font-family="Helvetica,sans-Serif" font-size="10.00" fill="#000000">_template.h</text>
</g>
<!-- Node1 -->
<g id="node2" class="node">
<title>Node1</title>
<polygon fill="#ffffff" stroke="#bfbfbf" points="12.5,-.5 12.5,-19.5 79.5,-19.5 79.5,-.5 12.5,-.5"/>
<text text-anchor="middle" x="46" y="-7.5" font-family="Helvetica,sans-Serif" font-size="10.00" fill="#000000">paraconf.h</text>
</g>
<!-- Node0&#45;&gt;Node1 -->
<g id="edge1" class="edge">
<title>Node0&#45;&gt;Node1</title>
<path fill="none" stroke="#191970" d="M81.9313,-280.4016C45.5966,-260.0259 0,-225.0776 0,-178 0,-178 0,-178 0,-122 0,-86.66 19.8391,-49.4332 33.4597,-28.0395"/>
<polygon fill="#191970" stroke="#191970" points="36.4179,-29.9114 39.0136,-19.6394 30.5788,-26.0507 36.4179,-29.9114"/>
</g>
<!-- Node2 -->
<g id="node3" class="node">
<title>Node2</title>
<g id="a_node3"><a xlink:href="pdi__fwd_8h.html" target="_top" xlink:title="pdi/pdi_fwd.h">
<polygon fill="#ffffff" stroke="#000000" points="142.5,-112.5 142.5,-131.5 221.5,-131.5 221.5,-112.5 142.5,-112.5"/>
<text text-anchor="middle" x="182" y="-119.5" font-family="Helvetica,sans-Serif" font-size="10.00" fill="#000000">pdi/pdi_fwd.h</text>
</a>
</g>
</g>
<!-- Node0&#45;&gt;Node2 -->
<g id="edge2" class="edge">
<title>Node0&#45;&gt;Node2</title>
<path fill="none" stroke="#191970" d="M145.9685,-280.33C154.8286,-270.1199 164.6623,-257.1808 171,-244 186.9034,-210.9252 186.3643,-167.0034 184.3239,-141.8883"/>
<polygon fill="#191970" stroke="#191970" points="187.7919,-141.3903 183.3344,-131.7789 180.8252,-142.0723 187.7919,-141.3903"/>
</g>
<!-- Node7 -->
<g id="node8" class="node">
<title>Node7</title>
<g id="a_node8"><a xlink:href="logger_8h.html" target="_top" xlink:title="pdi/logger.h">
<polygon fill="#ffffff" stroke="#000000" points="90,-224.5 90,-243.5 162,-243.5 162,-224.5 90,-224.5"/>
<text text-anchor="middle" x="126" y="-231.5" font-family="Helvetica,sans-Serif" font-size="10.00" fill="#000000">pdi/logger.h</text>
</a>
</g>
</g>
<!-- Node0&#45;&gt;Node7 -->
<g id="edge8" class="edge">
<title>Node0&#45;&gt;Node7</title>
<path fill="none" stroke="#191970" d="M126,-280.168C126,-271.8226 126,-262.2471 126,-253.9879"/>
<polygon fill="#191970" stroke="#191970" points="129.5001,-253.7804 126,-243.7805 122.5001,-253.7805 129.5001,-253.7804"/>
</g>
<!-- Node3 -->
<g id="node4" class="node">
<title>Node3</title>
<polygon fill="#ffffff" stroke="#bfbfbf" points="90,-56.5 90,-75.5 144,-75.5 144,-56.5 90,-56.5"/>
<text text-anchor="middle" x="117" y="-63.5" font-family="Helvetica,sans-Serif" font-size="10.00" fill="#000000">memory</text>
</g>
<!-- Node2&#45;&gt;Node3 -->
<g id="edge3" class="edge">
<title>Node2&#45;&gt;Node3</title>
<path fill="none" stroke="#191970" d="M170.6779,-112.2455C161.0777,-103.9746 147.1108,-91.9416 135.8305,-82.2232"/>
<polygon fill="#191970" stroke="#191970" points="138.053,-79.5182 128.1924,-75.6427 133.484,-84.8214 138.053,-79.5182"/>
</g>
<!-- Node4 -->
<g id="node5" class="node">
<title>Node4</title>
<g id="a_node5"><a xlink:href="pdi_8h.html" target="_top" xlink:title="pdi.h">
<polygon fill="#ffffff" stroke="#000000" points="162.5,-56.5 162.5,-75.5 201.5,-75.5 201.5,-56.5 162.5,-56.5"/>
<text text-anchor="middle" x="182" y="-63.5" font-family="Helvetica,sans-Serif" font-size="10.00" fill="#000000">pdi.h</text>
</a>
</g>
</g>
<!-- Node2&#45;&gt;Node4 -->
<g id="edge4" class="edge">
<title>Node2&#45;&gt;Node4</title>
<path fill="none" stroke="#191970" d="M182,-112.2455C182,-104.9382 182,-94.6944 182,-85.7046"/>
<polygon fill="#191970" stroke="#191970" points="185.5001,-85.6426 182,-75.6427 178.5001,-85.6427 185.5001,-85.6426"/>
</g>
<!-- Node4&#45;&gt;Node1 -->
<g id="edge5" class="edge">
<title>Node4&#45;&gt;Node1</title>
<path fill="none" stroke="#191970" d="M162.2244,-57.8571C140.4059,-48.873 104.9404,-34.2696 78.9165,-23.5539"/>
<polygon fill="#191970" stroke="#191970" points="80.0324,-20.2283 69.453,-19.6571 77.3671,-26.7011 80.0324,-20.2283"/>
</g>
<!-- Node5 -->
<g id="node6" class="node">
<title>Node5</title>
<polygon fill="#ffffff" stroke="#bfbfbf" points="122,-.5 122,-19.5 194,-19.5 194,-.5 122,-.5"/>
<text text-anchor="middle" x="158" y="-7.5" font-family="Helvetica,sans-Serif" font-size="10.00" fill="#000000">pdi/export.h</text>
</g>
<!-- Node4&#45;&gt;Node5 -->
<g id="edge6" class="edge">
<title>Node4&#45;&gt;Node5</title>
<path fill="none" stroke="#191970" d="M177.8195,-56.2455C174.619,-48.7776 170.104,-38.2427 166.1916,-29.1137"/>
<polygon fill="#191970" stroke="#191970" points="169.2888,-27.4554 162.1326,-19.6427 162.8548,-30.2129 169.2888,-27.4554"/>
</g>
<!-- Node6 -->
<g id="node7" class="node">
<title>Node6</title>
<polygon fill="#ffffff" stroke="#bfbfbf" points="212.5,-.5 212.5,-19.5 289.5,-19.5 289.5,-.5 212.5,-.5"/>
<text text-anchor="middle" x="251" y="-7.5" font-family="Helvetica,sans-Serif" font-size="10.00" fill="#000000">pdi/version.h</text>
</g>
<!-- Node4&#45;&gt;Node6 -->
<g id="edge7" class="edge">
<title>Node4&#45;&gt;Node6</title>
<path fill="none" stroke="#191970" d="M194.0189,-56.2455C204.2098,-47.9746 219.0362,-35.9416 231.0107,-26.2232"/>
<polygon fill="#191970" stroke="#191970" points="233.5598,-28.662 239.1188,-19.6427 229.1486,-23.2268 233.5598,-28.662"/>
</g>
<!-- Node7&#45;&gt;Node2 -->
<g id="edge9" class="edge">
<title>Node7&#45;&gt;Node2</title>
<path fill="none" stroke="#191970" d="M137.4868,-224.2084C146.8376,-215.606 159.6507,-202.2649 167,-188 174.3997,-173.6371 178.1778,-155.663 180.09,-142.1004"/>
<polygon fill="#191970" stroke="#191970" points="183.595,-142.2639 181.2959,-131.9215 176.6436,-141.4403 183.595,-142.2639"/>
</g>
<!-- Node8 -->
<g id="node9" class="node">
<title>Node8</title>
<g id="a_node9"><a xlink:href="paraconf__wrapper_8h.html" target="_top" xlink:title="pdi/paraconf_wrapper.h">
<polygon fill="#ffffff" stroke="#000000" points="28.5,-168.5 28.5,-187.5 157.5,-187.5 157.5,-168.5 28.5,-168.5"/>
<text text-anchor="middle" x="93" y="-175.5" font-family="Helvetica,sans-Serif" font-size="10.00" fill="#000000">pdi/paraconf_wrapper.h</text>
</a>
</g>
</g>
<!-- Node7&#45;&gt;Node8 -->
<g id="edge10" class="edge">
<title>Node7&#45;&gt;Node8</title>
<path fill="none" stroke="#191970" d="M120.2518,-224.2455C115.7565,-216.617 109.3752,-205.7881 103.9175,-196.5267"/>
<polygon fill="#191970" stroke="#191970" points="106.7747,-194.4811 98.6823,-187.6427 100.7439,-198.035 106.7747,-194.4811"/>
</g>
<!-- Node8&#45;&gt;Node1 -->
<g id="edge12" class="edge">
<title>Node8&#45;&gt;Node1</title>
<path fill="none" stroke="#191970" d="M85.5624,-168.3513C79.0737,-159.4215 69.9457,-145.5218 65,-132 52.414,-97.5892 48.1647,-54.7407 46.7304,-30.063"/>
<polygon fill="#191970" stroke="#191970" points="50.2139,-29.632 46.2388,-19.8112 43.2219,-29.9674 50.2139,-29.632"/>
</g>
<!-- Node8&#45;&gt;Node2 -->
<g id="edge13" class="edge">
<title>Node8&#45;&gt;Node2</title>
<path fill="none" stroke="#191970" d="M108.5026,-168.2455C122.158,-159.6534 142.2657,-147.0014 157.9989,-137.1018"/>
<polygon fill="#191970" stroke="#191970" points="160.0751,-139.9307 166.675,-131.6427 156.3471,-134.006 160.0751,-139.9307"/>
</g>
<!-- Node9 -->
<g id="node10" class="node">
<title>Node9</title>
<polygon fill="#ffffff" stroke="#bfbfbf" points="74.5,-112.5 74.5,-131.5 117.5,-131.5 117.5,-112.5 74.5,-112.5"/>
<text text-anchor="middle" x="96" y="-119.5" font-family="Helvetica,sans-Serif" font-size="10.00" fill="#000000">string</text>
</g>
<!-- Node8&#45;&gt;Node9 -->
<g id="edge11" class="edge">
<title>Node8&#45;&gt;Node9</title>
<path fill="none" stroke="#191970" d="M93.5226,-168.2455C93.914,-160.9382 94.4628,-150.6944 94.9444,-141.7046"/>
<polygon fill="#191970" stroke="#191970" points="98.4434,-141.8156 95.4834,-131.6427 91.4534,-141.4411 98.4434,-141.8156"/>
</g>
</g>
</svg>
