<?xml version="1.0" encoding="UTF-8" standalone="no"?>
<!DOCTYPE svg PUBLIC "-//W3C//DTD SVG 1.1//EN"
 "http://www.w3.org/Graphics/SVG/1.1/DTD/svg11.dtd">
<!-- Generated by graphviz version 2.40.1 (20161225.0304)
 -->
<!-- Title: /home/jbigot/data/projects/pdi/pdi/src/datatype_template.cxx Pages: 1 -->
<svg width="1736pt" height="599pt"
 viewBox="0.00 0.00 1736.00 599.00" xmlns="http://www.w3.org/2000/svg" xmlns:xlink="http://www.w3.org/1999/xlink">
<g id="graph0" class="graph" transform="scale(1 1) rotate(0) translate(4 595)">
<title>/home/jbigot/data/projects/pdi/pdi/src/datatype_template.cxx</title>
<polygon fill="#ffffff" stroke="transparent" points="-4,4 -4,-595 1732,-595 1732,4 -4,4"/>
<!-- Node0 -->
<g id="node1" class="node">
<title>Node0</title>
<polygon fill="#bfbfbf" stroke="#000000" points="665,-560.5 665,-590.5 842,-590.5 842,-560.5 665,-560.5"/>
<text text-anchor="start" x="673" y="-578.5" font-family="Helvetica,sans-Serif" font-size="10.00" fill="#000000">/home/jbigot/data/projects</text>
<text text-anchor="middle" x="753.5" y="-567.5" font-family="Helvetica,sans-Serif" font-size="10.00" fill="#000000">/pdi/pdi/src/datatype_template.cxx</text>
</g>
<!-- Node1 -->
<g id="node2" class="node">
<title>Node1</title>
<polygon fill="#ffffff" stroke="#bfbfbf" points="0,-504.5 0,-523.5 53,-523.5 53,-504.5 0,-504.5"/>
<text text-anchor="middle" x="26.5" y="-511.5" font-family="Helvetica,sans-Serif" font-size="10.00" fill="#000000">config.h</text>
</g>
<!-- Node0&#45;&gt;Node1 -->
<g id="edge1" class="edge">
<title>Node0&#45;&gt;Node1</title>
<path fill="none" stroke="#191970" d="M664.9942,-571.0759C509.6889,-562.9607 193.0904,-544.7578 63.2352,-523.732"/>
<polygon fill="#191970" stroke="#191970" points="63.5468,-520.235 53.1031,-522.0177 62.379,-527.1369 63.5468,-520.235"/>
</g>
<!-- Node2 -->
<g id="node3" class="node">
<title>Node2</title>
<polygon fill="#ffffff" stroke="#bfbfbf" points="71.5,-504.5 71.5,-523.5 131.5,-523.5 131.5,-504.5 71.5,-504.5"/>
<text text-anchor="middle" x="101.5" y="-511.5" font-family="Helvetica,sans-Serif" font-size="10.00" fill="#000000">algorithm</text>
</g>
<!-- Node0&#45;&gt;Node2 -->
<g id="edge2" class="edge">
<title>Node0&#45;&gt;Node2</title>
<path fill="none" stroke="#191970" d="M664.9405,-571.8599C546.1633,-566.0985 328.9518,-552.4751 145.5,-524 144.2373,-523.804 142.9568,-523.5924 141.666,-523.3679"/>
<polygon fill="#191970" stroke="#191970" points="142.1725,-519.9011 131.6903,-521.442 140.8455,-526.7742 142.1725,-519.9011"/>
</g>
<!-- Node3 -->
<g id="node4" class="node">
<title>Node3</title>
<polygon fill="#ffffff" stroke="#bfbfbf" points="796,-336.5 796,-355.5 847,-355.5 847,-336.5 796,-336.5"/>
<text text-anchor="middle" x="821.5" y="-343.5" font-family="Helvetica,sans-Serif" font-size="10.00" fill="#000000">cassert</text>
</g>
<!-- Node0&#45;&gt;Node3 -->
<g id="edge3" class="edge">
<title>Node0&#45;&gt;Node3</title>
<path fill="none" stroke="#191970" d="M735.5199,-560.2801C709.6753,-536.4615 667.2466,-488.8702 687.5,-448 708.5907,-405.4402 756.8798,-375.8192 789.3519,-359.8553"/>
<polygon fill="#191970" stroke="#191970" points="790.9327,-362.9792 798.4643,-355.5277 787.9297,-356.656 790.9327,-362.9792"/>
</g>
<!-- Node4 -->
<g id="node5" class="node">
<title>Node4</title>
<polygon fill="#ffffff" stroke="#bfbfbf" points="1572,-504.5 1572,-523.5 1619,-523.5 1619,-504.5 1572,-504.5"/>
<text text-anchor="middle" x="1595.5" y="-511.5" font-family="Helvetica,sans-Serif" font-size="10.00" fill="#000000">cstdint</text>
</g>
<!-- Node0&#45;&gt;Node4 -->
<g id="edge4" class="edge">
<title>Node0&#45;&gt;Node4</title>
<path fill="none" stroke="#191970" d="M842.3079,-571.9809C1021.7654,-564.5132 1422.0203,-545.9534 1557.5,-524 1558.9731,-523.7613 1560.4718,-523.4904 1561.9812,-523.1945"/>
<polygon fill="#191970" stroke="#191970" points="1562.9465,-526.5649 1571.9349,-520.9562 1561.4107,-519.7355 1562.9465,-526.5649"/>
</g>
<!-- Node5 -->
<g id="node6" class="node">
<title>Node5</title>
<polygon fill="#ffffff" stroke="#bfbfbf" points="1092.5,-56.5 1092.5,-75.5 1146.5,-75.5 1146.5,-56.5 1092.5,-56.5"/>
<text text-anchor="middle" x="1119.5" y="-63.5" font-family="Helvetica,sans-Serif" font-size="10.00" fill="#000000">memory</text>
</g>
<!-- Node0&#45;&gt;Node5 -->
<g id="edge5" class="edge">
<title>Node0&#45;&gt;Node5</title>
<path fill="none" stroke="#191970" d="M842.0135,-571.5695C990.0681,-564.4375 1281.5472,-547.8623 1381.5,-524 1457.1209,-505.9466 1543.5,-535.746 1543.5,-458 1543.5,-458 1543.5,-458 1543.5,-178 1543.5,-98.3193 1260.0528,-74.0633 1156.6643,-67.8661"/>
<polygon fill="#191970" stroke="#191970" points="1156.853,-64.3713 1146.6681,-67.29 1156.4501,-71.3597 1156.853,-64.3713"/>
</g>
<!-- Node6 -->
<g id="node7" class="node">
<title>Node6</title>
<polygon fill="#ffffff" stroke="#bfbfbf" points="1324,-112.5 1324,-131.5 1367,-131.5 1367,-112.5 1324,-112.5"/>
<text text-anchor="middle" x="1345.5" y="-119.5" font-family="Helvetica,sans-Serif" font-size="10.00" fill="#000000">string</text>
</g>
<!-- Node0&#45;&gt;Node6 -->
<g id="edge6" class="edge">
<title>Node0&#45;&gt;Node6</title>
<path fill="none" stroke="#191970" d="M842.346,-570.7764C1041.3375,-559.0096 1505.5,-524.4415 1505.5,-458 1505.5,-458 1505.5,-458 1505.5,-234 1505.5,-171.8997 1423.6071,-141.3304 1376.9975,-128.9609"/>
<polygon fill="#191970" stroke="#191970" points="1377.6305,-125.511 1367.0783,-126.4609 1375.9197,-132.2988 1377.6305,-125.511"/>
</g>
<!-- Node7 -->
<g id="node8" class="node">
<title>Node7</title>
<polygon fill="#ffffff" stroke="#bfbfbf" points="187.5,-448.5 187.5,-467.5 233.5,-467.5 233.5,-448.5 187.5,-448.5"/>
<text text-anchor="middle" x="210.5" y="-455.5" font-family="Helvetica,sans-Serif" font-size="10.00" fill="#000000">vector</text>
</g>
<!-- Node0&#45;&gt;Node7 -->
<g id="edge7" class="edge">
<title>Node0&#45;&gt;Node7</title>
<path fill="none" stroke="#191970" d="M664.805,-573.0765C520.4117,-568.2456 247.4249,-555.0784 216.5,-524 204.73,-512.1716 204.3703,-492.5624 206.2701,-477.785"/>
<polygon fill="#191970" stroke="#191970" points="209.77,-478.0831 208.0117,-467.6352 202.8708,-476.8992 209.77,-478.0831"/>
</g>
<!-- Node8 -->
<g id="node9" class="node">
<title>Node8</title>
<polygon fill="#ffffff" stroke="#bfbfbf" points="1637,-504.5 1637,-523.5 1728,-523.5 1728,-504.5 1637,-504.5"/>
<text text-anchor="middle" x="1682.5" y="-511.5" font-family="Helvetica,sans-Serif" font-size="10.00" fill="#000000">spdlog/spdlog.h</text>
</g>
<!-- Node0&#45;&gt;Node8 -->
<g id="edge8" class="edge">
<title>Node0&#45;&gt;Node8</title>
<path fill="none" stroke="#191970" d="M842.0063,-573.9234C998.5472,-570.3361 1334.583,-559.0504 1626.9513,-524.0587"/>
<polygon fill="#191970" stroke="#191970" points="1627.3883,-527.5314 1636.8963,-522.8572 1626.5487,-520.582 1627.3883,-527.5314"/>
</g>
<!-- Node9 -->
<g id="node10" class="node">
<title>Node9</title>
<g id="a_node10"><a xlink:href="pdi_8h.html" target="_top" xlink:title="pdi.h">
<polygon fill="#ffffff" stroke="#000000" points="171,-56.5 171,-75.5 210,-75.5 210,-56.5 171,-56.5"/>
<text text-anchor="middle" x="190.5" y="-63.5" font-family="Helvetica,sans-Serif" font-size="10.00" fill="#000000">pdi.h</text>
</a>
</g>
</g>
<!-- Node0&#45;&gt;Node9 -->
<g id="edge9" class="edge">
<title>Node0&#45;&gt;Node9</title>
<path fill="none" stroke="#191970" d="M664.7287,-571.36C519.2014,-563.9561 242.1025,-547.0388 203.5,-524 173.2273,-505.9326 159.5,-493.2543 159.5,-458 159.5,-458 159.5,-458 159.5,-178 159.5,-144.3636 172.6477,-107.0368 181.8184,-85.0922"/>
<polygon fill="#191970" stroke="#191970" points="185.1509,-86.2051 185.9258,-75.6387 178.7307,-83.4156 185.1509,-86.2051"/>
</g>
<!-- Node13 -->
<g id="node14" class="node">
<title>Node13</title>
<g id="a_node14"><a xlink:href="array__datatype_8h.html" target="_top" xlink:title="pdi/array_datatype.h">
<polygon fill="#ffffff" stroke="#000000" points="266.5,-392.5 266.5,-411.5 380.5,-411.5 380.5,-392.5 266.5,-392.5"/>
<text text-anchor="middle" x="323.5" y="-399.5" font-family="Helvetica,sans-Serif" font-size="10.00" fill="#000000">pdi/array_datatype.h</text>
</a>
</g>
</g>
<!-- Node0&#45;&gt;Node13 -->
<g id="edge13" class="edge">
<title>Node0&#45;&gt;Node13</title>
<path fill="none" stroke="#191970" d="M664.9672,-563.3277C620.2626,-555.3697 565.8272,-542.8644 519.5,-524 450.3247,-495.8319 378.0035,-444.0281 343.7701,-417.9239"/>
<polygon fill="#191970" stroke="#191970" points="345.5916,-414.9089 335.5345,-411.5766 341.3185,-420.4533 345.5916,-414.9089"/>
</g>
<!-- Node16 -->
<g id="node17" class="node">
<title>Node16</title>
<g id="a_node17"><a xlink:href="datatype__template_8h.html" target="_top" xlink:title="pdi/datatype_template.h">
<polygon fill="#ffffff" stroke="#000000" points="1147.5,-280.5 1147.5,-299.5 1277.5,-299.5 1277.5,-280.5 1147.5,-280.5"/>
<text text-anchor="middle" x="1212.5" y="-287.5" font-family="Helvetica,sans-Serif" font-size="10.00" fill="#000000">pdi/datatype_template.h</text>
</a>
</g>
</g>
<!-- Node0&#45;&gt;Node16 -->
<g id="edge72" class="edge">
<title>Node0&#45;&gt;Node16</title>
<path fill="none" stroke="#191970" d="M842.2014,-568.4698C968.0989,-556.4917 1188.9893,-527.4219 1239.5,-468 1277.5355,-423.2542 1267.3976,-390.492 1245.5,-336 1241.4092,-325.82 1234.6117,-315.7719 1228.2457,-307.6761"/>
<polygon fill="#191970" stroke="#191970" points="1230.7381,-305.1991 1221.6557,-299.7437 1225.3537,-309.6722 1230.7381,-305.1991"/>
</g>
<!-- Node17 -->
<g id="node18" class="node">
<title>Node17</title>
<g id="a_node18"><a xlink:href="logger_8h.html" target="_top" xlink:title="pdi/logger.h">
<polygon fill="#ffffff" stroke="#000000" points="1269.5,-224.5 1269.5,-243.5 1341.5,-243.5 1341.5,-224.5 1269.5,-224.5"/>
<text text-anchor="middle" x="1305.5" y="-231.5" font-family="Helvetica,sans-Serif" font-size="10.00" fill="#000000">pdi/logger.h</text>
</a>
</g>
</g>
<!-- Node0&#45;&gt;Node17 -->
<g id="edge62" class="edge">
<title>Node0&#45;&gt;Node17</title>
<path fill="none" stroke="#191970" d="M842.3595,-568.7666C945.3776,-560.2003 1108.4563,-544.078 1166.5,-524 1212.0974,-508.2273 1227.3949,-504.0161 1259.5,-468 1312.1591,-408.926 1312.89,-378.9382 1318.5,-300 1319.1301,-291.1335 1319.7203,-288.8047 1318.5,-280 1317.2643,-271.0835 1314.7419,-261.4647 1312.245,-253.3395"/>
<polygon fill="#191970" stroke="#191970" points="1315.5274,-252.1164 1309.0876,-243.7033 1308.8753,-254.296 1315.5274,-252.1164"/>
</g>
<!-- Node18 -->
<g id="node19" class="node">
<title>Node18</title>
<g id="a_node19"><a xlink:href="paraconf__wrapper_8h.html" target="_top" xlink:title="pdi/paraconf_wrapper.h">
<polygon fill="#ffffff" stroke="#000000" points="1255,-168.5 1255,-187.5 1384,-187.5 1384,-168.5 1255,-168.5"/>
<text text-anchor="middle" x="1319.5" y="-175.5" font-family="Helvetica,sans-Serif" font-size="10.00" fill="#000000">pdi/paraconf_wrapper.h</text>
</a>
</g>
</g>
<!-- Node0&#45;&gt;Node18 -->
<g id="edge63" class="edge">
<title>Node0&#45;&gt;Node18</title>
<path fill="none" stroke="#191970" d="M842.2628,-570.824C954.646,-563.9682 1141.3595,-549.191 1205.5,-524 1310.419,-482.7934 1351.9033,-459.9485 1395.5,-356 1418.2138,-301.8431 1420.0996,-274.1254 1389.5,-224 1381.0658,-210.1839 1366.7318,-199.6858 1353.2232,-192.2323"/>
<polygon fill="#191970" stroke="#191970" points="1354.5821,-188.996 1344.0856,-187.5553 1351.3926,-195.2272 1354.5821,-188.996"/>
</g>
<!-- Node19 -->
<g id="node20" class="node">
<title>Node19</title>
<g id="a_node20"><a xlink:href="context_8h.html" target="_top" xlink:title="pdi/context.h">
<polygon fill="#ffffff" stroke="#000000" points="1023,-504.5 1023,-523.5 1100,-523.5 1100,-504.5 1023,-504.5"/>
<text text-anchor="middle" x="1061.5" y="-511.5" font-family="Helvetica,sans-Serif" font-size="10.00" fill="#000000">pdi/context.h</text>
</a>
</g>
</g>
<!-- Node0&#45;&gt;Node19 -->
<g id="edge28" class="edge">
<title>Node0&#45;&gt;Node19</title>
<path fill="none" stroke="#191970" d="M828.8453,-560.4554C886.0405,-549.0349 963.0221,-533.6636 1012.4641,-523.7913"/>
<polygon fill="#191970" stroke="#191970" points="1013.4583,-527.1619 1022.5794,-521.7715 1012.0876,-520.2974 1013.4583,-527.1619"/>
</g>
<!-- Node28 -->
<g id="node29" class="node">
<title>Node28</title>
<g id="a_node29"><a xlink:href="error_8h.html" target="_top" xlink:title="pdi/error.h">
<polygon fill="#ffffff" stroke="#000000" points="912,-168.5 912,-187.5 977,-187.5 977,-168.5 912,-168.5"/>
<text text-anchor="middle" x="944.5" y="-175.5" font-family="Helvetica,sans-Serif" font-size="10.00" fill="#000000">pdi/error.h</text>
</a>
</g>
</g>
<!-- Node0&#45;&gt;Node28 -->
<g id="edge57" class="edge">
<title>Node0&#45;&gt;Node28</title>
<path fill="none" stroke="#191970" d="M694.215,-560.4389C638.4827,-542.5085 565.4095,-507.2804 578.5,-448 590.3339,-394.4098 592.3095,-375.4137 630.5,-336 708.4586,-255.5445 836.0763,-209.2299 902.0444,-189.4639"/>
<polygon fill="#191970" stroke="#191970" points="903.0922,-192.8041 911.7013,-186.6287 901.1203,-186.0876 903.0922,-192.8041"/>
</g>
<!-- Node30 -->
<g id="node31" class="node">
<title>Node30</title>
<g id="a_node31"><a xlink:href="expression_8h.html" target="_top" xlink:title="pdi/expression.h">
<polygon fill="#ffffff" stroke="#000000" points="830.5,-448.5 830.5,-467.5 924.5,-467.5 924.5,-448.5 830.5,-448.5"/>
<text text-anchor="middle" x="877.5" y="-455.5" font-family="Helvetica,sans-Serif" font-size="10.00" fill="#000000">pdi/expression.h</text>
</a>
</g>
</g>
<!-- Node0&#45;&gt;Node30 -->
<g id="edge58" class="edge">
<title>Node0&#45;&gt;Node30</title>
<path fill="none" stroke="#191970" d="M769.457,-560.3795C792.729,-538.3274 835.8285,-497.4871 859.9626,-474.6181"/>
<polygon fill="#191970" stroke="#191970" points="862.5127,-477.0235 867.3641,-467.6046 857.6979,-471.9423 862.5127,-477.0235"/>
</g>
<!-- Node31 -->
<g id="node32" class="node">
<title>Node31</title>
<g id="a_node32"><a xlink:href="record__datatype_8h.html" target="_top" xlink:title="pdi/record_datatype.h">
<polygon fill="#ffffff" stroke="#000000" points="225.5,-504.5 225.5,-523.5 345.5,-523.5 345.5,-504.5 225.5,-504.5"/>
<text text-anchor="middle" x="285.5" y="-511.5" font-family="Helvetica,sans-Serif" font-size="10.00" fill="#000000">pdi/record_datatype.h</text>
</a>
</g>
</g>
<!-- Node0&#45;&gt;Node31 -->
<g id="edge64" class="edge">
<title>Node0&#45;&gt;Node31</title>
<path fill="none" stroke="#191970" d="M664.683,-564.0027C584.8187,-553.6376 464.2972,-537.9299 359.5,-524 358.235,-523.8319 356.9578,-523.6618 355.6714,-523.4904"/>
<polygon fill="#191970" stroke="#191970" points="356.0481,-520.0097 345.6725,-522.1537 355.1205,-526.948 356.0481,-520.0097"/>
</g>
<!-- Node32 -->
<g id="node33" class="node">
<title>Node32</title>
<g id="a_node33"><a xlink:href="scalar__datatype_8h.html" target="_top" xlink:title="pdi/scalar_datatype.h">
<polygon fill="#ffffff" stroke="#000000" points="436.5,-392.5 436.5,-411.5 554.5,-411.5 554.5,-392.5 436.5,-392.5"/>
<text text-anchor="middle" x="495.5" y="-399.5" font-family="Helvetica,sans-Serif" font-size="10.00" fill="#000000">pdi/scalar_datatype.h</text>
</a>
</g>
</g>
<!-- Node0&#45;&gt;Node32 -->
<g id="edge68" class="edge">
<title>Node0&#45;&gt;Node32</title>
<path fill="none" stroke="#191970" d="M664.9083,-562.6571C615.0875,-553.8154 559.2201,-540.6631 540.5,-524 510.5474,-497.3387 500.4958,-448.9414 497.1486,-421.8064"/>
<polygon fill="#191970" stroke="#191970" points="500.6032,-421.1879 496.086,-411.6043 493.6408,-421.913 500.6032,-421.1879"/>
</g>
<!-- Node10 -->
<g id="node11" class="node">
<title>Node10</title>
<polygon fill="#ffffff" stroke="#bfbfbf" points="853,-.5 853,-19.5 920,-19.5 920,-.5 853,-.5"/>
<text text-anchor="middle" x="886.5" y="-7.5" font-family="Helvetica,sans-Serif" font-size="10.00" fill="#000000">paraconf.h</text>
</g>
<!-- Node9&#45;&gt;Node10 -->
<g id="edge10" class="edge">
<title>Node9&#45;&gt;Node10</title>
<path fill="none" stroke="#191970" d="M210.1033,-59.4498C214.7749,-58.1081 219.7764,-56.8484 224.5,-56 343.8918,-34.5563 714.7979,-17.2656 842.6531,-11.8052"/>
<polygon fill="#191970" stroke="#191970" points="843.0061,-15.2934 852.8489,-11.3729 842.7095,-8.2997 843.0061,-15.2934"/>
</g>
<!-- Node11 -->
<g id="node12" class="node">
<title>Node11</title>
<polygon fill="#ffffff" stroke="#bfbfbf" points="108.5,-.5 108.5,-19.5 180.5,-19.5 180.5,-.5 108.5,-.5"/>
<text text-anchor="middle" x="144.5" y="-7.5" font-family="Helvetica,sans-Serif" font-size="10.00" fill="#000000">pdi/export.h</text>
</g>
<!-- Node9&#45;&gt;Node11 -->
<g id="edge11" class="edge">
<title>Node9&#45;&gt;Node11</title>
<path fill="none" stroke="#191970" d="M182.4874,-56.2455C176.0232,-48.3761 166.7615,-37.101 159.0017,-27.6542"/>
<polygon fill="#191970" stroke="#191970" points="161.4727,-25.1484 152.4208,-19.6427 156.0636,-29.5916 161.4727,-25.1484"/>
</g>
<!-- Node12 -->
<g id="node13" class="node">
<title>Node12</title>
<polygon fill="#ffffff" stroke="#bfbfbf" points="199,-.5 199,-19.5 276,-19.5 276,-.5 199,-.5"/>
<text text-anchor="middle" x="237.5" y="-7.5" font-family="Helvetica,sans-Serif" font-size="10.00" fill="#000000">pdi/version.h</text>
</g>
<!-- Node9&#45;&gt;Node12 -->
<g id="edge12" class="edge">
<title>Node9&#45;&gt;Node12</title>
<path fill="none" stroke="#191970" d="M198.6868,-56.2455C205.3589,-48.2958 214.9479,-36.8706 222.9253,-27.3656"/>
<polygon fill="#191970" stroke="#191970" points="225.6592,-29.5525 229.407,-19.6427 220.2974,-25.0524 225.6592,-29.5525"/>
</g>
<!-- Node14 -->
<g id="node15" class="node">
<title>Node14</title>
<g id="a_node15"><a xlink:href="pdi__fwd_8h.html" target="_top" xlink:title="pdi/pdi_fwd.h">
<polygon fill="#ffffff" stroke="#000000" points="690,-112.5 690,-131.5 769,-131.5 769,-112.5 690,-112.5"/>
<text text-anchor="middle" x="729.5" y="-119.5" font-family="Helvetica,sans-Serif" font-size="10.00" fill="#000000">pdi/pdi_fwd.h</text>
</a>
</g>
</g>
<!-- Node13&#45;&gt;Node14 -->
<g id="edge14" class="edge">
<title>Node13&#45;&gt;Node14</title>
<path fill="none" stroke="#191970" d="M329.5751,-392.2297C340.765,-373.2713 363.5,-329.8493 363.5,-290 363.5,-290 363.5,-290 363.5,-234 363.5,-168.6177 579.7664,-137.5736 679.8135,-126.7104"/>
<polygon fill="#191970" stroke="#191970" points="680.4085,-130.167 689.9838,-125.6322 679.6706,-123.206 680.4085,-130.167"/>
</g>
<!-- Node15 -->
<g id="node16" class="node">
<title>Node15</title>
<g id="a_node16"><a xlink:href="datatype_8h.html" target="_top" xlink:title="pdi/datatype.h">
<polygon fill="#ffffff" stroke="#000000" points="462,-336.5 462,-355.5 545,-355.5 545,-336.5 462,-336.5"/>
<text text-anchor="middle" x="503.5" y="-343.5" font-family="Helvetica,sans-Serif" font-size="10.00" fill="#000000">pdi/datatype.h</text>
</a>
</g>
</g>
<!-- Node13&#45;&gt;Node15 -->
<g id="edge17" class="edge">
<title>Node13&#45;&gt;Node15</title>
<path fill="none" stroke="#191970" d="M354.4431,-392.3733C384.5039,-383.021 430.3026,-368.7725 463.1978,-358.5385"/>
<polygon fill="#191970" stroke="#191970" points="464.4519,-361.8139 472.9607,-355.5011 462.3723,-355.1299 464.4519,-361.8139"/>
</g>
<!-- Node14&#45;&gt;Node5 -->
<g id="edge15" class="edge">
<title>Node14&#45;&gt;Node5</title>
<path fill="none" stroke="#191970" d="M769.0415,-116.3222C844.5321,-105.4826 1008.2304,-81.9772 1082.0545,-71.3768"/>
<polygon fill="#191970" stroke="#191970" points="1082.8723,-74.7953 1092.2733,-69.9095 1081.8773,-67.8664 1082.8723,-74.7953"/>
</g>
<!-- Node14&#45;&gt;Node9 -->
<g id="edge16" class="edge">
<title>Node14&#45;&gt;Node9</title>
<path fill="none" stroke="#191970" d="M689.866,-117.8822C586.7231,-107.166 311.6419,-78.5862 220.385,-69.1049"/>
<polygon fill="#191970" stroke="#191970" points="220.4995,-65.5981 210.1913,-68.0458 219.776,-72.5606 220.4995,-65.5981"/>
</g>
<!-- Node15&#45;&gt;Node14 -->
<g id="edge18" class="edge">
<title>Node15&#45;&gt;Node14</title>
<path fill="none" stroke="#191970" d="M505.8972,-336.3132C513.724,-306.674 541.3206,-216.3002 597.5,-168 620.6709,-148.0788 652.9817,-136.6259 679.836,-130.1304"/>
<polygon fill="#191970" stroke="#191970" points="680.8456,-133.4906 689.8306,-127.8763 679.3055,-126.6621 680.8456,-133.4906"/>
</g>
<!-- Node15&#45;&gt;Node16 -->
<g id="edge19" class="edge">
<title>Node15&#45;&gt;Node16</title>
<path fill="none" stroke="#191970" d="M545.2042,-342.706C661.0821,-333.5535 988.1867,-307.7173 1137.0476,-295.9596"/>
<polygon fill="#191970" stroke="#191970" points="1137.7589,-299.4144 1147.4522,-295.1378 1137.2077,-292.4361 1137.7589,-299.4144"/>
</g>
<!-- Node16&#45;&gt;Node10 -->
<g id="edge20" class="edge">
<title>Node16&#45;&gt;Node10</title>
<path fill="none" stroke="#191970" d="M1214.5059,-280.4619C1218.377,-261.1944 1226.5,-216.2117 1226.5,-178 1226.5,-178 1226.5,-178 1226.5,-122 1226.5,-78.9164 1194.1216,-75.0937 1155.5,-56 1116.6963,-36.8162 996.2402,-21.5826 930.4626,-14.4336"/>
<polygon fill="#191970" stroke="#191970" points="930.7118,-10.9404 920.3961,-13.3563 929.9668,-17.9006 930.7118,-10.9404"/>
</g>
<!-- Node16&#45;&gt;Node14 -->
<g id="edge21" class="edge">
<title>Node16&#45;&gt;Node14</title>
<path fill="none" stroke="#191970" d="M1169.7817,-280.4749C1102.5029,-264.8507 968.3128,-231.155 859.5,-188 841.3924,-180.8186 837.8591,-176.8384 820.5,-168 799.6026,-157.3601 775.966,-145.4145 758.0204,-136.3635"/>
<polygon fill="#191970" stroke="#191970" points="759.1948,-133.036 748.6898,-131.6597 756.0437,-139.2866 759.1948,-133.036"/>
</g>
<!-- Node16&#45;&gt;Node17 -->
<g id="edge22" class="edge">
<title>Node16&#45;&gt;Node17</title>
<path fill="none" stroke="#191970" d="M1228.6994,-280.2455C1243.1018,-271.5731 1264.3732,-258.7645 1280.8799,-248.825"/>
<polygon fill="#191970" stroke="#191970" points="1282.725,-251.7996 1289.4863,-243.6427 1279.114,-245.8028 1282.725,-251.7996"/>
</g>
<!-- Node17&#45;&gt;Node14 -->
<g id="edge23" class="edge">
<title>Node17&#45;&gt;Node14</title>
<path fill="none" stroke="#191970" d="M1269.4636,-231.3252C1184.2053,-224.7637 972.1277,-207.014 903.5,-188 882.7989,-182.2646 879.4217,-176.0348 859.5,-168 829.1809,-155.7718 794.2179,-143.5005 768.192,-134.7114"/>
<polygon fill="#191970" stroke="#191970" points="769.2772,-131.3838 758.6833,-131.5208 767.0504,-138.0202 769.2772,-131.3838"/>
</g>
<!-- Node17&#45;&gt;Node18 -->
<g id="edge24" class="edge">
<title>Node17&#45;&gt;Node18</title>
<path fill="none" stroke="#191970" d="M1307.9386,-224.2455C1309.7855,-216.8579 1312.3828,-206.4689 1314.6478,-197.4087"/>
<polygon fill="#191970" stroke="#191970" points="1318.0594,-198.193 1317.0893,-187.6427 1311.2684,-196.4952 1318.0594,-198.193"/>
</g>
<!-- Node18&#45;&gt;Node6 -->
<g id="edge25" class="edge">
<title>Node18&#45;&gt;Node6</title>
<path fill="none" stroke="#191970" d="M1324.0289,-168.2455C1327.5334,-160.6973 1332.4927,-150.0158 1336.7623,-140.8197"/>
<polygon fill="#191970" stroke="#191970" points="1339.9864,-142.1867 1341.023,-131.6427 1333.6373,-139.2389 1339.9864,-142.1867"/>
</g>
<!-- Node18&#45;&gt;Node10 -->
<g id="edge26" class="edge">
<title>Node18&#45;&gt;Node10</title>
<path fill="none" stroke="#191970" d="M1316.4349,-168.3429C1308.3538,-144.627 1284.0398,-83.4604 1240.5,-56 1189.7273,-23.9778 1013.096,-14.0786 930.1523,-11.1573"/>
<polygon fill="#191970" stroke="#191970" points="930.1524,-7.6554 920.0411,-10.8195 929.9186,-14.6515 930.1524,-7.6554"/>
</g>
<!-- Node18&#45;&gt;Node14 -->
<g id="edge27" class="edge">
<title>Node18&#45;&gt;Node14</title>
<path fill="none" stroke="#191970" d="M1254.9545,-171.8736C1136.3129,-160.6127 885.9792,-136.8523 779.324,-126.7291"/>
<polygon fill="#191970" stroke="#191970" points="779.4434,-123.2247 769.1574,-125.7641 778.7819,-130.1934 779.4434,-123.2247"/>
</g>
<!-- Node19&#45;&gt;Node5 -->
<g id="edge31" class="edge">
<title>Node19&#45;&gt;Node5</title>
<path fill="none" stroke="#191970" d="M1100.2472,-508.6885C1150.6385,-501.1715 1235.2154,-486.2868 1260.5,-468 1314.0017,-429.3054 1346.0429,-271.466 1350.5,-244 1351.9238,-235.2259 1355.6559,-231.2408 1350.5,-224 1322.1285,-184.1559 1288.218,-213.5363 1246.5,-188 1199.1755,-159.0318 1155.1232,-109.8222 1133.4876,-83.6291"/>
<polygon fill="#191970" stroke="#191970" points="1136.06,-81.2447 1127.0373,-75.691 1130.6274,-85.6591 1136.06,-81.2447"/>
</g>
<!-- Node19&#45;&gt;Node6 -->
<g id="edge33" class="edge">
<title>Node19&#45;&gt;Node6</title>
<path fill="none" stroke="#191970" d="M1100.06,-512.5451C1172.5035,-509.1216 1325.4324,-498.4111 1367.5,-468 1439.3421,-416.0646 1457.5,-378.6486 1457.5,-290 1457.5,-290 1457.5,-290 1457.5,-234 1457.5,-187.7508 1409.1579,-153.9293 1375.9935,-136.1683"/>
<polygon fill="#191970" stroke="#191970" points="1377.5878,-133.0526 1367.0947,-131.5877 1374.3841,-139.2764 1377.5878,-133.0526"/>
</g>
<!-- Node19&#45;&gt;Node14 -->
<g id="edge36" class="edge">
<title>Node19&#45;&gt;Node14</title>
<path fill="none" stroke="#191970" d="M1022.9228,-511.7845C929.4963,-506.0961 696.7554,-489.8724 669.5,-468 604.607,-415.9235 611.5,-373.2049 611.5,-290 611.5,-290 611.5,-290 611.5,-234 611.5,-186.754 661.8798,-153.4321 696.8018,-136.0095"/>
<polygon fill="#191970" stroke="#191970" points="698.6772,-138.9923 706.187,-131.5187 695.6558,-132.6779 698.6772,-138.9923"/>
</g>
<!-- Node19&#45;&gt;Node16 -->
<g id="edge54" class="edge">
<title>Node19&#45;&gt;Node16</title>
<path fill="none" stroke="#191970" d="M1100.1837,-508.2058C1142.4331,-500.9937 1206.0391,-487.2375 1220.5,-468 1256.0424,-420.7174 1234.0247,-344.7583 1220.6055,-309.3428"/>
<polygon fill="#191970" stroke="#191970" points="1223.7324,-307.7336 1216.7902,-299.7301 1217.2262,-310.316 1223.7324,-307.7336"/>
</g>
<!-- Node19&#45;&gt;Node17 -->
<g id="edge56" class="edge">
<title>Node19&#45;&gt;Node17</title>
<path fill="none" stroke="#191970" d="M1100.079,-508.5922C1146.2709,-501.3618 1219.8778,-487.1949 1239.5,-468 1300.0113,-408.8065 1306.2192,-298.7551 1306.0692,-253.8523"/>
<polygon fill="#191970" stroke="#191970" points="1309.5663,-253.6301 1305.9171,-243.6836 1302.5671,-253.7349 1309.5663,-253.6301"/>
</g>
<!-- Node20 -->
<g id="node21" class="node">
<title>Node20</title>
<polygon fill="#ffffff" stroke="#bfbfbf" points="639.5,-336.5 639.5,-355.5 701.5,-355.5 701.5,-336.5 639.5,-336.5"/>
<text text-anchor="middle" x="670.5" y="-343.5" font-family="Helvetica,sans-Serif" font-size="10.00" fill="#000000">functional</text>
</g>
<!-- Node19&#45;&gt;Node20 -->
<g id="edge29" class="edge">
<title>Node19&#45;&gt;Node20</title>
<path fill="none" stroke="#191970" d="M1022.754,-511.8761C931.9247,-506.5294 711.1351,-491.2582 687.5,-468 660.4252,-441.3569 662.7378,-392.9525 666.6915,-365.8115"/>
<polygon fill="#191970" stroke="#191970" points="670.2006,-366.0486 668.4055,-355.6069 663.2973,-364.889 670.2006,-366.0486"/>
</g>
<!-- Node21 -->
<g id="node22" class="node">
<title>Node21</title>
<polygon fill="#ffffff" stroke="#bfbfbf" points="1123,-448.5 1123,-467.5 1152,-467.5 1152,-448.5 1123,-448.5"/>
<text text-anchor="middle" x="1137.5" y="-455.5" font-family="Helvetica,sans-Serif" font-size="10.00" fill="#000000">list</text>
</g>
<!-- Node19&#45;&gt;Node21 -->
<g id="edge30" class="edge">
<title>Node19&#45;&gt;Node21</title>
<path fill="none" stroke="#191970" d="M1074.7382,-504.2455C1086.181,-495.814 1102.9296,-483.4729 1116.2475,-473.6598"/>
<polygon fill="#191970" stroke="#191970" points="1118.4391,-476.3924 1124.4135,-467.6427 1114.2867,-470.757 1118.4391,-476.3924"/>
</g>
<!-- Node22 -->
<g id="node23" class="node">
<title>Node22</title>
<polygon fill="#ffffff" stroke="#bfbfbf" points="1170,-448.5 1170,-467.5 1211,-467.5 1211,-448.5 1170,-448.5"/>
<text text-anchor="middle" x="1190.5" y="-455.5" font-family="Helvetica,sans-Serif" font-size="10.00" fill="#000000">stack</text>
</g>
<!-- Node19&#45;&gt;Node22 -->
<g id="edge32" class="edge">
<title>Node19&#45;&gt;Node22</title>
<path fill="none" stroke="#191970" d="M1083.6759,-504.3733C1104.8548,-495.1793 1136.9339,-481.2535 1160.4117,-471.0616"/>
<polygon fill="#191970" stroke="#191970" points="1162.1109,-474.1396 1169.8901,-466.9469 1159.3234,-467.7185 1162.1109,-474.1396"/>
</g>
<!-- Node23 -->
<g id="node24" class="node">
<title>Node23</title>
<polygon fill="#ffffff" stroke="#bfbfbf" points="1033.5,-336.5 1033.5,-355.5 1125.5,-355.5 1125.5,-336.5 1033.5,-336.5"/>
<text text-anchor="middle" x="1079.5" y="-343.5" font-family="Helvetica,sans-Serif" font-size="10.00" fill="#000000">unordered_map</text>
</g>
<!-- Node19&#45;&gt;Node23 -->
<g id="edge34" class="edge">
<title>Node19&#45;&gt;Node23</title>
<path fill="none" stroke="#191970" d="M1044.4433,-504.377C1032.1911,-496.4014 1016.6292,-483.8248 1009.5,-468 1005.8489,-459.8956 1006.867,-456.49 1009.5,-448 1019.9186,-414.406 1045.6534,-382.0515 1062.845,-363.0983"/>
<polygon fill="#191970" stroke="#191970" points="1065.5749,-365.303 1069.8386,-355.6039 1060.4571,-360.5272 1065.5749,-365.303"/>
</g>
<!-- Node24 -->
<g id="node25" class="node">
<title>Node24</title>
<polygon fill="#ffffff" stroke="#bfbfbf" points="1018.5,-448.5 1018.5,-467.5 1104.5,-467.5 1104.5,-448.5 1018.5,-448.5"/>
<text text-anchor="middle" x="1061.5" y="-455.5" font-family="Helvetica,sans-Serif" font-size="10.00" fill="#000000">unordered_set</text>
</g>
<!-- Node19&#45;&gt;Node24 -->
<g id="edge35" class="edge">
<title>Node19&#45;&gt;Node24</title>
<path fill="none" stroke="#191970" d="M1061.5,-504.2455C1061.5,-496.9382 1061.5,-486.6944 1061.5,-477.7046"/>
<polygon fill="#191970" stroke="#191970" points="1065.0001,-477.6426 1061.5,-467.6427 1058.0001,-477.6427 1065.0001,-477.6426"/>
</g>
<!-- Node25 -->
<g id="node26" class="node">
<title>Node25</title>
<g id="a_node26"><a xlink:href="data__descriptor_8h.html" target="_top" xlink:title="pdi/data_descriptor.h">
<polygon fill="#ffffff" stroke="#000000" points="696.5,-448.5 696.5,-467.5 812.5,-467.5 812.5,-448.5 696.5,-448.5"/>
<text text-anchor="middle" x="754.5" y="-455.5" font-family="Helvetica,sans-Serif" font-size="10.00" fill="#000000">pdi/data_descriptor.h</text>
</a>
</g>
</g>
<!-- Node19&#45;&gt;Node25 -->
<g id="edge37" class="edge">
<title>Node19&#45;&gt;Node25</title>
<path fill="none" stroke="#191970" d="M1022.9291,-506.9643C971.1383,-497.5171 878.5049,-480.6198 816.7701,-469.3587"/>
<polygon fill="#191970" stroke="#191970" points="817.2252,-465.884 806.7594,-467.5327 815.969,-472.7704 817.2252,-465.884"/>
</g>
<!-- Node26 -->
<g id="node27" class="node">
<title>Node26</title>
<g id="a_node27"><a xlink:href="ref__any_8h.html" target="_top" xlink:title="pdi/ref_any.h">
<polygon fill="#ffffff" stroke="#000000" points="838.5,-392.5 838.5,-411.5 916.5,-411.5 916.5,-392.5 838.5,-392.5"/>
<text text-anchor="middle" x="877.5" y="-399.5" font-family="Helvetica,sans-Serif" font-size="10.00" fill="#000000">pdi/ref_any.h</text>
</a>
</g>
</g>
<!-- Node19&#45;&gt;Node26 -->
<g id="edge55" class="edge">
<title>Node19&#45;&gt;Node26</title>
<path fill="none" stroke="#191970" d="M1042.6519,-504.4345C1025.2408,-495.4499 998.7801,-481.4167 976.5,-468 949.338,-451.6435 919.1576,-431.1744 899.3428,-417.4044"/>
<polygon fill="#191970" stroke="#191970" points="901.2185,-414.4453 891.0163,-411.5879 897.2098,-420.1838 901.2185,-414.4453"/>
</g>
<!-- Node25&#45;&gt;Node10 -->
<g id="edge38" class="edge">
<title>Node25&#45;&gt;Node10</title>
<path fill="none" stroke="#191970" d="M696.4939,-456.2622C572.6078,-452.0367 290.7102,-439.4875 257.5,-412 233.9851,-392.5371 238.5,-376.5246 238.5,-346 238.5,-346 238.5,-346 238.5,-122 238.5,-60.6014 696.055,-23.3056 842.1985,-12.9593"/>
<polygon fill="#191970" stroke="#191970" points="842.8419,-16.4229 852.5731,-12.2332 842.3531,-9.44 842.8419,-16.4229"/>
</g>
<!-- Node25&#45;&gt;Node14 -->
<g id="edge39" class="edge">
<title>Node25&#45;&gt;Node14</title>
<path fill="none" stroke="#191970" d="M753.7788,-448.3065C750.3571,-402.3189 735.7298,-205.7291 730.9893,-142.0167"/>
<polygon fill="#191970" stroke="#191970" points="734.4566,-141.4455 730.2242,-131.7328 727.4759,-141.965 734.4566,-141.4455"/>
</g>
<!-- Node25&#45;&gt;Node16 -->
<g id="edge40" class="edge">
<title>Node25&#45;&gt;Node16</title>
<path fill="none" stroke="#191970" d="M799.9027,-448.4296C887.3553,-429.5709 1075.7225,-386.7684 1134.5,-356 1158.6337,-343.3667 1181.8803,-322.1412 1196.6202,-307.1775"/>
<polygon fill="#191970" stroke="#191970" points="1199.4892,-309.2425 1203.8855,-299.6028 1194.4374,-304.397 1199.4892,-309.2425"/>
</g>
<!-- Node25&#45;&gt;Node26 -->
<g id="edge41" class="edge">
<title>Node25&#45;&gt;Node26</title>
<path fill="none" stroke="#191970" d="M775.6445,-448.3733C795.3892,-439.3838 825.0698,-425.8706 847.3055,-415.7471"/>
<polygon fill="#191970" stroke="#191970" points="848.9806,-418.8302 856.6315,-411.5011 846.08,-412.4594 848.9806,-418.8302"/>
</g>
<!-- Node26&#45;&gt;Node3 -->
<g id="edge42" class="edge">
<title>Node26&#45;&gt;Node3</title>
<path fill="none" stroke="#191970" d="M867.7455,-392.2455C859.6352,-384.1352 847.9075,-372.4075 838.2919,-362.7919"/>
<polygon fill="#191970" stroke="#191970" points="840.6887,-360.2389 831.1427,-355.6427 835.7389,-365.1887 840.6887,-360.2389"/>
</g>
<!-- Node26&#45;&gt;Node5 -->
<g id="edge44" class="edge">
<title>Node26&#45;&gt;Node5</title>
<path fill="none" stroke="#191970" d="M916.5142,-394.4239C939.8702,-387.9619 968.4348,-376.3547 986.5,-356 1006.762,-333.1701 1005.5,-320.5246 1005.5,-290 1005.5,-290 1005.5,-290 1005.5,-178 1005.5,-131.4628 1054.4383,-97.828 1088.1864,-80.1659"/>
<polygon fill="#191970" stroke="#191970" points="1089.8862,-83.2289 1097.249,-75.6105 1086.7424,-76.9746 1089.8862,-83.2289"/>
</g>
<!-- Node26&#45;&gt;Node14 -->
<g id="edge47" class="edge">
<title>Node26&#45;&gt;Node14</title>
<path fill="none" stroke="#191970" d="M875.3119,-392.2467C867.3828,-358.4815 837.6249,-244.4595 781.5,-168 773.1418,-156.6136 761.5393,-146.0125 751.4142,-137.8639"/>
<polygon fill="#191970" stroke="#191970" points="753.4111,-134.9836 743.3602,-131.6323 749.1275,-140.5199 753.4111,-134.9836"/>
</g>
<!-- Node26&#45;&gt;Node15 -->
<g id="edge48" class="edge">
<title>Node26&#45;&gt;Node15</title>
<path fill="none" stroke="#191970" d="M838.1823,-396.1129C770.2958,-385.948 631.1164,-365.1083 555.3809,-353.7683"/>
<polygon fill="#191970" stroke="#191970" points="555.5374,-350.2528 545.1293,-352.2333 554.5008,-357.1756 555.5374,-350.2528"/>
</g>
<!-- Node26&#45;&gt;Node20 -->
<g id="edge43" class="edge">
<title>Node26&#45;&gt;Node20</title>
<path fill="none" stroke="#191970" d="M841.9154,-392.3733C805.6251,-382.5556 749.3901,-367.3423 711.3141,-357.0415"/>
<polygon fill="#191970" stroke="#191970" points="712.1357,-353.638 701.5687,-354.4051 710.3077,-360.3951 712.1357,-353.638"/>
</g>
<!-- Node26&#45;&gt;Node23 -->
<g id="edge46" class="edge">
<title>Node26&#45;&gt;Node23</title>
<path fill="none" stroke="#191970" d="M912.225,-392.3733C946.2508,-382.9404 998.2437,-368.5265 1035.2234,-358.2747"/>
<polygon fill="#191970" stroke="#191970" points="1036.5266,-361.5455 1045.2281,-355.5011 1034.6565,-354.7999 1036.5266,-361.5455"/>
</g>
<!-- Node27 -->
<g id="node28" class="node">
<title>Node27</title>
<polygon fill="#ffffff" stroke="#bfbfbf" points="941.5,-336.5 941.5,-355.5 977.5,-355.5 977.5,-336.5 941.5,-336.5"/>
<text text-anchor="middle" x="959.5" y="-343.5" font-family="Helvetica,sans-Serif" font-size="10.00" fill="#000000">new</text>
</g>
<!-- Node26&#45;&gt;Node27 -->
<g id="edge45" class="edge">
<title>Node26&#45;&gt;Node27</title>
<path fill="none" stroke="#191970" d="M891.7833,-392.2455C904.247,-383.7337 922.5451,-371.2375 936.9792,-361.3801"/>
<polygon fill="#191970" stroke="#191970" points="939.0962,-364.1726 945.3804,-355.6427 935.1485,-358.392 939.0962,-364.1726"/>
</g>
<!-- Node26&#45;&gt;Node28 -->
<g id="edge49" class="edge">
<title>Node26&#45;&gt;Node28</title>
<path fill="none" stroke="#191970" d="M880.3789,-392.375C890.5586,-358.3415 924.9797,-243.262 938.7431,-197.247"/>
<polygon fill="#191970" stroke="#191970" points="942.1193,-198.1728 941.6318,-187.5891 935.4129,-196.1668 942.1193,-198.1728"/>
</g>
<!-- Node28&#45;&gt;Node6 -->
<g id="edge51" class="edge">
<title>Node28&#45;&gt;Node6</title>
<path fill="none" stroke="#191970" d="M977.3155,-173.4173C1052.9078,-162.8608 1238.5499,-136.9357 1313.4213,-126.4798"/>
<polygon fill="#191970" stroke="#191970" points="1314.2181,-129.9026 1323.6379,-125.0531 1313.2499,-122.9699 1314.2181,-129.9026"/>
</g>
<!-- Node28&#45;&gt;Node10 -->
<g id="edge52" class="edge">
<title>Node28&#45;&gt;Node10</title>
<path fill="none" stroke="#191970" d="M933.3369,-168.2176C924.2979,-159.6208 912.0308,-146.2828 905.5,-132 890.1174,-98.3581 886.8398,-54.6338 886.3373,-29.7076"/>
<polygon fill="#191970" stroke="#191970" points="889.8371,-29.6572 886.2682,-19.6816 882.8373,-29.7055 889.8371,-29.6572"/>
</g>
<!-- Node28&#45;&gt;Node14 -->
<g id="edge53" class="edge">
<title>Node28&#45;&gt;Node14</title>
<path fill="none" stroke="#191970" d="M911.8461,-169.4948C875.5992,-160.0537 816.8144,-144.7424 775.8214,-134.0651"/>
<polygon fill="#191970" stroke="#191970" points="776.6263,-130.658 766.0669,-131.5244 774.8619,-137.432 776.6263,-130.658"/>
</g>
<!-- Node29 -->
<g id="node30" class="node">
<title>Node29</title>
<polygon fill="#ffffff" stroke="#bfbfbf" points="914.5,-112.5 914.5,-131.5 976.5,-131.5 976.5,-112.5 914.5,-112.5"/>
<text text-anchor="middle" x="945.5" y="-119.5" font-family="Helvetica,sans-Serif" font-size="10.00" fill="#000000">exception</text>
</g>
<!-- Node28&#45;&gt;Node29 -->
<g id="edge50" class="edge">
<title>Node28&#45;&gt;Node29</title>
<path fill="none" stroke="#191970" d="M944.6742,-168.2455C944.8047,-160.9382 944.9876,-150.6944 945.1481,-141.7046"/>
<polygon fill="#191970" stroke="#191970" points="948.6486,-141.7036 945.3278,-131.6427 941.6497,-141.5786 948.6486,-141.7036"/>
</g>
<!-- Node30&#45;&gt;Node5 -->
<g id="edge59" class="edge">
<title>Node30&#45;&gt;Node5</title>
<path fill="none" stroke="#191970" d="M924.7504,-454.64C985.1283,-447.518 1087.445,-425.3011 1134.5,-356 1139.4932,-348.6461 1135.1484,-344.8652 1134.5,-336 1131.1578,-290.3011 1119.5,-279.8209 1119.5,-234 1119.5,-234 1119.5,-234 1119.5,-178 1119.5,-145.7116 1119.5,-108.1872 1119.5,-85.8048"/>
<polygon fill="#191970" stroke="#191970" points="1123.0001,-85.5883 1119.5,-75.5884 1116.0001,-85.5884 1123.0001,-85.5883"/>
</g>
<!-- Node30&#45;&gt;Node14 -->
<g id="edge60" class="edge">
<title>Node30&#45;&gt;Node14</title>
<path fill="none" stroke="#191970" d="M856.5509,-448.4375C824.6354,-432.2626 767.5,-396.284 767.5,-346 767.5,-346 767.5,-346 767.5,-234 767.5,-199.6118 751.2366,-162.2832 739.989,-140.5791"/>
<polygon fill="#191970" stroke="#191970" points="742.931,-138.6605 735.107,-131.5166 736.7683,-141.9804 742.931,-138.6605"/>
</g>
<!-- Node30&#45;&gt;Node26 -->
<g id="edge61" class="edge">
<title>Node30&#45;&gt;Node26</title>
<path fill="none" stroke="#191970" d="M877.5,-448.2455C877.5,-440.9382 877.5,-430.6944 877.5,-421.7046"/>
<polygon fill="#191970" stroke="#191970" points="881.0001,-421.6426 877.5,-411.6427 874.0001,-421.6427 881.0001,-421.6426"/>
</g>
<!-- Node31&#45;&gt;Node7 -->
<g id="edge65" class="edge">
<title>Node31&#45;&gt;Node7</title>
<path fill="none" stroke="#191970" d="M272.436,-504.2455C261.1438,-495.814 244.6155,-483.4729 231.4729,-473.6598"/>
<polygon fill="#191970" stroke="#191970" points="233.5211,-470.8211 223.4143,-467.6427 229.3331,-476.4301 233.5211,-470.8211"/>
</g>
<!-- Node31&#45;&gt;Node14 -->
<g id="edge66" class="edge">
<title>Node31&#45;&gt;Node14</title>
<path fill="none" stroke="#191970" d="M280.197,-504.4697C269.4166,-483.8695 246.8336,-433.6848 257.5,-392 287.019,-276.638 298.199,-221.6642 404.5,-168 451.6638,-144.1902 601.0104,-130.7389 679.7709,-125.1319"/>
<polygon fill="#191970" stroke="#191970" points="680.2044,-128.6102 689.937,-124.4238 679.718,-121.6272 680.2044,-128.6102"/>
</g>
<!-- Node31&#45;&gt;Node15 -->
<g id="edge67" class="edge">
<title>Node31&#45;&gt;Node15</title>
<path fill="none" stroke="#191970" d="M295.6948,-504.1928C318.3713,-482.6197 375.1249,-429.95 427.5,-392 443.3242,-380.5341 462.1014,-369.1498 477.0323,-360.575"/>
<polygon fill="#191970" stroke="#191970" points="478.7962,-363.5984 485.7711,-355.6234 475.3452,-357.5082 478.7962,-363.5984"/>
</g>
<!-- Node32&#45;&gt;Node14 -->
<g id="edge70" class="edge">
<title>Node32&#45;&gt;Node14</title>
<path fill="none" stroke="#191970" d="M484.3604,-392.4674C474.9091,-383.8261 461.6262,-370.2884 453.5,-356 438.3474,-329.3569 433.5,-320.6506 433.5,-290 433.5,-290 433.5,-290 433.5,-234 433.5,-181.9277 595.7692,-145.5659 680.0162,-130.1966"/>
<polygon fill="#191970" stroke="#191970" points="680.662,-133.6367 689.8873,-128.4267 679.4265,-126.7466 680.662,-133.6367"/>
</g>
<!-- Node32&#45;&gt;Node15 -->
<g id="edge71" class="edge">
<title>Node32&#45;&gt;Node15</title>
<path fill="none" stroke="#191970" d="M496.8935,-392.2455C497.9374,-384.9382 499.4008,-374.6944 500.6851,-365.7046"/>
<polygon fill="#191970" stroke="#191970" points="504.173,-366.0372 502.1225,-355.6427 497.2434,-365.0472 504.173,-366.0372"/>
</g>
<!-- Node32&#45;&gt;Node20 -->
<g id="edge69" class="edge">
<title>Node32&#45;&gt;Node20</title>
<path fill="none" stroke="#191970" d="M525.5836,-392.3733C554.6834,-383.0613 598.9523,-368.8953 630.903,-358.671"/>
<polygon fill="#191970" stroke="#191970" points="632.3515,-361.8824 640.809,-355.5011 630.218,-355.2155 632.3515,-361.8824"/>
</g>
</g>
</svg>
