<?xml version="1.0" encoding="UTF-8" standalone="no"?>
<!DOCTYPE svg PUBLIC "-//W3C//DTD SVG 1.1//EN"
 "http://www.w3.org/Graphics/SVG/1.1/DTD/svg11.dtd">
<!-- Generated by graphviz version 2.40.1 (20161225.0304)
 -->
<!-- Title: /home/jbigot/data/projects/pdi/pdi/src/datatype.cxx Pages: 1 -->
<svg width="335pt" height="431pt"
 viewBox="0.00 0.00 334.50 431.00" xmlns="http://www.w3.org/2000/svg" xmlns:xlink="http://www.w3.org/1999/xlink">
<g id="graph0" class="graph" transform="scale(1 1) rotate(0) translate(4 427)">
<title>/home/jbigot/data/projects/pdi/pdi/src/datatype.cxx</title>
<polygon fill="#ffffff" stroke="transparent" points="-4,4 -4,-427 330.5,-427 330.5,4 -4,4"/>
<!-- Node0 -->
<g id="node1" class="node">
<title>Node0</title>
<polygon fill="#bfbfbf" stroke="#000000" points=".5,-392.5 .5,-422.5 138.5,-422.5 138.5,-392.5 .5,-392.5"/>
<text text-anchor="start" x="8.5" y="-410.5" font-family="Helvetica,sans-Serif" font-size="10.00" fill="#000000">/home/jbigot/data/projects</text>
<text text-anchor="middle" x="69.5" y="-399.5" font-family="Helvetica,sans-Serif" font-size="10.00" fill="#000000">/pdi/pdi/src/datatype.cxx</text>
</g>
<!-- Node1 -->
<g id="node2" class="node">
<title>Node1</title>
<polygon fill="#ffffff" stroke="#bfbfbf" points="0,-336.5 0,-355.5 53,-355.5 53,-336.5 0,-336.5"/>
<text text-anchor="middle" x="26.5" y="-343.5" font-family="Helvetica,sans-Serif" font-size="10.00" fill="#000000">config.h</text>
</g>
<!-- Node0&#45;&gt;Node1 -->
<g id="edge1" class="edge">
<title>Node0&#45;&gt;Node1</title>
<path fill="none" stroke="#191970" d="M58.8708,-392.2977C52.9019,-383.7609 45.4162,-373.0545 39.1471,-364.0883"/>
<polygon fill="#191970" stroke="#191970" points="41.9835,-362.0368 33.3848,-355.8469 36.2466,-366.048 41.9835,-362.0368"/>
</g>
<!-- Node2 -->
<g id="node3" class="node">
<title>Node2</title>
<g id="a_node3"><a xlink:href="datatype_8h.html" target="_top" xlink:title="pdi/datatype.h">
<polygon fill="#ffffff" stroke="#000000" points="71,-336.5 71,-355.5 154,-355.5 154,-336.5 71,-336.5"/>
<text text-anchor="middle" x="112.5" y="-343.5" font-family="Helvetica,sans-Serif" font-size="10.00" fill="#000000">pdi/datatype.h</text>
</a>
</g>
</g>
<!-- Node0&#45;&gt;Node2 -->
<g id="edge2" class="edge">
<title>Node0&#45;&gt;Node2</title>
<path fill="none" stroke="#191970" d="M80.1292,-392.2977C86.0981,-383.7609 93.5838,-373.0545 99.8529,-364.0883"/>
<polygon fill="#191970" stroke="#191970" points="102.7534,-366.048 105.6152,-355.8469 97.0165,-362.0368 102.7534,-366.048"/>
</g>
<!-- Node3 -->
<g id="node4" class="node">
<title>Node3</title>
<g id="a_node4"><a xlink:href="pdi__fwd_8h.html" target="_top" xlink:title="pdi/pdi_fwd.h">
<polygon fill="#ffffff" stroke="#000000" points="99,-112.5 99,-131.5 178,-131.5 178,-112.5 99,-112.5"/>
<text text-anchor="middle" x="138.5" y="-119.5" font-family="Helvetica,sans-Serif" font-size="10.00" fill="#000000">pdi/pdi_fwd.h</text>
</a>
</g>
</g>
<!-- Node2&#45;&gt;Node3 -->
<g id="edge3" class="edge">
<title>Node2&#45;&gt;Node3</title>
<path fill="none" stroke="#191970" d="M105.3985,-336.3724C99.2948,-327.4569 90.9483,-313.5662 87.5,-300 85.3102,-291.3851 86.4511,-288.8268 87.5,-280 93.5422,-229.154 96.5235,-215.9445 114.5,-168 118.0459,-158.543 123.0896,-148.5457 127.639,-140.2957"/>
<polygon fill="#191970" stroke="#191970" points="130.7133,-141.9699 132.633,-131.5504 124.6347,-138.4986 130.7133,-141.9699"/>
</g>
<!-- Node9 -->
<g id="node10" class="node">
<title>Node9</title>
<g id="a_node10"><a xlink:href="datatype__template_8h.html" target="_top" xlink:title="pdi/datatype_template.h">
<polygon fill="#ffffff" stroke="#000000" points="96.5,-280.5 96.5,-299.5 226.5,-299.5 226.5,-280.5 96.5,-280.5"/>
<text text-anchor="middle" x="161.5" y="-287.5" font-family="Helvetica,sans-Serif" font-size="10.00" fill="#000000">pdi/datatype_template.h</text>
</a>
</g>
</g>
<!-- Node2&#45;&gt;Node9 -->
<g id="edge9" class="edge">
<title>Node2&#45;&gt;Node9</title>
<path fill="none" stroke="#191970" d="M121.0351,-336.2455C127.9912,-328.2958 137.9883,-316.8706 146.3051,-307.3656"/>
<polygon fill="#191970" stroke="#191970" points="149.1116,-309.4732 153.0627,-299.6427 143.8436,-304.8637 149.1116,-309.4732"/>
</g>
<!-- Node4 -->
<g id="node5" class="node">
<title>Node4</title>
<polygon fill="#ffffff" stroke="#bfbfbf" points="108.5,-56.5 108.5,-75.5 162.5,-75.5 162.5,-56.5 108.5,-56.5"/>
<text text-anchor="middle" x="135.5" y="-63.5" font-family="Helvetica,sans-Serif" font-size="10.00" fill="#000000">memory</text>
</g>
<!-- Node3&#45;&gt;Node4 -->
<g id="edge4" class="edge">
<title>Node3&#45;&gt;Node4</title>
<path fill="none" stroke="#191970" d="M137.9774,-112.2455C137.586,-104.9382 137.0372,-94.6944 136.5556,-85.7046"/>
<polygon fill="#191970" stroke="#191970" points="140.0466,-85.4411 136.0166,-75.6427 133.0566,-85.8156 140.0466,-85.4411"/>
</g>
<!-- Node5 -->
<g id="node6" class="node">
<title>Node5</title>
<g id="a_node6"><a xlink:href="pdi_8h.html" target="_top" xlink:title="pdi.h">
<polygon fill="#ffffff" stroke="#000000" points="181,-56.5 181,-75.5 220,-75.5 220,-56.5 181,-56.5"/>
<text text-anchor="middle" x="200.5" y="-63.5" font-family="Helvetica,sans-Serif" font-size="10.00" fill="#000000">pdi.h</text>
</a>
</g>
</g>
<!-- Node3&#45;&gt;Node5 -->
<g id="edge5" class="edge">
<title>Node3&#45;&gt;Node5</title>
<path fill="none" stroke="#191970" d="M149.2996,-112.2455C158.3678,-104.0549 171.5206,-92.1749 182.2245,-82.5069"/>
<polygon fill="#191970" stroke="#191970" points="184.7491,-84.9429 189.8242,-75.6427 180.0571,-79.7482 184.7491,-84.9429"/>
</g>
<!-- Node6 -->
<g id="node7" class="node">
<title>Node6</title>
<polygon fill="#ffffff" stroke="#bfbfbf" points="257,-.5 257,-19.5 324,-19.5 324,-.5 257,-.5"/>
<text text-anchor="middle" x="290.5" y="-7.5" font-family="Helvetica,sans-Serif" font-size="10.00" fill="#000000">paraconf.h</text>
</g>
<!-- Node5&#45;&gt;Node6 -->
<g id="edge6" class="edge">
<title>Node5&#45;&gt;Node6</title>
<path fill="none" stroke="#191970" d="M216.1768,-56.2455C229.9856,-47.6534 250.3193,-35.0014 266.2292,-25.1018"/>
<polygon fill="#191970" stroke="#191970" points="268.3613,-27.8974 275.0028,-19.6427 264.6632,-21.954 268.3613,-27.8974"/>
</g>
<!-- Node7 -->
<g id="node8" class="node">
<title>Node7</title>
<polygon fill="#ffffff" stroke="#bfbfbf" points="71.5,-.5 71.5,-19.5 143.5,-19.5 143.5,-.5 71.5,-.5"/>
<text text-anchor="middle" x="107.5" y="-7.5" font-family="Helvetica,sans-Serif" font-size="10.00" fill="#000000">pdi/export.h</text>
</g>
<!-- Node5&#45;&gt;Node7 -->
<g id="edge7" class="edge">
<title>Node5&#45;&gt;Node7</title>
<path fill="none" stroke="#191970" d="M184.3006,-56.2455C169.8982,-47.5731 148.6268,-34.7645 132.1201,-24.825"/>
<polygon fill="#191970" stroke="#191970" points="133.886,-21.8028 123.5137,-19.6427 130.275,-27.7996 133.886,-21.8028"/>
</g>
<!-- Node8 -->
<g id="node9" class="node">
<title>Node8</title>
<polygon fill="#ffffff" stroke="#bfbfbf" points="162,-.5 162,-19.5 239,-19.5 239,-.5 162,-.5"/>
<text text-anchor="middle" x="200.5" y="-7.5" font-family="Helvetica,sans-Serif" font-size="10.00" fill="#000000">pdi/version.h</text>
</g>
<!-- Node5&#45;&gt;Node8 -->
<g id="edge8" class="edge">
<title>Node5&#45;&gt;Node8</title>
<path fill="none" stroke="#191970" d="M200.5,-56.2455C200.5,-48.9382 200.5,-38.6944 200.5,-29.7046"/>
<polygon fill="#191970" stroke="#191970" points="204.0001,-29.6426 200.5,-19.6427 197.0001,-29.6427 204.0001,-29.6426"/>
</g>
<!-- Node9&#45;&gt;Node3 -->
<g id="edge11" class="edge">
<title>Node9&#45;&gt;Node3</title>
<path fill="none" stroke="#191970" d="M149.0788,-280.18C139.4984,-271.7529 126.9865,-258.6707 121.5,-244 108.5148,-209.2779 120.91,-165.64 130.2674,-141.0815"/>
<polygon fill="#191970" stroke="#191970" points="133.6283,-142.106 134.1299,-131.5231 127.1382,-139.4834 133.6283,-142.106"/>
</g>
<!-- Node9&#45;&gt;Node6 -->
<g id="edge10" class="edge">
<title>Node9&#45;&gt;Node6</title>
<path fill="none" stroke="#191970" d="M205.2838,-280.38C254.1658,-266.7571 326.5,-236.684 326.5,-178 326.5,-178 326.5,-178 326.5,-122 326.5,-87.7942 311.0926,-50.4094 300.4369,-28.6445"/>
<polygon fill="#191970" stroke="#191970" points="303.4659,-26.8795 295.8119,-19.5538 297.227,-30.0537 303.4659,-26.8795"/>
</g>
<!-- Node10 -->
<g id="node11" class="node">
<title>Node10</title>
<g id="a_node11"><a xlink:href="logger_8h.html" target="_top" xlink:title="pdi/logger.h">
<polygon fill="#ffffff" stroke="#000000" points="130.5,-224.5 130.5,-243.5 202.5,-243.5 202.5,-224.5 130.5,-224.5"/>
<text text-anchor="middle" x="166.5" y="-231.5" font-family="Helvetica,sans-Serif" font-size="10.00" fill="#000000">pdi/logger.h</text>
</a>
</g>
</g>
<!-- Node9&#45;&gt;Node10 -->
<g id="edge12" class="edge">
<title>Node9&#45;&gt;Node10</title>
<path fill="none" stroke="#191970" d="M162.3709,-280.2455C163.0234,-272.9382 163.938,-262.6944 164.7407,-253.7046"/>
<polygon fill="#191970" stroke="#191970" points="168.2358,-253.9143 165.639,-243.6427 161.2635,-253.2918 168.2358,-253.9143"/>
</g>
<!-- Node10&#45;&gt;Node3 -->
<g id="edge13" class="edge">
<title>Node10&#45;&gt;Node3</title>
<path fill="none" stroke="#191970" d="M164.1127,-224.4509C159.5253,-206.1013 149.3977,-165.5908 143.3423,-141.3693"/>
<polygon fill="#191970" stroke="#191970" points="146.7022,-140.3774 140.8812,-131.5249 139.9112,-142.0752 146.7022,-140.3774"/>
</g>
<!-- Node11 -->
<g id="node12" class="node">
<title>Node11</title>
<g id="a_node12"><a xlink:href="paraconf__wrapper_8h.html" target="_top" xlink:title="pdi/paraconf_wrapper.h">
<polygon fill="#ffffff" stroke="#000000" points="169,-168.5 169,-187.5 298,-187.5 298,-168.5 169,-168.5"/>
<text text-anchor="middle" x="233.5" y="-175.5" font-family="Helvetica,sans-Serif" font-size="10.00" fill="#000000">pdi/paraconf_wrapper.h</text>
</a>
</g>
</g>
<!-- Node10&#45;&gt;Node11 -->
<g id="edge14" class="edge">
<title>Node10&#45;&gt;Node11</title>
<path fill="none" stroke="#191970" d="M178.1705,-224.2455C188.0661,-215.9746 202.4627,-203.9416 214.0901,-194.2232"/>
<polygon fill="#191970" stroke="#191970" points="216.535,-196.7413 221.9632,-187.6427 212.0458,-191.3703 216.535,-196.7413"/>
</g>
<!-- Node11&#45;&gt;Node3 -->
<g id="edge17" class="edge">
<title>Node11&#45;&gt;Node3</title>
<path fill="none" stroke="#191970" d="M216.9523,-168.2455C202.2401,-159.5731 180.5112,-146.7645 163.6495,-136.825"/>
<polygon fill="#191970" stroke="#191970" points="165.2502,-133.7057 154.8581,-131.6427 161.6954,-139.736 165.2502,-133.7057"/>
</g>
<!-- Node11&#45;&gt;Node6 -->
<g id="edge16" class="edge">
<title>Node11&#45;&gt;Node6</title>
<path fill="none" stroke="#191970" d="M241.2832,-168.3581C248.1105,-159.433 257.8113,-145.5362 263.5,-132 277.9387,-97.6436 285.1577,-54.4578 288.3446,-29.7645"/>
<polygon fill="#191970" stroke="#191970" points="291.8559,-29.8772 289.568,-19.5324 284.9054,-29.0461 291.8559,-29.8772"/>
</g>
<!-- Node12 -->
<g id="node13" class="node">
<title>Node12</title>
<polygon fill="#ffffff" stroke="#bfbfbf" points="212,-112.5 212,-131.5 255,-131.5 255,-112.5 212,-112.5"/>
<text text-anchor="middle" x="233.5" y="-119.5" font-family="Helvetica,sans-Serif" font-size="10.00" fill="#000000">string</text>
</g>
<!-- Node11&#45;&gt;Node12 -->
<g id="edge15" class="edge">
<title>Node11&#45;&gt;Node12</title>
<path fill="none" stroke="#191970" d="M233.5,-168.2455C233.5,-160.9382 233.5,-150.6944 233.5,-141.7046"/>
<polygon fill="#191970" stroke="#191970" points="237.0001,-141.6426 233.5,-131.6427 230.0001,-141.6427 237.0001,-141.6426"/>
</g>
</g>
</svg>
