<?xml version="1.0" encoding="UTF-8" standalone="no"?>
<!DOCTYPE svg PUBLIC "-//W3C//DTD SVG 1.1//EN"
 "http://www.w3.org/Graphics/SVG/1.1/DTD/svg11.dtd">
<!-- Generated by graphviz version 2.40.1 (20161225.0304)
 -->
<!-- Title: /home/jbigot/data/projects/pdi/pdi/include/pdi/data_descriptor.h Pages: 1 -->
<!--zoomable 498 -->
<svg id="main" version="1.1" xmlns="http://www.w3.org/2000/svg" xmlns:xlink="http://www.w3.org/1999/xlink" xml:space="preserve" onload="init(evt)">
<style type="text/css"><![CDATA[
.edge:hover path { stroke: red; }
.edge:hover polygon { stroke: red; fill: red; }
]]></style>
<script type="text/javascript"><![CDATA[
var edges = document.getElementsByTagName('g');
if (edges && edges.length) {
  for (var i=0;i<edges.length;i++) {
    if (edges[i].id.substr(0,4)=='edge') {
      edges[i].setAttribute('class','edge');
    }
  }
}
]]></script>
        <defs>
                <circle id="rim" cx="0" cy="0" r="7"/>
                <circle id="rim2" cx="0" cy="0" r="3.5"/>
                <g id="zoomPlus">
                        <use xlink:href="#rim" fill="#404040">
                                <set attributeName="fill" to="#808080" begin="zoomplus.mouseover" end="zoomplus.mouseout"/>
                        </use>
                        <path d="M-4,0h8M0,-4v8" fill="none" stroke="white" stroke-width="1.5" pointer-events="none"/>
                </g>
                <g id="zoomMin">
                        <use xlink:href="#rim" fill="#404040">
                                <set attributeName="fill" to="#808080" begin="zoomminus.mouseover" end="zoomminus.mouseout"/>
                        </use>
                        <path d="M-4,0h8" fill="none" stroke="white" stroke-width="1.5" pointer-events="none"/>
                </g>
                <g id="dirArrow">
                        <path fill="none" stroke="white" stroke-width="1.5" d="M0,-3.0v7 M-2.5,-0.5L0,-3.0L2.5,-0.5"/>
                </g>
               <g id="resetDef">
                       <use xlink:href="#rim2" fill="#404040">
                               <set attributeName="fill" to="#808080" begin="reset.mouseover" end="reset.mouseout"/>
                       </use>
               </g>
        </defs>

<script type="text/javascript">
var viewWidth = 629;
var viewHeight = 498;
var sectionId = 'dynsection-0';
</script>
<script xlink:href="svgpan.js"/>
<svg id="graph" class="graph">
<g id="viewport">
<title>/home/jbigot/data/projects/pdi/pdi/include/pdi/data_descriptor.h</title>
<polygon fill="#ffffff" stroke="transparent" points="-4,4 -4,-494 625,-494 625,4 -4,4"/>
<!-- Node0 -->
<g id="node1" class="node">
<title>Node0</title>
<polygon fill="#bfbfbf" stroke="#000000" points="71,-448.5 71,-489.5 209,-489.5 209,-448.5 71,-448.5"/>
<text text-anchor="start" x="79" y="-477.5" font-family="Helvetica,sans-Serif" font-size="10.00" fill="#000000">/home/jbigot/data/projects</text>
<text text-anchor="start" x="79" y="-466.5" font-family="Helvetica,sans-Serif" font-size="10.00" fill="#000000">/pdi/pdi/include/pdi/data</text>
<text text-anchor="middle" x="140" y="-455.5" font-family="Helvetica,sans-Serif" font-size="10.00" fill="#000000">_descriptor.h</text>
</g>
<!-- Node1 -->
<g id="node2" class="node">
<title>Node1</title>
<polygon fill="#ffffff" stroke="#bfbfbf" points="339.5,-.5 339.5,-19.5 406.5,-19.5 406.5,-.5 339.5,-.5"/>
<text text-anchor="middle" x="373" y="-7.5" font-family="Helvetica,sans-Serif" font-size="10.00" fill="#000000">paraconf.h</text>
</g>
<!-- Node0&#45;&gt;Node1 -->
<g id="edge1" class="edge">
<title>Node0&#45;&gt;Node1</title>
<path fill="none" stroke="#191970" d="M88.2669,-448.3576C48.3862,-428.6438 0,-394.6923 0,-346 0,-346 0,-346 0,-122 0,-53.9913 230.3324,-23.7063 328.9976,-13.8532"/>
<polygon fill="#191970" stroke="#191970" points="329.6268,-17.3086 339.2409,-12.8567 328.9489,-10.3415 329.6268,-17.3086"/>
</g>
<!-- Node2 -->
<g id="node3" class="node">
<title>Node2</title>
<g id="a_node3"><a xlink:href="pdi__fwd_8h.html" target="_top" xlink:title="pdi/pdi_fwd.h">
<polygon fill="#ffffff" stroke="#000000" points="265.5,-112.5 265.5,-131.5 344.5,-131.5 344.5,-112.5 265.5,-112.5"/>
<text text-anchor="middle" x="305" y="-119.5" font-family="Helvetica,sans-Serif" font-size="10.00" fill="#000000">pdi/pdi_fwd.h</text>
</a>
</g>
</g>
<!-- Node0&#45;&gt;Node2 -->
<g id="edge2" class="edge">
<title>Node0&#45;&gt;Node2</title>
<path fill="none" stroke="#191970" d="M131.1439,-448.4589C114.0769,-406.086 80.0098,-306.0725 100,-224 106.6328,-196.7679 107.106,-185.4995 129,-168 148.4377,-152.4637 210.6332,-138.6245 255.5819,-130.28"/>
<polygon fill="#191970" stroke="#191970" points="256.2467,-133.7166 265.4584,-128.4826 254.9933,-126.8297 256.2467,-133.7166"/>
</g>
<!-- Node7 -->
<g id="node8" class="node">
<title>Node7</title>
<g id="a_node8"><a xlink:href="datatype__template_8h.html" target="_top" xlink:title="pdi/datatype_template.h">
<polygon fill="#ffffff" stroke="#000000" points="307,-280.5 307,-299.5 437,-299.5 437,-280.5 307,-280.5"/>
<text text-anchor="middle" x="372" y="-287.5" font-family="Helvetica,sans-Serif" font-size="10.00" fill="#000000">pdi/datatype_template.h</text>
</a>
</g>
</g>
<!-- Node0&#45;&gt;Node7 -->
<g id="edge8" class="edge">
<title>Node0&#45;&gt;Node7</title>
<path fill="none" stroke="#191970" d="M209.1182,-460.0099C314.6198,-444.7106 507.9508,-409.9283 549,-356 554.3838,-348.927 554.4378,-343.0316 549,-336 536.1883,-319.4331 489.5765,-307.7251 447.4031,-300.2676"/>
<polygon fill="#191970" stroke="#191970" points="447.8116,-296.7868 437.3654,-298.5557 446.6347,-303.6872 447.8116,-296.7868"/>
</g>
<!-- Node11 -->
<g id="node12" class="node">
<title>Node11</title>
<g id="a_node12"><a xlink:href="ref__any_8h.html" target="_top" xlink:title="pdi/ref_any.h">
<polygon fill="#ffffff" stroke="#000000" points="204,-392.5 204,-411.5 282,-411.5 282,-392.5 204,-392.5"/>
<text text-anchor="middle" x="243" y="-399.5" font-family="Helvetica,sans-Serif" font-size="10.00" fill="#000000">pdi/ref_any.h</text>
</a>
</g>
</g>
<!-- Node0&#45;&gt;Node11 -->
<g id="edge17" class="edge">
<title>Node0&#45;&gt;Node11</title>
<path fill="none" stroke="#191970" d="M171.7438,-448.3511C187.163,-438.3212 205.3671,-426.4797 219.5157,-417.2762"/>
<polygon fill="#191970" stroke="#191970" points="221.6837,-420.0413 228.1578,-411.6546 217.8667,-414.1735 221.6837,-420.0413"/>
</g>
<!-- Node3 -->
<g id="node4" class="node">
<title>Node3</title>
<polygon fill="#ffffff" stroke="#bfbfbf" points="272,-56.5 272,-75.5 326,-75.5 326,-56.5 272,-56.5"/>
<text text-anchor="middle" x="299" y="-63.5" font-family="Helvetica,sans-Serif" font-size="10.00" fill="#000000">memory</text>
</g>
<!-- Node2&#45;&gt;Node3 -->
<g id="edge3" class="edge">
<title>Node2&#45;&gt;Node3</title>
<path fill="none" stroke="#191970" d="M303.9549,-112.2455C303.172,-104.9382 302.0744,-94.6944 301.1112,-85.7046"/>
<polygon fill="#191970" stroke="#191970" points="304.5786,-85.2129 300.0331,-75.6427 297.6185,-85.9587 304.5786,-85.2129"/>
</g>
<!-- Node4 -->
<g id="node5" class="node">
<title>Node4</title>
<g id="a_node5"><a xlink:href="pdi_8h.html" target="_top" xlink:title="pdi.h">
<polygon fill="#ffffff" stroke="#000000" points="501.5,-56.5 501.5,-75.5 540.5,-75.5 540.5,-56.5 501.5,-56.5"/>
<text text-anchor="middle" x="521" y="-63.5" font-family="Helvetica,sans-Serif" font-size="10.00" fill="#000000">pdi.h</text>
</a>
</g>
</g>
<!-- Node2&#45;&gt;Node4 -->
<g id="edge4" class="edge">
<title>Node2&#45;&gt;Node4</title>
<path fill="none" stroke="#191970" d="M342.1317,-112.3733C384.3592,-101.4254 452.4659,-83.7681 491.3188,-73.6951"/>
<polygon fill="#191970" stroke="#191970" points="492.6541,-76.9647 501.4557,-71.067 490.8973,-70.1887 492.6541,-76.9647"/>
</g>
<!-- Node4&#45;&gt;Node1 -->
<g id="edge5" class="edge">
<title>Node4&#45;&gt;Node1</title>
<path fill="none" stroke="#191970" d="M501.3467,-58.5636C477.4688,-49.5287 436.7657,-34.1276 407.5955,-23.0902"/>
<polygon fill="#191970" stroke="#191970" points="408.7776,-19.7953 398.1861,-19.5299 406.3003,-26.3424 408.7776,-19.7953"/>
</g>
<!-- Node5 -->
<g id="node6" class="node">
<title>Node5</title>
<polygon fill="#ffffff" stroke="#bfbfbf" points="549,-.5 549,-19.5 621,-19.5 621,-.5 549,-.5"/>
<text text-anchor="middle" x="585" y="-7.5" font-family="Helvetica,sans-Serif" font-size="10.00" fill="#000000">pdi/export.h</text>
</g>
<!-- Node4&#45;&gt;Node5 -->
<g id="edge6" class="edge">
<title>Node4&#45;&gt;Node5</title>
<path fill="none" stroke="#191970" d="M532.1479,-56.2455C541.5087,-48.0549 555.0858,-36.1749 566.1349,-26.5069"/>
<polygon fill="#191970" stroke="#191970" points="568.7588,-28.8618 573.9798,-19.6427 564.1492,-23.5937 568.7588,-28.8618"/>
</g>
<!-- Node6 -->
<g id="node7" class="node">
<title>Node6</title>
<polygon fill="#ffffff" stroke="#bfbfbf" points="453.5,-.5 453.5,-19.5 530.5,-19.5 530.5,-.5 453.5,-.5"/>
<text text-anchor="middle" x="492" y="-7.5" font-family="Helvetica,sans-Serif" font-size="10.00" fill="#000000">pdi/version.h</text>
</g>
<!-- Node4&#45;&gt;Node6 -->
<g id="edge7" class="edge">
<title>Node4&#45;&gt;Node6</title>
<path fill="none" stroke="#191970" d="M515.9486,-56.2455C511.9981,-48.617 506.3903,-37.7881 501.5942,-28.5267"/>
<polygon fill="#191970" stroke="#191970" points="504.7001,-26.9131 496.9935,-19.6427 498.4841,-30.1321 504.7001,-26.9131"/>
</g>
<!-- Node7&#45;&gt;Node1 -->
<g id="edge9" class="edge">
<title>Node7&#45;&gt;Node1</title>
<path fill="none" stroke="#191970" d="M342.707,-280.4925C303.0024,-265.5496 237,-232.5114 237,-178 237,-178 237,-178 237,-122 237,-90.4726 240.94,-78.524 263,-56 280.979,-37.6429 307.385,-26.2728 329.8187,-19.4298"/>
<polygon fill="#191970" stroke="#191970" points="330.8168,-22.7848 339.4769,-16.6814 328.9008,-16.0521 330.8168,-22.7848"/>
</g>
<!-- Node7&#45;&gt;Node2 -->
<g id="edge10" class="edge">
<title>Node7&#45;&gt;Node2</title>
<path fill="none" stroke="#191970" d="M358.7791,-280.1921C348.4381,-271.772 334.5826,-258.6934 327,-244 309.9675,-210.9949 305.9012,-167.0489 305.0598,-141.9105"/>
<polygon fill="#191970" stroke="#191970" points="308.5569,-141.7216 304.8651,-131.7908 301.5582,-141.8563 308.5569,-141.7216"/>
</g>
<!-- Node8 -->
<g id="node9" class="node">
<title>Node8</title>
<g id="a_node9"><a xlink:href="logger_8h.html" target="_top" xlink:title="pdi/logger.h">
<polygon fill="#ffffff" stroke="#000000" points="336,-224.5 336,-243.5 408,-243.5 408,-224.5 336,-224.5"/>
<text text-anchor="middle" x="372" y="-231.5" font-family="Helvetica,sans-Serif" font-size="10.00" fill="#000000">pdi/logger.h</text>
</a>
</g>
</g>
<!-- Node7&#45;&gt;Node8 -->
<g id="edge11" class="edge">
<title>Node7&#45;&gt;Node8</title>
<path fill="none" stroke="#191970" d="M372,-280.2455C372,-272.9382 372,-262.6944 372,-253.7046"/>
<polygon fill="#191970" stroke="#191970" points="375.5001,-253.6426 372,-243.6427 368.5001,-253.6427 375.5001,-253.6426"/>
</g>
<!-- Node8&#45;&gt;Node2 -->
<g id="edge12" class="edge">
<title>Node8&#45;&gt;Node2</title>
<path fill="none" stroke="#191970" d="M362.3881,-224.4491C353.8535,-215.5852 341.4584,-201.7272 333,-188 323.9322,-173.2838 316.4627,-155.1113 311.5258,-141.5632"/>
<polygon fill="#191970" stroke="#191970" points="314.7319,-140.1281 308.1274,-131.8437 308.1241,-142.4385 314.7319,-140.1281"/>
</g>
<!-- Node9 -->
<g id="node10" class="node">
<title>Node9</title>
<g id="a_node10"><a xlink:href="paraconf__wrapper_8h.html" target="_top" xlink:title="pdi/paraconf_wrapper.h">
<polygon fill="#ffffff" stroke="#000000" points="341.5,-168.5 341.5,-187.5 470.5,-187.5 470.5,-168.5 341.5,-168.5"/>
<text text-anchor="middle" x="406" y="-175.5" font-family="Helvetica,sans-Serif" font-size="10.00" fill="#000000">pdi/paraconf_wrapper.h</text>
</a>
</g>
</g>
<!-- Node8&#45;&gt;Node9 -->
<g id="edge13" class="edge">
<title>Node8&#45;&gt;Node9</title>
<path fill="none" stroke="#191970" d="M377.9223,-224.2455C382.6027,-216.5367 389.2673,-205.5598 394.9289,-196.2348"/>
<polygon fill="#191970" stroke="#191970" points="397.9475,-198.007 400.1455,-187.6427 391.9639,-194.3741 397.9475,-198.007"/>
</g>
<!-- Node9&#45;&gt;Node1 -->
<g id="edge15" class="edge">
<title>Node9&#45;&gt;Node1</title>
<path fill="none" stroke="#191970" d="M402.8861,-168.2113C400.0243,-158.9543 395.8121,-144.6372 393,-132 385.0311,-96.1888 378.7875,-53.81 375.5179,-29.599"/>
<polygon fill="#191970" stroke="#191970" points="378.9715,-29.0175 374.1932,-19.5614 372.0317,-29.9334 378.9715,-29.0175"/>
</g>
<!-- Node9&#45;&gt;Node2 -->
<g id="edge16" class="edge">
<title>Node9&#45;&gt;Node2</title>
<path fill="none" stroke="#191970" d="M388.4071,-168.2455C372.621,-159.4928 349.2361,-146.527 331.2413,-136.5496"/>
<polygon fill="#191970" stroke="#191970" points="332.8341,-133.4308 322.3913,-131.6427 329.4397,-139.5528 332.8341,-133.4308"/>
</g>
<!-- Node10 -->
<g id="node11" class="node">
<title>Node10</title>
<polygon fill="#ffffff" stroke="#bfbfbf" points="401.5,-112.5 401.5,-131.5 444.5,-131.5 444.5,-112.5 401.5,-112.5"/>
<text text-anchor="middle" x="423" y="-119.5" font-family="Helvetica,sans-Serif" font-size="10.00" fill="#000000">string</text>
</g>
<!-- Node9&#45;&gt;Node10 -->
<g id="edge14" class="edge">
<title>Node9&#45;&gt;Node10</title>
<path fill="none" stroke="#191970" d="M408.9612,-168.2455C411.2038,-160.8579 414.3577,-150.4689 417.1081,-141.4087"/>
<polygon fill="#191970" stroke="#191970" points="420.517,-142.2282 420.0728,-131.6427 413.8188,-140.1948 420.517,-142.2282"/>
</g>
<!-- Node11&#45;&gt;Node2 -->
<g id="edge23" class="edge">
<title>Node11&#45;&gt;Node2</title>
<path fill="none" stroke="#191970" d="M203.8203,-394.2619C180.5508,-387.7522 152.1379,-376.152 134,-356 113.4952,-333.2182 114,-320.6506 114,-290 114,-290 114,-290 114,-234 114,-168.364 198.9699,-140.4591 255.5624,-129.1526"/>
<polygon fill="#191970" stroke="#191970" points="256.2474,-132.5852 265.4247,-127.291 254.949,-125.7067 256.2474,-132.5852"/>
</g>
<!-- Node11&#45;&gt;Node3 -->
<g id="edge20" class="edge">
<title>Node11&#45;&gt;Node3</title>
<path fill="none" stroke="#191970" d="M203.6848,-392.4986C170.7521,-383.7217 127.3534,-369.9655 116,-356 78.7217,-310.145 86.015,-281.4175 100,-224 118.8303,-146.6896 209.9182,-99.8849 262.0916,-78.9783"/>
<polygon fill="#191970" stroke="#191970" points="263.6117,-82.1426 271.6645,-75.2576 261.0758,-75.6181 263.6117,-82.1426"/>
</g>
<!-- Node12 -->
<g id="node13" class="node">
<title>Node12</title>
<polygon fill="#ffffff" stroke="#bfbfbf" points="142.5,-336.5 142.5,-355.5 193.5,-355.5 193.5,-336.5 142.5,-336.5"/>
<text text-anchor="middle" x="168" y="-343.5" font-family="Helvetica,sans-Serif" font-size="10.00" fill="#000000">cassert</text>
</g>
<!-- Node11&#45;&gt;Node12 -->
<g id="edge18" class="edge">
<title>Node11&#45;&gt;Node12</title>
<path fill="none" stroke="#191970" d="M229.936,-392.2455C218.6438,-383.814 202.1155,-371.4729 188.9729,-361.6598"/>
<polygon fill="#191970" stroke="#191970" points="191.0211,-358.8211 180.9143,-355.6427 186.8331,-364.4301 191.0211,-358.8211"/>
</g>
<!-- Node13 -->
<g id="node14" class="node">
<title>Node13</title>
<polygon fill="#ffffff" stroke="#bfbfbf" points="212,-336.5 212,-355.5 274,-355.5 274,-336.5 212,-336.5"/>
<text text-anchor="middle" x="243" y="-343.5" font-family="Helvetica,sans-Serif" font-size="10.00" fill="#000000">functional</text>
</g>
<!-- Node11&#45;&gt;Node13 -->
<g id="edge19" class="edge">
<title>Node11&#45;&gt;Node13</title>
<path fill="none" stroke="#191970" d="M243,-392.2455C243,-384.9382 243,-374.6944 243,-365.7046"/>
<polygon fill="#191970" stroke="#191970" points="246.5001,-365.6426 243,-355.6427 239.5001,-365.6427 246.5001,-365.6426"/>
</g>
<!-- Node14 -->
<g id="node15" class="node">
<title>Node14</title>
<polygon fill="#ffffff" stroke="#bfbfbf" points="292,-336.5 292,-355.5 328,-355.5 328,-336.5 292,-336.5"/>
<text text-anchor="middle" x="310" y="-343.5" font-family="Helvetica,sans-Serif" font-size="10.00" fill="#000000">new</text>
</g>
<!-- Node11&#45;&gt;Node14 -->
<g id="edge21" class="edge">
<title>Node11&#45;&gt;Node14</title>
<path fill="none" stroke="#191970" d="M254.6705,-392.2455C264.5661,-383.9746 278.9627,-371.9416 290.5901,-362.2232"/>
<polygon fill="#191970" stroke="#191970" points="293.035,-364.7413 298.4632,-355.6427 288.5458,-359.3703 293.035,-364.7413"/>
</g>
<!-- Node15 -->
<g id="node16" class="node">
<title>Node15</title>
<polygon fill="#ffffff" stroke="#bfbfbf" points="346,-336.5 346,-355.5 438,-355.5 438,-336.5 346,-336.5"/>
<text text-anchor="middle" x="392" y="-343.5" font-family="Helvetica,sans-Serif" font-size="10.00" fill="#000000">unordered_map</text>
</g>
<!-- Node11&#45;&gt;Node15 -->
<g id="edge22" class="edge">
<title>Node11&#45;&gt;Node15</title>
<path fill="none" stroke="#191970" d="M268.614,-392.3733C293.0687,-383.1822 330.1054,-369.2624 357.2209,-359.0713"/>
<polygon fill="#191970" stroke="#191970" points="358.5909,-362.2956 366.7202,-355.5011 356.1281,-355.7431 358.5909,-362.2956"/>
</g>
<!-- Node16 -->
<g id="node17" class="node">
<title>Node16</title>
<g id="a_node17"><a xlink:href="datatype_8h.html" target="_top" xlink:title="pdi/datatype.h">
<polygon fill="#ffffff" stroke="#000000" points="456.5,-336.5 456.5,-355.5 539.5,-355.5 539.5,-336.5 456.5,-336.5"/>
<text text-anchor="middle" x="498" y="-343.5" font-family="Helvetica,sans-Serif" font-size="10.00" fill="#000000">pdi/datatype.h</text>
</a>
</g>
</g>
<!-- Node11&#45;&gt;Node16 -->
<g id="edge24" class="edge">
<title>Node11&#45;&gt;Node16</title>
<path fill="none" stroke="#191970" d="M282.0066,-393.4338C326.0321,-383.7655 397.8348,-367.9971 446.4525,-357.3202"/>
<polygon fill="#191970" stroke="#191970" points="447.4403,-360.6868 456.4568,-355.1232 445.9387,-353.8497 447.4403,-360.6868"/>
</g>
<!-- Node17 -->
<g id="node18" class="node">
<title>Node17</title>
<g id="a_node18"><a xlink:href="error_8h.html" target="_top" xlink:title="pdi/error.h">
<polygon fill="#ffffff" stroke="#000000" points="488.5,-168.5 488.5,-187.5 553.5,-187.5 553.5,-168.5 488.5,-168.5"/>
<text text-anchor="middle" x="521" y="-175.5" font-family="Helvetica,sans-Serif" font-size="10.00" fill="#000000">pdi/error.h</text>
</a>
</g>
</g>
<!-- Node11&#45;&gt;Node17 -->
<g id="edge27" class="edge">
<title>Node11&#45;&gt;Node17</title>
<path fill="none" stroke="#191970" d="M282.116,-398.9416C360.7082,-392.3991 531.7817,-376.0002 549,-356 588.5507,-310.0594 552.1814,-231.6776 532.1666,-196.2911"/>
<polygon fill="#191970" stroke="#191970" points="535.1021,-194.3776 527.0318,-187.5132 529.06,-197.9121 535.1021,-194.3776"/>
</g>
<!-- Node16&#45;&gt;Node2 -->
<g id="edge25" class="edge">
<title>Node16&#45;&gt;Node2</title>
<path fill="none" stroke="#191970" d="M456.4289,-337.8073C399.3042,-326.3534 302.9791,-306.2543 298,-300 261.1669,-253.7336 283.2642,-177.2726 296.8063,-141.5381"/>
<polygon fill="#191970" stroke="#191970" points="300.2219,-142.4199 300.6596,-131.8341 293.7161,-139.8364 300.2219,-142.4199"/>
</g>
<!-- Node16&#45;&gt;Node7 -->
<g id="edge26" class="edge">
<title>Node16&#45;&gt;Node7</title>
<path fill="none" stroke="#191970" d="M476.3398,-336.3733C456.0228,-327.3435 425.436,-313.7494 402.625,-303.6111"/>
<polygon fill="#191970" stroke="#191970" points="403.9372,-300.3642 393.3775,-299.5011 401.0941,-306.7609 403.9372,-300.3642"/>
</g>
<!-- Node17&#45;&gt;Node1 -->
<g id="edge30" class="edge">
<title>Node17&#45;&gt;Node1</title>
<path fill="none" stroke="#191970" d="M512.6188,-168.4862C488.6158,-141.2396 419.3532,-62.6172 388.337,-27.4096"/>
<polygon fill="#191970" stroke="#191970" points="390.8945,-25.0179 381.6579,-19.8279 385.642,-29.6451 390.8945,-25.0179"/>
</g>
<!-- Node17&#45;&gt;Node2 -->
<g id="edge31" class="edge">
<title>Node17&#45;&gt;Node2</title>
<path fill="none" stroke="#191970" d="M488.1942,-169.4948C451.7787,-160.0537 392.7205,-144.7424 351.5368,-134.0651"/>
<polygon fill="#191970" stroke="#191970" points="352.2954,-130.6461 341.737,-131.5244 350.5386,-137.4221 352.2954,-130.6461"/>
</g>
<!-- Node17&#45;&gt;Node10 -->
<g id="edge29" class="edge">
<title>Node17&#45;&gt;Node10</title>
<path fill="none" stroke="#191970" d="M503.9297,-168.2455C488.753,-159.5731 466.3379,-146.7645 448.9437,-136.825"/>
<polygon fill="#191970" stroke="#191970" points="450.2936,-133.5653 439.8747,-131.6427 446.8206,-139.643 450.2936,-133.5653"/>
</g>
<!-- Node18 -->
<g id="node19" class="node">
<title>Node18</title>
<polygon fill="#ffffff" stroke="#bfbfbf" points="501,-112.5 501,-131.5 563,-131.5 563,-112.5 501,-112.5"/>
<text text-anchor="middle" x="532" y="-119.5" font-family="Helvetica,sans-Serif" font-size="10.00" fill="#000000">exception</text>
</g>
<!-- Node17&#45;&gt;Node18 -->
<g id="edge28" class="edge">
<title>Node17&#45;&gt;Node18</title>
<path fill="none" stroke="#191970" d="M522.9161,-168.2455C524.3514,-160.9382 526.3636,-150.6944 528.1295,-141.7046"/>
<polygon fill="#191970" stroke="#191970" points="531.6127,-142.1298 530.1059,-131.6427 524.744,-140.7805 531.6127,-142.1298"/>
</g>
</g>
</svg>
        <g id="navigator" transform="translate(0 0)" fill="#404254">
                <rect fill="#f2f5e9" fill-opacity="0.5" stroke="#606060" stroke-width=".5" x="0" y="0" width="60" height="60"/>
                <use id="zoomplus" xlink:href="#zoomPlus" x="17" y="9" onmousedown="handleZoom(evt,'in')"/>
                <use id="zoomminus" xlink:href="#zoomMin" x="42" y="9" onmousedown="handleZoom(evt,'out')"/>
                <use id="reset" xlink:href="#resetDef" x="30" y="36" onmousedown="handleReset()"/>
                <g id="arrowUp" xlink:href="#dirArrow" transform="translate(30 24)" onmousedown="handlePan(0,-1)">
                  <use xlink:href="#rim" fill="#404040">
                        <set attributeName="fill" to="#808080" begin="arrowUp.mouseover" end="arrowUp.mouseout"/>
                  </use>
                  <path fill="none" stroke="white" stroke-width="1.5" d="M0,-3.0v7 M-2.5,-0.5L0,-3.0L2.5,-0.5"/>
                </g>
                <g id="arrowRight" xlink:href="#dirArrow" transform="rotate(90) translate(36 -43)" onmousedown="handlePan(1,0)">
                  <use xlink:href="#rim" fill="#404040">
                        <set attributeName="fill" to="#808080" begin="arrowRight.mouseover" end="arrowRight.mouseout"/>
                  </use>
                  <path fill="none" stroke="white" stroke-width="1.5" d="M0,-3.0v7 M-2.5,-0.5L0,-3.0L2.5,-0.5"/>
                </g>
                <g id="arrowDown" xlink:href="#dirArrow" transform="rotate(180) translate(-30 -48)" onmousedown="handlePan(0,1)">
                  <use xlink:href="#rim" fill="#404040">
                        <set attributeName="fill" to="#808080" begin="arrowDown.mouseover" end="arrowDown.mouseout"/>
                  </use>
                  <path fill="none" stroke="white" stroke-width="1.5" d="M0,-3.0v7 M-2.5,-0.5L0,-3.0L2.5,-0.5"/>
                </g>
                <g id="arrowLeft" xlink:href="#dirArrow" transform="rotate(270) translate(-36 17)" onmousedown="handlePan(-1,0)">
                  <use xlink:href="#rim" fill="#404040">
                        <set attributeName="fill" to="#808080" begin="arrowLeft.mouseover" end="arrowLeft.mouseout"/>
                  </use>
                  <path fill="none" stroke="white" stroke-width="1.5" d="M0,-3.0v7 M-2.5,-0.5L0,-3.0L2.5,-0.5"/>
                </g>
        </g>
        <svg viewBox="0 0 15 15" width="100%" height="30px" preserveAspectRatio="xMaxYMin meet">
         <g id="arrow_out" transform="scale(0.3 0.3)">
          <a xlink:href="data__descriptor_8h__incl_org.svg" target="_base">
           <rect id="button" ry="5" rx="5" y="6" x="6" height="38" width="38"
                fill="#f2f5e9" fill-opacity="0.5" stroke="#606060" stroke-width="1.0"/>
           <path id="arrow"
             d="M 11.500037,31.436501 C 11.940474,20.09759 22.043105,11.32322 32.158766,21.979434 L 37.068811,17.246167 C 37.068811,17.246167 37.088388,32 37.088388,32 L 22.160133,31.978069 C 22.160133,31.978069 26.997745,27.140456 26.997745,27.140456 C 18.528582,18.264221 13.291696,25.230495 11.500037,31.436501 z"
             style="fill:#404040;"/>
          </a>
         </g>
        </svg>
</svg>
