<?xml version="1.0" encoding="UTF-8" standalone="no"?>
<!DOCTYPE svg PUBLIC "-//W3C//DTD SVG 1.1//EN"
 "http://www.w3.org/Graphics/SVG/1.1/DTD/svg11.dtd">
<!-- Generated by graphviz version 2.40.1 (20161225.0304)
 -->
<!-- Title: /home/jbigot/data/projects/pdi/pdi/src/data_descriptor_impl.h Pages: 1 -->
<svg width="1179pt" height="655pt"
 viewBox="0.00 0.00 1179.00 655.00" xmlns="http://www.w3.org/2000/svg" xmlns:xlink="http://www.w3.org/1999/xlink">
<g id="graph0" class="graph" transform="scale(1 1) rotate(0) translate(4 651)">
<title>/home/jbigot/data/projects/pdi/pdi/src/data_descriptor_impl.h</title>
<polygon fill="#ffffff" stroke="transparent" points="-4,4 -4,-651 1175,-651 1175,4 -4,4"/>
<!-- Node0 -->
<g id="node1" class="node">
<title>Node0</title>
<polygon fill="#bfbfbf" stroke="#000000" points="165.5,-616.5 165.5,-646.5 344.5,-646.5 344.5,-616.5 165.5,-616.5"/>
<text text-anchor="start" x="173.5" y="-634.5" font-family="Helvetica,sans-Serif" font-size="10.00" fill="#000000">/home/jbigot/data/projects</text>
<text text-anchor="middle" x="255" y="-623.5" font-family="Helvetica,sans-Serif" font-size="10.00" fill="#000000">/pdi/pdi/src/data_descriptor_impl.h</text>
</g>
<!-- Node1 -->
<g id="node2" class="node">
<title>Node1</title>
<polygon fill="#ffffff" stroke="#bfbfbf" points="977,-336.5 977,-355.5 1039,-355.5 1039,-336.5 977,-336.5"/>
<text text-anchor="middle" x="1008" y="-343.5" font-family="Helvetica,sans-Serif" font-size="10.00" fill="#000000">functional</text>
</g>
<!-- Node0&#45;&gt;Node1 -->
<g id="edge1" class="edge">
<title>Node0&#45;&gt;Node1</title>
<path fill="none" stroke="#191970" d="M344.8353,-628.7815C568.6079,-620.8187 1133,-592.9132 1133,-514 1133,-514 1133,-514 1133,-458 1133,-431.1382 1068.1613,-384.8735 1031.8795,-361.0878"/>
<polygon fill="#191970" stroke="#191970" points="1033.6238,-358.0477 1023.3275,-355.5505 1029.8192,-363.9235 1033.6238,-358.0477"/>
</g>
<!-- Node2 -->
<g id="node3" class="node">
<title>Node2</title>
<polygon fill="#ffffff" stroke="#bfbfbf" points="922,-56.5 922,-75.5 976,-75.5 976,-56.5 922,-56.5"/>
<text text-anchor="middle" x="949" y="-63.5" font-family="Helvetica,sans-Serif" font-size="10.00" fill="#000000">memory</text>
</g>
<!-- Node0&#45;&gt;Node2 -->
<g id="edge2" class="edge">
<title>Node0&#45;&gt;Node2</title>
<path fill="none" stroke="#191970" d="M344.5525,-629.2576C517.748,-624.295 892.5841,-610.336 1018,-580 1089.9812,-562.5889 1171,-588.057 1171,-514 1171,-514 1171,-514 1171,-178 1171,-96.2153 1049.416,-74.1407 986.2047,-68.1906"/>
<polygon fill="#191970" stroke="#191970" points="986.4828,-64.7017 976.2216,-67.3392 985.888,-71.6763 986.4828,-64.7017"/>
</g>
<!-- Node3 -->
<g id="node4" class="node">
<title>Node3</title>
<polygon fill="#ffffff" stroke="#bfbfbf" points="299.5,-448.5 299.5,-467.5 340.5,-467.5 340.5,-448.5 299.5,-448.5"/>
<text text-anchor="middle" x="320" y="-455.5" font-family="Helvetica,sans-Serif" font-size="10.00" fill="#000000">stack</text>
</g>
<!-- Node0&#45;&gt;Node3 -->
<g id="edge3" class="edge">
<title>Node0&#45;&gt;Node3</title>
<path fill="none" stroke="#191970" d="M260.6546,-616.4065C272.4669,-584.8767 299.7435,-512.0692 312.7919,-477.24"/>
<polygon fill="#191970" stroke="#191970" points="316.121,-478.3303 316.3518,-467.738 309.5659,-475.8745 316.121,-478.3303"/>
</g>
<!-- Node4 -->
<g id="node5" class="node">
<title>Node4</title>
<polygon fill="#ffffff" stroke="#bfbfbf" points="386.5,-.5 386.5,-19.5 453.5,-19.5 453.5,-.5 386.5,-.5"/>
<text text-anchor="middle" x="420" y="-7.5" font-family="Helvetica,sans-Serif" font-size="10.00" fill="#000000">paraconf.h</text>
</g>
<!-- Node0&#45;&gt;Node4 -->
<g id="edge4" class="edge">
<title>Node0&#45;&gt;Node4</title>
<path fill="none" stroke="#191970" d="M165.4997,-621.3794C128.478,-614.0859 86.4751,-601.5473 53,-580 21.3663,-559.6379 0,-551.6206 0,-514 0,-514 0,-514 0,-122 0,-44.7678 268.4958,-19.4383 376.1373,-12.3869"/>
<polygon fill="#191970" stroke="#191970" points="376.5803,-15.8659 386.3396,-11.742 376.1387,-8.8799 376.5803,-15.8659"/>
</g>
<!-- Node5 -->
<g id="node6" class="node">
<title>Node5</title>
<g id="a_node6"><a xlink:href="pdi__fwd_8h.html" target="_top" xlink:title="pdi/pdi_fwd.h">
<polygon fill="#ffffff" stroke="#000000" points="382.5,-112.5 382.5,-131.5 461.5,-131.5 461.5,-112.5 382.5,-112.5"/>
<text text-anchor="middle" x="422" y="-119.5" font-family="Helvetica,sans-Serif" font-size="10.00" fill="#000000">pdi/pdi_fwd.h</text>
</a>
</g>
</g>
<!-- Node0&#45;&gt;Node5 -->
<g id="edge5" class="edge">
<title>Node0&#45;&gt;Node5</title>
<path fill="none" stroke="#191970" d="M165.485,-618.8398C105.7099,-604.7478 38,-575.264 38,-514 38,-514 38,-514 38,-234 38,-165.1829 268.1598,-135.7912 372.1033,-126.0265"/>
<polygon fill="#191970" stroke="#191970" points="372.712,-129.4855 382.3516,-125.0891 372.0743,-122.5146 372.712,-129.4855"/>
</g>
<!-- Node9 -->
<g id="node10" class="node">
<title>Node9</title>
<g id="a_node10"><a xlink:href="data__descriptor_8h.html" target="_top" xlink:title="pdi/data_descriptor.h">
<polygon fill="#ffffff" stroke="#000000" points="165,-448.5 165,-467.5 281,-467.5 281,-448.5 165,-448.5"/>
<text text-anchor="middle" x="223" y="-455.5" font-family="Helvetica,sans-Serif" font-size="10.00" fill="#000000">pdi/data_descriptor.h</text>
</a>
</g>
</g>
<!-- Node0&#45;&gt;Node9 -->
<g id="edge11" class="edge">
<title>Node0&#45;&gt;Node9</title>
<path fill="none" stroke="#191970" d="M250.3541,-616.2917C247.3671,-606.0984 243.577,-592.3347 241,-580 233.516,-544.1776 228.0014,-501.8026 225.1627,-477.5953"/>
<polygon fill="#191970" stroke="#191970" points="228.6288,-477.0984 224.0182,-467.5594 221.6739,-477.8916 228.6288,-477.0984"/>
</g>
<!-- Node10 -->
<g id="node11" class="node">
<title>Node10</title>
<g id="a_node11"><a xlink:href="datatype__template_8h.html" target="_top" xlink:title="pdi/datatype_template.h">
<polygon fill="#ffffff" stroke="#000000" points="185,-280.5 185,-299.5 315,-299.5 315,-280.5 185,-280.5"/>
<text text-anchor="middle" x="250" y="-287.5" font-family="Helvetica,sans-Serif" font-size="10.00" fill="#000000">pdi/datatype_template.h</text>
</a>
</g>
</g>
<!-- Node0&#45;&gt;Node10 -->
<g id="edge38" class="edge">
<title>Node0&#45;&gt;Node10</title>
<path fill="none" stroke="#191970" d="M241.6712,-616.1775C218.7877,-588.7365 172.8632,-528.4071 156,-468 138.1554,-404.0771 198.5139,-337.0398 230.8699,-306.6854"/>
<polygon fill="#191970" stroke="#191970" points="233.4043,-309.1108 238.428,-299.7827 228.6837,-303.942 233.4043,-309.1108"/>
</g>
<!-- Node14 -->
<g id="node15" class="node">
<title>Node14</title>
<g id="a_node15"><a xlink:href="ref__any_8h.html" target="_top" xlink:title="pdi/ref_any.h">
<polygon fill="#ffffff" stroke="#000000" points="701,-392.5 701,-411.5 779,-411.5 779,-392.5 701,-392.5"/>
<text text-anchor="middle" x="740" y="-399.5" font-family="Helvetica,sans-Serif" font-size="10.00" fill="#000000">pdi/ref_any.h</text>
</a>
</g>
</g>
<!-- Node0&#45;&gt;Node14 -->
<g id="edge39" class="edge">
<title>Node0&#45;&gt;Node14</title>
<path fill="none" stroke="#191970" d="M344.6824,-623.8283C521.1751,-607.8206 899.8525,-568.6213 938,-524 947.2981,-513.124 961.5468,-478.3778 937,-448 918.6855,-425.3349 841.3432,-412.7254 789.1909,-406.6584"/>
<polygon fill="#191970" stroke="#191970" points="789.4486,-403.1655 779.1213,-405.5312 788.6698,-410.1221 789.4486,-403.1655"/>
</g>
<!-- Node21 -->
<g id="node22" class="node">
<title>Node21</title>
<g id="a_node22"><a xlink:href="global__context_8h.html" target="_top" xlink:title="global_context.h">
<polygon fill="#ffffff" stroke="#000000" points="403.5,-560.5 403.5,-579.5 496.5,-579.5 496.5,-560.5 403.5,-560.5"/>
<text text-anchor="middle" x="450" y="-567.5" font-family="Helvetica,sans-Serif" font-size="10.00" fill="#000000">global_context.h</text>
</a>
</g>
</g>
<!-- Node0&#45;&gt;Node21 -->
<g id="edge40" class="edge">
<title>Node0&#45;&gt;Node21</title>
<path fill="none" stroke="#191970" d="M302.7024,-616.4554C335.6667,-606.059 379.0123,-592.3884 410.1352,-582.5727"/>
<polygon fill="#191970" stroke="#191970" points="411.2977,-585.8761 419.7819,-579.5303 409.1922,-579.2003 411.2977,-585.8761"/>
</g>
<!-- Node5&#45;&gt;Node2 -->
<g id="edge6" class="edge">
<title>Node5&#45;&gt;Node2</title>
<path fill="none" stroke="#191970" d="M461.6107,-117.7909C560.2458,-107.3097 815.7964,-80.1545 911.809,-69.952"/>
<polygon fill="#191970" stroke="#191970" points="912.3434,-73.415 921.9175,-68.8778 911.6037,-66.4542 912.3434,-73.415"/>
</g>
<!-- Node6 -->
<g id="node7" class="node">
<title>Node6</title>
<g id="a_node7"><a xlink:href="pdi_8h.html" target="_top" xlink:title="pdi.h">
<polygon fill="#ffffff" stroke="#000000" points="691.5,-56.5 691.5,-75.5 730.5,-75.5 730.5,-56.5 691.5,-56.5"/>
<text text-anchor="middle" x="711" y="-63.5" font-family="Helvetica,sans-Serif" font-size="10.00" fill="#000000">pdi.h</text>
</a>
</g>
</g>
<!-- Node5&#45;&gt;Node6 -->
<g id="edge7" class="edge">
<title>Node5&#45;&gt;Node6</title>
<path fill="none" stroke="#191970" d="M461.5782,-114.3309C520.2963,-102.953 629.1639,-81.8575 681.4574,-71.7245"/>
<polygon fill="#191970" stroke="#191970" points="682.2734,-75.1316 691.425,-69.7931 680.9418,-68.2594 682.2734,-75.1316"/>
</g>
<!-- Node6&#45;&gt;Node4 -->
<g id="edge8" class="edge">
<title>Node6&#45;&gt;Node4</title>
<path fill="none" stroke="#191970" d="M691.3205,-59.8169C686.6521,-58.4601 681.6711,-57.1015 677,-56 602.7075,-38.4809 514.9489,-24.1055 463.5874,-16.3186"/>
<polygon fill="#191970" stroke="#191970" points="463.9156,-12.8287 453.5065,-14.8042 462.8756,-19.751 463.9156,-12.8287"/>
</g>
<!-- Node7 -->
<g id="node8" class="node">
<title>Node7</title>
<polygon fill="#ffffff" stroke="#bfbfbf" points="628,-.5 628,-19.5 700,-19.5 700,-.5 628,-.5"/>
<text text-anchor="middle" x="664" y="-7.5" font-family="Helvetica,sans-Serif" font-size="10.00" fill="#000000">pdi/export.h</text>
</g>
<!-- Node6&#45;&gt;Node7 -->
<g id="edge9" class="edge">
<title>Node6&#45;&gt;Node7</title>
<path fill="none" stroke="#191970" d="M702.8132,-56.2455C696.1411,-48.2958 686.5521,-36.8706 678.5747,-27.3656"/>
<polygon fill="#191970" stroke="#191970" points="681.2026,-25.0524 672.093,-19.6427 675.8408,-29.5525 681.2026,-25.0524"/>
</g>
<!-- Node8 -->
<g id="node9" class="node">
<title>Node8</title>
<polygon fill="#ffffff" stroke="#bfbfbf" points="718.5,-.5 718.5,-19.5 795.5,-19.5 795.5,-.5 718.5,-.5"/>
<text text-anchor="middle" x="757" y="-7.5" font-family="Helvetica,sans-Serif" font-size="10.00" fill="#000000">pdi/version.h</text>
</g>
<!-- Node6&#45;&gt;Node8 -->
<g id="edge10" class="edge">
<title>Node6&#45;&gt;Node8</title>
<path fill="none" stroke="#191970" d="M719.0126,-56.2455C725.4768,-48.3761 734.7385,-37.101 742.4983,-27.6542"/>
<polygon fill="#191970" stroke="#191970" points="745.4364,-29.5916 749.0792,-19.6427 740.0273,-25.1484 745.4364,-29.5916"/>
</g>
<!-- Node9&#45;&gt;Node4 -->
<g id="edge12" class="edge">
<title>Node9&#45;&gt;Node4</title>
<path fill="none" stroke="#191970" d="M188.535,-448.4443C145.0863,-434.0495 76,-402.3079 76,-346 76,-346 76,-346 76,-122 76,-59.5574 283.526,-26.5473 376.2044,-14.9189"/>
<polygon fill="#191970" stroke="#191970" points="376.8902,-18.3611 386.3895,-13.6692 376.0377,-11.4132 376.8902,-18.3611"/>
</g>
<!-- Node9&#45;&gt;Node5 -->
<g id="edge13" class="edge">
<title>Node9&#45;&gt;Node5</title>
<path fill="none" stroke="#191970" d="M215.9911,-448.3335C197.0213,-420.8989 147.935,-340.6188 176,-280 213.6744,-198.6253 316.5046,-154.3185 376.6209,-134.6721"/>
<polygon fill="#191970" stroke="#191970" points="377.7723,-137.9788 386.2452,-131.6181 375.655,-131.3067 377.7723,-137.9788"/>
</g>
<!-- Node9&#45;&gt;Node10 -->
<g id="edge14" class="edge">
<title>Node9&#45;&gt;Node10</title>
<path fill="none" stroke="#191970" d="M224.529,-448.4862C228.7971,-421.9293 240.9092,-346.5651 246.7591,-310.1655"/>
<polygon fill="#191970" stroke="#191970" points="250.2893,-310.2566 248.4205,-299.8279 243.378,-309.1458 250.2893,-310.2566"/>
</g>
<!-- Node9&#45;&gt;Node14 -->
<g id="edge23" class="edge">
<title>Node9&#45;&gt;Node14</title>
<path fill="none" stroke="#191970" d="M281.082,-449.163C284.0963,-448.757 287.0827,-448.3666 290,-448 435.3369,-429.7356 607.7762,-413.6665 690.6701,-406.2896"/>
<polygon fill="#191970" stroke="#191970" points="691.1537,-409.7606 700.8057,-405.3913 690.5357,-402.7879 691.1537,-409.7606"/>
</g>
<!-- Node10&#45;&gt;Node4 -->
<g id="edge15" class="edge">
<title>Node10&#45;&gt;Node4</title>
<path fill="none" stroke="#191970" d="M241.4063,-280.2985C225.9375,-261.796 195,-219.5919 195,-178 195,-178 195,-178 195,-122 195,-41.8549 310.8236,-19.0597 376.2696,-12.5765"/>
<polygon fill="#191970" stroke="#191970" points="376.6704,-16.0547 386.3152,-11.6698 376.041,-9.083 376.6704,-16.0547"/>
</g>
<!-- Node10&#45;&gt;Node5 -->
<g id="edge16" class="edge">
<title>Node10&#45;&gt;Node5</title>
<path fill="none" stroke="#191970" d="M254.1285,-280.1977C264.0262,-257.7061 291.1292,-201.7377 329,-168 344.7741,-153.9474 365.6142,-143.116 383.5677,-135.5038"/>
<polygon fill="#191970" stroke="#191970" points="385.239,-138.6032 393.1945,-131.6059 382.6118,-132.1148 385.239,-138.6032"/>
</g>
<!-- Node11 -->
<g id="node12" class="node">
<title>Node11</title>
<g id="a_node12"><a xlink:href="logger_8h.html" target="_top" xlink:title="pdi/logger.h">
<polygon fill="#ffffff" stroke="#000000" points="437,-224.5 437,-243.5 509,-243.5 509,-224.5 437,-224.5"/>
<text text-anchor="middle" x="473" y="-231.5" font-family="Helvetica,sans-Serif" font-size="10.00" fill="#000000">pdi/logger.h</text>
</a>
</g>
</g>
<!-- Node10&#45;&gt;Node11 -->
<g id="edge17" class="edge">
<title>Node10&#45;&gt;Node11</title>
<path fill="none" stroke="#191970" d="M288.0817,-280.4369C326.5805,-270.769 386.101,-255.8222 427.1634,-245.5105"/>
<polygon fill="#191970" stroke="#191970" points="428.0755,-248.8902 436.9219,-243.06 426.3706,-242.101 428.0755,-248.8902"/>
</g>
<!-- Node11&#45;&gt;Node5 -->
<g id="edge18" class="edge">
<title>Node11&#45;&gt;Node5</title>
<path fill="none" stroke="#191970" d="M466.6743,-224.4101C460.8309,-215.2935 452.1501,-201.0713 446,-188 438.7914,-172.6789 432.341,-154.5578 427.9476,-141.1833"/>
<polygon fill="#191970" stroke="#191970" points="431.2689,-140.0784 424.8899,-131.6191 424.6014,-142.21 431.2689,-140.0784"/>
</g>
<!-- Node12 -->
<g id="node13" class="node">
<title>Node12</title>
<g id="a_node13"><a xlink:href="paraconf__wrapper_8h.html" target="_top" xlink:title="pdi/paraconf_wrapper.h">
<polygon fill="#ffffff" stroke="#000000" points="526.5,-168.5 526.5,-187.5 655.5,-187.5 655.5,-168.5 526.5,-168.5"/>
<text text-anchor="middle" x="591" y="-175.5" font-family="Helvetica,sans-Serif" font-size="10.00" fill="#000000">pdi/paraconf_wrapper.h</text>
</a>
</g>
</g>
<!-- Node11&#45;&gt;Node12 -->
<g id="edge19" class="edge">
<title>Node11&#45;&gt;Node12</title>
<path fill="none" stroke="#191970" d="M493.2849,-224.3733C512.1421,-215.4241 540.446,-201.9917 561.7455,-191.8835"/>
<polygon fill="#191970" stroke="#191970" points="563.4461,-194.9506 570.9798,-187.5011 560.4449,-188.6266 563.4461,-194.9506"/>
</g>
<!-- Node12&#45;&gt;Node4 -->
<g id="edge21" class="edge">
<title>Node12&#45;&gt;Node4</title>
<path fill="none" stroke="#191970" d="M581.3163,-168.4862C553.4661,-141.1246 472.8805,-61.9528 437.2692,-26.9663"/>
<polygon fill="#191970" stroke="#191970" points="439.5897,-24.3394 430.0034,-19.8279 434.6839,-29.3328 439.5897,-24.3394"/>
</g>
<!-- Node12&#45;&gt;Node5 -->
<g id="edge22" class="edge">
<title>Node12&#45;&gt;Node5</title>
<path fill="none" stroke="#191970" d="M561.9479,-168.3733C533.8457,-159.0613 491.0946,-144.8953 460.2393,-134.671"/>
<polygon fill="#191970" stroke="#191970" points="461.2664,-131.3243 450.673,-131.5011 459.0645,-137.969 461.2664,-131.3243"/>
</g>
<!-- Node13 -->
<g id="node14" class="node">
<title>Node13</title>
<polygon fill="#ffffff" stroke="#bfbfbf" points="591.5,-112.5 591.5,-131.5 634.5,-131.5 634.5,-112.5 591.5,-112.5"/>
<text text-anchor="middle" x="613" y="-119.5" font-family="Helvetica,sans-Serif" font-size="10.00" fill="#000000">string</text>
</g>
<!-- Node12&#45;&gt;Node13 -->
<g id="edge20" class="edge">
<title>Node12&#45;&gt;Node13</title>
<path fill="none" stroke="#191970" d="M594.8321,-168.2455C597.7659,-160.7776 601.9047,-150.2427 605.491,-141.1137"/>
<polygon fill="#191970" stroke="#191970" points="608.8129,-142.23 609.2118,-131.6427 602.2976,-139.6704 608.8129,-142.23"/>
</g>
<!-- Node14&#45;&gt;Node1 -->
<g id="edge25" class="edge">
<title>Node14&#45;&gt;Node1</title>
<path fill="none" stroke="#191970" d="M779.2565,-393.7971C829.4475,-383.3095 915.9461,-365.2352 966.9737,-354.5727"/>
<polygon fill="#191970" stroke="#191970" points="967.9189,-357.9508 976.9916,-352.4794 966.4871,-351.0988 967.9189,-357.9508"/>
</g>
<!-- Node14&#45;&gt;Node2 -->
<g id="edge26" class="edge">
<title>Node14&#45;&gt;Node2</title>
<path fill="none" stroke="#191970" d="M779.3571,-394.5317C818.9119,-386.2712 876.2193,-371.9963 892,-356 913.4372,-334.2699 911,-320.5246 911,-290 911,-290 911,-290 911,-178 911,-143.6118 927.2634,-106.2832 938.511,-84.5791"/>
<polygon fill="#191970" stroke="#191970" points="941.7317,-85.9804 943.393,-75.5166 935.569,-82.6605 941.7317,-85.9804"/>
</g>
<!-- Node14&#45;&gt;Node5 -->
<g id="edge29" class="edge">
<title>Node14&#45;&gt;Node5</title>
<path fill="none" stroke="#191970" d="M733.0259,-392.0898C723.3966,-378.7098 705.1533,-354.4231 687,-336 605.1161,-252.8993 492.0572,-170.7876 444.5033,-137.4936"/>
<polygon fill="#191970" stroke="#191970" points="446.3575,-134.5198 436.1511,-131.6774 442.3573,-140.2642 446.3575,-134.5198"/>
</g>
<!-- Node15 -->
<g id="node16" class="node">
<title>Node15</title>
<polygon fill="#ffffff" stroke="#bfbfbf" points="777.5,-336.5 777.5,-355.5 828.5,-355.5 828.5,-336.5 777.5,-336.5"/>
<text text-anchor="middle" x="803" y="-343.5" font-family="Helvetica,sans-Serif" font-size="10.00" fill="#000000">cassert</text>
</g>
<!-- Node14&#45;&gt;Node15 -->
<g id="edge24" class="edge">
<title>Node14&#45;&gt;Node15</title>
<path fill="none" stroke="#191970" d="M750.9738,-392.2455C760.1882,-384.0549 773.5532,-372.1749 784.4297,-362.5069"/>
<polygon fill="#191970" stroke="#191970" points="787.0032,-364.9023 792.152,-355.6427 782.3526,-359.6704 787.0032,-364.9023"/>
</g>
<!-- Node16 -->
<g id="node17" class="node">
<title>Node16</title>
<polygon fill="#ffffff" stroke="#bfbfbf" points="847,-336.5 847,-355.5 883,-355.5 883,-336.5 847,-336.5"/>
<text text-anchor="middle" x="865" y="-343.5" font-family="Helvetica,sans-Serif" font-size="10.00" fill="#000000">new</text>
</g>
<!-- Node14&#45;&gt;Node16 -->
<g id="edge27" class="edge">
<title>Node14&#45;&gt;Node16</title>
<path fill="none" stroke="#191970" d="M761.4883,-392.3733C782.4991,-382.9604 814.581,-368.5877 837.4552,-358.3401"/>
<polygon fill="#191970" stroke="#191970" points="838.9405,-361.5099 846.6356,-354.2273 836.0785,-355.1217 838.9405,-361.5099"/>
</g>
<!-- Node17 -->
<g id="node18" class="node">
<title>Node17</title>
<polygon fill="#ffffff" stroke="#bfbfbf" points="375,-336.5 375,-355.5 467,-355.5 467,-336.5 375,-336.5"/>
<text text-anchor="middle" x="421" y="-343.5" font-family="Helvetica,sans-Serif" font-size="10.00" fill="#000000">unordered_map</text>
</g>
<!-- Node14&#45;&gt;Node17 -->
<g id="edge28" class="edge">
<title>Node14&#45;&gt;Node17</title>
<path fill="none" stroke="#191970" d="M700.8843,-395.1333C644.8217,-385.2916 541.3193,-367.1219 477.1062,-355.8494"/>
<polygon fill="#191970" stroke="#191970" points="477.6056,-352.3836 467.151,-354.1017 476.3952,-359.2782 477.6056,-352.3836"/>
</g>
<!-- Node18 -->
<g id="node19" class="node">
<title>Node18</title>
<g id="a_node19"><a xlink:href="datatype_8h.html" target="_top" xlink:title="pdi/datatype.h">
<polygon fill="#ffffff" stroke="#000000" points="561.5,-336.5 561.5,-355.5 644.5,-355.5 644.5,-336.5 561.5,-336.5"/>
<text text-anchor="middle" x="603" y="-343.5" font-family="Helvetica,sans-Serif" font-size="10.00" fill="#000000">pdi/datatype.h</text>
</a>
</g>
</g>
<!-- Node14&#45;&gt;Node18 -->
<g id="edge30" class="edge">
<title>Node14&#45;&gt;Node18</title>
<path fill="none" stroke="#191970" d="M716.4489,-392.3733C694.1609,-383.2629 660.5063,-369.5062 635.6363,-359.3404"/>
<polygon fill="#191970" stroke="#191970" points="636.8247,-356.0451 626.2438,-355.5011 634.1761,-362.5247 636.8247,-356.0451"/>
</g>
<!-- Node19 -->
<g id="node20" class="node">
<title>Node19</title>
<g id="a_node20"><a xlink:href="error_8h.html" target="_top" xlink:title="pdi/error.h">
<polygon fill="#ffffff" stroke="#000000" points="712.5,-168.5 712.5,-187.5 777.5,-187.5 777.5,-168.5 712.5,-168.5"/>
<text text-anchor="middle" x="745" y="-175.5" font-family="Helvetica,sans-Serif" font-size="10.00" fill="#000000">pdi/error.h</text>
</a>
</g>
</g>
<!-- Node14&#45;&gt;Node19 -->
<g id="edge33" class="edge">
<title>Node14&#45;&gt;Node19</title>
<path fill="none" stroke="#191970" d="M740.2148,-392.375C740.9713,-358.4851 743.5216,-244.2317 744.5573,-197.8332"/>
<polygon fill="#191970" stroke="#191970" points="748.0618,-197.6648 744.786,-187.5891 741.0636,-197.5085 748.0618,-197.6648"/>
</g>
<!-- Node18&#45;&gt;Node5 -->
<g id="edge31" class="edge">
<title>Node18&#45;&gt;Node5</title>
<path fill="none" stroke="#191970" d="M597.0547,-336.4766C583.7942,-315.4693 550.4084,-263.8578 518,-224 504.1158,-206.9244 499.0897,-204.0202 484,-188 468.4678,-171.51 450.778,-152.6733 438.2803,-139.356"/>
<polygon fill="#191970" stroke="#191970" points="440.6303,-136.7454 431.2354,-131.8477 435.5255,-141.5351 440.6303,-136.7454"/>
</g>
<!-- Node18&#45;&gt;Node10 -->
<g id="edge32" class="edge">
<title>Node18&#45;&gt;Node10</title>
<path fill="none" stroke="#191970" d="M561.4684,-339.4114C502.0254,-329.9814 391.9203,-312.5143 319.822,-301.0766"/>
<polygon fill="#191970" stroke="#191970" points="320.335,-297.6143 309.9101,-299.5042 319.2382,-304.5278 320.335,-297.6143"/>
</g>
<!-- Node19&#45;&gt;Node4 -->
<g id="edge36" class="edge">
<title>Node19&#45;&gt;Node4</title>
<path fill="none" stroke="#191970" d="M731.5307,-168.3805C712.3724,-154.9099 675.9183,-130.0538 643,-112 577.7583,-76.2186 497.6551,-41.7504 453.3948,-23.4811"/>
<polygon fill="#191970" stroke="#191970" points="454.5696,-20.18 443.9895,-19.6204 451.9114,-26.6557 454.5696,-20.18"/>
</g>
<!-- Node19&#45;&gt;Node5 -->
<g id="edge37" class="edge">
<title>Node19&#45;&gt;Node5</title>
<path fill="none" stroke="#191970" d="M712.2515,-172.3222C655.4261,-162.4702 538.2518,-142.1551 471.4661,-130.5762"/>
<polygon fill="#191970" stroke="#191970" points="472.0451,-127.1244 461.5941,-128.8646 470.8492,-134.0215 472.0451,-127.1244"/>
</g>
<!-- Node19&#45;&gt;Node13 -->
<g id="edge35" class="edge">
<title>Node19&#45;&gt;Node13</title>
<path fill="none" stroke="#191970" d="M722.3084,-168.3733C700.6698,-159.1932 667.9113,-145.2957 643.8973,-135.1079"/>
<polygon fill="#191970" stroke="#191970" points="645.0942,-131.8138 634.5214,-131.1303 642.3603,-138.2579 645.0942,-131.8138"/>
</g>
<!-- Node20 -->
<g id="node21" class="node">
<title>Node20</title>
<polygon fill="#ffffff" stroke="#bfbfbf" points="714,-112.5 714,-131.5 776,-131.5 776,-112.5 714,-112.5"/>
<text text-anchor="middle" x="745" y="-119.5" font-family="Helvetica,sans-Serif" font-size="10.00" fill="#000000">exception</text>
</g>
<!-- Node19&#45;&gt;Node20 -->
<g id="edge34" class="edge">
<title>Node19&#45;&gt;Node20</title>
<path fill="none" stroke="#191970" d="M745,-168.2455C745,-160.9382 745,-150.6944 745,-141.7046"/>
<polygon fill="#191970" stroke="#191970" points="748.5001,-141.6426 745,-131.6427 741.5001,-141.6427 748.5001,-141.6426"/>
</g>
<!-- Node21&#45;&gt;Node2 -->
<g id="edge42" class="edge">
<title>Node21&#45;&gt;Node2</title>
<path fill="none" stroke="#191970" d="M496.6525,-567.4741C615.8272,-560.7935 925.1035,-541.9391 968,-524 1079.1826,-477.504 1105,-410.5133 1105,-290 1105,-290 1105,-290 1105,-178 1105,-119.6045 1031.9774,-88.6879 985.8525,-74.984"/>
<polygon fill="#191970" stroke="#191970" points="986.7485,-71.6002 976.1731,-72.2414 984.8402,-78.335 986.7485,-71.6002"/>
</g>
<!-- Node21&#45;&gt;Node3 -->
<g id="edge43" class="edge">
<title>Node21&#45;&gt;Node3</title>
<path fill="none" stroke="#191970" d="M418.3294,-560.3918C398.2551,-553.0225 372.8104,-541.1692 355,-524 341.4751,-510.962 332.0505,-491.5495 326.416,-477.1495"/>
<polygon fill="#191970" stroke="#191970" points="329.6899,-475.911 322.9786,-467.7129 323.1126,-478.3069 329.6899,-475.911"/>
</g>
<!-- Node21&#45;&gt;Node5 -->
<g id="edge61" class="edge">
<title>Node21&#45;&gt;Node5</title>
<path fill="none" stroke="#191970" d="M403.2681,-566.714C338.6513,-559.6537 222.4848,-537.4824 156,-468 116.3543,-426.5668 114,-403.3454 114,-346 114,-346 114,-346 114,-234 114,-179.6796 285.3422,-144.0837 372.4323,-129.4994"/>
<polygon fill="#191970" stroke="#191970" points="373.0654,-132.9423 382.3649,-127.866 371.9295,-126.0351 373.0654,-132.9423"/>
</g>
<!-- Node21&#45;&gt;Node9 -->
<g id="edge62" class="edge">
<title>Node21&#45;&gt;Node9</title>
<path fill="none" stroke="#191970" d="M423.2633,-560.467C399.853,-551.8254 365.1243,-538.2875 336,-524 304.0898,-508.3458 268.9801,-487.1762 246.4986,-473.0785"/>
<polygon fill="#191970" stroke="#191970" points="248.2902,-470.0704 237.9668,-467.6871 244.5507,-475.9879 248.2902,-470.0704"/>
</g>
<!-- Node21&#45;&gt;Node11 -->
<g id="edge60" class="edge">
<title>Node21&#45;&gt;Node11</title>
<path fill="none" stroke="#191970" d="M496.7758,-566.2267C598.9057,-556.91 836.5238,-529.0068 884,-468 889.4591,-460.985 889.6768,-454.8401 884,-448 828.5534,-381.1909 775.3686,-436.2374 692,-412 627.649,-393.2915 602.8937,-399.5992 552,-356 522.1886,-330.4614 528.6945,-312.7152 507,-280 500.6455,-270.4175 493.0843,-260.0935 486.7076,-251.6588"/>
<polygon fill="#191970" stroke="#191970" points="489.4472,-249.4795 480.5916,-243.6632 483.8873,-253.7325 489.4472,-249.4795"/>
</g>
<!-- Node21&#45;&gt;Node13 -->
<g id="edge44" class="edge">
<title>Node21&#45;&gt;Node13</title>
<path fill="none" stroke="#191970" d="M496.7786,-567.8913C611.6034,-562.3915 900.7411,-546.4626 938,-524 1039.7035,-462.6852 1067,-408.7565 1067,-290 1067,-290 1067,-290 1067,-234 1067,-190.4347 747.8079,-141.1842 644.7028,-126.4117"/>
<polygon fill="#191970" stroke="#191970" points="644.985,-122.9167 634.5919,-124.9747 643.9999,-129.8471 644.985,-122.9167"/>
</g>
<!-- Node21&#45;&gt;Node14 -->
<g id="edge66" class="edge">
<title>Node21&#45;&gt;Node14</title>
<path fill="none" stroke="#191970" d="M496.5234,-568.8879C609.115,-565.7172 889.0975,-554.786 917,-524 939.6836,-498.9722 937.6635,-474.72 917,-448 901.4381,-427.8769 836.0079,-414.9225 789.2365,-408.0468"/>
<polygon fill="#191970" stroke="#191970" points="789.6622,-404.5723 779.2693,-406.6311 788.6777,-411.5027 789.6622,-404.5723"/>
</g>
<!-- Node21&#45;&gt;Node17 -->
<g id="edge45" class="edge">
<title>Node21&#45;&gt;Node17</title>
<path fill="none" stroke="#191970" d="M447.0553,-560.27C441.7525,-542.2607 430.7119,-502.4256 426,-468 421.0864,-432.1005 420.5053,-389.7513 420.6617,-365.5698"/>
<polygon fill="#191970" stroke="#191970" points="424.1616,-365.5853 420.7772,-355.5456 417.1621,-365.5046 424.1616,-365.5853"/>
</g>
<!-- Node22 -->
<g id="node23" class="node">
<title>Node22</title>
<polygon fill="#ffffff" stroke="#bfbfbf" points="435.5,-448.5 435.5,-467.5 464.5,-467.5 464.5,-448.5 435.5,-448.5"/>
<text text-anchor="middle" x="450" y="-455.5" font-family="Helvetica,sans-Serif" font-size="10.00" fill="#000000">list</text>
</g>
<!-- Node21&#45;&gt;Node22 -->
<g id="edge41" class="edge">
<title>Node21&#45;&gt;Node22</title>
<path fill="none" stroke="#191970" d="M450,-560.4509C450,-542.184 450,-501.9553 450,-477.6976"/>
<polygon fill="#191970" stroke="#191970" points="453.5001,-477.5249 450,-467.5249 446.5001,-477.5249 453.5001,-477.5249"/>
</g>
<!-- Node23 -->
<g id="node24" class="node">
<title>Node23</title>
<polygon fill="#ffffff" stroke="#bfbfbf" points="789,-448.5 789,-467.5 875,-467.5 875,-448.5 789,-448.5"/>
<text text-anchor="middle" x="832" y="-455.5" font-family="Helvetica,sans-Serif" font-size="10.00" fill="#000000">unordered_set</text>
</g>
<!-- Node21&#45;&gt;Node23 -->
<g id="edge46" class="edge">
<title>Node21&#45;&gt;Node23</title>
<path fill="none" stroke="#191970" d="M485.3731,-560.4864C519.0324,-551.3655 571.0653,-537.0885 616,-524 677.6451,-506.0442 748.8013,-484.0562 792.0809,-470.5404"/>
<polygon fill="#191970" stroke="#191970" points="793.1698,-473.8671 801.6695,-467.5421 791.0807,-467.1861 793.1698,-473.8671"/>
</g>
<!-- Node24 -->
<g id="node25" class="node">
<title>Node24</title>
<g id="a_node25"><a xlink:href="context_8h.html" target="_top" xlink:title="pdi/context.h">
<polygon fill="#ffffff" stroke="#000000" points="530.5,-504.5 530.5,-523.5 607.5,-523.5 607.5,-504.5 530.5,-504.5"/>
<text text-anchor="middle" x="569" y="-511.5" font-family="Helvetica,sans-Serif" font-size="10.00" fill="#000000">pdi/context.h</text>
</a>
</g>
</g>
<!-- Node21&#45;&gt;Node24 -->
<g id="edge47" class="edge">
<title>Node21&#45;&gt;Node24</title>
<path fill="none" stroke="#191970" d="M470.4568,-560.3733C489.4738,-551.4241 518.0175,-537.9917 539.4976,-527.8835"/>
<polygon fill="#191970" stroke="#191970" points="541.2522,-530.926 548.8101,-523.5011 538.2716,-524.5923 541.2522,-530.926"/>
</g>
<!-- Node25 -->
<g id="node26" class="node">
<title>Node25</title>
<g id="a_node26"><a xlink:href="plugin_8h.html" target="_top" xlink:title="pdi/plugin.h">
<polygon fill="#ffffff" stroke="#000000" points="371,-280.5 371,-299.5 441,-299.5 441,-280.5 371,-280.5"/>
<text text-anchor="middle" x="406" y="-287.5" font-family="Helvetica,sans-Serif" font-size="10.00" fill="#000000">pdi/plugin.h</text>
</a>
</g>
</g>
<!-- Node21&#45;&gt;Node25 -->
<g id="edge63" class="edge">
<title>Node21&#45;&gt;Node25</title>
<path fill="none" stroke="#191970" d="M444.5188,-560.1687C428.3469,-530.5099 381.0261,-438.8639 366,-356 364.414,-347.2537 362.8864,-344.3257 366,-336 370.1149,-324.9969 378.1815,-314.8874 385.9994,-306.9652"/>
<polygon fill="#191970" stroke="#191970" points="388.7032,-309.2264 393.5788,-299.82 383.9015,-304.1329 388.7032,-309.2264"/>
</g>
<!-- Node24&#45;&gt;Node1 -->
<g id="edge48" class="edge">
<title>Node24&#45;&gt;Node1</title>
<path fill="none" stroke="#191970" d="M606.8258,-504.4333C648.6372,-493.7187 713.2206,-476.7154 737,-468 756.7899,-460.7468 760.8241,-456.7483 780,-448 850.2388,-415.9562 933.0548,-379.1498 976.9833,-359.703"/>
<polygon fill="#191970" stroke="#191970" points="978.532,-362.8451 986.2607,-355.5982 975.6997,-356.4437 978.532,-362.8451"/>
</g>
<!-- Node24&#45;&gt;Node2 -->
<g id="edge50" class="edge">
<title>Node24&#45;&gt;Node2</title>
<path fill="none" stroke="#191970" d="M595.7507,-504.4537C620.0565,-495.5928 656.778,-481.7367 688,-468 713.6525,-456.7137 893.9124,-375.5428 914,-356 937.7984,-332.8471 949,-323.2027 949,-290 949,-290 949,-290 949,-178 949,-145.7116 949,-108.1872 949,-85.8048"/>
<polygon fill="#191970" stroke="#191970" points="952.5001,-85.5883 949,-75.5884 945.5001,-85.5884 952.5001,-85.5883"/>
</g>
<!-- Node24&#45;&gt;Node3 -->
<g id="edge51" class="edge">
<title>Node24&#45;&gt;Node3</title>
<path fill="none" stroke="#191970" d="M530.367,-505.3114C480.8159,-494.1674 395.8834,-475.0661 350.576,-464.8765"/>
<polygon fill="#191970" stroke="#191970" points="351.2694,-461.4451 340.7451,-462.6656 349.7334,-468.2745 351.2694,-461.4451"/>
</g>
<!-- Node24&#45;&gt;Node5 -->
<g id="edge55" class="edge">
<title>Node24&#45;&gt;Node5</title>
<path fill="none" stroke="#191970" d="M560.5563,-504.4558C548.4825,-491.0747 525.2756,-466.3243 503,-448 446.3581,-401.4054 402.7845,-419.4528 366,-356 324.0179,-283.5815 382.0743,-181.1572 409.2778,-140.0763"/>
<polygon fill="#191970" stroke="#191970" points="412.2872,-141.8748 415.0113,-131.6361 406.4969,-137.9413 412.2872,-141.8748"/>
</g>
<!-- Node24&#45;&gt;Node9 -->
<g id="edge56" class="edge">
<title>Node24&#45;&gt;Node9</title>
<path fill="none" stroke="#191970" d="M530.3165,-507.7391C472.5822,-498.3948 363.0237,-480.6628 291.5263,-469.091"/>
<polygon fill="#191970" stroke="#191970" points="291.6952,-465.5728 281.2644,-467.4301 290.5767,-472.4829 291.6952,-465.5728"/>
</g>
<!-- Node24&#45;&gt;Node10 -->
<g id="edge57" class="edge">
<title>Node24&#45;&gt;Node10</title>
<path fill="none" stroke="#191970" d="M555.9901,-504.2789C537.8468,-490.9042 503.7114,-466.3953 473,-448 396.6029,-402.2403 361.6735,-415.0349 295,-356 279.8148,-342.5545 267.2931,-322.931 259.3478,-308.5766"/>
<polygon fill="#191970" stroke="#191970" points="262.3771,-306.8183 254.6018,-299.6215 256.192,-310.0963 262.3771,-306.8183"/>
</g>
<!-- Node24&#45;&gt;Node11 -->
<g id="edge59" class="edge">
<title>Node24&#45;&gt;Node11</title>
<path fill="none" stroke="#191970" d="M569.3937,-504.4103C569.6771,-491.3935 569.3021,-467.5171 564,-448 552.0668,-404.0739 537.0496,-397.7865 519,-356 503.5879,-320.3194 488.1565,-277.6191 479.665,-253.3667"/>
<polygon fill="#191970" stroke="#191970" points="482.8646,-251.9111 476.2769,-243.6134 476.2522,-254.2082 482.8646,-251.9111"/>
</g>
<!-- Node24&#45;&gt;Node13 -->
<g id="edge52" class="edge">
<title>Node24&#45;&gt;Node13</title>
<path fill="none" stroke="#191970" d="M580.5272,-504.3333C607.6049,-480.4716 673,-415.6351 673,-346 673,-346 673,-346 673,-290 673,-235.6304 687.9065,-216.8317 664,-168 658.0198,-155.7848 647.2441,-145.3228 637.1334,-137.4767"/>
<polygon fill="#191970" stroke="#191970" points="639.0674,-134.5557 628.9167,-131.5201 634.9588,-140.2232 639.0674,-134.5557"/>
</g>
<!-- Node24&#45;&gt;Node14 -->
<g id="edge58" class="edge">
<title>Node24&#45;&gt;Node14</title>
<path fill="none" stroke="#191970" d="M591.7318,-504.4195C610.8574,-495.9459 638.5916,-482.6753 661,-468 683.4544,-453.2945 706.7525,-433.1276 722.176,-418.9687"/>
<polygon fill="#191970" stroke="#191970" points="724.9472,-421.1706 729.8791,-411.7936 720.1761,-416.0484 724.9472,-421.1706"/>
</g>
<!-- Node24&#45;&gt;Node17 -->
<g id="edge53" class="edge">
<title>Node24&#45;&gt;Node17</title>
<path fill="none" stroke="#191970" d="M566.4575,-504.204C562.7948,-490.9535 555.3217,-466.8131 545,-448 529.9061,-420.4888 525.6695,-412.6021 502,-392 487.2514,-379.1627 468.3664,-368.1906 452.5419,-360.1853"/>
<polygon fill="#191970" stroke="#191970" points="453.6699,-356.841 443.1487,-355.5942 450.596,-363.13 453.6699,-356.841"/>
</g>
<!-- Node24&#45;&gt;Node22 -->
<g id="edge49" class="edge">
<title>Node24&#45;&gt;Node22</title>
<path fill="none" stroke="#191970" d="M548.5432,-504.3733C527.7974,-494.6106 495.7139,-479.5124 473.8318,-469.215"/>
<polygon fill="#191970" stroke="#191970" points="475.1116,-465.9491 464.5731,-464.8579 472.131,-472.2828 475.1116,-465.9491"/>
</g>
<!-- Node24&#45;&gt;Node23 -->
<g id="edge54" class="edge">
<title>Node24&#45;&gt;Node23</title>
<path fill="none" stroke="#191970" d="M607.5241,-505.7971C652.735,-496.1705 727.9658,-480.1518 778.7408,-469.3404"/>
<polygon fill="#191970" stroke="#191970" points="779.5018,-472.7569 788.5536,-467.2509 778.0439,-465.9104 779.5018,-472.7569"/>
</g>
<!-- Node25&#45;&gt;Node5 -->
<g id="edge65" class="edge">
<title>Node25&#45;&gt;Node5</title>
<path fill="none" stroke="#191970" d="M406.9061,-280.4862C409.4353,-253.9293 416.6128,-178.5651 420.0795,-142.1655"/>
<polygon fill="#191970" stroke="#191970" points="423.6001,-142.1147 421.064,-131.8279 416.6316,-141.451 423.6001,-142.1147"/>
</g>
<!-- Node25&#45;&gt;Node11 -->
<g id="edge64" class="edge">
<title>Node25&#45;&gt;Node11</title>
<path fill="none" stroke="#191970" d="M417.6705,-280.2455C427.5661,-271.9746 441.9627,-259.9416 453.5901,-250.2232"/>
<polygon fill="#191970" stroke="#191970" points="456.035,-252.7413 461.4632,-243.6427 451.5458,-247.3703 456.035,-252.7413"/>
</g>
</g>
</svg>
