<?xml version="1.0" encoding="UTF-8" standalone="no"?>
<!DOCTYPE svg PUBLIC "-//W3C//DTD SVG 1.1//EN"
 "http://www.w3.org/Graphics/SVG/1.1/DTD/svg11.dtd">
<!-- Generated by graphviz version 2.40.1 (20161225.0304)
 -->
<!-- Title: /home/jbigot/data/projects/pdi/pdi/include/pdi/datatype.h Pages: 1 -->
<svg width="303pt" height="375pt"
 viewBox="0.00 0.00 302.50 375.00" xmlns="http://www.w3.org/2000/svg" xmlns:xlink="http://www.w3.org/1999/xlink">
<g id="graph0" class="graph" transform="scale(1 1) rotate(0) translate(4 371)">
<title>/home/jbigot/data/projects/pdi/pdi/include/pdi/datatype.h</title>
<polygon fill="#ffffff" stroke="transparent" points="-4,4 -4,-371 298.5,-371 298.5,4 -4,4"/>
<!-- Node0 -->
<g id="node1" class="node">
<title>Node0</title>
<polygon fill="#bfbfbf" stroke="#000000" points="0,-336.5 0,-366.5 157,-366.5 157,-336.5 0,-336.5"/>
<text text-anchor="start" x="8" y="-354.5" font-family="Helvetica,sans-Serif" font-size="10.00" fill="#000000">/home/jbigot/data/projects</text>
<text text-anchor="middle" x="78.5" y="-343.5" font-family="Helvetica,sans-Serif" font-size="10.00" fill="#000000">/pdi/pdi/include/pdi/datatype.h</text>
</g>
<!-- Node1 -->
<g id="node2" class="node">
<title>Node1</title>
<g id="a_node2"><a xlink:href="pdi__fwd_8h.html" target="_top" xlink:title="pdi/pdi_fwd.h">
<polygon fill="#ffffff" stroke="#000000" points="67,-112.5 67,-131.5 146,-131.5 146,-112.5 67,-112.5"/>
<text text-anchor="middle" x="106.5" y="-119.5" font-family="Helvetica,sans-Serif" font-size="10.00" fill="#000000">pdi/pdi_fwd.h</text>
</a>
</g>
</g>
<!-- Node0&#45;&gt;Node1 -->
<g id="edge1" class="edge">
<title>Node0&#45;&gt;Node1</title>
<path fill="none" stroke="#191970" d="M69.6718,-336.3029C64.4089,-326.3419 58.2354,-312.8331 55.5,-300 53.6469,-291.3064 54.4511,-288.8268 55.5,-280 61.5422,-229.154 64.5235,-215.9445 82.5,-168 86.0459,-158.543 91.0896,-148.5457 95.639,-140.2957"/>
<polygon fill="#191970" stroke="#191970" points="98.7133,-141.9699 100.633,-131.5504 92.6347,-138.4986 98.7133,-141.9699"/>
</g>
<!-- Node7 -->
<g id="node8" class="node">
<title>Node7</title>
<g id="a_node8"><a xlink:href="datatype__template_8h.html" target="_top" xlink:title="pdi/datatype_template.h">
<polygon fill="#ffffff" stroke="#000000" points="64.5,-280.5 64.5,-299.5 194.5,-299.5 194.5,-280.5 64.5,-280.5"/>
<text text-anchor="middle" x="129.5" y="-287.5" font-family="Helvetica,sans-Serif" font-size="10.00" fill="#000000">pdi/datatype_template.h</text>
</a>
</g>
</g>
<!-- Node0&#45;&gt;Node7 -->
<g id="edge7" class="edge">
<title>Node0&#45;&gt;Node7</title>
<path fill="none" stroke="#191970" d="M91.1067,-336.2977C98.2598,-327.672 107.2497,-316.8312 114.7318,-307.8087"/>
<polygon fill="#191970" stroke="#191970" points="117.645,-309.7787 121.3343,-299.8469 112.2567,-305.3103 117.645,-309.7787"/>
</g>
<!-- Node2 -->
<g id="node3" class="node">
<title>Node2</title>
<polygon fill="#ffffff" stroke="#bfbfbf" points="76.5,-56.5 76.5,-75.5 130.5,-75.5 130.5,-56.5 76.5,-56.5"/>
<text text-anchor="middle" x="103.5" y="-63.5" font-family="Helvetica,sans-Serif" font-size="10.00" fill="#000000">memory</text>
</g>
<!-- Node1&#45;&gt;Node2 -->
<g id="edge2" class="edge">
<title>Node1&#45;&gt;Node2</title>
<path fill="none" stroke="#191970" d="M105.9774,-112.2455C105.586,-104.9382 105.0372,-94.6944 104.5556,-85.7046"/>
<polygon fill="#191970" stroke="#191970" points="108.0466,-85.4411 104.0166,-75.6427 101.0566,-85.8156 108.0466,-85.4411"/>
</g>
<!-- Node3 -->
<g id="node4" class="node">
<title>Node3</title>
<g id="a_node4"><a xlink:href="pdi_8h.html" target="_top" xlink:title="pdi.h">
<polygon fill="#ffffff" stroke="#000000" points="149,-56.5 149,-75.5 188,-75.5 188,-56.5 149,-56.5"/>
<text text-anchor="middle" x="168.5" y="-63.5" font-family="Helvetica,sans-Serif" font-size="10.00" fill="#000000">pdi.h</text>
</a>
</g>
</g>
<!-- Node1&#45;&gt;Node3 -->
<g id="edge3" class="edge">
<title>Node1&#45;&gt;Node3</title>
<path fill="none" stroke="#191970" d="M117.2996,-112.2455C126.3678,-104.0549 139.5206,-92.1749 150.2245,-82.5069"/>
<polygon fill="#191970" stroke="#191970" points="152.7491,-84.9429 157.8242,-75.6427 148.0571,-79.7482 152.7491,-84.9429"/>
</g>
<!-- Node4 -->
<g id="node5" class="node">
<title>Node4</title>
<polygon fill="#ffffff" stroke="#bfbfbf" points="225,-.5 225,-19.5 292,-19.5 292,-.5 225,-.5"/>
<text text-anchor="middle" x="258.5" y="-7.5" font-family="Helvetica,sans-Serif" font-size="10.00" fill="#000000">paraconf.h</text>
</g>
<!-- Node3&#45;&gt;Node4 -->
<g id="edge4" class="edge">
<title>Node3&#45;&gt;Node4</title>
<path fill="none" stroke="#191970" d="M184.1768,-56.2455C197.9856,-47.6534 218.3193,-35.0014 234.2292,-25.1018"/>
<polygon fill="#191970" stroke="#191970" points="236.3613,-27.8974 243.0028,-19.6427 232.6632,-21.954 236.3613,-27.8974"/>
</g>
<!-- Node5 -->
<g id="node6" class="node">
<title>Node5</title>
<polygon fill="#ffffff" stroke="#bfbfbf" points="39.5,-.5 39.5,-19.5 111.5,-19.5 111.5,-.5 39.5,-.5"/>
<text text-anchor="middle" x="75.5" y="-7.5" font-family="Helvetica,sans-Serif" font-size="10.00" fill="#000000">pdi/export.h</text>
</g>
<!-- Node3&#45;&gt;Node5 -->
<g id="edge5" class="edge">
<title>Node3&#45;&gt;Node5</title>
<path fill="none" stroke="#191970" d="M152.3006,-56.2455C137.8982,-47.5731 116.6268,-34.7645 100.1201,-24.825"/>
<polygon fill="#191970" stroke="#191970" points="101.886,-21.8028 91.5137,-19.6427 98.275,-27.7996 101.886,-21.8028"/>
</g>
<!-- Node6 -->
<g id="node7" class="node">
<title>Node6</title>
<polygon fill="#ffffff" stroke="#bfbfbf" points="130,-.5 130,-19.5 207,-19.5 207,-.5 130,-.5"/>
<text text-anchor="middle" x="168.5" y="-7.5" font-family="Helvetica,sans-Serif" font-size="10.00" fill="#000000">pdi/version.h</text>
</g>
<!-- Node3&#45;&gt;Node6 -->
<g id="edge6" class="edge">
<title>Node3&#45;&gt;Node6</title>
<path fill="none" stroke="#191970" d="M168.5,-56.2455C168.5,-48.9382 168.5,-38.6944 168.5,-29.7046"/>
<polygon fill="#191970" stroke="#191970" points="172.0001,-29.6426 168.5,-19.6427 165.0001,-29.6427 172.0001,-29.6426"/>
</g>
<!-- Node7&#45;&gt;Node1 -->
<g id="edge9" class="edge">
<title>Node7&#45;&gt;Node1</title>
<path fill="none" stroke="#191970" d="M117.0788,-280.18C107.4984,-271.7529 94.9865,-258.6707 89.5,-244 76.5148,-209.2779 88.91,-165.64 98.2674,-141.0815"/>
<polygon fill="#191970" stroke="#191970" points="101.6283,-142.106 102.1299,-131.5231 95.1382,-139.4834 101.6283,-142.106"/>
</g>
<!-- Node7&#45;&gt;Node4 -->
<g id="edge8" class="edge">
<title>Node7&#45;&gt;Node4</title>
<path fill="none" stroke="#191970" d="M173.2838,-280.38C222.1658,-266.7571 294.5,-236.684 294.5,-178 294.5,-178 294.5,-178 294.5,-122 294.5,-87.7942 279.0926,-50.4094 268.4369,-28.6445"/>
<polygon fill="#191970" stroke="#191970" points="271.4659,-26.8795 263.8119,-19.5538 265.227,-30.0537 271.4659,-26.8795"/>
</g>
<!-- Node8 -->
<g id="node9" class="node">
<title>Node8</title>
<g id="a_node9"><a xlink:href="logger_8h.html" target="_top" xlink:title="pdi/logger.h">
<polygon fill="#ffffff" stroke="#000000" points="98.5,-224.5 98.5,-243.5 170.5,-243.5 170.5,-224.5 98.5,-224.5"/>
<text text-anchor="middle" x="134.5" y="-231.5" font-family="Helvetica,sans-Serif" font-size="10.00" fill="#000000">pdi/logger.h</text>
</a>
</g>
</g>
<!-- Node7&#45;&gt;Node8 -->
<g id="edge10" class="edge">
<title>Node7&#45;&gt;Node8</title>
<path fill="none" stroke="#191970" d="M130.3709,-280.2455C131.0234,-272.9382 131.938,-262.6944 132.7407,-253.7046"/>
<polygon fill="#191970" stroke="#191970" points="136.2358,-253.9143 133.639,-243.6427 129.2635,-253.2918 136.2358,-253.9143"/>
</g>
<!-- Node8&#45;&gt;Node1 -->
<g id="edge11" class="edge">
<title>Node8&#45;&gt;Node1</title>
<path fill="none" stroke="#191970" d="M132.1127,-224.4509C127.5253,-206.1013 117.3977,-165.5908 111.3423,-141.3693"/>
<polygon fill="#191970" stroke="#191970" points="114.7022,-140.3774 108.8812,-131.5249 107.9112,-142.0752 114.7022,-140.3774"/>
</g>
<!-- Node9 -->
<g id="node10" class="node">
<title>Node9</title>
<g id="a_node10"><a xlink:href="paraconf__wrapper_8h.html" target="_top" xlink:title="pdi/paraconf_wrapper.h">
<polygon fill="#ffffff" stroke="#000000" points="137,-168.5 137,-187.5 266,-187.5 266,-168.5 137,-168.5"/>
<text text-anchor="middle" x="201.5" y="-175.5" font-family="Helvetica,sans-Serif" font-size="10.00" fill="#000000">pdi/paraconf_wrapper.h</text>
</a>
</g>
</g>
<!-- Node8&#45;&gt;Node9 -->
<g id="edge12" class="edge">
<title>Node8&#45;&gt;Node9</title>
<path fill="none" stroke="#191970" d="M146.1705,-224.2455C156.0661,-215.9746 170.4627,-203.9416 182.0901,-194.2232"/>
<polygon fill="#191970" stroke="#191970" points="184.535,-196.7413 189.9632,-187.6427 180.0458,-191.3703 184.535,-196.7413"/>
</g>
<!-- Node9&#45;&gt;Node1 -->
<g id="edge15" class="edge">
<title>Node9&#45;&gt;Node1</title>
<path fill="none" stroke="#191970" d="M184.9523,-168.2455C170.2401,-159.5731 148.5112,-146.7645 131.6495,-136.825"/>
<polygon fill="#191970" stroke="#191970" points="133.2502,-133.7057 122.8581,-131.6427 129.6954,-139.736 133.2502,-133.7057"/>
</g>
<!-- Node9&#45;&gt;Node4 -->
<g id="edge14" class="edge">
<title>Node9&#45;&gt;Node4</title>
<path fill="none" stroke="#191970" d="M209.2832,-168.3581C216.1105,-159.433 225.8113,-145.5362 231.5,-132 245.9387,-97.6436 253.1577,-54.4578 256.3446,-29.7645"/>
<polygon fill="#191970" stroke="#191970" points="259.8559,-29.8772 257.568,-19.5324 252.9054,-29.0461 259.8559,-29.8772"/>
</g>
<!-- Node10 -->
<g id="node11" class="node">
<title>Node10</title>
<polygon fill="#ffffff" stroke="#bfbfbf" points="180,-112.5 180,-131.5 223,-131.5 223,-112.5 180,-112.5"/>
<text text-anchor="middle" x="201.5" y="-119.5" font-family="Helvetica,sans-Serif" font-size="10.00" fill="#000000">string</text>
</g>
<!-- Node9&#45;&gt;Node10 -->
<g id="edge13" class="edge">
<title>Node9&#45;&gt;Node10</title>
<path fill="none" stroke="#191970" d="M201.5,-168.2455C201.5,-160.9382 201.5,-150.6944 201.5,-141.7046"/>
<polygon fill="#191970" stroke="#191970" points="205.0001,-141.6426 201.5,-131.6427 198.0001,-141.6427 205.0001,-141.6426"/>
</g>
</g>
</svg>
