<?xml version="1.0" encoding="UTF-8" standalone="no"?>
<!DOCTYPE svg PUBLIC "-//W3C//DTD SVG 1.1//EN"
 "http://www.w3.org/Graphics/SVG/1.1/DTD/svg11.dtd">
<!-- Generated by graphviz version 2.40.1 (20161225.0304)
 -->
<!-- Title: /home/jbigot/data/projects/pdi/pdi/include/pdi/error.h Pages: 1 -->
<svg width="2378pt" height="474pt"
 viewBox="0.00 0.00 2378.00 474.00" xmlns="http://www.w3.org/2000/svg" xmlns:xlink="http://www.w3.org/1999/xlink">
<g id="graph0" class="graph" transform="scale(1 1) rotate(0) translate(4 470)">
<title>/home/jbigot/data/projects/pdi/pdi/include/pdi/error.h</title>
<polygon fill="#ffffff" stroke="transparent" points="-4,4 -4,-470 2374,-470 2374,4 -4,4"/>
<!-- Node9 -->
<g id="node1" class="node">
<title>Node9</title>
<polygon fill="#bfbfbf" stroke="#000000" points="1646.5,-435.5 1646.5,-465.5 1785.5,-465.5 1785.5,-435.5 1646.5,-435.5"/>
<text text-anchor="start" x="1654.5" y="-453.5" font-family="Helvetica,sans-Serif" font-size="10.00" fill="#000000">/home/jbigot/data/projects</text>
<text text-anchor="middle" x="1716" y="-442.5" font-family="Helvetica,sans-Serif" font-size="10.00" fill="#000000">/pdi/pdi/include/pdi/error.h</text>
</g>
<!-- Node10 -->
<g id="node2" class="node">
<title>Node10</title>
<g id="a_node2"><a xlink:href="ref__any_8h.html" target="_top" xlink:title="/home/jbigot/data/projects\l/pdi/pdi/include/pdi/ref_any.h">
<polygon fill="#ffffff" stroke="#000000" points="664,-368.5 664,-398.5 816,-398.5 816,-368.5 664,-368.5"/>
<text text-anchor="start" x="672" y="-386.5" font-family="Helvetica,sans-Serif" font-size="10.00" fill="#000000">/home/jbigot/data/projects</text>
<text text-anchor="middle" x="740" y="-375.5" font-family="Helvetica,sans-Serif" font-size="10.00" fill="#000000">/pdi/pdi/include/pdi/ref_any.h</text>
</a>
</g>
</g>
<!-- Node9&#45;&gt;Node10 -->
<g id="edge1" class="edge">
<title>Node9&#45;&gt;Node10</title>
<path fill="none" stroke="#191970" d="M1636.0196,-445.0095C1451.3629,-432.3333 997.3172,-401.1642 816.2999,-388.7378"/>
<polygon fill="#191970" stroke="#191970" points="1635.9839,-448.5152 1646.2002,-445.7084 1636.4634,-441.5317 1635.9839,-448.5152"/>
</g>
<!-- Node12 -->
<g id="node4" class="node">
<title>Node12</title>
<g id="a_node4"><a xlink:href="context_8cxx.html" target="_top" xlink:title="/home/jbigot/data/projects\l/pdi/pdi/src/context.cxx">
<polygon fill="#ffffff" stroke="#000000" points="142,-145.5 142,-175.5 280,-175.5 280,-145.5 142,-145.5"/>
<text text-anchor="start" x="150" y="-163.5" font-family="Helvetica,sans-Serif" font-size="10.00" fill="#000000">/home/jbigot/data/projects</text>
<text text-anchor="middle" x="211" y="-152.5" font-family="Helvetica,sans-Serif" font-size="10.00" fill="#000000">/pdi/pdi/src/context.cxx</text>
</a>
</g>
</g>
<!-- Node9&#45;&gt;Node12 -->
<g id="edge47" class="edge">
<title>Node9&#45;&gt;Node12</title>
<path fill="none" stroke="#191970" d="M1636.1476,-448.9361C1404.6419,-444.1049 735.866,-427.9701 519,-399 385.304,-381.1402 317.4051,-428.3392 223,-332 181.3244,-289.4706 197.3165,-209.0747 206.4055,-175.659"/>
<polygon fill="#191970" stroke="#191970" points="1636.1091,-452.4359 1646.1796,-449.144 1636.2543,-445.4374 1636.1091,-452.4359"/>
</g>
<!-- Node13 -->
<g id="node5" class="node">
<title>Node13</title>
<g id="a_node5"><a xlink:href="data__descriptor__impl_8cxx.html" target="_top" xlink:title="/home/jbigot/data/projects\l/pdi/pdi/src/data_descriptor\l_impl.cxx">
<polygon fill="#ffffff" stroke="#000000" points="492,-.5 492,-41.5 638,-41.5 638,-.5 492,-.5"/>
<text text-anchor="start" x="500" y="-29.5" font-family="Helvetica,sans-Serif" font-size="10.00" fill="#000000">/home/jbigot/data/projects</text>
<text text-anchor="start" x="500" y="-18.5" font-family="Helvetica,sans-Serif" font-size="10.00" fill="#000000">/pdi/pdi/src/data_descriptor</text>
<text text-anchor="middle" x="565" y="-7.5" font-family="Helvetica,sans-Serif" font-size="10.00" fill="#000000">_impl.cxx</text>
</a>
</g>
</g>
<!-- Node9&#45;&gt;Node13 -->
<g id="edge48" class="edge">
<title>Node9&#45;&gt;Node13</title>
<path fill="none" stroke="#191970" d="M1795.5981,-441.0066C1856.7558,-432.4026 1935.0206,-418.1401 1961,-399 1997.0405,-372.4475 2010,-355.7655 2010,-311 2010,-311 2010,-311 2010,-160.5 2010,-90.8361 931.8887,-37.4387 638.1455,-24.1828"/>
<polygon fill="#191970" stroke="#191970" points="1794.9836,-437.5581 1785.5552,-442.3908 1795.9395,-444.4926 1794.9836,-437.5581"/>
</g>
<!-- Node16 -->
<g id="node8" class="node">
<title>Node16</title>
<g id="a_node8"><a xlink:href="global__context_8cxx.html" target="_top" xlink:title="/home/jbigot/data/projects\l/pdi/pdi/src/global_context.cxx">
<polygon fill="#ffffff" stroke="#000000" points="207,-6 207,-36 365,-36 365,-6 207,-6"/>
<text text-anchor="start" x="215" y="-24" font-family="Helvetica,sans-Serif" font-size="10.00" fill="#000000">/home/jbigot/data/projects</text>
<text text-anchor="middle" x="286" y="-13" font-family="Helvetica,sans-Serif" font-size="10.00" fill="#000000">/pdi/pdi/src/global_context.cxx</text>
</a>
</g>
</g>
<!-- Node9&#45;&gt;Node16 -->
<g id="edge52" class="edge">
<title>Node9&#45;&gt;Node16</title>
<path fill="none" stroke="#191970" d="M1636.0017,-449.464C1319.8161,-445.1748 170.9534,-427.6758 99,-399 44.3129,-377.2054 0,-369.87 0,-311 0,-311 0,-311 0,-160.5 0,-109.8132 146.9462,-60.1159 230.1774,-36.0323"/>
<polygon fill="#191970" stroke="#191970" points="1636.404,-452.9697 1646.4504,-449.605 1636.4986,-445.9703 1636.404,-452.9697"/>
</g>
<!-- Node17 -->
<g id="node9" class="node">
<title>Node17</title>
<g id="a_node9"><a xlink:href="pdi_8cxx.html" target="_top" xlink:title="/home/jbigot/data/projects\l/pdi/pdi/src/pdi.cxx">
<polygon fill="#ffffff" stroke="#000000" points="534,-78.5 534,-108.5 672,-108.5 672,-78.5 534,-78.5"/>
<text text-anchor="start" x="542" y="-96.5" font-family="Helvetica,sans-Serif" font-size="10.00" fill="#000000">/home/jbigot/data/projects</text>
<text text-anchor="middle" x="603" y="-85.5" font-family="Helvetica,sans-Serif" font-size="10.00" fill="#000000">/pdi/pdi/src/pdi.cxx</text>
</a>
</g>
</g>
<!-- Node9&#45;&gt;Node17 -->
<g id="edge54" class="edge">
<title>Node9&#45;&gt;Node17</title>
<path fill="none" stroke="#191970" d="M1636.2174,-449.5238C1351.9263,-445.79 398.2371,-430.9872 265,-399 174.9012,-377.3693 76,-403.6589 76,-311 76,-311 76,-311 76,-233 76,-186.4011 93.1259,-169.1145 133,-145 207.6643,-99.8456 437.6315,-121.4159 524,-109 527.1819,-108.5426 530.4298,-108.0422 533.7061,-107.5104"/>
<polygon fill="#191970" stroke="#191970" points="1636.4028,-453.0264 1646.4476,-449.6572 1636.4941,-446.027 1636.4028,-453.0264"/>
</g>
<!-- Node18 -->
<g id="node10" class="node">
<title>Node18</title>
<g id="a_node10"><a xlink:href="python_2pdi_8cxx.html" target="_top" xlink:title="/home/jbigot/data/projects\l/pdi/pdi/src/python/pdi.cxx">
<polygon fill="#ffffff" stroke="#000000" points="1021.5,-78.5 1021.5,-108.5 1160.5,-108.5 1160.5,-78.5 1021.5,-78.5"/>
<text text-anchor="start" x="1029.5" y="-96.5" font-family="Helvetica,sans-Serif" font-size="10.00" fill="#000000">/home/jbigot/data/projects</text>
<text text-anchor="middle" x="1091" y="-85.5" font-family="Helvetica,sans-Serif" font-size="10.00" fill="#000000">/pdi/pdi/src/python/pdi.cxx</text>
</a>
</g>
</g>
<!-- Node9&#45;&gt;Node18 -->
<g id="edge55" class="edge">
<title>Node9&#45;&gt;Node18</title>
<path fill="none" stroke="#191970" d="M1795.8239,-439.3057C1849.0638,-430.4297 1913,-416.6012 1934,-399 1966.6501,-371.6343 1972,-353.6018 1972,-311 1972,-311 1972,-311 1972,-233 1972,-151.0226 1369.2422,-109.2178 1160.867,-97.2151"/>
<polygon fill="#191970" stroke="#191970" points="1794.9843,-435.8963 1785.6778,-440.9598 1796.1107,-442.8051 1794.9843,-435.8963"/>
</g>
<!-- Node19 -->
<g id="node11" class="node">
<title>Node19</title>
<g id="a_node11"><a xlink:href="datatype__template_8cxx.html" target="_top" xlink:title="/home/jbigot/data/projects\l/pdi/pdi/src/datatype_template.cxx">
<polygon fill="#ffffff" stroke="#000000" points="1325.5,-145.5 1325.5,-175.5 1502.5,-175.5 1502.5,-145.5 1325.5,-145.5"/>
<text text-anchor="start" x="1333.5" y="-163.5" font-family="Helvetica,sans-Serif" font-size="10.00" fill="#000000">/home/jbigot/data/projects</text>
<text text-anchor="middle" x="1414" y="-152.5" font-family="Helvetica,sans-Serif" font-size="10.00" fill="#000000">/pdi/pdi/src/datatype_template.cxx</text>
</a>
</g>
</g>
<!-- Node9&#45;&gt;Node19 -->
<g id="edge49" class="edge">
<title>Node9&#45;&gt;Node19</title>
<path fill="none" stroke="#191970" d="M1795.5396,-439.3381C1842.5691,-430.9277 1895.6694,-417.6313 1910,-399 1960.6713,-333.1223 1965.6511,-273.7285 1910,-212 1883.2976,-182.3816 1638.1009,-168.7202 1502.7542,-163.3889"/>
<polygon fill="#191970" stroke="#191970" points="1794.8676,-435.9022 1785.6123,-441.0587 1796.0632,-442.7994 1794.8676,-435.9022"/>
</g>
<!-- Node20 -->
<g id="node12" class="node">
<title>Node20</title>
<g id="a_node12"><a xlink:href="expression_8cxx.html" target="_top" xlink:title="/home/jbigot/data/projects\l/pdi/pdi/src/expression.cxx">
<polygon fill="#ffffff" stroke="#000000" points="450.5,-145.5 450.5,-175.5 591.5,-175.5 591.5,-145.5 450.5,-145.5"/>
<text text-anchor="start" x="458.5" y="-163.5" font-family="Helvetica,sans-Serif" font-size="10.00" fill="#000000">/home/jbigot/data/projects</text>
<text text-anchor="middle" x="521" y="-152.5" font-family="Helvetica,sans-Serif" font-size="10.00" fill="#000000">/pdi/pdi/src/expression.cxx</text>
</a>
</g>
</g>
<!-- Node9&#45;&gt;Node20 -->
<g id="edge51" class="edge">
<title>Node9&#45;&gt;Node20</title>
<path fill="none" stroke="#191970" d="M1636.2455,-450.0295C1422.7783,-448.2286 841.9492,-439.6274 655,-399 576.448,-381.9293 532.1006,-398.5414 487,-332 457.0771,-287.8518 471.6596,-263.0795 487,-212 491.0677,-198.4555 499.9802,-185.1865 507.6597,-175.51"/>
<polygon fill="#191970" stroke="#191970" points="1636.4063,-453.5309 1646.4345,-450.1127 1636.4635,-446.5311 1636.4063,-453.5309"/>
</g>
<!-- Node22 -->
<g id="node14" class="node">
<title>Node22</title>
<g id="a_node14"><a xlink:href="tools_8cxx.html" target="_top" xlink:title="/home/jbigot/data/projects\l/pdi/pdi/src/python/tools.cxx">
<polygon fill="#ffffff" stroke="#000000" points="1084.5,-145.5 1084.5,-175.5 1231.5,-175.5 1231.5,-145.5 1084.5,-145.5"/>
<text text-anchor="start" x="1092.5" y="-163.5" font-family="Helvetica,sans-Serif" font-size="10.00" fill="#000000">/home/jbigot/data/projects</text>
<text text-anchor="middle" x="1158" y="-152.5" font-family="Helvetica,sans-Serif" font-size="10.00" fill="#000000">/pdi/pdi/src/python/tools.cxx</text>
</a>
</g>
</g>
<!-- Node9&#45;&gt;Node22 -->
<g id="edge56" class="edge">
<title>Node9&#45;&gt;Node22</title>
<path fill="none" stroke="#191970" d="M1748.6895,-429.6058C1813.0293,-386.0603 1944.2349,-283.6959 1877,-212 1834.3491,-166.5192 1379.1478,-181.0254 1317,-176 1289.0788,-173.7422 1258.44,-170.8533 1231.5741,-168.1827"/>
<polygon fill="#191970" stroke="#191970" points="1746.4568,-426.888 1740.0822,-435.3506 1750.3428,-432.7103 1746.4568,-426.888"/>
</g>
<!-- Node26 -->
<g id="node18" class="node">
<title>Node26</title>
<g id="a_node18"><a xlink:href="array__datatype_8cxx.html" target="_top" xlink:title="/home/jbigot/data/projects\l/pdi/pdi/src/array_datatype.cxx">
<polygon fill="#ffffff" stroke="#000000" points="1338.5,-218 1338.5,-248 1499.5,-248 1499.5,-218 1338.5,-218"/>
<text text-anchor="start" x="1346.5" y="-236" font-family="Helvetica,sans-Serif" font-size="10.00" fill="#000000">/home/jbigot/data/projects</text>
<text text-anchor="middle" x="1419" y="-225" font-family="Helvetica,sans-Serif" font-size="10.00" fill="#000000">/pdi/pdi/src/array_datatype.cxx</text>
</a>
</g>
</g>
<!-- Node9&#45;&gt;Node26 -->
<g id="edge46" class="edge">
<title>Node9&#45;&gt;Node26</title>
<path fill="none" stroke="#191970" d="M1686.8615,-429.1612C1627.0775,-385.38 1491.8123,-286.3221 1439.8614,-248.2773"/>
<polygon fill="#191970" stroke="#191970" points="1684.9797,-432.1212 1695.1155,-435.2058 1689.1155,-426.4737 1684.9797,-432.1212"/>
</g>
<!-- Node27 -->
<g id="node19" class="node">
<title>Node27</title>
<g id="a_node19"><a xlink:href="record__datatype_8cxx.html" target="_top" xlink:title="/home/jbigot/data/projects\l/pdi/pdi/src/record_datatype.cxx">
<polygon fill="#ffffff" stroke="#000000" points="1517.5,-218 1517.5,-248 1684.5,-248 1684.5,-218 1517.5,-218"/>
<text text-anchor="start" x="1525.5" y="-236" font-family="Helvetica,sans-Serif" font-size="10.00" fill="#000000">/home/jbigot/data/projects</text>
<text text-anchor="middle" x="1601" y="-225" font-family="Helvetica,sans-Serif" font-size="10.00" fill="#000000">/pdi/pdi/src/record_datatype.cxx</text>
</a>
</g>
</g>
<!-- Node9&#45;&gt;Node27 -->
<g id="edge57" class="edge">
<title>Node9&#45;&gt;Node27</title>
<path fill="none" stroke="#191970" d="M1703.1082,-426.1177C1679.2239,-380.9453 1628.7399,-285.4646 1609.0776,-248.2773"/>
<polygon fill="#191970" stroke="#191970" points="1700.145,-428.0015 1707.9134,-435.2058 1706.3333,-424.7295 1700.145,-428.0015"/>
</g>
<!-- Node28 -->
<g id="node20" class="node">
<title>Node28</title>
<g id="a_node20"><a xlink:href="scalar__datatype_8cxx.html" target="_top" xlink:title="/home/jbigot/data/projects\l/pdi/pdi/src/scalar_datatype.cxx">
<polygon fill="#ffffff" stroke="#000000" points="1702.5,-218 1702.5,-248 1867.5,-248 1867.5,-218 1702.5,-218"/>
<text text-anchor="start" x="1710.5" y="-236" font-family="Helvetica,sans-Serif" font-size="10.00" fill="#000000">/home/jbigot/data/projects</text>
<text text-anchor="middle" x="1785" y="-225" font-family="Helvetica,sans-Serif" font-size="10.00" fill="#000000">/pdi/pdi/src/scalar_datatype.cxx</text>
</a>
</g>
</g>
<!-- Node9&#45;&gt;Node28 -->
<g id="edge58" class="edge">
<title>Node9&#45;&gt;Node28</title>
<path fill="none" stroke="#191970" d="M1723.9162,-425.5468C1738.3193,-380.1456 1768.4055,-285.3086 1780.1534,-248.2773"/>
<polygon fill="#191970" stroke="#191970" points="1720.5398,-424.6156 1720.8519,-435.2058 1727.2121,-426.7324 1720.5398,-424.6156"/>
</g>
<!-- Node31 -->
<g id="node23" class="node">
<title>Node31</title>
<g id="a_node23"><a xlink:href="error_8cxx.html" target="_top" xlink:title="/home/jbigot/data/projects\l/pdi/pdi/src/error.cxx">
<polygon fill="#ffffff" stroke="#000000" points="2038,-368.5 2038,-398.5 2176,-398.5 2176,-368.5 2038,-368.5"/>
<text text-anchor="start" x="2046" y="-386.5" font-family="Helvetica,sans-Serif" font-size="10.00" fill="#000000">/home/jbigot/data/projects</text>
<text text-anchor="middle" x="2107" y="-375.5" font-family="Helvetica,sans-Serif" font-size="10.00" fill="#000000">/pdi/pdi/src/error.cxx</text>
</a>
</g>
</g>
<!-- Node9&#45;&gt;Node31 -->
<g id="edge50" class="edge">
<title>Node9&#45;&gt;Node31</title>
<path fill="none" stroke="#191970" d="M1795.9295,-437.5613C1858.1445,-427.3871 1946.6281,-412.6918 2024,-399 2028.4747,-398.2081 2033.0828,-397.3808 2037.7263,-396.5381"/>
<polygon fill="#191970" stroke="#191970" points="1795.0947,-434.1512 1785.7897,-439.2175 1796.2231,-441.0597 1795.0947,-434.1512"/>
</g>
<!-- Node32 -->
<g id="node24" class="node">
<title>Node32</title>
<g id="a_node24"><a xlink:href="paraconf__wrapper_8cxx.html" target="_top" xlink:title="/home/jbigot/data/projects\l/pdi/pdi/src/paraconf_wrapper.cxx">
<polygon fill="#ffffff" stroke="#000000" points="2194,-368.5 2194,-398.5 2370,-398.5 2370,-368.5 2194,-368.5"/>
<text text-anchor="start" x="2202" y="-386.5" font-family="Helvetica,sans-Serif" font-size="10.00" fill="#000000">/home/jbigot/data/projects</text>
<text text-anchor="middle" x="2282" y="-375.5" font-family="Helvetica,sans-Serif" font-size="10.00" fill="#000000">/pdi/pdi/src/paraconf_wrapper.cxx</text>
</a>
</g>
</g>
<!-- Node9&#45;&gt;Node32 -->
<g id="edge53" class="edge">
<title>Node9&#45;&gt;Node32</title>
<path fill="none" stroke="#191970" d="M1795.887,-442.933C1889.3436,-433.8017 2048.6556,-417.3681 2185,-399 2187.9577,-398.6015 2190.9643,-398.1851 2193.9994,-397.7551"/>
<polygon fill="#191970" stroke="#191970" points="1795.2728,-439.4762 1785.659,-443.9289 1795.9512,-446.4432 1795.2728,-439.4762"/>
</g>
<!-- Node11 -->
<g id="node3" class="node">
<title>Node11</title>
<g id="a_node3"><a xlink:href="context_8h.html" target="_top" xlink:title="/home/jbigot/data/projects\l/pdi/pdi/include/pdi/context.h">
<polygon fill="#ffffff" stroke="#000000" points="784,-218 784,-248 934,-248 934,-218 784,-218"/>
<text text-anchor="start" x="792" y="-236" font-family="Helvetica,sans-Serif" font-size="10.00" fill="#000000">/home/jbigot/data/projects</text>
<text text-anchor="middle" x="859" y="-225" font-family="Helvetica,sans-Serif" font-size="10.00" fill="#000000">/pdi/pdi/include/pdi/context.h</text>
</a>
</g>
</g>
<!-- Node10&#45;&gt;Node11 -->
<g id="edge2" class="edge">
<title>Node10&#45;&gt;Node11</title>
<path fill="none" stroke="#191970" d="M825.8547,-364.8108C842.0763,-357.2968 857.0554,-346.7638 867,-332 884.051,-306.686 873.6993,-269.0503 865.6866,-248.2327"/>
<polygon fill="#191970" stroke="#191970" points="824.0377,-361.7789 816.1887,-368.8953 826.7624,-368.2269 824.0377,-361.7789"/>
</g>
<!-- Node10&#45;&gt;Node12 -->
<g id="edge35" class="edge">
<title>Node10&#45;&gt;Node12</title>
<path fill="none" stroke="#191970" d="M653.8442,-379.5924C522.8198,-372.8723 285.4885,-357.3512 256,-332 209.3158,-291.8656 208.1099,-209.7659 209.8162,-175.7678"/>
<polygon fill="#191970" stroke="#191970" points="653.6983,-383.0894 663.8625,-380.0997 654.0524,-376.0983 653.6983,-383.0894"/>
</g>
<!-- Node10&#45;&gt;Node13 -->
<g id="edge36" class="edge">
<title>Node10&#45;&gt;Node13</title>
<path fill="none" stroke="#191970" d="M653.5459,-372.7551C591.4958,-363.7795 514.2211,-349.6259 487,-332 384.6079,-265.7003 364.3494,-225.1242 327,-109 322.7814,-95.8839 318.4673,-88.8176 327,-78 347.2941,-52.2717 429.5389,-36.854 491.7111,-28.6625"/>
<polygon fill="#191970" stroke="#191970" points="653.3632,-376.2642 663.7561,-374.2057 654.3479,-369.3338 653.3632,-376.2642"/>
</g>
<!-- Node14 -->
<g id="node6" class="node">
<title>Node14</title>
<g id="a_node6"><a xlink:href="global__context_8h.html" target="_top" xlink:title="/home/jbigot/data/projects\l/pdi/pdi/src/global_context.h">
<polygon fill="#ffffff" stroke="#000000" points="610,-145.5 610,-175.5 758,-175.5 758,-145.5 610,-145.5"/>
<text text-anchor="start" x="618" y="-163.5" font-family="Helvetica,sans-Serif" font-size="10.00" fill="#000000">/home/jbigot/data/projects</text>
<text text-anchor="middle" x="684" y="-152.5" font-family="Helvetica,sans-Serif" font-size="10.00" fill="#000000">/pdi/pdi/src/global_context.h</text>
</a>
</g>
</g>
<!-- Node10&#45;&gt;Node14 -->
<g id="edge38" class="edge">
<title>Node10&#45;&gt;Node14</title>
<path fill="none" stroke="#191970" d="M653.72,-374.6197C598.5425,-366.956 534.2017,-353.627 517,-332 494.3889,-303.5719 539.3061,-215.8005 543,-212 560.8915,-193.5923 585.8892,-181.7256 609.8759,-174.0915"/>
<polygon fill="#191970" stroke="#191970" points="653.5263,-378.1249 663.9028,-375.9854 654.4569,-371.1871 653.5263,-378.1249"/>
</g>
<!-- Node15 -->
<g id="node7" class="node">
<title>Node15</title>
<g id="a_node7"><a xlink:href="data__descriptor__impl_8h.html" target="_top" xlink:title="/home/jbigot/data/projects\l/pdi/pdi/src/data_descriptor_impl.h">
<polygon fill="#ffffff" stroke="#000000" points="336.5,-78.5 336.5,-108.5 515.5,-108.5 515.5,-78.5 336.5,-78.5"/>
<text text-anchor="start" x="344.5" y="-96.5" font-family="Helvetica,sans-Serif" font-size="10.00" fill="#000000">/home/jbigot/data/projects</text>
<text text-anchor="middle" x="426" y="-85.5" font-family="Helvetica,sans-Serif" font-size="10.00" fill="#000000">/pdi/pdi/src/data_descriptor_impl.h</text>
</a>
</g>
</g>
<!-- Node10&#45;&gt;Node15 -->
<g id="edge37" class="edge">
<title>Node10&#45;&gt;Node15</title>
<path fill="none" stroke="#191970" d="M653.8257,-379.1988C516.1215,-371.6912 258.2989,-354.7953 223,-332 145.5163,-281.9627 73.6928,-215.6407 133,-145 158.6542,-114.4433 260.0627,-102.0116 336.4436,-96.9572"/>
<polygon fill="#191970" stroke="#191970" points="653.7586,-382.7001 663.9328,-379.7447 654.1362,-375.7103 653.7586,-382.7001"/>
</g>
<!-- Node10&#45;&gt;Node16 -->
<g id="edge40" class="edge">
<title>Node10&#45;&gt;Node16</title>
<path fill="none" stroke="#191970" d="M653.7756,-379.6751C503.9246,-372.453 207.3988,-355.4074 166,-332 90.6965,-289.4225 70.6638,-220.9919 112,-145 141.4236,-90.9081 205.8504,-54.8282 247.5139,-36.1451"/>
<polygon fill="#191970" stroke="#191970" points="653.7122,-383.1759 663.8679,-380.1573 654.0463,-376.1839 653.7122,-383.1759"/>
</g>
<!-- Node10&#45;&gt;Node17 -->
<g id="edge41" class="edge">
<title>Node10&#45;&gt;Node17</title>
<path fill="none" stroke="#191970" d="M725.6523,-359.3348C710.4899,-334.6295 686.8898,-298.6815 673,-290 591.9569,-239.3459 534.6161,-314.9467 461,-254 432.5112,-230.4142 438.5479,-212.4009 432,-176 429.5608,-162.4399 423.7816,-156.0582 432,-145 438.7966,-135.8549 494.1711,-120.2314 540.0938,-108.585"/>
<polygon fill="#191970" stroke="#191970" points="722.834,-361.4374 731.0125,-368.1726 728.8192,-357.8073 722.834,-361.4374"/>
</g>
<!-- Node10&#45;&gt;Node18 -->
<g id="edge43" class="edge">
<title>Node10&#45;&gt;Node18</title>
<path fill="none" stroke="#191970" d="M826.4711,-376.3153C923.4447,-367.5044 1074.1882,-351.3336 1128,-332 1189.6275,-309.8583 1219.7782,-310.4315 1253,-254 1277.5936,-212.2246 1285.7549,-184.0279 1257,-145 1245.0975,-128.8452 1200.7569,-115.5758 1160.8961,-106.554"/>
<polygon fill="#191970" stroke="#191970" points="826.0304,-372.8407 816.3844,-377.2229 826.6578,-379.8126 826.0304,-372.8407"/>
</g>
<!-- Node10&#45;&gt;Node20 -->
<g id="edge39" class="edge">
<title>Node10&#45;&gt;Node20</title>
<path fill="none" stroke="#191970" d="M653.8265,-375.6428C595.3572,-368.3211 525.4529,-354.977 507,-332 469.9625,-285.8822 498.5923,-208.5106 513.4663,-175.8189"/>
<polygon fill="#191970" stroke="#191970" points="653.4994,-379.1286 663.8471,-376.8537 654.3393,-372.1792 653.4994,-379.1286"/>
</g>
<!-- Node21 -->
<g id="node13" class="node">
<title>Node21</title>
<g id="a_node13"><a xlink:href="plugin_8cxx.html" target="_top" xlink:title="/home/jbigot/data/projects\l/pdi/pdi/src/plugin.cxx">
<polygon fill="#ffffff" stroke="#000000" points="928,-145.5 928,-175.5 1066,-175.5 1066,-145.5 928,-145.5"/>
<text text-anchor="start" x="936" y="-163.5" font-family="Helvetica,sans-Serif" font-size="10.00" fill="#000000">/home/jbigot/data/projects</text>
<text text-anchor="middle" x="997" y="-152.5" font-family="Helvetica,sans-Serif" font-size="10.00" fill="#000000">/pdi/pdi/src/plugin.cxx</text>
</a>
</g>
</g>
<!-- Node10&#45;&gt;Node21 -->
<g id="edge42" class="edge">
<title>Node10&#45;&gt;Node21</title>
<path fill="none" stroke="#191970" d="M812.029,-365.3669C867.5366,-347.207 940.5955,-313.2221 976,-254 990.7687,-229.2959 995.1669,-195.2813 996.4664,-175.8219"/>
<polygon fill="#191970" stroke="#191970" points="810.7095,-362.1134 802.2325,-368.4689 812.8226,-368.7869 810.7095,-362.1134"/>
</g>
<!-- Node10&#45;&gt;Node22 -->
<g id="edge44" class="edge">
<title>Node10&#45;&gt;Node22</title>
<path fill="none" stroke="#191970" d="M826.2321,-368.0643C860.544,-360.0066 899.7026,-348.3324 933,-332 955.8202,-320.8066 1088.8462,-215.5843 1138.9342,-175.7139"/>
<polygon fill="#191970" stroke="#191970" points="825.1951,-364.7108 816.223,-370.3457 826.7508,-371.5358 825.1951,-364.7108"/>
</g>
<!-- Node23 -->
<g id="node15" class="node">
<title>Node23</title>
<g id="a_node15"><a xlink:href="data__descriptor_8h.html" target="_top" xlink:title="/home/jbigot/data/projects\l/pdi/pdi/include/pdi/data\l_descriptor.h">
<polygon fill="#ffffff" stroke="#000000" points="720,-290.5 720,-331.5 858,-331.5 858,-290.5 720,-290.5"/>
<text text-anchor="start" x="728" y="-319.5" font-family="Helvetica,sans-Serif" font-size="10.00" fill="#000000">/home/jbigot/data/projects</text>
<text text-anchor="start" x="728" y="-308.5" font-family="Helvetica,sans-Serif" font-size="10.00" fill="#000000">/pdi/pdi/include/pdi/data</text>
<text text-anchor="middle" x="789" y="-297.5" font-family="Helvetica,sans-Serif" font-size="10.00" fill="#000000">_descriptor.h</text>
</a>
</g>
</g>
<!-- Node10&#45;&gt;Node23 -->
<g id="edge18" class="edge">
<title>Node10&#45;&gt;Node23</title>
<path fill="none" stroke="#191970" d="M755.7977,-360.1258C762.0268,-350.9094 769.1184,-340.4167 775.1438,-331.5015"/>
<polygon fill="#191970" stroke="#191970" points="752.8527,-358.2329 750.1528,-368.478 758.6523,-362.1527 752.8527,-358.2329"/>
</g>
<!-- Node25 -->
<g id="node17" class="node">
<title>Node25</title>
<g id="a_node17"><a xlink:href="expression_8h.html" target="_top" xlink:title="/home/jbigot/data/projects\l/pdi/pdi/include/pdi/expression.h">
<polygon fill="#ffffff" stroke="#000000" points="1317.5,-296 1317.5,-326 1484.5,-326 1484.5,-296 1317.5,-296"/>
<text text-anchor="start" x="1325.5" y="-314" font-family="Helvetica,sans-Serif" font-size="10.00" fill="#000000">/home/jbigot/data/projects</text>
<text text-anchor="middle" x="1401" y="-303" font-family="Helvetica,sans-Serif" font-size="10.00" fill="#000000">/pdi/pdi/include/pdi/expression.h</text>
</a>
</g>
</g>
<!-- Node10&#45;&gt;Node25 -->
<g id="edge26" class="edge">
<title>Node10&#45;&gt;Node25</title>
<path fill="none" stroke="#191970" d="M826.3812,-377.6735C934.2455,-369.8646 1124.2776,-354.3502 1286,-332 1298.2636,-330.3051 1311.2124,-328.2257 1323.8234,-326.0411"/>
<polygon fill="#191970" stroke="#191970" points="825.9262,-374.197 816.2029,-378.4051 826.4282,-381.179 825.9262,-374.197"/>
</g>
<!-- Node29 -->
<g id="node21" class="node">
<title>Node29</title>
<g id="a_node21"><a xlink:href="tools_8h.html" target="_top" xlink:title="/home/jbigot/data/projects\l/pdi/pdi/include/pdi/python\l/tools.h">
<polygon fill="#ffffff" stroke="#000000" points="1104,-212.5 1104,-253.5 1244,-253.5 1244,-212.5 1104,-212.5"/>
<text text-anchor="start" x="1112" y="-241.5" font-family="Helvetica,sans-Serif" font-size="10.00" fill="#000000">/home/jbigot/data/projects</text>
<text text-anchor="start" x="1112" y="-230.5" font-family="Helvetica,sans-Serif" font-size="10.00" fill="#000000">/pdi/pdi/include/pdi/python</text>
<text text-anchor="middle" x="1174" y="-219.5" font-family="Helvetica,sans-Serif" font-size="10.00" fill="#000000">/tools.h</text>
</a>
</g>
</g>
<!-- Node10&#45;&gt;Node29 -->
<g id="edge32" class="edge">
<title>Node10&#45;&gt;Node29</title>
<path fill="none" stroke="#191970" d="M826.1667,-377.7866C914.8174,-370.6887 1045.9819,-356.428 1090,-332 1123.1114,-313.6247 1148.9399,-276.7312 1162.7844,-253.5383"/>
<polygon fill="#191970" stroke="#191970" points="825.8093,-374.3038 816.1139,-378.5755 826.3571,-381.2823 825.8093,-374.3038"/>
</g>
<!-- Node30 -->
<g id="node22" class="node">
<title>Node30</title>
<g id="a_node22"><a xlink:href="ref__any_8cxx.html" target="_top" xlink:title="/home/jbigot/data/projects\l/pdi/pdi/src/ref_any.cxx">
<polygon fill="#ffffff" stroke="#000000" points="526,-296 526,-326 664,-326 664,-296 526,-296"/>
<text text-anchor="start" x="534" y="-314" font-family="Helvetica,sans-Serif" font-size="10.00" fill="#000000">/home/jbigot/data/projects</text>
<text text-anchor="middle" x="595" y="-303" font-family="Helvetica,sans-Serif" font-size="10.00" fill="#000000">/pdi/pdi/src/ref_any.cxx</text>
</a>
</g>
</g>
<!-- Node10&#45;&gt;Node30 -->
<g id="edge45" class="edge">
<title>Node10&#45;&gt;Node30</title>
<path fill="none" stroke="#191970" d="M700.8157,-363.9079C676.9644,-351.9822 646.9655,-336.9828 625.0056,-326.0028"/>
<polygon fill="#191970" stroke="#191970" points="699.4464,-367.1363 709.9559,-368.478 702.5769,-360.8753 699.4464,-367.1363"/>
</g>
<!-- Node11&#45;&gt;Node12 -->
<g id="edge3" class="edge">
<title>Node11&#45;&gt;Node12</title>
<path fill="none" stroke="#191970" d="M774.0756,-217.5647C761.6621,-215.5464 749.0166,-213.6203 737,-212 573.7749,-189.9911 380.8438,-173.5267 280.1131,-165.652"/>
<polygon fill="#191970" stroke="#191970" points="773.5279,-221.0216 783.9648,-219.1991 774.6694,-214.1153 773.5279,-221.0216"/>
</g>
<!-- Node11&#45;&gt;Node13 -->
<g id="edge4" class="edge">
<title>Node11&#45;&gt;Node13</title>
<path fill="none" stroke="#191970" d="M846.5615,-208.8328C836.1003,-190.0189 819.8552,-163.9984 801,-145 751.8504,-95.4771 678.7496,-61.2802 626.949,-41.5322"/>
<polygon fill="#191970" stroke="#191970" points="843.5141,-210.5555 851.3532,-217.6828 849.6698,-207.2226 843.5141,-210.5555"/>
</g>
<!-- Node11&#45;&gt;Node14 -->
<g id="edge5" class="edge">
<title>Node11&#45;&gt;Node14</title>
<path fill="none" stroke="#191970" d="M813.23,-214.0382C784.2072,-202.0144 747.1861,-186.6771 720.2137,-175.5028"/>
<polygon fill="#191970" stroke="#191970" points="812.1617,-217.384 822.7399,-217.978 814.8409,-210.917 812.1617,-217.384"/>
</g>
<!-- Node11&#45;&gt;Node17 -->
<g id="edge14" class="edge">
<title>Node11&#45;&gt;Node17</title>
<path fill="none" stroke="#191970" d="M840.4203,-210.0545C823.2641,-190.2512 796.1002,-162.1963 767,-145 737.9676,-127.8438 702.6117,-115.799 672.1714,-107.696"/>
<polygon fill="#191970" stroke="#191970" points="837.7834,-212.3566 846.9205,-217.7199 843.1223,-207.8293 837.7834,-212.3566"/>
</g>
<!-- Node11&#45;&gt;Node18 -->
<g id="edge16" class="edge">
<title>Node11&#45;&gt;Node18</title>
<path fill="none" stroke="#191970" d="M860.2209,-207.7871C862.5353,-188.0298 868.8901,-161.2495 886,-145 905.4908,-126.4894 969.8088,-112.2991 1021.2648,-103.5464"/>
<polygon fill="#191970" stroke="#191970" points="856.7187,-207.6559 859.3082,-217.9294 863.6905,-208.2833 856.7187,-207.6559"/>
</g>
<!-- Node11&#45;&gt;Node19 -->
<g id="edge12" class="edge">
<title>Node11&#45;&gt;Node19</title>
<path fill="none" stroke="#191970" d="M944.2153,-221.8683C1047.4641,-208.3808 1220.5686,-185.7681 1325.342,-172.0815"/>
<polygon fill="#191970" stroke="#191970" points="943.6007,-218.4187 934.1384,-223.1846 944.5075,-225.3598 943.6007,-218.4187"/>
</g>
<!-- Node11&#45;&gt;Node20 -->
<g id="edge13" class="edge">
<title>Node11&#45;&gt;Node20</title>
<path fill="none" stroke="#191970" d="M786.3635,-215.686C780.8304,-214.4207 775.3283,-213.1794 770,-212 709.982,-198.7152 641.5838,-184.6452 591.68,-174.5748"/>
<polygon fill="#191970" stroke="#191970" points="785.7952,-219.1467 796.3257,-217.9814 787.3669,-212.3254 785.7952,-219.1467"/>
</g>
<!-- Node11&#45;&gt;Node21 -->
<g id="edge15" class="edge">
<title>Node11&#45;&gt;Node21</title>
<path fill="none" stroke="#191970" d="M896.5943,-213.2494C919.245,-201.3495 947.6356,-186.4342 968.4429,-175.5028"/>
<polygon fill="#191970" stroke="#191970" points="894.8185,-210.2286 887.5937,-217.978 898.0742,-216.4255 894.8185,-210.2286"/>
</g>
<!-- Node11&#45;&gt;Node22 -->
<g id="edge17" class="edge">
<title>Node11&#45;&gt;Node22</title>
<path fill="none" stroke="#191970" d="M930.8133,-215.5871C981.2562,-203.3559 1048.0384,-187.1629 1096.1264,-175.5028"/>
<polygon fill="#191970" stroke="#191970" points="929.8466,-212.22 920.953,-217.978 931.4962,-219.0228 929.8466,-212.22"/>
</g>
<!-- Node14&#45;&gt;Node15 -->
<g id="edge6" class="edge">
<title>Node14&#45;&gt;Node15</title>
<path fill="none" stroke="#191970" d="M616.1784,-142.8874C575.129,-132.2273 523.3239,-118.774 484.1528,-108.6017"/>
<polygon fill="#191970" stroke="#191970" points="615.541,-146.3379 626.0998,-145.4639 617.3006,-139.5627 615.541,-146.3379"/>
</g>
<!-- Node14&#45;&gt;Node16 -->
<g id="edge9" class="edge">
<title>Node14&#45;&gt;Node16</title>
<path fill="none" stroke="#191970" d="M690.7723,-135.3587C694.0284,-117.1836 694.6917,-93.2406 681,-78 670.5237,-66.3386 477.4037,-42.6732 365.1467,-29.8077"/>
<polygon fill="#191970" stroke="#191970" points="687.3185,-134.7725 688.6445,-145.284 694.163,-136.2399 687.3185,-134.7725"/>
</g>
<!-- Node14&#45;&gt;Node17 -->
<g id="edge10" class="edge">
<title>Node14&#45;&gt;Node17</title>
<path fill="none" stroke="#191970" d="M657.7425,-138.7808C645.8433,-128.9383 632.0644,-117.541 621.3074,-108.6432"/>
<polygon fill="#191970" stroke="#191970" points="655.6835,-141.6198 665.6198,-145.2967 660.1451,-136.2259 655.6835,-141.6198"/>
</g>
<!-- Node14&#45;&gt;Node18 -->
<g id="edge11" class="edge">
<title>Node14&#45;&gt;Node18</title>
<path fill="none" stroke="#191970" d="M768.0566,-146.6627C842.9551,-134.3329 951.2667,-116.5028 1021.4091,-104.956"/>
<polygon fill="#191970" stroke="#191970" points="767.4755,-143.2111 758.1768,-148.2891 768.6126,-150.1182 767.4755,-143.2111"/>
</g>
<!-- Node15&#45;&gt;Node13 -->
<g id="edge7" class="edge">
<title>Node15&#45;&gt;Node13</title>
<path fill="none" stroke="#191970" d="M463.8545,-73.7557C483.0376,-63.7502 506.3104,-51.6115 525.6937,-41.5015"/>
<polygon fill="#191970" stroke="#191970" points="462.0487,-70.7501 454.8009,-78.478 465.2859,-76.9566 462.0487,-70.7501"/>
</g>
<!-- Node15&#45;&gt;Node16 -->
<g id="edge8" class="edge">
<title>Node15&#45;&gt;Node16</title>
<path fill="none" stroke="#191970" d="M387.8609,-73.7494C364.8818,-61.8495 336.0798,-46.9342 314.9709,-36.0028"/>
<polygon fill="#191970" stroke="#191970" points="386.5024,-76.9873 396.9919,-78.478 389.7215,-70.7714 386.5024,-76.9873"/>
</g>
<!-- Node23&#45;&gt;Node11 -->
<g id="edge19" class="edge">
<title>Node23&#45;&gt;Node11</title>
<path fill="none" stroke="#191970" d="M814.6964,-282.3668C825.0595,-270.8194 836.5959,-257.9646 845.2981,-248.2679"/>
<polygon fill="#191970" stroke="#191970" points="811.833,-280.3173 807.7587,-290.0974 817.0427,-284.9927 811.833,-280.3173"/>
</g>
<!-- Node23&#45;&gt;Node14 -->
<g id="edge22" class="edge">
<title>Node23&#45;&gt;Node14</title>
<path fill="none" stroke="#191970" d="M709.805,-290.9369C708.5276,-290.6217 707.2585,-290.3092 706,-290 639.0006,-273.5383 597.7553,-308.1469 555,-254 543.432,-239.3499 544.5298,-227.4538 555,-212 567.7145,-193.2338 588.4844,-181.3055 609.6798,-173.7237"/>
<polygon fill="#191970" stroke="#191970" points="709.1778,-294.3874 719.7263,-293.3971 710.8626,-287.5931 709.1778,-294.3874"/>
</g>
<!-- Node23&#45;&gt;Node15 -->
<g id="edge21" class="edge">
<title>Node23&#45;&gt;Node15</title>
<path fill="none" stroke="#191970" d="M709.5192,-296.4929C697.2931,-294.2956 684.8116,-292.072 673,-290 578.8663,-273.4873 534.6161,-314.9467 461,-254 417.5037,-217.9895 420.3535,-141.6707 423.8776,-108.9372"/>
<polygon fill="#191970" stroke="#191970" points="709.2465,-300 719.7087,-298.3285 710.4877,-293.1109 709.2465,-300"/>
</g>
<!-- Node23&#45;&gt;Node17 -->
<g id="edge23" class="edge">
<title>Node23&#45;&gt;Node17</title>
<path fill="none" stroke="#191970" d="M709.8121,-290.9076C708.5325,-290.6014 707.261,-290.2987 706,-290 581.2389,-260.4469 497.8024,-290.9444 441,-176 434.896,-163.6481 432.8662,-156.1206 441,-145 452.4989,-129.2785 495.2103,-116.0776 533.8892,-106.9777"/>
<polygon fill="#191970" stroke="#191970" points="709.2046,-294.3615 719.7471,-293.3105 710.8503,-287.5577 709.2046,-294.3615"/>
</g>
<!-- Node23&#45;&gt;Node18 -->
<g id="edge24" class="edge">
<title>Node23&#45;&gt;Node18</title>
<path fill="none" stroke="#191970" d="M867.8969,-290.8104C900.7667,-280.6579 933.512,-267.6289 943,-254 953.6652,-238.6802 948.4093,-229.8657 943,-212 937.4276,-193.5955 924.5724,-194.4045 919,-176 915.0074,-162.8134 910.7727,-156.0516 919,-145 931.6572,-127.9978 979.4091,-114.5258 1021.3954,-105.6316"/>
<polygon fill="#191970" stroke="#191970" points="866.7507,-287.5002 858.1815,-293.7307 868.7658,-294.2039 866.7507,-287.5002"/>
</g>
<!-- Node23&#45;&gt;Node22 -->
<g id="edge25" class="edge">
<title>Node23&#45;&gt;Node22</title>
<path fill="none" stroke="#191970" d="M868.2147,-290.2508C901.9183,-280.5548 941.3615,-268.0452 976,-254 1006.2861,-241.7196 1087.0574,-198.79 1130.0956,-175.6135"/>
<polygon fill="#191970" stroke="#191970" points="867.0728,-286.9367 858.4117,-293.0387 868.9877,-293.6697 867.0728,-286.9367"/>
</g>
<!-- Node24 -->
<g id="node16" class="node">
<title>Node24</title>
<g id="a_node16"><a xlink:href="data__descriptor_8cxx.html" target="_top" xlink:title="/home/jbigot/data/projects\l/pdi/pdi/src/data_descriptor.cxx">
<polygon fill="#ffffff" stroke="#000000" points="564,-218 564,-248 728,-248 728,-218 564,-218"/>
<text text-anchor="start" x="572" y="-236" font-family="Helvetica,sans-Serif" font-size="10.00" fill="#000000">/home/jbigot/data/projects</text>
<text text-anchor="middle" x="646" y="-225" font-family="Helvetica,sans-Serif" font-size="10.00" fill="#000000">/pdi/pdi/src/data_descriptor.cxx</text>
</a>
</g>
</g>
<!-- Node23&#45;&gt;Node24 -->
<g id="edge20" class="edge">
<title>Node23&#45;&gt;Node24</title>
<path fill="none" stroke="#191970" d="M742.251,-285.5005C719.5792,-273.1341 693.1198,-258.7017 673.687,-248.102"/>
<polygon fill="#191970" stroke="#191970" points="740.5991,-288.5863 751.0541,-290.3022 743.9511,-282.441 740.5991,-288.5863"/>
</g>
<!-- Node25&#45;&gt;Node19 -->
<g id="edge28" class="edge">
<title>Node25&#45;&gt;Node19</title>
<path fill="none" stroke="#191970" d="M1363.2182,-290.3033C1350.2045,-281.0517 1337.121,-268.8487 1330,-254 1321.9282,-237.1687 1320.8808,-228.2876 1330,-212 1339.1924,-195.5816 1355.9941,-183.7643 1372.1687,-175.6253"/>
<polygon fill="#191970" stroke="#191970" points="1361.4346,-293.3207 1371.6967,-295.9549 1365.3172,-287.4961 1361.4346,-293.3207"/>
</g>
<!-- Node25&#45;&gt;Node20 -->
<g id="edge29" class="edge">
<title>Node25&#45;&gt;Node20</title>
<path fill="none" stroke="#191970" d="M1307.247,-306.2251C1144.2291,-297.3683 821.4125,-277.1734 775,-254 752.4782,-242.7551 758.6593,-224.8279 737,-212 724.3124,-204.4857 649.6368,-187.5579 591.6001,-175.1527"/>
<polygon fill="#191970" stroke="#191970" points="1307.0981,-309.722 1317.2723,-306.7664 1307.4756,-302.7322 1307.0981,-309.722"/>
</g>
<!-- Node25&#45;&gt;Node26 -->
<g id="edge27" class="edge">
<title>Node25&#45;&gt;Node26</title>
<path fill="none" stroke="#191970" d="M1406.7319,-286.1616C1409.605,-273.7119 1412.9921,-259.0342 1415.4787,-248.2592"/>
<polygon fill="#191970" stroke="#191970" points="1403.3089,-285.4299 1404.4706,-295.9608 1410.1296,-287.0039 1403.3089,-285.4299"/>
</g>
<!-- Node25&#45;&gt;Node27 -->
<g id="edge30" class="edge">
<title>Node25&#45;&gt;Node27</title>
<path fill="none" stroke="#191970" d="M1449.0117,-292.2754C1483.6754,-278.7566 1529.8837,-260.7354 1562.2157,-248.1259"/>
<polygon fill="#191970" stroke="#191970" points="1447.6068,-289.0665 1439.562,-295.9608 1450.1503,-295.5881 1447.6068,-289.0665"/>
</g>
<!-- Node25&#45;&gt;Node28 -->
<g id="edge31" class="edge">
<title>Node25&#45;&gt;Node28</title>
<path fill="none" stroke="#191970" d="M1492.1623,-294.1076C1550.0721,-283.1688 1626.557,-268.3375 1694,-254 1702.7227,-252.1457 1711.8977,-250.1188 1720.9281,-248.0791"/>
<polygon fill="#191970" stroke="#191970" points="1491.4822,-290.6741 1482.3037,-295.9662 1492.779,-297.5529 1491.4822,-290.6741"/>
</g>
<!-- Node29&#45;&gt;Node18 -->
<g id="edge33" class="edge">
<title>Node29&#45;&gt;Node18</title>
<path fill="none" stroke="#191970" d="M1215.27,-205.9064C1236.3453,-188.6335 1254.7382,-165.6878 1240,-145 1229.8364,-130.7335 1192.5864,-117.8585 1157.8773,-108.5502"/>
<polygon fill="#191970" stroke="#191970" points="1212.8761,-203.334 1207.1249,-212.2321 1217.1697,-208.8626 1212.8761,-203.334"/>
</g>
<!-- Node29&#45;&gt;Node22 -->
<g id="edge34" class="edge">
<title>Node29&#45;&gt;Node22</title>
<path fill="none" stroke="#191970" d="M1167.2967,-202.6258C1165.2379,-193.2967 1163.0613,-183.4342 1161.3322,-175.5991"/>
<polygon fill="#191970" stroke="#191970" points="1163.885,-203.4076 1169.4578,-212.4183 1170.7205,-201.899 1163.885,-203.4076"/>
</g>
</g>
</svg>
