<?xml version="1.0" encoding="UTF-8" standalone="no"?>
<!DOCTYPE svg PUBLIC "-//W3C//DTD SVG 1.1//EN"
 "http://www.w3.org/Graphics/SVG/1.1/DTD/svg11.dtd">
<!-- Generated by graphviz version 2.40.1 (20161225.0304)
 -->
<!-- Title: /home/jbigot/data/projects/pdi/pdi/src/error.cxx Pages: 1 -->
<svg width="461pt" height="263pt"
 viewBox="0.00 0.00 461.00 263.00" xmlns="http://www.w3.org/2000/svg" xmlns:xlink="http://www.w3.org/1999/xlink">
<g id="graph0" class="graph" transform="scale(1 1) rotate(0) translate(4 259)">
<title>/home/jbigot/data/projects/pdi/pdi/src/error.cxx</title>
<polygon fill="#ffffff" stroke="transparent" points="-4,4 -4,-259 457,-259 457,4 -4,4"/>
<!-- Node0 -->
<g id="node1" class="node">
<title>Node0</title>
<polygon fill="#bfbfbf" stroke="#000000" points="100.5,-224.5 100.5,-254.5 238.5,-254.5 238.5,-224.5 100.5,-224.5"/>
<text text-anchor="start" x="108.5" y="-242.5" font-family="Helvetica,sans-Serif" font-size="10.00" fill="#000000">/home/jbigot/data/projects</text>
<text text-anchor="middle" x="169.5" y="-231.5" font-family="Helvetica,sans-Serif" font-size="10.00" fill="#000000">/pdi/pdi/src/error.cxx</text>
</g>
<!-- Node1 -->
<g id="node2" class="node">
<title>Node1</title>
<polygon fill="#ffffff" stroke="#bfbfbf" points="0,-168.5 0,-187.5 53,-187.5 53,-168.5 0,-168.5"/>
<text text-anchor="middle" x="26.5" y="-175.5" font-family="Helvetica,sans-Serif" font-size="10.00" fill="#000000">config.h</text>
</g>
<!-- Node0&#45;&gt;Node1 -->
<g id="edge1" class="edge">
<title>Node0&#45;&gt;Node1</title>
<path fill="none" stroke="#191970" d="M134.5183,-224.4554C111.1816,-214.419 80.7502,-201.3314 58.137,-191.6061"/>
<polygon fill="#191970" stroke="#191970" points="59.2292,-188.2659 48.6599,-187.5303 56.4636,-194.6965 59.2292,-188.2659"/>
</g>
<!-- Node2 -->
<g id="node3" class="node">
<title>Node2</title>
<polygon fill="#ffffff" stroke="#bfbfbf" points="71,-168.5 71,-187.5 122,-187.5 122,-168.5 71,-168.5"/>
<text text-anchor="middle" x="96.5" y="-175.5" font-family="Helvetica,sans-Serif" font-size="10.00" fill="#000000">cassert</text>
</g>
<!-- Node0&#45;&gt;Node2 -->
<g id="edge2" class="edge">
<title>Node0&#45;&gt;Node2</title>
<path fill="none" stroke="#191970" d="M151.4551,-224.2977C140.6886,-215.2274 127.0149,-203.7077 116.0005,-194.4285"/>
<polygon fill="#191970" stroke="#191970" points="118.0911,-191.6132 108.1882,-187.8469 113.5809,-196.9667 118.0911,-191.6132"/>
</g>
<!-- Node3 -->
<g id="node4" class="node">
<title>Node3</title>
<polygon fill="#ffffff" stroke="#bfbfbf" points="169.5,-56.5 169.5,-75.5 223.5,-75.5 223.5,-56.5 169.5,-56.5"/>
<text text-anchor="middle" x="196.5" y="-63.5" font-family="Helvetica,sans-Serif" font-size="10.00" fill="#000000">memory</text>
</g>
<!-- Node0&#45;&gt;Node3 -->
<g id="edge3" class="edge">
<title>Node0&#45;&gt;Node3</title>
<path fill="none" stroke="#191970" d="M166.965,-224.2436C163.4911,-199.9748 158.8175,-151.3033 169.5,-112 172.2176,-102.0015 177.7175,-91.9556 183.0484,-83.8139"/>
<polygon fill="#191970" stroke="#191970" points="185.9755,-85.7354 188.8381,-75.5346 180.239,-81.7239 185.9755,-85.7354"/>
</g>
<!-- Node4 -->
<g id="node5" class="node">
<title>Node4</title>
<polygon fill="#ffffff" stroke="#bfbfbf" points="179,-112.5 179,-131.5 222,-131.5 222,-112.5 179,-112.5"/>
<text text-anchor="middle" x="200.5" y="-119.5" font-family="Helvetica,sans-Serif" font-size="10.00" fill="#000000">string</text>
</g>
<!-- Node0&#45;&gt;Node4 -->
<g id="edge4" class="edge">
<title>Node0&#45;&gt;Node4</title>
<path fill="none" stroke="#191970" d="M173.5527,-224.1389C179.1633,-202.873 189.2951,-164.4702 195.4092,-141.2956"/>
<polygon fill="#191970" stroke="#191970" points="198.811,-142.1215 197.9779,-131.5595 192.0426,-140.3357 198.811,-142.1215"/>
</g>
<!-- Node5 -->
<g id="node6" class="node">
<title>Node5</title>
<polygon fill="#ffffff" stroke="#bfbfbf" points="216.5,-168.5 216.5,-187.5 278.5,-187.5 278.5,-168.5 216.5,-168.5"/>
<text text-anchor="middle" x="247.5" y="-175.5" font-family="Helvetica,sans-Serif" font-size="10.00" fill="#000000">pthread.h</text>
</g>
<!-- Node0&#45;&gt;Node5 -->
<g id="edge5" class="edge">
<title>Node0&#45;&gt;Node5</title>
<path fill="none" stroke="#191970" d="M188.7809,-224.2977C200.3976,-215.1384 215.1818,-203.4816 227.0092,-194.1562"/>
<polygon fill="#191970" stroke="#191970" points="229.3256,-196.787 235.0112,-187.8469 224.9914,-191.2901 229.3256,-196.787"/>
</g>
<!-- Node6 -->
<g id="node7" class="node">
<title>Node6</title>
<g id="a_node7"><a xlink:href="error_8h.html" target="_top" xlink:title="pdi/error.h">
<polygon fill="#ffffff" stroke="#000000" points="297,-168.5 297,-187.5 362,-187.5 362,-168.5 297,-168.5"/>
<text text-anchor="middle" x="329.5" y="-175.5" font-family="Helvetica,sans-Serif" font-size="10.00" fill="#000000">pdi/error.h</text>
</a>
</g>
</g>
<!-- Node0&#45;&gt;Node6 -->
<g id="edge6" class="edge">
<title>Node0&#45;&gt;Node6</title>
<path fill="none" stroke="#191970" d="M208.6404,-224.4554C235.1026,-214.284 269.7181,-200.9787 295.1183,-191.2155"/>
<polygon fill="#191970" stroke="#191970" points="296.6272,-194.3852 304.7057,-187.5303 294.1157,-187.8512 296.6272,-194.3852"/>
</g>
<!-- Node6&#45;&gt;Node4 -->
<g id="edge8" class="edge">
<title>Node6&#45;&gt;Node4</title>
<path fill="none" stroke="#191970" d="M307.3241,-168.3733C286.5234,-159.3435 255.2083,-145.7494 231.8542,-135.6111"/>
<polygon fill="#191970" stroke="#191970" points="232.9532,-132.2727 222.3865,-131.5011 230.1657,-138.6938 232.9532,-132.2727"/>
</g>
<!-- Node7 -->
<g id="node8" class="node">
<title>Node7</title>
<polygon fill="#ffffff" stroke="#bfbfbf" points="336.5,-112.5 336.5,-131.5 398.5,-131.5 398.5,-112.5 336.5,-112.5"/>
<text text-anchor="middle" x="367.5" y="-119.5" font-family="Helvetica,sans-Serif" font-size="10.00" fill="#000000">exception</text>
</g>
<!-- Node6&#45;&gt;Node7 -->
<g id="edge7" class="edge">
<title>Node6&#45;&gt;Node7</title>
<path fill="none" stroke="#191970" d="M336.1191,-168.2455C341.4046,-160.4564 348.9541,-149.3308 355.3238,-139.9439"/>
<polygon fill="#191970" stroke="#191970" points="358.2379,-141.8827 360.9568,-131.6427 352.4455,-137.9522 358.2379,-141.8827"/>
</g>
<!-- Node8 -->
<g id="node9" class="node">
<title>Node8</title>
<polygon fill="#ffffff" stroke="#bfbfbf" points="386,-.5 386,-19.5 453,-19.5 453,-.5 386,-.5"/>
<text text-anchor="middle" x="419.5" y="-7.5" font-family="Helvetica,sans-Serif" font-size="10.00" fill="#000000">paraconf.h</text>
</g>
<!-- Node6&#45;&gt;Node8 -->
<g id="edge9" class="edge">
<title>Node6&#45;&gt;Node8</title>
<path fill="none" stroke="#191970" d="M358.815,-168.3907C375.9476,-161.1768 396.3366,-149.4934 407.5,-132 427.4463,-100.7435 425.8016,-55.527 422.7153,-29.8272"/>
<polygon fill="#191970" stroke="#191970" points="426.1657,-29.2281 421.3157,-19.8086 419.233,-30.1967 426.1657,-29.2281"/>
</g>
<!-- Node9 -->
<g id="node10" class="node">
<title>Node9</title>
<g id="a_node10"><a xlink:href="pdi__fwd_8h.html" target="_top" xlink:title="pdi/pdi_fwd.h">
<polygon fill="#ffffff" stroke="#000000" points="240,-112.5 240,-131.5 319,-131.5 319,-112.5 240,-112.5"/>
<text text-anchor="middle" x="279.5" y="-119.5" font-family="Helvetica,sans-Serif" font-size="10.00" fill="#000000">pdi/pdi_fwd.h</text>
</a>
</g>
</g>
<!-- Node6&#45;&gt;Node9 -->
<g id="edge10" class="edge">
<title>Node6&#45;&gt;Node9</title>
<path fill="none" stroke="#191970" d="M320.7907,-168.2455C313.6927,-160.2958 303.4916,-148.8706 295.005,-139.3656"/>
<polygon fill="#191970" stroke="#191970" points="297.3805,-136.771 288.1095,-131.6427 292.1589,-141.4331 297.3805,-136.771"/>
</g>
<!-- Node9&#45;&gt;Node3 -->
<g id="edge11" class="edge">
<title>Node9&#45;&gt;Node3</title>
<path fill="none" stroke="#191970" d="M265.0425,-112.2455C252.4268,-103.7337 233.9056,-91.2375 219.2955,-81.3801"/>
<polygon fill="#191970" stroke="#191970" points="221.0391,-78.3343 210.7918,-75.6427 217.1239,-84.1371 221.0391,-78.3343"/>
</g>
<!-- Node10 -->
<g id="node11" class="node">
<title>Node10</title>
<g id="a_node11"><a xlink:href="pdi_8h.html" target="_top" xlink:title="pdi.h">
<polygon fill="#ffffff" stroke="#000000" points="274,-56.5 274,-75.5 313,-75.5 313,-56.5 274,-56.5"/>
<text text-anchor="middle" x="293.5" y="-63.5" font-family="Helvetica,sans-Serif" font-size="10.00" fill="#000000">pdi.h</text>
</a>
</g>
</g>
<!-- Node9&#45;&gt;Node10 -->
<g id="edge12" class="edge">
<title>Node9&#45;&gt;Node10</title>
<path fill="none" stroke="#191970" d="M281.9386,-112.2455C283.7855,-104.8579 286.3828,-94.4689 288.6478,-85.4087"/>
<polygon fill="#191970" stroke="#191970" points="292.0594,-86.193 291.0893,-75.6427 285.2684,-84.4952 292.0594,-86.193"/>
</g>
<!-- Node10&#45;&gt;Node8 -->
<g id="edge13" class="edge">
<title>Node10&#45;&gt;Node8</title>
<path fill="none" stroke="#191970" d="M313.1875,-57.25C333.3839,-48.2738 365.0905,-34.182 388.6278,-23.721"/>
<polygon fill="#191970" stroke="#191970" points="390.1232,-26.8865 397.8398,-19.6267 387.2802,-20.4898 390.1232,-26.8865"/>
</g>
<!-- Node11 -->
<g id="node12" class="node">
<title>Node11</title>
<polygon fill="#ffffff" stroke="#bfbfbf" points="172.5,-.5 172.5,-19.5 244.5,-19.5 244.5,-.5 172.5,-.5"/>
<text text-anchor="middle" x="208.5" y="-7.5" font-family="Helvetica,sans-Serif" font-size="10.00" fill="#000000">pdi/export.h</text>
</g>
<!-- Node10&#45;&gt;Node11 -->
<g id="edge14" class="edge">
<title>Node10&#45;&gt;Node11</title>
<path fill="none" stroke="#191970" d="M278.6941,-56.2455C265.7744,-47.7337 246.8069,-35.2375 231.8448,-25.3801"/>
<polygon fill="#191970" stroke="#191970" points="233.4124,-22.2216 223.1362,-19.6427 229.5613,-28.067 233.4124,-22.2216"/>
</g>
<!-- Node12 -->
<g id="node13" class="node">
<title>Node12</title>
<polygon fill="#ffffff" stroke="#bfbfbf" points="263,-.5 263,-19.5 340,-19.5 340,-.5 263,-.5"/>
<text text-anchor="middle" x="301.5" y="-7.5" font-family="Helvetica,sans-Serif" font-size="10.00" fill="#000000">pdi/version.h</text>
</g>
<!-- Node10&#45;&gt;Node12 -->
<g id="edge15" class="edge">
<title>Node10&#45;&gt;Node12</title>
<path fill="none" stroke="#191970" d="M294.8935,-56.2455C295.9374,-48.9382 297.4008,-38.6944 298.6851,-29.7046"/>
<polygon fill="#191970" stroke="#191970" points="302.173,-30.0372 300.1225,-19.6427 295.2434,-29.0472 302.173,-30.0372"/>
</g>
</g>
</svg>
