<?xml version="1.0" encoding="UTF-8" standalone="no"?>
<!DOCTYPE svg PUBLIC "-//W3C//DTD SVG 1.1//EN"
 "http://www.w3.org/Graphics/SVG/1.1/DTD/svg11.dtd">
<!-- Generated by graphviz version 2.40.1 (20161225.0304)
 -->
<!-- Title: /home/jbigot/data/projects/pdi/pdi/include/pdi/error.h Pages: 1 -->
<svg width="404pt" height="207pt"
 viewBox="0.00 0.00 403.50 207.00" xmlns="http://www.w3.org/2000/svg" xmlns:xlink="http://www.w3.org/1999/xlink">
<g id="graph0" class="graph" transform="scale(1 1) rotate(0) translate(4 203)">
<title>/home/jbigot/data/projects/pdi/pdi/include/pdi/error.h</title>
<polygon fill="#ffffff" stroke="transparent" points="-4,4 -4,-203 399.5,-203 399.5,4 -4,4"/>
<!-- Node0 -->
<g id="node1" class="node">
<title>Node0</title>
<polygon fill="#bfbfbf" stroke="#000000" points="57.5,-168.5 57.5,-198.5 196.5,-198.5 196.5,-168.5 57.5,-168.5"/>
<text text-anchor="start" x="65.5" y="-186.5" font-family="Helvetica,sans-Serif" font-size="10.00" fill="#000000">/home/jbigot/data/projects</text>
<text text-anchor="middle" x="127" y="-175.5" font-family="Helvetica,sans-Serif" font-size="10.00" fill="#000000">/pdi/pdi/include/pdi/error.h</text>
</g>
<!-- Node1 -->
<g id="node2" class="node">
<title>Node1</title>
<polygon fill="#ffffff" stroke="#bfbfbf" points="0,-112.5 0,-131.5 62,-131.5 62,-112.5 0,-112.5"/>
<text text-anchor="middle" x="31" y="-119.5" font-family="Helvetica,sans-Serif" font-size="10.00" fill="#000000">exception</text>
</g>
<!-- Node0&#45;&gt;Node1 -->
<g id="edge1" class="edge">
<title>Node0&#45;&gt;Node1</title>
<path fill="none" stroke="#191970" d="M103.2697,-168.2977C88.4638,-158.8127 69.4772,-146.6495 54.6807,-137.1705"/>
<polygon fill="#191970" stroke="#191970" points="56.3925,-134.1105 46.0841,-131.6633 52.6165,-140.0047 56.3925,-134.1105"/>
</g>
<!-- Node2 -->
<g id="node3" class="node">
<title>Node2</title>
<polygon fill="#ffffff" stroke="#bfbfbf" points="80.5,-112.5 80.5,-131.5 123.5,-131.5 123.5,-112.5 80.5,-112.5"/>
<text text-anchor="middle" x="102" y="-119.5" font-family="Helvetica,sans-Serif" font-size="10.00" fill="#000000">string</text>
</g>
<!-- Node0&#45;&gt;Node2 -->
<g id="edge2" class="edge">
<title>Node0&#45;&gt;Node2</title>
<path fill="none" stroke="#191970" d="M120.8202,-168.2977C117.4946,-160.1166 113.3589,-149.943 109.8121,-141.2179"/>
<polygon fill="#191970" stroke="#191970" points="113.011,-139.7927 106.0028,-131.8469 106.5263,-142.4288 113.011,-139.7927"/>
</g>
<!-- Node3 -->
<g id="node4" class="node">
<title>Node3</title>
<polygon fill="#ffffff" stroke="#bfbfbf" points="134.5,-.5 134.5,-19.5 201.5,-19.5 201.5,-.5 134.5,-.5"/>
<text text-anchor="middle" x="168" y="-7.5" font-family="Helvetica,sans-Serif" font-size="10.00" fill="#000000">paraconf.h</text>
</g>
<!-- Node0&#45;&gt;Node3 -->
<g id="edge3" class="edge">
<title>Node0&#45;&gt;Node3</title>
<path fill="none" stroke="#191970" d="M130.5668,-168.4065C137.9855,-137.0126 155.0747,-64.6961 163.3464,-29.6925"/>
<polygon fill="#191970" stroke="#191970" points="166.8051,-30.2749 165.6988,-19.738 159.9928,-28.665 166.8051,-30.2749"/>
</g>
<!-- Node4 -->
<g id="node5" class="node">
<title>Node4</title>
<g id="a_node5"><a xlink:href="pdi__fwd_8h.html" target="_top" xlink:title="pdi/pdi_fwd.h">
<polygon fill="#ffffff" stroke="#000000" points="180.5,-112.5 180.5,-131.5 259.5,-131.5 259.5,-112.5 180.5,-112.5"/>
<text text-anchor="middle" x="220" y="-119.5" font-family="Helvetica,sans-Serif" font-size="10.00" fill="#000000">pdi/pdi_fwd.h</text>
</a>
</g>
</g>
<!-- Node0&#45;&gt;Node4 -->
<g id="edge4" class="edge">
<title>Node0&#45;&gt;Node4</title>
<path fill="none" stroke="#191970" d="M149.9888,-168.2977C164.1966,-158.9022 182.3785,-146.8787 196.6525,-137.4395"/>
<polygon fill="#191970" stroke="#191970" points="198.9767,-140.0986 205.3872,-131.6633 195.1155,-134.2598 198.9767,-140.0986"/>
</g>
<!-- Node5 -->
<g id="node6" class="node">
<title>Node5</title>
<polygon fill="#ffffff" stroke="#bfbfbf" points="180,-56.5 180,-75.5 234,-75.5 234,-56.5 180,-56.5"/>
<text text-anchor="middle" x="207" y="-63.5" font-family="Helvetica,sans-Serif" font-size="10.00" fill="#000000">memory</text>
</g>
<!-- Node4&#45;&gt;Node5 -->
<g id="edge5" class="edge">
<title>Node4&#45;&gt;Node5</title>
<path fill="none" stroke="#191970" d="M217.7356,-112.2455C216.0206,-104.8579 213.6088,-94.4689 211.5056,-85.4087"/>
<polygon fill="#191970" stroke="#191970" points="214.9092,-84.5922 209.2385,-75.6427 208.0905,-86.1751 214.9092,-84.5922"/>
</g>
<!-- Node6 -->
<g id="node7" class="node">
<title>Node6</title>
<g id="a_node7"><a xlink:href="pdi_8h.html" target="_top" xlink:title="pdi.h">
<polygon fill="#ffffff" stroke="#000000" points="252.5,-56.5 252.5,-75.5 291.5,-75.5 291.5,-56.5 252.5,-56.5"/>
<text text-anchor="middle" x="272" y="-63.5" font-family="Helvetica,sans-Serif" font-size="10.00" fill="#000000">pdi.h</text>
</a>
</g>
</g>
<!-- Node4&#45;&gt;Node6 -->
<g id="edge6" class="edge">
<title>Node4&#45;&gt;Node6</title>
<path fill="none" stroke="#191970" d="M229.0577,-112.2455C236.5142,-104.2155 247.2634,-92.6394 256.1417,-83.0781"/>
<polygon fill="#191970" stroke="#191970" points="258.8063,-85.3522 263.0461,-75.6427 253.6768,-80.589 258.8063,-85.3522"/>
</g>
<!-- Node6&#45;&gt;Node3 -->
<g id="edge7" class="edge">
<title>Node6&#45;&gt;Node3</title>
<path fill="none" stroke="#191970" d="M253.8846,-56.2455C237.555,-47.4527 213.329,-34.4079 194.7661,-24.4125"/>
<polygon fill="#191970" stroke="#191970" points="196.3719,-21.3021 185.9078,-19.6427 193.0532,-27.4654 196.3719,-21.3021"/>
</g>
<!-- Node7 -->
<g id="node8" class="node">
<title>Node7</title>
<polygon fill="#ffffff" stroke="#bfbfbf" points="228,-.5 228,-19.5 300,-19.5 300,-.5 228,-.5"/>
<text text-anchor="middle" x="264" y="-7.5" font-family="Helvetica,sans-Serif" font-size="10.00" fill="#000000">pdi/export.h</text>
</g>
<!-- Node6&#45;&gt;Node7 -->
<g id="edge8" class="edge">
<title>Node6&#45;&gt;Node7</title>
<path fill="none" stroke="#191970" d="M270.6065,-56.2455C269.5626,-48.9382 268.0992,-38.6944 266.8149,-29.7046"/>
<polygon fill="#191970" stroke="#191970" points="270.2566,-29.0472 265.3775,-19.6427 263.327,-30.0372 270.2566,-29.0472"/>
</g>
<!-- Node8 -->
<g id="node9" class="node">
<title>Node8</title>
<polygon fill="#ffffff" stroke="#bfbfbf" points="318.5,-.5 318.5,-19.5 395.5,-19.5 395.5,-.5 318.5,-.5"/>
<text text-anchor="middle" x="357" y="-7.5" font-family="Helvetica,sans-Serif" font-size="10.00" fill="#000000">pdi/version.h</text>
</g>
<!-- Node6&#45;&gt;Node8 -->
<g id="edge9" class="edge">
<title>Node6&#45;&gt;Node8</title>
<path fill="none" stroke="#191970" d="M286.8059,-56.2455C299.7256,-47.7337 318.6931,-35.2375 333.6552,-25.3801"/>
<polygon fill="#191970" stroke="#191970" points="335.9387,-28.067 342.3638,-19.6427 332.0876,-22.2216 335.9387,-28.067"/>
</g>
</g>
</svg>
