<?xml version="1.0" encoding="UTF-8" standalone="no"?>
<!DOCTYPE svg PUBLIC "-//W3C//DTD SVG 1.1//EN"
 "http://www.w3.org/Graphics/SVG/1.1/DTD/svg11.dtd">
<!-- Generated by graphviz version 2.40.1 (20161225.0304)
 -->
<!-- Title: /home/jbigot/data/projects/pdi/pdi/include/pdi/expression.h Pages: 1 -->
<svg width="666pt" height="487pt"
 viewBox="0.00 0.00 665.50 487.00" xmlns="http://www.w3.org/2000/svg" xmlns:xlink="http://www.w3.org/1999/xlink">
<g id="graph0" class="graph" transform="scale(1 1) rotate(0) translate(4 483)">
<title>/home/jbigot/data/projects/pdi/pdi/include/pdi/expression.h</title>
<polygon fill="#ffffff" stroke="transparent" points="-4,4 -4,-483 661.5,-483 661.5,4 -4,4"/>
<!-- Node0 -->
<g id="node1" class="node">
<title>Node0</title>
<polygon fill="#bfbfbf" stroke="#000000" points="490.5,-448.5 490.5,-478.5 657.5,-478.5 657.5,-448.5 490.5,-448.5"/>
<text text-anchor="start" x="498.5" y="-466.5" font-family="Helvetica,sans-Serif" font-size="10.00" fill="#000000">/home/jbigot/data/projects</text>
<text text-anchor="middle" x="574" y="-455.5" font-family="Helvetica,sans-Serif" font-size="10.00" fill="#000000">/pdi/pdi/include/pdi/expression.h</text>
</g>
<!-- Node1 -->
<g id="node2" class="node">
<title>Node1</title>
<polygon fill="#ffffff" stroke="#bfbfbf" points="509,-56.5 509,-75.5 563,-75.5 563,-56.5 509,-56.5"/>
<text text-anchor="middle" x="536" y="-63.5" font-family="Helvetica,sans-Serif" font-size="10.00" fill="#000000">memory</text>
</g>
<!-- Node0&#45;&gt;Node1 -->
<g id="edge1" class="edge">
<title>Node0&#45;&gt;Node1</title>
<path fill="none" stroke="#191970" d="M582.2454,-448.42C593.4215,-426.5326 612,-384.3768 612,-346 612,-346 612,-346 612,-178 612,-138.2361 578.7929,-102.1042 556.2792,-82.177"/>
<polygon fill="#191970" stroke="#191970" points="558.4317,-79.4128 548.5499,-75.5918 553.8921,-84.7412 558.4317,-79.4128"/>
</g>
<!-- Node2 -->
<g id="node3" class="node">
<title>Node2</title>
<g id="a_node3"><a xlink:href="pdi__fwd_8h.html" target="_top" xlink:title="pdi/pdi_fwd.h">
<polygon fill="#ffffff" stroke="#000000" points="312.5,-112.5 312.5,-131.5 391.5,-131.5 391.5,-112.5 312.5,-112.5"/>
<text text-anchor="middle" x="352" y="-119.5" font-family="Helvetica,sans-Serif" font-size="10.00" fill="#000000">pdi/pdi_fwd.h</text>
</a>
</g>
</g>
<!-- Node0&#45;&gt;Node2 -->
<g id="edge2" class="edge">
<title>Node0&#45;&gt;Node2</title>
<path fill="none" stroke="#191970" d="M574,-448.2899C574,-425.892 574,-382.7188 574,-346 574,-346 574,-346 574,-290 574,-202.7648 463.6545,-155.0299 398.5549,-134.4587"/>
<polygon fill="#191970" stroke="#191970" points="399.4946,-131.0861 388.908,-131.5038 397.4444,-137.7792 399.4946,-131.0861"/>
</g>
<!-- Node7 -->
<g id="node8" class="node">
<title>Node7</title>
<g id="a_node8"><a xlink:href="ref__any_8h.html" target="_top" xlink:title="pdi/ref_any.h">
<polygon fill="#ffffff" stroke="#000000" points="319,-392.5 319,-411.5 397,-411.5 397,-392.5 319,-392.5"/>
<text text-anchor="middle" x="358" y="-399.5" font-family="Helvetica,sans-Serif" font-size="10.00" fill="#000000">pdi/ref_any.h</text>
</a>
</g>
</g>
<!-- Node0&#45;&gt;Node7 -->
<g id="edge8" class="edge">
<title>Node0&#45;&gt;Node7</title>
<path fill="none" stroke="#191970" d="M521.1605,-448.4554C484.3299,-437.9689 435.8002,-424.1515 401.2655,-414.3187"/>
<polygon fill="#191970" stroke="#191970" points="402.0486,-410.9026 391.4723,-411.5303 400.1316,-417.635 402.0486,-410.9026"/>
</g>
<!-- Node2&#45;&gt;Node1 -->
<g id="edge3" class="edge">
<title>Node2&#45;&gt;Node1</title>
<path fill="none" stroke="#191970" d="M383.6307,-112.3733C415.6632,-102.6242 465.1773,-87.5547 499.0084,-77.2583"/>
<polygon fill="#191970" stroke="#191970" points="500.4199,-80.4873 508.9676,-74.2273 498.3817,-73.7906 500.4199,-80.4873"/>
</g>
<!-- Node3 -->
<g id="node4" class="node">
<title>Node3</title>
<g id="a_node4"><a xlink:href="pdi_8h.html" target="_top" xlink:title="pdi.h">
<polygon fill="#ffffff" stroke="#000000" points="317.5,-56.5 317.5,-75.5 356.5,-75.5 356.5,-56.5 317.5,-56.5"/>
<text text-anchor="middle" x="337" y="-63.5" font-family="Helvetica,sans-Serif" font-size="10.00" fill="#000000">pdi.h</text>
</a>
</g>
</g>
<!-- Node2&#45;&gt;Node3 -->
<g id="edge4" class="edge">
<title>Node2&#45;&gt;Node3</title>
<path fill="none" stroke="#191970" d="M349.3872,-112.2455C347.4084,-104.8579 344.6256,-94.4689 342.1988,-85.4087"/>
<polygon fill="#191970" stroke="#191970" points="345.5511,-84.3966 339.5829,-75.6427 338.7895,-86.2078 345.5511,-84.3966"/>
</g>
<!-- Node4 -->
<g id="node5" class="node">
<title>Node4</title>
<polygon fill="#ffffff" stroke="#bfbfbf" points="123.5,-.5 123.5,-19.5 190.5,-19.5 190.5,-.5 123.5,-.5"/>
<text text-anchor="middle" x="157" y="-7.5" font-family="Helvetica,sans-Serif" font-size="10.00" fill="#000000">paraconf.h</text>
</g>
<!-- Node3&#45;&gt;Node4 -->
<g id="edge5" class="edge">
<title>Node3&#45;&gt;Node4</title>
<path fill="none" stroke="#191970" d="M317.3942,-59.9004C288.7047,-50.9748 234.6428,-34.1555 197.2648,-22.5268"/>
<polygon fill="#191970" stroke="#191970" points="198.2623,-19.1717 187.674,-19.543 196.1828,-25.8557 198.2623,-19.1717"/>
</g>
<!-- Node5 -->
<g id="node6" class="node">
<title>Node5</title>
<polygon fill="#ffffff" stroke="#bfbfbf" points="224,-.5 224,-19.5 296,-19.5 296,-.5 224,-.5"/>
<text text-anchor="middle" x="260" y="-7.5" font-family="Helvetica,sans-Serif" font-size="10.00" fill="#000000">pdi/export.h</text>
</g>
<!-- Node3&#45;&gt;Node5 -->
<g id="edge6" class="edge">
<title>Node3&#45;&gt;Node5</title>
<path fill="none" stroke="#191970" d="M323.5876,-56.2455C311.9943,-47.814 295.0252,-35.4729 281.5322,-25.6598"/>
<polygon fill="#191970" stroke="#191970" points="283.4047,-22.6938 273.2587,-19.6427 279.2874,-28.355 283.4047,-22.6938"/>
</g>
<!-- Node6 -->
<g id="node7" class="node">
<title>Node6</title>
<polygon fill="#ffffff" stroke="#bfbfbf" points="314.5,-.5 314.5,-19.5 391.5,-19.5 391.5,-.5 314.5,-.5"/>
<text text-anchor="middle" x="353" y="-7.5" font-family="Helvetica,sans-Serif" font-size="10.00" fill="#000000">pdi/version.h</text>
</g>
<!-- Node3&#45;&gt;Node6 -->
<g id="edge7" class="edge">
<title>Node3&#45;&gt;Node6</title>
<path fill="none" stroke="#191970" d="M339.787,-56.2455C341.8977,-48.8579 344.866,-38.4689 347.4547,-29.4087"/>
<polygon fill="#191970" stroke="#191970" points="350.863,-30.2195 350.245,-19.6427 344.1323,-28.2964 350.863,-30.2195"/>
</g>
<!-- Node7&#45;&gt;Node1 -->
<g id="edge11" class="edge">
<title>Node7&#45;&gt;Node1</title>
<path fill="none" stroke="#191970" d="M397.3479,-394.9781C438.4503,-386.8932 499.2428,-372.5751 516,-356 537.7913,-334.4455 536,-320.6506 536,-290 536,-290 536,-290 536,-178 536,-145.7116 536,-108.1872 536,-85.8048"/>
<polygon fill="#191970" stroke="#191970" points="539.5001,-85.5883 536,-75.5884 532.5001,-85.5884 539.5001,-85.5883"/>
</g>
<!-- Node7&#45;&gt;Node2 -->
<g id="edge14" class="edge">
<title>Node7&#45;&gt;Node2</title>
<path fill="none" stroke="#191970" d="M372.2321,-392.2408C383.4565,-383.8491 398.7176,-370.7847 408,-356 424.2977,-330.0415 428,-320.6506 428,-290 428,-290 428,-290 428,-234 428,-194.2361 394.7929,-158.1042 372.2792,-138.177"/>
<polygon fill="#191970" stroke="#191970" points="374.4317,-135.4128 364.5499,-131.5918 369.8921,-140.7412 374.4317,-135.4128"/>
</g>
<!-- Node8 -->
<g id="node9" class="node">
<title>Node8</title>
<polygon fill="#ffffff" stroke="#bfbfbf" points="456.5,-336.5 456.5,-355.5 507.5,-355.5 507.5,-336.5 456.5,-336.5"/>
<text text-anchor="middle" x="482" y="-343.5" font-family="Helvetica,sans-Serif" font-size="10.00" fill="#000000">cassert</text>
</g>
<!-- Node7&#45;&gt;Node8 -->
<g id="edge9" class="edge">
<title>Node7&#45;&gt;Node8</title>
<path fill="none" stroke="#191970" d="M379.3164,-392.3733C399.2216,-383.3838 429.1436,-369.8706 451.56,-359.7471"/>
<polygon fill="#191970" stroke="#191970" points="453.2887,-362.8068 460.9618,-355.5011 450.4075,-356.4272 453.2887,-362.8068"/>
</g>
<!-- Node9 -->
<g id="node10" class="node">
<title>Node9</title>
<polygon fill="#ffffff" stroke="#bfbfbf" points="72,-336.5 72,-355.5 134,-355.5 134,-336.5 72,-336.5"/>
<text text-anchor="middle" x="103" y="-343.5" font-family="Helvetica,sans-Serif" font-size="10.00" fill="#000000">functional</text>
</g>
<!-- Node7&#45;&gt;Node9 -->
<g id="edge10" class="edge">
<title>Node7&#45;&gt;Node9</title>
<path fill="none" stroke="#191970" d="M318.6779,-394.0077C277.5246,-385.5499 210.7938,-371.5733 144.2343,-356.2348"/>
<polygon fill="#191970" stroke="#191970" points="144.9501,-352.808 134.4184,-353.9624 143.3713,-359.6277 144.9501,-352.808"/>
</g>
<!-- Node10 -->
<g id="node11" class="node">
<title>Node10</title>
<polygon fill="#ffffff" stroke="#bfbfbf" points="152,-336.5 152,-355.5 188,-355.5 188,-336.5 152,-336.5"/>
<text text-anchor="middle" x="170" y="-343.5" font-family="Helvetica,sans-Serif" font-size="10.00" fill="#000000">new</text>
</g>
<!-- Node7&#45;&gt;Node10 -->
<g id="edge12" class="edge">
<title>Node7&#45;&gt;Node10</title>
<path fill="none" stroke="#191970" d="M321.632,-392.4616C290.8917,-384.2102 245.5204,-371.5905 197.8043,-356.1032"/>
<polygon fill="#191970" stroke="#191970" points="198.8262,-352.755 188.2335,-352.968 196.647,-359.4072 198.8262,-352.755"/>
</g>
<!-- Node11 -->
<g id="node12" class="node">
<title>Node11</title>
<polygon fill="#ffffff" stroke="#bfbfbf" points="206,-336.5 206,-355.5 298,-355.5 298,-336.5 206,-336.5"/>
<text text-anchor="middle" x="252" y="-343.5" font-family="Helvetica,sans-Serif" font-size="10.00" fill="#000000">unordered_map</text>
</g>
<!-- Node7&#45;&gt;Node11 -->
<g id="edge13" class="edge">
<title>Node7&#45;&gt;Node11</title>
<path fill="none" stroke="#191970" d="M339.5362,-392.2455C322.8926,-383.4527 298.2007,-370.4079 279.2808,-360.4125"/>
<polygon fill="#191970" stroke="#191970" points="280.7291,-357.2193 270.2522,-355.6427 277.4592,-363.4086 280.7291,-357.2193"/>
</g>
<!-- Node12 -->
<g id="node13" class="node">
<title>Node12</title>
<g id="a_node13"><a xlink:href="datatype_8h.html" target="_top" xlink:title="pdi/datatype.h">
<polygon fill="#ffffff" stroke="#000000" points="316.5,-336.5 316.5,-355.5 399.5,-355.5 399.5,-336.5 316.5,-336.5"/>
<text text-anchor="middle" x="358" y="-343.5" font-family="Helvetica,sans-Serif" font-size="10.00" fill="#000000">pdi/datatype.h</text>
</a>
</g>
</g>
<!-- Node7&#45;&gt;Node12 -->
<g id="edge15" class="edge">
<title>Node7&#45;&gt;Node12</title>
<path fill="none" stroke="#191970" d="M358,-392.2455C358,-384.9382 358,-374.6944 358,-365.7046"/>
<polygon fill="#191970" stroke="#191970" points="361.5001,-365.6426 358,-355.6427 354.5001,-365.6427 361.5001,-365.6426"/>
</g>
<!-- Node17 -->
<g id="node18" class="node">
<title>Node17</title>
<g id="a_node18"><a xlink:href="error_8h.html" target="_top" xlink:title="pdi/error.h">
<polygon fill="#ffffff" stroke="#000000" points="34.5,-168.5 34.5,-187.5 99.5,-187.5 99.5,-168.5 34.5,-168.5"/>
<text text-anchor="middle" x="67" y="-175.5" font-family="Helvetica,sans-Serif" font-size="10.00" fill="#000000">pdi/error.h</text>
</a>
</g>
</g>
<!-- Node7&#45;&gt;Node17 -->
<g id="edge26" class="edge">
<title>Node7&#45;&gt;Node17</title>
<path fill="none" stroke="#191970" d="M318.8269,-398.7052C242.4124,-391.8803 79.4551,-375.2198 63,-356 24.3773,-310.888 45.9793,-233.2326 59.1637,-197.2893"/>
<polygon fill="#191970" stroke="#191970" points="62.5843,-198.1457 62.9092,-187.5558 56.0513,-195.6317 62.5843,-198.1457"/>
</g>
<!-- Node12&#45;&gt;Node2 -->
<g id="edge16" class="edge">
<title>Node12&#45;&gt;Node2</title>
<path fill="none" stroke="#191970" d="M360.2107,-336.1936C362.1798,-326.9241 364.9126,-312.5985 366,-300 368.7497,-268.141 376.5754,-259.5421 364,-168 362.7816,-159.131 360.4414,-149.5194 358.1487,-141.3868"/>
<polygon fill="#191970" stroke="#191970" points="361.4804,-140.3115 355.2605,-131.7345 354.7741,-142.3182 361.4804,-140.3115"/>
</g>
<!-- Node13 -->
<g id="node14" class="node">
<title>Node13</title>
<g id="a_node14"><a xlink:href="datatype__template_8h.html" target="_top" xlink:title="pdi/datatype_template.h">
<polygon fill="#ffffff" stroke="#000000" points="227,-280.5 227,-299.5 357,-299.5 357,-280.5 227,-280.5"/>
<text text-anchor="middle" x="292" y="-287.5" font-family="Helvetica,sans-Serif" font-size="10.00" fill="#000000">pdi/datatype_template.h</text>
</a>
</g>
</g>
<!-- Node12&#45;&gt;Node13 -->
<g id="edge17" class="edge">
<title>Node12&#45;&gt;Node13</title>
<path fill="none" stroke="#191970" d="M346.5037,-336.2455C336.7558,-327.9746 322.5741,-315.9416 311.1202,-306.2232"/>
<polygon fill="#191970" stroke="#191970" points="313.2541,-303.4437 303.3646,-299.6427 308.7253,-308.7813 313.2541,-303.4437"/>
</g>
<!-- Node13&#45;&gt;Node2 -->
<g id="edge19" class="edge">
<title>Node13&#45;&gt;Node2</title>
<path fill="none" stroke="#191970" d="M303.7421,-280.3344C313.2486,-271.8088 326.147,-258.5099 333,-244 348.7979,-210.5511 351.9309,-166.7596 352.295,-141.7691"/>
<polygon fill="#191970" stroke="#191970" points="355.795,-141.7175 352.3031,-131.7147 348.795,-141.7119 355.795,-141.7175"/>
</g>
<!-- Node13&#45;&gt;Node4 -->
<g id="edge18" class="edge">
<title>Node13&#45;&gt;Node4</title>
<path fill="none" stroke="#191970" d="M248.9109,-280.4175C200.3206,-266.7703 128,-236.6131 128,-178 128,-178 128,-178 128,-122 128,-88.5134 140.2995,-51.1413 148.8785,-29.1469"/>
<polygon fill="#191970" stroke="#191970" points="152.2072,-30.2517 152.721,-19.6693 145.7201,-27.6216 152.2072,-30.2517"/>
</g>
<!-- Node14 -->
<g id="node15" class="node">
<title>Node14</title>
<g id="a_node15"><a xlink:href="logger_8h.html" target="_top" xlink:title="pdi/logger.h">
<polygon fill="#ffffff" stroke="#000000" points="252,-224.5 252,-243.5 324,-243.5 324,-224.5 252,-224.5"/>
<text text-anchor="middle" x="288" y="-231.5" font-family="Helvetica,sans-Serif" font-size="10.00" fill="#000000">pdi/logger.h</text>
</a>
</g>
</g>
<!-- Node13&#45;&gt;Node14 -->
<g id="edge20" class="edge">
<title>Node13&#45;&gt;Node14</title>
<path fill="none" stroke="#191970" d="M291.3033,-280.2455C290.7813,-272.9382 290.0496,-262.6944 289.4075,-253.7046"/>
<polygon fill="#191970" stroke="#191970" points="292.8924,-253.3679 288.6888,-243.6427 285.9102,-253.8667 292.8924,-253.3679"/>
</g>
<!-- Node14&#45;&gt;Node2 -->
<g id="edge21" class="edge">
<title>Node14&#45;&gt;Node2</title>
<path fill="none" stroke="#191970" d="M293.4566,-224.4509C304.0838,-205.8533 327.7189,-164.4919 341.4878,-140.3964"/>
<polygon fill="#191970" stroke="#191970" points="344.6346,-141.9438 346.5572,-131.5249 338.5569,-138.4708 344.6346,-141.9438"/>
</g>
<!-- Node15 -->
<g id="node16" class="node">
<title>Node15</title>
<g id="a_node16"><a xlink:href="paraconf__wrapper_8h.html" target="_top" xlink:title="pdi/paraconf_wrapper.h">
<polygon fill="#ffffff" stroke="#000000" points="156.5,-168.5 156.5,-187.5 285.5,-187.5 285.5,-168.5 156.5,-168.5"/>
<text text-anchor="middle" x="221" y="-175.5" font-family="Helvetica,sans-Serif" font-size="10.00" fill="#000000">pdi/paraconf_wrapper.h</text>
</a>
</g>
</g>
<!-- Node14&#45;&gt;Node15 -->
<g id="edge22" class="edge">
<title>Node14&#45;&gt;Node15</title>
<path fill="none" stroke="#191970" d="M276.3295,-224.2455C266.4339,-215.9746 252.0373,-203.9416 240.4099,-194.2232"/>
<polygon fill="#191970" stroke="#191970" points="242.4542,-191.3703 232.5368,-187.6427 237.965,-196.7413 242.4542,-191.3703"/>
</g>
<!-- Node15&#45;&gt;Node2 -->
<g id="edge25" class="edge">
<title>Node15&#45;&gt;Node2</title>
<path fill="none" stroke="#191970" d="M243.5197,-168.3733C264.7372,-159.3032 296.7276,-145.6279 320.4769,-135.4755"/>
<polygon fill="#191970" stroke="#191970" points="321.9548,-138.6502 329.7742,-131.5011 319.2033,-132.2136 321.9548,-138.6502"/>
</g>
<!-- Node15&#45;&gt;Node4 -->
<g id="edge24" class="edge">
<title>Node15&#45;&gt;Node4</title>
<path fill="none" stroke="#191970" d="M219.9308,-168.391C218.2959,-155.3524 214.6422,-131.4513 208,-112 197.5532,-81.4072 179.6853,-48.3449 168.1129,-28.4088"/>
<polygon fill="#191970" stroke="#191970" points="171.0956,-26.5765 162.9976,-19.7447 165.0678,-30.1354 171.0956,-26.5765"/>
</g>
<!-- Node16 -->
<g id="node17" class="node">
<title>Node16</title>
<polygon fill="#ffffff" stroke="#bfbfbf" points="156.5,-112.5 156.5,-131.5 199.5,-131.5 199.5,-112.5 156.5,-112.5"/>
<text text-anchor="middle" x="178" y="-119.5" font-family="Helvetica,sans-Serif" font-size="10.00" fill="#000000">string</text>
</g>
<!-- Node15&#45;&gt;Node16 -->
<g id="edge23" class="edge">
<title>Node15&#45;&gt;Node16</title>
<path fill="none" stroke="#191970" d="M213.51,-168.2455C207.4674,-160.3761 198.8097,-149.101 191.5559,-139.6542"/>
<polygon fill="#191970" stroke="#191970" points="194.2705,-137.4426 185.4042,-131.6427 188.7185,-141.7058 194.2705,-137.4426"/>
</g>
<!-- Node17&#45;&gt;Node2 -->
<g id="edge30" class="edge">
<title>Node17&#45;&gt;Node2</title>
<path fill="none" stroke="#191970" d="M99.6931,-171.5761C149.3479,-161.8194 244.1372,-143.1941 302.3392,-131.7579"/>
<polygon fill="#191970" stroke="#191970" points="303.2719,-135.1417 312.4094,-129.7792 301.9222,-128.273 303.2719,-135.1417"/>
</g>
<!-- Node17&#45;&gt;Node4 -->
<g id="edge29" class="edge">
<title>Node17&#45;&gt;Node4</title>
<path fill="none" stroke="#191970" d="M69.3858,-168.2414C74.9201,-146.7651 90.0179,-94.2765 114,-56 120.6858,-45.3292 130.0606,-34.9481 138.3511,-26.7564"/>
<polygon fill="#191970" stroke="#191970" points="141.0065,-29.0612 145.8442,-19.6353 136.1843,-23.9871 141.0065,-29.0612"/>
</g>
<!-- Node17&#45;&gt;Node16 -->
<g id="edge28" class="edge">
<title>Node17&#45;&gt;Node16</title>
<path fill="none" stroke="#191970" d="M86.0816,-168.3733C103.7402,-159.4644 130.2053,-146.1127 150.2098,-136.0203"/>
<polygon fill="#191970" stroke="#191970" points="151.8158,-139.1303 159.1674,-131.5011 148.6628,-132.8806 151.8158,-139.1303"/>
</g>
<!-- Node18 -->
<g id="node19" class="node">
<title>Node18</title>
<polygon fill="#ffffff" stroke="#bfbfbf" points="0,-112.5 0,-131.5 62,-131.5 62,-112.5 0,-112.5"/>
<text text-anchor="middle" x="31" y="-119.5" font-family="Helvetica,sans-Serif" font-size="10.00" fill="#000000">exception</text>
</g>
<!-- Node17&#45;&gt;Node18 -->
<g id="edge27" class="edge">
<title>Node17&#45;&gt;Node18</title>
<path fill="none" stroke="#191970" d="M60.7293,-168.2455C55.7736,-160.5367 48.717,-149.5598 42.7224,-140.2348"/>
<polygon fill="#191970" stroke="#191970" points="45.5506,-138.1618 37.1989,-131.6427 39.6624,-141.9471 45.5506,-138.1618"/>
</g>
</g>
</svg>
