<?xml version="1.0" encoding="UTF-8" standalone="no"?>
<!DOCTYPE svg PUBLIC "-//W3C//DTD SVG 1.1//EN"
 "http://www.w3.org/Graphics/SVG/1.1/DTD/svg11.dtd">
<!-- Generated by graphviz version 2.40.1 (20161225.0304)
 -->
<!-- Title: /home/jbigot/data/projects/pdi/pdi/src/expression.cxx Pages: 1 -->
<svg width="1225pt" height="599pt"
 viewBox="0.00 0.00 1225.00 599.00" xmlns="http://www.w3.org/2000/svg" xmlns:xlink="http://www.w3.org/1999/xlink">
<g id="graph0" class="graph" transform="scale(1 1) rotate(0) translate(4 595)">
<title>/home/jbigot/data/projects/pdi/pdi/src/expression.cxx</title>
<polygon fill="#ffffff" stroke="transparent" points="-4,4 -4,-595 1221,-595 1221,4 -4,4"/>
<!-- Node0 -->
<g id="node1" class="node">
<title>Node0</title>
<polygon fill="#bfbfbf" stroke="#000000" points="649.5,-560.5 649.5,-590.5 790.5,-590.5 790.5,-560.5 649.5,-560.5"/>
<text text-anchor="start" x="657.5" y="-578.5" font-family="Helvetica,sans-Serif" font-size="10.00" fill="#000000">/home/jbigot/data/projects</text>
<text text-anchor="middle" x="720" y="-567.5" font-family="Helvetica,sans-Serif" font-size="10.00" fill="#000000">/pdi/pdi/src/expression.cxx</text>
</g>
<!-- Node1 -->
<g id="node2" class="node">
<title>Node1</title>
<polygon fill="#ffffff" stroke="#bfbfbf" points="46.5,-504.5 46.5,-523.5 99.5,-523.5 99.5,-504.5 46.5,-504.5"/>
<text text-anchor="middle" x="73" y="-511.5" font-family="Helvetica,sans-Serif" font-size="10.00" fill="#000000">config.h</text>
</g>
<!-- Node0&#45;&gt;Node1 -->
<g id="edge1" class="edge">
<title>Node0&#45;&gt;Node1</title>
<path fill="none" stroke="#191970" d="M649.1202,-573.0262C535.5355,-568.2671 305.9977,-555.3797 114,-524 112.5538,-523.7636 111.0834,-523.5032 109.6013,-523.2238"/>
<polygon fill="#191970" stroke="#191970" points="110.2905,-519.7923 99.7845,-521.1612 108.8511,-526.6427 110.2905,-519.7923"/>
</g>
<!-- Node2 -->
<g id="node3" class="node">
<title>Node2</title>
<polygon fill="#ffffff" stroke="#bfbfbf" points="66.5,-336.5 66.5,-355.5 117.5,-355.5 117.5,-336.5 66.5,-336.5"/>
<text text-anchor="middle" x="92" y="-343.5" font-family="Helvetica,sans-Serif" font-size="10.00" fill="#000000">cassert</text>
</g>
<!-- Node0&#45;&gt;Node2 -->
<g id="edge2" class="edge">
<title>Node0&#45;&gt;Node2</title>
<path fill="none" stroke="#191970" d="M649.4912,-572.1555C580.0513,-567.1533 471.79,-554.7321 383,-524 287.4581,-490.9309 270.337,-466.2165 185,-412 159.4653,-395.7772 131.2803,-375.4071 112.7059,-361.6201"/>
<polygon fill="#191970" stroke="#191970" points="114.7598,-358.7857 104.6528,-355.6077 110.572,-364.3949 114.7598,-358.7857"/>
</g>
<!-- Node3 -->
<g id="node4" class="node">
<title>Node3</title>
<polygon fill="#ffffff" stroke="#bfbfbf" points="815.5,-504.5 815.5,-523.5 862.5,-523.5 862.5,-504.5 815.5,-504.5"/>
<text text-anchor="middle" x="839" y="-511.5" font-family="Helvetica,sans-Serif" font-size="10.00" fill="#000000">cctype</text>
</g>
<!-- Node0&#45;&gt;Node3 -->
<g id="edge3" class="edge">
<title>Node0&#45;&gt;Node3</title>
<path fill="none" stroke="#191970" d="M749.1107,-560.4554C768.1824,-550.599 792.9482,-537.7999 811.6539,-528.1327"/>
<polygon fill="#191970" stroke="#191970" points="813.2824,-531.2309 820.5592,-523.5303 810.0685,-525.0122 813.2824,-531.2309"/>
</g>
<!-- Node4 -->
<g id="node5" class="node">
<title>Node4</title>
<polygon fill="#ffffff" stroke="#bfbfbf" points="880.5,-504.5 880.5,-523.5 927.5,-523.5 927.5,-504.5 880.5,-504.5"/>
<text text-anchor="middle" x="904" y="-511.5" font-family="Helvetica,sans-Serif" font-size="10.00" fill="#000000">cstdint</text>
</g>
<!-- Node0&#45;&gt;Node4 -->
<g id="edge4" class="edge">
<title>Node0&#45;&gt;Node4</title>
<path fill="none" stroke="#191970" d="M765.0115,-560.4554C797.6552,-549.5446 841.0879,-535.0277 870.6557,-525.145"/>
<polygon fill="#191970" stroke="#191970" points="872.1208,-528.3457 880.4955,-521.8561 869.9017,-521.7067 872.1208,-528.3457"/>
</g>
<!-- Node5 -->
<g id="node6" class="node">
<title>Node5</title>
<polygon fill="#ffffff" stroke="#bfbfbf" points="946,-504.5 946,-523.5 992,-523.5 992,-504.5 946,-504.5"/>
<text text-anchor="middle" x="969" y="-511.5" font-family="Helvetica,sans-Serif" font-size="10.00" fill="#000000">cstdlib</text>
</g>
<!-- Node0&#45;&gt;Node5 -->
<g id="edge5" class="edge">
<title>Node0&#45;&gt;Node5</title>
<path fill="none" stroke="#191970" d="M788.725,-560.4811C829.1338,-551.3495 881.395,-539.0234 936.1055,-524.1162"/>
<polygon fill="#191970" stroke="#191970" points="937.2685,-527.4265 945.9847,-521.4033 935.4148,-520.6764 937.2685,-527.4265"/>
</g>
<!-- Node6 -->
<g id="node7" class="node">
<title>Node6</title>
<polygon fill="#ffffff" stroke="#bfbfbf" points="1010,-504.5 1010,-523.5 1064,-523.5 1064,-504.5 1010,-504.5"/>
<text text-anchor="middle" x="1037" y="-511.5" font-family="Helvetica,sans-Serif" font-size="10.00" fill="#000000">sstream</text>
</g>
<!-- Node0&#45;&gt;Node6 -->
<g id="edge6" class="edge">
<title>Node0&#45;&gt;Node6</title>
<path fill="none" stroke="#191970" d="M790.5126,-564.3788C845.222,-555.3358 923.121,-541.5596 1000.073,-524.0624"/>
<polygon fill="#191970" stroke="#191970" points="1000.9765,-527.4461 1009.9396,-521.797 999.41,-520.6236 1000.9765,-527.4461"/>
</g>
<!-- Node7 -->
<g id="node8" class="node">
<title>Node7</title>
<polygon fill="#ffffff" stroke="#bfbfbf" points="1082,-504.5 1082,-523.5 1122,-523.5 1122,-504.5 1082,-504.5"/>
<text text-anchor="middle" x="1102" y="-511.5" font-family="Helvetica,sans-Serif" font-size="10.00" fill="#000000">utility</text>
</g>
<!-- Node0&#45;&gt;Node7 -->
<g id="edge7" class="edge">
<title>Node0&#45;&gt;Node7</title>
<path fill="none" stroke="#191970" d="M790.7329,-569.1146C860.2927,-561.9482 969.4749,-548.329 1071.9662,-523.8835"/>
<polygon fill="#191970" stroke="#191970" points="1072.9687,-527.2419 1081.8623,-521.4839 1071.3191,-520.4391 1072.9687,-527.2419"/>
</g>
<!-- Node8 -->
<g id="node9" class="node">
<title>Node8</title>
<polygon fill="#ffffff" stroke="#bfbfbf" points="1140,-504.5 1140,-523.5 1186,-523.5 1186,-504.5 1140,-504.5"/>
<text text-anchor="middle" x="1163" y="-511.5" font-family="Helvetica,sans-Serif" font-size="10.00" fill="#000000">vector</text>
</g>
<!-- Node0&#45;&gt;Node8 -->
<g id="edge8" class="edge">
<title>Node0&#45;&gt;Node8</title>
<path fill="none" stroke="#191970" d="M790.8234,-570.4829C871.0728,-563.9348 1005.7773,-550.3335 1129.6696,-523.9749"/>
<polygon fill="#191970" stroke="#191970" points="1130.6748,-527.3386 1139.7099,-521.8053 1129.1963,-520.4965 1130.6748,-527.3386"/>
</g>
<!-- Node9 -->
<g id="node10" class="node">
<title>Node9</title>
<g id="a_node10"><a xlink:href="array__datatype_8h.html" target="_top" xlink:title="pdi/array_datatype.h">
<polygon fill="#ffffff" stroke="#000000" points="502,-392.5 502,-411.5 616,-411.5 616,-392.5 502,-392.5"/>
<text text-anchor="middle" x="559" y="-399.5" font-family="Helvetica,sans-Serif" font-size="10.00" fill="#000000">pdi/array_datatype.h</text>
</a>
</g>
</g>
<!-- Node0&#45;&gt;Node9 -->
<g id="edge9" class="edge">
<title>Node0&#45;&gt;Node9</title>
<path fill="none" stroke="#191970" d="M705.994,-560.4065C676.2313,-528.3331 606.8326,-453.5463 575.2139,-419.4728"/>
<polygon fill="#191970" stroke="#191970" points="577.4041,-416.6875 568.0364,-411.738 572.2729,-421.449 577.4041,-416.6875"/>
</g>
<!-- Node16 -->
<g id="node17" class="node">
<title>Node16</title>
<g id="a_node17"><a xlink:href="datatype_8h.html" target="_top" xlink:title="pdi/datatype.h">
<polygon fill="#ffffff" stroke="#000000" points="422.5,-336.5 422.5,-355.5 505.5,-355.5 505.5,-336.5 422.5,-336.5"/>
<text text-anchor="middle" x="464" y="-343.5" font-family="Helvetica,sans-Serif" font-size="10.00" fill="#000000">pdi/datatype.h</text>
</a>
</g>
</g>
<!-- Node0&#45;&gt;Node16 -->
<g id="edge62" class="edge">
<title>Node0&#45;&gt;Node16</title>
<path fill="none" stroke="#191970" d="M689.5717,-560.4614C641.8884,-535.5419 549.213,-481.4712 493,-412 481.8331,-398.1993 474.1378,-379.4298 469.4953,-365.4346"/>
<polygon fill="#191970" stroke="#191970" points="472.8235,-364.3498 466.5333,-355.8243 466.134,-366.4116 472.8235,-364.3498"/>
</g>
<!-- Node21 -->
<g id="node22" class="node">
<title>Node21</title>
<g id="a_node22"><a xlink:href="context_8h.html" target="_top" xlink:title="pdi/context.h">
<polygon fill="#ffffff" stroke="#000000" points="681.5,-504.5 681.5,-523.5 758.5,-523.5 758.5,-504.5 681.5,-504.5"/>
<text text-anchor="middle" x="720" y="-511.5" font-family="Helvetica,sans-Serif" font-size="10.00" fill="#000000">pdi/context.h</text>
</a>
</g>
</g>
<!-- Node0&#45;&gt;Node21 -->
<g id="edge27" class="edge">
<title>Node0&#45;&gt;Node21</title>
<path fill="none" stroke="#191970" d="M720,-560.2977C720,-552.3834 720,-542.6043 720,-534.0759"/>
<polygon fill="#191970" stroke="#191970" points="723.5001,-533.8469 720,-523.8469 716.5001,-533.847 723.5001,-533.8469"/>
</g>
<!-- Node28 -->
<g id="node29" class="node">
<title>Node28</title>
<g id="a_node29"><a xlink:href="ref__any_8h.html" target="_top" xlink:title="pdi/ref_any.h">
<polygon fill="#ffffff" stroke="#000000" points="194,-392.5 194,-411.5 272,-411.5 272,-392.5 194,-392.5"/>
<text text-anchor="middle" x="233" y="-399.5" font-family="Helvetica,sans-Serif" font-size="10.00" fill="#000000">pdi/ref_any.h</text>
</a>
</g>
</g>
<!-- Node0&#45;&gt;Node28 -->
<g id="edge56" class="edge">
<title>Node0&#45;&gt;Node28</title>
<path fill="none" stroke="#191970" d="M649.2053,-570.5479C589.002,-564.5735 501.1022,-551.6314 429,-524 359.2556,-497.2722 287.1938,-444.8119 253.1437,-418.2437"/>
<polygon fill="#191970" stroke="#191970" points="254.9722,-415.2281 244.9548,-411.7783 250.6345,-420.7221 254.9722,-415.2281"/>
</g>
<!-- Node30 -->
<g id="node31" class="node">
<title>Node30</title>
<g id="a_node31"><a xlink:href="error_8h.html" target="_top" xlink:title="pdi/error.h">
<polygon fill="#ffffff" stroke="#000000" points="1046.5,-168.5 1046.5,-187.5 1111.5,-187.5 1111.5,-168.5 1046.5,-168.5"/>
<text text-anchor="middle" x="1079" y="-175.5" font-family="Helvetica,sans-Serif" font-size="10.00" fill="#000000">pdi/error.h</text>
</a>
</g>
</g>
<!-- Node0&#45;&gt;Node30 -->
<g id="edge61" class="edge">
<title>Node0&#45;&gt;Node30</title>
<path fill="none" stroke="#191970" d="M733.0062,-560.3939C748.6509,-543.387 776.6272,-516.5011 807,-504 980.6437,-432.5304 1217,-589.7766 1217,-402 1217,-402 1217,-402 1217,-346 1217,-275.79 1144.1423,-218.9135 1104.3044,-193.0618"/>
<polygon fill="#191970" stroke="#191970" points="1105.97,-189.9742 1095.646,-187.5938 1102.2322,-195.8927 1105.97,-189.9742"/>
</g>
<!-- Node32 -->
<g id="node33" class="node">
<title>Node32</title>
<g id="a_node33"><a xlink:href="scalar__datatype_8h.html" target="_top" xlink:title="pdi/scalar_datatype.h">
<polygon fill="#ffffff" stroke="#000000" points="290,-392.5 290,-411.5 408,-411.5 408,-392.5 290,-392.5"/>
<text text-anchor="middle" x="349" y="-399.5" font-family="Helvetica,sans-Serif" font-size="10.00" fill="#000000">pdi/scalar_datatype.h</text>
</a>
</g>
</g>
<!-- Node0&#45;&gt;Node32 -->
<g id="edge57" class="edge">
<title>Node0&#45;&gt;Node32</title>
<path fill="none" stroke="#191970" d="M649.4037,-566.5826C583.855,-557.4007 491.7543,-541.9317 460,-524 414.4987,-498.3054 377.4648,-447.2512 359.947,-420.0476"/>
<polygon fill="#191970" stroke="#191970" points="362.8633,-418.1101 354.5828,-411.5007 356.9343,-421.8313 362.8633,-418.1101"/>
</g>
<!-- Node33 -->
<g id="node34" class="node">
<title>Node33</title>
<g id="a_node34"><a xlink:href="expression_8h.html" target="_top" xlink:title="pdi/expression.h">
<polygon fill="#ffffff" stroke="#000000" points="17,-448.5 17,-467.5 111,-467.5 111,-448.5 17,-448.5"/>
<text text-anchor="middle" x="64" y="-455.5" font-family="Helvetica,sans-Serif" font-size="10.00" fill="#000000">pdi/expression.h</text>
</a>
</g>
</g>
<!-- Node0&#45;&gt;Node33 -->
<g id="edge63" class="edge">
<title>Node0&#45;&gt;Node33</title>
<path fill="none" stroke="#191970" d="M649.4268,-573.8921C518.0156,-570.1135 241.073,-558.2371 152,-524 123.813,-513.1657 96.8728,-490.535 80.3932,-474.8142"/>
<polygon fill="#191970" stroke="#191970" points="82.7709,-472.2437 73.1838,-467.7337 77.8659,-477.2379 82.7709,-472.2437"/>
</g>
<!-- Node10 -->
<g id="node11" class="node">
<title>Node10</title>
<g id="a_node11"><a xlink:href="pdi__fwd_8h.html" target="_top" xlink:title="pdi/pdi_fwd.h">
<polygon fill="#ffffff" stroke="#000000" points="680.5,-112.5 680.5,-131.5 759.5,-131.5 759.5,-112.5 680.5,-112.5"/>
<text text-anchor="middle" x="720" y="-119.5" font-family="Helvetica,sans-Serif" font-size="10.00" fill="#000000">pdi/pdi_fwd.h</text>
</a>
</g>
</g>
<!-- Node9&#45;&gt;Node10 -->
<g id="edge10" class="edge">
<title>Node9&#45;&gt;Node10</title>
<path fill="none" stroke="#191970" d="M555.3112,-392.2751C548.357,-373.0407 534,-328.6505 534,-290 534,-290 534,-290 534,-234 534,-170.3038 615.0431,-141.8976 670.1382,-129.9458"/>
<polygon fill="#191970" stroke="#191970" points="671.0066,-133.3406 680.0983,-127.9009 669.5987,-126.4836 671.0066,-133.3406"/>
</g>
<!-- Node9&#45;&gt;Node16 -->
<g id="edge16" class="edge">
<title>Node9&#45;&gt;Node16</title>
<path fill="none" stroke="#191970" d="M542.4523,-392.2455C527.7401,-383.5731 506.0112,-370.7645 489.1495,-360.825"/>
<polygon fill="#191970" stroke="#191970" points="490.7502,-357.7057 480.3581,-355.6427 487.1954,-363.736 490.7502,-357.7057"/>
</g>
<!-- Node11 -->
<g id="node12" class="node">
<title>Node11</title>
<polygon fill="#ffffff" stroke="#bfbfbf" points="138,-56.5 138,-75.5 192,-75.5 192,-56.5 138,-56.5"/>
<text text-anchor="middle" x="165" y="-63.5" font-family="Helvetica,sans-Serif" font-size="10.00" fill="#000000">memory</text>
</g>
<!-- Node10&#45;&gt;Node11 -->
<g id="edge11" class="edge">
<title>Node10&#45;&gt;Node11</title>
<path fill="none" stroke="#191970" d="M680.0858,-117.9726C576.8632,-107.5574 302.198,-79.8434 202.1323,-69.7467"/>
<polygon fill="#191970" stroke="#191970" points="202.4807,-66.2642 192.1798,-68.7425 201.7779,-73.2288 202.4807,-66.2642"/>
</g>
<!-- Node12 -->
<g id="node13" class="node">
<title>Node12</title>
<g id="a_node13"><a xlink:href="pdi_8h.html" target="_top" xlink:title="pdi.h">
<polygon fill="#ffffff" stroke="#000000" points="793.5,-56.5 793.5,-75.5 832.5,-75.5 832.5,-56.5 793.5,-56.5"/>
<text text-anchor="middle" x="813" y="-63.5" font-family="Helvetica,sans-Serif" font-size="10.00" fill="#000000">pdi.h</text>
</a>
</g>
</g>
<!-- Node10&#45;&gt;Node12 -->
<g id="edge12" class="edge">
<title>Node10&#45;&gt;Node12</title>
<path fill="none" stroke="#191970" d="M736.1994,-112.2455C750.6018,-103.5731 771.8732,-90.7645 788.3799,-80.825"/>
<polygon fill="#191970" stroke="#191970" points="790.225,-83.7996 796.9863,-75.6427 786.614,-77.8028 790.225,-83.7996"/>
</g>
<!-- Node13 -->
<g id="node14" class="node">
<title>Node13</title>
<polygon fill="#ffffff" stroke="#bfbfbf" points="1045.5,-.5 1045.5,-19.5 1112.5,-19.5 1112.5,-.5 1045.5,-.5"/>
<text text-anchor="middle" x="1079" y="-7.5" font-family="Helvetica,sans-Serif" font-size="10.00" fill="#000000">paraconf.h</text>
</g>
<!-- Node12&#45;&gt;Node13 -->
<g id="edge13" class="edge">
<title>Node12&#45;&gt;Node13</title>
<path fill="none" stroke="#191970" d="M832.5596,-61.8822C875.0035,-52.9466 976.4444,-31.5906 1035.0935,-19.2435"/>
<polygon fill="#191970" stroke="#191970" points="1036.1083,-22.6066 1045.1728,-17.1215 1034.6662,-15.7568 1036.1083,-22.6066"/>
</g>
<!-- Node14 -->
<g id="node15" class="node">
<title>Node14</title>
<polygon fill="#ffffff" stroke="#bfbfbf" points="863,-.5 863,-19.5 935,-19.5 935,-.5 863,-.5"/>
<text text-anchor="middle" x="899" y="-7.5" font-family="Helvetica,sans-Serif" font-size="10.00" fill="#000000">pdi/export.h</text>
</g>
<!-- Node12&#45;&gt;Node14 -->
<g id="edge14" class="edge">
<title>Node12&#45;&gt;Node14</title>
<path fill="none" stroke="#191970" d="M827.9801,-56.2455C841.1751,-47.6534 860.6051,-35.0014 875.8079,-25.1018"/>
<polygon fill="#191970" stroke="#191970" points="877.7215,-28.0325 884.1916,-19.6427 873.9017,-22.1665 877.7215,-28.0325"/>
</g>
<!-- Node15 -->
<g id="node16" class="node">
<title>Node15</title>
<polygon fill="#ffffff" stroke="#bfbfbf" points="767.5,-.5 767.5,-19.5 844.5,-19.5 844.5,-.5 767.5,-.5"/>
<text text-anchor="middle" x="806" y="-7.5" font-family="Helvetica,sans-Serif" font-size="10.00" fill="#000000">pdi/version.h</text>
</g>
<!-- Node12&#45;&gt;Node15 -->
<g id="edge15" class="edge">
<title>Node12&#45;&gt;Node15</title>
<path fill="none" stroke="#191970" d="M811.7807,-56.2455C810.8673,-48.9382 809.5868,-38.6944 808.4631,-29.7046"/>
<polygon fill="#191970" stroke="#191970" points="811.9187,-29.1313 807.2053,-19.6427 804.9728,-29.9996 811.9187,-29.1313"/>
</g>
<!-- Node16&#45;&gt;Node10 -->
<g id="edge17" class="edge">
<title>Node16&#45;&gt;Node10</title>
<path fill="none" stroke="#191970" d="M463.9243,-336.1638C464.2578,-306.0947 469.5625,-214.6149 520,-168 541.5864,-148.0496 618.4307,-134.7072 670.3346,-127.7424"/>
<polygon fill="#191970" stroke="#191970" points="670.896,-131.1989 680.359,-126.4344 669.9902,-124.2578 670.896,-131.1989"/>
</g>
<!-- Node17 -->
<g id="node18" class="node">
<title>Node17</title>
<g id="a_node18"><a xlink:href="datatype__template_8h.html" target="_top" xlink:title="pdi/datatype_template.h">
<polygon fill="#ffffff" stroke="#000000" points="824,-280.5 824,-299.5 954,-299.5 954,-280.5 824,-280.5"/>
<text text-anchor="middle" x="889" y="-287.5" font-family="Helvetica,sans-Serif" font-size="10.00" fill="#000000">pdi/datatype_template.h</text>
</a>
</g>
</g>
<!-- Node16&#45;&gt;Node17 -->
<g id="edge18" class="edge">
<title>Node16&#45;&gt;Node17</title>
<path fill="none" stroke="#191970" d="M505.5246,-340.5285C576.9216,-331.1209 723.9112,-311.7529 813.734,-299.9174"/>
<polygon fill="#191970" stroke="#191970" points="814.3998,-303.36 823.8569,-298.5836 813.4853,-296.42 814.3998,-303.36"/>
</g>
<!-- Node17&#45;&gt;Node10 -->
<g id="edge20" class="edge">
<title>Node17&#45;&gt;Node10</title>
<path fill="none" stroke="#191970" d="M887.592,-280.2288C885.2385,-266.5779 879.4758,-241.509 867,-224 837.4691,-182.5551 785.5326,-152.3827 751.9616,-136.0284"/>
<polygon fill="#191970" stroke="#191970" points="753.1317,-132.7099 742.5961,-131.5917 750.1349,-139.0359 753.1317,-132.7099"/>
</g>
<!-- Node17&#45;&gt;Node13 -->
<g id="edge19" class="edge">
<title>Node17&#45;&gt;Node13</title>
<path fill="none" stroke="#191970" d="M943.5468,-280.454C1027.5527,-264.182 1179,-227.9237 1179,-178 1179,-178 1179,-178 1179,-122 1179,-78.0606 1135.6447,-43.4269 1106.0285,-24.8942"/>
<polygon fill="#191970" stroke="#191970" points="1107.7145,-21.824 1097.3415,-19.6672 1104.1055,-27.8219 1107.7145,-21.824"/>
</g>
<!-- Node18 -->
<g id="node19" class="node">
<title>Node18</title>
<g id="a_node19"><a xlink:href="logger_8h.html" target="_top" xlink:title="pdi/logger.h">
<polygon fill="#ffffff" stroke="#000000" points="786,-224.5 786,-243.5 858,-243.5 858,-224.5 786,-224.5"/>
<text text-anchor="middle" x="822" y="-231.5" font-family="Helvetica,sans-Serif" font-size="10.00" fill="#000000">pdi/logger.h</text>
</a>
</g>
</g>
<!-- Node17&#45;&gt;Node18 -->
<g id="edge21" class="edge">
<title>Node17&#45;&gt;Node18</title>
<path fill="none" stroke="#191970" d="M877.3295,-280.2455C867.4339,-271.9746 853.0373,-259.9416 841.4099,-250.2232"/>
<polygon fill="#191970" stroke="#191970" points="843.4542,-247.3703 833.5368,-243.6427 838.965,-252.7413 843.4542,-247.3703"/>
</g>
<!-- Node18&#45;&gt;Node10 -->
<g id="edge22" class="edge">
<title>Node18&#45;&gt;Node10</title>
<path fill="none" stroke="#191970" d="M815.4419,-224.1287C806.3817,-210.7928 789.1982,-186.556 772,-168 762.1424,-157.3642 750.065,-146.5653 740.0316,-138.1057"/>
<polygon fill="#191970" stroke="#191970" points="742.113,-135.2851 732.1778,-131.6049 737.6495,-140.6775 742.113,-135.2851"/>
</g>
<!-- Node19 -->
<g id="node20" class="node">
<title>Node19</title>
<g id="a_node20"><a xlink:href="paraconf__wrapper_8h.html" target="_top" xlink:title="pdi/paraconf_wrapper.h">
<polygon fill="#ffffff" stroke="#000000" points="899.5,-168.5 899.5,-187.5 1028.5,-187.5 1028.5,-168.5 899.5,-168.5"/>
<text text-anchor="middle" x="964" y="-175.5" font-family="Helvetica,sans-Serif" font-size="10.00" fill="#000000">pdi/paraconf_wrapper.h</text>
</a>
</g>
</g>
<!-- Node18&#45;&gt;Node19 -->
<g id="edge23" class="edge">
<title>Node18&#45;&gt;Node19</title>
<path fill="none" stroke="#191970" d="M846.4107,-224.3733C869.6142,-215.2226 904.7038,-201.3844 930.5142,-191.2057"/>
<polygon fill="#191970" stroke="#191970" points="931.8892,-194.4258 939.9079,-187.5011 929.3211,-187.9139 931.8892,-194.4258"/>
</g>
<!-- Node19&#45;&gt;Node10 -->
<g id="edge26" class="edge">
<title>Node19&#45;&gt;Node10</title>
<path fill="none" stroke="#191970" d="M922.3321,-168.4369C880.0673,-158.7367 814.6473,-143.7223 769.7038,-133.4074"/>
<polygon fill="#191970" stroke="#191970" points="770.4063,-129.9777 759.8767,-131.152 768.8404,-136.8003 770.4063,-129.9777"/>
</g>
<!-- Node19&#45;&gt;Node13 -->
<g id="edge25" class="edge">
<title>Node19&#45;&gt;Node13</title>
<path fill="none" stroke="#191970" d="M964.7275,-168.4701C966.0868,-155.1059 969.8621,-130.3755 980,-112 999.6614,-76.3628 1035.0804,-44.3078 1057.7924,-26.0111"/>
<polygon fill="#191970" stroke="#191970" points="1060.124,-28.63 1065.8154,-19.6936 1055.7934,-23.1303 1060.124,-28.63"/>
</g>
<!-- Node20 -->
<g id="node21" class="node">
<title>Node20</title>
<polygon fill="#ffffff" stroke="#bfbfbf" points="1107.5,-112.5 1107.5,-131.5 1150.5,-131.5 1150.5,-112.5 1107.5,-112.5"/>
<text text-anchor="middle" x="1129" y="-119.5" font-family="Helvetica,sans-Serif" font-size="10.00" fill="#000000">string</text>
</g>
<!-- Node19&#45;&gt;Node20 -->
<g id="edge24" class="edge">
<title>Node19&#45;&gt;Node20</title>
<path fill="none" stroke="#191970" d="M992.3645,-168.3733C1021.6695,-158.4273 1067.2905,-142.9438 1097.6491,-132.6403"/>
<polygon fill="#191970" stroke="#191970" points="1098.9693,-135.8884 1107.3139,-129.3601 1096.7195,-129.2598 1098.9693,-135.8884"/>
</g>
<!-- Node21&#45;&gt;Node10 -->
<g id="edge35" class="edge">
<title>Node21&#45;&gt;Node10</title>
<path fill="none" stroke="#191970" d="M720,-504.4116C720,-485.0538 720,-439.9167 720,-402 720,-402 720,-402 720,-234 720,-201.7116 720,-164.1872 720,-141.8048"/>
<polygon fill="#191970" stroke="#191970" points="723.5001,-141.5883 720,-131.5884 716.5001,-141.5884 723.5001,-141.5883"/>
</g>
<!-- Node21&#45;&gt;Node11 -->
<g id="edge30" class="edge">
<title>Node21&#45;&gt;Node11</title>
<path fill="none" stroke="#191970" d="M719.3848,-504.3205C717.0799,-475.4561 706.6841,-388.7196 663,-336 534.7776,-181.2566 293.9607,-101.522 201.9897,-75.643"/>
<polygon fill="#191970" stroke="#191970" points="202.859,-72.2521 192.2878,-72.9585 200.9923,-78.9986 202.859,-72.2521"/>
</g>
<!-- Node21&#45;&gt;Node17 -->
<g id="edge53" class="edge">
<title>Node21&#45;&gt;Node17</title>
<path fill="none" stroke="#191970" d="M758.7245,-506.3063C763.522,-505.4675 768.367,-504.6748 773,-504 850.153,-492.7623 1069.7739,-525.8904 1122,-468 1156.8464,-429.3743 987.5323,-338.9643 917.8435,-304.0785"/>
<polygon fill="#191970" stroke="#191970" points="919.2157,-300.852 908.703,-299.5356 916.1002,-307.1205 919.2157,-300.852"/>
</g>
<!-- Node21&#45;&gt;Node18 -->
<g id="edge55" class="edge">
<title>Node21&#45;&gt;Node18</title>
<path fill="none" stroke="#191970" d="M723.5111,-504.3618C738.2239,-463.9735 795.0729,-307.9174 815.028,-253.1388"/>
<polygon fill="#191970" stroke="#191970" points="818.3694,-254.1917 818.5037,-243.5977 811.7922,-251.7957 818.3694,-254.1917"/>
</g>
<!-- Node21&#45;&gt;Node20 -->
<g id="edge32" class="edge">
<title>Node21&#45;&gt;Node20</title>
<path fill="none" stroke="#191970" d="M758.7073,-505.5603C761.8439,-504.9911 764.9705,-504.4616 768,-504 808.834,-497.7787 1109.8691,-498.2453 1138,-468 1174.9392,-428.2845 1141,-400.2386 1141,-346 1141,-346 1141,-346 1141,-234 1141,-201.3778 1135.9046,-163.7135 1132.3544,-141.4301"/>
<polygon fill="#191970" stroke="#191970" points="1135.8053,-140.8456 1130.7193,-131.5514 1128.8993,-141.9887 1135.8053,-140.8456"/>
</g>
<!-- Node22 -->
<g id="node23" class="node">
<title>Node22</title>
<polygon fill="#ffffff" stroke="#bfbfbf" points="342,-336.5 342,-355.5 404,-355.5 404,-336.5 342,-336.5"/>
<text text-anchor="middle" x="373" y="-343.5" font-family="Helvetica,sans-Serif" font-size="10.00" fill="#000000">functional</text>
</g>
<!-- Node21&#45;&gt;Node22 -->
<g id="edge28" class="edge">
<title>Node21&#45;&gt;Node22</title>
<path fill="none" stroke="#191970" d="M697.1643,-504.4615C655.9207,-487.0748 566.4632,-448.6331 493,-412 459.7519,-395.4205 422.3839,-374.4913 398.3126,-360.6993"/>
<polygon fill="#191970" stroke="#191970" points="399.8834,-357.5651 389.4703,-355.6111 396.392,-363.6323 399.8834,-357.5651"/>
</g>
<!-- Node23 -->
<g id="node24" class="node">
<title>Node23</title>
<polygon fill="#ffffff" stroke="#bfbfbf" points="920.5,-448.5 920.5,-467.5 949.5,-467.5 949.5,-448.5 920.5,-448.5"/>
<text text-anchor="middle" x="935" y="-455.5" font-family="Helvetica,sans-Serif" font-size="10.00" fill="#000000">list</text>
</g>
<!-- Node21&#45;&gt;Node23 -->
<g id="edge29" class="edge">
<title>Node21&#45;&gt;Node23</title>
<path fill="none" stroke="#191970" d="M758.5476,-506.5905C797.4822,-498.6713 859.1222,-484.9367 911,-468 911.0965,-467.9685 911.1933,-467.9367 911.2901,-467.9048"/>
<polygon fill="#191970" stroke="#191970" points="912.2643,-471.2768 920.4156,-464.5087 909.8228,-464.7164 912.2643,-471.2768"/>
</g>
<!-- Node24 -->
<g id="node25" class="node">
<title>Node24</title>
<polygon fill="#ffffff" stroke="#bfbfbf" points="967.5,-448.5 967.5,-467.5 1008.5,-467.5 1008.5,-448.5 967.5,-448.5"/>
<text text-anchor="middle" x="988" y="-455.5" font-family="Helvetica,sans-Serif" font-size="10.00" fill="#000000">stack</text>
</g>
<!-- Node21&#45;&gt;Node24 -->
<g id="edge31" class="edge">
<title>Node21&#45;&gt;Node24</title>
<path fill="none" stroke="#191970" d="M758.5613,-506.7263C816.3056,-495.8155 921.6599,-475.8312 957.2296,-467.9512"/>
<polygon fill="#191970" stroke="#191970" points="958.288,-471.2969 967.2004,-465.5679 956.6606,-464.4887 958.288,-471.2969"/>
</g>
<!-- Node25 -->
<g id="node26" class="node">
<title>Node25</title>
<polygon fill="#ffffff" stroke="#bfbfbf" points="562,-336.5 562,-355.5 654,-355.5 654,-336.5 562,-336.5"/>
<text text-anchor="middle" x="608" y="-343.5" font-family="Helvetica,sans-Serif" font-size="10.00" fill="#000000">unordered_map</text>
</g>
<!-- Node21&#45;&gt;Node25 -->
<g id="edge33" class="edge">
<title>Node21&#45;&gt;Node25</title>
<path fill="none" stroke="#191970" d="M706.2782,-504.2641C694.9353,-495.6956 678.9676,-482.3732 668,-468 642.9428,-435.1622 624.1054,-390.2092 614.6935,-365.0498"/>
<polygon fill="#191970" stroke="#191970" points="617.9536,-363.7734 611.2462,-355.5721 611.3753,-366.1662 617.9536,-363.7734"/>
</g>
<!-- Node26 -->
<g id="node27" class="node">
<title>Node26</title>
<polygon fill="#ffffff" stroke="#bfbfbf" points="1027,-448.5 1027,-467.5 1113,-467.5 1113,-448.5 1027,-448.5"/>
<text text-anchor="middle" x="1070" y="-455.5" font-family="Helvetica,sans-Serif" font-size="10.00" fill="#000000">unordered_set</text>
</g>
<!-- Node21&#45;&gt;Node26 -->
<g id="edge34" class="edge">
<title>Node21&#45;&gt;Node26</title>
<path fill="none" stroke="#191970" d="M758.7549,-506.4999C763.5471,-505.6279 768.3826,-504.7745 773,-504 878.3618,-486.3268 907.7835,-486.3774 1016.8035,-468.1428"/>
<polygon fill="#191970" stroke="#191970" points="1017.6176,-471.5551 1026.8963,-466.4409 1016.4535,-464.6525 1017.6176,-471.5551"/>
</g>
<!-- Node27 -->
<g id="node28" class="node">
<title>Node27</title>
<g id="a_node28"><a xlink:href="data__descriptor_8h.html" target="_top" xlink:title="pdi/data_descriptor.h">
<polygon fill="#ffffff" stroke="#000000" points="786,-448.5 786,-467.5 902,-467.5 902,-448.5 786,-448.5"/>
<text text-anchor="middle" x="844" y="-455.5" font-family="Helvetica,sans-Serif" font-size="10.00" fill="#000000">pdi/data_descriptor.h</text>
</a>
</g>
</g>
<!-- Node21&#45;&gt;Node27 -->
<g id="edge36" class="edge">
<title>Node21&#45;&gt;Node27</title>
<path fill="none" stroke="#191970" d="M741.3164,-504.3733C761.2216,-495.3838 791.1436,-481.8706 813.56,-471.7471"/>
<polygon fill="#191970" stroke="#191970" points="815.2887,-474.8068 822.9618,-467.5011 812.4075,-468.4272 815.2887,-474.8068"/>
</g>
<!-- Node21&#45;&gt;Node28 -->
<g id="edge54" class="edge">
<title>Node21&#45;&gt;Node28</title>
<path fill="none" stroke="#191970" d="M681.3789,-505.1179C593.5966,-484.9298 379.199,-435.6228 282.1539,-413.3044"/>
<polygon fill="#191970" stroke="#191970" points="282.8326,-409.8692 272.3026,-411.0388 281.2637,-416.6911 282.8326,-409.8692"/>
</g>
<!-- Node27&#45;&gt;Node10 -->
<g id="edge38" class="edge">
<title>Node27&#45;&gt;Node10</title>
<path fill="none" stroke="#191970" d="M829.0199,-448.2468C804.3804,-430.8872 758,-392.0891 758,-346 758,-346 758,-346 758,-234 758,-199.6118 741.7366,-162.2832 730.489,-140.5791"/>
<polygon fill="#191970" stroke="#191970" points="733.431,-138.6605 725.607,-131.5166 727.2683,-141.9804 733.431,-138.6605"/>
</g>
<!-- Node27&#45;&gt;Node13 -->
<g id="edge37" class="edge">
<title>Node27&#45;&gt;Node13</title>
<path fill="none" stroke="#191970" d="M883.9175,-448.4814C980.1414,-422.9085 1217,-343.1833 1217,-178 1217,-178 1217,-178 1217,-122 1217,-71.1528 1159.8185,-39.3588 1119.0717,-23.1577"/>
<polygon fill="#191970" stroke="#191970" points="1120.2176,-19.8489 1109.6267,-19.56 1117.7259,-26.3904 1120.2176,-19.8489"/>
</g>
<!-- Node27&#45;&gt;Node17 -->
<g id="edge39" class="edge">
<title>Node27&#45;&gt;Node17</title>
<path fill="none" stroke="#191970" d="M846.5483,-448.4862C853.6926,-421.8144 874.0236,-345.9117 883.7245,-309.695"/>
<polygon fill="#191970" stroke="#191970" points="887.1609,-310.393 886.3675,-299.8279 880.3993,-308.5818 887.1609,-310.393"/>
</g>
<!-- Node27&#45;&gt;Node28 -->
<g id="edge40" class="edge">
<title>Node27&#45;&gt;Node28</title>
<path fill="none" stroke="#191970" d="M785.7845,-455.6234C685.1116,-450.9933 471.8702,-438.8993 282.3709,-412.0402"/>
<polygon fill="#191970" stroke="#191970" points="282.6183,-408.5399 272.2226,-410.5842 281.6241,-415.4689 282.6183,-408.5399"/>
</g>
<!-- Node28&#45;&gt;Node2 -->
<g id="edge41" class="edge">
<title>Node28&#45;&gt;Node2</title>
<path fill="none" stroke="#191970" d="M208.7612,-392.3733C185.7211,-383.2226 150.8786,-369.3844 125.2499,-359.2057"/>
<polygon fill="#191970" stroke="#191970" points="126.5082,-355.9395 115.9225,-355.5011 123.9244,-362.4452 126.5082,-355.9395"/>
</g>
<!-- Node28&#45;&gt;Node10 -->
<g id="edge46" class="edge">
<title>Node28&#45;&gt;Node10</title>
<path fill="none" stroke="#191970" d="M234.0704,-392.3917C238.9087,-354.3083 262.5555,-213.8165 352,-168 406.4475,-140.1101 582.8278,-128.2793 670.1228,-124.0337"/>
<polygon fill="#191970" stroke="#191970" points="670.4888,-127.5204 680.3127,-123.553 670.1588,-120.5282 670.4888,-127.5204"/>
</g>
<!-- Node28&#45;&gt;Node11 -->
<g id="edge43" class="edge">
<title>Node28&#45;&gt;Node11</title>
<path fill="none" stroke="#191970" d="M211.3117,-392.3358C196.2392,-384.5635 176.8102,-372.2604 165,-356 147.0618,-331.3024 146,-320.5246 146,-290 146,-290 146,-290 146,-178 146,-145.2688 153.9852,-107.9052 159.6022,-85.6716"/>
<polygon fill="#191970" stroke="#191970" points="163.0415,-86.3545 162.1965,-75.7934 156.2711,-84.5763 163.0415,-86.3545"/>
</g>
<!-- Node28&#45;&gt;Node16 -->
<g id="edge47" class="edge">
<title>Node28&#45;&gt;Node16</title>
<path fill="none" stroke="#191970" d="M272.186,-392.5004C311.5114,-382.9669 372.2006,-368.2544 414.7567,-357.9378"/>
<polygon fill="#191970" stroke="#191970" points="415.7279,-361.3038 424.6218,-355.5462 414.0786,-354.5008 415.7279,-361.3038"/>
</g>
<!-- Node28&#45;&gt;Node22 -->
<g id="edge42" class="edge">
<title>Node28&#45;&gt;Node22</title>
<path fill="none" stroke="#191970" d="M257.0669,-392.3733C279.8428,-383.2629 314.2344,-369.5062 339.649,-359.3404"/>
<polygon fill="#191970" stroke="#191970" points="341.2623,-362.4648 349.2472,-355.5011 338.6625,-355.9654 341.2623,-362.4648"/>
</g>
<!-- Node28&#45;&gt;Node25 -->
<g id="edge45" class="edge">
<title>Node28&#45;&gt;Node25</title>
<path fill="none" stroke="#191970" d="M272.2525,-393.6035C275.2083,-393.0384 278.1488,-392.497 281,-392 375.622,-375.5065 486.447,-360.8995 551.7411,-352.7739"/>
<polygon fill="#191970" stroke="#191970" points="552.3258,-356.2284 561.82,-351.5262 551.4657,-349.2814 552.3258,-356.2284"/>
</g>
<!-- Node29 -->
<g id="node30" class="node">
<title>Node29</title>
<polygon fill="#ffffff" stroke="#bfbfbf" points="174,-336.5 174,-355.5 210,-355.5 210,-336.5 174,-336.5"/>
<text text-anchor="middle" x="192" y="-343.5" font-family="Helvetica,sans-Serif" font-size="10.00" fill="#000000">new</text>
</g>
<!-- Node28&#45;&gt;Node29 -->
<g id="edge44" class="edge">
<title>Node28&#45;&gt;Node29</title>
<path fill="none" stroke="#191970" d="M225.8583,-392.2455C220.1556,-384.4564 212.01,-373.3308 205.1375,-363.9439"/>
<polygon fill="#191970" stroke="#191970" points="207.7913,-361.6437 199.0598,-355.6427 202.1432,-365.7789 207.7913,-361.6437"/>
</g>
<!-- Node28&#45;&gt;Node30 -->
<g id="edge48" class="edge">
<title>Node28&#45;&gt;Node30</title>
<path fill="none" stroke="#191970" d="M244.5529,-392.4723C262.4297,-378.1879 298.3585,-351.2724 333,-336 519.2204,-253.9011 577.2281,-262.8515 777,-224 888.8017,-202.2569 921.2089,-209.4735 1036.471,-188.1397"/>
<polygon fill="#191970" stroke="#191970" points="1037.2124,-191.5617 1046.3919,-186.2715 1035.9169,-184.6826 1037.2124,-191.5617"/>
</g>
<!-- Node30&#45;&gt;Node10 -->
<g id="edge52" class="edge">
<title>Node30&#45;&gt;Node10</title>
<path fill="none" stroke="#191970" d="M1046.3882,-169.7481C1043.5585,-169.1226 1040.7333,-168.5298 1038,-168 943.7156,-149.726 832.4211,-135.2262 769.6392,-127.6892"/>
<polygon fill="#191970" stroke="#191970" points="769.9601,-124.2027 759.6163,-126.4957 769.1323,-131.1536 769.9601,-124.2027"/>
</g>
<!-- Node30&#45;&gt;Node13 -->
<g id="edge51" class="edge">
<title>Node30&#45;&gt;Node13</title>
<path fill="none" stroke="#191970" d="M1079,-168.4862C1079,-141.9293 1079,-66.5651 1079,-30.1655"/>
<polygon fill="#191970" stroke="#191970" points="1082.5001,-29.8278 1079,-19.8279 1075.5001,-29.8279 1082.5001,-29.8278"/>
</g>
<!-- Node30&#45;&gt;Node20 -->
<g id="edge50" class="edge">
<title>Node30&#45;&gt;Node20</title>
<path fill="none" stroke="#191970" d="M1087.7093,-168.2455C1094.8073,-160.2958 1105.0084,-148.8706 1113.495,-139.3656"/>
<polygon fill="#191970" stroke="#191970" points="1116.3411,-141.4331 1120.3905,-131.6427 1111.1195,-136.771 1116.3411,-141.4331"/>
</g>
<!-- Node31 -->
<g id="node32" class="node">
<title>Node31</title>
<polygon fill="#ffffff" stroke="#bfbfbf" points="989,-112.5 989,-131.5 1051,-131.5 1051,-112.5 989,-112.5"/>
<text text-anchor="middle" x="1020" y="-119.5" font-family="Helvetica,sans-Serif" font-size="10.00" fill="#000000">exception</text>
</g>
<!-- Node30&#45;&gt;Node31 -->
<g id="edge49" class="edge">
<title>Node30&#45;&gt;Node31</title>
<path fill="none" stroke="#191970" d="M1068.723,-168.2455C1060.1782,-160.1352 1047.8222,-148.4075 1037.6915,-138.7919"/>
<polygon fill="#191970" stroke="#191970" points="1039.8218,-135.9884 1030.1592,-131.6427 1035.0028,-141.0655 1039.8218,-135.9884"/>
</g>
<!-- Node32&#45;&gt;Node10 -->
<g id="edge59" class="edge">
<title>Node32&#45;&gt;Node10</title>
<path fill="none" stroke="#191970" d="M343.8356,-392.4283C334.0998,-373.4624 314,-329.5212 314,-290 314,-290 314,-290 314,-234 314,-160.8639 561.9189,-133.6383 670.2926,-125.2309"/>
<polygon fill="#191970" stroke="#191970" points="670.6228,-128.7161 680.3318,-124.4751 670.0972,-121.7358 670.6228,-128.7161"/>
</g>
<!-- Node32&#45;&gt;Node16 -->
<g id="edge60" class="edge">
<title>Node32&#45;&gt;Node16</title>
<path fill="none" stroke="#191970" d="M368.7692,-392.3733C387.1469,-383.4241 414.7312,-369.9917 435.4893,-359.8835"/>
<polygon fill="#191970" stroke="#191970" points="437.0304,-363.026 444.4888,-355.5011 433.9657,-356.7325 437.0304,-363.026"/>
</g>
<!-- Node32&#45;&gt;Node22 -->
<g id="edge58" class="edge">
<title>Node32&#45;&gt;Node22</title>
<path fill="none" stroke="#191970" d="M353.1805,-392.2455C356.381,-384.7776 360.896,-374.2427 364.8084,-365.1137"/>
<polygon fill="#191970" stroke="#191970" points="368.1452,-366.2129 368.8674,-355.6427 361.7112,-363.4554 368.1452,-366.2129"/>
</g>
<!-- Node33&#45;&gt;Node10 -->
<g id="edge65" class="edge">
<title>Node33&#45;&gt;Node10</title>
<path fill="none" stroke="#191970" d="M60.2198,-448.385C52.3676,-426.7511 36.6461,-373.2302 57,-336 123.3551,-214.6269 188.693,-214.4167 319,-168 382.562,-145.3586 577.4168,-130.7505 670.063,-124.9021"/>
<polygon fill="#191970" stroke="#191970" points="670.5424,-128.3791 680.3058,-124.265 670.1078,-121.3926 670.5424,-128.3791"/>
</g>
<!-- Node33&#45;&gt;Node11 -->
<g id="edge64" class="edge">
<title>Node33&#45;&gt;Node11</title>
<path fill="none" stroke="#191970" d="M53.7173,-448.2781C35.626,-430.067 0,-388.7748 0,-346 0,-346 0,-346 0,-178 0,-116.5868 79.2186,-86.5076 127.8744,-73.8249"/>
<polygon fill="#191970" stroke="#191970" points="128.8886,-77.1795 137.7536,-71.3776 127.2054,-70.3849 128.8886,-77.1795"/>
</g>
<!-- Node33&#45;&gt;Node28 -->
<g id="edge66" class="edge">
<title>Node33&#45;&gt;Node28</title>
<path fill="none" stroke="#191970" d="M93.0521,-448.3733C121.1543,-439.0613 163.9054,-424.8953 194.7607,-414.671"/>
<polygon fill="#191970" stroke="#191970" points="195.9355,-417.969 204.327,-411.5011 193.7336,-411.3243 195.9355,-417.969"/>
</g>
</g>
</svg>
