<?xml version="1.0" encoding="UTF-8" standalone="no"?>
<!DOCTYPE svg PUBLIC "-//W3C//DTD SVG 1.1//EN"
 "http://www.w3.org/Graphics/SVG/1.1/DTD/svg11.dtd">
<!-- Generated by graphviz version 2.40.1 (20161225.0304)
 -->
<!-- Title: /home/jbigot/data/projects/pdi/pdi/src/global_context.cxx Pages: 1 -->
<!--zoomable 711 -->
<svg id="main" version="1.1" xmlns="http://www.w3.org/2000/svg" xmlns:xlink="http://www.w3.org/1999/xlink" xml:space="preserve" onload="init(evt)">
<style type="text/css"><![CDATA[
.edge:hover path { stroke: red; }
.edge:hover polygon { stroke: red; fill: red; }
]]></style>
<script type="text/javascript"><![CDATA[
var edges = document.getElementsByTagName('g');
if (edges && edges.length) {
  for (var i=0;i<edges.length;i++) {
    if (edges[i].id.substr(0,4)=='edge') {
      edges[i].setAttribute('class','edge');
    }
  }
}
]]></script>
        <defs>
                <circle id="rim" cx="0" cy="0" r="7"/>
                <circle id="rim2" cx="0" cy="0" r="3.5"/>
                <g id="zoomPlus">
                        <use xlink:href="#rim" fill="#404040">
                                <set attributeName="fill" to="#808080" begin="zoomplus.mouseover" end="zoomplus.mouseout"/>
                        </use>
                        <path d="M-4,0h8M0,-4v8" fill="none" stroke="white" stroke-width="1.5" pointer-events="none"/>
                </g>
                <g id="zoomMin">
                        <use xlink:href="#rim" fill="#404040">
                                <set attributeName="fill" to="#808080" begin="zoomminus.mouseover" end="zoomminus.mouseout"/>
                        </use>
                        <path d="M-4,0h8" fill="none" stroke="white" stroke-width="1.5" pointer-events="none"/>
                </g>
                <g id="dirArrow">
                        <path fill="none" stroke="white" stroke-width="1.5" d="M0,-3.0v7 M-2.5,-0.5L0,-3.0L2.5,-0.5"/>
                </g>
               <g id="resetDef">
                       <use xlink:href="#rim2" fill="#404040">
                               <set attributeName="fill" to="#808080" begin="reset.mouseover" end="reset.mouseout"/>
                       </use>
               </g>
        </defs>

<script type="text/javascript">
var viewWidth = 1788;
var viewHeight = 711;
var sectionId = 'dynsection-0';
</script>
<script xlink:href="svgpan.js"/>
<svg id="graph" class="graph">
<g id="viewport">
<title>/home/jbigot/data/projects/pdi/pdi/src/global_context.cxx</title>
<polygon fill="#ffffff" stroke="transparent" points="-4,4 -4,-707 1783.5,-707 1783.5,4 -4,4"/>
<!-- Node0 -->
<g id="node1" class="node">
<title>Node0</title>
<polygon fill="#bfbfbf" stroke="#000000" points="354.5,-672.5 354.5,-702.5 512.5,-702.5 512.5,-672.5 354.5,-672.5"/>
<text text-anchor="start" x="362.5" y="-690.5" font-family="Helvetica,sans-Serif" font-size="10.00" fill="#000000">/home/jbigot/data/projects</text>
<text text-anchor="middle" x="433.5" y="-679.5" font-family="Helvetica,sans-Serif" font-size="10.00" fill="#000000">/pdi/pdi/src/global_context.cxx</text>
</g>
<!-- Node1 -->
<g id="node2" class="node">
<title>Node1</title>
<polygon fill="#ffffff" stroke="#bfbfbf" points="0,-616.5 0,-635.5 53,-635.5 53,-616.5 0,-616.5"/>
<text text-anchor="middle" x="26.5" y="-623.5" font-family="Helvetica,sans-Serif" font-size="10.00" fill="#000000">config.h</text>
</g>
<!-- Node0&#45;&gt;Node1 -->
<g id="edge1" class="edge">
<title>Node0&#45;&gt;Node1</title>
<path fill="none" stroke="#191970" d="M354.2038,-679.7932C280.7986,-671.9134 168.5451,-657.9742 63.0182,-636.1057"/>
<polygon fill="#191970" stroke="#191970" points="63.662,-632.6646 53.1561,-634.0343 62.2231,-639.5151 63.662,-632.6646"/>
</g>
<!-- Node2 -->
<g id="node3" class="node">
<title>Node2</title>
<polygon fill="#ffffff" stroke="#bfbfbf" points="71,-616.5 71,-635.5 128,-635.5 128,-616.5 71,-616.5"/>
<text text-anchor="middle" x="99.5" y="-623.5" font-family="Helvetica,sans-Serif" font-size="10.00" fill="#000000">iostream</text>
</g>
<!-- Node0&#45;&gt;Node2 -->
<g id="edge2" class="edge">
<title>Node0&#45;&gt;Node2</title>
<path fill="none" stroke="#191970" d="M354.2379,-674.6461C295.6032,-664.8526 213.8755,-650.6045 142.5,-636 141.0451,-635.7023 139.5642,-635.3924 138.0695,-635.0738"/>
<polygon fill="#191970" stroke="#191970" points="138.6536,-631.6186 128.1345,-632.8833 137.1463,-638.4544 138.6536,-631.6186"/>
</g>
<!-- Node3 -->
<g id="node4" class="node">
<title>Node3</title>
<polygon fill="#ffffff" stroke="#bfbfbf" points="604.5,-56.5 604.5,-75.5 658.5,-75.5 658.5,-56.5 604.5,-56.5"/>
<text text-anchor="middle" x="631.5" y="-63.5" font-family="Helvetica,sans-Serif" font-size="10.00" fill="#000000">memory</text>
</g>
<!-- Node0&#45;&gt;Node3 -->
<g id="edge3" class="edge">
<title>Node0&#45;&gt;Node3</title>
<path fill="none" stroke="#191970" d="M354.3004,-680.6871C288.3479,-673.4324 201.2145,-659.6576 175.5,-636 153.0361,-615.333 156.5,-600.5246 156.5,-570 156.5,-570 156.5,-570 156.5,-234 156.5,-99.0703 306.4824,-154.6323 434.5,-112 489.0639,-93.8292 554.4247,-80.0837 594.4466,-72.5366"/>
<polygon fill="#191970" stroke="#191970" points="595.1052,-75.9742 604.2983,-70.7077 593.8275,-69.0918 595.1052,-75.9742"/>
</g>
<!-- Node4 -->
<g id="node5" class="node">
<title>Node4</title>
<polygon fill="#ffffff" stroke="#bfbfbf" points="184.5,-616.5 184.5,-635.5 230.5,-635.5 230.5,-616.5 184.5,-616.5"/>
<text text-anchor="middle" x="207.5" y="-623.5" font-family="Helvetica,sans-Serif" font-size="10.00" fill="#000000">vector</text>
</g>
<!-- Node0&#45;&gt;Node4 -->
<g id="edge4" class="edge">
<title>Node0&#45;&gt;Node4</title>
<path fill="none" stroke="#191970" d="M374.311,-672.4986C338.1251,-663.1629 290.6898,-650.6341 240.311,-636.1536"/>
<polygon fill="#191970" stroke="#191970" points="241.1145,-632.7427 230.536,-633.3298 239.1718,-639.4677 241.1145,-632.7427"/>
</g>
<!-- Node5 -->
<g id="node6" class="node">
<title>Node5</title>
<polygon fill="#ffffff" stroke="#bfbfbf" points="249,-616.5 249,-635.5 296,-635.5 296,-616.5 249,-616.5"/>
<text text-anchor="middle" x="272.5" y="-623.5" font-family="Helvetica,sans-Serif" font-size="10.00" fill="#000000">dlfcn.h</text>
</g>
<!-- Node0&#45;&gt;Node5 -->
<g id="edge5" class="edge">
<title>Node0&#45;&gt;Node5</title>
<path fill="none" stroke="#191970" d="M394.115,-672.4554C366.9942,-662.0956 331.3627,-648.4848 305.6863,-638.6768"/>
<polygon fill="#191970" stroke="#191970" points="306.6212,-635.2873 296.0306,-634.9884 304.1233,-641.8264 306.6212,-635.2873"/>
</g>
<!-- Node6 -->
<g id="node7" class="node">
<title>Node6</title>
<polygon fill="#ffffff" stroke="#bfbfbf" points="314,-616.5 314,-635.5 405,-635.5 405,-616.5 314,-616.5"/>
<text text-anchor="middle" x="359.5" y="-623.5" font-family="Helvetica,sans-Serif" font-size="10.00" fill="#000000">spdlog/spdlog.h</text>
</g>
<!-- Node0&#45;&gt;Node6 -->
<g id="edge6" class="edge">
<title>Node0&#45;&gt;Node6</title>
<path fill="none" stroke="#191970" d="M415.2079,-672.2977C404.2939,-663.2274 390.4329,-651.7077 379.2676,-642.4285"/>
<polygon fill="#191970" stroke="#191970" points="381.2762,-639.5468 371.3483,-635.8469 376.802,-644.9303 381.2762,-639.5468"/>
</g>
<!-- Node7 -->
<g id="node8" class="node">
<title>Node7</title>
<g id="a_node8"><a xlink:href="logger_8h.html" target="_top" xlink:title="pdi/logger.h">
<polygon fill="#ffffff" stroke="#000000" points="1435.5,-224.5 1435.5,-243.5 1507.5,-243.5 1507.5,-224.5 1435.5,-224.5"/>
<text text-anchor="middle" x="1471.5" y="-231.5" font-family="Helvetica,sans-Serif" font-size="10.00" fill="#000000">pdi/logger.h</text>
</a>
</g>
</g>
<!-- Node0&#45;&gt;Node7 -->
<g id="edge7" class="edge">
<title>Node0&#45;&gt;Node7</title>
<path fill="none" stroke="#191970" d="M512.5145,-685.2458C723.4688,-678.9689 1296.6253,-660.1518 1484.5,-636 1617.7558,-618.8696 1779.5,-704.3524 1779.5,-570 1779.5,-570 1779.5,-570 1779.5,-458 1779.5,-330.0048 1603.3774,-267.4984 1517.4973,-244.6276"/>
<polygon fill="#191970" stroke="#191970" points="1518.2957,-241.2189 1507.7372,-242.0958 1516.538,-247.9947 1518.2957,-241.2189"/>
</g>
<!-- Node13 -->
<g id="node14" class="node">
<title>Node13</title>
<g id="a_node14"><a xlink:href="paraconf__wrapper_8h.html" target="_top" xlink:title="pdi/paraconf_wrapper.h">
<polygon fill="#ffffff" stroke="#000000" points="946,-168.5 946,-187.5 1075,-187.5 1075,-168.5 946,-168.5"/>
<text text-anchor="middle" x="1010.5" y="-175.5" font-family="Helvetica,sans-Serif" font-size="10.00" fill="#000000">pdi/paraconf_wrapper.h</text>
</a>
</g>
</g>
<!-- Node0&#45;&gt;Node13 -->
<g id="edge18" class="edge">
<title>Node0&#45;&gt;Node13</title>
<path fill="none" stroke="#191970" d="M433.5527,-672.4772C434.0687,-612.0559 438.9978,-387.5618 483.5,-336 543.7314,-266.2137 812.7384,-211.8401 941.4474,-189.3111"/>
<polygon fill="#191970" stroke="#191970" points="942.3344,-192.7096 951.5886,-187.5512 941.1374,-185.8127 942.3344,-192.7096"/>
</g>
<!-- Node15 -->
<g id="node16" class="node">
<title>Node15</title>
<g id="a_node16"><a xlink:href="plugin_8h.html" target="_top" xlink:title="pdi/plugin.h">
<polygon fill="#ffffff" stroke="#000000" points="1681.5,-392.5 1681.5,-411.5 1751.5,-411.5 1751.5,-392.5 1681.5,-392.5"/>
<text text-anchor="middle" x="1716.5" y="-399.5" font-family="Helvetica,sans-Serif" font-size="10.00" fill="#000000">pdi/plugin.h</text>
</a>
</g>
</g>
<!-- Node0&#45;&gt;Node15 -->
<g id="edge19" class="edge">
<title>Node0&#45;&gt;Node15</title>
<path fill="none" stroke="#191970" d="M512.8633,-684.5517C796.2528,-673.5079 1741.5,-632.0225 1741.5,-570 1741.5,-570 1741.5,-570 1741.5,-514 1741.5,-480.7847 1730.897,-443.3305 1723.5013,-421.2459"/>
<polygon fill="#191970" stroke="#191970" points="1726.7805,-420.0195 1720.1888,-411.7249 1720.1692,-422.3197 1726.7805,-420.0195"/>
</g>
<!-- Node16 -->
<g id="node17" class="node">
<title>Node16</title>
<g id="a_node17"><a xlink:href="ref__any_8h.html" target="_top" xlink:title="pdi/ref_any.h">
<polygon fill="#ffffff" stroke="#000000" points="871.5,-392.5 871.5,-411.5 949.5,-411.5 949.5,-392.5 871.5,-392.5"/>
<text text-anchor="middle" x="910.5" y="-399.5" font-family="Helvetica,sans-Serif" font-size="10.00" fill="#000000">pdi/ref_any.h</text>
</a>
</g>
</g>
<!-- Node0&#45;&gt;Node16 -->
<g id="edge22" class="edge">
<title>Node0&#45;&gt;Node16</title>
<path fill="none" stroke="#191970" d="M451.579,-672.4061C501.2699,-631.5206 645.2267,-517.0734 780.5,-448 807.7937,-434.0633 840.296,-422.5627 865.9737,-414.5466"/>
<polygon fill="#191970" stroke="#191970" points="867.2697,-417.8105 875.8104,-411.541 865.2241,-411.116 867.2697,-417.8105"/>
</g>
<!-- Node23 -->
<g id="node24" class="node">
<title>Node23</title>
<g id="a_node24"><a xlink:href="error_8h.html" target="_top" xlink:title="pdi/error.h">
<polygon fill="#ffffff" stroke="#000000" points="786,-168.5 786,-187.5 851,-187.5 851,-168.5 786,-168.5"/>
<text text-anchor="middle" x="818.5" y="-175.5" font-family="Helvetica,sans-Serif" font-size="10.00" fill="#000000">pdi/error.h</text>
</a>
</g>
</g>
<!-- Node0&#45;&gt;Node23 -->
<g id="edge40" class="edge">
<title>Node0&#45;&gt;Node23</title>
<path fill="none" stroke="#191970" d="M429.3442,-672.4188C425.3387,-657.9371 419.0809,-635.452 413.5,-616 400.4685,-570.579 383.5,-561.2535 383.5,-514 383.5,-514 383.5,-514 383.5,-402 383.5,-226.7202 666.1129,-188.4727 775.7496,-180.2297"/>
<polygon fill="#191970" stroke="#191970" points="776.0747,-183.7156 785.8043,-179.5221 775.5832,-176.7328 776.0747,-183.7156"/>
</g>
<!-- Node25 -->
<g id="node26" class="node">
<title>Node25</title>
<g id="a_node26"><a xlink:href="data__descriptor__impl_8h.html" target="_top" xlink:title="data_descriptor_impl.h">
<polygon fill="#ffffff" stroke="#000000" points="587.5,-616.5 587.5,-635.5 711.5,-635.5 711.5,-616.5 587.5,-616.5"/>
<text text-anchor="middle" x="649.5" y="-623.5" font-family="Helvetica,sans-Serif" font-size="10.00" fill="#000000">data_descriptor_impl.h</text>
</a>
</g>
</g>
<!-- Node0&#45;&gt;Node25 -->
<g id="edge41" class="edge">
<title>Node0&#45;&gt;Node25</title>
<path fill="none" stroke="#191970" d="M486.3395,-672.4554C523.1701,-661.9689 571.6998,-648.1515 606.2345,-638.3187"/>
<polygon fill="#191970" stroke="#191970" points="607.3684,-641.635 616.0277,-635.5303 605.4514,-634.9026 607.3684,-641.635"/>
</g>
<!-- Node28 -->
<g id="node29" class="node">
<title>Node28</title>
<g id="a_node29"><a xlink:href="global__context_8h.html" target="_top" xlink:title="global_context.h">
<polygon fill="#ffffff" stroke="#000000" points="1285,-560.5 1285,-579.5 1378,-579.5 1378,-560.5 1285,-560.5"/>
<text text-anchor="middle" x="1331.5" y="-567.5" font-family="Helvetica,sans-Serif" font-size="10.00" fill="#000000">global_context.h</text>
</a>
</g>
</g>
<!-- Node0&#45;&gt;Node28 -->
<g id="edge79" class="edge">
<title>Node0&#45;&gt;Node28</title>
<path fill="none" stroke="#191970" d="M512.6741,-678.2613C661.3834,-660.7021 992.5272,-620.6228 1270.5,-580 1271.9601,-579.7866 1273.4393,-579.5673 1274.9314,-579.3433"/>
<polygon fill="#191970" stroke="#191970" points="1275.5474,-582.7898 1284.8992,-577.8105 1274.4834,-575.8712 1275.5474,-582.7898"/>
</g>
<!-- Node8 -->
<g id="node9" class="node">
<title>Node8</title>
<g id="a_node9"><a xlink:href="pdi__fwd_8h.html" target="_top" xlink:title="pdi/pdi_fwd.h">
<polygon fill="#ffffff" stroke="#000000" points="1216,-112.5 1216,-131.5 1295,-131.5 1295,-112.5 1216,-112.5"/>
<text text-anchor="middle" x="1255.5" y="-119.5" font-family="Helvetica,sans-Serif" font-size="10.00" fill="#000000">pdi/pdi_fwd.h</text>
</a>
</g>
</g>
<!-- Node7&#45;&gt;Node8 -->
<g id="edge8" class="edge">
<title>Node7&#45;&gt;Node8</title>
<path fill="none" stroke="#191970" d="M1453.1671,-224.3237C1428.668,-211.4096 1383.8812,-187.8601 1345.5,-168 1324.855,-157.3174 1301.4773,-145.3733 1283.7229,-136.3337"/>
<polygon fill="#191970" stroke="#191970" points="1284.9909,-133.0519 1274.491,-131.637 1281.8168,-139.2909 1284.9909,-133.0519"/>
</g>
<!-- Node7&#45;&gt;Node13 -->
<g id="edge14" class="edge">
<title>Node7&#45;&gt;Node13</title>
<path fill="none" stroke="#191970" d="M1435.3261,-229.6058C1360.1163,-220.4697 1185.5398,-199.263 1085.1514,-187.0683"/>
<polygon fill="#191970" stroke="#191970" points="1085.427,-183.5761 1075.0779,-185.8446 1084.5828,-190.525 1085.427,-183.5761"/>
</g>
<!-- Node8&#45;&gt;Node3 -->
<g id="edge9" class="edge">
<title>Node8&#45;&gt;Node3</title>
<path fill="none" stroke="#191970" d="M1215.9926,-118.4545C1102.8358,-108.2994 778.6035,-79.2016 668.5579,-69.3257"/>
<polygon fill="#191970" stroke="#191970" points="668.8641,-65.8392 658.5912,-68.4313 668.2383,-72.8112 668.8641,-65.8392"/>
</g>
<!-- Node9 -->
<g id="node10" class="node">
<title>Node9</title>
<g id="a_node10"><a xlink:href="pdi_8h.html" target="_top" xlink:title="pdi.h">
<polygon fill="#ffffff" stroke="#000000" points="1474,-56.5 1474,-75.5 1513,-75.5 1513,-56.5 1474,-56.5"/>
<text text-anchor="middle" x="1493.5" y="-63.5" font-family="Helvetica,sans-Serif" font-size="10.00" fill="#000000">pdi.h</text>
</a>
</g>
</g>
<!-- Node8&#45;&gt;Node9 -->
<g id="edge10" class="edge">
<title>Node8&#45;&gt;Node9</title>
<path fill="none" stroke="#191970" d="M1295.068,-112.6899C1342.6916,-101.4843 1421.5515,-82.9291 1464.1032,-72.9169"/>
<polygon fill="#191970" stroke="#191970" points="1464.9178,-76.3209 1473.8503,-70.6235 1463.3145,-69.507 1464.9178,-76.3209"/>
</g>
<!-- Node10 -->
<g id="node11" class="node">
<title>Node10</title>
<polygon fill="#ffffff" stroke="#bfbfbf" points="1051,-.5 1051,-19.5 1118,-19.5 1118,-.5 1051,-.5"/>
<text text-anchor="middle" x="1084.5" y="-7.5" font-family="Helvetica,sans-Serif" font-size="10.00" fill="#000000">paraconf.h</text>
</g>
<!-- Node9&#45;&gt;Node10 -->
<g id="edge11" class="edge">
<title>Node9&#45;&gt;Node10</title>
<path fill="none" stroke="#191970" d="M1473.8619,-59.6298C1469.1918,-58.2807 1464.1996,-56.9725 1459.5,-56 1341.1284,-31.5049 1198.848,-18.4384 1128.4253,-13.0401"/>
<polygon fill="#191970" stroke="#191970" points="1128.3951,-9.528 1118.161,-12.2688 1127.8706,-16.5084 1128.3951,-9.528"/>
</g>
<!-- Node11 -->
<g id="node12" class="node">
<title>Node11</title>
<polygon fill="#ffffff" stroke="#bfbfbf" points="1410.5,-.5 1410.5,-19.5 1482.5,-19.5 1482.5,-.5 1410.5,-.5"/>
<text text-anchor="middle" x="1446.5" y="-7.5" font-family="Helvetica,sans-Serif" font-size="10.00" fill="#000000">pdi/export.h</text>
</g>
<!-- Node9&#45;&gt;Node11 -->
<g id="edge12" class="edge">
<title>Node9&#45;&gt;Node11</title>
<path fill="none" stroke="#191970" d="M1485.3132,-56.2455C1478.6411,-48.2958 1469.0521,-36.8706 1461.0747,-27.3656"/>
<polygon fill="#191970" stroke="#191970" points="1463.7026,-25.0524 1454.593,-19.6427 1458.3408,-29.5525 1463.7026,-25.0524"/>
</g>
<!-- Node12 -->
<g id="node13" class="node">
<title>Node12</title>
<polygon fill="#ffffff" stroke="#bfbfbf" points="1501,-.5 1501,-19.5 1578,-19.5 1578,-.5 1501,-.5"/>
<text text-anchor="middle" x="1539.5" y="-7.5" font-family="Helvetica,sans-Serif" font-size="10.00" fill="#000000">pdi/version.h</text>
</g>
<!-- Node9&#45;&gt;Node12 -->
<g id="edge13" class="edge">
<title>Node9&#45;&gt;Node12</title>
<path fill="none" stroke="#191970" d="M1501.5126,-56.2455C1507.9768,-48.3761 1517.2385,-37.101 1524.9983,-27.6542"/>
<polygon fill="#191970" stroke="#191970" points="1527.9364,-29.5916 1531.5792,-19.6427 1522.5273,-25.1484 1527.9364,-29.5916"/>
</g>
<!-- Node13&#45;&gt;Node8 -->
<g id="edge17" class="edge">
<title>Node13&#45;&gt;Node8</title>
<path fill="none" stroke="#191970" d="M1052.3386,-168.4369C1094.9038,-158.7077 1160.8584,-143.6324 1205.9973,-133.3149"/>
<polygon fill="#191970" stroke="#191970" points="1206.8939,-136.7003 1215.8626,-131.06 1205.3341,-129.8763 1206.8939,-136.7003"/>
</g>
<!-- Node13&#45;&gt;Node10 -->
<g id="edge16" class="edge">
<title>Node13&#45;&gt;Node10</title>
<path fill="none" stroke="#191970" d="M1014.6906,-168.4862C1026.4895,-141.6994 1060.1608,-65.2565 1076.0301,-29.2289"/>
<polygon fill="#191970" stroke="#191970" points="1079.343,-30.3903 1080.1711,-19.8279 1072.9369,-27.5686 1079.343,-30.3903"/>
</g>
<!-- Node14 -->
<g id="node15" class="node">
<title>Node14</title>
<polygon fill="#ffffff" stroke="#bfbfbf" points="904,-112.5 904,-131.5 947,-131.5 947,-112.5 904,-112.5"/>
<text text-anchor="middle" x="925.5" y="-119.5" font-family="Helvetica,sans-Serif" font-size="10.00" fill="#000000">string</text>
</g>
<!-- Node13&#45;&gt;Node14 -->
<g id="edge15" class="edge">
<title>Node13&#45;&gt;Node14</title>
<path fill="none" stroke="#191970" d="M995.6941,-168.2455C982.7744,-159.7337 963.8069,-147.2375 948.8448,-137.3801"/>
<polygon fill="#191970" stroke="#191970" points="950.4124,-134.2216 940.1362,-131.6427 946.5613,-140.067 950.4124,-134.2216"/>
</g>
<!-- Node15&#45;&gt;Node7 -->
<g id="edge20" class="edge">
<title>Node15&#45;&gt;Node7</title>
<path fill="none" stroke="#191970" d="M1704.6246,-392.2545C1678.2496,-370.8043 1612.4578,-318.3645 1553.5,-280 1535.8871,-268.5391 1515.2522,-256.9725 1499.0886,-248.3047"/>
<polygon fill="#191970" stroke="#191970" points="1500.619,-245.1546 1490.145,-243.559 1497.3379,-251.338 1500.619,-245.1546"/>
</g>
<!-- Node15&#45;&gt;Node8 -->
<g id="edge21" class="edge">
<title>Node15&#45;&gt;Node8</title>
<path fill="none" stroke="#191970" d="M1718.3626,-392.455C1721.9572,-373.1751 1729.5,-328.1712 1729.5,-290 1729.5,-290 1729.5,-290 1729.5,-234 1729.5,-147.5234 1426.914,-127.7356 1305.2616,-123.2746"/>
<polygon fill="#191970" stroke="#191970" points="1305.213,-119.7709 1295.0977,-122.9223 1304.9704,-126.7667 1305.213,-119.7709"/>
</g>
<!-- Node16&#45;&gt;Node3 -->
<g id="edge25" class="edge">
<title>Node16&#45;&gt;Node3</title>
<path fill="none" stroke="#191970" d="M871.4532,-394.9162C829.8227,-386.6719 767.4582,-372.1141 749.5,-356 665.8269,-280.919 640.3338,-137.8679 633.6272,-85.6802"/>
<polygon fill="#191970" stroke="#191970" points="637.0992,-85.2374 632.4387,-75.7227 630.1486,-86.067 637.0992,-85.2374"/>
</g>
<!-- Node16&#45;&gt;Node8 -->
<g id="edge28" class="edge">
<title>Node16&#45;&gt;Node8</title>
<path fill="none" stroke="#191970" d="M914.672,-392.1931C920.8352,-378.4997 933.4018,-353.3807 949.5,-336 972.6926,-310.9597 1164.8063,-182.2974 1232.2249,-137.4449"/>
<polygon fill="#191970" stroke="#191970" points="1234.4894,-140.1424 1240.8799,-131.6918 1230.6143,-134.3128 1234.4894,-140.1424"/>
</g>
<!-- Node17 -->
<g id="node18" class="node">
<title>Node17</title>
<polygon fill="#ffffff" stroke="#bfbfbf" points="758,-336.5 758,-355.5 809,-355.5 809,-336.5 758,-336.5"/>
<text text-anchor="middle" x="783.5" y="-343.5" font-family="Helvetica,sans-Serif" font-size="10.00" fill="#000000">cassert</text>
</g>
<!-- Node16&#45;&gt;Node17 -->
<g id="edge23" class="edge">
<title>Node16&#45;&gt;Node17</title>
<path fill="none" stroke="#191970" d="M888.6679,-392.3733C868.1897,-383.3435 837.3601,-369.7494 814.3681,-359.6111"/>
<polygon fill="#191970" stroke="#191970" points="815.6093,-356.3333 805.0472,-355.5011 812.785,-362.7383 815.6093,-356.3333"/>
</g>
<!-- Node18 -->
<g id="node19" class="node">
<title>Node18</title>
<polygon fill="#ffffff" stroke="#bfbfbf" points="639.5,-336.5 639.5,-355.5 701.5,-355.5 701.5,-336.5 639.5,-336.5"/>
<text text-anchor="middle" x="670.5" y="-343.5" font-family="Helvetica,sans-Serif" font-size="10.00" fill="#000000">functional</text>
</g>
<!-- Node16&#45;&gt;Node18 -->
<g id="edge24" class="edge">
<title>Node16&#45;&gt;Node18</title>
<path fill="none" stroke="#191970" d="M871.4057,-392.878C827.4136,-382.6132 756.2675,-366.0124 711.5064,-355.5682"/>
<polygon fill="#191970" stroke="#191970" points="712.0858,-352.1094 701.5521,-353.2455 710.4952,-358.9263 712.0858,-352.1094"/>
</g>
<!-- Node19 -->
<g id="node20" class="node">
<title>Node19</title>
<polygon fill="#ffffff" stroke="#bfbfbf" points="827.5,-336.5 827.5,-355.5 863.5,-355.5 863.5,-336.5 827.5,-336.5"/>
<text text-anchor="middle" x="845.5" y="-343.5" font-family="Helvetica,sans-Serif" font-size="10.00" fill="#000000">new</text>
</g>
<!-- Node16&#45;&gt;Node19 -->
<g id="edge26" class="edge">
<title>Node16&#45;&gt;Node19</title>
<path fill="none" stroke="#191970" d="M899.1779,-392.2455C889.5777,-383.9746 875.6108,-371.9416 864.3305,-362.2232"/>
<polygon fill="#191970" stroke="#191970" points="866.553,-359.5182 856.6924,-355.6427 861.984,-364.8214 866.553,-359.5182"/>
</g>
<!-- Node20 -->
<g id="node21" class="node">
<title>Node20</title>
<polygon fill="#ffffff" stroke="#bfbfbf" points="1059.5,-336.5 1059.5,-355.5 1151.5,-355.5 1151.5,-336.5 1059.5,-336.5"/>
<text text-anchor="middle" x="1105.5" y="-343.5" font-family="Helvetica,sans-Serif" font-size="10.00" fill="#000000">unordered_map</text>
</g>
<!-- Node16&#45;&gt;Node20 -->
<g id="edge27" class="edge">
<title>Node16&#45;&gt;Node20</title>
<path fill="none" stroke="#191970" d="M944.0217,-392.3733C976.8683,-382.9404 1027.0595,-368.5265 1062.7578,-358.2747"/>
<polygon fill="#191970" stroke="#191970" points="1063.7703,-361.6255 1072.4157,-355.5011 1061.8381,-354.8974 1063.7703,-361.6255"/>
</g>
<!-- Node21 -->
<g id="node22" class="node">
<title>Node21</title>
<g id="a_node22"><a xlink:href="datatype_8h.html" target="_top" xlink:title="pdi/datatype.h">
<polygon fill="#ffffff" stroke="#000000" points="958,-336.5 958,-355.5 1041,-355.5 1041,-336.5 958,-336.5"/>
<text text-anchor="middle" x="999.5" y="-343.5" font-family="Helvetica,sans-Serif" font-size="10.00" fill="#000000">pdi/datatype.h</text>
</a>
</g>
</g>
<!-- Node16&#45;&gt;Node21 -->
<g id="edge29" class="edge">
<title>Node16&#45;&gt;Node21</title>
<path fill="none" stroke="#191970" d="M926.0026,-392.2455C939.658,-383.6534 959.7657,-371.0014 975.4989,-361.1018"/>
<polygon fill="#191970" stroke="#191970" points="977.5751,-363.9307 984.175,-355.6427 973.8471,-358.006 977.5751,-363.9307"/>
</g>
<!-- Node16&#45;&gt;Node23 -->
<g id="edge35" class="edge">
<title>Node16&#45;&gt;Node23</title>
<path fill="none" stroke="#191970" d="M906.5469,-392.375C892.5393,-358.2697 845.1045,-242.7761 826.2858,-196.9567"/>
<polygon fill="#191970" stroke="#191970" points="829.4752,-195.5096 822.4384,-187.5891 823.0001,-198.1691 829.4752,-195.5096"/>
</g>
<!-- Node21&#45;&gt;Node8 -->
<g id="edge30" class="edge">
<title>Node21&#45;&gt;Node8</title>
<path fill="none" stroke="#191970" d="M1012.7069,-336.2168C1044.7995,-312.2394 1128.9846,-248.1094 1193.5,-188 1210.2647,-172.3802 1228.0368,-153.1528 1240.235,-139.4887"/>
<polygon fill="#191970" stroke="#191970" points="1243.0479,-141.5912 1247.051,-131.7818 1237.8044,-136.9538 1243.0479,-141.5912"/>
</g>
<!-- Node22 -->
<g id="node23" class="node">
<title>Node22</title>
<g id="a_node23"><a xlink:href="datatype__template_8h.html" target="_top" xlink:title="pdi/datatype_template.h">
<polygon fill="#ffffff" stroke="#000000" points="1135.5,-280.5 1135.5,-299.5 1265.5,-299.5 1265.5,-280.5 1135.5,-280.5"/>
<text text-anchor="middle" x="1200.5" y="-287.5" font-family="Helvetica,sans-Serif" font-size="10.00" fill="#000000">pdi/datatype_template.h</text>
</a>
</g>
</g>
<!-- Node21&#45;&gt;Node22 -->
<g id="edge31" class="edge">
<title>Node21&#45;&gt;Node22</title>
<path fill="none" stroke="#191970" d="M1034.0531,-336.3733C1067.9104,-326.9404 1119.646,-312.5265 1156.4426,-302.2747"/>
<polygon fill="#191970" stroke="#191970" points="1157.704,-305.5566 1166.3978,-299.5011 1155.8253,-298.8135 1157.704,-305.5566"/>
</g>
<!-- Node22&#45;&gt;Node7 -->
<g id="edge34" class="edge">
<title>Node22&#45;&gt;Node7</title>
<path fill="none" stroke="#191970" d="M1246.7786,-280.4369C1296.7034,-270.1203 1375.7179,-253.7926 1425.5245,-243.5005"/>
<polygon fill="#191970" stroke="#191970" points="1426.2988,-246.9145 1435.3836,-241.4632 1424.8822,-240.0593 1426.2988,-246.9145"/>
</g>
<!-- Node22&#45;&gt;Node8 -->
<g id="edge33" class="edge">
<title>Node22&#45;&gt;Node8</title>
<path fill="none" stroke="#191970" d="M1203.6146,-280.4862C1212.3465,-253.8144 1237.1956,-177.9117 1249.0522,-141.695"/>
<polygon fill="#191970" stroke="#191970" points="1252.4974,-142.4205 1252.2825,-131.8279 1245.8449,-140.2426 1252.4974,-142.4205"/>
</g>
<!-- Node22&#45;&gt;Node10 -->
<g id="edge32" class="edge">
<title>Node22&#45;&gt;Node10</title>
<path fill="none" stroke="#191970" d="M1196.507,-280.3618C1179.7747,-239.9735 1115.1229,-83.9174 1092.4289,-29.1388"/>
<polygon fill="#191970" stroke="#191970" points="1095.5371,-27.4966 1088.4762,-19.5977 1089.0702,-30.1759 1095.5371,-27.4966"/>
</g>
<!-- Node23&#45;&gt;Node8 -->
<g id="edge39" class="edge">
<title>Node23&#45;&gt;Node8</title>
<path fill="none" stroke="#191970" d="M851.346,-173.7909C927.3197,-164.0551 1115.5619,-139.9326 1205.7613,-128.3738"/>
<polygon fill="#191970" stroke="#191970" points="1206.2671,-131.8377 1215.7411,-127.095 1205.3773,-124.8945 1206.2671,-131.8377"/>
</g>
<!-- Node23&#45;&gt;Node10 -->
<g id="edge38" class="edge">
<title>Node23&#45;&gt;Node10</title>
<path fill="none" stroke="#191970" d="M828.3937,-168.2935C842.5305,-154.7195 869.6651,-129.7413 895.5,-112 948.6284,-75.5157 1016.1766,-41.7984 1054.451,-23.7446"/>
<polygon fill="#191970" stroke="#191970" points="1055.9496,-26.9077 1063.5244,-19.5 1052.9834,-20.5672 1055.9496,-26.9077"/>
</g>
<!-- Node23&#45;&gt;Node14 -->
<g id="edge37" class="edge">
<title>Node23&#45;&gt;Node14</title>
<path fill="none" stroke="#191970" d="M837.138,-168.2455C853.9386,-159.4527 878.8634,-146.4079 897.9618,-136.4125"/>
<polygon fill="#191970" stroke="#191970" points="899.8386,-139.3807 907.0756,-131.6427 896.5927,-133.1787 899.8386,-139.3807"/>
</g>
<!-- Node24 -->
<g id="node25" class="node">
<title>Node24</title>
<polygon fill="#ffffff" stroke="#bfbfbf" points="785.5,-112.5 785.5,-131.5 847.5,-131.5 847.5,-112.5 785.5,-112.5"/>
<text text-anchor="middle" x="816.5" y="-119.5" font-family="Helvetica,sans-Serif" font-size="10.00" fill="#000000">exception</text>
</g>
<!-- Node23&#45;&gt;Node24 -->
<g id="edge36" class="edge">
<title>Node23&#45;&gt;Node24</title>
<path fill="none" stroke="#191970" d="M818.1516,-168.2455C817.8907,-160.9382 817.5248,-150.6944 817.2037,-141.7046"/>
<polygon fill="#191970" stroke="#191970" points="820.6992,-141.5113 816.8444,-131.6427 813.7036,-141.7613 820.6992,-141.5113"/>
</g>
<!-- Node25&#45;&gt;Node3 -->
<g id="edge43" class="edge">
<title>Node25&#45;&gt;Node3</title>
<path fill="none" stroke="#191970" d="M587.3905,-617.345C561.1785,-610.8886 532.0407,-599.6283 511.5,-580 430.9401,-503.0188 421.5,-457.4271 421.5,-346 421.5,-346 421.5,-346 421.5,-178 421.5,-100.6265 533.8608,-76.5204 594.2048,-69.1532"/>
<polygon fill="#191970" stroke="#191970" points="594.9294,-72.5939 604.4761,-67.9993 594.1478,-65.6377 594.9294,-72.5939"/>
</g>
<!-- Node25&#45;&gt;Node8 -->
<g id="edge46" class="edge">
<title>Node25&#45;&gt;Node8</title>
<path fill="none" stroke="#191970" d="M612.705,-616.4434C567.7202,-602.2795 497.5,-571.0354 497.5,-514 497.5,-514 497.5,-514 497.5,-402 497.5,-221.3059 321.3942,-442.8444 1084.5,-188 1133.5368,-171.6238 1189.2032,-149.4519 1223.3354,-135.4358"/>
<polygon fill="#191970" stroke="#191970" points="1224.877,-138.5861 1232.7866,-131.537 1222.2075,-132.115 1224.877,-138.5861"/>
</g>
<!-- Node25&#45;&gt;Node10 -->
<g id="edge45" class="edge">
<title>Node25&#45;&gt;Node10</title>
<path fill="none" stroke="#191970" d="M587.1882,-623.6147C462.5752,-617.1415 194.5,-593.9274 194.5,-514 194.5,-514 194.5,-514 194.5,-122 194.5,-35.6819 862.0361,-14.8706 1040.8706,-10.844"/>
<polygon fill="#191970" stroke="#191970" points="1041.046,-14.3411 1050.967,-10.623 1040.8927,-7.3428 1041.046,-14.3411"/>
</g>
<!-- Node25&#45;&gt;Node16 -->
<g id="edge53" class="edge">
<title>Node25&#45;&gt;Node16</title>
<path fill="none" stroke="#191970" d="M656.0082,-616.1209C675.8411,-586.6992 738.5761,-498.5664 810.5,-448 829.7578,-434.4607 853.6373,-423.3002 873.2314,-415.3641"/>
<polygon fill="#191970" stroke="#191970" points="874.726,-418.5374 882.7527,-411.6219 872.1654,-412.0225 874.726,-418.5374"/>
</g>
<!-- Node25&#45;&gt;Node18 -->
<g id="edge42" class="edge">
<title>Node25&#45;&gt;Node18</title>
<path fill="none" stroke="#191970" d="M650.2229,-616.3618C653.2394,-576.1418 664.8588,-421.2159 669.0128,-365.8288"/>
<polygon fill="#191970" stroke="#191970" points="672.5224,-365.8315 669.7802,-355.5977 665.542,-365.3079 672.5224,-365.8315"/>
</g>
<!-- Node25&#45;&gt;Node22 -->
<g id="edge52" class="edge">
<title>Node25&#45;&gt;Node22</title>
<path fill="none" stroke="#191970" d="M627.249,-616.3895C594.0729,-600.3825 535.5,-564.9125 535.5,-514 535.5,-514 535.5,-514 535.5,-402 535.5,-350.5883 582.0979,-353.3319 630.5,-336 719.5455,-304.1145 991.7957,-294.2106 1125.2115,-291.2305"/>
<polygon fill="#191970" stroke="#191970" points="1125.4284,-294.7267 1135.3504,-291.0114 1125.2771,-287.7284 1125.4284,-294.7267"/>
</g>
<!-- Node26 -->
<g id="node27" class="node">
<title>Node26</title>
<polygon fill="#ffffff" stroke="#bfbfbf" points="819,-448.5 819,-467.5 860,-467.5 860,-448.5 819,-448.5"/>
<text text-anchor="middle" x="839.5" y="-455.5" font-family="Helvetica,sans-Serif" font-size="10.00" fill="#000000">stack</text>
</g>
<!-- Node25&#45;&gt;Node26 -->
<g id="edge44" class="edge">
<title>Node25&#45;&gt;Node26</title>
<path fill="none" stroke="#191970" d="M660.2596,-616.4862C691.3344,-589.0096 781.4973,-509.2866 820.8081,-474.5276"/>
<polygon fill="#191970" stroke="#191970" points="823.2121,-477.074 828.3851,-467.8279 818.5752,-471.8299 823.2121,-477.074"/>
</g>
<!-- Node27 -->
<g id="node28" class="node">
<title>Node27</title>
<g id="a_node28"><a xlink:href="data__descriptor_8h.html" target="_top" xlink:title="pdi/data_descriptor.h">
<polygon fill="#ffffff" stroke="#000000" points="1293.5,-448.5 1293.5,-467.5 1409.5,-467.5 1409.5,-448.5 1293.5,-448.5"/>
<text text-anchor="middle" x="1351.5" y="-455.5" font-family="Helvetica,sans-Serif" font-size="10.00" fill="#000000">pdi/data_descriptor.h</text>
</a>
</g>
</g>
<!-- Node25&#45;&gt;Node27 -->
<g id="edge47" class="edge">
<title>Node25&#45;&gt;Node27</title>
<path fill="none" stroke="#191970" d="M711.8573,-622.3985C821.2758,-614.5139 1053.6812,-590.7406 1237.5,-524 1272.0745,-511.4467 1308.204,-488.6148 1330.2867,-473.3752"/>
<polygon fill="#191970" stroke="#191970" points="1332.4016,-476.1669 1338.5735,-467.5553 1328.3785,-470.4385 1332.4016,-476.1669"/>
</g>
<!-- Node25&#45;&gt;Node28 -->
<g id="edge54" class="edge">
<title>Node25&#45;&gt;Node28</title>
<path fill="none" stroke="#191970" d="M711.8156,-623.2132C823.8943,-617.7941 1066.797,-604.1934 1270.5,-580 1271.9653,-579.826 1273.4492,-579.6418 1274.9454,-579.449"/>
<polygon fill="#191970" stroke="#191970" points="1275.5064,-582.9049 1284.9335,-578.0696 1274.5487,-575.9707 1275.5064,-582.9049"/>
</g>
<!-- Node27&#45;&gt;Node8 -->
<g id="edge49" class="edge">
<title>Node27&#45;&gt;Node8</title>
<path fill="none" stroke="#191970" d="M1352.3124,-448.2457C1355.0615,-409.8457 1361.0692,-266.3941 1307.5,-168 1300.9262,-155.9254 1289.8873,-145.4787 1279.6673,-137.6063"/>
<polygon fill="#191970" stroke="#191970" points="1281.5448,-134.6448 1271.391,-131.6197 1277.4422,-140.3165 1281.5448,-134.6448"/>
</g>
<!-- Node27&#45;&gt;Node10 -->
<g id="edge48" class="edge">
<title>Node27&#45;&gt;Node10</title>
<path fill="none" stroke="#191970" d="M1360.25,-448.3262C1376,-429.87 1407.5,-387.7399 1407.5,-346 1407.5,-346 1407.5,-346 1407.5,-290 1407.5,-198.5988 1371.9859,-173.6428 1304.5,-112 1252.9892,-64.9491 1175.982,-36.072 1128.0708,-21.5554"/>
<polygon fill="#191970" stroke="#191970" points="1128.8901,-18.1481 1118.3083,-18.6744 1126.9087,-24.8618 1128.8901,-18.1481"/>
</g>
<!-- Node27&#45;&gt;Node16 -->
<g id="edge51" class="edge">
<title>Node27&#45;&gt;Node16</title>
<path fill="none" stroke="#191970" d="M1293.3935,-450.6214C1205.8064,-439.4992 1041.5094,-418.6361 959.5718,-408.2313"/>
<polygon fill="#191970" stroke="#191970" points="959.8841,-404.743 949.5228,-406.9553 959.0022,-411.6872 959.8841,-404.743"/>
</g>
<!-- Node27&#45;&gt;Node22 -->
<g id="edge50" class="edge">
<title>Node27&#45;&gt;Node22</title>
<path fill="none" stroke="#191970" d="M1346.636,-448.2117C1335.3684,-426.2229 1305.6591,-372.0229 1269.5,-336 1257.2351,-323.7813 1241.2681,-312.8919 1227.7831,-304.779"/>
<polygon fill="#191970" stroke="#191970" points="1229.3238,-301.6261 1218.92,-299.6237 1225.8043,-307.677 1229.3238,-301.6261"/>
</g>
<!-- Node28&#45;&gt;Node3 -->
<g id="edge56" class="edge">
<title>Node28&#45;&gt;Node3</title>
<path fill="none" stroke="#191970" d="M1284.7902,-568.382C1172.1699,-564.0955 888.2821,-550.8874 797.5,-524 746.7886,-508.9805 738.9607,-493.2714 692.5,-468 639.372,-439.1021 573.5,-462.4787 573.5,-402 573.5,-402 573.5,-402 573.5,-178 573.5,-141.0488 598.702,-104.1465 615.8808,-83.2847"/>
<polygon fill="#191970" stroke="#191970" points="618.5985,-85.4919 622.4375,-75.6171 613.2784,-80.9426 618.5985,-85.4919"/>
</g>
<!-- Node28&#45;&gt;Node7 -->
<g id="edge74" class="edge">
<title>Node28&#45;&gt;Node7</title>
<path fill="none" stroke="#191970" d="M1374.491,-560.4705C1445.2223,-543.823 1581.0626,-507.4389 1608.5,-468 1663.1401,-389.4595 1544.6698,-288.1376 1493.5193,-249.7114"/>
<polygon fill="#191970" stroke="#191970" points="1495.4882,-246.8145 1485.3644,-243.6904 1491.3304,-252.4459 1495.4882,-246.8145"/>
</g>
<!-- Node28&#45;&gt;Node8 -->
<g id="edge75" class="edge">
<title>Node28&#45;&gt;Node8</title>
<path fill="none" stroke="#191970" d="M1378.117,-565.0455C1422.1349,-559.1854 1489.2948,-547.1483 1543.5,-524 1584.4244,-506.5232 1603.5449,-506.1223 1626.5,-468 1643.9783,-438.9732 1640.0473,-425.0316 1632.5,-392 1612.2889,-303.5433 1589.1483,-278.3627 1516.5,-224 1463.5041,-184.3431 1440.1711,-192.0397 1378.5,-168 1349.3754,-156.6471 1316.1656,-144.26 1291.6009,-135.203"/>
<polygon fill="#191970" stroke="#191970" points="1292.5666,-131.829 1281.9731,-131.6605 1290.1494,-138.3984 1292.5666,-131.829"/>
</g>
<!-- Node28&#45;&gt;Node14 -->
<g id="edge58" class="edge">
<title>Node28&#45;&gt;Node14</title>
<path fill="none" stroke="#191970" d="M1284.7238,-568.7412C1180.1552,-565.4085 930.5296,-554.4243 852.5,-524 737.2186,-479.0509 685.5971,-466.7905 630.5,-356 603.5633,-301.8351 649.2075,-359.706 860.5,-188 878.8974,-173.0494 897.6591,-153.4337 910.2658,-139.4821"/>
<polygon fill="#191970" stroke="#191970" points="913.229,-141.417 917.2616,-131.6196 907.9994,-136.7639 913.229,-141.417"/>
</g>
<!-- Node28&#45;&gt;Node15 -->
<g id="edge77" class="edge">
<title>Node28&#45;&gt;Node15</title>
<path fill="none" stroke="#191970" d="M1378.1909,-566.6316C1467.7651,-559.7676 1656.9095,-543.1779 1679.5,-524 1709.4706,-498.5567 1715.6639,-449.6872 1716.6469,-422.1489"/>
<polygon fill="#191970" stroke="#191970" points="1720.1519,-421.835 1716.8033,-411.7833 1713.1527,-421.7293 1720.1519,-421.835"/>
</g>
<!-- Node28&#45;&gt;Node16 -->
<g id="edge78" class="edge">
<title>Node28&#45;&gt;Node16</title>
<path fill="none" stroke="#191970" d="M1284.9805,-566.8305C1210.4048,-561.126 1067.9594,-547.4843 1023.5,-524 976.916,-499.3935 939.3267,-447.8761 921.5792,-420.3168"/>
<polygon fill="#191970" stroke="#191970" points="924.424,-418.2651 916.147,-411.6513 918.493,-421.9831 924.424,-418.2651"/>
</g>
<!-- Node28&#45;&gt;Node20 -->
<g id="edge59" class="edge">
<title>Node28&#45;&gt;Node20</title>
<path fill="none" stroke="#191970" d="M1284.6803,-563.7635C1235.7311,-556.3661 1163.2003,-542.6469 1142.5,-524 1097.2313,-483.2218 1099.1937,-402.736 1102.8979,-365.6087"/>
<polygon fill="#191970" stroke="#191970" points="1106.3868,-365.905 1104.0531,-355.5704 1099.4327,-365.1047 1106.3868,-365.905"/>
</g>
<!-- Node28&#45;&gt;Node26 -->
<g id="edge57" class="edge">
<title>Node28&#45;&gt;Node26</title>
<path fill="none" stroke="#191970" d="M1284.7609,-567.7837C1175.1097,-562.2333 908.046,-546.5465 874.5,-524 858.5619,-513.2879 849.3522,-492.8892 844.4193,-477.592"/>
<polygon fill="#191970" stroke="#191970" points="847.6661,-476.2164 841.5482,-467.5664 840.9366,-478.1436 847.6661,-476.2164"/>
</g>
<!-- Node28&#45;&gt;Node27 -->
<g id="edge76" class="edge">
<title>Node28&#45;&gt;Node27</title>
<path fill="none" stroke="#191970" d="M1333.2052,-560.4509C1336.4819,-542.1013 1343.7159,-501.5908 1348.0412,-477.3693"/>
<polygon fill="#191970" stroke="#191970" points="1351.4866,-477.9845 1349.7991,-467.5249 1344.5956,-476.7539 1351.4866,-477.9845"/>
</g>
<!-- Node29 -->
<g id="node30" class="node">
<title>Node29</title>
<polygon fill="#ffffff" stroke="#bfbfbf" points="1466,-448.5 1466,-467.5 1495,-467.5 1495,-448.5 1466,-448.5"/>
<text text-anchor="middle" x="1480.5" y="-455.5" font-family="Helvetica,sans-Serif" font-size="10.00" fill="#000000">list</text>
</g>
<!-- Node28&#45;&gt;Node29 -->
<g id="edge55" class="edge">
<title>Node28&#45;&gt;Node29</title>
<path fill="none" stroke="#191970" d="M1344.2037,-560.4509C1369.9348,-541.1094 1428.4211,-497.1465 1459.7592,-473.5904"/>
<polygon fill="#191970" stroke="#191970" points="1461.9379,-476.3313 1467.8285,-467.5249 1457.7319,-470.7358 1461.9379,-476.3313"/>
</g>
<!-- Node30 -->
<g id="node31" class="node">
<title>Node30</title>
<polygon fill="#ffffff" stroke="#bfbfbf" points="1513.5,-448.5 1513.5,-467.5 1599.5,-467.5 1599.5,-448.5 1513.5,-448.5"/>
<text text-anchor="middle" x="1556.5" y="-455.5" font-family="Helvetica,sans-Serif" font-size="10.00" fill="#000000">unordered_set</text>
</g>
<!-- Node28&#45;&gt;Node30 -->
<g id="edge60" class="edge">
<title>Node28&#45;&gt;Node30</title>
<path fill="none" stroke="#191970" d="M1350.6834,-560.4509C1390.3693,-540.6961 1481.6543,-495.2565 1528.1565,-472.1088"/>
<polygon fill="#191970" stroke="#191970" points="1529.9727,-475.1144 1537.3652,-467.5249 1526.8533,-468.8479 1529.9727,-475.1144"/>
</g>
<!-- Node31 -->
<g id="node32" class="node">
<title>Node31</title>
<g id="a_node32"><a xlink:href="context_8h.html" target="_top" xlink:title="pdi/context.h">
<polygon fill="#ffffff" stroke="#000000" points="1151,-504.5 1151,-523.5 1228,-523.5 1228,-504.5 1151,-504.5"/>
<text text-anchor="middle" x="1189.5" y="-511.5" font-family="Helvetica,sans-Serif" font-size="10.00" fill="#000000">pdi/context.h</text>
</a>
</g>
</g>
<!-- Node28&#45;&gt;Node31 -->
<g id="edge61" class="edge">
<title>Node28&#45;&gt;Node31</title>
<path fill="none" stroke="#191970" d="M1307.0893,-560.3733C1283.8858,-551.2226 1248.7962,-537.3844 1222.9858,-527.2057"/>
<polygon fill="#191970" stroke="#191970" points="1224.1789,-523.9139 1213.5921,-523.5011 1221.6108,-530.4258 1224.1789,-523.9139"/>
</g>
<!-- Node31&#45;&gt;Node3 -->
<g id="edge64" class="edge">
<title>Node31&#45;&gt;Node3</title>
<path fill="none" stroke="#191970" d="M1189.158,-504.244C1187.8047,-470.9257 1181.8093,-362.2559 1160.5,-336 1146.125,-318.2882 797.1537,-199.5793 777.5,-188 725.659,-157.457 673.6729,-108.611 647.9952,-82.9728"/>
<polygon fill="#191970" stroke="#191970" points="650.4233,-80.4506 640.9002,-75.8072 645.4491,-85.3758 650.4233,-80.4506"/>
</g>
<!-- Node31&#45;&gt;Node7 -->
<g id="edge73" class="edge">
<title>Node31&#45;&gt;Node7</title>
<path fill="none" stroke="#191970" d="M1228.2649,-511.2332C1286.3353,-506.2847 1391.9439,-493.9133 1418.5,-468 1478.2868,-409.6605 1476.9276,-299.1251 1473.5331,-253.9726"/>
<polygon fill="#191970" stroke="#191970" points="1476.9967,-253.4023 1472.6393,-243.745 1470.0232,-254.0118 1476.9967,-253.4023"/>
</g>
<!-- Node31&#45;&gt;Node8 -->
<g id="edge69" class="edge">
<title>Node31&#45;&gt;Node8</title>
<path fill="none" stroke="#191970" d="M1197.6607,-504.4787C1222.1777,-474.8631 1293.5,-380.8971 1293.5,-290 1293.5,-290 1293.5,-290 1293.5,-234 1293.5,-199.6118 1277.2366,-162.2832 1265.989,-140.5791"/>
<polygon fill="#191970" stroke="#191970" points="1268.931,-138.6605 1261.107,-131.5166 1262.7683,-141.9804 1268.931,-138.6605"/>
</g>
<!-- Node31&#45;&gt;Node14 -->
<g id="edge66" class="edge">
<title>Node31&#45;&gt;Node14</title>
<path fill="none" stroke="#191970" d="M1191.0172,-504.4195C1196.0059,-471.6746 1210.6313,-364.6526 1193.5,-336 1176.1528,-306.9864 1155.936,-316.6203 1126.5,-300 1041.4756,-251.993 993.2631,-268.1517 937.5,-188 928.1582,-174.5725 925.455,-156.0121 924.9178,-141.9929"/>
<polygon fill="#191970" stroke="#191970" points="928.4174,-141.8901 924.866,-131.9082 921.4175,-141.9261 928.4174,-141.8901"/>
</g>
<!-- Node31&#45;&gt;Node16 -->
<g id="edge72" class="edge">
<title>Node31&#45;&gt;Node16</title>
<path fill="none" stroke="#191970" d="M1165.7126,-504.4509C1115.9873,-484.4895 1000.9336,-438.3031 943.8548,-415.3897"/>
<polygon fill="#191970" stroke="#191970" points="944.8113,-412.0023 934.2272,-411.5249 942.2035,-418.4984 944.8113,-412.0023"/>
</g>
<!-- Node31&#45;&gt;Node18 -->
<g id="edge62" class="edge">
<title>Node31&#45;&gt;Node18</title>
<path fill="none" stroke="#191970" d="M1154.1824,-504.4241C1121.468,-495.4323 1071.5214,-481.3944 1028.5,-468 909.7763,-431.0363 770.8038,-382.0012 706.504,-358.9798"/>
<polygon fill="#191970" stroke="#191970" points="707.4344,-355.5953 696.8399,-355.5142 705.0715,-362.1845 707.4344,-355.5953"/>
</g>
<!-- Node31&#45;&gt;Node20 -->
<g id="edge67" class="edge">
<title>Node31&#45;&gt;Node20</title>
<path fill="none" stroke="#191970" d="M1174.535,-504.4592C1162.7667,-496.1941 1146.8473,-483.1936 1137.5,-468 1117.6,-435.6535 1109.9763,-391.1388 1107.1288,-365.7903"/>
<polygon fill="#191970" stroke="#191970" points="1110.5893,-365.2154 1106.1296,-355.6049 1103.6227,-365.8989 1110.5893,-365.2154"/>
</g>
<!-- Node31&#45;&gt;Node22 -->
<g id="edge71" class="edge">
<title>Node31&#45;&gt;Node22</title>
<path fill="none" stroke="#191970" d="M1193.119,-504.2046C1201.9555,-479.6778 1224.4254,-413.4678 1231.5,-356 1232.5861,-347.1777 1234.0971,-344.501 1231.5,-336 1228.3591,-325.7192 1222.0634,-315.6582 1215.9612,-307.5799"/>
<polygon fill="#191970" stroke="#191970" points="1218.5816,-305.2539 1209.5741,-299.6757 1213.137,-309.6535 1218.5816,-305.2539"/>
</g>
<!-- Node31&#45;&gt;Node26 -->
<g id="edge65" class="edge">
<title>Node31&#45;&gt;Node26</title>
<path fill="none" stroke="#191970" d="M1150.7066,-507.7931C1080.5469,-496.5675 933.9483,-473.1117 870.2017,-462.9123"/>
<polygon fill="#191970" stroke="#191970" points="870.4283,-459.4041 860.0009,-461.2801 869.3223,-466.3162 870.4283,-459.4041"/>
</g>
<!-- Node31&#45;&gt;Node27 -->
<g id="edge70" class="edge">
<title>Node31&#45;&gt;Node27</title>
<path fill="none" stroke="#191970" d="M1217.3488,-504.3733C1244.1703,-495.1016 1284.9127,-481.0178 1314.4598,-470.804"/>
<polygon fill="#191970" stroke="#191970" points="1315.7069,-474.0762 1324.0146,-467.5011 1313.4198,-467.4603 1315.7069,-474.0762"/>
</g>
<!-- Node31&#45;&gt;Node29 -->
<g id="edge63" class="edge">
<title>Node31&#45;&gt;Node29</title>
<path fill="none" stroke="#191970" d="M1228.0898,-509.1727C1279.5517,-502.2939 1373.2531,-488.2241 1451.5,-468 1452.9824,-467.6168 1454.4976,-467.1936 1456.0195,-466.7442"/>
<polygon fill="#191970" stroke="#191970" points="1457.4524,-469.959 1465.8846,-463.5442 1455.2925,-463.3005 1457.4524,-469.959"/>
</g>
<!-- Node31&#45;&gt;Node30 -->
<g id="edge68" class="edge">
<title>Node31&#45;&gt;Node30</title>
<path fill="none" stroke="#191970" d="M1228.3836,-508.8948C1286.0894,-501.1931 1398.0416,-485.7723 1503.2395,-468.1554"/>
<polygon fill="#191970" stroke="#191970" points="1504.1174,-471.5569 1513.3968,-466.4438 1502.9542,-464.6542 1504.1174,-471.5569"/>
</g>
</g>
</svg>
        <g id="navigator" transform="translate(0 0)" fill="#404254">
                <rect fill="#f2f5e9" fill-opacity="0.5" stroke="#606060" stroke-width=".5" x="0" y="0" width="60" height="60"/>
                <use id="zoomplus" xlink:href="#zoomPlus" x="17" y="9" onmousedown="handleZoom(evt,'in')"/>
                <use id="zoomminus" xlink:href="#zoomMin" x="42" y="9" onmousedown="handleZoom(evt,'out')"/>
                <use id="reset" xlink:href="#resetDef" x="30" y="36" onmousedown="handleReset()"/>
                <g id="arrowUp" xlink:href="#dirArrow" transform="translate(30 24)" onmousedown="handlePan(0,-1)">
                  <use xlink:href="#rim" fill="#404040">
                        <set attributeName="fill" to="#808080" begin="arrowUp.mouseover" end="arrowUp.mouseout"/>
                  </use>
                  <path fill="none" stroke="white" stroke-width="1.5" d="M0,-3.0v7 M-2.5,-0.5L0,-3.0L2.5,-0.5"/>
                </g>
                <g id="arrowRight" xlink:href="#dirArrow" transform="rotate(90) translate(36 -43)" onmousedown="handlePan(1,0)">
                  <use xlink:href="#rim" fill="#404040">
                        <set attributeName="fill" to="#808080" begin="arrowRight.mouseover" end="arrowRight.mouseout"/>
                  </use>
                  <path fill="none" stroke="white" stroke-width="1.5" d="M0,-3.0v7 M-2.5,-0.5L0,-3.0L2.5,-0.5"/>
                </g>
                <g id="arrowDown" xlink:href="#dirArrow" transform="rotate(180) translate(-30 -48)" onmousedown="handlePan(0,1)">
                  <use xlink:href="#rim" fill="#404040">
                        <set attributeName="fill" to="#808080" begin="arrowDown.mouseover" end="arrowDown.mouseout"/>
                  </use>
                  <path fill="none" stroke="white" stroke-width="1.5" d="M0,-3.0v7 M-2.5,-0.5L0,-3.0L2.5,-0.5"/>
                </g>
                <g id="arrowLeft" xlink:href="#dirArrow" transform="rotate(270) translate(-36 17)" onmousedown="handlePan(-1,0)">
                  <use xlink:href="#rim" fill="#404040">
                        <set attributeName="fill" to="#808080" begin="arrowLeft.mouseover" end="arrowLeft.mouseout"/>
                  </use>
                  <path fill="none" stroke="white" stroke-width="1.5" d="M0,-3.0v7 M-2.5,-0.5L0,-3.0L2.5,-0.5"/>
                </g>
        </g>
        <svg viewBox="0 0 15 15" width="100%" height="30px" preserveAspectRatio="xMaxYMin meet">
         <g id="arrow_out" transform="scale(0.3 0.3)">
          <a xlink:href="global__context_8cxx__incl_org.svg" target="_base">
           <rect id="button" ry="5" rx="5" y="6" x="6" height="38" width="38"
                fill="#f2f5e9" fill-opacity="0.5" stroke="#606060" stroke-width="1.0"/>
           <path id="arrow"
             d="M 11.500037,31.436501 C 11.940474,20.09759 22.043105,11.32322 32.158766,21.979434 L 37.068811,17.246167 C 37.068811,17.246167 37.088388,32 37.088388,32 L 22.160133,31.978069 C 22.160133,31.978069 26.997745,27.140456 26.997745,27.140456 C 18.528582,18.264221 13.291696,25.230495 11.500037,31.436501 z"
             style="fill:#404040;"/>
          </a>
         </g>
        </svg>
</svg>
