<?xml version="1.0" encoding="UTF-8" standalone="no"?>
<!DOCTYPE svg PUBLIC "-//W3C//DTD SVG 1.1//EN"
 "http://www.w3.org/Graphics/SVG/1.1/DTD/svg11.dtd">
<!-- Generated by graphviz version 2.40.1 (20161225.0304)
 -->
<!-- Title: /home/jbigot/data/projects/pdi/pdi/src/global_context.h Pages: 1 -->
<!--zoomable 599 -->
<svg id="main" version="1.1" xmlns="http://www.w3.org/2000/svg" xmlns:xlink="http://www.w3.org/1999/xlink" xml:space="preserve" onload="init(evt)">
<style type="text/css"><![CDATA[
.edge:hover path { stroke: red; }
.edge:hover polygon { stroke: red; fill: red; }
]]></style>
<script type="text/javascript"><![CDATA[
var edges = document.getElementsByTagName('g');
if (edges && edges.length) {
  for (var i=0;i<edges.length;i++) {
    if (edges[i].id.substr(0,4)=='edge') {
      edges[i].setAttribute('class','edge');
    }
  }
}
]]></script>
        <defs>
                <circle id="rim" cx="0" cy="0" r="7"/>
                <circle id="rim2" cx="0" cy="0" r="3.5"/>
                <g id="zoomPlus">
                        <use xlink:href="#rim" fill="#404040">
                                <set attributeName="fill" to="#808080" begin="zoomplus.mouseover" end="zoomplus.mouseout"/>
                        </use>
                        <path d="M-4,0h8M0,-4v8" fill="none" stroke="white" stroke-width="1.5" pointer-events="none"/>
                </g>
                <g id="zoomMin">
                        <use xlink:href="#rim" fill="#404040">
                                <set attributeName="fill" to="#808080" begin="zoomminus.mouseover" end="zoomminus.mouseout"/>
                        </use>
                        <path d="M-4,0h8" fill="none" stroke="white" stroke-width="1.5" pointer-events="none"/>
                </g>
                <g id="dirArrow">
                        <path fill="none" stroke="white" stroke-width="1.5" d="M0,-3.0v7 M-2.5,-0.5L0,-3.0L2.5,-0.5"/>
                </g>
               <g id="resetDef">
                       <use xlink:href="#rim2" fill="#404040">
                               <set attributeName="fill" to="#808080" begin="reset.mouseover" end="reset.mouseout"/>
                       </use>
               </g>
        </defs>

<script type="text/javascript">
var viewWidth = 1032;
var viewHeight = 599;
var sectionId = 'dynsection-0';
</script>
<script xlink:href="svgpan.js"/>
<svg id="graph" class="graph">
<g id="viewport">
<title>/home/jbigot/data/projects/pdi/pdi/src/global_context.h</title>
<polygon fill="#ffffff" stroke="transparent" points="-4,4 -4,-595 1028,-595 1028,4 -4,4"/>
<!-- Node0 -->
<g id="node1" class="node">
<title>Node0</title>
<polygon fill="#bfbfbf" stroke="#000000" points="392,-560.5 392,-590.5 540,-590.5 540,-560.5 392,-560.5"/>
<text text-anchor="start" x="400" y="-578.5" font-family="Helvetica,sans-Serif" font-size="10.00" fill="#000000">/home/jbigot/data/projects</text>
<text text-anchor="middle" x="466" y="-567.5" font-family="Helvetica,sans-Serif" font-size="10.00" fill="#000000">/pdi/pdi/src/global_context.h</text>
</g>
<!-- Node1 -->
<g id="node2" class="node">
<title>Node1</title>
<polygon fill="#ffffff" stroke="#bfbfbf" points="142.5,-448.5 142.5,-467.5 171.5,-467.5 171.5,-448.5 142.5,-448.5"/>
<text text-anchor="middle" x="157" y="-455.5" font-family="Helvetica,sans-Serif" font-size="10.00" fill="#000000">list</text>
</g>
<!-- Node0&#45;&gt;Node1 -->
<g id="edge1" class="edge">
<title>Node0&#45;&gt;Node1</title>
<path fill="none" stroke="#191970" d="M426.5511,-560.4992C361.7252,-535.8486 234.556,-487.4913 181.3324,-467.2526"/>
<polygon fill="#191970" stroke="#191970" points="182.3051,-463.878 171.7141,-463.5951 179.8171,-470.421 182.3051,-463.878"/>
</g>
<!-- Node2 -->
<g id="node3" class="node">
<title>Node2</title>
<polygon fill="#ffffff" stroke="#bfbfbf" points="68,-56.5 68,-75.5 122,-75.5 122,-56.5 68,-56.5"/>
<text text-anchor="middle" x="95" y="-63.5" font-family="Helvetica,sans-Serif" font-size="10.00" fill="#000000">memory</text>
</g>
<!-- Node0&#45;&gt;Node2 -->
<g id="edge2" class="edge">
<title>Node0&#45;&gt;Node2</title>
<path fill="none" stroke="#191970" d="M391.7044,-573.0792C288.3574,-568.5739 107.5266,-556.229 51,-524 18.7962,-505.6388 0,-495.0705 0,-458 0,-458 0,-458 0,-178 0,-134.9765 41.2735,-100.0102 69.4109,-81.1715"/>
<polygon fill="#191970" stroke="#191970" points="71.5021,-83.9879 78.0159,-75.632 67.713,-78.102 71.5021,-83.9879"/>
</g>
<!-- Node3 -->
<g id="node4" class="node">
<title>Node3</title>
<polygon fill="#ffffff" stroke="#bfbfbf" points="767.5,-448.5 767.5,-467.5 808.5,-467.5 808.5,-448.5 767.5,-448.5"/>
<text text-anchor="middle" x="788" y="-455.5" font-family="Helvetica,sans-Serif" font-size="10.00" fill="#000000">stack</text>
</g>
<!-- Node0&#45;&gt;Node3 -->
<g id="edge3" class="edge">
<title>Node0&#45;&gt;Node3</title>
<path fill="none" stroke="#191970" d="M507.1086,-560.4992C572.6849,-536.57 699.4805,-490.3014 757.5802,-469.1004"/>
<polygon fill="#191970" stroke="#191970" points="759.08,-472.2789 767.2742,-465.563 756.6803,-465.7031 759.08,-472.2789"/>
</g>
<!-- Node4 -->
<g id="node5" class="node">
<title>Node4</title>
<polygon fill="#ffffff" stroke="#bfbfbf" points="950.5,-112.5 950.5,-131.5 993.5,-131.5 993.5,-112.5 950.5,-112.5"/>
<text text-anchor="middle" x="972" y="-119.5" font-family="Helvetica,sans-Serif" font-size="10.00" fill="#000000">string</text>
</g>
<!-- Node0&#45;&gt;Node4 -->
<g id="edge4" class="edge">
<title>Node0&#45;&gt;Node4</title>
<path fill="none" stroke="#191970" d="M540.3674,-569.2727C635.5062,-560.6605 794.6116,-543.9025 850,-524 894.3358,-508.069 913.4079,-506.8885 940,-468 1011.3585,-363.6446 987.3319,-198.2819 976.2672,-141.7233"/>
<polygon fill="#191970" stroke="#191970" points="979.6369,-140.7322 974.2004,-131.6385 972.7795,-142.1376 979.6369,-140.7322"/>
</g>
<!-- Node5 -->
<g id="node6" class="node">
<title>Node5</title>
<polygon fill="#ffffff" stroke="#bfbfbf" points="714,-336.5 714,-355.5 806,-355.5 806,-336.5 714,-336.5"/>
<text text-anchor="middle" x="760" y="-343.5" font-family="Helvetica,sans-Serif" font-size="10.00" fill="#000000">unordered_map</text>
</g>
<!-- Node0&#45;&gt;Node5 -->
<g id="edge5" class="edge">
<title>Node0&#45;&gt;Node5</title>
<path fill="none" stroke="#191970" d="M540.1105,-569.039C656.9347,-557.1415 875.4506,-527.3661 922,-468 961.2036,-418.0023 864.6431,-377.8716 804.2389,-358.5404"/>
<polygon fill="#191970" stroke="#191970" points="805.1052,-355.1443 794.5165,-355.5071 803.0203,-361.8267 805.1052,-355.1443"/>
</g>
<!-- Node6 -->
<g id="node7" class="node">
<title>Node6</title>
<polygon fill="#ffffff" stroke="#bfbfbf" points="827,-448.5 827,-467.5 913,-467.5 913,-448.5 827,-448.5"/>
<text text-anchor="middle" x="870" y="-455.5" font-family="Helvetica,sans-Serif" font-size="10.00" fill="#000000">unordered_set</text>
</g>
<!-- Node0&#45;&gt;Node6 -->
<g id="edge6" class="edge">
<title>Node0&#45;&gt;Node6</title>
<path fill="none" stroke="#191970" d="M519.1956,-560.3988C555.0465,-550.1923 603.3921,-536.3721 646,-524 709.5242,-505.5543 783.0654,-483.8114 828.051,-470.467"/>
<polygon fill="#191970" stroke="#191970" points="829.1601,-473.7888 837.7511,-467.5885 827.1686,-467.0781 829.1601,-473.7888"/>
</g>
<!-- Node7 -->
<g id="node8" class="node">
<title>Node7</title>
<g id="a_node8"><a xlink:href="context_8h.html" target="_top" xlink:title="pdi/context.h">
<polygon fill="#ffffff" stroke="#000000" points="394.5,-504.5 394.5,-523.5 471.5,-523.5 471.5,-504.5 394.5,-504.5"/>
<text text-anchor="middle" x="433" y="-511.5" font-family="Helvetica,sans-Serif" font-size="10.00" fill="#000000">pdi/context.h</text>
</a>
</g>
</g>
<!-- Node0&#45;&gt;Node7 -->
<g id="edge7" class="edge">
<title>Node0&#45;&gt;Node7</title>
<path fill="none" stroke="#191970" d="M457.8427,-560.2977C453.4051,-552.0277 447.875,-541.7215 443.1596,-532.9339"/>
<polygon fill="#191970" stroke="#191970" points="446.096,-531.0037 438.2837,-523.8469 439.9279,-534.3134 446.096,-531.0037"/>
</g>
<!-- Node9 -->
<g id="node10" class="node">
<title>Node9</title>
<g id="a_node10"><a xlink:href="pdi__fwd_8h.html" target="_top" xlink:title="pdi/pdi_fwd.h">
<polygon fill="#ffffff" stroke="#000000" points="469.5,-112.5 469.5,-131.5 548.5,-131.5 548.5,-112.5 469.5,-112.5"/>
<text text-anchor="middle" x="509" y="-119.5" font-family="Helvetica,sans-Serif" font-size="10.00" fill="#000000">pdi/pdi_fwd.h</text>
</a>
</g>
</g>
<!-- Node0&#45;&gt;Node9 -->
<g id="edge52" class="edge">
<title>Node0&#45;&gt;Node9</title>
<path fill="none" stroke="#191970" d="M391.7503,-573.0762C294.1637,-568.6411 129.242,-556.4601 79,-524 49.9945,-505.2603 38,-492.5325 38,-458 38,-458 38,-458 38,-402 38,-207.6558 337.9572,-145.1781 459.1219,-127.8685"/>
<polygon fill="#191970" stroke="#191970" points="459.8225,-131.305 469.2487,-126.468 458.8635,-124.371 459.8225,-131.305"/>
</g>
<!-- Node14 -->
<g id="node15" class="node">
<title>Node14</title>
<g id="a_node15"><a xlink:href="data__descriptor_8h.html" target="_top" xlink:title="pdi/data_descriptor.h">
<polygon fill="#ffffff" stroke="#000000" points="595,-448.5 595,-467.5 711,-467.5 711,-448.5 595,-448.5"/>
<text text-anchor="middle" x="653" y="-455.5" font-family="Helvetica,sans-Serif" font-size="10.00" fill="#000000">pdi/data_descriptor.h</text>
</a>
</g>
</g>
<!-- Node0&#45;&gt;Node14 -->
<g id="edge53" class="edge">
<title>Node0&#45;&gt;Node14</title>
<path fill="none" stroke="#191970" d="M490.0642,-560.3795C525.9228,-537.848 592.9968,-495.7026 628.8849,-473.1525"/>
<polygon fill="#191970" stroke="#191970" points="631.1092,-475.8885 637.7144,-467.6046 627.385,-469.9614 631.1092,-475.8885"/>
</g>
<!-- Node16 -->
<g id="node17" class="node">
<title>Node16</title>
<g id="a_node17"><a xlink:href="logger_8h.html" target="_top" xlink:title="pdi/logger.h">
<polygon fill="#ffffff" stroke="#000000" points="339,-224.5 339,-243.5 411,-243.5 411,-224.5 339,-224.5"/>
<text text-anchor="middle" x="375" y="-231.5" font-family="Helvetica,sans-Serif" font-size="10.00" fill="#000000">pdi/logger.h</text>
</a>
</g>
</g>
<!-- Node0&#45;&gt;Node16 -->
<g id="edge51" class="edge">
<title>Node0&#45;&gt;Node16</title>
<path fill="none" stroke="#191970" d="M391.9326,-562.3445C303.1848,-544.8565 162.6898,-511.0816 133,-468 127.956,-460.6808 129.3482,-456.1041 133,-448 139.0817,-434.5034 299.7796,-297.6732 355.8873,-250.1541"/>
<polygon fill="#191970" stroke="#191970" points="358.2939,-252.7026 363.6662,-243.5708 353.7718,-247.3593 358.2939,-252.7026"/>
</g>
<!-- Node18 -->
<g id="node19" class="node">
<title>Node18</title>
<g id="a_node19"><a xlink:href="ref__any_8h.html" target="_top" xlink:title="pdi/ref_any.h">
<polygon fill="#ffffff" stroke="#000000" points="461,-392.5 461,-411.5 539,-411.5 539,-392.5 461,-392.5"/>
<text text-anchor="middle" x="500" y="-399.5" font-family="Helvetica,sans-Serif" font-size="10.00" fill="#000000">pdi/ref_any.h</text>
</a>
</g>
</g>
<!-- Node0&#45;&gt;Node18 -->
<g id="edge57" class="edge">
<title>Node0&#45;&gt;Node18</title>
<path fill="none" stroke="#191970" d="M470.5809,-560.2778C473.5405,-550.0787 477.3244,-536.3137 480,-524 487.7898,-488.1494 494.0935,-445.7838 497.4228,-421.586"/>
<polygon fill="#191970" stroke="#191970" points="500.9077,-421.9323 498.7749,-411.5544 493.9704,-420.9972 500.9077,-421.9323"/>
</g>
<!-- Node24 -->
<g id="node25" class="node">
<title>Node24</title>
<g id="a_node25"><a xlink:href="plugin_8h.html" target="_top" xlink:title="pdi/plugin.h">
<polygon fill="#ffffff" stroke="#000000" points="218,-280.5 218,-299.5 288,-299.5 288,-280.5 218,-280.5"/>
<text text-anchor="middle" x="253" y="-287.5" font-family="Helvetica,sans-Serif" font-size="10.00" fill="#000000">pdi/plugin.h</text>
</a>
</g>
</g>
<!-- Node0&#45;&gt;Node24 -->
<g id="edge54" class="edge">
<title>Node0&#45;&gt;Node24</title>
<path fill="none" stroke="#191970" d="M391.7971,-569.1541C291.4129,-559.9522 122.2493,-542.0256 100,-524 75.7478,-504.3517 76,-489.2125 76,-458 76,-458 76,-458 76,-402 76,-339.6532 155.3906,-310.5812 207.8318,-298.1787"/>
<polygon fill="#191970" stroke="#191970" points="208.6165,-301.5897 217.6068,-295.9839 207.0829,-294.7597 208.6165,-301.5897"/>
</g>
<!-- Node7&#45;&gt;Node1 -->
<g id="edge9" class="edge">
<title>Node7&#45;&gt;Node1</title>
<path fill="none" stroke="#191970" d="M394.1018,-508.5774C345.1042,-501.3318 258.5402,-487.1492 186,-468 184.5196,-467.6092 183.0059,-467.1801 181.4852,-466.7261"/>
<polygon fill="#191970" stroke="#191970" points="182.2156,-463.2831 171.6233,-463.5141 180.0477,-469.939 182.2156,-463.2831"/>
</g>
<!-- Node7&#45;&gt;Node2 -->
<g id="edge10" class="edge">
<title>Node7&#45;&gt;Node2</title>
<path fill="none" stroke="#191970" d="M394.4147,-509.0531C359.475,-503.2717 307.5689,-491.3516 268,-468 195.9828,-425.499 76,-264.8861 76,-234 76,-234 76,-234 76,-178 76,-145.2688 83.9852,-107.9052 89.6022,-85.6716"/>
<polygon fill="#191970" stroke="#191970" points="93.0415,-86.3545 92.1965,-75.7934 86.2711,-84.5763 93.0415,-86.3545"/>
</g>
<!-- Node7&#45;&gt;Node3 -->
<g id="edge11" class="edge">
<title>Node7&#45;&gt;Node3</title>
<path fill="none" stroke="#191970" d="M471.7192,-510.1481C532.1952,-503.7479 652.5563,-489.4651 753,-468 754.4677,-467.6863 755.9644,-467.3448 757.472,-466.9833"/>
<polygon fill="#191970" stroke="#191970" points="758.5992,-470.3063 767.3887,-464.3906 756.8285,-463.5339 758.5992,-470.3063"/>
</g>
<!-- Node7&#45;&gt;Node4 -->
<g id="edge12" class="edge">
<title>Node7&#45;&gt;Node4</title>
<path fill="none" stroke="#191970" d="M471.5477,-511.8043C527.5404,-507.7323 634.067,-496.6397 720,-468 738.1062,-461.9656 740.0654,-454.5267 758,-448 828.9412,-422.1833 867.1344,-461.6534 924,-412 947.5111,-391.4708 948,-377.2125 948,-346 948,-346 948,-346 948,-234 948,-200.8465 958.1789,-163.3737 965.2788,-141.2684"/>
<polygon fill="#191970" stroke="#191970" points="968.6138,-142.3312 968.4587,-131.7375 961.9736,-140.1157 968.6138,-142.3312"/>
</g>
<!-- Node7&#45;&gt;Node5 -->
<g id="edge13" class="edge">
<title>Node7&#45;&gt;Node5</title>
<path fill="none" stroke="#191970" d="M451.5179,-504.4862C506.1346,-476.4263 666.8093,-393.8778 732.0193,-360.3754"/>
<polygon fill="#191970" stroke="#191970" points="733.9846,-363.3007 741.2799,-355.6177 730.7857,-357.0743 733.9846,-363.3007"/>
</g>
<!-- Node7&#45;&gt;Node6 -->
<g id="edge14" class="edge">
<title>Node7&#45;&gt;Node6</title>
<path fill="none" stroke="#191970" d="M471.6494,-510.3004C539.4624,-503.61 684.4824,-488.4159 816.988,-468.0681"/>
<polygon fill="#191970" stroke="#191970" points="817.5647,-471.5206 826.9109,-466.5308 816.493,-464.6031 817.5647,-471.5206"/>
</g>
<!-- Node8 -->
<g id="node9" class="node">
<title>Node8</title>
<polygon fill="#ffffff" stroke="#bfbfbf" points="294,-336.5 294,-355.5 356,-355.5 356,-336.5 294,-336.5"/>
<text text-anchor="middle" x="325" y="-343.5" font-family="Helvetica,sans-Serif" font-size="10.00" fill="#000000">functional</text>
</g>
<!-- Node7&#45;&gt;Node8 -->
<g id="edge8" class="edge">
<title>Node7&#45;&gt;Node8</title>
<path fill="none" stroke="#191970" d="M426.884,-504.4862C409.5161,-477.4695 359.676,-399.9405 336.7708,-364.3102"/>
<polygon fill="#191970" stroke="#191970" points="339.6697,-362.347 331.3179,-355.8279 333.7814,-366.1324 339.6697,-362.347"/>
</g>
<!-- Node7&#45;&gt;Node9 -->
<g id="edge15" class="edge">
<title>Node7&#45;&gt;Node9</title>
<path fill="none" stroke="#191970" d="M394.3815,-509.0394C364.3933,-503.463 323.2885,-491.8449 295,-468 224.7459,-408.7815 164.8892,-360.6022 209,-280 259.9747,-186.8557 388.0558,-146.5293 459.2769,-130.8325"/>
<polygon fill="#191970" stroke="#191970" points="460.3017,-134.193 469.3564,-128.6919 458.8475,-127.3457 460.3017,-134.193"/>
</g>
<!-- Node7&#45;&gt;Node14 -->
<g id="edge21" class="edge">
<title>Node7&#45;&gt;Node14</title>
<path fill="none" stroke="#191970" d="M470.8193,-504.3733C508.1938,-494.8598 565.4724,-480.2797 605.8071,-470.0127"/>
<polygon fill="#191970" stroke="#191970" points="606.8466,-473.3598 615.6742,-467.5011 605.1198,-466.5761 606.8466,-473.3598"/>
</g>
<!-- Node15 -->
<g id="node16" class="node">
<title>Node15</title>
<g id="a_node16"><a xlink:href="datatype__template_8h.html" target="_top" xlink:title="pdi/datatype_template.h">
<polygon fill="#ffffff" stroke="#000000" points="384,-280.5 384,-299.5 514,-299.5 514,-280.5 384,-280.5"/>
<text text-anchor="middle" x="449" y="-287.5" font-family="Helvetica,sans-Serif" font-size="10.00" fill="#000000">pdi/datatype_template.h</text>
</a>
</g>
</g>
<!-- Node7&#45;&gt;Node15 -->
<g id="edge48" class="edge">
<title>Node7&#45;&gt;Node15</title>
<path fill="none" stroke="#191970" d="M413.6518,-504.4099C363.1447,-478.1238 234.6202,-402.455 285,-336 296.5204,-320.8037 338.0594,-309.2436 376.4457,-301.513"/>
<polygon fill="#191970" stroke="#191970" points="377.4887,-304.8759 386.6373,-299.5324 376.1533,-298.0044 377.4887,-304.8759"/>
</g>
<!-- Node7&#45;&gt;Node16 -->
<g id="edge50" class="edge">
<title>Node7&#45;&gt;Node16</title>
<path fill="none" stroke="#191970" d="M399.0979,-504.4801C376.1761,-496.9734 346.009,-484.9289 323,-468 296.8276,-448.7436 288.1963,-442.1173 276,-412 263.304,-380.6486 255.557,-365.5589 272,-336 286.7489,-309.4865 308.0912,-320.988 330,-300 344.4835,-286.1252 356.9645,-266.8628 365.083,-252.7285"/>
<polygon fill="#191970" stroke="#191970" points="368.194,-254.3353 369.9776,-243.8916 362.0706,-250.9436 368.194,-254.3353"/>
</g>
<!-- Node7&#45;&gt;Node18 -->
<g id="edge49" class="edge">
<title>Node7&#45;&gt;Node18</title>
<path fill="none" stroke="#191970" d="M438.7124,-504.4509C449.8377,-485.8533 474.5808,-444.4919 488.995,-420.3964"/>
<polygon fill="#191970" stroke="#191970" points="492.1719,-421.9034 494.3021,-411.5249 486.1648,-418.3098 492.1719,-421.9034"/>
</g>
<!-- Node9&#45;&gt;Node2 -->
<g id="edge16" class="edge">
<title>Node9&#45;&gt;Node2</title>
<path fill="none" stroke="#191970" d="M469.3039,-116.6305C389.4739,-105.8322 210.4886,-81.6216 132.5083,-71.0736"/>
<polygon fill="#191970" stroke="#191970" points="132.5751,-67.5508 122.1962,-69.6787 131.6368,-74.4877 132.5751,-67.5508"/>
</g>
<!-- Node10 -->
<g id="node11" class="node">
<title>Node10</title>
<g id="a_node11"><a xlink:href="pdi_8h.html" target="_top" xlink:title="pdi.h">
<polygon fill="#ffffff" stroke="#000000" points="575.5,-56.5 575.5,-75.5 614.5,-75.5 614.5,-56.5 575.5,-56.5"/>
<text text-anchor="middle" x="595" y="-63.5" font-family="Helvetica,sans-Serif" font-size="10.00" fill="#000000">pdi.h</text>
</a>
</g>
</g>
<!-- Node9&#45;&gt;Node10 -->
<g id="edge17" class="edge">
<title>Node9&#45;&gt;Node10</title>
<path fill="none" stroke="#191970" d="M523.9801,-112.2455C537.1751,-103.6534 556.6051,-91.0014 571.8079,-81.1018"/>
<polygon fill="#191970" stroke="#191970" points="573.7215,-84.0325 580.1916,-75.6427 569.9017,-78.1665 573.7215,-84.0325"/>
</g>
<!-- Node11 -->
<g id="node12" class="node">
<title>Node11</title>
<polygon fill="#ffffff" stroke="#bfbfbf" points="770.5,-.5 770.5,-19.5 837.5,-19.5 837.5,-.5 770.5,-.5"/>
<text text-anchor="middle" x="804" y="-7.5" font-family="Helvetica,sans-Serif" font-size="10.00" fill="#000000">paraconf.h</text>
</g>
<!-- Node10&#45;&gt;Node11 -->
<g id="edge18" class="edge">
<title>Node10&#45;&gt;Node11</title>
<path fill="none" stroke="#191970" d="M614.6622,-60.7317C647.8218,-51.8468 715.6237,-33.6798 760.4401,-21.6716"/>
<polygon fill="#191970" stroke="#191970" points="761.4358,-25.0283 770.1892,-19.0594 759.624,-18.2668 761.4358,-25.0283"/>
</g>
<!-- Node12 -->
<g id="node13" class="node">
<title>Node12</title>
<polygon fill="#ffffff" stroke="#bfbfbf" points="513,-.5 513,-19.5 585,-19.5 585,-.5 513,-.5"/>
<text text-anchor="middle" x="549" y="-7.5" font-family="Helvetica,sans-Serif" font-size="10.00" fill="#000000">pdi/export.h</text>
</g>
<!-- Node10&#45;&gt;Node12 -->
<g id="edge19" class="edge">
<title>Node10&#45;&gt;Node12</title>
<path fill="none" stroke="#191970" d="M586.9874,-56.2455C580.5232,-48.3761 571.2615,-37.101 563.5017,-27.6542"/>
<polygon fill="#191970" stroke="#191970" points="565.9727,-25.1484 556.9208,-19.6427 560.5636,-29.5916 565.9727,-25.1484"/>
</g>
<!-- Node13 -->
<g id="node14" class="node">
<title>Node13</title>
<polygon fill="#ffffff" stroke="#bfbfbf" points="603.5,-.5 603.5,-19.5 680.5,-19.5 680.5,-.5 603.5,-.5"/>
<text text-anchor="middle" x="642" y="-7.5" font-family="Helvetica,sans-Serif" font-size="10.00" fill="#000000">pdi/version.h</text>
</g>
<!-- Node10&#45;&gt;Node13 -->
<g id="edge20" class="edge">
<title>Node10&#45;&gt;Node13</title>
<path fill="none" stroke="#191970" d="M603.1868,-56.2455C609.8589,-48.2958 619.4479,-36.8706 627.4253,-27.3656"/>
<polygon fill="#191970" stroke="#191970" points="630.1592,-29.5525 633.907,-19.6427 624.7974,-25.0524 630.1592,-29.5525"/>
</g>
<!-- Node14&#45;&gt;Node9 -->
<g id="edge23" class="edge">
<title>Node14&#45;&gt;Node9</title>
<path fill="none" stroke="#191970" d="M699.8883,-448.4349C739.0018,-439.6689 790.8565,-425.9657 807,-412 833.9988,-388.6433 849.7285,-367.5377 833,-336 800.4258,-274.5889 610.0501,-173.2335 537.2726,-136.1519"/>
<polygon fill="#191970" stroke="#191970" points="538.7079,-132.9555 528.206,-131.5554 535.5426,-139.199 538.7079,-132.9555"/>
</g>
<!-- Node14&#45;&gt;Node11 -->
<g id="edge22" class="edge">
<title>Node14&#45;&gt;Node11</title>
<path fill="none" stroke="#191970" d="M703.7873,-448.4227C748.3388,-439.373 809.1697,-425.2467 830,-412 943.9954,-339.5064 1024,-313.0936 1024,-178 1024,-178 1024,-178 1024,-122 1024,-43.847 912.3785,-20.2052 848.1514,-13.0705"/>
<polygon fill="#191970" stroke="#191970" points="848.196,-9.557 837.8929,-12.0259 847.4868,-16.521 848.196,-9.557"/>
</g>
<!-- Node14&#45;&gt;Node15 -->
<g id="edge24" class="edge">
<title>Node14&#45;&gt;Node15</title>
<path fill="none" stroke="#191970" d="M686.6977,-448.4425C746.2354,-429.9717 859.7209,-386.6934 815,-336 796.1072,-314.5841 625.8518,-300.6795 524.3371,-294.2162"/>
<polygon fill="#191970" stroke="#191970" points="524.3295,-290.709 514.1302,-293.5766 523.8917,-297.6953 524.3295,-290.709"/>
</g>
<!-- Node14&#45;&gt;Node18 -->
<g id="edge33" class="edge">
<title>Node14&#45;&gt;Node18</title>
<path fill="none" stroke="#191970" d="M626.6984,-448.3733C601.5872,-439.1822 563.5562,-425.2624 535.7128,-415.0713"/>
<polygon fill="#191970" stroke="#191970" points="536.5522,-411.6516 525.9584,-411.5011 534.1462,-418.2251 536.5522,-411.6516"/>
</g>
<!-- Node15&#45;&gt;Node9 -->
<g id="edge26" class="edge">
<title>Node15&#45;&gt;Node9</title>
<path fill="none" stroke="#191970" d="M452.3978,-280.4862C461.9234,-253.8144 489.0315,-177.9117 501.9661,-141.695"/>
<polygon fill="#191970" stroke="#191970" points="505.4227,-142.4225 505.49,-131.8279 498.8305,-140.0681 505.4227,-142.4225"/>
</g>
<!-- Node15&#45;&gt;Node11 -->
<g id="edge25" class="edge">
<title>Node15&#45;&gt;Node11</title>
<path fill="none" stroke="#191970" d="M506.0028,-280.4604C592.1687,-264.8166 749.345,-231.095 785,-188 822.7197,-142.4096 814.8425,-66.1754 808.3278,-30.0963"/>
<polygon fill="#191970" stroke="#191970" points="811.6833,-29.0201 806.3201,-19.883 804.8148,-30.3704 811.6833,-29.0201"/>
</g>
<!-- Node15&#45;&gt;Node16 -->
<g id="edge27" class="edge">
<title>Node15&#45;&gt;Node16</title>
<path fill="none" stroke="#191970" d="M436.1102,-280.2455C425.0746,-271.8943 408.9708,-259.7076 396.0647,-249.9408"/>
<polygon fill="#191970" stroke="#191970" points="397.8283,-246.8862 387.7421,-243.6427 393.6041,-252.4681 397.8283,-246.8862"/>
</g>
<!-- Node16&#45;&gt;Node9 -->
<g id="edge28" class="edge">
<title>Node16&#45;&gt;Node9</title>
<path fill="none" stroke="#191970" d="M386.4248,-224.4509C409.3677,-205.2747 461.267,-161.8962 489.6193,-138.1988"/>
<polygon fill="#191970" stroke="#191970" points="492.1759,-140.6235 497.6042,-131.5249 487.6867,-135.2525 492.1759,-140.6235"/>
</g>
<!-- Node17 -->
<g id="node18" class="node">
<title>Node17</title>
<g id="a_node18"><a xlink:href="paraconf__wrapper_8h.html" target="_top" xlink:title="pdi/paraconf_wrapper.h">
<polygon fill="#ffffff" stroke="#000000" points="646.5,-168.5 646.5,-187.5 775.5,-187.5 775.5,-168.5 646.5,-168.5"/>
<text text-anchor="middle" x="711" y="-175.5" font-family="Helvetica,sans-Serif" font-size="10.00" fill="#000000">pdi/paraconf_wrapper.h</text>
</a>
</g>
</g>
<!-- Node16&#45;&gt;Node17 -->
<g id="edge29" class="edge">
<title>Node16&#45;&gt;Node17</title>
<path fill="none" stroke="#191970" d="M411.2771,-227.9538C466.834,-218.6943 573.8948,-200.8509 643.8741,-189.1876"/>
<polygon fill="#191970" stroke="#191970" points="644.6308,-192.6099 653.9193,-187.5134 643.48,-185.7051 644.6308,-192.6099"/>
</g>
<!-- Node17&#45;&gt;Node4 -->
<g id="edge30" class="edge">
<title>Node17&#45;&gt;Node4</title>
<path fill="none" stroke="#191970" d="M768.1255,-168.455C812.6327,-160.5912 876.1098,-148.4442 940.4928,-131.896"/>
<polygon fill="#191970" stroke="#191970" points="941.6175,-135.2199 950.4127,-129.3127 939.8534,-128.4458 941.6175,-135.2199"/>
</g>
<!-- Node17&#45;&gt;Node9 -->
<g id="edge32" class="edge">
<title>Node17&#45;&gt;Node9</title>
<path fill="none" stroke="#191970" d="M676.275,-168.3733C642.2492,-158.9404 590.2563,-144.5265 553.2766,-134.2747"/>
<polygon fill="#191970" stroke="#191970" points="553.8435,-130.7999 543.2719,-131.5011 551.9734,-137.5455 553.8435,-130.7999"/>
</g>
<!-- Node17&#45;&gt;Node11 -->
<g id="edge31" class="edge">
<title>Node17&#45;&gt;Node11</title>
<path fill="none" stroke="#191970" d="M716.2665,-168.4862C731.1586,-141.5845 773.7753,-64.5994 793.611,-28.7673"/>
<polygon fill="#191970" stroke="#191970" points="796.7785,-30.272 798.5596,-19.8279 790.6542,-26.8817 796.7785,-30.272"/>
</g>
<!-- Node18&#45;&gt;Node2 -->
<g id="edge36" class="edge">
<title>Node18&#45;&gt;Node2</title>
<path fill="none" stroke="#191970" d="M479.0647,-392.3787C459.3367,-383.24 429.0056,-369.0028 403,-356 385.9296,-347.4648 382.891,-342.6453 365,-336 298.2971,-311.2244 264.6791,-344.3052 209,-300 137.9359,-243.4526 108.1915,-131.4793 98.6874,-85.9515"/>
<polygon fill="#191970" stroke="#191970" points="102.0695,-85.0124 96.6943,-75.8824 95.2027,-86.3717 102.0695,-85.0124"/>
</g>
<!-- Node18&#45;&gt;Node5 -->
<g id="edge38" class="edge">
<title>Node18&#45;&gt;Node5</title>
<path fill="none" stroke="#191970" d="M539.2061,-393.5556C583.5341,-384.008 655.9933,-368.4014 705.7362,-357.6876"/>
<polygon fill="#191970" stroke="#191970" points="706.6382,-361.0737 715.677,-355.5465 705.1642,-354.2306 706.6382,-361.0737"/>
</g>
<!-- Node18&#45;&gt;Node8 -->
<g id="edge35" class="edge">
<title>Node18&#45;&gt;Node8</title>
<path fill="none" stroke="#191970" d="M469.9164,-392.3733C440.8166,-383.0613 396.5477,-368.8953 364.597,-358.671"/>
<polygon fill="#191970" stroke="#191970" points="365.282,-355.2155 354.691,-355.5011 363.1485,-361.8824 365.282,-355.2155"/>
</g>
<!-- Node18&#45;&gt;Node9 -->
<g id="edge39" class="edge">
<title>Node18&#45;&gt;Node9</title>
<path fill="none" stroke="#191970" d="M539.1345,-393.1597C572.7695,-384.6752 617.4728,-370.9696 628,-356 681.188,-280.3672 575.3423,-177.6532 529.12,-138.2786"/>
<polygon fill="#191970" stroke="#191970" points="531.1513,-135.4148 521.2349,-131.6844 526.6606,-140.7845 531.1513,-135.4148"/>
</g>
<!-- Node19 -->
<g id="node20" class="node">
<title>Node19</title>
<polygon fill="#ffffff" stroke="#bfbfbf" points="412.5,-336.5 412.5,-355.5 463.5,-355.5 463.5,-336.5 412.5,-336.5"/>
<text text-anchor="middle" x="438" y="-343.5" font-family="Helvetica,sans-Serif" font-size="10.00" fill="#000000">cassert</text>
</g>
<!-- Node18&#45;&gt;Node19 -->
<g id="edge34" class="edge">
<title>Node18&#45;&gt;Node19</title>
<path fill="none" stroke="#191970" d="M489.2004,-392.2455C480.1322,-384.0549 466.9794,-372.1749 456.2755,-362.5069"/>
<polygon fill="#191970" stroke="#191970" points="458.4429,-359.7482 448.6758,-355.6427 453.7509,-364.9429 458.4429,-359.7482"/>
</g>
<!-- Node20 -->
<g id="node21" class="node">
<title>Node20</title>
<polygon fill="#ffffff" stroke="#bfbfbf" points="482,-336.5 482,-355.5 518,-355.5 518,-336.5 482,-336.5"/>
<text text-anchor="middle" x="500" y="-343.5" font-family="Helvetica,sans-Serif" font-size="10.00" fill="#000000">new</text>
</g>
<!-- Node18&#45;&gt;Node20 -->
<g id="edge37" class="edge">
<title>Node18&#45;&gt;Node20</title>
<path fill="none" stroke="#191970" d="M500,-392.2455C500,-384.9382 500,-374.6944 500,-365.7046"/>
<polygon fill="#191970" stroke="#191970" points="503.5001,-365.6426 500,-355.6427 496.5001,-365.6427 503.5001,-365.6426"/>
</g>
<!-- Node21 -->
<g id="node22" class="node">
<title>Node21</title>
<g id="a_node22"><a xlink:href="datatype_8h.html" target="_top" xlink:title="pdi/datatype.h">
<polygon fill="#ffffff" stroke="#000000" points="536.5,-336.5 536.5,-355.5 619.5,-355.5 619.5,-336.5 536.5,-336.5"/>
<text text-anchor="middle" x="578" y="-343.5" font-family="Helvetica,sans-Serif" font-size="10.00" fill="#000000">pdi/datatype.h</text>
</a>
</g>
</g>
<!-- Node18&#45;&gt;Node21 -->
<g id="edge40" class="edge">
<title>Node18&#45;&gt;Node21</title>
<path fill="none" stroke="#191970" d="M513.5866,-392.2455C525.3305,-383.814 542.5199,-371.4729 556.1882,-361.6598"/>
<polygon fill="#191970" stroke="#191970" points="558.4871,-364.3179 564.5691,-355.6427 554.4046,-358.6316 558.4871,-364.3179"/>
</g>
<!-- Node22 -->
<g id="node23" class="node">
<title>Node22</title>
<g id="a_node23"><a xlink:href="error_8h.html" target="_top" xlink:title="pdi/error.h">
<polygon fill="#ffffff" stroke="#000000" points="832.5,-168.5 832.5,-187.5 897.5,-187.5 897.5,-168.5 832.5,-168.5"/>
<text text-anchor="middle" x="865" y="-175.5" font-family="Helvetica,sans-Serif" font-size="10.00" fill="#000000">pdi/error.h</text>
</a>
</g>
</g>
<!-- Node18&#45;&gt;Node22 -->
<g id="edge43" class="edge">
<title>Node18&#45;&gt;Node22</title>
<path fill="none" stroke="#191970" d="M539.1581,-395.9084C573.1715,-389.4729 622.9635,-377.2382 662,-356 742.8094,-312.0348 819.0293,-230.8592 850.1995,-195.3704"/>
<polygon fill="#191970" stroke="#191970" points="852.8946,-197.6048 856.8066,-187.7587 847.6083,-193.0162 852.8946,-197.6048"/>
</g>
<!-- Node21&#45;&gt;Node9 -->
<g id="edge41" class="edge">
<title>Node21&#45;&gt;Node9</title>
<path fill="none" stroke="#191970" d="M575.0352,-336.375C564.5516,-302.3415 529.103,-187.262 514.9288,-141.247"/>
<polygon fill="#191970" stroke="#191970" points="518.2426,-140.1156 511.9538,-131.5891 511.5528,-142.1764 518.2426,-140.1156"/>
</g>
<!-- Node21&#45;&gt;Node15 -->
<g id="edge42" class="edge">
<title>Node21&#45;&gt;Node15</title>
<path fill="none" stroke="#191970" d="M555.8241,-336.3733C535.0234,-327.3435 503.7083,-313.7494 480.3542,-303.6111"/>
<polygon fill="#191970" stroke="#191970" points="481.4532,-300.2727 470.8865,-299.5011 478.6657,-306.6938 481.4532,-300.2727"/>
</g>
<!-- Node22&#45;&gt;Node4 -->
<g id="edge45" class="edge">
<title>Node22&#45;&gt;Node4</title>
<path fill="none" stroke="#191970" d="M883.638,-168.2455C900.4386,-159.4527 925.3634,-146.4079 944.4618,-136.4125"/>
<polygon fill="#191970" stroke="#191970" points="946.3386,-139.3807 953.5756,-131.6427 943.0927,-133.1787 946.3386,-139.3807"/>
</g>
<!-- Node22&#45;&gt;Node9 -->
<g id="edge47" class="edge">
<title>Node22&#45;&gt;Node9</title>
<path fill="none" stroke="#191970" d="M832.4636,-172.8819C769.9223,-163.044 632.5809,-141.4397 558.575,-129.7983"/>
<polygon fill="#191970" stroke="#191970" points="558.9896,-126.3206 548.5672,-128.2241 557.9018,-133.2355 558.9896,-126.3206"/>
</g>
<!-- Node22&#45;&gt;Node11 -->
<g id="edge46" class="edge">
<title>Node22&#45;&gt;Node11</title>
<path fill="none" stroke="#191970" d="M861.5456,-168.4862C851.8194,-141.6994 824.0634,-65.2565 810.9819,-29.2289"/>
<polygon fill="#191970" stroke="#191970" points="814.2713,-28.0329 807.5685,-19.8279 807.6916,-30.422 814.2713,-28.0329"/>
</g>
<!-- Node23 -->
<g id="node24" class="node">
<title>Node23</title>
<polygon fill="#ffffff" stroke="#bfbfbf" points="870,-112.5 870,-131.5 932,-131.5 932,-112.5 870,-112.5"/>
<text text-anchor="middle" x="901" y="-119.5" font-family="Helvetica,sans-Serif" font-size="10.00" fill="#000000">exception</text>
</g>
<!-- Node22&#45;&gt;Node23 -->
<g id="edge44" class="edge">
<title>Node22&#45;&gt;Node23</title>
<path fill="none" stroke="#191970" d="M871.2707,-168.2455C876.2264,-160.5367 883.283,-149.5598 889.2776,-140.2348"/>
<polygon fill="#191970" stroke="#191970" points="892.3376,-141.9471 894.8011,-131.6427 886.4494,-138.1618 892.3376,-141.9471"/>
</g>
<!-- Node24&#45;&gt;Node9 -->
<g id="edge56" class="edge">
<title>Node24&#45;&gt;Node9</title>
<path fill="none" stroke="#191970" d="M262.9511,-280.3761C277.1561,-266.9002 304.3713,-242.038 330,-224 380.4782,-188.4725 444.2459,-154.4911 480.4452,-136.1169"/>
<polygon fill="#191970" stroke="#191970" points="482.1043,-139.2001 489.4601,-131.5749 478.9547,-132.9487 482.1043,-139.2001"/>
</g>
<!-- Node24&#45;&gt;Node16 -->
<g id="edge55" class="edge">
<title>Node24&#45;&gt;Node16</title>
<path fill="none" stroke="#191970" d="M273.9725,-280.3733C293.5567,-271.3838 322.9961,-257.8706 345.051,-247.7471"/>
<polygon fill="#191970" stroke="#191970" points="346.6729,-250.8538 354.3011,-243.5011 343.7527,-244.4919 346.6729,-250.8538"/>
</g>
</g>
</svg>
        <g id="navigator" transform="translate(0 0)" fill="#404254">
                <rect fill="#f2f5e9" fill-opacity="0.5" stroke="#606060" stroke-width=".5" x="0" y="0" width="60" height="60"/>
                <use id="zoomplus" xlink:href="#zoomPlus" x="17" y="9" onmousedown="handleZoom(evt,'in')"/>
                <use id="zoomminus" xlink:href="#zoomMin" x="42" y="9" onmousedown="handleZoom(evt,'out')"/>
                <use id="reset" xlink:href="#resetDef" x="30" y="36" onmousedown="handleReset()"/>
                <g id="arrowUp" xlink:href="#dirArrow" transform="translate(30 24)" onmousedown="handlePan(0,-1)">
                  <use xlink:href="#rim" fill="#404040">
                        <set attributeName="fill" to="#808080" begin="arrowUp.mouseover" end="arrowUp.mouseout"/>
                  </use>
                  <path fill="none" stroke="white" stroke-width="1.5" d="M0,-3.0v7 M-2.5,-0.5L0,-3.0L2.5,-0.5"/>
                </g>
                <g id="arrowRight" xlink:href="#dirArrow" transform="rotate(90) translate(36 -43)" onmousedown="handlePan(1,0)">
                  <use xlink:href="#rim" fill="#404040">
                        <set attributeName="fill" to="#808080" begin="arrowRight.mouseover" end="arrowRight.mouseout"/>
                  </use>
                  <path fill="none" stroke="white" stroke-width="1.5" d="M0,-3.0v7 M-2.5,-0.5L0,-3.0L2.5,-0.5"/>
                </g>
                <g id="arrowDown" xlink:href="#dirArrow" transform="rotate(180) translate(-30 -48)" onmousedown="handlePan(0,1)">
                  <use xlink:href="#rim" fill="#404040">
                        <set attributeName="fill" to="#808080" begin="arrowDown.mouseover" end="arrowDown.mouseout"/>
                  </use>
                  <path fill="none" stroke="white" stroke-width="1.5" d="M0,-3.0v7 M-2.5,-0.5L0,-3.0L2.5,-0.5"/>
                </g>
                <g id="arrowLeft" xlink:href="#dirArrow" transform="rotate(270) translate(-36 17)" onmousedown="handlePan(-1,0)">
                  <use xlink:href="#rim" fill="#404040">
                        <set attributeName="fill" to="#808080" begin="arrowLeft.mouseover" end="arrowLeft.mouseout"/>
                  </use>
                  <path fill="none" stroke="white" stroke-width="1.5" d="M0,-3.0v7 M-2.5,-0.5L0,-3.0L2.5,-0.5"/>
                </g>
        </g>
        <svg viewBox="0 0 15 15" width="100%" height="30px" preserveAspectRatio="xMaxYMin meet">
         <g id="arrow_out" transform="scale(0.3 0.3)">
          <a xlink:href="global__context_8h__incl_org.svg" target="_base">
           <rect id="button" ry="5" rx="5" y="6" x="6" height="38" width="38"
                fill="#f2f5e9" fill-opacity="0.5" stroke="#606060" stroke-width="1.0"/>
           <path id="arrow"
             d="M 11.500037,31.436501 C 11.940474,20.09759 22.043105,11.32322 32.158766,21.979434 L 37.068811,17.246167 C 37.068811,17.246167 37.088388,32 37.088388,32 L 22.160133,31.978069 C 22.160133,31.978069 26.997745,27.140456 26.997745,27.140456 C 18.528582,18.264221 13.291696,25.230495 11.500037,31.436501 z"
             style="fill:#404040;"/>
          </a>
         </g>
        </svg>
</svg>
