<?xml version="1.0" encoding="UTF-8" standalone="no"?>
<!DOCTYPE svg PUBLIC "-//W3C//DTD SVG 1.1//EN"
 "http://www.w3.org/Graphics/SVG/1.1/DTD/svg11.dtd">
<!-- Generated by graphviz version 2.40.1 (20161225.0304)
 -->
<!-- Title: /home/jbigot/data/projects/pdi/pdi/src/global_context.h Pages: 1 -->
<svg width="575pt" height="184pt"
 viewBox="0.00 0.00 574.50 184.00" xmlns="http://www.w3.org/2000/svg" xmlns:xlink="http://www.w3.org/1999/xlink">
<g id="graph0" class="graph" transform="scale(1 1) rotate(0) translate(4 180)">
<title>/home/jbigot/data/projects/pdi/pdi/src/global_context.h</title>
<polygon fill="#ffffff" stroke="transparent" points="-4,4 -4,-180 570.5,-180 570.5,4 -4,4"/>
<!-- Node25 -->
<g id="node1" class="node">
<title>Node25</title>
<polygon fill="#bfbfbf" stroke="#000000" points="217,-145.5 217,-175.5 365,-175.5 365,-145.5 217,-145.5"/>
<text text-anchor="start" x="225" y="-163.5" font-family="Helvetica,sans-Serif" font-size="10.00" fill="#000000">/home/jbigot/data/projects</text>
<text text-anchor="middle" x="291" y="-152.5" font-family="Helvetica,sans-Serif" font-size="10.00" fill="#000000">/pdi/pdi/src/global_context.h</text>
</g>
<!-- Node26 -->
<g id="node2" class="node">
<title>Node26</title>
<g id="a_node2"><a xlink:href="data__descriptor__impl_8h.html" target="_top" xlink:title="/home/jbigot/data/projects\l/pdi/pdi/src/data_descriptor_impl.h">
<polygon fill="#ffffff" stroke="#000000" points="35.5,-78.5 35.5,-108.5 214.5,-108.5 214.5,-78.5 35.5,-78.5"/>
<text text-anchor="start" x="43.5" y="-96.5" font-family="Helvetica,sans-Serif" font-size="10.00" fill="#000000">/home/jbigot/data/projects</text>
<text text-anchor="middle" x="125" y="-85.5" font-family="Helvetica,sans-Serif" font-size="10.00" fill="#000000">/pdi/pdi/src/data_descriptor_impl.h</text>
</a>
</g>
</g>
<!-- Node25&#45;&gt;Node26 -->
<g id="edge1" class="edge">
<title>Node25&#45;&gt;Node26</title>
<path fill="none" stroke="#191970" d="M244.1475,-141.5897C218.2865,-131.1518 186.6069,-118.3654 162.4161,-108.6017"/>
<polygon fill="#191970" stroke="#191970" points="243.1632,-144.9667 253.7464,-145.4639 245.7832,-138.4754 243.1632,-144.9667"/>
</g>
<!-- Node28 -->
<g id="node4" class="node">
<title>Node28</title>
<g id="a_node4"><a xlink:href="global__context_8cxx.html" target="_top" xlink:title="/home/jbigot/data/projects\l/pdi/pdi/src/global_context.cxx">
<polygon fill="#ffffff" stroke="#000000" points="164,-6 164,-36 322,-36 322,-6 164,-6"/>
<text text-anchor="start" x="172" y="-24" font-family="Helvetica,sans-Serif" font-size="10.00" fill="#000000">/home/jbigot/data/projects</text>
<text text-anchor="middle" x="243" y="-13" font-family="Helvetica,sans-Serif" font-size="10.00" fill="#000000">/pdi/pdi/src/global_context.cxx</text>
</a>
</g>
</g>
<!-- Node25&#45;&gt;Node28 -->
<g id="edge4" class="edge">
<title>Node25&#45;&gt;Node28</title>
<path fill="none" stroke="#191970" d="M275.6345,-136.7117C270.6966,-128.2329 265.5831,-118.4404 262,-109 252.627,-84.3045 247.349,-53.8638 244.8441,-36.0259"/>
<polygon fill="#191970" stroke="#191970" points="272.671,-138.5748 280.8431,-145.3178 278.6596,-134.9504 272.671,-138.5748"/>
</g>
<!-- Node29 -->
<g id="node5" class="node">
<title>Node29</title>
<g id="a_node5"><a xlink:href="pdi_8cxx.html" target="_top" xlink:title="/home/jbigot/data/projects\l/pdi/pdi/src/pdi.cxx">
<polygon fill="#ffffff" stroke="#000000" points="271,-78.5 271,-108.5 409,-108.5 409,-78.5 271,-78.5"/>
<text text-anchor="start" x="279" y="-96.5" font-family="Helvetica,sans-Serif" font-size="10.00" fill="#000000">/home/jbigot/data/projects</text>
<text text-anchor="middle" x="340" y="-85.5" font-family="Helvetica,sans-Serif" font-size="10.00" fill="#000000">/pdi/pdi/src/pdi.cxx</text>
</a>
</g>
</g>
<!-- Node25&#45;&gt;Node29 -->
<g id="edge5" class="edge">
<title>Node25&#45;&gt;Node29</title>
<path fill="none" stroke="#191970" d="M308.1408,-137.0626C315.0381,-127.6315 322.7932,-117.0276 328.9251,-108.6432"/>
<polygon fill="#191970" stroke="#191970" points="305.197,-135.1588 302.1189,-145.2967 310.8472,-139.2911 305.197,-135.1588"/>
</g>
<!-- Node30 -->
<g id="node6" class="node">
<title>Node30</title>
<g id="a_node6"><a xlink:href="python_2pdi_8cxx.html" target="_top" xlink:title="/home/jbigot/data/projects\l/pdi/pdi/src/python/pdi.cxx">
<polygon fill="#ffffff" stroke="#000000" points="427.5,-78.5 427.5,-108.5 566.5,-108.5 566.5,-78.5 427.5,-78.5"/>
<text text-anchor="start" x="435.5" y="-96.5" font-family="Helvetica,sans-Serif" font-size="10.00" fill="#000000">/home/jbigot/data/projects</text>
<text text-anchor="middle" x="497" y="-85.5" font-family="Helvetica,sans-Serif" font-size="10.00" fill="#000000">/pdi/pdi/src/python/pdi.cxx</text>
</a>
</g>
</g>
<!-- Node25&#45;&gt;Node30 -->
<g id="edge6" class="edge">
<title>Node25&#45;&gt;Node30</title>
<path fill="none" stroke="#191970" d="M347.0323,-142.2759C379.4985,-131.7165 419.8869,-118.5805 450.5679,-108.6017"/>
<polygon fill="#191970" stroke="#191970" points="345.6575,-139.0425 337.2304,-145.4639 347.8226,-145.6993 345.6575,-139.0425"/>
</g>
<!-- Node27 -->
<g id="node3" class="node">
<title>Node27</title>
<g id="a_node3"><a xlink:href="data__descriptor__impl_8cxx.html" target="_top" xlink:title="/home/jbigot/data/projects\l/pdi/pdi/src/data_descriptor\l_impl.cxx">
<polygon fill="#ffffff" stroke="#000000" points="0,-.5 0,-41.5 146,-41.5 146,-.5 0,-.5"/>
<text text-anchor="start" x="8" y="-29.5" font-family="Helvetica,sans-Serif" font-size="10.00" fill="#000000">/home/jbigot/data/projects</text>
<text text-anchor="start" x="8" y="-18.5" font-family="Helvetica,sans-Serif" font-size="10.00" fill="#000000">/pdi/pdi/src/data_descriptor</text>
<text text-anchor="middle" x="73" y="-7.5" font-family="Helvetica,sans-Serif" font-size="10.00" fill="#000000">_impl.cxx</text>
</a>
</g>
</g>
<!-- Node26&#45;&gt;Node27 -->
<g id="edge2" class="edge">
<title>Node26&#45;&gt;Node27</title>
<path fill="none" stroke="#191970" d="M108.2351,-70.1258C101.6247,-60.9094 94.0989,-50.4167 87.7045,-41.5015"/>
<polygon fill="#191970" stroke="#191970" points="105.5532,-72.3919 114.2256,-78.478 111.2413,-68.3121 105.5532,-72.3919"/>
</g>
<!-- Node26&#45;&gt;Node28 -->
<g id="edge3" class="edge">
<title>Node26&#45;&gt;Node28</title>
<path fill="none" stroke="#191970" d="M158.1834,-73.1119C177.375,-61.3205 201.1062,-46.7398 218.5816,-36.0028"/>
<polygon fill="#191970" stroke="#191970" points="156.1377,-70.2609 149.4497,-78.478 159.8022,-76.2251 156.1377,-70.2609"/>
</g>
</g>
</svg>
