<?xml version="1.0" encoding="UTF-8" standalone="no"?>
<!DOCTYPE svg PUBLIC "-//W3C//DTD SVG 1.1//EN"
 "http://www.w3.org/Graphics/SVG/1.1/DTD/svg11.dtd">
<!-- Generated by graphviz version 2.40.1 (20161225.0304)
 -->
<!-- Title: Graphical Class Hierarchy Pages: 1 -->
<svg width="409pt" height="104pt"
 viewBox="0.00 0.00 409.00 104.00" xmlns="http://www.w3.org/2000/svg" xmlns:xlink="http://www.w3.org/1999/xlink">
<g id="graph0" class="graph" transform="scale(1 1) rotate(0) translate(4 100)">
<title>Graphical Class Hierarchy</title>
<polygon fill="#ffffff" stroke="transparent" points="-4,4 -4,-100 405,-100 405,4 -4,4"/>
<!-- Node0 -->
<g id="node1" class="node">
<title>Node0</title>
<g id="a_node1"><a xlink:href="classPDI_1_1Datatype__template.html" target="_top" xlink:title="PDI::Datatype_template">
<polygon fill="#ffffff" stroke="#000000" points="0,-38.5 0,-57.5 128,-57.5 128,-38.5 0,-38.5"/>
<text text-anchor="middle" x="64" y="-45.5" font-family="Helvetica,sans-Serif" font-size="10.00" fill="#000000">PDI::Datatype_template</text>
</a>
</g>
</g>
<!-- Node1 -->
<g id="node2" class="node">
<title>Node1</title>
<g id="a_node2"><a xlink:href="classPDI_1_1Datatype.html" target="_top" xlink:title="PDI::Datatype">
<polygon fill="#ffffff" stroke="#000000" points="164,-38.5 164,-57.5 245,-57.5 245,-38.5 164,-38.5"/>
<text text-anchor="middle" x="204.5" y="-45.5" font-family="Helvetica,sans-Serif" font-size="10.00" fill="#000000">PDI::Datatype</text>
</a>
</g>
</g>
<!-- Node0&#45;&gt;Node1 -->
<g id="edge1" class="edge">
<title>Node0&#45;&gt;Node1</title>
<path fill="none" stroke="#191970" d="M138.3679,-48C147.1238,-48 155.794,-48 163.8321,-48"/>
<polygon fill="#191970" stroke="#191970" points="138.0828,-44.5001 128.0827,-48 138.0827,-51.5001 138.0828,-44.5001"/>
</g>
<!-- Node2 -->
<g id="node3" class="node">
<title>Node2</title>
<g id="a_node3"><a xlink:href="classPDI_1_1Array__datatype.html" target="_top" xlink:title="PDI::Array_datatype">
<polygon fill="#ffffff" stroke="#000000" points="285.5,-76.5 285.5,-95.5 396.5,-95.5 396.5,-76.5 285.5,-76.5"/>
<text text-anchor="middle" x="341" y="-83.5" font-family="Helvetica,sans-Serif" font-size="10.00" fill="#000000">PDI::Array_datatype</text>
</a>
</g>
</g>
<!-- Node1&#45;&gt;Node2 -->
<g id="edge2" class="edge">
<title>Node1&#45;&gt;Node2</title>
<path fill="none" stroke="#191970" d="M248.7487,-60.3183C267.503,-65.5393 289.028,-71.5316 306.5663,-76.4141"/>
<polygon fill="#191970" stroke="#191970" points="249.5171,-56.8992 238.9447,-57.589 247.6397,-63.6428 249.5171,-56.8992"/>
</g>
<!-- Node3 -->
<g id="node4" class="node">
<title>Node3</title>
<g id="a_node4"><a xlink:href="classPDI_1_1Record__datatype.html" target="_top" xlink:title="PDI::Record_datatype">
<polygon fill="#ffffff" stroke="#000000" points="281,-38.5 281,-57.5 401,-57.5 401,-38.5 281,-38.5"/>
<text text-anchor="middle" x="341" y="-45.5" font-family="Helvetica,sans-Serif" font-size="10.00" fill="#000000">PDI::Record_datatype</text>
</a>
</g>
</g>
<!-- Node1&#45;&gt;Node3 -->
<g id="edge3" class="edge">
<title>Node1&#45;&gt;Node3</title>
<path fill="none" stroke="#191970" d="M255.0948,-48C263.4874,-48 272.2623,-48 280.863,-48"/>
<polygon fill="#191970" stroke="#191970" points="255.085,-44.5001 245.0849,-48 255.0849,-51.5001 255.085,-44.5001"/>
</g>
<!-- Node4 -->
<g id="node5" class="node">
<title>Node4</title>
<g id="a_node5"><a xlink:href="classPDI_1_1Scalar__datatype.html" target="_top" xlink:title="PDI::Scalar_datatype">
<polygon fill="#ffffff" stroke="#000000" points="283,-.5 283,-19.5 399,-19.5 399,-.5 283,-.5"/>
<text text-anchor="middle" x="341" y="-7.5" font-family="Helvetica,sans-Serif" font-size="10.00" fill="#000000">PDI::Scalar_datatype</text>
</a>
</g>
</g>
<!-- Node1&#45;&gt;Node4 -->
<g id="edge4" class="edge">
<title>Node1&#45;&gt;Node4</title>
<path fill="none" stroke="#191970" d="M248.7487,-35.6817C267.503,-30.4607 289.028,-24.4684 306.5663,-19.5859"/>
<polygon fill="#191970" stroke="#191970" points="247.6397,-32.3572 238.9447,-38.411 249.5171,-39.1008 247.6397,-32.3572"/>
</g>
</g>
</svg>
