<?xml version="1.0" encoding="UTF-8" standalone="no"?>
<!DOCTYPE svg PUBLIC "-//W3C//DTD SVG 1.1//EN"
 "http://www.w3.org/Graphics/SVG/1.1/DTD/svg11.dtd">
<!-- Generated by graphviz version 2.40.1 (20161225.0304)
 -->
<!-- Title: /home/jbigot/data/projects/pdi/pdi/include/pdi/logger.h Pages: 1 -->
<svg width="261pt" height="263pt"
 viewBox="0.00 0.00 260.50 263.00" xmlns="http://www.w3.org/2000/svg" xmlns:xlink="http://www.w3.org/1999/xlink">
<g id="graph0" class="graph" transform="scale(1 1) rotate(0) translate(4 259)">
<title>/home/jbigot/data/projects/pdi/pdi/include/pdi/logger.h</title>
<polygon fill="#ffffff" stroke="transparent" points="-4,4 -4,-259 256.5,-259 256.5,4 -4,4"/>
<!-- Node0 -->
<g id="node1" class="node">
<title>Node0</title>
<polygon fill="#bfbfbf" stroke="#000000" points="53,-224.5 53,-254.5 199,-254.5 199,-224.5 53,-224.5"/>
<text text-anchor="start" x="61" y="-242.5" font-family="Helvetica,sans-Serif" font-size="10.00" fill="#000000">/home/jbigot/data/projects</text>
<text text-anchor="middle" x="126" y="-231.5" font-family="Helvetica,sans-Serif" font-size="10.00" fill="#000000">/pdi/pdi/include/pdi/logger.h</text>
</g>
<!-- Node1 -->
<g id="node2" class="node">
<title>Node1</title>
<g id="a_node2"><a xlink:href="pdi__fwd_8h.html" target="_top" xlink:title="pdi/pdi_fwd.h">
<polygon fill="#ffffff" stroke="#000000" points="47.5,-112.5 47.5,-131.5 126.5,-131.5 126.5,-112.5 47.5,-112.5"/>
<text text-anchor="middle" x="87" y="-119.5" font-family="Helvetica,sans-Serif" font-size="10.00" fill="#000000">pdi/pdi_fwd.h</text>
</a>
</g>
</g>
<!-- Node0&#45;&gt;Node1 -->
<g id="edge1" class="edge">
<title>Node0&#45;&gt;Node1</title>
<path fill="none" stroke="#191970" d="M116.4471,-224.2747C110.5923,-214.3024 103.401,-200.7917 99,-188 93.7903,-172.8576 90.7151,-154.9414 88.9844,-141.5994"/>
<polygon fill="#191970" stroke="#191970" points="92.457,-141.1601 87.8296,-131.6292 85.5035,-141.9656 92.457,-141.1601"/>
</g>
<!-- Node7 -->
<g id="node8" class="node">
<title>Node7</title>
<g id="a_node8"><a xlink:href="paraconf__wrapper_8h.html" target="_top" xlink:title="pdi/paraconf_wrapper.h">
<polygon fill="#ffffff" stroke="#000000" points="108.5,-168.5 108.5,-187.5 237.5,-187.5 237.5,-168.5 108.5,-168.5"/>
<text text-anchor="middle" x="173" y="-175.5" font-family="Helvetica,sans-Serif" font-size="10.00" fill="#000000">pdi/paraconf_wrapper.h</text>
</a>
</g>
</g>
<!-- Node0&#45;&gt;Node7 -->
<g id="edge7" class="edge">
<title>Node0&#45;&gt;Node7</title>
<path fill="none" stroke="#191970" d="M137.618,-224.2977C144.21,-215.672 152.4948,-204.8312 159.3901,-195.8087"/>
<polygon fill="#191970" stroke="#191970" points="162.1835,-197.9176 165.4747,-187.8469 156.6217,-193.6671 162.1835,-197.9176"/>
</g>
<!-- Node2 -->
<g id="node3" class="node">
<title>Node2</title>
<polygon fill="#ffffff" stroke="#bfbfbf" points="37,-56.5 37,-75.5 91,-75.5 91,-56.5 37,-56.5"/>
<text text-anchor="middle" x="64" y="-63.5" font-family="Helvetica,sans-Serif" font-size="10.00" fill="#000000">memory</text>
</g>
<!-- Node1&#45;&gt;Node2 -->
<g id="edge2" class="edge">
<title>Node1&#45;&gt;Node2</title>
<path fill="none" stroke="#191970" d="M82.9937,-112.2455C79.9265,-104.7776 75.5997,-94.2427 71.8503,-85.1137"/>
<polygon fill="#191970" stroke="#191970" points="74.9972,-83.5631 67.9604,-75.6427 68.5221,-86.2226 74.9972,-83.5631"/>
</g>
<!-- Node3 -->
<g id="node4" class="node">
<title>Node3</title>
<g id="a_node4"><a xlink:href="pdi_8h.html" target="_top" xlink:title="pdi.h">
<polygon fill="#ffffff" stroke="#000000" points="109.5,-56.5 109.5,-75.5 148.5,-75.5 148.5,-56.5 109.5,-56.5"/>
<text text-anchor="middle" x="129" y="-63.5" font-family="Helvetica,sans-Serif" font-size="10.00" fill="#000000">pdi.h</text>
</a>
</g>
</g>
<!-- Node1&#45;&gt;Node3 -->
<g id="edge3" class="edge">
<title>Node1&#45;&gt;Node3</title>
<path fill="none" stroke="#191970" d="M94.3158,-112.2455C100.2179,-104.3761 108.6742,-93.101 115.7594,-83.6542"/>
<polygon fill="#191970" stroke="#191970" points="118.568,-85.7427 121.768,-75.6427 112.9679,-81.5427 118.568,-85.7427"/>
</g>
<!-- Node4 -->
<g id="node5" class="node">
<title>Node4</title>
<polygon fill="#ffffff" stroke="#bfbfbf" points="185.5,-.5 185.5,-19.5 252.5,-19.5 252.5,-.5 185.5,-.5"/>
<text text-anchor="middle" x="219" y="-7.5" font-family="Helvetica,sans-Serif" font-size="10.00" fill="#000000">paraconf.h</text>
</g>
<!-- Node3&#45;&gt;Node4 -->
<g id="edge4" class="edge">
<title>Node3&#45;&gt;Node4</title>
<path fill="none" stroke="#191970" d="M144.6768,-56.2455C158.4856,-47.6534 178.8193,-35.0014 194.7292,-25.1018"/>
<polygon fill="#191970" stroke="#191970" points="196.8613,-27.8974 203.5028,-19.6427 193.1632,-21.954 196.8613,-27.8974"/>
</g>
<!-- Node5 -->
<g id="node6" class="node">
<title>Node5</title>
<polygon fill="#ffffff" stroke="#bfbfbf" points="0,-.5 0,-19.5 72,-19.5 72,-.5 0,-.5"/>
<text text-anchor="middle" x="36" y="-7.5" font-family="Helvetica,sans-Serif" font-size="10.00" fill="#000000">pdi/export.h</text>
</g>
<!-- Node3&#45;&gt;Node5 -->
<g id="edge5" class="edge">
<title>Node3&#45;&gt;Node5</title>
<path fill="none" stroke="#191970" d="M112.8006,-56.2455C98.3982,-47.5731 77.1268,-34.7645 60.6201,-24.825"/>
<polygon fill="#191970" stroke="#191970" points="62.386,-21.8028 52.0137,-19.6427 58.775,-27.7996 62.386,-21.8028"/>
</g>
<!-- Node6 -->
<g id="node7" class="node">
<title>Node6</title>
<polygon fill="#ffffff" stroke="#bfbfbf" points="90.5,-.5 90.5,-19.5 167.5,-19.5 167.5,-.5 90.5,-.5"/>
<text text-anchor="middle" x="129" y="-7.5" font-family="Helvetica,sans-Serif" font-size="10.00" fill="#000000">pdi/version.h</text>
</g>
<!-- Node3&#45;&gt;Node6 -->
<g id="edge6" class="edge">
<title>Node3&#45;&gt;Node6</title>
<path fill="none" stroke="#191970" d="M129,-56.2455C129,-48.9382 129,-38.6944 129,-29.7046"/>
<polygon fill="#191970" stroke="#191970" points="132.5001,-29.6426 129,-19.6427 125.5001,-29.6427 132.5001,-29.6426"/>
</g>
<!-- Node7&#45;&gt;Node1 -->
<g id="edge10" class="edge">
<title>Node7&#45;&gt;Node1</title>
<path fill="none" stroke="#191970" d="M158.0199,-168.2455C144.8249,-159.6534 125.3949,-147.0014 110.1921,-137.1018"/>
<polygon fill="#191970" stroke="#191970" points="112.0983,-134.1665 101.8084,-131.6427 108.2785,-140.0325 112.0983,-134.1665"/>
</g>
<!-- Node7&#45;&gt;Node4 -->
<g id="edge9" class="edge">
<title>Node7&#45;&gt;Node4</title>
<path fill="none" stroke="#191970" d="M180.1615,-168.3084C186.4114,-159.3498 195.2088,-145.4317 200,-132 212.31,-97.4895 216.6519,-54.6745 218.1782,-30.0299"/>
<polygon fill="#191970" stroke="#191970" points="221.6864,-29.9621 218.7119,-19.7934 214.6959,-29.5976 221.6864,-29.9621"/>
</g>
<!-- Node8 -->
<g id="node9" class="node">
<title>Node8</title>
<polygon fill="#ffffff" stroke="#bfbfbf" points="147.5,-112.5 147.5,-131.5 190.5,-131.5 190.5,-112.5 147.5,-112.5"/>
<text text-anchor="middle" x="169" y="-119.5" font-family="Helvetica,sans-Serif" font-size="10.00" fill="#000000">string</text>
</g>
<!-- Node7&#45;&gt;Node8 -->
<g id="edge8" class="edge">
<title>Node7&#45;&gt;Node8</title>
<path fill="none" stroke="#191970" d="M172.3033,-168.2455C171.7813,-160.9382 171.0496,-150.6944 170.4075,-141.7046"/>
<polygon fill="#191970" stroke="#191970" points="173.8924,-141.3679 169.6888,-131.6427 166.9102,-141.8667 173.8924,-141.3679"/>
</g>
</g>
</svg>
