<?xml version="1.0" encoding="UTF-8" standalone="no"?>
<!DOCTYPE svg PUBLIC "-//W3C//DTD SVG 1.1//EN"
 "http://www.w3.org/Graphics/SVG/1.1/DTD/svg11.dtd">
<!-- Generated by graphviz version 2.40.1 (20161225.0304)
 -->
<!-- Title: PDI::to_long Pages: 1 -->
<svg width="391pt" height="39pt"
 viewBox="0.00 0.00 391.00 39.00" xmlns="http://www.w3.org/2000/svg" xmlns:xlink="http://www.w3.org/1999/xlink">
<g id="graph0" class="graph" transform="scale(1 1) rotate(0) translate(4 35)">
<title>PDI::to_long</title>
<polygon fill="#ffffff" stroke="transparent" points="-4,4 -4,-35 387,-35 387,4 -4,4"/>
<!-- Node29 -->
<g id="node1" class="node">
<title>Node29</title>
<polygon fill="#bfbfbf" stroke="#000000" points="0,-6 0,-25 74,-25 74,-6 0,-6"/>
<text text-anchor="middle" x="37" y="-13" font-family="Helvetica,sans-Serif" font-size="10.00" fill="#000000">PDI::to_long</text>
</g>
<!-- Node30 -->
<g id="node2" class="node">
<title>Node30</title>
<g id="a_node2"><a xlink:href="classPDI_1_1Datatype__template.html#ae3d538ff1bbc559c3d3e7adbbf4a2173" target="_top" xlink:title="PDI::Datatype_template\l::load_basic_datatypes">
<polygon fill="#ffffff" stroke="#000000" points="110,-.5 110,-30.5 238,-30.5 238,-.5 110,-.5"/>
<text text-anchor="start" x="118" y="-18.5" font-family="Helvetica,sans-Serif" font-size="10.00" fill="#000000">PDI::Datatype_template</text>
<text text-anchor="middle" x="174" y="-7.5" font-family="Helvetica,sans-Serif" font-size="10.00" fill="#000000">::load_basic_datatypes</text>
</a>
</g>
</g>
<!-- Node29&#45;&gt;Node30 -->
<g id="edge1" class="edge">
<title>Node29&#45;&gt;Node30</title>
<path fill="none" stroke="#191970" d="M84.2844,-15.5C92.5722,-15.5 101.3198,-15.5 109.9718,-15.5"/>
<polygon fill="#191970" stroke="#191970" points="84.0742,-12.0001 74.0742,-15.5 84.0741,-19.0001 84.0742,-12.0001"/>
</g>
<!-- Node31 -->
<g id="node3" class="node">
<title>Node31</title>
<g id="a_node3"><a xlink:href="classPDI_1_1Global__context.html#aed04747fdfebca807c6f454d6aff9f6d" target="_top" xlink:title="PDI::Global_context\l::Global_context">
<polygon fill="#ffffff" stroke="#000000" points="274,-.5 274,-30.5 383,-30.5 383,-.5 274,-.5"/>
<text text-anchor="start" x="282" y="-18.5" font-family="Helvetica,sans-Serif" font-size="10.00" fill="#000000">PDI::Global_context</text>
<text text-anchor="middle" x="328.5" y="-7.5" font-family="Helvetica,sans-Serif" font-size="10.00" fill="#000000">::Global_context</text>
</a>
</g>
</g>
<!-- Node30&#45;&gt;Node31 -->
<g id="edge2" class="edge">
<title>Node30&#45;&gt;Node31</title>
<path fill="none" stroke="#191970" d="M248.1867,-15.5C256.7525,-15.5 265.3686,-15.5 273.6128,-15.5"/>
<polygon fill="#191970" stroke="#191970" points="248.1797,-12.0001 238.1797,-15.5 248.1796,-19.0001 248.1797,-12.0001"/>
</g>
</g>
</svg>
