<?xml version="1.0" encoding="UTF-8" standalone="no"?>
<!DOCTYPE svg PUBLIC "-//W3C//DTD SVG 1.1//EN"
 "http://www.w3.org/Graphics/SVG/1.1/DTD/svg11.dtd">
<!-- Generated by graphviz version 2.40.1 (20161225.0304)
 -->
<!-- Title: PDI::configure_logger Pages: 1 -->
<svg width="386pt" height="28pt"
 viewBox="0.00 0.00 386.00 28.00" xmlns="http://www.w3.org/2000/svg" xmlns:xlink="http://www.w3.org/1999/xlink">
<g id="graph0" class="graph" transform="scale(1 1) rotate(0) translate(4 24)">
<title>PDI::configure_logger</title>
<polygon fill="#ffffff" stroke="transparent" points="-4,4 -4,-24 382,-24 382,4 -4,4"/>
<!-- Node0 -->
<g id="node1" class="node">
<title>Node0</title>
<polygon fill="#bfbfbf" stroke="#000000" points="0,-.5 0,-19.5 118,-19.5 118,-.5 0,-.5"/>
<text text-anchor="middle" x="59" y="-7.5" font-family="Helvetica,sans-Serif" font-size="10.00" fill="#000000">PDI::configure_logger</text>
</g>
<!-- Node1 -->
<g id="node2" class="node">
<title>Node1</title>
<g id="a_node2"><a xlink:href="namespacePDI.html#acb8e99799a9d8bc02471370808320f2a" target="_top" xlink:title="PDI::read_log_level">
<polygon fill="#ffffff" stroke="#000000" points="154,-.5 154,-19.5 262,-19.5 262,-.5 154,-.5"/>
<text text-anchor="middle" x="208" y="-7.5" font-family="Helvetica,sans-Serif" font-size="10.00" fill="#000000">PDI::read_log_level</text>
</a>
</g>
</g>
<!-- Node0&#45;&gt;Node1 -->
<g id="edge1" class="edge">
<title>Node0&#45;&gt;Node1</title>
<path fill="none" stroke="#191970" d="M118.3169,-10C126.6251,-10 135.1964,-10 143.5935,-10"/>
<polygon fill="#191970" stroke="#191970" points="143.7202,-13.5001 153.7202,-10 143.7201,-6.5001 143.7202,-13.5001"/>
</g>
<!-- Node2 -->
<g id="node3" class="node">
<title>Node2</title>
<g id="a_node3"><a xlink:href="namespacePDI.html#ac2afdb3c131681f8a4726000547d72af" target="_top" xlink:title="PDI::to_string">
<polygon fill="#ffffff" stroke="#000000" points="298,-.5 298,-19.5 378,-19.5 378,-.5 298,-.5"/>
<text text-anchor="middle" x="338" y="-7.5" font-family="Helvetica,sans-Serif" font-size="10.00" fill="#000000">PDI::to_string</text>
</a>
</g>
</g>
<!-- Node1&#45;&gt;Node2 -->
<g id="edge2" class="edge">
<title>Node1&#45;&gt;Node2</title>
<path fill="none" stroke="#191970" d="M262.0023,-10C270.5327,-10 279.3234,-10 287.7634,-10"/>
<polygon fill="#191970" stroke="#191970" points="287.8435,-13.5001 297.8435,-10 287.8434,-6.5001 287.8435,-13.5001"/>
</g>
</g>
</svg>
