<?xml version="1.0" encoding="UTF-8" standalone="no"?>
<!DOCTYPE svg PUBLIC "-//W3C//DTD SVG 1.1//EN"
 "http://www.w3.org/Graphics/SVG/1.1/DTD/svg11.dtd">
<!-- Generated by graphviz version 2.40.1 (20161225.0304)
 -->
<!-- Title: PDI::read_log_level Pages: 1 -->
<svg width="415pt" height="39pt"
 viewBox="0.00 0.00 415.00 39.00" xmlns="http://www.w3.org/2000/svg" xmlns:xlink="http://www.w3.org/1999/xlink">
<g id="graph0" class="graph" transform="scale(1 1) rotate(0) translate(4 35)">
<title>PDI::read_log_level</title>
<polygon fill="#ffffff" stroke="transparent" points="-4,4 -4,-35 411,-35 411,4 -4,4"/>
<!-- Node17 -->
<g id="node1" class="node">
<title>Node17</title>
<polygon fill="#bfbfbf" stroke="#000000" points="0,-6 0,-25 108,-25 108,-6 0,-6"/>
<text text-anchor="middle" x="54" y="-13" font-family="Helvetica,sans-Serif" font-size="10.00" fill="#000000">PDI::read_log_level</text>
</g>
<!-- Node18 -->
<g id="node2" class="node">
<title>Node18</title>
<g id="a_node2"><a xlink:href="namespacePDI.html#ad9ecaf71ea20794c1486e8933bb175c0" target="_top" xlink:title="PDI::configure_logger">
<polygon fill="#ffffff" stroke="#000000" points="144,-6 144,-25 262,-25 262,-6 144,-6"/>
<text text-anchor="middle" x="203" y="-13" font-family="Helvetica,sans-Serif" font-size="10.00" fill="#000000">PDI::configure_logger</text>
</a>
</g>
</g>
<!-- Node17&#45;&gt;Node18 -->
<g id="edge1" class="edge">
<title>Node17&#45;&gt;Node18</title>
<path fill="none" stroke="#191970" d="M118.3909,-15.5C126.8305,-15.5 135.4463,-15.5 143.7944,-15.5"/>
<polygon fill="#191970" stroke="#191970" points="118.2139,-12.0001 108.2139,-15.5 118.2139,-19.0001 118.2139,-12.0001"/>
</g>
<!-- Node19 -->
<g id="node3" class="node">
<title>Node19</title>
<g id="a_node3"><a xlink:href="classPDI_1_1Global__context.html#aed04747fdfebca807c6f454d6aff9f6d" target="_top" xlink:title="PDI::Global_context\l::Global_context">
<polygon fill="#ffffff" stroke="#000000" points="298,-.5 298,-30.5 407,-30.5 407,-.5 298,-.5"/>
<text text-anchor="start" x="306" y="-18.5" font-family="Helvetica,sans-Serif" font-size="10.00" fill="#000000">PDI::Global_context</text>
<text text-anchor="middle" x="352.5" y="-7.5" font-family="Helvetica,sans-Serif" font-size="10.00" fill="#000000">::Global_context</text>
</a>
</g>
</g>
<!-- Node18&#45;&gt;Node19 -->
<g id="edge2" class="edge">
<title>Node18&#45;&gt;Node19</title>
<path fill="none" stroke="#191970" d="M272.1037,-15.5C280.6996,-15.5 289.3956,-15.5 297.7336,-15.5"/>
<polygon fill="#191970" stroke="#191970" points="272.0864,-12.0001 262.0864,-15.5 272.0863,-19.0001 272.0864,-12.0001"/>
</g>
</g>
</svg>
