<?xml version="1.0" encoding="UTF-8" standalone="no"?>
<!DOCTYPE svg PUBLIC "-//W3C//DTD SVG 1.1//EN"
 "http://www.w3.org/Graphics/SVG/1.1/DTD/svg11.dtd">
<!-- Generated by graphviz version 2.40.1 (20161225.0304)
 -->
<!-- Title: PDI::to_string Pages: 1 -->
<svg width="531pt" height="53pt"
 viewBox="0.00 0.00 531.00 52.50" xmlns="http://www.w3.org/2000/svg" xmlns:xlink="http://www.w3.org/1999/xlink">
<g id="graph0" class="graph" transform="scale(1 1) rotate(0) translate(4 48.5)">
<title>PDI::to_string</title>
<polygon fill="#ffffff" stroke="transparent" points="-4,4 -4,-48.5 527,-48.5 527,4 -4,4"/>
<!-- Node41 -->
<g id="node1" class="node">
<title>Node41</title>
<polygon fill="#bfbfbf" stroke="#000000" points="0,-19.5 0,-38.5 80,-38.5 80,-19.5 0,-19.5"/>
<text text-anchor="middle" x="40" y="-26.5" font-family="Helvetica,sans-Serif" font-size="10.00" fill="#000000">PDI::to_string</text>
</g>
<!-- Node42 -->
<g id="node2" class="node">
<title>Node42</title>
<g id="a_node2"><a xlink:href="classPDI_1_1Global__context.html#aed04747fdfebca807c6f454d6aff9f6d" target="_top" xlink:title="PDI::Global_context\l::Global_context">
<polygon fill="#ffffff" stroke="#000000" points="414,-14 414,-44 523,-44 523,-14 414,-14"/>
<text text-anchor="start" x="422" y="-32" font-family="Helvetica,sans-Serif" font-size="10.00" fill="#000000">PDI::Global_context</text>
<text text-anchor="middle" x="468.5" y="-21" font-family="Helvetica,sans-Serif" font-size="10.00" fill="#000000">::Global_context</text>
</a>
</g>
</g>
<!-- Node41&#45;&gt;Node42 -->
<g id="edge1" class="edge">
<title>Node41&#45;&gt;Node42</title>
<path fill="none" stroke="#191970" d="M90.7706,-29C171.9866,-29 330.4555,-29 413.9804,-29"/>
<polygon fill="#191970" stroke="#191970" points="90.3123,-25.5001 80.3122,-29 90.3122,-32.5001 90.3123,-25.5001"/>
</g>
<!-- Node43 -->
<g id="node3" class="node">
<title>Node43</title>
<g id="a_node3"><a xlink:href="namespacePDI.html#acb8e99799a9d8bc02471370808320f2a" target="_top" xlink:title="PDI::read_log_level">
<polygon fill="#ffffff" stroke="#000000" points="116,-.5 116,-19.5 224,-19.5 224,-.5 116,-.5"/>
<text text-anchor="middle" x="170" y="-7.5" font-family="Helvetica,sans-Serif" font-size="10.00" fill="#000000">PDI::read_log_level</text>
</a>
</g>
</g>
<!-- Node41&#45;&gt;Node43 -->
<g id="edge2" class="edge">
<title>Node41&#45;&gt;Node43</title>
<path fill="none" stroke="#191970" d="M90.1566,-21.6694C98.6075,-20.4343 107.4121,-19.1475 115.9566,-17.8987"/>
<polygon fill="#191970" stroke="#191970" points="89.4537,-18.2349 80.065,-23.1443 90.4661,-25.1613 89.4537,-18.2349"/>
</g>
<!-- Node44 -->
<g id="node4" class="node">
<title>Node44</title>
<g id="a_node4"><a xlink:href="namespacePDI.html#ad9ecaf71ea20794c1486e8933bb175c0" target="_top" xlink:title="PDI::configure_logger">
<polygon fill="#ffffff" stroke="#000000" points="260,-.5 260,-19.5 378,-19.5 378,-.5 260,-.5"/>
<text text-anchor="middle" x="319" y="-7.5" font-family="Helvetica,sans-Serif" font-size="10.00" fill="#000000">PDI::configure_logger</text>
</a>
</g>
</g>
<!-- Node43&#45;&gt;Node44 -->
<g id="edge3" class="edge">
<title>Node43&#45;&gt;Node44</title>
<path fill="none" stroke="#191970" d="M234.3909,-10C242.8305,-10 251.4463,-10 259.7944,-10"/>
<polygon fill="#191970" stroke="#191970" points="234.2139,-6.5001 224.2139,-10 234.2139,-13.5001 234.2139,-6.5001"/>
</g>
<!-- Node44&#45;&gt;Node42 -->
<g id="edge4" class="edge">
<title>Node44&#45;&gt;Node42</title>
<path fill="none" stroke="#191970" d="M388.1037,-18.7824C396.6996,-19.8749 405.3956,-20.98 413.7336,-22.0397"/>
<polygon fill="#191970" stroke="#191970" points="388.4479,-15.2981 378.0864,-17.5093 387.5653,-22.2422 388.4479,-15.2981"/>
</g>
</g>
</svg>
