<?xml version="1.0" encoding="UTF-8" standalone="no"?>
<!DOCTYPE svg PUBLIC "-//W3C//DTD SVG 1.1//EN"
 "http://www.w3.org/Graphics/SVG/1.1/DTD/svg11.dtd">
<!-- Generated by graphviz version 2.40.1 (20161225.0304)
 -->
<!-- Title: /home/jbigot/data/projects/pdi/pdi/src/paraconf_wrapper.cxx Pages: 1 -->
<svg width="456pt" height="263pt"
 viewBox="0.00 0.00 456.00 263.00" xmlns="http://www.w3.org/2000/svg" xmlns:xlink="http://www.w3.org/1999/xlink">
<g id="graph0" class="graph" transform="scale(1 1) rotate(0) translate(4 259)">
<title>/home/jbigot/data/projects/pdi/pdi/src/paraconf_wrapper.cxx</title>
<polygon fill="#ffffff" stroke="transparent" points="-4,4 -4,-259 452,-259 452,4 -4,4"/>
<!-- Node0 -->
<g id="node1" class="node">
<title>Node0</title>
<polygon fill="#bfbfbf" stroke="#000000" points="15.5,-224.5 15.5,-254.5 191.5,-254.5 191.5,-224.5 15.5,-224.5"/>
<text text-anchor="start" x="23.5" y="-242.5" font-family="Helvetica,sans-Serif" font-size="10.00" fill="#000000">/home/jbigot/data/projects</text>
<text text-anchor="middle" x="103.5" y="-231.5" font-family="Helvetica,sans-Serif" font-size="10.00" fill="#000000">/pdi/pdi/src/paraconf_wrapper.cxx</text>
</g>
<!-- Node1 -->
<g id="node2" class="node">
<title>Node1</title>
<polygon fill="#ffffff" stroke="#bfbfbf" points="0,-168.5 0,-187.5 53,-187.5 53,-168.5 0,-168.5"/>
<text text-anchor="middle" x="26.5" y="-175.5" font-family="Helvetica,sans-Serif" font-size="10.00" fill="#000000">config.h</text>
</g>
<!-- Node0&#45;&gt;Node1 -->
<g id="edge1" class="edge">
<title>Node0&#45;&gt;Node1</title>
<path fill="none" stroke="#191970" d="M84.4663,-224.2977C72.9985,-215.1384 58.4038,-203.4816 46.7281,-194.1562"/>
<polygon fill="#191970" stroke="#191970" points="48.8266,-191.3529 38.8287,-187.8469 44.4581,-196.8225 48.8266,-191.3529"/>
</g>
<!-- Node2 -->
<g id="node3" class="node">
<title>Node2</title>
<g id="a_node3"><a xlink:href="error_8h.html" target="_top" xlink:title="pdi/error.h">
<polygon fill="#ffffff" stroke="#000000" points="71,-168.5 71,-187.5 136,-187.5 136,-168.5 71,-168.5"/>
<text text-anchor="middle" x="103.5" y="-175.5" font-family="Helvetica,sans-Serif" font-size="10.00" fill="#000000">pdi/error.h</text>
</a>
</g>
</g>
<!-- Node0&#45;&gt;Node2 -->
<g id="edge2" class="edge">
<title>Node0&#45;&gt;Node2</title>
<path fill="none" stroke="#191970" d="M103.5,-224.2977C103.5,-216.3834 103.5,-206.6043 103.5,-198.0759"/>
<polygon fill="#191970" stroke="#191970" points="107.0001,-197.8469 103.5,-187.8469 100.0001,-197.847 107.0001,-197.8469"/>
</g>
<!-- Node11 -->
<g id="node12" class="node">
<title>Node11</title>
<g id="a_node12"><a xlink:href="paraconf__wrapper_8h.html" target="_top" xlink:title="pdi/paraconf_wrapper.h">
<polygon fill="#ffffff" stroke="#000000" points="154,-168.5 154,-187.5 283,-187.5 283,-168.5 154,-168.5"/>
<text text-anchor="middle" x="218.5" y="-175.5" font-family="Helvetica,sans-Serif" font-size="10.00" fill="#000000">pdi/paraconf_wrapper.h</text>
</a>
</g>
</g>
<!-- Node0&#45;&gt;Node11 -->
<g id="edge12" class="edge">
<title>Node0&#45;&gt;Node11</title>
<path fill="none" stroke="#191970" d="M131.6322,-224.4554C149.9786,-214.644 173.7777,-201.9167 191.8251,-192.2653"/>
<polygon fill="#191970" stroke="#191970" points="193.5114,-195.3326 200.6791,-187.5303 190.2103,-189.1598 193.5114,-195.3326"/>
</g>
<!-- Node3 -->
<g id="node4" class="node">
<title>Node3</title>
<polygon fill="#ffffff" stroke="#bfbfbf" points="19.5,-112.5 19.5,-131.5 81.5,-131.5 81.5,-112.5 19.5,-112.5"/>
<text text-anchor="middle" x="50.5" y="-119.5" font-family="Helvetica,sans-Serif" font-size="10.00" fill="#000000">exception</text>
</g>
<!-- Node2&#45;&gt;Node3 -->
<g id="edge3" class="edge">
<title>Node2&#45;&gt;Node3</title>
<path fill="none" stroke="#191970" d="M94.2681,-168.2455C86.6683,-160.2155 75.7123,-148.6394 66.6632,-139.0781"/>
<polygon fill="#191970" stroke="#191970" points="69.042,-136.4998 59.6261,-131.6427 63.9579,-141.3115 69.042,-136.4998"/>
</g>
<!-- Node4 -->
<g id="node5" class="node">
<title>Node4</title>
<polygon fill="#ffffff" stroke="#bfbfbf" points="197,-112.5 197,-131.5 240,-131.5 240,-112.5 197,-112.5"/>
<text text-anchor="middle" x="218.5" y="-119.5" font-family="Helvetica,sans-Serif" font-size="10.00" fill="#000000">string</text>
</g>
<!-- Node2&#45;&gt;Node4 -->
<g id="edge4" class="edge">
<title>Node2&#45;&gt;Node4</title>
<path fill="none" stroke="#191970" d="M123.2692,-168.3733C141.6469,-159.4241 169.2312,-145.9917 189.9893,-135.8835"/>
<polygon fill="#191970" stroke="#191970" points="191.5304,-139.026 198.9888,-131.5011 188.4657,-132.7325 191.5304,-139.026"/>
</g>
<!-- Node5 -->
<g id="node6" class="node">
<title>Node5</title>
<polygon fill="#ffffff" stroke="#bfbfbf" points="195,-.5 195,-19.5 262,-19.5 262,-.5 195,-.5"/>
<text text-anchor="middle" x="228.5" y="-7.5" font-family="Helvetica,sans-Serif" font-size="10.00" fill="#000000">paraconf.h</text>
</g>
<!-- Node2&#45;&gt;Node5 -->
<g id="edge5" class="edge">
<title>Node2&#45;&gt;Node5</title>
<path fill="none" stroke="#191970" d="M70.8057,-169.7821C37.9702,-159.7531 -5.6215,-140.5262 10.5,-112 45.7711,-49.5896 131.6759,-25.0193 184.5074,-15.6008"/>
<polygon fill="#191970" stroke="#191970" points="185.3219,-19.0133 194.6079,-13.9124 184.1677,-12.1091 185.3219,-19.0133"/>
</g>
<!-- Node6 -->
<g id="node7" class="node">
<title>Node6</title>
<g id="a_node7"><a xlink:href="pdi__fwd_8h.html" target="_top" xlink:title="pdi/pdi_fwd.h">
<polygon fill="#ffffff" stroke="#000000" points="100,-112.5 100,-131.5 179,-131.5 179,-112.5 100,-112.5"/>
<text text-anchor="middle" x="139.5" y="-119.5" font-family="Helvetica,sans-Serif" font-size="10.00" fill="#000000">pdi/pdi_fwd.h</text>
</a>
</g>
</g>
<!-- Node2&#45;&gt;Node6 -->
<g id="edge6" class="edge">
<title>Node2&#45;&gt;Node6</title>
<path fill="none" stroke="#191970" d="M109.7707,-168.2455C114.7264,-160.5367 121.783,-149.5598 127.7776,-140.2348"/>
<polygon fill="#191970" stroke="#191970" points="130.8376,-141.9471 133.3011,-131.6427 124.9494,-138.1618 130.8376,-141.9471"/>
</g>
<!-- Node7 -->
<g id="node8" class="node">
<title>Node7</title>
<polygon fill="#ffffff" stroke="#bfbfbf" points="112.5,-56.5 112.5,-75.5 166.5,-75.5 166.5,-56.5 112.5,-56.5"/>
<text text-anchor="middle" x="139.5" y="-63.5" font-family="Helvetica,sans-Serif" font-size="10.00" fill="#000000">memory</text>
</g>
<!-- Node6&#45;&gt;Node7 -->
<g id="edge7" class="edge">
<title>Node6&#45;&gt;Node7</title>
<path fill="none" stroke="#191970" d="M139.5,-112.2455C139.5,-104.9382 139.5,-94.6944 139.5,-85.7046"/>
<polygon fill="#191970" stroke="#191970" points="143.0001,-85.6426 139.5,-75.6427 136.0001,-85.6427 143.0001,-85.6426"/>
</g>
<!-- Node8 -->
<g id="node9" class="node">
<title>Node8</title>
<g id="a_node9"><a xlink:href="pdi_8h.html" target="_top" xlink:title="pdi.h">
<polygon fill="#ffffff" stroke="#000000" points="297,-56.5 297,-75.5 336,-75.5 336,-56.5 297,-56.5"/>
<text text-anchor="middle" x="316.5" y="-63.5" font-family="Helvetica,sans-Serif" font-size="10.00" fill="#000000">pdi.h</text>
</a>
</g>
</g>
<!-- Node6&#45;&gt;Node8 -->
<g id="edge8" class="edge">
<title>Node6&#45;&gt;Node8</title>
<path fill="none" stroke="#191970" d="M169.9274,-112.3733C202.749,-101.989 254.6498,-85.5684 287.0761,-75.3092"/>
<polygon fill="#191970" stroke="#191970" points="288.3926,-78.5638 296.871,-72.2103 286.281,-71.8899 288.3926,-78.5638"/>
</g>
<!-- Node8&#45;&gt;Node5 -->
<g id="edge9" class="edge">
<title>Node8&#45;&gt;Node5</title>
<path fill="none" stroke="#191970" d="M301.1716,-56.2455C287.6697,-47.6534 267.7878,-35.0014 252.2314,-25.1018"/>
<polygon fill="#191970" stroke="#191970" points="253.9685,-22.0587 243.6528,-19.6427 250.2103,-27.9643 253.9685,-22.0587"/>
</g>
<!-- Node9 -->
<g id="node10" class="node">
<title>Node9</title>
<polygon fill="#ffffff" stroke="#bfbfbf" points="280.5,-.5 280.5,-19.5 352.5,-19.5 352.5,-.5 280.5,-.5"/>
<text text-anchor="middle" x="316.5" y="-7.5" font-family="Helvetica,sans-Serif" font-size="10.00" fill="#000000">pdi/export.h</text>
</g>
<!-- Node8&#45;&gt;Node9 -->
<g id="edge10" class="edge">
<title>Node8&#45;&gt;Node9</title>
<path fill="none" stroke="#191970" d="M316.5,-56.2455C316.5,-48.9382 316.5,-38.6944 316.5,-29.7046"/>
<polygon fill="#191970" stroke="#191970" points="320.0001,-29.6426 316.5,-19.6427 313.0001,-29.6427 320.0001,-29.6426"/>
</g>
<!-- Node10 -->
<g id="node11" class="node">
<title>Node10</title>
<polygon fill="#ffffff" stroke="#bfbfbf" points="371,-.5 371,-19.5 448,-19.5 448,-.5 371,-.5"/>
<text text-anchor="middle" x="409.5" y="-7.5" font-family="Helvetica,sans-Serif" font-size="10.00" fill="#000000">pdi/version.h</text>
</g>
<!-- Node8&#45;&gt;Node10 -->
<g id="edge11" class="edge">
<title>Node8&#45;&gt;Node10</title>
<path fill="none" stroke="#191970" d="M332.6994,-56.2455C347.1018,-47.5731 368.3732,-34.7645 384.8799,-24.825"/>
<polygon fill="#191970" stroke="#191970" points="386.725,-27.7996 393.4863,-19.6427 383.114,-21.8028 386.725,-27.7996"/>
</g>
<!-- Node11&#45;&gt;Node4 -->
<g id="edge13" class="edge">
<title>Node11&#45;&gt;Node4</title>
<path fill="none" stroke="#191970" d="M218.5,-168.2455C218.5,-160.9382 218.5,-150.6944 218.5,-141.7046"/>
<polygon fill="#191970" stroke="#191970" points="222.0001,-141.6426 218.5,-131.6427 215.0001,-141.6427 222.0001,-141.6426"/>
</g>
<!-- Node11&#45;&gt;Node5 -->
<g id="edge14" class="edge">
<title>Node11&#45;&gt;Node5</title>
<path fill="none" stroke="#191970" d="M227.5741,-168.3243C235.0963,-159.5913 245.2231,-145.9994 249.5,-132 260.3306,-96.5488 247.0349,-53.4888 237.2062,-29.1647"/>
<polygon fill="#191970" stroke="#191970" points="240.304,-27.5063 233.16,-19.6823 233.8656,-30.2536 240.304,-27.5063"/>
</g>
<!-- Node11&#45;&gt;Node6 -->
<g id="edge15" class="edge">
<title>Node11&#45;&gt;Node6</title>
<path fill="none" stroke="#191970" d="M204.7393,-168.2455C192.8448,-159.814 175.435,-147.4729 161.5915,-137.6598"/>
<polygon fill="#191970" stroke="#191970" points="163.2854,-134.5704 153.1031,-131.6427 159.2372,-140.2811 163.2854,-134.5704"/>
</g>
</g>
</svg>
