<?xml version="1.0" encoding="UTF-8" standalone="no"?>
<!DOCTYPE svg PUBLIC "-//W3C//DTD SVG 1.1//EN"
 "http://www.w3.org/Graphics/SVG/1.1/DTD/svg11.dtd">
<!-- Generated by graphviz version 2.40.1 (20161225.0304)
 -->
<!-- Title: /home/jbigot/data/projects/pdi/pdi/include/pdi/paraconf_wrapper.h Pages: 1 -->
<svg width="326pt" height="218pt"
 viewBox="0.00 0.00 326.00 218.00" xmlns="http://www.w3.org/2000/svg" xmlns:xlink="http://www.w3.org/1999/xlink">
<g id="graph0" class="graph" transform="scale(1 1) rotate(0) translate(4 214)">
<title>/home/jbigot/data/projects/pdi/pdi/include/pdi/paraconf_wrapper.h</title>
<polygon fill="#ffffff" stroke="transparent" points="-4,4 -4,-214 322,-214 322,4 -4,4"/>
<!-- Node0 -->
<g id="node1" class="node">
<title>Node0</title>
<polygon fill="#bfbfbf" stroke="#000000" points="0,-168.5 0,-209.5 149,-209.5 149,-168.5 0,-168.5"/>
<text text-anchor="start" x="8" y="-197.5" font-family="Helvetica,sans-Serif" font-size="10.00" fill="#000000">/home/jbigot/data/projects</text>
<text text-anchor="start" x="8" y="-186.5" font-family="Helvetica,sans-Serif" font-size="10.00" fill="#000000">/pdi/pdi/include/pdi/paraconf</text>
<text text-anchor="middle" x="74.5" y="-175.5" font-family="Helvetica,sans-Serif" font-size="10.00" fill="#000000">_wrapper.h</text>
</g>
<!-- Node1 -->
<g id="node2" class="node">
<title>Node1</title>
<polygon fill="#ffffff" stroke="#bfbfbf" points="3,-112.5 3,-131.5 46,-131.5 46,-112.5 3,-112.5"/>
<text text-anchor="middle" x="24.5" y="-119.5" font-family="Helvetica,sans-Serif" font-size="10.00" fill="#000000">string</text>
</g>
<!-- Node0&#45;&gt;Node1 -->
<g id="edge1" class="edge">
<title>Node0&#45;&gt;Node1</title>
<path fill="none" stroke="#191970" d="M58.9538,-168.168C52.2304,-159.1587 44.4372,-148.7159 37.9651,-140.0432"/>
<polygon fill="#191970" stroke="#191970" points="40.5848,-137.7015 31.7989,-131.7805 34.9747,-141.8881 40.5848,-137.7015"/>
</g>
<!-- Node2 -->
<g id="node3" class="node">
<title>Node2</title>
<polygon fill="#ffffff" stroke="#bfbfbf" points="57,-.5 57,-19.5 124,-19.5 124,-.5 57,-.5"/>
<text text-anchor="middle" x="90.5" y="-7.5" font-family="Helvetica,sans-Serif" font-size="10.00" fill="#000000">paraconf.h</text>
</g>
<!-- Node0&#45;&gt;Node2 -->
<g id="edge2" class="edge">
<title>Node0&#45;&gt;Node2</title>
<path fill="none" stroke="#191970" d="M76.3354,-168.4664C79.4328,-133.8145 85.6584,-64.1656 88.7188,-29.927"/>
<polygon fill="#191970" stroke="#191970" points="92.222,-30.0468 89.6263,-19.7749 85.2498,-29.4235 92.222,-30.0468"/>
</g>
<!-- Node3 -->
<g id="node4" class="node">
<title>Node3</title>
<g id="a_node4"><a xlink:href="pdi__fwd_8h.html" target="_top" xlink:title="pdi/pdi_fwd.h">
<polygon fill="#ffffff" stroke="#000000" points="103,-112.5 103,-131.5 182,-131.5 182,-112.5 103,-112.5"/>
<text text-anchor="middle" x="142.5" y="-119.5" font-family="Helvetica,sans-Serif" font-size="10.00" fill="#000000">pdi/pdi_fwd.h</text>
</a>
</g>
</g>
<!-- Node0&#45;&gt;Node3 -->
<g id="edge3" class="edge">
<title>Node0&#45;&gt;Node3</title>
<path fill="none" stroke="#191970" d="M95.6429,-168.168C105.1716,-158.7794 116.2805,-147.834 125.2895,-138.9574"/>
<polygon fill="#191970" stroke="#191970" points="127.9068,-141.2921 132.5736,-131.7805 122.9938,-136.3058 127.9068,-141.2921"/>
</g>
<!-- Node4 -->
<g id="node5" class="node">
<title>Node4</title>
<polygon fill="#ffffff" stroke="#bfbfbf" points="102.5,-56.5 102.5,-75.5 156.5,-75.5 156.5,-56.5 102.5,-56.5"/>
<text text-anchor="middle" x="129.5" y="-63.5" font-family="Helvetica,sans-Serif" font-size="10.00" fill="#000000">memory</text>
</g>
<!-- Node3&#45;&gt;Node4 -->
<g id="edge4" class="edge">
<title>Node3&#45;&gt;Node4</title>
<path fill="none" stroke="#191970" d="M140.2356,-112.2455C138.5206,-104.8579 136.1088,-94.4689 134.0056,-85.4087"/>
<polygon fill="#191970" stroke="#191970" points="137.4092,-84.5922 131.7385,-75.6427 130.5905,-86.1751 137.4092,-84.5922"/>
</g>
<!-- Node5 -->
<g id="node6" class="node">
<title>Node5</title>
<g id="a_node6"><a xlink:href="pdi_8h.html" target="_top" xlink:title="pdi.h">
<polygon fill="#ffffff" stroke="#000000" points="175,-56.5 175,-75.5 214,-75.5 214,-56.5 175,-56.5"/>
<text text-anchor="middle" x="194.5" y="-63.5" font-family="Helvetica,sans-Serif" font-size="10.00" fill="#000000">pdi.h</text>
</a>
</g>
</g>
<!-- Node3&#45;&gt;Node5 -->
<g id="edge5" class="edge">
<title>Node3&#45;&gt;Node5</title>
<path fill="none" stroke="#191970" d="M151.5577,-112.2455C159.0142,-104.2155 169.7634,-92.6394 178.6417,-83.0781"/>
<polygon fill="#191970" stroke="#191970" points="181.3063,-85.3522 185.5461,-75.6427 176.1768,-80.589 181.3063,-85.3522"/>
</g>
<!-- Node5&#45;&gt;Node2 -->
<g id="edge6" class="edge">
<title>Node5&#45;&gt;Node2</title>
<path fill="none" stroke="#191970" d="M176.3846,-56.2455C160.055,-47.4527 135.829,-34.4079 117.2661,-24.4125"/>
<polygon fill="#191970" stroke="#191970" points="118.8719,-21.3021 108.4078,-19.6427 115.5532,-27.4654 118.8719,-21.3021"/>
</g>
<!-- Node6 -->
<g id="node7" class="node">
<title>Node6</title>
<polygon fill="#ffffff" stroke="#bfbfbf" points="150.5,-.5 150.5,-19.5 222.5,-19.5 222.5,-.5 150.5,-.5"/>
<text text-anchor="middle" x="186.5" y="-7.5" font-family="Helvetica,sans-Serif" font-size="10.00" fill="#000000">pdi/export.h</text>
</g>
<!-- Node5&#45;&gt;Node6 -->
<g id="edge7" class="edge">
<title>Node5&#45;&gt;Node6</title>
<path fill="none" stroke="#191970" d="M193.1065,-56.2455C192.0626,-48.9382 190.5992,-38.6944 189.3149,-29.7046"/>
<polygon fill="#191970" stroke="#191970" points="192.7566,-29.0472 187.8775,-19.6427 185.827,-30.0372 192.7566,-29.0472"/>
</g>
<!-- Node7 -->
<g id="node8" class="node">
<title>Node7</title>
<polygon fill="#ffffff" stroke="#bfbfbf" points="241,-.5 241,-19.5 318,-19.5 318,-.5 241,-.5"/>
<text text-anchor="middle" x="279.5" y="-7.5" font-family="Helvetica,sans-Serif" font-size="10.00" fill="#000000">pdi/version.h</text>
</g>
<!-- Node5&#45;&gt;Node7 -->
<g id="edge8" class="edge">
<title>Node5&#45;&gt;Node7</title>
<path fill="none" stroke="#191970" d="M209.3059,-56.2455C222.2256,-47.7337 241.1931,-35.2375 256.1552,-25.3801"/>
<polygon fill="#191970" stroke="#191970" points="258.4387,-28.067 264.8638,-19.6427 254.5876,-22.2216 258.4387,-28.067"/>
</g>
</g>
</svg>
