<?xml version="1.0" encoding="UTF-8" standalone="no"?>
<!DOCTYPE svg PUBLIC "-//W3C//DTD SVG 1.1//EN"
 "http://www.w3.org/Graphics/SVG/1.1/DTD/svg11.dtd">
<!-- Generated by graphviz version 2.40.1 (20161225.0304)
 -->
<!-- Title: PDI_transaction_end Pages: 1 -->
<!--zoomable 102 -->
<svg id="main" version="1.1" xmlns="http://www.w3.org/2000/svg" xmlns:xlink="http://www.w3.org/1999/xlink" xml:space="preserve" onload="init(evt)">
<style type="text/css"><![CDATA[
.edge:hover path { stroke: red; }
.edge:hover polygon { stroke: red; fill: red; }
]]></style>
<script type="text/javascript"><![CDATA[
var edges = document.getElementsByTagName('g');
if (edges && edges.length) {
  for (var i=0;i<edges.length;i++) {
    if (edges[i].id.substr(0,4)=='edge') {
      edges[i].setAttribute('class','edge');
    }
  }
}
]]></script>
        <defs>
                <circle id="rim" cx="0" cy="0" r="7"/>
                <circle id="rim2" cx="0" cy="0" r="3.5"/>
                <g id="zoomPlus">
                        <use xlink:href="#rim" fill="#404040">
                                <set attributeName="fill" to="#808080" begin="zoomplus.mouseover" end="zoomplus.mouseout"/>
                        </use>
                        <path d="M-4,0h8M0,-4v8" fill="none" stroke="white" stroke-width="1.5" pointer-events="none"/>
                </g>
                <g id="zoomMin">
                        <use xlink:href="#rim" fill="#404040">
                                <set attributeName="fill" to="#808080" begin="zoomminus.mouseover" end="zoomminus.mouseout"/>
                        </use>
                        <path d="M-4,0h8" fill="none" stroke="white" stroke-width="1.5" pointer-events="none"/>
                </g>
                <g id="dirArrow">
                        <path fill="none" stroke="white" stroke-width="1.5" d="M0,-3.0v7 M-2.5,-0.5L0,-3.0L2.5,-0.5"/>
                </g>
               <g id="resetDef">
                       <use xlink:href="#rim2" fill="#404040">
                               <set attributeName="fill" to="#808080" begin="reset.mouseover" end="reset.mouseout"/>
                       </use>
               </g>
        </defs>

<script type="text/javascript">
var viewWidth = 510;
var viewHeight = 102;
var sectionId = 'dynsection-15';
</script>
<script xlink:href="svgpan.js"/>
<svg id="graph" class="graph">
<g id="viewport">
<title>PDI_transaction_end</title>
<polygon fill="#ffffff" stroke="transparent" points="-4,4 -4,-97.5 506,-97.5 506,4 -4,4"/>
<!-- Node58 -->
<g id="node1" class="node">
<title>Node58</title>
<polygon fill="#bfbfbf" stroke="#000000" points="0,-49.5 0,-68.5 116,-68.5 116,-49.5 0,-49.5"/>
<text text-anchor="middle" x="58" y="-56.5" font-family="Helvetica,sans-Serif" font-size="10.00" fill="#000000">PDI_transaction_end</text>
</g>
<!-- Node59 -->
<g id="node2" class="node">
<title>Node59</title>
<g id="a_node2"><a xlink:href="pdi_8cxx.html#af047cf4c39c3e80684372feb273cc06d" target="_top" xlink:title="PDI_event">
<polygon fill="#ffffff" stroke="#000000" points="156,-30.5 156,-49.5 222,-49.5 222,-30.5 156,-30.5"/>
<text text-anchor="middle" x="189" y="-37.5" font-family="Helvetica,sans-Serif" font-size="10.00" fill="#000000">PDI_event</text>
</a>
</g>
</g>
<!-- Node58&#45;&gt;Node59 -->
<g id="edge1" class="edge">
<title>Node58&#45;&gt;Node59</title>
<path fill="none" stroke="#191970" d="M116.2214,-50.5557C126.1575,-49.1146 136.3199,-47.6406 145.7786,-46.2687"/>
<polygon fill="#191970" stroke="#191970" points="146.3281,-49.7258 155.7222,-44.8266 145.3233,-42.7982 146.3281,-49.7258"/>
</g>
<!-- Node64 -->
<g id="node7" class="node">
<title>Node64</title>
<g id="a_node7"><a xlink:href="pdi_8cxx.html#abf58b7c146cbf7e3341245f60cec0f7e" target="_top" xlink:title="PDI_reclaim">
<polygon fill="#ffffff" stroke="#000000" points="152,-68.5 152,-87.5 226,-87.5 226,-68.5 152,-68.5"/>
<text text-anchor="middle" x="189" y="-75.5" font-family="Helvetica,sans-Serif" font-size="10.00" fill="#000000">PDI_reclaim</text>
</a>
</g>
</g>
<!-- Node58&#45;&gt;Node64 -->
<g id="edge6" class="edge">
<title>Node58&#45;&gt;Node64</title>
<path fill="none" stroke="#191970" d="M116.2214,-67.4443C124.6777,-68.6708 133.2979,-69.9211 141.5087,-71.1119"/>
<polygon fill="#191970" stroke="#191970" points="141.2481,-74.6107 151.6469,-72.5824 142.2529,-67.6832 141.2481,-74.6107"/>
</g>
<!-- Node60 -->
<g id="node3" class="node">
<title>Node60</title>
<g id="a_node3"><a xlink:href="classPDI_1_1Global__context.html#a9de4e403f6919016c6a8a26fd82a9b94" target="_top" xlink:title="PDI::Global_context\l::context">
<polygon fill="#ffffff" stroke="#000000" points="262,-63 262,-93 371,-93 371,-63 262,-63"/>
<text text-anchor="start" x="270" y="-81" font-family="Helvetica,sans-Serif" font-size="10.00" fill="#000000">PDI::Global_context</text>
<text text-anchor="middle" x="316.5" y="-70" font-family="Helvetica,sans-Serif" font-size="10.00" fill="#000000">::context</text>
</a>
</g>
</g>
<!-- Node59&#45;&gt;Node60 -->
<g id="edge2" class="edge">
<title>Node59&#45;&gt;Node60</title>
<path fill="none" stroke="#191970" d="M221.1736,-49.589C231.8843,-52.7812 244.1858,-56.4475 256.3148,-60.0625"/>
<polygon fill="#191970" stroke="#191970" points="255.3882,-63.4384 265.9713,-62.9405 257.3876,-56.73 255.3882,-63.4384"/>
</g>
<!-- Node61 -->
<g id="node4" class="node">
<title>Node61</title>
<g id="a_node4"><a xlink:href="classPDI_1_1Global__context.html#a1ce31d6999286d62b4954260354740ba" target="_top" xlink:title="PDI::Global_context\l::event">
<polygon fill="#ffffff" stroke="#000000" points="262,-14 262,-44 371,-44 371,-14 262,-14"/>
<text text-anchor="start" x="270" y="-32" font-family="Helvetica,sans-Serif" font-size="10.00" fill="#000000">PDI::Global_context</text>
<text text-anchor="middle" x="316.5" y="-21" font-family="Helvetica,sans-Serif" font-size="10.00" fill="#000000">::event</text>
</a>
</g>
</g>
<!-- Node59&#45;&gt;Node61 -->
<g id="edge3" class="edge">
<title>Node59&#45;&gt;Node61</title>
<path fill="none" stroke="#191970" d="M222.1663,-37.1386C231.2418,-36.3556 241.401,-35.4791 251.5995,-34.5993"/>
<polygon fill="#191970" stroke="#191970" points="252.1103,-38.0683 261.7725,-33.7216 251.5086,-31.0942 252.1103,-38.0683"/>
</g>
<!-- Node62 -->
<g id="node5" class="node">
<title>Node62</title>
<g id="a_node5"><a xlink:href="classPDI_1_1Error.html#a96f2da1344848f7862d6d4227ba7c82a" target="_top" xlink:title="PDI::Error::status">
<polygon fill="#ffffff" stroke="#000000" points="407,-38.5 407,-57.5 502,-57.5 502,-38.5 407,-38.5"/>
<text text-anchor="middle" x="454.5" y="-45.5" font-family="Helvetica,sans-Serif" font-size="10.00" fill="#000000">PDI::Error::status</text>
</a>
</g>
</g>
<!-- Node61&#45;&gt;Node62 -->
<g id="edge4" class="edge">
<title>Node61&#45;&gt;Node62</title>
<path fill="none" stroke="#191970" d="M371.0413,-36.5093C379.3968,-37.6597 388.0485,-38.8509 396.476,-40.0112"/>
<polygon fill="#191970" stroke="#191970" points="396.2255,-43.5096 406.6095,-41.4064 397.1804,-36.5751 396.2255,-43.5096"/>
</g>
<!-- Node63 -->
<g id="node6" class="node">
<title>Node63</title>
<g id="a_node6"><a xlink:href="classPDI_1_1Error.html#aca3b34b8350235c8455bfe56236c4454" target="_top" xlink:title="PDI::Error::what">
<polygon fill="#ffffff" stroke="#000000" points="410,-.5 410,-19.5 499,-19.5 499,-.5 410,-.5"/>
<text text-anchor="middle" x="454.5" y="-7.5" font-family="Helvetica,sans-Serif" font-size="10.00" fill="#000000">PDI::Error::what</text>
</a>
</g>
</g>
<!-- Node61&#45;&gt;Node63 -->
<g id="edge5" class="edge">
<title>Node61&#45;&gt;Node63</title>
<path fill="none" stroke="#191970" d="M371.0413,-21.4907C380.4468,-20.1957 390.2276,-18.8491 399.6415,-17.553"/>
<polygon fill="#191970" stroke="#191970" points="400.2483,-21.0025 409.6775,-16.1712 399.2935,-14.068 400.2483,-21.0025"/>
</g>
<!-- Node64&#45;&gt;Node60 -->
<g id="edge7" class="edge">
<title>Node64&#45;&gt;Node60</title>
<path fill="none" stroke="#191970" d="M226.221,-78C234.2512,-78 242.9649,-78 251.7048,-78"/>
<polygon fill="#191970" stroke="#191970" points="251.9373,-81.5001 261.9373,-78 251.9372,-74.5001 251.9373,-81.5001"/>
</g>
</g>
</svg>
        <g id="navigator" transform="translate(0 0)" fill="#404254">
                <rect fill="#f2f5e9" fill-opacity="0.5" stroke="#606060" stroke-width=".5" x="0" y="0" width="60" height="60"/>
                <use id="zoomplus" xlink:href="#zoomPlus" x="17" y="9" onmousedown="handleZoom(evt,'in')"/>
                <use id="zoomminus" xlink:href="#zoomMin" x="42" y="9" onmousedown="handleZoom(evt,'out')"/>
                <use id="reset" xlink:href="#resetDef" x="30" y="36" onmousedown="handleReset()"/>
                <g id="arrowUp" xlink:href="#dirArrow" transform="translate(30 24)" onmousedown="handlePan(0,-1)">
                  <use xlink:href="#rim" fill="#404040">
                        <set attributeName="fill" to="#808080" begin="arrowUp.mouseover" end="arrowUp.mouseout"/>
                  </use>
                  <path fill="none" stroke="white" stroke-width="1.5" d="M0,-3.0v7 M-2.5,-0.5L0,-3.0L2.5,-0.5"/>
                </g>
                <g id="arrowRight" xlink:href="#dirArrow" transform="rotate(90) translate(36 -43)" onmousedown="handlePan(1,0)">
                  <use xlink:href="#rim" fill="#404040">
                        <set attributeName="fill" to="#808080" begin="arrowRight.mouseover" end="arrowRight.mouseout"/>
                  </use>
                  <path fill="none" stroke="white" stroke-width="1.5" d="M0,-3.0v7 M-2.5,-0.5L0,-3.0L2.5,-0.5"/>
                </g>
                <g id="arrowDown" xlink:href="#dirArrow" transform="rotate(180) translate(-30 -48)" onmousedown="handlePan(0,1)">
                  <use xlink:href="#rim" fill="#404040">
                        <set attributeName="fill" to="#808080" begin="arrowDown.mouseover" end="arrowDown.mouseout"/>
                  </use>
                  <path fill="none" stroke="white" stroke-width="1.5" d="M0,-3.0v7 M-2.5,-0.5L0,-3.0L2.5,-0.5"/>
                </g>
                <g id="arrowLeft" xlink:href="#dirArrow" transform="rotate(270) translate(-36 17)" onmousedown="handlePan(-1,0)">
                  <use xlink:href="#rim" fill="#404040">
                        <set attributeName="fill" to="#808080" begin="arrowLeft.mouseover" end="arrowLeft.mouseout"/>
                  </use>
                  <path fill="none" stroke="white" stroke-width="1.5" d="M0,-3.0v7 M-2.5,-0.5L0,-3.0L2.5,-0.5"/>
                </g>
        </g>
        <svg viewBox="0 0 15 15" width="100%" height="30px" preserveAspectRatio="xMaxYMin meet">
         <g id="arrow_out" transform="scale(0.3 0.3)">
          <a xlink:href="pdi_8h_a929da17f2f3367e7cf9d6e6c654a152e_cgraph_org.svg" target="_base">
           <rect id="button" ry="5" rx="5" y="6" x="6" height="38" width="38"
                fill="#f2f5e9" fill-opacity="0.5" stroke="#606060" stroke-width="1.0"/>
           <path id="arrow"
             d="M 11.500037,31.436501 C 11.940474,20.09759 22.043105,11.32322 32.158766,21.979434 L 37.068811,17.246167 C 37.068811,17.246167 37.088388,32 37.088388,32 L 22.160133,31.978069 C 22.160133,31.978069 26.997745,27.140456 26.997745,27.140456 C 18.528582,18.264221 13.291696,25.230495 11.500037,31.436501 z"
             style="fill:#404040;"/>
          </a>
         </g>
        </svg>
</svg>
