<?xml version="1.0" encoding="UTF-8" standalone="no"?>
<!DOCTYPE svg PUBLIC "-//W3C//DTD SVG 1.1//EN"
 "http://www.w3.org/Graphics/SVG/1.1/DTD/svg11.dtd">
<!-- Generated by graphviz version 2.40.1 (20161225.0304)
 -->
<!-- Title: PDI_share Pages: 1 -->
<svg width="212pt" height="66pt"
 viewBox="0.00 0.00 212.00 66.00" xmlns="http://www.w3.org/2000/svg" xmlns:xlink="http://www.w3.org/1999/xlink">
<g id="graph0" class="graph" transform="scale(1 1) rotate(0) translate(4 62)">
<title>PDI_share</title>
<polygon fill="#ffffff" stroke="transparent" points="-4,4 -4,-62 208,-62 208,4 -4,4"/>
<!-- Node53 -->
<g id="node1" class="node">
<title>Node53</title>
<polygon fill="#bfbfbf" stroke="#000000" points="0,-19.5 0,-38.5 67,-38.5 67,-19.5 0,-19.5"/>
<text text-anchor="middle" x="33.5" y="-26.5" font-family="Helvetica,sans-Serif" font-size="10.00" fill="#000000">PDI_share</text>
</g>
<!-- Node54 -->
<g id="node2" class="node">
<title>Node54</title>
<g id="a_node2"><a xlink:href="pdi_8cxx.html#abf3f81774644eff9a3cf511e57273454" target="_top" xlink:title="PDI_expose">
<polygon fill="#ffffff" stroke="#000000" points="116.5,-38.5 116.5,-57.5 190.5,-57.5 190.5,-38.5 116.5,-38.5"/>
<text text-anchor="middle" x="153.5" y="-45.5" font-family="Helvetica,sans-Serif" font-size="10.00" fill="#000000">PDI_expose</text>
</a>
</g>
</g>
<!-- Node53&#45;&gt;Node54 -->
<g id="edge1" class="edge">
<title>Node53&#45;&gt;Node54</title>
<path fill="none" stroke="#191970" d="M77.2241,-35.923C90.0125,-37.9478 103.8681,-40.1416 116.2172,-42.0969"/>
<polygon fill="#191970" stroke="#191970" points="77.6704,-32.4501 67.246,-34.3431 76.5756,-39.364 77.6704,-32.4501"/>
</g>
<!-- Node55 -->
<g id="node3" class="node">
<title>Node55</title>
<g id="a_node3"><a xlink:href="pdi_8cxx.html#ae5c670b378e423e3083122f62c1f0a59" target="_top" xlink:title="PDI_multi_expose">
<polygon fill="#ffffff" stroke="#000000" points="103,-.5 103,-19.5 204,-19.5 204,-.5 103,-.5"/>
<text text-anchor="middle" x="153.5" y="-7.5" font-family="Helvetica,sans-Serif" font-size="10.00" fill="#000000">PDI_multi_expose</text>
</a>
</g>
</g>
<!-- Node53&#45;&gt;Node55 -->
<g id="edge2" class="edge">
<title>Node53&#45;&gt;Node55</title>
<path fill="none" stroke="#191970" d="M77.1896,-22.0825C85.5681,-20.7559 94.4058,-19.3566 102.9787,-17.9992"/>
<polygon fill="#191970" stroke="#191970" points="76.5756,-18.636 67.246,-23.6569 77.6704,-25.5499 76.5756,-18.636"/>
</g>
</g>
</svg>
