<?xml version="1.0" encoding="UTF-8" standalone="no"?>
<!DOCTYPE svg PUBLIC "-//W3C//DTD SVG 1.1//EN"
 "http://www.w3.org/Graphics/SVG/1.1/DTD/svg11.dtd">
<!-- Generated by graphviz version 2.40.1 (20161225.0304)
 -->
<!-- Title: PDI_event Pages: 1 -->
<svg width="226pt" height="66pt"
 viewBox="0.00 0.00 226.00 66.00" xmlns="http://www.w3.org/2000/svg" xmlns:xlink="http://www.w3.org/1999/xlink">
<g id="graph0" class="graph" transform="scale(1 1) rotate(0) translate(4 62)">
<title>PDI_event</title>
<polygon fill="#ffffff" stroke="transparent" points="-4,4 -4,-62 222,-62 222,4 -4,4"/>
<!-- Node14 -->
<g id="node1" class="node">
<title>Node14</title>
<polygon fill="#bfbfbf" stroke="#000000" points="0,-19.5 0,-38.5 66,-38.5 66,-19.5 0,-19.5"/>
<text text-anchor="middle" x="33" y="-26.5" font-family="Helvetica,sans-Serif" font-size="10.00" fill="#000000">PDI_event</text>
</g>
<!-- Node15 -->
<g id="node2" class="node">
<title>Node15</title>
<g id="a_node2"><a xlink:href="pdi_8cxx.html#ae5c670b378e423e3083122f62c1f0a59" target="_top" xlink:title="PDI_multi_expose">
<polygon fill="#ffffff" stroke="#000000" points="109.5,-38.5 109.5,-57.5 210.5,-57.5 210.5,-38.5 109.5,-38.5"/>
<text text-anchor="middle" x="160" y="-45.5" font-family="Helvetica,sans-Serif" font-size="10.00" fill="#000000">PDI_multi_expose</text>
</a>
</g>
</g>
<!-- Node14&#45;&gt;Node15 -->
<g id="edge1" class="edge">
<title>Node14&#45;&gt;Node15</title>
<path fill="none" stroke="#191970" d="M76.0085,-35.4343C86.7374,-37.0394 98.3404,-38.7753 109.3985,-40.4297"/>
<polygon fill="#191970" stroke="#191970" points="76.444,-31.9606 66.0362,-33.9424 75.4083,-38.8836 76.444,-31.9606"/>
</g>
<!-- Node16 -->
<g id="node3" class="node">
<title>Node16</title>
<g id="a_node3"><a xlink:href="pdi_8cxx.html#aec4ebe672273ed893952e34bc408ba73" target="_top" xlink:title="PDI_transaction_end">
<polygon fill="#ffffff" stroke="#000000" points="102,-.5 102,-19.5 218,-19.5 218,-.5 102,-.5"/>
<text text-anchor="middle" x="160" y="-7.5" font-family="Helvetica,sans-Serif" font-size="10.00" fill="#000000">PDI_transaction_end</text>
</a>
</g>
</g>
<!-- Node14&#45;&gt;Node16 -->
<g id="edge2" class="edge">
<title>Node14&#45;&gt;Node16</title>
<path fill="none" stroke="#191970" d="M76.0896,-22.5535C84.2779,-21.3285 92.9728,-20.0277 101.5444,-18.7453"/>
<polygon fill="#191970" stroke="#191970" points="75.4083,-19.1164 66.0362,-24.0576 76.444,-26.0394 75.4083,-19.1164"/>
</g>
</g>
</svg>
