<?xml version="1.0" encoding="UTF-8" standalone="no"?>
<!DOCTYPE svg PUBLIC "-//W3C//DTD SVG 1.1//EN"
 "http://www.w3.org/Graphics/SVG/1.1/DTD/svg11.dtd">
<!-- Generated by graphviz version 2.40.1 (20161225.0304)
 -->
<!-- Title: /home/jbigot/data/projects/pdi/pdi/src/pdi.cxx Pages: 1 -->
<!--zoomable 655 -->
<svg id="main" version="1.1" xmlns="http://www.w3.org/2000/svg" xmlns:xlink="http://www.w3.org/1999/xlink" xml:space="preserve" onload="init(evt)">
<style type="text/css"><![CDATA[
.edge:hover path { stroke: red; }
.edge:hover polygon { stroke: red; fill: red; }
]]></style>
<script type="text/javascript"><![CDATA[
var edges = document.getElementsByTagName('g');
if (edges && edges.length) {
  for (var i=0;i<edges.length;i++) {
    if (edges[i].id.substr(0,4)=='edge') {
      edges[i].setAttribute('class','edge');
    }
  }
}
]]></script>
        <defs>
                <circle id="rim" cx="0" cy="0" r="7"/>
                <circle id="rim2" cx="0" cy="0" r="3.5"/>
                <g id="zoomPlus">
                        <use xlink:href="#rim" fill="#404040">
                                <set attributeName="fill" to="#808080" begin="zoomplus.mouseover" end="zoomplus.mouseout"/>
                        </use>
                        <path d="M-4,0h8M0,-4v8" fill="none" stroke="white" stroke-width="1.5" pointer-events="none"/>
                </g>
                <g id="zoomMin">
                        <use xlink:href="#rim" fill="#404040">
                                <set attributeName="fill" to="#808080" begin="zoomminus.mouseover" end="zoomminus.mouseout"/>
                        </use>
                        <path d="M-4,0h8" fill="none" stroke="white" stroke-width="1.5" pointer-events="none"/>
                </g>
                <g id="dirArrow">
                        <path fill="none" stroke="white" stroke-width="1.5" d="M0,-3.0v7 M-2.5,-0.5L0,-3.0L2.5,-0.5"/>
                </g>
               <g id="resetDef">
                       <use xlink:href="#rim2" fill="#404040">
                               <set attributeName="fill" to="#808080" begin="reset.mouseover" end="reset.mouseout"/>
                       </use>
               </g>
        </defs>

<script type="text/javascript">
var viewWidth = 1953;
var viewHeight = 655;
var sectionId = 'dynsection-0';
</script>
<script xlink:href="svgpan.js"/>
<svg id="graph" class="graph">
<g id="viewport">
<title>/home/jbigot/data/projects/pdi/pdi/src/pdi.cxx</title>
<polygon fill="#ffffff" stroke="transparent" points="-4,4 -4,-651 1949,-651 1949,4 -4,4"/>
<!-- Node0 -->
<g id="node1" class="node">
<title>Node0</title>
<polygon fill="#bfbfbf" stroke="#000000" points="1039.5,-616.5 1039.5,-646.5 1177.5,-646.5 1177.5,-616.5 1039.5,-616.5"/>
<text text-anchor="start" x="1047.5" y="-634.5" font-family="Helvetica,sans-Serif" font-size="10.00" fill="#000000">/home/jbigot/data/projects</text>
<text text-anchor="middle" x="1108.5" y="-623.5" font-family="Helvetica,sans-Serif" font-size="10.00" fill="#000000">/pdi/pdi/src/pdi.cxx</text>
</g>
<!-- Node1 -->
<g id="node2" class="node">
<title>Node1</title>
<polygon fill="#ffffff" stroke="#bfbfbf" points="0,-560.5 0,-579.5 53,-579.5 53,-560.5 0,-560.5"/>
<text text-anchor="middle" x="26.5" y="-567.5" font-family="Helvetica,sans-Serif" font-size="10.00" fill="#000000">config.h</text>
</g>
<!-- Node0&#45;&gt;Node1 -->
<g id="edge1" class="edge">
<title>Node0&#45;&gt;Node1</title>
<path fill="none" stroke="#191970" d="M1039.304,-630.164C840.6264,-626.0058 269.9693,-611.7243 63.2634,-579.9092"/>
<polygon fill="#191970" stroke="#191970" points="63.5371,-576.4085 53.1094,-578.2829 62.43,-583.3204 63.5371,-576.4085"/>
</g>
<!-- Node2 -->
<g id="node3" class="node">
<title>Node2</title>
<polygon fill="#ffffff" stroke="#bfbfbf" points="71,-560.5 71,-579.5 122,-579.5 122,-560.5 71,-560.5"/>
<text text-anchor="middle" x="96.5" y="-567.5" font-family="Helvetica,sans-Serif" font-size="10.00" fill="#000000">cstddef</text>
</g>
<!-- Node0&#45;&gt;Node2 -->
<g id="edge2" class="edge">
<title>Node0&#45;&gt;Node2</title>
<path fill="none" stroke="#191970" d="M1039.2122,-629.5595C847.1956,-623.9062 310.9267,-606.1759 136.5,-580 135.04,-579.7809 133.5556,-579.5322 132.0602,-579.2601"/>
<polygon fill="#191970" stroke="#191970" points="132.6791,-575.8138 122.1741,-577.1901 131.2445,-582.6653 132.6791,-575.8138"/>
</g>
<!-- Node3 -->
<g id="node4" class="node">
<title>Node3</title>
<polygon fill="#ffffff" stroke="#bfbfbf" points="178.5,-280.5 178.5,-299.5 240.5,-299.5 240.5,-280.5 178.5,-280.5"/>
<text text-anchor="middle" x="209.5" y="-287.5" font-family="Helvetica,sans-Serif" font-size="10.00" fill="#000000">exception</text>
</g>
<!-- Node0&#45;&gt;Node3 -->
<g id="edge3" class="edge">
<title>Node0&#45;&gt;Node3</title>
<path fill="none" stroke="#191970" d="M1039.355,-629.6232C882.2716,-624.8741 502.5658,-610.525 378.5,-580 307.3793,-562.5015 227.5,-587.2417 227.5,-514 227.5,-514 227.5,-514 227.5,-402 227.5,-369.1472 219.8569,-331.5528 214.5316,-309.3462"/>
<polygon fill="#191970" stroke="#191970" points="217.8935,-308.3622 212.079,-299.5055 211.1013,-310.0551 217.8935,-308.3622"/>
</g>
<!-- Node4 -->
<g id="node5" class="node">
<title>Node4</title>
<polygon fill="#ffffff" stroke="#bfbfbf" points="1551,-560.5 1551,-579.5 1604,-579.5 1604,-560.5 1551,-560.5"/>
<text text-anchor="middle" x="1577.5" y="-567.5" font-family="Helvetica,sans-Serif" font-size="10.00" fill="#000000">iomanip</text>
</g>
<!-- Node0&#45;&gt;Node4 -->
<g id="edge4" class="edge">
<title>Node0&#45;&gt;Node4</title>
<path fill="none" stroke="#191970" d="M1177.8194,-625.7268C1262.7824,-618.0613 1410.9452,-602.7812 1536.5,-580 1537.9418,-579.7384 1539.4086,-579.4566 1540.8876,-579.1594"/>
<polygon fill="#191970" stroke="#191970" points="1541.6655,-582.5722 1550.692,-577.0248 1540.1763,-575.7324 1541.6655,-582.5722"/>
</g>
<!-- Node5 -->
<g id="node6" class="node">
<title>Node5</title>
<polygon fill="#ffffff" stroke="#bfbfbf" points="1622,-560.5 1622,-579.5 1679,-579.5 1679,-560.5 1622,-560.5"/>
<text text-anchor="middle" x="1650.5" y="-567.5" font-family="Helvetica,sans-Serif" font-size="10.00" fill="#000000">iostream</text>
</g>
<!-- Node0&#45;&gt;Node5 -->
<g id="edge5" class="edge">
<title>Node0&#45;&gt;Node5</title>
<path fill="none" stroke="#191970" d="M1177.6154,-628.0122C1273.3495,-622.3925 1451.7389,-609.0765 1611.8878,-580.0592"/>
<polygon fill="#191970" stroke="#191970" points="1612.7191,-583.4651 1621.9221,-578.2158 1611.4543,-576.5803 1612.7191,-583.4651"/>
</g>
<!-- Node6 -->
<g id="node7" class="node">
<title>Node6</title>
<polygon fill="#ffffff" stroke="#bfbfbf" points="1247,-448.5 1247,-467.5 1276,-467.5 1276,-448.5 1247,-448.5"/>
<text text-anchor="middle" x="1261.5" y="-455.5" font-family="Helvetica,sans-Serif" font-size="10.00" fill="#000000">list</text>
</g>
<!-- Node0&#45;&gt;Node6 -->
<g id="edge6" class="edge">
<title>Node0&#45;&gt;Node6</title>
<path fill="none" stroke="#191970" d="M1144.8767,-616.4359C1179.9197,-599.6804 1230.7262,-568.9176 1252.5,-524 1259.436,-509.6915 1261.5176,-491.7133 1261.9586,-478.1354"/>
<polygon fill="#191970" stroke="#191970" points="1265.4595,-477.9607 1262.0136,-467.9419 1258.4596,-477.9228 1265.4595,-477.9607"/>
</g>
<!-- Node7 -->
<g id="node8" class="node">
<title>Node7</title>
<polygon fill="#ffffff" stroke="#bfbfbf" points="323,-112.5 323,-131.5 366,-131.5 366,-112.5 323,-112.5"/>
<text text-anchor="middle" x="344.5" y="-119.5" font-family="Helvetica,sans-Serif" font-size="10.00" fill="#000000">string</text>
</g>
<!-- Node0&#45;&gt;Node7 -->
<g id="edge7" class="edge">
<title>Node0&#45;&gt;Node7</title>
<path fill="none" stroke="#191970" d="M1039.3239,-629.4519C848.2597,-623.5008 322.4851,-605.0325 248.5,-580 198.7579,-563.17 150.5,-566.5122 150.5,-514 150.5,-514 150.5,-514 150.5,-346 150.5,-245.2953 263.9259,-167.6297 317.3185,-136.649"/>
<polygon fill="#191970" stroke="#191970" points="319.2809,-139.5597 326.249,-131.5787 315.8247,-133.4724 319.2809,-139.5597"/>
</g>
<!-- Node8 -->
<g id="node9" class="node">
<title>Node8</title>
<polygon fill="#ffffff" stroke="#bfbfbf" points="1697.5,-560.5 1697.5,-579.5 1751.5,-579.5 1751.5,-560.5 1697.5,-560.5"/>
<text text-anchor="middle" x="1724.5" y="-567.5" font-family="Helvetica,sans-Serif" font-size="10.00" fill="#000000">sstream</text>
</g>
<!-- Node0&#45;&gt;Node8 -->
<g id="edge8" class="edge">
<title>Node0&#45;&gt;Node8</title>
<path fill="none" stroke="#191970" d="M1177.792,-629.428C1285.2527,-625.3171 1498.5388,-613.5759 1687.6541,-579.8497"/>
<polygon fill="#191970" stroke="#191970" points="1688.2781,-583.2937 1697.4959,-578.0705 1687.0328,-576.4053 1688.2781,-583.2937"/>
</g>
<!-- Node9 -->
<g id="node10" class="node">
<title>Node9</title>
<polygon fill="#ffffff" stroke="#bfbfbf" points="1769.5,-560.5 1769.5,-579.5 1835.5,-579.5 1835.5,-560.5 1769.5,-560.5"/>
<text text-anchor="middle" x="1802.5" y="-567.5" font-family="Helvetica,sans-Serif" font-size="10.00" fill="#000000">type_traits</text>
</g>
<!-- Node0&#45;&gt;Node9 -->
<g id="edge9" class="edge">
<title>Node0&#45;&gt;Node9</title>
<path fill="none" stroke="#191970" d="M1177.9127,-629.5458C1295.7109,-625.456 1542.3033,-613.5496 1759.1458,-580.0021"/>
<polygon fill="#191970" stroke="#191970" points="1759.7843,-583.4449 1769.1224,-578.4399 1758.7013,-576.5292 1759.7843,-583.4449"/>
</g>
<!-- Node10 -->
<g id="node11" class="node">
<title>Node10</title>
<polygon fill="#ffffff" stroke="#bfbfbf" points="1294.5,-448.5 1294.5,-467.5 1380.5,-467.5 1380.5,-448.5 1294.5,-448.5"/>
<text text-anchor="middle" x="1337.5" y="-455.5" font-family="Helvetica,sans-Serif" font-size="10.00" fill="#000000">unordered_set</text>
</g>
<!-- Node0&#45;&gt;Node10 -->
<g id="edge10" class="edge">
<title>Node0&#45;&gt;Node10</title>
<path fill="none" stroke="#191970" d="M1157.02,-616.4663C1180.2258,-607.9192 1207.6415,-595.7471 1229.5,-580 1270.7916,-550.253 1307.3851,-502.0638 1325.4911,-476.0444"/>
<polygon fill="#191970" stroke="#191970" points="1328.5516,-477.7688 1331.2997,-467.5366 1322.7705,-473.8218 1328.5516,-477.7688"/>
</g>
<!-- Node11 -->
<g id="node12" class="node">
<title>Node11</title>
<polygon fill="#ffffff" stroke="#bfbfbf" points="1854,-560.5 1854,-579.5 1945,-579.5 1945,-560.5 1854,-560.5"/>
<text text-anchor="middle" x="1899.5" y="-567.5" font-family="Helvetica,sans-Serif" font-size="10.00" fill="#000000">spdlog/spdlog.h</text>
</g>
<!-- Node0&#45;&gt;Node11 -->
<g id="edge11" class="edge">
<title>Node0&#45;&gt;Node11</title>
<path fill="none" stroke="#191970" d="M1177.7465,-629.1956C1306.7669,-624.3468 1592.8103,-610.9851 1843.8969,-579.9359"/>
<polygon fill="#191970" stroke="#191970" points="1844.4517,-583.3939 1853.941,-578.682 1843.5845,-576.4478 1844.4517,-583.3939"/>
</g>
<!-- Node12 -->
<g id="node13" class="node">
<title>Node12</title>
<g id="a_node13"><a xlink:href="context_8h.html" target="_top" xlink:title="pdi/context.h">
<polygon fill="#ffffff" stroke="#000000" points="949,-504.5 949,-523.5 1026,-523.5 1026,-504.5 949,-504.5"/>
<text text-anchor="middle" x="987.5" y="-511.5" font-family="Helvetica,sans-Serif" font-size="10.00" fill="#000000">pdi/context.h</text>
</a>
</g>
</g>
<!-- Node0&#45;&gt;Node12 -->
<g id="edge12" class="edge">
<title>Node0&#45;&gt;Node12</title>
<path fill="none" stroke="#191970" d="M1092.6814,-616.1389C1069.8902,-594.007 1027.9851,-553.314 1004.5351,-530.5423"/>
<polygon fill="#191970" stroke="#191970" points="1006.9566,-528.0151 997.3442,-523.5595 1002.08,-533.037 1006.9566,-528.0151"/>
</g>
<!-- Node22 -->
<g id="node23" class="node">
<title>Node22</title>
<g id="a_node23"><a xlink:href="data__descriptor_8h.html" target="_top" xlink:title="pdi/data_descriptor.h">
<polygon fill="#ffffff" stroke="#000000" points="672.5,-448.5 672.5,-467.5 788.5,-467.5 788.5,-448.5 672.5,-448.5"/>
<text text-anchor="middle" x="730.5" y="-455.5" font-family="Helvetica,sans-Serif" font-size="10.00" fill="#000000">pdi/data_descriptor.h</text>
</a>
</g>
</g>
<!-- Node0&#45;&gt;Node22 -->
<g id="edge56" class="edge">
<title>Node0&#45;&gt;Node22</title>
<path fill="none" stroke="#191970" d="M1039.3227,-624.2546C965.5771,-613.4315 848.7367,-587.0448 769.5,-524 754.2471,-511.864 743.6822,-492.0132 737.4333,-477.2465"/>
<polygon fill="#191970" stroke="#191970" points="740.5501,-475.6074 733.6407,-467.5756 734.0333,-478.1631 740.5501,-475.6074"/>
</g>
<!-- Node24 -->
<g id="node25" class="node">
<title>Node24</title>
<g id="a_node25"><a xlink:href="logger_8h.html" target="_top" xlink:title="pdi/logger.h">
<polygon fill="#ffffff" stroke="#000000" points="1032.5,-224.5 1032.5,-243.5 1104.5,-243.5 1104.5,-224.5 1032.5,-224.5"/>
<text text-anchor="middle" x="1068.5" y="-231.5" font-family="Helvetica,sans-Serif" font-size="10.00" fill="#000000">pdi/logger.h</text>
</a>
</g>
</g>
<!-- Node0&#45;&gt;Node24 -->
<g id="edge57" class="edge">
<title>Node0&#45;&gt;Node24</title>
<path fill="none" stroke="#191970" d="M1177.6289,-617.4105C1277.7328,-593.5864 1445.3015,-538.8583 1389.5,-448 1370.9842,-417.8517 1347.588,-432.1405 1318.5,-412 1247.12,-362.5766 1247.3263,-327.2664 1174.5,-280 1153.4362,-266.329 1127.6279,-255.0292 1106.7511,-247.0504"/>
<polygon fill="#191970" stroke="#191970" points="1107.8346,-243.7191 1097.2418,-243.5132 1105.3941,-250.28 1107.8346,-243.7191"/>
</g>
<!-- Node25 -->
<g id="node26" class="node">
<title>Node25</title>
<g id="a_node26"><a xlink:href="paraconf__wrapper_8h.html" target="_top" xlink:title="pdi/paraconf_wrapper.h">
<polygon fill="#ffffff" stroke="#000000" points="487,-168.5 487,-187.5 616,-187.5 616,-168.5 487,-168.5"/>
<text text-anchor="middle" x="551.5" y="-175.5" font-family="Helvetica,sans-Serif" font-size="10.00" fill="#000000">pdi/paraconf_wrapper.h</text>
</a>
</g>
</g>
<!-- Node0&#45;&gt;Node25 -->
<g id="edge58" class="edge">
<title>Node0&#45;&gt;Node25</title>
<path fill="none" stroke="#191970" d="M1039.3819,-626.9001C864.9145,-614.3682 420.5,-576.3288 420.5,-514 420.5,-514 420.5,-514 420.5,-458 420.5,-349.5481 502.1263,-237.8447 536.5125,-195.5995"/>
<polygon fill="#191970" stroke="#191970" points="539.222,-197.8153 542.9047,-187.8811 533.8307,-193.3504 539.222,-197.8153"/>
</g>
<!-- Node26 -->
<g id="node27" class="node">
<title>Node26</title>
<g id="a_node27"><a xlink:href="ref__any_8h.html" target="_top" xlink:title="pdi/ref_any.h">
<polygon fill="#ffffff" stroke="#000000" points="782.5,-392.5 782.5,-411.5 860.5,-411.5 860.5,-392.5 782.5,-392.5"/>
<text text-anchor="middle" x="821.5" y="-399.5" font-family="Helvetica,sans-Serif" font-size="10.00" fill="#000000">pdi/ref_any.h</text>
</a>
</g>
</g>
<!-- Node0&#45;&gt;Node26 -->
<g id="edge62" class="edge">
<title>Node0&#45;&gt;Node26</title>
<path fill="none" stroke="#191970" d="M1039.3966,-627.4701C979.95,-622.0601 892.9047,-609.4284 822.5,-580 742.7482,-546.6646 703.3051,-544.7278 663.5,-468 659.4066,-460.1097 658.1649,-455.1098 663.5,-448 676.6877,-430.4253 731.0689,-417.3632 772.3804,-409.7357"/>
<polygon fill="#191970" stroke="#191970" points="773.075,-413.1671 782.3021,-407.9603 771.8419,-406.2765 773.075,-413.1671"/>
</g>
<!-- Node29 -->
<g id="node30" class="node">
<title>Node29</title>
<g id="a_node30"><a xlink:href="datatype_8h.html" target="_top" xlink:title="pdi/datatype.h">
<polygon fill="#ffffff" stroke="#000000" points="563,-336.5 563,-355.5 646,-355.5 646,-336.5 563,-336.5"/>
<text text-anchor="middle" x="604.5" y="-343.5" font-family="Helvetica,sans-Serif" font-size="10.00" fill="#000000">pdi/datatype.h</text>
</a>
</g>
</g>
<!-- Node0&#45;&gt;Node29 -->
<g id="edge64" class="edge">
<title>Node0&#45;&gt;Node29</title>
<path fill="none" stroke="#191970" d="M1039.3229,-624.4838C954.6982,-615.3011 816.7408,-598.2198 768.5,-580 725.4815,-563.7525 711.7098,-558.669 681.5,-524 639.385,-475.6684 617.3231,-400.7704 608.7813,-365.5562"/>
<polygon fill="#191970" stroke="#191970" points="612.1417,-364.5533 606.4748,-355.6014 605.3224,-366.1334 612.1417,-364.5533"/>
</g>
<!-- Node30 -->
<g id="node31" class="node">
<title>Node30</title>
<g id="a_node31"><a xlink:href="error_8h.html" target="_top" xlink:title="pdi/error.h">
<polygon fill="#ffffff" stroke="#000000" points="319,-336.5 319,-355.5 384,-355.5 384,-336.5 319,-336.5"/>
<text text-anchor="middle" x="351.5" y="-343.5" font-family="Helvetica,sans-Serif" font-size="10.00" fill="#000000">pdi/error.h</text>
</a>
</g>
</g>
<!-- Node0&#45;&gt;Node30 -->
<g id="edge63" class="edge">
<title>Node0&#45;&gt;Node30</title>
<path fill="none" stroke="#191970" d="M1039.2461,-630.1529C872.545,-626.3846 458.827,-613.713 406.5,-580 378.4116,-561.9034 370.5,-547.4132 370.5,-514 370.5,-514 370.5,-514 370.5,-458 370.5,-425.2688 362.5148,-387.9052 356.8978,-365.6716"/>
<polygon fill="#191970" stroke="#191970" points="360.2289,-364.5763 354.3035,-355.7934 353.4585,-366.3545 360.2289,-364.5763"/>
</g>
<!-- Node31 -->
<g id="node32" class="node">
<title>Node31</title>
<g id="a_node32"><a xlink:href="plugin_8h.html" target="_top" xlink:title="pdi/plugin.h">
<polygon fill="#ffffff" stroke="#000000" points="1327.5,-392.5 1327.5,-411.5 1397.5,-411.5 1397.5,-392.5 1327.5,-392.5"/>
<text text-anchor="middle" x="1362.5" y="-399.5" font-family="Helvetica,sans-Serif" font-size="10.00" fill="#000000">pdi/plugin.h</text>
</a>
</g>
</g>
<!-- Node0&#45;&gt;Node31 -->
<g id="edge59" class="edge">
<title>Node0&#45;&gt;Node31</title>
<path fill="none" stroke="#191970" d="M1177.9144,-627.2355C1284.3293,-619.9819 1477.7342,-603.6882 1498.5,-580 1520.7663,-554.6002 1513.6059,-534.2118 1498.5,-504 1477.1166,-461.2331 1428.3312,-431.7457 1395.3899,-415.8578"/>
<polygon fill="#191970" stroke="#191970" points="1396.6824,-412.5988 1386.1396,-411.5507 1393.7277,-418.9447 1396.6824,-412.5988"/>
</g>
<!-- Node32 -->
<g id="node33" class="node">
<title>Node32</title>
<g id="a_node33"><a xlink:href="global__context_8h.html" target="_top" xlink:title="global_context.h">
<polygon fill="#ffffff" stroke="#000000" points="1096,-560.5 1096,-579.5 1189,-579.5 1189,-560.5 1096,-560.5"/>
<text text-anchor="middle" x="1142.5" y="-567.5" font-family="Helvetica,sans-Serif" font-size="10.00" fill="#000000">global_context.h</text>
</a>
</g>
</g>
<!-- Node0&#45;&gt;Node32 -->
<g id="edge65" class="edge">
<title>Node0&#45;&gt;Node32</title>
<path fill="none" stroke="#191970" d="M1116.9045,-616.2977C1121.5257,-607.9388 1127.2969,-597.4997 1132.1889,-588.6509"/>
<polygon fill="#191970" stroke="#191970" points="1135.2809,-590.292 1137.0562,-579.8469 1129.1548,-586.9051 1135.2809,-590.292"/>
</g>
<!-- Node12&#45;&gt;Node6 -->
<g id="edge14" class="edge">
<title>Node12&#45;&gt;Node6</title>
<path fill="none" stroke="#191970" d="M1026.1764,-506.0953C1083.3821,-494.4037 1188.9291,-472.832 1236.7722,-463.0539"/>
<polygon fill="#191970" stroke="#191970" points="1237.7552,-466.4254 1246.8518,-460.9938 1236.3535,-459.5672 1237.7552,-466.4254"/>
</g>
<!-- Node12&#45;&gt;Node7 -->
<g id="edge17" class="edge">
<title>Node12&#45;&gt;Node7</title>
<path fill="none" stroke="#191970" d="M948.8504,-511.5723C816.1092,-502.3067 382.9622,-464.0795 309.5,-356 263.1112,-287.7516 311.0829,-182.5156 333.8847,-140.3725"/>
<polygon fill="#191970" stroke="#191970" points="337.0153,-141.9446 338.8218,-131.5049 330.8993,-138.5395 337.0153,-141.9446"/>
</g>
<!-- Node12&#45;&gt;Node10 -->
<g id="edge19" class="edge">
<title>Node12&#45;&gt;Node10</title>
<path fill="none" stroke="#191970" d="M1026.1497,-508.4982C1081.2133,-500.5581 1185.6457,-485.1238 1284.5338,-468.1203"/>
<polygon fill="#191970" stroke="#191970" points="1285.1343,-471.5685 1294.3922,-466.4167 1283.9422,-464.6708 1285.1343,-471.5685"/>
</g>
<!-- Node13 -->
<g id="node14" class="node">
<title>Node13</title>
<polygon fill="#ffffff" stroke="#bfbfbf" points="940.5,-336.5 940.5,-355.5 1002.5,-355.5 1002.5,-336.5 940.5,-336.5"/>
<text text-anchor="middle" x="971.5" y="-343.5" font-family="Helvetica,sans-Serif" font-size="10.00" fill="#000000">functional</text>
</g>
<!-- Node12&#45;&gt;Node13 -->
<g id="edge13" class="edge">
<title>Node12&#45;&gt;Node13</title>
<path fill="none" stroke="#191970" d="M960.899,-504.397C944.9127,-497.0839 925.9002,-485.291 916.5,-468 900.3668,-438.3241 902.2003,-422.6016 916.5,-392 922.4463,-379.2749 933.8358,-368.8307 944.715,-361.129"/>
<polygon fill="#191970" stroke="#191970" points="946.777,-363.9622 953.2167,-355.5491 942.936,-358.1101 946.777,-363.9622"/>
</g>
<!-- Node14 -->
<g id="node15" class="node">
<title>Node14</title>
<polygon fill="#ffffff" stroke="#bfbfbf" points="1284.5,-56.5 1284.5,-75.5 1338.5,-75.5 1338.5,-56.5 1284.5,-56.5"/>
<text text-anchor="middle" x="1311.5" y="-63.5" font-family="Helvetica,sans-Serif" font-size="10.00" fill="#000000">memory</text>
</g>
<!-- Node12&#45;&gt;Node14 -->
<g id="edge15" class="edge">
<title>Node12&#45;&gt;Node14</title>
<path fill="none" stroke="#191970" d="M998.044,-504.0693C1012.5004,-490.6661 1039.5319,-466.3533 1064.5,-448 1208.9725,-341.803 1406.5,-413.3046 1406.5,-234 1406.5,-234 1406.5,-234 1406.5,-178 1406.5,-134.9765 1365.2265,-100.0102 1337.0891,-81.1715"/>
<polygon fill="#191970" stroke="#191970" points="1338.787,-78.102 1328.4841,-75.632 1334.9979,-83.9879 1338.787,-78.102"/>
</g>
<!-- Node15 -->
<g id="node16" class="node">
<title>Node15</title>
<polygon fill="#ffffff" stroke="#bfbfbf" points="1073,-448.5 1073,-467.5 1114,-467.5 1114,-448.5 1073,-448.5"/>
<text text-anchor="middle" x="1093.5" y="-455.5" font-family="Helvetica,sans-Serif" font-size="10.00" fill="#000000">stack</text>
</g>
<!-- Node12&#45;&gt;Node15 -->
<g id="edge16" class="edge">
<title>Node12&#45;&gt;Node15</title>
<path fill="none" stroke="#191970" d="M1005.9638,-504.2455C1022.6074,-495.4527 1047.2993,-482.4079 1066.2192,-472.4125"/>
<polygon fill="#191970" stroke="#191970" points="1068.0408,-475.4086 1075.2478,-467.6427 1064.7709,-469.2193 1068.0408,-475.4086"/>
</g>
<!-- Node16 -->
<g id="node17" class="node">
<title>Node16</title>
<polygon fill="#ffffff" stroke="#bfbfbf" points="1096.5,-336.5 1096.5,-355.5 1188.5,-355.5 1188.5,-336.5 1096.5,-336.5"/>
<text text-anchor="middle" x="1142.5" y="-343.5" font-family="Helvetica,sans-Serif" font-size="10.00" fill="#000000">unordered_map</text>
</g>
<!-- Node12&#45;&gt;Node16 -->
<g id="edge18" class="edge">
<title>Node12&#45;&gt;Node16</title>
<path fill="none" stroke="#191970" d="M991.2354,-504.3153C1000.2143,-482.0709 1024.9315,-426.5869 1060.5,-392 1074.2615,-378.6183 1092.6825,-367.8243 1108.5786,-360.0642"/>
<polygon fill="#191970" stroke="#191970" points="1110.5034,-363.0284 1118.0857,-355.6285 1107.5437,-356.6849 1110.5034,-363.0284"/>
</g>
<!-- Node17 -->
<g id="node18" class="node">
<title>Node17</title>
<g id="a_node18"><a xlink:href="pdi__fwd_8h.html" target="_top" xlink:title="pdi/pdi_fwd.h">
<polygon fill="#ffffff" stroke="#000000" points="738,-112.5 738,-131.5 817,-131.5 817,-112.5 738,-112.5"/>
<text text-anchor="middle" x="777.5" y="-119.5" font-family="Helvetica,sans-Serif" font-size="10.00" fill="#000000">pdi/pdi_fwd.h</text>
</a>
</g>
</g>
<!-- Node12&#45;&gt;Node17 -->
<g id="edge20" class="edge">
<title>Node12&#45;&gt;Node17</title>
<path fill="none" stroke="#191970" d="M948.6125,-512.8281C886.7792,-510.0094 762.8782,-500.4368 663.5,-468 613.2216,-451.5893 587.3104,-456.3531 558.5,-412 486.7977,-301.6159 677.4214,-178.5397 750.4176,-136.7736"/>
<polygon fill="#191970" stroke="#191970" points="752.5137,-139.6098 759.504,-131.6482 749.0745,-133.5128 752.5137,-139.6098"/>
</g>
<!-- Node12&#45;&gt;Node22 -->
<g id="edge26" class="edge">
<title>Node12&#45;&gt;Node22</title>
<path fill="none" stroke="#191970" d="M948.7462,-505.5556C904.9297,-496.008 833.3066,-480.4014 784.1377,-469.6876"/>
<polygon fill="#191970" stroke="#191970" points="784.8275,-466.2558 774.3116,-467.5465 783.3371,-473.0954 784.8275,-466.2558"/>
</g>
<!-- Node23 -->
<g id="node24" class="node">
<title>Node23</title>
<g id="a_node24"><a xlink:href="datatype__template_8h.html" target="_top" xlink:title="pdi/datatype_template.h">
<polygon fill="#ffffff" stroke="#000000" points="638.5,-280.5 638.5,-299.5 768.5,-299.5 768.5,-280.5 638.5,-280.5"/>
<text text-anchor="middle" x="703.5" y="-287.5" font-family="Helvetica,sans-Serif" font-size="10.00" fill="#000000">pdi/datatype_template.h</text>
</a>
</g>
</g>
<!-- Node12&#45;&gt;Node23 -->
<g id="edge53" class="edge">
<title>Node12&#45;&gt;Node23</title>
<path fill="none" stroke="#191970" d="M977.8508,-504.4346C969.85,-495.7723 959.0738,-482.2221 954.5,-468 944.1588,-435.8442 938.1953,-421.582 954.5,-392 968.9632,-365.759 997.0368,-382.241 1011.5,-356 1015.7907,-348.2153 1017.3026,-342.7336 1011.5,-336 996.4561,-318.5425 864.8306,-303.9345 778.5862,-296.124"/>
<polygon fill="#191970" stroke="#191970" points="778.8373,-292.6326 768.5654,-295.2285 778.2142,-299.6048 778.8373,-292.6326"/>
</g>
<!-- Node12&#45;&gt;Node24 -->
<g id="edge55" class="edge">
<title>Node12&#45;&gt;Node24</title>
<path fill="none" stroke="#191970" d="M989.711,-504.1151C992.649,-491.1693 998.1,-467.7915 1003.5,-448 1023.2209,-375.7207 1050.14,-290.8255 1062.203,-253.3939"/>
<polygon fill="#191970" stroke="#191970" points="1065.5735,-254.3461 1065.3198,-243.7543 1058.913,-252.1925 1065.5735,-254.3461"/>
</g>
<!-- Node12&#45;&gt;Node26 -->
<g id="edge54" class="edge">
<title>Node12&#45;&gt;Node26</title>
<path fill="none" stroke="#191970" d="M954.4758,-504.4816C931.7387,-496.9128 901.588,-484.7946 878.5,-468 860.2496,-454.7243 843.9272,-434.5319 833.4752,-419.9787"/>
<polygon fill="#191970" stroke="#191970" points="836.3427,-417.9718 827.7612,-411.7582 830.5949,-421.9671 836.3427,-417.9718"/>
</g>
<!-- Node17&#45;&gt;Node14 -->
<g id="edge21" class="edge">
<title>Node17&#45;&gt;Node14</title>
<path fill="none" stroke="#191970" d="M817.2005,-117.8366C916.9146,-107.3797 1176.8447,-80.1212 1274.0733,-69.9249"/>
<polygon fill="#191970" stroke="#191970" points="1274.7245,-73.3759 1284.3049,-68.8519 1273.9944,-66.4141 1274.7245,-73.3759"/>
</g>
<!-- Node18 -->
<g id="node19" class="node">
<title>Node18</title>
<g id="a_node19"><a xlink:href="pdi_8h.html" target="_top" xlink:title="pdi.h">
<polygon fill="#ffffff" stroke="#000000" points="744,-56.5 744,-75.5 783,-75.5 783,-56.5 744,-56.5"/>
<text text-anchor="middle" x="763.5" y="-63.5" font-family="Helvetica,sans-Serif" font-size="10.00" fill="#000000">pdi.h</text>
</a>
</g>
</g>
<!-- Node17&#45;&gt;Node18 -->
<g id="edge22" class="edge">
<title>Node17&#45;&gt;Node18</title>
<path fill="none" stroke="#191970" d="M775.0614,-112.2455C773.2145,-104.8579 770.6172,-94.4689 768.3522,-85.4087"/>
<polygon fill="#191970" stroke="#191970" points="771.7316,-84.4952 765.9107,-75.6427 764.9406,-86.193 771.7316,-84.4952"/>
</g>
<!-- Node19 -->
<g id="node20" class="node">
<title>Node19</title>
<polygon fill="#ffffff" stroke="#bfbfbf" points="518,-.5 518,-19.5 585,-19.5 585,-.5 518,-.5"/>
<text text-anchor="middle" x="551.5" y="-7.5" font-family="Helvetica,sans-Serif" font-size="10.00" fill="#000000">paraconf.h</text>
</g>
<!-- Node18&#45;&gt;Node19 -->
<g id="edge23" class="edge">
<title>Node18&#45;&gt;Node19</title>
<path fill="none" stroke="#191970" d="M743.9355,-60.832C710.2956,-51.946 640.7183,-33.5671 595.0945,-21.5155"/>
<polygon fill="#191970" stroke="#191970" points="595.7421,-18.0666 585.1799,-18.8966 593.9544,-24.8345 595.7421,-18.0666"/>
</g>
<!-- Node20 -->
<g id="node21" class="node">
<title>Node20</title>
<polygon fill="#ffffff" stroke="#bfbfbf" points="773.5,-.5 773.5,-19.5 845.5,-19.5 845.5,-.5 773.5,-.5"/>
<text text-anchor="middle" x="809.5" y="-7.5" font-family="Helvetica,sans-Serif" font-size="10.00" fill="#000000">pdi/export.h</text>
</g>
<!-- Node18&#45;&gt;Node20 -->
<g id="edge24" class="edge">
<title>Node18&#45;&gt;Node20</title>
<path fill="none" stroke="#191970" d="M771.5126,-56.2455C777.9768,-48.3761 787.2385,-37.101 794.9983,-27.6542"/>
<polygon fill="#191970" stroke="#191970" points="797.9364,-29.5916 801.5792,-19.6427 792.5273,-25.1484 797.9364,-29.5916"/>
</g>
<!-- Node21 -->
<g id="node22" class="node">
<title>Node21</title>
<polygon fill="#ffffff" stroke="#bfbfbf" points="678,-.5 678,-19.5 755,-19.5 755,-.5 678,-.5"/>
<text text-anchor="middle" x="716.5" y="-7.5" font-family="Helvetica,sans-Serif" font-size="10.00" fill="#000000">pdi/version.h</text>
</g>
<!-- Node18&#45;&gt;Node21 -->
<g id="edge25" class="edge">
<title>Node18&#45;&gt;Node21</title>
<path fill="none" stroke="#191970" d="M755.3132,-56.2455C748.6411,-48.2958 739.0521,-36.8706 731.0747,-27.3656"/>
<polygon fill="#191970" stroke="#191970" points="733.7026,-25.0524 724.593,-19.6427 728.3408,-29.5525 733.7026,-25.0524"/>
</g>
<!-- Node22&#45;&gt;Node17 -->
<g id="edge28" class="edge">
<title>Node22&#45;&gt;Node17</title>
<path fill="none" stroke="#191970" d="M727.9912,-448.177C723.0212,-426.5723 713.9282,-373.8435 732.5,-336 743.7839,-313.0071 766.405,-323.0846 777.5,-300 802.757,-247.4496 790.7852,-175.6745 782.741,-141.5556"/>
<polygon fill="#191970" stroke="#191970" points="786.0496,-140.3594 780.223,-131.5106 779.2596,-142.0615 786.0496,-140.3594"/>
</g>
<!-- Node22&#45;&gt;Node19 -->
<g id="edge27" class="edge">
<title>Node22&#45;&gt;Node19</title>
<path fill="none" stroke="#191970" d="M703.5013,-448.471C665.6682,-433.8998 596.7823,-402.7563 554.5,-356 499.5327,-295.2164 495.7772,-268.1096 478.5,-188 465.1765,-126.2228 511.4261,-58.5281 536.4656,-27.4106"/>
<polygon fill="#191970" stroke="#191970" points="539.2181,-29.5743 542.8984,-19.6391 533.8258,-25.1107 539.2181,-29.5743"/>
</g>
<!-- Node22&#45;&gt;Node23 -->
<g id="edge29" class="edge">
<title>Node22&#45;&gt;Node23</title>
<path fill="none" stroke="#191970" d="M721.1382,-448.3788C713.3766,-439.6808 702.925,-426.1096 698.5,-412 687.608,-377.2697 693.5762,-334.2449 698.6876,-309.6758"/>
<polygon fill="#191970" stroke="#191970" points="702.1332,-310.3063 700.9122,-299.7821 695.3037,-308.7707 702.1332,-310.3063"/>
</g>
<!-- Node22&#45;&gt;Node26 -->
<g id="edge38" class="edge">
<title>Node22&#45;&gt;Node26</title>
<path fill="none" stroke="#191970" d="M746.351,-448.2455C760.3132,-439.6534 780.8728,-427.0014 796.9596,-417.1018"/>
<polygon fill="#191970" stroke="#191970" points="799.1484,-419.8645 805.8307,-411.6427 795.4797,-413.9029 799.1484,-419.8645"/>
</g>
<!-- Node23&#45;&gt;Node17 -->
<g id="edge31" class="edge">
<title>Node23&#45;&gt;Node17</title>
<path fill="none" stroke="#191970" d="M707.6906,-280.4862C719.4895,-253.6994 753.1608,-177.2565 769.0301,-141.2289"/>
<polygon fill="#191970" stroke="#191970" points="772.343,-142.3903 773.1711,-131.8279 765.9369,-139.5686 772.343,-142.3903"/>
</g>
<!-- Node23&#45;&gt;Node19 -->
<g id="edge30" class="edge">
<title>Node23&#45;&gt;Node19</title>
<path fill="none" stroke="#191970" d="M700.4014,-280.2275C694.5599,-260.9094 682.5,-216.3796 682.5,-178 682.5,-178 682.5,-178 682.5,-122 682.5,-72.348 627.4597,-40.0069 588.7327,-23.3965"/>
<polygon fill="#191970" stroke="#191970" points="589.8615,-20.0764 579.2817,-19.5116 587.2001,-26.5508 589.8615,-20.0764"/>
</g>
<!-- Node23&#45;&gt;Node24 -->
<g id="edge32" class="edge">
<title>Node23&#45;&gt;Node24</title>
<path fill="none" stroke="#191970" d="M765.831,-280.4369C838.694,-269.2579 957.5613,-251.0207 1022.5302,-241.0529"/>
<polygon fill="#191970" stroke="#191970" points="1023.1257,-244.5026 1032.4793,-239.5265 1022.0641,-237.5835 1023.1257,-244.5026"/>
</g>
<!-- Node24&#45;&gt;Node17 -->
<g id="edge33" class="edge">
<title>Node24&#45;&gt;Node17</title>
<path fill="none" stroke="#191970" d="M1043.6895,-224.4509C991.718,-204.4482 871.3261,-158.1117 811.9204,-135.2477"/>
<polygon fill="#191970" stroke="#191970" points="812.8375,-131.8505 802.2477,-131.5249 810.3231,-138.3833 812.8375,-131.8505"/>
</g>
<!-- Node24&#45;&gt;Node25 -->
<g id="edge34" class="edge">
<title>Node24&#45;&gt;Node25</title>
<path fill="none" stroke="#191970" d="M1032.1456,-230.0622C948.1176,-220.9605 739.0312,-198.3129 626.3206,-186.1044"/>
<polygon fill="#191970" stroke="#191970" points="626.372,-182.5895 616.0532,-184.9922 625.6181,-189.5488 626.372,-182.5895"/>
</g>
<!-- Node25&#45;&gt;Node7 -->
<g id="edge35" class="edge">
<title>Node25&#45;&gt;Node7</title>
<path fill="none" stroke="#191970" d="M515.9154,-168.3733C476.504,-157.7112 413.5699,-140.6856 375.9174,-130.4994"/>
<polygon fill="#191970" stroke="#191970" points="376.5755,-127.0517 366.0084,-127.8187 374.7474,-133.8088 376.5755,-127.0517"/>
</g>
<!-- Node25&#45;&gt;Node17 -->
<g id="edge37" class="edge">
<title>Node25&#45;&gt;Node17</title>
<path fill="none" stroke="#191970" d="M590.094,-168.4369C628.5284,-158.9133 687.636,-144.2672 729.171,-133.9753"/>
<polygon fill="#191970" stroke="#191970" points="730.2006,-137.3261 739.0652,-131.5237 728.5169,-130.5316 730.2006,-137.3261"/>
</g>
<!-- Node25&#45;&gt;Node19 -->
<g id="edge36" class="edge">
<title>Node25&#45;&gt;Node19</title>
<path fill="none" stroke="#191970" d="M551.5,-168.4862C551.5,-141.9293 551.5,-66.5651 551.5,-30.1655"/>
<polygon fill="#191970" stroke="#191970" points="555.0001,-29.8278 551.5,-19.8279 548.0001,-29.8279 555.0001,-29.8278"/>
</g>
<!-- Node26&#45;&gt;Node13 -->
<g id="edge40" class="edge">
<title>Node26&#45;&gt;Node13</title>
<path fill="none" stroke="#191970" d="M847.2859,-392.3733C871.9047,-383.1822 909.19,-369.2624 936.4875,-359.0713"/>
<polygon fill="#191970" stroke="#191970" points="937.9063,-362.2777 946.0506,-355.5011 935.458,-355.7198 937.9063,-362.2777"/>
</g>
<!-- Node26&#45;&gt;Node14 -->
<g id="edge41" class="edge">
<title>Node26&#45;&gt;Node14</title>
<path fill="none" stroke="#191970" d="M832.4881,-392.2887C874.2469,-355.386 1020.8758,-225.8421 1023.5,-224 1111.8245,-161.9984 1226.9258,-105.3315 1280.9642,-79.9872"/>
<polygon fill="#191970" stroke="#191970" points="1282.7381,-83.022 1290.3235,-75.6252 1279.781,-76.6772 1282.7381,-83.022"/>
</g>
<!-- Node26&#45;&gt;Node16 -->
<g id="edge43" class="edge">
<title>Node26&#45;&gt;Node16</title>
<path fill="none" stroke="#191970" d="M860.54,-395.1893C917.0014,-385.3393 1021.7564,-367.0643 1086.4623,-355.776"/>
<polygon fill="#191970" stroke="#191970" points="1087.2402,-359.1933 1096.4899,-354.0267 1086.0371,-352.2974 1087.2402,-359.1933"/>
</g>
<!-- Node26&#45;&gt;Node17 -->
<g id="edge44" class="edge">
<title>Node26&#45;&gt;Node17</title>
<path fill="none" stroke="#191970" d="M830.1684,-392.4431C837.8032,-383.5751 848.7324,-369.7145 855.5,-356 869.0077,-328.6267 874.5,-320.5246 874.5,-290 874.5,-290 874.5,-290 874.5,-234 874.5,-190.5952 832.3576,-155.7503 803.6278,-137.0386"/>
<polygon fill="#191970" stroke="#191970" points="805.1753,-133.8782 794.8417,-131.5399 801.4616,-139.8119 805.1753,-133.8782"/>
</g>
<!-- Node27 -->
<g id="node28" class="node">
<title>Node27</title>
<polygon fill="#ffffff" stroke="#bfbfbf" points="741,-336.5 741,-355.5 792,-355.5 792,-336.5 741,-336.5"/>
<text text-anchor="middle" x="766.5" y="-343.5" font-family="Helvetica,sans-Serif" font-size="10.00" fill="#000000">cassert</text>
</g>
<!-- Node26&#45;&gt;Node27 -->
<g id="edge39" class="edge">
<title>Node26&#45;&gt;Node27</title>
<path fill="none" stroke="#191970" d="M811.9197,-392.2455C803.9542,-384.1352 792.4359,-372.4075 782.9921,-362.7919"/>
<polygon fill="#191970" stroke="#191970" points="785.4747,-360.3247 775.9705,-355.6427 780.4805,-365.2297 785.4747,-360.3247"/>
</g>
<!-- Node28 -->
<g id="node29" class="node">
<title>Node28</title>
<polygon fill="#ffffff" stroke="#bfbfbf" points="810.5,-336.5 810.5,-355.5 846.5,-355.5 846.5,-336.5 810.5,-336.5"/>
<text text-anchor="middle" x="828.5" y="-343.5" font-family="Helvetica,sans-Serif" font-size="10.00" fill="#000000">new</text>
</g>
<!-- Node26&#45;&gt;Node28 -->
<g id="edge42" class="edge">
<title>Node26&#45;&gt;Node28</title>
<path fill="none" stroke="#191970" d="M822.7193,-392.2455C823.6327,-384.9382 824.9132,-374.6944 826.0369,-365.7046"/>
<polygon fill="#191970" stroke="#191970" points="829.5272,-365.9996 827.2947,-355.6427 822.5813,-365.1313 829.5272,-365.9996"/>
</g>
<!-- Node26&#45;&gt;Node29 -->
<g id="edge45" class="edge">
<title>Node26&#45;&gt;Node29</title>
<path fill="none" stroke="#191970" d="M784.1964,-392.3733C747.3315,-382.8598 690.834,-368.2797 651.0494,-358.0127"/>
<polygon fill="#191970" stroke="#191970" points="651.8742,-354.611 641.3169,-355.5011 650.125,-361.3889 651.8742,-354.611"/>
</g>
<!-- Node26&#45;&gt;Node30 -->
<g id="edge48" class="edge">
<title>Node26&#45;&gt;Node30</title>
<path fill="none" stroke="#191970" d="M782.2365,-397.3218C694.9072,-386.9166 485.1619,-361.9257 394.4758,-351.1205"/>
<polygon fill="#191970" stroke="#191970" points="394.6228,-347.6134 384.2789,-349.9056 393.7946,-354.5642 394.6228,-347.6134"/>
</g>
<!-- Node29&#45;&gt;Node17 -->
<g id="edge46" class="edge">
<title>Node29&#45;&gt;Node17</title>
<path fill="none" stroke="#191970" d="M606.9563,-336.0539C610.5538,-322.6332 618.0924,-298.3006 629.5,-280 666.2104,-221.1074 726.9562,-164.9753 757.9693,-138.2578"/>
<polygon fill="#191970" stroke="#191970" points="760.5352,-140.6702 765.8835,-131.5243 755.9991,-135.3387 760.5352,-140.6702"/>
</g>
<!-- Node29&#45;&gt;Node23 -->
<g id="edge47" class="edge">
<title>Node29&#45;&gt;Node23</title>
<path fill="none" stroke="#191970" d="M621.7445,-336.2455C637.0761,-327.5731 659.7199,-314.7645 677.2916,-304.825"/>
<polygon fill="#191970" stroke="#191970" points="679.4724,-307.6126 686.4531,-299.6427 676.0259,-301.5198 679.4724,-307.6126"/>
</g>
<!-- Node30&#45;&gt;Node3 -->
<g id="edge49" class="edge">
<title>Node30&#45;&gt;Node3</title>
<path fill="none" stroke="#191970" d="M327.0893,-336.3733C303.8858,-327.2226 268.7962,-313.3844 242.9858,-303.2057"/>
<polygon fill="#191970" stroke="#191970" points="244.1789,-299.9139 233.5921,-299.5011 241.6108,-306.4258 244.1789,-299.9139"/>
</g>
<!-- Node30&#45;&gt;Node7 -->
<g id="edge50" class="edge">
<title>Node30&#45;&gt;Node7</title>
<path fill="none" stroke="#191970" d="M351.1992,-336.375C350.1402,-302.4851 346.5697,-188.2317 345.1198,-141.8332"/>
<polygon fill="#191970" stroke="#191970" points="348.6104,-141.4749 344.7997,-131.5891 341.6138,-141.6936 348.6104,-141.4749"/>
</g>
<!-- Node30&#45;&gt;Node17 -->
<g id="edge52" class="edge">
<title>Node30&#45;&gt;Node17</title>
<path fill="none" stroke="#191970" d="M355.2177,-336.2092C367.4497,-305.4664 409.6443,-210.3926 478.5,-168 519.3459,-142.8523 654.1239,-130.1724 727.9964,-124.9711"/>
<polygon fill="#191970" stroke="#191970" points="728.2622,-128.4612 737.9998,-124.2863 727.7841,-121.4776 728.2622,-128.4612"/>
</g>
<!-- Node30&#45;&gt;Node19 -->
<g id="edge51" class="edge">
<title>Node30&#45;&gt;Node19</title>
<path fill="none" stroke="#191970" d="M345.8031,-336.3152C326.8841,-302.7738 269.7604,-189.3949 313.5,-112 352.4372,-43.1027 450.3698,-20.7278 507.7464,-13.4721"/>
<polygon fill="#191970" stroke="#191970" points="508.4351,-16.9157 517.9646,-12.2854 507.6275,-9.9624 508.4351,-16.9157"/>
</g>
<!-- Node31&#45;&gt;Node17 -->
<g id="edge61" class="edge">
<title>Node31&#45;&gt;Node17</title>
<path fill="none" stroke="#191970" d="M1363.0927,-392.2088C1363.9228,-368.7281 1362.4166,-309.0164 1328.5,-280 1251.4417,-214.0748 947.8423,-152.9754 827.2566,-130.8029"/>
<polygon fill="#191970" stroke="#191970" points="827.6556,-127.318 817.1895,-128.9643 826.3979,-134.2041 827.6556,-127.318"/>
</g>
<!-- Node31&#45;&gt;Node24 -->
<g id="edge60" class="edge">
<title>Node31&#45;&gt;Node24</title>
<path fill="none" stroke="#191970" d="M1361.0775,-392.2349C1357.1194,-368.812 1343.7085,-309.2189 1306.5,-280 1277.3234,-257.0884 1175.4562,-243.9175 1114.8564,-237.9374"/>
<polygon fill="#191970" stroke="#191970" points="1115.0639,-234.4413 1104.7755,-236.9712 1114.396,-241.4093 1115.0639,-234.4413"/>
</g>
<!-- Node32&#45;&gt;Node6 -->
<g id="edge66" class="edge">
<title>Node32&#45;&gt;Node6</title>
<path fill="none" stroke="#191970" d="M1172.9188,-560.435C1192.1068,-553.0833 1216.2462,-541.2336 1232.5,-524 1244.8174,-510.9401 1252.4361,-491.7952 1256.7546,-477.4842"/>
<polygon fill="#191970" stroke="#191970" points="1260.1783,-478.2325 1259.4368,-467.6636 1253.4257,-476.3881 1260.1783,-478.2325"/>
</g>
<!-- Node32&#45;&gt;Node7 -->
<g id="edge69" class="edge">
<title>Node32&#45;&gt;Node7</title>
<path fill="none" stroke="#191970" d="M1095.8097,-567.008C1024.7212,-561.8328 885.3681,-549.2496 769.5,-524 688.882,-506.432 661.3217,-513.5135 592.5,-468 461.6352,-381.4559 377.2716,-200.5178 352.2764,-141.2495"/>
<polygon fill="#191970" stroke="#191970" points="355.361,-139.5499 348.3024,-131.6489 348.8932,-142.2272 355.361,-139.5499"/>
</g>
<!-- Node32&#45;&gt;Node10 -->
<g id="edge71" class="edge">
<title>Node32&#45;&gt;Node10</title>
<path fill="none" stroke="#191970" d="M1171.0496,-560.4233C1193.8489,-552.2255 1226.2176,-539.3343 1252.5,-524 1277.2356,-509.5683 1302.8232,-488.7572 1319.3746,-474.38"/>
<polygon fill="#191970" stroke="#191970" points="1321.9712,-476.7566 1327.1539,-467.5159 1317.3398,-471.5077 1321.9712,-476.7566"/>
</g>
<!-- Node32&#45;&gt;Node12 -->
<g id="edge72" class="edge">
<title>Node32&#45;&gt;Node12</title>
<path fill="none" stroke="#191970" d="M1115.8546,-560.3733C1090.3036,-551.1419 1051.5488,-537.1402 1023.3091,-526.9375"/>
<polygon fill="#191970" stroke="#191970" points="1024.3921,-523.6074 1013.7978,-523.5011 1022.0135,-530.1909 1024.3921,-523.6074"/>
</g>
<!-- Node32&#45;&gt;Node14 -->
<g id="edge67" class="edge">
<title>Node32&#45;&gt;Node14</title>
<path fill="none" stroke="#191970" d="M1189.0079,-563.8683C1248.1483,-555.5758 1346.5466,-539.9766 1379.5,-524 1443.8725,-492.7908 1484.5,-473.539 1484.5,-402 1484.5,-402 1484.5,-402 1484.5,-178 1484.5,-113.7311 1399.3274,-84.5114 1348.5067,-72.797"/>
<polygon fill="#191970" stroke="#191970" points="1349.0477,-69.3328 1338.5313,-70.6194 1347.5547,-76.1717 1349.0477,-69.3328"/>
</g>
<!-- Node32&#45;&gt;Node15 -->
<g id="edge68" class="edge">
<title>Node32&#45;&gt;Node15</title>
<path fill="none" stroke="#191970" d="M1138.3223,-560.4509C1130.222,-541.936 1112.2508,-500.8591 1101.6894,-476.7187"/>
<polygon fill="#191970" stroke="#191970" points="1104.8819,-475.2836 1097.6671,-467.5249 1098.4688,-478.0894 1104.8819,-475.2836"/>
</g>
<!-- Node32&#45;&gt;Node16 -->
<g id="edge70" class="edge">
<title>Node32&#45;&gt;Node16</title>
<path fill="none" stroke="#191970" d="M1142.5,-560.375C1142.5,-526.4851 1142.5,-412.2317 1142.5,-365.8332"/>
<polygon fill="#191970" stroke="#191970" points="1146.0001,-365.5891 1142.5,-355.5891 1139.0001,-365.5892 1146.0001,-365.5891"/>
</g>
<!-- Node32&#45;&gt;Node17 -->
<g id="edge74" class="edge">
<title>Node32&#45;&gt;Node17</title>
<path fill="none" stroke="#191970" d="M1189.002,-565.5868C1274.1615,-554.6736 1446.5,-518.2298 1446.5,-402 1446.5,-402 1446.5,-402 1446.5,-234 1446.5,-171.2611 982.9171,-135.3641 827.5571,-125.0956"/>
<polygon fill="#191970" stroke="#191970" points="827.5525,-121.5879 817.3455,-124.4283 827.096,-128.573 827.5525,-121.5879"/>
</g>
<!-- Node32&#45;&gt;Node22 -->
<g id="edge75" class="edge">
<title>Node32&#45;&gt;Node22</title>
<path fill="none" stroke="#191970" d="M1095.9372,-567.1485C1015.3529,-561.6473 853.6056,-547.948 802.5,-524 778.6616,-512.8294 757.2567,-490.9343 744.1009,-475.4306"/>
<polygon fill="#191970" stroke="#191970" points="746.7203,-473.1049 737.6778,-467.5837 741.3036,-477.5388 746.7203,-473.1049"/>
</g>
<!-- Node32&#45;&gt;Node24 -->
<g id="edge73" class="edge">
<title>Node32&#45;&gt;Node24</title>
<path fill="none" stroke="#191970" d="M1149.2889,-560.1305C1171.2299,-526.9166 1236.5976,-416.7574 1197.5,-336 1177.2616,-294.197 1130.656,-264.3348 1099.3645,-248.1173"/>
<polygon fill="#191970" stroke="#191970" points="1100.6999,-244.8718 1090.1911,-243.5243 1097.5659,-251.131 1100.6999,-244.8718"/>
</g>
<!-- Node32&#45;&gt;Node26 -->
<g id="edge77" class="edge">
<title>Node32&#45;&gt;Node26</title>
<path fill="none" stroke="#191970" d="M1095.7869,-564.0075C1053.9265,-557.5641 991.4517,-545.2613 940.5,-524 897.7167,-506.1472 883.1236,-502.8041 852.5,-468 840.6383,-454.5191 832.4042,-435.715 827.4192,-421.6253"/>
<polygon fill="#191970" stroke="#191970" points="830.682,-420.343 824.2343,-411.936 824.0321,-422.5289 830.682,-420.343"/>
</g>
<!-- Node32&#45;&gt;Node31 -->
<g id="edge76" class="edge">
<title>Node32&#45;&gt;Node31</title>
<path fill="none" stroke="#191970" d="M1155.5295,-560.4138C1166.7425,-551.7382 1182.8994,-538.1802 1194.5,-524 1219.2136,-493.7908 1208.6635,-473.1623 1238.5,-448 1261.0463,-428.9858 1292.1851,-417.4716 1317.6176,-410.7182"/>
<polygon fill="#191970" stroke="#191970" points="1318.5557,-414.0915 1327.4105,-408.274 1316.8606,-407.2998 1318.5557,-414.0915"/>
</g>
</g>
</svg>
        <g id="navigator" transform="translate(0 0)" fill="#404254">
                <rect fill="#f2f5e9" fill-opacity="0.5" stroke="#606060" stroke-width=".5" x="0" y="0" width="60" height="60"/>
                <use id="zoomplus" xlink:href="#zoomPlus" x="17" y="9" onmousedown="handleZoom(evt,'in')"/>
                <use id="zoomminus" xlink:href="#zoomMin" x="42" y="9" onmousedown="handleZoom(evt,'out')"/>
                <use id="reset" xlink:href="#resetDef" x="30" y="36" onmousedown="handleReset()"/>
                <g id="arrowUp" xlink:href="#dirArrow" transform="translate(30 24)" onmousedown="handlePan(0,-1)">
                  <use xlink:href="#rim" fill="#404040">
                        <set attributeName="fill" to="#808080" begin="arrowUp.mouseover" end="arrowUp.mouseout"/>
                  </use>
                  <path fill="none" stroke="white" stroke-width="1.5" d="M0,-3.0v7 M-2.5,-0.5L0,-3.0L2.5,-0.5"/>
                </g>
                <g id="arrowRight" xlink:href="#dirArrow" transform="rotate(90) translate(36 -43)" onmousedown="handlePan(1,0)">
                  <use xlink:href="#rim" fill="#404040">
                        <set attributeName="fill" to="#808080" begin="arrowRight.mouseover" end="arrowRight.mouseout"/>
                  </use>
                  <path fill="none" stroke="white" stroke-width="1.5" d="M0,-3.0v7 M-2.5,-0.5L0,-3.0L2.5,-0.5"/>
                </g>
                <g id="arrowDown" xlink:href="#dirArrow" transform="rotate(180) translate(-30 -48)" onmousedown="handlePan(0,1)">
                  <use xlink:href="#rim" fill="#404040">
                        <set attributeName="fill" to="#808080" begin="arrowDown.mouseover" end="arrowDown.mouseout"/>
                  </use>
                  <path fill="none" stroke="white" stroke-width="1.5" d="M0,-3.0v7 M-2.5,-0.5L0,-3.0L2.5,-0.5"/>
                </g>
                <g id="arrowLeft" xlink:href="#dirArrow" transform="rotate(270) translate(-36 17)" onmousedown="handlePan(-1,0)">
                  <use xlink:href="#rim" fill="#404040">
                        <set attributeName="fill" to="#808080" begin="arrowLeft.mouseover" end="arrowLeft.mouseout"/>
                  </use>
                  <path fill="none" stroke="white" stroke-width="1.5" d="M0,-3.0v7 M-2.5,-0.5L0,-3.0L2.5,-0.5"/>
                </g>
        </g>
        <svg viewBox="0 0 15 15" width="100%" height="30px" preserveAspectRatio="xMaxYMin meet">
         <g id="arrow_out" transform="scale(0.3 0.3)">
          <a xlink:href="pdi_8cxx__incl_org.svg" target="_base">
           <rect id="button" ry="5" rx="5" y="6" x="6" height="38" width="38"
                fill="#f2f5e9" fill-opacity="0.5" stroke="#606060" stroke-width="1.0"/>
           <path id="arrow"
             d="M 11.500037,31.436501 C 11.940474,20.09759 22.043105,11.32322 32.158766,21.979434 L 37.068811,17.246167 C 37.068811,17.246167 37.088388,32 37.088388,32 L 22.160133,31.978069 C 22.160133,31.978069 26.997745,27.140456 26.997745,27.140456 C 18.528582,18.264221 13.291696,25.230495 11.500037,31.436501 z"
             style="fill:#404040;"/>
          </a>
         </g>
        </svg>
</svg>
