<?xml version="1.0" encoding="UTF-8" standalone="no"?>
<!DOCTYPE svg PUBLIC "-//W3C//DTD SVG 1.1//EN"
 "http://www.w3.org/Graphics/SVG/1.1/DTD/svg11.dtd">
<!-- Generated by graphviz version 2.40.1 (20161225.0304)
 -->
<!-- Title: /home/jbigot/data/projects/pdi/pdi/include/pdi.h Pages: 1 -->
<svg width="261pt" height="95pt"
 viewBox="0.00 0.00 261.00 95.00" xmlns="http://www.w3.org/2000/svg" xmlns:xlink="http://www.w3.org/1999/xlink">
<g id="graph0" class="graph" transform="scale(1 1) rotate(0) translate(4 91)">
<title>/home/jbigot/data/projects/pdi/pdi/include/pdi.h</title>
<polygon fill="#ffffff" stroke="transparent" points="-4,4 -4,-91 257,-91 257,4 -4,4"/>
<!-- Node0 -->
<g id="node1" class="node">
<title>Node0</title>
<polygon fill="#bfbfbf" stroke="#000000" points="52.5,-56.5 52.5,-86.5 190.5,-86.5 190.5,-56.5 52.5,-56.5"/>
<text text-anchor="start" x="60.5" y="-74.5" font-family="Helvetica,sans-Serif" font-size="10.00" fill="#000000">/home/jbigot/data/projects</text>
<text text-anchor="middle" x="121.5" y="-63.5" font-family="Helvetica,sans-Serif" font-size="10.00" fill="#000000">/pdi/pdi/include/pdi.h</text>
</g>
<!-- Node1 -->
<g id="node2" class="node">
<title>Node1</title>
<polygon fill="#ffffff" stroke="#bfbfbf" points="0,-.5 0,-19.5 67,-19.5 67,-.5 0,-.5"/>
<text text-anchor="middle" x="33.5" y="-7.5" font-family="Helvetica,sans-Serif" font-size="10.00" fill="#000000">paraconf.h</text>
</g>
<!-- Node0&#45;&gt;Node1 -->
<g id="edge1" class="edge">
<title>Node0&#45;&gt;Node1</title>
<path fill="none" stroke="#191970" d="M99.7472,-56.2977C86.3032,-46.9022 69.0989,-34.8787 55.5922,-25.4395"/>
<polygon fill="#191970" stroke="#191970" points="57.5288,-22.5228 47.3271,-19.6633 53.5189,-28.2605 57.5288,-22.5228"/>
</g>
<!-- Node2 -->
<g id="node3" class="node">
<title>Node2</title>
<polygon fill="#ffffff" stroke="#bfbfbf" points="85.5,-.5 85.5,-19.5 157.5,-19.5 157.5,-.5 85.5,-.5"/>
<text text-anchor="middle" x="121.5" y="-7.5" font-family="Helvetica,sans-Serif" font-size="10.00" fill="#000000">pdi/export.h</text>
</g>
<!-- Node0&#45;&gt;Node2 -->
<g id="edge2" class="edge">
<title>Node0&#45;&gt;Node2</title>
<path fill="none" stroke="#191970" d="M121.5,-56.2977C121.5,-48.3834 121.5,-38.6043 121.5,-30.0759"/>
<polygon fill="#191970" stroke="#191970" points="125.0001,-29.8469 121.5,-19.8469 118.0001,-29.847 125.0001,-29.8469"/>
</g>
<!-- Node3 -->
<g id="node4" class="node">
<title>Node3</title>
<polygon fill="#ffffff" stroke="#bfbfbf" points="176,-.5 176,-19.5 253,-19.5 253,-.5 176,-.5"/>
<text text-anchor="middle" x="214.5" y="-7.5" font-family="Helvetica,sans-Serif" font-size="10.00" fill="#000000">pdi/version.h</text>
</g>
<!-- Node0&#45;&gt;Node3 -->
<g id="edge3" class="edge">
<title>Node0&#45;&gt;Node3</title>
<path fill="none" stroke="#191970" d="M144.4888,-56.2977C158.6966,-46.9022 176.8785,-34.8787 191.1525,-25.4395"/>
<polygon fill="#191970" stroke="#191970" points="193.4767,-28.0986 199.8872,-19.6633 189.6155,-22.2598 193.4767,-28.0986"/>
</g>
</g>
</svg>
