<?xml version="1.0" encoding="UTF-8" standalone="no"?>
<!DOCTYPE svg PUBLIC "-//W3C//DTD SVG 1.1//EN"
 "http://www.w3.org/Graphics/SVG/1.1/DTD/svg11.dtd">
<!-- Generated by graphviz version 2.40.1 (20161225.0304)
 -->
<!-- Title: /home/jbigot/data/projects/pdi/pdi/include/pdi.h Pages: 1 -->
<svg width="3390pt" height="820pt"
 viewBox="0.00 0.00 3390.00 820.00" xmlns="http://www.w3.org/2000/svg" xmlns:xlink="http://www.w3.org/1999/xlink">
<g id="graph0" class="graph" transform="scale(1 1) rotate(0) translate(4 816)">
<title>/home/jbigot/data/projects/pdi/pdi/include/pdi.h</title>
<polygon fill="#ffffff" stroke="transparent" points="-4,4 -4,-816 3386,-816 3386,4 -4,4"/>
<!-- Node4 -->
<g id="node1" class="node">
<title>Node4</title>
<polygon fill="#bfbfbf" stroke="#000000" points="2380,-781.5 2380,-811.5 2518,-811.5 2518,-781.5 2380,-781.5"/>
<text text-anchor="start" x="2388" y="-799.5" font-family="Helvetica,sans-Serif" font-size="10.00" fill="#000000">/home/jbigot/data/projects</text>
<text text-anchor="middle" x="2449" y="-788.5" font-family="Helvetica,sans-Serif" font-size="10.00" fill="#000000">/pdi/pdi/include/pdi.h</text>
</g>
<!-- Node5 -->
<g id="node2" class="node">
<title>Node5</title>
<g id="a_node2"><a xlink:href="pdi__fwd_8h.html" target="_top" xlink:title="/home/jbigot/data/projects\l/pdi/pdi/include/pdi/pdi_fwd.h">
<polygon fill="#ffffff" stroke="#000000" points="1441,-714.5 1441,-744.5 1593,-744.5 1593,-714.5 1441,-714.5"/>
<text text-anchor="start" x="1449" y="-732.5" font-family="Helvetica,sans-Serif" font-size="10.00" fill="#000000">/home/jbigot/data/projects</text>
<text text-anchor="middle" x="1517" y="-721.5" font-family="Helvetica,sans-Serif" font-size="10.00" fill="#000000">/pdi/pdi/include/pdi/pdi_fwd.h</text>
</a>
</g>
</g>
<!-- Node4&#45;&gt;Node5 -->
<g id="edge1" class="edge">
<title>Node4&#45;&gt;Node5</title>
<path fill="none" stroke="#191970" d="M2369.6852,-790.7982C2192.6676,-778.0727 1767.2895,-747.4929 1593.2138,-734.9789"/>
<polygon fill="#191970" stroke="#191970" points="2369.4847,-794.2927 2379.7099,-791.5188 2369.9867,-787.3107 2369.4847,-794.2927"/>
</g>
<!-- Node8 -->
<g id="node5" class="node">
<title>Node8</title>
<g id="a_node5"><a xlink:href="datatype__template_8cxx.html" target="_top" xlink:title="/home/jbigot/data/projects\l/pdi/pdi/src/datatype_template.cxx">
<polygon fill="#ffffff" stroke="#000000" points="2992.5,-145.5 2992.5,-175.5 3169.5,-175.5 3169.5,-145.5 2992.5,-145.5"/>
<text text-anchor="start" x="3000.5" y="-163.5" font-family="Helvetica,sans-Serif" font-size="10.00" fill="#000000">/home/jbigot/data/projects</text>
<text text-anchor="middle" x="3081" y="-152.5" font-family="Helvetica,sans-Serif" font-size="10.00" fill="#000000">/pdi/pdi/src/datatype_template.cxx</text>
</a>
</g>
</g>
<!-- Node4&#45;&gt;Node8 -->
<g id="edge138" class="edge">
<title>Node4&#45;&gt;Node8</title>
<path fill="none" stroke="#191970" d="M2528.4759,-792.9385C2754.0404,-781.7801 3382,-742.9934 3382,-657 3382,-657 3382,-657 3382,-300 3382,-247.5873 3229.8649,-199.1912 3141.9118,-175.5916"/>
<polygon fill="#191970" stroke="#191970" points="2528.1813,-789.4486 2518.3644,-793.4335 2528.5236,-796.4403 2528.1813,-789.4486"/>
</g>
<!-- Node6 -->
<g id="node3" class="node">
<title>Node6</title>
<g id="a_node3"><a xlink:href="array__datatype_8h.html" target="_top" xlink:title="/home/jbigot/data/projects\l/pdi/pdi/include/pdi/array\l_datatype.h">
<polygon fill="#ffffff" stroke="#000000" points="1887,-279.5 1887,-320.5 2025,-320.5 2025,-279.5 1887,-279.5"/>
<text text-anchor="start" x="1895" y="-308.5" font-family="Helvetica,sans-Serif" font-size="10.00" fill="#000000">/home/jbigot/data/projects</text>
<text text-anchor="start" x="1895" y="-297.5" font-family="Helvetica,sans-Serif" font-size="10.00" fill="#000000">/pdi/pdi/include/pdi/array</text>
<text text-anchor="middle" x="1956" y="-286.5" font-family="Helvetica,sans-Serif" font-size="10.00" fill="#000000">_datatype.h</text>
</a>
</g>
</g>
<!-- Node5&#45;&gt;Node6 -->
<g id="edge2" class="edge">
<title>Node5&#45;&gt;Node6</title>
<path fill="none" stroke="#191970" d="M1603.3825,-721.3062C1741.8268,-705.7555 1998,-665.9731 1998,-584.5 1998,-584.5 1998,-584.5 1998,-439.5 1998,-395.7438 1978.8194,-347.4199 1966.382,-320.6845"/>
<polygon fill="#191970" stroke="#191970" points="1602.7715,-717.8523 1593.2159,-722.4284 1603.5395,-724.8101 1602.7715,-717.8523"/>
</g>
<!-- Node13 -->
<g id="node10" class="node">
<title>Node13</title>
<g id="a_node10"><a xlink:href="context_8h.html" target="_top" xlink:title="/home/jbigot/data/projects\l/pdi/pdi/include/pdi/context.h">
<polygon fill="#ffffff" stroke="#000000" points="1208,-212.5 1208,-242.5 1358,-242.5 1358,-212.5 1208,-212.5"/>
<text text-anchor="start" x="1216" y="-230.5" font-family="Helvetica,sans-Serif" font-size="10.00" fill="#000000">/home/jbigot/data/projects</text>
<text text-anchor="middle" x="1283" y="-219.5" font-family="Helvetica,sans-Serif" font-size="10.00" fill="#000000">/pdi/pdi/include/pdi/context.h</text>
</a>
</g>
</g>
<!-- Node5&#45;&gt;Node13 -->
<g id="edge9" class="edge">
<title>Node5&#45;&gt;Node13</title>
<path fill="none" stroke="#191970" d="M1430.6205,-727.5091C1258.0353,-721.1787 887,-694.7488 887,-584.5 887,-584.5 887,-584.5 887,-439.5 887,-295.623 1092.6875,-249.0156 1207.5833,-234.2045"/>
<polygon fill="#191970" stroke="#191970" points="1430.5766,-731.0096 1440.6936,-727.864 1430.8231,-724.014 1430.5766,-731.0096"/>
</g>
<!-- Node16 -->
<g id="node13" class="node">
<title>Node16</title>
<g id="a_node13"><a xlink:href="global__context_8h.html" target="_top" xlink:title="/home/jbigot/data/projects\l/pdi/pdi/src/global_context.h">
<polygon fill="#ffffff" stroke="#000000" points="511,-145.5 511,-175.5 659,-175.5 659,-145.5 511,-145.5"/>
<text text-anchor="start" x="519" y="-163.5" font-family="Helvetica,sans-Serif" font-size="10.00" fill="#000000">/home/jbigot/data/projects</text>
<text text-anchor="middle" x="585" y="-152.5" font-family="Helvetica,sans-Serif" font-size="10.00" fill="#000000">/pdi/pdi/src/global_context.h</text>
</a>
</g>
</g>
<!-- Node5&#45;&gt;Node16 -->
<g id="edge137" class="edge">
<title>Node5&#45;&gt;Node16</title>
<path fill="none" stroke="#191970" d="M1430.6731,-727.855C1151.961,-722.305 291.0003,-703.1982 237,-678 186.1074,-654.252 152,-640.6607 152,-584.5 152,-584.5 152,-584.5 152,-372.5 152,-289.7414 410.3693,-208.3389 527.9476,-175.5791"/>
<polygon fill="#191970" stroke="#191970" points="1430.6691,-731.3555 1440.7366,-728.0546 1430.8079,-724.3569 1430.6691,-731.3555"/>
</g>
<!-- Node17 -->
<g id="node14" class="node">
<title>Node17</title>
<g id="a_node14"><a xlink:href="data__descriptor__impl_8h.html" target="_top" xlink:title="/home/jbigot/data/projects\l/pdi/pdi/src/data_descriptor_impl.h">
<polygon fill="#ffffff" stroke="#000000" points="500.5,-78.5 500.5,-108.5 679.5,-108.5 679.5,-78.5 500.5,-78.5"/>
<text text-anchor="start" x="508.5" y="-96.5" font-family="Helvetica,sans-Serif" font-size="10.00" fill="#000000">/home/jbigot/data/projects</text>
<text text-anchor="middle" x="590" y="-85.5" font-family="Helvetica,sans-Serif" font-size="10.00" fill="#000000">/pdi/pdi/src/data_descriptor_impl.h</text>
</a>
</g>
</g>
<!-- Node5&#45;&gt;Node17 -->
<g id="edge136" class="edge">
<title>Node5&#45;&gt;Node17</title>
<path fill="none" stroke="#191970" d="M1430.723,-729.1529C1151.5306,-727.6235 283.8204,-719.5436 165,-678 98.8359,-654.8668 38,-654.5917 38,-584.5 38,-584.5 38,-584.5 38,-300 38,-202.4766 344.0687,-135.6922 500.3908,-107.9425"/>
<polygon fill="#191970" stroke="#191970" points="1430.783,-732.6532 1440.8016,-729.2067 1430.8204,-725.6533 1430.783,-732.6532"/>
</g>
<!-- Node21 -->
<g id="node18" class="node">
<title>Node21</title>
<g id="a_node18"><a xlink:href="data__descriptor_8h.html" target="_top" xlink:title="/home/jbigot/data/projects\l/pdi/pdi/include/pdi/data\l_descriptor.h">
<polygon fill="#ffffff" stroke="#000000" points="683,-279.5 683,-320.5 821,-320.5 821,-279.5 683,-279.5"/>
<text text-anchor="start" x="691" y="-308.5" font-family="Helvetica,sans-Serif" font-size="10.00" fill="#000000">/home/jbigot/data/projects</text>
<text text-anchor="start" x="691" y="-297.5" font-family="Helvetica,sans-Serif" font-size="10.00" fill="#000000">/pdi/pdi/include/pdi/data</text>
<text text-anchor="middle" x="752" y="-286.5" font-family="Helvetica,sans-Serif" font-size="10.00" fill="#000000">_descriptor.h</text>
</a>
</g>
</g>
<!-- Node5&#45;&gt;Node21 -->
<g id="edge25" class="edge">
<title>Node5&#45;&gt;Node21</title>
<path fill="none" stroke="#191970" d="M1430.4206,-728.0164C1158.9578,-723.083 339.5311,-705.9407 290,-678 246.5717,-653.5019 228,-634.3615 228,-584.5 228,-584.5 228,-584.5 228,-439.5 228,-393.6333 250.2999,-379.9708 290,-357 355.2293,-319.2578 570.6171,-306.2553 682.7582,-301.977"/>
<polygon fill="#191970" stroke="#191970" points="1430.5563,-731.5193 1440.6179,-728.2006 1430.6828,-724.5204 1430.5563,-731.5193"/>
</g>
<!-- Node23 -->
<g id="node20" class="node">
<title>Node23</title>
<g id="a_node20"><a xlink:href="datatype_8h.html" target="_top" xlink:title="/home/jbigot/data/projects\l/pdi/pdi/include/pdi/datatype.h">
<polygon fill="#ffffff" stroke="#000000" points="1659.5,-424.5 1659.5,-454.5 1816.5,-454.5 1816.5,-424.5 1659.5,-424.5"/>
<text text-anchor="start" x="1667.5" y="-442.5" font-family="Helvetica,sans-Serif" font-size="10.00" fill="#000000">/home/jbigot/data/projects</text>
<text text-anchor="middle" x="1738" y="-431.5" font-family="Helvetica,sans-Serif" font-size="10.00" fill="#000000">/pdi/pdi/include/pdi/datatype.h</text>
</a>
</g>
</g>
<!-- Node5&#45;&gt;Node23 -->
<g id="edge33" class="edge">
<title>Node5&#45;&gt;Node23</title>
<path fill="none" stroke="#191970" d="M1534.7432,-706.217C1578.4516,-648.8622 1690.3783,-501.9901 1726.5438,-454.533"/>
<polygon fill="#191970" stroke="#191970" points="1531.8483,-704.2415 1528.5708,-714.3167 1537.4159,-708.4844 1531.8483,-704.2415"/>
</g>
<!-- Node24 -->
<g id="node21" class="node">
<title>Node24</title>
<g id="a_node21"><a xlink:href="record__datatype_8h.html" target="_top" xlink:title="/home/jbigot/data/projects\l/pdi/pdi/include/pdi/record\l_datatype.h">
<polygon fill="#ffffff" stroke="#000000" points="2557,-279.5 2557,-320.5 2695,-320.5 2695,-279.5 2557,-279.5"/>
<text text-anchor="start" x="2565" y="-308.5" font-family="Helvetica,sans-Serif" font-size="10.00" fill="#000000">/home/jbigot/data/projects</text>
<text text-anchor="start" x="2565" y="-297.5" font-family="Helvetica,sans-Serif" font-size="10.00" fill="#000000">/pdi/pdi/include/pdi/record</text>
<text text-anchor="middle" x="2626" y="-286.5" font-family="Helvetica,sans-Serif" font-size="10.00" fill="#000000">_datatype.h</text>
</a>
</g>
</g>
<!-- Node5&#45;&gt;Node24 -->
<g id="edge133" class="edge">
<title>Node5&#45;&gt;Node24</title>
<path fill="none" stroke="#191970" d="M1603.1082,-727.9679C1880.7615,-722.7833 2741.5441,-704.7169 2864,-678 2952.7838,-658.6295 2977.2235,-650.1568 3053,-600 3100.6133,-568.4846 3138.9913,-545.19 3121,-491 3095.8097,-415.1267 3072.7355,-392.2892 3001,-357 2987.4095,-350.3144 2799.6298,-323.793 2695.0787,-309.4036"/>
<polygon fill="#191970" stroke="#191970" points="1603.0175,-724.4689 1593.0843,-728.1542 1603.1476,-731.4677 1603.0175,-724.4689"/>
</g>
<!-- Node26 -->
<g id="node23" class="node">
<title>Node26</title>
<g id="a_node23"><a xlink:href="ref__any_8h.html" target="_top" xlink:title="/home/jbigot/data/projects\l/pdi/pdi/include/pdi/ref_any.h">
<polygon fill="#ffffff" stroke="#000000" points="1337,-357.5 1337,-387.5 1489,-387.5 1489,-357.5 1337,-357.5"/>
<text text-anchor="start" x="1345" y="-375.5" font-family="Helvetica,sans-Serif" font-size="10.00" fill="#000000">/home/jbigot/data/projects</text>
<text text-anchor="middle" x="1413" y="-364.5" font-family="Helvetica,sans-Serif" font-size="10.00" fill="#000000">/pdi/pdi/include/pdi/ref_any.h</text>
</a>
</g>
</g>
<!-- Node5&#45;&gt;Node26 -->
<g id="edge134" class="edge">
<title>Node5&#45;&gt;Node26</title>
<path fill="none" stroke="#191970" d="M1509.7272,-704.5349C1489.6137,-635.4912 1433.6596,-443.4179 1417.4521,-387.7827"/>
<polygon fill="#191970" stroke="#191970" points="1506.374,-705.5382 1512.5313,-714.1602 1513.0946,-703.5803 1506.374,-705.5382"/>
</g>
<!-- Node27 -->
<g id="node24" class="node">
<title>Node27</title>
<g id="a_node24"><a xlink:href="expression_8h.html" target="_top" xlink:title="/home/jbigot/data/projects\l/pdi/pdi/include/pdi/expression.h">
<polygon fill="#ffffff" stroke="#000000" points="2788.5,-285 2788.5,-315 2955.5,-315 2955.5,-285 2788.5,-285"/>
<text text-anchor="start" x="2796.5" y="-303" font-family="Helvetica,sans-Serif" font-size="10.00" fill="#000000">/home/jbigot/data/projects</text>
<text text-anchor="middle" x="2872" y="-292" font-family="Helvetica,sans-Serif" font-size="10.00" fill="#000000">/pdi/pdi/include/pdi/expression.h</text>
</a>
</g>
</g>
<!-- Node5&#45;&gt;Node27 -->
<g id="edge98" class="edge">
<title>Node5&#45;&gt;Node27</title>
<path fill="none" stroke="#191970" d="M1603.3969,-728.5649C1870.7035,-725.327 2681.9233,-712.8196 2943,-678 3124.3966,-653.8073 3344,-767.5028 3344,-584.5 3344,-584.5 3344,-584.5 3344,-512 3344,-424.0783 3068.0276,-346.6613 2938.1266,-315.0909"/>
<polygon fill="#191970" stroke="#191970" points="1603.3148,-725.0656 1593.3575,-728.6853 1603.3988,-732.0651 1603.3148,-725.0656"/>
</g>
<!-- Node29 -->
<g id="node26" class="node">
<title>Node29</title>
<g id="a_node26"><a xlink:href="tools_8h.html" target="_top" xlink:title="/home/jbigot/data/projects\l/pdi/pdi/include/pdi/python\l/tools.h">
<polygon fill="#ffffff" stroke="#000000" points="1349,-279.5 1349,-320.5 1489,-320.5 1489,-279.5 1349,-279.5"/>
<text text-anchor="start" x="1357" y="-308.5" font-family="Helvetica,sans-Serif" font-size="10.00" fill="#000000">/home/jbigot/data/projects</text>
<text text-anchor="start" x="1357" y="-297.5" font-family="Helvetica,sans-Serif" font-size="10.00" fill="#000000">/pdi/pdi/include/pdi/python</text>
<text text-anchor="middle" x="1419" y="-286.5" font-family="Helvetica,sans-Serif" font-size="10.00" fill="#000000">/tools.h</text>
</a>
</g>
</g>
<!-- Node5&#45;&gt;Node29 -->
<g id="edge132" class="edge">
<title>Node5&#45;&gt;Node29</title>
<path fill="none" stroke="#191970" d="M1517,-704.1985C1517,-675.2622 1517,-626.4652 1517,-584.5 1517,-584.5 1517,-584.5 1517,-439.5 1517,-401.8735 1518.8107,-388.3475 1498,-357 1488.1782,-342.2052 1473.1233,-329.9577 1458.7804,-320.6569"/>
<polygon fill="#191970" stroke="#191970" points="1513.5001,-704.2605 1517,-714.2605 1520.5001,-704.2605 1513.5001,-704.2605"/>
</g>
<!-- Node30 -->
<g id="node27" class="node">
<title>Node30</title>
<g id="a_node27"><a xlink:href="scalar__datatype_8h.html" target="_top" xlink:title="/home/jbigot/data/projects\l/pdi/pdi/include/pdi/scalar\l_datatype.h">
<polygon fill="#ffffff" stroke="#000000" points="2363,-279.5 2363,-320.5 2501,-320.5 2501,-279.5 2363,-279.5"/>
<text text-anchor="start" x="2371" y="-308.5" font-family="Helvetica,sans-Serif" font-size="10.00" fill="#000000">/home/jbigot/data/projects</text>
<text text-anchor="start" x="2371" y="-297.5" font-family="Helvetica,sans-Serif" font-size="10.00" fill="#000000">/pdi/pdi/include/pdi/scalar</text>
<text text-anchor="middle" x="2432" y="-286.5" font-family="Helvetica,sans-Serif" font-size="10.00" fill="#000000">_datatype.h</text>
</a>
</g>
</g>
<!-- Node5&#45;&gt;Node30 -->
<g id="edge135" class="edge">
<title>Node5&#45;&gt;Node30</title>
<path fill="none" stroke="#191970" d="M1603.2625,-728.2544C1841.5218,-724.4247 2505.2676,-711.0216 2721,-678 2853.7816,-657.6755 2931.1851,-706.5382 3013,-600 3060.03,-538.7582 3236.0122,-593.9079 2969,-357 2933.8818,-325.8412 2594.5388,-327.1885 2548,-321 2532.7843,-318.9767 2516.5276,-316.3365 2501.146,-313.6145"/>
<polygon fill="#191970" stroke="#191970" points="1603.2047,-724.7548 1593.2617,-728.4136 1603.3161,-731.7539 1603.2047,-724.7548"/>
</g>
<!-- Node32 -->
<g id="node29" class="node">
<title>Node32</title>
<g id="a_node29"><a xlink:href="datatype__template_8h.html" target="_top" xlink:title="/home/jbigot/data/projects\l/pdi/pdi/include/pdi/datatype\l_template.h">
<polygon fill="#ffffff" stroke="#000000" points="914.5,-491.5 914.5,-532.5 1063.5,-532.5 1063.5,-491.5 914.5,-491.5"/>
<text text-anchor="start" x="922.5" y="-520.5" font-family="Helvetica,sans-Serif" font-size="10.00" fill="#000000">/home/jbigot/data/projects</text>
<text text-anchor="start" x="922.5" y="-509.5" font-family="Helvetica,sans-Serif" font-size="10.00" fill="#000000">/pdi/pdi/include/pdi/datatype</text>
<text text-anchor="middle" x="989" y="-498.5" font-family="Helvetica,sans-Serif" font-size="10.00" fill="#000000">_template.h</text>
</a>
</g>
</g>
<!-- Node5&#45;&gt;Node32 -->
<g id="edge77" class="edge">
<title>Node5&#45;&gt;Node32</title>
<path fill="none" stroke="#191970" d="M1461.791,-711.2377C1434.065,-701.7936 1400.0616,-689.7961 1370,-678 1246.5833,-629.5715 1104.0464,-565.1414 1033.4213,-532.631"/>
<polygon fill="#191970" stroke="#191970" points="1460.7251,-714.572 1471.3194,-714.4672 1462.9721,-707.9424 1460.7251,-714.572"/>
</g>
<!-- Node33 -->
<g id="node30" class="node">
<title>Node33</title>
<g id="a_node30"><a xlink:href="error_8h.html" target="_top" xlink:title="/home/jbigot/data/projects\l/pdi/pdi/include/pdi/error.h">
<polygon fill="#ffffff" stroke="#000000" points="2177.5,-424.5 2177.5,-454.5 2316.5,-454.5 2316.5,-424.5 2177.5,-424.5"/>
<text text-anchor="start" x="2185.5" y="-442.5" font-family="Helvetica,sans-Serif" font-size="10.00" fill="#000000">/home/jbigot/data/projects</text>
<text text-anchor="middle" x="2247" y="-431.5" font-family="Helvetica,sans-Serif" font-size="10.00" fill="#000000">/pdi/pdi/include/pdi/error.h</text>
</a>
</g>
</g>
<!-- Node5&#45;&gt;Node33 -->
<g id="edge83" class="edge">
<title>Node5&#45;&gt;Node33</title>
<path fill="none" stroke="#191970" d="M1603.5668,-727.4845C1725.8105,-723.4621 1941.9431,-711.6884 2012,-678 2122.0127,-625.098 2209.6703,-498.4987 2237.6202,-454.7101"/>
<polygon fill="#191970" stroke="#191970" points="1603.3685,-723.989 1593.485,-727.8057 1603.5914,-730.9854 1603.3685,-723.989"/>
</g>
<!-- Node36 -->
<g id="node33" class="node">
<title>Node36</title>
<g id="a_node33"><a xlink:href="logger_8h.html" target="_top" xlink:title="/home/jbigot/data/projects\l/pdi/pdi/include/pdi/logger.h">
<polygon fill="#ffffff" stroke="#000000" points="1212,-569.5 1212,-599.5 1358,-599.5 1358,-569.5 1212,-569.5"/>
<text text-anchor="start" x="1220" y="-587.5" font-family="Helvetica,sans-Serif" font-size="10.00" fill="#000000">/home/jbigot/data/projects</text>
<text text-anchor="middle" x="1285" y="-576.5" font-family="Helvetica,sans-Serif" font-size="10.00" fill="#000000">/pdi/pdi/include/pdi/logger.h</text>
</a>
</g>
</g>
<!-- Node5&#45;&gt;Node36 -->
<g id="edge99" class="edge">
<title>Node5&#45;&gt;Node36</title>
<path fill="none" stroke="#191970" d="M1483.9706,-708.8566C1436.6834,-679.3021 1350.8026,-625.6266 1309.0628,-599.5392"/>
<polygon fill="#191970" stroke="#191970" points="1482.2754,-711.9245 1492.6104,-714.2565 1485.9854,-705.9885 1482.2754,-711.9245"/>
</g>
<!-- Node37 -->
<g id="node34" class="node">
<title>Node37</title>
<g id="a_node34"><a xlink:href="plugin_8h.html" target="_top" xlink:title="/home/jbigot/data/projects\l/pdi/pdi/include/pdi/plugin.h">
<polygon fill="#ffffff" stroke="#000000" points="856.5,-212.5 856.5,-242.5 999.5,-242.5 999.5,-212.5 856.5,-212.5"/>
<text text-anchor="start" x="864.5" y="-230.5" font-family="Helvetica,sans-Serif" font-size="10.00" fill="#000000">/home/jbigot/data/projects</text>
<text text-anchor="middle" x="928" y="-219.5" font-family="Helvetica,sans-Serif" font-size="10.00" fill="#000000">/pdi/pdi/include/pdi/plugin.h</text>
</a>
</g>
</g>
<!-- Node5&#45;&gt;Node37 -->
<g id="edge131" class="edge">
<title>Node5&#45;&gt;Node37</title>
<path fill="none" stroke="#191970" d="M1430.6495,-728.2509C1153.4381,-723.1097 304,-698.0886 304,-584.5 304,-584.5 304,-584.5 304,-439.5 304,-199.8631 618.7576,-434.1481 830,-321 866.8976,-301.2365 899.8635,-263.7531 916.5267,-242.7465"/>
<polygon fill="#191970" stroke="#191970" points="1430.6,-731.7505 1440.6619,-728.4325 1430.7271,-724.7516 1430.6,-731.7505"/>
</g>
<!-- Node39 -->
<g id="node36" class="node">
<title>Node39</title>
<g id="a_node36"><a xlink:href="paraconf__wrapper_8h.html" target="_top" xlink:title="/home/jbigot/data/projects\l/pdi/pdi/include/pdi/paraconf\l_wrapper.h">
<polygon fill="#ffffff" stroke="#000000" points="2563.5,-636.5 2563.5,-677.5 2712.5,-677.5 2712.5,-636.5 2563.5,-636.5"/>
<text text-anchor="start" x="2571.5" y="-665.5" font-family="Helvetica,sans-Serif" font-size="10.00" fill="#000000">/home/jbigot/data/projects</text>
<text text-anchor="start" x="2571.5" y="-654.5" font-family="Helvetica,sans-Serif" font-size="10.00" fill="#000000">/pdi/pdi/include/pdi/paraconf</text>
<text text-anchor="middle" x="2638" y="-643.5" font-family="Helvetica,sans-Serif" font-size="10.00" fill="#000000">_wrapper.h</text>
</a>
</g>
</g>
<!-- Node5&#45;&gt;Node39 -->
<g id="edge119" class="edge">
<title>Node5&#45;&gt;Node39</title>
<path fill="none" stroke="#191970" d="M1603.354,-723.9151C1816.1755,-710.151 2363.0732,-674.7807 2563.1987,-661.8377"/>
<polygon fill="#191970" stroke="#191970" points="1602.9228,-720.4356 1593.1696,-724.5738 1603.3746,-727.421 1602.9228,-720.4356"/>
</g>
<!-- Node7 -->
<g id="node4" class="node">
<title>Node7</title>
<g id="a_node4"><a xlink:href="array__datatype_8cxx.html" target="_top" xlink:title="/home/jbigot/data/projects\l/pdi/pdi/src/array_datatype.cxx">
<polygon fill="#ffffff" stroke="#000000" points="2216.5,-212.5 2216.5,-242.5 2377.5,-242.5 2377.5,-212.5 2216.5,-212.5"/>
<text text-anchor="start" x="2224.5" y="-230.5" font-family="Helvetica,sans-Serif" font-size="10.00" fill="#000000">/home/jbigot/data/projects</text>
<text text-anchor="middle" x="2297" y="-219.5" font-family="Helvetica,sans-Serif" font-size="10.00" fill="#000000">/pdi/pdi/src/array_datatype.cxx</text>
</a>
</g>
</g>
<!-- Node6&#45;&gt;Node7 -->
<g id="edge3" class="edge">
<title>Node6&#45;&gt;Node7</title>
<path fill="none" stroke="#191970" d="M2034.8342,-283.2391C2092.6664,-270.9434 2170.5218,-254.3905 2226.3381,-242.5234"/>
<polygon fill="#191970" stroke="#191970" points="2034.0599,-279.8254 2025.0064,-285.3285 2035.5157,-286.6723 2034.0599,-279.8254"/>
</g>
<!-- Node6&#45;&gt;Node8 -->
<g id="edge4" class="edge">
<title>Node6&#45;&gt;Node8</title>
<path fill="none" stroke="#191970" d="M1953.9166,-269.1043C1954.436,-249.6545 1958.7928,-225.7161 1975,-212 2013.6081,-179.326 2736.5135,-165.5652 2992.2642,-161.7058"/>
<polygon fill="#191970" stroke="#191970" points="1950.4179,-269.3736 1953.9719,-279.3545 1957.4178,-269.3358 1950.4179,-269.3736"/>
</g>
<!-- Node9 -->
<g id="node6" class="node">
<title>Node9</title>
<g id="a_node6"><a xlink:href="expression_8cxx.html" target="_top" xlink:title="/home/jbigot/data/projects\l/pdi/pdi/src/expression.cxx">
<polygon fill="#ffffff" stroke="#000000" points="1748.5,-145.5 1748.5,-175.5 1889.5,-175.5 1889.5,-145.5 1748.5,-145.5"/>
<text text-anchor="start" x="1756.5" y="-163.5" font-family="Helvetica,sans-Serif" font-size="10.00" fill="#000000">/home/jbigot/data/projects</text>
<text text-anchor="middle" x="1819" y="-152.5" font-family="Helvetica,sans-Serif" font-size="10.00" fill="#000000">/pdi/pdi/src/expression.cxx</text>
</a>
</g>
</g>
<!-- Node6&#45;&gt;Node9 -->
<g id="edge5" class="edge">
<title>Node6&#45;&gt;Node9</title>
<path fill="none" stroke="#191970" d="M1928.5233,-272.0219C1899.9966,-242.9746 1856.4421,-198.6253 1833.8119,-175.5822"/>
<polygon fill="#191970" stroke="#191970" points="1926.2811,-274.734 1935.7852,-279.4163 1931.2755,-269.8292 1926.2811,-274.734"/>
</g>
<!-- Node10 -->
<g id="node7" class="node">
<title>Node10</title>
<g id="a_node7"><a xlink:href="python_2pdi_8cxx.html" target="_top" xlink:title="/home/jbigot/data/projects\l/pdi/pdi/src/python/pdi.cxx">
<polygon fill="#ffffff" stroke="#000000" points="1497.5,-78.5 1497.5,-108.5 1636.5,-108.5 1636.5,-78.5 1497.5,-78.5"/>
<text text-anchor="start" x="1505.5" y="-96.5" font-family="Helvetica,sans-Serif" font-size="10.00" fill="#000000">/home/jbigot/data/projects</text>
<text text-anchor="middle" x="1567" y="-85.5" font-family="Helvetica,sans-Serif" font-size="10.00" fill="#000000">/pdi/pdi/src/python/pdi.cxx</text>
</a>
</g>
</g>
<!-- Node6&#45;&gt;Node10 -->
<g id="edge6" class="edge">
<title>Node6&#45;&gt;Node10</title>
<path fill="none" stroke="#191970" d="M1953.5028,-269.0979C1948.8683,-233.4039 1935.6517,-175.6687 1898,-145 1858.9961,-113.2299 1721.5472,-100.88 1636.5202,-96.2115"/>
<polygon fill="#191970" stroke="#191970" points="1950.0689,-269.8761 1954.6831,-279.4134 1957.0235,-269.0803 1950.0689,-269.8761"/>
</g>
<!-- Node11 -->
<g id="node8" class="node">
<title>Node11</title>
<g id="a_node8"><a xlink:href="tools_8cxx.html" target="_top" xlink:title="/home/jbigot/data/projects\l/pdi/pdi/src/python/tools.cxx">
<polygon fill="#ffffff" stroke="#000000" points="1502.5,-145.5 1502.5,-175.5 1649.5,-175.5 1649.5,-145.5 1502.5,-145.5"/>
<text text-anchor="start" x="1510.5" y="-163.5" font-family="Helvetica,sans-Serif" font-size="10.00" fill="#000000">/home/jbigot/data/projects</text>
<text text-anchor="middle" x="1576" y="-152.5" font-family="Helvetica,sans-Serif" font-size="10.00" fill="#000000">/pdi/pdi/src/python/tools.cxx</text>
</a>
</g>
</g>
<!-- Node6&#45;&gt;Node11 -->
<g id="edge7" class="edge">
<title>Node6&#45;&gt;Node11</title>
<path fill="none" stroke="#191970" d="M1899.8872,-275.3159C1857.0288,-256.8567 1796.2915,-231.5404 1742,-212 1704.5231,-198.5115 1661.56,-185.2407 1628.7323,-175.5494"/>
<polygon fill="#191970" stroke="#191970" points="1898.726,-278.6269 1909.294,-279.381 1901.5029,-272.2012 1898.726,-278.6269"/>
</g>
<!-- Node12 -->
<g id="node9" class="node">
<title>Node12</title>
<g id="a_node9"><a xlink:href="ref__any_8cxx.html" target="_top" xlink:title="/home/jbigot/data/projects\l/pdi/pdi/src/ref_any.cxx">
<polygon fill="#ffffff" stroke="#000000" points="1984,-212.5 1984,-242.5 2122,-242.5 2122,-212.5 1984,-212.5"/>
<text text-anchor="start" x="1992" y="-230.5" font-family="Helvetica,sans-Serif" font-size="10.00" fill="#000000">/home/jbigot/data/projects</text>
<text text-anchor="middle" x="2053" y="-219.5" font-family="Helvetica,sans-Serif" font-size="10.00" fill="#000000">/pdi/pdi/src/ref_any.cxx</text>
</a>
</g>
</g>
<!-- Node6&#45;&gt;Node12 -->
<g id="edge8" class="edge">
<title>Node6&#45;&gt;Node12</title>
<path fill="none" stroke="#191970" d="M1991.9004,-273.1672C2005.7071,-262.8478 2020.9775,-251.4344 2032.7984,-242.5991"/>
<polygon fill="#191970" stroke="#191970" points="1989.4514,-270.628 1983.5368,-279.4183 1993.6421,-276.235 1989.4514,-270.628"/>
</g>
<!-- Node13&#45;&gt;Node8 -->
<g id="edge19" class="edge">
<title>Node13&#45;&gt;Node8</title>
<path fill="none" stroke="#191970" d="M1368.2542,-224.3231C1669.9308,-213.0816 2685.1935,-175.2492 2992.2746,-163.8062"/>
<polygon fill="#191970" stroke="#191970" points="1368.1158,-220.8257 1358.2532,-224.6958 1368.3766,-227.8209 1368.1158,-220.8257"/>
</g>
<!-- Node13&#45;&gt;Node9 -->
<g id="edge20" class="edge">
<title>Node13&#45;&gt;Node9</title>
<path fill="none" stroke="#191970" d="M1368.0378,-216.8703C1473.1728,-203.7284 1650.1905,-181.6012 1748.2559,-169.343"/>
<polygon fill="#191970" stroke="#191970" points="1367.5815,-213.4 1358.0929,-218.1134 1368.4498,-220.3459 1367.5815,-213.4"/>
</g>
<!-- Node13&#45;&gt;Node10 -->
<g id="edge23" class="edge">
<title>Node13&#45;&gt;Node10</title>
<path fill="none" stroke="#191970" d="M1309.5882,-205.6093C1335.977,-184.2115 1374.8861,-153.6298 1392,-145 1424.9443,-128.3876 1464.146,-116.2296 1497.0872,-107.9122"/>
<polygon fill="#191970" stroke="#191970" points="1307.0468,-203.1652 1301.5038,-212.1944 1311.4676,-208.5925 1307.0468,-203.1652"/>
</g>
<!-- Node13&#45;&gt;Node11 -->
<g id="edge24" class="edge">
<title>Node13&#45;&gt;Node11</title>
<path fill="none" stroke="#191970" d="M1358.5655,-210.2205C1405.4978,-199.4886 1465.2327,-185.8291 1510.2116,-175.5438"/>
<polygon fill="#191970" stroke="#191970" points="1357.7231,-206.8227 1348.7549,-212.4639 1359.2835,-213.6466 1357.7231,-206.8227"/>
</g>
<!-- Node14 -->
<g id="node11" class="node">
<title>Node14</title>
<g id="a_node11"><a xlink:href="context_8cxx.html" target="_top" xlink:title="/home/jbigot/data/projects\l/pdi/pdi/src/context.cxx">
<polygon fill="#ffffff" stroke="#000000" points="1126,-145.5 1126,-175.5 1264,-175.5 1264,-145.5 1126,-145.5"/>
<text text-anchor="start" x="1134" y="-163.5" font-family="Helvetica,sans-Serif" font-size="10.00" fill="#000000">/home/jbigot/data/projects</text>
<text text-anchor="middle" x="1195" y="-152.5" font-family="Helvetica,sans-Serif" font-size="10.00" fill="#000000">/pdi/pdi/src/context.cxx</text>
</a>
</g>
</g>
<!-- Node13&#45;&gt;Node14 -->
<g id="edge10" class="edge">
<title>Node13&#45;&gt;Node14</title>
<path fill="none" stroke="#191970" d="M1254.8457,-206.0643C1241.834,-196.1577 1226.6886,-184.6265 1214.8895,-175.6432"/>
<polygon fill="#191970" stroke="#191970" points="1252.9548,-209.0237 1263.0314,-212.2967 1257.1952,-203.4542 1252.9548,-209.0237"/>
</g>
<!-- Node15 -->
<g id="node12" class="node">
<title>Node15</title>
<g id="a_node12"><a xlink:href="data__descriptor__impl_8cxx.html" target="_top" xlink:title="/home/jbigot/data/projects\l/pdi/pdi/src/data_descriptor\l_impl.cxx">
<polygon fill="#ffffff" stroke="#000000" points="2653,-.5 2653,-41.5 2799,-41.5 2799,-.5 2653,-.5"/>
<text text-anchor="start" x="2661" y="-29.5" font-family="Helvetica,sans-Serif" font-size="10.00" fill="#000000">/home/jbigot/data/projects</text>
<text text-anchor="start" x="2661" y="-18.5" font-family="Helvetica,sans-Serif" font-size="10.00" fill="#000000">/pdi/pdi/src/data_descriptor</text>
<text text-anchor="middle" x="2726" y="-7.5" font-family="Helvetica,sans-Serif" font-size="10.00" fill="#000000">_impl.cxx</text>
</a>
</g>
</g>
<!-- Node13&#45;&gt;Node15 -->
<g id="edge11" class="edge">
<title>Node13&#45;&gt;Node15</title>
<path fill="none" stroke="#191970" d="M1296.2292,-203.5465C1307.1364,-185.5562 1324.0268,-161.3108 1344,-145 1398.6738,-100.3515 1419.4474,-94.8303 1488,-78 1600.7694,-50.3141 2403.6804,-28.789 2652.6038,-22.7215"/>
<polygon fill="#191970" stroke="#191970" points="1293.1296,-201.913 1291.0862,-212.3089 1299.1666,-205.4563 1293.1296,-201.913"/>
</g>
<!-- Node13&#45;&gt;Node16 -->
<g id="edge12" class="edge">
<title>Node13&#45;&gt;Node16</title>
<path fill="none" stroke="#191970" d="M1197.8622,-219.3277C1059.8545,-206.0806 789.621,-180.1413 659.0774,-167.6106"/>
<polygon fill="#191970" stroke="#191970" points="1197.6818,-222.8264 1207.9705,-220.298 1198.3507,-215.8585 1197.6818,-222.8264"/>
</g>
<!-- Node19 -->
<g id="node16" class="node">
<title>Node19</title>
<g id="a_node16"><a xlink:href="pdi_8cxx.html" target="_top" xlink:title="/home/jbigot/data/projects\l/pdi/pdi/src/pdi.cxx">
<polygon fill="#ffffff" stroke="#000000" points="306,-78.5 306,-108.5 444,-108.5 444,-78.5 306,-78.5"/>
<text text-anchor="start" x="314" y="-96.5" font-family="Helvetica,sans-Serif" font-size="10.00" fill="#000000">/home/jbigot/data/projects</text>
<text text-anchor="middle" x="375" y="-85.5" font-family="Helvetica,sans-Serif" font-size="10.00" fill="#000000">/pdi/pdi/src/pdi.cxx</text>
</a>
</g>
</g>
<!-- Node13&#45;&gt;Node19 -->
<g id="edge21" class="edge">
<title>Node13&#45;&gt;Node19</title>
<path fill="none" stroke="#191970" d="M1287.6537,-202.298C1289.4996,-183.6784 1288.2939,-159.1932 1273,-145 1241.1219,-115.4161 534.3167,-112.8837 491,-109 475.8225,-107.6392 459.5817,-105.7454 444.2033,-103.7477"/>
<polygon fill="#191970" stroke="#191970" points="1284.151,-202.086 1286.2976,-212.461 1291.0896,-203.0118 1284.151,-202.086"/>
</g>
<!-- Node20 -->
<g id="node17" class="node">
<title>Node20</title>
<g id="a_node17"><a xlink:href="plugin_8cxx.html" target="_top" xlink:title="/home/jbigot/data/projects\l/pdi/pdi/src/plugin.cxx">
<polygon fill="#ffffff" stroke="#000000" points="932,-145.5 932,-175.5 1070,-175.5 1070,-145.5 932,-145.5"/>
<text text-anchor="start" x="940" y="-163.5" font-family="Helvetica,sans-Serif" font-size="10.00" fill="#000000">/home/jbigot/data/projects</text>
<text text-anchor="middle" x="1001" y="-152.5" font-family="Helvetica,sans-Serif" font-size="10.00" fill="#000000">/pdi/pdi/src/plugin.cxx</text>
</a>
</g>
</g>
<!-- Node13&#45;&gt;Node20 -->
<g id="edge22" class="edge">
<title>Node13&#45;&gt;Node20</title>
<path fill="none" stroke="#191970" d="M1209.7217,-210.0899C1164.7203,-199.3981 1107.6489,-185.8386 1064.5623,-175.6017"/>
<polygon fill="#191970" stroke="#191970" points="1209.1755,-213.5575 1219.7137,-212.4639 1210.7936,-206.7471 1209.1755,-213.5575"/>
</g>
<!-- Node16&#45;&gt;Node10 -->
<g id="edge18" class="edge">
<title>Node16&#45;&gt;Node10</title>
<path fill="none" stroke="#191970" d="M669.4652,-154.7371C860.2617,-141.7194 1321.5916,-110.2438 1497.3805,-98.25"/>
<polygon fill="#191970" stroke="#191970" points="668.9507,-151.264 659.2121,-155.4366 669.4272,-158.2477 668.9507,-151.264"/>
</g>
<!-- Node16&#45;&gt;Node17 -->
<g id="edge13" class="edge">
<title>Node16&#45;&gt;Node17</title>
<path fill="none" stroke="#191970" d="M586.8793,-135.3179C587.5491,-126.3414 588.2825,-116.5143 588.8699,-108.6432"/>
<polygon fill="#191970" stroke="#191970" points="583.3886,-135.0639 586.1346,-145.2967 590.3692,-135.5849 583.3886,-135.0639"/>
</g>
<!-- Node18 -->
<g id="node15" class="node">
<title>Node18</title>
<g id="a_node15"><a xlink:href="global__context_8cxx.html" target="_top" xlink:title="/home/jbigot/data/projects\l/pdi/pdi/src/global_context.cxx">
<polygon fill="#ffffff" stroke="#000000" points="73,-6 73,-36 231,-36 231,-6 73,-6"/>
<text text-anchor="start" x="81" y="-24" font-family="Helvetica,sans-Serif" font-size="10.00" fill="#000000">/home/jbigot/data/projects</text>
<text text-anchor="middle" x="152" y="-13" font-family="Helvetica,sans-Serif" font-size="10.00" fill="#000000">/pdi/pdi/src/global_context.cxx</text>
</a>
</g>
</g>
<!-- Node16&#45;&gt;Node18 -->
<g id="edge16" class="edge">
<title>Node16&#45;&gt;Node18</title>
<path fill="none" stroke="#191970" d="M544.9631,-140.6417C527.9107,-131.6588 508.0591,-120.4901 491,-109 472.9223,-96.8238 472.7594,-87.1993 453,-78 414.4873,-60.0697 306.8292,-42.3212 231.3196,-31.5097"/>
<polygon fill="#191970" stroke="#191970" points="543.6258,-143.891 554.1133,-145.3954 546.853,-137.6793 543.6258,-143.891"/>
</g>
<!-- Node16&#45;&gt;Node19 -->
<g id="edge17" class="edge">
<title>Node16&#45;&gt;Node19</title>
<path fill="none" stroke="#191970" d="M528.3072,-142.4123C495.1382,-131.8298 453.7453,-118.6235 422.3336,-108.6017"/>
<polygon fill="#191970" stroke="#191970" points="527.2812,-145.7587 537.8719,-145.4639 529.4089,-139.0899 527.2812,-145.7587"/>
</g>
<!-- Node17&#45;&gt;Node15 -->
<g id="edge14" class="edge">
<title>Node17&#45;&gt;Node15</title>
<path fill="none" stroke="#191970" d="M689.9518,-86.9119C738.7971,-83.8647 798.4535,-80.3978 852,-78 1552.7453,-46.6213 2401.6778,-27.6801 2652.7469,-22.4724"/>
<polygon fill="#191970" stroke="#191970" points="689.46,-83.4358 679.6989,-87.5553 689.8985,-90.4221 689.46,-83.4358"/>
</g>
<!-- Node17&#45;&gt;Node18 -->
<g id="edge15" class="edge">
<title>Node17&#45;&gt;Node18</title>
<path fill="none" stroke="#191970" d="M490.4039,-77.0143C411.9206,-64.0234 303.9692,-46.1547 231.2788,-34.1226"/>
<polygon fill="#191970" stroke="#191970" points="489.8699,-80.4735 500.3072,-78.6536 491.0131,-73.5675 489.8699,-80.4735"/>
</g>
<!-- Node21&#45;&gt;Node10 -->
<g id="edge31" class="edge">
<title>Node21&#45;&gt;Node10</title>
<path fill="none" stroke="#191970" d="M771.494,-271.0319C797.9935,-234.3792 849.126,-172.6988 910,-145 962.4598,-121.1298 1339.375,-102.9301 1497.4807,-96.2629"/>
<polygon fill="#191970" stroke="#191970" points="768.5355,-269.1531 765.6033,-279.3341 774.2445,-273.2038 768.5355,-269.1531"/>
</g>
<!-- Node21&#45;&gt;Node11 -->
<g id="edge32" class="edge">
<title>Node21&#45;&gt;Node11</title>
<path fill="none" stroke="#191970" d="M831.1044,-282.9695C920.243,-264.1191 1069.6001,-233.5566 1199,-212 1304.0725,-194.496 1426.3539,-178.6102 1502.4773,-169.2488"/>
<polygon fill="#191970" stroke="#191970" points="830.1285,-279.5985 821.0713,-285.0956 831.5796,-286.4465 830.1285,-279.5985"/>
</g>
<!-- Node21&#45;&gt;Node13 -->
<g id="edge26" class="edge">
<title>Node21&#45;&gt;Node13</title>
<path fill="none" stroke="#191970" d="M831.0562,-289.2061C932.7616,-275.3198 1108.1692,-251.3705 1207.9128,-237.752"/>
<polygon fill="#191970" stroke="#191970" points="830.5811,-285.7384 821.1466,-290.5591 831.5282,-292.674 830.5811,-285.7384"/>
</g>
<!-- Node21&#45;&gt;Node16 -->
<g id="edge29" class="edge">
<title>Node21&#45;&gt;Node16</title>
<path fill="none" stroke="#191970" d="M752.587,-269.2312C751.3432,-250.6075 746.7424,-227.5337 733,-212 721.1025,-198.5517 682.1257,-185.2797 647.1583,-175.5777"/>
<polygon fill="#191970" stroke="#191970" points="749.093,-269.458 752.9725,-279.317 756.0879,-269.1906 749.093,-269.458"/>
</g>
<!-- Node21&#45;&gt;Node17 -->
<g id="edge28" class="edge">
<title>Node21&#45;&gt;Node17</title>
<path fill="none" stroke="#191970" d="M760.011,-268.9738C762.8942,-251.3955 763.6072,-229.4923 755,-212 729.6194,-160.4194 669.6667,-126.4823 629.4568,-108.6321"/>
<polygon fill="#191970" stroke="#191970" points="756.4797,-268.7965 757.9993,-279.2818 763.35,-270.1374 756.4797,-268.7965"/>
</g>
<!-- Node21&#45;&gt;Node19 -->
<g id="edge30" class="edge">
<title>Node21&#45;&gt;Node19</title>
<path fill="none" stroke="#191970" d="M672.9176,-284.4321C604.5975,-267.5731 506.6348,-234.8307 440,-176 416.8991,-155.6046 395.9712,-126.1835 384.4148,-108.5418"/>
<polygon fill="#191970" stroke="#191970" points="672.2339,-287.8674 682.7753,-286.8055 673.8724,-281.0619 672.2339,-287.8674"/>
</g>
<!-- Node22 -->
<g id="node19" class="node">
<title>Node22</title>
<g id="a_node19"><a xlink:href="data__descriptor_8cxx.html" target="_top" xlink:title="/home/jbigot/data/projects\l/pdi/pdi/src/data_descriptor.cxx">
<polygon fill="#ffffff" stroke="#000000" points="560,-212.5 560,-242.5 724,-242.5 724,-212.5 560,-212.5"/>
<text text-anchor="start" x="568" y="-230.5" font-family="Helvetica,sans-Serif" font-size="10.00" fill="#000000">/home/jbigot/data/projects</text>
<text text-anchor="middle" x="642" y="-219.5" font-family="Helvetica,sans-Serif" font-size="10.00" fill="#000000">/pdi/pdi/src/data_descriptor.cxx</text>
</a>
</g>
</g>
<!-- Node21&#45;&gt;Node22 -->
<g id="edge27" class="edge">
<title>Node21&#45;&gt;Node22</title>
<path fill="none" stroke="#191970" d="M712.1727,-273.7502C696.286,-263.2794 678.5672,-251.6011 664.909,-242.5991"/>
<polygon fill="#191970" stroke="#191970" points="710.4969,-276.8375 720.7726,-279.4183 714.3492,-270.9928 710.4969,-276.8375"/>
</g>
<!-- Node23&#45;&gt;Node6 -->
<g id="edge34" class="edge">
<title>Node23&#45;&gt;Node6</title>
<path fill="none" stroke="#191970" d="M1771.7926,-419.1107C1787.1783,-409.7432 1805.5806,-398.4213 1822,-388 1841.4451,-375.6584 1891.7525,-342.4952 1924.8913,-320.5902"/>
<polygon fill="#191970" stroke="#191970" points="1769.8498,-416.1956 1763.1201,-424.3786 1773.4839,-422.1784 1769.8498,-416.1956"/>
</g>
<!-- Node23&#45;&gt;Node9 -->
<g id="edge72" class="edge">
<title>Node23&#45;&gt;Node9</title>
<path fill="none" stroke="#191970" d="M1745.2267,-414.6082C1761.6505,-358.0371 1801.3821,-221.1839 1814.6236,-175.5744"/>
<polygon fill="#191970" stroke="#191970" points="1741.7819,-413.9204 1742.3549,-424.4997 1748.5043,-415.8721 1741.7819,-413.9204"/>
</g>
<!-- Node23&#45;&gt;Node10 -->
<g id="edge74" class="edge">
<title>Node23&#45;&gt;Node10</title>
<path fill="none" stroke="#191970" d="M1737.4648,-414.0353C1735.0629,-359.1521 1722.4704,-227.9794 1658,-145 1645.4146,-128.8014 1626.2094,-116.8689 1608.6805,-108.5925"/>
<polygon fill="#191970" stroke="#191970" points="1733.9749,-414.383 1737.8297,-424.2516 1740.9704,-414.133 1733.9749,-414.383"/>
</g>
<!-- Node23&#45;&gt;Node11 -->
<g id="edge75" class="edge">
<title>Node23&#45;&gt;Node11</title>
<path fill="none" stroke="#191970" d="M1715.2359,-417.0785C1707.4305,-408.5142 1699.1278,-398.3169 1693,-388 1650.4173,-316.3062 1673.1386,-282.1127 1628,-212 1619.0586,-198.1116 1605.7889,-185.0481 1594.8926,-175.5532"/>
<polygon fill="#191970" stroke="#191970" points="1712.7775,-419.573 1722.1877,-424.4412 1717.8673,-414.7673 1712.7775,-419.573"/>
</g>
<!-- Node23&#45;&gt;Node12 -->
<g id="edge76" class="edge">
<title>Node23&#45;&gt;Node12</title>
<path fill="none" stroke="#191970" d="M1787.0033,-420.7496C1809.3508,-411.6666 1835.9155,-400.1132 1859,-388 1881.8193,-376.0259 1884.4821,-367.5361 1908,-357 1961.1508,-333.1883 1994.4507,-363.7534 2034,-321 2053.9095,-299.4776 2055.3707,-263.0196 2054.3766,-242.5678"/>
<polygon fill="#191970" stroke="#191970" points="1785.6803,-417.5092 1777.7064,-424.4855 1788.2903,-424.0044 1785.6803,-417.5092"/>
</g>
<!-- Node23&#45;&gt;Node15 -->
<g id="edge70" class="edge">
<title>Node23&#45;&gt;Node15</title>
<path fill="none" stroke="#191970" d="M1826.7328,-429.029C1893.3129,-420.3476 1986.4621,-406.4469 2067,-388 2113.1848,-377.4215 2122.2994,-364.9997 2169,-357 2347.2475,-326.4666 2807.1966,-367.3489 2982,-321 3055.3949,-301.5394 3077.5152,-293.7445 3134,-243 3169.5167,-211.0927 3206.952,-182.9643 3178,-145 3132.1721,-84.9066 2914.8817,-46.7362 2799.0776,-30.3124"/>
<polygon fill="#191970" stroke="#191970" points="1826.1642,-425.5733 1816.6945,-430.3246 1827.0603,-432.5157 1826.1642,-425.5733"/>
</g>
<!-- Node23&#45;&gt;Node19 -->
<g id="edge73" class="edge">
<title>Node23&#45;&gt;Node19</title>
<path fill="none" stroke="#191970" d="M1649.0445,-437.5331C1389.0384,-430.8547 634.2255,-404.5917 404,-321 346.2947,-300.048 318.6414,-297.3006 290,-243 269.6797,-204.4751 268.622,-182.9482 290,-145 299.3156,-128.4638 316.3193,-116.6299 332.6841,-108.5103"/>
<polygon fill="#191970" stroke="#191970" points="1649.1125,-441.0359 1659.198,-437.7904 1649.2899,-434.0381 1649.1125,-441.0359"/>
</g>
<!-- Node23&#45;&gt;Node24 -->
<g id="edge35" class="edge">
<title>Node23&#45;&gt;Node24</title>
<path fill="none" stroke="#191970" d="M1826.704,-425.8744C1879.7369,-416.914 1948.2144,-403.9105 2008,-388 2048.8834,-377.1199 2056.6181,-365.7959 2098,-357 2277.7922,-318.7844 2327.8176,-345.3975 2510,-321 2525.2139,-318.9626 2541.4697,-316.3165 2556.8512,-313.5933"/>
<polygon fill="#191970" stroke="#191970" points="1825.9347,-422.4544 1816.6492,-427.5562 1827.0896,-429.3585 1825.9347,-422.4544"/>
</g>
<!-- Node23&#45;&gt;Node26 -->
<g id="edge39" class="edge">
<title>Node23&#45;&gt;Node26</title>
<path fill="none" stroke="#191970" d="M1655.1601,-422.4222C1602.9559,-411.6601 1536.1779,-397.8936 1485.9735,-387.5438"/>
<polygon fill="#191970" stroke="#191970" points="1654.5629,-425.8726 1665.0637,-424.4639 1655.9763,-419.0168 1654.5629,-425.8726"/>
</g>
<!-- Node23&#45;&gt;Node30 -->
<g id="edge62" class="edge">
<title>Node23&#45;&gt;Node30</title>
<path fill="none" stroke="#191970" d="M1800.0683,-421.652C1864.6047,-403.5539 1968.7603,-375.631 2060,-357 2164.8263,-335.5946 2287.7525,-318.2515 2362.7337,-308.5318"/>
<polygon fill="#191970" stroke="#191970" points="1798.7365,-418.3908 1790.0588,-424.4693 1800.6331,-425.1289 1798.7365,-418.3908"/>
</g>
<!-- Node31 -->
<g id="node28" class="node">
<title>Node31</title>
<g id="a_node28"><a xlink:href="datatype_8cxx.html" target="_top" xlink:title="/home/jbigot/data/projects\l/pdi/pdi/src/datatype.cxx">
<polygon fill="#ffffff" stroke="#000000" points="1105,-357.5 1105,-387.5 1243,-387.5 1243,-357.5 1105,-357.5"/>
<text text-anchor="start" x="1113" y="-375.5" font-family="Helvetica,sans-Serif" font-size="10.00" fill="#000000">/home/jbigot/data/projects</text>
<text text-anchor="middle" x="1174" y="-364.5" font-family="Helvetica,sans-Serif" font-size="10.00" fill="#000000">/pdi/pdi/src/datatype.cxx</text>
</a>
</g>
</g>
<!-- Node23&#45;&gt;Node31 -->
<g id="edge71" class="edge">
<title>Node23&#45;&gt;Node31</title>
<path fill="none" stroke="#191970" d="M1649.421,-432.1013C1552.7185,-423.5385 1393.4334,-408.012 1257,-388 1252.5039,-387.3405 1247.8796,-386.6134 1243.224,-385.8449"/>
<polygon fill="#191970" stroke="#191970" points="1649.1803,-435.5935 1659.4487,-432.9841 1649.7942,-428.6205 1649.1803,-435.5935"/>
</g>
<!-- Node24&#45;&gt;Node8 -->
<g id="edge36" class="edge">
<title>Node24&#45;&gt;Node8</title>
<path fill="none" stroke="#191970" d="M2626.8813,-269.2695C2629.161,-249.8892 2635.4691,-225.9661 2652,-212 2677.4634,-190.4874 2874.3884,-174.0204 2992.3952,-165.9637"/>
<polygon fill="#191970" stroke="#191970" points="2623.3732,-269.2103 2625.9899,-279.477 2630.3467,-269.8194 2623.3732,-269.2103"/>
</g>
<!-- Node24&#45;&gt;Node12 -->
<g id="edge38" class="edge">
<title>Node24&#45;&gt;Node12</title>
<path fill="none" stroke="#191970" d="M2546.6144,-284.9017C2534.3754,-282.7844 2521.865,-280.7405 2510,-279 2436.9278,-268.2806 2230.8077,-246.1592 2122.0962,-234.7132"/>
<polygon fill="#191970" stroke="#191970" points="2546.3564,-288.4098 2556.8111,-286.6923 2547.5672,-281.5153 2546.3564,-288.4098"/>
</g>
<!-- Node25 -->
<g id="node22" class="node">
<title>Node25</title>
<g id="a_node22"><a xlink:href="record__datatype_8cxx.html" target="_top" xlink:title="/home/jbigot/data/projects\l/pdi/pdi/src/record_datatype.cxx">
<polygon fill="#ffffff" stroke="#000000" points="2661.5,-212.5 2661.5,-242.5 2828.5,-242.5 2828.5,-212.5 2661.5,-212.5"/>
<text text-anchor="start" x="2669.5" y="-230.5" font-family="Helvetica,sans-Serif" font-size="10.00" fill="#000000">/home/jbigot/data/projects</text>
<text text-anchor="middle" x="2745" y="-219.5" font-family="Helvetica,sans-Serif" font-size="10.00" fill="#000000">/pdi/pdi/src/record_datatype.cxx</text>
</a>
</g>
</g>
<!-- Node24&#45;&gt;Node25 -->
<g id="edge37" class="edge">
<title>Node24&#45;&gt;Node25</title>
<path fill="none" stroke="#191970" d="M2668.609,-274.0407C2685.917,-263.4959 2705.3042,-251.6844 2720.2166,-242.5991"/>
<polygon fill="#191970" stroke="#191970" points="2666.5012,-271.2264 2659.7823,-279.4183 2670.1433,-277.2044 2666.5012,-271.2264"/>
</g>
<!-- Node26&#45;&gt;Node9 -->
<g id="edge55" class="edge">
<title>Node26&#45;&gt;Node9</title>
<path fill="none" stroke="#191970" d="M1457.6622,-353.2929C1478.8562,-343.9324 1504.4256,-332.2815 1527,-321 1627.1281,-270.9612 1742.7171,-204.8696 1793.189,-175.5808"/>
<polygon fill="#191970" stroke="#191970" points="1456.0071,-350.1971 1448.2587,-357.4229 1458.8221,-356.6062 1456.0071,-350.1971"/>
</g>
<!-- Node26&#45;&gt;Node10 -->
<g id="edge59" class="edge">
<title>Node26&#45;&gt;Node10</title>
<path fill="none" stroke="#191970" d="M1370.1074,-352.1149C1358.1716,-344.1807 1346.6624,-333.8536 1340,-321 1331.4099,-304.4273 1333.0884,-296.34 1340,-279 1347.5954,-259.9445 1450.5941,-157.3145 1467,-145 1486.5224,-130.3462 1510.8218,-117.7242 1530.5787,-108.6436"/>
<polygon fill="#191970" stroke="#191970" points="1368.4598,-355.2106 1378.8107,-357.4711 1372.1287,-349.2491 1368.4598,-355.2106"/>
</g>
<!-- Node26&#45;&gt;Node11 -->
<g id="edge60" class="edge">
<title>Node26&#45;&gt;Node11</title>
<path fill="none" stroke="#191970" d="M1456.5469,-352.4853C1471.0566,-344.2652 1486.4483,-333.6711 1498,-321 1538.7005,-276.3553 1562.6531,-206.5994 1571.7572,-175.8912"/>
<polygon fill="#191970" stroke="#191970" points="1454.7948,-349.4538 1447.6687,-357.2941 1458.1287,-355.609 1454.7948,-349.4538"/>
</g>
<!-- Node26&#45;&gt;Node12 -->
<g id="edge61" class="edge">
<title>Node26&#45;&gt;Node12</title>
<path fill="none" stroke="#191970" d="M1499.2469,-364.3037C1569.7942,-356.4942 1671.786,-342.6689 1759,-321 1813.4315,-307.4761 1824.6343,-296.2564 1878,-279 1918.3795,-265.9428 1964.4344,-252.4446 1999.1598,-242.5445"/>
<polygon fill="#191970" stroke="#191970" points="1498.634,-360.8496 1489.072,-365.4124 1499.3923,-367.8085 1498.634,-360.8496"/>
</g>
<!-- Node26&#45;&gt;Node13 -->
<g id="edge40" class="edge">
<title>Node26&#45;&gt;Node13</title>
<path fill="none" stroke="#191970" d="M1351.0169,-353.2481C1334.6972,-345.5318 1318.4685,-335.0409 1307,-321 1288.4473,-298.2859 1284.0444,-262.9336 1283.1156,-242.8363"/>
<polygon fill="#191970" stroke="#191970" points="1350.039,-356.6421 1360.6009,-357.4766 1352.8647,-350.2378 1350.039,-356.6421"/>
</g>
<!-- Node26&#45;&gt;Node14 -->
<g id="edge51" class="edge">
<title>Node26&#45;&gt;Node14</title>
<path fill="none" stroke="#191970" d="M1346.3096,-354.1083C1294.3615,-335.6579 1226.588,-301.4045 1199,-243 1188.7719,-221.3468 1190.186,-192.8362 1192.4056,-175.6295"/>
<polygon fill="#191970" stroke="#191970" points="1345.2173,-357.4338 1355.812,-357.3717 1347.4911,-350.8133 1345.2173,-357.4338"/>
</g>
<!-- Node26&#45;&gt;Node15 -->
<g id="edge52" class="edge">
<title>Node26&#45;&gt;Node15</title>
<path fill="none" stroke="#191970" d="M1499.4925,-370.4271C1823.9905,-362.551 2951.1732,-334.2598 2964,-321 3012.535,-270.8266 2821.2891,-101.0952 2750.993,-41.7179"/>
<polygon fill="#191970" stroke="#191970" points="1499.1201,-366.935 1489.2079,-370.6764 1499.2898,-373.933 1499.1201,-366.935"/>
</g>
<!-- Node26&#45;&gt;Node16 -->
<g id="edge54" class="edge">
<title>Node26&#45;&gt;Node16</title>
<path fill="none" stroke="#191970" d="M1326.8813,-357.4562C1325.5793,-357.298 1324.2849,-357.1458 1323,-357 1179.477,-340.7153 811.5464,-365.1026 674,-321 612.3592,-301.2356 582.1944,-299.7198 551,-243 538.6074,-220.467 556.5825,-192.4676 570.7529,-175.5655"/>
<polygon fill="#191970" stroke="#191970" points="1326.6108,-360.9504 1336.9797,-358.7744 1327.5169,-354.0093 1326.6108,-360.9504"/>
</g>
<!-- Node26&#45;&gt;Node17 -->
<g id="edge53" class="edge">
<title>Node26&#45;&gt;Node17</title>
<path fill="none" stroke="#191970" d="M1329.0041,-355.1942C1286.4839,-345.3848 1240.1044,-332.7563 1222,-321 1179.7355,-293.5551 1123.3038,-169.0141 1079,-145 1044.7821,-126.4528 811.1421,-108.1946 679.5838,-99.2267"/>
<polygon fill="#191970" stroke="#191970" points="1328.3279,-358.6298 1338.855,-357.4335 1329.8796,-351.8039 1328.3279,-358.6298"/>
</g>
<!-- Node26&#45;&gt;Node18 -->
<g id="edge56" class="edge">
<title>Node26&#45;&gt;Node18</title>
<path fill="none" stroke="#191970" d="M1326.8555,-361.1712C1312.8818,-359.592 1298.5527,-358.127 1285,-357 1197.2121,-349.6999 574.6929,-353.9586 493,-321 335.0519,-257.2766 200.8785,-87.5122 162.8055,-36.0166"/>
<polygon fill="#191970" stroke="#191970" points="1326.6158,-364.6667 1336.9516,-362.3381 1327.4196,-357.713 1326.6158,-364.6667"/>
</g>
<!-- Node26&#45;&gt;Node19 -->
<g id="edge57" class="edge">
<title>Node26&#45;&gt;Node19</title>
<path fill="none" stroke="#191970" d="M1326.8828,-357.4429C1325.5804,-357.2889 1324.2855,-357.1411 1323,-357 1157.5788,-338.8437 729.4477,-382.9655 575,-321 483.7728,-284.399 464.9651,-256.1062 408,-176 392.9809,-154.8796 383.4624,-125.95 378.6932,-108.5565"/>
<polygon fill="#191970" stroke="#191970" points="1326.6208,-360.9378 1336.9841,-358.7349 1327.509,-353.9944 1326.6208,-360.9378"/>
</g>
<!-- Node26&#45;&gt;Node20 -->
<g id="edge58" class="edge">
<title>Node26&#45;&gt;Node20</title>
<path fill="none" stroke="#191970" d="M1327.0519,-357.6442C1239.8558,-342.5584 1117.569,-321.3556 1117,-321 1059.2747,-284.9203 1021.4514,-208.6394 1007.2758,-175.9266"/>
<polygon fill="#191970" stroke="#191970" points="1326.5178,-361.1037 1336.9681,-359.3596 1327.7111,-354.2062 1326.5178,-361.1037"/>
</g>
<!-- Node26&#45;&gt;Node21 -->
<g id="edge41" class="edge">
<title>Node26&#45;&gt;Node21</title>
<path fill="none" stroke="#191970" d="M1326.8714,-357.5357C1325.5725,-357.3528 1324.2814,-357.1741 1323,-357 1142.593,-332.4919 928.7741,-313.9273 821.1831,-305.3099"/>
<polygon fill="#191970" stroke="#191970" points="1326.5485,-361.0256 1336.9501,-359.0116 1327.5628,-354.0995 1326.5485,-361.0256"/>
</g>
<!-- Node26&#45;&gt;Node27 -->
<g id="edge42" class="edge">
<title>Node26&#45;&gt;Node27</title>
<path fill="none" stroke="#191970" d="M1499.4025,-371.572C1707.2308,-368.7912 2251.3981,-358.2481 2704,-321 2731.5369,-318.7338 2761.5023,-315.3004 2788.4,-311.8627"/>
<polygon fill="#191970" stroke="#191970" points="1499.1197,-368.0754 1489.1665,-371.7063 1499.2116,-375.0748 1499.1197,-368.0754"/>
</g>
<!-- Node26&#45;&gt;Node29 -->
<g id="edge48" class="edge">
<title>Node26&#45;&gt;Node29</title>
<path fill="none" stroke="#191970" d="M1415.0771,-347.4016C1415.8041,-338.6173 1416.6112,-328.8652 1417.3033,-320.5015"/>
<polygon fill="#191970" stroke="#191970" points="1411.58,-347.2233 1414.2432,-357.478 1418.5561,-347.8007 1411.58,-347.2233"/>
</g>
<!-- Node27&#45;&gt;Node7 -->
<g id="edge43" class="edge">
<title>Node27&#45;&gt;Node7</title>
<path fill="none" stroke="#191970" d="M2778.1835,-288.171C2666.8959,-274.139 2483.2328,-250.9815 2377.9242,-237.7035"/>
<polygon fill="#191970" stroke="#191970" points="2778.0307,-291.6793 2788.3901,-289.4579 2778.9065,-284.7343 2778.0307,-291.6793"/>
</g>
<!-- Node27&#45;&gt;Node8 -->
<g id="edge44" class="edge">
<title>Node27&#45;&gt;Node8</title>
<path fill="none" stroke="#191970" d="M2888.1594,-276.6295C2902.6773,-257.1082 2925.5762,-229.7016 2951,-212 2974.0105,-195.9787 3002.72,-183.9309 3027.302,-175.5325"/>
<polygon fill="#191970" stroke="#191970" points="2885.1398,-274.8313 2882.0998,-284.9807 2890.8055,-278.9424 2885.1398,-274.8313"/>
</g>
<!-- Node27&#45;&gt;Node9 -->
<g id="edge45" class="edge">
<title>Node27&#45;&gt;Node9</title>
<path fill="none" stroke="#191970" d="M2869.3339,-274.9146C2865.7049,-254.3717 2857.1495,-226.4275 2837,-212 2798.5566,-184.4737 2114.602,-167.0104 1889.8907,-161.996"/>
<polygon fill="#191970" stroke="#191970" points="2865.882,-275.4969 2870.8179,-284.8717 2872.8055,-274.465 2865.882,-275.4969"/>
</g>
<!-- Node27&#45;&gt;Node25 -->
<g id="edge46" class="edge">
<title>Node27&#45;&gt;Node25</title>
<path fill="none" stroke="#191970" d="M2836.8452,-279.9313C2816.0932,-268.0847 2790.2593,-253.337 2771.2808,-242.5028"/>
<polygon fill="#191970" stroke="#191970" points="2835.2658,-283.0598 2845.6855,-284.978 2838.7362,-276.9806 2835.2658,-283.0598"/>
</g>
<!-- Node28 -->
<g id="node25" class="node">
<title>Node28</title>
<g id="a_node25"><a xlink:href="scalar__datatype_8cxx.html" target="_top" xlink:title="/home/jbigot/data/projects\l/pdi/pdi/src/scalar_datatype.cxx">
<polygon fill="#ffffff" stroke="#000000" points="2960.5,-212.5 2960.5,-242.5 3125.5,-242.5 3125.5,-212.5 2960.5,-212.5"/>
<text text-anchor="start" x="2968.5" y="-230.5" font-family="Helvetica,sans-Serif" font-size="10.00" fill="#000000">/home/jbigot/data/projects</text>
<text text-anchor="middle" x="3043" y="-219.5" font-family="Helvetica,sans-Serif" font-size="10.00" fill="#000000">/pdi/pdi/src/scalar_datatype.cxx</text>
</a>
</g>
</g>
<!-- Node27&#45;&gt;Node28 -->
<g id="edge47" class="edge">
<title>Node27&#45;&gt;Node28</title>
<path fill="none" stroke="#191970" d="M2916.7238,-281.0382C2945.0833,-269.0144 2981.2582,-253.6771 3007.6141,-242.5028"/>
<polygon fill="#191970" stroke="#191970" points="2915.2718,-277.8521 2907.4313,-284.978 2918.0042,-284.2968 2915.2718,-277.8521"/>
</g>
<!-- Node29&#45;&gt;Node10 -->
<g id="edge49" class="edge">
<title>Node29&#45;&gt;Node10</title>
<path fill="none" stroke="#191970" d="M1427.507,-269.6708C1438.2137,-235.9527 1459.3815,-181.4528 1493,-145 1506.3704,-130.5024 1524.5057,-117.8 1539.4765,-108.6378"/>
<polygon fill="#191970" stroke="#191970" points="1424.1015,-268.8382 1424.5178,-279.4248 1430.7943,-270.8892 1424.1015,-268.8382"/>
</g>
<!-- Node29&#45;&gt;Node11 -->
<g id="edge50" class="edge">
<title>Node29&#45;&gt;Node11</title>
<path fill="none" stroke="#191970" d="M1436.948,-270.6757C1449.1874,-252.3018 1466.645,-228.9724 1486,-212 1502.9192,-197.1636 1524.7734,-184.5373 1542.7094,-175.5001"/>
<polygon fill="#191970" stroke="#191970" points="1433.891,-268.9565 1431.3733,-279.2479 1439.7593,-272.7728 1433.891,-268.9565"/>
</g>
<!-- Node30&#45;&gt;Node8 -->
<g id="edge64" class="edge">
<title>Node30&#45;&gt;Node8</title>
<path fill="none" stroke="#191970" d="M2477.858,-274.6524C2516.859,-254.2997 2574.9755,-226.7645 2629,-212 2695.3771,-193.8597 2880.8064,-176.5541 2992.466,-167.3515"/>
<polygon fill="#191970" stroke="#191970" points="2476.0711,-271.6378 2468.8585,-279.3986 2479.3365,-277.8295 2476.0711,-271.6378"/>
</g>
<!-- Node30&#45;&gt;Node9 -->
<g id="edge65" class="edge">
<title>Node30&#45;&gt;Node9</title>
<path fill="none" stroke="#191970" d="M2436.6003,-269.2207C2437.595,-250.0337 2435.0827,-226.3462 2420,-212 2382.2499,-176.0934 2040.0271,-164.8908 1889.5026,-161.6822"/>
<polygon fill="#191970" stroke="#191970" points="2433.1007,-269.0697 2435.7445,-279.3293 2440.0757,-269.6603 2433.1007,-269.0697"/>
</g>
<!-- Node30&#45;&gt;Node10 -->
<g id="edge66" class="edge">
<title>Node30&#45;&gt;Node10</title>
<path fill="none" stroke="#191970" d="M2445.2593,-269.8919C2451.1784,-251.4335 2454.3721,-228.299 2442,-212 2375.042,-123.7893 2311.0231,-164.454 2202,-145 1998.657,-108.7157 1754.0674,-97.9634 1636.6201,-94.8014"/>
<polygon fill="#191970" stroke="#191970" points="2441.9579,-268.7296 2441.8783,-279.3242 2448.5473,-271.0917 2441.9579,-268.7296"/>
</g>
<!-- Node30&#45;&gt;Node11 -->
<g id="edge67" class="edge">
<title>Node30&#45;&gt;Node11</title>
<path fill="none" stroke="#191970" d="M2424.5209,-269.6119C2417.9033,-249.659 2406.0834,-224.9398 2386,-212 2325.4749,-173.0036 1810.7966,-181.409 1739,-176 1709.8037,-173.8004 1677.7148,-170.8617 1649.7872,-168.1346"/>
<polygon fill="#191970" stroke="#191970" points="2421.1891,-270.6859 2427.4443,-279.2371 2427.887,-268.6515 2421.1891,-270.6859"/>
</g>
<!-- Node30&#45;&gt;Node12 -->
<g id="edge68" class="edge">
<title>Node30&#45;&gt;Node12</title>
<path fill="none" stroke="#191970" d="M2353.0906,-284.9052C2284.9331,-271.8671 2187.4138,-253.2124 2122.2389,-240.7449"/>
<polygon fill="#191970" stroke="#191970" points="2352.4467,-288.3454 2362.9263,-286.7867 2353.762,-281.4701 2352.4467,-288.3454"/>
</g>
<!-- Node30&#45;&gt;Node15 -->
<g id="edge63" class="edge">
<title>Node30&#45;&gt;Node15</title>
<path fill="none" stroke="#191970" d="M2461.0984,-272.3863C2520.026,-216.4651 2652.2838,-90.9551 2704.3498,-41.5456"/>
<polygon fill="#191970" stroke="#191970" points="2458.463,-270.062 2453.6185,-279.4845 2463.2815,-275.1396 2458.463,-270.062"/>
</g>
<!-- Node30&#45;&gt;Node28 -->
<g id="edge69" class="edge">
<title>Node30&#45;&gt;Node28</title>
<path fill="none" stroke="#191970" d="M2511.3725,-284.8111C2523.6133,-282.7062 2536.1277,-280.6898 2548,-279 2692.5614,-258.4245 2861.9807,-242.5711 2960.4369,-234.172"/>
<polygon fill="#191970" stroke="#191970" points="2510.4222,-281.4242 2501.1748,-286.5949 2511.6283,-288.3195 2510.4222,-281.4242"/>
</g>
<!-- Node32&#45;&gt;Node8 -->
<g id="edge82" class="edge">
<title>Node32&#45;&gt;Node8</title>
<path fill="none" stroke="#191970" d="M1073.7599,-495.7197C1085.8853,-493.8491 1098.2335,-492.1893 1110,-491 1516.3493,-449.9288 2552.6273,-501.359 2945,-388 3052.563,-356.9243 3111.3361,-347.7009 3151,-243 3155.8809,-230.1158 3157.2183,-224.2947 3151,-212 3143.0331,-196.2478 3127.727,-184.1369 3113.4543,-175.6292"/>
<polygon fill="#191970" stroke="#191970" points="1072.9676,-492.3018 1063.6446,-497.3349 1074.0714,-499.2142 1072.9676,-492.3018"/>
</g>
<!-- Node32&#45;&gt;Node13 -->
<g id="edge78" class="edge">
<title>Node32&#45;&gt;Node13</title>
<path fill="none" stroke="#191970" d="M997.5456,-481.7063C1008.2872,-448.0203 1029.4864,-393.5493 1063,-357 1114.0702,-301.3039 1194.7002,-262.3535 1242.8619,-242.5486"/>
<polygon fill="#191970" stroke="#191970" points="994.1431,-480.8632 994.5457,-491.4504 1000.8332,-482.923 994.1431,-480.8632"/>
</g>
<!-- Node32&#45;&gt;Node17 -->
<g id="edge81" class="edge">
<title>Node32&#45;&gt;Node17</title>
<path fill="none" stroke="#191970" d="M904.4234,-491.694C775.8408,-458.9177 541.004,-390.9256 493,-321 473.2482,-292.2283 452.0914,-225.6434 502,-145 512.154,-128.593 529.6147,-116.8212 546.3192,-108.7118"/>
<polygon fill="#191970" stroke="#191970" points="903.6982,-495.1207 914.2515,-494.1834 905.417,-488.335 903.6982,-495.1207"/>
</g>
<!-- Node32&#45;&gt;Node21 -->
<g id="edge79" class="edge">
<title>Node32&#45;&gt;Node21</title>
<path fill="none" stroke="#191970" d="M987.3185,-481.2421C983.7669,-446.4275 972.7905,-390.2483 939,-357 922.0048,-340.2775 867.3378,-324.7414 821.4688,-314.1266"/>
<polygon fill="#191970" stroke="#191970" points="983.8412,-481.6548 988.1995,-491.3117 990.8146,-481.0447 983.8412,-481.6548"/>
</g>
<!-- Node32&#45;&gt;Node23 -->
<g id="edge80" class="edge">
<title>Node32&#45;&gt;Node23</title>
<path fill="none" stroke="#191970" d="M1073.8244,-496.2842C1085.9402,-494.3296 1098.2685,-492.496 1110,-491 1306.9548,-465.8849 1540.3036,-450.4953 1659.4398,-443.6651"/>
<polygon fill="#191970" stroke="#191970" points="1073.0128,-492.8707 1063.7149,-497.9499 1074.1508,-499.7776 1073.0128,-492.8707"/>
</g>
<!-- Node33&#45;&gt;Node7 -->
<g id="edge85" class="edge">
<title>Node33&#45;&gt;Node7</title>
<path fill="none" stroke="#191970" d="M2293.387,-419.3113C2305.9124,-411.4533 2317.9408,-401.1199 2325,-388 2331.5282,-375.867 2326.4641,-370.6998 2325,-357 2320.5268,-315.1444 2308.1408,-266.9545 2301.4407,-242.8747"/>
<polygon fill="#191970" stroke="#191970" points="2291.5821,-416.312 2284.6912,-424.3598 2295.0967,-422.3658 2291.5821,-416.312"/>
</g>
<!-- Node33&#45;&gt;Node8 -->
<g id="edge88" class="edge">
<title>Node33&#45;&gt;Node8</title>
<path fill="none" stroke="#191970" d="M2326.7847,-432.6757C2427.9042,-423.4686 2596.2424,-406.1226 2656,-388 2685.4821,-379.059 2688.4767,-365.8042 2718,-357 2850.4963,-317.4881 2898.2421,-371.3771 3027,-321 3081.8045,-299.5575 3107.3244,-295.4568 3134,-243 3140.2452,-230.7189 3139.3637,-224.6908 3134,-212 3127.7566,-197.2278 3114.9741,-184.603 3103.5268,-175.5505"/>
<polygon fill="#191970" stroke="#191970" points="2326.2556,-429.2091 2316.6113,-433.5952 2326.8858,-436.1807 2326.2556,-429.2091"/>
</g>
<!-- Node33&#45;&gt;Node9 -->
<g id="edge90" class="edge">
<title>Node33&#45;&gt;Node9</title>
<path fill="none" stroke="#191970" d="M2203.6051,-419.1259C2190.7061,-411.1097 2177.7094,-400.732 2169,-388 2123.8183,-321.9503 2188.9568,-267.1812 2131,-212 2097.2037,-179.8223 1970.7077,-167.6702 1889.5322,-163.1369"/>
<polygon fill="#191970" stroke="#191970" points="2202.0649,-422.2795 2212.4656,-424.2982 2205.5939,-416.2341 2202.0649,-422.2795"/>
</g>
<!-- Node33&#45;&gt;Node10 -->
<g id="edge94" class="edge">
<title>Node33&#45;&gt;Node10</title>
<path fill="none" stroke="#191970" d="M2326.7339,-427.1968C2388.4038,-413.0389 2469.8318,-383.1559 2510,-321 2538.829,-276.3903 2502.0065,-245.758 2461,-212 2406.8138,-167.3919 2385.9458,-162.5894 2318,-145 2190.3754,-111.9614 1797.4784,-99.0117 1636.689,-95.007"/>
<polygon fill="#191970" stroke="#191970" points="2325.6441,-423.8527 2316.6286,-429.418 2327.1469,-430.6895 2325.6441,-423.8527"/>
</g>
<!-- Node33&#45;&gt;Node11 -->
<g id="edge95" class="edge">
<title>Node33&#45;&gt;Node11</title>
<path fill="none" stroke="#191970" d="M2179.8099,-421.8108C2104.8494,-401.1876 1980.6239,-364.3421 1878,-321 1771.0675,-275.8381 1651.3329,-206.0512 1600.7118,-175.5883"/>
<polygon fill="#191970" stroke="#191970" points="2179.0332,-425.2268 2189.6023,-424.4896 2180.8803,-418.4749 2179.0332,-425.2268"/>
</g>
<!-- Node33&#45;&gt;Node14 -->
<g id="edge86" class="edge">
<title>Node33&#45;&gt;Node14</title>
<path fill="none" stroke="#191970" d="M2167.3438,-427.0541C2111.2843,-417.7459 2034.6633,-403.9171 1968,-388 1931.453,-379.2737 1411.6657,-224.9186 1245.6069,-175.5512"/>
<polygon fill="#191970" stroke="#191970" points="2166.7763,-430.5077 2177.2125,-428.6813 2167.9152,-423.601 2166.7763,-430.5077"/>
</g>
<!-- Node33&#45;&gt;Node15 -->
<g id="edge87" class="edge">
<title>Node33&#45;&gt;Node15</title>
<path fill="none" stroke="#191970" d="M2326.9286,-431.3518C2452.504,-418.4193 2683.6022,-394.0366 2701,-388 2725.7021,-379.4291 2726.202,-365.2894 2751,-357 2919.4488,-300.6911 2984.6468,-388.3329 3149,-321 3199.5526,-300.2894 3220.648,-292.388 3244,-243 3275.3466,-176.704 3292.9365,-132.6168 3244,-78 3214.8505,-45.467 2934.8819,-29.5801 2799.1166,-23.7387"/>
<polygon fill="#191970" stroke="#191970" points="2326.5543,-427.8718 2316.9649,-432.3768 2327.2706,-434.8351 2326.5543,-427.8718"/>
</g>
<!-- Node33&#45;&gt;Node18 -->
<g id="edge91" class="edge">
<title>Node33&#45;&gt;Node18</title>
<path fill="none" stroke="#191970" d="M2167.3931,-436.7267C1944.0699,-428.749 1325.2821,-405.2127 1285,-388 1266.4955,-380.0929 1270.5421,-364.8186 1252,-357 1084.1372,-286.218 605.5733,-379.3647 433,-321 298.4948,-275.51 271.7437,-227.8146 194,-109 178.3354,-85.0601 165.0491,-54.3774 157.8278,-36.2877"/>
<polygon fill="#191970" stroke="#191970" points="2167.288,-440.225 2177.4063,-437.0834 2167.5373,-433.2295 2167.288,-440.225"/>
</g>
<!-- Node33&#45;&gt;Node19 -->
<g id="edge93" class="edge">
<title>Node33&#45;&gt;Node19</title>
<path fill="none" stroke="#191970" d="M2167.3142,-436.2512C1951.154,-427.276 1367.225,-401.8889 1328,-388 1305.7914,-380.1363 1307.2498,-364.7464 1285,-357 1118.6139,-299.072 650.2053,-400.5393 493,-321 422.0034,-285.0787 415.8889,-250.5189 388,-176 379.5634,-153.4576 376.6019,-125.461 375.5623,-108.562"/>
<polygon fill="#191970" stroke="#191970" points="2167.1896,-439.7489 2177.3259,-436.6661 2167.4795,-432.7549 2167.1896,-439.7489"/>
</g>
<!-- Node33&#45;&gt;Node25 -->
<g id="edge96" class="edge">
<title>Node33&#45;&gt;Node25</title>
<path fill="none" stroke="#191970" d="M2326.9712,-430.4789C2387.1636,-422.5172 2471.2757,-408.8816 2543,-388 2580.2073,-377.1676 2676.3404,-348.1417 2704,-321 2726.266,-299.1509 2737.2952,-263.151 2742.014,-242.7847"/>
<polygon fill="#191970" stroke="#191970" points="2326.2374,-427.0447 2316.7717,-431.804 2327.1393,-433.9864 2326.2374,-427.0447"/>
</g>
<!-- Node33&#45;&gt;Node26 -->
<g id="edge84" class="edge">
<title>Node33&#45;&gt;Node26</title>
<path fill="none" stroke="#191970" d="M2166.9732,-433.7501C2041.5871,-424.6465 1791.2089,-406.0864 1579,-388 1549.5829,-385.4928 1517.2547,-382.5229 1489.0052,-379.857"/>
<polygon fill="#191970" stroke="#191970" points="2167.021,-437.2627 2177.2479,-434.4953 2167.5273,-430.281 2167.021,-437.2627"/>
</g>
<!-- Node33&#45;&gt;Node28 -->
<g id="edge97" class="edge">
<title>Node33&#45;&gt;Node28</title>
<path fill="none" stroke="#191970" d="M2326.8515,-433.5927C2399.9573,-426.8693 2510.6451,-413.3631 2604,-388 2639.2036,-378.4357 2644.6561,-366.0318 2680,-357 2748.6899,-339.4469 2939.0249,-361.8082 2997,-321 3023.4803,-302.3607 3035.4193,-264.0745 3040.2056,-242.7293"/>
<polygon fill="#191970" stroke="#191970" points="2326.4376,-430.1157 2316.7911,-434.4969 2327.0643,-437.0876 2326.4376,-430.1157"/>
</g>
<!-- Node34 -->
<g id="node31" class="node">
<title>Node34</title>
<g id="a_node31"><a xlink:href="error_8cxx.html" target="_top" xlink:title="/home/jbigot/data/projects\l/pdi/pdi/src/error.cxx">
<polygon fill="#ffffff" stroke="#000000" points="2178,-357.5 2178,-387.5 2316,-387.5 2316,-357.5 2178,-357.5"/>
<text text-anchor="start" x="2186" y="-375.5" font-family="Helvetica,sans-Serif" font-size="10.00" fill="#000000">/home/jbigot/data/projects</text>
<text text-anchor="middle" x="2247" y="-364.5" font-family="Helvetica,sans-Serif" font-size="10.00" fill="#000000">/pdi/pdi/src/error.cxx</text>
</a>
</g>
</g>
<!-- Node33&#45;&gt;Node34 -->
<g id="edge89" class="edge">
<title>Node33&#45;&gt;Node34</title>
<path fill="none" stroke="#191970" d="M2247,-414.0249C2247,-405.128 2247,-395.4287 2247,-387.6432"/>
<polygon fill="#191970" stroke="#191970" points="2243.5001,-414.2966 2247,-424.2967 2250.5001,-414.2967 2243.5001,-414.2966"/>
</g>
<!-- Node35 -->
<g id="node32" class="node">
<title>Node35</title>
<g id="a_node32"><a xlink:href="paraconf__wrapper_8cxx.html" target="_top" xlink:title="/home/jbigot/data/projects\l/pdi/pdi/src/paraconf_wrapper.cxx">
<polygon fill="#ffffff" stroke="#000000" points="2760,-357.5 2760,-387.5 2936,-387.5 2936,-357.5 2760,-357.5"/>
<text text-anchor="start" x="2768" y="-375.5" font-family="Helvetica,sans-Serif" font-size="10.00" fill="#000000">/home/jbigot/data/projects</text>
<text text-anchor="middle" x="2848" y="-364.5" font-family="Helvetica,sans-Serif" font-size="10.00" fill="#000000">/pdi/pdi/src/paraconf_wrapper.cxx</text>
</a>
</g>
</g>
<!-- Node33&#45;&gt;Node35 -->
<g id="edge92" class="edge">
<title>Node33&#45;&gt;Node35</title>
<path fill="none" stroke="#191970" d="M2326.7312,-432.4597C2425.353,-423.4777 2598.3116,-406.8316 2746,-388 2750.5308,-387.4223 2755.171,-386.8059 2759.8539,-386.1642"/>
<polygon fill="#191970" stroke="#191970" points="2326.1872,-428.9946 2316.5445,-433.3843 2326.82,-435.9659 2326.1872,-428.9946"/>
</g>
<!-- Node36&#45;&gt;Node8 -->
<g id="edge113" class="edge">
<title>Node36&#45;&gt;Node8</title>
<path fill="none" stroke="#191970" d="M1368.5062,-579.717C1669.6898,-561.7356 2698.6735,-493.771 3009,-388 3099.5255,-357.1455 3147.9795,-336.5203 3168,-243 3170.8842,-229.5275 3174.8239,-223.9692 3168,-212 3158.5244,-195.3796 3141.3457,-183.576 3124.7413,-175.5007"/>
<polygon fill="#191970" stroke="#191970" points="1367.8762,-576.2482 1358.1016,-580.3356 1368.2917,-583.2359 1367.8762,-576.2482"/>
</g>
<!-- Node36&#45;&gt;Node10 -->
<g id="edge117" class="edge">
<title>Node36&#45;&gt;Node10</title>
<path fill="none" stroke="#191970" d="M1368.398,-572.131C1476.4621,-554.3994 1669.4469,-516.8851 1825,-455 1935.998,-410.8406 1964.3802,-395.2022 2058,-321 2095.2103,-291.5074 2113.5584,-287.1612 2131,-243 2179.3963,-120.4634 1975.4148,-156.7332 1925,-145 1826.0767,-121.9772 1709.2405,-107.488 1636.6192,-99.9398"/>
<polygon fill="#191970" stroke="#191970" points="1367.5192,-568.7278 1358.2094,-573.7854 1368.6411,-575.6373 1367.5192,-568.7278"/>
</g>
<!-- Node36&#45;&gt;Node11 -->
<g id="edge118" class="edge">
<title>Node36&#45;&gt;Node11</title>
<path fill="none" stroke="#191970" d="M1314.5674,-563.5456C1359.3181,-530.5709 1444.6723,-462.5931 1498,-388 1538.9678,-330.6955 1541.73,-310.4633 1562,-243 1568.8976,-220.0432 1572.7197,-192.4069 1574.5653,-175.6601"/>
<polygon fill="#191970" stroke="#191970" points="1312.4542,-560.7548 1306.4403,-569.4774 1316.5811,-566.4089 1312.4542,-560.7548"/>
</g>
<!-- Node36&#45;&gt;Node13 -->
<g id="edge100" class="edge">
<title>Node36&#45;&gt;Node13</title>
<path fill="none" stroke="#191970" d="M1285.2488,-559.4609C1284.2744,-539.2949 1280.1421,-511.0939 1266,-491 1215.1554,-418.7569 1139.3599,-464.9686 1096,-388 1089.2376,-375.996 1089.6056,-369.2041 1096,-357 1096,-357 1211.8542,-276.7694 1261.1827,-242.6087"/>
<polygon fill="#191970" stroke="#191970" points="1281.75,-559.5555 1285.508,-569.4614 1288.7477,-559.3741 1281.75,-559.5555"/>
</g>
<!-- Node36&#45;&gt;Node15 -->
<g id="edge111" class="edge">
<title>Node36&#45;&gt;Node15</title>
<path fill="none" stroke="#191970" d="M1368.446,-583.5839C1598.3656,-579.726 2259.6028,-559.6309 2797,-455 3021.1371,-411.3607 3131.4743,-428.2369 3265,-243 3307.8944,-183.4936 3324.7983,-125.6181 3269,-78 3233.9628,-48.0993 2939.0909,-30.7438 2799.1565,-24.1208"/>
<polygon fill="#191970" stroke="#191970" points="1368.0945,-580.089 1358.1525,-583.7505 1368.2079,-587.0881 1368.0945,-580.089"/>
</g>
<!-- Node36&#45;&gt;Node16 -->
<g id="edge112" class="edge">
<title>Node36&#45;&gt;Node16</title>
<path fill="none" stroke="#191970" d="M1201.6075,-577.4489C1106.6435,-568.6753 957.8177,-552.4518 905,-533 741.4167,-472.7551 686.5732,-454.9416 575,-321 542.6854,-282.2069 526.0641,-259.5637 543,-212 547.9537,-198.0879 558.4537,-185.2129 567.7153,-175.8159"/>
<polygon fill="#191970" stroke="#191970" points="1201.4891,-580.9526 1211.7664,-578.3781 1202.1268,-573.9817 1201.4891,-580.9526"/>
</g>
<!-- Node36&#45;&gt;Node18 -->
<g id="edge114" class="edge">
<title>Node36&#45;&gt;Node18</title>
<path fill="none" stroke="#191970" d="M1201.5527,-581.5862C1047.9409,-575.6386 726.228,-560.3027 618,-533 470.1255,-495.6957 415.9502,-494.7161 307,-388 199.5314,-282.735 162.7909,-91.4244 154.1707,-36.2626"/>
<polygon fill="#191970" stroke="#191970" points="1201.7439,-585.096 1211.8705,-581.9814 1202.0118,-578.1011 1201.7439,-585.096"/>
</g>
<!-- Node36&#45;&gt;Node19 -->
<g id="edge116" class="edge">
<title>Node36&#45;&gt;Node19</title>
<path fill="none" stroke="#191970" d="M1201.3867,-578.8963C1081.751,-570.3412 867.9059,-552.9037 793,-533 567.2139,-473.0051 481.1531,-482.1397 312,-321 253.9894,-265.7376 231.0121,-213.2362 273,-145 283.5001,-127.9359 301.5918,-116.3202 319.6504,-108.5099"/>
<polygon fill="#191970" stroke="#191970" points="1201.3786,-582.4045 1211.6014,-579.6216 1201.8744,-575.4221 1201.3786,-582.4045"/>
</g>
<!-- Node36&#45;&gt;Node32 -->
<g id="edge101" class="edge">
<title>Node36&#45;&gt;Node32</title>
<path fill="none" stroke="#191970" d="M1213.8994,-567.0852C1168.4914,-555.9633 1109.7111,-541.5661 1063.6321,-530.2798"/>
<polygon fill="#191970" stroke="#191970" points="1213.123,-570.4984 1223.6686,-569.478 1214.7884,-563.6994 1213.123,-570.4984"/>
</g>
<!-- Node36&#45;&gt;Node37 -->
<g id="edge102" class="edge">
<title>Node36&#45;&gt;Node37</title>
<path fill="none" stroke="#191970" d="M1201.7018,-573.1869C1170.514,-565.7402 1136.3039,-553.4086 1110,-533 1056.7112,-491.6543 961.8031,-298.3336 935.1414,-242.5839"/>
<polygon fill="#191970" stroke="#191970" points="1201.1834,-576.6577 1211.7077,-575.4371 1202.7193,-569.8282 1201.1834,-576.6577"/>
</g>
<!-- Node38 -->
<g id="node35" class="node">
<title>Node38</title>
<g id="a_node35"><a xlink:href="logger_8cxx.html" target="_top" xlink:title="/home/jbigot/data/projects\l/pdi/pdi/src/logger.cxx">
<polygon fill="#ffffff" stroke="#000000" points="1119,-497 1119,-527 1257,-527 1257,-497 1119,-497"/>
<text text-anchor="start" x="1127" y="-515" font-family="Helvetica,sans-Serif" font-size="10.00" fill="#000000">/home/jbigot/data/projects</text>
<text text-anchor="middle" x="1188" y="-504" font-family="Helvetica,sans-Serif" font-size="10.00" fill="#000000">/pdi/pdi/src/logger.cxx</text>
</a>
</g>
</g>
<!-- Node36&#45;&gt;Node38 -->
<g id="edge115" class="edge">
<title>Node36&#45;&gt;Node38</title>
<path fill="none" stroke="#191970" d="M1256.6457,-563.3074C1241.0659,-551.6627 1222.1131,-537.4969 1208.0727,-527.0028"/>
<polygon fill="#191970" stroke="#191970" points="1254.7962,-566.2946 1264.9015,-569.478 1258.987,-560.6877 1254.7962,-566.2946"/>
</g>
<!-- Node37&#45;&gt;Node10 -->
<g id="edge109" class="edge">
<title>Node37&#45;&gt;Node10</title>
<path fill="none" stroke="#191970" d="M917.8728,-202.5145C912.2999,-184.2578 909.0212,-160.1412 923,-145 942.2707,-124.1267 1334.4878,-104.0324 1497.2016,-96.5606"/>
<polygon fill="#191970" stroke="#191970" points="914.6471,-203.8975 921.2075,-212.2169 921.267,-201.6222 914.6471,-203.8975"/>
</g>
<!-- Node37&#45;&gt;Node11 -->
<g id="edge110" class="edge">
<title>Node37&#45;&gt;Node11</title>
<path fill="none" stroke="#191970" d="M1009.8932,-216.9532C1023.9318,-215.234 1038.3801,-213.5203 1052,-212 1212.3438,-194.1022 1400.6696,-176.4035 1502.1742,-167.137"/>
<polygon fill="#191970" stroke="#191970" points="1009.2572,-213.505 999.761,-218.2033 1010.1144,-220.4524 1009.2572,-213.505"/>
</g>
<!-- Node37&#45;&gt;Node14 -->
<g id="edge103" class="edge">
<title>Node37&#45;&gt;Node14</title>
<path fill="none" stroke="#191970" d="M997.6492,-210.0225C1040.2152,-199.3411 1094.1097,-185.8171 1134.8186,-175.6017"/>
<polygon fill="#191970" stroke="#191970" points="996.7674,-206.6352 987.92,-212.4639 998.4712,-213.4247 996.7674,-206.6352"/>
</g>
<!-- Node37&#45;&gt;Node15 -->
<g id="edge104" class="edge">
<title>Node37&#45;&gt;Node15</title>
<path fill="none" stroke="#191970" d="M912.8653,-203.374C903.6461,-185.2916 896.0648,-161.0063 910,-145 1052.0167,18.1231 1176.6014,-97.5276 1392,-78 1871.6153,-34.519 2451.3253,-24.0712 2652.8112,-21.6775"/>
<polygon fill="#191970" stroke="#191970" points="909.8336,-205.1244 917.7304,-212.1878 915.962,-201.7416 909.8336,-205.1244"/>
</g>
<!-- Node37&#45;&gt;Node16 -->
<g id="edge105" class="edge">
<title>Node37&#45;&gt;Node16</title>
<path fill="none" stroke="#191970" d="M846.0686,-211.4959C789.2591,-200.399 714.2221,-185.7416 659.1784,-174.9897"/>
<polygon fill="#191970" stroke="#191970" points="845.6104,-214.9725 856.096,-213.4546 846.9525,-208.1023 845.6104,-214.9725"/>
</g>
<!-- Node37&#45;&gt;Node18 -->
<g id="edge106" class="edge">
<title>Node37&#45;&gt;Node18</title>
<path fill="none" stroke="#191970" d="M896.1437,-206.5391C836.1639,-167.2403 710.4613,-85.7318 688,-78 605.5434,-49.6162 359.0554,-32.3494 231.0786,-25.0567"/>
<polygon fill="#191970" stroke="#191970" points="894.5569,-209.684 904.8384,-212.2419 898.3961,-203.8307 894.5569,-209.684"/>
</g>
<!-- Node37&#45;&gt;Node19 -->
<g id="edge107" class="edge">
<title>Node37&#45;&gt;Node19</title>
<path fill="none" stroke="#191970" d="M846.1132,-219.615C731.4618,-208.2676 533.5232,-187.4427 502,-176 458.9968,-160.3901 415.7803,-127.887 392.5068,-108.6662"/>
<polygon fill="#191970" stroke="#191970" points="845.9643,-223.1172 856.2597,-220.616 846.6516,-216.151 845.9643,-223.1172"/>
</g>
<!-- Node37&#45;&gt;Node20 -->
<g id="edge108" class="edge">
<title>Node37&#45;&gt;Node20</title>
<path fill="none" stroke="#191970" d="M951.974,-205.4965C962.6267,-195.7193 974.8993,-184.4554 984.5007,-175.6432"/>
<polygon fill="#191970" stroke="#191970" points="949.5656,-202.9562 944.5648,-212.2967 954.2989,-208.1134 949.5656,-202.9562"/>
</g>
<!-- Node39&#45;&gt;Node7 -->
<g id="edge121" class="edge">
<title>Node39&#45;&gt;Node7</title>
<path fill="none" stroke="#191970" d="M2722.5644,-637.0148C2819.157,-611.6684 2964,-564.8498 2964,-512 2964,-512 2964,-512 2964,-439.5 2964,-401.8735 2973.7143,-381.3155 2945,-357 2844.5886,-271.9706 2466.7133,-388.8834 2354,-321 2338.8543,-311.8783 2315.6273,-266.6536 2304.0574,-242.6033"/>
<polygon fill="#191970" stroke="#191970" points="2721.592,-633.6511 2712.791,-639.5496 2723.3494,-640.4269 2721.592,-633.6511"/>
</g>
<!-- Node39&#45;&gt;Node8 -->
<g id="edge123" class="edge">
<title>Node39&#45;&gt;Node8</title>
<path fill="none" stroke="#191970" d="M2723.0382,-652.1744C2844.0034,-644.4645 3059.1726,-627.3853 3132,-600 3181.0428,-581.5584 3203.1857,-578.595 3229,-533 3277.2146,-447.8401 3186.9718,-215.7558 3184,-212 3170.7882,-195.3026 3150.7429,-183.5849 3131.8364,-175.5934"/>
<polygon fill="#191970" stroke="#191970" points="2722.4676,-648.7033 2712.7073,-652.8246 2722.9074,-655.6894 2722.4676,-648.7033"/>
</g>
<!-- Node39&#45;&gt;Node10 -->
<g id="edge127" class="edge">
<title>Node39&#45;&gt;Node10</title>
<path fill="none" stroke="#191970" d="M2722.6831,-651.1659C2864.9726,-640.9103 3140.5195,-618.9409 3181,-600 3328.1764,-531.1358 3428.5375,-424.4011 3356,-279 3311.7954,-190.392 3271.3991,-177.8944 3178,-145 3104.4269,-119.0881 1936.5982,-99.2412 1636.7399,-94.555"/>
<polygon fill="#191970" stroke="#191970" points="2722.3976,-647.6773 2712.6737,-651.8838 2722.8985,-654.6593 2722.3976,-647.6773"/>
</g>
<!-- Node39&#45;&gt;Node11 -->
<g id="edge128" class="edge">
<title>Node39&#45;&gt;Node11</title>
<path fill="none" stroke="#191970" d="M2553.0339,-651.0374C2337.9899,-634.2264 1780.0065,-579.3459 1650,-455 1608.5692,-415.3731 1584.1225,-230.5002 1577.7065,-175.7902"/>
<polygon fill="#191970" stroke="#191970" points="2553.0799,-654.5514 2563.32,-651.8329 2553.6197,-647.5722 2553.0799,-654.5514"/>
</g>
<!-- Node39&#45;&gt;Node14 -->
<g id="edge122" class="edge">
<title>Node39&#45;&gt;Node14</title>
<path fill="none" stroke="#191970" d="M2553.395,-655.6554C2286.8439,-651.1013 1466.5981,-634.5767 1203,-600 1068.4023,-582.3445 993.4095,-636.0146 905,-533 830.3846,-446.0583 861.8966,-353.4266 949,-279 982.6076,-250.2835 1097.8087,-200.5158 1157.8823,-175.6099"/>
<polygon fill="#191970" stroke="#191970" points="2553.3424,-659.1549 2563.4004,-655.8251 2553.4612,-652.1559 2553.3424,-659.1549"/>
</g>
<!-- Node39&#45;&gt;Node18 -->
<g id="edge124" class="edge">
<title>Node39&#45;&gt;Node18</title>
<path fill="none" stroke="#191970" d="M2553.0596,-656.0258C2188.2475,-651.6565 763.8745,-632.6411 566,-600 298.4995,-555.8735 0,-643.6156 0,-372.5 0,-372.5 0,-372.5 0,-160.5 0,-98.7141 69.0147,-56.8552 114.0361,-36.1221"/>
<polygon fill="#191970" stroke="#191970" points="2553.2436,-659.5281 2563.2846,-656.1477 2553.3271,-652.5286 2553.2436,-659.5281"/>
</g>
<!-- Node39&#45;&gt;Node19 -->
<g id="edge126" class="edge">
<title>Node39&#45;&gt;Node19</title>
<path fill="none" stroke="#191970" d="M2552.7188,-655.3107C2254.4902,-649.2194 1259.2018,-627.2938 941,-600 724.6321,-581.441 659.5603,-611.2868 457,-533 313.0522,-477.3661 247.5003,-460.7348 182,-321 150.2108,-253.1826 245.7668,-153.4085 255,-145 273.1866,-128.4379 297.5128,-116.6638 319.5076,-108.5942"/>
<polygon fill="#191970" stroke="#191970" points="2552.9621,-658.8163 2563.0314,-655.5207 2553.1047,-651.8178 2552.9621,-658.8163"/>
</g>
<!-- Node39&#45;&gt;Node25 -->
<g id="edge129" class="edge">
<title>Node39&#45;&gt;Node25</title>
<path fill="none" stroke="#191970" d="M2722.8294,-650.2613C2809.3456,-642.0842 2936.5792,-626.0591 2978,-600 3018.4957,-574.5229 3040,-559.8434 3040,-512 3040,-512 3040,-512 3040,-439.5 3040,-393.6333 3017.0389,-381.0774 2978,-357 2901.4997,-309.8182 2847.7152,-378.9365 2779,-321 2755.4947,-301.1817 2748.2388,-263.7198 2745.9994,-242.7312"/>
<polygon fill="#191970" stroke="#191970" points="2722.3863,-646.7873 2712.7523,-651.1959 2723.0328,-653.7574 2722.3863,-646.7873"/>
</g>
<!-- Node39&#45;&gt;Node28 -->
<g id="edge130" class="edge">
<title>Node39&#45;&gt;Node28</title>
<path fill="none" stroke="#191970" d="M2722.7925,-651.9509C2867.2045,-641.298 3150.6837,-610.7577 3206,-533 3279.7024,-429.397 3120.3658,-288.4597 3062.7445,-242.5925"/>
<polygon fill="#191970" stroke="#191970" points="2722.3622,-648.4728 2712.6402,-652.6839 2722.8664,-655.4546 2722.3622,-648.4728"/>
</g>
<!-- Node39&#45;&gt;Node35 -->
<g id="edge125" class="edge">
<title>Node39&#45;&gt;Node35</title>
<path fill="none" stroke="#191970" d="M2659.5469,-627.8091C2703.7477,-567.9275 2803.3308,-433.0161 2836.7918,-387.6844"/>
<polygon fill="#191970" stroke="#191970" points="2656.5646,-625.9559 2653.4418,-636.08 2662.1965,-630.113 2656.5646,-625.9559"/>
</g>
<!-- Node39&#45;&gt;Node36 -->
<g id="edge120" class="edge">
<title>Node39&#45;&gt;Node36</title>
<path fill="none" stroke="#191970" d="M2553.3345,-652.4632C2306.4046,-639.2316 1589.8889,-600.8374 1358.1994,-588.4224"/>
<polygon fill="#191970" stroke="#191970" points="2553.1566,-655.9586 2563.3296,-652.9988 2553.5312,-648.9687 2553.1566,-655.9586"/>
</g>
</g>
</svg>
