<?xml version="1.0" encoding="UTF-8" standalone="no"?>
<!DOCTYPE svg PUBLIC "-//W3C//DTD SVG 1.1//EN"
 "http://www.w3.org/Graphics/SVG/1.1/DTD/svg11.dtd">
<!-- Generated by graphviz version 2.40.1 (20161225.0304)
 -->
<!-- Title: /home/jbigot/data/projects/pdi/pdi/include/pdi/pdi_fwd.h Pages: 1 -->
<!--zoomable 753 -->
<svg id="main" version="1.1" xmlns="http://www.w3.org/2000/svg" xmlns:xlink="http://www.w3.org/1999/xlink" xml:space="preserve" onload="init(evt)">
<style type="text/css"><![CDATA[
.edge:hover path { stroke: red; }
.edge:hover polygon { stroke: red; fill: red; }
]]></style>
<script type="text/javascript"><![CDATA[
var edges = document.getElementsByTagName('g');
if (edges && edges.length) {
  for (var i=0;i<edges.length;i++) {
    if (edges[i].id.substr(0,4)=='edge') {
      edges[i].setAttribute('class','edge');
    }
  }
}
]]></script>
        <defs>
                <circle id="rim" cx="0" cy="0" r="7"/>
                <circle id="rim2" cx="0" cy="0" r="3.5"/>
                <g id="zoomPlus">
                        <use xlink:href="#rim" fill="#404040">
                                <set attributeName="fill" to="#808080" begin="zoomplus.mouseover" end="zoomplus.mouseout"/>
                        </use>
                        <path d="M-4,0h8M0,-4v8" fill="none" stroke="white" stroke-width="1.5" pointer-events="none"/>
                </g>
                <g id="zoomMin">
                        <use xlink:href="#rim" fill="#404040">
                                <set attributeName="fill" to="#808080" begin="zoomminus.mouseover" end="zoomminus.mouseout"/>
                        </use>
                        <path d="M-4,0h8" fill="none" stroke="white" stroke-width="1.5" pointer-events="none"/>
                </g>
                <g id="dirArrow">
                        <path fill="none" stroke="white" stroke-width="1.5" d="M0,-3.0v7 M-2.5,-0.5L0,-3.0L2.5,-0.5"/>
                </g>
               <g id="resetDef">
                       <use xlink:href="#rim2" fill="#404040">
                               <set attributeName="fill" to="#808080" begin="reset.mouseover" end="reset.mouseout"/>
                       </use>
               </g>
        </defs>

<script type="text/javascript">
var viewWidth = 3394;
var viewHeight = 753;
var sectionId = 'dynsection-1';
</script>
<script xlink:href="svgpan.js"/>
<svg id="graph" class="graph">
<g id="viewport">
<title>/home/jbigot/data/projects/pdi/pdi/include/pdi/pdi_fwd.h</title>
<polygon fill="#ffffff" stroke="transparent" points="-4,4 -4,-749 3389.5454,-749 3389.5454,4 -4,4"/>
<!-- Node6 -->
<g id="node1" class="node">
<title>Node6</title>
<polygon fill="#bfbfbf" stroke="#000000" points="1851.5454,-714.5 1851.5454,-744.5 2003.5454,-744.5 2003.5454,-714.5 1851.5454,-714.5"/>
<text text-anchor="start" x="1859.5454" y="-732.5" font-family="Helvetica,sans-Serif" font-size="10.00" fill="#000000">/home/jbigot/data/projects</text>
<text text-anchor="middle" x="1927.5454" y="-721.5" font-family="Helvetica,sans-Serif" font-size="10.00" fill="#000000">/pdi/pdi/include/pdi/pdi_fwd.h</text>
</g>
<!-- Node7 -->
<g id="node2" class="node">
<title>Node7</title>
<g id="a_node2"><a xlink:href="array__datatype_8h.html" target="_top" xlink:title="/home/jbigot/data/projects\l/pdi/pdi/include/pdi/array\l_datatype.h">
<polygon fill="#ffffff" stroke="#000000" points="1297.5454,-279.5 1297.5454,-320.5 1435.5454,-320.5 1435.5454,-279.5 1297.5454,-279.5"/>
<text text-anchor="start" x="1305.5454" y="-308.5" font-family="Helvetica,sans-Serif" font-size="10.00" fill="#000000">/home/jbigot/data/projects</text>
<text text-anchor="start" x="1305.5454" y="-297.5" font-family="Helvetica,sans-Serif" font-size="10.00" fill="#000000">/pdi/pdi/include/pdi/array</text>
<text text-anchor="middle" x="1366.5454" y="-286.5" font-family="Helvetica,sans-Serif" font-size="10.00" fill="#000000">_datatype.h</text>
</a>
</g>
</g>
<!-- Node6&#45;&gt;Node7 -->
<g id="edge1" class="edge">
<title>Node6&#45;&gt;Node7</title>
<path fill="none" stroke="#191970" d="M1875.9488,-710.7288C1781.9656,-674.3199 1581.1018,-585.9992 1456.5454,-455 1417.3073,-413.7323 1388.1773,-352.2593 1374.7547,-320.5561"/>
<polygon fill="#191970" stroke="#191970" points="1874.9269,-714.0854 1885.5171,-714.3988 1877.4338,-707.5497 1874.9269,-714.0854"/>
</g>
<!-- Node14 -->
<g id="node9" class="node">
<title>Node14</title>
<g id="a_node9"><a xlink:href="context_8h.html" target="_top" xlink:title="/home/jbigot/data/projects\l/pdi/pdi/include/pdi/context.h">
<polygon fill="#ffffff" stroke="#000000" points="2179.5454,-212.5 2179.5454,-242.5 2329.5454,-242.5 2329.5454,-212.5 2179.5454,-212.5"/>
<text text-anchor="start" x="2187.5454" y="-230.5" font-family="Helvetica,sans-Serif" font-size="10.00" fill="#000000">/home/jbigot/data/projects</text>
<text text-anchor="middle" x="2254.5454" y="-219.5" font-family="Helvetica,sans-Serif" font-size="10.00" fill="#000000">/pdi/pdi/include/pdi/context.h</text>
</a>
</g>
</g>
<!-- Node6&#45;&gt;Node14 -->
<g id="edge8" class="edge">
<title>Node6&#45;&gt;Node14</title>
<path fill="none" stroke="#191970" d="M1998.6436,-711.8565C2123.1488,-679.3282 2371.9822,-606.488 2419.5454,-533 2488.6541,-426.2231 2331.7509,-287.9239 2274.4542,-242.6024"/>
<polygon fill="#191970" stroke="#191970" points="1997.608,-708.5092 1988.8083,-714.4097 1999.367,-715.2846 1997.608,-708.5092"/>
</g>
<!-- Node17 -->
<g id="node12" class="node">
<title>Node17</title>
<g id="a_node12"><a xlink:href="global__context_8h.html" target="_top" xlink:title="/home/jbigot/data/projects\l/pdi/pdi/src/global_context.h">
<polygon fill="#ffffff" stroke="#000000" points="2591.5454,-145.5 2591.5454,-175.5 2739.5454,-175.5 2739.5454,-145.5 2591.5454,-145.5"/>
<text text-anchor="start" x="2599.5454" y="-163.5" font-family="Helvetica,sans-Serif" font-size="10.00" fill="#000000">/home/jbigot/data/projects</text>
<text text-anchor="middle" x="2665.5454" y="-152.5" font-family="Helvetica,sans-Serif" font-size="10.00" fill="#000000">/pdi/pdi/src/global_context.h</text>
</a>
</g>
</g>
<!-- Node6&#45;&gt;Node17 -->
<g id="edge136" class="edge">
<title>Node6&#45;&gt;Node17</title>
<path fill="none" stroke="#191970" d="M2013.9657,-727.4959C2221.4546,-722.2807 2743.3038,-706.6606 2915.5454,-678 3065.0745,-653.1187 3243.5454,-736.085 3243.5454,-584.5 3243.5454,-584.5 3243.5454,-584.5 3243.5454,-439.5 3243.5454,-279.5017 3110.2091,-278.1934 2964.5454,-212 2877.9357,-172.6423 2847.28,-192.2512 2753.5454,-176 2749.1128,-175.2315 2744.5552,-174.4382 2739.9577,-173.6356"/>
<polygon fill="#191970" stroke="#191970" points="2013.6389,-724.0029 2003.7293,-727.7512 2013.8135,-731.0007 2013.6389,-724.0029"/>
</g>
<!-- Node18 -->
<g id="node13" class="node">
<title>Node18</title>
<g id="a_node13"><a xlink:href="data__descriptor__impl_8h.html" target="_top" xlink:title="/home/jbigot/data/projects\l/pdi/pdi/src/data_descriptor_impl.h">
<polygon fill="#ffffff" stroke="#000000" points="2474.0454,-78.5 2474.0454,-108.5 2653.0454,-108.5 2653.0454,-78.5 2474.0454,-78.5"/>
<text text-anchor="start" x="2482.0454" y="-96.5" font-family="Helvetica,sans-Serif" font-size="10.00" fill="#000000">/home/jbigot/data/projects</text>
<text text-anchor="middle" x="2563.5454" y="-85.5" font-family="Helvetica,sans-Serif" font-size="10.00" fill="#000000">/pdi/pdi/src/data_descriptor_impl.h</text>
</a>
</g>
</g>
<!-- Node6&#45;&gt;Node18 -->
<g id="edge135" class="edge">
<title>Node6&#45;&gt;Node18</title>
<path fill="none" stroke="#191970" d="M2013.9557,-729.0017C2246.4124,-727.1286 2881.3458,-718.3584 3086.5454,-678 3207.448,-654.221 3347.5454,-707.7188 3347.5454,-584.5 3347.5454,-584.5 3347.5454,-584.5 3347.5454,-372.5 3347.5454,-226.4921 2858.8073,-137.1196 2653.0982,-105.9693"/>
<polygon fill="#191970" stroke="#191970" points="2013.8303,-725.5025 2003.858,-729.0808 2013.8851,-732.5023 2013.8303,-725.5025"/>
</g>
<!-- Node22 -->
<g id="node17" class="node">
<title>Node22</title>
<g id="a_node17"><a xlink:href="data__descriptor_8h.html" target="_top" xlink:title="/home/jbigot/data/projects\l/pdi/pdi/include/pdi/data\l_descriptor.h">
<polygon fill="#ffffff" stroke="#000000" points="2461.5454,-279.5 2461.5454,-320.5 2599.5454,-320.5 2599.5454,-279.5 2461.5454,-279.5"/>
<text text-anchor="start" x="2469.5454" y="-308.5" font-family="Helvetica,sans-Serif" font-size="10.00" fill="#000000">/home/jbigot/data/projects</text>
<text text-anchor="start" x="2469.5454" y="-297.5" font-family="Helvetica,sans-Serif" font-size="10.00" fill="#000000">/pdi/pdi/include/pdi/data</text>
<text text-anchor="middle" x="2530.5454" y="-286.5" font-family="Helvetica,sans-Serif" font-size="10.00" fill="#000000">_descriptor.h</text>
</a>
</g>
</g>
<!-- Node6&#45;&gt;Node22 -->
<g id="edge24" class="edge">
<title>Node6&#45;&gt;Node22</title>
<path fill="none" stroke="#191970" d="M2013.6984,-727.1655C2217.4939,-721.2246 2714.023,-704.129 2738.5454,-678 2795.4212,-617.398 2771.9781,-567.0902 2738.5454,-491 2703.6382,-411.554 2617.5683,-350.6608 2567.7712,-320.6439"/>
<polygon fill="#191970" stroke="#191970" points="2013.5256,-723.669 2003.6311,-727.4569 2013.7282,-730.666 2013.5256,-723.669"/>
</g>
<!-- Node24 -->
<g id="node19" class="node">
<title>Node24</title>
<g id="a_node19"><a xlink:href="datatype_8h.html" target="_top" xlink:title="/home/jbigot/data/projects\l/pdi/pdi/include/pdi/datatype.h">
<polygon fill="#ffffff" stroke="#000000" points="1465.0454,-424.5 1465.0454,-454.5 1622.0454,-454.5 1622.0454,-424.5 1465.0454,-424.5"/>
<text text-anchor="start" x="1473.0454" y="-442.5" font-family="Helvetica,sans-Serif" font-size="10.00" fill="#000000">/home/jbigot/data/projects</text>
<text text-anchor="middle" x="1543.5454" y="-431.5" font-family="Helvetica,sans-Serif" font-size="10.00" fill="#000000">/pdi/pdi/include/pdi/datatype.h</text>
</a>
</g>
</g>
<!-- Node6&#45;&gt;Node24 -->
<g id="edge32" class="edge">
<title>Node6&#45;&gt;Node24</title>
<path fill="none" stroke="#191970" d="M1899.017,-707.9551C1824.7771,-651.8885 1626.9361,-502.4773 1563.4513,-454.533"/>
<polygon fill="#191970" stroke="#191970" points="1897.3512,-711.0831 1907.4406,-714.3167 1901.5699,-705.497 1897.3512,-711.0831"/>
</g>
<!-- Node25 -->
<g id="node20" class="node">
<title>Node25</title>
<g id="a_node20"><a xlink:href="record__datatype_8h.html" target="_top" xlink:title="/home/jbigot/data/projects\l/pdi/pdi/include/pdi/record\l_datatype.h">
<polygon fill="#ffffff" stroke="#000000" points="346.5454,-279.5 346.5454,-320.5 484.5454,-320.5 484.5454,-279.5 346.5454,-279.5"/>
<text text-anchor="start" x="354.5454" y="-308.5" font-family="Helvetica,sans-Serif" font-size="10.00" fill="#000000">/home/jbigot/data/projects</text>
<text text-anchor="start" x="354.5454" y="-297.5" font-family="Helvetica,sans-Serif" font-size="10.00" fill="#000000">/pdi/pdi/include/pdi/record</text>
<text text-anchor="middle" x="415.5454" y="-286.5" font-family="Helvetica,sans-Serif" font-size="10.00" fill="#000000">_datatype.h</text>
</a>
</g>
</g>
<!-- Node6&#45;&gt;Node25 -->
<g id="edge132" class="edge">
<title>Node6&#45;&gt;Node25</title>
<path fill="none" stroke="#191970" d="M1841.1282,-727.3054C1476.1388,-717.478 79.5454,-674.0254 79.5454,-584.5 79.5454,-584.5 79.5454,-584.5 79.5454,-439.5 79.5454,-383.579 124.7813,-382.5086 174.5454,-357 228.6846,-329.2488 296.6038,-314.7613 346.5293,-307.3533"/>
<polygon fill="#191970" stroke="#191970" points="1841.2759,-730.8105 1851.366,-727.5795 1841.4633,-723.813 1841.2759,-730.8105"/>
</g>
<!-- Node27 -->
<g id="node22" class="node">
<title>Node27</title>
<g id="a_node22"><a xlink:href="ref__any_8h.html" target="_top" xlink:title="/home/jbigot/data/projects\l/pdi/pdi/include/pdi/ref_any.h">
<polygon fill="#ffffff" stroke="#000000" points="1964.5454,-357.5 1964.5454,-387.5 2116.5454,-387.5 2116.5454,-357.5 1964.5454,-357.5"/>
<text text-anchor="start" x="1972.5454" y="-375.5" font-family="Helvetica,sans-Serif" font-size="10.00" fill="#000000">/home/jbigot/data/projects</text>
<text text-anchor="middle" x="2040.5454" y="-364.5" font-family="Helvetica,sans-Serif" font-size="10.00" fill="#000000">/pdi/pdi/include/pdi/ref_any.h</text>
</a>
</g>
</g>
<!-- Node6&#45;&gt;Node27 -->
<g id="edge133" class="edge">
<title>Node6&#45;&gt;Node27</title>
<path fill="none" stroke="#191970" d="M1938.2222,-704.6357C1949.4621,-676.1601 1965.5454,-627.8417 1965.5454,-584.5 1965.5454,-584.5 1965.5454,-584.5 1965.5454,-512 1965.5454,-461.6803 2003.8705,-412.0173 2025.7278,-387.7856"/>
<polygon fill="#191970" stroke="#191970" points="1934.8646,-703.6011 1934.3391,-714.1829 1941.3488,-706.2384 1934.8646,-703.6011"/>
</g>
<!-- Node28 -->
<g id="node23" class="node">
<title>Node28</title>
<g id="a_node23"><a xlink:href="expression_8h.html" target="_top" xlink:title="/home/jbigot/data/projects\l/pdi/pdi/include/pdi/expression.h">
<polygon fill="#ffffff" stroke="#000000" points="601.0454,-285 601.0454,-315 768.0454,-315 768.0454,-285 601.0454,-285"/>
<text text-anchor="start" x="609.0454" y="-303" font-family="Helvetica,sans-Serif" font-size="10.00" fill="#000000">/home/jbigot/data/projects</text>
<text text-anchor="middle" x="684.5454" y="-292" font-family="Helvetica,sans-Serif" font-size="10.00" fill="#000000">/pdi/pdi/include/pdi/expression.h</text>
</a>
</g>
</g>
<!-- Node6&#45;&gt;Node28 -->
<g id="edge97" class="edge">
<title>Node6&#45;&gt;Node28</title>
<path fill="none" stroke="#191970" d="M1841.4062,-727.4445C1592.4943,-721.2358 887.1415,-701.6412 843.5454,-678 703.8854,-602.2652 683.3496,-539.1914 634.5454,-388 630.313,-374.8884 629.6914,-369.8944 634.5454,-357 640.8062,-340.3686 654.3684,-325.4269 665.7902,-315.0179"/>
<polygon fill="#191970" stroke="#191970" points="1841.4071,-730.9455 1851.491,-727.6949 1841.581,-723.9476 1841.4071,-730.9455"/>
</g>
<!-- Node30 -->
<g id="node25" class="node">
<title>Node30</title>
<g id="a_node25"><a xlink:href="tools_8h.html" target="_top" xlink:title="/home/jbigot/data/projects\l/pdi/pdi/include/pdi/python\l/tools.h">
<polygon fill="#ffffff" stroke="#000000" points="1799.5454,-279.5 1799.5454,-320.5 1939.5454,-320.5 1939.5454,-279.5 1799.5454,-279.5"/>
<text text-anchor="start" x="1807.5454" y="-308.5" font-family="Helvetica,sans-Serif" font-size="10.00" fill="#000000">/home/jbigot/data/projects</text>
<text text-anchor="start" x="1807.5454" y="-297.5" font-family="Helvetica,sans-Serif" font-size="10.00" fill="#000000">/pdi/pdi/include/pdi/python</text>
<text text-anchor="middle" x="1869.5454" y="-286.5" font-family="Helvetica,sans-Serif" font-size="10.00" fill="#000000">/tools.h</text>
</a>
</g>
</g>
<!-- Node6&#45;&gt;Node30 -->
<g id="edge131" class="edge">
<title>Node6&#45;&gt;Node30</title>
<path fill="none" stroke="#191970" d="M1916.8687,-704.6357C1905.6288,-676.1601 1889.5454,-627.8417 1889.5454,-584.5 1889.5454,-584.5 1889.5454,-584.5 1889.5454,-439.5 1889.5454,-396.9285 1880.3059,-347.7821 1874.3869,-320.6655"/>
<polygon fill="#191970" stroke="#191970" points="1913.7421,-706.2384 1920.7518,-714.1829 1920.2263,-703.6011 1913.7421,-706.2384"/>
</g>
<!-- Node31 -->
<g id="node26" class="node">
<title>Node31</title>
<g id="a_node26"><a xlink:href="scalar__datatype_8h.html" target="_top" xlink:title="/home/jbigot/data/projects\l/pdi/pdi/include/pdi/scalar\l_datatype.h">
<polygon fill="#ffffff" stroke="#000000" points="1052.5454,-279.5 1052.5454,-320.5 1190.5454,-320.5 1190.5454,-279.5 1052.5454,-279.5"/>
<text text-anchor="start" x="1060.5454" y="-308.5" font-family="Helvetica,sans-Serif" font-size="10.00" fill="#000000">/home/jbigot/data/projects</text>
<text text-anchor="start" x="1060.5454" y="-297.5" font-family="Helvetica,sans-Serif" font-size="10.00" fill="#000000">/pdi/pdi/include/pdi/scalar</text>
<text text-anchor="middle" x="1121.5454" y="-286.5" font-family="Helvetica,sans-Serif" font-size="10.00" fill="#000000">_datatype.h</text>
</a>
</g>
</g>
<!-- Node6&#45;&gt;Node31 -->
<g id="edge134" class="edge">
<title>Node6&#45;&gt;Node31</title>
<path fill="none" stroke="#191970" d="M1841.2945,-723.1126C1631.8606,-706.4501 1113.5454,-657.8078 1113.5454,-584.5 1113.5454,-584.5 1113.5454,-584.5 1113.5454,-439.5 1113.5454,-397.2901 1117.2412,-348.0138 1119.6088,-320.7769"/>
<polygon fill="#191970" stroke="#191970" points="1841.0875,-726.6071 1851.3321,-723.9055 1841.6388,-719.6288 1841.0875,-726.6071"/>
</g>
<!-- Node33 -->
<g id="node28" class="node">
<title>Node33</title>
<g id="a_node28"><a xlink:href="datatype__template_8h.html" target="_top" xlink:title="/home/jbigot/data/projects\l/pdi/pdi/include/pdi/datatype\l_template.h">
<polygon fill="#ffffff" stroke="#000000" points="2261.0454,-491.5 2261.0454,-532.5 2410.0454,-532.5 2410.0454,-491.5 2261.0454,-491.5"/>
<text text-anchor="start" x="2269.0454" y="-520.5" font-family="Helvetica,sans-Serif" font-size="10.00" fill="#000000">/home/jbigot/data/projects</text>
<text text-anchor="start" x="2269.0454" y="-509.5" font-family="Helvetica,sans-Serif" font-size="10.00" fill="#000000">/pdi/pdi/include/pdi/datatype</text>
<text text-anchor="middle" x="2335.5454" y="-498.5" font-family="Helvetica,sans-Serif" font-size="10.00" fill="#000000">_template.h</text>
</a>
</g>
</g>
<!-- Node6&#45;&gt;Node33 -->
<g id="edge76" class="edge">
<title>Node6&#45;&gt;Node33</title>
<path fill="none" stroke="#191970" d="M1968.8251,-710.0267C1989.2133,-700.401 2014.1781,-688.6031 2036.5454,-678 2109.4786,-643.4266 2130.1357,-639.4593 2200.5454,-600 2238.2526,-578.868 2279.6172,-551.1907 2306.4905,-532.5653"/>
<polygon fill="#191970" stroke="#191970" points="1967.0603,-706.9894 1959.5112,-714.4232 1970.0484,-713.3196 1967.0603,-706.9894"/>
</g>
<!-- Node34 -->
<g id="node29" class="node">
<title>Node34</title>
<g id="a_node29"><a xlink:href="error_8h.html" target="_top" xlink:title="/home/jbigot/data/projects\l/pdi/pdi/include/pdi/error.h">
<polygon fill="#ffffff" stroke="#000000" points="740.0454,-424.5 740.0454,-454.5 879.0454,-454.5 879.0454,-424.5 740.0454,-424.5"/>
<text text-anchor="start" x="748.0454" y="-442.5" font-family="Helvetica,sans-Serif" font-size="10.00" fill="#000000">/home/jbigot/data/projects</text>
<text text-anchor="middle" x="809.5454" y="-431.5" font-family="Helvetica,sans-Serif" font-size="10.00" fill="#000000">/pdi/pdi/include/pdi/error.h</text>
</a>
</g>
</g>
<!-- Node6&#45;&gt;Node34 -->
<g id="edge82" class="edge">
<title>Node6&#45;&gt;Node34</title>
<path fill="none" stroke="#191970" d="M1840.9278,-727.9005C1597.4401,-723.0514 922.1385,-707.0396 884.5454,-678 812.5818,-622.41 808.174,-498.0789 808.947,-454.7458"/>
<polygon fill="#191970" stroke="#191970" points="1841.0822,-731.4042 1851.1495,-728.1026 1841.2206,-724.4055 1841.0822,-731.4042"/>
</g>
<!-- Node37 -->
<g id="node32" class="node">
<title>Node37</title>
<g id="a_node32"><a xlink:href="logger_8h.html" target="_top" xlink:title="/home/jbigot/data/projects\l/pdi/pdi/include/pdi/logger.h">
<polygon fill="#ffffff" stroke="#000000" points="2045.5454,-569.5 2045.5454,-599.5 2191.5454,-599.5 2191.5454,-569.5 2045.5454,-569.5"/>
<text text-anchor="start" x="2053.5454" y="-587.5" font-family="Helvetica,sans-Serif" font-size="10.00" fill="#000000">/home/jbigot/data/projects</text>
<text text-anchor="middle" x="2118.5454" y="-576.5" font-family="Helvetica,sans-Serif" font-size="10.00" fill="#000000">/pdi/pdi/include/pdi/logger.h</text>
</a>
</g>
</g>
<!-- Node6&#45;&gt;Node37 -->
<g id="edge98" class="edge">
<title>Node6&#45;&gt;Node37</title>
<path fill="none" stroke="#191970" d="M1955.962,-707.9272C1995.1342,-678.1892 2064.729,-625.3554 2098.7351,-599.5392"/>
<polygon fill="#191970" stroke="#191970" points="1953.4733,-705.4222 1947.6248,-714.2565 1957.7059,-710.9976 1953.4733,-705.4222"/>
</g>
<!-- Node38 -->
<g id="node33" class="node">
<title>Node38</title>
<g id="a_node33"><a xlink:href="plugin_8h.html" target="_top" xlink:title="/home/jbigot/data/projects\l/pdi/pdi/include/pdi/plugin.h">
<polygon fill="#ffffff" stroke="#000000" points="2576.0454,-212.5 2576.0454,-242.5 2719.0454,-242.5 2719.0454,-212.5 2576.0454,-212.5"/>
<text text-anchor="start" x="2584.0454" y="-230.5" font-family="Helvetica,sans-Serif" font-size="10.00" fill="#000000">/home/jbigot/data/projects</text>
<text text-anchor="middle" x="2647.5454" y="-219.5" font-family="Helvetica,sans-Serif" font-size="10.00" fill="#000000">/pdi/pdi/include/pdi/plugin.h</text>
</a>
</g>
</g>
<!-- Node6&#45;&gt;Node38 -->
<g id="edge130" class="edge">
<title>Node6&#45;&gt;Node38</title>
<path fill="none" stroke="#191970" d="M2013.8804,-726.957C2197.8792,-721.0863 2623.4195,-704.9872 2765.5454,-678 2897.7596,-652.8949 3053.5454,-719.0766 3053.5454,-584.5 3053.5454,-584.5 3053.5454,-584.5 3053.5454,-439.5 3053.5454,-360.3807 2808.2145,-276.1633 2698.9656,-242.5827"/>
<polygon fill="#191970" stroke="#191970" points="2013.5914,-723.4643 2003.7072,-727.279 2013.8129,-730.4608 2013.5914,-723.4643"/>
</g>
<!-- Node40 -->
<g id="node35" class="node">
<title>Node40</title>
<g id="a_node35"><a xlink:href="paraconf__wrapper_8h.html" target="_top" xlink:title="/home/jbigot/data/projects\l/pdi/pdi/include/pdi/paraconf\l_wrapper.h">
<polygon fill="#ffffff" stroke="#000000" points="893.0454,-636.5 893.0454,-677.5 1042.0454,-677.5 1042.0454,-636.5 893.0454,-636.5"/>
<text text-anchor="start" x="901.0454" y="-665.5" font-family="Helvetica,sans-Serif" font-size="10.00" fill="#000000">/home/jbigot/data/projects</text>
<text text-anchor="start" x="901.0454" y="-654.5" font-family="Helvetica,sans-Serif" font-size="10.00" fill="#000000">/pdi/pdi/include/pdi/paraconf</text>
<text text-anchor="middle" x="967.5454" y="-643.5" font-family="Helvetica,sans-Serif" font-size="10.00" fill="#000000">_wrapper.h</text>
</a>
</g>
</g>
<!-- Node6&#45;&gt;Node40 -->
<g id="edge118" class="edge">
<title>Node6&#45;&gt;Node40</title>
<path fill="none" stroke="#191970" d="M1841.2996,-726.8532C1690.5046,-721.6195 1369.285,-707.7762 1099.5454,-678 1080.863,-675.9377 1060.7881,-673.078 1042.0723,-670.1321"/>
<polygon fill="#191970" stroke="#191970" points="1841.3073,-730.3554 1851.4215,-727.2004 1841.5474,-723.3596 1841.3073,-730.3554"/>
</g>
<!-- Node8 -->
<g id="node3" class="node">
<title>Node8</title>
<g id="a_node3"><a xlink:href="array__datatype_8cxx.html" target="_top" xlink:title="/home/jbigot/data/projects\l/pdi/pdi/src/array_datatype.cxx">
<polygon fill="#ffffff" stroke="#000000" points="444.0454,-212.5 444.0454,-242.5 605.0454,-242.5 605.0454,-212.5 444.0454,-212.5"/>
<text text-anchor="start" x="452.0454" y="-230.5" font-family="Helvetica,sans-Serif" font-size="10.00" fill="#000000">/home/jbigot/data/projects</text>
<text text-anchor="middle" x="524.5454" y="-219.5" font-family="Helvetica,sans-Serif" font-size="10.00" fill="#000000">/pdi/pdi/src/array_datatype.cxx</text>
</a>
</g>
</g>
<!-- Node7&#45;&gt;Node8 -->
<g id="edge2" class="edge">
<title>Node7&#45;&gt;Node8</title>
<path fill="none" stroke="#191970" d="M1287.1455,-289.1204C1259.4612,-285.5648 1228.1656,-281.8115 1199.5454,-279 974.2857,-256.8718 917.1354,-261.4601 691.5454,-243 663.3954,-240.6965 632.6016,-237.9132 605.2091,-235.3446"/>
<polygon fill="#191970" stroke="#191970" points="1286.8031,-292.6052 1297.17,-290.4193 1287.7027,-285.6632 1286.8031,-292.6052"/>
</g>
<!-- Node9 -->
<g id="node4" class="node">
<title>Node9</title>
<g id="a_node4"><a xlink:href="datatype__template_8cxx.html" target="_top" xlink:title="/home/jbigot/data/projects\l/pdi/pdi/src/datatype_template.cxx">
<polygon fill="#ffffff" stroke="#000000" points="765.0454,-145.5 765.0454,-175.5 942.0454,-175.5 942.0454,-145.5 765.0454,-145.5"/>
<text text-anchor="start" x="773.0454" y="-163.5" font-family="Helvetica,sans-Serif" font-size="10.00" fill="#000000">/home/jbigot/data/projects</text>
<text text-anchor="middle" x="853.5454" y="-152.5" font-family="Helvetica,sans-Serif" font-size="10.00" fill="#000000">/pdi/pdi/src/datatype_template.cxx</text>
</a>
</g>
</g>
<!-- Node7&#45;&gt;Node9 -->
<g id="edge3" class="edge">
<title>Node7&#45;&gt;Node9</title>
<path fill="none" stroke="#191970" d="M1287.4529,-278.4924C1182.5159,-249.9569 999.9271,-200.3055 908.7098,-175.5009"/>
<polygon fill="#191970" stroke="#191970" points="1286.7919,-281.9397 1297.36,-281.1864 1288.6288,-275.185 1286.7919,-281.9397"/>
</g>
<!-- Node10 -->
<g id="node5" class="node">
<title>Node10</title>
<g id="a_node5"><a xlink:href="expression_8cxx.html" target="_top" xlink:title="/home/jbigot/data/projects\l/pdi/pdi/src/expression.cxx">
<polygon fill="#ffffff" stroke="#000000" points="1412.0454,-145.5 1412.0454,-175.5 1553.0454,-175.5 1553.0454,-145.5 1412.0454,-145.5"/>
<text text-anchor="start" x="1420.0454" y="-163.5" font-family="Helvetica,sans-Serif" font-size="10.00" fill="#000000">/home/jbigot/data/projects</text>
<text text-anchor="middle" x="1482.5454" y="-152.5" font-family="Helvetica,sans-Serif" font-size="10.00" fill="#000000">/pdi/pdi/src/expression.cxx</text>
</a>
</g>
</g>
<!-- Node7&#45;&gt;Node10 -->
<g id="edge4" class="edge">
<title>Node7&#45;&gt;Node10</title>
<path fill="none" stroke="#191970" d="M1444.8991,-278.2531C1461.3736,-269.9362 1476.7197,-258.5451 1486.5454,-243 1499.4936,-222.5149 1493.6029,-193.1225 1488.1037,-175.5108"/>
<polygon fill="#191970" stroke="#191970" points="1443.241,-275.1644 1435.6584,-282.5641 1446.2005,-281.508 1443.241,-275.1644"/>
</g>
<!-- Node11 -->
<g id="node6" class="node">
<title>Node11</title>
<g id="a_node6"><a xlink:href="python_2pdi_8cxx.html" target="_top" xlink:title="/home/jbigot/data/projects\l/pdi/pdi/src/python/pdi.cxx">
<polygon fill="#ffffff" stroke="#000000" points="1676.0454,-78.5 1676.0454,-108.5 1815.0454,-108.5 1815.0454,-78.5 1676.0454,-78.5"/>
<text text-anchor="start" x="1684.0454" y="-96.5" font-family="Helvetica,sans-Serif" font-size="10.00" fill="#000000">/home/jbigot/data/projects</text>
<text text-anchor="middle" x="1745.5454" y="-85.5" font-family="Helvetica,sans-Serif" font-size="10.00" fill="#000000">/pdi/pdi/src/python/pdi.cxx</text>
</a>
</g>
</g>
<!-- Node7&#45;&gt;Node11 -->
<g id="edge5" class="edge">
<title>Node7&#45;&gt;Node11</title>
<path fill="none" stroke="#191970" d="M1342.322,-270.7424C1331.1265,-253.5442 1322.0048,-231.4312 1330.5454,-212 1348.2655,-171.6843 1363.8154,-163.9969 1403.5454,-145 1450.4029,-122.5951 1590.1142,-106.9528 1675.7827,-99.1649"/>
<polygon fill="#191970" stroke="#191970" points="1339.6776,-273.0676 1348.2831,-279.2478 1345.4099,-269.05 1339.6776,-273.0676"/>
</g>
<!-- Node12 -->
<g id="node7" class="node">
<title>Node12</title>
<g id="a_node7"><a xlink:href="tools_8cxx.html" target="_top" xlink:title="/home/jbigot/data/projects\l/pdi/pdi/src/python/tools.cxx">
<polygon fill="#ffffff" stroke="#000000" points="1734.0454,-145.5 1734.0454,-175.5 1881.0454,-175.5 1881.0454,-145.5 1734.0454,-145.5"/>
<text text-anchor="start" x="1742.0454" y="-163.5" font-family="Helvetica,sans-Serif" font-size="10.00" fill="#000000">/home/jbigot/data/projects</text>
<text text-anchor="middle" x="1807.5454" y="-152.5" font-family="Helvetica,sans-Serif" font-size="10.00" fill="#000000">/pdi/pdi/src/python/tools.cxx</text>
</a>
</g>
</g>
<!-- Node7&#45;&gt;Node12 -->
<g id="edge6" class="edge">
<title>Node7&#45;&gt;Node12</title>
<path fill="none" stroke="#191970" d="M1440.688,-276.3719C1496.4605,-258.6159 1574.779,-233.7203 1643.5454,-212 1682.5319,-199.6859 1726.759,-185.8025 1759.4522,-175.5562"/>
<polygon fill="#191970" stroke="#191970" points="1439.3596,-273.1216 1430.8928,-279.4907 1441.4834,-279.7917 1439.3596,-273.1216"/>
</g>
<!-- Node13 -->
<g id="node8" class="node">
<title>Node13</title>
<g id="a_node8"><a xlink:href="ref__any_8cxx.html" target="_top" xlink:title="/home/jbigot/data/projects\l/pdi/pdi/src/ref_any.cxx">
<polygon fill="#ffffff" stroke="#000000" points="1339.5454,-212.5 1339.5454,-242.5 1477.5454,-242.5 1477.5454,-212.5 1339.5454,-212.5"/>
<text text-anchor="start" x="1347.5454" y="-230.5" font-family="Helvetica,sans-Serif" font-size="10.00" fill="#000000">/home/jbigot/data/projects</text>
<text text-anchor="middle" x="1408.5454" y="-219.5" font-family="Helvetica,sans-Serif" font-size="10.00" fill="#000000">/pdi/pdi/src/ref_any.cxx</text>
</a>
</g>
</g>
<!-- Node7&#45;&gt;Node13 -->
<g id="edge7" class="edge">
<title>Node7&#45;&gt;Node13</title>
<path fill="none" stroke="#191970" d="M1383.6251,-270.5173C1389.1801,-260.9283 1395.1146,-250.6842 1399.7984,-242.5991"/>
<polygon fill="#191970" stroke="#191970" points="1380.4528,-269.011 1378.4686,-279.4183 1386.5099,-272.5199 1380.4528,-269.011"/>
</g>
<!-- Node14&#45;&gt;Node9 -->
<g id="edge18" class="edge">
<title>Node14&#45;&gt;Node9</title>
<path fill="none" stroke="#191970" d="M2169.134,-223.4154C1919.9019,-211.4963 1195.2197,-176.8399 942.0723,-164.7336"/>
<polygon fill="#191970" stroke="#191970" points="2169.0658,-226.916 2179.2216,-223.8978 2169.4002,-219.924 2169.0658,-226.916"/>
</g>
<!-- Node14&#45;&gt;Node10 -->
<g id="edge19" class="edge">
<title>Node14&#45;&gt;Node10</title>
<path fill="none" stroke="#191970" d="M2169.1509,-220.0888C2015.5695,-206.7599 1695.5285,-178.9843 1553.3007,-166.6407"/>
<polygon fill="#191970" stroke="#191970" points="2169.2044,-223.6065 2179.4696,-220.9844 2169.8097,-216.6327 2169.2044,-223.6065"/>
</g>
<!-- Node14&#45;&gt;Node11 -->
<g id="edge22" class="edge">
<title>Node14&#45;&gt;Node11</title>
<path fill="none" stroke="#191970" d="M2232.2845,-205.1757C2209.9343,-183.2918 2176.5821,-152.1981 2160.5454,-145 2100.4371,-118.0202 1916.9571,-103.41 1815.2566,-97.1913"/>
<polygon fill="#191970" stroke="#191970" points="2230.1083,-207.9455 2239.6847,-212.4779 2235.025,-202.9628 2230.1083,-207.9455"/>
</g>
<!-- Node14&#45;&gt;Node12 -->
<g id="edge23" class="edge">
<title>Node14&#45;&gt;Node12</title>
<path fill="none" stroke="#191970" d="M2169.5352,-214.758C2086.2528,-202.2749 1960.6268,-183.4451 1881.4032,-171.5704"/>
<polygon fill="#191970" stroke="#191970" points="2169.0673,-218.2269 2179.4757,-216.2479 2170.105,-211.3042 2169.0673,-218.2269"/>
</g>
<!-- Node15 -->
<g id="node10" class="node">
<title>Node15</title>
<g id="a_node10"><a xlink:href="context_8cxx.html" target="_top" xlink:title="/home/jbigot/data/projects\l/pdi/pdi/src/context.cxx">
<polygon fill="#ffffff" stroke="#000000" points="2013.5454,-145.5 2013.5454,-175.5 2151.5454,-175.5 2151.5454,-145.5 2013.5454,-145.5"/>
<text text-anchor="start" x="2021.5454" y="-163.5" font-family="Helvetica,sans-Serif" font-size="10.00" fill="#000000">/home/jbigot/data/projects</text>
<text text-anchor="middle" x="2082.5454" y="-152.5" font-family="Helvetica,sans-Serif" font-size="10.00" fill="#000000">/pdi/pdi/src/context.cxx</text>
</a>
</g>
</g>
<!-- Node14&#45;&gt;Node15 -->
<g id="edge9" class="edge">
<title>Node14&#45;&gt;Node15</title>
<path fill="none" stroke="#191970" d="M2206.3532,-208.7275C2179.4931,-198.2645 2146.4895,-185.4084 2121.3139,-175.6017"/>
<polygon fill="#191970" stroke="#191970" points="2205.3568,-212.0954 2215.9453,-212.4639 2207.8977,-205.5728 2205.3568,-212.0954"/>
</g>
<!-- Node16 -->
<g id="node11" class="node">
<title>Node16</title>
<g id="a_node11"><a xlink:href="data__descriptor__impl_8cxx.html" target="_top" xlink:title="/home/jbigot/data/projects\l/pdi/pdi/src/data_descriptor\l_impl.cxx">
<polygon fill="#ffffff" stroke="#000000" points="934.5454,-.5 934.5454,-41.5 1080.5454,-41.5 1080.5454,-.5 934.5454,-.5"/>
<text text-anchor="start" x="942.5454" y="-29.5" font-family="Helvetica,sans-Serif" font-size="10.00" fill="#000000">/home/jbigot/data/projects</text>
<text text-anchor="start" x="942.5454" y="-18.5" font-family="Helvetica,sans-Serif" font-size="10.00" fill="#000000">/pdi/pdi/src/data_descriptor</text>
<text text-anchor="middle" x="1007.5454" y="-7.5" font-family="Helvetica,sans-Serif" font-size="10.00" fill="#000000">_impl.cxx</text>
</a>
</g>
</g>
<!-- Node14&#45;&gt;Node16 -->
<g id="edge10" class="edge">
<title>Node14&#45;&gt;Node16</title>
<path fill="none" stroke="#191970" d="M2243.0844,-203.2775C2232.8156,-184.329 2215.9249,-158.9333 2193.5454,-145 2052.0469,-56.9041 1989.934,-98.7206 1824.5454,-78 1551.3751,-43.7761 1224.0538,-28.715 1080.7657,-23.4074"/>
<polygon fill="#191970" stroke="#191970" points="2240.0168,-204.9653 2247.7166,-212.243 2246.2358,-201.7521 2240.0168,-204.9653"/>
</g>
<!-- Node14&#45;&gt;Node17 -->
<g id="edge11" class="edge">
<title>Node14&#45;&gt;Node17</title>
<path fill="none" stroke="#191970" d="M2340.1812,-213.5399C2414.395,-201.4418 2520.6747,-184.1164 2591.3321,-172.598"/>
<polygon fill="#191970" stroke="#191970" points="2339.2357,-210.1478 2329.9292,-215.2112 2340.362,-217.0566 2339.2357,-210.1478"/>
</g>
<!-- Node20 -->
<g id="node15" class="node">
<title>Node20</title>
<g id="a_node15"><a xlink:href="pdi_8cxx.html" target="_top" xlink:title="/home/jbigot/data/projects\l/pdi/pdi/src/pdi.cxx">
<polygon fill="#ffffff" stroke="#000000" points="2974.5454,-78.5 2974.5454,-108.5 3112.5454,-108.5 3112.5454,-78.5 2974.5454,-78.5"/>
<text text-anchor="start" x="2982.5454" y="-96.5" font-family="Helvetica,sans-Serif" font-size="10.00" fill="#000000">/home/jbigot/data/projects</text>
<text text-anchor="middle" x="3043.5454" y="-85.5" font-family="Helvetica,sans-Serif" font-size="10.00" fill="#000000">/pdi/pdi/src/pdi.cxx</text>
</a>
</g>
</g>
<!-- Node14&#45;&gt;Node20 -->
<g id="edge20" class="edge">
<title>Node14&#45;&gt;Node20</title>
<path fill="none" stroke="#191970" d="M2253.3507,-202.0344C2253.9768,-183.2745 2258.2429,-158.7291 2274.5454,-145 2301.1079,-122.6306 2790.4155,-102.6704 2974.3908,-95.9256"/>
<polygon fill="#191970" stroke="#191970" points="2249.8505,-202.282 2253.3392,-212.286 2256.8505,-202.2899 2249.8505,-202.282"/>
</g>
<!-- Node21 -->
<g id="node16" class="node">
<title>Node21</title>
<g id="a_node16"><a xlink:href="plugin_8cxx.html" target="_top" xlink:title="/home/jbigot/data/projects\l/pdi/pdi/src/plugin.cxx">
<polygon fill="#ffffff" stroke="#000000" points="2283.5454,-145.5 2283.5454,-175.5 2421.5454,-175.5 2421.5454,-145.5 2283.5454,-145.5"/>
<text text-anchor="start" x="2291.5454" y="-163.5" font-family="Helvetica,sans-Serif" font-size="10.00" fill="#000000">/home/jbigot/data/projects</text>
<text text-anchor="middle" x="2352.5454" y="-152.5" font-family="Helvetica,sans-Serif" font-size="10.00" fill="#000000">/pdi/pdi/src/plugin.cxx</text>
</a>
</g>
</g>
<!-- Node14&#45;&gt;Node21 -->
<g id="edge21" class="edge">
<title>Node14&#45;&gt;Node21</title>
<path fill="none" stroke="#191970" d="M2285.0737,-206.6286C2299.7455,-196.5979 2317.0056,-184.7976 2330.3957,-175.6432"/>
<polygon fill="#191970" stroke="#191970" points="2283.0629,-203.7635 2276.7831,-212.2967 2287.0136,-209.5421 2283.0629,-203.7635"/>
</g>
<!-- Node17&#45;&gt;Node11 -->
<g id="edge17" class="edge">
<title>Node17&#45;&gt;Node11</title>
<path fill="none" stroke="#191970" d="M2581.2492,-152.1059C2555.6623,-149.6732 2527.465,-147.1073 2501.5454,-145 2248.9726,-124.4651 1948.4692,-105.6752 1815.1638,-97.6304"/>
<polygon fill="#191970" stroke="#191970" points="2581.0014,-155.5981 2591.2892,-153.0663 2581.668,-148.6299 2581.0014,-155.5981"/>
</g>
<!-- Node17&#45;&gt;Node18 -->
<g id="edge12" class="edge">
<title>Node17&#45;&gt;Node18</title>
<path fill="none" stroke="#191970" d="M2634.0245,-139.7951C2618.7409,-129.7558 2600.7106,-117.9124 2586.7127,-108.7177"/>
<polygon fill="#191970" stroke="#191970" points="2632.3749,-142.8991 2642.6546,-145.4639 2636.2181,-137.0484 2632.3749,-142.8991"/>
</g>
<!-- Node19 -->
<g id="node14" class="node">
<title>Node19</title>
<g id="a_node14"><a xlink:href="global__context_8cxx.html" target="_top" xlink:title="/home/jbigot/data/projects\l/pdi/pdi/src/global_context.cxx">
<polygon fill="#ffffff" stroke="#000000" points="3116.5454,-6 3116.5454,-36 3274.5454,-36 3274.5454,-6 3116.5454,-6"/>
<text text-anchor="start" x="3124.5454" y="-24" font-family="Helvetica,sans-Serif" font-size="10.00" fill="#000000">/home/jbigot/data/projects</text>
<text text-anchor="middle" x="3195.5454" y="-13" font-family="Helvetica,sans-Serif" font-size="10.00" fill="#000000">/pdi/pdi/src/global_context.cxx</text>
</a>
</g>
</g>
<!-- Node17&#45;&gt;Node19 -->
<g id="edge15" class="edge">
<title>Node17&#45;&gt;Node19</title>
<path fill="none" stroke="#191970" d="M2704.0472,-140.8215C2742.3031,-122.0483 2803.1085,-94.287 2858.5454,-78 2944.9394,-52.618 3047.3244,-37.2989 3116.3852,-29.0313"/>
<polygon fill="#191970" stroke="#191970" points="2702.2326,-137.8144 2694.824,-145.3883 2705.3387,-144.0876 2702.2326,-137.8144"/>
</g>
<!-- Node17&#45;&gt;Node20 -->
<g id="edge16" class="edge">
<title>Node17&#45;&gt;Node20</title>
<path fill="none" stroke="#191970" d="M2749.9642,-145.5369C2817.5101,-133.5645 2911.0658,-116.9818 2974.2647,-105.7799"/>
<polygon fill="#191970" stroke="#191970" points="2749.0107,-142.1513 2739.775,-147.3429 2750.2324,-149.0438 2749.0107,-142.1513"/>
</g>
<!-- Node18&#45;&gt;Node16 -->
<g id="edge13" class="edge">
<title>Node18&#45;&gt;Node16</title>
<path fill="none" stroke="#191970" d="M2463.3386,-88.8186C2397.4635,-85.7418 2309.3733,-81.6289 2231.5454,-78 1794.8591,-57.6383 1270.5349,-33.2369 1080.6657,-24.4021"/>
<polygon fill="#191970" stroke="#191970" points="2463.563,-92.3328 2473.7155,-89.3033 2463.8897,-85.3404 2463.563,-92.3328"/>
</g>
<!-- Node18&#45;&gt;Node19 -->
<g id="edge14" class="edge">
<title>Node18&#45;&gt;Node19</title>
<path fill="none" stroke="#191970" d="M2663.0808,-82.0818C2788.4756,-67.6971 3001.4261,-43.2684 3116.3557,-30.0843"/>
<polygon fill="#191970" stroke="#191970" points="2662.6255,-78.611 2653.0896,-83.2279 2663.4233,-85.5654 2662.6255,-78.611"/>
</g>
<!-- Node22&#45;&gt;Node11 -->
<g id="edge30" class="edge">
<title>Node22&#45;&gt;Node11</title>
<path fill="none" stroke="#191970" d="M2479.4456,-273.6263C2467.6694,-265.3109 2456.3301,-255.0786 2448.5454,-243 2424.5551,-205.777 2463.4829,-174.6008 2430.5454,-145 2385.4736,-104.4941 1980.1817,-95.8442 1815.0708,-93.9993"/>
<polygon fill="#191970" stroke="#191970" points="2477.7862,-276.7257 2488.0531,-279.3413 2481.6582,-270.8941 2477.7862,-276.7257"/>
</g>
<!-- Node22&#45;&gt;Node12 -->
<g id="edge31" class="edge">
<title>Node22&#45;&gt;Node12</title>
<path fill="none" stroke="#191970" d="M2451.2353,-288.9886C2378.1154,-278.4705 2266.6851,-261.5148 2170.5454,-243 2063.4536,-222.376 1939.8173,-193.0941 1867.9814,-175.5301"/>
<polygon fill="#191970" stroke="#191970" points="2450.8977,-292.4759 2461.293,-290.4295 2451.8905,-285.5466 2450.8977,-292.4759"/>
</g>
<!-- Node22&#45;&gt;Node14 -->
<g id="edge25" class="edge">
<title>Node22&#45;&gt;Node14</title>
<path fill="none" stroke="#191970" d="M2451.3273,-279.1909C2406.764,-267.485 2352.1431,-253.1371 2311.7636,-242.5301"/>
<polygon fill="#191970" stroke="#191970" points="2450.6941,-282.6432 2461.2552,-281.7988 2452.4726,-275.8729 2450.6941,-282.6432"/>
</g>
<!-- Node22&#45;&gt;Node17 -->
<g id="edge28" class="edge">
<title>Node22&#45;&gt;Node17</title>
<path fill="none" stroke="#191970" d="M2537.7079,-269.6028C2543.3127,-251.1741 2552.7016,-228.1758 2567.5454,-212 2582.3598,-195.8562 2603.4139,-183.8778 2622.2126,-175.5564"/>
<polygon fill="#191970" stroke="#191970" points="2534.3193,-268.7239 2534.9729,-279.2986 2541.0564,-270.6244 2534.3193,-268.7239"/>
</g>
<!-- Node22&#45;&gt;Node18 -->
<g id="edge27" class="edge">
<title>Node22&#45;&gt;Node18</title>
<path fill="none" stroke="#191970" d="M2483.5608,-273.4851C2473.0993,-265.1721 2463.3888,-254.9763 2457.5454,-243 2451.5039,-230.6175 2452.6289,-224.8707 2457.5454,-212 2474.5857,-167.3912 2517.0031,-128.9574 2542.7169,-108.7246"/>
<polygon fill="#191970" stroke="#191970" points="2481.5346,-276.3398 2491.6555,-279.4734 2485.6977,-270.7123 2481.5346,-276.3398"/>
</g>
<!-- Node22&#45;&gt;Node20 -->
<g id="edge29" class="edge">
<title>Node22&#45;&gt;Node20</title>
<path fill="none" stroke="#191970" d="M2609.4428,-285.0133C2646.8919,-275.9954 2691.4543,-262.4185 2728.5454,-243 2747.8551,-232.8907 2747.0292,-221.7046 2766.5454,-212 2827.1607,-181.8585 2852.294,-202.5985 2914.5454,-176 2956.5929,-158.0342 3000.3717,-126.9681 3024.5745,-108.5153"/>
<polygon fill="#191970" stroke="#191970" points="2608.5223,-281.6341 2599.584,-287.3225 2610.1188,-288.4496 2608.5223,-281.6341"/>
</g>
<!-- Node23 -->
<g id="node18" class="node">
<title>Node23</title>
<g id="a_node18"><a xlink:href="data__descriptor_8cxx.html" target="_top" xlink:title="/home/jbigot/data/projects\l/pdi/pdi/src/data_descriptor.cxx">
<polygon fill="#ffffff" stroke="#000000" points="2775.5454,-212.5 2775.5454,-242.5 2939.5454,-242.5 2939.5454,-212.5 2775.5454,-212.5"/>
<text text-anchor="start" x="2783.5454" y="-230.5" font-family="Helvetica,sans-Serif" font-size="10.00" fill="#000000">/home/jbigot/data/projects</text>
<text text-anchor="middle" x="2857.5454" y="-219.5" font-family="Helvetica,sans-Serif" font-size="10.00" fill="#000000">/pdi/pdi/src/data_descriptor.cxx</text>
</a>
</g>
</g>
<!-- Node22&#45;&gt;Node23 -->
<g id="edge26" class="edge">
<title>Node22&#45;&gt;Node23</title>
<path fill="none" stroke="#191970" d="M2609.9516,-282.3947C2664.9514,-270.2005 2737.3955,-254.1387 2789.6978,-242.5427"/>
<polygon fill="#191970" stroke="#191970" points="2608.899,-279.043 2599.8937,-284.6246 2610.4143,-285.877 2608.899,-279.043"/>
</g>
<!-- Node24&#45;&gt;Node7 -->
<g id="edge33" class="edge">
<title>Node24&#45;&gt;Node7</title>
<path fill="none" stroke="#191970" d="M1517.957,-417.7626C1497.9307,-400.9038 1469.2596,-377.1023 1443.5454,-357 1427.8213,-344.7076 1409.9196,-331.4149 1395.3368,-320.7606"/>
<polygon fill="#191970" stroke="#191970" points="1515.8124,-420.5326 1525.7118,-424.3077 1520.3273,-415.1832 1515.8124,-420.5326"/>
</g>
<!-- Node24&#45;&gt;Node10 -->
<g id="edge71" class="edge">
<title>Node24&#45;&gt;Node10</title>
<path fill="none" stroke="#191970" d="M1540.9007,-414.3581C1536.0522,-371.9931 1524.2856,-283.9596 1503.5454,-212 1499.9086,-199.3819 1494.2092,-185.6358 1489.665,-175.5215"/>
<polygon fill="#191970" stroke="#191970" points="1537.4271,-414.7908 1542.0109,-424.3427 1544.3842,-414.0172 1537.4271,-414.7908"/>
</g>
<!-- Node24&#45;&gt;Node11 -->
<g id="edge73" class="edge">
<title>Node24&#45;&gt;Node11</title>
<path fill="none" stroke="#191970" d="M1554.5509,-414.8158C1565.7729,-387.3569 1581.5454,-341.3994 1581.5454,-300 1581.5454,-300 1581.5454,-300 1581.5454,-227.5 1581.5454,-166.0977 1651.336,-127.7822 1699.8623,-108.5623"/>
<polygon fill="#191970" stroke="#191970" points="1551.176,-413.8117 1550.5152,-424.3859 1557.6259,-416.5317 1551.176,-413.8117"/>
</g>
<!-- Node24&#45;&gt;Node12 -->
<g id="edge74" class="edge">
<title>Node24&#45;&gt;Node12</title>
<path fill="none" stroke="#191970" d="M1569.7726,-417.2367C1578.7309,-408.7278 1588.3053,-398.5258 1595.5454,-388 1625.5441,-344.3875 1612.2943,-321.724 1643.5454,-279 1670.1301,-242.6557 1683.0549,-238.3837 1719.5454,-212 1738.3373,-198.4129 1760.9402,-185.2458 1778.533,-175.6267"/>
<polygon fill="#191970" stroke="#191970" points="1567.1368,-414.905 1562.133,-424.2438 1571.8684,-420.0637 1567.1368,-414.905"/>
</g>
<!-- Node24&#45;&gt;Node13 -->
<g id="edge75" class="edge">
<title>Node24&#45;&gt;Node13</title>
<path fill="none" stroke="#191970" d="M1529.2097,-415.3007C1510.3227,-383.645 1475.8301,-326.6066 1444.5454,-279 1436.3977,-266.6015 1426.7468,-252.8417 1419.4893,-242.6662"/>
<polygon fill="#191970" stroke="#191970" points="1526.427,-417.4687 1534.5494,-424.2715 1532.4421,-413.8883 1526.427,-417.4687"/>
</g>
<!-- Node24&#45;&gt;Node16 -->
<g id="edge69" class="edge">
<title>Node24&#45;&gt;Node16</title>
<path fill="none" stroke="#191970" d="M1454.5647,-437.9184C1329.6512,-434.4469 1095.6175,-423.3639 899.5454,-388 849.9796,-379.0602 840.1135,-365.9275 790.5454,-357 591.7755,-321.2004 529.35,-384.2624 337.5454,-321 275.3564,-300.4884 244.3108,-300.264 212.5454,-243 139.383,-111.1089 724.0545,-46.018 934.1981,-27.0466"/>
<polygon fill="#191970" stroke="#191970" points="1454.7475,-441.4244 1464.8376,-438.1935 1454.9349,-434.4269 1454.7475,-441.4244"/>
</g>
<!-- Node24&#45;&gt;Node20 -->
<g id="edge72" class="edge">
<title>Node24&#45;&gt;Node20</title>
<path fill="none" stroke="#191970" d="M1632.4953,-436.0577C1932.3656,-423.9456 2894.4737,-380.7768 3019.5454,-321 3063.2156,-300.1283 3077.3137,-287.8366 3095.5454,-243 3111.9518,-202.6525 3112.3106,-185.1997 3095.5454,-145 3089.432,-130.3412 3076.891,-117.7191 3065.6568,-108.6396"/>
<polygon fill="#191970" stroke="#191970" points="1631.961,-432.5762 1622.1098,-436.4754 1632.2424,-439.5706 1631.961,-432.5762"/>
</g>
<!-- Node24&#45;&gt;Node25 -->
<g id="edge34" class="edge">
<title>Node24&#45;&gt;Node25</title>
<path fill="none" stroke="#191970" d="M1454.5479,-427.7936C1330.3246,-411.5235 1097.8721,-381.3309 899.5454,-357 763.1884,-340.2716 728.9789,-337.0929 592.5454,-321 557.0504,-316.8132 517.5546,-312.1297 484.8934,-308.2499"/>
<polygon fill="#191970" stroke="#191970" points="1454.3948,-431.3034 1464.7648,-429.1324 1455.3043,-424.3627 1454.3948,-431.3034"/>
</g>
<!-- Node24&#45;&gt;Node27 -->
<g id="edge38" class="edge">
<title>Node24&#45;&gt;Node27</title>
<path fill="none" stroke="#191970" d="M1632.4074,-427.5206C1726.8978,-414.7825 1874.7862,-394.8458 1964.2021,-382.7918"/>
<polygon fill="#191970" stroke="#191970" points="1631.7393,-424.0789 1622.2966,-428.8837 1632.6745,-431.0162 1631.7393,-424.0789"/>
</g>
<!-- Node24&#45;&gt;Node31 -->
<g id="edge61" class="edge">
<title>Node24&#45;&gt;Node31</title>
<path fill="none" stroke="#191970" d="M1488.2569,-421.2234C1409.5925,-395.2193 1265.8115,-347.6899 1183.5973,-320.5124"/>
<polygon fill="#191970" stroke="#191970" points="1487.3898,-424.6229 1497.9831,-424.4385 1489.5869,-417.9767 1487.3898,-424.6229"/>
</g>
<!-- Node32 -->
<g id="node27" class="node">
<title>Node32</title>
<g id="a_node27"><a xlink:href="datatype_8cxx.html" target="_top" xlink:title="/home/jbigot/data/projects\l/pdi/pdi/src/datatype.cxx">
<polygon fill="#ffffff" stroke="#000000" points="1685.5454,-357.5 1685.5454,-387.5 1823.5454,-387.5 1823.5454,-357.5 1685.5454,-357.5"/>
<text text-anchor="start" x="1693.5454" y="-375.5" font-family="Helvetica,sans-Serif" font-size="10.00" fill="#000000">/home/jbigot/data/projects</text>
<text text-anchor="middle" x="1754.5454" y="-364.5" font-family="Helvetica,sans-Serif" font-size="10.00" fill="#000000">/pdi/pdi/src/datatype.cxx</text>
</a>
</g>
</g>
<!-- Node24&#45;&gt;Node32 -->
<g id="edge70" class="edge">
<title>Node24&#45;&gt;Node32</title>
<path fill="none" stroke="#191970" d="M1600.5081,-421.4123C1633.8351,-410.8298 1675.4252,-397.6235 1706.9864,-387.6017"/>
<polygon fill="#191970" stroke="#191970" points="1599.3697,-418.1015 1590.8979,-424.4639 1601.4883,-424.7732 1599.3697,-418.1015"/>
</g>
<!-- Node25&#45;&gt;Node9 -->
<g id="edge35" class="edge">
<title>Node25&#45;&gt;Node9</title>
<path fill="none" stroke="#191970" d="M414.2096,-269.1113C415.1506,-249.8793 419.8543,-226.1828 435.5454,-212 459.4804,-190.3657 649.1058,-174.0828 764.5726,-166.0559"/>
<polygon fill="#191970" stroke="#191970" points="410.7078,-269.1866 414.028,-279.2477 417.7066,-269.312 410.7078,-269.1866"/>
</g>
<!-- Node25&#45;&gt;Node13 -->
<g id="edge37" class="edge">
<title>Node25&#45;&gt;Node13</title>
<path fill="none" stroke="#191970" d="M494.9501,-289.6348C525.4295,-285.9042 560.5658,-281.904 592.5454,-279 868.7409,-253.919 1198.6392,-237.1247 1339.4003,-230.5769"/>
<polygon fill="#191970" stroke="#191970" points="494.2991,-286.1885 484.8034,-290.8876 495.157,-293.1358 494.2991,-286.1885"/>
</g>
<!-- Node26 -->
<g id="node21" class="node">
<title>Node26</title>
<g id="a_node21"><a xlink:href="record__datatype_8cxx.html" target="_top" xlink:title="/home/jbigot/data/projects\l/pdi/pdi/src/record_datatype.cxx">
<polygon fill="#ffffff" stroke="#000000" points="221.0454,-212.5 221.0454,-242.5 388.0454,-242.5 388.0454,-212.5 221.0454,-212.5"/>
<text text-anchor="start" x="229.0454" y="-230.5" font-family="Helvetica,sans-Serif" font-size="10.00" fill="#000000">/home/jbigot/data/projects</text>
<text text-anchor="middle" x="304.5454" y="-219.5" font-family="Helvetica,sans-Serif" font-size="10.00" fill="#000000">/pdi/pdi/src/record_datatype.cxx</text>
</a>
</g>
</g>
<!-- Node25&#45;&gt;Node26 -->
<g id="edge36" class="edge">
<title>Node25&#45;&gt;Node26</title>
<path fill="none" stroke="#191970" d="M375.356,-273.7502C359.325,-263.2794 341.445,-251.6011 327.6627,-242.5991"/>
<polygon fill="#191970" stroke="#191970" points="373.7479,-276.8802 384.0342,-279.4183 377.5758,-271.0195 373.7479,-276.8802"/>
</g>
<!-- Node27&#45;&gt;Node10 -->
<g id="edge54" class="edge">
<title>Node27&#45;&gt;Node10</title>
<path fill="none" stroke="#191970" d="M1954.4729,-360.817C1905.5113,-352.6844 1843.5695,-339.8624 1790.5454,-321 1678.3468,-281.0873 1555.9492,-207.2309 1505.8686,-175.5605"/>
<polygon fill="#191970" stroke="#191970" points="1953.9681,-364.2808 1964.4003,-362.4315 1955.0918,-357.3716 1953.9681,-364.2808"/>
</g>
<!-- Node27&#45;&gt;Node11 -->
<g id="edge58" class="edge">
<title>Node27&#45;&gt;Node11</title>
<path fill="none" stroke="#191970" d="M2033.2125,-347.8766C2018.077,-301.2846 1978.9414,-199.9814 1910.5454,-145 1894.6996,-132.262 1849.4024,-118.5804 1810.2703,-108.5227"/>
<polygon fill="#191970" stroke="#191970" points="2029.8909,-348.9814 2036.237,-357.4654 2036.5667,-346.8757 2029.8909,-348.9814"/>
</g>
<!-- Node27&#45;&gt;Node12 -->
<g id="edge59" class="edge">
<title>Node27&#45;&gt;Node12</title>
<path fill="none" stroke="#191970" d="M2019.616,-350.0622C2001.3289,-330.7439 1973.8239,-302.3704 1948.5454,-279 1906.5174,-240.1444 1854.3271,-197.6905 1826.7336,-175.667"/>
<polygon fill="#191970" stroke="#191970" points="2017.2144,-352.6171 2026.6198,-357.4946 2022.3089,-347.8164 2017.2144,-352.6171"/>
</g>
<!-- Node27&#45;&gt;Node13 -->
<g id="edge60" class="edge">
<title>Node27&#45;&gt;Node13</title>
<path fill="none" stroke="#191970" d="M1954.2407,-361.8247C1889.275,-353.0241 1798.2648,-339.0636 1719.5454,-321 1622.5548,-298.7437 1511.4727,-262.7319 1451.834,-242.5116"/>
<polygon fill="#191970" stroke="#191970" points="1954.0612,-365.3319 1964.4378,-363.1926 1954.992,-358.394 1954.0612,-365.3319"/>
</g>
<!-- Node27&#45;&gt;Node14 -->
<g id="edge39" class="edge">
<title>Node27&#45;&gt;Node14</title>
<path fill="none" stroke="#191970" d="M2079.6106,-352.5771C2096.5387,-343.5109 2116.3719,-332.296 2133.5454,-321 2171.9168,-295.761 2213.6852,-261.9345 2236.7358,-242.6532"/>
<polygon fill="#191970" stroke="#191970" points="2077.7401,-349.6071 2070.5403,-357.3798 2081.0157,-355.7935 2077.7401,-349.6071"/>
</g>
<!-- Node27&#45;&gt;Node15 -->
<g id="edge50" class="edge">
<title>Node27&#45;&gt;Node15</title>
<path fill="none" stroke="#191970" d="M2072.0351,-351.0191C2081.4024,-342.8285 2090.5043,-332.6265 2095.5454,-321 2117.009,-271.4982 2098.7207,-205.4117 2088.4195,-175.8827"/>
<polygon fill="#191970" stroke="#191970" points="2069.729,-348.3833 2064.1874,-357.4133 2074.1507,-353.8101 2069.729,-348.3833"/>
</g>
<!-- Node27&#45;&gt;Node16 -->
<g id="edge51" class="edge">
<title>Node27&#45;&gt;Node16</title>
<path fill="none" stroke="#191970" d="M1954.1603,-365.5033C1916.7821,-362.6207 1872.5236,-359.4011 1832.5454,-357 1788.7454,-354.3693 1075.6965,-350.8608 1043.5454,-321 963.982,-247.1043 989.5499,-96.5647 1002.2525,-41.6435"/>
<polygon fill="#191970" stroke="#191970" points="1954.2703,-369.0222 1964.5112,-366.3064 1954.8119,-362.0432 1954.2703,-369.0222"/>
</g>
<!-- Node27&#45;&gt;Node17 -->
<g id="edge53" class="edge">
<title>Node27&#45;&gt;Node17</title>
<path fill="none" stroke="#191970" d="M2126.8741,-358.3121C2173.7712,-349.582 2232.4537,-336.9896 2283.5454,-321 2287.9917,-319.6085 2535.6032,-215.2777 2629.7471,-175.5928"/>
<polygon fill="#191970" stroke="#191970" points="2125.9524,-354.9227 2116.7489,-360.1712 2127.2166,-361.8076 2125.9524,-354.9227"/>
</g>
<!-- Node27&#45;&gt;Node18 -->
<g id="edge52" class="edge">
<title>Node27&#45;&gt;Node18</title>
<path fill="none" stroke="#191970" d="M2037.9825,-347.0391C2035.9131,-328.1779 2032.6699,-301.8887 2028.5454,-279 2017.8157,-219.4558 1963.7728,-189.7016 2004.5454,-145 2035.4958,-111.0671 2323.945,-99.1835 2473.9052,-95.2758"/>
<polygon fill="#191970" stroke="#191970" points="2034.5255,-347.6301 2039.063,-357.2041 2041.4863,-346.8901 2034.5255,-347.6301"/>
</g>
<!-- Node27&#45;&gt;Node19 -->
<g id="edge55" class="edge">
<title>Node27&#45;&gt;Node19</title>
<path fill="none" stroke="#191970" d="M2126.6266,-369.2765C2290.5548,-362.6535 2641.7806,-346.0043 2760.5454,-321 2861.2419,-299.7998 2882.8228,-280.7678 2978.5454,-243 3048.3572,-215.4554 3081.2121,-229.7924 3133.5454,-176 3172.9552,-135.4914 3188.3,-66.7617 3193.3752,-36.3077"/>
<polygon fill="#191970" stroke="#191970" points="2126.4319,-365.7814 2116.5802,-369.6793 2126.7124,-372.7758 2126.4319,-365.7814"/>
</g>
<!-- Node27&#45;&gt;Node20 -->
<g id="edge56" class="edge">
<title>Node27&#45;&gt;Node20</title>
<path fill="none" stroke="#191970" d="M2126.9264,-366.1064C2262.2722,-355.8448 2518.1891,-335.3931 2608.5454,-321 2761.6517,-296.6113 2821.9258,-332.464 2948.5454,-243 2997.7714,-208.2191 3027.3073,-139.0623 3038.4483,-108.5556"/>
<polygon fill="#191970" stroke="#191970" points="2126.3064,-362.6432 2116.5988,-366.8874 2126.8343,-369.6233 2126.3064,-362.6432"/>
</g>
<!-- Node27&#45;&gt;Node21 -->
<g id="edge57" class="edge">
<title>Node27&#45;&gt;Node21</title>
<path fill="none" stroke="#191970" d="M2126.7806,-358.6848C2195.374,-342.9283 2287.9531,-310.0667 2338.5454,-243 2353.4186,-223.2837 2354.712,-193.3723 2353.9026,-175.5007"/>
<polygon fill="#191970" stroke="#191970" points="2125.8479,-355.3065 2116.8422,-360.8875 2127.3626,-362.1407 2125.8479,-355.3065"/>
</g>
<!-- Node27&#45;&gt;Node22 -->
<g id="edge40" class="edge">
<title>Node27&#45;&gt;Node22</title>
<path fill="none" stroke="#191970" d="M2126.8483,-364.663C2209.5619,-356.4263 2337.7036,-341.7649 2447.5454,-321 2452.073,-320.1441 2456.7211,-319.1875 2461.3943,-318.1673"/>
<polygon fill="#191970" stroke="#191970" points="2126.3484,-361.1952 2116.7403,-365.66 2127.0356,-368.1614 2126.3484,-361.1952"/>
</g>
<!-- Node27&#45;&gt;Node28 -->
<g id="edge41" class="edge">
<title>Node27&#45;&gt;Node28</title>
<path fill="none" stroke="#191970" d="M1954.1641,-365.44C1916.7865,-362.5465 1872.5274,-359.3358 1832.5454,-357 1455.0726,-334.9476 1360.0619,-342.292 982.5454,-321 910.1799,-316.9186 828.0173,-311.0351 768.3194,-306.5334"/>
<polygon fill="#191970" stroke="#191970" points="1954.2729,-368.9591 1964.5147,-366.2468 1954.8169,-361.9802 1954.2729,-368.9591"/>
</g>
<!-- Node27&#45;&gt;Node30 -->
<g id="edge47" class="edge">
<title>Node27&#45;&gt;Node30</title>
<path fill="none" stroke="#191970" d="M1995.8956,-353.5695C1971.9421,-343.4138 1942.3967,-330.8872 1917.9007,-320.5015"/>
<polygon fill="#191970" stroke="#191970" points="1994.5412,-356.7968 2005.1141,-357.478 1997.2736,-350.3521 1994.5412,-356.7968"/>
</g>
<!-- Node28&#45;&gt;Node8 -->
<g id="edge42" class="edge">
<title>Node28&#45;&gt;Node8</title>
<path fill="none" stroke="#191970" d="M642.0047,-280.7237C615.5754,-268.748 582.1011,-253.5799 557.6551,-242.5028"/>
<polygon fill="#191970" stroke="#191970" points="640.8402,-284.0386 651.3933,-284.978 643.7294,-277.6626 640.8402,-284.0386"/>
</g>
<!-- Node28&#45;&gt;Node9 -->
<g id="edge43" class="edge">
<title>Node28&#45;&gt;Node9</title>
<path fill="none" stroke="#191970" d="M666.5905,-276.4151C654.4569,-257.3881 643.0546,-230.7903 657.5454,-212 671.1888,-194.3087 719.5327,-181.4958 764.79,-173.0751"/>
<polygon fill="#191970" stroke="#191970" points="663.7922,-278.5242 672.3104,-284.8243 669.5802,-274.5873 663.7922,-278.5242"/>
</g>
<!-- Node28&#45;&gt;Node10 -->
<g id="edge44" class="edge">
<title>Node28&#45;&gt;Node10</title>
<path fill="none" stroke="#191970" d="M678.6277,-274.8675C675.577,-254.9712 675.3546,-227.9599 691.5454,-212 717.0118,-186.8968 1222.6763,-168.6046 1411.8944,-162.6143"/>
<polygon fill="#191970" stroke="#191970" points="675.2046,-275.6049 680.4676,-284.8001 682.0875,-274.3298 675.2046,-275.6049"/>
</g>
<!-- Node28&#45;&gt;Node26 -->
<g id="edge45" class="edge">
<title>Node28&#45;&gt;Node26</title>
<path fill="none" stroke="#191970" d="M595.6719,-283.0439C531.2953,-270.7615 445.0599,-254.3087 383.1808,-242.5028"/>
<polygon fill="#191970" stroke="#191970" points="595.3304,-286.5418 605.8092,-284.978 596.6423,-279.6658 595.3304,-286.5418"/>
</g>
<!-- Node29 -->
<g id="node24" class="node">
<title>Node29</title>
<g id="a_node24"><a xlink:href="scalar__datatype_8cxx.html" target="_top" xlink:title="/home/jbigot/data/projects\l/pdi/pdi/src/scalar_datatype.cxx">
<polygon fill="#ffffff" stroke="#000000" points="700.0454,-212.5 700.0454,-242.5 865.0454,-242.5 865.0454,-212.5 700.0454,-212.5"/>
<text text-anchor="start" x="708.0454" y="-230.5" font-family="Helvetica,sans-Serif" font-size="10.00" fill="#000000">/home/jbigot/data/projects</text>
<text text-anchor="middle" x="782.5454" y="-219.5" font-family="Helvetica,sans-Serif" font-size="10.00" fill="#000000">/pdi/pdi/src/scalar_datatype.cxx</text>
</a>
</g>
</g>
<!-- Node28&#45;&gt;Node29 -->
<g id="edge46" class="edge">
<title>Node28&#45;&gt;Node29</title>
<path fill="none" stroke="#191970" d="M713.192,-278.8074C728.9324,-267.1627 748.0806,-252.9969 762.2658,-242.5028"/>
<polygon fill="#191970" stroke="#191970" points="710.8087,-276.2168 704.8511,-284.978 714.9719,-281.8443 710.8087,-276.2168"/>
</g>
<!-- Node30&#45;&gt;Node11 -->
<g id="edge48" class="edge">
<title>Node30&#45;&gt;Node11</title>
<path fill="none" stroke="#191970" d="M1884.9975,-269.9905C1899.8845,-236.4308 1916.6324,-181.9489 1890.5454,-145 1880.6074,-130.924 1843.8664,-117.9571 1809.8583,-108.5556"/>
<polygon fill="#191970" stroke="#191970" points="1881.7212,-268.7359 1880.6862,-279.2801 1888.0707,-271.6827 1881.7212,-268.7359"/>
</g>
<!-- Node30&#45;&gt;Node12 -->
<g id="edge49" class="edge">
<title>Node30&#45;&gt;Node12</title>
<path fill="none" stroke="#191970" d="M1856.2776,-270.1474C1843.3663,-241.097 1824.2721,-198.1351 1814.2486,-175.5822"/>
<polygon fill="#191970" stroke="#191970" points="1853.1373,-271.6997 1860.3971,-279.4163 1859.534,-268.8567 1853.1373,-271.6997"/>
</g>
<!-- Node31&#45;&gt;Node9 -->
<g id="edge63" class="edge">
<title>Node31&#45;&gt;Node9</title>
<path fill="none" stroke="#191970" d="M1073.0461,-274.755C1017.4713,-245.8271 928.2026,-199.3607 882.5206,-175.5822"/>
<polygon fill="#191970" stroke="#191970" points="1071.5148,-277.9037 1082.0011,-279.4163 1074.7468,-271.6945 1071.5148,-277.9037"/>
</g>
<!-- Node31&#45;&gt;Node10 -->
<g id="edge64" class="edge">
<title>Node31&#45;&gt;Node10</title>
<path fill="none" stroke="#191970" d="M1156.0525,-273.2674C1182.9086,-253.6701 1221.8351,-227.8244 1259.5454,-212 1308.4587,-191.4745 1367.0009,-178.3512 1411.8276,-170.4917"/>
<polygon fill="#191970" stroke="#191970" points="1153.7329,-270.6297 1147.774,-279.39 1157.8952,-276.2578 1153.7329,-270.6297"/>
</g>
<!-- Node31&#45;&gt;Node11 -->
<g id="edge65" class="edge">
<title>Node31&#45;&gt;Node11</title>
<path fill="none" stroke="#191970" d="M1116.2938,-269.0721C1112.2282,-233.6054 1112.0046,-176.3344 1145.5454,-145 1183.6012,-109.4477 1525.8873,-98.0398 1675.7729,-94.729"/>
<polygon fill="#191970" stroke="#191970" points="1112.8686,-269.8695 1117.6458,-279.3261 1119.8085,-268.9544 1112.8686,-269.8695"/>
</g>
<!-- Node31&#45;&gt;Node12 -->
<g id="edge66" class="edge">
<title>Node31&#45;&gt;Node12</title>
<path fill="none" stroke="#191970" d="M1175.6789,-275.0894C1226.8685,-251.9239 1300.2244,-219.8404 1330.5454,-212 1404.8363,-192.79 1619.278,-174.5545 1733.6468,-165.8418"/>
<polygon fill="#191970" stroke="#191970" points="1174.0537,-271.9833 1166.394,-279.3032 1176.9466,-278.3576 1174.0537,-271.9833"/>
</g>
<!-- Node31&#45;&gt;Node13 -->
<g id="edge67" class="edge">
<title>Node31&#45;&gt;Node13</title>
<path fill="none" stroke="#191970" d="M1200.4655,-280.0637C1247.3147,-268.229 1305.7676,-253.4631 1348.7813,-242.5972"/>
<polygon fill="#191970" stroke="#191970" points="1199.4925,-276.6995 1190.6543,-282.5422 1201.207,-283.4863 1199.4925,-276.6995"/>
</g>
<!-- Node31&#45;&gt;Node16 -->
<g id="edge62" class="edge">
<title>Node31&#45;&gt;Node16</title>
<path fill="none" stroke="#191970" d="M1109.2659,-269.9475C1085.954,-212.8947 1035.8408,-90.2493 1015.9404,-41.5456"/>
<polygon fill="#191970" stroke="#191970" points="1106.1402,-271.5513 1113.1627,-279.4845 1112.6202,-268.9035 1106.1402,-271.5513"/>
</g>
<!-- Node31&#45;&gt;Node29 -->
<g id="edge68" class="edge">
<title>Node31&#45;&gt;Node29</title>
<path fill="none" stroke="#191970" d="M1042.4211,-283.0781C985.0491,-270.8083 908.1539,-254.3632 852.9155,-242.5496"/>
<polygon fill="#191970" stroke="#191970" points="1042.0242,-286.5723 1052.5351,-285.2412 1043.4882,-279.7271 1042.0242,-286.5723"/>
</g>
<!-- Node33&#45;&gt;Node9 -->
<g id="edge81" class="edge">
<title>Node33&#45;&gt;Node9</title>
<path fill="none" stroke="#191970" d="M2250.3644,-497.7365C2232.6195,-495.1574 2214.0045,-492.739 2196.5454,-491 1868.8889,-458.3637 1781.0976,-510.5859 1456.5454,-455 1251.701,-419.9164 1184.9522,-430.8761 1008.5454,-321 952.4858,-286.0829 953.9089,-259.0352 907.5454,-212 895.177,-199.4524 880.7098,-185.7019 869.8644,-175.5679"/>
<polygon fill="#191970" stroke="#191970" points="2250.291,-501.2638 2260.6964,-499.2696 2251.3185,-494.3396 2250.291,-501.2638"/>
</g>
<!-- Node33&#45;&gt;Node14 -->
<g id="edge77" class="edge">
<title>Node33&#45;&gt;Node14</title>
<path fill="none" stroke="#191970" d="M2326.811,-481.3215C2309.5576,-420.7218 2271.6692,-287.6446 2258.8686,-242.6844"/>
<polygon fill="#191970" stroke="#191970" points="2323.4847,-482.4207 2329.5893,-491.08 2330.2172,-480.5038 2323.4847,-482.4207"/>
</g>
<!-- Node33&#45;&gt;Node18 -->
<g id="edge80" class="edge">
<title>Node33&#45;&gt;Node18</title>
<path fill="none" stroke="#191970" d="M2401.1006,-487.4159C2467.1089,-458.7019 2565.1882,-404.2494 2608.5454,-321 2617.1679,-304.4441 2616.2441,-296.0051 2608.5454,-279 2598.5441,-256.9088 2577.8413,-264.9555 2567.5454,-243 2546.4899,-198.1003 2554.6266,-136.9793 2560.1159,-108.8359"/>
<polygon fill="#191970" stroke="#191970" points="2399.4299,-484.3234 2391.6047,-491.466 2402.1762,-490.7622 2399.4299,-484.3234"/>
</g>
<!-- Node33&#45;&gt;Node22 -->
<g id="edge78" class="edge">
<title>Node33&#45;&gt;Node22</title>
<path fill="none" stroke="#191970" d="M2361.5955,-483.6789C2401.3558,-440.4523 2476.2621,-359.0157 2511.4156,-320.7975"/>
<polygon fill="#191970" stroke="#191970" points="2358.7917,-481.5571 2354.5979,-491.2865 2363.9437,-486.296 2358.7917,-481.5571"/>
</g>
<!-- Node33&#45;&gt;Node24 -->
<g id="edge79" class="edge">
<title>Node33&#45;&gt;Node24</title>
<path fill="none" stroke="#191970" d="M2250.88,-498.2261C2232.9703,-495.5883 2214.1596,-493.0226 2196.5454,-491 1989.7962,-467.26 1744.9497,-451.1442 1622.1223,-443.8835"/>
<polygon fill="#191970" stroke="#191970" points="2250.6058,-501.7239 2261.0132,-499.7397 2251.64,-494.8007 2250.6058,-501.7239"/>
</g>
<!-- Node34&#45;&gt;Node8 -->
<g id="edge84" class="edge">
<title>Node34&#45;&gt;Node8</title>
<path fill="none" stroke="#191970" d="M730.1162,-428.0718C698.1853,-420.5748 662.4138,-408.2376 634.5454,-388 580.6978,-348.8966 544.5854,-274.9311 530.8,-242.9147"/>
<polygon fill="#191970" stroke="#191970" points="729.368,-431.4908 739.8895,-430.2464 730.8884,-424.6579 729.368,-431.4908"/>
</g>
<!-- Node34&#45;&gt;Node9 -->
<g id="edge87" class="edge">
<title>Node34&#45;&gt;Node9</title>
<path fill="none" stroke="#191970" d="M729.7378,-430.1325C656.1256,-420.6633 552.7906,-405.0297 515.5454,-388 495.7233,-378.9367 497.199,-366.4233 477.5454,-357 408.2974,-323.7978 377.8263,-354.1337 308.5454,-321 250.3082,-293.1479 168.7643,-259.4397 212.5454,-212 231.0014,-192.0018 593.2589,-172.5885 764.8494,-164.4723"/>
<polygon fill="#191970" stroke="#191970" points="729.5559,-433.6375 739.9176,-431.4273 730.4391,-426.6934 729.5559,-433.6375"/>
</g>
<!-- Node34&#45;&gt;Node10 -->
<g id="edge89" class="edge">
<title>Node34&#45;&gt;Node10</title>
<path fill="none" stroke="#191970" d="M852.6586,-420.4366C895.3657,-402.1389 962.9727,-374.7371 1023.5454,-357 1100.1697,-334.5627 1127.5784,-355.5756 1199.5454,-321 1267.816,-288.2003 1264.4552,-248.9969 1330.5454,-212 1358.8692,-196.1445 1392.8925,-184.0545 1421.5622,-175.5865"/>
<polygon fill="#191970" stroke="#191970" points="851.2073,-417.2508 843.4099,-424.4238 853.9785,-423.6789 851.2073,-417.2508"/>
</g>
<!-- Node34&#45;&gt;Node11 -->
<g id="edge93" class="edge">
<title>Node34&#45;&gt;Node11</title>
<path fill="none" stroke="#191970" d="M729.6716,-432.3938C661.7251,-425.1004 562.0144,-411.4315 477.5454,-388 442.3932,-378.2489 436.4542,-367.5896 401.5454,-357 325.1417,-333.8229 286.4731,-372.5997 225.5454,-321 187.2026,-288.5274 162.1894,-249.5768 195.5454,-212 245.4033,-155.8334 1380.7398,-107.7388 1675.9226,-96.1532"/>
<polygon fill="#191970" stroke="#191970" points="729.567,-435.9021 739.8782,-433.4671 730.2991,-428.9404 729.567,-435.9021"/>
</g>
<!-- Node34&#45;&gt;Node12 -->
<g id="edge94" class="edge">
<title>Node34&#45;&gt;Node12</title>
<path fill="none" stroke="#191970" d="M889.0728,-431.1932C1010.9067,-417.0195 1250.0747,-383.4495 1444.5454,-321 1522.5415,-295.9535 1538.0302,-279.1418 1611.5454,-243 1638.4819,-229.7574 1644.1316,-224.2239 1671.5454,-212 1701.8677,-198.4792 1736.9234,-185.2602 1763.8488,-175.6005"/>
<polygon fill="#191970" stroke="#191970" points="888.6139,-427.7229 879.0795,-432.3428 889.414,-434.677 888.6139,-427.7229"/>
</g>
<!-- Node34&#45;&gt;Node15 -->
<g id="edge85" class="edge">
<title>Node34&#45;&gt;Node15</title>
<path fill="none" stroke="#191970" d="M889.4455,-431.9984C1144.6789,-407.9316 1925.0723,-333.5023 1948.5454,-321 2012.4619,-286.9568 2058.1372,-208.5009 2075.1853,-175.5282"/>
<polygon fill="#191970" stroke="#191970" points="888.7654,-428.5469 879.138,-432.9698 889.4223,-435.516 888.7654,-428.5469"/>
</g>
<!-- Node34&#45;&gt;Node16 -->
<g id="edge86" class="edge">
<title>Node34&#45;&gt;Node16</title>
<path fill="none" stroke="#191970" d="M729.3921,-435.2569C627.4853,-428.8583 457.9886,-414.5627 401.5454,-388 383.3378,-379.4313 386.4528,-366.1795 368.5454,-357 294.3921,-318.9883 261.7204,-352.4266 184.5454,-321 125.9774,-297.1504 95.6018,-298.6384 65.5454,-243 30.6907,-178.4793 15.2813,-131.3975 65.5454,-78 95.2171,-46.4786 718.1017,-28.1507 934.358,-22.7188"/>
<polygon fill="#191970" stroke="#191970" points="729.4488,-438.767 739.6451,-435.8884 729.8792,-431.7802 729.4488,-438.767"/>
</g>
<!-- Node34&#45;&gt;Node19 -->
<g id="edge90" class="edge">
<title>Node34&#45;&gt;Node19</title>
<path fill="none" stroke="#191970" d="M889.2808,-437.7977C1159.9427,-431.8612 2042.4388,-411.1712 2325.5454,-388 2555.5939,-369.1714 2612.6524,-357.6277 2840.5454,-321 3022.3925,-291.773 3097.8708,-350.3317 3247.5454,-243 3285.5086,-215.7766 3299.9705,-189.4324 3285.5454,-145 3271.0068,-100.218 3233.5485,-58.0838 3211.8143,-36.3437"/>
<polygon fill="#191970" stroke="#191970" points="889.067,-434.3014 879.1459,-438.0193 889.2201,-441.2997 889.067,-434.3014"/>
</g>
<!-- Node34&#45;&gt;Node20 -->
<g id="edge92" class="edge">
<title>Node34&#45;&gt;Node20</title>
<path fill="none" stroke="#191970" d="M889.275,-438.2127C1094.5003,-434.5014 1657.669,-421.8011 2125.5454,-388 2267.071,-377.7757 2622.2075,-352.5696 2760.5454,-321 2860.8702,-298.1053 2895.8009,-304.1766 2978.5454,-243 3008.4221,-220.9109 3013.7184,-210.0691 3028.5454,-176 3038.1888,-153.8416 3041.633,-125.731 3042.8628,-108.7044"/>
<polygon fill="#191970" stroke="#191970" points="889.1253,-434.7147 879.1895,-438.393 889.2505,-441.7136 889.1253,-434.7147"/>
</g>
<!-- Node34&#45;&gt;Node26 -->
<g id="edge95" class="edge">
<title>Node34&#45;&gt;Node26</title>
<path fill="none" stroke="#191970" d="M730.0843,-422.8351C689.7486,-413.7342 640.1769,-401.5625 596.5454,-388 559.7363,-376.5581 552.5635,-367.7465 515.5454,-357 438.0327,-334.4978 398.4631,-373.949 337.5454,-321 314.4193,-300.899 307.4988,-263.5475 305.4285,-242.6525"/>
<polygon fill="#191970" stroke="#191970" points="729.3419,-426.2554 739.8648,-425.0227 730.8699,-419.4242 729.3419,-426.2554"/>
</g>
<!-- Node34&#45;&gt;Node27 -->
<g id="edge83" class="edge">
<title>Node34&#45;&gt;Node27</title>
<path fill="none" stroke="#191970" d="M889.3466,-436.1376C1061.6328,-428.7345 1481.2483,-409.9285 1832.5454,-388 1876.2759,-385.2703 1925.1354,-381.6582 1964.5059,-378.6078"/>
<polygon fill="#191970" stroke="#191970" points="889.1883,-432.6411 879.3475,-436.5664 889.4883,-439.6347 889.1883,-432.6411"/>
</g>
<!-- Node34&#45;&gt;Node29 -->
<g id="edge96" class="edge">
<title>Node34&#45;&gt;Node29</title>
<path fill="none" stroke="#191970" d="M806.3296,-414.2501C800.6603,-369.7351 789.0539,-278.6038 784.4696,-242.6084"/>
<polygon fill="#191970" stroke="#191970" points="802.8682,-414.7758 807.6036,-424.2535 809.8121,-413.8914 802.8682,-414.7758"/>
</g>
<!-- Node35 -->
<g id="node30" class="node">
<title>Node35</title>
<g id="a_node30"><a xlink:href="error_8cxx.html" target="_top" xlink:title="/home/jbigot/data/projects\l/pdi/pdi/src/error.cxx">
<polygon fill="#ffffff" stroke="#000000" points="643.5454,-357.5 643.5454,-387.5 781.5454,-387.5 781.5454,-357.5 643.5454,-357.5"/>
<text text-anchor="start" x="651.5454" y="-375.5" font-family="Helvetica,sans-Serif" font-size="10.00" fill="#000000">/home/jbigot/data/projects</text>
<text text-anchor="middle" x="712.5454" y="-364.5" font-family="Helvetica,sans-Serif" font-size="10.00" fill="#000000">/pdi/pdi/src/error.cxx</text>
</a>
</g>
</g>
<!-- Node34&#45;&gt;Node35 -->
<g id="edge88" class="edge">
<title>Node34&#45;&gt;Node35</title>
<path fill="none" stroke="#191970" d="M778.9208,-418.3469C764.4876,-408.3776 747.5987,-396.7121 734.4691,-387.6432"/>
<polygon fill="#191970" stroke="#191970" points="777.3174,-421.4932 787.5346,-424.2967 781.2957,-415.7335 777.3174,-421.4932"/>
</g>
<!-- Node36 -->
<g id="node31" class="node">
<title>Node36</title>
<g id="a_node31"><a xlink:href="paraconf__wrapper_8cxx.html" target="_top" xlink:title="/home/jbigot/data/projects\l/pdi/pdi/src/paraconf_wrapper.cxx">
<polygon fill="#ffffff" stroke="#000000" points="183.5454,-357.5 183.5454,-387.5 359.5454,-387.5 359.5454,-357.5 183.5454,-357.5"/>
<text text-anchor="start" x="191.5454" y="-375.5" font-family="Helvetica,sans-Serif" font-size="10.00" fill="#000000">/home/jbigot/data/projects</text>
<text text-anchor="middle" x="271.5454" y="-364.5" font-family="Helvetica,sans-Serif" font-size="10.00" fill="#000000">/pdi/pdi/src/paraconf_wrapper.cxx</text>
</a>
</g>
</g>
<!-- Node34&#45;&gt;Node36 -->
<g id="edge91" class="edge">
<title>Node34&#45;&gt;Node36</title>
<path fill="none" stroke="#191970" d="M729.865,-430.8924C642.3739,-421.2535 497.7916,-404.7735 373.5454,-388 369.019,-387.3889 364.3823,-386.7458 359.7022,-386.0831"/>
<polygon fill="#191970" stroke="#191970" points="729.6615,-434.391 739.9841,-432.0047 730.4264,-427.4329 729.6615,-434.391"/>
</g>
<!-- Node37&#45;&gt;Node9 -->
<g id="edge112" class="edge">
<title>Node37&#45;&gt;Node9</title>
<path fill="none" stroke="#191970" d="M2035.1965,-580.9682C1882.1643,-573.9992 1562.1311,-557.0412 1453.5454,-533 1274.2117,-493.2949 1231.7135,-468.3528 1066.5454,-388 1015.07,-362.9577 997.4951,-360.9996 956.5454,-321 910.3603,-275.8865 874.7731,-206.376 860.4359,-175.8114"/>
<polygon fill="#191970" stroke="#191970" points="2035.3282,-584.4777 2045.4761,-581.4328 2035.6443,-577.4848 2035.3282,-584.4777"/>
</g>
<!-- Node37&#45;&gt;Node11 -->
<g id="edge116" class="edge">
<title>Node37&#45;&gt;Node11</title>
<path fill="none" stroke="#191970" d="M2035.2959,-580.868C1905.8795,-572.4979 1651.101,-544.9899 1456.5454,-455 1369.8602,-414.9046 1329.9814,-407.0525 1288.5454,-321 1258.7941,-259.2138 1332.1721,-157.1755 1348.5454,-145 1374.2699,-125.8708 1569.1219,-107.5648 1675.9584,-98.8314"/>
<polygon fill="#191970" stroke="#191970" points="2035.332,-584.377 2045.5306,-581.5068 2035.7681,-577.3906 2035.332,-584.377"/>
</g>
<!-- Node37&#45;&gt;Node12 -->
<g id="edge117" class="edge">
<title>Node37&#45;&gt;Node12</title>
<path fill="none" stroke="#191970" d="M2083.8682,-563.7604C2069.949,-554.8914 2054.0396,-544.0445 2040.5454,-533 1955.1828,-463.1336 1955.4591,-420.9033 1865.5454,-357 1835.4073,-335.5803 1810.237,-352.2946 1790.5454,-321 1761.4457,-274.7537 1786.5412,-205.8362 1800.1531,-175.6184"/>
<polygon fill="#191970" stroke="#191970" points="2082.3503,-566.9397 2092.6823,-569.2852 2086.0681,-561.0085 2082.3503,-566.9397"/>
</g>
<!-- Node37&#45;&gt;Node14 -->
<g id="edge99" class="edge">
<title>Node37&#45;&gt;Node14</title>
<path fill="none" stroke="#191970" d="M2159.0421,-564.2845C2172.3866,-556.0532 2186.3923,-545.5035 2196.5454,-533 2224.7172,-498.3066 2233.5454,-484.191 2233.5454,-439.5 2233.5454,-439.5 2233.5454,-439.5 2233.5454,-372.5 2233.5454,-324.6799 2244.8709,-268.8961 2250.8875,-242.635"/>
<polygon fill="#191970" stroke="#191970" points="2157.2623,-561.2708 2150.4155,-569.3561 2160.81,-567.3052 2157.2623,-561.2708"/>
</g>
<!-- Node37&#45;&gt;Node16 -->
<g id="edge110" class="edge">
<title>Node37&#45;&gt;Node16</title>
<path fill="none" stroke="#191970" d="M2035.3073,-581.1372C1886.311,-574.7093 1564.2803,-558.9621 1293.5454,-533 752.6835,-481.1341 441.0492,-735.327 89.5454,-321 18.2135,-236.9192 -41.826,-152.4078 39.5454,-78 72.468,-47.8948 714.7083,-28.5613 934.5058,-22.8047"/>
<polygon fill="#191970" stroke="#191970" points="2035.1602,-584.634 2045.3009,-581.5655 2035.46,-577.6404 2035.1602,-584.634"/>
</g>
<!-- Node37&#45;&gt;Node17 -->
<g id="edge111" class="edge">
<title>Node37&#45;&gt;Node17</title>
<path fill="none" stroke="#191970" d="M2202.3319,-581.7716C2323.2576,-576.819 2540.0466,-563.8491 2611.5454,-533 2792.978,-454.7187 2866.1522,-422.6026 2948.5454,-243 2954.2903,-230.4771 2957.3727,-222.5786 2948.5454,-212 2947.6956,-210.9815 2823.1774,-188.6053 2739.6126,-173.6862"/>
<polygon fill="#191970" stroke="#191970" points="2201.8609,-578.2876 2192.0087,-582.1845 2202.1406,-585.282 2201.8609,-578.2876"/>
</g>
<!-- Node37&#45;&gt;Node19 -->
<g id="edge113" class="edge">
<title>Node37&#45;&gt;Node19</title>
<path fill="none" stroke="#191970" d="M2202.0126,-581.1877C2348.868,-574.7762 2647.4735,-558.9686 2748.5454,-533 3008.2332,-466.278 3107.246,-450.0935 3277.5454,-243 3324.1449,-186.3325 3318.1641,-135.46 3272.5454,-78 3258.8943,-60.8055 3238.849,-46.1883 3222.6329,-36.062"/>
<polygon fill="#191970" stroke="#191970" points="2201.5456,-577.7046 2191.7061,-581.6331 2201.8479,-584.698 2201.5456,-577.7046"/>
</g>
<!-- Node37&#45;&gt;Node20 -->
<g id="edge115" class="edge">
<title>Node37&#45;&gt;Node20</title>
<path fill="none" stroke="#191970" d="M2201.71,-580.8616C2333.9518,-574.3865 2585.9679,-559.0401 2671.5454,-533 2860.2883,-475.5682 2915.316,-453.4357 3061.5454,-321 3122.0956,-266.1615 3151.6612,-217.7736 3114.5454,-145 3106.4508,-129.1287 3090.9249,-117.0076 3076.4511,-108.5239"/>
<polygon fill="#191970" stroke="#191970" points="2201.4425,-577.3703 2191.6234,-581.3496 2201.7809,-584.3621 2201.4425,-577.3703"/>
</g>
<!-- Node37&#45;&gt;Node33 -->
<g id="edge100" class="edge">
<title>Node37&#45;&gt;Node33</title>
<path fill="none" stroke="#191970" d="M2173.1994,-566.24C2203.9413,-555.9691 2242.409,-543.117 2274.1823,-532.5015"/>
<polygon fill="#191970" stroke="#191970" points="2171.8835,-562.9894 2163.508,-569.478 2174.1017,-569.6287 2171.8835,-562.9894"/>
</g>
<!-- Node37&#45;&gt;Node38 -->
<g id="edge101" class="edge">
<title>Node37&#45;&gt;Node38</title>
<path fill="none" stroke="#191970" d="M2201.7815,-580.5119C2359.5626,-570.6667 2686.5454,-538.3401 2686.5454,-439.5 2686.5454,-439.5 2686.5454,-439.5 2686.5454,-372.5 2686.5454,-323.7523 2665.7356,-268.8522 2654.5178,-242.799"/>
<polygon fill="#191970" stroke="#191970" points="2201.4079,-577.0281 2191.6387,-581.1283 2201.8326,-584.0152 2201.4079,-577.0281"/>
</g>
<!-- Node39 -->
<g id="node34" class="node">
<title>Node39</title>
<g id="a_node34"><a xlink:href="logger_8cxx.html" target="_top" xlink:title="/home/jbigot/data/projects\l/pdi/pdi/src/logger.cxx">
<polygon fill="#ffffff" stroke="#000000" points="2049.5454,-497 2049.5454,-527 2187.5454,-527 2187.5454,-497 2049.5454,-497"/>
<text text-anchor="start" x="2057.5454" y="-515" font-family="Helvetica,sans-Serif" font-size="10.00" fill="#000000">/home/jbigot/data/projects</text>
<text text-anchor="middle" x="2118.5454" y="-504" font-family="Helvetica,sans-Serif" font-size="10.00" fill="#000000">/pdi/pdi/src/logger.cxx</text>
</a>
</g>
</g>
<!-- Node37&#45;&gt;Node39 -->
<g id="edge114" class="edge">
<title>Node37&#45;&gt;Node39</title>
<path fill="none" stroke="#191970" d="M2118.5454,-559.3409C2118.5454,-548.5601 2118.5454,-536.3309 2118.5454,-527.0028"/>
<polygon fill="#191970" stroke="#191970" points="2115.0455,-559.4779 2118.5454,-569.478 2122.0455,-559.478 2115.0455,-559.4779"/>
</g>
<!-- Node38&#45;&gt;Node11 -->
<g id="edge108" class="edge">
<title>Node38&#45;&gt;Node11</title>
<path fill="none" stroke="#191970" d="M2612.6778,-207.4012C2576.6299,-187.7119 2518.084,-158.7258 2463.5454,-145 2342.1243,-114.4418 1970.9021,-100.1692 1815.3126,-95.4095"/>
<polygon fill="#191970" stroke="#191970" points="2611.3393,-210.6607 2621.7838,-212.4394 2614.7282,-204.5356 2611.3393,-210.6607"/>
</g>
<!-- Node38&#45;&gt;Node12 -->
<g id="edge109" class="edge">
<title>Node38&#45;&gt;Node12</title>
<path fill="none" stroke="#191970" d="M2565.9338,-220.9905C2402.547,-207.9585 2037.5552,-178.846 1881.0755,-166.3649"/>
<polygon fill="#191970" stroke="#191970" points="2565.6808,-224.4814 2575.9275,-221.7876 2566.2375,-217.5035 2565.6808,-224.4814"/>
</g>
<!-- Node38&#45;&gt;Node15 -->
<g id="edge102" class="edge">
<title>Node38&#45;&gt;Node15</title>
<path fill="none" stroke="#191970" d="M2565.8,-217.8063C2454.265,-204.58 2256.3429,-181.1096 2151.7548,-168.7071"/>
<polygon fill="#191970" stroke="#191970" points="2565.6452,-221.3124 2575.9878,-219.0144 2566.4695,-214.3611 2565.6452,-221.3124"/>
</g>
<!-- Node38&#45;&gt;Node16 -->
<g id="edge103" class="edge">
<title>Node38&#45;&gt;Node16</title>
<path fill="none" stroke="#191970" d="M2711.334,-208.1031C2726.0477,-200.503 2739.9032,-190.1075 2748.5454,-176 2786.0987,-114.6981 2669.0745,-80.3695 2662.5454,-78 2587.34,-50.7065 1391.3351,-27.7769 1080.7644,-22.2621"/>
<polygon fill="#191970" stroke="#191970" points="2709.6362,-205.0346 2702.1008,-212.4823 2712.6359,-211.3593 2709.6362,-205.0346"/>
</g>
<!-- Node38&#45;&gt;Node17 -->
<g id="edge104" class="edge">
<title>Node38&#45;&gt;Node17</title>
<path fill="none" stroke="#191970" d="M2654.2322,-202.6103C2656.6649,-193.5553 2659.3395,-183.5998 2661.4771,-175.6432"/>
<polygon fill="#191970" stroke="#191970" points="2650.8444,-201.731 2651.6299,-212.2967 2657.6047,-203.5472 2650.8444,-201.731"/>
</g>
<!-- Node38&#45;&gt;Node19 -->
<g id="edge105" class="edge">
<title>Node38&#45;&gt;Node19</title>
<path fill="none" stroke="#191970" d="M2724.3155,-209.8164C2754.73,-201.4596 2789.5317,-190.168 2819.5454,-176 2890.2184,-142.6387 2894.0923,-109.656 2965.5454,-78 3013.5954,-56.7123 3070.9649,-42.4763 3116.3869,-33.5553"/>
<polygon fill="#191970" stroke="#191970" points="2723.3549,-206.4503 2714.6064,-212.4265 2725.1722,-213.2103 2723.3549,-206.4503"/>
</g>
<!-- Node38&#45;&gt;Node20 -->
<g id="edge106" class="edge">
<title>Node38&#45;&gt;Node20</title>
<path fill="none" stroke="#191970" d="M2729.2009,-212.2756C2783.7442,-201.5089 2850.1477,-187.0776 2876.5454,-176 2899.9627,-166.1731 2902.1492,-156.9729 2924.5454,-145 2950.4531,-131.1499 2980.8706,-118.0376 3004.4675,-108.5099"/>
<polygon fill="#191970" stroke="#191970" points="2728.3072,-208.8841 2719.1668,-214.2417 2729.6533,-215.7535 2728.3072,-208.8841"/>
</g>
<!-- Node38&#45;&gt;Node21 -->
<g id="edge107" class="edge">
<title>Node38&#45;&gt;Node21</title>
<path fill="none" stroke="#191970" d="M2571.4641,-210.2205C2524.2114,-199.4886 2464.0689,-185.8291 2418.7829,-175.5438"/>
<polygon fill="#191970" stroke="#191970" points="2570.8148,-213.6621 2581.3417,-212.4639 2572.3652,-206.836 2570.8148,-213.6621"/>
</g>
<!-- Node40&#45;&gt;Node8 -->
<g id="edge120" class="edge">
<title>Node40&#45;&gt;Node8</title>
<path fill="none" stroke="#191970" d="M882.7727,-651.8704C730.3068,-640.3046 425.5454,-605.4927 425.5454,-512 425.5454,-512 425.5454,-512 425.5454,-439.5 425.5454,-378.778 468.7547,-376.4309 493.5454,-321 505.4846,-294.3045 515.3054,-261.5545 520.5109,-242.7495"/>
<polygon fill="#191970" stroke="#191970" points="882.8042,-655.3823 893.0356,-652.6313 883.3218,-648.4014 882.8042,-655.3823"/>
</g>
<!-- Node40&#45;&gt;Node9 -->
<g id="edge122" class="edge">
<title>Node40&#45;&gt;Node9</title>
<path fill="none" stroke="#191970" d="M882.8571,-656.0071C732.5834,-653.1689 425.9423,-642.221 328.5454,-600 219.4976,-552.7284 191.806,-503.9155 165.5454,-388 148.0129,-310.6107 135.2268,-263.5573 195.5454,-212 237.8719,-175.8215 595.2617,-164.8922 764.8726,-161.7267"/>
<polygon fill="#191970" stroke="#191970" points="882.9017,-659.5084 892.9635,-656.1902 883.0285,-652.5096 882.9017,-659.5084"/>
</g>
<!-- Node40&#45;&gt;Node11 -->
<g id="edge126" class="edge">
<title>Node40&#45;&gt;Node11</title>
<path fill="none" stroke="#191970" d="M882.6216,-653.2188C708.2757,-645.0044 321.6588,-624.3013 266.5454,-600 164.7004,-555.0932 3.5454,-371.0505 3.5454,-300 3.5454,-300 3.5454,-300 3.5454,-227.5 3.5454,-58.5835 207.0146,-166.5923 374.5454,-145 630.2695,-112.0409 1434.0184,-97.9955 1675.9621,-94.4459"/>
<polygon fill="#191970" stroke="#191970" points="882.6308,-656.723 892.7836,-653.6948 882.9584,-649.7306 882.6308,-656.723"/>
</g>
<!-- Node40&#45;&gt;Node12 -->
<g id="edge127" class="edge">
<title>Node40&#45;&gt;Node12</title>
<path fill="none" stroke="#191970" d="M1017.9252,-631.9058C1093.9276,-595.1423 1243.3136,-527.104 1377.5454,-491 1577.7684,-437.1465 1711.3122,-556.2021 1832.5454,-388 1840.6014,-376.8229 1839.3337,-368.9894 1832.5454,-357 1817.2233,-329.9382 1787.8676,-348.0618 1772.5454,-321 1767.6144,-312.2909 1769.8994,-227.0271 1774.5454,-212 1778.6858,-198.6083 1787.3301,-185.3345 1794.7328,-175.6175"/>
<polygon fill="#191970" stroke="#191970" points="1016.047,-628.9271 1008.583,-636.4464 1019.1069,-635.2229 1016.047,-628.9271"/>
</g>
<!-- Node40&#45;&gt;Node15 -->
<g id="edge121" class="edge">
<title>Node40&#45;&gt;Node15</title>
<path fill="none" stroke="#191970" d="M1052.416,-650.5695C1296.3507,-630.1557 1990.6047,-557.8801 2125.5454,-388 2142.1168,-367.1379 2178.9595,-403.769 2115.5454,-212 2111.1446,-198.6916 2102.5085,-185.4152 2095.1747,-175.6761"/>
<polygon fill="#191970" stroke="#191970" points="1051.8632,-647.1032 1042.1864,-651.4172 1052.4413,-654.0793 1051.8632,-647.1032"/>
</g>
<!-- Node40&#45;&gt;Node19 -->
<g id="edge123" class="edge">
<title>Node40&#45;&gt;Node19</title>
<path fill="none" stroke="#191970" d="M1052.6093,-655.1253C1323.5729,-648.9283 2164.5452,-627.8994 2435.5454,-600 2614.4161,-581.5853 2661.8181,-582.991 2834.5454,-533 3103.5178,-455.1537 3385.5454,-507.511 3385.5454,-227.5 3385.5454,-227.5 3385.5454,-227.5 3385.5454,-160.5 3385.5454,-93.2852 3307.3314,-54.8951 3251.2679,-36.0109"/>
<polygon fill="#191970" stroke="#191970" points="1052.3595,-651.6299 1042.4418,-655.3569 1052.519,-658.6281 1052.3595,-651.6299"/>
</g>
<!-- Node40&#45;&gt;Node20 -->
<g id="edge125" class="edge">
<title>Node40&#45;&gt;Node20</title>
<path fill="none" stroke="#191970" d="M1052.2696,-655.6013C1360.7865,-649.8118 2423.1358,-623.5992 2748.5454,-533 2957.3206,-474.8737 3083.4882,-452.0699 3140.5454,-243 3146.3618,-221.6876 3137.9376,-150.2627 3134.5454,-145 3123.9235,-128.5213 3106.0678,-116.7806 3088.9723,-108.7131"/>
<polygon fill="#191970" stroke="#191970" points="1051.9844,-652.1059 1042.0511,-655.7907 1052.1143,-659.1047 1051.9844,-652.1059"/>
</g>
<!-- Node40&#45;&gt;Node26 -->
<g id="edge128" class="edge">
<title>Node40&#45;&gt;Node26</title>
<path fill="none" stroke="#191970" d="M882.4276,-652.2648C728.2192,-643.1909 414.3686,-622.2683 369.5454,-600 340.8829,-585.7604 186.1733,-417.8178 174.5454,-388 150.1832,-325.5272 230.7786,-268.6829 275.9945,-242.5788"/>
<polygon fill="#191970" stroke="#191970" points="882.612,-655.7814 892.7994,-652.8713 883.0208,-648.7934 882.612,-655.7814"/>
</g>
<!-- Node40&#45;&gt;Node29 -->
<g id="edge129" class="edge">
<title>Node40&#45;&gt;Node29</title>
<path fill="none" stroke="#191970" d="M952.9494,-627.3719C940.1422,-598.6115 923.5454,-553.3617 923.5454,-512 923.5454,-512 923.5454,-512 923.5454,-439.5 923.5454,-352.8627 840.8938,-274.6183 802.1509,-242.7003"/>
<polygon fill="#191970" stroke="#191970" points="949.7687,-628.8325 957.118,-636.4638 956.1318,-625.915 949.7687,-628.8325"/>
</g>
<!-- Node40&#45;&gt;Node36 -->
<g id="edge124" class="edge">
<title>Node40&#45;&gt;Node36</title>
<path fill="none" stroke="#191970" d="M882.5384,-652.4178C736.6574,-643.9478 450.493,-624.4535 411.5454,-600 329.6544,-548.5841 288.2894,-430.0114 275.7585,-387.78"/>
<polygon fill="#191970" stroke="#191970" points="882.6093,-655.9276 892.7941,-653.0086 883.0119,-648.9392 882.6093,-655.9276"/>
</g>
<!-- Node40&#45;&gt;Node37 -->
<g id="edge119" class="edge">
<title>Node40&#45;&gt;Node37</title>
<path fill="none" stroke="#191970" d="M1052.2317,-651.6657C1269.0442,-638.009 1841.3947,-601.9574 2045.1973,-589.1201"/>
<polygon fill="#191970" stroke="#191970" points="1051.9391,-648.1771 1042.1789,-652.2989 1052.3792,-655.1633 1051.9391,-648.1771"/>
</g>
</g>
</svg>
        <g id="navigator" transform="translate(0 0)" fill="#404254">
                <rect fill="#f2f5e9" fill-opacity="0.5" stroke="#606060" stroke-width=".5" x="0" y="0" width="60" height="60"/>
                <use id="zoomplus" xlink:href="#zoomPlus" x="17" y="9" onmousedown="handleZoom(evt,'in')"/>
                <use id="zoomminus" xlink:href="#zoomMin" x="42" y="9" onmousedown="handleZoom(evt,'out')"/>
                <use id="reset" xlink:href="#resetDef" x="30" y="36" onmousedown="handleReset()"/>
                <g id="arrowUp" xlink:href="#dirArrow" transform="translate(30 24)" onmousedown="handlePan(0,-1)">
                  <use xlink:href="#rim" fill="#404040">
                        <set attributeName="fill" to="#808080" begin="arrowUp.mouseover" end="arrowUp.mouseout"/>
                  </use>
                  <path fill="none" stroke="white" stroke-width="1.5" d="M0,-3.0v7 M-2.5,-0.5L0,-3.0L2.5,-0.5"/>
                </g>
                <g id="arrowRight" xlink:href="#dirArrow" transform="rotate(90) translate(36 -43)" onmousedown="handlePan(1,0)">
                  <use xlink:href="#rim" fill="#404040">
                        <set attributeName="fill" to="#808080" begin="arrowRight.mouseover" end="arrowRight.mouseout"/>
                  </use>
                  <path fill="none" stroke="white" stroke-width="1.5" d="M0,-3.0v7 M-2.5,-0.5L0,-3.0L2.5,-0.5"/>
                </g>
                <g id="arrowDown" xlink:href="#dirArrow" transform="rotate(180) translate(-30 -48)" onmousedown="handlePan(0,1)">
                  <use xlink:href="#rim" fill="#404040">
                        <set attributeName="fill" to="#808080" begin="arrowDown.mouseover" end="arrowDown.mouseout"/>
                  </use>
                  <path fill="none" stroke="white" stroke-width="1.5" d="M0,-3.0v7 M-2.5,-0.5L0,-3.0L2.5,-0.5"/>
                </g>
                <g id="arrowLeft" xlink:href="#dirArrow" transform="rotate(270) translate(-36 17)" onmousedown="handlePan(-1,0)">
                  <use xlink:href="#rim" fill="#404040">
                        <set attributeName="fill" to="#808080" begin="arrowLeft.mouseover" end="arrowLeft.mouseout"/>
                  </use>
                  <path fill="none" stroke="white" stroke-width="1.5" d="M0,-3.0v7 M-2.5,-0.5L0,-3.0L2.5,-0.5"/>
                </g>
        </g>
        <svg viewBox="0 0 15 15" width="100%" height="30px" preserveAspectRatio="xMaxYMin meet">
         <g id="arrow_out" transform="scale(0.3 0.3)">
          <a xlink:href="pdi__fwd_8h__dep__incl_org.svg" target="_base">
           <rect id="button" ry="5" rx="5" y="6" x="6" height="38" width="38"
                fill="#f2f5e9" fill-opacity="0.5" stroke="#606060" stroke-width="1.0"/>
           <path id="arrow"
             d="M 11.500037,31.436501 C 11.940474,20.09759 22.043105,11.32322 32.158766,21.979434 L 37.068811,17.246167 C 37.068811,17.246167 37.088388,32 37.088388,32 L 22.160133,31.978069 C 22.160133,31.978069 26.997745,27.140456 26.997745,27.140456 C 18.528582,18.264221 13.291696,25.230495 11.500037,31.436501 z"
             style="fill:#404040;"/>
          </a>
         </g>
        </svg>
</svg>
