<?xml version="1.0" encoding="UTF-8" standalone="no"?>
<!DOCTYPE svg PUBLIC "-//W3C//DTD SVG 1.1//EN"
 "http://www.w3.org/Graphics/SVG/1.1/DTD/svg11.dtd">
<!-- Generated by graphviz version 2.40.1 (20161225.0304)
 -->
<!-- Title: PDI_init Pages: 1 -->
<svg width="351pt" height="137pt"
 viewBox="0.00 0.00 351.00 137.00" xmlns="http://www.w3.org/2000/svg" xmlns:xlink="http://www.w3.org/1999/xlink">
<g id="graph0" class="graph" transform="scale(1 1) rotate(0) translate(4 133)">
<title>PDI_init</title>
<polygon fill="#ffffff" stroke="transparent" points="-4,4 -4,-133 347,-133 347,4 -4,4"/>
<!-- Node27 -->
<g id="node1" class="node">
<title>Node27</title>
<polygon fill="#bfbfbf" stroke="#000000" points="0,-55 0,-74 53,-74 53,-55 0,-55"/>
<text text-anchor="middle" x="26.5" y="-62" font-family="Helvetica,sans-Serif" font-size="10.00" fill="#000000">PDI_init</text>
</g>
<!-- Node28 -->
<g id="node2" class="node">
<title>Node28</title>
<g id="a_node2"><a xlink:href="classPDI_1_1Global__context.html#a20281f105cdf8d2b5002e89b3b076b3a" target="_top" xlink:title="PDI::Global_context\l::init">
<polygon fill="#ffffff" stroke="#000000" points="89,-98.5 89,-128.5 198,-128.5 198,-98.5 89,-98.5"/>
<text text-anchor="start" x="97" y="-116.5" font-family="Helvetica,sans-Serif" font-size="10.00" fill="#000000">PDI::Global_context</text>
<text text-anchor="middle" x="143.5" y="-105.5" font-family="Helvetica,sans-Serif" font-size="10.00" fill="#000000">::init</text>
</a>
</g>
</g>
<!-- Node27&#45;&gt;Node28 -->
<g id="edge1" class="edge">
<title>Node27&#45;&gt;Node28</title>
<path fill="none" stroke="#191970" d="M49.3365,-74.064C63.1233,-79.8379 81.1834,-87.4016 97.7959,-94.359"/>
<polygon fill="#191970" stroke="#191970" points="96.7908,-97.7325 107.3666,-98.3672 99.4949,-91.2759 96.7908,-97.7325"/>
</g>
<!-- Node30 -->
<g id="node4" class="node">
<title>Node30</title>
<g id="a_node4"><a xlink:href="classPDI_1_1Global__context.html#a9de4e403f6919016c6a8a26fd82a9b94" target="_top" xlink:title="PDI::Global_context\l::context">
<polygon fill="#ffffff" stroke="#000000" points="89,-49.5 89,-79.5 198,-79.5 198,-49.5 89,-49.5"/>
<text text-anchor="start" x="97" y="-67.5" font-family="Helvetica,sans-Serif" font-size="10.00" fill="#000000">PDI::Global_context</text>
<text text-anchor="middle" x="143.5" y="-56.5" font-family="Helvetica,sans-Serif" font-size="10.00" fill="#000000">::context</text>
</a>
</g>
</g>
<!-- Node27&#45;&gt;Node30 -->
<g id="edge3" class="edge">
<title>Node27&#45;&gt;Node30</title>
<path fill="none" stroke="#191970" d="M53.0491,-64.5C60.7889,-64.5 69.6051,-64.5 78.6258,-64.5"/>
<polygon fill="#191970" stroke="#191970" points="78.8511,-68.0001 88.851,-64.5 78.851,-61.0001 78.8511,-68.0001"/>
</g>
<!-- Node31 -->
<g id="node5" class="node">
<title>Node31</title>
<g id="a_node5"><a xlink:href="classPDI_1_1Global__context.html#ac513ebf3880a1068ba39ebd4ec4ab818" target="_top" xlink:title="PDI::Global_context\l::logger">
<polygon fill="#ffffff" stroke="#000000" points="89,-.5 89,-30.5 198,-30.5 198,-.5 89,-.5"/>
<text text-anchor="start" x="97" y="-18.5" font-family="Helvetica,sans-Serif" font-size="10.00" fill="#000000">PDI::Global_context</text>
<text text-anchor="middle" x="143.5" y="-7.5" font-family="Helvetica,sans-Serif" font-size="10.00" fill="#000000">::logger</text>
</a>
</g>
</g>
<!-- Node27&#45;&gt;Node31 -->
<g id="edge4" class="edge">
<title>Node27&#45;&gt;Node31</title>
<path fill="none" stroke="#191970" d="M49.3365,-54.936C63.1233,-49.1621 81.1834,-41.5984 97.7959,-34.641"/>
<polygon fill="#191970" stroke="#191970" points="99.4949,-37.7241 107.3666,-30.6328 96.7908,-31.2675 99.4949,-37.7241"/>
</g>
<!-- Node29 -->
<g id="node3" class="node">
<title>Node29</title>
<g id="a_node3"><a xlink:href="classPDI_1_1Global__context.html#aa075da0d1d585067a3daacdbc57d9505" target="_top" xlink:title="PDI::Global_context\l::Global_context">
<polygon fill="#ffffff" stroke="#000000" points="234,-98.5 234,-128.5 343,-128.5 343,-98.5 234,-98.5"/>
<text text-anchor="start" x="242" y="-116.5" font-family="Helvetica,sans-Serif" font-size="10.00" fill="#000000">PDI::Global_context</text>
<text text-anchor="middle" x="288.5" y="-105.5" font-family="Helvetica,sans-Serif" font-size="10.00" fill="#000000">::Global_context</text>
</a>
</g>
</g>
<!-- Node28&#45;&gt;Node29 -->
<g id="edge2" class="edge">
<title>Node28&#45;&gt;Node29</title>
<path fill="none" stroke="#191970" d="M198.3183,-113.5C206.5286,-113.5 215.0611,-113.5 223.4586,-113.5"/>
<polygon fill="#191970" stroke="#191970" points="223.6042,-117.0001 233.6042,-113.5 223.6042,-110.0001 223.6042,-117.0001"/>
</g>
</g>
</svg>
