<?xml version="1.0" encoding="UTF-8" standalone="no"?>
<!DOCTYPE svg PUBLIC "-//W3C//DTD SVG 1.1//EN"
 "http://www.w3.org/Graphics/SVG/1.1/DTD/svg11.dtd">
<!-- Generated by graphviz version 2.40.1 (20161225.0304)
 -->
<!-- Title: PDI_finalize Pages: 1 -->
<svg width="226pt" height="137pt"
 viewBox="0.00 0.00 226.00 137.00" xmlns="http://www.w3.org/2000/svg" xmlns:xlink="http://www.w3.org/1999/xlink">
<g id="graph0" class="graph" transform="scale(1 1) rotate(0) translate(4 133)">
<title>PDI_finalize</title>
<polygon fill="#ffffff" stroke="transparent" points="-4,4 -4,-133 222,-133 222,4 -4,4"/>
<!-- Node22 -->
<g id="node1" class="node">
<title>Node22</title>
<polygon fill="#bfbfbf" stroke="#000000" points="0,-55 0,-74 73,-74 73,-55 0,-55"/>
<text text-anchor="middle" x="36.5" y="-62" font-family="Helvetica,sans-Serif" font-size="10.00" fill="#000000">PDI_finalize</text>
</g>
<!-- Node23 -->
<g id="node2" class="node">
<title>Node23</title>
<g id="a_node2"><a xlink:href="classPDI_1_1Global__context.html#a9de4e403f6919016c6a8a26fd82a9b94" target="_top" xlink:title="PDI::Global_context\l::context">
<polygon fill="#ffffff" stroke="#000000" points="109,-98.5 109,-128.5 218,-128.5 218,-98.5 109,-98.5"/>
<text text-anchor="start" x="117" y="-116.5" font-family="Helvetica,sans-Serif" font-size="10.00" fill="#000000">PDI::Global_context</text>
<text text-anchor="middle" x="163.5" y="-105.5" font-family="Helvetica,sans-Serif" font-size="10.00" fill="#000000">::context</text>
</a>
</g>
</g>
<!-- Node22&#45;&gt;Node23 -->
<g id="edge1" class="edge">
<title>Node22&#45;&gt;Node23</title>
<path fill="none" stroke="#191970" d="M61.2884,-74.064C76.5332,-79.9459 96.5917,-87.685 114.8991,-94.7485"/>
<polygon fill="#191970" stroke="#191970" points="113.6887,-98.0329 124.2783,-98.3672 116.2085,-91.5021 113.6887,-98.0329"/>
</g>
<!-- Node24 -->
<g id="node3" class="node">
<title>Node24</title>
<g id="a_node3"><a xlink:href="classPDI_1_1Global__context.html#ac513ebf3880a1068ba39ebd4ec4ab818" target="_top" xlink:title="PDI::Global_context\l::logger">
<polygon fill="#ffffff" stroke="#000000" points="109,-49.5 109,-79.5 218,-79.5 218,-49.5 109,-49.5"/>
<text text-anchor="start" x="117" y="-67.5" font-family="Helvetica,sans-Serif" font-size="10.00" fill="#000000">PDI::Global_context</text>
<text text-anchor="middle" x="163.5" y="-56.5" font-family="Helvetica,sans-Serif" font-size="10.00" fill="#000000">::logger</text>
</a>
</g>
</g>
<!-- Node22&#45;&gt;Node24 -->
<g id="edge2" class="edge">
<title>Node22&#45;&gt;Node24</title>
<path fill="none" stroke="#191970" d="M73.2337,-64.5C81.2371,-64.5 89.9348,-64.5 98.6662,-64.5"/>
<polygon fill="#191970" stroke="#191970" points="98.892,-68.0001 108.892,-64.5 98.892,-61.0001 98.892,-68.0001"/>
</g>
<!-- Node25 -->
<g id="node4" class="node">
<title>Node25</title>
<g id="a_node4"><a xlink:href="classPDI_1_1Global__context.html#a95ba43bb00715271615a10d7c9e59c30" target="_top" xlink:title="PDI::Global_context\l::finalize">
<polygon fill="#ffffff" stroke="#000000" points="109,-.5 109,-30.5 218,-30.5 218,-.5 109,-.5"/>
<text text-anchor="start" x="117" y="-18.5" font-family="Helvetica,sans-Serif" font-size="10.00" fill="#000000">PDI::Global_context</text>
<text text-anchor="middle" x="163.5" y="-7.5" font-family="Helvetica,sans-Serif" font-size="10.00" fill="#000000">::finalize</text>
</a>
</g>
</g>
<!-- Node22&#45;&gt;Node25 -->
<g id="edge3" class="edge">
<title>Node22&#45;&gt;Node25</title>
<path fill="none" stroke="#191970" d="M61.2884,-54.936C76.5332,-49.0541 96.5917,-41.315 114.8991,-34.2515"/>
<polygon fill="#191970" stroke="#191970" points="116.2085,-37.4979 124.2783,-30.6328 113.6887,-30.9671 116.2085,-37.4979"/>
</g>
</g>
</svg>
