<?xml version="1.0" encoding="UTF-8" standalone="no"?>
<!DOCTYPE svg PUBLIC "-//W3C//DTD SVG 1.1//EN"
 "http://www.w3.org/Graphics/SVG/1.1/DTD/svg11.dtd">
<!-- Generated by graphviz version 2.40.1 (20161225.0304)
 -->
<!-- Title: /home/jbigot/data/projects/pdi/pdi/include/pdi/pdi_fwd.h Pages: 1 -->
<svg width="261pt" height="151pt"
 viewBox="0.00 0.00 261.00 151.00" xmlns="http://www.w3.org/2000/svg" xmlns:xlink="http://www.w3.org/1999/xlink">
<g id="graph0" class="graph" transform="scale(1 1) rotate(0) translate(4 147)">
<title>/home/jbigot/data/projects/pdi/pdi/include/pdi/pdi_fwd.h</title>
<polygon fill="#ffffff" stroke="transparent" points="-4,4 -4,-147 257,-147 257,4 -4,4"/>
<!-- Node0 -->
<g id="node1" class="node">
<title>Node0</title>
<polygon fill="#bfbfbf" stroke="#000000" points="12.5,-112.5 12.5,-142.5 164.5,-142.5 164.5,-112.5 12.5,-112.5"/>
<text text-anchor="start" x="20.5" y="-130.5" font-family="Helvetica,sans-Serif" font-size="10.00" fill="#000000">/home/jbigot/data/projects</text>
<text text-anchor="middle" x="88.5" y="-119.5" font-family="Helvetica,sans-Serif" font-size="10.00" fill="#000000">/pdi/pdi/include/pdi/pdi_fwd.h</text>
</g>
<!-- Node1 -->
<g id="node2" class="node">
<title>Node1</title>
<polygon fill="#ffffff" stroke="#bfbfbf" points="29.5,-56.5 29.5,-75.5 83.5,-75.5 83.5,-56.5 29.5,-56.5"/>
<text text-anchor="middle" x="56.5" y="-63.5" font-family="Helvetica,sans-Serif" font-size="10.00" fill="#000000">memory</text>
</g>
<!-- Node0&#45;&gt;Node1 -->
<g id="edge1" class="edge">
<title>Node0&#45;&gt;Node1</title>
<path fill="none" stroke="#191970" d="M80.5899,-112.2977C76.2868,-104.0277 70.9242,-93.7215 66.3518,-84.9339"/>
<polygon fill="#191970" stroke="#191970" points="69.3443,-83.1024 61.6236,-75.8469 63.1346,-86.3335 69.3443,-83.1024"/>
</g>
<!-- Node2 -->
<g id="node3" class="node">
<title>Node2</title>
<g id="a_node3"><a xlink:href="pdi_8h.html" target="_top" xlink:title="pdi.h">
<polygon fill="#ffffff" stroke="#000000" points="102,-56.5 102,-75.5 141,-75.5 141,-56.5 102,-56.5"/>
<text text-anchor="middle" x="121.5" y="-63.5" font-family="Helvetica,sans-Serif" font-size="10.00" fill="#000000">pdi.h</text>
</a>
</g>
</g>
<!-- Node0&#45;&gt;Node2 -->
<g id="edge2" class="edge">
<title>Node0&#45;&gt;Node2</title>
<path fill="none" stroke="#191970" d="M96.6573,-112.2977C101.0949,-104.0277 106.625,-93.7215 111.3404,-84.9339"/>
<polygon fill="#191970" stroke="#191970" points="114.5721,-86.3134 116.2163,-75.8469 108.404,-83.0037 114.5721,-86.3134"/>
</g>
<!-- Node3 -->
<g id="node4" class="node">
<title>Node3</title>
<polygon fill="#ffffff" stroke="#bfbfbf" points="0,-.5 0,-19.5 67,-19.5 67,-.5 0,-.5"/>
<text text-anchor="middle" x="33.5" y="-7.5" font-family="Helvetica,sans-Serif" font-size="10.00" fill="#000000">paraconf.h</text>
</g>
<!-- Node2&#45;&gt;Node3 -->
<g id="edge3" class="edge">
<title>Node2&#45;&gt;Node3</title>
<path fill="none" stroke="#191970" d="M106.1716,-56.2455C92.6697,-47.6534 72.7878,-35.0014 57.2314,-25.1018"/>
<polygon fill="#191970" stroke="#191970" points="58.9685,-22.0587 48.6528,-19.6427 55.2103,-27.9643 58.9685,-22.0587"/>
</g>
<!-- Node4 -->
<g id="node5" class="node">
<title>Node4</title>
<polygon fill="#ffffff" stroke="#bfbfbf" points="85.5,-.5 85.5,-19.5 157.5,-19.5 157.5,-.5 85.5,-.5"/>
<text text-anchor="middle" x="121.5" y="-7.5" font-family="Helvetica,sans-Serif" font-size="10.00" fill="#000000">pdi/export.h</text>
</g>
<!-- Node2&#45;&gt;Node4 -->
<g id="edge4" class="edge">
<title>Node2&#45;&gt;Node4</title>
<path fill="none" stroke="#191970" d="M121.5,-56.2455C121.5,-48.9382 121.5,-38.6944 121.5,-29.7046"/>
<polygon fill="#191970" stroke="#191970" points="125.0001,-29.6426 121.5,-19.6427 118.0001,-29.6427 125.0001,-29.6426"/>
</g>
<!-- Node5 -->
<g id="node6" class="node">
<title>Node5</title>
<polygon fill="#ffffff" stroke="#bfbfbf" points="176,-.5 176,-19.5 253,-19.5 253,-.5 176,-.5"/>
<text text-anchor="middle" x="214.5" y="-7.5" font-family="Helvetica,sans-Serif" font-size="10.00" fill="#000000">pdi/version.h</text>
</g>
<!-- Node2&#45;&gt;Node5 -->
<g id="edge5" class="edge">
<title>Node2&#45;&gt;Node5</title>
<path fill="none" stroke="#191970" d="M137.6994,-56.2455C152.1018,-47.5731 173.3732,-34.7645 189.8799,-24.825"/>
<polygon fill="#191970" stroke="#191970" points="191.725,-27.7996 198.4863,-19.6427 188.114,-21.8028 191.725,-27.7996"/>
</g>
</g>
</svg>
