<?xml version="1.0" encoding="UTF-8" standalone="no"?>
<!DOCTYPE svg PUBLIC "-//W3C//DTD SVG 1.1//EN"
 "http://www.w3.org/Graphics/SVG/1.1/DTD/svg11.dtd">
<!-- Generated by graphviz version 2.40.1 (20161225.0304)
 -->
<!-- Title: PDI_reclaim Pages: 1 -->
<svg width="234pt" height="104pt"
 viewBox="0.00 0.00 234.00 104.00" xmlns="http://www.w3.org/2000/svg" xmlns:xlink="http://www.w3.org/1999/xlink">
<g id="graph0" class="graph" transform="scale(1 1) rotate(0) translate(4 100)">
<title>PDI_reclaim</title>
<polygon fill="#ffffff" stroke="transparent" points="-4,4 -4,-100 230,-100 230,4 -4,4"/>
<!-- Node44 -->
<g id="node1" class="node">
<title>Node44</title>
<polygon fill="#bfbfbf" stroke="#000000" points="0,-38.5 0,-57.5 74,-57.5 74,-38.5 0,-38.5"/>
<text text-anchor="middle" x="37" y="-45.5" font-family="Helvetica,sans-Serif" font-size="10.00" fill="#000000">PDI_reclaim</text>
</g>
<!-- Node45 -->
<g id="node2" class="node">
<title>Node45</title>
<g id="a_node2"><a xlink:href="pdi_8cxx.html#abf3f81774644eff9a3cf511e57273454" target="_top" xlink:title="PDI_expose">
<polygon fill="#ffffff" stroke="#000000" points="131,-76.5 131,-95.5 205,-95.5 205,-76.5 131,-76.5"/>
<text text-anchor="middle" x="168" y="-83.5" font-family="Helvetica,sans-Serif" font-size="10.00" fill="#000000">PDI_expose</text>
</a>
</g>
</g>
<!-- Node44&#45;&gt;Node45 -->
<g id="edge1" class="edge">
<title>Node44&#45;&gt;Node45</title>
<path fill="none" stroke="#191970" d="M79.7148,-60.3906C97.6547,-65.5945 118.1996,-71.5541 134.9537,-76.4141"/>
<polygon fill="#191970" stroke="#191970" points="80.636,-57.0136 70.0568,-57.589 78.6858,-63.7364 80.636,-57.0136"/>
</g>
<!-- Node46 -->
<g id="node3" class="node">
<title>Node46</title>
<g id="a_node3"><a xlink:href="pdi_8cxx.html#ae5c670b378e423e3083122f62c1f0a59" target="_top" xlink:title="PDI_multi_expose">
<polygon fill="#ffffff" stroke="#000000" points="117.5,-38.5 117.5,-57.5 218.5,-57.5 218.5,-38.5 117.5,-38.5"/>
<text text-anchor="middle" x="168" y="-45.5" font-family="Helvetica,sans-Serif" font-size="10.00" fill="#000000">PDI_multi_expose</text>
</a>
</g>
</g>
<!-- Node44&#45;&gt;Node46 -->
<g id="edge2" class="edge">
<title>Node44&#45;&gt;Node46</title>
<path fill="none" stroke="#191970" d="M84.4908,-48C95.0643,-48 106.3167,-48 117.0238,-48"/>
<polygon fill="#191970" stroke="#191970" points="84.189,-44.5001 74.1889,-48 84.1889,-51.5001 84.189,-44.5001"/>
</g>
<!-- Node47 -->
<g id="node4" class="node">
<title>Node47</title>
<g id="a_node4"><a xlink:href="pdi_8cxx.html#aec4ebe672273ed893952e34bc408ba73" target="_top" xlink:title="PDI_transaction_end">
<polygon fill="#ffffff" stroke="#000000" points="110,-.5 110,-19.5 226,-19.5 226,-.5 110,-.5"/>
<text text-anchor="middle" x="168" y="-7.5" font-family="Helvetica,sans-Serif" font-size="10.00" fill="#000000">PDI_transaction_end</text>
</a>
</g>
</g>
<!-- Node44&#45;&gt;Node47 -->
<g id="edge3" class="edge">
<title>Node44&#45;&gt;Node47</title>
<path fill="none" stroke="#191970" d="M79.7148,-35.6094C97.6547,-30.4055 118.1996,-24.4459 134.9537,-19.5859"/>
<polygon fill="#191970" stroke="#191970" points="78.6858,-32.2636 70.0568,-38.411 80.636,-38.9864 78.6858,-32.2636"/>
</g>
</g>
</svg>
