<?xml version="1.0" encoding="UTF-8" standalone="no"?>
<!DOCTYPE svg PUBLIC "-//W3C//DTD SVG 1.1//EN"
 "http://www.w3.org/Graphics/SVG/1.1/DTD/svg11.dtd">
<!-- Generated by graphviz version 2.40.1 (20161225.0304)
 -->
<!-- Title: PDI_event Pages: 1 -->
<svg width="350pt" height="102pt"
 viewBox="0.00 0.00 350.00 101.50" xmlns="http://www.w3.org/2000/svg" xmlns:xlink="http://www.w3.org/1999/xlink">
<g id="graph0" class="graph" transform="scale(1 1) rotate(0) translate(4 97.5)">
<title>PDI_event</title>
<polygon fill="#ffffff" stroke="transparent" points="-4,4 -4,-97.5 346,-97.5 346,4 -4,4"/>
<!-- Node9 -->
<g id="node1" class="node">
<title>Node9</title>
<polygon fill="#bfbfbf" stroke="#000000" points="0,-43.5 0,-62.5 66,-62.5 66,-43.5 0,-43.5"/>
<text text-anchor="middle" x="33" y="-50.5" font-family="Helvetica,sans-Serif" font-size="10.00" fill="#000000">PDI_event</text>
</g>
<!-- Node10 -->
<g id="node2" class="node">
<title>Node10</title>
<g id="a_node2"><a xlink:href="classPDI_1_1Global__context.html#a9de4e403f6919016c6a8a26fd82a9b94" target="_top" xlink:title="PDI::Global_context\l::context">
<polygon fill="#ffffff" stroke="#000000" points="102,-63 102,-93 211,-93 211,-63 102,-63"/>
<text text-anchor="start" x="110" y="-81" font-family="Helvetica,sans-Serif" font-size="10.00" fill="#000000">PDI::Global_context</text>
<text text-anchor="middle" x="156.5" y="-70" font-family="Helvetica,sans-Serif" font-size="10.00" fill="#000000">::context</text>
</a>
</g>
</g>
<!-- Node9&#45;&gt;Node10 -->
<g id="edge1" class="edge">
<title>Node9&#45;&gt;Node10</title>
<path fill="none" stroke="#191970" d="M66.0957,-59.6995C74.0903,-61.3179 82.9082,-63.1029 91.8077,-64.9044"/>
<polygon fill="#191970" stroke="#191970" points="91.3551,-68.3837 101.8508,-66.9374 92.744,-61.5229 91.3551,-68.3837"/>
</g>
<!-- Node11 -->
<g id="node3" class="node">
<title>Node11</title>
<g id="a_node3"><a xlink:href="classPDI_1_1Global__context.html#a1ce31d6999286d62b4954260354740ba" target="_top" xlink:title="PDI::Global_context\l::event">
<polygon fill="#ffffff" stroke="#000000" points="102,-14 102,-44 211,-44 211,-14 102,-14"/>
<text text-anchor="start" x="110" y="-32" font-family="Helvetica,sans-Serif" font-size="10.00" fill="#000000">PDI::Global_context</text>
<text text-anchor="middle" x="156.5" y="-21" font-family="Helvetica,sans-Serif" font-size="10.00" fill="#000000">::event</text>
</a>
</g>
</g>
<!-- Node9&#45;&gt;Node11 -->
<g id="edge2" class="edge">
<title>Node9&#45;&gt;Node11</title>
<path fill="none" stroke="#191970" d="M66.0957,-46.5684C74.0903,-45.0148 82.9082,-43.3012 91.8077,-41.5718"/>
<polygon fill="#191970" stroke="#191970" points="92.7021,-44.9635 101.8508,-39.6201 91.3667,-38.0921 92.7021,-44.9635"/>
</g>
<!-- Node12 -->
<g id="node4" class="node">
<title>Node12</title>
<g id="a_node4"><a xlink:href="classPDI_1_1Error.html#a96f2da1344848f7862d6d4227ba7c82a" target="_top" xlink:title="PDI::Error::status">
<polygon fill="#ffffff" stroke="#000000" points="247,-38.5 247,-57.5 342,-57.5 342,-38.5 247,-38.5"/>
<text text-anchor="middle" x="294.5" y="-45.5" font-family="Helvetica,sans-Serif" font-size="10.00" fill="#000000">PDI::Error::status</text>
</a>
</g>
</g>
<!-- Node11&#45;&gt;Node12 -->
<g id="edge3" class="edge">
<title>Node11&#45;&gt;Node12</title>
<path fill="none" stroke="#191970" d="M211.0413,-36.5093C219.3968,-37.6597 228.0485,-38.8509 236.476,-40.0112"/>
<polygon fill="#191970" stroke="#191970" points="236.2255,-43.5096 246.6095,-41.4064 237.1804,-36.5751 236.2255,-43.5096"/>
</g>
<!-- Node13 -->
<g id="node5" class="node">
<title>Node13</title>
<g id="a_node5"><a xlink:href="classPDI_1_1Error.html#aca3b34b8350235c8455bfe56236c4454" target="_top" xlink:title="PDI::Error::what">
<polygon fill="#ffffff" stroke="#000000" points="250,-.5 250,-19.5 339,-19.5 339,-.5 250,-.5"/>
<text text-anchor="middle" x="294.5" y="-7.5" font-family="Helvetica,sans-Serif" font-size="10.00" fill="#000000">PDI::Error::what</text>
</a>
</g>
</g>
<!-- Node11&#45;&gt;Node13 -->
<g id="edge4" class="edge">
<title>Node11&#45;&gt;Node13</title>
<path fill="none" stroke="#191970" d="M211.0413,-21.4907C220.4468,-20.1957 230.2276,-18.8491 239.6415,-17.553"/>
<polygon fill="#191970" stroke="#191970" points="240.2483,-21.0025 249.6775,-16.1712 239.2935,-14.068 240.2483,-21.0025"/>
</g>
</g>
</svg>
