<?xml version="1.0" encoding="UTF-8" standalone="no"?>
<!DOCTYPE svg PUBLIC "-//W3C//DTD SVG 1.1//EN"
 "http://www.w3.org/Graphics/SVG/1.1/DTD/svg11.dtd">
<!-- Generated by graphviz version 2.40.1 (20161225.0304)
 -->
<!-- Title: PDI_access Pages: 1 -->
<svg width="248pt" height="127pt"
 viewBox="0.00 0.00 248.00 126.50" xmlns="http://www.w3.org/2000/svg" xmlns:xlink="http://www.w3.org/1999/xlink">
<g id="graph0" class="graph" transform="scale(1 1) rotate(0) translate(4 122.5)">
<title>PDI_access</title>
<polygon fill="#ffffff" stroke="transparent" points="-4,4 -4,-122.5 244,-122.5 244,4 -4,4"/>
<!-- Node0 -->
<g id="node1" class="node">
<title>Node0</title>
<polygon fill="#bfbfbf" stroke="#000000" points="0,-44.5 0,-63.5 73,-63.5 73,-44.5 0,-44.5"/>
<text text-anchor="middle" x="36.5" y="-51.5" font-family="Helvetica,sans-Serif" font-size="10.00" fill="#000000">PDI_access</text>
</g>
<!-- Node1 -->
<g id="node2" class="node">
<title>Node1</title>
<g id="a_node2"><a xlink:href="classPDI_1_1Global__context.html#a9de4e403f6919016c6a8a26fd82a9b94" target="_top" xlink:title="PDI::Global_context\l::context">
<polygon fill="#ffffff" stroke="#000000" points="120,-88 120,-118 229,-118 229,-88 120,-88"/>
<text text-anchor="start" x="128" y="-106" font-family="Helvetica,sans-Serif" font-size="10.00" fill="#000000">PDI::Global_context</text>
<text text-anchor="middle" x="174.5" y="-95" font-family="Helvetica,sans-Serif" font-size="10.00" fill="#000000">::context</text>
</a>
</g>
</g>
<!-- Node0&#45;&gt;Node1 -->
<g id="edge1" class="edge">
<title>Node0&#45;&gt;Node1</title>
<path fill="none" stroke="#191970" d="M63.4354,-63.564C80.22,-69.5238 102.3747,-77.3903 122.4789,-84.5287"/>
<polygon fill="#191970" stroke="#191970" points="121.5563,-87.9152 132.151,-87.963 123.8986,-81.3187 121.5563,-87.9152"/>
</g>
<!-- Node2 -->
<g id="node3" class="node">
<title>Node2</title>
<g id="a_node3"><a xlink:href="classPDI_1_1Data__descriptor.html#a76adf3a628997299a690852078ffe9d3" target="_top" xlink:title="PDI::Data_descriptor\l::share">
<polygon fill="#ffffff" stroke="#000000" points="117.5,-39 117.5,-69 231.5,-69 231.5,-39 117.5,-39"/>
<text text-anchor="start" x="125.5" y="-57" font-family="Helvetica,sans-Serif" font-size="10.00" fill="#000000">PDI::Data_descriptor</text>
<text text-anchor="middle" x="174.5" y="-46" font-family="Helvetica,sans-Serif" font-size="10.00" fill="#000000">::share</text>
</a>
</g>
</g>
<!-- Node0&#45;&gt;Node2 -->
<g id="edge2" class="edge">
<title>Node0&#45;&gt;Node2</title>
<path fill="none" stroke="#191970" d="M73.1192,-54C83.6182,-54 95.4108,-54 107.1401,-54"/>
<polygon fill="#191970" stroke="#191970" points="107.3974,-57.5001 117.3973,-54 107.3973,-50.5001 107.3974,-57.5001"/>
</g>
<!-- Node3 -->
<g id="node4" class="node">
<title>Node3</title>
<g id="a_node4"><a xlink:href="classPDI_1_1Data__descriptor.html#a658635bdd5a35a34024586a297b7909f" target="_top" xlink:title="PDI::Data_descriptor::ref">
<polygon fill="#ffffff" stroke="#000000" points="109,-.5 109,-19.5 240,-19.5 240,-.5 109,-.5"/>
<text text-anchor="middle" x="174.5" y="-7.5" font-family="Helvetica,sans-Serif" font-size="10.00" fill="#000000">PDI::Data_descriptor::ref</text>
</a>
</g>
</g>
<!-- Node0&#45;&gt;Node3 -->
<g id="edge3" class="edge">
<title>Node0&#45;&gt;Node3</title>
<path fill="none" stroke="#191970" d="M65.0303,-44.385C78.3643,-39.9351 94.4703,-34.6225 109,-30 116.8134,-27.5142 125.1703,-24.9164 133.2109,-22.4472"/>
<polygon fill="#191970" stroke="#191970" points="134.2636,-25.7854 142.804,-19.5154 132.2176,-19.091 134.2636,-25.7854"/>
</g>
</g>
</svg>
