<?xml version="1.0" encoding="UTF-8" standalone="no"?>
<!DOCTYPE svg PUBLIC "-//W3C//DTD SVG 1.1//EN"
 "http://www.w3.org/Graphics/SVG/1.1/DTD/svg11.dtd">
<!-- Generated by graphviz version 2.40.1 (20161225.0304)
 -->
<!-- Title: PDI_transaction_end Pages: 1 -->
<svg width="510pt" height="102pt"
 viewBox="0.00 0.00 510.00 101.50" xmlns="http://www.w3.org/2000/svg" xmlns:xlink="http://www.w3.org/1999/xlink">
<g id="graph0" class="graph" transform="scale(1 1) rotate(0) translate(4 97.5)">
<title>PDI_transaction_end</title>
<polygon fill="#ffffff" stroke="transparent" points="-4,4 -4,-97.5 506,-97.5 506,4 -4,4"/>
<!-- Node58 -->
<g id="node1" class="node">
<title>Node58</title>
<polygon fill="#bfbfbf" stroke="#000000" points="0,-49.5 0,-68.5 116,-68.5 116,-49.5 0,-49.5"/>
<text text-anchor="middle" x="58" y="-56.5" font-family="Helvetica,sans-Serif" font-size="10.00" fill="#000000">PDI_transaction_end</text>
</g>
<!-- Node59 -->
<g id="node2" class="node">
<title>Node59</title>
<g id="a_node2"><a xlink:href="pdi_8cxx.html#af047cf4c39c3e80684372feb273cc06d" target="_top" xlink:title="PDI_event">
<polygon fill="#ffffff" stroke="#000000" points="156,-30.5 156,-49.5 222,-49.5 222,-30.5 156,-30.5"/>
<text text-anchor="middle" x="189" y="-37.5" font-family="Helvetica,sans-Serif" font-size="10.00" fill="#000000">PDI_event</text>
</a>
</g>
</g>
<!-- Node58&#45;&gt;Node59 -->
<g id="edge1" class="edge">
<title>Node58&#45;&gt;Node59</title>
<path fill="none" stroke="#191970" d="M116.2214,-50.5557C126.1575,-49.1146 136.3199,-47.6406 145.7786,-46.2687"/>
<polygon fill="#191970" stroke="#191970" points="146.3281,-49.7258 155.7222,-44.8266 145.3233,-42.7982 146.3281,-49.7258"/>
</g>
<!-- Node64 -->
<g id="node7" class="node">
<title>Node64</title>
<g id="a_node7"><a xlink:href="pdi_8cxx.html#abf58b7c146cbf7e3341245f60cec0f7e" target="_top" xlink:title="PDI_reclaim">
<polygon fill="#ffffff" stroke="#000000" points="152,-68.5 152,-87.5 226,-87.5 226,-68.5 152,-68.5"/>
<text text-anchor="middle" x="189" y="-75.5" font-family="Helvetica,sans-Serif" font-size="10.00" fill="#000000">PDI_reclaim</text>
</a>
</g>
</g>
<!-- Node58&#45;&gt;Node64 -->
<g id="edge6" class="edge">
<title>Node58&#45;&gt;Node64</title>
<path fill="none" stroke="#191970" d="M116.2214,-67.4443C124.6777,-68.6708 133.2979,-69.9211 141.5087,-71.1119"/>
<polygon fill="#191970" stroke="#191970" points="141.2481,-74.6107 151.6469,-72.5824 142.2529,-67.6832 141.2481,-74.6107"/>
</g>
<!-- Node60 -->
<g id="node3" class="node">
<title>Node60</title>
<g id="a_node3"><a xlink:href="classPDI_1_1Global__context.html#a9de4e403f6919016c6a8a26fd82a9b94" target="_top" xlink:title="PDI::Global_context\l::context">
<polygon fill="#ffffff" stroke="#000000" points="262,-63 262,-93 371,-93 371,-63 262,-63"/>
<text text-anchor="start" x="270" y="-81" font-family="Helvetica,sans-Serif" font-size="10.00" fill="#000000">PDI::Global_context</text>
<text text-anchor="middle" x="316.5" y="-70" font-family="Helvetica,sans-Serif" font-size="10.00" fill="#000000">::context</text>
</a>
</g>
</g>
<!-- Node59&#45;&gt;Node60 -->
<g id="edge2" class="edge">
<title>Node59&#45;&gt;Node60</title>
<path fill="none" stroke="#191970" d="M221.1736,-49.589C231.8843,-52.7812 244.1858,-56.4475 256.3148,-60.0625"/>
<polygon fill="#191970" stroke="#191970" points="255.3882,-63.4384 265.9713,-62.9405 257.3876,-56.73 255.3882,-63.4384"/>
</g>
<!-- Node61 -->
<g id="node4" class="node">
<title>Node61</title>
<g id="a_node4"><a xlink:href="classPDI_1_1Global__context.html#a1ce31d6999286d62b4954260354740ba" target="_top" xlink:title="PDI::Global_context\l::event">
<polygon fill="#ffffff" stroke="#000000" points="262,-14 262,-44 371,-44 371,-14 262,-14"/>
<text text-anchor="start" x="270" y="-32" font-family="Helvetica,sans-Serif" font-size="10.00" fill="#000000">PDI::Global_context</text>
<text text-anchor="middle" x="316.5" y="-21" font-family="Helvetica,sans-Serif" font-size="10.00" fill="#000000">::event</text>
</a>
</g>
</g>
<!-- Node59&#45;&gt;Node61 -->
<g id="edge3" class="edge">
<title>Node59&#45;&gt;Node61</title>
<path fill="none" stroke="#191970" d="M222.1663,-37.1386C231.2418,-36.3556 241.401,-35.4791 251.5995,-34.5993"/>
<polygon fill="#191970" stroke="#191970" points="252.1103,-38.0683 261.7725,-33.7216 251.5086,-31.0942 252.1103,-38.0683"/>
</g>
<!-- Node62 -->
<g id="node5" class="node">
<title>Node62</title>
<g id="a_node5"><a xlink:href="classPDI_1_1Error.html#a96f2da1344848f7862d6d4227ba7c82a" target="_top" xlink:title="PDI::Error::status">
<polygon fill="#ffffff" stroke="#000000" points="407,-38.5 407,-57.5 502,-57.5 502,-38.5 407,-38.5"/>
<text text-anchor="middle" x="454.5" y="-45.5" font-family="Helvetica,sans-Serif" font-size="10.00" fill="#000000">PDI::Error::status</text>
</a>
</g>
</g>
<!-- Node61&#45;&gt;Node62 -->
<g id="edge4" class="edge">
<title>Node61&#45;&gt;Node62</title>
<path fill="none" stroke="#191970" d="M371.0413,-36.5093C379.3968,-37.6597 388.0485,-38.8509 396.476,-40.0112"/>
<polygon fill="#191970" stroke="#191970" points="396.2255,-43.5096 406.6095,-41.4064 397.1804,-36.5751 396.2255,-43.5096"/>
</g>
<!-- Node63 -->
<g id="node6" class="node">
<title>Node63</title>
<g id="a_node6"><a xlink:href="classPDI_1_1Error.html#aca3b34b8350235c8455bfe56236c4454" target="_top" xlink:title="PDI::Error::what">
<polygon fill="#ffffff" stroke="#000000" points="410,-.5 410,-19.5 499,-19.5 499,-.5 410,-.5"/>
<text text-anchor="middle" x="454.5" y="-7.5" font-family="Helvetica,sans-Serif" font-size="10.00" fill="#000000">PDI::Error::what</text>
</a>
</g>
</g>
<!-- Node61&#45;&gt;Node63 -->
<g id="edge5" class="edge">
<title>Node61&#45;&gt;Node63</title>
<path fill="none" stroke="#191970" d="M371.0413,-21.4907C380.4468,-20.1957 390.2276,-18.8491 399.6415,-17.553"/>
<polygon fill="#191970" stroke="#191970" points="400.2483,-21.0025 409.6775,-16.1712 399.2935,-14.068 400.2483,-21.0025"/>
</g>
<!-- Node64&#45;&gt;Node60 -->
<g id="edge7" class="edge">
<title>Node64&#45;&gt;Node60</title>
<path fill="none" stroke="#191970" d="M226.221,-78C234.2512,-78 242.9649,-78 251.7048,-78"/>
<polygon fill="#191970" stroke="#191970" points="251.9373,-81.5001 261.9373,-78 251.9372,-74.5001 251.9373,-81.5001"/>
</g>
</g>
</svg>
