<?xml version="1.0" encoding="UTF-8" standalone="no"?>
<!DOCTYPE svg PUBLIC "-//W3C//DTD SVG 1.1//EN"
 "http://www.w3.org/Graphics/SVG/1.1/DTD/svg11.dtd">
<!-- Generated by graphviz version 2.40.1 (20161225.0304)
 -->
<!-- Title: PDI_multi_expose Pages: 1 -->
<svg width="495pt" height="128pt"
 viewBox="0.00 0.00 495.00 128.00" xmlns="http://www.w3.org/2000/svg" xmlns:xlink="http://www.w3.org/1999/xlink">
<g id="graph0" class="graph" transform="scale(1 1) rotate(0) translate(4 124)">
<title>PDI_multi_expose</title>
<polygon fill="#ffffff" stroke="transparent" points="-4,4 -4,-124 491,-124 491,4 -4,4"/>
<!-- Node33 -->
<g id="node1" class="node">
<title>Node33</title>
<polygon fill="#bfbfbf" stroke="#000000" points="0,-62.5 0,-81.5 101,-81.5 101,-62.5 0,-62.5"/>
<text text-anchor="middle" x="50.5" y="-69.5" font-family="Helvetica,sans-Serif" font-size="10.00" fill="#000000">PDI_multi_expose</text>
</g>
<!-- Node34 -->
<g id="node2" class="node">
<title>Node34</title>
<g id="a_node2"><a xlink:href="pdi_8cxx.html#a1e7bd53812b4bc1f2708d0c6176aae29" target="_top" xlink:title="PDI_share">
<polygon fill="#ffffff" stroke="#000000" points="140.5,-100.5 140.5,-119.5 207.5,-119.5 207.5,-100.5 140.5,-100.5"/>
<text text-anchor="middle" x="174" y="-107.5" font-family="Helvetica,sans-Serif" font-size="10.00" fill="#000000">PDI_share</text>
</a>
</g>
</g>
<!-- Node33&#45;&gt;Node34 -->
<g id="edge1" class="edge">
<title>Node33&#45;&gt;Node34</title>
<path fill="none" stroke="#191970" d="M81.6643,-81.589C97.3144,-86.4044 116.4712,-92.2988 133.271,-97.468"/>
<polygon fill="#191970" stroke="#191970" points="132.2586,-100.8184 142.8457,-100.4141 134.3172,-94.1279 132.2586,-100.8184"/>
</g>
<!-- Node36 -->
<g id="node4" class="node">
<title>Node36</title>
<g id="a_node4"><a xlink:href="pdi_8cxx.html#af047cf4c39c3e80684372feb273cc06d" target="_top" xlink:title="PDI_event">
<polygon fill="#ffffff" stroke="#000000" points="141,-24.5 141,-43.5 207,-43.5 207,-24.5 141,-24.5"/>
<text text-anchor="middle" x="174" y="-31.5" font-family="Helvetica,sans-Serif" font-size="10.00" fill="#000000">PDI_event</text>
</a>
</g>
</g>
<!-- Node33&#45;&gt;Node36 -->
<g id="edge3" class="edge">
<title>Node33&#45;&gt;Node36</title>
<path fill="none" stroke="#191970" d="M81.6643,-62.411C97.3144,-57.5956 116.4712,-51.7012 133.271,-46.532"/>
<polygon fill="#191970" stroke="#191970" points="134.3172,-49.8721 142.8457,-43.5859 132.2586,-43.1816 134.3172,-49.8721"/>
</g>
<!-- Node40 -->
<g id="node8" class="node">
<title>Node40</title>
<g id="a_node8"><a xlink:href="pdi_8cxx.html#abf58b7c146cbf7e3341245f60cec0f7e" target="_top" xlink:title="PDI_reclaim">
<polygon fill="#ffffff" stroke="#000000" points="137,-62.5 137,-81.5 211,-81.5 211,-62.5 137,-62.5"/>
<text text-anchor="middle" x="174" y="-69.5" font-family="Helvetica,sans-Serif" font-size="10.00" fill="#000000">PDI_reclaim</text>
</a>
</g>
</g>
<!-- Node33&#45;&gt;Node40 -->
<g id="edge8" class="edge">
<title>Node33&#45;&gt;Node40</title>
<path fill="none" stroke="#191970" d="M101.0885,-72C109.613,-72 118.431,-72 126.8633,-72"/>
<polygon fill="#191970" stroke="#191970" points="126.912,-75.5001 136.9119,-72 126.9119,-68.5001 126.912,-75.5001"/>
</g>
<!-- Node35 -->
<g id="node3" class="node">
<title>Node35</title>
<g id="a_node3"><a xlink:href="classPDI_1_1Global__context.html#a9de4e403f6919016c6a8a26fd82a9b94" target="_top" xlink:title="PDI::Global_context\l::context">
<polygon fill="#ffffff" stroke="#000000" points="247,-63 247,-93 356,-93 356,-63 247,-63"/>
<text text-anchor="start" x="255" y="-81" font-family="Helvetica,sans-Serif" font-size="10.00" fill="#000000">PDI::Global_context</text>
<text text-anchor="middle" x="301.5" y="-70" font-family="Helvetica,sans-Serif" font-size="10.00" fill="#000000">::context</text>
</a>
</g>
</g>
<!-- Node34&#45;&gt;Node35 -->
<g id="edge2" class="edge">
<title>Node34&#45;&gt;Node35</title>
<path fill="none" stroke="#191970" d="M207.8329,-101.5086C216.7965,-99.2589 226.7806,-96.7531 236.7961,-94.2394"/>
<polygon fill="#191970" stroke="#191970" points="237.9383,-97.5614 246.7855,-91.7323 236.2343,-90.7719 237.9383,-97.5614"/>
</g>
<!-- Node36&#45;&gt;Node35 -->
<g id="edge4" class="edge">
<title>Node36&#45;&gt;Node35</title>
<path fill="none" stroke="#191970" d="M201.6656,-43.5473C215.2516,-48.2358 232.0978,-54.0494 248.0584,-59.5574"/>
<polygon fill="#191970" stroke="#191970" points="247.2499,-62.9809 257.8447,-62.9346 249.5335,-56.3638 247.2499,-62.9809"/>
</g>
<!-- Node37 -->
<g id="node5" class="node">
<title>Node37</title>
<g id="a_node5"><a xlink:href="classPDI_1_1Global__context.html#a1ce31d6999286d62b4954260354740ba" target="_top" xlink:title="PDI::Global_context\l::event">
<polygon fill="#ffffff" stroke="#000000" points="247,-14 247,-44 356,-44 356,-14 247,-14"/>
<text text-anchor="start" x="255" y="-32" font-family="Helvetica,sans-Serif" font-size="10.00" fill="#000000">PDI::Global_context</text>
<text text-anchor="middle" x="301.5" y="-21" font-family="Helvetica,sans-Serif" font-size="10.00" fill="#000000">::event</text>
</a>
</g>
</g>
<!-- Node36&#45;&gt;Node37 -->
<g id="edge5" class="edge">
<title>Node36&#45;&gt;Node37</title>
<path fill="none" stroke="#191970" d="M207.1663,-32.6994C216.2418,-32.3435 226.401,-31.9451 236.5995,-31.5451"/>
<polygon fill="#191970" stroke="#191970" points="236.9173,-35.0354 246.7725,-31.1462 236.643,-28.0408 236.9173,-35.0354"/>
</g>
<!-- Node38 -->
<g id="node6" class="node">
<title>Node38</title>
<g id="a_node6"><a xlink:href="classPDI_1_1Error.html#a96f2da1344848f7862d6d4227ba7c82a" target="_top" xlink:title="PDI::Error::status">
<polygon fill="#ffffff" stroke="#000000" points="392,-38.5 392,-57.5 487,-57.5 487,-38.5 392,-38.5"/>
<text text-anchor="middle" x="439.5" y="-45.5" font-family="Helvetica,sans-Serif" font-size="10.00" fill="#000000">PDI::Error::status</text>
</a>
</g>
</g>
<!-- Node37&#45;&gt;Node38 -->
<g id="edge6" class="edge">
<title>Node37&#45;&gt;Node38</title>
<path fill="none" stroke="#191970" d="M356.0413,-36.5093C364.3968,-37.6597 373.0485,-38.8509 381.476,-40.0112"/>
<polygon fill="#191970" stroke="#191970" points="381.2255,-43.5096 391.6095,-41.4064 382.1804,-36.5751 381.2255,-43.5096"/>
</g>
<!-- Node39 -->
<g id="node7" class="node">
<title>Node39</title>
<g id="a_node7"><a xlink:href="classPDI_1_1Error.html#aca3b34b8350235c8455bfe56236c4454" target="_top" xlink:title="PDI::Error::what">
<polygon fill="#ffffff" stroke="#000000" points="395,-.5 395,-19.5 484,-19.5 484,-.5 395,-.5"/>
<text text-anchor="middle" x="439.5" y="-7.5" font-family="Helvetica,sans-Serif" font-size="10.00" fill="#000000">PDI::Error::what</text>
</a>
</g>
</g>
<!-- Node37&#45;&gt;Node39 -->
<g id="edge7" class="edge">
<title>Node37&#45;&gt;Node39</title>
<path fill="none" stroke="#191970" d="M356.0413,-21.4907C365.4468,-20.1957 375.2276,-18.8491 384.6415,-17.553"/>
<polygon fill="#191970" stroke="#191970" points="385.2483,-21.0025 394.6775,-16.1712 384.2935,-14.068 385.2483,-21.0025"/>
</g>
<!-- Node40&#45;&gt;Node35 -->
<g id="edge9" class="edge">
<title>Node40&#45;&gt;Node35</title>
<path fill="none" stroke="#191970" d="M211.221,-73.7516C219.2512,-74.1295 227.9649,-74.5395 236.7048,-74.9508"/>
<polygon fill="#191970" stroke="#191970" points="236.7838,-78.4583 246.9373,-75.4323 237.1129,-71.4661 236.7838,-78.4583"/>
</g>
</g>
</svg>
