<?xml version="1.0" encoding="UTF-8" standalone="no"?>
<!DOCTYPE svg PUBLIC "-//W3C//DTD SVG 1.1//EN"
 "http://www.w3.org/Graphics/SVG/1.1/DTD/svg11.dtd">
<!-- Generated by graphviz version 2.40.1 (20161225.0304)
 -->
<!-- Title: PDI_expose Pages: 1 -->
<svg width="337pt" height="66pt"
 viewBox="0.00 0.00 337.00 66.00" xmlns="http://www.w3.org/2000/svg" xmlns:xlink="http://www.w3.org/1999/xlink">
<g id="graph0" class="graph" transform="scale(1 1) rotate(0) translate(4 62)">
<title>PDI_expose</title>
<polygon fill="#ffffff" stroke="transparent" points="-4,4 -4,-62 333,-62 333,4 -4,4"/>
<!-- Node17 -->
<g id="node1" class="node">
<title>Node17</title>
<polygon fill="#bfbfbf" stroke="#000000" points="0,-19.5 0,-38.5 74,-38.5 74,-19.5 0,-19.5"/>
<text text-anchor="middle" x="37" y="-26.5" font-family="Helvetica,sans-Serif" font-size="10.00" fill="#000000">PDI_expose</text>
</g>
<!-- Node18 -->
<g id="node2" class="node">
<title>Node18</title>
<g id="a_node2"><a xlink:href="pdi_8cxx.html#a1e7bd53812b4bc1f2708d0c6176aae29" target="_top" xlink:title="PDI_share">
<polygon fill="#ffffff" stroke="#000000" points="113.5,-38.5 113.5,-57.5 180.5,-57.5 180.5,-38.5 113.5,-38.5"/>
<text text-anchor="middle" x="147" y="-45.5" font-family="Helvetica,sans-Serif" font-size="10.00" fill="#000000">PDI_share</text>
</a>
</g>
</g>
<!-- Node17&#45;&gt;Node18 -->
<g id="edge1" class="edge">
<title>Node17&#45;&gt;Node18</title>
<path fill="none" stroke="#191970" d="M74.241,-35.4325C83.6778,-37.0625 93.896,-38.8275 103.6082,-40.5051"/>
<polygon fill="#191970" stroke="#191970" points="103.0424,-43.9591 113.4922,-42.2123 104.2339,-37.0612 103.0424,-43.9591"/>
</g>
<!-- Node20 -->
<g id="node4" class="node">
<title>Node20</title>
<g id="a_node4"><a xlink:href="pdi_8cxx.html#abf58b7c146cbf7e3341245f60cec0f7e" target="_top" xlink:title="PDI_reclaim">
<polygon fill="#ffffff" stroke="#000000" points="110,-.5 110,-19.5 184,-19.5 184,-.5 110,-.5"/>
<text text-anchor="middle" x="147" y="-7.5" font-family="Helvetica,sans-Serif" font-size="10.00" fill="#000000">PDI_reclaim</text>
</a>
</g>
</g>
<!-- Node17&#45;&gt;Node20 -->
<g id="edge3" class="edge">
<title>Node17&#45;&gt;Node20</title>
<path fill="none" stroke="#191970" d="M74.241,-22.5675C82.4838,-21.1437 91.3229,-19.617 99.9001,-18.1354"/>
<polygon fill="#191970" stroke="#191970" points="100.539,-21.577 109.7974,-16.4259 99.3475,-14.6791 100.539,-21.577"/>
</g>
<!-- Node19 -->
<g id="node3" class="node">
<title>Node19</title>
<g id="a_node3"><a xlink:href="classPDI_1_1Global__context.html#a9de4e403f6919016c6a8a26fd82a9b94" target="_top" xlink:title="PDI::Global_context\l::context">
<polygon fill="#ffffff" stroke="#000000" points="220,-14 220,-44 329,-44 329,-14 220,-14"/>
<text text-anchor="start" x="228" y="-32" font-family="Helvetica,sans-Serif" font-size="10.00" fill="#000000">PDI::Global_context</text>
<text text-anchor="middle" x="274.5" y="-21" font-family="Helvetica,sans-Serif" font-size="10.00" fill="#000000">::context</text>
</a>
</g>
</g>
<!-- Node18&#45;&gt;Node19 -->
<g id="edge2" class="edge">
<title>Node18&#45;&gt;Node19</title>
<path fill="none" stroke="#191970" d="M180.8329,-42.9582C189.7965,-41.6225 199.7806,-40.1347 209.7961,-38.6421"/>
<polygon fill="#191970" stroke="#191970" points="210.4106,-42.0893 219.7855,-37.1535 209.3788,-35.1658 210.4106,-42.0893"/>
</g>
<!-- Node20&#45;&gt;Node19 -->
<g id="edge4" class="edge">
<title>Node20&#45;&gt;Node19</title>
<path fill="none" stroke="#191970" d="M184.221,-15.5467C192.3385,-16.7563 201.1544,-18.0701 209.9898,-19.3867"/>
<polygon fill="#191970" stroke="#191970" points="209.5306,-22.8569 219.9373,-20.8691 210.5624,-15.9333 209.5306,-22.8569"/>
</g>
</g>
</svg>
