<?xml version="1.0" encoding="UTF-8" standalone="no"?>
<!DOCTYPE svg PUBLIC "-//W3C//DTD SVG 1.1//EN"
 "http://www.w3.org/Graphics/SVG/1.1/DTD/svg11.dtd">
<!-- Generated by graphviz version 2.40.1 (20161225.0304)
 -->
<!-- Title: /home/jbigot/data/projects/pdi/pdi/include/pdi/plugin.h Pages: 1 -->
<svg width="299pt" height="319pt"
 viewBox="0.00 0.00 298.50 319.00" xmlns="http://www.w3.org/2000/svg" xmlns:xlink="http://www.w3.org/1999/xlink">
<g id="graph0" class="graph" transform="scale(1 1) rotate(0) translate(4 315)">
<title>/home/jbigot/data/projects/pdi/pdi/include/pdi/plugin.h</title>
<polygon fill="#ffffff" stroke="transparent" points="-4,4 -4,-315 294.5,-315 294.5,4 -4,4"/>
<!-- Node0 -->
<g id="node1" class="node">
<title>Node0</title>
<polygon fill="#bfbfbf" stroke="#000000" points="50.5,-280.5 50.5,-310.5 193.5,-310.5 193.5,-280.5 50.5,-280.5"/>
<text text-anchor="start" x="58.5" y="-298.5" font-family="Helvetica,sans-Serif" font-size="10.00" fill="#000000">/home/jbigot/data/projects</text>
<text text-anchor="middle" x="122" y="-287.5" font-family="Helvetica,sans-Serif" font-size="10.00" fill="#000000">/pdi/pdi/include/pdi/plugin.h</text>
</g>
<!-- Node1 -->
<g id="node2" class="node">
<title>Node1</title>
<g id="a_node2"><a xlink:href="logger_8h.html" target="_top" xlink:title="pdi/logger.h">
<polygon fill="#ffffff" stroke="#000000" points="118,-224.5 118,-243.5 190,-243.5 190,-224.5 118,-224.5"/>
<text text-anchor="middle" x="154" y="-231.5" font-family="Helvetica,sans-Serif" font-size="10.00" fill="#000000">pdi/logger.h</text>
</a>
</g>
</g>
<!-- Node0&#45;&gt;Node1 -->
<g id="edge1" class="edge">
<title>Node0&#45;&gt;Node1</title>
<path fill="none" stroke="#191970" d="M129.9101,-280.2977C134.2132,-272.0277 139.5758,-261.7215 144.1482,-252.9339"/>
<polygon fill="#191970" stroke="#191970" points="147.3654,-254.3335 148.8764,-243.8469 141.1557,-251.1024 147.3654,-254.3335"/>
</g>
<!-- Node2 -->
<g id="node3" class="node">
<title>Node2</title>
<g id="a_node3"><a xlink:href="pdi__fwd_8h.html" target="_top" xlink:title="pdi/pdi_fwd.h">
<polygon fill="#ffffff" stroke="#000000" points="88.5,-112.5 88.5,-131.5 167.5,-131.5 167.5,-112.5 88.5,-112.5"/>
<text text-anchor="middle" x="128" y="-119.5" font-family="Helvetica,sans-Serif" font-size="10.00" fill="#000000">pdi/pdi_fwd.h</text>
</a>
</g>
</g>
<!-- Node0&#45;&gt;Node2 -->
<g id="edge12" class="edge">
<title>Node0&#45;&gt;Node2</title>
<path fill="none" stroke="#191970" d="M117.128,-280.3647C114.1188,-270.2023 110.5465,-256.4454 109,-244 104.4841,-207.6593 114.4566,-165.4911 121.5915,-141.4566"/>
<polygon fill="#191970" stroke="#191970" points="124.9746,-142.3643 124.6078,-131.7758 118.2915,-140.2819 124.9746,-142.3643"/>
</g>
<!-- Node1&#45;&gt;Node2 -->
<g id="edge2" class="edge">
<title>Node1&#45;&gt;Node2</title>
<path fill="none" stroke="#191970" d="M151.7833,-224.4509C147.5235,-206.1013 138.1193,-165.5908 132.4965,-141.3693"/>
<polygon fill="#191970" stroke="#191970" points="135.8818,-140.4744 130.2111,-131.5249 129.0632,-142.0573 135.8818,-140.4744"/>
</g>
<!-- Node8 -->
<g id="node9" class="node">
<title>Node8</title>
<g id="a_node9"><a xlink:href="paraconf__wrapper_8h.html" target="_top" xlink:title="pdi/paraconf_wrapper.h">
<polygon fill="#ffffff" stroke="#000000" points="156.5,-168.5 156.5,-187.5 285.5,-187.5 285.5,-168.5 156.5,-168.5"/>
<text text-anchor="middle" x="221" y="-175.5" font-family="Helvetica,sans-Serif" font-size="10.00" fill="#000000">pdi/paraconf_wrapper.h</text>
</a>
</g>
</g>
<!-- Node1&#45;&gt;Node8 -->
<g id="edge8" class="edge">
<title>Node1&#45;&gt;Node8</title>
<path fill="none" stroke="#191970" d="M165.6705,-224.2455C175.5661,-215.9746 189.9627,-203.9416 201.5901,-194.2232"/>
<polygon fill="#191970" stroke="#191970" points="204.035,-196.7413 209.4632,-187.6427 199.5458,-191.3703 204.035,-196.7413"/>
</g>
<!-- Node3 -->
<g id="node4" class="node">
<title>Node3</title>
<polygon fill="#ffffff" stroke="#bfbfbf" points="37,-56.5 37,-75.5 91,-75.5 91,-56.5 37,-56.5"/>
<text text-anchor="middle" x="64" y="-63.5" font-family="Helvetica,sans-Serif" font-size="10.00" fill="#000000">memory</text>
</g>
<!-- Node2&#45;&gt;Node3 -->
<g id="edge3" class="edge">
<title>Node2&#45;&gt;Node3</title>
<path fill="none" stroke="#191970" d="M116.8521,-112.2455C107.4913,-104.0549 93.9142,-92.1749 82.8651,-82.5069"/>
<polygon fill="#191970" stroke="#191970" points="84.8508,-79.5937 75.0202,-75.6427 80.2412,-84.8618 84.8508,-79.5937"/>
</g>
<!-- Node4 -->
<g id="node5" class="node">
<title>Node4</title>
<g id="a_node5"><a xlink:href="pdi_8h.html" target="_top" xlink:title="pdi.h">
<polygon fill="#ffffff" stroke="#000000" points="109.5,-56.5 109.5,-75.5 148.5,-75.5 148.5,-56.5 109.5,-56.5"/>
<text text-anchor="middle" x="129" y="-63.5" font-family="Helvetica,sans-Serif" font-size="10.00" fill="#000000">pdi.h</text>
</a>
</g>
</g>
<!-- Node2&#45;&gt;Node4 -->
<g id="edge4" class="edge">
<title>Node2&#45;&gt;Node4</title>
<path fill="none" stroke="#191970" d="M128.1742,-112.2455C128.3047,-104.9382 128.4876,-94.6944 128.6481,-85.7046"/>
<polygon fill="#191970" stroke="#191970" points="132.1486,-85.7036 128.8278,-75.6427 125.1497,-85.5786 132.1486,-85.7036"/>
</g>
<!-- Node5 -->
<g id="node6" class="node">
<title>Node5</title>
<polygon fill="#ffffff" stroke="#bfbfbf" points="185.5,-.5 185.5,-19.5 252.5,-19.5 252.5,-.5 185.5,-.5"/>
<text text-anchor="middle" x="219" y="-7.5" font-family="Helvetica,sans-Serif" font-size="10.00" fill="#000000">paraconf.h</text>
</g>
<!-- Node4&#45;&gt;Node5 -->
<g id="edge5" class="edge">
<title>Node4&#45;&gt;Node5</title>
<path fill="none" stroke="#191970" d="M144.6768,-56.2455C158.4856,-47.6534 178.8193,-35.0014 194.7292,-25.1018"/>
<polygon fill="#191970" stroke="#191970" points="196.8613,-27.8974 203.5028,-19.6427 193.1632,-21.954 196.8613,-27.8974"/>
</g>
<!-- Node6 -->
<g id="node7" class="node">
<title>Node6</title>
<polygon fill="#ffffff" stroke="#bfbfbf" points="0,-.5 0,-19.5 72,-19.5 72,-.5 0,-.5"/>
<text text-anchor="middle" x="36" y="-7.5" font-family="Helvetica,sans-Serif" font-size="10.00" fill="#000000">pdi/export.h</text>
</g>
<!-- Node4&#45;&gt;Node6 -->
<g id="edge6" class="edge">
<title>Node4&#45;&gt;Node6</title>
<path fill="none" stroke="#191970" d="M112.8006,-56.2455C98.3982,-47.5731 77.1268,-34.7645 60.6201,-24.825"/>
<polygon fill="#191970" stroke="#191970" points="62.386,-21.8028 52.0137,-19.6427 58.775,-27.7996 62.386,-21.8028"/>
</g>
<!-- Node7 -->
<g id="node8" class="node">
<title>Node7</title>
<polygon fill="#ffffff" stroke="#bfbfbf" points="90.5,-.5 90.5,-19.5 167.5,-19.5 167.5,-.5 90.5,-.5"/>
<text text-anchor="middle" x="129" y="-7.5" font-family="Helvetica,sans-Serif" font-size="10.00" fill="#000000">pdi/version.h</text>
</g>
<!-- Node4&#45;&gt;Node7 -->
<g id="edge7" class="edge">
<title>Node4&#45;&gt;Node7</title>
<path fill="none" stroke="#191970" d="M129,-56.2455C129,-48.9382 129,-38.6944 129,-29.7046"/>
<polygon fill="#191970" stroke="#191970" points="132.5001,-29.6426 129,-19.6427 125.5001,-29.6427 132.5001,-29.6426"/>
</g>
<!-- Node8&#45;&gt;Node2 -->
<g id="edge11" class="edge">
<title>Node8&#45;&gt;Node2</title>
<path fill="none" stroke="#191970" d="M204.8006,-168.2455C190.3982,-159.5731 169.1268,-146.7645 152.6201,-136.825"/>
<polygon fill="#191970" stroke="#191970" points="154.386,-133.8028 144.0137,-131.6427 150.775,-139.7996 154.386,-133.8028"/>
</g>
<!-- Node8&#45;&gt;Node5 -->
<g id="edge10" class="edge">
<title>Node8&#45;&gt;Node5</title>
<path fill="none" stroke="#191970" d="M220.8867,-168.4862C220.5706,-141.9293 219.6734,-66.5651 219.2401,-30.1655"/>
<polygon fill="#191970" stroke="#191970" points="222.7359,-29.7855 219.117,-19.8279 215.7364,-29.8689 222.7359,-29.7855"/>
</g>
<!-- Node9 -->
<g id="node10" class="node">
<title>Node9</title>
<polygon fill="#ffffff" stroke="#bfbfbf" points="247.5,-112.5 247.5,-131.5 290.5,-131.5 290.5,-112.5 247.5,-112.5"/>
<text text-anchor="middle" x="269" y="-119.5" font-family="Helvetica,sans-Serif" font-size="10.00" fill="#000000">string</text>
</g>
<!-- Node8&#45;&gt;Node9 -->
<g id="edge9" class="edge">
<title>Node8&#45;&gt;Node9</title>
<path fill="none" stroke="#191970" d="M229.361,-168.2455C236.175,-160.2958 245.9681,-148.8706 254.1152,-139.3656"/>
<polygon fill="#191970" stroke="#191970" points="256.8843,-141.513 260.7349,-131.6427 251.5695,-136.9575 256.8843,-141.513"/>
</g>
</g>
</svg>
