<?xml version="1.0" encoding="UTF-8" standalone="no"?>
<!DOCTYPE svg PUBLIC "-//W3C//DTD SVG 1.1//EN"
 "http://www.w3.org/Graphics/SVG/1.1/DTD/svg11.dtd">
<!-- Generated by graphviz version 2.40.1 (20161225.0304)
 -->
<!-- Title: /home/jbigot/data/projects/pdi/pdi/src/plugin.cxx Pages: 1 -->
<!--zoomable 599 -->
<svg id="main" version="1.1" xmlns="http://www.w3.org/2000/svg" xmlns:xlink="http://www.w3.org/1999/xlink" xml:space="preserve" onload="init(evt)">
<style type="text/css"><![CDATA[
.edge:hover path { stroke: red; }
.edge:hover polygon { stroke: red; fill: red; }
]]></style>
<script type="text/javascript"><![CDATA[
var edges = document.getElementsByTagName('g');
if (edges && edges.length) {
  for (var i=0;i<edges.length;i++) {
    if (edges[i].id.substr(0,4)=='edge') {
      edges[i].setAttribute('class','edge');
    }
  }
}
]]></script>
        <defs>
                <circle id="rim" cx="0" cy="0" r="7"/>
                <circle id="rim2" cx="0" cy="0" r="3.5"/>
                <g id="zoomPlus">
                        <use xlink:href="#rim" fill="#404040">
                                <set attributeName="fill" to="#808080" begin="zoomplus.mouseover" end="zoomplus.mouseout"/>
                        </use>
                        <path d="M-4,0h8M0,-4v8" fill="none" stroke="white" stroke-width="1.5" pointer-events="none"/>
                </g>
                <g id="zoomMin">
                        <use xlink:href="#rim" fill="#404040">
                                <set attributeName="fill" to="#808080" begin="zoomminus.mouseover" end="zoomminus.mouseout"/>
                        </use>
                        <path d="M-4,0h8" fill="none" stroke="white" stroke-width="1.5" pointer-events="none"/>
                </g>
                <g id="dirArrow">
                        <path fill="none" stroke="white" stroke-width="1.5" d="M0,-3.0v7 M-2.5,-0.5L0,-3.0L2.5,-0.5"/>
                </g>
               <g id="resetDef">
                       <use xlink:href="#rim2" fill="#404040">
                               <set attributeName="fill" to="#808080" begin="reset.mouseover" end="reset.mouseout"/>
                       </use>
               </g>
        </defs>

<script type="text/javascript">
var viewWidth = 886;
var viewHeight = 599;
var sectionId = 'dynsection-0';
</script>
<script xlink:href="svgpan.js"/>
<svg id="graph" class="graph">
<g id="viewport">
<title>/home/jbigot/data/projects/pdi/pdi/src/plugin.cxx</title>
<polygon fill="#ffffff" stroke="transparent" points="-4,4 -4,-595 881.5,-595 881.5,4 -4,4"/>
<!-- Node0 -->
<g id="node1" class="node">
<title>Node0</title>
<polygon fill="#bfbfbf" stroke="#000000" points="195.5,-560.5 195.5,-590.5 333.5,-590.5 333.5,-560.5 195.5,-560.5"/>
<text text-anchor="start" x="203.5" y="-578.5" font-family="Helvetica,sans-Serif" font-size="10.00" fill="#000000">/home/jbigot/data/projects</text>
<text text-anchor="middle" x="264.5" y="-567.5" font-family="Helvetica,sans-Serif" font-size="10.00" fill="#000000">/pdi/pdi/src/plugin.cxx</text>
</g>
<!-- Node1 -->
<g id="node2" class="node">
<title>Node1</title>
<polygon fill="#ffffff" stroke="#bfbfbf" points="0,-504.5 0,-523.5 53,-523.5 53,-504.5 0,-504.5"/>
<text text-anchor="middle" x="26.5" y="-511.5" font-family="Helvetica,sans-Serif" font-size="10.00" fill="#000000">config.h</text>
</g>
<!-- Node0&#45;&gt;Node1 -->
<g id="edge1" class="edge">
<title>Node0&#45;&gt;Node1</title>
<path fill="none" stroke="#191970" d="M206.2787,-560.4554C161.6232,-548.9163 101.3591,-533.3438 63.2078,-523.4854"/>
<polygon fill="#191970" stroke="#191970" points="63.6226,-519.9777 53.0649,-520.8645 61.8712,-526.7551 63.6226,-519.9777"/>
</g>
<!-- Node2 -->
<g id="node3" class="node">
<title>Node2</title>
<g id="a_node3"><a xlink:href="context_8h.html" target="_top" xlink:title="pdi/context.h">
<polygon fill="#ffffff" stroke="#000000" points="485,-504.5 485,-523.5 562,-523.5 562,-504.5 485,-504.5"/>
<text text-anchor="middle" x="523.5" y="-511.5" font-family="Helvetica,sans-Serif" font-size="10.00" fill="#000000">pdi/context.h</text>
</a>
</g>
</g>
<!-- Node0&#45;&gt;Node2 -->
<g id="edge2" class="edge">
<title>Node0&#45;&gt;Node2</title>
<path fill="none" stroke="#191970" d="M327.8585,-560.4554C373.2378,-549.68 433.429,-535.3875 475.0054,-525.5151"/>
<polygon fill="#191970" stroke="#191970" points="475.9704,-528.8834 484.8912,-523.1677 474.3531,-522.0728 475.9704,-528.8834"/>
</g>
<!-- Node19 -->
<g id="node20" class="node">
<title>Node19</title>
<g id="a_node20"><a xlink:href="ref__any_8h.html" target="_top" xlink:title="pdi/ref_any.h">
<polygon fill="#ffffff" stroke="#000000" points="421.5,-392.5 421.5,-411.5 499.5,-411.5 499.5,-392.5 421.5,-392.5"/>
<text text-anchor="middle" x="460.5" y="-399.5" font-family="Helvetica,sans-Serif" font-size="10.00" fill="#000000">pdi/ref_any.h</text>
</a>
</g>
</g>
<!-- Node0&#45;&gt;Node19 -->
<g id="edge46" class="edge">
<title>Node0&#45;&gt;Node19</title>
<path fill="none" stroke="#191970" d="M297.8788,-560.4009C334.0081,-542.6544 391.4181,-510.1931 428.5,-468 440.4239,-454.4325 448.9583,-435.6378 454.1987,-421.5737"/>
<polygon fill="#191970" stroke="#191970" points="457.582,-422.5006 457.5655,-411.9058 450.9714,-420.1984 457.582,-422.5006"/>
</g>
<!-- Node25 -->
<g id="node26" class="node">
<title>Node25</title>
<g id="a_node26"><a xlink:href="plugin_8h.html" target="_top" xlink:title="pdi/plugin.h">
<polygon fill="#ffffff" stroke="#000000" points="94.5,-280.5 94.5,-299.5 164.5,-299.5 164.5,-280.5 94.5,-280.5"/>
<text text-anchor="middle" x="129.5" y="-287.5" font-family="Helvetica,sans-Serif" font-size="10.00" fill="#000000">pdi/plugin.h</text>
</a>
</g>
</g>
<!-- Node0&#45;&gt;Node25 -->
<g id="edge47" class="edge">
<title>Node0&#45;&gt;Node25</title>
<path fill="none" stroke="#191970" d="M195.3155,-560.562C143.4931,-544.8312 81.5,-514.2565 81.5,-458 81.5,-458 81.5,-458 81.5,-402 81.5,-366.4341 102.2017,-329.2782 116.4145,-307.9597"/>
<polygon fill="#191970" stroke="#191970" points="119.3933,-309.8059 122.2098,-299.5923 113.6387,-305.8202 119.3933,-309.8059"/>
</g>
<!-- Node3 -->
<g id="node4" class="node">
<title>Node3</title>
<polygon fill="#ffffff" stroke="#bfbfbf" points="639.5,-336.5 639.5,-355.5 701.5,-355.5 701.5,-336.5 639.5,-336.5"/>
<text text-anchor="middle" x="670.5" y="-343.5" font-family="Helvetica,sans-Serif" font-size="10.00" fill="#000000">functional</text>
</g>
<!-- Node2&#45;&gt;Node3 -->
<g id="edge3" class="edge">
<title>Node2&#45;&gt;Node3</title>
<path fill="none" stroke="#191970" d="M525.346,-504.294C528.2817,-490.7207 535.0031,-465.7433 547.5,-448 574.051,-410.3024 617.9744,-378.5589 645.5194,-360.929"/>
<polygon fill="#191970" stroke="#191970" points="647.5664,-363.7768 654.1841,-355.503 643.8511,-357.8441 647.5664,-363.7768"/>
</g>
<!-- Node4 -->
<g id="node5" class="node">
<title>Node4</title>
<polygon fill="#ffffff" stroke="#bfbfbf" points="590,-448.5 590,-467.5 619,-467.5 619,-448.5 590,-448.5"/>
<text text-anchor="middle" x="604.5" y="-455.5" font-family="Helvetica,sans-Serif" font-size="10.00" fill="#000000">list</text>
</g>
<!-- Node2&#45;&gt;Node4 -->
<g id="edge4" class="edge">
<title>Node2&#45;&gt;Node4</title>
<path fill="none" stroke="#191970" d="M537.6091,-504.2455C549.9209,-495.7337 567.9958,-483.2375 582.2538,-473.3801"/>
<polygon fill="#191970" stroke="#191970" points="584.3174,-476.2085 590.5526,-467.6427 580.3366,-470.4506 584.3174,-476.2085"/>
</g>
<!-- Node5 -->
<g id="node6" class="node">
<title>Node5</title>
<polygon fill="#ffffff" stroke="#bfbfbf" points="584.5,-56.5 584.5,-75.5 638.5,-75.5 638.5,-56.5 584.5,-56.5"/>
<text text-anchor="middle" x="611.5" y="-63.5" font-family="Helvetica,sans-Serif" font-size="10.00" fill="#000000">memory</text>
</g>
<!-- Node2&#45;&gt;Node5 -->
<g id="edge5" class="edge">
<title>Node2&#45;&gt;Node5</title>
<path fill="none" stroke="#191970" d="M562.2118,-510.6758C629.9398,-504.3849 766.7959,-489.4229 809.5,-468 847.1454,-449.1148 877.5,-444.1168 877.5,-402 877.5,-402 877.5,-402 877.5,-178 877.5,-129.0476 722.5437,-89.5758 649.1703,-73.6294"/>
<polygon fill="#191970" stroke="#191970" points="649.4754,-70.1156 638.9648,-71.449 648.0128,-76.9611 649.4754,-70.1156"/>
</g>
<!-- Node6 -->
<g id="node7" class="node">
<title>Node6</title>
<polygon fill="#ffffff" stroke="#bfbfbf" points="637,-448.5 637,-467.5 678,-467.5 678,-448.5 637,-448.5"/>
<text text-anchor="middle" x="657.5" y="-455.5" font-family="Helvetica,sans-Serif" font-size="10.00" fill="#000000">stack</text>
</g>
<!-- Node2&#45;&gt;Node6 -->
<g id="edge6" class="edge">
<title>Node2&#45;&gt;Node6</title>
<path fill="none" stroke="#191970" d="M546.5354,-504.3733C568.8965,-495.0283 602.9552,-480.7949 627.4397,-470.5625"/>
<polygon fill="#191970" stroke="#191970" points="629.0819,-473.6696 636.959,-466.5843 626.3827,-467.2109 629.0819,-473.6696"/>
</g>
<!-- Node7 -->
<g id="node8" class="node">
<title>Node7</title>
<polygon fill="#ffffff" stroke="#bfbfbf" points="140,-112.5 140,-131.5 183,-131.5 183,-112.5 140,-112.5"/>
<text text-anchor="middle" x="161.5" y="-119.5" font-family="Helvetica,sans-Serif" font-size="10.00" fill="#000000">string</text>
</g>
<!-- Node2&#45;&gt;Node7 -->
<g id="edge7" class="edge">
<title>Node2&#45;&gt;Node7</title>
<path fill="none" stroke="#191970" d="M484.7879,-510.9229C417.0816,-505.024 280.3745,-490.6623 238.5,-468 149.6822,-419.9322 121.9587,-394.18 85.5,-300 64.3207,-245.2897 56.6936,-219.1074 85.5,-168 95.1225,-150.9281 113.9156,-139.4709 130.4055,-132.2605"/>
<polygon fill="#191970" stroke="#191970" points="131.7911,-135.4758 139.7615,-128.4956 129.1779,-128.9818 131.7911,-135.4758"/>
</g>
<!-- Node8 -->
<g id="node9" class="node">
<title>Node8</title>
<polygon fill="#ffffff" stroke="#bfbfbf" points="719.5,-336.5 719.5,-355.5 811.5,-355.5 811.5,-336.5 719.5,-336.5"/>
<text text-anchor="middle" x="765.5" y="-343.5" font-family="Helvetica,sans-Serif" font-size="10.00" fill="#000000">unordered_map</text>
</g>
<!-- Node2&#45;&gt;Node8 -->
<g id="edge8" class="edge">
<title>Node2&#45;&gt;Node8</title>
<path fill="none" stroke="#191970" d="M562.0848,-510.1196C632.6995,-502.6273 776.857,-485.3705 791.5,-468 816.6114,-438.2113 793.5876,-390.039 777.6818,-364.0333"/>
<polygon fill="#191970" stroke="#191970" points="780.5813,-362.0707 772.2461,-355.5303 774.6834,-365.841 780.5813,-362.0707"/>
</g>
<!-- Node9 -->
<g id="node10" class="node">
<title>Node9</title>
<polygon fill="#ffffff" stroke="#bfbfbf" points="696.5,-448.5 696.5,-467.5 782.5,-467.5 782.5,-448.5 696.5,-448.5"/>
<text text-anchor="middle" x="739.5" y="-455.5" font-family="Helvetica,sans-Serif" font-size="10.00" fill="#000000">unordered_set</text>
</g>
<!-- Node2&#45;&gt;Node9 -->
<g id="edge9" class="edge">
<title>Node2&#45;&gt;Node9</title>
<path fill="none" stroke="#191970" d="M560.6317,-504.3733C597.3267,-494.8598 653.5639,-480.2797 693.1651,-470.0127"/>
<polygon fill="#191970" stroke="#191970" points="694.0512,-473.3988 702.8528,-467.5011 692.2944,-466.6228 694.0512,-473.3988"/>
</g>
<!-- Node10 -->
<g id="node11" class="node">
<title>Node10</title>
<g id="a_node11"><a xlink:href="pdi__fwd_8h.html" target="_top" xlink:title="pdi/pdi_fwd.h">
<polygon fill="#ffffff" stroke="#000000" points="372,-112.5 372,-131.5 451,-131.5 451,-112.5 372,-112.5"/>
<text text-anchor="middle" x="411.5" y="-119.5" font-family="Helvetica,sans-Serif" font-size="10.00" fill="#000000">pdi/pdi_fwd.h</text>
</a>
</g>
</g>
<!-- Node2&#45;&gt;Node10 -->
<g id="edge10" class="edge">
<title>Node2&#45;&gt;Node10</title>
<path fill="none" stroke="#191970" d="M529.8441,-504.1539C539.4504,-489.9506 558.9733,-463.6988 581.5,-448 682.6608,-377.5015 839.5,-469.3027 839.5,-346 839.5,-346 839.5,-346 839.5,-234 839.5,-156.6315 574.4398,-131.6726 461.5008,-124.5495"/>
<polygon fill="#191970" stroke="#191970" points="461.5751,-121.0477 451.3809,-123.9335 461.1497,-128.0348 461.5751,-121.0477"/>
</g>
<!-- Node15 -->
<g id="node16" class="node">
<title>Node15</title>
<g id="a_node16"><a xlink:href="data__descriptor_8h.html" target="_top" xlink:title="pdi/data_descriptor.h">
<polygon fill="#ffffff" stroke="#000000" points="303.5,-448.5 303.5,-467.5 419.5,-467.5 419.5,-448.5 303.5,-448.5"/>
<text text-anchor="middle" x="361.5" y="-455.5" font-family="Helvetica,sans-Serif" font-size="10.00" fill="#000000">pdi/data_descriptor.h</text>
</a>
</g>
</g>
<!-- Node2&#45;&gt;Node15 -->
<g id="edge16" class="edge">
<title>Node2&#45;&gt;Node15</title>
<path fill="none" stroke="#191970" d="M495.6512,-504.3733C468.8297,-495.1016 428.0873,-481.0178 398.5402,-470.804"/>
<polygon fill="#191970" stroke="#191970" points="399.5802,-467.4603 388.9854,-467.5011 397.2931,-474.0762 399.5802,-467.4603"/>
</g>
<!-- Node16 -->
<g id="node17" class="node">
<title>Node16</title>
<g id="a_node17"><a xlink:href="datatype__template_8h.html" target="_top" xlink:title="pdi/datatype_template.h">
<polygon fill="#ffffff" stroke="#000000" points="229.5,-280.5 229.5,-299.5 359.5,-299.5 359.5,-280.5 229.5,-280.5"/>
<text text-anchor="middle" x="294.5" y="-287.5" font-family="Helvetica,sans-Serif" font-size="10.00" fill="#000000">pdi/datatype_template.h</text>
</a>
</g>
</g>
<!-- Node2&#45;&gt;Node16 -->
<g id="edge43" class="edge">
<title>Node2&#45;&gt;Node16</title>
<path fill="none" stroke="#191970" d="M484.8122,-510.5703C427.3748,-504.7724 323.2242,-491.3267 294.5,-468 246.0413,-428.6472 221.9989,-393.4159 246.5,-336 251.6156,-324.0122 261.5575,-313.6498 271.0727,-305.8114"/>
<polygon fill="#191970" stroke="#191970" points="273.3797,-308.4532 279.1926,-299.5954 269.1246,-302.8949 273.3797,-308.4532"/>
</g>
<!-- Node17 -->
<g id="node18" class="node">
<title>Node17</title>
<g id="a_node18"><a xlink:href="logger_8h.html" target="_top" xlink:title="pdi/logger.h">
<polygon fill="#ffffff" stroke="#000000" points="265.5,-224.5 265.5,-243.5 337.5,-243.5 337.5,-224.5 265.5,-224.5"/>
<text text-anchor="middle" x="301.5" y="-231.5" font-family="Helvetica,sans-Serif" font-size="10.00" fill="#000000">pdi/logger.h</text>
</a>
</g>
</g>
<!-- Node2&#45;&gt;Node17 -->
<g id="edge45" class="edge">
<title>Node2&#45;&gt;Node17</title>
<path fill="none" stroke="#191970" d="M484.817,-510.9382C422.2192,-505.3511 302.2185,-491.827 267.5,-468 196.4876,-419.2648 177.1713,-354.4346 220.5,-280 229.1239,-265.185 244.4934,-254.752 259.5438,-247.6123"/>
<polygon fill="#191970" stroke="#191970" points="261.0356,-250.7802 268.8103,-243.5826 258.2441,-244.3609 261.0356,-250.7802"/>
</g>
<!-- Node2&#45;&gt;Node19 -->
<g id="edge44" class="edge">
<title>Node2&#45;&gt;Node19</title>
<path fill="none" stroke="#191970" d="M518.1287,-504.4509C507.6675,-485.8533 484.4017,-444.4919 470.848,-420.3964"/>
<polygon fill="#191970" stroke="#191970" points="473.8109,-418.5247 465.8577,-411.5249 467.7099,-421.9566 473.8109,-418.5247"/>
</g>
<!-- Node10&#45;&gt;Node5 -->
<g id="edge11" class="edge">
<title>Node10&#45;&gt;Node5</title>
<path fill="none" stroke="#191970" d="M445.8812,-112.3733C481.7139,-102.3401 537.672,-86.6718 574.4627,-76.3704"/>
<polygon fill="#191970" stroke="#191970" points="575.6127,-79.6831 584.2986,-73.6164 573.7252,-72.9424 575.6127,-79.6831"/>
</g>
<!-- Node11 -->
<g id="node12" class="node">
<title>Node11</title>
<g id="a_node12"><a xlink:href="pdi_8h.html" target="_top" xlink:title="pdi.h">
<polygon fill="#ffffff" stroke="#000000" points="324,-56.5 324,-75.5 363,-75.5 363,-56.5 324,-56.5"/>
<text text-anchor="middle" x="343.5" y="-63.5" font-family="Helvetica,sans-Serif" font-size="10.00" fill="#000000">pdi.h</text>
</a>
</g>
</g>
<!-- Node10&#45;&gt;Node11 -->
<g id="edge12" class="edge">
<title>Node10&#45;&gt;Node11</title>
<path fill="none" stroke="#191970" d="M399.6553,-112.2455C389.612,-103.9746 375.0005,-91.9416 363.1996,-82.2232"/>
<polygon fill="#191970" stroke="#191970" points="365.1533,-79.298 355.209,-75.6427 360.7033,-84.7015 365.1533,-79.298"/>
</g>
<!-- Node12 -->
<g id="node13" class="node">
<title>Node12</title>
<polygon fill="#ffffff" stroke="#bfbfbf" points="78,-.5 78,-19.5 145,-19.5 145,-.5 78,-.5"/>
<text text-anchor="middle" x="111.5" y="-7.5" font-family="Helvetica,sans-Serif" font-size="10.00" fill="#000000">paraconf.h</text>
</g>
<!-- Node11&#45;&gt;Node12 -->
<g id="edge13" class="edge">
<title>Node11&#45;&gt;Node12</title>
<path fill="none" stroke="#191970" d="M323.7198,-61.2255C286.6092,-52.2677 205.7404,-32.7477 155.2391,-20.5577"/>
<polygon fill="#191970" stroke="#191970" points="155.8001,-17.0927 145.2581,-18.1485 154.1576,-23.8973 155.8001,-17.0927"/>
</g>
<!-- Node13 -->
<g id="node14" class="node">
<title>Node13</title>
<polygon fill="#ffffff" stroke="#bfbfbf" points="230.5,-.5 230.5,-19.5 302.5,-19.5 302.5,-.5 230.5,-.5"/>
<text text-anchor="middle" x="266.5" y="-7.5" font-family="Helvetica,sans-Serif" font-size="10.00" fill="#000000">pdi/export.h</text>
</g>
<!-- Node11&#45;&gt;Node13 -->
<g id="edge14" class="edge">
<title>Node11&#45;&gt;Node13</title>
<path fill="none" stroke="#191970" d="M330.0876,-56.2455C318.4943,-47.814 301.5252,-35.4729 288.0322,-25.6598"/>
<polygon fill="#191970" stroke="#191970" points="289.9047,-22.6938 279.7587,-19.6427 285.7874,-28.355 289.9047,-22.6938"/>
</g>
<!-- Node14 -->
<g id="node15" class="node">
<title>Node14</title>
<polygon fill="#ffffff" stroke="#bfbfbf" points="321,-.5 321,-19.5 398,-19.5 398,-.5 321,-.5"/>
<text text-anchor="middle" x="359.5" y="-7.5" font-family="Helvetica,sans-Serif" font-size="10.00" fill="#000000">pdi/version.h</text>
</g>
<!-- Node11&#45;&gt;Node14 -->
<g id="edge15" class="edge">
<title>Node11&#45;&gt;Node14</title>
<path fill="none" stroke="#191970" d="M346.287,-56.2455C348.3977,-48.8579 351.366,-38.4689 353.9547,-29.4087"/>
<polygon fill="#191970" stroke="#191970" points="357.363,-30.2195 356.745,-19.6427 350.6323,-28.2964 357.363,-30.2195"/>
</g>
<!-- Node15&#45;&gt;Node10 -->
<g id="edge18" class="edge">
<title>Node15&#45;&gt;Node10</title>
<path fill="none" stroke="#191970" d="M364.6128,-448.3369C375.5937,-413.625 412.4026,-291.7924 422.5,-188 423.3607,-179.1529 423.5408,-176.8277 422.5,-168 421.4571,-159.1546 419.3232,-149.5467 417.21,-141.4104"/>
<polygon fill="#191970" stroke="#191970" points="420.5772,-140.4548 414.5375,-131.7501 413.8306,-142.3213 420.5772,-140.4548"/>
</g>
<!-- Node15&#45;&gt;Node12 -->
<g id="edge17" class="edge">
<title>Node15&#45;&gt;Node12</title>
<path fill="none" stroke="#191970" d="M331.2216,-448.4797C275.0075,-429.3208 154.0151,-380.8917 85.5,-300 15.3816,-217.2154 36.3018,-155.9459 78.5,-56 82.7674,-45.8928 89.5875,-35.8539 95.9228,-27.7455"/>
<polygon fill="#191970" stroke="#191970" points="98.8146,-29.7395 102.4633,-19.7927 93.4081,-25.2931 98.8146,-29.7395"/>
</g>
<!-- Node15&#45;&gt;Node16 -->
<g id="edge19" class="edge">
<title>Node15&#45;&gt;Node16</title>
<path fill="none" stroke="#191970" d="M344.7201,-448.4209C319.3429,-432.8404 272.1822,-399.3415 253.5,-356 245.7781,-338.0856 259.8646,-319.3491 273.5842,-306.4362"/>
<polygon fill="#191970" stroke="#191970" points="276.228,-308.7738 281.4521,-299.5565 271.6202,-303.5042 276.228,-308.7738"/>
</g>
<!-- Node15&#45;&gt;Node19 -->
<g id="edge28" class="edge">
<title>Node15&#45;&gt;Node19</title>
<path fill="none" stroke="#191970" d="M378.7445,-448.2455C394.0761,-439.5731 416.7199,-426.7645 434.2916,-416.825"/>
<polygon fill="#191970" stroke="#191970" points="436.4724,-419.6126 443.4531,-411.6427 433.0259,-413.5198 436.4724,-419.6126"/>
</g>
<!-- Node16&#45;&gt;Node10 -->
<g id="edge21" class="edge">
<title>Node16&#45;&gt;Node10</title>
<path fill="none" stroke="#191970" d="M308.1025,-280.1715C319.3727,-271.5467 335.3005,-258.1933 346.5,-244 372.5159,-211.0295 393.3377,-166.1252 403.9095,-141.01"/>
<polygon fill="#191970" stroke="#191970" points="407.2332,-142.1302 407.798,-131.5504 400.7588,-139.4688 407.2332,-142.1302"/>
</g>
<!-- Node16&#45;&gt;Node12 -->
<g id="edge20" class="edge">
<title>Node16&#45;&gt;Node12</title>
<path fill="none" stroke="#191970" d="M240.9246,-280.3873C190.9893,-268.277 119.2985,-242.1037 85.5,-188 53.8742,-137.3743 83.966,-63.1216 101.2464,-28.7426"/>
<polygon fill="#191970" stroke="#191970" points="104.3954,-30.2733 105.9175,-19.7884 98.1891,-27.0357 104.3954,-30.2733"/>
</g>
<!-- Node16&#45;&gt;Node17 -->
<g id="edge22" class="edge">
<title>Node16&#45;&gt;Node17</title>
<path fill="none" stroke="#191970" d="M295.7193,-280.2455C296.6327,-272.9382 297.9132,-262.6944 299.0369,-253.7046"/>
<polygon fill="#191970" stroke="#191970" points="302.5272,-253.9996 300.2947,-243.6427 295.5813,-253.1313 302.5272,-253.9996"/>
</g>
<!-- Node17&#45;&gt;Node10 -->
<g id="edge23" class="edge">
<title>Node17&#45;&gt;Node10</title>
<path fill="none" stroke="#191970" d="M311.9515,-224.2837C321.7786,-215.0779 336.8316,-200.7953 349.5,-188 365.6214,-171.7171 383.4827,-152.5816 395.8771,-139.1197"/>
<polygon fill="#191970" stroke="#191970" points="398.6428,-141.2823 402.8234,-131.5472 393.4844,-136.5504 398.6428,-141.2823"/>
</g>
<!-- Node18 -->
<g id="node19" class="node">
<title>Node18</title>
<g id="a_node19"><a xlink:href="paraconf__wrapper_8h.html" target="_top" xlink:title="pdi/paraconf_wrapper.h">
<polygon fill="#ffffff" stroke="#000000" points="95,-168.5 95,-187.5 224,-187.5 224,-168.5 95,-168.5"/>
<text text-anchor="middle" x="159.5" y="-175.5" font-family="Helvetica,sans-Serif" font-size="10.00" fill="#000000">pdi/paraconf_wrapper.h</text>
</a>
</g>
</g>
<!-- Node17&#45;&gt;Node18 -->
<g id="edge24" class="edge">
<title>Node17&#45;&gt;Node18</title>
<path fill="none" stroke="#191970" d="M277.0893,-224.3733C253.8858,-215.2226 218.7962,-201.3844 192.9858,-191.2057"/>
<polygon fill="#191970" stroke="#191970" points="194.1789,-187.9139 183.5921,-187.5011 191.6108,-194.4258 194.1789,-187.9139"/>
</g>
<!-- Node18&#45;&gt;Node7 -->
<g id="edge25" class="edge">
<title>Node18&#45;&gt;Node7</title>
<path fill="none" stroke="#191970" d="M159.8484,-168.2455C160.1093,-160.9382 160.4752,-150.6944 160.7963,-141.7046"/>
<polygon fill="#191970" stroke="#191970" points="164.2964,-141.7613 161.1556,-131.6427 157.3008,-141.5113 164.2964,-141.7613"/>
</g>
<!-- Node18&#45;&gt;Node10 -->
<g id="edge27" class="edge">
<title>Node18&#45;&gt;Node10</title>
<path fill="none" stroke="#191970" d="M202.534,-168.4369C246.8002,-158.6 315.6599,-143.2978 362.1176,-132.9739"/>
<polygon fill="#191970" stroke="#191970" points="362.9612,-136.3719 371.9637,-130.7858 361.4426,-129.5386 362.9612,-136.3719"/>
</g>
<!-- Node18&#45;&gt;Node12 -->
<g id="edge26" class="edge">
<title>Node18&#45;&gt;Node12</title>
<path fill="none" stroke="#191970" d="M151.7867,-168.3954C145.0594,-159.4953 135.6011,-145.6144 130.5,-132 117.5792,-97.5158 113.4436,-54.3737 112.1208,-29.7231"/>
<polygon fill="#191970" stroke="#191970" points="115.6081,-29.3503 111.6803,-19.5104 108.6146,-29.652 115.6081,-29.3503"/>
</g>
<!-- Node19&#45;&gt;Node3 -->
<g id="edge30" class="edge">
<title>Node19&#45;&gt;Node3</title>
<path fill="none" stroke="#191970" d="M496.6003,-392.3733C533.5242,-382.5269 590.8004,-367.2532 629.4328,-356.9513"/>
<polygon fill="#191970" stroke="#191970" points="630.5545,-360.2745 639.3151,-354.316 628.7509,-353.5109 630.5545,-360.2745"/>
</g>
<!-- Node19&#45;&gt;Node5 -->
<g id="edge31" class="edge">
<title>Node19&#45;&gt;Node5</title>
<path fill="none" stroke="#191970" d="M499.6739,-393.2561C523.4788,-386.3482 553.2716,-374.6822 574.5,-356 599.7445,-333.7834 611.5,-323.6283 611.5,-290 611.5,-290 611.5,-290 611.5,-178 611.5,-145.7116 611.5,-108.1872 611.5,-85.8048"/>
<polygon fill="#191970" stroke="#191970" points="615.0001,-85.5883 611.5,-75.5884 608.0001,-85.5884 615.0001,-85.5883"/>
</g>
<!-- Node19&#45;&gt;Node8 -->
<g id="edge33" class="edge">
<title>Node19&#45;&gt;Node8</title>
<path fill="none" stroke="#191970" d="M499.749,-394.7936C552.981,-385.0199 648.3891,-367.5023 709.2351,-356.3306"/>
<polygon fill="#191970" stroke="#191970" points="710.2297,-359.7066 719.4332,-354.4582 708.9656,-352.8217 710.2297,-359.7066"/>
</g>
<!-- Node19&#45;&gt;Node10 -->
<g id="edge34" class="edge">
<title>Node19&#45;&gt;Node10</title>
<path fill="none" stroke="#191970" d="M496.2903,-392.3628C516.0537,-385.3171 539.5537,-373.8171 554.5,-356 574.1177,-332.6141 573.5,-320.5246 573.5,-290 573.5,-290 573.5,-290 573.5,-234 573.5,-178.6161 508.644,-148.4795 461.0046,-133.8134"/>
<polygon fill="#191970" stroke="#191970" points="461.7106,-130.3731 451.1297,-130.9152 459.7392,-137.0898 461.7106,-130.3731"/>
</g>
<!-- Node20 -->
<g id="node21" class="node">
<title>Node20</title>
<polygon fill="#ffffff" stroke="#bfbfbf" points="440,-336.5 440,-355.5 491,-355.5 491,-336.5 440,-336.5"/>
<text text-anchor="middle" x="465.5" y="-343.5" font-family="Helvetica,sans-Serif" font-size="10.00" fill="#000000">cassert</text>
</g>
<!-- Node19&#45;&gt;Node20 -->
<g id="edge29" class="edge">
<title>Node19&#45;&gt;Node20</title>
<path fill="none" stroke="#191970" d="M461.3709,-392.2455C462.0234,-384.9382 462.938,-374.6944 463.7407,-365.7046"/>
<polygon fill="#191970" stroke="#191970" points="467.2358,-365.9143 464.639,-355.6427 460.2635,-365.2918 467.2358,-365.9143"/>
</g>
<!-- Node21 -->
<g id="node22" class="node">
<title>Node21</title>
<polygon fill="#ffffff" stroke="#bfbfbf" points="509.5,-336.5 509.5,-355.5 545.5,-355.5 545.5,-336.5 509.5,-336.5"/>
<text text-anchor="middle" x="527.5" y="-343.5" font-family="Helvetica,sans-Serif" font-size="10.00" fill="#000000">new</text>
</g>
<!-- Node19&#45;&gt;Node21 -->
<g id="edge32" class="edge">
<title>Node19&#45;&gt;Node21</title>
<path fill="none" stroke="#191970" d="M472.1705,-392.2455C482.0661,-383.9746 496.4627,-371.9416 508.0901,-362.2232"/>
<polygon fill="#191970" stroke="#191970" points="510.535,-364.7413 515.9632,-355.6427 506.0458,-359.3703 510.535,-364.7413"/>
</g>
<!-- Node22 -->
<g id="node23" class="node">
<title>Node22</title>
<g id="a_node23"><a xlink:href="datatype_8h.html" target="_top" xlink:title="pdi/datatype.h">
<polygon fill="#ffffff" stroke="#000000" points="262,-336.5 262,-355.5 345,-355.5 345,-336.5 262,-336.5"/>
<text text-anchor="middle" x="303.5" y="-343.5" font-family="Helvetica,sans-Serif" font-size="10.00" fill="#000000">pdi/datatype.h</text>
</a>
</g>
</g>
<!-- Node19&#45;&gt;Node22 -->
<g id="edge35" class="edge">
<title>Node19&#45;&gt;Node22</title>
<path fill="none" stroke="#191970" d="M433.5107,-392.3733C407.6301,-383.1419 368.3752,-369.1402 339.7711,-358.9375"/>
<polygon fill="#191970" stroke="#191970" points="340.7317,-355.5642 330.1371,-355.5011 338.38,-362.1573 340.7317,-355.5642"/>
</g>
<!-- Node23 -->
<g id="node24" class="node">
<title>Node23</title>
<g id="a_node24"><a xlink:href="error_8h.html" target="_top" xlink:title="pdi/error.h">
<polygon fill="#ffffff" stroke="#000000" points="242,-168.5 242,-187.5 307,-187.5 307,-168.5 242,-168.5"/>
<text text-anchor="middle" x="274.5" y="-175.5" font-family="Helvetica,sans-Serif" font-size="10.00" fill="#000000">pdi/error.h</text>
</a>
</g>
</g>
<!-- Node19&#45;&gt;Node23 -->
<g id="edge38" class="edge">
<title>Node19&#45;&gt;Node23</title>
<path fill="none" stroke="#191970" d="M454.4257,-392.3934C431.3253,-355.8752 350.0618,-227.5579 346.5,-224 333.845,-211.359 317.1368,-200.4205 303.0017,-192.3853"/>
<polygon fill="#191970" stroke="#191970" points="304.6045,-189.2725 294.153,-187.5355 301.2401,-195.411 304.6045,-189.2725"/>
</g>
<!-- Node22&#45;&gt;Node10 -->
<g id="edge36" class="edge">
<title>Node22&#45;&gt;Node10</title>
<path fill="none" stroke="#191970" d="M323.631,-336.452C338.1258,-328.5918 357.0679,-316.1287 368.5,-300 403.1861,-251.0642 410.1012,-177.5758 411.3393,-142.3056"/>
<polygon fill="#191970" stroke="#191970" points="414.8475,-141.9765 411.5734,-131.9003 407.8492,-141.819 414.8475,-141.9765"/>
</g>
<!-- Node22&#45;&gt;Node16 -->
<g id="edge37" class="edge">
<title>Node22&#45;&gt;Node16</title>
<path fill="none" stroke="#191970" d="M301.9323,-336.2455C300.7579,-328.9382 299.1116,-318.6944 297.6668,-309.7046"/>
<polygon fill="#191970" stroke="#191970" points="301.0922,-308.9606 296.0497,-299.6427 294.1809,-310.0714 301.0922,-308.9606"/>
</g>
<!-- Node23&#45;&gt;Node7 -->
<g id="edge40" class="edge">
<title>Node23&#45;&gt;Node7</title>
<path fill="none" stroke="#191970" d="M255.0746,-168.3733C237.0979,-159.4644 210.1559,-146.1127 189.791,-136.0203"/>
<polygon fill="#191970" stroke="#191970" points="191.1861,-132.8055 180.6719,-131.5011 188.0778,-139.0776 191.1861,-132.8055"/>
</g>
<!-- Node23&#45;&gt;Node10 -->
<g id="edge42" class="edge">
<title>Node23&#45;&gt;Node10</title>
<path fill="none" stroke="#191970" d="M298.0511,-168.3733C320.3391,-159.2629 353.9937,-145.5062 378.8637,-135.3404"/>
<polygon fill="#191970" stroke="#191970" points="380.3239,-138.5247 388.2562,-131.5011 377.6753,-132.0451 380.3239,-138.5247"/>
</g>
<!-- Node23&#45;&gt;Node12 -->
<g id="edge41" class="edge">
<title>Node23&#45;&gt;Node12</title>
<path fill="none" stroke="#191970" d="M265.2694,-168.4862C238.8336,-141.2396 162.5512,-62.6172 128.3915,-27.4096"/>
<polygon fill="#191970" stroke="#191970" points="130.5109,-24.5678 121.0354,-19.8279 125.4869,-29.4422 130.5109,-24.5678"/>
</g>
<!-- Node24 -->
<g id="node25" class="node">
<title>Node24</title>
<polygon fill="#ffffff" stroke="#bfbfbf" points="243.5,-112.5 243.5,-131.5 305.5,-131.5 305.5,-112.5 243.5,-112.5"/>
<text text-anchor="middle" x="274.5" y="-119.5" font-family="Helvetica,sans-Serif" font-size="10.00" fill="#000000">exception</text>
</g>
<!-- Node23&#45;&gt;Node24 -->
<g id="edge39" class="edge">
<title>Node23&#45;&gt;Node24</title>
<path fill="none" stroke="#191970" d="M274.5,-168.2455C274.5,-160.9382 274.5,-150.6944 274.5,-141.7046"/>
<polygon fill="#191970" stroke="#191970" points="278.0001,-141.6426 274.5,-131.6427 271.0001,-141.6427 278.0001,-141.6426"/>
</g>
<!-- Node25&#45;&gt;Node10 -->
<g id="edge49" class="edge">
<title>Node25&#45;&gt;Node10</title>
<path fill="none" stroke="#191970" d="M148.7297,-280.382C183.0575,-263.0219 256.8762,-224.8241 316.5,-188 342.6085,-171.8752 371.3948,-151.4861 390.3608,-137.6679"/>
<polygon fill="#191970" stroke="#191970" points="392.5876,-140.3753 398.5832,-131.6402 388.4489,-134.7298 392.5876,-140.3753"/>
</g>
<!-- Node25&#45;&gt;Node17 -->
<g id="edge48" class="edge">
<title>Node25&#45;&gt;Node17</title>
<path fill="none" stroke="#191970" d="M159.0679,-280.3733C187.6688,-271.0613 231.1788,-256.8953 262.5819,-246.671"/>
<polygon fill="#191970" stroke="#191970" points="263.8928,-249.9251 272.318,-243.5011 261.7257,-243.269 263.8928,-249.9251"/>
</g>
</g>
</svg>
        <g id="navigator" transform="translate(0 0)" fill="#404254">
                <rect fill="#f2f5e9" fill-opacity="0.5" stroke="#606060" stroke-width=".5" x="0" y="0" width="60" height="60"/>
                <use id="zoomplus" xlink:href="#zoomPlus" x="17" y="9" onmousedown="handleZoom(evt,'in')"/>
                <use id="zoomminus" xlink:href="#zoomMin" x="42" y="9" onmousedown="handleZoom(evt,'out')"/>
                <use id="reset" xlink:href="#resetDef" x="30" y="36" onmousedown="handleReset()"/>
                <g id="arrowUp" xlink:href="#dirArrow" transform="translate(30 24)" onmousedown="handlePan(0,-1)">
                  <use xlink:href="#rim" fill="#404040">
                        <set attributeName="fill" to="#808080" begin="arrowUp.mouseover" end="arrowUp.mouseout"/>
                  </use>
                  <path fill="none" stroke="white" stroke-width="1.5" d="M0,-3.0v7 M-2.5,-0.5L0,-3.0L2.5,-0.5"/>
                </g>
                <g id="arrowRight" xlink:href="#dirArrow" transform="rotate(90) translate(36 -43)" onmousedown="handlePan(1,0)">
                  <use xlink:href="#rim" fill="#404040">
                        <set attributeName="fill" to="#808080" begin="arrowRight.mouseover" end="arrowRight.mouseout"/>
                  </use>
                  <path fill="none" stroke="white" stroke-width="1.5" d="M0,-3.0v7 M-2.5,-0.5L0,-3.0L2.5,-0.5"/>
                </g>
                <g id="arrowDown" xlink:href="#dirArrow" transform="rotate(180) translate(-30 -48)" onmousedown="handlePan(0,1)">
                  <use xlink:href="#rim" fill="#404040">
                        <set attributeName="fill" to="#808080" begin="arrowDown.mouseover" end="arrowDown.mouseout"/>
                  </use>
                  <path fill="none" stroke="white" stroke-width="1.5" d="M0,-3.0v7 M-2.5,-0.5L0,-3.0L2.5,-0.5"/>
                </g>
                <g id="arrowLeft" xlink:href="#dirArrow" transform="rotate(270) translate(-36 17)" onmousedown="handlePan(-1,0)">
                  <use xlink:href="#rim" fill="#404040">
                        <set attributeName="fill" to="#808080" begin="arrowLeft.mouseover" end="arrowLeft.mouseout"/>
                  </use>
                  <path fill="none" stroke="white" stroke-width="1.5" d="M0,-3.0v7 M-2.5,-0.5L0,-3.0L2.5,-0.5"/>
                </g>
        </g>
        <svg viewBox="0 0 15 15" width="100%" height="30px" preserveAspectRatio="xMaxYMin meet">
         <g id="arrow_out" transform="scale(0.3 0.3)">
          <a xlink:href="plugin_8cxx__incl_org.svg" target="_base">
           <rect id="button" ry="5" rx="5" y="6" x="6" height="38" width="38"
                fill="#f2f5e9" fill-opacity="0.5" stroke="#606060" stroke-width="1.0"/>
           <path id="arrow"
             d="M 11.500037,31.436501 C 11.940474,20.09759 22.043105,11.32322 32.158766,21.979434 L 37.068811,17.246167 C 37.068811,17.246167 37.088388,32 37.088388,32 L 22.160133,31.978069 C 22.160133,31.978069 26.997745,27.140456 26.997745,27.140456 C 18.528582,18.264221 13.291696,25.230495 11.500037,31.436501 z"
             style="fill:#404040;"/>
          </a>
         </g>
        </svg>
</svg>
