<?xml version="1.0" encoding="UTF-8" standalone="no"?>
<!DOCTYPE svg PUBLIC "-//W3C//DTD SVG 1.1//EN"
 "http://www.w3.org/Graphics/SVG/1.1/DTD/svg11.dtd">
<!-- Generated by graphviz version 2.40.1 (20161225.0304)
 -->
<!-- Title: PYBIND11_MODULE Pages: 1 -->
<svg width="438pt" height="340pt"
 viewBox="0.00 0.00 438.00 340.00" xmlns="http://www.w3.org/2000/svg" xmlns:xlink="http://www.w3.org/1999/xlink">
<g id="graph0" class="graph" transform="scale(1 1) rotate(0) translate(4 336)">
<title>PYBIND11_MODULE</title>
<polygon fill="#ffffff" stroke="transparent" points="-4,4 -4,-336 434,-336 434,4 -4,4"/>
<!-- Node0 -->
<g id="node1" class="node">
<title>Node0</title>
<polygon fill="#bfbfbf" stroke="#000000" points="0,-148 0,-167 118,-167 118,-148 0,-148"/>
<text text-anchor="middle" x="59" y="-155" font-family="Helvetica,sans-Serif" font-size="10.00" fill="#000000">PYBIND11_MODULE</text>
</g>
<!-- Node1 -->
<g id="node2" class="node">
<title>Node1</title>
<g id="a_node2"><a xlink:href="classPDI_1_1Error.html#aca3b34b8350235c8455bfe56236c4454" target="_top" xlink:title="PDI::Error::what">
<polygon fill="#ffffff" stroke="#000000" points="331,-236 331,-255 420,-255 420,-236 331,-236"/>
<text text-anchor="middle" x="375.5" y="-243" font-family="Helvetica,sans-Serif" font-size="10.00" fill="#000000">PDI::Error::what</text>
</a>
</g>
</g>
<!-- Node0&#45;&gt;Node1 -->
<g id="edge1" class="edge">
<title>Node0&#45;&gt;Node1</title>
<path fill="none" stroke="#191970" d="M64.8217,-167.2971C77.7559,-187.9709 111.1541,-235.6211 154,-253.5 211.9417,-277.6781 286.0008,-267.787 332.0963,-257.433"/>
<polygon fill="#191970" stroke="#191970" points="333.123,-260.7871 342.056,-255.0903 331.5202,-253.973 333.123,-260.7871"/>
</g>
<!-- Node2 -->
<g id="node3" class="node">
<title>Node2</title>
<g id="a_node3"><a xlink:href="classPDI_1_1Global__context.html#a20281f105cdf8d2b5002e89b3b076b3a" target="_top" xlink:title="PDI::Global_context\l::init">
<polygon fill="#ffffff" stroke="#000000" points="165,-301.5 165,-331.5 274,-331.5 274,-301.5 165,-301.5"/>
<text text-anchor="start" x="173" y="-319.5" font-family="Helvetica,sans-Serif" font-size="10.00" fill="#000000">PDI::Global_context</text>
<text text-anchor="middle" x="219.5" y="-308.5" font-family="Helvetica,sans-Serif" font-size="10.00" fill="#000000">::init</text>
</a>
</g>
</g>
<!-- Node0&#45;&gt;Node2 -->
<g id="edge2" class="edge">
<title>Node0&#45;&gt;Node2</title>
<path fill="none" stroke="#191970" d="M63.897,-167.2174C76.1262,-190.6343 110.1954,-250.8761 154,-286.5 158.6002,-290.2411 163.7427,-293.6254 169.0691,-296.6567"/>
<polygon fill="#191970" stroke="#191970" points="167.6628,-299.8715 178.1431,-301.4257 170.9195,-293.6752 167.6628,-299.8715"/>
</g>
<!-- Node4 -->
<g id="node5" class="node">
<title>Node4</title>
<g id="a_node5"><a xlink:href="classPDI_1_1Global__context.html#a9de4e403f6919016c6a8a26fd82a9b94" target="_top" xlink:title="PDI::Global_context\l::context">
<polygon fill="#ffffff" stroke="#000000" points="165,-213.5 165,-243.5 274,-243.5 274,-213.5 165,-213.5"/>
<text text-anchor="start" x="173" y="-231.5" font-family="Helvetica,sans-Serif" font-size="10.00" fill="#000000">PDI::Global_context</text>
<text text-anchor="middle" x="219.5" y="-220.5" font-family="Helvetica,sans-Serif" font-size="10.00" fill="#000000">::context</text>
</a>
</g>
</g>
<!-- Node0&#45;&gt;Node4 -->
<g id="edge4" class="edge">
<title>Node0&#45;&gt;Node4</title>
<path fill="none" stroke="#191970" d="M77.7036,-167.1494C96.7039,-176.8108 127.0844,-191.8727 154,-203.5 158.7663,-205.559 163.7627,-207.6259 168.7803,-209.6409"/>
<polygon fill="#191970" stroke="#191970" points="167.8138,-213.0221 178.4006,-213.4364 170.3828,-206.5106 167.8138,-213.0221"/>
</g>
<!-- Node5 -->
<g id="node6" class="node">
<title>Node5</title>
<g id="a_node6"><a xlink:href="classPDI_1_1Global__context.html#a1ce31d6999286d62b4954260354740ba" target="_top" xlink:title="PDI::Global_context\l::event">
<polygon fill="#ffffff" stroke="#000000" points="165,-164.5 165,-194.5 274,-194.5 274,-164.5 165,-164.5"/>
<text text-anchor="start" x="173" y="-182.5" font-family="Helvetica,sans-Serif" font-size="10.00" fill="#000000">PDI::Global_context</text>
<text text-anchor="middle" x="219.5" y="-171.5" font-family="Helvetica,sans-Serif" font-size="10.00" fill="#000000">::event</text>
</a>
</g>
</g>
<!-- Node0&#45;&gt;Node5 -->
<g id="edge5" class="edge">
<title>Node0&#45;&gt;Node5</title>
<path fill="none" stroke="#191970" d="M118.3083,-165.6295C130.2379,-167.2647 142.8314,-168.9909 154.9301,-170.6493"/>
<polygon fill="#191970" stroke="#191970" points="154.5685,-174.1324 164.9512,-172.0229 155.5192,-167.1972 154.5685,-174.1324"/>
</g>
<!-- Node7 -->
<g id="node8" class="node">
<title>Node7</title>
<g id="a_node8"><a xlink:href="namespacePDI.html#a28d061db8f54278f9950d9c38e7e8921" target="_top" xlink:title="PDI::python_type">
<polygon fill="#ffffff" stroke="#000000" points="171,-126 171,-145 268,-145 268,-126 171,-126"/>
<text text-anchor="middle" x="219.5" y="-133" font-family="Helvetica,sans-Serif" font-size="10.00" fill="#000000">PDI::python_type</text>
</a>
</g>
</g>
<!-- Node0&#45;&gt;Node7 -->
<g id="edge8" class="edge">
<title>Node0&#45;&gt;Node7</title>
<path fill="none" stroke="#191970" d="M118.3083,-149.3705C132.2485,-147.4597 147.0952,-145.4246 160.9996,-143.5187"/>
<polygon fill="#191970" stroke="#191970" points="161.4993,-146.9831 170.9313,-142.1574 160.5486,-140.0479 161.4993,-146.9831"/>
</g>
<!-- Node8 -->
<g id="node9" class="node">
<title>Node8</title>
<g id="a_node9"><a xlink:href="namespacePDI.html#aa0743bfc1fbd24c7a617fd1e312962ad" target="_top" xlink:title="PDI::to_python">
<polygon fill="#ffffff" stroke="#000000" points="176.5,-88 176.5,-107 262.5,-107 262.5,-88 176.5,-88"/>
<text text-anchor="middle" x="219.5" y="-95" font-family="Helvetica,sans-Serif" font-size="10.00" fill="#000000">PDI::to_python</text>
</a>
</g>
</g>
<!-- Node0&#45;&gt;Node8 -->
<g id="edge9" class="edge">
<title>Node0&#45;&gt;Node8</title>
<path fill="none" stroke="#191970" d="M79.0901,-147.9562C98.119,-139.1265 127.627,-125.9741 154,-116.5 160.3638,-114.2139 167.1479,-112.0022 173.8482,-109.9456"/>
<polygon fill="#191970" stroke="#191970" points="174.9639,-113.2652 183.5461,-107.0526 172.9628,-106.5573 174.9639,-113.2652"/>
</g>
<!-- Node10 -->
<g id="node11" class="node">
<title>Node10</title>
<g id="a_node11"><a xlink:href="classPDI_1_1Data__descriptor.html#a658635bdd5a35a34024586a297b7909f" target="_top" xlink:title="PDI::Data_descriptor::ref">
<polygon fill="#ffffff" stroke="#000000" points="154,-50 154,-69 285,-69 285,-50 154,-50"/>
<text text-anchor="middle" x="219.5" y="-57" font-family="Helvetica,sans-Serif" font-size="10.00" fill="#000000">PDI::Data_descriptor::ref</text>
</a>
</g>
</g>
<!-- Node0&#45;&gt;Node10 -->
<g id="edge11" class="edge">
<title>Node0&#45;&gt;Node10</title>
<path fill="none" stroke="#191970" d="M68.0081,-147.7416C83.843,-131.1503 118.3804,-97.4084 154,-78.5 158.2225,-76.2585 162.7423,-74.2515 167.3606,-72.4607"/>
<polygon fill="#191970" stroke="#191970" points="168.6537,-75.7159 176.9151,-69.0827 166.3203,-69.1162 168.6537,-75.7159"/>
</g>
<!-- Node11 -->
<g id="node12" class="node">
<title>Node11</title>
<g id="a_node12"><a xlink:href="classPDI_1_1Data__descriptor.html#a76adf3a628997299a690852078ffe9d3" target="_top" xlink:title="PDI::Data_descriptor\l::share">
<polygon fill="#ffffff" stroke="#000000" points="162.5,-.5 162.5,-30.5 276.5,-30.5 276.5,-.5 162.5,-.5"/>
<text text-anchor="start" x="170.5" y="-18.5" font-family="Helvetica,sans-Serif" font-size="10.00" fill="#000000">PDI::Data_descriptor</text>
<text text-anchor="middle" x="219.5" y="-7.5" font-family="Helvetica,sans-Serif" font-size="10.00" fill="#000000">::share</text>
</a>
</g>
</g>
<!-- Node0&#45;&gt;Node11 -->
<g id="edge12" class="edge">
<title>Node0&#45;&gt;Node11</title>
<path fill="none" stroke="#191970" d="M64.3722,-147.8902C77.1316,-125.8804 111.4024,-71.3443 154,-40.5 156.5309,-38.6674 159.2129,-36.951 161.9902,-35.3458"/>
<polygon fill="#191970" stroke="#191970" points="163.8644,-38.316 171.1165,-30.5921 160.6306,-32.1077 163.8644,-38.316"/>
</g>
<!-- Node3 -->
<g id="node4" class="node">
<title>Node3</title>
<g id="a_node4"><a xlink:href="classPDI_1_1Global__context.html#aa075da0d1d585067a3daacdbc57d9505" target="_top" xlink:title="PDI::Global_context\l::Global_context">
<polygon fill="#ffffff" stroke="#000000" points="321,-301.5 321,-331.5 430,-331.5 430,-301.5 321,-301.5"/>
<text text-anchor="start" x="329" y="-319.5" font-family="Helvetica,sans-Serif" font-size="10.00" fill="#000000">PDI::Global_context</text>
<text text-anchor="middle" x="375.5" y="-308.5" font-family="Helvetica,sans-Serif" font-size="10.00" fill="#000000">::Global_context</text>
</a>
</g>
</g>
<!-- Node2&#45;&gt;Node3 -->
<g id="edge3" class="edge">
<title>Node2&#45;&gt;Node3</title>
<path fill="none" stroke="#191970" d="M274.0612,-316.5C285.9365,-316.5 298.6108,-316.5 310.8348,-316.5"/>
<polygon fill="#191970" stroke="#191970" points="310.9696,-320.0001 320.9696,-316.5 310.9695,-313.0001 310.9696,-320.0001"/>
</g>
<!-- Node5&#45;&gt;Node1 -->
<g id="edge7" class="edge">
<title>Node5&#45;&gt;Node1</title>
<path fill="none" stroke="#191970" d="M260.1833,-194.5877C268.4333,-197.7707 277.0236,-201.1746 285,-204.5 305.5527,-213.0686 328.3904,-223.4213 345.9822,-231.5798"/>
<polygon fill="#191970" stroke="#191970" points="344.6255,-234.8089 355.1679,-235.8614 347.5828,-228.4643 344.6255,-234.8089"/>
</g>
<!-- Node6 -->
<g id="node7" class="node">
<title>Node6</title>
<g id="a_node7"><a xlink:href="classPDI_1_1Error.html#a96f2da1344848f7862d6d4227ba7c82a" target="_top" xlink:title="PDI::Error::status">
<polygon fill="#ffffff" stroke="#000000" points="328,-170 328,-189 423,-189 423,-170 328,-170"/>
<text text-anchor="middle" x="375.5" y="-177" font-family="Helvetica,sans-Serif" font-size="10.00" fill="#000000">PDI::Error::status</text>
</a>
</g>
</g>
<!-- Node5&#45;&gt;Node6 -->
<g id="edge6" class="edge">
<title>Node5&#45;&gt;Node6</title>
<path fill="none" stroke="#191970" d="M274.0612,-179.5C288.2017,-179.5 303.4751,-179.5 317.7722,-179.5"/>
<polygon fill="#191970" stroke="#191970" points="317.9799,-183.0001 327.9799,-179.5 317.9799,-176.0001 317.9799,-183.0001"/>
</g>
<!-- Node9 -->
<g id="node10" class="node">
<title>Node9</title>
<g id="a_node10"><a xlink:href="classPDI_1_1Ref__base.html#a1294f5b1c0565f6171d23c311c18e3e7" target="_top" xlink:title="PDI::Ref_base::type">
<polygon fill="#ffffff" stroke="#000000" points="321.5,-88 321.5,-107 429.5,-107 429.5,-88 321.5,-88"/>
<text text-anchor="middle" x="375.5" y="-95" font-family="Helvetica,sans-Serif" font-size="10.00" fill="#000000">PDI::Ref_base::type</text>
</a>
</g>
</g>
<!-- Node8&#45;&gt;Node9 -->
<g id="edge10" class="edge">
<title>Node8&#45;&gt;Node9</title>
<path fill="none" stroke="#191970" d="M262.5406,-97.5C277.627,-97.5 294.9134,-97.5 311.3517,-97.5"/>
<polygon fill="#191970" stroke="#191970" points="311.4501,-101.0001 321.45,-97.5 311.45,-94.0001 311.4501,-101.0001"/>
</g>
</g>
</svg>
