<?xml version="1.0" encoding="UTF-8" standalone="no"?>
<!DOCTYPE svg PUBLIC "-//W3C//DTD SVG 1.1//EN"
 "http://www.w3.org/Graphics/SVG/1.1/DTD/svg11.dtd">
<!-- Generated by graphviz version 2.40.1 (20161225.0304)
 -->
<!-- Title: /home/jbigot/data/projects/pdi/pdi/src/record_datatype.cxx Pages: 1 -->
<!--zoomable 543 -->
<svg id="main" version="1.1" xmlns="http://www.w3.org/2000/svg" xmlns:xlink="http://www.w3.org/1999/xlink" xml:space="preserve" onload="init(evt)">
<style type="text/css"><![CDATA[
.edge:hover path { stroke: red; }
.edge:hover polygon { stroke: red; fill: red; }
]]></style>
<script type="text/javascript"><![CDATA[
var edges = document.getElementsByTagName('g');
if (edges && edges.length) {
  for (var i=0;i<edges.length;i++) {
    if (edges[i].id.substr(0,4)=='edge') {
      edges[i].setAttribute('class','edge');
    }
  }
}
]]></script>
        <defs>
                <circle id="rim" cx="0" cy="0" r="7"/>
                <circle id="rim2" cx="0" cy="0" r="3.5"/>
                <g id="zoomPlus">
                        <use xlink:href="#rim" fill="#404040">
                                <set attributeName="fill" to="#808080" begin="zoomplus.mouseover" end="zoomplus.mouseout"/>
                        </use>
                        <path d="M-4,0h8M0,-4v8" fill="none" stroke="white" stroke-width="1.5" pointer-events="none"/>
                </g>
                <g id="zoomMin">
                        <use xlink:href="#rim" fill="#404040">
                                <set attributeName="fill" to="#808080" begin="zoomminus.mouseover" end="zoomminus.mouseout"/>
                        </use>
                        <path d="M-4,0h8" fill="none" stroke="white" stroke-width="1.5" pointer-events="none"/>
                </g>
                <g id="dirArrow">
                        <path fill="none" stroke="white" stroke-width="1.5" d="M0,-3.0v7 M-2.5,-0.5L0,-3.0L2.5,-0.5"/>
                </g>
               <g id="resetDef">
                       <use xlink:href="#rim2" fill="#404040">
                               <set attributeName="fill" to="#808080" begin="reset.mouseover" end="reset.mouseout"/>
                       </use>
               </g>
        </defs>

<script type="text/javascript">
var viewWidth = 1237;
var viewHeight = 543;
var sectionId = 'dynsection-0';
</script>
<script xlink:href="svgpan.js"/>
<svg id="graph" class="graph">
<g id="viewport">
<title>/home/jbigot/data/projects/pdi/pdi/src/record_datatype.cxx</title>
<polygon fill="#ffffff" stroke="transparent" points="-4,4 -4,-539 1232.5,-539 1232.5,4 -4,4"/>
<!-- Node0 -->
<g id="node1" class="node">
<title>Node0</title>
<polygon fill="#bfbfbf" stroke="#000000" points="218,-504.5 218,-534.5 385,-534.5 385,-504.5 218,-504.5"/>
<text text-anchor="start" x="226" y="-522.5" font-family="Helvetica,sans-Serif" font-size="10.00" fill="#000000">/home/jbigot/data/projects</text>
<text text-anchor="middle" x="301.5" y="-511.5" font-family="Helvetica,sans-Serif" font-size="10.00" fill="#000000">/pdi/pdi/src/record_datatype.cxx</text>
</g>
<!-- Node1 -->
<g id="node2" class="node">
<title>Node1</title>
<polygon fill="#ffffff" stroke="#bfbfbf" points="0,-448.5 0,-467.5 53,-467.5 53,-448.5 0,-448.5"/>
<text text-anchor="middle" x="26.5" y="-455.5" font-family="Helvetica,sans-Serif" font-size="10.00" fill="#000000">config.h</text>
</g>
<!-- Node0&#45;&gt;Node1 -->
<g id="edge1" class="edge">
<title>Node0&#45;&gt;Node1</title>
<path fill="none" stroke="#191970" d="M226.1579,-504.4467C181.4658,-495.2407 123.499,-482.8226 63.2687,-468.0847"/>
<polygon fill="#191970" stroke="#191970" points="63.7374,-464.5955 53.1904,-465.6019 62.0629,-471.3923 63.7374,-464.5955"/>
</g>
<!-- Node2 -->
<g id="node3" class="node">
<title>Node2</title>
<polygon fill="#ffffff" stroke="#bfbfbf" points="71.5,-448.5 71.5,-467.5 131.5,-467.5 131.5,-448.5 71.5,-448.5"/>
<text text-anchor="middle" x="101.5" y="-455.5" font-family="Helvetica,sans-Serif" font-size="10.00" fill="#000000">algorithm</text>
</g>
<!-- Node0&#45;&gt;Node2 -->
<g id="edge2" class="edge">
<title>Node0&#45;&gt;Node2</title>
<path fill="none" stroke="#191970" d="M252.5745,-504.4554C218.4518,-493.9627 173.4837,-480.135 141.5035,-470.3011"/>
<polygon fill="#191970" stroke="#191970" points="142.194,-466.8517 131.6069,-467.2579 140.1365,-473.5425 142.194,-466.8517"/>
</g>
<!-- Node3 -->
<g id="node4" class="node">
<title>Node3</title>
<polygon fill="#ffffff" stroke="#bfbfbf" points="843.5,-56.5 843.5,-75.5 897.5,-75.5 897.5,-56.5 843.5,-56.5"/>
<text text-anchor="middle" x="870.5" y="-63.5" font-family="Helvetica,sans-Serif" font-size="10.00" fill="#000000">memory</text>
</g>
<!-- Node0&#45;&gt;Node3 -->
<g id="edge3" class="edge">
<title>Node0&#45;&gt;Node3</title>
<path fill="none" stroke="#191970" d="M385.2947,-515.6029C587.2874,-505.0936 1084.5,-472.1044 1084.5,-402 1084.5,-402 1084.5,-402 1084.5,-178 1084.5,-99.1159 968.9445,-75.6874 907.6614,-68.8091"/>
<polygon fill="#191970" stroke="#191970" points="907.909,-65.3161 897.6032,-67.7739 907.1924,-72.2794 907.909,-65.3161"/>
</g>
<!-- Node4 -->
<g id="node5" class="node">
<title>Node4</title>
<polygon fill="#ffffff" stroke="#bfbfbf" points="1112.5,-448.5 1112.5,-467.5 1156.5,-467.5 1156.5,-448.5 1112.5,-448.5"/>
<text text-anchor="middle" x="1134.5" y="-455.5" font-family="Helvetica,sans-Serif" font-size="10.00" fill="#000000">regex</text>
</g>
<!-- Node0&#45;&gt;Node4 -->
<g id="edge4" class="edge">
<title>Node0&#45;&gt;Node4</title>
<path fill="none" stroke="#191970" d="M385.1848,-516.2829C560.9111,-509.169 963.242,-490.903 1098.5,-468 1099.7591,-467.7868 1101.0375,-467.5472 1102.3247,-467.2866"/>
<polygon fill="#191970" stroke="#191970" points="1103.2601,-470.6622 1112.193,-464.9653 1101.6572,-463.8482 1103.2601,-470.6622"/>
</g>
<!-- Node5 -->
<g id="node6" class="node">
<title>Node5</title>
<polygon fill="#ffffff" stroke="#bfbfbf" points="281,-112.5 281,-131.5 324,-131.5 324,-112.5 281,-112.5"/>
<text text-anchor="middle" x="302.5" y="-119.5" font-family="Helvetica,sans-Serif" font-size="10.00" fill="#000000">string</text>
</g>
<!-- Node0&#45;&gt;Node5 -->
<g id="edge5" class="edge">
<title>Node0&#45;&gt;Node5</title>
<path fill="none" stroke="#191970" d="M257.7366,-504.4127C216.0137,-486.9154 159.5,-453.6773 159.5,-402 159.5,-402 159.5,-402 159.5,-234 159.5,-203.4754 157.7394,-190.3775 178.5,-168 202.5947,-142.0287 242.6874,-130.6539 270.7424,-125.7149"/>
<polygon fill="#191970" stroke="#191970" points="271.5148,-129.1364 280.8469,-124.1201 270.4235,-122.222 271.5148,-129.1364"/>
</g>
<!-- Node6 -->
<g id="node7" class="node">
<title>Node6</title>
<polygon fill="#ffffff" stroke="#bfbfbf" points="1174.5,-448.5 1174.5,-467.5 1228.5,-467.5 1228.5,-448.5 1174.5,-448.5"/>
<text text-anchor="middle" x="1201.5" y="-455.5" font-family="Helvetica,sans-Serif" font-size="10.00" fill="#000000">sstream</text>
</g>
<!-- Node0&#45;&gt;Node6 -->
<g id="edge6" class="edge">
<title>Node0&#45;&gt;Node6</title>
<path fill="none" stroke="#191970" d="M385.1158,-516.7698C567.819,-510.4451 998.8449,-493.4788 1164.0917,-467.8693"/>
<polygon fill="#191970" stroke="#191970" points="1164.8033,-471.2999 1174.1169,-466.2494 1163.6866,-464.3895 1164.8033,-471.2999"/>
</g>
<!-- Node7 -->
<g id="node8" class="node">
<title>Node7</title>
<polygon fill="#ffffff" stroke="#bfbfbf" points="291.5,-392.5 291.5,-411.5 337.5,-411.5 337.5,-392.5 291.5,-392.5"/>
<text text-anchor="middle" x="314.5" y="-399.5" font-family="Helvetica,sans-Serif" font-size="10.00" fill="#000000">vector</text>
</g>
<!-- Node0&#45;&gt;Node7 -->
<g id="edge7" class="edge">
<title>Node0&#45;&gt;Node7</title>
<path fill="none" stroke="#191970" d="M303.1995,-504.1389C305.5417,-482.9692 309.7628,-444.8174 312.3303,-421.6112"/>
<polygon fill="#191970" stroke="#191970" points="315.8214,-421.8837 313.4424,-411.5595 308.8638,-421.1139 315.8214,-421.8837"/>
</g>
<!-- Node8 -->
<g id="node9" class="node">
<title>Node8</title>
<g id="a_node9"><a xlink:href="paraconf__wrapper_8h.html" target="_top" xlink:title="pdi/paraconf_wrapper.h">
<polygon fill="#ffffff" stroke="#000000" points="188,-168.5 188,-187.5 317,-187.5 317,-168.5 188,-168.5"/>
<text text-anchor="middle" x="252.5" y="-175.5" font-family="Helvetica,sans-Serif" font-size="10.00" fill="#000000">pdi/paraconf_wrapper.h</text>
</a>
</g>
</g>
<!-- Node0&#45;&gt;Node8 -->
<g id="edge8" class="edge">
<title>Node0&#45;&gt;Node8</title>
<path fill="none" stroke="#191970" d="M282.5821,-504.4631C271.6768,-494.9739 258.4066,-481.9108 249.5,-468 232.6699,-441.7137 225.5,-433.2125 225.5,-402 225.5,-402 225.5,-402 225.5,-290 225.5,-256.6538 236.9512,-219.2392 244.9386,-197.1981"/>
<polygon fill="#191970" stroke="#191970" points="248.2673,-198.29 248.5161,-187.6981 241.7164,-195.823 248.2673,-198.29"/>
</g>
<!-- Node14 -->
<g id="node15" class="node">
<title>Node14</title>
<g id="a_node15"><a xlink:href="error_8h.html" target="_top" xlink:title="pdi/error.h">
<polygon fill="#ffffff" stroke="#000000" points="335,-168.5 335,-187.5 400,-187.5 400,-168.5 335,-168.5"/>
<text text-anchor="middle" x="367.5" y="-175.5" font-family="Helvetica,sans-Serif" font-size="10.00" fill="#000000">pdi/error.h</text>
</a>
</g>
</g>
<!-- Node0&#45;&gt;Node14 -->
<g id="edge17" class="edge">
<title>Node0&#45;&gt;Node14</title>
<path fill="none" stroke="#191970" d="M293.2546,-504.42C282.0785,-482.5326 263.5,-440.3768 263.5,-402 263.5,-402 263.5,-402 263.5,-290 263.5,-245.5129 308.106,-211.2585 338.8924,-192.9145"/>
<polygon fill="#191970" stroke="#191970" points="340.9969,-195.7428 347.9384,-187.7386 337.5205,-189.667 340.9969,-195.7428"/>
</g>
<!-- Node16 -->
<g id="node17" class="node">
<title>Node16</title>
<g id="a_node17"><a xlink:href="expression_8h.html" target="_top" xlink:title="pdi/expression.h">
<polygon fill="#ffffff" stroke="#000000" points="609.5,-448.5 609.5,-467.5 703.5,-467.5 703.5,-448.5 609.5,-448.5"/>
<text text-anchor="middle" x="656.5" y="-455.5" font-family="Helvetica,sans-Serif" font-size="10.00" fill="#000000">pdi/expression.h</text>
</a>
</g>
</g>
<!-- Node0&#45;&gt;Node16 -->
<g id="edge22" class="edge">
<title>Node0&#45;&gt;Node16</title>
<path fill="none" stroke="#191970" d="M385.1805,-505.0032C451.122,-493.5796 541.3061,-477.9561 599.2394,-467.9198"/>
<polygon fill="#191970" stroke="#191970" points="600.0578,-471.3302 609.3136,-466.1745 598.8629,-464.433 600.0578,-471.3302"/>
</g>
<!-- Node25 -->
<g id="node26" class="node">
<title>Node25</title>
<g id="a_node26"><a xlink:href="record__datatype_8h.html" target="_top" xlink:title="pdi/record_datatype.h">
<polygon fill="#ffffff" stroke="#000000" points="329.5,-448.5 329.5,-467.5 449.5,-467.5 449.5,-448.5 329.5,-448.5"/>
<text text-anchor="middle" x="389.5" y="-455.5" font-family="Helvetica,sans-Serif" font-size="10.00" fill="#000000">pdi/record_datatype.h</text>
</a>
</g>
</g>
<!-- Node0&#45;&gt;Node25 -->
<g id="edge41" class="edge">
<title>Node0&#45;&gt;Node25</title>
<path fill="none" stroke="#191970" d="M323.2528,-504.2977C336.6968,-494.9022 353.9011,-482.8787 367.4078,-473.4395"/>
<polygon fill="#191970" stroke="#191970" points="369.4811,-476.2605 375.6729,-467.6633 365.4712,-470.5228 369.4811,-476.2605"/>
</g>
<!-- Node8&#45;&gt;Node5 -->
<g id="edge9" class="edge">
<title>Node8&#45;&gt;Node5</title>
<path fill="none" stroke="#191970" d="M261.2093,-168.2455C268.3073,-160.2958 278.5084,-148.8706 286.995,-139.3656"/>
<polygon fill="#191970" stroke="#191970" points="289.8411,-141.4331 293.8905,-131.6427 284.6195,-136.771 289.8411,-141.4331"/>
</g>
<!-- Node9 -->
<g id="node10" class="node">
<title>Node9</title>
<polygon fill="#ffffff" stroke="#bfbfbf" points="364,-.5 364,-19.5 431,-19.5 431,-.5 364,-.5"/>
<text text-anchor="middle" x="397.5" y="-7.5" font-family="Helvetica,sans-Serif" font-size="10.00" fill="#000000">paraconf.h</text>
</g>
<!-- Node8&#45;&gt;Node9 -->
<g id="edge10" class="edge">
<title>Node8&#45;&gt;Node9</title>
<path fill="none" stroke="#191970" d="M253.6349,-168.2834C255.6022,-154.6974 260.6376,-129.7052 272.5,-112 298.2731,-73.5326 342.8846,-42.2124 371.2573,-24.8496"/>
<polygon fill="#191970" stroke="#191970" points="373.4146,-27.638 380.2062,-19.5062 369.8259,-21.6278 373.4146,-27.638"/>
</g>
<!-- Node10 -->
<g id="node11" class="node">
<title>Node10</title>
<g id="a_node11"><a xlink:href="pdi__fwd_8h.html" target="_top" xlink:title="pdi/pdi_fwd.h">
<polygon fill="#ffffff" stroke="#000000" points="533,-112.5 533,-131.5 612,-131.5 612,-112.5 533,-112.5"/>
<text text-anchor="middle" x="572.5" y="-119.5" font-family="Helvetica,sans-Serif" font-size="10.00" fill="#000000">pdi/pdi_fwd.h</text>
</a>
</g>
</g>
<!-- Node8&#45;&gt;Node10 -->
<g id="edge11" class="edge">
<title>Node8&#45;&gt;Node10</title>
<path fill="none" stroke="#191970" d="M307.1464,-168.4369C367.6008,-157.8574 464.1782,-140.9563 522.6406,-130.7254"/>
<polygon fill="#191970" stroke="#191970" points="523.4959,-134.129 532.7428,-128.9575 522.2891,-127.2338 523.4959,-134.129"/>
</g>
<!-- Node10&#45;&gt;Node3 -->
<g id="edge12" class="edge">
<title>Node10&#45;&gt;Node3</title>
<path fill="none" stroke="#191970" d="M612.0721,-114.5636C669.9024,-103.6962 776.747,-83.618 833.2385,-73.0022"/>
<polygon fill="#191970" stroke="#191970" points="833.996,-76.4212 843.1775,-71.1344 832.7031,-69.5416 833.996,-76.4212"/>
</g>
<!-- Node11 -->
<g id="node12" class="node">
<title>Node11</title>
<g id="a_node12"><a xlink:href="pdi_8h.html" target="_top" xlink:title="pdi.h">
<polygon fill="#ffffff" stroke="#000000" points="543,-56.5 543,-75.5 582,-75.5 582,-56.5 543,-56.5"/>
<text text-anchor="middle" x="562.5" y="-63.5" font-family="Helvetica,sans-Serif" font-size="10.00" fill="#000000">pdi.h</text>
</a>
</g>
</g>
<!-- Node10&#45;&gt;Node11 -->
<g id="edge13" class="edge">
<title>Node10&#45;&gt;Node11</title>
<path fill="none" stroke="#191970" d="M570.7581,-112.2455C569.4533,-104.9382 567.624,-94.6944 566.0187,-85.7046"/>
<polygon fill="#191970" stroke="#191970" points="569.4254,-84.8717 564.2219,-75.6427 562.5344,-86.1022 569.4254,-84.8717"/>
</g>
<!-- Node11&#45;&gt;Node9 -->
<g id="edge14" class="edge">
<title>Node11&#45;&gt;Node9</title>
<path fill="none" stroke="#191970" d="M542.9244,-59.3562C516.4303,-50.3642 468.62,-34.1377 435.0716,-22.7516"/>
<polygon fill="#191970" stroke="#191970" points="436.1822,-19.4325 425.5878,-19.5328 433.9324,-26.0611 436.1822,-19.4325"/>
</g>
<!-- Node12 -->
<g id="node13" class="node">
<title>Node12</title>
<polygon fill="#ffffff" stroke="#bfbfbf" points="479.5,-.5 479.5,-19.5 551.5,-19.5 551.5,-.5 479.5,-.5"/>
<text text-anchor="middle" x="515.5" y="-7.5" font-family="Helvetica,sans-Serif" font-size="10.00" fill="#000000">pdi/export.h</text>
</g>
<!-- Node11&#45;&gt;Node12 -->
<g id="edge15" class="edge">
<title>Node11&#45;&gt;Node12</title>
<path fill="none" stroke="#191970" d="M554.3132,-56.2455C547.6411,-48.2958 538.0521,-36.8706 530.0747,-27.3656"/>
<polygon fill="#191970" stroke="#191970" points="532.7026,-25.0524 523.593,-19.6427 527.3408,-29.5525 532.7026,-25.0524"/>
</g>
<!-- Node13 -->
<g id="node14" class="node">
<title>Node13</title>
<polygon fill="#ffffff" stroke="#bfbfbf" points="570,-.5 570,-19.5 647,-19.5 647,-.5 570,-.5"/>
<text text-anchor="middle" x="608.5" y="-7.5" font-family="Helvetica,sans-Serif" font-size="10.00" fill="#000000">pdi/version.h</text>
</g>
<!-- Node11&#45;&gt;Node13 -->
<g id="edge16" class="edge">
<title>Node11&#45;&gt;Node13</title>
<path fill="none" stroke="#191970" d="M570.5126,-56.2455C576.9768,-48.3761 586.2385,-37.101 593.9983,-27.6542"/>
<polygon fill="#191970" stroke="#191970" points="596.9364,-29.5916 600.5792,-19.6427 591.5273,-25.1484 596.9364,-29.5916"/>
</g>
<!-- Node14&#45;&gt;Node5 -->
<g id="edge19" class="edge">
<title>Node14&#45;&gt;Node5</title>
<path fill="none" stroke="#191970" d="M356.1779,-168.2455C346.5777,-159.9746 332.6108,-147.9416 321.3305,-138.2232"/>
<polygon fill="#191970" stroke="#191970" points="323.553,-135.5182 313.6924,-131.6427 318.984,-140.8214 323.553,-135.5182"/>
</g>
<!-- Node14&#45;&gt;Node9 -->
<g id="edge20" class="edge">
<title>Node14&#45;&gt;Node9</title>
<path fill="none" stroke="#191970" d="M369.1989,-168.4862C373.9617,-141.8144 387.5158,-65.9117 393.983,-29.695"/>
<polygon fill="#191970" stroke="#191970" points="397.4325,-30.2875 395.745,-19.8279 390.5415,-29.0569 397.4325,-30.2875"/>
</g>
<!-- Node14&#45;&gt;Node10 -->
<g id="edge21" class="edge">
<title>Node14&#45;&gt;Node10</title>
<path fill="none" stroke="#191970" d="M400.4368,-169.0026C434.9305,-159.58 489.3247,-144.7211 527.7063,-134.2363"/>
<polygon fill="#191970" stroke="#191970" points="528.8624,-137.5488 537.5866,-131.5373 527.0178,-130.7962 528.8624,-137.5488"/>
</g>
<!-- Node15 -->
<g id="node16" class="node">
<title>Node15</title>
<polygon fill="#ffffff" stroke="#bfbfbf" points="395.5,-112.5 395.5,-131.5 457.5,-131.5 457.5,-112.5 395.5,-112.5"/>
<text text-anchor="middle" x="426.5" y="-119.5" font-family="Helvetica,sans-Serif" font-size="10.00" fill="#000000">exception</text>
</g>
<!-- Node14&#45;&gt;Node15 -->
<g id="edge18" class="edge">
<title>Node14&#45;&gt;Node15</title>
<path fill="none" stroke="#191970" d="M377.777,-168.2455C386.3218,-160.1352 398.6778,-148.4075 408.8085,-138.7919"/>
<polygon fill="#191970" stroke="#191970" points="411.4972,-141.0655 416.3408,-131.6427 406.6782,-135.9884 411.4972,-141.0655"/>
</g>
<!-- Node16&#45;&gt;Node3 -->
<g id="edge23" class="edge">
<title>Node16&#45;&gt;Node3</title>
<path fill="none" stroke="#191970" d="M703.5431,-454.448C807.2712,-445.3225 1046.5,-416.6212 1046.5,-346 1046.5,-346 1046.5,-346 1046.5,-178 1046.5,-112.6382 959.0345,-83.7709 907.4222,-72.4265"/>
<polygon fill="#191970" stroke="#191970" points="908.1176,-68.9963 897.6143,-70.3856 906.6915,-75.8495 908.1176,-68.9963"/>
</g>
<!-- Node16&#45;&gt;Node10 -->
<g id="edge24" class="edge">
<title>Node16&#45;&gt;Node10</title>
<path fill="none" stroke="#191970" d="M650.893,-448.4834C640.3226,-429.6141 618.5,-385.8343 618.5,-346 618.5,-346 618.5,-346 618.5,-234 618.5,-198.66 598.6609,-161.4332 585.0403,-140.0395"/>
<polygon fill="#191970" stroke="#191970" points="587.9212,-138.0507 579.4864,-131.6394 582.0821,-141.9114 587.9212,-138.0507"/>
</g>
<!-- Node17 -->
<g id="node18" class="node">
<title>Node17</title>
<g id="a_node18"><a xlink:href="ref__any_8h.html" target="_top" xlink:title="pdi/ref_any.h">
<polygon fill="#ffffff" stroke="#000000" points="655.5,-392.5 655.5,-411.5 733.5,-411.5 733.5,-392.5 655.5,-392.5"/>
<text text-anchor="middle" x="694.5" y="-399.5" font-family="Helvetica,sans-Serif" font-size="10.00" fill="#000000">pdi/ref_any.h</text>
</a>
</g>
</g>
<!-- Node16&#45;&gt;Node17 -->
<g id="edge25" class="edge">
<title>Node16&#45;&gt;Node17</title>
<path fill="none" stroke="#191970" d="M663.1191,-448.2455C668.4046,-440.4564 675.9541,-429.3308 682.3238,-419.9439"/>
<polygon fill="#191970" stroke="#191970" points="685.2379,-421.8827 687.9568,-411.6427 679.4455,-417.9522 685.2379,-421.8827"/>
</g>
<!-- Node17&#45;&gt;Node3 -->
<g id="edge28" class="edge">
<title>Node17&#45;&gt;Node3</title>
<path fill="none" stroke="#191970" d="M694.5,-392.4116C694.5,-373.0538 694.5,-327.9167 694.5,-290 694.5,-290 694.5,-290 694.5,-178 694.5,-112.6382 781.9655,-83.7709 833.5778,-72.4265"/>
<polygon fill="#191970" stroke="#191970" points="834.3085,-75.8495 843.3857,-70.3856 832.8824,-68.9963 834.3085,-75.8495"/>
</g>
<!-- Node17&#45;&gt;Node10 -->
<g id="edge31" class="edge">
<title>Node17&#45;&gt;Node10</title>
<path fill="none" stroke="#191970" d="M688.893,-392.4834C678.3226,-373.6141 656.5,-329.8343 656.5,-290 656.5,-290 656.5,-290 656.5,-234 656.5,-202.7875 650.9578,-193.1701 632.5,-168 623.4694,-155.6854 610.2546,-145.063 598.5239,-137.1383"/>
<polygon fill="#191970" stroke="#191970" points="600.2416,-134.0818 589.9366,-131.6207 596.4576,-139.971 600.2416,-134.0818"/>
</g>
<!-- Node17&#45;&gt;Node14 -->
<g id="edge40" class="edge">
<title>Node17&#45;&gt;Node14</title>
<path fill="none" stroke="#191970" d="M655.2156,-396.9114C599.1168,-389.1636 499.317,-373.4544 467.5,-356 406.8413,-322.7235 380.5475,-236.7102 371.4787,-197.7257"/>
<polygon fill="#191970" stroke="#191970" points="374.876,-196.8775 369.3216,-187.8553 368.0375,-198.3721 374.876,-196.8775"/>
</g>
<!-- Node18 -->
<g id="node19" class="node">
<title>Node18</title>
<polygon fill="#ffffff" stroke="#bfbfbf" points="723,-336.5 723,-355.5 774,-355.5 774,-336.5 723,-336.5"/>
<text text-anchor="middle" x="748.5" y="-343.5" font-family="Helvetica,sans-Serif" font-size="10.00" fill="#000000">cassert</text>
</g>
<!-- Node17&#45;&gt;Node18 -->
<g id="edge26" class="edge">
<title>Node17&#45;&gt;Node18</title>
<path fill="none" stroke="#191970" d="M703.9061,-392.2455C711.6493,-384.2155 722.812,-372.6394 732.0318,-363.0781"/>
<polygon fill="#191970" stroke="#191970" points="734.7798,-365.2706 739.2017,-355.6427 729.7409,-360.4117 734.7798,-365.2706"/>
</g>
<!-- Node19 -->
<g id="node20" class="node">
<title>Node19</title>
<polygon fill="#ffffff" stroke="#bfbfbf" points="792.5,-336.5 792.5,-355.5 854.5,-355.5 854.5,-336.5 792.5,-336.5"/>
<text text-anchor="middle" x="823.5" y="-343.5" font-family="Helvetica,sans-Serif" font-size="10.00" fill="#000000">functional</text>
</g>
<!-- Node17&#45;&gt;Node19 -->
<g id="edge27" class="edge">
<title>Node17&#45;&gt;Node19</title>
<path fill="none" stroke="#191970" d="M716.6759,-392.3733C737.4766,-383.3435 768.7917,-369.7494 792.1458,-359.6111"/>
<polygon fill="#191970" stroke="#191970" points="793.8343,-362.6938 801.6135,-355.5011 791.0468,-356.2727 793.8343,-362.6938"/>
</g>
<!-- Node20 -->
<g id="node21" class="node">
<title>Node20</title>
<polygon fill="#ffffff" stroke="#bfbfbf" points="872.5,-336.5 872.5,-355.5 908.5,-355.5 908.5,-336.5 872.5,-336.5"/>
<text text-anchor="middle" x="890.5" y="-343.5" font-family="Helvetica,sans-Serif" font-size="10.00" fill="#000000">new</text>
</g>
<!-- Node17&#45;&gt;Node20 -->
<g id="edge29" class="edge">
<title>Node17&#45;&gt;Node20</title>
<path fill="none" stroke="#191970" d="M733.3818,-392.4646C765.737,-384.2967 813.1657,-371.7867 862.6806,-356.0765"/>
<polygon fill="#191970" stroke="#191970" points="863.823,-359.3858 872.2767,-352.9994 861.6855,-352.7201 863.823,-359.3858"/>
</g>
<!-- Node21 -->
<g id="node22" class="node">
<title>Node21</title>
<polygon fill="#ffffff" stroke="#bfbfbf" points="926.5,-336.5 926.5,-355.5 1018.5,-355.5 1018.5,-336.5 926.5,-336.5"/>
<text text-anchor="middle" x="972.5" y="-343.5" font-family="Helvetica,sans-Serif" font-size="10.00" fill="#000000">unordered_map</text>
</g>
<!-- Node17&#45;&gt;Node21 -->
<g id="edge30" class="edge">
<title>Node17&#45;&gt;Node21</title>
<path fill="none" stroke="#191970" d="M733.741,-394.0953C781.3652,-384.502 862.0111,-368.2568 916.2404,-357.3329"/>
<polygon fill="#191970" stroke="#191970" points="916.933,-360.7637 926.0449,-355.3579 915.5506,-353.9016 916.933,-360.7637"/>
</g>
<!-- Node22 -->
<g id="node23" class="node">
<title>Node22</title>
<g id="a_node23"><a xlink:href="datatype_8h.html" target="_top" xlink:title="pdi/datatype.h">
<polygon fill="#ffffff" stroke="#000000" points="476,-336.5 476,-355.5 559,-355.5 559,-336.5 476,-336.5"/>
<text text-anchor="middle" x="517.5" y="-343.5" font-family="Helvetica,sans-Serif" font-size="10.00" fill="#000000">pdi/datatype.h</text>
</a>
</g>
</g>
<!-- Node17&#45;&gt;Node22 -->
<g id="edge32" class="edge">
<title>Node17&#45;&gt;Node22</title>
<path fill="none" stroke="#191970" d="M664.0726,-392.3733C634.5128,-383.021 589.4774,-368.7725 557.1305,-358.5385"/>
<polygon fill="#191970" stroke="#191970" points="558.1203,-355.1807 547.5303,-355.5011 556.0087,-361.8546 558.1203,-355.1807"/>
</g>
<!-- Node22&#45;&gt;Node10 -->
<g id="edge33" class="edge">
<title>Node22&#45;&gt;Node10</title>
<path fill="none" stroke="#191970" d="M530.8851,-336.3474C541.262,-328.0175 554.9437,-314.9843 561.5,-300 584.8048,-246.7374 579.84,-175.8446 575.5384,-141.8405"/>
<polygon fill="#191970" stroke="#191970" points="578.9868,-141.2262 574.1468,-131.8016 572.0531,-142.1875 578.9868,-141.2262"/>
</g>
<!-- Node23 -->
<g id="node24" class="node">
<title>Node23</title>
<g id="a_node24"><a xlink:href="datatype__template_8h.html" target="_top" xlink:title="pdi/datatype_template.h">
<polygon fill="#ffffff" stroke="#000000" points="422.5,-280.5 422.5,-299.5 552.5,-299.5 552.5,-280.5 422.5,-280.5"/>
<text text-anchor="middle" x="487.5" y="-287.5" font-family="Helvetica,sans-Serif" font-size="10.00" fill="#000000">pdi/datatype_template.h</text>
</a>
</g>
</g>
<!-- Node22&#45;&gt;Node23 -->
<g id="edge34" class="edge">
<title>Node22&#45;&gt;Node23</title>
<path fill="none" stroke="#191970" d="M512.2744,-336.2455C508.1877,-328.617 502.3865,-317.7881 497.425,-308.5267"/>
<polygon fill="#191970" stroke="#191970" points="500.4732,-306.8047 492.6657,-299.6427 494.3028,-310.1103 500.4732,-306.8047"/>
</g>
<!-- Node23&#45;&gt;Node9 -->
<g id="edge35" class="edge">
<title>Node23&#45;&gt;Node9</title>
<path fill="none" stroke="#191970" d="M489.9357,-280.4856C494.6363,-261.2608 504.5,-216.351 504.5,-178 504.5,-178 504.5,-178 504.5,-122 504.5,-76.7199 458.2108,-42.5518 426.5241,-24.4668"/>
<polygon fill="#191970" stroke="#191970" points="428.0768,-21.3266 417.6259,-19.5861 424.7104,-27.464 428.0768,-21.3266"/>
</g>
<!-- Node23&#45;&gt;Node10 -->
<g id="edge36" class="edge">
<title>Node23&#45;&gt;Node10</title>
<path fill="none" stroke="#191970" d="M494.6689,-280.4457C501.3116,-271.3543 511.2335,-257.1491 518.5,-244 537.823,-209.0339 555.6205,-165.8053 565.177,-141.3196"/>
<polygon fill="#191970" stroke="#191970" points="568.5277,-142.3578 568.8564,-131.7681 561.9956,-139.8415 568.5277,-142.3578"/>
</g>
<!-- Node24 -->
<g id="node25" class="node">
<title>Node24</title>
<g id="a_node25"><a xlink:href="logger_8h.html" target="_top" xlink:title="pdi/logger.h">
<polygon fill="#ffffff" stroke="#000000" points="404.5,-224.5 404.5,-243.5 476.5,-243.5 476.5,-224.5 404.5,-224.5"/>
<text text-anchor="middle" x="440.5" y="-231.5" font-family="Helvetica,sans-Serif" font-size="10.00" fill="#000000">pdi/logger.h</text>
</a>
</g>
</g>
<!-- Node23&#45;&gt;Node24 -->
<g id="edge37" class="edge">
<title>Node23&#45;&gt;Node24</title>
<path fill="none" stroke="#191970" d="M479.3132,-280.2455C472.6411,-272.2958 463.0521,-260.8706 455.0747,-251.3656"/>
<polygon fill="#191970" stroke="#191970" points="457.7026,-249.0524 448.593,-243.6427 452.3408,-253.5525 457.7026,-249.0524"/>
</g>
<!-- Node24&#45;&gt;Node8 -->
<g id="edge39" class="edge">
<title>Node24&#45;&gt;Node8</title>
<path fill="none" stroke="#191970" d="M408.1816,-224.3733C376.6494,-214.9807 328.5379,-200.6496 294.1499,-190.4064"/>
<polygon fill="#191970" stroke="#191970" points="294.9797,-187.0016 284.3966,-187.5011 292.9813,-193.7103 294.9797,-187.0016"/>
</g>
<!-- Node24&#45;&gt;Node10 -->
<g id="edge38" class="edge">
<title>Node24&#45;&gt;Node10</title>
<path fill="none" stroke="#191970" d="M451.7542,-224.4509C474.3548,-205.2747 525.4794,-161.8962 553.4085,-138.1988"/>
<polygon fill="#191970" stroke="#191970" points="555.9136,-140.6635 561.2742,-131.5249 551.3847,-135.3259 555.9136,-140.6635"/>
</g>
<!-- Node25&#45;&gt;Node7 -->
<g id="edge42" class="edge">
<title>Node25&#45;&gt;Node7</title>
<path fill="none" stroke="#191970" d="M376.436,-448.2455C365.1438,-439.814 348.6155,-427.4729 335.4729,-417.6598"/>
<polygon fill="#191970" stroke="#191970" points="337.5211,-414.8211 327.4143,-411.6427 333.3331,-420.4301 337.5211,-414.8211"/>
</g>
<!-- Node25&#45;&gt;Node10 -->
<g id="edge43" class="edge">
<title>Node25&#45;&gt;Node10</title>
<path fill="none" stroke="#191970" d="M386.6058,-448.1714C377.2002,-414.1603 350.6093,-299.4317 395.5,-224 423.8536,-176.3563 483.5791,-148.8651 525.7903,-134.6799"/>
<polygon fill="#191970" stroke="#191970" points="526.8725,-138.0085 535.3125,-131.6041 524.7208,-131.3474 526.8725,-138.0085"/>
</g>
<!-- Node25&#45;&gt;Node22 -->
<g id="edge44" class="edge">
<title>Node25&#45;&gt;Node22</title>
<path fill="none" stroke="#191970" d="M400.4132,-448.4509C422.3289,-429.2747 471.9043,-385.8962 498.9871,-362.1988"/>
<polygon fill="#191970" stroke="#191970" points="501.3934,-364.744 506.6144,-355.5249 496.7838,-359.4759 501.3934,-364.744"/>
</g>
</g>
</svg>
        <g id="navigator" transform="translate(0 0)" fill="#404254">
                <rect fill="#f2f5e9" fill-opacity="0.5" stroke="#606060" stroke-width=".5" x="0" y="0" width="60" height="60"/>
                <use id="zoomplus" xlink:href="#zoomPlus" x="17" y="9" onmousedown="handleZoom(evt,'in')"/>
                <use id="zoomminus" xlink:href="#zoomMin" x="42" y="9" onmousedown="handleZoom(evt,'out')"/>
                <use id="reset" xlink:href="#resetDef" x="30" y="36" onmousedown="handleReset()"/>
                <g id="arrowUp" xlink:href="#dirArrow" transform="translate(30 24)" onmousedown="handlePan(0,-1)">
                  <use xlink:href="#rim" fill="#404040">
                        <set attributeName="fill" to="#808080" begin="arrowUp.mouseover" end="arrowUp.mouseout"/>
                  </use>
                  <path fill="none" stroke="white" stroke-width="1.5" d="M0,-3.0v7 M-2.5,-0.5L0,-3.0L2.5,-0.5"/>
                </g>
                <g id="arrowRight" xlink:href="#dirArrow" transform="rotate(90) translate(36 -43)" onmousedown="handlePan(1,0)">
                  <use xlink:href="#rim" fill="#404040">
                        <set attributeName="fill" to="#808080" begin="arrowRight.mouseover" end="arrowRight.mouseout"/>
                  </use>
                  <path fill="none" stroke="white" stroke-width="1.5" d="M0,-3.0v7 M-2.5,-0.5L0,-3.0L2.5,-0.5"/>
                </g>
                <g id="arrowDown" xlink:href="#dirArrow" transform="rotate(180) translate(-30 -48)" onmousedown="handlePan(0,1)">
                  <use xlink:href="#rim" fill="#404040">
                        <set attributeName="fill" to="#808080" begin="arrowDown.mouseover" end="arrowDown.mouseout"/>
                  </use>
                  <path fill="none" stroke="white" stroke-width="1.5" d="M0,-3.0v7 M-2.5,-0.5L0,-3.0L2.5,-0.5"/>
                </g>
                <g id="arrowLeft" xlink:href="#dirArrow" transform="rotate(270) translate(-36 17)" onmousedown="handlePan(-1,0)">
                  <use xlink:href="#rim" fill="#404040">
                        <set attributeName="fill" to="#808080" begin="arrowLeft.mouseover" end="arrowLeft.mouseout"/>
                  </use>
                  <path fill="none" stroke="white" stroke-width="1.5" d="M0,-3.0v7 M-2.5,-0.5L0,-3.0L2.5,-0.5"/>
                </g>
        </g>
        <svg viewBox="0 0 15 15" width="100%" height="30px" preserveAspectRatio="xMaxYMin meet">
         <g id="arrow_out" transform="scale(0.3 0.3)">
          <a xlink:href="record__datatype_8cxx__incl_org.svg" target="_base">
           <rect id="button" ry="5" rx="5" y="6" x="6" height="38" width="38"
                fill="#f2f5e9" fill-opacity="0.5" stroke="#606060" stroke-width="1.0"/>
           <path id="arrow"
             d="M 11.500037,31.436501 C 11.940474,20.09759 22.043105,11.32322 32.158766,21.979434 L 37.068811,17.246167 C 37.068811,17.246167 37.088388,32 37.088388,32 L 22.160133,31.978069 C 22.160133,31.978069 26.997745,27.140456 26.997745,27.140456 C 18.528582,18.264221 13.291696,25.230495 11.500037,31.436501 z"
             style="fill:#404040;"/>
          </a>
         </g>
        </svg>
</svg>
