<?xml version="1.0" encoding="UTF-8" standalone="no"?>
<!DOCTYPE svg PUBLIC "-//W3C//DTD SVG 1.1//EN"
 "http://www.w3.org/Graphics/SVG/1.1/DTD/svg11.dtd">
<!-- Generated by graphviz version 2.40.1 (20161225.0304)
 -->
<!-- Title: /home/jbigot/data/projects/pdi/pdi/include/pdi/ref_any.h Pages: 1 -->
<!--zoomable 431 -->
<svg id="main" version="1.1" xmlns="http://www.w3.org/2000/svg" xmlns:xlink="http://www.w3.org/1999/xlink" xml:space="preserve" onload="init(evt)">
<style type="text/css"><![CDATA[
.edge:hover path { stroke: red; }
.edge:hover polygon { stroke: red; fill: red; }
]]></style>
<script type="text/javascript"><![CDATA[
var edges = document.getElementsByTagName('g');
if (edges && edges.length) {
  for (var i=0;i<edges.length;i++) {
    if (edges[i].id.substr(0,4)=='edge') {
      edges[i].setAttribute('class','edge');
    }
  }
}
]]></script>
        <defs>
                <circle id="rim" cx="0" cy="0" r="7"/>
                <circle id="rim2" cx="0" cy="0" r="3.5"/>
                <g id="zoomPlus">
                        <use xlink:href="#rim" fill="#404040">
                                <set attributeName="fill" to="#808080" begin="zoomplus.mouseover" end="zoomplus.mouseout"/>
                        </use>
                        <path d="M-4,0h8M0,-4v8" fill="none" stroke="white" stroke-width="1.5" pointer-events="none"/>
                </g>
                <g id="zoomMin">
                        <use xlink:href="#rim" fill="#404040">
                                <set attributeName="fill" to="#808080" begin="zoomminus.mouseover" end="zoomminus.mouseout"/>
                        </use>
                        <path d="M-4,0h8" fill="none" stroke="white" stroke-width="1.5" pointer-events="none"/>
                </g>
                <g id="dirArrow">
                        <path fill="none" stroke="white" stroke-width="1.5" d="M0,-3.0v7 M-2.5,-0.5L0,-3.0L2.5,-0.5"/>
                </g>
               <g id="resetDef">
                       <use xlink:href="#rim2" fill="#404040">
                               <set attributeName="fill" to="#808080" begin="reset.mouseover" end="reset.mouseout"/>
                       </use>
               </g>
        </defs>

<script type="text/javascript">
var viewWidth = 718;
var viewHeight = 431;
var sectionId = 'dynsection-0';
</script>
<script xlink:href="svgpan.js"/>
<svg id="graph" class="graph">
<g id="viewport">
<title>/home/jbigot/data/projects/pdi/pdi/include/pdi/ref_any.h</title>
<polygon fill="#ffffff" stroke="transparent" points="-4,4 -4,-427 713.5,-427 713.5,4 -4,4"/>
<!-- Node0 -->
<g id="node1" class="node">
<title>Node0</title>
<polygon fill="#bfbfbf" stroke="#000000" points="156.5,-392.5 156.5,-422.5 308.5,-422.5 308.5,-392.5 156.5,-392.5"/>
<text text-anchor="start" x="164.5" y="-410.5" font-family="Helvetica,sans-Serif" font-size="10.00" fill="#000000">/home/jbigot/data/projects</text>
<text text-anchor="middle" x="232.5" y="-399.5" font-family="Helvetica,sans-Serif" font-size="10.00" fill="#000000">/pdi/pdi/include/pdi/ref_any.h</text>
</g>
<!-- Node1 -->
<g id="node2" class="node">
<title>Node1</title>
<polygon fill="#ffffff" stroke="#bfbfbf" points="0,-336.5 0,-355.5 51,-355.5 51,-336.5 0,-336.5"/>
<text text-anchor="middle" x="25.5" y="-343.5" font-family="Helvetica,sans-Serif" font-size="10.00" fill="#000000">cassert</text>
</g>
<!-- Node0&#45;&gt;Node1 -->
<g id="edge1" class="edge">
<title>Node0&#45;&gt;Node1</title>
<path fill="none" stroke="#191970" d="M181.8621,-392.4554C144.3313,-381.305 94.1241,-366.3883 60.8437,-356.5007"/>
<polygon fill="#191970" stroke="#191970" points="61.6742,-353.0963 51.0915,-353.6033 59.6806,-359.8064 61.6742,-353.0963"/>
</g>
<!-- Node2 -->
<g id="node3" class="node">
<title>Node2</title>
<polygon fill="#ffffff" stroke="#bfbfbf" points="69.5,-336.5 69.5,-355.5 131.5,-355.5 131.5,-336.5 69.5,-336.5"/>
<text text-anchor="middle" x="100.5" y="-343.5" font-family="Helvetica,sans-Serif" font-size="10.00" fill="#000000">functional</text>
</g>
<!-- Node0&#45;&gt;Node2 -->
<g id="edge2" class="edge">
<title>Node0&#45;&gt;Node2</title>
<path fill="none" stroke="#191970" d="M200.2092,-392.4554C178.8608,-382.509 151.0804,-369.5659 130.2667,-359.8686"/>
<polygon fill="#191970" stroke="#191970" points="131.4979,-356.581 120.9553,-355.5303 128.5416,-362.9262 131.4979,-356.581"/>
</g>
<!-- Node3 -->
<g id="node4" class="node">
<title>Node3</title>
<polygon fill="#ffffff" stroke="#bfbfbf" points="194.5,-56.5 194.5,-75.5 248.5,-75.5 248.5,-56.5 194.5,-56.5"/>
<text text-anchor="middle" x="221.5" y="-63.5" font-family="Helvetica,sans-Serif" font-size="10.00" fill="#000000">memory</text>
</g>
<!-- Node0&#45;&gt;Node3 -->
<g id="edge3" class="edge">
<title>Node0&#45;&gt;Node3</title>
<path fill="none" stroke="#191970" d="M215.2,-392.2766C193.6129,-371.5033 159.5,-332.0274 159.5,-290 159.5,-290 159.5,-290 159.5,-178 159.5,-140.5249 186.3977,-103.8272 204.7602,-83.1407"/>
<polygon fill="#191970" stroke="#191970" points="207.336,-85.5104 211.5386,-75.7848 202.1882,-80.7669 207.336,-85.5104"/>
</g>
<!-- Node4 -->
<g id="node5" class="node">
<title>Node4</title>
<polygon fill="#ffffff" stroke="#bfbfbf" points="563.5,-336.5 563.5,-355.5 599.5,-355.5 599.5,-336.5 563.5,-336.5"/>
<text text-anchor="middle" x="581.5" y="-343.5" font-family="Helvetica,sans-Serif" font-size="10.00" fill="#000000">new</text>
</g>
<!-- Node0&#45;&gt;Node4 -->
<g id="edge4" class="edge">
<title>Node0&#45;&gt;Node4</title>
<path fill="none" stroke="#191970" d="M308.6745,-398.2126C373.262,-389.6035 468.1057,-375.2271 549.5,-356 550.7745,-355.6989 552.0722,-355.3735 553.3792,-355.0304"/>
<polygon fill="#191970" stroke="#191970" points="554.705,-358.291 563.3477,-352.1628 552.7698,-351.5638 554.705,-358.291"/>
</g>
<!-- Node5 -->
<g id="node6" class="node">
<title>Node5</title>
<polygon fill="#ffffff" stroke="#bfbfbf" points="617.5,-336.5 617.5,-355.5 709.5,-355.5 709.5,-336.5 617.5,-336.5"/>
<text text-anchor="middle" x="663.5" y="-343.5" font-family="Helvetica,sans-Serif" font-size="10.00" fill="#000000">unordered_map</text>
</g>
<!-- Node0&#45;&gt;Node5 -->
<g id="edge5" class="edge">
<title>Node0&#45;&gt;Node5</title>
<path fill="none" stroke="#191970" d="M308.6204,-398.0661C382.4493,-388.6898 497.876,-373.4342 607.4113,-356.1222"/>
<polygon fill="#191970" stroke="#191970" points="607.9847,-359.5751 617.3115,-354.5492 606.8862,-352.6618 607.9847,-359.5751"/>
</g>
<!-- Node6 -->
<g id="node7" class="node">
<title>Node6</title>
<g id="a_node7"><a xlink:href="pdi__fwd_8h.html" target="_top" xlink:title="pdi/pdi_fwd.h">
<polygon fill="#ffffff" stroke="#000000" points="251,-112.5 251,-131.5 330,-131.5 330,-112.5 251,-112.5"/>
<text text-anchor="middle" x="290.5" y="-119.5" font-family="Helvetica,sans-Serif" font-size="10.00" fill="#000000">pdi/pdi_fwd.h</text>
</a>
</g>
</g>
<!-- Node0&#45;&gt;Node6 -->
<g id="edge6" class="edge">
<title>Node0&#45;&gt;Node6</title>
<path fill="none" stroke="#191970" d="M224.9055,-392.345C214.6117,-370.3663 197.5,-328.1003 197.5,-290 197.5,-290 197.5,-290 197.5,-234 197.5,-191.3531 237.9045,-156.267 265.4496,-137.3028"/>
<polygon fill="#191970" stroke="#191970" points="267.4693,-140.1632 273.8735,-131.7229 263.6037,-134.3273 267.4693,-140.1632"/>
</g>
<!-- Node11 -->
<g id="node12" class="node">
<title>Node11</title>
<g id="a_node12"><a xlink:href="datatype_8h.html" target="_top" xlink:title="pdi/datatype.h">
<polygon fill="#ffffff" stroke="#000000" points="226,-336.5 226,-355.5 309,-355.5 309,-336.5 226,-336.5"/>
<text text-anchor="middle" x="267.5" y="-343.5" font-family="Helvetica,sans-Serif" font-size="10.00" fill="#000000">pdi/datatype.h</text>
</a>
</g>
</g>
<!-- Node0&#45;&gt;Node11 -->
<g id="edge12" class="edge">
<title>Node0&#45;&gt;Node11</title>
<path fill="none" stroke="#191970" d="M241.1517,-392.2977C245.9088,-383.9388 251.8498,-373.4997 256.8857,-364.6509"/>
<polygon fill="#191970" stroke="#191970" points="259.9917,-366.2692 261.8961,-355.8469 253.9079,-362.8069 259.9917,-366.2692"/>
</g>
<!-- Node16 -->
<g id="node17" class="node">
<title>Node16</title>
<g id="a_node17"><a xlink:href="error_8h.html" target="_top" xlink:title="pdi/error.h">
<polygon fill="#ffffff" stroke="#000000" points="526,-168.5 526,-187.5 591,-187.5 591,-168.5 526,-168.5"/>
<text text-anchor="middle" x="558.5" y="-175.5" font-family="Helvetica,sans-Serif" font-size="10.00" fill="#000000">pdi/error.h</text>
</a>
</g>
</g>
<!-- Node0&#45;&gt;Node16 -->
<g id="edge23" class="edge">
<title>Node0&#45;&gt;Node16</title>
<path fill="none" stroke="#191970" d="M268.6684,-392.3205C325.1002,-367.396 435.4941,-313.5438 511.5,-244 526.5093,-230.2668 539.5603,-210.986 548.0753,-196.8088"/>
<polygon fill="#191970" stroke="#191970" points="551.2289,-198.3474 553.214,-187.9402 545.1722,-194.838 551.2289,-198.3474"/>
</g>
<!-- Node6&#45;&gt;Node3 -->
<g id="edge7" class="edge">
<title>Node6&#45;&gt;Node3</title>
<path fill="none" stroke="#191970" d="M278.4811,-112.2455C268.2902,-103.9746 253.4638,-91.9416 241.4893,-82.2232"/>
<polygon fill="#191970" stroke="#191970" points="243.3514,-79.2268 233.3812,-75.6427 238.9402,-84.662 243.3514,-79.2268"/>
</g>
<!-- Node7 -->
<g id="node8" class="node">
<title>Node7</title>
<g id="a_node8"><a xlink:href="pdi_8h.html" target="_top" xlink:title="pdi.h">
<polygon fill="#ffffff" stroke="#000000" points="291,-56.5 291,-75.5 330,-75.5 330,-56.5 291,-56.5"/>
<text text-anchor="middle" x="310.5" y="-63.5" font-family="Helvetica,sans-Serif" font-size="10.00" fill="#000000">pdi.h</text>
</a>
</g>
</g>
<!-- Node6&#45;&gt;Node7 -->
<g id="edge8" class="edge">
<title>Node6&#45;&gt;Node7</title>
<path fill="none" stroke="#191970" d="M293.9837,-112.2455C296.6508,-104.7776 300.4133,-94.2427 303.6737,-85.1137"/>
<polygon fill="#191970" stroke="#191970" points="306.9889,-86.2373 307.0562,-75.6427 300.3967,-83.8829 306.9889,-86.2373"/>
</g>
<!-- Node8 -->
<g id="node9" class="node">
<title>Node8</title>
<polygon fill="#ffffff" stroke="#bfbfbf" points="431,-.5 431,-19.5 498,-19.5 498,-.5 431,-.5"/>
<text text-anchor="middle" x="464.5" y="-7.5" font-family="Helvetica,sans-Serif" font-size="10.00" fill="#000000">paraconf.h</text>
</g>
<!-- Node7&#45;&gt;Node8 -->
<g id="edge9" class="edge">
<title>Node7&#45;&gt;Node8</title>
<path fill="none" stroke="#191970" d="M330.0042,-58.9076C354.7621,-49.9047 397.9446,-34.202 428.6989,-23.0186"/>
<polygon fill="#191970" stroke="#191970" points="430.0064,-26.2674 438.2083,-19.5606 427.6142,-19.6888 430.0064,-26.2674"/>
</g>
<!-- Node9 -->
<g id="node10" class="node">
<title>Node9</title>
<polygon fill="#ffffff" stroke="#bfbfbf" points="228.5,-.5 228.5,-19.5 300.5,-19.5 300.5,-.5 228.5,-.5"/>
<text text-anchor="middle" x="264.5" y="-7.5" font-family="Helvetica,sans-Serif" font-size="10.00" fill="#000000">pdi/export.h</text>
</g>
<!-- Node7&#45;&gt;Node9 -->
<g id="edge10" class="edge">
<title>Node7&#45;&gt;Node9</title>
<path fill="none" stroke="#191970" d="M302.4874,-56.2455C296.0232,-48.3761 286.7615,-37.101 279.0017,-27.6542"/>
<polygon fill="#191970" stroke="#191970" points="281.4727,-25.1484 272.4208,-19.6427 276.0636,-29.5916 281.4727,-25.1484"/>
</g>
<!-- Node10 -->
<g id="node11" class="node">
<title>Node10</title>
<polygon fill="#ffffff" stroke="#bfbfbf" points="319,-.5 319,-19.5 396,-19.5 396,-.5 319,-.5"/>
<text text-anchor="middle" x="357.5" y="-7.5" font-family="Helvetica,sans-Serif" font-size="10.00" fill="#000000">pdi/version.h</text>
</g>
<!-- Node7&#45;&gt;Node10 -->
<g id="edge11" class="edge">
<title>Node7&#45;&gt;Node10</title>
<path fill="none" stroke="#191970" d="M318.6868,-56.2455C325.3589,-48.2958 334.9479,-36.8706 342.9253,-27.3656"/>
<polygon fill="#191970" stroke="#191970" points="345.6592,-29.5525 349.407,-19.6427 340.2974,-25.0524 345.6592,-29.5525"/>
</g>
<!-- Node11&#45;&gt;Node6 -->
<g id="edge13" class="edge">
<title>Node11&#45;&gt;Node6</title>
<path fill="none" stroke="#191970" d="M265.2893,-336.1936C263.3202,-326.9241 260.5874,-312.5985 259.5,-300 254.4594,-241.5983 273.2969,-173.6097 283.8374,-141.1513"/>
<polygon fill="#191970" stroke="#191970" points="287.189,-142.1648 287.0474,-131.5709 280.5517,-139.9408 287.189,-142.1648"/>
</g>
<!-- Node12 -->
<g id="node13" class="node">
<title>Node12</title>
<g id="a_node13"><a xlink:href="datatype__template_8h.html" target="_top" xlink:title="pdi/datatype_template.h">
<polygon fill="#ffffff" stroke="#000000" points="268.5,-280.5 268.5,-299.5 398.5,-299.5 398.5,-280.5 268.5,-280.5"/>
<text text-anchor="middle" x="333.5" y="-287.5" font-family="Helvetica,sans-Serif" font-size="10.00" fill="#000000">pdi/datatype_template.h</text>
</a>
</g>
</g>
<!-- Node11&#45;&gt;Node12 -->
<g id="edge14" class="edge">
<title>Node11&#45;&gt;Node12</title>
<path fill="none" stroke="#191970" d="M278.9963,-336.2455C288.7442,-327.9746 302.9259,-315.9416 314.3798,-306.2232"/>
<polygon fill="#191970" stroke="#191970" points="316.7747,-308.7813 322.1354,-299.6427 312.2459,-303.4437 316.7747,-308.7813"/>
</g>
<!-- Node12&#45;&gt;Node6 -->
<g id="edge16" class="edge">
<title>Node12&#45;&gt;Node6</title>
<path fill="none" stroke="#191970" d="M320.8398,-280.2217C311.0615,-271.8188 298.2577,-258.7488 292.5,-244 279.206,-209.9466 282.9262,-166.3656 286.763,-141.5765"/>
<polygon fill="#191970" stroke="#191970" points="290.2313,-142.059 288.4733,-131.611 283.3322,-140.8749 290.2313,-142.059"/>
</g>
<!-- Node12&#45;&gt;Node8 -->
<g id="edge15" class="edge">
<title>Node12&#45;&gt;Node8</title>
<path fill="none" stroke="#191970" d="M376.5891,-280.4175C425.1794,-266.7703 497.5,-236.6131 497.5,-178 497.5,-178 497.5,-178 497.5,-122 497.5,-88.051 483.3765,-50.5869 473.6089,-28.7366"/>
<polygon fill="#191970" stroke="#191970" points="476.7552,-27.202 469.3693,-19.6061 470.4063,-30.1501 476.7552,-27.202"/>
</g>
<!-- Node13 -->
<g id="node14" class="node">
<title>Node13</title>
<g id="a_node14"><a xlink:href="logger_8h.html" target="_top" xlink:title="pdi/logger.h">
<polygon fill="#ffffff" stroke="#000000" points="301.5,-224.5 301.5,-243.5 373.5,-243.5 373.5,-224.5 301.5,-224.5"/>
<text text-anchor="middle" x="337.5" y="-231.5" font-family="Helvetica,sans-Serif" font-size="10.00" fill="#000000">pdi/logger.h</text>
</a>
</g>
</g>
<!-- Node12&#45;&gt;Node13 -->
<g id="edge17" class="edge">
<title>Node12&#45;&gt;Node13</title>
<path fill="none" stroke="#191970" d="M334.1967,-280.2455C334.7187,-272.9382 335.4504,-262.6944 336.0925,-253.7046"/>
<polygon fill="#191970" stroke="#191970" points="339.5898,-253.8667 336.8112,-243.6427 332.6076,-253.3679 339.5898,-253.8667"/>
</g>
<!-- Node13&#45;&gt;Node6 -->
<g id="edge18" class="edge">
<title>Node13&#45;&gt;Node6</title>
<path fill="none" stroke="#191970" d="M333.4928,-224.4509C325.7578,-206.0186 308.6392,-165.2254 298.4913,-141.043"/>
<polygon fill="#191970" stroke="#191970" points="301.594,-139.3915 294.4971,-131.5249 295.1393,-142.1002 301.594,-139.3915"/>
</g>
<!-- Node14 -->
<g id="node15" class="node">
<title>Node14</title>
<g id="a_node15"><a xlink:href="paraconf__wrapper_8h.html" target="_top" xlink:title="pdi/paraconf_wrapper.h">
<polygon fill="#ffffff" stroke="#000000" points="340,-168.5 340,-187.5 469,-187.5 469,-168.5 340,-168.5"/>
<text text-anchor="middle" x="404.5" y="-175.5" font-family="Helvetica,sans-Serif" font-size="10.00" fill="#000000">pdi/paraconf_wrapper.h</text>
</a>
</g>
</g>
<!-- Node13&#45;&gt;Node14 -->
<g id="edge19" class="edge">
<title>Node13&#45;&gt;Node14</title>
<path fill="none" stroke="#191970" d="M349.1705,-224.2455C359.0661,-215.9746 373.4627,-203.9416 385.0901,-194.2232"/>
<polygon fill="#191970" stroke="#191970" points="387.535,-196.7413 392.9632,-187.6427 383.0458,-191.3703 387.535,-196.7413"/>
</g>
<!-- Node14&#45;&gt;Node6 -->
<g id="edge22" class="edge">
<title>Node14&#45;&gt;Node6</title>
<path fill="none" stroke="#191970" d="M384.9027,-168.3733C366.7669,-159.4644 339.5865,-146.1127 319.0413,-136.0203"/>
<polygon fill="#191970" stroke="#191970" points="320.3603,-132.7688 309.8416,-131.5011 317.2739,-139.0517 320.3603,-132.7688"/>
</g>
<!-- Node14&#45;&gt;Node8 -->
<g id="edge21" class="edge">
<title>Node14&#45;&gt;Node8</title>
<path fill="none" stroke="#191970" d="M405.6602,-168.4213C407.3983,-155.417 411.1685,-131.5547 417.5,-112 427.3137,-81.6908 443.7467,-48.5195 454.3514,-28.487"/>
<polygon fill="#191970" stroke="#191970" points="457.5116,-30.0004 459.1673,-19.5357 451.3471,-26.6838 457.5116,-30.0004"/>
</g>
<!-- Node15 -->
<g id="node16" class="node">
<title>Node15</title>
<polygon fill="#ffffff" stroke="#bfbfbf" points="426,-112.5 426,-131.5 469,-131.5 469,-112.5 426,-112.5"/>
<text text-anchor="middle" x="447.5" y="-119.5" font-family="Helvetica,sans-Serif" font-size="10.00" fill="#000000">string</text>
</g>
<!-- Node14&#45;&gt;Node15 -->
<g id="edge20" class="edge">
<title>Node14&#45;&gt;Node15</title>
<path fill="none" stroke="#191970" d="M411.99,-168.2455C418.0326,-160.3761 426.6903,-149.101 433.9441,-139.6542"/>
<polygon fill="#191970" stroke="#191970" points="436.7815,-141.7058 440.0958,-131.6427 431.2295,-137.4426 436.7815,-141.7058"/>
</g>
<!-- Node16&#45;&gt;Node6 -->
<g id="edge27" class="edge">
<title>Node16&#45;&gt;Node6</title>
<path fill="none" stroke="#191970" d="M525.9059,-171.1893C479.6449,-161.5228 394.5521,-143.7422 340.3387,-132.4141"/>
<polygon fill="#191970" stroke="#191970" points="340.7646,-128.9275 330.2601,-130.3081 339.3328,-135.7795 340.7646,-128.9275"/>
</g>
<!-- Node16&#45;&gt;Node8 -->
<g id="edge26" class="edge">
<title>Node16&#45;&gt;Node8</title>
<path fill="none" stroke="#191970" d="M556.3188,-168.4845C551.1028,-147.0545 536.4515,-93.9237 511.5,-56 504.2194,-44.9342 493.885,-34.4508 484.7599,-26.2946"/>
<polygon fill="#191970" stroke="#191970" points="487.0269,-23.6279 477.1594,-19.7699 482.4673,-28.9392 487.0269,-23.6279"/>
</g>
<!-- Node16&#45;&gt;Node15 -->
<g id="edge25" class="edge">
<title>Node16&#45;&gt;Node15</title>
<path fill="none" stroke="#191970" d="M539.4184,-168.3733C521.7598,-159.4644 495.2947,-146.1127 475.2902,-136.0203"/>
<polygon fill="#191970" stroke="#191970" points="476.8372,-132.8806 466.3326,-131.5011 473.6842,-139.1303 476.8372,-132.8806"/>
</g>
<!-- Node17 -->
<g id="node18" class="node">
<title>Node17</title>
<polygon fill="#ffffff" stroke="#bfbfbf" points="563.5,-112.5 563.5,-131.5 625.5,-131.5 625.5,-112.5 563.5,-112.5"/>
<text text-anchor="middle" x="594.5" y="-119.5" font-family="Helvetica,sans-Serif" font-size="10.00" fill="#000000">exception</text>
</g>
<!-- Node16&#45;&gt;Node17 -->
<g id="edge24" class="edge">
<title>Node16&#45;&gt;Node17</title>
<path fill="none" stroke="#191970" d="M564.7707,-168.2455C569.7264,-160.5367 576.783,-149.5598 582.7776,-140.2348"/>
<polygon fill="#191970" stroke="#191970" points="585.8376,-141.9471 588.3011,-131.6427 579.9494,-138.1618 585.8376,-141.9471"/>
</g>
</g>
</svg>
        <g id="navigator" transform="translate(0 0)" fill="#404254">
                <rect fill="#f2f5e9" fill-opacity="0.5" stroke="#606060" stroke-width=".5" x="0" y="0" width="60" height="60"/>
                <use id="zoomplus" xlink:href="#zoomPlus" x="17" y="9" onmousedown="handleZoom(evt,'in')"/>
                <use id="zoomminus" xlink:href="#zoomMin" x="42" y="9" onmousedown="handleZoom(evt,'out')"/>
                <use id="reset" xlink:href="#resetDef" x="30" y="36" onmousedown="handleReset()"/>
                <g id="arrowUp" xlink:href="#dirArrow" transform="translate(30 24)" onmousedown="handlePan(0,-1)">
                  <use xlink:href="#rim" fill="#404040">
                        <set attributeName="fill" to="#808080" begin="arrowUp.mouseover" end="arrowUp.mouseout"/>
                  </use>
                  <path fill="none" stroke="white" stroke-width="1.5" d="M0,-3.0v7 M-2.5,-0.5L0,-3.0L2.5,-0.5"/>
                </g>
                <g id="arrowRight" xlink:href="#dirArrow" transform="rotate(90) translate(36 -43)" onmousedown="handlePan(1,0)">
                  <use xlink:href="#rim" fill="#404040">
                        <set attributeName="fill" to="#808080" begin="arrowRight.mouseover" end="arrowRight.mouseout"/>
                  </use>
                  <path fill="none" stroke="white" stroke-width="1.5" d="M0,-3.0v7 M-2.5,-0.5L0,-3.0L2.5,-0.5"/>
                </g>
                <g id="arrowDown" xlink:href="#dirArrow" transform="rotate(180) translate(-30 -48)" onmousedown="handlePan(0,1)">
                  <use xlink:href="#rim" fill="#404040">
                        <set attributeName="fill" to="#808080" begin="arrowDown.mouseover" end="arrowDown.mouseout"/>
                  </use>
                  <path fill="none" stroke="white" stroke-width="1.5" d="M0,-3.0v7 M-2.5,-0.5L0,-3.0L2.5,-0.5"/>
                </g>
                <g id="arrowLeft" xlink:href="#dirArrow" transform="rotate(270) translate(-36 17)" onmousedown="handlePan(-1,0)">
                  <use xlink:href="#rim" fill="#404040">
                        <set attributeName="fill" to="#808080" begin="arrowLeft.mouseover" end="arrowLeft.mouseout"/>
                  </use>
                  <path fill="none" stroke="white" stroke-width="1.5" d="M0,-3.0v7 M-2.5,-0.5L0,-3.0L2.5,-0.5"/>
                </g>
        </g>
        <svg viewBox="0 0 15 15" width="100%" height="30px" preserveAspectRatio="xMaxYMin meet">
         <g id="arrow_out" transform="scale(0.3 0.3)">
          <a xlink:href="ref__any_8h__incl_org.svg" target="_base">
           <rect id="button" ry="5" rx="5" y="6" x="6" height="38" width="38"
                fill="#f2f5e9" fill-opacity="0.5" stroke="#606060" stroke-width="1.0"/>
           <path id="arrow"
             d="M 11.500037,31.436501 C 11.940474,20.09759 22.043105,11.32322 32.158766,21.979434 L 37.068811,17.246167 C 37.068811,17.246167 37.088388,32 37.088388,32 L 22.160133,31.978069 C 22.160133,31.978069 26.997745,27.140456 26.997745,27.140456 C 18.528582,18.264221 13.291696,25.230495 11.500037,31.436501 z"
             style="fill:#404040;"/>
          </a>
         </g>
        </svg>
</svg>
