<?xml version="1.0" encoding="UTF-8" standalone="no"?>
<!DOCTYPE svg PUBLIC "-//W3C//DTD SVG 1.1//EN"
 "http://www.w3.org/Graphics/SVG/1.1/DTD/svg11.dtd">
<!-- Generated by graphviz version 2.40.1 (20161225.0304)
 -->
<!-- Title: /home/jbigot/data/projects/pdi/pdi/src/ref_any.cxx Pages: 1 -->
<svg width="897pt" height="487pt"
 viewBox="0.00 0.00 896.50 487.00" xmlns="http://www.w3.org/2000/svg" xmlns:xlink="http://www.w3.org/1999/xlink">
<g id="graph0" class="graph" transform="scale(1 1) rotate(0) translate(4 483)">
<title>/home/jbigot/data/projects/pdi/pdi/src/ref_any.cxx</title>
<polygon fill="#ffffff" stroke="transparent" points="-4,4 -4,-483 892.5,-483 892.5,4 -4,4"/>
<!-- Node0 -->
<g id="node1" class="node">
<title>Node0</title>
<polygon fill="#bfbfbf" stroke="#000000" points="270.5,-448.5 270.5,-478.5 408.5,-478.5 408.5,-448.5 270.5,-448.5"/>
<text text-anchor="start" x="278.5" y="-466.5" font-family="Helvetica,sans-Serif" font-size="10.00" fill="#000000">/home/jbigot/data/projects</text>
<text text-anchor="middle" x="339.5" y="-455.5" font-family="Helvetica,sans-Serif" font-size="10.00" fill="#000000">/pdi/pdi/src/ref_any.cxx</text>
</g>
<!-- Node1 -->
<g id="node2" class="node">
<title>Node1</title>
<polygon fill="#ffffff" stroke="#bfbfbf" points="0,-392.5 0,-411.5 53,-411.5 53,-392.5 0,-392.5"/>
<text text-anchor="middle" x="26.5" y="-399.5" font-family="Helvetica,sans-Serif" font-size="10.00" fill="#000000">config.h</text>
</g>
<!-- Node0&#45;&gt;Node1 -->
<g id="edge1" class="edge">
<title>Node0&#45;&gt;Node1</title>
<path fill="none" stroke="#191970" d="M270.2677,-451.4193C215.1765,-441.5588 136.1984,-426.8709 67.5,-412 66.0678,-411.69 64.6092,-411.3674 63.137,-411.036"/>
<polygon fill="#191970" stroke="#191970" points="63.8928,-407.6185 53.36,-408.7634 62.3079,-414.4367 63.8928,-407.6185"/>
</g>
<!-- Node2 -->
<g id="node3" class="node">
<title>Node2</title>
<polygon fill="#ffffff" stroke="#bfbfbf" points="110,-336.5 110,-355.5 161,-355.5 161,-336.5 110,-336.5"/>
<text text-anchor="middle" x="135.5" y="-343.5" font-family="Helvetica,sans-Serif" font-size="10.00" fill="#000000">cassert</text>
</g>
<!-- Node0&#45;&gt;Node2 -->
<g id="edge2" class="edge">
<title>Node0&#45;&gt;Node2</title>
<path fill="none" stroke="#191970" d="M332.2844,-448.3812C323.7773,-432.1338 308.1424,-406.6725 287.5,-392 277.8463,-385.1382 212.6708,-366.7633 170.8574,-355.4225"/>
<polygon fill="#191970" stroke="#191970" points="171.6019,-351.9982 161.0352,-352.7711 169.7775,-358.7563 171.6019,-351.9982"/>
</g>
<!-- Node3 -->
<g id="node4" class="node">
<title>Node3</title>
<polygon fill="#ffffff" stroke="#bfbfbf" points="109.5,-392.5 109.5,-411.5 157.5,-411.5 157.5,-392.5 109.5,-392.5"/>
<text text-anchor="middle" x="133.5" y="-399.5" font-family="Helvetica,sans-Serif" font-size="10.00" fill="#000000">cstring</text>
</g>
<!-- Node0&#45;&gt;Node3 -->
<g id="edge3" class="edge">
<title>Node0&#45;&gt;Node3</title>
<path fill="none" stroke="#191970" d="M288.7619,-448.467C256.4952,-438.8905 213.581,-426.1241 167.2651,-412.221"/>
<polygon fill="#191970" stroke="#191970" points="168.2306,-408.8566 157.6464,-409.332 166.2169,-415.5607 168.2306,-408.8566"/>
</g>
<!-- Node4 -->
<g id="node5" class="node">
<title>Node4</title>
<polygon fill="#ffffff" stroke="#bfbfbf" points="176,-392.5 176,-411.5 223,-411.5 223,-392.5 176,-392.5"/>
<text text-anchor="middle" x="199.5" y="-399.5" font-family="Helvetica,sans-Serif" font-size="10.00" fill="#000000">cstdint</text>
</g>
<!-- Node0&#45;&gt;Node4 -->
<g id="edge4" class="edge">
<title>Node0&#45;&gt;Node4</title>
<path fill="none" stroke="#191970" d="M305.2521,-448.4554C282.4051,-438.419 252.6121,-425.3314 230.4733,-415.6061"/>
<polygon fill="#191970" stroke="#191970" points="231.7583,-412.3478 221.195,-411.5303 228.9429,-418.7567 231.7583,-412.3478"/>
</g>
<!-- Node5 -->
<g id="node6" class="node">
<title>Node5</title>
<polygon fill="#ffffff" stroke="#bfbfbf" points="241,-392.5 241,-411.5 278,-411.5 278,-392.5 241,-392.5"/>
<text text-anchor="middle" x="259.5" y="-399.5" font-family="Helvetica,sans-Serif" font-size="10.00" fill="#000000">map</text>
</g>
<!-- Node0&#45;&gt;Node5 -->
<g id="edge5" class="edge">
<title>Node0&#45;&gt;Node5</title>
<path fill="none" stroke="#191970" d="M319.7247,-448.2977C307.8102,-439.1384 292.6468,-427.4816 280.5162,-418.1562"/>
<polygon fill="#191970" stroke="#191970" points="282.3703,-415.1668 272.309,-411.8469 278.104,-420.7165 282.3703,-415.1668"/>
</g>
<!-- Node6 -->
<g id="node7" class="node">
<title>Node6</title>
<polygon fill="#ffffff" stroke="#bfbfbf" points="139.5,-56.5 139.5,-75.5 193.5,-75.5 193.5,-56.5 139.5,-56.5"/>
<text text-anchor="middle" x="166.5" y="-63.5" font-family="Helvetica,sans-Serif" font-size="10.00" fill="#000000">memory</text>
</g>
<!-- Node0&#45;&gt;Node6 -->
<g id="edge6" class="edge">
<title>Node0&#45;&gt;Node6</title>
<path fill="none" stroke="#191970" d="M270.2512,-456.4832C208.6865,-448.8713 124.771,-434.6728 100.5,-412 78.1939,-391.1627 81.5,-376.5246 81.5,-346 81.5,-346 81.5,-346 81.5,-178 81.5,-136.7307 118.5727,-101.1225 143.7512,-81.6976"/>
<polygon fill="#191970" stroke="#191970" points="146.1344,-84.2877 152.0809,-75.519 141.9641,-78.6655 146.1344,-84.2877"/>
</g>
<!-- Node7 -->
<g id="node8" class="node">
<title>Node7</title>
<polygon fill="#ffffff" stroke="#bfbfbf" points="842.5,-336.5 842.5,-355.5 888.5,-355.5 888.5,-336.5 842.5,-336.5"/>
<text text-anchor="middle" x="865.5" y="-343.5" font-family="Helvetica,sans-Serif" font-size="10.00" fill="#000000">vector</text>
</g>
<!-- Node0&#45;&gt;Node7 -->
<g id="edge7" class="edge">
<title>Node0&#45;&gt;Node7</title>
<path fill="none" stroke="#191970" d="M408.6996,-461.7966C544.5002,-457.7361 835.3738,-445.2199 865.5,-412 876.541,-399.8252 875.2094,-380.5736 871.9038,-365.9976"/>
<polygon fill="#191970" stroke="#191970" points="875.173,-364.6828 869.1634,-355.9573 868.42,-366.526 875.173,-364.6828"/>
</g>
<!-- Node8 -->
<g id="node9" class="node">
<title>Node8</title>
<g id="a_node9"><a xlink:href="array__datatype_8h.html" target="_top" xlink:title="pdi/array_datatype.h">
<polygon fill="#ffffff" stroke="#000000" points="604.5,-392.5 604.5,-411.5 718.5,-411.5 718.5,-392.5 604.5,-392.5"/>
<text text-anchor="middle" x="661.5" y="-399.5" font-family="Helvetica,sans-Serif" font-size="10.00" fill="#000000">pdi/array_datatype.h</text>
</a>
</g>
</g>
<!-- Node0&#45;&gt;Node8 -->
<g id="edge8" class="edge">
<title>Node0&#45;&gt;Node8</title>
<path fill="none" stroke="#191970" d="M408.5771,-450.3067C465.9857,-439.342 546.8445,-423.8985 601.56,-413.4482"/>
<polygon fill="#191970" stroke="#191970" points="602.295,-416.8711 611.4608,-411.5572 600.9817,-409.9954 602.295,-416.8711"/>
</g>
<!-- Node14 -->
<g id="node15" class="node">
<title>Node14</title>
<g id="a_node15"><a xlink:href="datatype_8h.html" target="_top" xlink:title="pdi/datatype.h">
<polygon fill="#ffffff" stroke="#000000" points="586,-336.5 586,-355.5 669,-355.5 669,-336.5 586,-336.5"/>
<text text-anchor="middle" x="627.5" y="-343.5" font-family="Helvetica,sans-Serif" font-size="10.00" fill="#000000">pdi/datatype.h</text>
</a>
</g>
</g>
<!-- Node0&#45;&gt;Node14 -->
<g id="edge26" class="edge">
<title>Node0&#45;&gt;Node14</title>
<path fill="none" stroke="#191970" d="M408.5879,-456.5435C453.1803,-449.853 511.2764,-436.8926 557.5,-412 579.8737,-399.9512 600.3775,-378.9129 613.3317,-363.8256"/>
<polygon fill="#191970" stroke="#191970" points="616.3476,-365.6723 620.0436,-355.743 610.9624,-361.2003 616.3476,-365.6723"/>
</g>
<!-- Node19 -->
<g id="node20" class="node">
<title>Node19</title>
<g id="a_node20"><a xlink:href="record__datatype_8h.html" target="_top" xlink:title="pdi/record_datatype.h">
<polygon fill="#ffffff" stroke="#000000" points="736.5,-392.5 736.5,-411.5 856.5,-411.5 856.5,-392.5 736.5,-392.5"/>
<text text-anchor="middle" x="796.5" y="-399.5" font-family="Helvetica,sans-Serif" font-size="10.00" fill="#000000">pdi/record_datatype.h</text>
</a>
</g>
</g>
<!-- Node0&#45;&gt;Node19 -->
<g id="edge27" class="edge">
<title>Node0&#45;&gt;Node19</title>
<path fill="none" stroke="#191970" d="M408.5705,-454.5856C483.9912,-444.7942 608.6323,-428.4459 726.0485,-412.1896"/>
<polygon fill="#191970" stroke="#191970" points="726.8709,-415.6091 736.2953,-410.7686 725.9092,-408.6755 726.8709,-415.6091"/>
</g>
<!-- Node20 -->
<g id="node21" class="node">
<title>Node20</title>
<g id="a_node21"><a xlink:href="scalar__datatype_8h.html" target="_top" xlink:title="pdi/scalar_datatype.h">
<polygon fill="#ffffff" stroke="#000000" points="430.5,-392.5 430.5,-411.5 548.5,-411.5 548.5,-392.5 430.5,-392.5"/>
<text text-anchor="middle" x="489.5" y="-399.5" font-family="Helvetica,sans-Serif" font-size="10.00" fill="#000000">pdi/scalar_datatype.h</text>
</a>
</g>
</g>
<!-- Node0&#45;&gt;Node20 -->
<g id="edge31" class="edge">
<title>Node0&#45;&gt;Node20</title>
<path fill="none" stroke="#191970" d="M376.1941,-448.4554C400.8927,-438.329 433.1674,-425.0964 456.9506,-415.3453"/>
<polygon fill="#191970" stroke="#191970" points="458.3306,-418.5623 466.2553,-411.5303 455.675,-412.0855 458.3306,-418.5623"/>
</g>
<!-- Node22 -->
<g id="node23" class="node">
<title>Node22</title>
<g id="a_node23"><a xlink:href="ref__any_8h.html" target="_top" xlink:title="pdi/ref_any.h">
<polygon fill="#ffffff" stroke="#000000" points="334.5,-392.5 334.5,-411.5 412.5,-411.5 412.5,-392.5 334.5,-392.5"/>
<text text-anchor="middle" x="373.5" y="-399.5" font-family="Helvetica,sans-Serif" font-size="10.00" fill="#000000">pdi/ref_any.h</text>
</a>
</g>
</g>
<!-- Node0&#45;&gt;Node22 -->
<g id="edge35" class="edge">
<title>Node0&#45;&gt;Node22</title>
<path fill="none" stroke="#191970" d="M347.9045,-448.2977C352.5257,-439.9388 358.2969,-429.4997 363.1889,-420.6509"/>
<polygon fill="#191970" stroke="#191970" points="366.2809,-422.292 368.0562,-411.8469 360.1548,-418.9051 366.2809,-422.292"/>
</g>
<!-- Node9 -->
<g id="node10" class="node">
<title>Node9</title>
<g id="a_node10"><a xlink:href="pdi__fwd_8h.html" target="_top" xlink:title="pdi/pdi_fwd.h">
<polygon fill="#ffffff" stroke="#000000" points="521,-112.5 521,-131.5 600,-131.5 600,-112.5 521,-112.5"/>
<text text-anchor="middle" x="560.5" y="-119.5" font-family="Helvetica,sans-Serif" font-size="10.00" fill="#000000">pdi/pdi_fwd.h</text>
</a>
</g>
</g>
<!-- Node8&#45;&gt;Node9 -->
<g id="edge9" class="edge">
<title>Node8&#45;&gt;Node9</title>
<path fill="none" stroke="#191970" d="M678.8417,-392.4601C706.7423,-375.6916 758.5,-338.1023 758.5,-290 758.5,-290 758.5,-290 758.5,-234 758.5,-166.007 668.9501,-138.8117 610.297,-128.2916"/>
<polygon fill="#191970" stroke="#191970" points="610.535,-124.7824 600.0924,-126.5718 609.3716,-131.6851 610.535,-124.7824"/>
</g>
<!-- Node8&#45;&gt;Node14 -->
<g id="edge15" class="edge">
<title>Node8&#45;&gt;Node14</title>
<path fill="none" stroke="#191970" d="M655.5777,-392.2455C650.8973,-384.5367 644.2327,-373.5598 638.5711,-364.2348"/>
<polygon fill="#191970" stroke="#191970" points="641.5361,-362.3741 633.3545,-355.6427 635.5525,-366.007 641.5361,-362.3741"/>
</g>
<!-- Node9&#45;&gt;Node6 -->
<g id="edge10" class="edge">
<title>Node9&#45;&gt;Node6</title>
<path fill="none" stroke="#191970" d="M520.9178,-116.3741C444.6597,-105.5354 278.3454,-81.8968 203.8683,-71.3112"/>
<polygon fill="#191970" stroke="#191970" points="203.9609,-67.7893 193.5679,-69.8472 202.9758,-74.7196 203.9609,-67.7893"/>
</g>
<!-- Node10 -->
<g id="node11" class="node">
<title>Node10</title>
<g id="a_node11"><a xlink:href="pdi_8h.html" target="_top" xlink:title="pdi.h">
<polygon fill="#ffffff" stroke="#000000" points="529,-56.5 529,-75.5 568,-75.5 568,-56.5 529,-56.5"/>
<text text-anchor="middle" x="548.5" y="-63.5" font-family="Helvetica,sans-Serif" font-size="10.00" fill="#000000">pdi.h</text>
</a>
</g>
</g>
<!-- Node9&#45;&gt;Node10 -->
<g id="edge11" class="edge">
<title>Node9&#45;&gt;Node10</title>
<path fill="none" stroke="#191970" d="M558.4098,-112.2455C556.8439,-104.9382 554.6488,-94.6944 552.7224,-85.7046"/>
<polygon fill="#191970" stroke="#191970" points="556.084,-84.6873 550.5663,-75.6427 549.2393,-86.1541 556.084,-84.6873"/>
</g>
<!-- Node11 -->
<g id="node12" class="node">
<title>Node11</title>
<polygon fill="#ffffff" stroke="#bfbfbf" points="387,-.5 387,-19.5 454,-19.5 454,-.5 387,-.5"/>
<text text-anchor="middle" x="420.5" y="-7.5" font-family="Helvetica,sans-Serif" font-size="10.00" fill="#000000">paraconf.h</text>
</g>
<!-- Node10&#45;&gt;Node11 -->
<g id="edge12" class="edge">
<title>Node10&#45;&gt;Node11</title>
<path fill="none" stroke="#191970" d="M528.7805,-57.3727C508.3177,-48.4202 476.0091,-34.2852 452.0033,-23.7827"/>
<polygon fill="#191970" stroke="#191970" points="453.1709,-20.4733 442.6065,-19.6716 450.3651,-26.8864 453.1709,-20.4733"/>
</g>
<!-- Node12 -->
<g id="node13" class="node">
<title>Node12</title>
<polygon fill="#ffffff" stroke="#bfbfbf" points="594.5,-.5 594.5,-19.5 666.5,-19.5 666.5,-.5 594.5,-.5"/>
<text text-anchor="middle" x="630.5" y="-7.5" font-family="Helvetica,sans-Serif" font-size="10.00" fill="#000000">pdi/export.h</text>
</g>
<!-- Node10&#45;&gt;Node12 -->
<g id="edge13" class="edge">
<title>Node10&#45;&gt;Node12</title>
<path fill="none" stroke="#191970" d="M562.7833,-56.2455C575.247,-47.7337 593.5451,-35.2375 607.9792,-25.3801"/>
<polygon fill="#191970" stroke="#191970" points="610.0962,-28.1726 616.3804,-19.6427 606.1485,-22.392 610.0962,-28.1726"/>
</g>
<!-- Node13 -->
<g id="node14" class="node">
<title>Node13</title>
<polygon fill="#ffffff" stroke="#bfbfbf" points="499,-.5 499,-19.5 576,-19.5 576,-.5 499,-.5"/>
<text text-anchor="middle" x="537.5" y="-7.5" font-family="Helvetica,sans-Serif" font-size="10.00" fill="#000000">pdi/version.h</text>
</g>
<!-- Node10&#45;&gt;Node13 -->
<g id="edge14" class="edge">
<title>Node10&#45;&gt;Node13</title>
<path fill="none" stroke="#191970" d="M546.5839,-56.2455C545.1486,-48.9382 543.1364,-38.6944 541.3705,-29.7046"/>
<polygon fill="#191970" stroke="#191970" points="544.756,-28.7805 539.3941,-19.6427 537.8873,-30.1298 544.756,-28.7805"/>
</g>
<!-- Node14&#45;&gt;Node9 -->
<g id="edge16" class="edge">
<title>Node14&#45;&gt;Node9</title>
<path fill="none" stroke="#191970" d="M655.9381,-336.3621C672.4279,-329.1374 691.799,-317.4529 701.5,-300 705.8185,-292.2306 703.9505,-288.5444 701.5,-280 685.3173,-223.5744 672.668,-209.8441 631.5,-168 619.1972,-155.4952 602.9196,-144.6458 589.054,-136.6291"/>
<polygon fill="#191970" stroke="#191970" points="590.3587,-133.3498 579.9186,-131.5461 586.9552,-139.4667 590.3587,-133.3498"/>
</g>
<!-- Node15 -->
<g id="node16" class="node">
<title>Node15</title>
<g id="a_node16"><a xlink:href="datatype__template_8h.html" target="_top" xlink:title="pdi/datatype_template.h">
<polygon fill="#ffffff" stroke="#000000" points="562.5,-280.5 562.5,-299.5 692.5,-299.5 692.5,-280.5 562.5,-280.5"/>
<text text-anchor="middle" x="627.5" y="-287.5" font-family="Helvetica,sans-Serif" font-size="10.00" fill="#000000">pdi/datatype_template.h</text>
</a>
</g>
</g>
<!-- Node14&#45;&gt;Node15 -->
<g id="edge17" class="edge">
<title>Node14&#45;&gt;Node15</title>
<path fill="none" stroke="#191970" d="M627.5,-336.2455C627.5,-328.9382 627.5,-318.6944 627.5,-309.7046"/>
<polygon fill="#191970" stroke="#191970" points="631.0001,-309.6426 627.5,-299.6427 624.0001,-309.6427 631.0001,-309.6426"/>
</g>
<!-- Node15&#45;&gt;Node9 -->
<g id="edge19" class="edge">
<title>Node15&#45;&gt;Node9</title>
<path fill="none" stroke="#191970" d="M633.2471,-280.4206C640.2812,-267.4155 650.45,-243.5523 643.5,-224 630.9998,-188.8333 600.6182,-156.9861 580.29,-138.5593"/>
<polygon fill="#191970" stroke="#191970" points="582.3527,-135.7122 572.5333,-131.7335 577.7284,-140.9673 582.3527,-135.7122"/>
</g>
<!-- Node15&#45;&gt;Node11 -->
<g id="edge18" class="edge">
<title>Node15&#45;&gt;Node11</title>
<path fill="none" stroke="#191970" d="M585.9877,-280.4576C516.9387,-263.6516 383.3924,-226.8561 356.5,-188 340.8836,-165.4364 370.2265,-156.5428 382.5,-132 399.6233,-97.7595 410.9286,-54.2437 416.4787,-29.5169"/>
<polygon fill="#191970" stroke="#191970" points="419.935,-30.0924 418.624,-19.579 413.0927,-28.6152 419.935,-30.0924"/>
</g>
<!-- Node16 -->
<g id="node17" class="node">
<title>Node16</title>
<g id="a_node17"><a xlink:href="logger_8h.html" target="_top" xlink:title="pdi/logger.h">
<polygon fill="#ffffff" stroke="#000000" points="562.5,-224.5 562.5,-243.5 634.5,-243.5 634.5,-224.5 562.5,-224.5"/>
<text text-anchor="middle" x="598.5" y="-231.5" font-family="Helvetica,sans-Serif" font-size="10.00" fill="#000000">pdi/logger.h</text>
</a>
</g>
</g>
<!-- Node15&#45;&gt;Node16 -->
<g id="edge20" class="edge">
<title>Node15&#45;&gt;Node16</title>
<path fill="none" stroke="#191970" d="M622.4486,-280.2455C618.4981,-272.617 612.8903,-261.7881 608.0942,-252.5267"/>
<polygon fill="#191970" stroke="#191970" points="611.2001,-250.9131 603.4935,-243.6427 604.9841,-254.1321 611.2001,-250.9131"/>
</g>
<!-- Node16&#45;&gt;Node9 -->
<g id="edge21" class="edge">
<title>Node16&#45;&gt;Node9</title>
<path fill="none" stroke="#191970" d="M595.2601,-224.4509C589.0063,-206.0186 575.1658,-165.2254 566.961,-141.043"/>
<polygon fill="#191970" stroke="#191970" points="570.2591,-139.8701 563.7317,-131.5249 563.6303,-142.1192 570.2591,-139.8701"/>
</g>
<!-- Node17 -->
<g id="node18" class="node">
<title>Node17</title>
<g id="a_node18"><a xlink:href="paraconf__wrapper_8h.html" target="_top" xlink:title="pdi/paraconf_wrapper.h">
<polygon fill="#ffffff" stroke="#000000" points="365,-168.5 365,-187.5 494,-187.5 494,-168.5 365,-168.5"/>
<text text-anchor="middle" x="429.5" y="-175.5" font-family="Helvetica,sans-Serif" font-size="10.00" fill="#000000">pdi/paraconf_wrapper.h</text>
</a>
</g>
</g>
<!-- Node16&#45;&gt;Node17 -->
<g id="edge22" class="edge">
<title>Node16&#45;&gt;Node17</title>
<path fill="none" stroke="#191970" d="M569.4479,-224.3733C541.3457,-215.0613 498.5946,-200.8953 467.7393,-190.671"/>
<polygon fill="#191970" stroke="#191970" points="468.7664,-187.3243 458.173,-187.5011 466.5645,-193.969 468.7664,-187.3243"/>
</g>
<!-- Node17&#45;&gt;Node9 -->
<g id="edge25" class="edge">
<title>Node17&#45;&gt;Node9</title>
<path fill="none" stroke="#191970" d="M452.0197,-168.3733C473.2372,-159.3032 505.2276,-145.6279 528.9769,-135.4755"/>
<polygon fill="#191970" stroke="#191970" points="530.4548,-138.6502 538.2742,-131.5011 527.7033,-132.2136 530.4548,-138.6502"/>
</g>
<!-- Node17&#45;&gt;Node11 -->
<g id="edge24" class="edge">
<title>Node17&#45;&gt;Node11</title>
<path fill="none" stroke="#191970" d="M428.9903,-168.4862C427.5676,-141.9293 423.5303,-66.5651 421.5803,-30.1655"/>
<polygon fill="#191970" stroke="#191970" points="425.0565,-29.6263 421.0265,-19.8279 418.0665,-30.0008 425.0565,-29.6263"/>
</g>
<!-- Node18 -->
<g id="node19" class="node">
<title>Node18</title>
<polygon fill="#ffffff" stroke="#bfbfbf" points="330,-112.5 330,-131.5 373,-131.5 373,-112.5 330,-112.5"/>
<text text-anchor="middle" x="351.5" y="-119.5" font-family="Helvetica,sans-Serif" font-size="10.00" fill="#000000">string</text>
</g>
<!-- Node17&#45;&gt;Node18 -->
<g id="edge23" class="edge">
<title>Node17&#45;&gt;Node18</title>
<path fill="none" stroke="#191970" d="M415.9134,-168.2455C404.1695,-159.814 386.9801,-147.4729 373.3118,-137.6598"/>
<polygon fill="#191970" stroke="#191970" points="375.0954,-134.6316 364.9309,-131.6427 371.0129,-140.3179 375.0954,-134.6316"/>
</g>
<!-- Node19&#45;&gt;Node7 -->
<g id="edge28" class="edge">
<title>Node19&#45;&gt;Node7</title>
<path fill="none" stroke="#191970" d="M808.5189,-392.2455C818.7098,-383.9746 833.5362,-371.9416 845.5107,-362.2232"/>
<polygon fill="#191970" stroke="#191970" points="848.0598,-364.662 853.6188,-355.6427 843.6486,-359.2268 848.0598,-364.662"/>
</g>
<!-- Node19&#45;&gt;Node9 -->
<g id="edge29" class="edge">
<title>Node19&#45;&gt;Node9</title>
<path fill="none" stroke="#191970" d="M796.5,-392.4116C796.5,-373.0538 796.5,-327.9167 796.5,-290 796.5,-290 796.5,-290 796.5,-234 796.5,-196.6561 775.8543,-188.2849 744.5,-168 703.8945,-141.7299 649.3156,-130.4621 610.1632,-125.6292"/>
<polygon fill="#191970" stroke="#191970" points="610.3886,-122.1324 600.0575,-124.4816 609.5987,-129.0877 610.3886,-122.1324"/>
</g>
<!-- Node19&#45;&gt;Node14 -->
<g id="edge30" class="edge">
<title>Node19&#45;&gt;Node14</title>
<path fill="none" stroke="#191970" d="M767.4479,-392.3733C739.3457,-383.0613 696.5946,-368.8953 665.7393,-358.671"/>
<polygon fill="#191970" stroke="#191970" points="666.7664,-355.3243 656.173,-355.5011 664.5645,-361.969 666.7664,-355.3243"/>
</g>
<!-- Node20&#45;&gt;Node9 -->
<g id="edge33" class="edge">
<title>Node20&#45;&gt;Node9</title>
<path fill="none" stroke="#191970" d="M502.6737,-392.2516C512.928,-383.866 526.5478,-370.8048 533.5,-356 542.5284,-336.7741 554.6853,-194.6395 558.9466,-141.7507"/>
<polygon fill="#191970" stroke="#191970" points="562.4473,-141.8803 559.7528,-131.6338 555.4694,-141.3242 562.4473,-141.8803"/>
</g>
<!-- Node20&#45;&gt;Node14 -->
<g id="edge34" class="edge">
<title>Node20&#45;&gt;Node14</title>
<path fill="none" stroke="#191970" d="M513.223,-392.3733C535.6737,-383.2629 569.5739,-369.5062 594.6255,-359.3404"/>
<polygon fill="#191970" stroke="#191970" points="596.1365,-362.5045 604.0865,-355.5011 593.5043,-356.0182 596.1365,-362.5045"/>
</g>
<!-- Node21 -->
<g id="node22" class="node">
<title>Node21</title>
<polygon fill="#ffffff" stroke="#bfbfbf" points="462.5,-336.5 462.5,-355.5 524.5,-355.5 524.5,-336.5 462.5,-336.5"/>
<text text-anchor="middle" x="493.5" y="-343.5" font-family="Helvetica,sans-Serif" font-size="10.00" fill="#000000">functional</text>
</g>
<!-- Node20&#45;&gt;Node21 -->
<g id="edge32" class="edge">
<title>Node20&#45;&gt;Node21</title>
<path fill="none" stroke="#191970" d="M490.1967,-392.2455C490.7187,-384.9382 491.4504,-374.6944 492.0925,-365.7046"/>
<polygon fill="#191970" stroke="#191970" points="495.5898,-365.8667 492.8112,-355.6427 488.6076,-365.3679 495.5898,-365.8667"/>
</g>
<!-- Node22&#45;&gt;Node2 -->
<g id="edge36" class="edge">
<title>Node22&#45;&gt;Node2</title>
<path fill="none" stroke="#191970" d="M334.3831,-393.115C294.41,-383.9879 230.5629,-369.2781 175.5,-356 174.0648,-355.6539 172.6012,-355.2987 171.1231,-354.938"/>
<polygon fill="#191970" stroke="#191970" points="171.8522,-351.513 161.3052,-352.5185 170.1772,-358.3097 171.8522,-351.513"/>
</g>
<!-- Node22&#45;&gt;Node6 -->
<g id="edge38" class="edge">
<title>Node22&#45;&gt;Node6</title>
<path fill="none" stroke="#191970" d="M334.3111,-392.4512C300.794,-383.5338 256.0401,-369.5934 243.5,-356 170.7648,-277.1552 165.2224,-137.5094 165.837,-85.896"/>
<polygon fill="#191970" stroke="#191970" points="169.3391,-85.8336 166.0557,-75.7604 162.3407,-85.6825 169.3391,-85.8336"/>
</g>
<!-- Node22&#45;&gt;Node9 -->
<g id="edge41" class="edge">
<title>Node22&#45;&gt;Node9</title>
<path fill="none" stroke="#191970" d="M341.6545,-392.4045C312.4339,-381.7322 275.6355,-362.4457 289.5,-336 343.1947,-233.5806 417.4623,-265.268 503.5,-188 519.9476,-173.2288 536.1763,-153.8363 547.0849,-139.8997"/>
<polygon fill="#191970" stroke="#191970" points="550.1188,-141.6954 553.434,-131.6326 544.5671,-137.4317 550.1188,-141.6954"/>
</g>
<!-- Node22&#45;&gt;Node14 -->
<g id="edge42" class="edge">
<title>Node22&#45;&gt;Node14</title>
<path fill="none" stroke="#191970" d="M412.6309,-393.3727C456.413,-383.72 527.5227,-368.0422 575.8424,-357.3891"/>
<polygon fill="#191970" stroke="#191970" points="576.7774,-360.7671 585.7893,-355.1961 575.2703,-353.9312 576.7774,-360.7671"/>
</g>
<!-- Node22&#45;&gt;Node21 -->
<g id="edge37" class="edge">
<title>Node22&#45;&gt;Node21</title>
<path fill="none" stroke="#191970" d="M394.1287,-392.3733C413.3919,-383.3838 442.3486,-369.8706 464.0419,-359.7471"/>
<polygon fill="#191970" stroke="#191970" points="465.5587,-362.9017 473.1405,-355.5011 462.5985,-356.5584 465.5587,-362.9017"/>
</g>
<!-- Node23 -->
<g id="node24" class="node">
<title>Node23</title>
<polygon fill="#ffffff" stroke="#bfbfbf" points="408.5,-336.5 408.5,-355.5 444.5,-355.5 444.5,-336.5 408.5,-336.5"/>
<text text-anchor="middle" x="426.5" y="-343.5" font-family="Helvetica,sans-Serif" font-size="10.00" fill="#000000">new</text>
</g>
<!-- Node22&#45;&gt;Node23 -->
<g id="edge39" class="edge">
<title>Node22&#45;&gt;Node23</title>
<path fill="none" stroke="#191970" d="M382.7319,-392.2455C390.3317,-384.2155 401.2877,-372.6394 410.3368,-363.0781"/>
<polygon fill="#191970" stroke="#191970" points="413.0421,-365.3115 417.3739,-355.6427 407.958,-360.4998 413.0421,-365.3115"/>
</g>
<!-- Node24 -->
<g id="node25" class="node">
<title>Node24</title>
<polygon fill="#ffffff" stroke="#bfbfbf" points="298.5,-336.5 298.5,-355.5 390.5,-355.5 390.5,-336.5 298.5,-336.5"/>
<text text-anchor="middle" x="344.5" y="-343.5" font-family="Helvetica,sans-Serif" font-size="10.00" fill="#000000">unordered_map</text>
</g>
<!-- Node22&#45;&gt;Node24 -->
<g id="edge40" class="edge">
<title>Node22&#45;&gt;Node24</title>
<path fill="none" stroke="#191970" d="M368.4486,-392.2455C364.4981,-384.617 358.8903,-373.7881 354.0942,-364.5267"/>
<polygon fill="#191970" stroke="#191970" points="357.2001,-362.9131 349.4935,-355.6427 350.9841,-366.1321 357.2001,-362.9131"/>
</g>
<!-- Node25 -->
<g id="node26" class="node">
<title>Node25</title>
<g id="a_node26"><a xlink:href="error_8h.html" target="_top" xlink:title="pdi/error.h">
<polygon fill="#ffffff" stroke="#000000" points="243,-168.5 243,-187.5 308,-187.5 308,-168.5 243,-168.5"/>
<text text-anchor="middle" x="275.5" y="-175.5" font-family="Helvetica,sans-Serif" font-size="10.00" fill="#000000">pdi/error.h</text>
</a>
</g>
</g>
<!-- Node22&#45;&gt;Node25 -->
<g id="edge43" class="edge">
<title>Node22&#45;&gt;Node25</title>
<path fill="none" stroke="#191970" d="M336.7865,-392.44C306.1184,-383.6241 265.9323,-369.8435 256.5,-356 223.038,-306.8886 250.1654,-231.8327 266.0375,-196.9915"/>
<polygon fill="#191970" stroke="#191970" points="269.3961,-198.0779 270.5224,-187.5431 263.0723,-195.0761 269.3961,-198.0779"/>
</g>
<!-- Node25&#45;&gt;Node9 -->
<g id="edge47" class="edge">
<title>Node25&#45;&gt;Node9</title>
<path fill="none" stroke="#191970" d="M308.1931,-171.5761C357.8479,-161.8194 452.6372,-143.1941 510.8392,-131.7579"/>
<polygon fill="#191970" stroke="#191970" points="511.7719,-135.1417 520.9094,-129.7792 510.4222,-128.273 511.7719,-135.1417"/>
</g>
<!-- Node25&#45;&gt;Node11 -->
<g id="edge46" class="edge">
<title>Node25&#45;&gt;Node11</title>
<path fill="none" stroke="#191970" d="M264.0153,-168.4705C249.8599,-155.5219 229.0071,-131.7225 240.5,-112 269.7767,-61.7593 334.0085,-34.2707 377.2775,-20.8498"/>
<polygon fill="#191970" stroke="#191970" points="378.3925,-24.1698 386.9807,-17.9655 376.398,-17.46 378.3925,-24.1698"/>
</g>
<!-- Node25&#45;&gt;Node18 -->
<g id="edge45" class="edge">
<title>Node25&#45;&gt;Node18</title>
<path fill="none" stroke="#191970" d="M288.7382,-168.2455C300.181,-159.814 316.9296,-147.4729 330.2475,-137.6598"/>
<polygon fill="#191970" stroke="#191970" points="332.4391,-140.3924 338.4135,-131.6427 328.2867,-134.757 332.4391,-140.3924"/>
</g>
<!-- Node26 -->
<g id="node27" class="node">
<title>Node26</title>
<polygon fill="#ffffff" stroke="#bfbfbf" points="249.5,-112.5 249.5,-131.5 311.5,-131.5 311.5,-112.5 249.5,-112.5"/>
<text text-anchor="middle" x="280.5" y="-119.5" font-family="Helvetica,sans-Serif" font-size="10.00" fill="#000000">exception</text>
</g>
<!-- Node25&#45;&gt;Node26 -->
<g id="edge44" class="edge">
<title>Node25&#45;&gt;Node26</title>
<path fill="none" stroke="#191970" d="M276.3709,-168.2455C277.0234,-160.9382 277.938,-150.6944 278.7407,-141.7046"/>
<polygon fill="#191970" stroke="#191970" points="282.2358,-141.9143 279.639,-131.6427 275.2635,-141.2918 282.2358,-141.9143"/>
</g>
</g>
</svg>
