<?xml version="1.0" encoding="UTF-8" standalone="no"?>
<!DOCTYPE svg PUBLIC "-//W3C//DTD SVG 1.1//EN"
 "http://www.w3.org/Graphics/SVG/1.1/DTD/svg11.dtd">
<!-- Generated by graphviz version 2.40.1 (20161225.0304)
 -->
<!-- Title: /home/jbigot/data/projects/pdi/pdi/include/pdi/ref_any.h Pages: 1 -->
<svg width="2025pt" height="407pt"
 viewBox="0.00 0.00 2024.90 407.00" xmlns="http://www.w3.org/2000/svg" xmlns:xlink="http://www.w3.org/1999/xlink">
<g id="graph0" class="graph" transform="scale(1 1) rotate(0) translate(4 403)">
<title>/home/jbigot/data/projects/pdi/pdi/include/pdi/ref_any.h</title>
<polygon fill="#ffffff" stroke="transparent" points="-4,4 -4,-403 2020.9049,-403 2020.9049,4 -4,4"/>
<!-- Node18 -->
<g id="node1" class="node">
<title>Node18</title>
<polygon fill="#bfbfbf" stroke="#000000" points="658.4049,-368.5 658.4049,-398.5 810.4049,-398.5 810.4049,-368.5 658.4049,-368.5"/>
<text text-anchor="start" x="666.4049" y="-386.5" font-family="Helvetica,sans-Serif" font-size="10.00" fill="#000000">/home/jbigot/data/projects</text>
<text text-anchor="middle" x="734.4049" y="-375.5" font-family="Helvetica,sans-Serif" font-size="10.00" fill="#000000">/pdi/pdi/include/pdi/ref_any.h</text>
</g>
<!-- Node19 -->
<g id="node2" class="node">
<title>Node19</title>
<g id="a_node2"><a xlink:href="context_8h.html" target="_top" xlink:title="/home/jbigot/data/projects\l/pdi/pdi/include/pdi/context.h">
<polygon fill="#ffffff" stroke="#000000" points="659.4049,-218 659.4049,-248 809.4049,-248 809.4049,-218 659.4049,-218"/>
<text text-anchor="start" x="667.4049" y="-236" font-family="Helvetica,sans-Serif" font-size="10.00" fill="#000000">/home/jbigot/data/projects</text>
<text text-anchor="middle" x="734.4049" y="-225" font-family="Helvetica,sans-Serif" font-size="10.00" fill="#000000">/pdi/pdi/include/pdi/context.h</text>
</a>
</g>
</g>
<!-- Node18&#45;&gt;Node19 -->
<g id="edge1" class="edge">
<title>Node18&#45;&gt;Node19</title>
<path fill="none" stroke="#191970" d="M734.4049,-358.0787C734.4049,-326.642 734.4049,-274.1304 734.4049,-248.2994"/>
<polygon fill="#191970" stroke="#191970" points="730.905,-358.241 734.4049,-368.241 737.905,-358.2411 730.905,-358.241"/>
</g>
<!-- Node20 -->
<g id="node3" class="node">
<title>Node20</title>
<g id="a_node3"><a xlink:href="context_8cxx.html" target="_top" xlink:title="/home/jbigot/data/projects\l/pdi/pdi/src/context.cxx">
<polygon fill="#ffffff" stroke="#000000" points="261.4049,-145.5 261.4049,-175.5 399.4049,-175.5 399.4049,-145.5 261.4049,-145.5"/>
<text text-anchor="start" x="269.4049" y="-163.5" font-family="Helvetica,sans-Serif" font-size="10.00" fill="#000000">/home/jbigot/data/projects</text>
<text text-anchor="middle" x="330.4049" y="-152.5" font-family="Helvetica,sans-Serif" font-size="10.00" fill="#000000">/pdi/pdi/src/context.cxx</text>
</a>
</g>
</g>
<!-- Node18&#45;&gt;Node20 -->
<g id="edge34" class="edge">
<title>Node18&#45;&gt;Node20</title>
<path fill="none" stroke="#191970" d="M647.93,-378.0195C567.5427,-371.4066 455.0126,-357.8032 419.4049,-332 364.9437,-292.5345 341.1977,-209.6887 333.4612,-175.6222"/>
<polygon fill="#191970" stroke="#191970" points="647.8122,-381.5212 658.0596,-378.8301 648.3706,-374.5435 647.8122,-381.5212"/>
</g>
<!-- Node21 -->
<g id="node4" class="node">
<title>Node21</title>
<g id="a_node4"><a xlink:href="data__descriptor__impl_8cxx.html" target="_top" xlink:title="/home/jbigot/data/projects\l/pdi/pdi/src/data_descriptor\l_impl.cxx">
<polygon fill="#ffffff" stroke="#000000" points="236.4049,-.5 236.4049,-41.5 382.4049,-41.5 382.4049,-.5 236.4049,-.5"/>
<text text-anchor="start" x="244.4049" y="-29.5" font-family="Helvetica,sans-Serif" font-size="10.00" fill="#000000">/home/jbigot/data/projects</text>
<text text-anchor="start" x="244.4049" y="-18.5" font-family="Helvetica,sans-Serif" font-size="10.00" fill="#000000">/pdi/pdi/src/data_descriptor</text>
<text text-anchor="middle" x="309.4049" y="-7.5" font-family="Helvetica,sans-Serif" font-size="10.00" fill="#000000">_impl.cxx</text>
</a>
</g>
</g>
<!-- Node18&#45;&gt;Node21 -->
<g id="edge35" class="edge">
<title>Node18&#45;&gt;Node21</title>
<path fill="none" stroke="#191970" d="M648.3365,-379.9334C472.496,-372.2285 86.8635,-353.0189 67.4049,-332 16.0479,-276.5248 -75.8552,-283.0307 118.4049,-78 122.7486,-73.4156 184.2617,-55.5206 236.3226,-40.9886"/>
<polygon fill="#191970" stroke="#191970" points="648.1928,-383.4304 658.3357,-380.3691 648.4976,-376.437 648.1928,-383.4304"/>
</g>
<!-- Node22 -->
<g id="node5" class="node">
<title>Node22</title>
<g id="a_node5"><a xlink:href="global__context_8h.html" target="_top" xlink:title="/home/jbigot/data/projects\l/pdi/pdi/src/global_context.h">
<polygon fill="#ffffff" stroke="#000000" points="417.4049,-145.5 417.4049,-175.5 565.4049,-175.5 565.4049,-145.5 417.4049,-145.5"/>
<text text-anchor="start" x="425.4049" y="-163.5" font-family="Helvetica,sans-Serif" font-size="10.00" fill="#000000">/home/jbigot/data/projects</text>
<text text-anchor="middle" x="491.4049" y="-152.5" font-family="Helvetica,sans-Serif" font-size="10.00" fill="#000000">/pdi/pdi/src/global_context.h</text>
</a>
</g>
</g>
<!-- Node18&#45;&gt;Node22 -->
<g id="edge37" class="edge">
<title>Node18&#45;&gt;Node22</title>
<path fill="none" stroke="#191970" d="M648.021,-366.2436C612.2181,-357.8185 570.6643,-346.3633 534.4049,-332 467.4605,-305.4815 429.0696,-315.9717 392.4049,-254 382.9,-237.9345 382.7189,-227.957 392.4049,-212 402.7094,-195.0244 420.6331,-183.3864 438.4229,-175.5332"/>
<polygon fill="#191970" stroke="#191970" points="647.4263,-369.6984 657.9576,-368.5395 649.0022,-362.8781 647.4263,-369.6984"/>
</g>
<!-- Node23 -->
<g id="node6" class="node">
<title>Node23</title>
<g id="a_node6"><a xlink:href="data__descriptor__impl_8h.html" target="_top" xlink:title="/home/jbigot/data/projects\l/pdi/pdi/src/data_descriptor_impl.h">
<polygon fill="#ffffff" stroke="#000000" points="127.9049,-78.5 127.9049,-108.5 306.9049,-108.5 306.9049,-78.5 127.9049,-78.5"/>
<text text-anchor="start" x="135.9049" y="-96.5" font-family="Helvetica,sans-Serif" font-size="10.00" fill="#000000">/home/jbigot/data/projects</text>
<text text-anchor="middle" x="217.4049" y="-85.5" font-family="Helvetica,sans-Serif" font-size="10.00" fill="#000000">/pdi/pdi/src/data_descriptor_impl.h</text>
</a>
</g>
</g>
<!-- Node18&#45;&gt;Node23 -->
<g id="edge36" class="edge">
<title>Node18&#45;&gt;Node23</title>
<path fill="none" stroke="#191970" d="M647.7918,-379.9159C539.5632,-374.2843 361.3871,-360.8746 302.4049,-332 258.6535,-310.5816 245.0176,-298.5902 225.4049,-254 203.7258,-204.7116 210.1878,-138.5167 214.6812,-108.9215"/>
<polygon fill="#191970" stroke="#191970" points="647.876,-383.4246 658.0408,-380.4368 648.2314,-376.4336 647.876,-383.4246"/>
</g>
<!-- Node24 -->
<g id="node7" class="node">
<title>Node24</title>
<g id="a_node7"><a xlink:href="global__context_8cxx.html" target="_top" xlink:title="/home/jbigot/data/projects\l/pdi/pdi/src/global_context.cxx">
<polygon fill="#ffffff" stroke="#000000" points="60.4049,-6 60.4049,-36 218.4049,-36 218.4049,-6 60.4049,-6"/>
<text text-anchor="start" x="68.4049" y="-24" font-family="Helvetica,sans-Serif" font-size="10.00" fill="#000000">/home/jbigot/data/projects</text>
<text text-anchor="middle" x="139.4049" y="-13" font-family="Helvetica,sans-Serif" font-size="10.00" fill="#000000">/pdi/pdi/src/global_context.cxx</text>
</a>
</g>
</g>
<!-- Node18&#45;&gt;Node24 -->
<g id="edge39" class="edge">
<title>Node18&#45;&gt;Node24</title>
<path fill="none" stroke="#191970" d="M648.1385,-378.8176C515.8115,-370.9909 274.4787,-353.9259 241.4049,-332 147.0651,-269.4585 146.6299,-218.6121 118.4049,-109 111.864,-83.5983 122.7936,-53.8893 131.1836,-36.3024"/>
<polygon fill="#191970" stroke="#191970" points="648.0655,-382.3193 658.2531,-379.4105 648.4751,-375.3313 648.0655,-382.3193"/>
</g>
<!-- Node25 -->
<g id="node8" class="node">
<title>Node25</title>
<g id="a_node8"><a xlink:href="pdi_8cxx.html" target="_top" xlink:title="/home/jbigot/data/projects\l/pdi/pdi/src/pdi.cxx">
<polygon fill="#ffffff" stroke="#000000" points="325.4049,-78.5 325.4049,-108.5 463.4049,-108.5 463.4049,-78.5 325.4049,-78.5"/>
<text text-anchor="start" x="333.4049" y="-96.5" font-family="Helvetica,sans-Serif" font-size="10.00" fill="#000000">/home/jbigot/data/projects</text>
<text text-anchor="middle" x="394.4049" y="-85.5" font-family="Helvetica,sans-Serif" font-size="10.00" fill="#000000">/pdi/pdi/src/pdi.cxx</text>
</a>
</g>
</g>
<!-- Node18&#45;&gt;Node25 -->
<g id="edge40" class="edge">
<title>Node18&#45;&gt;Node25</title>
<path fill="none" stroke="#191970" d="M648.1389,-378.0174C557.7317,-371.0553 422.6595,-356.8516 377.4049,-332 287.783,-282.7839 183.9085,-228.1534 243.4049,-145 253.6797,-130.6398 291.1755,-117.8091 326.229,-108.5464"/>
<polygon fill="#191970" stroke="#191970" points="648.15,-381.5281 658.3849,-378.7903 648.6765,-374.5479 648.15,-381.5281"/>
</g>
<!-- Node26 -->
<g id="node9" class="node">
<title>Node26</title>
<g id="a_node9"><a xlink:href="python_2pdi_8cxx.html" target="_top" xlink:title="/home/jbigot/data/projects\l/pdi/pdi/src/python/pdi.cxx">
<polygon fill="#ffffff" stroke="#000000" points="697.9049,-78.5 697.9049,-108.5 836.9049,-108.5 836.9049,-78.5 697.9049,-78.5"/>
<text text-anchor="start" x="705.9049" y="-96.5" font-family="Helvetica,sans-Serif" font-size="10.00" fill="#000000">/home/jbigot/data/projects</text>
<text text-anchor="middle" x="767.4049" y="-85.5" font-family="Helvetica,sans-Serif" font-size="10.00" fill="#000000">/pdi/pdi/src/python/pdi.cxx</text>
</a>
</g>
</g>
<!-- Node18&#45;&gt;Node26 -->
<g id="edge42" class="edge">
<title>Node18&#45;&gt;Node26</title>
<path fill="none" stroke="#191970" d="M793.4612,-364.962C869.1505,-337.5479 996.6473,-278.1074 1047.4049,-176 1053.5379,-163.6625 1056.2222,-155.5869 1047.4049,-145 1021.1511,-113.4769 911.2133,-101.1811 837.1581,-96.4317"/>
<polygon fill="#191970" stroke="#191970" points="791.8465,-361.8209 783.5913,-368.4618 794.186,-368.4185 791.8465,-361.8209"/>
</g>
<!-- Node28 -->
<g id="node11" class="node">
<title>Node28</title>
<g id="a_node11"><a xlink:href="expression_8cxx.html" target="_top" xlink:title="/home/jbigot/data/projects\l/pdi/pdi/src/expression.cxx">
<polygon fill="#ffffff" stroke="#000000" points="1133.9049,-145.5 1133.9049,-175.5 1274.9049,-175.5 1274.9049,-145.5 1133.9049,-145.5"/>
<text text-anchor="start" x="1141.9049" y="-163.5" font-family="Helvetica,sans-Serif" font-size="10.00" fill="#000000">/home/jbigot/data/projects</text>
<text text-anchor="middle" x="1204.4049" y="-152.5" font-family="Helvetica,sans-Serif" font-size="10.00" fill="#000000">/pdi/pdi/src/expression.cxx</text>
</a>
</g>
</g>
<!-- Node18&#45;&gt;Node28 -->
<g id="edge38" class="edge">
<title>Node18&#45;&gt;Node28</title>
<path fill="none" stroke="#191970" d="M820.5535,-379.2326C887.4705,-373.711 981.6517,-361.0464 1059.4049,-332 1120.7486,-309.0838 1146.7934,-307.6057 1184.4049,-254 1201.09,-230.2198 1204.3094,-195.259 1204.6764,-175.5161"/>
<polygon fill="#191970" stroke="#191970" points="820.1633,-375.7524 810.4694,-380.0278 820.7136,-382.7308 820.1633,-375.7524"/>
</g>
<!-- Node29 -->
<g id="node12" class="node">
<title>Node29</title>
<g id="a_node12"><a xlink:href="plugin_8cxx.html" target="_top" xlink:title="/home/jbigot/data/projects\l/pdi/pdi/src/plugin.cxx">
<polygon fill="#ffffff" stroke="#000000" points="735.4049,-145.5 735.4049,-175.5 873.4049,-175.5 873.4049,-145.5 735.4049,-145.5"/>
<text text-anchor="start" x="743.4049" y="-163.5" font-family="Helvetica,sans-Serif" font-size="10.00" fill="#000000">/home/jbigot/data/projects</text>
<text text-anchor="middle" x="804.4049" y="-152.5" font-family="Helvetica,sans-Serif" font-size="10.00" fill="#000000">/pdi/pdi/src/plugin.cxx</text>
</a>
</g>
</g>
<!-- Node18&#45;&gt;Node29 -->
<g id="edge41" class="edge">
<title>Node18&#45;&gt;Node29</title>
<path fill="none" stroke="#191970" d="M755.189,-360.653C775.8257,-336.2878 806.1075,-295.5563 818.4049,-254 826.3693,-227.0864 817.4472,-194.4097 810.6444,-175.6773"/>
<polygon fill="#191970" stroke="#191970" points="752.4978,-358.4143 748.6001,-368.2661 757.7908,-362.9952 752.4978,-358.4143"/>
</g>
<!-- Node30 -->
<g id="node13" class="node">
<title>Node30</title>
<g id="a_node13"><a xlink:href="tools_8cxx.html" target="_top" xlink:title="/home/jbigot/data/projects\l/pdi/pdi/src/python/tools.cxx">
<polygon fill="#ffffff" stroke="#000000" points="891.9049,-145.5 891.9049,-175.5 1038.9049,-175.5 1038.9049,-145.5 891.9049,-145.5"/>
<text text-anchor="start" x="899.9049" y="-163.5" font-family="Helvetica,sans-Serif" font-size="10.00" fill="#000000">/home/jbigot/data/projects</text>
<text text-anchor="middle" x="965.4049" y="-152.5" font-family="Helvetica,sans-Serif" font-size="10.00" fill="#000000">/pdi/pdi/src/python/tools.cxx</text>
</a>
</g>
</g>
<!-- Node18&#45;&gt;Node30 -->
<g id="edge43" class="edge">
<title>Node18&#45;&gt;Node30</title>
<path fill="none" stroke="#191970" d="M766.067,-362.4981C778.7225,-353.6078 793.1678,-342.8155 805.4049,-332 865.2066,-279.1457 927.226,-206.6944 953.0126,-175.6362"/>
<polygon fill="#191970" stroke="#191970" points="763.8743,-359.759 757.6406,-368.326 767.8561,-365.5163 763.8743,-359.759"/>
</g>
<!-- Node31 -->
<g id="node14" class="node">
<title>Node31</title>
<g id="a_node14"><a xlink:href="data__descriptor_8h.html" target="_top" xlink:title="/home/jbigot/data/projects\l/pdi/pdi/include/pdi/data\l_descriptor.h">
<polygon fill="#ffffff" stroke="#000000" points="543.4049,-290.5 543.4049,-331.5 681.4049,-331.5 681.4049,-290.5 543.4049,-290.5"/>
<text text-anchor="start" x="551.4049" y="-319.5" font-family="Helvetica,sans-Serif" font-size="10.00" fill="#000000">/home/jbigot/data/projects</text>
<text text-anchor="start" x="551.4049" y="-308.5" font-family="Helvetica,sans-Serif" font-size="10.00" fill="#000000">/pdi/pdi/include/pdi/data</text>
<text text-anchor="middle" x="612.4049" y="-297.5" font-family="Helvetica,sans-Serif" font-size="10.00" fill="#000000">_descriptor.h</text>
</a>
</g>
</g>
<!-- Node18&#45;&gt;Node31 -->
<g id="edge17" class="edge">
<title>Node18&#45;&gt;Node31</title>
<path fill="none" stroke="#191970" d="M700.2582,-363.2079C683.6015,-353.3094 663.6074,-341.4277 646.904,-331.5015"/>
<polygon fill="#191970" stroke="#191970" points="698.7418,-366.3781 709.1265,-368.478 702.3179,-360.3604 698.7418,-366.3781"/>
</g>
<!-- Node33 -->
<g id="node16" class="node">
<title>Node33</title>
<g id="a_node16"><a xlink:href="expression_8h.html" target="_top" xlink:title="/home/jbigot/data/projects\l/pdi/pdi/include/pdi/expression.h">
<polygon fill="#ffffff" stroke="#000000" points="1390.9049,-218 1390.9049,-248 1557.9049,-248 1557.9049,-218 1390.9049,-218"/>
<text text-anchor="start" x="1398.9049" y="-236" font-family="Helvetica,sans-Serif" font-size="10.00" fill="#000000">/home/jbigot/data/projects</text>
<text text-anchor="middle" x="1474.4049" y="-225" font-family="Helvetica,sans-Serif" font-size="10.00" fill="#000000">/pdi/pdi/include/pdi/expression.h</text>
</a>
</g>
</g>
<!-- Node18&#45;&gt;Node33 -->
<g id="edge25" class="edge">
<title>Node18&#45;&gt;Node33</title>
<path fill="none" stroke="#191970" d="M821.0976,-381.033C940.6755,-376.4855 1149.1971,-364.105 1217.4049,-332 1241.576,-320.6228 1237.1813,-303.2038 1260.4049,-290 1300.3462,-267.2914 1349.629,-253.3632 1390.829,-244.9662"/>
<polygon fill="#191970" stroke="#191970" points="820.7382,-377.5438 810.8744,-381.411 820.9969,-384.5391 820.7382,-377.5438"/>
</g>
<!-- Node37 -->
<g id="node20" class="node">
<title>Node37</title>
<g id="a_node20"><a xlink:href="tools_8h.html" target="_top" xlink:title="/home/jbigot/data/projects\l/pdi/pdi/include/pdi/python\l/tools.h">
<polygon fill="#ffffff" stroke="#000000" points="1035.4049,-212.5 1035.4049,-253.5 1175.4049,-253.5 1175.4049,-212.5 1035.4049,-212.5"/>
<text text-anchor="start" x="1043.4049" y="-241.5" font-family="Helvetica,sans-Serif" font-size="10.00" fill="#000000">/home/jbigot/data/projects</text>
<text text-anchor="start" x="1043.4049" y="-230.5" font-family="Helvetica,sans-Serif" font-size="10.00" fill="#000000">/pdi/pdi/include/pdi/python</text>
<text text-anchor="middle" x="1105.4049" y="-219.5" font-family="Helvetica,sans-Serif" font-size="10.00" fill="#000000">/tools.h</text>
</a>
</g>
</g>
<!-- Node18&#45;&gt;Node37 -->
<g id="edge31" class="edge">
<title>Node18&#45;&gt;Node37</title>
<path fill="none" stroke="#191970" d="M820.3637,-374.5497C892.1191,-365.9075 987.8846,-351.298 1021.4049,-332 1054.0279,-313.2187 1079.8345,-276.8114 1093.8352,-253.767"/>
<polygon fill="#191970" stroke="#191970" points="819.9257,-371.077 810.407,-375.7294 820.7494,-378.0284 819.9257,-371.077"/>
</g>
<!-- Node38 -->
<g id="node21" class="node">
<title>Node38</title>
<g id="a_node21"><a xlink:href="ref__any_8cxx.html" target="_top" xlink:title="/home/jbigot/data/projects\l/pdi/pdi/src/ref_any.cxx">
<polygon fill="#ffffff" stroke="#000000" points="1269.4049,-296 1269.4049,-326 1407.4049,-326 1407.4049,-296 1269.4049,-296"/>
<text text-anchor="start" x="1277.4049" y="-314" font-family="Helvetica,sans-Serif" font-size="10.00" fill="#000000">/home/jbigot/data/projects</text>
<text text-anchor="middle" x="1338.4049" y="-303" font-family="Helvetica,sans-Serif" font-size="10.00" fill="#000000">/pdi/pdi/src/ref_any.cxx</text>
</a>
</g>
</g>
<!-- Node18&#45;&gt;Node38 -->
<g id="edge44" class="edge">
<title>Node18&#45;&gt;Node38</title>
<path fill="none" stroke="#191970" d="M820.9335,-378.9105C924.7444,-372.4932 1103.7719,-358.5239 1255.4049,-332 1264.6291,-330.3865 1274.3399,-328.2953 1283.7391,-326.0593"/>
<polygon fill="#191970" stroke="#191970" points="820.5856,-375.4251 810.8169,-379.5267 821.0112,-382.4122 820.5856,-375.4251"/>
</g>
<!-- Node19&#45;&gt;Node20 -->
<g id="edge2" class="edge">
<title>Node19&#45;&gt;Node20</title>
<path fill="none" stroke="#191970" d="M649.3007,-218.6725C583.4641,-207.4551 490.0617,-191.2499 408.4049,-176 405.5549,-175.4677 402.6475,-174.9185 399.7114,-174.3586"/>
<polygon fill="#191970" stroke="#191970" points="648.7711,-222.1326 659.2166,-220.3598 649.9454,-215.2318 648.7711,-222.1326"/>
</g>
<!-- Node19&#45;&gt;Node21 -->
<g id="edge3" class="edge">
<title>Node19&#45;&gt;Node21</title>
<path fill="none" stroke="#191970" d="M708.7772,-211.2394C686.2446,-192.5964 652.1787,-165.5778 620.4049,-145 567.4984,-110.7359 553.5913,-102.238 495.4049,-78 459.0836,-62.8701 417.3004,-49.7062 382.5486,-39.8524"/>
<polygon fill="#191970" stroke="#191970" points="706.6085,-213.9881 716.5313,-217.7015 711.0899,-208.6107 706.6085,-213.9881"/>
</g>
<!-- Node19&#45;&gt;Node22 -->
<g id="edge4" class="edge">
<title>Node19&#45;&gt;Node22</title>
<path fill="none" stroke="#191970" d="M674.2397,-215.0495C633.4665,-202.8846 580.2018,-186.9929 541.6902,-175.5028"/>
<polygon fill="#191970" stroke="#191970" points="673.4719,-218.4728 684.0552,-217.978 675.4733,-211.765 673.4719,-218.4728"/>
</g>
<!-- Node19&#45;&gt;Node25 -->
<g id="edge13" class="edge">
<title>Node19&#45;&gt;Node25</title>
<path fill="none" stroke="#191970" d="M702.05,-212.3722C670.4667,-192.9283 620.5593,-164.0127 574.4049,-145 537.589,-129.8341 494.7912,-117.3902 460.1663,-108.5358"/>
<polygon fill="#191970" stroke="#191970" points="700.5044,-215.5323 710.8461,-217.8348 704.1974,-209.5857 700.5044,-215.5323"/>
</g>
<!-- Node19&#45;&gt;Node26 -->
<g id="edge15" class="edge">
<title>Node19&#45;&gt;Node26</title>
<path fill="none" stroke="#191970" d="M726.7172,-208.1466C722.4332,-190.137 719.2555,-165.4592 726.4049,-145 731.2306,-131.1906 741.4806,-118.3156 750.5242,-108.8929"/>
<polygon fill="#191970" stroke="#191970" points="723.3558,-209.1258 729.2978,-217.8976 730.1229,-207.3349 723.3558,-209.1258"/>
</g>
<!-- Node27 -->
<g id="node10" class="node">
<title>Node27</title>
<g id="a_node10"><a xlink:href="datatype__template_8cxx.html" target="_top" xlink:title="/home/jbigot/data/projects\l/pdi/pdi/src/datatype_template.cxx">
<polygon fill="#ffffff" stroke="#000000" points="1292.9049,-145.5 1292.9049,-175.5 1469.9049,-175.5 1469.9049,-145.5 1292.9049,-145.5"/>
<text text-anchor="start" x="1300.9049" y="-163.5" font-family="Helvetica,sans-Serif" font-size="10.00" fill="#000000">/home/jbigot/data/projects</text>
<text text-anchor="middle" x="1381.4049" y="-152.5" font-family="Helvetica,sans-Serif" font-size="10.00" fill="#000000">/pdi/pdi/src/datatype_template.cxx</text>
</a>
</g>
</g>
<!-- Node19&#45;&gt;Node27 -->
<g id="edge11" class="edge">
<title>Node19&#45;&gt;Node27</title>
<path fill="none" stroke="#191970" d="M819.9482,-225.6087C928.2593,-215.9116 1120.5151,-197.5701 1284.4049,-176 1287.1948,-175.6328 1290.028,-175.2486 1292.8873,-174.851"/>
<polygon fill="#191970" stroke="#191970" points="819.3818,-222.1452 809.7323,-226.52 820.0038,-229.1176 819.3818,-222.1452"/>
</g>
<!-- Node19&#45;&gt;Node28 -->
<g id="edge12" class="edge">
<title>Node19&#45;&gt;Node28</title>
<path fill="none" stroke="#191970" d="M819.5508,-219.8658C909.4495,-205.9984 1049.5477,-184.3876 1133.6079,-171.4208"/>
<polygon fill="#191970" stroke="#191970" points="819.0074,-216.4081 809.6579,-221.3918 820.0746,-223.3263 819.0074,-216.4081"/>
</g>
<!-- Node19&#45;&gt;Node29 -->
<g id="edge14" class="edge">
<title>Node19&#45;&gt;Node29</title>
<path fill="none" stroke="#191970" d="M756.1257,-210.5035C767.1182,-199.1184 780.1625,-185.6083 789.9195,-175.5028"/>
<polygon fill="#191970" stroke="#191970" points="753.337,-208.3528 748.909,-217.978 758.3729,-213.215 753.337,-208.3528"/>
</g>
<!-- Node19&#45;&gt;Node30 -->
<g id="edge16" class="edge">
<title>Node19&#45;&gt;Node30</title>
<path fill="none" stroke="#191970" d="M791.8451,-214.9723C830.5728,-202.8174 881.0705,-186.9686 917.6029,-175.5028"/>
<polygon fill="#191970" stroke="#191970" points="790.7613,-211.644 782.2683,-217.978 792.8575,-218.3228 790.7613,-211.644"/>
</g>
<!-- Node22&#45;&gt;Node23 -->
<g id="edge5" class="edge">
<title>Node22&#45;&gt;Node23</title>
<path fill="none" stroke="#191970" d="M419.9297,-143.0225C376.2478,-132.3411 320.9404,-118.8171 279.1641,-108.6017"/>
<polygon fill="#191970" stroke="#191970" points="419.3688,-146.4884 429.914,-145.4639 421.0316,-139.6887 419.3688,-146.4884"/>
</g>
<!-- Node22&#45;&gt;Node24 -->
<g id="edge8" class="edge">
<title>Node22&#45;&gt;Node24</title>
<path fill="none" stroke="#191970" d="M492.6066,-135.1007C492.0155,-116.5875 487.937,-92.33 472.4049,-78 431.96,-40.6851 281.4429,-52.3968 227.4049,-42 218.3048,-40.2492 208.7251,-38.1899 199.3702,-36.0574"/>
<polygon fill="#191970" stroke="#191970" points="489.1066,-135.2206 492.6119,-145.2187 496.1066,-135.2169 489.1066,-135.2206"/>
</g>
<!-- Node22&#45;&gt;Node25 -->
<g id="edge9" class="edge">
<title>Node22&#45;&gt;Node25</title>
<path fill="none" stroke="#191970" d="M460.7803,-139.3469C446.3471,-129.3776 429.4582,-117.7121 416.3286,-108.6432"/>
<polygon fill="#191970" stroke="#191970" points="459.1769,-142.4932 469.3941,-145.2967 463.1553,-136.7335 459.1769,-142.4932"/>
</g>
<!-- Node22&#45;&gt;Node26 -->
<g id="edge10" class="edge">
<title>Node22&#45;&gt;Node26</title>
<path fill="none" stroke="#191970" d="M563.1241,-143.0899C607.1681,-132.3981 663.0252,-118.8386 705.195,-108.6017"/>
<polygon fill="#191970" stroke="#191970" points="562.2368,-139.7036 553.3447,-145.4639 563.8882,-146.506 562.2368,-139.7036"/>
</g>
<!-- Node23&#45;&gt;Node21 -->
<g id="edge6" class="edge">
<title>Node23&#45;&gt;Node21</title>
<path fill="none" stroke="#191970" d="M244.5607,-72.1001C256.8292,-62.432 271.2598,-51.06 283.3892,-41.5015"/>
<polygon fill="#191970" stroke="#191970" points="242.1554,-69.5394 236.4674,-78.478 246.4881,-75.0374 242.1554,-69.5394"/>
</g>
<!-- Node23&#45;&gt;Node24 -->
<g id="edge7" class="edge">
<title>Node23&#45;&gt;Node24</title>
<path fill="none" stroke="#191970" d="M193.9058,-71.6579C181.5134,-60.1393 166.627,-46.3026 155.5459,-36.0028"/>
<polygon fill="#191970" stroke="#191970" points="191.5358,-74.2334 201.2433,-78.478 196.3015,-69.1062 191.5358,-74.2334"/>
</g>
<!-- Node31&#45;&gt;Node19 -->
<g id="edge18" class="edge">
<title>Node31&#45;&gt;Node19</title>
<path fill="none" stroke="#191970" d="M653.3187,-284.842C672.4283,-272.6244 694.4983,-258.5141 710.7838,-248.102"/>
<polygon fill="#191970" stroke="#191970" points="651.3183,-281.9667 644.7784,-290.3022 655.089,-287.8644 651.3183,-281.9667"/>
</g>
<!-- Node31&#45;&gt;Node22 -->
<g id="edge21" class="edge">
<title>Node31&#45;&gt;Node22</title>
<path fill="none" stroke="#191970" d="M606.1959,-280.7103C600.6664,-259.6393 590.8397,-231.8733 574.4049,-212 561.5443,-196.4486 542.7054,-184.227 526.2251,-175.5999"/>
<polygon fill="#191970" stroke="#191970" points="602.8025,-281.5685 608.5753,-290.4525 609.6026,-279.9076 602.8025,-281.5685"/>
</g>
<!-- Node31&#45;&gt;Node23 -->
<g id="edge20" class="edge">
<title>Node31&#45;&gt;Node23</title>
<path fill="none" stroke="#191970" d="M532.9431,-305.8604C447.3373,-298.878 318.1555,-283.7011 279.4049,-254 232.4624,-218.02 221.0454,-141.6846 218.2816,-108.942"/>
<polygon fill="#191970" stroke="#191970" points="532.9121,-309.3688 543.1579,-306.6717 533.4664,-302.3908 532.9121,-309.3688"/>
</g>
<!-- Node31&#45;&gt;Node25 -->
<g id="edge22" class="edge">
<title>Node31&#45;&gt;Node25</title>
<path fill="none" stroke="#191970" d="M533.0551,-295.5776C490.5096,-286.0386 437.6737,-272.1289 392.4049,-254 326.2825,-227.5198 288.4893,-237.4109 252.4049,-176 231.5333,-140.479 279.466,-118.7728 325.1793,-106.603"/>
<polygon fill="#191970" stroke="#191970" points="532.5609,-299.0526 543.0799,-297.7874 534.0678,-292.2167 532.5609,-299.0526"/>
</g>
<!-- Node31&#45;&gt;Node26 -->
<g id="edge23" class="edge">
<title>Node31&#45;&gt;Node26</title>
<path fill="none" stroke="#191970" d="M620.5606,-280.3968C626.8321,-260.0101 636.7483,-233.1773 650.4049,-212 677.8247,-169.4803 722.4307,-129.7179 747.9128,-108.8125"/>
<polygon fill="#191970" stroke="#191970" points="617.165,-279.5377 617.6936,-290.1194 623.8792,-281.5177 617.165,-279.5377"/>
</g>
<!-- Node31&#45;&gt;Node30 -->
<g id="edge24" class="edge">
<title>Node31&#45;&gt;Node30</title>
<path fill="none" stroke="#191970" d="M691.2033,-294.9985C730.3983,-285.5993 777.9229,-271.9921 818.4049,-254 867.3259,-232.2572 918.8706,-195.8836 946.0246,-175.5049"/>
<polygon fill="#191970" stroke="#191970" points="690.3605,-291.6012 681.4273,-297.2976 691.963,-298.4153 690.3605,-291.6012"/>
</g>
<!-- Node32 -->
<g id="node15" class="node">
<title>Node32</title>
<g id="a_node15"><a xlink:href="data__descriptor_8cxx.html" target="_top" xlink:title="/home/jbigot/data/projects\l/pdi/pdi/src/data_descriptor.cxx">
<polygon fill="#ffffff" stroke="#000000" points="401.4049,-218 401.4049,-248 565.4049,-248 565.4049,-218 401.4049,-218"/>
<text text-anchor="start" x="409.4049" y="-236" font-family="Helvetica,sans-Serif" font-size="10.00" fill="#000000">/home/jbigot/data/projects</text>
<text text-anchor="middle" x="483.4049" y="-225" font-family="Helvetica,sans-Serif" font-size="10.00" fill="#000000">/pdi/pdi/src/data_descriptor.cxx</text>
</a>
</g>
</g>
<!-- Node31&#45;&gt;Node32 -->
<g id="edge19" class="edge">
<title>Node31&#45;&gt;Node32</title>
<path fill="none" stroke="#191970" d="M569.4165,-285.007C549.148,-272.7516 525.6789,-258.561 508.3814,-248.102"/>
<polygon fill="#191970" stroke="#191970" points="567.8057,-288.123 578.174,-290.3022 571.4276,-282.1329 567.8057,-288.123"/>
</g>
<!-- Node33&#45;&gt;Node27 -->
<g id="edge27" class="edge">
<title>Node33&#45;&gt;Node27</title>
<path fill="none" stroke="#191970" d="M1447.2199,-211.8074C1432.2826,-200.1627 1414.1113,-185.9969 1400.6499,-175.5028"/>
<polygon fill="#191970" stroke="#191970" points="1445.0967,-214.59 1455.1353,-217.978 1449.4005,-209.0694 1445.0967,-214.59"/>
</g>
<!-- Node33&#45;&gt;Node28 -->
<g id="edge28" class="edge">
<title>Node33&#45;&gt;Node28</title>
<path fill="none" stroke="#191970" d="M1408.701,-215.3573C1363.2532,-203.1537 1303.43,-187.0901 1260.2774,-175.5028"/>
<polygon fill="#191970" stroke="#191970" points="1407.8952,-218.7648 1418.4608,-217.978 1409.7106,-212.0043 1407.8952,-218.7648"/>
</g>
<!-- Node34 -->
<g id="node17" class="node">
<title>Node34</title>
<g id="a_node17"><a xlink:href="array__datatype_8cxx.html" target="_top" xlink:title="/home/jbigot/data/projects\l/pdi/pdi/src/array_datatype.cxx">
<polygon fill="#ffffff" stroke="#000000" points="1487.9049,-145.5 1487.9049,-175.5 1648.9049,-175.5 1648.9049,-145.5 1487.9049,-145.5"/>
<text text-anchor="start" x="1495.9049" y="-163.5" font-family="Helvetica,sans-Serif" font-size="10.00" fill="#000000">/home/jbigot/data/projects</text>
<text text-anchor="middle" x="1568.4049" y="-152.5" font-family="Helvetica,sans-Serif" font-size="10.00" fill="#000000">/pdi/pdi/src/array_datatype.cxx</text>
</a>
</g>
</g>
<!-- Node33&#45;&gt;Node34 -->
<g id="edge26" class="edge">
<title>Node33&#45;&gt;Node34</title>
<path fill="none" stroke="#191970" d="M1501.8823,-211.8074C1516.9802,-200.1627 1535.3469,-185.9969 1548.953,-175.5028"/>
<polygon fill="#191970" stroke="#191970" points="1499.6627,-209.0992 1493.8818,-217.978 1503.9378,-214.6421 1499.6627,-209.0992"/>
</g>
<!-- Node35 -->
<g id="node18" class="node">
<title>Node35</title>
<g id="a_node18"><a xlink:href="record__datatype_8cxx.html" target="_top" xlink:title="/home/jbigot/data/projects\l/pdi/pdi/src/record_datatype.cxx">
<polygon fill="#ffffff" stroke="#000000" points="1666.9049,-145.5 1666.9049,-175.5 1833.9049,-175.5 1833.9049,-145.5 1666.9049,-145.5"/>
<text text-anchor="start" x="1674.9049" y="-163.5" font-family="Helvetica,sans-Serif" font-size="10.00" fill="#000000">/home/jbigot/data/projects</text>
<text text-anchor="middle" x="1750.4049" y="-152.5" font-family="Helvetica,sans-Serif" font-size="10.00" fill="#000000">/pdi/pdi/src/record_datatype.cxx</text>
</a>
</g>
</g>
<!-- Node33&#45;&gt;Node35 -->
<g id="edge29" class="edge">
<title>Node33&#45;&gt;Node35</title>
<path fill="none" stroke="#191970" d="M1541.277,-215.434C1587.7702,-203.2211 1649.0869,-187.1144 1693.2908,-175.5028"/>
<polygon fill="#191970" stroke="#191970" points="1540.375,-212.0521 1531.5923,-217.978 1542.1534,-218.8224 1540.375,-212.0521"/>
</g>
<!-- Node36 -->
<g id="node19" class="node">
<title>Node36</title>
<g id="a_node19"><a xlink:href="scalar__datatype_8cxx.html" target="_top" xlink:title="/home/jbigot/data/projects\l/pdi/pdi/src/scalar_datatype.cxx">
<polygon fill="#ffffff" stroke="#000000" points="1851.9049,-145.5 1851.9049,-175.5 2016.9049,-175.5 2016.9049,-145.5 1851.9049,-145.5"/>
<text text-anchor="start" x="1859.9049" y="-163.5" font-family="Helvetica,sans-Serif" font-size="10.00" fill="#000000">/home/jbigot/data/projects</text>
<text text-anchor="middle" x="1934.4049" y="-152.5" font-family="Helvetica,sans-Serif" font-size="10.00" fill="#000000">/pdi/pdi/src/scalar_datatype.cxx</text>
</a>
</g>
</g>
<!-- Node33&#45;&gt;Node36 -->
<g id="edge30" class="edge">
<title>Node33&#45;&gt;Node36</title>
<path fill="none" stroke="#191970" d="M1568.3059,-218.9041C1642.9194,-207.6049 1749.9069,-191.1832 1843.4049,-176 1846.0942,-175.5633 1848.8275,-175.1162 1851.5873,-174.6621"/>
<polygon fill="#191970" stroke="#191970" points="1567.3611,-215.5072 1557.9973,-220.4639 1568.4084,-222.4284 1567.3611,-215.5072"/>
</g>
<!-- Node37&#45;&gt;Node26 -->
<g id="edge32" class="edge">
<title>Node37&#45;&gt;Node26</title>
<path fill="none" stroke="#191970" d="M1105.0311,-202.1986C1103.0905,-183.0024 1097.2847,-159.3131 1081.4049,-145 1046.3723,-113.4237 918.3808,-101.0584 837.0213,-96.3246"/>
<polygon fill="#191970" stroke="#191970" points="1101.5498,-202.5866 1105.7511,-212.3128 1108.5322,-202.0895 1101.5498,-202.5866"/>
</g>
<!-- Node37&#45;&gt;Node30 -->
<g id="edge33" class="edge">
<title>Node37&#45;&gt;Node30</title>
<path fill="none" stroke="#191970" d="M1056.6738,-207.7642C1035.9633,-197.0392 1012.5083,-184.8928 994.5618,-175.5991"/>
<polygon fill="#191970" stroke="#191970" points="1055.1716,-210.9277 1065.661,-212.4183 1058.3906,-204.7118 1055.1716,-210.9277"/>
</g>
</g>
</svg>
