<?xml version="1.0" encoding="UTF-8" standalone="no"?>
<!DOCTYPE svg PUBLIC "-//W3C//DTD SVG 1.1//EN"
 "http://www.w3.org/Graphics/SVG/1.1/DTD/svg11.dtd">
<!-- Generated by graphviz version 2.40.1 (20161225.0304)
 -->
<!-- Title: /home/jbigot/data/projects/pdi/pdi/src/scalar_datatype.cxx Pages: 1 -->
<!--zoomable 543 -->
<svg id="main" version="1.1" xmlns="http://www.w3.org/2000/svg" xmlns:xlink="http://www.w3.org/1999/xlink" xml:space="preserve" onload="init(evt)">
<style type="text/css"><![CDATA[
.edge:hover path { stroke: red; }
.edge:hover polygon { stroke: red; fill: red; }
]]></style>
<script type="text/javascript"><![CDATA[
var edges = document.getElementsByTagName('g');
if (edges && edges.length) {
  for (var i=0;i<edges.length;i++) {
    if (edges[i].id.substr(0,4)=='edge') {
      edges[i].setAttribute('class','edge');
    }
  }
}
]]></script>
        <defs>
                <circle id="rim" cx="0" cy="0" r="7"/>
                <circle id="rim2" cx="0" cy="0" r="3.5"/>
                <g id="zoomPlus">
                        <use xlink:href="#rim" fill="#404040">
                                <set attributeName="fill" to="#808080" begin="zoomplus.mouseover" end="zoomplus.mouseout"/>
                        </use>
                        <path d="M-4,0h8M0,-4v8" fill="none" stroke="white" stroke-width="1.5" pointer-events="none"/>
                </g>
                <g id="zoomMin">
                        <use xlink:href="#rim" fill="#404040">
                                <set attributeName="fill" to="#808080" begin="zoomminus.mouseover" end="zoomminus.mouseout"/>
                        </use>
                        <path d="M-4,0h8" fill="none" stroke="white" stroke-width="1.5" pointer-events="none"/>
                </g>
                <g id="dirArrow">
                        <path fill="none" stroke="white" stroke-width="1.5" d="M0,-3.0v7 M-2.5,-0.5L0,-3.0L2.5,-0.5"/>
                </g>
               <g id="resetDef">
                       <use xlink:href="#rim2" fill="#404040">
                               <set attributeName="fill" to="#808080" begin="reset.mouseover" end="reset.mouseout"/>
                       </use>
               </g>
        </defs>

<script type="text/javascript">
var viewWidth = 1096;
var viewHeight = 543;
var sectionId = 'dynsection-0';
</script>
<script xlink:href="svgpan.js"/>
<svg id="graph" class="graph">
<g id="viewport">
<title>/home/jbigot/data/projects/pdi/pdi/src/scalar_datatype.cxx</title>
<polygon fill="#ffffff" stroke="transparent" points="-4,4 -4,-539 1092,-539 1092,4 -4,4"/>
<!-- Node0 -->
<g id="node1" class="node">
<title>Node0</title>
<polygon fill="#bfbfbf" stroke="#000000" points="248,-504.5 248,-534.5 413,-534.5 413,-504.5 248,-504.5"/>
<text text-anchor="start" x="256" y="-522.5" font-family="Helvetica,sans-Serif" font-size="10.00" fill="#000000">/home/jbigot/data/projects</text>
<text text-anchor="middle" x="330.5" y="-511.5" font-family="Helvetica,sans-Serif" font-size="10.00" fill="#000000">/pdi/pdi/src/scalar_datatype.cxx</text>
</g>
<!-- Node1 -->
<g id="node2" class="node">
<title>Node1</title>
<polygon fill="#ffffff" stroke="#bfbfbf" points="0,-448.5 0,-467.5 53,-467.5 53,-448.5 0,-448.5"/>
<text text-anchor="middle" x="26.5" y="-455.5" font-family="Helvetica,sans-Serif" font-size="10.00" fill="#000000">config.h</text>
</g>
<!-- Node0&#45;&gt;Node1 -->
<g id="edge1" class="edge">
<title>Node0&#45;&gt;Node1</title>
<path fill="none" stroke="#191970" d="M247.7307,-505.3843C197.0698,-496.3246 130.7556,-483.7198 63.1557,-468.0094"/>
<polygon fill="#191970" stroke="#191970" points="63.7093,-464.5443 53.1743,-465.669 62.1112,-471.3595 63.7093,-464.5443"/>
</g>
<!-- Node2 -->
<g id="node3" class="node">
<title>Node2</title>
<polygon fill="#ffffff" stroke="#bfbfbf" points="71.5,-448.5 71.5,-467.5 131.5,-467.5 131.5,-448.5 71.5,-448.5"/>
<text text-anchor="middle" x="101.5" y="-455.5" font-family="Helvetica,sans-Serif" font-size="10.00" fill="#000000">algorithm</text>
</g>
<!-- Node0&#45;&gt;Node2 -->
<g id="edge2" class="edge">
<title>Node0&#45;&gt;Node2</title>
<path fill="none" stroke="#191970" d="M274.4803,-504.4554C233.329,-493.4039 178.4017,-478.6526 141.5841,-468.7649"/>
<polygon fill="#191970" stroke="#191970" points="142.272,-465.3257 131.7064,-466.1122 140.4564,-472.0862 142.272,-465.3257"/>
</g>
<!-- Node3 -->
<g id="node4" class="node">
<title>Node3</title>
<polygon fill="#ffffff" stroke="#bfbfbf" points="340,-336.5 340,-355.5 391,-355.5 391,-336.5 340,-336.5"/>
<text text-anchor="middle" x="365.5" y="-343.5" font-family="Helvetica,sans-Serif" font-size="10.00" fill="#000000">cassert</text>
</g>
<!-- Node0&#45;&gt;Node3 -->
<g id="edge3" class="edge">
<title>Node0&#45;&gt;Node3</title>
<path fill="none" stroke="#191970" d="M333.5448,-504.4065C339.8779,-473.0126 354.4662,-400.6961 361.5274,-365.6925"/>
<polygon fill="#191970" stroke="#191970" points="364.9889,-366.2327 363.5356,-355.738 358.1271,-364.8484 364.9889,-366.2327"/>
</g>
<!-- Node4 -->
<g id="node5" class="node">
<title>Node4</title>
<polygon fill="#ffffff" stroke="#bfbfbf" points="509,-448.5 509,-467.5 556,-467.5 556,-448.5 509,-448.5"/>
<text text-anchor="middle" x="532.5" y="-455.5" font-family="Helvetica,sans-Serif" font-size="10.00" fill="#000000">cstdint</text>
</g>
<!-- Node0&#45;&gt;Node4 -->
<g id="edge4" class="edge">
<title>Node0&#45;&gt;Node4</title>
<path fill="none" stroke="#191970" d="M379.9148,-504.4554C416.9081,-493.1926 466.5223,-478.0873 498.9869,-468.2033"/>
<polygon fill="#191970" stroke="#191970" points="500.3399,-471.45 508.887,-465.1891 498.3011,-464.7535 500.3399,-471.45"/>
</g>
<!-- Node5 -->
<g id="node6" class="node">
<title>Node5</title>
<polygon fill="#ffffff" stroke="#bfbfbf" points="574.5,-448.5 574.5,-467.5 622.5,-467.5 622.5,-448.5 574.5,-448.5"/>
<text text-anchor="middle" x="598.5" y="-455.5" font-family="Helvetica,sans-Serif" font-size="10.00" fill="#000000">cstring</text>
</g>
<!-- Node0&#45;&gt;Node5 -->
<g id="edge5" class="edge">
<title>Node0&#45;&gt;Node5</title>
<path fill="none" stroke="#191970" d="M405.1095,-504.4587C451.2241,-494.8209 511.5183,-481.6042 564.5,-468 564.6006,-467.9742 564.7013,-467.9483 564.8021,-467.9223"/>
<polygon fill="#191970" stroke="#191970" points="565.68,-471.3107 574.4112,-465.3094 563.8432,-464.556 565.68,-471.3107"/>
</g>
<!-- Node6 -->
<g id="node7" class="node">
<title>Node6</title>
<polygon fill="#ffffff" stroke="#bfbfbf" points="641,-448.5 641,-467.5 678,-467.5 678,-448.5 641,-448.5"/>
<text text-anchor="middle" x="659.5" y="-455.5" font-family="Helvetica,sans-Serif" font-size="10.00" fill="#000000">map</text>
</g>
<!-- Node0&#45;&gt;Node6 -->
<g id="edge6" class="edge">
<title>Node0&#45;&gt;Node6</title>
<path fill="none" stroke="#191970" d="M413.0827,-509.3087C471.5292,-501.1861 551.7711,-488.1999 630.8295,-467.7872"/>
<polygon fill="#191970" stroke="#191970" points="632.1812,-471.051 640.9651,-465.1271 630.4042,-464.2803 632.1812,-471.051"/>
</g>
<!-- Node7 -->
<g id="node8" class="node">
<title>Node7</title>
<polygon fill="#ffffff" stroke="#bfbfbf" points="368.5,-56.5 368.5,-75.5 422.5,-75.5 422.5,-56.5 368.5,-56.5"/>
<text text-anchor="middle" x="395.5" y="-63.5" font-family="Helvetica,sans-Serif" font-size="10.00" fill="#000000">memory</text>
</g>
<!-- Node0&#45;&gt;Node7 -->
<g id="edge7" class="edge">
<title>Node0&#45;&gt;Node7</title>
<path fill="none" stroke="#191970" d="M269.2481,-504.3482C220.1814,-488.1134 159.5,-456.9313 159.5,-402 159.5,-402 159.5,-402 159.5,-178 159.5,-134.5205 291.8937,-93.3417 358.3573,-75.4088"/>
<polygon fill="#191970" stroke="#191970" points="359.6617,-78.6838 368.4278,-72.7335 357.8644,-71.9184 359.6617,-78.6838"/>
</g>
<!-- Node8 -->
<g id="node9" class="node">
<title>Node8</title>
<polygon fill="#ffffff" stroke="#bfbfbf" points="306,-112.5 306,-131.5 349,-131.5 349,-112.5 306,-112.5"/>
<text text-anchor="middle" x="327.5" y="-119.5" font-family="Helvetica,sans-Serif" font-size="10.00" fill="#000000">string</text>
</g>
<!-- Node0&#45;&gt;Node8 -->
<g id="edge8" class="edge">
<title>Node0&#45;&gt;Node8</title>
<path fill="none" stroke="#191970" d="M291.315,-504.4593C252.0833,-486.54 197.5,-452.5294 197.5,-402 197.5,-402 197.5,-402 197.5,-290 197.5,-221.3745 266.1866,-163.7501 303.7056,-137.3927"/>
<polygon fill="#191970" stroke="#191970" points="305.7989,-140.2014 312.0768,-131.6669 301.8469,-134.4237 305.7989,-140.2014"/>
</g>
<!-- Node9 -->
<g id="node10" class="node">
<title>Node9</title>
<polygon fill="#ffffff" stroke="#bfbfbf" points="696.5,-448.5 696.5,-467.5 750.5,-467.5 750.5,-448.5 696.5,-448.5"/>
<text text-anchor="middle" x="723.5" y="-455.5" font-family="Helvetica,sans-Serif" font-size="10.00" fill="#000000">sstream</text>
</g>
<!-- Node0&#45;&gt;Node9 -->
<g id="edge9" class="edge">
<title>Node0&#45;&gt;Node9</title>
<path fill="none" stroke="#191970" d="M413.2653,-510.5981C483.617,-502.3337 587.4015,-488.5001 686.5738,-467.9809"/>
<polygon fill="#191970" stroke="#191970" points="687.3945,-471.385 696.4642,-465.9088 685.959,-464.5338 687.3945,-471.385"/>
</g>
<!-- Node10 -->
<g id="node11" class="node">
<title>Node10</title>
<g id="a_node11"><a xlink:href="paraconf__wrapper_8h.html" target="_top" xlink:title="pdi/paraconf_wrapper.h">
<polygon fill="#ffffff" stroke="#000000" points="498,-168.5 498,-187.5 627,-187.5 627,-168.5 498,-168.5"/>
<text text-anchor="middle" x="562.5" y="-175.5" font-family="Helvetica,sans-Serif" font-size="10.00" fill="#000000">pdi/paraconf_wrapper.h</text>
</a>
</g>
</g>
<!-- Node0&#45;&gt;Node10 -->
<g id="edge10" class="edge">
<title>Node0&#45;&gt;Node10</title>
<path fill="none" stroke="#191970" d="M325.959,-504.0973C317.1379,-471.0373 301.0112,-391.7608 330.5,-336 371.3562,-258.7445 468.8247,-212.1907 523.537,-191.2367"/>
<polygon fill="#191970" stroke="#191970" points="525.0859,-194.3946 533.2321,-187.6204 522.6394,-187.8359 525.0859,-194.3946"/>
</g>
<!-- Node16 -->
<g id="node17" class="node">
<title>Node16</title>
<g id="a_node17"><a xlink:href="error_8h.html" target="_top" xlink:title="pdi/error.h">
<polygon fill="#ffffff" stroke="#000000" points="317,-168.5 317,-187.5 382,-187.5 382,-168.5 317,-168.5"/>
<text text-anchor="middle" x="349.5" y="-175.5" font-family="Helvetica,sans-Serif" font-size="10.00" fill="#000000">pdi/error.h</text>
</a>
</g>
</g>
<!-- Node0&#45;&gt;Node16 -->
<g id="edge19" class="edge">
<title>Node0&#45;&gt;Node16</title>
<path fill="none" stroke="#191970" d="M302.0513,-504.3522C287.6064,-495.4287 270.7756,-482.9557 259.5,-468 240.7098,-443.0771 235.5,-433.2125 235.5,-402 235.5,-402 235.5,-402 235.5,-290 235.5,-243.4628 284.4383,-209.828 318.1864,-192.1659"/>
<polygon fill="#191970" stroke="#191970" points="319.8862,-195.2289 327.249,-187.6105 316.7424,-188.9746 319.8862,-195.2289"/>
</g>
<!-- Node18 -->
<g id="node19" class="node">
<title>Node18</title>
<g id="a_node19"><a xlink:href="expression_8h.html" target="_top" xlink:title="pdi/expression.h">
<polygon fill="#ffffff" stroke="#000000" points="358.5,-448.5 358.5,-467.5 452.5,-467.5 452.5,-448.5 358.5,-448.5"/>
<text text-anchor="middle" x="405.5" y="-455.5" font-family="Helvetica,sans-Serif" font-size="10.00" fill="#000000">pdi/expression.h</text>
</a>
</g>
</g>
<!-- Node0&#45;&gt;Node18 -->
<g id="edge24" class="edge">
<title>Node0&#45;&gt;Node18</title>
<path fill="none" stroke="#191970" d="M349.0393,-504.2977C360.1008,-495.2274 374.1491,-483.7077 385.4653,-474.4285"/>
<polygon fill="#191970" stroke="#191970" points="387.9781,-476.8942 393.4916,-467.8469 383.5396,-471.4813 387.9781,-476.8942"/>
</g>
<!-- Node26 -->
<g id="node27" class="node">
<title>Node26</title>
<g id="a_node27"><a xlink:href="scalar__datatype_8h.html" target="_top" xlink:title="pdi/scalar_datatype.h">
<polygon fill="#ffffff" stroke="#000000" points="715.5,-392.5 715.5,-411.5 833.5,-411.5 833.5,-392.5 715.5,-392.5"/>
<text text-anchor="middle" x="774.5" y="-399.5" font-family="Helvetica,sans-Serif" font-size="10.00" fill="#000000">pdi/scalar_datatype.h</text>
</a>
</g>
</g>
<!-- Node0&#45;&gt;Node26 -->
<g id="edge43" class="edge">
<title>Node0&#45;&gt;Node26</title>
<path fill="none" stroke="#191970" d="M372.2885,-504.4117C398.2604,-494.7057 432.1727,-481.4332 461.5,-468 478.8516,-460.0522 481.4145,-454.096 499.5,-448 567.2972,-425.1477 648.475,-413.3497 704.9841,-407.4589"/>
<polygon fill="#191970" stroke="#191970" points="705.6406,-410.9106 715.2397,-406.4264 704.9394,-403.9458 705.6406,-410.9106"/>
</g>
<!-- Node10&#45;&gt;Node8 -->
<g id="edge11" class="edge">
<title>Node10&#45;&gt;Node8</title>
<path fill="none" stroke="#191970" d="M514.3844,-168.43C475.0436,-160.3171 417.8087,-147.8599 358.9481,-131.9359"/>
<polygon fill="#191970" stroke="#191970" points="359.6746,-128.5062 349.1055,-129.2444 357.8281,-135.2583 359.6746,-128.5062"/>
</g>
<!-- Node11 -->
<g id="node12" class="node">
<title>Node11</title>
<polygon fill="#ffffff" stroke="#bfbfbf" points="710,-.5 710,-19.5 777,-19.5 777,-.5 710,-.5"/>
<text text-anchor="middle" x="743.5" y="-7.5" font-family="Helvetica,sans-Serif" font-size="10.00" fill="#000000">paraconf.h</text>
</g>
<!-- Node10&#45;&gt;Node11 -->
<g id="edge12" class="edge">
<title>Node10&#45;&gt;Node11</title>
<path fill="none" stroke="#191970" d="M572.7499,-168.4862C602.2289,-141.1246 687.527,-61.9528 725.2209,-26.9663"/>
<polygon fill="#191970" stroke="#191970" points="727.9633,-29.1962 732.9116,-19.8279 723.2012,-24.0656 727.9633,-29.1962"/>
</g>
<!-- Node12 -->
<g id="node13" class="node">
<title>Node12</title>
<g id="a_node13"><a xlink:href="pdi__fwd_8h.html" target="_top" xlink:title="pdi/pdi_fwd.h">
<polygon fill="#ffffff" stroke="#000000" points="718,-112.5 718,-131.5 797,-131.5 797,-112.5 718,-112.5"/>
<text text-anchor="middle" x="757.5" y="-119.5" font-family="Helvetica,sans-Serif" font-size="10.00" fill="#000000">pdi/pdi_fwd.h</text>
</a>
</g>
</g>
<!-- Node10&#45;&gt;Node12 -->
<g id="edge13" class="edge">
<title>Node10&#45;&gt;Node12</title>
<path fill="none" stroke="#191970" d="M596.0217,-168.3733C628.8683,-158.9404 679.0595,-144.5265 714.7578,-134.2747"/>
<polygon fill="#191970" stroke="#191970" points="715.7703,-137.6255 724.4157,-131.5011 713.8381,-130.8974 715.7703,-137.6255"/>
</g>
<!-- Node12&#45;&gt;Node7 -->
<g id="edge14" class="edge">
<title>Node12&#45;&gt;Node7</title>
<path fill="none" stroke="#191970" d="M717.7241,-115.8468C647.1456,-104.9286 501.001,-82.3206 432.4771,-71.7202"/>
<polygon fill="#191970" stroke="#191970" points="432.976,-68.2558 422.5585,-70.1858 431.9058,-75.1736 432.976,-68.2558"/>
</g>
<!-- Node13 -->
<g id="node14" class="node">
<title>Node13</title>
<g id="a_node14"><a xlink:href="pdi_8h.html" target="_top" xlink:title="pdi.h">
<polygon fill="#ffffff" stroke="#000000" points="984,-56.5 984,-75.5 1023,-75.5 1023,-56.5 984,-56.5"/>
<text text-anchor="middle" x="1003.5" y="-63.5" font-family="Helvetica,sans-Serif" font-size="10.00" fill="#000000">pdi.h</text>
</a>
</g>
</g>
<!-- Node12&#45;&gt;Node13 -->
<g id="edge15" class="edge">
<title>Node12&#45;&gt;Node13</title>
<path fill="none" stroke="#191970" d="M797.0242,-113.0026C846.4389,-101.7538 929.8877,-82.7573 974.048,-72.7045"/>
<polygon fill="#191970" stroke="#191970" points="974.8998,-76.1002 983.8735,-70.4678 973.346,-69.2748 974.8998,-76.1002"/>
</g>
<!-- Node13&#45;&gt;Node11 -->
<g id="edge16" class="edge">
<title>Node13&#45;&gt;Node11</title>
<path fill="none" stroke="#191970" d="M983.8011,-59.897C979.1335,-58.5369 974.1577,-57.1567 969.5,-56 906.457,-40.3433 832.5565,-26.0571 786.8772,-17.692"/>
<polygon fill="#191970" stroke="#191970" points="787.4792,-14.2441 777.0142,-15.8976 786.2262,-21.1311 787.4792,-14.2441"/>
</g>
<!-- Node14 -->
<g id="node15" class="node">
<title>Node14</title>
<polygon fill="#ffffff" stroke="#bfbfbf" points="920.5,-.5 920.5,-19.5 992.5,-19.5 992.5,-.5 920.5,-.5"/>
<text text-anchor="middle" x="956.5" y="-7.5" font-family="Helvetica,sans-Serif" font-size="10.00" fill="#000000">pdi/export.h</text>
</g>
<!-- Node13&#45;&gt;Node14 -->
<g id="edge17" class="edge">
<title>Node13&#45;&gt;Node14</title>
<path fill="none" stroke="#191970" d="M995.3132,-56.2455C988.6411,-48.2958 979.0521,-36.8706 971.0747,-27.3656"/>
<polygon fill="#191970" stroke="#191970" points="973.7026,-25.0524 964.593,-19.6427 968.3408,-29.5525 973.7026,-25.0524"/>
</g>
<!-- Node15 -->
<g id="node16" class="node">
<title>Node15</title>
<polygon fill="#ffffff" stroke="#bfbfbf" points="1011,-.5 1011,-19.5 1088,-19.5 1088,-.5 1011,-.5"/>
<text text-anchor="middle" x="1049.5" y="-7.5" font-family="Helvetica,sans-Serif" font-size="10.00" fill="#000000">pdi/version.h</text>
</g>
<!-- Node13&#45;&gt;Node15 -->
<g id="edge18" class="edge">
<title>Node13&#45;&gt;Node15</title>
<path fill="none" stroke="#191970" d="M1011.5126,-56.2455C1017.9768,-48.3761 1027.2385,-37.101 1034.9983,-27.6542"/>
<polygon fill="#191970" stroke="#191970" points="1037.9364,-29.5916 1041.5792,-19.6427 1032.5273,-25.1484 1037.9364,-29.5916"/>
</g>
<!-- Node16&#45;&gt;Node8 -->
<g id="edge21" class="edge">
<title>Node16&#45;&gt;Node8</title>
<path fill="none" stroke="#191970" d="M345.6679,-168.2455C342.7341,-160.7776 338.5953,-150.2427 335.009,-141.1137"/>
<polygon fill="#191970" stroke="#191970" points="338.2024,-139.6704 331.2882,-131.6427 331.6871,-142.23 338.2024,-139.6704"/>
</g>
<!-- Node16&#45;&gt;Node11 -->
<g id="edge22" class="edge">
<title>Node16&#45;&gt;Node11</title>
<path fill="none" stroke="#191970" d="M332.11,-168.3751C312.9958,-156.4166 286.2658,-134.79 296.5,-112 311.8468,-77.825 325.3381,-71.3761 359.5,-56 419.4387,-29.0219 612.3081,-16.4031 699.7151,-11.9597"/>
<polygon fill="#191970" stroke="#191970" points="700.0212,-15.4489 709.8356,-11.4579 699.6745,-8.4575 700.0212,-15.4489"/>
</g>
<!-- Node16&#45;&gt;Node12 -->
<g id="edge23" class="edge">
<title>Node16&#45;&gt;Node12</title>
<path fill="none" stroke="#191970" d="M382.1987,-173.5119C453.4469,-163.7328 623.0791,-140.4499 707.707,-128.8343"/>
<polygon fill="#191970" stroke="#191970" points="708.4082,-132.271 717.8393,-127.4436 707.4563,-125.336 708.4082,-132.271"/>
</g>
<!-- Node17 -->
<g id="node18" class="node">
<title>Node17</title>
<polygon fill="#ffffff" stroke="#bfbfbf" points="367.5,-112.5 367.5,-131.5 429.5,-131.5 429.5,-112.5 367.5,-112.5"/>
<text text-anchor="middle" x="398.5" y="-119.5" font-family="Helvetica,sans-Serif" font-size="10.00" fill="#000000">exception</text>
</g>
<!-- Node16&#45;&gt;Node17 -->
<g id="edge20" class="edge">
<title>Node16&#45;&gt;Node17</title>
<path fill="none" stroke="#191970" d="M358.0351,-168.2455C364.9912,-160.2958 374.9883,-148.8706 383.3051,-139.3656"/>
<polygon fill="#191970" stroke="#191970" points="386.1116,-141.4732 390.0627,-131.6427 380.8436,-136.8637 386.1116,-141.4732"/>
</g>
<!-- Node18&#45;&gt;Node7 -->
<g id="edge25" class="edge">
<title>Node18&#45;&gt;Node7</title>
<path fill="none" stroke="#191970" d="M395.7803,-448.3152C379.3414,-431.294 346.2994,-394.183 330.5,-356 291.9998,-262.9549 304.077,-232.4104 296.5,-132 295.8311,-123.1363 291.7189,-119.4936 296.5,-112 310.1137,-90.6629 336.4653,-79.0693 358.5601,-72.86"/>
<polygon fill="#191970" stroke="#191970" points="359.5222,-76.2268 368.3512,-70.3703 357.7971,-69.4427 359.5222,-76.2268"/>
</g>
<!-- Node18&#45;&gt;Node12 -->
<g id="edge26" class="edge">
<title>Node18&#45;&gt;Node12</title>
<path fill="none" stroke="#191970" d="M452.8367,-452.951C467.766,-451.3622 484.3218,-449.6039 499.5,-448 651.9331,-431.8925 702.113,-473.537 842.5,-412 883.1669,-394.1741 917.5,-390.4022 917.5,-346 917.5,-346 917.5,-346 917.5,-234 917.5,-179.2361 853.8134,-148.9932 806.8006,-134.1288"/>
<polygon fill="#191970" stroke="#191970" points="807.6353,-130.7248 797.0506,-131.187 805.6133,-137.4265 807.6353,-130.7248"/>
</g>
<!-- Node19 -->
<g id="node20" class="node">
<title>Node19</title>
<g id="a_node20"><a xlink:href="ref__any_8h.html" target="_top" xlink:title="pdi/ref_any.h">
<polygon fill="#ffffff" stroke="#000000" points="492.5,-392.5 492.5,-411.5 570.5,-411.5 570.5,-392.5 492.5,-392.5"/>
<text text-anchor="middle" x="531.5" y="-399.5" font-family="Helvetica,sans-Serif" font-size="10.00" fill="#000000">pdi/ref_any.h</text>
</a>
</g>
</g>
<!-- Node18&#45;&gt;Node19 -->
<g id="edge27" class="edge">
<title>Node18&#45;&gt;Node19</title>
<path fill="none" stroke="#191970" d="M427.1602,-448.3733C447.4772,-439.3435 478.064,-425.7494 500.875,-415.6111"/>
<polygon fill="#191970" stroke="#191970" points="502.4059,-418.7609 510.1225,-411.5011 499.5628,-412.3642 502.4059,-418.7609"/>
</g>
<!-- Node19&#45;&gt;Node3 -->
<g id="edge28" class="edge">
<title>Node19&#45;&gt;Node3</title>
<path fill="none" stroke="#191970" d="M502.9636,-392.3733C474.7302,-382.8488 431.4436,-368.246 401.0037,-357.9772"/>
<polygon fill="#191970" stroke="#191970" points="401.8076,-354.5546 391.2135,-354.6744 399.57,-361.1874 401.8076,-354.5546"/>
</g>
<!-- Node19&#45;&gt;Node7 -->
<g id="edge30" class="edge">
<title>Node19&#45;&gt;Node7</title>
<path fill="none" stroke="#191970" d="M515.5094,-392.4228C503.1391,-384.2247 486.4865,-371.3333 476.5,-356 459.8411,-330.422 457.5,-320.5246 457.5,-290 457.5,-290 457.5,-290 457.5,-178 457.5,-147.4754 453.561,-138.5503 438.5,-112 432.3686,-101.1914 423.2043,-90.9119 414.9093,-82.8228"/>
<polygon fill="#191970" stroke="#191970" points="417.0564,-80.04 407.3501,-75.7927 412.2892,-85.1658 417.0564,-80.04"/>
</g>
<!-- Node19&#45;&gt;Node12 -->
<g id="edge33" class="edge">
<title>Node19&#45;&gt;Node12</title>
<path fill="none" stroke="#191970" d="M570.7158,-394.6003C594.1489,-388.2057 622.7236,-376.6074 640.5,-356 680.0706,-310.1274 647.1945,-278.079 674.5,-224 691.4273,-190.4752 720.8716,-157.9185 739.7573,-138.9284"/>
<polygon fill="#191970" stroke="#191970" points="742.4704,-141.1687 747.1374,-131.6571 737.5575,-136.1823 742.4704,-141.1687"/>
</g>
<!-- Node19&#45;&gt;Node16 -->
<g id="edge42" class="edge">
<title>Node19&#45;&gt;Node16</title>
<path fill="none" stroke="#191970" d="M503.3905,-392.3895C484.6122,-384.8423 460.3574,-372.7867 443.5,-356 396.148,-308.8466 367.0894,-232.8236 355.4149,-197.3677"/>
<polygon fill="#191970" stroke="#191970" points="358.7193,-196.2091 352.3489,-187.7433 352.0495,-198.3339 358.7193,-196.2091"/>
</g>
<!-- Node20 -->
<g id="node21" class="node">
<title>Node20</title>
<polygon fill="#ffffff" stroke="#bfbfbf" points="789.5,-336.5 789.5,-355.5 851.5,-355.5 851.5,-336.5 789.5,-336.5"/>
<text text-anchor="middle" x="820.5" y="-343.5" font-family="Helvetica,sans-Serif" font-size="10.00" fill="#000000">functional</text>
</g>
<!-- Node19&#45;&gt;Node20 -->
<g id="edge29" class="edge">
<title>Node19&#45;&gt;Node20</title>
<path fill="none" stroke="#191970" d="M570.8963,-395.5024C618.094,-387.5464 699.7745,-373.2344 778.9572,-356.241"/>
<polygon fill="#191970" stroke="#191970" points="780.0669,-359.582 789.1004,-354.0462 778.5864,-352.7403 780.0669,-359.582"/>
</g>
<!-- Node21 -->
<g id="node22" class="node">
<title>Node21</title>
<polygon fill="#ffffff" stroke="#bfbfbf" points="595.5,-336.5 595.5,-355.5 631.5,-355.5 631.5,-336.5 595.5,-336.5"/>
<text text-anchor="middle" x="613.5" y="-343.5" font-family="Helvetica,sans-Serif" font-size="10.00" fill="#000000">new</text>
</g>
<!-- Node19&#45;&gt;Node21 -->
<g id="edge31" class="edge">
<title>Node19&#45;&gt;Node21</title>
<path fill="none" stroke="#191970" d="M545.7833,-392.2455C558.247,-383.7337 576.5451,-371.2375 590.9792,-361.3801"/>
<polygon fill="#191970" stroke="#191970" points="593.0962,-364.1726 599.3804,-355.6427 589.1485,-358.392 593.0962,-364.1726"/>
</g>
<!-- Node22 -->
<g id="node23" class="node">
<title>Node22</title>
<polygon fill="#ffffff" stroke="#bfbfbf" points="485.5,-336.5 485.5,-355.5 577.5,-355.5 577.5,-336.5 485.5,-336.5"/>
<text text-anchor="middle" x="531.5" y="-343.5" font-family="Helvetica,sans-Serif" font-size="10.00" fill="#000000">unordered_map</text>
</g>
<!-- Node19&#45;&gt;Node22 -->
<g id="edge32" class="edge">
<title>Node19&#45;&gt;Node22</title>
<path fill="none" stroke="#191970" d="M531.5,-392.2455C531.5,-384.9382 531.5,-374.6944 531.5,-365.7046"/>
<polygon fill="#191970" stroke="#191970" points="535.0001,-365.6426 531.5,-355.6427 528.0001,-365.6427 535.0001,-365.6426"/>
</g>
<!-- Node23 -->
<g id="node24" class="node">
<title>Node23</title>
<g id="a_node24"><a xlink:href="datatype_8h.html" target="_top" xlink:title="pdi/datatype.h">
<polygon fill="#ffffff" stroke="#000000" points="688,-336.5 688,-355.5 771,-355.5 771,-336.5 688,-336.5"/>
<text text-anchor="middle" x="729.5" y="-343.5" font-family="Helvetica,sans-Serif" font-size="10.00" fill="#000000">pdi/datatype.h</text>
</a>
</g>
</g>
<!-- Node19&#45;&gt;Node23 -->
<g id="edge34" class="edge">
<title>Node19&#45;&gt;Node23</title>
<path fill="none" stroke="#191970" d="M565.5374,-392.3733C598.8894,-382.9404 649.8527,-368.5265 686.1002,-358.2747"/>
<polygon fill="#191970" stroke="#191970" points="687.2368,-361.5906 695.9067,-355.5011 685.3316,-354.8548 687.2368,-361.5906"/>
</g>
<!-- Node23&#45;&gt;Node12 -->
<g id="edge35" class="edge">
<title>Node23&#45;&gt;Node12</title>
<path fill="none" stroke="#191970" d="M770.6985,-336.3939C789.9492,-329.6178 811.0964,-318.3627 822.5,-300 855.9404,-246.1521 802.2259,-172.5317 773.6041,-139.4032"/>
<polygon fill="#191970" stroke="#191970" points="776.1918,-137.0461 766.9364,-131.8898 770.9562,-141.6924 776.1918,-137.0461"/>
</g>
<!-- Node24 -->
<g id="node25" class="node">
<title>Node24</title>
<g id="a_node25"><a xlink:href="datatype__template_8h.html" target="_top" xlink:title="pdi/datatype_template.h">
<polygon fill="#ffffff" stroke="#000000" points="683.5,-280.5 683.5,-299.5 813.5,-299.5 813.5,-280.5 683.5,-280.5"/>
<text text-anchor="middle" x="748.5" y="-287.5" font-family="Helvetica,sans-Serif" font-size="10.00" fill="#000000">pdi/datatype_template.h</text>
</a>
</g>
</g>
<!-- Node23&#45;&gt;Node24 -->
<g id="edge36" class="edge">
<title>Node23&#45;&gt;Node24</title>
<path fill="none" stroke="#191970" d="M732.8095,-336.2455C735.3433,-328.7776 738.9177,-318.2427 742.015,-309.1137"/>
<polygon fill="#191970" stroke="#191970" points="745.3298,-310.237 745.2284,-299.6427 738.7009,-307.9879 745.3298,-310.237"/>
</g>
<!-- Node24&#45;&gt;Node11 -->
<g id="edge37" class="edge">
<title>Node24&#45;&gt;Node11</title>
<path fill="none" stroke="#191970" d="M813.712,-282.1966C874.3877,-270.8683 955.5,-243.4791 955.5,-178 955.5,-178 955.5,-178 955.5,-122 955.5,-46.6453 849.4906,-21.858 787.3984,-13.8025"/>
<polygon fill="#191970" stroke="#191970" points="787.4378,-10.2822 777.092,-12.5659 786.6038,-17.2324 787.4378,-10.2822"/>
</g>
<!-- Node24&#45;&gt;Node12 -->
<g id="edge38" class="edge">
<title>Node24&#45;&gt;Node12</title>
<path fill="none" stroke="#191970" d="M752.911,-280.3802C756.8419,-271.2426 762.3026,-257.0061 764.5,-244 770.5411,-208.2433 765.3942,-165.8462 761.3065,-141.6171"/>
<polygon fill="#191970" stroke="#191970" points="764.7139,-140.7901 759.4927,-131.5711 757.8253,-142.0339 764.7139,-140.7901"/>
</g>
<!-- Node25 -->
<g id="node26" class="node">
<title>Node25</title>
<g id="a_node26"><a xlink:href="logger_8h.html" target="_top" xlink:title="pdi/logger.h">
<polygon fill="#ffffff" stroke="#000000" points="683.5,-224.5 683.5,-243.5 755.5,-243.5 755.5,-224.5 683.5,-224.5"/>
<text text-anchor="middle" x="719.5" y="-231.5" font-family="Helvetica,sans-Serif" font-size="10.00" fill="#000000">pdi/logger.h</text>
</a>
</g>
</g>
<!-- Node24&#45;&gt;Node25 -->
<g id="edge39" class="edge">
<title>Node24&#45;&gt;Node25</title>
<path fill="none" stroke="#191970" d="M743.4486,-280.2455C739.4981,-272.617 733.8903,-261.7881 729.0942,-252.5267"/>
<polygon fill="#191970" stroke="#191970" points="732.2001,-250.9131 724.4935,-243.6427 725.9841,-254.1321 732.2001,-250.9131"/>
</g>
<!-- Node25&#45;&gt;Node10 -->
<g id="edge41" class="edge">
<title>Node25&#45;&gt;Node10</title>
<path fill="none" stroke="#191970" d="M692.5107,-224.3733C666.6301,-215.1419 627.3752,-201.1402 598.7711,-190.9375"/>
<polygon fill="#191970" stroke="#191970" points="599.7317,-187.5642 589.1371,-187.5011 597.38,-194.1573 599.7317,-187.5642"/>
</g>
<!-- Node25&#45;&gt;Node12 -->
<g id="edge40" class="edge">
<title>Node25&#45;&gt;Node12</title>
<path fill="none" stroke="#191970" d="M722.7399,-224.4509C728.9937,-206.0186 742.8342,-165.2254 751.039,-141.043"/>
<polygon fill="#191970" stroke="#191970" points="754.3697,-142.1192 754.2683,-131.5249 747.7409,-139.8701 754.3697,-142.1192"/>
</g>
<!-- Node26&#45;&gt;Node12 -->
<g id="edge45" class="edge">
<title>Node26&#45;&gt;Node12</title>
<path fill="none" stroke="#191970" d="M805.1754,-392.4744C823.6809,-385.2432 846.3403,-373.5113 860.5,-356 879.6929,-332.2642 879.5,-320.5246 879.5,-290 879.5,-290 879.5,-290 879.5,-234 879.5,-185.9632 827.5389,-152.9238 791.4382,-135.766"/>
<polygon fill="#191970" stroke="#191970" points="792.7393,-132.5126 782.1885,-131.5474 789.8345,-138.8815 792.7393,-132.5126"/>
</g>
<!-- Node26&#45;&gt;Node20 -->
<g id="edge44" class="edge">
<title>Node26&#45;&gt;Node20</title>
<path fill="none" stroke="#191970" d="M782.5126,-392.2455C788.9768,-384.3761 798.2385,-373.101 805.9983,-363.6542"/>
<polygon fill="#191970" stroke="#191970" points="808.9364,-365.5916 812.5792,-355.6427 803.5273,-361.1484 808.9364,-365.5916"/>
</g>
<!-- Node26&#45;&gt;Node23 -->
<g id="edge46" class="edge">
<title>Node26&#45;&gt;Node23</title>
<path fill="none" stroke="#191970" d="M766.6616,-392.2455C760.338,-384.3761 751.2776,-373.101 743.6864,-363.6542"/>
<polygon fill="#191970" stroke="#191970" points="746.2408,-361.2454 737.2486,-355.6427 740.7842,-365.6302 746.2408,-361.2454"/>
</g>
</g>
</svg>
        <g id="navigator" transform="translate(0 0)" fill="#404254">
                <rect fill="#f2f5e9" fill-opacity="0.5" stroke="#606060" stroke-width=".5" x="0" y="0" width="60" height="60"/>
                <use id="zoomplus" xlink:href="#zoomPlus" x="17" y="9" onmousedown="handleZoom(evt,'in')"/>
                <use id="zoomminus" xlink:href="#zoomMin" x="42" y="9" onmousedown="handleZoom(evt,'out')"/>
                <use id="reset" xlink:href="#resetDef" x="30" y="36" onmousedown="handleReset()"/>
                <g id="arrowUp" xlink:href="#dirArrow" transform="translate(30 24)" onmousedown="handlePan(0,-1)">
                  <use xlink:href="#rim" fill="#404040">
                        <set attributeName="fill" to="#808080" begin="arrowUp.mouseover" end="arrowUp.mouseout"/>
                  </use>
                  <path fill="none" stroke="white" stroke-width="1.5" d="M0,-3.0v7 M-2.5,-0.5L0,-3.0L2.5,-0.5"/>
                </g>
                <g id="arrowRight" xlink:href="#dirArrow" transform="rotate(90) translate(36 -43)" onmousedown="handlePan(1,0)">
                  <use xlink:href="#rim" fill="#404040">
                        <set attributeName="fill" to="#808080" begin="arrowRight.mouseover" end="arrowRight.mouseout"/>
                  </use>
                  <path fill="none" stroke="white" stroke-width="1.5" d="M0,-3.0v7 M-2.5,-0.5L0,-3.0L2.5,-0.5"/>
                </g>
                <g id="arrowDown" xlink:href="#dirArrow" transform="rotate(180) translate(-30 -48)" onmousedown="handlePan(0,1)">
                  <use xlink:href="#rim" fill="#404040">
                        <set attributeName="fill" to="#808080" begin="arrowDown.mouseover" end="arrowDown.mouseout"/>
                  </use>
                  <path fill="none" stroke="white" stroke-width="1.5" d="M0,-3.0v7 M-2.5,-0.5L0,-3.0L2.5,-0.5"/>
                </g>
                <g id="arrowLeft" xlink:href="#dirArrow" transform="rotate(270) translate(-36 17)" onmousedown="handlePan(-1,0)">
                  <use xlink:href="#rim" fill="#404040">
                        <set attributeName="fill" to="#808080" begin="arrowLeft.mouseover" end="arrowLeft.mouseout"/>
                  </use>
                  <path fill="none" stroke="white" stroke-width="1.5" d="M0,-3.0v7 M-2.5,-0.5L0,-3.0L2.5,-0.5"/>
                </g>
        </g>
        <svg viewBox="0 0 15 15" width="100%" height="30px" preserveAspectRatio="xMaxYMin meet">
         <g id="arrow_out" transform="scale(0.3 0.3)">
          <a xlink:href="scalar__datatype_8cxx__incl_org.svg" target="_base">
           <rect id="button" ry="5" rx="5" y="6" x="6" height="38" width="38"
                fill="#f2f5e9" fill-opacity="0.5" stroke="#606060" stroke-width="1.0"/>
           <path id="arrow"
             d="M 11.500037,31.436501 C 11.940474,20.09759 22.043105,11.32322 32.158766,21.979434 L 37.068811,17.246167 C 37.068811,17.246167 37.088388,32 37.088388,32 L 22.160133,31.978069 C 22.160133,31.978069 26.997745,27.140456 26.997745,27.140456 C 18.528582,18.264221 13.291696,25.230495 11.500037,31.436501 z"
             style="fill:#404040;"/>
          </a>
         </g>
        </svg>
</svg>
