<?xml version="1.0" encoding="UTF-8" standalone="no"?>
<!DOCTYPE svg PUBLIC "-//W3C//DTD SVG 1.1//EN"
 "http://www.w3.org/Graphics/SVG/1.1/DTD/svg11.dtd">
<!-- Generated by graphviz version 2.40.1 (20161225.0304)
 -->
<!-- Title: PDI::Expression::Impl::Reference_expression::parse Pages: 1 -->
<svg width="438pt" height="112pt"
 viewBox="0.00 0.00 438.00 112.00" xmlns="http://www.w3.org/2000/svg" xmlns:xlink="http://www.w3.org/1999/xlink">
<g id="graph0" class="graph" transform="scale(1 1) rotate(0) translate(4 108)">
<title>PDI::Expression::Impl::Reference_expression::parse</title>
<polygon fill="#ffffff" stroke="transparent" points="-4,4 -4,-108 434,-108 434,4 -4,4"/>
<!-- Node2 -->
<g id="node1" class="node">
<title>Node2</title>
<polygon fill="#bfbfbf" stroke="#000000" points="0,-43 0,-84 128,-84 128,-43 0,-43"/>
<text text-anchor="start" x="8" y="-72" font-family="Helvetica,sans-Serif" font-size="10.00" fill="#000000">PDI::Expression::Impl</text>
<text text-anchor="start" x="8" y="-61" font-family="Helvetica,sans-Serif" font-size="10.00" fill="#000000">::Reference_expression</text>
<text text-anchor="middle" x="64" y="-50" font-family="Helvetica,sans-Serif" font-size="10.00" fill="#000000">::parse</text>
</g>
<!-- Node3 -->
<g id="node2" class="node">
<title>Node3</title>
<g id="a_node2"><a xlink:href="structPDI_1_1Expression_1_1Impl.html#a4df2c86a5deaf2ad3670ab249203c5f8" target="_top" xlink:title="PDI::Expression::Impl\l::parse_id">
<polygon fill="#ffffff" stroke="#000000" points="164,-73.5 164,-103.5 279,-103.5 279,-73.5 164,-73.5"/>
<text text-anchor="start" x="172" y="-91.5" font-family="Helvetica,sans-Serif" font-size="10.00" fill="#000000">PDI::Expression::Impl</text>
<text text-anchor="middle" x="221.5" y="-80.5" font-family="Helvetica,sans-Serif" font-size="10.00" fill="#000000">::parse_id</text>
</a>
</g>
</g>
<!-- Node2&#45;&gt;Node3 -->
<g id="edge1" class="edge">
<title>Node2&#45;&gt;Node3</title>
<path fill="none" stroke="#191970" d="M128.0613,-73.6685C136.5698,-75.019 145.3156,-76.4072 153.882,-77.767"/>
<polygon fill="#191970" stroke="#191970" points="153.4058,-81.2351 163.8309,-79.3462 154.5032,-74.3217 153.4058,-81.2351"/>
</g>
<!-- Node4 -->
<g id="node3" class="node">
<title>Node4</title>
<g id="a_node3"><a xlink:href="structPDI_1_1Expression_1_1Impl_1_1Operation.html#a5116425b93990eb079c296765a875fd7" target="_top" xlink:title="PDI::Expression::Impl\l::Operation::parse">
<polygon fill="#ffffff" stroke="#000000" points="164,-24.5 164,-54.5 279,-54.5 279,-24.5 164,-24.5"/>
<text text-anchor="start" x="172" y="-42.5" font-family="Helvetica,sans-Serif" font-size="10.00" fill="#000000">PDI::Expression::Impl</text>
<text text-anchor="middle" x="221.5" y="-31.5" font-family="Helvetica,sans-Serif" font-size="10.00" fill="#000000">::Operation::parse</text>
</a>
</g>
</g>
<!-- Node2&#45;&gt;Node4 -->
<g id="edge2" class="edge">
<title>Node2&#45;&gt;Node4</title>
<path fill="none" stroke="#191970" d="M128.0613,-53.7383C136.5698,-52.4417 145.3156,-51.1091 153.882,-49.8037"/>
<polygon fill="#191970" stroke="#191970" points="154.4722,-53.2542 163.8309,-48.2877 153.4177,-46.3341 154.4722,-53.2542"/>
</g>
<!-- Node5 -->
<g id="node4" class="node">
<title>Node5</title>
<g id="a_node4"><a xlink:href="structPDI_1_1Expression_1_1Impl.html#a6cdce6e298de06f6c558ee9a96642d31" target="_top" xlink:title="PDI::Expression::Impl\l::parse_term">
<polygon fill="#ffffff" stroke="#000000" points="315,-49.5 315,-79.5 430,-79.5 430,-49.5 315,-49.5"/>
<text text-anchor="start" x="323" y="-67.5" font-family="Helvetica,sans-Serif" font-size="10.00" fill="#000000">PDI::Expression::Impl</text>
<text text-anchor="middle" x="372.5" y="-56.5" font-family="Helvetica,sans-Serif" font-size="10.00" fill="#000000">::parse_term</text>
</a>
</g>
</g>
<!-- Node4&#45;&gt;Node5 -->
<g id="edge3" class="edge">
<title>Node4&#45;&gt;Node5</title>
<path fill="none" stroke="#191970" d="M279.0174,-49.0227C287.4639,-50.4212 296.2292,-51.8724 304.8561,-53.3007"/>
<polygon fill="#191970" stroke="#191970" points="304.4551,-56.7819 314.8925,-54.9623 305.5985,-49.8759 304.4551,-56.7819"/>
</g>
<!-- Node6 -->
<g id="node5" class="node">
<title>Node6</title>
<g id="a_node5"><a xlink:href="structPDI_1_1Expression_1_1Impl_1_1Int__literal.html#adece4188b33ff22d6561cf94f94d5231" target="_top" xlink:title="PDI::Expression::Impl\l::Int_literal::parse">
<polygon fill="#ffffff" stroke="#000000" points="315,-.5 315,-30.5 430,-30.5 430,-.5 315,-.5"/>
<text text-anchor="start" x="323" y="-18.5" font-family="Helvetica,sans-Serif" font-size="10.00" fill="#000000">PDI::Expression::Impl</text>
<text text-anchor="middle" x="372.5" y="-7.5" font-family="Helvetica,sans-Serif" font-size="10.00" fill="#000000">::Int_literal::parse</text>
</a>
</g>
</g>
<!-- Node4&#45;&gt;Node6 -->
<g id="edge4" class="edge">
<title>Node4&#45;&gt;Node6</title>
<path fill="none" stroke="#191970" d="M279.0174,-30.3582C287.4639,-29.0157 296.2292,-27.6225 304.8561,-26.2513"/>
<polygon fill="#191970" stroke="#191970" points="305.5659,-29.6826 314.8925,-24.6562 304.4671,-22.7693 305.5659,-29.6826"/>
</g>
</g>
</svg>
