<?xml version="1.0" encoding="UTF-8" standalone="no"?>
<!DOCTYPE svg PUBLIC "-//W3C//DTD SVG 1.1//EN"
 "http://www.w3.org/Graphics/SVG/1.1/DTD/svg11.dtd">
<!-- Generated by graphviz version 2.40.1 (20161225.0304)
 -->
<!-- Title: PDI::Expression::Impl::Int_literal Pages: 1 -->
<svg width="123pt" height="281pt"
 viewBox="0.00 0.00 123.00 281.00" xmlns="http://www.w3.org/2000/svg" xmlns:xlink="http://www.w3.org/1999/xlink">
<g id="graph0" class="graph" transform="scale(1 1) rotate(0) translate(4 277)">
<title>PDI::Expression::Impl::Int_literal</title>
<polygon fill="#ffffff" stroke="transparent" points="-4,4 -4,-277 119,-277 119,4 -4,4"/>
<!-- Node2 -->
<g id="node1" class="node">
<title>Node2</title>
<polygon fill="#bfbfbf" stroke="#000000" points="0,-.5 0,-112.5 115,-112.5 115,-.5 0,-.5"/>
<text text-anchor="start" x="8" y="-100.5" font-family="Helvetica,sans-Serif" font-size="10.00" fill="#000000">PDI::Expression::Impl</text>
<text text-anchor="middle" x="57.5" y="-89.5" font-family="Helvetica,sans-Serif" font-size="10.00" fill="#000000">::Int_literal</text>
<polyline fill="none" stroke="#000000" points="0,-82.5 115,-82.5 "/>
<text text-anchor="start" x="8" y="-70.5" font-family="Helvetica,sans-Serif" font-size="10.00" fill="#000000">+ m_value</text>
<polyline fill="none" stroke="#000000" points="0,-63.5 115,-63.5 "/>
<text text-anchor="start" x="8" y="-51.5" font-family="Helvetica,sans-Serif" font-size="10.00" fill="#000000">+ Int_literal()</text>
<text text-anchor="start" x="8" y="-40.5" font-family="Helvetica,sans-Serif" font-size="10.00" fill="#000000">+ clone()</text>
<text text-anchor="start" x="8" y="-29.5" font-family="Helvetica,sans-Serif" font-size="10.00" fill="#000000">+ to_long()</text>
<text text-anchor="start" x="8" y="-18.5" font-family="Helvetica,sans-Serif" font-size="10.00" fill="#000000">+ to_ref()</text>
<text text-anchor="start" x="8" y="-7.5" font-family="Helvetica,sans-Serif" font-size="10.00" fill="#000000">+ parse()</text>
</g>
<!-- Node3 -->
<g id="node2" class="node">
<title>Node3</title>
<g id="a_node2"><a xlink:href="structPDI_1_1Expression_1_1Impl.html" target="_top" xlink:title="{PDI::Expression::Impl\n||+ ~Impl()\l+ clone()\l+ to_long()\l+ to_string()\l+ to_ref()\l+ parse_term()\l+ parse_id()\l}">
<polygon fill="#ffffff" stroke="#000000" points="0,-149.5 0,-272.5 115,-272.5 115,-149.5 0,-149.5"/>
<text text-anchor="middle" x="57.5" y="-260.5" font-family="Helvetica,sans-Serif" font-size="10.00" fill="#000000">PDI::Expression::Impl</text>
<polyline fill="none" stroke="#000000" points="0,-253.5 115,-253.5 "/>
<text text-anchor="middle" x="57.5" y="-241.5" font-family="Helvetica,sans-Serif" font-size="10.00" fill="#000000"> </text>
<polyline fill="none" stroke="#000000" points="0,-234.5 115,-234.5 "/>
<text text-anchor="start" x="8" y="-222.5" font-family="Helvetica,sans-Serif" font-size="10.00" fill="#000000">+ ~Impl()</text>
<text text-anchor="start" x="8" y="-211.5" font-family="Helvetica,sans-Serif" font-size="10.00" fill="#000000">+ clone()</text>
<text text-anchor="start" x="8" y="-200.5" font-family="Helvetica,sans-Serif" font-size="10.00" fill="#000000">+ to_long()</text>
<text text-anchor="start" x="8" y="-189.5" font-family="Helvetica,sans-Serif" font-size="10.00" fill="#000000">+ to_string()</text>
<text text-anchor="start" x="8" y="-178.5" font-family="Helvetica,sans-Serif" font-size="10.00" fill="#000000">+ to_ref()</text>
<text text-anchor="start" x="8" y="-167.5" font-family="Helvetica,sans-Serif" font-size="10.00" fill="#000000">+ parse_term()</text>
<text text-anchor="start" x="8" y="-156.5" font-family="Helvetica,sans-Serif" font-size="10.00" fill="#000000">+ parse_id()</text>
</a>
</g>
</g>
<!-- Node3&#45;&gt;Node2 -->
<g id="edge1" class="edge">
<title>Node3&#45;&gt;Node2</title>
<path fill="none" stroke="#191970" d="M57.5,-139.458C57.5,-130.5079 57.5,-121.455 57.5,-112.7834"/>
<polygon fill="none" stroke="#191970" points="54.0001,-139.4935 57.5,-149.4936 61.0001,-139.4936 54.0001,-139.4935"/>
</g>
</g>
</svg>
