<?xml version="1.0" encoding="UTF-8" standalone="no"?>
<!DOCTYPE svg PUBLIC "-//W3C//DTD SVG 1.1//EN"
 "http://www.w3.org/Graphics/SVG/1.1/DTD/svg11.dtd">
<!-- Generated by graphviz version 2.40.1 (20161225.0304)
 -->
<!-- Title: PDI::Expression::Impl::Operation::parse Pages: 1 -->
<svg width="274pt" height="88pt"
 viewBox="0.00 0.00 274.00 88.00" xmlns="http://www.w3.org/2000/svg" xmlns:xlink="http://www.w3.org/1999/xlink">
<g id="graph0" class="graph" transform="scale(1 1) rotate(0) translate(4 84)">
<title>PDI::Expression::Impl::Operation::parse</title>
<polygon fill="#ffffff" stroke="transparent" points="-4,4 -4,-84 270,-84 270,4 -4,4"/>
<!-- Node4 -->
<g id="node1" class="node">
<title>Node4</title>
<polygon fill="#bfbfbf" stroke="#000000" points="0,-24.5 0,-54.5 115,-54.5 115,-24.5 0,-24.5"/>
<text text-anchor="start" x="8" y="-42.5" font-family="Helvetica,sans-Serif" font-size="10.00" fill="#000000">PDI::Expression::Impl</text>
<text text-anchor="middle" x="57.5" y="-31.5" font-family="Helvetica,sans-Serif" font-size="10.00" fill="#000000">::Operation::parse</text>
</g>
<!-- Node5 -->
<g id="node2" class="node">
<title>Node5</title>
<g id="a_node2"><a xlink:href="structPDI_1_1Expression_1_1Impl.html#a6cdce6e298de06f6c558ee9a96642d31" target="_top" xlink:title="PDI::Expression::Impl\l::parse_term">
<polygon fill="#ffffff" stroke="#000000" points="151,-49.5 151,-79.5 266,-79.5 266,-49.5 151,-49.5"/>
<text text-anchor="start" x="159" y="-67.5" font-family="Helvetica,sans-Serif" font-size="10.00" fill="#000000">PDI::Expression::Impl</text>
<text text-anchor="middle" x="208.5" y="-56.5" font-family="Helvetica,sans-Serif" font-size="10.00" fill="#000000">::parse_term</text>
</a>
</g>
</g>
<!-- Node4&#45;&gt;Node5 -->
<g id="edge1" class="edge">
<title>Node4&#45;&gt;Node5</title>
<path fill="none" stroke="#191970" d="M115.0174,-49.0227C123.4639,-50.4212 132.2292,-51.8724 140.8561,-53.3007"/>
<polygon fill="#191970" stroke="#191970" points="140.4551,-56.7819 150.8925,-54.9623 141.5985,-49.8759 140.4551,-56.7819"/>
</g>
<!-- Node6 -->
<g id="node3" class="node">
<title>Node6</title>
<g id="a_node3"><a xlink:href="structPDI_1_1Expression_1_1Impl_1_1Int__literal.html#adece4188b33ff22d6561cf94f94d5231" target="_top" xlink:title="PDI::Expression::Impl\l::Int_literal::parse">
<polygon fill="#ffffff" stroke="#000000" points="151,-.5 151,-30.5 266,-30.5 266,-.5 151,-.5"/>
<text text-anchor="start" x="159" y="-18.5" font-family="Helvetica,sans-Serif" font-size="10.00" fill="#000000">PDI::Expression::Impl</text>
<text text-anchor="middle" x="208.5" y="-7.5" font-family="Helvetica,sans-Serif" font-size="10.00" fill="#000000">::Int_literal::parse</text>
</a>
</g>
</g>
<!-- Node4&#45;&gt;Node6 -->
<g id="edge2" class="edge">
<title>Node4&#45;&gt;Node6</title>
<path fill="none" stroke="#191970" d="M115.0174,-30.3582C123.4639,-29.0157 132.2292,-27.6225 140.8561,-26.2513"/>
<polygon fill="#191970" stroke="#191970" points="141.5659,-29.6826 150.8925,-24.6562 140.4671,-22.7693 141.5659,-29.6826"/>
</g>
</g>
</svg>
