<?xml version="1.0" encoding="UTF-8" standalone="no"?>
<!DOCTYPE svg PUBLIC "-//W3C//DTD SVG 1.1//EN"
 "http://www.w3.org/Graphics/SVG/1.1/DTD/svg11.dtd">
<!-- Generated by graphviz version 2.40.1 (20161225.0304)
 -->
<!-- Title: PDI::Expression::Impl::Reference_expression::to_ref Pages: 1 -->
<svg width="287pt" height="78pt"
 viewBox="0.00 0.00 287.00 77.50" xmlns="http://www.w3.org/2000/svg" xmlns:xlink="http://www.w3.org/1999/xlink">
<g id="graph0" class="graph" transform="scale(1 1) rotate(0) translate(4 73.5)">
<title>PDI::Expression::Impl::Reference_expression::to_ref</title>
<polygon fill="#ffffff" stroke="transparent" points="-4,4 -4,-73.5 283,-73.5 283,4 -4,4"/>
<!-- Node14 -->
<g id="node1" class="node">
<title>Node14</title>
<polygon fill="#bfbfbf" stroke="#000000" points="0,-11.5 0,-52.5 128,-52.5 128,-11.5 0,-11.5"/>
<text text-anchor="start" x="8" y="-40.5" font-family="Helvetica,sans-Serif" font-size="10.00" fill="#000000">PDI::Expression::Impl</text>
<text text-anchor="start" x="8" y="-29.5" font-family="Helvetica,sans-Serif" font-size="10.00" fill="#000000">::Reference_expression</text>
<text text-anchor="middle" x="64" y="-18.5" font-family="Helvetica,sans-Serif" font-size="10.00" fill="#000000">::to_ref</text>
</g>
<!-- Node15 -->
<g id="node2" class="node">
<title>Node15</title>
<g id="a_node2"><a xlink:href="structPDI_1_1Expression_1_1Impl_1_1Int__literal.html#a41fdbd7fd8230af136c445d600eb9e2c" target="_top" xlink:title="PDI::Expression::Impl\l::Int_literal::to_long">
<polygon fill="#ffffff" stroke="#000000" points="164,-39 164,-69 279,-69 279,-39 164,-39"/>
<text text-anchor="start" x="172" y="-57" font-family="Helvetica,sans-Serif" font-size="10.00" fill="#000000">PDI::Expression::Impl</text>
<text text-anchor="middle" x="221.5" y="-46" font-family="Helvetica,sans-Serif" font-size="10.00" fill="#000000">::Int_literal::to_long</text>
</a>
</g>
</g>
<!-- Node14&#45;&gt;Node15 -->
<g id="edge1" class="edge">
<title>Node14&#45;&gt;Node15</title>
<path fill="none" stroke="#191970" d="M128.0613,-40.9482C136.5698,-42.1367 145.3156,-43.3584 153.882,-44.5549"/>
<polygon fill="#191970" stroke="#191970" points="153.4428,-48.0275 163.8309,-45.9446 154.4112,-41.0948 153.4428,-48.0275"/>
</g>
<!-- Node16 -->
<g id="node3" class="node">
<title>Node16</title>
<g id="a_node3"><a xlink:href="classPDI_1_1Context.html#ad9cc865b0a004cf218c2633d3907e231" target="_top" xlink:title="PDI::Context::desc">
<polygon fill="#ffffff" stroke="#000000" points="170.5,-.5 170.5,-19.5 272.5,-19.5 272.5,-.5 170.5,-.5"/>
<text text-anchor="middle" x="221.5" y="-7.5" font-family="Helvetica,sans-Serif" font-size="10.00" fill="#000000">PDI::Context::desc</text>
</a>
</g>
</g>
<!-- Node14&#45;&gt;Node16 -->
<g id="edge2" class="edge">
<title>Node14&#45;&gt;Node16</title>
<path fill="none" stroke="#191970" d="M128.0613,-23.0518C138.6458,-21.5733 149.5973,-20.0436 160.114,-18.5746"/>
<polygon fill="#191970" stroke="#191970" points="160.618,-22.0382 170.0376,-17.1884 159.6495,-15.1055 160.618,-22.0382"/>
</g>
</g>
</svg>
