<?xml version="1.0" encoding="UTF-8" standalone="no"?>
<!DOCTYPE svg PUBLIC "-//W3C//DTD SVG 1.1//EN"
 "http://www.w3.org/Graphics/SVG/1.1/DTD/svg11.dtd">
<!-- Generated by graphviz version 2.40.1 (20161225.0304)
 -->
<!-- Title: PDI::Expression::Impl Pages: 1 -->
<svg width="536pt" height="303pt"
 viewBox="0.00 0.00 536.00 303.00" xmlns="http://www.w3.org/2000/svg" xmlns:xlink="http://www.w3.org/1999/xlink">
<g id="graph0" class="graph" transform="scale(1 1) rotate(0) translate(4 299)">
<title>PDI::Expression::Impl</title>
<polygon fill="#ffffff" stroke="transparent" points="-4,4 -4,-299 532,-299 532,4 -4,4"/>
<!-- Node0 -->
<g id="node1" class="node">
<title>Node0</title>
<polygon fill="#bfbfbf" stroke="#000000" points="203,-171.5 203,-294.5 318,-294.5 318,-171.5 203,-171.5"/>
<text text-anchor="middle" x="260.5" y="-282.5" font-family="Helvetica,sans-Serif" font-size="10.00" fill="#000000">PDI::Expression::Impl</text>
<polyline fill="none" stroke="#000000" points="203,-275.5 318,-275.5 "/>
<text text-anchor="middle" x="260.5" y="-263.5" font-family="Helvetica,sans-Serif" font-size="10.00" fill="#000000"> </text>
<polyline fill="none" stroke="#000000" points="203,-256.5 318,-256.5 "/>
<text text-anchor="start" x="211" y="-244.5" font-family="Helvetica,sans-Serif" font-size="10.00" fill="#000000">+ ~Impl()</text>
<text text-anchor="start" x="211" y="-233.5" font-family="Helvetica,sans-Serif" font-size="10.00" fill="#000000">+ clone()</text>
<text text-anchor="start" x="211" y="-222.5" font-family="Helvetica,sans-Serif" font-size="10.00" fill="#000000">+ to_long()</text>
<text text-anchor="start" x="211" y="-211.5" font-family="Helvetica,sans-Serif" font-size="10.00" fill="#000000">+ to_string()</text>
<text text-anchor="start" x="211" y="-200.5" font-family="Helvetica,sans-Serif" font-size="10.00" fill="#000000">+ to_ref()</text>
<text text-anchor="start" x="211" y="-189.5" font-family="Helvetica,sans-Serif" font-size="10.00" fill="#000000">+ parse_term()</text>
<text text-anchor="start" x="211" y="-178.5" font-family="Helvetica,sans-Serif" font-size="10.00" fill="#000000">+ parse_id()</text>
</g>
<!-- Node1 -->
<g id="node2" class="node">
<title>Node1</title>
<g id="a_node2"><a xlink:href="structPDI_1_1Expression_1_1Impl_1_1Int__literal.html" target="_top" xlink:title="{PDI::Expression::Impl\l::Int_literal\n|+ m_value\l|+ Int_literal()\l+ clone()\l+ to_long()\l+ to_ref()\l+ parse()\l}">
<polygon fill="#ffffff" stroke="#000000" points="0,-11.5 0,-123.5 115,-123.5 115,-11.5 0,-11.5"/>
<text text-anchor="start" x="8" y="-111.5" font-family="Helvetica,sans-Serif" font-size="10.00" fill="#000000">PDI::Expression::Impl</text>
<text text-anchor="middle" x="57.5" y="-100.5" font-family="Helvetica,sans-Serif" font-size="10.00" fill="#000000">::Int_literal</text>
<polyline fill="none" stroke="#000000" points="0,-93.5 115,-93.5 "/>
<text text-anchor="start" x="8" y="-81.5" font-family="Helvetica,sans-Serif" font-size="10.00" fill="#000000">+ m_value</text>
<polyline fill="none" stroke="#000000" points="0,-74.5 115,-74.5 "/>
<text text-anchor="start" x="8" y="-62.5" font-family="Helvetica,sans-Serif" font-size="10.00" fill="#000000">+ Int_literal()</text>
<text text-anchor="start" x="8" y="-51.5" font-family="Helvetica,sans-Serif" font-size="10.00" fill="#000000">+ clone()</text>
<text text-anchor="start" x="8" y="-40.5" font-family="Helvetica,sans-Serif" font-size="10.00" fill="#000000">+ to_long()</text>
<text text-anchor="start" x="8" y="-29.5" font-family="Helvetica,sans-Serif" font-size="10.00" fill="#000000">+ to_ref()</text>
<text text-anchor="start" x="8" y="-18.5" font-family="Helvetica,sans-Serif" font-size="10.00" fill="#000000">+ parse()</text>
</a>
</g>
</g>
<!-- Node0&#45;&gt;Node1 -->
<g id="edge1" class="edge">
<title>Node0&#45;&gt;Node1</title>
<path fill="none" stroke="#191970" d="M194.4397,-189.2618C171.3324,-173.0569 145.6448,-153.9874 123.5,-135 119.2696,-131.3728 114.9988,-127.5184 110.7728,-123.5612"/>
<polygon fill="none" stroke="#191970" points="192.6175,-192.2578 202.8248,-195.0969 196.6159,-186.5121 192.6175,-192.2578"/>
</g>
<!-- Node2 -->
<g id="node3" class="node">
<title>Node2</title>
<g id="a_node3"><a xlink:href="structPDI_1_1Expression_1_1Impl_1_1Operation.html" target="_top" xlink:title="{PDI::Expression::Impl\l::Operation\n|+ m_first_operand\l+ m_operands\l|+ clone()\l+ to_long()\l+ to_ref()\l+ parse()\l+ op_level()\l+ parse_operator()\l}">
<polygon fill="#ffffff" stroke="#000000" points="133,-.5 133,-134.5 248,-134.5 248,-.5 133,-.5"/>
<text text-anchor="start" x="141" y="-122.5" font-family="Helvetica,sans-Serif" font-size="10.00" fill="#000000">PDI::Expression::Impl</text>
<text text-anchor="middle" x="190.5" y="-111.5" font-family="Helvetica,sans-Serif" font-size="10.00" fill="#000000">::Operation</text>
<polyline fill="none" stroke="#000000" points="133,-104.5 248,-104.5 "/>
<text text-anchor="start" x="141" y="-92.5" font-family="Helvetica,sans-Serif" font-size="10.00" fill="#000000">+ m_first_operand</text>
<text text-anchor="start" x="141" y="-81.5" font-family="Helvetica,sans-Serif" font-size="10.00" fill="#000000">+ m_operands</text>
<polyline fill="none" stroke="#000000" points="133,-74.5 248,-74.5 "/>
<text text-anchor="start" x="141" y="-62.5" font-family="Helvetica,sans-Serif" font-size="10.00" fill="#000000">+ clone()</text>
<text text-anchor="start" x="141" y="-51.5" font-family="Helvetica,sans-Serif" font-size="10.00" fill="#000000">+ to_long()</text>
<text text-anchor="start" x="141" y="-40.5" font-family="Helvetica,sans-Serif" font-size="10.00" fill="#000000">+ to_ref()</text>
<text text-anchor="start" x="141" y="-29.5" font-family="Helvetica,sans-Serif" font-size="10.00" fill="#000000">+ parse()</text>
<text text-anchor="start" x="141" y="-18.5" font-family="Helvetica,sans-Serif" font-size="10.00" fill="#000000">+ op_level()</text>
<text text-anchor="start" x="141" y="-7.5" font-family="Helvetica,sans-Serif" font-size="10.00" fill="#000000">+ parse_operator()</text>
</a>
</g>
</g>
<!-- Node0&#45;&gt;Node2 -->
<g id="edge2" class="edge">
<title>Node0&#45;&gt;Node2</title>
<path fill="none" stroke="#191970" d="M230.481,-162.0266C226.6514,-152.9722 222.7406,-143.7259 218.937,-134.7332"/>
<polygon fill="none" stroke="#191970" points="227.3155,-163.5273 234.4346,-171.3739 233.7626,-160.8004 227.3155,-163.5273"/>
</g>
<!-- Node3 -->
<g id="node4" class="node">
<title>Node3</title>
<g id="a_node4"><a xlink:href="structPDI_1_1Expression_1_1Impl_1_1Reference__expression.html" target="_top" xlink:title="{PDI::Expression::Impl\l::Reference_expression\n|+ m_referenced\l+ m_idx\l|+ clone()\l+ to_long()\l+ to_ref()\l+ parse()\l}">
<polygon fill="#ffffff" stroke="#000000" points="266.5,-11.5 266.5,-123.5 394.5,-123.5 394.5,-11.5 266.5,-11.5"/>
<text text-anchor="start" x="274.5" y="-111.5" font-family="Helvetica,sans-Serif" font-size="10.00" fill="#000000">PDI::Expression::Impl</text>
<text text-anchor="middle" x="330.5" y="-100.5" font-family="Helvetica,sans-Serif" font-size="10.00" fill="#000000">::Reference_expression</text>
<polyline fill="none" stroke="#000000" points="266.5,-93.5 394.5,-93.5 "/>
<text text-anchor="start" x="274.5" y="-81.5" font-family="Helvetica,sans-Serif" font-size="10.00" fill="#000000">+ m_referenced</text>
<text text-anchor="start" x="274.5" y="-70.5" font-family="Helvetica,sans-Serif" font-size="10.00" fill="#000000">+ m_idx</text>
<polyline fill="none" stroke="#000000" points="266.5,-63.5 394.5,-63.5 "/>
<text text-anchor="start" x="274.5" y="-51.5" font-family="Helvetica,sans-Serif" font-size="10.00" fill="#000000">+ clone()</text>
<text text-anchor="start" x="274.5" y="-40.5" font-family="Helvetica,sans-Serif" font-size="10.00" fill="#000000">+ to_long()</text>
<text text-anchor="start" x="274.5" y="-29.5" font-family="Helvetica,sans-Serif" font-size="10.00" fill="#000000">+ to_ref()</text>
<text text-anchor="start" x="274.5" y="-18.5" font-family="Helvetica,sans-Serif" font-size="10.00" fill="#000000">+ parse()</text>
</a>
</g>
</g>
<!-- Node0&#45;&gt;Node3 -->
<g id="edge3" class="edge">
<title>Node0&#45;&gt;Node3</title>
<path fill="none" stroke="#191970" d="M290.4818,-162.1145C295.9107,-149.279 301.5041,-136.0545 306.7249,-123.7111"/>
<polygon fill="none" stroke="#191970" points="287.2374,-160.8004 286.5654,-171.3739 293.6845,-163.5273 287.2374,-160.8004"/>
</g>
<!-- Node4 -->
<g id="node5" class="node">
<title>Node4</title>
<g id="a_node5"><a xlink:href="structPDI_1_1Expression_1_1Impl_1_1String__literal.html" target="_top" xlink:title="{PDI::Expression::Impl\l::String_literal\n|+ start\l+ values\l|+ clone()\l+ to_long()\l+ to_string()\l+ to_ref()\l+ parse()\l}">
<polygon fill="#ffffff" stroke="#000000" points="413,-6 413,-129 528,-129 528,-6 413,-6"/>
<text text-anchor="start" x="421" y="-117" font-family="Helvetica,sans-Serif" font-size="10.00" fill="#000000">PDI::Expression::Impl</text>
<text text-anchor="middle" x="470.5" y="-106" font-family="Helvetica,sans-Serif" font-size="10.00" fill="#000000">::String_literal</text>
<polyline fill="none" stroke="#000000" points="413,-99 528,-99 "/>
<text text-anchor="start" x="421" y="-87" font-family="Helvetica,sans-Serif" font-size="10.00" fill="#000000">+ start</text>
<text text-anchor="start" x="421" y="-76" font-family="Helvetica,sans-Serif" font-size="10.00" fill="#000000">+ values</text>
<polyline fill="none" stroke="#000000" points="413,-69 528,-69 "/>
<text text-anchor="start" x="421" y="-57" font-family="Helvetica,sans-Serif" font-size="10.00" fill="#000000">+ clone()</text>
<text text-anchor="start" x="421" y="-46" font-family="Helvetica,sans-Serif" font-size="10.00" fill="#000000">+ to_long()</text>
<text text-anchor="start" x="421" y="-35" font-family="Helvetica,sans-Serif" font-size="10.00" fill="#000000">+ to_string()</text>
<text text-anchor="start" x="421" y="-24" font-family="Helvetica,sans-Serif" font-size="10.00" fill="#000000">+ to_ref()</text>
<text text-anchor="start" x="421" y="-13" font-family="Helvetica,sans-Serif" font-size="10.00" fill="#000000">+ parse()</text>
</a>
</g>
</g>
<!-- Node0&#45;&gt;Node4 -->
<g id="edge4" class="edge">
<title>Node0&#45;&gt;Node4</title>
<path fill="none" stroke="#191970" d="M326.9371,-191.2518C351.7184,-174.7143 379.6161,-154.9122 403.5,-135 406.5437,-132.4624 409.6056,-129.8074 412.6555,-127.0792"/>
<polygon fill="none" stroke="#191970" points="324.7202,-188.5218 318.3133,-196.96 328.5839,-194.359 324.7202,-188.5218"/>
</g>
</g>
</svg>
