<?xml version="1.0" encoding="UTF-8" standalone="no"?>
<!DOCTYPE svg PUBLIC "-//W3C//DTD SVG 1.1//EN"
 "http://www.w3.org/Graphics/SVG/1.1/DTD/svg11.dtd">
<!-- Generated by graphviz version 2.40.1 (20161225.0304)
 -->
<!-- Title: PDI::Data_descriptor_impl::Ref_holder::Impl&lt; R, W &gt; Pages: 1 -->
<svg width="130pt" height="215pt"
 viewBox="0.00 0.00 130.00 215.00" xmlns="http://www.w3.org/2000/svg" xmlns:xlink="http://www.w3.org/1999/xlink">
<g id="graph0" class="graph" transform="scale(1 1) rotate(0) translate(4 211)">
<title>PDI::Data_descriptor_impl::Ref_holder::Impl&lt; R, W &gt;</title>
<polygon fill="#ffffff" stroke="transparent" points="-4,4 -4,-211 126,-211 126,4 -4,4"/>
<!-- Node0 -->
<g id="node1" class="node">
<title>Node0</title>
<polygon fill="#bfbfbf" stroke="#000000" points="0,-.5 0,-90.5 122,-90.5 122,-.5 0,-.5"/>
<text text-anchor="start" x="8" y="-78.5" font-family="Helvetica,sans-Serif" font-size="10.00" fill="#000000">PDI::Data_descriptor</text>
<text text-anchor="start" x="8" y="-67.5" font-family="Helvetica,sans-Serif" font-size="10.00" fill="#000000">_impl::Ref_holder::Impl</text>
<text text-anchor="middle" x="61" y="-56.5" font-family="Helvetica,sans-Serif" font-size="10.00" fill="#000000">&lt; R, W &gt;</text>
<polyline fill="none" stroke="#000000" points="0,-49.5 122,-49.5 "/>
<text text-anchor="start" x="8" y="-37.5" font-family="Helvetica,sans-Serif" font-size="10.00" fill="#000000">+ m_t</text>
<polyline fill="none" stroke="#000000" points="0,-30.5 122,-30.5 "/>
<text text-anchor="start" x="8" y="-18.5" font-family="Helvetica,sans-Serif" font-size="10.00" fill="#000000">+ Impl()</text>
<text text-anchor="start" x="8" y="-7.5" font-family="Helvetica,sans-Serif" font-size="10.00" fill="#000000">+ ref()</text>
</g>
<!-- Node1 -->
<g id="node2" class="node">
<title>Node1</title>
<g id="a_node2"><a xlink:href="structPDI_1_1Data__descriptor__impl_1_1Ref__holder.html" target="_top" xlink:title="{PDI::Data_descriptor\l_impl::Ref_holder\n||+ ref()\l+ ~Ref_holder()\l}">
<polygon fill="#ffffff" stroke="#000000" points="4,-127.5 4,-206.5 118,-206.5 118,-127.5 4,-127.5"/>
<text text-anchor="start" x="12" y="-194.5" font-family="Helvetica,sans-Serif" font-size="10.00" fill="#000000">PDI::Data_descriptor</text>
<text text-anchor="middle" x="61" y="-183.5" font-family="Helvetica,sans-Serif" font-size="10.00" fill="#000000">_impl::Ref_holder</text>
<polyline fill="none" stroke="#000000" points="4,-176.5 118,-176.5 "/>
<text text-anchor="middle" x="61" y="-164.5" font-family="Helvetica,sans-Serif" font-size="10.00" fill="#000000"> </text>
<polyline fill="none" stroke="#000000" points="4,-157.5 118,-157.5 "/>
<text text-anchor="start" x="12" y="-145.5" font-family="Helvetica,sans-Serif" font-size="10.00" fill="#000000">+ ref()</text>
<text text-anchor="start" x="12" y="-134.5" font-family="Helvetica,sans-Serif" font-size="10.00" fill="#000000">+ ~Ref_holder()</text>
</a>
</g>
</g>
<!-- Node1&#45;&gt;Node0 -->
<g id="edge1" class="edge">
<title>Node1&#45;&gt;Node0</title>
<path fill="none" stroke="#191970" d="M61,-117.1739C61,-108.4596 61,-99.4352 61,-90.8501"/>
<polygon fill="none" stroke="#191970" points="57.5001,-117.2163 61,-127.2164 64.5001,-117.2164 57.5001,-117.2163"/>
</g>
</g>
</svg>
