<?xml version="1.0" encoding="UTF-8" standalone="no"?>
<!DOCTYPE svg PUBLIC "-//W3C//DTD SVG 1.1//EN"
 "http://www.w3.org/Graphics/SVG/1.1/DTD/svg11.dtd">
<!-- Generated by graphviz version 2.40.1 (20161225.0304)
 -->
<!-- Title: PDI::Expression::Impl::String_literal Pages: 1 -->
<svg width="309pt" height="292pt"
 viewBox="0.00 0.00 309.00 292.00" xmlns="http://www.w3.org/2000/svg" xmlns:xlink="http://www.w3.org/1999/xlink">
<g id="graph0" class="graph" transform="scale(1 1) rotate(0) translate(4 288)">
<title>PDI::Expression::Impl::String_literal</title>
<polygon fill="#ffffff" stroke="transparent" points="-4,4 -4,-288 305,-288 305,4 -4,4"/>
<!-- Node2 -->
<g id="node1" class="node">
<title>Node2</title>
<polygon fill="#bfbfbf" stroke="#000000" points="129,-.5 129,-112.5 244,-112.5 244,-.5 129,-.5"/>
<text text-anchor="start" x="137" y="-100.5" font-family="Helvetica,sans-Serif" font-size="10.00" fill="#000000">PDI::Expression::Impl</text>
<text text-anchor="middle" x="186.5" y="-89.5" font-family="Helvetica,sans-Serif" font-size="10.00" fill="#000000">::String_literal</text>
<polyline fill="none" stroke="#000000" points="129,-82.5 244,-82.5 "/>
<text text-anchor="middle" x="186.5" y="-70.5" font-family="Helvetica,sans-Serif" font-size="10.00" fill="#000000"> </text>
<polyline fill="none" stroke="#000000" points="129,-63.5 244,-63.5 "/>
<text text-anchor="start" x="137" y="-51.5" font-family="Helvetica,sans-Serif" font-size="10.00" fill="#000000">+ clone()</text>
<text text-anchor="start" x="137" y="-40.5" font-family="Helvetica,sans-Serif" font-size="10.00" fill="#000000">+ to_long()</text>
<text text-anchor="start" x="137" y="-29.5" font-family="Helvetica,sans-Serif" font-size="10.00" fill="#000000">+ to_string()</text>
<text text-anchor="start" x="137" y="-18.5" font-family="Helvetica,sans-Serif" font-size="10.00" fill="#000000">+ to_ref()</text>
<text text-anchor="start" x="137" y="-7.5" font-family="Helvetica,sans-Serif" font-size="10.00" fill="#000000">+ parse()</text>
</g>
<!-- Node3 -->
<g id="node2" class="node">
<title>Node3</title>
<g id="a_node2"><a xlink:href="structPDI_1_1Expression_1_1Impl.html" target="_top" xlink:title="{PDI::Expression::Impl\n||+ ~Impl()\l+ clone()\l+ to_long()\l+ to_string()\l+ to_ref()\l+ parse_term()\l+ parse_id()\l}">
<polygon fill="#ffffff" stroke="#000000" points="0,-160.5 0,-283.5 115,-283.5 115,-160.5 0,-160.5"/>
<text text-anchor="middle" x="57.5" y="-271.5" font-family="Helvetica,sans-Serif" font-size="10.00" fill="#000000">PDI::Expression::Impl</text>
<polyline fill="none" stroke="#000000" points="0,-264.5 115,-264.5 "/>
<text text-anchor="middle" x="57.5" y="-252.5" font-family="Helvetica,sans-Serif" font-size="10.00" fill="#000000"> </text>
<polyline fill="none" stroke="#000000" points="0,-245.5 115,-245.5 "/>
<text text-anchor="start" x="8" y="-233.5" font-family="Helvetica,sans-Serif" font-size="10.00" fill="#000000">+ ~Impl()</text>
<text text-anchor="start" x="8" y="-222.5" font-family="Helvetica,sans-Serif" font-size="10.00" fill="#000000">+ clone()</text>
<text text-anchor="start" x="8" y="-211.5" font-family="Helvetica,sans-Serif" font-size="10.00" fill="#000000">+ to_long()</text>
<text text-anchor="start" x="8" y="-200.5" font-family="Helvetica,sans-Serif" font-size="10.00" fill="#000000">+ to_string()</text>
<text text-anchor="start" x="8" y="-189.5" font-family="Helvetica,sans-Serif" font-size="10.00" fill="#000000">+ to_ref()</text>
<text text-anchor="start" x="8" y="-178.5" font-family="Helvetica,sans-Serif" font-size="10.00" fill="#000000">+ parse_term()</text>
<text text-anchor="start" x="8" y="-167.5" font-family="Helvetica,sans-Serif" font-size="10.00" fill="#000000">+ parse_id()</text>
</a>
</g>
</g>
<!-- Node3&#45;&gt;Node2 -->
<g id="edge1" class="edge">
<title>Node3&#45;&gt;Node2</title>
<path fill="none" stroke="#191970" d="M111.8787,-152.2351C122.1558,-139.0501 132.7845,-125.414 142.6859,-112.7111"/>
<polygon fill="none" stroke="#191970" points="108.922,-150.3351 105.5348,-160.3739 114.443,-154.6385 108.922,-150.3351"/>
</g>
<!-- Node4 -->
<g id="node3" class="node">
<title>Node4</title>
<polygon fill="#ffffff" stroke="#bfbfbf" points="133.5,-193.5 133.5,-250.5 239.5,-250.5 239.5,-193.5 133.5,-193.5"/>
<text text-anchor="middle" x="186.5" y="-238.5" font-family="Helvetica,sans-Serif" font-size="10.00" fill="#000000">vector&lt; Subvalue &gt;</text>
<polyline fill="none" stroke="#bfbfbf" points="133.5,-231.5 239.5,-231.5 "/>
<text text-anchor="middle" x="186.5" y="-219.5" font-family="Helvetica,sans-Serif" font-size="10.00" fill="#000000"> </text>
<polyline fill="none" stroke="#bfbfbf" points="133.5,-212.5 239.5,-212.5 "/>
<text text-anchor="middle" x="186.5" y="-200.5" font-family="Helvetica,sans-Serif" font-size="10.00" fill="#000000"> </text>
</g>
<!-- Node4&#45;&gt;Node2 -->
<g id="edge2" class="edge">
<title>Node4&#45;&gt;Node2</title>
<path fill="none" stroke="#404040" d="M186.5,-193.1721C186.5,-174.3236 186.5,-148.8641 186.5,-125.0278"/>
<polygon fill="none" stroke="#404040" points="186.5001,-124.7545 182.5,-118.7545 186.5,-112.7545 190.5,-118.7544 186.5001,-124.7545"/>
<text text-anchor="middle" x="206.5" y="-134" font-family="Helvetica,sans-Serif" font-size="10.00" fill="#000000"> +values</text>
</g>
<!-- Node5 -->
<g id="node4" class="node">
<title>Node5</title>
<polygon fill="#ffffff" stroke="#bfbfbf" points="258,-193.5 258,-250.5 301,-250.5 301,-193.5 258,-193.5"/>
<text text-anchor="middle" x="279.5" y="-238.5" font-family="Helvetica,sans-Serif" font-size="10.00" fill="#000000">string</text>
<polyline fill="none" stroke="#bfbfbf" points="258,-231.5 301,-231.5 "/>
<text text-anchor="middle" x="279.5" y="-219.5" font-family="Helvetica,sans-Serif" font-size="10.00" fill="#000000"> </text>
<polyline fill="none" stroke="#bfbfbf" points="258,-212.5 301,-212.5 "/>
<text text-anchor="middle" x="279.5" y="-200.5" font-family="Helvetica,sans-Serif" font-size="10.00" fill="#000000"> </text>
</g>
<!-- Node5&#45;&gt;Node2 -->
<g id="edge3" class="edge">
<title>Node5&#45;&gt;Node2</title>
<path fill="none" stroke="#404040" d="M265.7508,-193.3687C260.5234,-182.7913 254.4031,-170.7625 248.5,-160 241.9168,-147.9975 234.654,-135.3776 227.4878,-123.238"/>
<polygon fill="none" stroke="#404040" points="227.3674,-123.0354 220.8628,-119.9225 221.2345,-112.721 227.7391,-115.8339 227.3674,-123.0354"/>
<text text-anchor="middle" x="252" y="-134" font-family="Helvetica,sans-Serif" font-size="10.00" fill="#000000"> +start</text>
</g>
</g>
</svg>
