<?xml version="1.0" encoding="UTF-8" standalone="no"?>
<!DOCTYPE svg PUBLIC "-//W3C//DTD SVG 1.1//EN"
 "http://www.w3.org/Graphics/SVG/1.1/DTD/svg11.dtd">
<!-- Generated by graphviz version 2.40.1 (20161225.0304)
 -->
<!-- Title: PDI::Expression::Impl::String_literal::to_ref Pages: 1 -->
<svg width="444pt" height="78pt"
 viewBox="0.00 0.00 444.00 77.50" xmlns="http://www.w3.org/2000/svg" xmlns:xlink="http://www.w3.org/1999/xlink">
<g id="graph0" class="graph" transform="scale(1 1) rotate(0) translate(4 73.5)">
<title>PDI::Expression::Impl::String_literal::to_ref</title>
<polygon fill="#ffffff" stroke="transparent" points="-4,4 -4,-73.5 440,-73.5 440,4 -4,4"/>
<!-- Node14 -->
<g id="node1" class="node">
<title>Node14</title>
<polygon fill="#bfbfbf" stroke="#000000" points="0,-17 0,-47 115,-47 115,-17 0,-17"/>
<text text-anchor="start" x="8" y="-35" font-family="Helvetica,sans-Serif" font-size="10.00" fill="#000000">PDI::Expression::Impl</text>
<text text-anchor="middle" x="57.5" y="-24" font-family="Helvetica,sans-Serif" font-size="10.00" fill="#000000">::String_literal::to_ref</text>
</g>
<!-- Node15 -->
<g id="node2" class="node">
<title>Node15</title>
<g id="a_node2"><a xlink:href="structPDI_1_1Expression_1_1Impl.html#a93261da6e1d0759c16d686989862844f" target="_top" xlink:title="PDI::Expression::Impl\l::to_string">
<polygon fill="#ffffff" stroke="#000000" points="152.5,-39 152.5,-69 267.5,-69 267.5,-39 152.5,-39"/>
<text text-anchor="start" x="160.5" y="-57" font-family="Helvetica,sans-Serif" font-size="10.00" fill="#000000">PDI::Expression::Impl</text>
<text text-anchor="middle" x="210" y="-46" font-family="Helvetica,sans-Serif" font-size="10.00" fill="#000000">::to_string</text>
</a>
</g>
</g>
<!-- Node14&#45;&gt;Node15 -->
<g id="edge1" class="edge">
<title>Node14&#45;&gt;Node15</title>
<path fill="none" stroke="#191970" d="M115.1537,-40.3173C123.9784,-41.5903 133.1571,-42.9145 142.1765,-44.2156"/>
<polygon fill="#191970" stroke="#191970" points="141.8674,-47.7072 152.2648,-45.671 142.867,-40.7789 141.8674,-47.7072"/>
</g>
<!-- Node17 -->
<g id="node4" class="node">
<title>Node17</title>
<g id="a_node4"><a xlink:href="classPDI_1_1Ref__any.html#a2f653ad7b6152b4c1f027ed155c12e25" target="_top" xlink:title="PDI::Ref_any::release">
<polygon fill="#ffffff" stroke="#000000" points="151,-.5 151,-19.5 269,-19.5 269,-.5 151,-.5"/>
<text text-anchor="middle" x="210" y="-7.5" font-family="Helvetica,sans-Serif" font-size="10.00" fill="#000000">PDI::Ref_any::release</text>
</a>
</g>
</g>
<!-- Node14&#45;&gt;Node17 -->
<g id="edge3" class="edge">
<title>Node14&#45;&gt;Node17</title>
<path fill="none" stroke="#191970" d="M115.1537,-23.6827C123.5804,-22.4671 132.3299,-21.2049 140.9552,-19.9606"/>
<polygon fill="#191970" stroke="#191970" points="141.5991,-23.404 150.9969,-18.5119 140.5996,-16.4757 141.5991,-23.404"/>
</g>
<!-- Node16 -->
<g id="node3" class="node">
<title>Node16</title>
<g id="a_node3"><a xlink:href="classPDI_1_1Expression.html#ad9d3e46ca89e7fb439ff94e1b159e182" target="_top" xlink:title="PDI::Expression::to_long">
<polygon fill="#ffffff" stroke="#000000" points="305,-44.5 305,-63.5 436,-63.5 436,-44.5 305,-44.5"/>
<text text-anchor="middle" x="370.5" y="-51.5" font-family="Helvetica,sans-Serif" font-size="10.00" fill="#000000">PDI::Expression::to_long</text>
</a>
</g>
</g>
<!-- Node15&#45;&gt;Node16 -->
<g id="edge2" class="edge">
<title>Node15&#45;&gt;Node16</title>
<path fill="none" stroke="#191970" d="M267.9442,-54C276.621,-54 285.6757,-54 294.6566,-54"/>
<polygon fill="#191970" stroke="#191970" points="294.741,-57.5001 304.7409,-54 294.7409,-50.5001 294.741,-57.5001"/>
</g>
</g>
</svg>
