<?xml version="1.0" encoding="UTF-8" standalone="no"?>
<!DOCTYPE svg PUBLIC "-//W3C//DTD SVG 1.1//EN"
 "http://www.w3.org/Graphics/SVG/1.1/DTD/svg11.dtd">
<!-- Generated by graphviz version 2.40.1 (20161225.0304)
 -->
<!-- Title: PDI::Expression::Impl::String_literal::to_long Pages: 1 -->
<svg width="446pt" height="39pt"
 viewBox="0.00 0.00 446.00 39.00" xmlns="http://www.w3.org/2000/svg" xmlns:xlink="http://www.w3.org/1999/xlink">
<g id="graph0" class="graph" transform="scale(1 1) rotate(0) translate(4 35)">
<title>PDI::Expression::Impl::String_literal::to_long</title>
<polygon fill="#ffffff" stroke="transparent" points="-4,4 -4,-35 442,-35 442,4 -4,4"/>
<!-- Node10 -->
<g id="node1" class="node">
<title>Node10</title>
<polygon fill="#bfbfbf" stroke="#000000" points="0,-.5 0,-30.5 120,-30.5 120,-.5 0,-.5"/>
<text text-anchor="start" x="8" y="-18.5" font-family="Helvetica,sans-Serif" font-size="10.00" fill="#000000">PDI::Expression::Impl</text>
<text text-anchor="middle" x="60" y="-7.5" font-family="Helvetica,sans-Serif" font-size="10.00" fill="#000000">::String_literal::to_long</text>
</g>
<!-- Node11 -->
<g id="node2" class="node">
<title>Node11</title>
<g id="a_node2"><a xlink:href="structPDI_1_1Expression_1_1Impl.html#a93261da6e1d0759c16d686989862844f" target="_top" xlink:title="PDI::Expression::Impl\l::to_string">
<polygon fill="#ffffff" stroke="#000000" points="156,-.5 156,-30.5 271,-30.5 271,-.5 156,-.5"/>
<text text-anchor="start" x="164" y="-18.5" font-family="Helvetica,sans-Serif" font-size="10.00" fill="#000000">PDI::Expression::Impl</text>
<text text-anchor="middle" x="213.5" y="-7.5" font-family="Helvetica,sans-Serif" font-size="10.00" fill="#000000">::to_string</text>
</a>
</g>
</g>
<!-- Node10&#45;&gt;Node11 -->
<g id="edge1" class="edge">
<title>Node10&#45;&gt;Node11</title>
<path fill="none" stroke="#191970" d="M120.2267,-15.5C128.5865,-15.5 137.2209,-15.5 145.7072,-15.5"/>
<polygon fill="#191970" stroke="#191970" points="145.9568,-19.0001 155.9568,-15.5 145.9567,-12.0001 145.9568,-19.0001"/>
</g>
<!-- Node12 -->
<g id="node3" class="node">
<title>Node12</title>
<g id="a_node3"><a xlink:href="classPDI_1_1Expression.html#ad9d3e46ca89e7fb439ff94e1b159e182" target="_top" xlink:title="PDI::Expression::to_long">
<polygon fill="#ffffff" stroke="#000000" points="307,-6 307,-25 438,-25 438,-6 307,-6"/>
<text text-anchor="middle" x="372.5" y="-13" font-family="Helvetica,sans-Serif" font-size="10.00" fill="#000000">PDI::Expression::to_long</text>
</a>
</g>
</g>
<!-- Node11&#45;&gt;Node12 -->
<g id="edge2" class="edge">
<title>Node11&#45;&gt;Node12</title>
<path fill="none" stroke="#191970" d="M271.3524,-15.5C279.649,-15.5 288.2861,-15.5 296.8631,-15.5"/>
<polygon fill="#191970" stroke="#191970" points="296.8802,-19.0001 306.8801,-15.5 296.8801,-12.0001 296.8802,-19.0001"/>
</g>
</g>
</svg>
