<?xml version="1.0" encoding="UTF-8" standalone="no"?>
<!DOCTYPE svg PUBLIC "-//W3C//DTD SVG 1.1//EN"
 "http://www.w3.org/Graphics/SVG/1.1/DTD/svg11.dtd">
<!-- Generated by graphviz version 2.40.1 (20161225.0304)
 -->
<!-- Title: PDI::Expression::Impl::Reference_expression Pages: 1 -->
<svg width="351pt" height="281pt"
 viewBox="0.00 0.00 350.50 281.00" xmlns="http://www.w3.org/2000/svg" xmlns:xlink="http://www.w3.org/1999/xlink">
<g id="graph0" class="graph" transform="scale(1 1) rotate(0) translate(4 277)">
<title>PDI::Expression::Impl::Reference_expression</title>
<polygon fill="#ffffff" stroke="transparent" points="-4,4 -4,-277 346.5,-277 346.5,4 -4,4"/>
<!-- Node2 -->
<g id="node1" class="node">
<title>Node2</title>
<polygon fill="#bfbfbf" stroke="#000000" points="138.5,-.5 138.5,-101.5 266.5,-101.5 266.5,-.5 138.5,-.5"/>
<text text-anchor="start" x="146.5" y="-89.5" font-family="Helvetica,sans-Serif" font-size="10.00" fill="#000000">PDI::Expression::Impl</text>
<text text-anchor="middle" x="202.5" y="-78.5" font-family="Helvetica,sans-Serif" font-size="10.00" fill="#000000">::Reference_expression</text>
<polyline fill="none" stroke="#000000" points="138.5,-71.5 266.5,-71.5 "/>
<text text-anchor="middle" x="202.5" y="-59.5" font-family="Helvetica,sans-Serif" font-size="10.00" fill="#000000"> </text>
<polyline fill="none" stroke="#000000" points="138.5,-52.5 266.5,-52.5 "/>
<text text-anchor="start" x="146.5" y="-40.5" font-family="Helvetica,sans-Serif" font-size="10.00" fill="#000000">+ clone()</text>
<text text-anchor="start" x="146.5" y="-29.5" font-family="Helvetica,sans-Serif" font-size="10.00" fill="#000000">+ to_long()</text>
<text text-anchor="start" x="146.5" y="-18.5" font-family="Helvetica,sans-Serif" font-size="10.00" fill="#000000">+ to_ref()</text>
<text text-anchor="start" x="146.5" y="-7.5" font-family="Helvetica,sans-Serif" font-size="10.00" fill="#000000">+ parse()</text>
</g>
<!-- Node3 -->
<g id="node2" class="node">
<title>Node3</title>
<g id="a_node2"><a xlink:href="structPDI_1_1Expression_1_1Impl.html" target="_top" xlink:title="{PDI::Expression::Impl\n||+ ~Impl()\l+ clone()\l+ to_long()\l+ to_string()\l+ to_ref()\l+ parse_term()\l+ parse_id()\l}">
<polygon fill="#ffffff" stroke="#000000" points="0,-149.5 0,-272.5 115,-272.5 115,-149.5 0,-149.5"/>
<text text-anchor="middle" x="57.5" y="-260.5" font-family="Helvetica,sans-Serif" font-size="10.00" fill="#000000">PDI::Expression::Impl</text>
<polyline fill="none" stroke="#000000" points="0,-253.5 115,-253.5 "/>
<text text-anchor="middle" x="57.5" y="-241.5" font-family="Helvetica,sans-Serif" font-size="10.00" fill="#000000"> </text>
<polyline fill="none" stroke="#000000" points="0,-234.5 115,-234.5 "/>
<text text-anchor="start" x="8" y="-222.5" font-family="Helvetica,sans-Serif" font-size="10.00" fill="#000000">+ ~Impl()</text>
<text text-anchor="start" x="8" y="-211.5" font-family="Helvetica,sans-Serif" font-size="10.00" fill="#000000">+ clone()</text>
<text text-anchor="start" x="8" y="-200.5" font-family="Helvetica,sans-Serif" font-size="10.00" fill="#000000">+ to_long()</text>
<text text-anchor="start" x="8" y="-189.5" font-family="Helvetica,sans-Serif" font-size="10.00" fill="#000000">+ to_string()</text>
<text text-anchor="start" x="8" y="-178.5" font-family="Helvetica,sans-Serif" font-size="10.00" fill="#000000">+ to_ref()</text>
<text text-anchor="start" x="8" y="-167.5" font-family="Helvetica,sans-Serif" font-size="10.00" fill="#000000">+ parse_term()</text>
<text text-anchor="start" x="8" y="-156.5" font-family="Helvetica,sans-Serif" font-size="10.00" fill="#000000">+ parse_id()</text>
</a>
</g>
</g>
<!-- Node3&#45;&gt;Node2 -->
<g id="edge1" class="edge">
<title>Node3&#45;&gt;Node2</title>
<path fill="none" stroke="#191970" d="M120.3042,-141.6989C132.5278,-128.2106 145.126,-114.3093 156.6748,-101.5658"/>
<polygon fill="none" stroke="#191970" points="117.6825,-139.3796 113.5608,-149.1398 122.8695,-144.0803 117.6825,-139.3796"/>
</g>
<!-- Node4 -->
<g id="node3" class="node">
<title>Node4</title>
<polygon fill="#ffffff" stroke="#bfbfbf" points="133.5,-182.5 133.5,-239.5 271.5,-239.5 271.5,-182.5 133.5,-182.5"/>
<text text-anchor="middle" x="202.5" y="-227.5" font-family="Helvetica,sans-Serif" font-size="10.00" fill="#000000">vector&lt; PDI::Expression &gt;</text>
<polyline fill="none" stroke="#bfbfbf" points="133.5,-220.5 271.5,-220.5 "/>
<text text-anchor="middle" x="202.5" y="-208.5" font-family="Helvetica,sans-Serif" font-size="10.00" fill="#000000"> </text>
<polyline fill="none" stroke="#bfbfbf" points="133.5,-201.5 271.5,-201.5 "/>
<text text-anchor="middle" x="202.5" y="-189.5" font-family="Helvetica,sans-Serif" font-size="10.00" fill="#000000"> </text>
</g>
<!-- Node4&#45;&gt;Node2 -->
<g id="edge2" class="edge">
<title>Node4&#45;&gt;Node2</title>
<path fill="none" stroke="#404040" d="M202.5,-182.3952C202.5,-163.3358 202.5,-137.5272 202.5,-113.8285"/>
<polygon fill="none" stroke="#404040" points="202.5001,-113.6748 198.5,-107.6748 202.5,-101.6748 206.5,-107.6748 202.5001,-113.6748"/>
<text text-anchor="middle" x="221.5" y="-123" font-family="Helvetica,sans-Serif" font-size="10.00" fill="#000000"> +m_idx</text>
</g>
<!-- Node5 -->
<g id="node4" class="node">
<title>Node5</title>
<polygon fill="#ffffff" stroke="#bfbfbf" points="290,-182.5 290,-239.5 333,-239.5 333,-182.5 290,-182.5"/>
<text text-anchor="middle" x="311.5" y="-227.5" font-family="Helvetica,sans-Serif" font-size="10.00" fill="#000000">string</text>
<polyline fill="none" stroke="#bfbfbf" points="290,-220.5 333,-220.5 "/>
<text text-anchor="middle" x="311.5" y="-208.5" font-family="Helvetica,sans-Serif" font-size="10.00" fill="#000000"> </text>
<polyline fill="none" stroke="#bfbfbf" points="290,-201.5 333,-201.5 "/>
<text text-anchor="middle" x="311.5" y="-189.5" font-family="Helvetica,sans-Serif" font-size="10.00" fill="#000000"> </text>
</g>
<!-- Node5&#45;&gt;Node2 -->
<g id="edge3" class="edge">
<title>Node5&#45;&gt;Node2</title>
<path fill="none" stroke="#404040" d="M298.6615,-182.2308C293.4881,-171.5269 287.1675,-159.4494 280.5,-149 272.4242,-136.3436 263.031,-123.3857 253.6183,-111.2096"/>
<polygon fill="none" stroke="#404040" points="253.5062,-111.067 246.6535,-108.822 246.0902,-101.6329 252.9429,-103.8779 253.5062,-111.067"/>
<text text-anchor="middle" x="304.5" y="-123" font-family="Helvetica,sans-Serif" font-size="10.00" fill="#000000"> +m_referenced</text>
</g>
</g>
</svg>
