<?xml version="1.0" encoding="UTF-8" standalone="no"?>
<!DOCTYPE svg PUBLIC "-//W3C//DTD SVG 1.1//EN"
 "http://www.w3.org/Graphics/SVG/1.1/DTD/svg11.dtd">
<!-- Generated by graphviz version 2.40.1 (20161225.0304)
 -->
<!-- Title: PDI::Expression::Impl::to_string Pages: 1 -->
<svg width="279pt" height="88pt"
 viewBox="0.00 0.00 279.00 88.00" xmlns="http://www.w3.org/2000/svg" xmlns:xlink="http://www.w3.org/1999/xlink">
<g id="graph0" class="graph" transform="scale(1 1) rotate(0) translate(4 84)">
<title>PDI::Expression::Impl::to_string</title>
<polygon fill="#ffffff" stroke="transparent" points="-4,4 -4,-84 275,-84 275,4 -4,4"/>
<!-- Node22 -->
<g id="node1" class="node">
<title>Node22</title>
<polygon fill="#bfbfbf" stroke="#000000" points="0,-24.5 0,-54.5 115,-54.5 115,-24.5 0,-24.5"/>
<text text-anchor="start" x="8" y="-42.5" font-family="Helvetica,sans-Serif" font-size="10.00" fill="#000000">PDI::Expression::Impl</text>
<text text-anchor="middle" x="57.5" y="-31.5" font-family="Helvetica,sans-Serif" font-size="10.00" fill="#000000">::to_string</text>
</g>
<!-- Node23 -->
<g id="node2" class="node">
<title>Node23</title>
<g id="a_node2"><a xlink:href="structPDI_1_1Expression_1_1Impl_1_1String__literal.html#ac31ab4b930758f76e848a25f595a85ff" target="_top" xlink:title="PDI::Expression::Impl\l::String_literal::to_long">
<polygon fill="#ffffff" stroke="#000000" points="151,-49.5 151,-79.5 271,-79.5 271,-49.5 151,-49.5"/>
<text text-anchor="start" x="159" y="-67.5" font-family="Helvetica,sans-Serif" font-size="10.00" fill="#000000">PDI::Expression::Impl</text>
<text text-anchor="middle" x="211" y="-56.5" font-family="Helvetica,sans-Serif" font-size="10.00" fill="#000000">::String_literal::to_long</text>
</a>
</g>
</g>
<!-- Node22&#45;&gt;Node23 -->
<g id="edge1" class="edge">
<title>Node22&#45;&gt;Node23</title>
<path fill="none" stroke="#191970" d="M125.0514,-50.5019C133.6162,-51.8968 142.336,-53.3169 150.7759,-54.6915"/>
<polygon fill="#191970" stroke="#191970" points="125.5271,-47.0333 115.0945,-48.8802 124.4018,-53.9423 125.5271,-47.0333"/>
</g>
<!-- Node24 -->
<g id="node3" class="node">
<title>Node24</title>
<g id="a_node3"><a xlink:href="structPDI_1_1Expression_1_1Impl_1_1String__literal.html#aa328553949cd16ded5d46d31a88e1d1e" target="_top" xlink:title="PDI::Expression::Impl\l::String_literal::to_ref">
<polygon fill="#ffffff" stroke="#000000" points="153.5,-.5 153.5,-30.5 268.5,-30.5 268.5,-.5 153.5,-.5"/>
<text text-anchor="start" x="161.5" y="-18.5" font-family="Helvetica,sans-Serif" font-size="10.00" fill="#000000">PDI::Expression::Impl</text>
<text text-anchor="middle" x="211" y="-7.5" font-family="Helvetica,sans-Serif" font-size="10.00" fill="#000000">::String_literal::to_ref</text>
</a>
</g>
</g>
<!-- Node22&#45;&gt;Node24 -->
<g id="edge2" class="edge">
<title>Node22&#45;&gt;Node24</title>
<path fill="none" stroke="#191970" d="M125.186,-28.9172C134.5775,-27.4488 144.1525,-25.9517 153.3381,-24.5155"/>
<polygon fill="#191970" stroke="#191970" points="124.4337,-25.4922 115.0945,-30.495 125.5151,-32.4082 124.4337,-25.4922"/>
</g>
</g>
</svg>
