<?xml version="1.0" encoding="UTF-8" standalone="no"?>
<!DOCTYPE svg PUBLIC "-//W3C//DTD SVG 1.1//EN"
 "http://www.w3.org/Graphics/SVG/1.1/DTD/svg11.dtd">
<!-- Generated by graphviz version 2.40.1 (20161225.0304)
 -->
<!-- Title: PDI::Expression::Impl::Operation Pages: 1 -->
<svg width="363pt" height="391pt"
 viewBox="0.00 0.00 363.00 391.00" xmlns="http://www.w3.org/2000/svg" xmlns:xlink="http://www.w3.org/1999/xlink">
<g id="graph0" class="graph" transform="scale(1 1) rotate(0) translate(4 387)">
<title>PDI::Expression::Impl::Operation</title>
<polygon fill="#ffffff" stroke="transparent" points="-4,4 -4,-387 359,-387 359,4 -4,4"/>
<!-- Node2 -->
<g id="node1" class="node">
<title>Node2</title>
<polygon fill="#bfbfbf" stroke="#000000" points="129,-.5 129,-123.5 244,-123.5 244,-.5 129,-.5"/>
<text text-anchor="start" x="137" y="-111.5" font-family="Helvetica,sans-Serif" font-size="10.00" fill="#000000">PDI::Expression::Impl</text>
<text text-anchor="middle" x="186.5" y="-100.5" font-family="Helvetica,sans-Serif" font-size="10.00" fill="#000000">::Operation</text>
<polyline fill="none" stroke="#000000" points="129,-93.5 244,-93.5 "/>
<text text-anchor="middle" x="186.5" y="-81.5" font-family="Helvetica,sans-Serif" font-size="10.00" fill="#000000"> </text>
<polyline fill="none" stroke="#000000" points="129,-74.5 244,-74.5 "/>
<text text-anchor="start" x="137" y="-62.5" font-family="Helvetica,sans-Serif" font-size="10.00" fill="#000000">+ clone()</text>
<text text-anchor="start" x="137" y="-51.5" font-family="Helvetica,sans-Serif" font-size="10.00" fill="#000000">+ to_long()</text>
<text text-anchor="start" x="137" y="-40.5" font-family="Helvetica,sans-Serif" font-size="10.00" fill="#000000">+ to_ref()</text>
<text text-anchor="start" x="137" y="-29.5" font-family="Helvetica,sans-Serif" font-size="10.00" fill="#000000">+ parse()</text>
<text text-anchor="start" x="137" y="-18.5" font-family="Helvetica,sans-Serif" font-size="10.00" fill="#000000">+ op_level()</text>
<text text-anchor="start" x="137" y="-7.5" font-family="Helvetica,sans-Serif" font-size="10.00" fill="#000000">+ parse_operator()</text>
</g>
<!-- Node3 -->
<g id="node2" class="node">
<title>Node3</title>
<g id="a_node2"><a xlink:href="structPDI_1_1Expression_1_1Impl.html" target="_top" xlink:title="{PDI::Expression::Impl\n||+ ~Impl()\l+ clone()\l+ to_long()\l+ to_string()\l+ to_ref()\l+ parse_term()\l+ parse_id()\l}">
<polygon fill="#ffffff" stroke="#000000" points="0,-215.5 0,-338.5 115,-338.5 115,-215.5 0,-215.5"/>
<text text-anchor="middle" x="57.5" y="-326.5" font-family="Helvetica,sans-Serif" font-size="10.00" fill="#000000">PDI::Expression::Impl</text>
<polyline fill="none" stroke="#000000" points="0,-319.5 115,-319.5 "/>
<text text-anchor="middle" x="57.5" y="-307.5" font-family="Helvetica,sans-Serif" font-size="10.00" fill="#000000"> </text>
<polyline fill="none" stroke="#000000" points="0,-300.5 115,-300.5 "/>
<text text-anchor="start" x="8" y="-288.5" font-family="Helvetica,sans-Serif" font-size="10.00" fill="#000000">+ ~Impl()</text>
<text text-anchor="start" x="8" y="-277.5" font-family="Helvetica,sans-Serif" font-size="10.00" fill="#000000">+ clone()</text>
<text text-anchor="start" x="8" y="-266.5" font-family="Helvetica,sans-Serif" font-size="10.00" fill="#000000">+ to_long()</text>
<text text-anchor="start" x="8" y="-255.5" font-family="Helvetica,sans-Serif" font-size="10.00" fill="#000000">+ to_string()</text>
<text text-anchor="start" x="8" y="-244.5" font-family="Helvetica,sans-Serif" font-size="10.00" fill="#000000">+ to_ref()</text>
<text text-anchor="start" x="8" y="-233.5" font-family="Helvetica,sans-Serif" font-size="10.00" fill="#000000">+ parse_term()</text>
<text text-anchor="start" x="8" y="-222.5" font-family="Helvetica,sans-Serif" font-size="10.00" fill="#000000">+ parse_id()</text>
</a>
</g>
</g>
<!-- Node3&#45;&gt;Node2 -->
<g id="edge1" class="edge">
<title>Node3&#45;&gt;Node2</title>
<path fill="none" stroke="#191970" d="M99.6134,-206.8111C115.7151,-179.9748 133.9418,-149.597 149.5284,-123.6194"/>
<polygon fill="none" stroke="#191970" points="96.61,-205.0139 94.4662,-215.3896 102.6125,-208.6154 96.61,-205.0139"/>
</g>
<!-- Node4 -->
<g id="node3" class="node">
<title>Node4</title>
<polygon fill="#ffffff" stroke="#bfbfbf" points="133.5,-248.5 133.5,-305.5 239.5,-305.5 239.5,-248.5 133.5,-248.5"/>
<text text-anchor="middle" x="186.5" y="-293.5" font-family="Helvetica,sans-Serif" font-size="10.00" fill="#000000">vector&lt; Operand &gt;</text>
<polyline fill="none" stroke="#bfbfbf" points="133.5,-286.5 239.5,-286.5 "/>
<text text-anchor="middle" x="186.5" y="-274.5" font-family="Helvetica,sans-Serif" font-size="10.00" fill="#000000"> </text>
<polyline fill="none" stroke="#bfbfbf" points="133.5,-267.5 239.5,-267.5 "/>
<text text-anchor="middle" x="186.5" y="-255.5" font-family="Helvetica,sans-Serif" font-size="10.00" fill="#000000"> </text>
</g>
<!-- Node4&#45;&gt;Node2 -->
<g id="edge2" class="edge">
<title>Node4&#45;&gt;Node2</title>
<path fill="none" stroke="#404040" d="M186.5,-248.4497C186.5,-219.8369 186.5,-174.5935 186.5,-135.8408"/>
<polygon fill="none" stroke="#404040" points="186.5001,-135.7825 182.5,-129.7825 186.5,-123.7825 190.5,-129.7825 186.5001,-135.7825"/>
<text text-anchor="middle" x="221.5" y="-145" font-family="Helvetica,sans-Serif" font-size="10.00" fill="#000000"> +m_operands</text>
</g>
<!-- Node5 -->
<g id="node4" class="node">
<title>Node5</title>
<g id="a_node4"><a xlink:href="classPDI_1_1Expression.html" target="_top" xlink:title="{PDI::Expression\n|&#45; Impl\l&#45; m_impl\l|+ Expression()\l+ Expression()\l+ Expression()\l+ Expression()\l+ Expression()\l+ Expression()\l+ ~Expression()\l+ operator=()\l+ operator=()\l+ operator bool()\l+ to_long()\l+ to_string()\l+ to_ref()\l&#45; Expression()\l}">
<polygon fill="#ffffff" stroke="#000000" points="258,-171.5 258,-382.5 355,-382.5 355,-171.5 258,-171.5"/>
<text text-anchor="middle" x="306.5" y="-370.5" font-family="Helvetica,sans-Serif" font-size="10.00" fill="#000000">PDI::Expression</text>
<polyline fill="none" stroke="#000000" points="258,-363.5 355,-363.5 "/>
<text text-anchor="start" x="266" y="-351.5" font-family="Helvetica,sans-Serif" font-size="10.00" fill="#000000">&#45; Impl</text>
<text text-anchor="start" x="266" y="-340.5" font-family="Helvetica,sans-Serif" font-size="10.00" fill="#000000">&#45; m_impl</text>
<polyline fill="none" stroke="#000000" points="258,-333.5 355,-333.5 "/>
<text text-anchor="start" x="266" y="-321.5" font-family="Helvetica,sans-Serif" font-size="10.00" fill="#000000">+ Expression()</text>
<text text-anchor="start" x="266" y="-310.5" font-family="Helvetica,sans-Serif" font-size="10.00" fill="#000000">+ Expression()</text>
<text text-anchor="start" x="266" y="-299.5" font-family="Helvetica,sans-Serif" font-size="10.00" fill="#000000">+ Expression()</text>
<text text-anchor="start" x="266" y="-288.5" font-family="Helvetica,sans-Serif" font-size="10.00" fill="#000000">+ Expression()</text>
<text text-anchor="start" x="266" y="-277.5" font-family="Helvetica,sans-Serif" font-size="10.00" fill="#000000">+ Expression()</text>
<text text-anchor="start" x="266" y="-266.5" font-family="Helvetica,sans-Serif" font-size="10.00" fill="#000000">+ Expression()</text>
<text text-anchor="start" x="266" y="-255.5" font-family="Helvetica,sans-Serif" font-size="10.00" fill="#000000">+ ~Expression()</text>
<text text-anchor="start" x="266" y="-244.5" font-family="Helvetica,sans-Serif" font-size="10.00" fill="#000000">+ operator=()</text>
<text text-anchor="start" x="266" y="-233.5" font-family="Helvetica,sans-Serif" font-size="10.00" fill="#000000">+ operator=()</text>
<text text-anchor="start" x="266" y="-222.5" font-family="Helvetica,sans-Serif" font-size="10.00" fill="#000000">+ operator bool()</text>
<text text-anchor="start" x="266" y="-211.5" font-family="Helvetica,sans-Serif" font-size="10.00" fill="#000000">+ to_long()</text>
<text text-anchor="start" x="266" y="-200.5" font-family="Helvetica,sans-Serif" font-size="10.00" fill="#000000">+ to_string()</text>
<text text-anchor="start" x="266" y="-189.5" font-family="Helvetica,sans-Serif" font-size="10.00" fill="#000000">+ to_ref()</text>
<text text-anchor="start" x="266" y="-178.5" font-family="Helvetica,sans-Serif" font-size="10.00" fill="#000000">&#45; Expression()</text>
</a>
</g>
</g>
<!-- Node5&#45;&gt;Node2 -->
<g id="edge3" class="edge">
<title>Node5&#45;&gt;Node2</title>
<path fill="none" stroke="#404040" d="M275.431,-171.4948C270.9822,-161.2585 266.014,-151.2525 260.5,-142 257.7563,-137.396 254.7136,-132.8313 251.4719,-128.3536"/>
<polygon fill="none" stroke="#404040" points="251.3855,-128.2406 244.5632,-125.9046 244.0956,-118.7087 250.9179,-121.0447 251.3855,-128.2406"/>
<text text-anchor="middle" x="309.5" y="-145" font-family="Helvetica,sans-Serif" font-size="10.00" fill="#000000"> +m_first_operand</text>
</g>
</g>
</svg>
