<?xml version="1.0" encoding="UTF-8" standalone="no"?>
<!DOCTYPE svg PUBLIC "-//W3C//DTD SVG 1.1//EN"
 "http://www.w3.org/Graphics/SVG/1.1/DTD/svg11.dtd">
<!-- Generated by graphviz version 2.40.1 (20161225.0304)
 -->
<!-- Title: /home/jbigot/data/projects/pdi/pdi/src/python/tools.cxx Pages: 1 -->
<svg width="1377pt" height="599pt"
 viewBox="0.00 0.00 1376.72 599.00" xmlns="http://www.w3.org/2000/svg" xmlns:xlink="http://www.w3.org/1999/xlink">
<g id="graph0" class="graph" transform="scale(1 1) rotate(0) translate(4 595)">
<title>/home/jbigot/data/projects/pdi/pdi/src/python/tools.cxx</title>
<polygon fill="#ffffff" stroke="transparent" points="-4,4 -4,-595 1372.7213,-595 1372.7213,4 -4,4"/>
<!-- Node0 -->
<g id="node1" class="node">
<title>Node0</title>
<polygon fill="#bfbfbf" stroke="#000000" points="530,-560.5 530,-590.5 677,-590.5 677,-560.5 530,-560.5"/>
<text text-anchor="start" x="538" y="-578.5" font-family="Helvetica,sans-Serif" font-size="10.00" fill="#000000">/home/jbigot/data/projects</text>
<text text-anchor="middle" x="603.5" y="-567.5" font-family="Helvetica,sans-Serif" font-size="10.00" fill="#000000">/pdi/pdi/src/python/tools.cxx</text>
</g>
<!-- Node1 -->
<g id="node2" class="node">
<title>Node1</title>
<polygon fill="#ffffff" stroke="#bfbfbf" points="0,-504.5 0,-523.5 53,-523.5 53,-504.5 0,-504.5"/>
<text text-anchor="middle" x="26.5" y="-511.5" font-family="Helvetica,sans-Serif" font-size="10.00" fill="#000000">config.h</text>
</g>
<!-- Node0&#45;&gt;Node1 -->
<g id="edge1" class="edge">
<title>Node0&#45;&gt;Node1</title>
<path fill="none" stroke="#191970" d="M529.8668,-572.6C427.2285,-567.647 235.353,-555.0833 63.1216,-523.7986"/>
<polygon fill="#191970" stroke="#191970" points="63.5828,-520.3248 53.1142,-521.9554 62.3148,-527.209 63.5828,-520.3248"/>
</g>
<!-- Node2 -->
<g id="node3" class="node">
<title>Node2</title>
<polygon fill="#ffffff" stroke="#bfbfbf" points="71.5,-504.5 71.5,-523.5 117.5,-523.5 117.5,-504.5 71.5,-504.5"/>
<text text-anchor="middle" x="94.5" y="-511.5" font-family="Helvetica,sans-Serif" font-size="10.00" fill="#000000">vector</text>
</g>
<!-- Node0&#45;&gt;Node2 -->
<g id="edge2" class="edge">
<title>Node0&#45;&gt;Node2</title>
<path fill="none" stroke="#191970" d="M529.8036,-571.016C436.4819,-564.5252 271.0295,-550.3025 131.5,-524 130.2494,-523.7643 128.9792,-523.5079 127.6993,-523.2354"/>
<polygon fill="#191970" stroke="#191970" points="128.3989,-519.8043 117.8611,-520.902 126.7834,-526.6154 128.3989,-519.8043"/>
</g>
<!-- Node3 -->
<g id="node4" class="node">
<title>Node3</title>
<g id="a_node4"><a xlink:href="array__datatype_8h.html" target="_top" xlink:title="pdi/array_datatype.h">
<polygon fill="#ffffff" stroke="#000000" points="347.5,-392.5 347.5,-411.5 461.5,-411.5 461.5,-392.5 347.5,-392.5"/>
<text text-anchor="middle" x="404.5" y="-399.5" font-family="Helvetica,sans-Serif" font-size="10.00" fill="#000000">pdi/array_datatype.h</text>
</a>
</g>
</g>
<!-- Node0&#45;&gt;Node3 -->
<g id="edge3" class="edge">
<title>Node0&#45;&gt;Node3</title>
<path fill="none" stroke="#191970" d="M576.488,-560.4926C544.1392,-541.674 489.4498,-507.0977 450.5,-468 436.2439,-453.6898 423.4142,-434.4839 414.9492,-420.4812"/>
<polygon fill="#191970" stroke="#191970" points="417.9014,-418.5965 409.8223,-411.7424 411.8638,-422.1387 417.9014,-418.5965"/>
</g>
<!-- Node10 -->
<g id="node11" class="node">
<title>Node10</title>
<g id="a_node11"><a xlink:href="datatype_8h.html" target="_top" xlink:title="pdi/datatype.h">
<polygon fill="#ffffff" stroke="#000000" points="312,-336.5 312,-355.5 395,-355.5 395,-336.5 312,-336.5"/>
<text text-anchor="middle" x="353.5" y="-343.5" font-family="Helvetica,sans-Serif" font-size="10.00" fill="#000000">pdi/datatype.h</text>
</a>
</g>
</g>
<!-- Node0&#45;&gt;Node10 -->
<g id="edge50" class="edge">
<title>Node0&#45;&gt;Node10</title>
<path fill="none" stroke="#191970" d="M529.9021,-569.9502C435.0477,-558.3505 273.8643,-522.5334 202.5,-412 176.6228,-371.9197 248.5257,-356.0509 301.8045,-349.8577"/>
<polygon fill="#191970" stroke="#191970" points="302.2748,-353.3274 311.8426,-348.777 301.5254,-346.3676 302.2748,-353.3274"/>
</g>
<!-- Node12 -->
<g id="node13" class="node">
<title>Node12</title>
<g id="a_node13"><a xlink:href="logger_8h.html" target="_top" xlink:title="pdi/logger.h">
<polygon fill="#ffffff" stroke="#000000" points="707.5,-224.5 707.5,-243.5 779.5,-243.5 779.5,-224.5 707.5,-224.5"/>
<text text-anchor="middle" x="743.5" y="-231.5" font-family="Helvetica,sans-Serif" font-size="10.00" fill="#000000">pdi/logger.h</text>
</a>
</g>
</g>
<!-- Node0&#45;&gt;Node12 -->
<g id="edge53" class="edge">
<title>Node0&#45;&gt;Node12</title>
<path fill="none" stroke="#191970" d="M673.7459,-560.4783C747.639,-540.519 860.18,-497.3456 911.5,-412 946.7909,-353.311 856.6621,-388.826 810.5,-356 784.4792,-337.4966 780.7888,-328.0305 765.5,-300 757.4682,-285.2745 751.6763,-267.1028 748.0578,-253.5573"/>
<polygon fill="#191970" stroke="#191970" points="751.4483,-252.6882 745.6204,-243.8402 744.6586,-254.3913 751.4483,-252.6882"/>
</g>
<!-- Node13 -->
<g id="node14" class="node">
<title>Node13</title>
<g id="a_node14"><a xlink:href="paraconf__wrapper_8h.html" target="_top" xlink:title="pdi/paraconf_wrapper.h">
<polygon fill="#ffffff" stroke="#000000" points="1000,-168.5 1000,-187.5 1129,-187.5 1129,-168.5 1000,-168.5"/>
<text text-anchor="middle" x="1064.5" y="-175.5" font-family="Helvetica,sans-Serif" font-size="10.00" fill="#000000">pdi/paraconf_wrapper.h</text>
</a>
</g>
</g>
<!-- Node0&#45;&gt;Node13 -->
<g id="edge54" class="edge">
<title>Node0&#45;&gt;Node13</title>
<path fill="none" stroke="#191970" d="M677.0076,-573.3059C817.9068,-568.4535 1120.8612,-554.716 1220.5,-524 1268.8082,-509.1079 1284.9447,-504.897 1319.5,-468 1344.0031,-441.8364 1357.8355,-426.0065 1346.5,-392 1336.6618,-362.4854 1327.1626,-357.3145 1304.5,-336 1236.5073,-272.0518 1139.6956,-217.1776 1092.5146,-192.2747"/>
<polygon fill="#191970" stroke="#191970" points="1093.9794,-189.0911 1083.4956,-187.5614 1090.7372,-195.2951 1093.9794,-189.0911"/>
</g>
<!-- Node15 -->
<g id="node16" class="node">
<title>Node15</title>
<g id="a_node16"><a xlink:href="context_8h.html" target="_top" xlink:title="pdi/context.h">
<polygon fill="#ffffff" stroke="#000000" points="1064,-504.5 1064,-523.5 1141,-523.5 1141,-504.5 1064,-504.5"/>
<text text-anchor="middle" x="1102.5" y="-511.5" font-family="Helvetica,sans-Serif" font-size="10.00" fill="#000000">pdi/context.h</text>
</a>
</g>
</g>
<!-- Node0&#45;&gt;Node15 -->
<g id="edge21" class="edge">
<title>Node0&#45;&gt;Node15</title>
<path fill="none" stroke="#191970" d="M677.1292,-566.4255C780.5279,-553.6819 965.9197,-530.833 1053.7716,-520.0056"/>
<polygon fill="#191970" stroke="#191970" points="1054.2401,-523.4744 1063.7369,-518.7774 1053.3838,-516.527 1054.2401,-523.4744"/>
</g>
<!-- Node21 -->
<g id="node22" class="node">
<title>Node21</title>
<g id="a_node22"><a xlink:href="data__descriptor_8h.html" target="_top" xlink:title="pdi/data_descriptor.h">
<polygon fill="#ffffff" stroke="#000000" points="459.5,-448.5 459.5,-467.5 575.5,-467.5 575.5,-448.5 459.5,-448.5"/>
<text text-anchor="middle" x="517.5" y="-455.5" font-family="Helvetica,sans-Serif" font-size="10.00" fill="#000000">pdi/data_descriptor.h</text>
</a>
</g>
</g>
<!-- Node0&#45;&gt;Node21 -->
<g id="edge51" class="edge">
<title>Node0&#45;&gt;Node21</title>
<path fill="none" stroke="#191970" d="M592.257,-560.1389C576.34,-538.3919 547.3064,-498.7238 530.4889,-475.7465"/>
<polygon fill="#191970" stroke="#191970" points="533.2273,-473.5618 524.4967,-467.5595 527.5786,-477.6962 533.2273,-473.5618"/>
</g>
<!-- Node22 -->
<g id="node23" class="node">
<title>Node22</title>
<g id="a_node23"><a xlink:href="ref__any_8h.html" target="_top" xlink:title="pdi/ref_any.h">
<polygon fill="#ffffff" stroke="#000000" points="1072.5,-392.5 1072.5,-411.5 1150.5,-411.5 1150.5,-392.5 1072.5,-392.5"/>
<text text-anchor="middle" x="1111.5" y="-399.5" font-family="Helvetica,sans-Serif" font-size="10.00" fill="#000000">pdi/ref_any.h</text>
</a>
</g>
</g>
<!-- Node0&#45;&gt;Node22 -->
<g id="edge58" class="edge">
<title>Node0&#45;&gt;Node22</title>
<path fill="none" stroke="#191970" d="M677.2062,-570.8963C804.9644,-562.5266 1062.327,-543.8396 1150.5,-524 1221.5528,-508.0125 1262.7181,-527.6521 1304.5,-468 1309.5995,-460.7194 1310.0088,-454.9761 1304.5,-448 1286.9252,-425.7441 1212.1158,-413.0879 1160.9676,-406.8896"/>
<polygon fill="#191970" stroke="#191970" points="1161.0977,-403.3812 1150.7596,-405.6995 1160.287,-410.3341 1161.0977,-403.3812"/>
</g>
<!-- Node25 -->
<g id="node26" class="node">
<title>Node25</title>
<g id="a_node26"><a xlink:href="error_8h.html" target="_top" xlink:title="pdi/error.h">
<polygon fill="#ffffff" stroke="#000000" points="1235,-168.5 1235,-187.5 1300,-187.5 1300,-168.5 1235,-168.5"/>
<text text-anchor="middle" x="1267.5" y="-175.5" font-family="Helvetica,sans-Serif" font-size="10.00" fill="#000000">pdi/error.h</text>
</a>
</g>
</g>
<!-- Node0&#45;&gt;Node25 -->
<g id="edge52" class="edge">
<title>Node0&#45;&gt;Node25</title>
<path fill="none" stroke="#191970" d="M677.0054,-574.5975C825.405,-571.987 1155.6662,-561.9641 1261.5,-524 1330.7785,-499.1488 1376.6225,-464.0305 1361.5,-392 1345.4195,-315.4063 1300.215,-232.7572 1278.897,-196.6509"/>
<polygon fill="#191970" stroke="#191970" points="1281.7033,-194.5247 1273.5617,-187.745 1275.6984,-198.1221 1281.7033,-194.5247"/>
</g>
<!-- Node27 -->
<g id="node28" class="node">
<title>Node27</title>
<g id="a_node28"><a xlink:href="plugin_8h.html" target="_top" xlink:title="pdi/plugin.h">
<polygon fill="#ffffff" stroke="#000000" points="644.5,-280.5 644.5,-299.5 714.5,-299.5 714.5,-280.5 644.5,-280.5"/>
<text text-anchor="middle" x="679.5" y="-287.5" font-family="Helvetica,sans-Serif" font-size="10.00" fill="#000000">pdi/plugin.h</text>
</a>
</g>
</g>
<!-- Node0&#45;&gt;Node27 -->
<g id="edge55" class="edge">
<title>Node0&#45;&gt;Node27</title>
<path fill="none" stroke="#191970" d="M603.7489,-560.3854C604.645,-528.5298 608.7496,-452.453 627.5,-392 637.1146,-361.0018 655.6186,-328.0512 667.7611,-308.2493"/>
<polygon fill="#191970" stroke="#191970" points="670.8044,-309.9839 673.1441,-299.6507 664.8712,-306.2695 670.8044,-309.9839"/>
</g>
<!-- Node28 -->
<g id="node29" class="node">
<title>Node28</title>
<g id="a_node29"><a xlink:href="scalar__datatype_8h.html" target="_top" xlink:title="pdi/scalar_datatype.h">
<polygon fill="#ffffff" stroke="#000000" points="211.5,-392.5 211.5,-411.5 329.5,-411.5 329.5,-392.5 211.5,-392.5"/>
<text text-anchor="middle" x="270.5" y="-399.5" font-family="Helvetica,sans-Serif" font-size="10.00" fill="#000000">pdi/scalar_datatype.h</text>
</a>
</g>
</g>
<!-- Node0&#45;&gt;Node28 -->
<g id="edge59" class="edge">
<title>Node0&#45;&gt;Node28</title>
<path fill="none" stroke="#191970" d="M567.6294,-560.4158C544.7477,-550.554 514.5952,-537.1122 488.5,-524 416.9247,-488.0351 335.1571,-440.4633 295.159,-416.7522"/>
<polygon fill="#191970" stroke="#191970" points="296.7556,-413.6296 286.3713,-411.5278 293.1784,-419.6466 296.7556,-413.6296"/>
</g>
<!-- Node29 -->
<g id="node30" class="node">
<title>Node29</title>
<g id="a_node30"><a xlink:href="tools_8h.html" target="_top" xlink:title="pdi/python/tools.h">
<polygon fill="#ffffff" stroke="#000000" points="670.5,-448.5 670.5,-467.5 770.5,-467.5 770.5,-448.5 670.5,-448.5"/>
<text text-anchor="middle" x="720.5" y="-455.5" font-family="Helvetica,sans-Serif" font-size="10.00" fill="#000000">pdi/python/tools.h</text>
</a>
</g>
</g>
<!-- Node0&#45;&gt;Node29 -->
<g id="edge63" class="edge">
<title>Node0&#45;&gt;Node29</title>
<path fill="none" stroke="#191970" d="M618.7957,-560.1389C640.7376,-538.1032 681.0013,-497.6675 703.7313,-474.8403"/>
<polygon fill="#191970" stroke="#191970" points="706.4054,-477.1152 710.9812,-467.5595 701.445,-472.176 706.4054,-477.1152"/>
</g>
<!-- Node4 -->
<g id="node5" class="node">
<title>Node4</title>
<g id="a_node5"><a xlink:href="pdi__fwd_8h.html" target="_top" xlink:title="pdi/pdi_fwd.h">
<polygon fill="#ffffff" stroke="#000000" points="665,-112.5 665,-131.5 744,-131.5 744,-112.5 665,-112.5"/>
<text text-anchor="middle" x="704.5" y="-119.5" font-family="Helvetica,sans-Serif" font-size="10.00" fill="#000000">pdi/pdi_fwd.h</text>
</a>
</g>
</g>
<!-- Node3&#45;&gt;Node4 -->
<g id="edge4" class="edge">
<title>Node3&#45;&gt;Node4</title>
<path fill="none" stroke="#191970" d="M405.9479,-392.3643C409.5666,-370.6881 420.5652,-317.0862 445.5,-280 488.0518,-216.7115 509.5781,-206.3458 575.5,-168 600.8114,-153.2767 631.6235,-142.0737 656.7863,-134.4113"/>
<polygon fill="#191970" stroke="#191970" points="657.8834,-137.7368 666.4821,-131.5471 655.9002,-131.0236 657.8834,-137.7368"/>
</g>
<!-- Node3&#45;&gt;Node10 -->
<g id="edge10" class="edge">
<title>Node3&#45;&gt;Node10</title>
<path fill="none" stroke="#191970" d="M395.6165,-392.2455C388.3034,-384.2155 377.7609,-372.6394 369.0533,-363.0781"/>
<polygon fill="#191970" stroke="#191970" points="371.6028,-360.6795 362.2817,-355.6427 366.4273,-365.3928 371.6028,-360.6795"/>
</g>
<!-- Node5 -->
<g id="node6" class="node">
<title>Node5</title>
<polygon fill="#ffffff" stroke="#bfbfbf" points="1123.5,-56.5 1123.5,-75.5 1177.5,-75.5 1177.5,-56.5 1123.5,-56.5"/>
<text text-anchor="middle" x="1150.5" y="-63.5" font-family="Helvetica,sans-Serif" font-size="10.00" fill="#000000">memory</text>
</g>
<!-- Node4&#45;&gt;Node5 -->
<g id="edge5" class="edge">
<title>Node4&#45;&gt;Node5</title>
<path fill="none" stroke="#191970" d="M744.0795,-117.0304C829.5376,-106.3002 1030.3034,-81.0919 1113.4405,-70.6532"/>
<polygon fill="#191970" stroke="#191970" points="1113.958,-74.1158 1123.444,-69.3972 1113.0859,-67.1703 1113.958,-74.1158"/>
</g>
<!-- Node6 -->
<g id="node7" class="node">
<title>Node6</title>
<g id="a_node7"><a xlink:href="pdi_8h.html" target="_top" xlink:title="pdi.h">
<polygon fill="#ffffff" stroke="#000000" points="116,-56.5 116,-75.5 155,-75.5 155,-56.5 116,-56.5"/>
<text text-anchor="middle" x="135.5" y="-63.5" font-family="Helvetica,sans-Serif" font-size="10.00" fill="#000000">pdi.h</text>
</a>
</g>
</g>
<!-- Node4&#45;&gt;Node6 -->
<g id="edge6" class="edge">
<title>Node4&#45;&gt;Node6</title>
<path fill="none" stroke="#191970" d="M664.9408,-118.1066C557.1944,-107.5024 260.2406,-78.2768 165.183,-68.9214"/>
<polygon fill="#191970" stroke="#191970" points="165.4094,-65.4268 155.1146,-67.9304 164.7237,-72.3931 165.4094,-65.4268"/>
</g>
<!-- Node7 -->
<g id="node8" class="node">
<title>Node7</title>
<polygon fill="#ffffff" stroke="#bfbfbf" points="318,-.5 318,-19.5 385,-19.5 385,-.5 318,-.5"/>
<text text-anchor="middle" x="351.5" y="-7.5" font-family="Helvetica,sans-Serif" font-size="10.00" fill="#000000">paraconf.h</text>
</g>
<!-- Node6&#45;&gt;Node7 -->
<g id="edge7" class="edge">
<title>Node6&#45;&gt;Node7</title>
<path fill="none" stroke="#191970" d="M155.24,-60.0545C159.9059,-58.6879 164.8706,-57.2653 169.5,-56 216.6271,-43.1191 270.9683,-29.5504 307.9153,-20.5163"/>
<polygon fill="#191970" stroke="#191970" points="308.9683,-23.8621 317.8545,-18.0928 307.31,-17.0614 308.9683,-23.8621"/>
</g>
<!-- Node8 -->
<g id="node9" class="node">
<title>Node8</title>
<polygon fill="#ffffff" stroke="#bfbfbf" points="146.5,-.5 146.5,-19.5 218.5,-19.5 218.5,-.5 146.5,-.5"/>
<text text-anchor="middle" x="182.5" y="-7.5" font-family="Helvetica,sans-Serif" font-size="10.00" fill="#000000">pdi/export.h</text>
</g>
<!-- Node6&#45;&gt;Node8 -->
<g id="edge8" class="edge">
<title>Node6&#45;&gt;Node8</title>
<path fill="none" stroke="#191970" d="M143.6868,-56.2455C150.3589,-48.2958 159.9479,-36.8706 167.9253,-27.3656"/>
<polygon fill="#191970" stroke="#191970" points="170.6592,-29.5525 174.407,-19.6427 165.2974,-25.0524 170.6592,-29.5525"/>
</g>
<!-- Node9 -->
<g id="node10" class="node">
<title>Node9</title>
<polygon fill="#ffffff" stroke="#bfbfbf" points="51,-.5 51,-19.5 128,-19.5 128,-.5 51,-.5"/>
<text text-anchor="middle" x="89.5" y="-7.5" font-family="Helvetica,sans-Serif" font-size="10.00" fill="#000000">pdi/version.h</text>
</g>
<!-- Node6&#45;&gt;Node9 -->
<g id="edge9" class="edge">
<title>Node6&#45;&gt;Node9</title>
<path fill="none" stroke="#191970" d="M127.4874,-56.2455C121.0232,-48.3761 111.7615,-37.101 104.0017,-27.6542"/>
<polygon fill="#191970" stroke="#191970" points="106.4727,-25.1484 97.4208,-19.6427 101.0636,-29.5916 106.4727,-25.1484"/>
</g>
<!-- Node10&#45;&gt;Node4 -->
<g id="edge11" class="edge">
<title>Node10&#45;&gt;Node4</title>
<path fill="none" stroke="#191970" d="M353.5177,-336.4141C354.1345,-306.2797 360.4277,-212.8138 413.5,-168 449.0717,-137.9636 581.2084,-127.3843 654.583,-123.7787"/>
<polygon fill="#191970" stroke="#191970" points="655.1374,-127.2568 664.9639,-123.2958 654.8121,-120.2643 655.1374,-127.2568"/>
</g>
<!-- Node11 -->
<g id="node12" class="node">
<title>Node11</title>
<g id="a_node12"><a xlink:href="datatype__template_8h.html" target="_top" xlink:title="pdi/datatype_template.h">
<polygon fill="#ffffff" stroke="#000000" points="454.5,-280.5 454.5,-299.5 584.5,-299.5 584.5,-280.5 454.5,-280.5"/>
<text text-anchor="middle" x="519.5" y="-287.5" font-family="Helvetica,sans-Serif" font-size="10.00" fill="#000000">pdi/datatype_template.h</text>
</a>
</g>
</g>
<!-- Node10&#45;&gt;Node11 -->
<g id="edge12" class="edge">
<title>Node10&#45;&gt;Node11</title>
<path fill="none" stroke="#191970" d="M382.0364,-336.3733C409.5202,-327.1016 451.2686,-313.0178 481.5452,-302.804"/>
<polygon fill="#191970" stroke="#191970" points="482.9794,-306.0141 491.336,-299.5011 480.7418,-299.3813 482.9794,-306.0141"/>
</g>
<!-- Node11&#45;&gt;Node4 -->
<g id="edge14" class="edge">
<title>Node11&#45;&gt;Node4</title>
<path fill="none" stroke="#191970" d="M523.3707,-280.4027C532.905,-257.8585 559.6068,-200.9455 598.5,-168 616.1273,-153.0684 639.3447,-142.2622 659.5563,-134.8913"/>
<polygon fill="#191970" stroke="#191970" points="660.8989,-138.1302 669.1992,-131.5458 658.6044,-131.5169 660.8989,-138.1302"/>
</g>
<!-- Node11&#45;&gt;Node7 -->
<g id="edge13" class="edge">
<title>Node11&#45;&gt;Node7</title>
<path fill="none" stroke="#191970" d="M513.7171,-280.3618C489.3831,-239.8052 395.069,-82.6149 362.5756,-28.4593"/>
<polygon fill="#191970" stroke="#191970" points="365.4049,-26.3719 357.2586,-19.5977 359.4024,-29.9734 365.4049,-26.3719"/>
</g>
<!-- Node11&#45;&gt;Node12 -->
<g id="edge15" class="edge">
<title>Node11&#45;&gt;Node12</title>
<path fill="none" stroke="#191970" d="M557.7525,-280.4369C596.4239,-270.769 656.2113,-255.8222 697.4578,-245.5105"/>
<polygon fill="#191970" stroke="#191970" points="698.4076,-248.8809 707.2601,-243.06 696.7098,-242.0899 698.4076,-248.8809"/>
</g>
<!-- Node12&#45;&gt;Node4 -->
<g id="edge16" class="edge">
<title>Node12&#45;&gt;Node4</title>
<path fill="none" stroke="#191970" d="M740.1749,-224.4509C733.7565,-206.0186 719.5517,-165.2254 711.131,-141.043"/>
<polygon fill="#191970" stroke="#191970" points="714.4106,-139.8177 707.8167,-131.5249 707.7999,-142.1197 714.4106,-139.8177"/>
</g>
<!-- Node12&#45;&gt;Node13 -->
<g id="edge17" class="edge">
<title>Node12&#45;&gt;Node13</title>
<path fill="none" stroke="#191970" d="M779.6988,-227.6849C833.1145,-218.3663 933.8584,-200.7911 1000.0768,-189.2389"/>
<polygon fill="#191970" stroke="#191970" points="1000.741,-192.676 1009.9906,-187.5094 999.5379,-185.7802 1000.741,-192.676"/>
</g>
<!-- Node13&#45;&gt;Node4 -->
<g id="edge20" class="edge">
<title>Node13&#45;&gt;Node4</title>
<path fill="none" stroke="#191970" d="M1003.0228,-168.4369C932.683,-157.4951 818.8743,-139.7916 753.9902,-129.6985"/>
<polygon fill="#191970" stroke="#191970" points="754.4301,-126.2249 744.0109,-128.1461 753.3541,-133.1417 754.4301,-126.2249"/>
</g>
<!-- Node13&#45;&gt;Node7 -->
<g id="edge19" class="edge">
<title>Node13&#45;&gt;Node7</title>
<path fill="none" stroke="#191970" d="M1024.1231,-168.4862C899.7851,-139.1892 523.3558,-50.4934 394.956,-20.2393"/>
<polygon fill="#191970" stroke="#191970" points="395.6161,-16.799 385.0799,-17.9122 394.0106,-23.6125 395.6161,-16.799"/>
</g>
<!-- Node14 -->
<g id="node15" class="node">
<title>Node14</title>
<polygon fill="#ffffff" stroke="#bfbfbf" points="1179,-112.5 1179,-131.5 1222,-131.5 1222,-112.5 1179,-112.5"/>
<text text-anchor="middle" x="1200.5" y="-119.5" font-family="Helvetica,sans-Serif" font-size="10.00" fill="#000000">string</text>
</g>
<!-- Node13&#45;&gt;Node14 -->
<g id="edge18" class="edge">
<title>Node13&#45;&gt;Node14</title>
<path fill="none" stroke="#191970" d="M1087.8792,-168.3733C1110.4067,-159.0972 1144.632,-145.0045 1169.4398,-134.7895"/>
<polygon fill="#191970" stroke="#191970" points="1170.8576,-137.9909 1178.7718,-130.9469 1168.1923,-131.5181 1170.8576,-137.9909"/>
</g>
<!-- Node15&#45;&gt;Node4 -->
<g id="edge29" class="edge">
<title>Node15&#45;&gt;Node4</title>
<path fill="none" stroke="#191970" d="M1101.6705,-504.1967C1100.0971,-490.5077 1095.6622,-465.3938 1083.5,-448 1043.7661,-391.1746 1007.6448,-403.8895 957.5,-356 879.9964,-281.9822 891.2364,-233.6138 806.5,-168 788.0206,-153.6909 764.3818,-142.6714 744.5147,-135.0099"/>
<polygon fill="#191970" stroke="#191970" points="745.6969,-131.7155 735.1039,-131.5189 743.2622,-138.2784 745.6969,-131.7155"/>
</g>
<!-- Node15&#45;&gt;Node5 -->
<g id="edge24" class="edge">
<title>Node15&#45;&gt;Node5</title>
<path fill="none" stroke="#191970" d="M1141.0218,-510.4294C1197.014,-504.5217 1297.1892,-491.0218 1324.5,-468 1372.0401,-427.9259 1368.5,-294.4147 1368.5,-234 1368.5,-234 1368.5,-234 1368.5,-178 1368.5,-97.7551 1250.1923,-74.9577 1187.8865,-68.5157"/>
<polygon fill="#191970" stroke="#191970" points="1187.9531,-65.0066 1177.6691,-67.5539 1187.297,-71.9758 1187.9531,-65.0066"/>
</g>
<!-- Node15&#45;&gt;Node11 -->
<g id="edge47" class="edge">
<title>Node15&#45;&gt;Node11</title>
<path fill="none" stroke="#191970" d="M1063.6899,-511.6682C962.5702,-505.352 696.4042,-487.0991 661.5,-468 593.6641,-430.8812 546.5886,-346.5624 528.1533,-308.8463"/>
<polygon fill="#191970" stroke="#191970" points="531.1748,-307.0502 523.7196,-299.5222 524.8531,-310.0562 531.1748,-307.0502"/>
</g>
<!-- Node15&#45;&gt;Node12 -->
<g id="edge49" class="edge">
<title>Node15&#45;&gt;Node12</title>
<path fill="none" stroke="#191970" d="M1063.7994,-509.8963C1034.2702,-504.8021 994.5311,-493.4142 969.5,-468 944.5481,-442.6662 969.5225,-417.264 944.5,-392 909.4879,-356.6501 879.043,-384.8396 838.5,-356 799.3183,-328.1287 768.4586,-279.5344 753.4568,-252.8602"/>
<polygon fill="#191970" stroke="#191970" points="756.3697,-250.8922 748.4994,-243.7993 750.2288,-254.252 756.3697,-250.8922"/>
</g>
<!-- Node15&#45;&gt;Node14 -->
<g id="edge26" class="edge">
<title>Node15&#45;&gt;Node14</title>
<path fill="none" stroke="#191970" d="M1141.3252,-510.8041C1194.1699,-505.5569 1284.4793,-493.0924 1304.5,-468 1385.0692,-367.0208 1280.3705,-305.4145 1226.5,-188 1219.3679,-172.4551 1212.3224,-154.353 1207.3685,-141.0428"/>
<polygon fill="#191970" stroke="#191970" points="1210.6112,-139.7196 1203.8822,-131.536 1204.0392,-142.1297 1210.6112,-139.7196"/>
</g>
<!-- Node16 -->
<g id="node17" class="node">
<title>Node16</title>
<polygon fill="#ffffff" stroke="#bfbfbf" points="847.5,-336.5 847.5,-355.5 909.5,-355.5 909.5,-336.5 847.5,-336.5"/>
<text text-anchor="middle" x="878.5" y="-343.5" font-family="Helvetica,sans-Serif" font-size="10.00" fill="#000000">functional</text>
</g>
<!-- Node15&#45;&gt;Node16 -->
<g id="edge22" class="edge">
<title>Node15&#45;&gt;Node16</title>
<path fill="none" stroke="#191970" d="M1063.9313,-504.6968C1031.7087,-496.0517 989.4732,-482.3776 979.5,-468 960.233,-440.2241 1000.9456,-420.328 982.5,-392 975.0251,-380.5204 945.0941,-367.9695 919.2493,-358.882"/>
<polygon fill="#191970" stroke="#191970" points="920.194,-355.506 909.5994,-355.5781 917.9266,-362.1286 920.194,-355.506"/>
</g>
<!-- Node17 -->
<g id="node18" class="node">
<title>Node17</title>
<polygon fill="#ffffff" stroke="#bfbfbf" points="1207,-448.5 1207,-467.5 1236,-467.5 1236,-448.5 1207,-448.5"/>
<text text-anchor="middle" x="1221.5" y="-455.5" font-family="Helvetica,sans-Serif" font-size="10.00" fill="#000000">list</text>
</g>
<!-- Node15&#45;&gt;Node17 -->
<g id="edge23" class="edge">
<title>Node15&#45;&gt;Node17</title>
<path fill="none" stroke="#191970" d="M1122.9568,-504.3733C1143.7026,-494.6106 1175.7861,-479.5124 1197.6682,-469.215"/>
<polygon fill="#191970" stroke="#191970" points="1199.369,-472.2828 1206.9269,-464.8579 1196.3884,-465.9491 1199.369,-472.2828"/>
</g>
<!-- Node18 -->
<g id="node19" class="node">
<title>Node18</title>
<polygon fill="#ffffff" stroke="#bfbfbf" points="1254,-448.5 1254,-467.5 1295,-467.5 1295,-448.5 1254,-448.5"/>
<text text-anchor="middle" x="1274.5" y="-455.5" font-family="Helvetica,sans-Serif" font-size="10.00" fill="#000000">stack</text>
</g>
<!-- Node15&#45;&gt;Node18 -->
<g id="edge25" class="edge">
<title>Node15&#45;&gt;Node18</title>
<path fill="none" stroke="#191970" d="M1132.6891,-504.4898C1159.6905,-495.9396 1200.58,-482.8838 1244.2657,-468.3716"/>
<polygon fill="#191970" stroke="#191970" points="1245.5415,-471.6358 1253.9229,-465.1548 1243.3293,-464.9945 1245.5415,-471.6358"/>
</g>
<!-- Node19 -->
<g id="node20" class="node">
<title>Node19</title>
<polygon fill="#ffffff" stroke="#bfbfbf" points="1203.5,-336.5 1203.5,-355.5 1295.5,-355.5 1295.5,-336.5 1203.5,-336.5"/>
<text text-anchor="middle" x="1249.5" y="-343.5" font-family="Helvetica,sans-Serif" font-size="10.00" fill="#000000">unordered_map</text>
</g>
<!-- Node15&#45;&gt;Node19 -->
<g id="edge27" class="edge">
<title>Node15&#45;&gt;Node19</title>
<path fill="none" stroke="#191970" d="M1110.8245,-504.4862C1134.6654,-477.2396 1203.46,-398.6172 1234.2666,-363.4096"/>
<polygon fill="#191970" stroke="#191970" points="1236.9495,-365.6585 1240.9006,-355.8279 1231.6815,-361.0489 1236.9495,-365.6585"/>
</g>
<!-- Node20 -->
<g id="node21" class="node">
<title>Node20</title>
<polygon fill="#ffffff" stroke="#bfbfbf" points="988.5,-448.5 988.5,-467.5 1074.5,-467.5 1074.5,-448.5 988.5,-448.5"/>
<text text-anchor="middle" x="1031.5" y="-455.5" font-family="Helvetica,sans-Serif" font-size="10.00" fill="#000000">unordered_set</text>
</g>
<!-- Node15&#45;&gt;Node20 -->
<g id="edge28" class="edge">
<title>Node15&#45;&gt;Node20</title>
<path fill="none" stroke="#191970" d="M1090.1327,-504.2455C1079.5446,-495.8943 1064.0936,-483.7076 1051.7107,-473.9408"/>
<polygon fill="#191970" stroke="#191970" points="1053.7447,-471.0875 1043.7255,-467.6427 1049.4097,-476.5837 1053.7447,-471.0875"/>
</g>
<!-- Node15&#45;&gt;Node21 -->
<g id="edge30" class="edge">
<title>Node15&#45;&gt;Node21</title>
<path fill="none" stroke="#191970" d="M1063.6635,-510.2823C965.992,-500.9326 709.1426,-476.3453 585.6791,-464.5266"/>
<polygon fill="#191970" stroke="#191970" points="585.8774,-461.0296 575.5893,-463.5607 585.2103,-467.9978 585.8774,-461.0296"/>
</g>
<!-- Node15&#45;&gt;Node22 -->
<g id="edge48" class="edge">
<title>Node15&#45;&gt;Node22</title>
<path fill="none" stroke="#191970" d="M1106.3624,-504.3228C1109.8038,-495.1446 1114.5833,-480.8807 1116.5,-468 1118.7761,-452.7038 1117.2774,-435.2504 1115.3436,-422.1351"/>
<polygon fill="#191970" stroke="#191970" points="1118.7301,-421.1683 1113.6162,-411.8894 1111.8275,-422.3322 1118.7301,-421.1683"/>
</g>
<!-- Node21&#45;&gt;Node4 -->
<g id="edge32" class="edge">
<title>Node21&#45;&gt;Node4</title>
<path fill="none" stroke="#191970" d="M522.8949,-448.3065C548.6485,-402.0326 659.266,-203.276 694.0132,-140.8425"/>
<polygon fill="#191970" stroke="#191970" points="697.2784,-142.1728 699.0832,-131.7328 691.1619,-138.7686 697.2784,-142.1728"/>
</g>
<!-- Node21&#45;&gt;Node7 -->
<g id="edge31" class="edge">
<title>Node21&#45;&gt;Node7</title>
<path fill="none" stroke="#191970" d="M459.2094,-452.903C373.4942,-444.9008 221.4947,-428.5843 202.5,-412 179.5062,-391.9242 183.5,-376.5246 183.5,-346 183.5,-346 183.5,-346 183.5,-122 183.5,-62.1498 258.2285,-32.3139 308.0062,-19.0788"/>
<polygon fill="#191970" stroke="#191970" points="309.0697,-22.4201 317.9065,-16.5753 307.3536,-15.6337 309.0697,-22.4201"/>
</g>
<!-- Node21&#45;&gt;Node11 -->
<g id="edge33" class="edge">
<title>Node21&#45;&gt;Node11</title>
<path fill="none" stroke="#191970" d="M516.394,-448.1456C515.4089,-438.8422 514.0422,-424.4936 513.5,-412 511.9364,-375.9694 515.0982,-333.9691 517.3971,-309.8319"/>
<polygon fill="#191970" stroke="#191970" points="520.8875,-310.102 518.4022,-299.8028 513.9224,-309.4039 520.8875,-310.102"/>
</g>
<!-- Node21&#45;&gt;Node22 -->
<g id="edge34" class="edge">
<title>Node21&#45;&gt;Node22</title>
<path fill="none" stroke="#191970" d="M575.5367,-452.5285C692.1929,-441.5306 953.2392,-416.9202 1062.2241,-406.6455"/>
<polygon fill="#191970" stroke="#191970" points="1062.6591,-410.1201 1072.2864,-405.6969 1062.002,-403.151 1062.6591,-410.1201"/>
</g>
<!-- Node22&#45;&gt;Node4 -->
<g id="edge40" class="edge">
<title>Node22&#45;&gt;Node4</title>
<path fill="none" stroke="#191970" d="M1108.038,-392.2732C1094.389,-355.5047 1040.4537,-224.2413 947.5,-168 915.7249,-148.7746 815.9306,-134.5269 754.5549,-127.3087"/>
<polygon fill="#191970" stroke="#191970" points="754.6445,-123.7959 744.3093,-126.1269 753.8423,-130.7498 754.6445,-123.7959"/>
</g>
<!-- Node22&#45;&gt;Node5 -->
<g id="edge37" class="edge">
<title>Node22&#45;&gt;Node5</title>
<path fill="none" stroke="#191970" d="M1112.8339,-392.1995C1116.9397,-361.8787 1129.6448,-266.8929 1138.5,-188 1142.5578,-151.8484 1146.5466,-109.5838 1148.7496,-85.4863"/>
<polygon fill="#191970" stroke="#191970" points="1152.2376,-85.7759 1149.655,-75.5007 1145.2662,-85.1437 1152.2376,-85.7759"/>
</g>
<!-- Node22&#45;&gt;Node10 -->
<g id="edge41" class="edge">
<title>Node22&#45;&gt;Node10</title>
<path fill="none" stroke="#191970" d="M1072.3428,-399.1071C945.9066,-389.7662 548.4774,-360.4047 405.4388,-349.8372"/>
<polygon fill="#191970" stroke="#191970" points="405.417,-346.3261 395.1863,-349.0797 404.9012,-353.3071 405.417,-346.3261"/>
</g>
<!-- Node22&#45;&gt;Node16 -->
<g id="edge36" class="edge">
<title>Node22&#45;&gt;Node16</title>
<path fill="none" stroke="#191970" d="M1072.2382,-392.5637C1029.8542,-382.377 962.6462,-366.224 919.5712,-355.8712"/>
<polygon fill="#191970" stroke="#191970" points="920.243,-352.433 909.7019,-353.4992 918.6071,-359.2392 920.243,-352.433"/>
</g>
<!-- Node22&#45;&gt;Node19 -->
<g id="edge39" class="edge">
<title>Node22&#45;&gt;Node19</title>
<path fill="none" stroke="#191970" d="M1135.223,-392.3733C1157.6737,-383.2629 1191.5739,-369.5062 1216.6255,-359.3404"/>
<polygon fill="#191970" stroke="#191970" points="1218.1365,-362.5045 1226.0865,-355.5011 1215.5043,-356.0182 1218.1365,-362.5045"/>
</g>
<!-- Node23 -->
<g id="node24" class="node">
<title>Node23</title>
<polygon fill="#ffffff" stroke="#bfbfbf" points="966,-336.5 966,-355.5 1017,-355.5 1017,-336.5 966,-336.5"/>
<text text-anchor="middle" x="991.5" y="-343.5" font-family="Helvetica,sans-Serif" font-size="10.00" fill="#000000">cassert</text>
</g>
<!-- Node22&#45;&gt;Node23 -->
<g id="edge35" class="edge">
<title>Node22&#45;&gt;Node23</title>
<path fill="none" stroke="#191970" d="M1090.8713,-392.3733C1071.6081,-383.3838 1042.6514,-369.8706 1020.9581,-359.7471"/>
<polygon fill="#191970" stroke="#191970" points="1022.4015,-356.5584 1011.8595,-355.5011 1019.4413,-362.9017 1022.4015,-356.5584"/>
</g>
<!-- Node24 -->
<g id="node25" class="node">
<title>Node24</title>
<polygon fill="#ffffff" stroke="#bfbfbf" points="1035.5,-336.5 1035.5,-355.5 1071.5,-355.5 1071.5,-336.5 1035.5,-336.5"/>
<text text-anchor="middle" x="1053.5" y="-343.5" font-family="Helvetica,sans-Serif" font-size="10.00" fill="#000000">new</text>
</g>
<!-- Node22&#45;&gt;Node24 -->
<g id="edge38" class="edge">
<title>Node22&#45;&gt;Node24</title>
<path fill="none" stroke="#191970" d="M1101.3972,-392.2455C1092.9972,-384.1352 1080.8506,-372.4075 1070.8916,-362.7919"/>
<polygon fill="#191970" stroke="#191970" points="1073.1122,-360.0707 1063.4871,-355.6427 1068.25,-365.1066 1073.1122,-360.0707"/>
</g>
<!-- Node22&#45;&gt;Node25 -->
<g id="edge42" class="edge">
<title>Node22&#45;&gt;Node25</title>
<path fill="none" stroke="#191970" d="M1120.4886,-392.4582C1128.8751,-383.3757 1141.5526,-369.1765 1151.5,-356 1193.5942,-300.2412 1236.899,-229.5527 1256.5805,-196.5491"/>
<polygon fill="#191970" stroke="#191970" points="1259.8122,-197.9613 1261.9027,-187.5747 1253.7913,-194.3907 1259.8122,-197.9613"/>
</g>
<!-- Node25&#45;&gt;Node4 -->
<g id="edge46" class="edge">
<title>Node25&#45;&gt;Node4</title>
<path fill="none" stroke="#191970" d="M1234.7973,-174.7472C1140.4658,-165.3643 867.4125,-138.2044 754.3913,-126.9625"/>
<polygon fill="#191970" stroke="#191970" points="754.5818,-123.4643 744.2844,-125.9572 753.8889,-130.4299 754.5818,-123.4643"/>
</g>
<!-- Node25&#45;&gt;Node7 -->
<g id="edge45" class="edge">
<title>Node25&#45;&gt;Node7</title>
<path fill="none" stroke="#191970" d="M1281.8625,-168.4338C1299.23,-155.6416 1324.6022,-132.2268 1311.5,-112 1278.4036,-60.9069 1245.6583,-70.3587 1186.5,-56 1034.251,-19.0467 545.2488,-11.7066 395.4997,-10.3129"/>
<polygon fill="#191970" stroke="#191970" points="395.344,-6.8114 385.3133,-10.2225 395.2818,-13.8112 395.344,-6.8114"/>
</g>
<!-- Node25&#45;&gt;Node14 -->
<g id="edge44" class="edge">
<title>Node25&#45;&gt;Node14</title>
<path fill="none" stroke="#191970" d="M1255.8295,-168.2455C1245.9339,-159.9746 1231.5373,-147.9416 1219.9099,-138.2232"/>
<polygon fill="#191970" stroke="#191970" points="1221.9542,-135.3703 1212.0368,-131.6427 1217.465,-140.7413 1221.9542,-135.3703"/>
</g>
<!-- Node26 -->
<g id="node27" class="node">
<title>Node26</title>
<polygon fill="#ffffff" stroke="#bfbfbf" points="1240.5,-112.5 1240.5,-131.5 1302.5,-131.5 1302.5,-112.5 1240.5,-112.5"/>
<text text-anchor="middle" x="1271.5" y="-119.5" font-family="Helvetica,sans-Serif" font-size="10.00" fill="#000000">exception</text>
</g>
<!-- Node25&#45;&gt;Node26 -->
<g id="edge43" class="edge">
<title>Node25&#45;&gt;Node26</title>
<path fill="none" stroke="#191970" d="M1268.1967,-168.2455C1268.7187,-160.9382 1269.4504,-150.6944 1270.0925,-141.7046"/>
<polygon fill="#191970" stroke="#191970" points="1273.5898,-141.8667 1270.8112,-131.6427 1266.6076,-141.3679 1273.5898,-141.8667"/>
</g>
<!-- Node27&#45;&gt;Node4 -->
<g id="edge57" class="edge">
<title>Node27&#45;&gt;Node4</title>
<path fill="none" stroke="#191970" d="M680.9157,-280.4862C684.8677,-253.9293 696.0826,-178.5651 701.4992,-142.1655"/>
<polygon fill="#191970" stroke="#191970" points="705.0274,-142.2342 703.0375,-131.8279 698.1037,-141.2038 705.0274,-142.2342"/>
</g>
<!-- Node27&#45;&gt;Node12 -->
<g id="edge56" class="edge">
<title>Node27&#45;&gt;Node12</title>
<path fill="none" stroke="#191970" d="M690.6479,-280.2455C700.0087,-272.0549 713.5858,-260.1749 724.6349,-250.5069"/>
<polygon fill="#191970" stroke="#191970" points="727.2588,-252.8618 732.4798,-243.6427 722.6492,-247.5937 727.2588,-252.8618"/>
</g>
<!-- Node28&#45;&gt;Node4 -->
<g id="edge61" class="edge">
<title>Node28&#45;&gt;Node4</title>
<path fill="none" stroke="#191970" d="M270.9298,-392.4139C271.7594,-373.0603 273.5,-327.9303 273.5,-290 273.5,-290 273.5,-290 273.5,-234 273.5,-156.0301 541.0609,-131.397 654.5587,-124.4553"/>
<polygon fill="#191970" stroke="#191970" points="654.9485,-127.9385 664.7251,-123.8558 654.5364,-120.9506 654.9485,-127.9385"/>
</g>
<!-- Node28&#45;&gt;Node10 -->
<g id="edge62" class="edge">
<title>Node28&#45;&gt;Node10</title>
<path fill="none" stroke="#191970" d="M284.9575,-392.2455C297.5732,-383.7337 316.0944,-371.2375 330.7045,-361.3801"/>
<polygon fill="#191970" stroke="#191970" points="332.8761,-364.1371 339.2082,-355.6427 328.9609,-358.3343 332.8761,-364.1371"/>
</g>
<!-- Node28&#45;&gt;Node16 -->
<g id="edge60" class="edge">
<title>Node28&#45;&gt;Node16</title>
<path fill="none" stroke="#191970" d="M329.8101,-393.0603C332.7463,-392.6861 335.6553,-392.33 338.5,-392 524.1498,-370.4623 746.8083,-354.6533 837.2735,-348.6498"/>
<polygon fill="#191970" stroke="#191970" points="837.6389,-352.1334 847.3869,-347.983 837.1783,-345.1485 837.6389,-352.1334"/>
</g>
<!-- Node29&#45;&gt;Node4 -->
<g id="edge66" class="edge">
<title>Node29&#45;&gt;Node4</title>
<path fill="none" stroke="#191970" d="M700.7671,-448.4274C679.1206,-436.5205 649.0019,-414.9446 661.5,-392 701.4821,-318.599 819.5,-373.5839 819.5,-290 819.5,-290 819.5,-290 819.5,-234 819.5,-187.2547 770.1324,-153.6844 736.0883,-136.0917"/>
<polygon fill="#191970" stroke="#191970" points="737.4598,-132.8651 726.9462,-131.5557 734.3485,-139.1357 737.4598,-132.8651"/>
</g>
<!-- Node29&#45;&gt;Node22 -->
<g id="edge67" class="edge">
<title>Node29&#45;&gt;Node22</title>
<path fill="none" stroke="#191970" d="M770.816,-450.7936C846.1647,-440.002 987.4305,-419.7695 1062.1885,-409.0625"/>
<polygon fill="#191970" stroke="#191970" points="1062.8793,-412.4994 1072.282,-407.6169 1061.8868,-405.5701 1062.8793,-412.4994"/>
</g>
<!-- Node30 -->
<g id="node31" class="node">
<title>Node30</title>
<polygon fill="#ffffff" stroke="#bfbfbf" points="789,-392.5 789,-411.5 902,-411.5 902,-392.5 789,-392.5"/>
<text text-anchor="middle" x="845.5" y="-399.5" font-family="Helvetica,sans-Serif" font-size="10.00" fill="#000000">pybind11/pybind11.h</text>
</g>
<!-- Node29&#45;&gt;Node30 -->
<g id="edge64" class="edge">
<title>Node29&#45;&gt;Node30</title>
<path fill="none" stroke="#191970" d="M741.9883,-448.3733C762.144,-439.3435 792.488,-425.7494 815.118,-415.6111"/>
<polygon fill="#191970" stroke="#191970" points="816.5971,-418.7838 824.2921,-411.5011 813.7351,-412.3955 816.5971,-418.7838"/>
</g>
<!-- Node31 -->
<g id="node32" class="node">
<title>Node31</title>
<polygon fill="#ffffff" stroke="#bfbfbf" points="670,-392.5 670,-411.5 771,-411.5 771,-392.5 670,-392.5"/>
<text text-anchor="middle" x="720.5" y="-399.5" font-family="Helvetica,sans-Serif" font-size="10.00" fill="#000000">pybind11/numpy.h</text>
</g>
<!-- Node29&#45;&gt;Node31 -->
<g id="edge65" class="edge">
<title>Node29&#45;&gt;Node31</title>
<path fill="none" stroke="#191970" d="M720.5,-448.2455C720.5,-440.9382 720.5,-430.6944 720.5,-421.7046"/>
<polygon fill="#191970" stroke="#191970" points="724.0001,-421.6426 720.5,-411.6427 717.0001,-421.6427 724.0001,-421.6426"/>
</g>
</g>
</svg>
