<?xml version="1.0" encoding="UTF-8" standalone="no"?>
<!DOCTYPE svg PUBLIC "-//W3C//DTD SVG 1.1//EN"
 "http://www.w3.org/Graphics/SVG/1.1/DTD/svg11.dtd">
<!-- Generated by graphviz version 2.40.1 (20161225.0304)
 -->
<!-- Title: /home/jbigot/data/projects/pdi/pdi/include/pdi/python/tools.h Pages: 1 -->
<svg width="798pt" height="498pt"
 viewBox="0.00 0.00 798.47 498.00" xmlns="http://www.w3.org/2000/svg" xmlns:xlink="http://www.w3.org/1999/xlink">
<g id="graph0" class="graph" transform="scale(1 1) rotate(0) translate(4 494)">
<title>/home/jbigot/data/projects/pdi/pdi/include/pdi/python/tools.h</title>
<polygon fill="#ffffff" stroke="transparent" points="-4,4 -4,-494 794.4715,-494 794.4715,4 -4,4"/>
<!-- Node0 -->
<g id="node1" class="node">
<title>Node0</title>
<polygon fill="#bfbfbf" stroke="#000000" points="150.5,-448.5 150.5,-489.5 290.5,-489.5 290.5,-448.5 150.5,-448.5"/>
<text text-anchor="start" x="158.5" y="-477.5" font-family="Helvetica,sans-Serif" font-size="10.00" fill="#000000">/home/jbigot/data/projects</text>
<text text-anchor="start" x="158.5" y="-466.5" font-family="Helvetica,sans-Serif" font-size="10.00" fill="#000000">/pdi/pdi/include/pdi/python</text>
<text text-anchor="middle" x="220.5" y="-455.5" font-family="Helvetica,sans-Serif" font-size="10.00" fill="#000000">/tools.h</text>
</g>
<!-- Node1 -->
<g id="node2" class="node">
<title>Node1</title>
<polygon fill="#ffffff" stroke="#bfbfbf" points="0,-392.5 0,-411.5 113,-411.5 113,-392.5 0,-392.5"/>
<text text-anchor="middle" x="56.5" y="-399.5" font-family="Helvetica,sans-Serif" font-size="10.00" fill="#000000">pybind11/pybind11.h</text>
</g>
<!-- Node0&#45;&gt;Node1 -->
<g id="edge1" class="edge">
<title>Node0&#45;&gt;Node1</title>
<path fill="none" stroke="#191970" d="M169.9564,-448.3511C143.7688,-437.6525 112.536,-424.8928 89.4761,-415.472"/>
<polygon fill="#191970" stroke="#191970" points="90.7132,-412.1966 80.1322,-411.6546 88.0658,-418.6767 90.7132,-412.1966"/>
</g>
<!-- Node2 -->
<g id="node3" class="node">
<title>Node2</title>
<polygon fill="#ffffff" stroke="#bfbfbf" points="131,-392.5 131,-411.5 232,-411.5 232,-392.5 131,-392.5"/>
<text text-anchor="middle" x="181.5" y="-399.5" font-family="Helvetica,sans-Serif" font-size="10.00" fill="#000000">pybind11/numpy.h</text>
</g>
<!-- Node0&#45;&gt;Node2 -->
<g id="edge2" class="edge">
<title>Node0&#45;&gt;Node2</title>
<path fill="none" stroke="#191970" d="M208.3739,-448.168C203.2401,-439.3484 197.3066,-429.155 192.323,-420.5933"/>
<polygon fill="#191970" stroke="#191970" points="195.2487,-418.6622 187.1931,-411.7805 189.199,-422.1837 195.2487,-418.6622"/>
</g>
<!-- Node3 -->
<g id="node4" class="node">
<title>Node3</title>
<g id="a_node4"><a xlink:href="pdi__fwd_8h.html" target="_top" xlink:title="pdi/pdi_fwd.h">
<polygon fill="#ffffff" stroke="#000000" points="373,-112.5 373,-131.5 452,-131.5 452,-112.5 373,-112.5"/>
<text text-anchor="middle" x="412.5" y="-119.5" font-family="Helvetica,sans-Serif" font-size="10.00" fill="#000000">pdi/pdi_fwd.h</text>
</a>
</g>
</g>
<!-- Node0&#45;&gt;Node3 -->
<g id="edge3" class="edge">
<title>Node0&#45;&gt;Node3</title>
<path fill="none" stroke="#191970" d="M231.6422,-448.3349C243.4779,-424.417 260.5,-383.4998 260.5,-346 260.5,-346 260.5,-346 260.5,-234 260.5,-180.8635 321.4479,-150.1127 366.1564,-134.7035"/>
<polygon fill="#191970" stroke="#191970" points="367.3031,-138.0108 375.705,-131.5566 365.112,-131.3626 367.3031,-138.0108"/>
</g>
<!-- Node9 -->
<g id="node10" class="node">
<title>Node9</title>
<g id="a_node10"><a xlink:href="ref__any_8h.html" target="_top" xlink:title="pdi/ref_any.h">
<polygon fill="#ffffff" stroke="#000000" points="489.5,-392.5 489.5,-411.5 567.5,-411.5 567.5,-392.5 489.5,-392.5"/>
<text text-anchor="middle" x="528.5" y="-399.5" font-family="Helvetica,sans-Serif" font-size="10.00" fill="#000000">pdi/ref_any.h</text>
</a>
</g>
</g>
<!-- Node0&#45;&gt;Node9 -->
<g id="edge9" class="edge">
<title>Node0&#45;&gt;Node9</title>
<path fill="none" stroke="#191970" d="M290.7754,-453.7128C348.3666,-441.1849 428.4023,-423.7745 479.3274,-412.6966"/>
<polygon fill="#191970" stroke="#191970" points="480.0815,-416.1145 489.109,-410.5688 478.5935,-409.2745 480.0815,-416.1145"/>
</g>
<!-- Node4 -->
<g id="node5" class="node">
<title>Node4</title>
<polygon fill="#ffffff" stroke="#bfbfbf" points="450.5,-56.5 450.5,-75.5 504.5,-75.5 504.5,-56.5 450.5,-56.5"/>
<text text-anchor="middle" x="477.5" y="-63.5" font-family="Helvetica,sans-Serif" font-size="10.00" fill="#000000">memory</text>
</g>
<!-- Node3&#45;&gt;Node4 -->
<g id="edge4" class="edge">
<title>Node3&#45;&gt;Node4</title>
<path fill="none" stroke="#191970" d="M423.8221,-112.2455C433.4223,-103.9746 447.3892,-91.9416 458.6695,-82.2232"/>
<polygon fill="#191970" stroke="#191970" points="461.016,-84.8214 466.3076,-75.6427 456.447,-79.5182 461.016,-84.8214"/>
</g>
<!-- Node5 -->
<g id="node6" class="node">
<title>Node5</title>
<g id="a_node6"><a xlink:href="pdi_8h.html" target="_top" xlink:title="pdi.h">
<polygon fill="#ffffff" stroke="#000000" points="393,-56.5 393,-75.5 432,-75.5 432,-56.5 393,-56.5"/>
<text text-anchor="middle" x="412.5" y="-63.5" font-family="Helvetica,sans-Serif" font-size="10.00" fill="#000000">pdi.h</text>
</a>
</g>
</g>
<!-- Node3&#45;&gt;Node5 -->
<g id="edge5" class="edge">
<title>Node3&#45;&gt;Node5</title>
<path fill="none" stroke="#191970" d="M412.5,-112.2455C412.5,-104.9382 412.5,-94.6944 412.5,-85.7046"/>
<polygon fill="#191970" stroke="#191970" points="416.0001,-85.6426 412.5,-75.6427 409.0001,-85.6427 416.0001,-85.6426"/>
</g>
<!-- Node6 -->
<g id="node7" class="node">
<title>Node6</title>
<polygon fill="#ffffff" stroke="#bfbfbf" points="520,-.5 520,-19.5 587,-19.5 587,-.5 520,-.5"/>
<text text-anchor="middle" x="553.5" y="-7.5" font-family="Helvetica,sans-Serif" font-size="10.00" fill="#000000">paraconf.h</text>
</g>
<!-- Node5&#45;&gt;Node6 -->
<g id="edge6" class="edge">
<title>Node5&#45;&gt;Node6</title>
<path fill="none" stroke="#191970" d="M432.1054,-58.2134C454.7496,-49.22 492.3934,-34.2693 519.7676,-23.3973"/>
<polygon fill="#191970" stroke="#191970" points="521.3395,-26.539 529.3414,-19.5949 518.7556,-20.0333 521.3395,-26.539"/>
</g>
<!-- Node7 -->
<g id="node8" class="node">
<title>Node7</title>
<polygon fill="#ffffff" stroke="#bfbfbf" points="394.5,-.5 394.5,-19.5 466.5,-19.5 466.5,-.5 394.5,-.5"/>
<text text-anchor="middle" x="430.5" y="-7.5" font-family="Helvetica,sans-Serif" font-size="10.00" fill="#000000">pdi/export.h</text>
</g>
<!-- Node5&#45;&gt;Node7 -->
<g id="edge7" class="edge">
<title>Node5&#45;&gt;Node7</title>
<path fill="none" stroke="#191970" d="M415.6354,-56.2455C418.01,-48.8579 421.3493,-38.4689 424.2615,-29.4087"/>
<polygon fill="#191970" stroke="#191970" points="427.6725,-30.234 427.4006,-19.6427 421.0083,-28.0919 427.6725,-30.234"/>
</g>
<!-- Node8 -->
<g id="node9" class="node">
<title>Node8</title>
<polygon fill="#ffffff" stroke="#bfbfbf" points="299,-.5 299,-19.5 376,-19.5 376,-.5 299,-.5"/>
<text text-anchor="middle" x="337.5" y="-7.5" font-family="Helvetica,sans-Serif" font-size="10.00" fill="#000000">pdi/version.h</text>
</g>
<!-- Node5&#45;&gt;Node8 -->
<g id="edge8" class="edge">
<title>Node5&#45;&gt;Node8</title>
<path fill="none" stroke="#191970" d="M399.436,-56.2455C388.1438,-47.814 371.6155,-35.4729 358.4729,-25.6598"/>
<polygon fill="#191970" stroke="#191970" points="360.5211,-22.8211 350.4143,-19.6427 356.3331,-28.4301 360.5211,-22.8211"/>
</g>
<!-- Node9&#45;&gt;Node3 -->
<g id="edge15" class="edge">
<title>Node9&#45;&gt;Node3</title>
<path fill="none" stroke="#191970" d="M489.3638,-398.2437C435.3936,-392.2871 341.9934,-378.936 317.5,-356 295.2191,-335.1358 298.5,-320.5246 298.5,-290 298.5,-290 298.5,-290 298.5,-234 298.5,-187.4628 347.4383,-153.828 381.1864,-136.1659"/>
<polygon fill="#191970" stroke="#191970" points="382.8862,-139.2289 390.249,-131.6105 379.7424,-132.9746 382.8862,-139.2289"/>
</g>
<!-- Node9&#45;&gt;Node4 -->
<g id="edge12" class="edge">
<title>Node9&#45;&gt;Node4</title>
<path fill="none" stroke="#191970" d="M567.7036,-397.8106C623.5847,-391.1961 722.5869,-376.9003 751.5,-356 778.9314,-336.1708 789.5,-323.8479 789.5,-290 789.5,-290 789.5,-290 789.5,-178 789.5,-147.4754 793.3859,-132.1988 770.5,-112 733.2287,-79.1048 585.4957,-69.6629 515.1357,-67.0089"/>
<polygon fill="#191970" stroke="#191970" points="515.0535,-63.504 504.937,-66.6516 514.8083,-70.4997 515.0535,-63.504"/>
</g>
<!-- Node10 -->
<g id="node11" class="node">
<title>Node10</title>
<polygon fill="#ffffff" stroke="#bfbfbf" points="428,-336.5 428,-355.5 479,-355.5 479,-336.5 428,-336.5"/>
<text text-anchor="middle" x="453.5" y="-343.5" font-family="Helvetica,sans-Serif" font-size="10.00" fill="#000000">cassert</text>
</g>
<!-- Node9&#45;&gt;Node10 -->
<g id="edge10" class="edge">
<title>Node9&#45;&gt;Node10</title>
<path fill="none" stroke="#191970" d="M515.436,-392.2455C504.1438,-383.814 487.6155,-371.4729 474.4729,-361.6598"/>
<polygon fill="#191970" stroke="#191970" points="476.5211,-358.8211 466.4143,-355.6427 472.3331,-364.4301 476.5211,-358.8211"/>
</g>
<!-- Node11 -->
<g id="node12" class="node">
<title>Node11</title>
<polygon fill="#ffffff" stroke="#bfbfbf" points="497.5,-336.5 497.5,-355.5 559.5,-355.5 559.5,-336.5 497.5,-336.5"/>
<text text-anchor="middle" x="528.5" y="-343.5" font-family="Helvetica,sans-Serif" font-size="10.00" fill="#000000">functional</text>
</g>
<!-- Node9&#45;&gt;Node11 -->
<g id="edge11" class="edge">
<title>Node9&#45;&gt;Node11</title>
<path fill="none" stroke="#191970" d="M528.5,-392.2455C528.5,-384.9382 528.5,-374.6944 528.5,-365.7046"/>
<polygon fill="#191970" stroke="#191970" points="532.0001,-365.6426 528.5,-355.6427 525.0001,-365.6427 532.0001,-365.6426"/>
</g>
<!-- Node12 -->
<g id="node13" class="node">
<title>Node12</title>
<polygon fill="#ffffff" stroke="#bfbfbf" points="577.5,-336.5 577.5,-355.5 613.5,-355.5 613.5,-336.5 577.5,-336.5"/>
<text text-anchor="middle" x="595.5" y="-343.5" font-family="Helvetica,sans-Serif" font-size="10.00" fill="#000000">new</text>
</g>
<!-- Node9&#45;&gt;Node12 -->
<g id="edge13" class="edge">
<title>Node9&#45;&gt;Node12</title>
<path fill="none" stroke="#191970" d="M540.1705,-392.2455C550.0661,-383.9746 564.4627,-371.9416 576.0901,-362.2232"/>
<polygon fill="#191970" stroke="#191970" points="578.535,-364.7413 583.9632,-355.6427 574.0458,-359.3703 578.535,-364.7413"/>
</g>
<!-- Node13 -->
<g id="node14" class="node">
<title>Node13</title>
<polygon fill="#ffffff" stroke="#bfbfbf" points="631.5,-336.5 631.5,-355.5 723.5,-355.5 723.5,-336.5 631.5,-336.5"/>
<text text-anchor="middle" x="677.5" y="-343.5" font-family="Helvetica,sans-Serif" font-size="10.00" fill="#000000">unordered_map</text>
</g>
<!-- Node9&#45;&gt;Node13 -->
<g id="edge14" class="edge">
<title>Node9&#45;&gt;Node13</title>
<path fill="none" stroke="#191970" d="M554.114,-392.3733C578.5687,-383.1822 615.6054,-369.2624 642.7209,-359.0713"/>
<polygon fill="#191970" stroke="#191970" points="644.0909,-362.2956 652.2202,-355.5011 641.6281,-355.7431 644.0909,-362.2956"/>
</g>
<!-- Node14 -->
<g id="node15" class="node">
<title>Node14</title>
<g id="a_node15"><a xlink:href="datatype_8h.html" target="_top" xlink:title="pdi/datatype.h">
<polygon fill="#ffffff" stroke="#000000" points="327,-336.5 327,-355.5 410,-355.5 410,-336.5 327,-336.5"/>
<text text-anchor="middle" x="368.5" y="-343.5" font-family="Helvetica,sans-Serif" font-size="10.00" fill="#000000">pdi/datatype.h</text>
</a>
</g>
</g>
<!-- Node9&#45;&gt;Node14 -->
<g id="edge16" class="edge">
<title>Node9&#45;&gt;Node14</title>
<path fill="none" stroke="#191970" d="M500.995,-392.3733C474.6198,-383.1419 434.6149,-369.1402 405.4642,-358.9375"/>
<polygon fill="#191970" stroke="#191970" points="406.2409,-355.5012 395.6461,-355.5011 403.9284,-362.1082 406.2409,-355.5012"/>
</g>
<!-- Node19 -->
<g id="node20" class="node">
<title>Node19</title>
<g id="a_node20"><a xlink:href="error_8h.html" target="_top" xlink:title="pdi/error.h">
<polygon fill="#ffffff" stroke="#000000" points="639,-168.5 639,-187.5 704,-187.5 704,-168.5 639,-168.5"/>
<text text-anchor="middle" x="671.5" y="-175.5" font-family="Helvetica,sans-Serif" font-size="10.00" fill="#000000">pdi/error.h</text>
</a>
</g>
</g>
<!-- Node9&#45;&gt;Node19 -->
<g id="edge27" class="edge">
<title>Node9&#45;&gt;Node19</title>
<path fill="none" stroke="#191970" d="M567.7049,-398.8632C621.0671,-393.687 712.2639,-381.3072 732.5,-356 772.1831,-306.3724 716.3441,-229.3956 687.233,-195.2828"/>
<polygon fill="#191970" stroke="#191970" points="689.7042,-192.7921 680.4821,-187.5763 684.4387,-197.4046 689.7042,-192.7921"/>
</g>
<!-- Node14&#45;&gt;Node3 -->
<g id="edge17" class="edge">
<title>Node14&#45;&gt;Node3</title>
<path fill="none" stroke="#191970" d="M365.8599,-336.1648C362.7316,-323.2727 358.2144,-299.953 360.5,-280 366.3156,-229.2305 367.9601,-215.6196 386.5,-168 390.1839,-158.5379 395.5428,-148.6586 400.4395,-140.4917"/>
<polygon fill="#191970" stroke="#191970" points="403.5262,-142.1563 405.8475,-131.8188 397.5864,-138.4524 403.5262,-142.1563"/>
</g>
<!-- Node15 -->
<g id="node16" class="node">
<title>Node15</title>
<g id="a_node16"><a xlink:href="datatype__template_8h.html" target="_top" xlink:title="pdi/datatype_template.h">
<polygon fill="#ffffff" stroke="#000000" points="369.5,-280.5 369.5,-299.5 499.5,-299.5 499.5,-280.5 369.5,-280.5"/>
<text text-anchor="middle" x="434.5" y="-287.5" font-family="Helvetica,sans-Serif" font-size="10.00" fill="#000000">pdi/datatype_template.h</text>
</a>
</g>
</g>
<!-- Node14&#45;&gt;Node15 -->
<g id="edge18" class="edge">
<title>Node14&#45;&gt;Node15</title>
<path fill="none" stroke="#191970" d="M379.9963,-336.2455C389.7442,-327.9746 403.9259,-315.9416 415.3798,-306.2232"/>
<polygon fill="#191970" stroke="#191970" points="417.7747,-308.7813 423.1354,-299.6427 413.2459,-303.4437 417.7747,-308.7813"/>
</g>
<!-- Node15&#45;&gt;Node3 -->
<g id="edge20" class="edge">
<title>Node15&#45;&gt;Node3</title>
<path fill="none" stroke="#191970" d="M421.7752,-280.2466C411.9593,-271.8582 399.1367,-258.7955 393.5,-244 380.2118,-209.1203 393.7904,-165.2473 403.8351,-140.7517"/>
<polygon fill="#191970" stroke="#191970" points="407.0697,-142.0899 407.835,-131.5227 400.6469,-139.3062 407.0697,-142.0899"/>
</g>
<!-- Node15&#45;&gt;Node6 -->
<g id="edge19" class="edge">
<title>Node15&#45;&gt;Node6</title>
<path fill="none" stroke="#191970" d="M460.3505,-280.4954C494.6236,-266.3171 553.6622,-236.0311 578.5,-188 605.7797,-135.247 578.6831,-62.5553 562.9815,-28.7243"/>
<polygon fill="#191970" stroke="#191970" points="566.0463,-27.0221 558.5472,-19.5378 559.7423,-30.065 566.0463,-27.0221"/>
</g>
<!-- Node16 -->
<g id="node17" class="node">
<title>Node16</title>
<g id="a_node17"><a xlink:href="logger_8h.html" target="_top" xlink:title="pdi/logger.h">
<polygon fill="#ffffff" stroke="#000000" points="402.5,-224.5 402.5,-243.5 474.5,-243.5 474.5,-224.5 402.5,-224.5"/>
<text text-anchor="middle" x="438.5" y="-231.5" font-family="Helvetica,sans-Serif" font-size="10.00" fill="#000000">pdi/logger.h</text>
</a>
</g>
</g>
<!-- Node15&#45;&gt;Node16 -->
<g id="edge21" class="edge">
<title>Node15&#45;&gt;Node16</title>
<path fill="none" stroke="#191970" d="M435.1967,-280.2455C435.7187,-272.9382 436.4504,-262.6944 437.0925,-253.7046"/>
<polygon fill="#191970" stroke="#191970" points="440.5898,-253.8667 437.8112,-243.6427 433.6076,-253.3679 440.5898,-253.8667"/>
</g>
<!-- Node16&#45;&gt;Node3 -->
<g id="edge22" class="edge">
<title>Node16&#45;&gt;Node3</title>
<path fill="none" stroke="#191970" d="M436.2833,-224.4509C432.0235,-206.1013 422.6193,-165.5908 416.9965,-141.3693"/>
<polygon fill="#191970" stroke="#191970" points="420.3818,-140.4744 414.7111,-131.5249 413.5632,-142.0573 420.3818,-140.4744"/>
</g>
<!-- Node17 -->
<g id="node18" class="node">
<title>Node17</title>
<g id="a_node18"><a xlink:href="paraconf__wrapper_8h.html" target="_top" xlink:title="pdi/paraconf_wrapper.h">
<polygon fill="#ffffff" stroke="#000000" points="441,-168.5 441,-187.5 570,-187.5 570,-168.5 441,-168.5"/>
<text text-anchor="middle" x="505.5" y="-175.5" font-family="Helvetica,sans-Serif" font-size="10.00" fill="#000000">pdi/paraconf_wrapper.h</text>
</a>
</g>
</g>
<!-- Node16&#45;&gt;Node17 -->
<g id="edge23" class="edge">
<title>Node16&#45;&gt;Node17</title>
<path fill="none" stroke="#191970" d="M450.1705,-224.2455C460.0661,-215.9746 474.4627,-203.9416 486.0901,-194.2232"/>
<polygon fill="#191970" stroke="#191970" points="488.535,-196.7413 493.9632,-187.6427 484.0458,-191.3703 488.535,-196.7413"/>
</g>
<!-- Node17&#45;&gt;Node3 -->
<g id="edge26" class="edge">
<title>Node17&#45;&gt;Node3</title>
<path fill="none" stroke="#191970" d="M489.3006,-168.2455C474.8982,-159.5731 453.6268,-146.7645 437.1201,-136.825"/>
<polygon fill="#191970" stroke="#191970" points="438.886,-133.8028 428.5137,-131.6427 435.275,-139.7996 438.886,-133.8028"/>
</g>
<!-- Node17&#45;&gt;Node6 -->
<g id="edge25" class="edge">
<title>Node17&#45;&gt;Node6</title>
<path fill="none" stroke="#191970" d="M508.2182,-168.4862C515.8387,-141.8144 537.5252,-65.9117 547.8729,-29.695"/>
<polygon fill="#191970" stroke="#191970" points="551.3101,-30.4047 550.692,-19.8279 544.5794,-28.4816 551.3101,-30.4047"/>
</g>
<!-- Node18 -->
<g id="node19" class="node">
<title>Node18</title>
<polygon fill="#ffffff" stroke="#bfbfbf" points="600,-112.5 600,-131.5 643,-131.5 643,-112.5 600,-112.5"/>
<text text-anchor="middle" x="621.5" y="-119.5" font-family="Helvetica,sans-Serif" font-size="10.00" fill="#000000">string</text>
</g>
<!-- Node17&#45;&gt;Node18 -->
<g id="edge24" class="edge">
<title>Node17&#45;&gt;Node18</title>
<path fill="none" stroke="#191970" d="M525.4411,-168.3733C543.9786,-159.4241 571.8028,-145.9917 592.7413,-135.8835"/>
<polygon fill="#191970" stroke="#191970" points="594.3352,-139.0006 601.8191,-131.5011 591.2919,-132.6967 594.3352,-139.0006"/>
</g>
<!-- Node19&#45;&gt;Node3 -->
<g id="edge31" class="edge">
<title>Node19&#45;&gt;Node3</title>
<path fill="none" stroke="#191970" d="M638.9597,-170.9643C594.5069,-161.3528 514.3889,-144.03 462.3417,-132.7766"/>
<polygon fill="#191970" stroke="#191970" points="462.8393,-129.3034 452.3254,-130.6109 461.3599,-136.1453 462.8393,-129.3034"/>
</g>
<!-- Node19&#45;&gt;Node6 -->
<g id="edge30" class="edge">
<title>Node19&#45;&gt;Node6</title>
<path fill="none" stroke="#191970" d="M670.2479,-168.4662C668.1725,-155.0975 663.1449,-130.3617 652.5,-112 631.9767,-76.599 596.5055,-44.2646 574.0609,-25.8765"/>
<polygon fill="#191970" stroke="#191970" points="576.1454,-23.0617 566.1549,-19.5346 571.7653,-28.522 576.1454,-23.0617"/>
</g>
<!-- Node19&#45;&gt;Node18 -->
<g id="edge29" class="edge">
<title>Node19&#45;&gt;Node18</title>
<path fill="none" stroke="#191970" d="M662.7907,-168.2455C655.6927,-160.2958 645.4916,-148.8706 637.005,-139.3656"/>
<polygon fill="#191970" stroke="#191970" points="639.3805,-136.771 630.1095,-131.6427 634.1589,-141.4331 639.3805,-136.771"/>
</g>
<!-- Node20 -->
<g id="node21" class="node">
<title>Node20</title>
<polygon fill="#ffffff" stroke="#bfbfbf" points="699.5,-112.5 699.5,-131.5 761.5,-131.5 761.5,-112.5 699.5,-112.5"/>
<text text-anchor="middle" x="730.5" y="-119.5" font-family="Helvetica,sans-Serif" font-size="10.00" fill="#000000">exception</text>
</g>
<!-- Node19&#45;&gt;Node20 -->
<g id="edge28" class="edge">
<title>Node19&#45;&gt;Node20</title>
<path fill="none" stroke="#191970" d="M681.777,-168.2455C690.3218,-160.1352 702.6778,-148.4075 712.8085,-138.7919"/>
<polygon fill="#191970" stroke="#191970" points="715.4972,-141.0655 720.3408,-131.6427 710.6782,-135.9884 715.4972,-141.0655"/>
</g>
</g>
</svg>
