<?xml version="1.0" encoding="UTF-8" standalone="no"?>
<!DOCTYPE svg PUBLIC "-//W3C//DTD SVG 1.1//EN"
 "http://www.w3.org/Graphics/SVG/1.1/DTD/svg11.dtd">
<!-- Generated by graphviz version 2.40.1 (20161225.0304)
 -->
<!-- Title: /home/jbigot/data/projects/pdi/pdi/include/pdi/python/tools.h Pages: 1 -->
<svg width="312pt" height="117pt"
 viewBox="0.00 0.00 312.00 117.00" xmlns="http://www.w3.org/2000/svg" xmlns:xlink="http://www.w3.org/1999/xlink">
<g id="graph0" class="graph" transform="scale(1 1) rotate(0) translate(4 113)">
<title>/home/jbigot/data/projects/pdi/pdi/include/pdi/python/tools.h</title>
<polygon fill="#ffffff" stroke="transparent" points="-4,4 -4,-113 308,-113 308,4 -4,4"/>
<!-- Node21 -->
<g id="node1" class="node">
<title>Node21</title>
<polygon fill="#bfbfbf" stroke="#000000" points="79.5,-67.5 79.5,-108.5 219.5,-108.5 219.5,-67.5 79.5,-67.5"/>
<text text-anchor="start" x="87.5" y="-96.5" font-family="Helvetica,sans-Serif" font-size="10.00" fill="#000000">/home/jbigot/data/projects</text>
<text text-anchor="start" x="87.5" y="-85.5" font-family="Helvetica,sans-Serif" font-size="10.00" fill="#000000">/pdi/pdi/include/pdi/python</text>
<text text-anchor="middle" x="149.5" y="-74.5" font-family="Helvetica,sans-Serif" font-size="10.00" fill="#000000">/tools.h</text>
</g>
<!-- Node22 -->
<g id="node2" class="node">
<title>Node22</title>
<g id="a_node2"><a xlink:href="python_2pdi_8cxx.html" target="_top" xlink:title="/home/jbigot/data/projects\l/pdi/pdi/src/python/pdi.cxx">
<polygon fill="#ffffff" stroke="#000000" points="0,-.5 0,-30.5 139,-30.5 139,-.5 0,-.5"/>
<text text-anchor="start" x="8" y="-18.5" font-family="Helvetica,sans-Serif" font-size="10.00" fill="#000000">/home/jbigot/data/projects</text>
<text text-anchor="middle" x="69.5" y="-7.5" font-family="Helvetica,sans-Serif" font-size="10.00" fill="#000000">/pdi/pdi/src/python/pdi.cxx</text>
</a>
</g>
</g>
<!-- Node21&#45;&gt;Node22 -->
<g id="edge1" class="edge">
<title>Node21&#45;&gt;Node22</title>
<path fill="none" stroke="#191970" d="M119.2456,-60.582C108.0302,-50.418 95.7264,-39.2677 86.1611,-30.5991"/>
<polygon fill="#191970" stroke="#191970" points="117.029,-63.2966 126.7892,-67.4183 121.7296,-58.1096 117.029,-63.2966"/>
</g>
<!-- Node23 -->
<g id="node3" class="node">
<title>Node23</title>
<g id="a_node3"><a xlink:href="tools_8cxx.html" target="_top" xlink:title="/home/jbigot/data/projects\l/pdi/pdi/src/python/tools.cxx">
<polygon fill="#ffffff" stroke="#000000" points="157,-.5 157,-30.5 304,-30.5 304,-.5 157,-.5"/>
<text text-anchor="start" x="165" y="-18.5" font-family="Helvetica,sans-Serif" font-size="10.00" fill="#000000">/home/jbigot/data/projects</text>
<text text-anchor="middle" x="230.5" y="-7.5" font-family="Helvetica,sans-Serif" font-size="10.00" fill="#000000">/pdi/pdi/src/python/tools.cxx</text>
</a>
</g>
</g>
<!-- Node21&#45;&gt;Node23 -->
<g id="edge2" class="edge">
<title>Node21&#45;&gt;Node23</title>
<path fill="none" stroke="#191970" d="M180.1325,-60.582C191.4881,-50.418 203.9458,-39.2677 213.6307,-30.5991"/>
<polygon fill="#191970" stroke="#191970" points="177.6117,-58.1411 172.4947,-67.4183 182.2802,-63.3569 177.6117,-58.1411"/>
</g>
</g>
</svg>
