<?xml version="1.0" encoding="UTF-8" standalone="no"?>
<!DOCTYPE svg PUBLIC "-//W3C//DTD SVG 1.1//EN"
 "http://www.w3.org/Graphics/SVG/1.1/DTD/svg11.dtd">
<!-- Generated by graphviz version 2.40.1 (20161225.0304)
 -->
<!-- Title: /home/jbigot/data/projects/pdi/pdi/src/array_datatype.cxx Pages: 1 -->
<svg width="1045pt" height="431pt"
 viewBox="0.00 0.00 1044.55 431.00" xmlns="http://www.w3.org/2000/svg" xmlns:xlink="http://www.w3.org/1999/xlink">
<g id="graph0" class="graph" transform="scale(1 1) rotate(0) translate(4 427)">
<title>/home/jbigot/data/projects/pdi/pdi/src/array_datatype.cxx</title>
<polygon fill="#ffffff" stroke="transparent" points="-4,4 -4,-427 1040.5548,-427 1040.5548,4 -4,4"/>
<!-- Node0 -->
<g id="node1" class="node">
<title>Node0</title>
<polygon fill="#bfbfbf" stroke="#000000" points="257,-392.5 257,-422.5 418,-422.5 418,-392.5 257,-392.5"/>
<text text-anchor="start" x="265" y="-410.5" font-family="Helvetica,sans-Serif" font-size="10.00" fill="#000000">/home/jbigot/data/projects</text>
<text text-anchor="middle" x="337.5" y="-399.5" font-family="Helvetica,sans-Serif" font-size="10.00" fill="#000000">/pdi/pdi/src/array_datatype.cxx</text>
</g>
<!-- Node1 -->
<g id="node2" class="node">
<title>Node1</title>
<polygon fill="#ffffff" stroke="#bfbfbf" points="0,-336.5 0,-355.5 53,-355.5 53,-336.5 0,-336.5"/>
<text text-anchor="middle" x="26.5" y="-343.5" font-family="Helvetica,sans-Serif" font-size="10.00" fill="#000000">config.h</text>
</g>
<!-- Node0&#45;&gt;Node1 -->
<g id="edge1" class="edge">
<title>Node0&#45;&gt;Node1</title>
<path fill="none" stroke="#191970" d="M256.7992,-394.265C204.2642,-385.2109 134.0817,-372.2946 63.1787,-356.0041"/>
<polygon fill="#191970" stroke="#191970" points="63.7032,-352.533 53.171,-353.6831 62.1217,-359.352 63.7032,-352.533"/>
</g>
<!-- Node2 -->
<g id="node3" class="node">
<title>Node2</title>
<polygon fill="#ffffff" stroke="#bfbfbf" points="71.5,-336.5 71.5,-355.5 131.5,-355.5 131.5,-336.5 71.5,-336.5"/>
<text text-anchor="middle" x="101.5" y="-343.5" font-family="Helvetica,sans-Serif" font-size="10.00" fill="#000000">algorithm</text>
</g>
<!-- Node0&#45;&gt;Node2 -->
<g id="edge2" class="edge">
<title>Node0&#45;&gt;Node2</title>
<path fill="none" stroke="#191970" d="M279.7679,-392.4554C236.8017,-381.2587 179.2629,-366.2645 141.324,-356.3779"/>
<polygon fill="#191970" stroke="#191970" points="142.2066,-352.991 131.6471,-353.8561 140.4413,-359.7648 142.2066,-352.991"/>
</g>
<!-- Node3 -->
<g id="node4" class="node">
<title>Node3</title>
<polygon fill="#ffffff" stroke="#bfbfbf" points="374,-224.5 374,-243.5 425,-243.5 425,-224.5 374,-224.5"/>
<text text-anchor="middle" x="399.5" y="-231.5" font-family="Helvetica,sans-Serif" font-size="10.00" fill="#000000">cassert</text>
</g>
<!-- Node0&#45;&gt;Node3 -->
<g id="edge3" class="edge">
<title>Node0&#45;&gt;Node3</title>
<path fill="none" stroke="#191970" d="M378.4108,-392.4816C394.5283,-384.3159 411.3481,-372.4491 420.5,-356 438.8678,-322.9867 422.1102,-277.7895 409.8044,-252.7056"/>
<polygon fill="#191970" stroke="#191970" points="412.7798,-250.8398 405.0751,-243.5674 406.5631,-254.0573 412.7798,-250.8398"/>
</g>
<!-- Node4 -->
<g id="node5" class="node">
<title>Node4</title>
<polygon fill="#ffffff" stroke="#bfbfbf" points="224,-336.5 224,-355.5 271,-355.5 271,-336.5 224,-336.5"/>
<text text-anchor="middle" x="247.5" y="-343.5" font-family="Helvetica,sans-Serif" font-size="10.00" fill="#000000">cstdint</text>
</g>
<!-- Node0&#45;&gt;Node4 -->
<g id="edge4" class="edge">
<title>Node0&#45;&gt;Node4</title>
<path fill="none" stroke="#191970" d="M315.2528,-392.2977C301.5033,-382.9022 283.9079,-370.8787 270.0943,-361.4395"/>
<polygon fill="#191970" stroke="#191970" points="271.8725,-358.4155 261.6414,-355.6633 267.9232,-364.195 271.8725,-358.4155"/>
</g>
<!-- Node5 -->
<g id="node6" class="node">
<title>Node5</title>
<polygon fill="#ffffff" stroke="#bfbfbf" points="547.5,-56.5 547.5,-75.5 601.5,-75.5 601.5,-56.5 547.5,-56.5"/>
<text text-anchor="middle" x="574.5" y="-63.5" font-family="Helvetica,sans-Serif" font-size="10.00" fill="#000000">memory</text>
</g>
<!-- Node0&#45;&gt;Node5 -->
<g id="edge5" class="edge">
<title>Node0&#45;&gt;Node5</title>
<path fill="none" stroke="#191970" d="M271.7251,-392.4747C221.0195,-376.5418 159.5,-345.728 159.5,-290 159.5,-290 159.5,-290 159.5,-178 159.5,-100.1583 435.0931,-74.8078 537.1117,-68.0903"/>
<polygon fill="#191970" stroke="#191970" points="537.5125,-71.572 547.2707,-67.4456 537.0691,-64.586 537.5125,-71.572"/>
</g>
<!-- Node6 -->
<g id="node7" class="node">
<title>Node6</title>
<polygon fill="#ffffff" stroke="#bfbfbf" points="309,-168.5 309,-187.5 352,-187.5 352,-168.5 309,-168.5"/>
<text text-anchor="middle" x="330.5" y="-175.5" font-family="Helvetica,sans-Serif" font-size="10.00" fill="#000000">string</text>
</g>
<!-- Node0&#45;&gt;Node6 -->
<g id="edge6" class="edge">
<title>Node0&#45;&gt;Node6</title>
<path fill="none" stroke="#191970" d="M337.0407,-392.4419C335.8182,-352.3599 332.4842,-243.0534 331.1073,-197.9113"/>
<polygon fill="#191970" stroke="#191970" points="334.6052,-197.7867 330.8019,-187.8981 327.6085,-198.0002 334.6052,-197.7867"/>
</g>
<!-- Node7 -->
<g id="node8" class="node">
<title>Node7</title>
<polygon fill="#ffffff" stroke="#bfbfbf" points="365.5,-336.5 365.5,-355.5 411.5,-355.5 411.5,-336.5 365.5,-336.5"/>
<text text-anchor="middle" x="388.5" y="-343.5" font-family="Helvetica,sans-Serif" font-size="10.00" fill="#000000">vector</text>
</g>
<!-- Node0&#45;&gt;Node7 -->
<g id="edge7" class="edge">
<title>Node0&#45;&gt;Node7</title>
<path fill="none" stroke="#191970" d="M350.1067,-392.2977C357.2598,-383.672 366.2497,-372.8312 373.7318,-363.8087"/>
<polygon fill="#191970" stroke="#191970" points="376.645,-365.7787 380.3343,-355.8469 371.2567,-361.3103 376.645,-365.7787"/>
</g>
<!-- Node8 -->
<g id="node9" class="node">
<title>Node8</title>
<g id="a_node9"><a xlink:href="paraconf__wrapper_8h.html" target="_top" xlink:title="pdi/paraconf_wrapper.h">
<polygon fill="#ffffff" stroke="#000000" points="188,-224.5 188,-243.5 317,-243.5 317,-224.5 188,-224.5"/>
<text text-anchor="middle" x="252.5" y="-231.5" font-family="Helvetica,sans-Serif" font-size="10.00" fill="#000000">pdi/paraconf_wrapper.h</text>
</a>
</g>
</g>
<!-- Node0&#45;&gt;Node8 -->
<g id="edge8" class="edge">
<title>Node0&#45;&gt;Node8</title>
<path fill="none" stroke="#191970" d="M330.1055,-392.4065C314.592,-360.7408 278.6813,-287.4408 261.7063,-252.7918"/>
<polygon fill="#191970" stroke="#191970" points="264.8134,-251.1784 257.2708,-243.738 258.5273,-254.2581 264.8134,-251.1784"/>
</g>
<!-- Node15 -->
<g id="node16" class="node">
<title>Node15</title>
<g id="a_node16"><a xlink:href="error_8h.html" target="_top" xlink:title="pdi/error.h">
<polygon fill="#ffffff" stroke="#000000" points="443,-224.5 443,-243.5 508,-243.5 508,-224.5 443,-224.5"/>
<text text-anchor="middle" x="475.5" y="-231.5" font-family="Helvetica,sans-Serif" font-size="10.00" fill="#000000">pdi/error.h</text>
</a>
</g>
</g>
<!-- Node0&#45;&gt;Node15 -->
<g id="edge18" class="edge">
<title>Node0&#45;&gt;Node15</title>
<path fill="none" stroke="#191970" d="M384.4969,-392.4047C403.2789,-384.2708 423.6848,-372.4491 437.5,-356 462.4809,-326.2564 471.0663,-280.1296 473.9979,-253.9434"/>
<polygon fill="#191970" stroke="#191970" points="477.5052,-254.0311 474.9628,-243.7459 470.5363,-253.3717 477.5052,-254.0311"/>
</g>
<!-- Node17 -->
<g id="node18" class="node">
<title>Node17</title>
<g id="a_node18"><a xlink:href="expression_8h.html" target="_top" xlink:title="pdi/expression.h">
<polygon fill="#ffffff" stroke="#000000" points="535.5,-336.5 535.5,-355.5 629.5,-355.5 629.5,-336.5 535.5,-336.5"/>
<text text-anchor="middle" x="582.5" y="-343.5" font-family="Helvetica,sans-Serif" font-size="10.00" fill="#000000">pdi/expression.h</text>
</a>
</g>
</g>
<!-- Node0&#45;&gt;Node17 -->
<g id="edge23" class="edge">
<title>Node0&#45;&gt;Node17</title>
<path fill="none" stroke="#191970" d="M397.4337,-392.4554C439.6573,-381.8564 495.4371,-367.8546 534.681,-358.0035"/>
<polygon fill="#191970" stroke="#191970" points="535.6868,-361.3597 544.5337,-355.5303 533.9824,-354.5704 535.6868,-361.3597"/>
</g>
<!-- Node24 -->
<g id="node25" class="node">
<title>Node24</title>
<g id="a_node25"><a xlink:href="array__datatype_8h.html" target="_top" xlink:title="pdi/array_datatype.h">
<polygon fill="#ffffff" stroke="#000000" points="922.5,-280.5 922.5,-299.5 1036.5,-299.5 1036.5,-280.5 922.5,-280.5"/>
<text text-anchor="middle" x="979.5" y="-287.5" font-family="Helvetica,sans-Serif" font-size="10.00" fill="#000000">pdi/array_datatype.h</text>
</a>
</g>
</g>
<!-- Node0&#45;&gt;Node24 -->
<g id="edge39" class="edge">
<title>Node0&#45;&gt;Node24</title>
<path fill="none" stroke="#191970" d="M418.0702,-394.2032C478.7361,-384.0727 563.9159,-369.5967 638.5,-356 738.3736,-337.793 854.3662,-314.9886 922.0814,-301.5083"/>
<polygon fill="#191970" stroke="#191970" points="922.9964,-304.8948 932.1195,-299.5078 921.6283,-298.0298 922.9964,-304.8948"/>
</g>
<!-- Node8&#45;&gt;Node6 -->
<g id="edge9" class="edge">
<title>Node8&#45;&gt;Node6</title>
<path fill="none" stroke="#191970" d="M266.0866,-224.2455C277.8305,-215.814 295.0199,-203.4729 308.6882,-193.6598"/>
<polygon fill="#191970" stroke="#191970" points="310.9871,-196.3179 317.0691,-187.6427 306.9046,-190.6316 310.9871,-196.3179"/>
</g>
<!-- Node9 -->
<g id="node10" class="node">
<title>Node9</title>
<polygon fill="#ffffff" stroke="#bfbfbf" points="472,-.5 472,-19.5 539,-19.5 539,-.5 472,-.5"/>
<text text-anchor="middle" x="505.5" y="-7.5" font-family="Helvetica,sans-Serif" font-size="10.00" fill="#000000">paraconf.h</text>
</g>
<!-- Node8&#45;&gt;Node9 -->
<g id="edge10" class="edge">
<title>Node8&#45;&gt;Node9</title>
<path fill="none" stroke="#191970" d="M253.7765,-224.1324C255.9737,-210.3669 261.552,-185.1628 274.5,-168 328.1325,-96.9093 423.3739,-46.6257 473.1545,-23.795"/>
<polygon fill="#191970" stroke="#191970" points="474.7972,-26.8938 482.4786,-19.5969 471.9233,-20.511 474.7972,-26.8938"/>
</g>
<!-- Node10 -->
<g id="node11" class="node">
<title>Node10</title>
<g id="a_node11"><a xlink:href="pdi__fwd_8h.html" target="_top" xlink:title="pdi/pdi_fwd.h">
<polygon fill="#ffffff" stroke="#000000" points="641,-112.5 641,-131.5 720,-131.5 720,-112.5 641,-112.5"/>
<text text-anchor="middle" x="680.5" y="-119.5" font-family="Helvetica,sans-Serif" font-size="10.00" fill="#000000">pdi/pdi_fwd.h</text>
</a>
</g>
</g>
<!-- Node8&#45;&gt;Node10 -->
<g id="edge11" class="edge">
<title>Node8&#45;&gt;Node10</title>
<path fill="none" stroke="#191970" d="M256.2815,-224.4117C262.7029,-209.5319 277.2479,-181.2199 299.5,-168 354.3231,-135.4298 540.1812,-125.8484 630.4624,-123.087"/>
<polygon fill="#191970" stroke="#191970" points="630.8281,-126.578 640.7226,-122.7901 630.6255,-119.5809 630.8281,-126.578"/>
</g>
<!-- Node10&#45;&gt;Node5 -->
<g id="edge12" class="edge">
<title>Node10&#45;&gt;Node5</title>
<path fill="none" stroke="#191970" d="M662.0362,-112.2455C645.3926,-103.4527 620.7007,-90.4079 601.7808,-80.4125"/>
<polygon fill="#191970" stroke="#191970" points="603.2291,-77.2193 592.7522,-75.6427 599.9592,-83.4086 603.2291,-77.2193"/>
</g>
<!-- Node11 -->
<g id="node12" class="node">
<title>Node11</title>
<g id="a_node12"><a xlink:href="pdi_8h.html" target="_top" xlink:title="pdi.h">
<polygon fill="#ffffff" stroke="#000000" points="777,-56.5 777,-75.5 816,-75.5 816,-56.5 777,-56.5"/>
<text text-anchor="middle" x="796.5" y="-63.5" font-family="Helvetica,sans-Serif" font-size="10.00" fill="#000000">pdi.h</text>
</a>
</g>
</g>
<!-- Node10&#45;&gt;Node11 -->
<g id="edge13" class="edge">
<title>Node10&#45;&gt;Node11</title>
<path fill="none" stroke="#191970" d="M700.4411,-112.3733C718.9786,-103.4241 746.8028,-89.9917 767.7413,-79.8835"/>
<polygon fill="#191970" stroke="#191970" points="769.3352,-83.0006 776.8191,-75.5011 766.2919,-76.6967 769.3352,-83.0006"/>
</g>
<!-- Node11&#45;&gt;Node9 -->
<g id="edge15" class="edge">
<title>Node11&#45;&gt;Node9</title>
<path fill="none" stroke="#191970" d="M776.8205,-59.8169C772.1521,-58.4601 767.1711,-57.1015 762.5,-56 688.2075,-38.4809 600.4489,-24.1055 549.0874,-16.3186"/>
<polygon fill="#191970" stroke="#191970" points="549.4156,-12.8287 539.0065,-14.8042 548.3756,-19.751 549.4156,-12.8287"/>
</g>
<!-- Node12 -->
<g id="node13" class="node">
<title>Node12</title>
<polygon fill="#ffffff" stroke="#bfbfbf" points="776,-.5 776,-19.5 817,-19.5 817,-.5 776,-.5"/>
<text text-anchor="middle" x="796.5" y="-7.5" font-family="Helvetica,sans-Serif" font-size="10.00" fill="#000000">mpi.h</text>
</g>
<!-- Node11&#45;&gt;Node12 -->
<g id="edge14" class="edge">
<title>Node11&#45;&gt;Node12</title>
<path fill="none" stroke="#191970" d="M796.5,-56.2455C796.5,-48.9382 796.5,-38.6944 796.5,-29.7046"/>
<polygon fill="#191970" stroke="#191970" points="800.0001,-29.6426 796.5,-19.6427 793.0001,-29.6427 800.0001,-29.6426"/>
</g>
<!-- Node13 -->
<g id="node14" class="node">
<title>Node13</title>
<polygon fill="#ffffff" stroke="#bfbfbf" points="835.5,-.5 835.5,-19.5 907.5,-19.5 907.5,-.5 835.5,-.5"/>
<text text-anchor="middle" x="871.5" y="-7.5" font-family="Helvetica,sans-Serif" font-size="10.00" fill="#000000">pdi/export.h</text>
</g>
<!-- Node11&#45;&gt;Node13 -->
<g id="edge16" class="edge">
<title>Node11&#45;&gt;Node13</title>
<path fill="none" stroke="#191970" d="M809.564,-56.2455C820.8562,-47.814 837.3845,-35.4729 850.5271,-25.6598"/>
<polygon fill="#191970" stroke="#191970" points="852.6669,-28.4301 858.5857,-19.6427 848.4789,-22.8211 852.6669,-28.4301"/>
</g>
<!-- Node14 -->
<g id="node15" class="node">
<title>Node14</title>
<polygon fill="#ffffff" stroke="#bfbfbf" points="681,-.5 681,-19.5 758,-19.5 758,-.5 681,-.5"/>
<text text-anchor="middle" x="719.5" y="-7.5" font-family="Helvetica,sans-Serif" font-size="10.00" fill="#000000">pdi/version.h</text>
</g>
<!-- Node11&#45;&gt;Node14 -->
<g id="edge17" class="edge">
<title>Node11&#45;&gt;Node14</title>
<path fill="none" stroke="#191970" d="M783.0876,-56.2455C771.4943,-47.814 754.5252,-35.4729 741.0322,-25.6598"/>
<polygon fill="#191970" stroke="#191970" points="742.9047,-22.6938 732.7587,-19.6427 738.7874,-28.355 742.9047,-22.6938"/>
</g>
<!-- Node15&#45;&gt;Node6 -->
<g id="edge20" class="edge">
<title>Node15&#45;&gt;Node6</title>
<path fill="none" stroke="#191970" d="M450.5736,-224.3733C426.0182,-214.8898 388.427,-200.3718 361.8567,-190.1102"/>
<polygon fill="#191970" stroke="#191970" points="362.8526,-186.7429 352.2631,-186.4051 360.3306,-193.2728 362.8526,-186.7429"/>
</g>
<!-- Node15&#45;&gt;Node9 -->
<g id="edge21" class="edge">
<title>Node15&#45;&gt;Node9</title>
<path fill="none" stroke="#191970" d="M460.5035,-224.3308C449.3402,-216.1671 434.9619,-203.3661 428.5,-188 425.0543,-179.8061 426.5018,-176.6614 428.5,-168 441.0107,-113.771 474.7775,-56.6165 493.1634,-28.2294"/>
<polygon fill="#191970" stroke="#191970" points="496.1712,-30.0258 498.756,-19.7511 490.328,-26.1714 496.1712,-30.0258"/>
</g>
<!-- Node15&#45;&gt;Node10 -->
<g id="edge22" class="edge">
<title>Node15&#45;&gt;Node10</title>
<path fill="none" stroke="#191970" d="M462.885,-224.3999C446.722,-210.9522 422.4855,-186.1233 437.5,-168 461.5341,-138.9895 566.7978,-128.1366 630.6368,-124.1796"/>
<polygon fill="#191970" stroke="#191970" points="631.1133,-127.6578 640.8923,-123.5809 630.7053,-120.6697 631.1133,-127.6578"/>
</g>
<!-- Node16 -->
<g id="node17" class="node">
<title>Node16</title>
<polygon fill="#ffffff" stroke="#bfbfbf" points="446.5,-168.5 446.5,-187.5 508.5,-187.5 508.5,-168.5 446.5,-168.5"/>
<text text-anchor="middle" x="477.5" y="-175.5" font-family="Helvetica,sans-Serif" font-size="10.00" fill="#000000">exception</text>
</g>
<!-- Node15&#45;&gt;Node16 -->
<g id="edge19" class="edge">
<title>Node15&#45;&gt;Node16</title>
<path fill="none" stroke="#191970" d="M475.8484,-224.2455C476.1093,-216.9382 476.4752,-206.6944 476.7963,-197.7046"/>
<polygon fill="#191970" stroke="#191970" points="480.2964,-197.7613 477.1556,-187.6427 473.3008,-197.5113 480.2964,-197.7613"/>
</g>
<!-- Node17&#45;&gt;Node5 -->
<g id="edge24" class="edge">
<title>Node17&#45;&gt;Node5</title>
<path fill="none" stroke="#191970" d="M575.5136,-336.3606C562.6452,-317.6259 536.5,-274.5697 536.5,-234 536.5,-234 536.5,-234 536.5,-178 536.5,-143.6118 552.7634,-106.2832 564.011,-84.5791"/>
<polygon fill="#191970" stroke="#191970" points="567.2317,-85.9804 568.893,-75.5166 561.069,-82.6605 567.2317,-85.9804"/>
</g>
<!-- Node17&#45;&gt;Node10 -->
<g id="edge25" class="edge">
<title>Node17&#45;&gt;Node10</title>
<path fill="none" stroke="#191970" d="M629.7315,-336.4499C704.9574,-320.1739 846.4806,-284.8298 875.5,-244 880.6495,-236.7547 880.1038,-231.6038 875.5,-224 857.5143,-194.2945 766.746,-155.3445 715.6292,-135.2575"/>
<polygon fill="#191970" stroke="#191970" points="716.8587,-131.9803 706.2701,-131.6163 714.3206,-138.504 716.8587,-131.9803"/>
</g>
<!-- Node18 -->
<g id="node19" class="node">
<title>Node18</title>
<g id="a_node19"><a xlink:href="ref__any_8h.html" target="_top" xlink:title="pdi/ref_any.h">
<polygon fill="#ffffff" stroke="#000000" points="573.5,-280.5 573.5,-299.5 651.5,-299.5 651.5,-280.5 573.5,-280.5"/>
<text text-anchor="middle" x="612.5" y="-287.5" font-family="Helvetica,sans-Serif" font-size="10.00" fill="#000000">pdi/ref_any.h</text>
</a>
</g>
</g>
<!-- Node17&#45;&gt;Node18 -->
<g id="edge26" class="edge">
<title>Node17&#45;&gt;Node18</title>
<path fill="none" stroke="#191970" d="M587.7256,-336.2455C591.8123,-328.617 597.6135,-317.7881 602.575,-308.5267"/>
<polygon fill="#191970" stroke="#191970" points="605.6972,-310.1103 607.3343,-299.6427 599.5268,-306.8047 605.6972,-310.1103"/>
</g>
<!-- Node18&#45;&gt;Node3 -->
<g id="edge27" class="edge">
<title>Node18&#45;&gt;Node3</title>
<path fill="none" stroke="#191970" d="M574.5776,-280.4968C540.5346,-271.8996 488.957,-258.7118 434.8612,-244.0497"/>
<polygon fill="#191970" stroke="#191970" points="435.6613,-240.6402 425.0933,-241.3935 433.8244,-247.3949 435.6613,-240.6402"/>
</g>
<!-- Node18&#45;&gt;Node5 -->
<g id="edge29" class="edge">
<title>Node18&#45;&gt;Node5</title>
<path fill="none" stroke="#191970" d="M610.8672,-280.375C605.1058,-246.4133 585.6535,-131.7472 577.8147,-85.5392"/>
<polygon fill="#191970" stroke="#191970" points="581.25,-84.8629 576.1267,-75.5891 574.3486,-86.0337 581.25,-84.8629"/>
</g>
<!-- Node18&#45;&gt;Node10 -->
<g id="edge32" class="edge">
<title>Node18&#45;&gt;Node10</title>
<path fill="none" stroke="#191970" d="M614.7175,-280.4376C617.8492,-267.4517 624.0274,-243.6102 631.5,-224 642.9302,-194.004 659.7309,-160.7462 670.3902,-140.6099"/>
<polygon fill="#191970" stroke="#191970" points="673.5762,-142.0744 675.2114,-131.6065 667.4052,-138.7699 673.5762,-142.0744"/>
</g>
<!-- Node18&#45;&gt;Node15 -->
<g id="edge38" class="edge">
<title>Node18&#45;&gt;Node15</title>
<path fill="none" stroke="#191970" d="M588.9489,-280.3733C566.6609,-271.2629 533.0063,-257.5062 508.1363,-247.3404"/>
<polygon fill="#191970" stroke="#191970" points="509.3247,-244.0451 498.7438,-243.5011 506.6761,-250.5247 509.3247,-244.0451"/>
</g>
<!-- Node19 -->
<g id="node20" class="node">
<title>Node19</title>
<polygon fill="#ffffff" stroke="#bfbfbf" points="750.5,-224.5 750.5,-243.5 812.5,-243.5 812.5,-224.5 750.5,-224.5"/>
<text text-anchor="middle" x="781.5" y="-231.5" font-family="Helvetica,sans-Serif" font-size="10.00" fill="#000000">functional</text>
</g>
<!-- Node18&#45;&gt;Node19 -->
<g id="edge28" class="edge">
<title>Node18&#45;&gt;Node19</title>
<path fill="none" stroke="#191970" d="M641.5521,-280.3733C669.6543,-271.0613 712.4054,-256.8953 743.2607,-246.671"/>
<polygon fill="#191970" stroke="#191970" points="744.4355,-249.969 752.827,-243.5011 742.2336,-243.3243 744.4355,-249.969"/>
</g>
<!-- Node20 -->
<g id="node21" class="node">
<title>Node20</title>
<polygon fill="#ffffff" stroke="#bfbfbf" points="830.5,-224.5 830.5,-243.5 866.5,-243.5 866.5,-224.5 830.5,-224.5"/>
<text text-anchor="middle" x="848.5" y="-231.5" font-family="Helvetica,sans-Serif" font-size="10.00" fill="#000000">new</text>
</g>
<!-- Node18&#45;&gt;Node20 -->
<g id="edge30" class="edge">
<title>Node18&#45;&gt;Node20</title>
<path fill="none" stroke="#191970" d="M651.8129,-283.0278C692.0633,-275.5196 756.5335,-262.4724 820.475,-244.0094"/>
<polygon fill="#191970" stroke="#191970" points="821.7041,-247.2964 830.3147,-241.1232 819.7338,-240.5794 821.7041,-247.2964"/>
</g>
<!-- Node21 -->
<g id="node22" class="node">
<title>Node21</title>
<polygon fill="#ffffff" stroke="#bfbfbf" points="640.5,-224.5 640.5,-243.5 732.5,-243.5 732.5,-224.5 640.5,-224.5"/>
<text text-anchor="middle" x="686.5" y="-231.5" font-family="Helvetica,sans-Serif" font-size="10.00" fill="#000000">unordered_map</text>
</g>
<!-- Node18&#45;&gt;Node21 -->
<g id="edge31" class="edge">
<title>Node18&#45;&gt;Node21</title>
<path fill="none" stroke="#191970" d="M625.3898,-280.2455C636.4254,-271.8943 652.5292,-259.7076 665.4353,-249.9408"/>
<polygon fill="#191970" stroke="#191970" points="667.8959,-252.4681 673.7579,-243.6427 663.6717,-246.8862 667.8959,-252.4681"/>
</g>
<!-- Node22 -->
<g id="node23" class="node">
<title>Node22</title>
<g id="a_node23"><a xlink:href="datatype_8h.html" target="_top" xlink:title="pdi/datatype.h">
<polygon fill="#ffffff" stroke="#000000" points="923,-224.5 923,-243.5 1006,-243.5 1006,-224.5 923,-224.5"/>
<text text-anchor="middle" x="964.5" y="-231.5" font-family="Helvetica,sans-Serif" font-size="10.00" fill="#000000">pdi/datatype.h</text>
</a>
</g>
</g>
<!-- Node18&#45;&gt;Node22 -->
<g id="edge33" class="edge">
<title>Node18&#45;&gt;Node22</title>
<path fill="none" stroke="#191970" d="M651.5151,-283.7931C715.2373,-273.6554 841.6567,-253.5433 912.7811,-242.228"/>
<polygon fill="#191970" stroke="#191970" points="913.5337,-245.6524 922.8596,-240.6246 912.4338,-238.7393 913.5337,-245.6524"/>
</g>
<!-- Node22&#45;&gt;Node10 -->
<g id="edge34" class="edge">
<title>Node22&#45;&gt;Node10</title>
<path fill="none" stroke="#191970" d="M946.677,-224.3636C916.7338,-208.2622 857.4544,-176.7867 835.5,-168 801.0824,-154.2252 760.9232,-142.4202 730.1069,-134.2188"/>
<polygon fill="#191970" stroke="#191970" points="730.5969,-130.729 720.0362,-131.5779 728.8213,-137.5001 730.5969,-130.729"/>
</g>
<!-- Node23 -->
<g id="node24" class="node">
<title>Node23</title>
<g id="a_node24"><a xlink:href="datatype__template_8h.html" target="_top" xlink:title="pdi/datatype_template.h">
<polygon fill="#ffffff" stroke="#000000" points="887.5,-168.5 887.5,-187.5 1017.5,-187.5 1017.5,-168.5 887.5,-168.5"/>
<text text-anchor="middle" x="952.5" y="-175.5" font-family="Helvetica,sans-Serif" font-size="10.00" fill="#000000">pdi/datatype_template.h</text>
</a>
</g>
</g>
<!-- Node22&#45;&gt;Node23 -->
<g id="edge35" class="edge">
<title>Node22&#45;&gt;Node23</title>
<path fill="none" stroke="#191970" d="M962.4098,-224.2455C960.8439,-216.9382 958.6488,-206.6944 956.7224,-197.7046"/>
<polygon fill="#191970" stroke="#191970" points="960.084,-196.6873 954.5663,-187.6427 953.2393,-198.1541 960.084,-196.6873"/>
</g>
<!-- Node23&#45;&gt;Node9 -->
<g id="edge36" class="edge">
<title>Node23&#45;&gt;Node9</title>
<path fill="none" stroke="#191970" d="M927.1866,-168.4862C851.5183,-140.0471 626.9274,-55.6372 540.2078,-23.0445"/>
<polygon fill="#191970" stroke="#191970" points="541.4042,-19.7552 530.8121,-19.5133 538.9415,-26.3077 541.4042,-19.7552"/>
</g>
<!-- Node23&#45;&gt;Node10 -->
<g id="edge37" class="edge">
<title>Node23&#45;&gt;Node10</title>
<path fill="none" stroke="#191970" d="M906.0506,-168.4369C857.0772,-158.3541 780.2152,-142.5296 730.0884,-132.2094"/>
<polygon fill="#191970" stroke="#191970" points="730.6271,-128.747 720.1267,-130.1584 729.2155,-135.6032 730.6271,-128.747"/>
</g>
<!-- Node24&#45;&gt;Node10 -->
<g id="edge40" class="edge">
<title>Node24&#45;&gt;Node10</title>
<path fill="none" stroke="#191970" d="M989.2385,-280.2784C1010.442,-257.9564 1056.5594,-202.3202 1026.5,-168 1007.2778,-146.0531 821.1769,-131.0946 730.1468,-125.03"/>
<polygon fill="#191970" stroke="#191970" points="730.2682,-121.5305 720.0606,-124.3685 729.8101,-128.5155 730.2682,-121.5305"/>
</g>
<!-- Node24&#45;&gt;Node22 -->
<g id="edge41" class="edge">
<title>Node24&#45;&gt;Node22</title>
<path fill="none" stroke="#191970" d="M976.8872,-280.2455C974.9084,-272.8579 972.1256,-262.4689 969.6988,-253.4087"/>
<polygon fill="#191970" stroke="#191970" points="973.0511,-252.3966 967.0829,-243.6427 966.2895,-254.2078 973.0511,-252.3966"/>
</g>
</g>
</svg>
