<?xml version="1.0" encoding="UTF-8" standalone="no"?>
<!DOCTYPE svg PUBLIC "-//W3C//DTD SVG 1.1//EN"
 "http://www.w3.org/Graphics/SVG/1.1/DTD/svg11.dtd">
<!-- Generated by graphviz version 2.40.1 (20161225.0304)
 -->
<!-- Title: /home/jbigot/data/projects/pdi/pdi/include/pdi/array_datatype.h Pages: 1 -->
<svg width="680pt" height="117pt"
 viewBox="0.00 0.00 679.50 117.00" xmlns="http://www.w3.org/2000/svg" xmlns:xlink="http://www.w3.org/1999/xlink">
<g id="graph0" class="graph" transform="scale(1 1) rotate(0) translate(4 113)">
<title>/home/jbigot/data/projects/pdi/pdi/include/pdi/array_datatype.h</title>
<polygon fill="#ffffff" stroke="transparent" points="-4,4 -4,-113 675.5,-113 675.5,4 -4,4"/>
<!-- Node10 -->
<g id="node1" class="node">
<title>Node10</title>
<polygon fill="#bfbfbf" stroke="#000000" points="286.5,-67.5 286.5,-108.5 424.5,-108.5 424.5,-67.5 286.5,-67.5"/>
<text text-anchor="start" x="294.5" y="-96.5" font-family="Helvetica,sans-Serif" font-size="10.00" fill="#000000">/home/jbigot/data/projects</text>
<text text-anchor="start" x="294.5" y="-85.5" font-family="Helvetica,sans-Serif" font-size="10.00" fill="#000000">/pdi/pdi/include/pdi/array</text>
<text text-anchor="middle" x="355.5" y="-74.5" font-family="Helvetica,sans-Serif" font-size="10.00" fill="#000000">_datatype.h</text>
</g>
<!-- Node11 -->
<g id="node2" class="node">
<title>Node11</title>
<g id="a_node2"><a xlink:href="array__datatype_8cxx.html" target="_top" xlink:title="/home/jbigot/data/projects\l/pdi/pdi/src/array_datatype.cxx">
<polygon fill="#ffffff" stroke="#000000" points="0,-.5 0,-30.5 161,-30.5 161,-.5 0,-.5"/>
<text text-anchor="start" x="8" y="-18.5" font-family="Helvetica,sans-Serif" font-size="10.00" fill="#000000">/home/jbigot/data/projects</text>
<text text-anchor="middle" x="80.5" y="-7.5" font-family="Helvetica,sans-Serif" font-size="10.00" fill="#000000">/pdi/pdi/src/array_datatype.cxx</text>
</a>
</g>
</g>
<!-- Node10&#45;&gt;Node11 -->
<g id="edge1" class="edge">
<title>Node10&#45;&gt;Node11</title>
<path fill="none" stroke="#191970" d="M276.5689,-67.1909C232.1671,-55.485 177.744,-41.1371 137.5108,-30.5301"/>
<polygon fill="#191970" stroke="#191970" points="275.899,-70.6338 286.4608,-69.7988 277.6835,-63.8651 275.899,-70.6338"/>
</g>
<!-- Node12 -->
<g id="node3" class="node">
<title>Node12</title>
<g id="a_node3"><a xlink:href="datatype__template_8cxx.html" target="_top" xlink:title="/home/jbigot/data/projects\l/pdi/pdi/src/datatype_template.cxx">
<polygon fill="#ffffff" stroke="#000000" points="179,-.5 179,-30.5 356,-30.5 356,-.5 179,-.5"/>
<text text-anchor="start" x="187" y="-18.5" font-family="Helvetica,sans-Serif" font-size="10.00" fill="#000000">/home/jbigot/data/projects</text>
<text text-anchor="middle" x="267.5" y="-7.5" font-family="Helvetica,sans-Serif" font-size="10.00" fill="#000000">/pdi/pdi/src/datatype_template.cxx</text>
</a>
</g>
</g>
<!-- Node10&#45;&gt;Node12 -->
<g id="edge2" class="edge">
<title>Node10&#45;&gt;Node12</title>
<path fill="none" stroke="#191970" d="M322.5757,-60.8749C310.1438,-50.6327 296.4502,-39.351 285.8272,-30.5991"/>
<polygon fill="#191970" stroke="#191970" points="320.5745,-63.761 330.5181,-67.4183 325.0256,-58.3584 320.5745,-63.761"/>
</g>
<!-- Node13 -->
<g id="node4" class="node">
<title>Node13</title>
<g id="a_node4"><a xlink:href="expression_8cxx.html" target="_top" xlink:title="/home/jbigot/data/projects\l/pdi/pdi/src/expression.cxx">
<polygon fill="#ffffff" stroke="#000000" points="374,-.5 374,-30.5 515,-30.5 515,-.5 374,-.5"/>
<text text-anchor="start" x="382" y="-18.5" font-family="Helvetica,sans-Serif" font-size="10.00" fill="#000000">/home/jbigot/data/projects</text>
<text text-anchor="middle" x="444.5" y="-7.5" font-family="Helvetica,sans-Serif" font-size="10.00" fill="#000000">/pdi/pdi/src/expression.cxx</text>
</a>
</g>
</g>
<!-- Node10&#45;&gt;Node13 -->
<g id="edge3" class="edge">
<title>Node10&#45;&gt;Node13</title>
<path fill="none" stroke="#191970" d="M388.7984,-60.8749C401.3716,-50.6327 415.2208,-39.351 425.9645,-30.5991"/>
<polygon fill="#191970" stroke="#191970" points="386.3084,-58.3889 380.7658,-67.4183 390.7295,-63.8161 386.3084,-58.3889"/>
</g>
<!-- Node14 -->
<g id="node5" class="node">
<title>Node14</title>
<g id="a_node5"><a xlink:href="ref__any_8cxx.html" target="_top" xlink:title="/home/jbigot/data/projects\l/pdi/pdi/src/ref_any.cxx">
<polygon fill="#ffffff" stroke="#000000" points="533.5,-.5 533.5,-30.5 671.5,-30.5 671.5,-.5 533.5,-.5"/>
<text text-anchor="start" x="541.5" y="-18.5" font-family="Helvetica,sans-Serif" font-size="10.00" fill="#000000">/home/jbigot/data/projects</text>
<text text-anchor="middle" x="602.5" y="-7.5" font-family="Helvetica,sans-Serif" font-size="10.00" fill="#000000">/pdi/pdi/src/ref_any.cxx</text>
</a>
</g>
</g>
<!-- Node10&#45;&gt;Node14 -->
<g id="edge4" class="edge">
<title>Node10&#45;&gt;Node14</title>
<path fill="none" stroke="#191970" d="M434.6814,-64.7585C472.795,-53.5713 517.4012,-40.4784 551.0419,-30.6041"/>
<polygon fill="#191970" stroke="#191970" points="433.2412,-61.5335 424.6317,-67.7083 435.2127,-68.2502 433.2412,-61.5335"/>
</g>
</g>
</svg>
