<?xml version="1.0" encoding="UTF-8" standalone="no"?>
<!DOCTYPE svg PUBLIC "-//W3C//DTD SVG 1.1//EN"
 "http://www.w3.org/Graphics/SVG/1.1/DTD/svg11.dtd">
<!-- Generated by graphviz version 2.40.1 (20161225.0304)
 -->
<!-- Title: PDI::Context::desc Pages: 1 -->
<svg width="274pt" height="88pt"
 viewBox="0.00 0.00 274.00 88.00" xmlns="http://www.w3.org/2000/svg" xmlns:xlink="http://www.w3.org/1999/xlink">
<g id="graph0" class="graph" transform="scale(1 1) rotate(0) translate(4 84)">
<title>PDI::Context::desc</title>
<polygon fill="#ffffff" stroke="transparent" points="-4,4 -4,-84 270,-84 270,4 -4,4"/>
<!-- Node11 -->
<g id="node1" class="node">
<title>Node11</title>
<polygon fill="#bfbfbf" stroke="#000000" points="0,-35.5 0,-54.5 102,-54.5 102,-35.5 0,-35.5"/>
<text text-anchor="middle" x="51" y="-42.5" font-family="Helvetica,sans-Serif" font-size="10.00" fill="#000000">PDI::Context::desc</text>
</g>
<!-- Node12 -->
<g id="node2" class="node">
<title>Node12</title>
<g id="a_node2"><a xlink:href="classPDI_1_1Context.html#a7588b23fdb4703d4446d43edf64ab5dd" target="_top" xlink:title="PDI::Context::desc">
<polygon fill="#ffffff" stroke="#000000" points="151,-60.5 151,-79.5 253,-79.5 253,-60.5 151,-60.5"/>
<text text-anchor="middle" x="202" y="-67.5" font-family="Helvetica,sans-Serif" font-size="10.00" fill="#000000">PDI::Context::desc</text>
</a>
</g>
</g>
<!-- Node11&#45;&gt;Node12 -->
<g id="edge1" class="edge">
<title>Node11&#45;&gt;Node12</title>
<path fill="none" stroke="#191970" d="M112.2657,-55.1433C125.1038,-57.2688 138.5116,-59.4887 150.9309,-61.5449"/>
<polygon fill="#191970" stroke="#191970" points="112.5591,-51.6443 102.1217,-53.4639 111.4157,-58.5503 112.5591,-51.6443"/>
</g>
<!-- Node13 -->
<g id="node3" class="node">
<title>Node13</title>
<g id="a_node3"><a xlink:href="structPDI_1_1Expression_1_1Impl_1_1Reference__expression.html#a6521d256707281f5733433be63fd4b3d" target="_top" xlink:title="PDI::Expression::Impl\l::Reference_expression\l::to_ref">
<polygon fill="#ffffff" stroke="#000000" points="138,-.5 138,-41.5 266,-41.5 266,-.5 138,-.5"/>
<text text-anchor="start" x="146" y="-29.5" font-family="Helvetica,sans-Serif" font-size="10.00" fill="#000000">PDI::Expression::Impl</text>
<text text-anchor="start" x="146" y="-18.5" font-family="Helvetica,sans-Serif" font-size="10.00" fill="#000000">::Reference_expression</text>
<text text-anchor="middle" x="202" y="-7.5" font-family="Helvetica,sans-Serif" font-size="10.00" fill="#000000">::to_ref</text>
</a>
</g>
</g>
<!-- Node11&#45;&gt;Node13 -->
<g id="edge2" class="edge">
<title>Node11&#45;&gt;Node13</title>
<path fill="none" stroke="#191970" d="M112.245,-35.2657C120.6683,-33.9269 129.3374,-32.549 137.8119,-31.2021"/>
<polygon fill="#191970" stroke="#191970" points="111.4483,-31.8483 102.1217,-36.8747 112.5472,-38.7615 111.4483,-31.8483"/>
</g>
</g>
</svg>
