<?xml version="1.0" encoding="UTF-8" standalone="no"?>
<!DOCTYPE svg PUBLIC "-//W3C//DTD SVG 1.1//EN"
 "http://www.w3.org/Graphics/SVG/1.1/DTD/svg11.dtd">
<!-- Generated by graphviz version 2.40.1 (20161225.0304)
 -->
<!-- Title: PDI::Record_datatype::members Pages: 1 -->
<svg width="284pt" height="39pt"
 viewBox="0.00 0.00 284.00 39.00" xmlns="http://www.w3.org/2000/svg" xmlns:xlink="http://www.w3.org/1999/xlink">
<g id="graph0" class="graph" transform="scale(1 1) rotate(0) translate(4 35)">
<title>PDI::Record_datatype::members</title>
<polygon fill="#ffffff" stroke="transparent" points="-4,4 -4,-35 280,-35 280,4 -4,4"/>
<!-- Node24 -->
<g id="node1" class="node">
<title>Node24</title>
<polygon fill="#bfbfbf" stroke="#000000" points="0,-.5 0,-30.5 120,-30.5 120,-.5 0,-.5"/>
<text text-anchor="start" x="8" y="-18.5" font-family="Helvetica,sans-Serif" font-size="10.00" fill="#000000">PDI::Record_datatype</text>
<text text-anchor="middle" x="60" y="-7.5" font-family="Helvetica,sans-Serif" font-size="10.00" fill="#000000">::members</text>
</g>
<!-- Node25 -->
<g id="node2" class="node">
<title>Node25</title>
<g id="a_node2"><a xlink:href="classPDI_1_1Record__datatype.html#acf74cad00490ddb45a9bb36b6f30c3fd" target="_top" xlink:title="PDI::Record_datatype\l::Record_datatype">
<polygon fill="#ffffff" stroke="#000000" points="156,-.5 156,-30.5 276,-30.5 276,-.5 156,-.5"/>
<text text-anchor="start" x="164" y="-18.5" font-family="Helvetica,sans-Serif" font-size="10.00" fill="#000000">PDI::Record_datatype</text>
<text text-anchor="middle" x="216" y="-7.5" font-family="Helvetica,sans-Serif" font-size="10.00" fill="#000000">::Record_datatype</text>
</a>
</g>
</g>
<!-- Node24&#45;&gt;Node25 -->
<g id="edge1" class="edge">
<title>Node24&#45;&gt;Node25</title>
<path fill="none" stroke="#191970" d="M130.538,-15.5C138.9903,-15.5 147.5605,-15.5 155.8467,-15.5"/>
<polygon fill="#191970" stroke="#191970" points="130.3137,-12.0001 120.3137,-15.5 130.3136,-19.0001 130.3137,-12.0001"/>
</g>
</g>
</svg>
