<?xml version="1.0" encoding="UTF-8" standalone="no"?>
<!DOCTYPE svg PUBLIC "-//W3C//DTD SVG 1.1//EN"
 "http://www.w3.org/Graphics/SVG/1.1/DTD/svg11.dtd">
<!-- Generated by graphviz version 2.40.1 (20161225.0304)
 -->
<!-- Title: PDI::Data_descriptor::reclaim Pages: 1 -->
<svg width="289pt" height="154pt"
 viewBox="0.00 0.00 289.00 154.00" xmlns="http://www.w3.org/2000/svg" xmlns:xlink="http://www.w3.org/1999/xlink">
<g id="graph0" class="graph" transform="scale(1 1) rotate(0) translate(4 150)">
<title>PDI::Data_descriptor::reclaim</title>
<polygon fill="#ffffff" stroke="transparent" points="-4,4 -4,-150 285,-150 285,4 -4,4"/>
<!-- Node39 -->
<g id="node1" class="node">
<title>Node39</title>
<polygon fill="#bfbfbf" stroke="#000000" points="0,-55 0,-85 114,-85 114,-55 0,-55"/>
<text text-anchor="start" x="8" y="-73" font-family="Helvetica,sans-Serif" font-size="10.00" fill="#000000">PDI::Data_descriptor</text>
<text text-anchor="middle" x="57" y="-62" font-family="Helvetica,sans-Serif" font-size="10.00" fill="#000000">::reclaim</text>
</g>
<!-- Node40 -->
<g id="node2" class="node">
<title>Node40</title>
<g id="a_node2"><a xlink:href="classPDI_1_1Data__descriptor.html#a518b9fd7e942a742ac75c4537bc677a8" target="_top" xlink:title="PDI::Data_descriptor::ref">
<polygon fill="#ffffff" stroke="#000000" points="150,-126.5 150,-145.5 281,-145.5 281,-126.5 150,-126.5"/>
<text text-anchor="middle" x="215.5" y="-133.5" font-family="Helvetica,sans-Serif" font-size="10.00" fill="#000000">PDI::Data_descriptor::ref</text>
</a>
</g>
</g>
<!-- Node39&#45;&gt;Node40 -->
<g id="edge1" class="edge">
<title>Node39&#45;&gt;Node40</title>
<path fill="none" stroke="#191970" d="M83.655,-85.139C101.9264,-95.0972 126.9394,-107.9192 150,-117 155.8562,-119.306 162.1044,-121.4736 168.3294,-123.4608"/>
<polygon fill="#191970" stroke="#191970" points="167.4463,-126.8507 178.0327,-126.429 169.4939,-120.1569 167.4463,-126.8507"/>
</g>
<!-- Node41 -->
<g id="node3" class="node">
<title>Node41</title>
<g id="a_node3"><a xlink:href="classPDI_1_1Data__descriptor.html#a4f68c4d432519377da35df709ca56125" target="_top" xlink:title="PDI::Data_descriptor\l::metadata">
<polygon fill="#ffffff" stroke="#000000" points="158.5,-77 158.5,-107 272.5,-107 272.5,-77 158.5,-77"/>
<text text-anchor="start" x="166.5" y="-95" font-family="Helvetica,sans-Serif" font-size="10.00" fill="#000000">PDI::Data_descriptor</text>
<text text-anchor="middle" x="215.5" y="-84" font-family="Helvetica,sans-Serif" font-size="10.00" fill="#000000">::metadata</text>
</a>
</g>
</g>
<!-- Node39&#45;&gt;Node41 -->
<g id="edge2" class="edge">
<title>Node39&#45;&gt;Node41</title>
<path fill="none" stroke="#191970" d="M114.2221,-77.9425C125.2203,-79.4691 136.8333,-81.081 148.1179,-82.6473"/>
<polygon fill="#191970" stroke="#191970" points="147.9756,-86.161 158.3619,-84.0692 148.938,-79.2275 147.9756,-86.161"/>
</g>
<!-- Node42 -->
<g id="node4" class="node">
<title>Node42</title>
<g id="a_node4"><a xlink:href="classPDI_1_1Ref__any.html#a92c53a0398732686e7b50480d4e2d82b" target="_top" xlink:title="PDI::Ref_any::copy">
<polygon fill="#ffffff" stroke="#000000" points="163,-38.5 163,-57.5 268,-57.5 268,-38.5 163,-38.5"/>
<text text-anchor="middle" x="215.5" y="-45.5" font-family="Helvetica,sans-Serif" font-size="10.00" fill="#000000">PDI::Ref_any::copy</text>
</a>
</g>
</g>
<!-- Node39&#45;&gt;Node42 -->
<g id="edge3" class="edge">
<title>Node39&#45;&gt;Node42</title>
<path fill="none" stroke="#191970" d="M114.2221,-62.0575C126.7465,-60.3191 140.0681,-58.47 152.794,-56.7037"/>
<polygon fill="#191970" stroke="#191970" points="153.4218,-60.1502 162.8457,-55.3085 152.4594,-53.2166 153.4218,-60.1502"/>
</g>
<!-- Node43 -->
<g id="node5" class="node">
<title>Node43</title>
<g id="a_node5"><a xlink:href="classPDI_1_1Ref__any.html#a2f653ad7b6152b4c1f027ed155c12e25" target="_top" xlink:title="PDI::Ref_any::release">
<polygon fill="#ffffff" stroke="#000000" points="156.5,-.5 156.5,-19.5 274.5,-19.5 274.5,-.5 156.5,-.5"/>
<text text-anchor="middle" x="215.5" y="-7.5" font-family="Helvetica,sans-Serif" font-size="10.00" fill="#000000">PDI::Ref_any::release</text>
</a>
</g>
</g>
<!-- Node39&#45;&gt;Node43 -->
<g id="edge4" class="edge">
<title>Node39&#45;&gt;Node43</title>
<path fill="none" stroke="#191970" d="M88.4254,-54.8976C106.25,-46.649 129.1056,-36.5981 150,-29 156.3548,-26.6891 163.134,-24.4637 169.8319,-22.4007"/>
<polygon fill="#191970" stroke="#191970" points="170.949,-25.7199 179.5282,-19.5032 168.9448,-19.0129 170.949,-25.7199"/>
</g>
</g>
</svg>
