<?xml version="1.0" encoding="UTF-8" standalone="no"?>
<!DOCTYPE svg PUBLIC "-//W3C//DTD SVG 1.1//EN"
 "http://www.w3.org/Graphics/SVG/1.1/DTD/svg11.dtd">
<!-- Generated by graphviz version 2.40.1 (20161225.0304)
 -->
<!-- Title: PDI::Expression::to_long Pages: 1 -->
<svg width="446pt" height="88pt"
 viewBox="0.00 0.00 446.00 88.00" xmlns="http://www.w3.org/2000/svg" xmlns:xlink="http://www.w3.org/1999/xlink">
<g id="graph0" class="graph" transform="scale(1 1) rotate(0) translate(4 84)">
<title>PDI::Expression::to_long</title>
<polygon fill="#ffffff" stroke="transparent" points="-4,4 -4,-84 442,-84 442,4 -4,4"/>
<!-- Node38 -->
<g id="node1" class="node">
<title>Node38</title>
<polygon fill="#bfbfbf" stroke="#000000" points="0,-30 0,-49 131,-49 131,-30 0,-30"/>
<text text-anchor="middle" x="65.5" y="-37" font-family="Helvetica,sans-Serif" font-size="10.00" fill="#000000">PDI::Expression::to_long</text>
</g>
<!-- Node39 -->
<g id="node2" class="node">
<title>Node39</title>
<g id="a_node2"><a xlink:href="structPDI_1_1Expression_1_1Impl.html#a93261da6e1d0759c16d686989862844f" target="_top" xlink:title="PDI::Expression::Impl\l::to_string">
<polygon fill="#ffffff" stroke="#000000" points="167,-24.5 167,-54.5 282,-54.5 282,-24.5 167,-24.5"/>
<text text-anchor="start" x="175" y="-42.5" font-family="Helvetica,sans-Serif" font-size="10.00" fill="#000000">PDI::Expression::Impl</text>
<text text-anchor="middle" x="224.5" y="-31.5" font-family="Helvetica,sans-Serif" font-size="10.00" fill="#000000">::to_string</text>
</a>
</g>
</g>
<!-- Node38&#45;&gt;Node39 -->
<g id="edge1" class="edge">
<title>Node38&#45;&gt;Node39</title>
<path fill="none" stroke="#191970" d="M141.199,-39.5C149.8556,-39.5 158.5723,-39.5 166.9375,-39.5"/>
<polygon fill="#191970" stroke="#191970" points="141.0894,-36.0001 131.0894,-39.5 141.0893,-43.0001 141.0894,-36.0001"/>
</g>
<!-- Node40 -->
<g id="node3" class="node">
<title>Node40</title>
<g id="a_node3"><a xlink:href="structPDI_1_1Expression_1_1Impl_1_1String__literal.html#ac31ab4b930758f76e848a25f595a85ff" target="_top" xlink:title="PDI::Expression::Impl\l::String_literal::to_long">
<polygon fill="#ffffff" stroke="#000000" points="318,-49.5 318,-79.5 438,-79.5 438,-49.5 318,-49.5"/>
<text text-anchor="start" x="326" y="-67.5" font-family="Helvetica,sans-Serif" font-size="10.00" fill="#000000">PDI::Expression::Impl</text>
<text text-anchor="middle" x="378" y="-56.5" font-family="Helvetica,sans-Serif" font-size="10.00" fill="#000000">::String_literal::to_long</text>
</a>
</g>
</g>
<!-- Node39&#45;&gt;Node40 -->
<g id="edge2" class="edge">
<title>Node39&#45;&gt;Node40</title>
<path fill="none" stroke="#191970" d="M292.0514,-50.5019C300.6162,-51.8968 309.336,-53.3169 317.7759,-54.6915"/>
<polygon fill="#191970" stroke="#191970" points="292.5271,-47.0333 282.0945,-48.8802 291.4018,-53.9423 292.5271,-47.0333"/>
</g>
<!-- Node41 -->
<g id="node4" class="node">
<title>Node41</title>
<g id="a_node4"><a xlink:href="structPDI_1_1Expression_1_1Impl_1_1String__literal.html#aa328553949cd16ded5d46d31a88e1d1e" target="_top" xlink:title="PDI::Expression::Impl\l::String_literal::to_ref">
<polygon fill="#ffffff" stroke="#000000" points="320.5,-.5 320.5,-30.5 435.5,-30.5 435.5,-.5 320.5,-.5"/>
<text text-anchor="start" x="328.5" y="-18.5" font-family="Helvetica,sans-Serif" font-size="10.00" fill="#000000">PDI::Expression::Impl</text>
<text text-anchor="middle" x="378" y="-7.5" font-family="Helvetica,sans-Serif" font-size="10.00" fill="#000000">::String_literal::to_ref</text>
</a>
</g>
</g>
<!-- Node39&#45;&gt;Node41 -->
<g id="edge3" class="edge">
<title>Node39&#45;&gt;Node41</title>
<path fill="none" stroke="#191970" d="M292.186,-28.9172C301.5775,-27.4488 311.1525,-25.9517 320.3381,-24.5155"/>
<polygon fill="#191970" stroke="#191970" points="291.4337,-25.4922 282.0945,-30.495 292.5151,-32.4082 291.4337,-25.4922"/>
</g>
</g>
</svg>
