<?xml version="1.0" encoding="UTF-8" standalone="no"?>
<!DOCTYPE svg PUBLIC "-//W3C//DTD SVG 1.1//EN"
 "http://www.w3.org/Graphics/SVG/1.1/DTD/svg11.dtd">
<!-- Generated by graphviz version 2.40.1 (20161225.0304)
 -->
<!-- Title: PDI::Ref_base::do_copy Pages: 1 -->
<svg width="291pt" height="104pt"
 viewBox="0.00 0.00 291.00 104.00" xmlns="http://www.w3.org/2000/svg" xmlns:xlink="http://www.w3.org/1999/xlink">
<g id="graph0" class="graph" transform="scale(1 1) rotate(0) translate(4 100)">
<title>PDI::Ref_base::do_copy</title>
<polygon fill="#ffffff" stroke="transparent" points="-4,4 -4,-100 287,-100 287,4 -4,4"/>
<!-- Node6 -->
<g id="node1" class="node">
<title>Node6</title>
<polygon fill="#bfbfbf" stroke="#000000" points="0,-38.5 0,-57.5 128,-57.5 128,-38.5 0,-38.5"/>
<text text-anchor="middle" x="64" y="-45.5" font-family="Helvetica,sans-Serif" font-size="10.00" fill="#000000">PDI::Ref_base::do_copy</text>
</g>
<!-- Node7 -->
<g id="node2" class="node">
<title>Node7</title>
<g id="a_node2"><a xlink:href="classPDI_1_1Ref__base.html#a1294f5b1c0565f6171d23c311c18e3e7" target="_top" xlink:title="PDI::Ref_base::type">
<polygon fill="#ffffff" stroke="#000000" points="169.5,-76.5 169.5,-95.5 277.5,-95.5 277.5,-76.5 169.5,-76.5"/>
<text text-anchor="middle" x="223.5" y="-83.5" font-family="Helvetica,sans-Serif" font-size="10.00" fill="#000000">PDI::Ref_base::type</text>
</a>
</g>
</g>
<!-- Node6&#45;&gt;Node7 -->
<g id="edge1" class="edge">
<title>Node6&#45;&gt;Node7</title>
<path fill="none" stroke="#191970" d="M104.2486,-57.589C125.2963,-62.6035 151.2552,-68.7881 173.5734,-74.1053"/>
<polygon fill="#191970" stroke="#191970" points="173.0019,-77.567 183.5408,-76.4799 174.6243,-70.7576 173.0019,-77.567"/>
</g>
<!-- Node8 -->
<g id="node3" class="node">
<title>Node8</title>
<g id="a_node3"><a xlink:href="classPDI_1_1Ref__any.html#ad8d6851233a405e0e1c27d2e762c6cb9" target="_top" xlink:title="PDI::Ref_any::get">
<polygon fill="#ffffff" stroke="#000000" points="174.5,-38.5 174.5,-57.5 272.5,-57.5 272.5,-38.5 174.5,-38.5"/>
<text text-anchor="middle" x="223.5" y="-45.5" font-family="Helvetica,sans-Serif" font-size="10.00" fill="#000000">PDI::Ref_any::get</text>
</a>
</g>
</g>
<!-- Node6&#45;&gt;Node8 -->
<g id="edge2" class="edge">
<title>Node6&#45;&gt;Node8</title>
<path fill="none" stroke="#191970" d="M128.415,-48C140.1843,-48 152.4166,-48 164.0338,-48"/>
<polygon fill="#191970" stroke="#191970" points="164.0575,-51.5001 174.0574,-48 164.0574,-44.5001 164.0575,-51.5001"/>
</g>
<!-- Node9 -->
<g id="node4" class="node">
<title>Node9</title>
<g id="a_node4"><a xlink:href="classPDI_1_1Datatype.html#a565e585893035b39f95520543cea49de" target="_top" xlink:title="PDI::Datatype::densify">
<polygon fill="#ffffff" stroke="#000000" points="164,-.5 164,-19.5 283,-19.5 283,-.5 164,-.5"/>
<text text-anchor="middle" x="223.5" y="-7.5" font-family="Helvetica,sans-Serif" font-size="10.00" fill="#000000">PDI::Datatype::densify</text>
</a>
</g>
</g>
<!-- Node6&#45;&gt;Node9 -->
<g id="edge3" class="edge">
<title>Node6&#45;&gt;Node9</title>
<path fill="none" stroke="#191970" d="M104.2486,-38.411C125.2963,-33.3965 151.2552,-27.2119 173.5734,-21.8947"/>
<polygon fill="#191970" stroke="#191970" points="174.6243,-25.2424 183.5408,-19.5201 173.0019,-18.433 174.6243,-25.2424"/>
</g>
</g>
</svg>
