<?xml version="1.0" encoding="UTF-8" standalone="no"?>
<!DOCTYPE svg PUBLIC "-//W3C//DTD SVG 1.1//EN"
 "http://www.w3.org/Graphics/SVG/1.1/DTD/svg11.dtd">
<!-- Generated by graphviz version 2.40.1 (20161225.0304)
 -->
<!-- Title: PDI::Data_descriptor::share Pages: 1 -->
<svg width="289pt" height="192pt"
 viewBox="0.00 0.00 289.00 191.50" xmlns="http://www.w3.org/2000/svg" xmlns:xlink="http://www.w3.org/1999/xlink">
<g id="graph0" class="graph" transform="scale(1 1) rotate(0) translate(4 187.5)">
<title>PDI::Data_descriptor::share</title>
<polygon fill="#ffffff" stroke="transparent" points="-4,4 -4,-187.5 285,-187.5 285,4 -4,4"/>
<!-- Node60 -->
<g id="node1" class="node">
<title>Node60</title>
<polygon fill="#bfbfbf" stroke="#000000" points="0,-71 0,-101 114,-101 114,-71 0,-71"/>
<text text-anchor="start" x="8" y="-89" font-family="Helvetica,sans-Serif" font-size="10.00" fill="#000000">PDI::Data_descriptor</text>
<text text-anchor="middle" x="57" y="-78" font-family="Helvetica,sans-Serif" font-size="10.00" fill="#000000">::share</text>
</g>
<!-- Node61 -->
<g id="node2" class="node">
<title>Node61</title>
<g id="a_node2"><a xlink:href="classPDI_1_1Data__descriptor.html#a4f68c4d432519377da35df709ca56125" target="_top" xlink:title="PDI::Data_descriptor\l::metadata">
<polygon fill="#ffffff" stroke="#000000" points="158.5,-153 158.5,-183 272.5,-183 272.5,-153 158.5,-153"/>
<text text-anchor="start" x="166.5" y="-171" font-family="Helvetica,sans-Serif" font-size="10.00" fill="#000000">PDI::Data_descriptor</text>
<text text-anchor="middle" x="215.5" y="-160" font-family="Helvetica,sans-Serif" font-size="10.00" fill="#000000">::metadata</text>
</a>
</g>
</g>
<!-- Node60&#45;&gt;Node61 -->
<g id="edge1" class="edge">
<title>Node60&#45;&gt;Node61</title>
<path fill="none" stroke="#191970" d="M78.8904,-101.0208C97.3311,-113.2777 124.6821,-130.5434 150,-143 154.2798,-145.1057 158.7842,-147.1525 163.344,-149.1092"/>
<polygon fill="#191970" stroke="#191970" points="162.149,-152.4024 172.7276,-152.9888 164.8236,-145.9335 162.149,-152.4024"/>
</g>
<!-- Node62 -->
<g id="node3" class="node">
<title>Node62</title>
<g id="a_node3"><a xlink:href="classPDI_1_1Ref__any.html#ad8d6851233a405e0e1c27d2e762c6cb9" target="_top" xlink:title="PDI::Ref_any::get">
<polygon fill="#ffffff" stroke="#000000" points="166.5,-114.5 166.5,-133.5 264.5,-133.5 264.5,-114.5 166.5,-114.5"/>
<text text-anchor="middle" x="215.5" y="-121.5" font-family="Helvetica,sans-Serif" font-size="10.00" fill="#000000">PDI::Ref_any::get</text>
</a>
</g>
</g>
<!-- Node60&#45;&gt;Node62 -->
<g id="edge2" class="edge">
<title>Node60&#45;&gt;Node62</title>
<path fill="none" stroke="#191970" d="M114.2221,-99.7189C131.1115,-103.7681 149.4508,-108.1649 165.8239,-112.0903"/>
<polygon fill="#191970" stroke="#191970" points="165.1934,-115.5382 175.7339,-114.4662 166.8255,-108.7311 165.1934,-115.5382"/>
</g>
<!-- Node63 -->
<g id="node4" class="node">
<title>Node63</title>
<g id="a_node4"><a xlink:href="classPDI_1_1Data__descriptor.html#a518b9fd7e942a742ac75c4537bc677a8" target="_top" xlink:title="PDI::Data_descriptor::ref">
<polygon fill="#ffffff" stroke="#000000" points="150,-76.5 150,-95.5 281,-95.5 281,-76.5 150,-76.5"/>
<text text-anchor="middle" x="215.5" y="-83.5" font-family="Helvetica,sans-Serif" font-size="10.00" fill="#000000">PDI::Data_descriptor::ref</text>
</a>
</g>
</g>
<!-- Node60&#45;&gt;Node63 -->
<g id="edge3" class="edge">
<title>Node60&#45;&gt;Node63</title>
<path fill="none" stroke="#191970" d="M114.2221,-86C122.5075,-86 131.1418,-86 139.7217,-86"/>
<polygon fill="#191970" stroke="#191970" points="139.7447,-89.5001 149.7446,-86 139.7446,-82.5001 139.7447,-89.5001"/>
</g>
<!-- Node64 -->
<g id="node5" class="node">
<title>Node64</title>
<g id="a_node5"><a xlink:href="classPDI_1_1Error.html#a96f2da1344848f7862d6d4227ba7c82a" target="_top" xlink:title="PDI::Error::status">
<polygon fill="#ffffff" stroke="#000000" points="168,-38.5 168,-57.5 263,-57.5 263,-38.5 168,-38.5"/>
<text text-anchor="middle" x="215.5" y="-45.5" font-family="Helvetica,sans-Serif" font-size="10.00" fill="#000000">PDI::Error::status</text>
</a>
</g>
</g>
<!-- Node60&#45;&gt;Node64 -->
<g id="edge4" class="edge">
<title>Node60&#45;&gt;Node64</title>
<path fill="none" stroke="#191970" d="M114.2221,-72.2811C131.1115,-68.2319 149.4508,-63.8351 165.8239,-59.9097"/>
<polygon fill="#191970" stroke="#191970" points="166.8255,-63.2689 175.7339,-57.5338 165.1934,-56.4618 166.8255,-63.2689"/>
</g>
<!-- Node65 -->
<g id="node6" class="node">
<title>Node65</title>
<g id="a_node6"><a xlink:href="classPDI_1_1Error.html#aca3b34b8350235c8455bfe56236c4454" target="_top" xlink:title="PDI::Error::what">
<polygon fill="#ffffff" stroke="#000000" points="171,-.5 171,-19.5 260,-19.5 260,-.5 171,-.5"/>
<text text-anchor="middle" x="215.5" y="-7.5" font-family="Helvetica,sans-Serif" font-size="10.00" fill="#000000">PDI::Error::what</text>
</a>
</g>
</g>
<!-- Node60&#45;&gt;Node65 -->
<g id="edge5" class="edge">
<title>Node60&#45;&gt;Node65</title>
<path fill="none" stroke="#191970" d="M77.9015,-70.932C96.1884,-58.3122 123.8448,-40.5578 150,-29 155.1443,-26.7268 160.6345,-24.643 166.1653,-22.7567"/>
<polygon fill="#191970" stroke="#191970" points="167.6421,-25.9589 176.0984,-19.5762 165.5074,-19.2924 167.6421,-25.9589"/>
</g>
</g>
</svg>
