<?xml version="1.0" encoding="UTF-8" standalone="no"?>
<!DOCTYPE svg PUBLIC "-//W3C//DTD SVG 1.1//EN"
 "http://www.w3.org/Graphics/SVG/1.1/DTD/svg11.dtd">
<!-- Generated by graphviz version 2.40.1 (20161225.0304)
 -->
<!-- Title: PDI::Scalar_datatype::clone_type Pages: 1 -->
<svg width="276pt" height="137pt"
 viewBox="0.00 0.00 276.00 137.00" xmlns="http://www.w3.org/2000/svg" xmlns:xlink="http://www.w3.org/1999/xlink">
<g id="graph0" class="graph" transform="scale(1 1) rotate(0) translate(4 133)">
<title>PDI::Scalar_datatype::clone_type</title>
<polygon fill="#ffffff" stroke="transparent" points="-4,4 -4,-133 272,-133 272,4 -4,4"/>
<!-- Node14 -->
<g id="node1" class="node">
<title>Node14</title>
<polygon fill="#bfbfbf" stroke="#000000" points="0,-49.5 0,-79.5 116,-79.5 116,-49.5 0,-49.5"/>
<text text-anchor="start" x="8" y="-67.5" font-family="Helvetica,sans-Serif" font-size="10.00" fill="#000000">PDI::Scalar_datatype</text>
<text text-anchor="middle" x="58" y="-56.5" font-family="Helvetica,sans-Serif" font-size="10.00" fill="#000000">::clone_type</text>
</g>
<!-- Node15 -->
<g id="node2" class="node">
<title>Node15</title>
<g id="a_node2"><a xlink:href="classPDI_1_1Data__descriptor.html#adf2c3cb662419e173ab00901368a6a4c" target="_top" xlink:title="PDI::Data_descriptor\l::Data_descriptor">
<polygon fill="#ffffff" stroke="#000000" points="153,-98.5 153,-128.5 267,-128.5 267,-98.5 153,-98.5"/>
<text text-anchor="start" x="161" y="-116.5" font-family="Helvetica,sans-Serif" font-size="10.00" fill="#000000">PDI::Data_descriptor</text>
<text text-anchor="middle" x="210" y="-105.5" font-family="Helvetica,sans-Serif" font-size="10.00" fill="#000000">::Data_descriptor</text>
</a>
</g>
</g>
<!-- Node14&#45;&gt;Node15 -->
<g id="edge1" class="edge">
<title>Node14&#45;&gt;Node15</title>
<path fill="none" stroke="#191970" d="M114.6404,-82.7591C130.6723,-87.9273 147.9357,-93.4924 163.3094,-98.4484"/>
<polygon fill="#191970" stroke="#191970" points="115.4369,-79.3385 104.8453,-79.6014 113.2891,-86.0009 115.4369,-79.3385"/>
</g>
<!-- Node16 -->
<g id="node3" class="node">
<title>Node16</title>
<g id="a_node3"><a xlink:href="classPDI_1_1Scalar__datatype.html#a8f929d17ea26d91d1de5b17aa3654b38" target="_top" xlink:title="PDI::Scalar_datatype\l::clone">
<polygon fill="#ffffff" stroke="#000000" points="152,-49.5 152,-79.5 268,-79.5 268,-49.5 152,-49.5"/>
<text text-anchor="start" x="160" y="-67.5" font-family="Helvetica,sans-Serif" font-size="10.00" fill="#000000">PDI::Scalar_datatype</text>
<text text-anchor="middle" x="210" y="-56.5" font-family="Helvetica,sans-Serif" font-size="10.00" fill="#000000">::clone</text>
</a>
</g>
</g>
<!-- Node14&#45;&gt;Node16 -->
<g id="edge2" class="edge">
<title>Node14&#45;&gt;Node16</title>
<path fill="none" stroke="#191970" d="M126.5423,-64.5C134.9862,-64.5 143.5541,-64.5 151.8236,-64.5"/>
<polygon fill="#191970" stroke="#191970" points="126.3325,-61.0001 116.3325,-64.5 126.3324,-68.0001 126.3325,-61.0001"/>
</g>
<!-- Node17 -->
<g id="node4" class="node">
<title>Node17</title>
<g id="a_node4"><a xlink:href="classPDI_1_1Scalar__datatype.html#afffe6f77d615f1d570607758a62722bd" target="_top" xlink:title="PDI::Scalar_datatype\l::evaluate">
<polygon fill="#ffffff" stroke="#000000" points="152,-.5 152,-30.5 268,-30.5 268,-.5 152,-.5"/>
<text text-anchor="start" x="160" y="-18.5" font-family="Helvetica,sans-Serif" font-size="10.00" fill="#000000">PDI::Scalar_datatype</text>
<text text-anchor="middle" x="210" y="-7.5" font-family="Helvetica,sans-Serif" font-size="10.00" fill="#000000">::evaluate</text>
</a>
</g>
</g>
<!-- Node14&#45;&gt;Node17 -->
<g id="edge3" class="edge">
<title>Node14&#45;&gt;Node17</title>
<path fill="none" stroke="#191970" d="M114.6404,-46.2409C130.6723,-41.0727 147.9357,-35.5076 163.3094,-30.5516"/>
<polygon fill="#191970" stroke="#191970" points="113.2891,-42.9991 104.8453,-49.3986 115.4369,-49.6615 113.2891,-42.9991"/>
</g>
</g>
</svg>
