<?xml version="1.0" encoding="UTF-8" standalone="no"?>
<!DOCTYPE svg PUBLIC "-//W3C//DTD SVG 1.1//EN"
 "http://www.w3.org/Graphics/SVG/1.1/DTD/svg11.dtd">
<!-- Generated by graphviz version 2.40.1 (20161225.0304)
 -->
<!-- Title: PDI::Context::Context Pages: 1 -->
<svg width="240pt" height="66pt"
 viewBox="0.00 0.00 240.00 66.00" xmlns="http://www.w3.org/2000/svg" xmlns:xlink="http://www.w3.org/1999/xlink">
<g id="graph0" class="graph" transform="scale(1 1) rotate(0) translate(4 62)">
<title>PDI::Context::Context</title>
<polygon fill="#ffffff" stroke="transparent" points="-4,4 -4,-62 236,-62 236,4 -4,4"/>
<!-- Node4 -->
<g id="node1" class="node">
<title>Node4</title>
<polygon fill="#bfbfbf" stroke="#000000" points="0,-19.5 0,-38.5 116,-38.5 116,-19.5 0,-19.5"/>
<text text-anchor="middle" x="58" y="-26.5" font-family="Helvetica,sans-Serif" font-size="10.00" fill="#000000">PDI::Context::Context</text>
</g>
<!-- Node5 -->
<g id="node2" class="node">
<title>Node5</title>
<g id="a_node2"><a xlink:href="namespacePDI.html#a00f2173a7fb0dc37655e9e39756e135e" target="_top" xlink:title="PDI::len">
<polygon fill="#ffffff" stroke="#000000" points="165.5,-38.5 165.5,-57.5 218.5,-57.5 218.5,-38.5 165.5,-38.5"/>
<text text-anchor="middle" x="192" y="-45.5" font-family="Helvetica,sans-Serif" font-size="10.00" fill="#000000">PDI::len</text>
</a>
</g>
</g>
<!-- Node4&#45;&gt;Node5 -->
<g id="edge1" class="edge">
<title>Node4&#45;&gt;Node5</title>
<path fill="none" stroke="#191970" d="M116.3845,-37.2784C129.5854,-39.1502 143.2399,-41.0863 155.2522,-42.7895"/>
<polygon fill="#191970" stroke="#191970" points="154.9408,-46.2803 165.3331,-44.2189 155.9235,-39.3496 154.9408,-46.2803"/>
</g>
<!-- Node6 -->
<g id="node3" class="node">
<title>Node6</title>
<g id="a_node3"><a xlink:href="namespacePDI.html#ac2afdb3c131681f8a4726000547d72af" target="_top" xlink:title="PDI::to_string">
<polygon fill="#ffffff" stroke="#000000" points="152,-.5 152,-19.5 232,-19.5 232,-.5 152,-.5"/>
<text text-anchor="middle" x="192" y="-7.5" font-family="Helvetica,sans-Serif" font-size="10.00" fill="#000000">PDI::to_string</text>
</a>
</g>
</g>
<!-- Node4&#45;&gt;Node6 -->
<g id="edge2" class="edge">
<title>Node4&#45;&gt;Node6</title>
<path fill="none" stroke="#191970" d="M116.3845,-20.7216C124.9085,-19.513 133.6216,-18.2775 141.9596,-17.0953"/>
<polygon fill="#191970" stroke="#191970" points="142.4966,-20.5542 151.9062,-15.6849 141.5139,-13.6236 142.4966,-20.5542"/>
</g>
</g>
</svg>
