<?xml version="1.0" encoding="UTF-8" standalone="no"?>
<!DOCTYPE svg PUBLIC "-//W3C//DTD SVG 1.1//EN"
 "http://www.w3.org/Graphics/SVG/1.1/DTD/svg11.dtd">
<!-- Generated by graphviz version 2.40.1 (20161225.0304)
 -->
<!-- Title: PDI::Scalar_datatype::kind Pages: 1 -->
<svg width="276pt" height="39pt"
 viewBox="0.00 0.00 276.00 39.00" xmlns="http://www.w3.org/2000/svg" xmlns:xlink="http://www.w3.org/1999/xlink">
<g id="graph0" class="graph" transform="scale(1 1) rotate(0) translate(4 35)">
<title>PDI::Scalar_datatype::kind</title>
<polygon fill="#ffffff" stroke="transparent" points="-4,4 -4,-35 272,-35 272,4 -4,4"/>
<!-- Node28 -->
<g id="node1" class="node">
<title>Node28</title>
<polygon fill="#bfbfbf" stroke="#000000" points="0,-.5 0,-30.5 116,-30.5 116,-.5 0,-.5"/>
<text text-anchor="start" x="8" y="-18.5" font-family="Helvetica,sans-Serif" font-size="10.00" fill="#000000">PDI::Scalar_datatype</text>
<text text-anchor="middle" x="58" y="-7.5" font-family="Helvetica,sans-Serif" font-size="10.00" fill="#000000">::kind</text>
</g>
<!-- Node29 -->
<g id="node2" class="node">
<title>Node29</title>
<g id="a_node2"><a xlink:href="classPDI_1_1Scalar__datatype.html#a2236114e142dc884965d2b45aae45c62" target="_top" xlink:title="PDI::Scalar_datatype\l::Scalar_datatype">
<polygon fill="#ffffff" stroke="#000000" points="152,-.5 152,-30.5 268,-30.5 268,-.5 152,-.5"/>
<text text-anchor="start" x="160" y="-18.5" font-family="Helvetica,sans-Serif" font-size="10.00" fill="#000000">PDI::Scalar_datatype</text>
<text text-anchor="middle" x="210" y="-7.5" font-family="Helvetica,sans-Serif" font-size="10.00" fill="#000000">::Scalar_datatype</text>
</a>
</g>
</g>
<!-- Node28&#45;&gt;Node29 -->
<g id="edge1" class="edge">
<title>Node28&#45;&gt;Node29</title>
<path fill="none" stroke="#191970" d="M126.5423,-15.5C134.9862,-15.5 143.5541,-15.5 151.8236,-15.5"/>
<polygon fill="#191970" stroke="#191970" points="126.3325,-12.0001 116.3325,-15.5 126.3324,-19.0001 126.3325,-12.0001"/>
</g>
</g>
</svg>
