<?xml version="1.0" encoding="UTF-8" standalone="no"?>
<!DOCTYPE svg PUBLIC "-//W3C//DTD SVG 1.1//EN"
 "http://www.w3.org/Graphics/SVG/1.1/DTD/svg11.dtd">
<!-- Generated by graphviz version 2.40.1 (20161225.0304)
 -->
<!-- Title: PDI::Array_datatype::Array_datatype Pages: 1 -->
<svg width="266pt" height="137pt"
 viewBox="0.00 0.00 266.00 137.00" xmlns="http://www.w3.org/2000/svg" xmlns:xlink="http://www.w3.org/1999/xlink">
<g id="graph0" class="graph" transform="scale(1 1) rotate(0) translate(4 133)">
<title>PDI::Array_datatype::Array_datatype</title>
<polygon fill="#ffffff" stroke="transparent" points="-4,4 -4,-133 262,-133 262,4 -4,4"/>
<!-- Node0 -->
<g id="node1" class="node">
<title>Node0</title>
<polygon fill="#bfbfbf" stroke="#000000" points="0,-49.5 0,-79.5 111,-79.5 111,-49.5 0,-49.5"/>
<text text-anchor="start" x="8" y="-67.5" font-family="Helvetica,sans-Serif" font-size="10.00" fill="#000000">PDI::Array_datatype</text>
<text text-anchor="middle" x="55.5" y="-56.5" font-family="Helvetica,sans-Serif" font-size="10.00" fill="#000000">::Array_datatype</text>
</g>
<!-- Node1 -->
<g id="node2" class="node">
<title>Node1</title>
<g id="a_node2"><a xlink:href="classPDI_1_1Array__datatype.html#a26b0a7a4a180e1135846627372ed9589" target="_top" xlink:title="PDI::Array_datatype\l::size">
<polygon fill="#ffffff" stroke="#000000" points="147,-98.5 147,-128.5 258,-128.5 258,-98.5 147,-98.5"/>
<text text-anchor="start" x="155" y="-116.5" font-family="Helvetica,sans-Serif" font-size="10.00" fill="#000000">PDI::Array_datatype</text>
<text text-anchor="middle" x="202.5" y="-105.5" font-family="Helvetica,sans-Serif" font-size="10.00" fill="#000000">::size</text>
</a>
</g>
</g>
<!-- Node0&#45;&gt;Node1 -->
<g id="edge1" class="edge">
<title>Node0&#45;&gt;Node1</title>
<path fill="none" stroke="#191970" d="M100.8043,-79.6014C115.5442,-84.5147 132.0672,-90.0224 147.4398,-95.1466"/>
<polygon fill="#191970" stroke="#191970" points="146.7516,-98.6065 157.3453,-98.4484 148.9653,-91.9657 146.7516,-98.6065"/>
</g>
<!-- Node2 -->
<g id="node3" class="node">
<title>Node2</title>
<g id="a_node3"><a xlink:href="classPDI_1_1Array__datatype.html#ac8bc6acc7335a71d63e1a19f2227d2f9" target="_top" xlink:title="PDI::Array_datatype\l::start">
<polygon fill="#ffffff" stroke="#000000" points="147,-49.5 147,-79.5 258,-79.5 258,-49.5 147,-49.5"/>
<text text-anchor="start" x="155" y="-67.5" font-family="Helvetica,sans-Serif" font-size="10.00" fill="#000000">PDI::Array_datatype</text>
<text text-anchor="middle" x="202.5" y="-56.5" font-family="Helvetica,sans-Serif" font-size="10.00" fill="#000000">::start</text>
</a>
</g>
</g>
<!-- Node0&#45;&gt;Node2 -->
<g id="edge2" class="edge">
<title>Node0&#45;&gt;Node2</title>
<path fill="none" stroke="#191970" d="M111.0744,-64.5C119.4894,-64.5 128.2383,-64.5 136.8421,-64.5"/>
<polygon fill="#191970" stroke="#191970" points="136.8471,-68.0001 146.847,-64.5 136.847,-61.0001 136.8471,-68.0001"/>
</g>
<!-- Node3 -->
<g id="node4" class="node">
<title>Node3</title>
<g id="a_node4"><a xlink:href="classPDI_1_1Array__datatype.html#ab50be2accef49e18e36c9ac96d196a04" target="_top" xlink:title="PDI::Array_datatype\l::subsize">
<polygon fill="#ffffff" stroke="#000000" points="147,-.5 147,-30.5 258,-30.5 258,-.5 147,-.5"/>
<text text-anchor="start" x="155" y="-18.5" font-family="Helvetica,sans-Serif" font-size="10.00" fill="#000000">PDI::Array_datatype</text>
<text text-anchor="middle" x="202.5" y="-7.5" font-family="Helvetica,sans-Serif" font-size="10.00" fill="#000000">::subsize</text>
</a>
</g>
</g>
<!-- Node0&#45;&gt;Node3 -->
<g id="edge3" class="edge">
<title>Node0&#45;&gt;Node3</title>
<path fill="none" stroke="#191970" d="M100.8043,-49.3986C115.5442,-44.4853 132.0672,-38.9776 147.4398,-33.8534"/>
<polygon fill="#191970" stroke="#191970" points="148.9653,-37.0343 157.3453,-30.5516 146.7516,-30.3935 148.9653,-37.0343"/>
</g>
</g>
</svg>
