<?xml version="1.0" encoding="UTF-8" standalone="no"?>
<!DOCTYPE svg PUBLIC "-//W3C//DTD SVG 1.1//EN"
 "http://www.w3.org/Graphics/SVG/1.1/DTD/svg11.dtd">
<!-- Generated by graphviz version 2.40.1 (20161225.0304)
 -->
<!-- Title: PDI::Data_descriptor::ref Pages: 1 -->
<svg width="439pt" height="176pt"
 viewBox="0.00 0.00 439.00 175.50" xmlns="http://www.w3.org/2000/svg" xmlns:xlink="http://www.w3.org/1999/xlink">
<g id="graph0" class="graph" transform="scale(1 1) rotate(0) translate(4 171.5)">
<title>PDI::Data_descriptor::ref</title>
<polygon fill="#ffffff" stroke="transparent" points="-4,4 -4,-171.5 435,-171.5 435,4 -4,4"/>
<!-- Node47 -->
<g id="node1" class="node">
<title>Node47</title>
<polygon fill="#bfbfbf" stroke="#000000" points="0,-68.5 0,-87.5 131,-87.5 131,-68.5 0,-68.5"/>
<text text-anchor="middle" x="65.5" y="-75.5" font-family="Helvetica,sans-Serif" font-size="10.00" fill="#000000">PDI::Data_descriptor::ref</text>
</g>
<!-- Node48 -->
<g id="node2" class="node">
<title>Node48</title>
<g id="a_node2"><a xlink:href="classPDI_1_1Data__descriptor.html#ad96a445e91ce85ffc2d7c837f138b28c" target="_top" xlink:title="PDI::Data_descriptor\l::share">
<polygon fill="#ffffff" stroke="#000000" points="167,-137 167,-167 281,-167 281,-137 167,-137"/>
<text text-anchor="start" x="175" y="-155" font-family="Helvetica,sans-Serif" font-size="10.00" fill="#000000">PDI::Data_descriptor</text>
<text text-anchor="middle" x="224" y="-144" font-family="Helvetica,sans-Serif" font-size="10.00" fill="#000000">::share</text>
</a>
</g>
</g>
<!-- Node47&#45;&gt;Node48 -->
<g id="edge1" class="edge">
<title>Node47&#45;&gt;Node48</title>
<path fill="none" stroke="#191970" d="M93.0416,-92.1172C113.3389,-102.3861 141.699,-116.4539 167,-128 173.5447,-130.9867 180.568,-134.0539 187.371,-136.955"/>
<polygon fill="#191970" stroke="#191970" points="94.5498,-88.9576 84.049,-87.5492 91.3795,-95.1986 94.5498,-88.9576"/>
</g>
<!-- Node49 -->
<g id="node3" class="node">
<title>Node49</title>
<g id="a_node3"><a xlink:href="classPDI_1_1Data__descriptor.html#a1f20afe7938a747f545a6809ce115fd0" target="_top" xlink:title="PDI::Data_descriptor\l::release">
<polygon fill="#ffffff" stroke="#000000" points="167,-88 167,-118 281,-118 281,-88 167,-88"/>
<text text-anchor="start" x="175" y="-106" font-family="Helvetica,sans-Serif" font-size="10.00" fill="#000000">PDI::Data_descriptor</text>
<text text-anchor="middle" x="224" y="-95" font-family="Helvetica,sans-Serif" font-size="10.00" fill="#000000">::release</text>
</a>
</g>
</g>
<!-- Node47&#45;&gt;Node49 -->
<g id="edge2" class="edge">
<title>Node47&#45;&gt;Node49</title>
<path fill="none" stroke="#191970" d="M135.775,-89.0844C146.1935,-90.7277 156.8216,-92.404 166.9266,-93.9979"/>
<polygon fill="#191970" stroke="#191970" points="136.2974,-85.6236 125.8742,-87.5227 135.2068,-92.5381 136.2974,-85.6236"/>
</g>
<!-- Node50 -->
<g id="node4" class="node">
<title>Node50</title>
<g id="a_node4"><a xlink:href="classPDI_1_1Data__descriptor.html#ae01594aac136d2ca58e4c34cb9112c7c" target="_top" xlink:title="PDI::Data_descriptor\l::reclaim">
<polygon fill="#ffffff" stroke="#000000" points="167,-39 167,-69 281,-69 281,-39 167,-39"/>
<text text-anchor="start" x="175" y="-57" font-family="Helvetica,sans-Serif" font-size="10.00" fill="#000000">PDI::Data_descriptor</text>
<text text-anchor="middle" x="224" y="-46" font-family="Helvetica,sans-Serif" font-size="10.00" fill="#000000">::reclaim</text>
</a>
</g>
</g>
<!-- Node47&#45;&gt;Node50 -->
<g id="edge3" class="edge">
<title>Node47&#45;&gt;Node50</title>
<path fill="none" stroke="#191970" d="M138.7379,-66.9104C148.1461,-65.4858 157.668,-64.044 166.7691,-62.6659"/>
<polygon fill="#191970" stroke="#191970" points="137.9621,-63.4878 128.5988,-68.4456 139.0101,-70.4089 137.9621,-63.4878"/>
</g>
<!-- Node52 -->
<g id="node6" class="node">
<title>Node52</title>
<g id="a_node6"><a xlink:href="pdi_8cxx.html#a8dcd0c81d7697ea473a55bd57efb717d" target="_top" xlink:title="PDI_access">
<polygon fill="#ffffff" stroke="#000000" points="187.5,-.5 187.5,-19.5 260.5,-19.5 260.5,-.5 187.5,-.5"/>
<text text-anchor="middle" x="224" y="-7.5" font-family="Helvetica,sans-Serif" font-size="10.00" fill="#000000">PDI_access</text>
</a>
</g>
</g>
<!-- Node47&#45;&gt;Node52 -->
<g id="edge5" class="edge">
<title>Node47&#45;&gt;Node52</title>
<path fill="none" stroke="#191970" d="M93.2758,-63.9026C113.4803,-53.8856 141.6264,-40.418 167,-30 175.9253,-26.3354 185.7971,-22.7217 194.7824,-19.5957"/>
<polygon fill="#191970" stroke="#191970" points="91.6995,-60.7775 84.3165,-68.3763 94.8267,-67.0402 91.6995,-60.7775"/>
</g>
<!-- Node51 -->
<g id="node5" class="node">
<title>Node51</title>
<g id="a_node5"><a xlink:href="classPDI_1_1Data__descriptor.html#ad4beb5d1669377ebe722ffb85e0f7951" target="_top" xlink:title="PDI::Data_descriptor\l::~Data_descriptor">
<polygon fill="#ffffff" stroke="#000000" points="317,-39 317,-69 431,-69 431,-39 317,-39"/>
<text text-anchor="start" x="325" y="-57" font-family="Helvetica,sans-Serif" font-size="10.00" fill="#000000">PDI::Data_descriptor</text>
<text text-anchor="middle" x="374" y="-46" font-family="Helvetica,sans-Serif" font-size="10.00" fill="#000000">::~Data_descriptor</text>
</a>
</g>
</g>
<!-- Node50&#45;&gt;Node51 -->
<g id="edge4" class="edge">
<title>Node50&#45;&gt;Node51</title>
<path fill="none" stroke="#191970" d="M291.3106,-54C299.7284,-54 308.2768,-54 316.5255,-54"/>
<polygon fill="#191970" stroke="#191970" points="291.1365,-50.5001 281.1365,-54 291.1364,-57.5001 291.1365,-50.5001"/>
</g>
</g>
</svg>
