<?xml version="1.0" encoding="UTF-8" standalone="no"?>
<!DOCTYPE svg PUBLIC "-//W3C//DTD SVG 1.1//EN"
 "http://www.w3.org/Graphics/SVG/1.1/DTD/svg11.dtd">
<!-- Generated by graphviz version 2.40.1 (20161225.0304)
 -->
<!-- Title: PDI::Data_descriptor::metadata Pages: 1 -->
<svg width="422pt" height="208pt"
 viewBox="0.00 0.00 422.00 208.23" xmlns="http://www.w3.org/2000/svg" xmlns:xlink="http://www.w3.org/1999/xlink">
<g id="graph0" class="graph" transform="scale(1 1) rotate(0) translate(4 204.2342)">
<title>PDI::Data_descriptor::metadata</title>
<polygon fill="#ffffff" stroke="transparent" points="-4,4 -4,-204.2342 418,-204.2342 418,4 -4,4"/>
<!-- Node23 -->
<g id="node1" class="node">
<title>Node23</title>
<polygon fill="#bfbfbf" stroke="#000000" points="0,-98.5 0,-128.5 114,-128.5 114,-98.5 0,-98.5"/>
<text text-anchor="start" x="8" y="-116.5" font-family="Helvetica,sans-Serif" font-size="10.00" fill="#000000">PDI::Data_descriptor</text>
<text text-anchor="middle" x="57" y="-105.5" font-family="Helvetica,sans-Serif" font-size="10.00" fill="#000000">::metadata</text>
</g>
<!-- Node24 -->
<g id="node2" class="node">
<title>Node24</title>
<g id="a_node2"><a xlink:href="classPDI_1_1Data__descriptor.html#ad4beb5d1669377ebe722ffb85e0f7951" target="_top" xlink:title="PDI::Data_descriptor\l::~Data_descriptor">
<polygon fill="#ffffff" stroke="#000000" points="300,-95.5 300,-125.5 414,-125.5 414,-95.5 300,-95.5"/>
<text text-anchor="start" x="308" y="-113.5" font-family="Helvetica,sans-Serif" font-size="10.00" fill="#000000">PDI::Data_descriptor</text>
<text text-anchor="middle" x="357" y="-102.5" font-family="Helvetica,sans-Serif" font-size="10.00" fill="#000000">::~Data_descriptor</text>
</a>
</g>
</g>
<!-- Node23&#45;&gt;Node24 -->
<g id="edge1" class="edge">
<title>Node23&#45;&gt;Node24</title>
<path fill="none" stroke="#191970" d="M77.196,-136.4179C94.4882,-154.1798 121.1144,-177.4101 150,-187.5 197.8325,-204.2082 216.3322,-204.6724 264,-187.5 298.1174,-175.2092 328.5942,-144.3658 344.7703,-125.6578"/>
<polygon fill="#191970" stroke="#191970" points="79.338,-133.5873 69.9332,-128.7087 74.2429,-138.3874 79.338,-133.5873"/>
</g>
<!-- Node25 -->
<g id="node3" class="node">
<title>Node25</title>
<g id="a_node3"><a xlink:href="classPDI_1_1Data__descriptor.html#a0c7912d7fee489a4597acf80800ca5b2" target="_top" xlink:title="PDI::Data_descriptor\l::metadata">
<polygon fill="#ffffff" stroke="#000000" points="150,-147.5 150,-177.5 264,-177.5 264,-147.5 150,-147.5"/>
<text text-anchor="start" x="158" y="-165.5" font-family="Helvetica,sans-Serif" font-size="10.00" fill="#000000">PDI::Data_descriptor</text>
<text text-anchor="middle" x="207" y="-154.5" font-family="Helvetica,sans-Serif" font-size="10.00" fill="#000000">::metadata</text>
</a>
</g>
</g>
<!-- Node23&#45;&gt;Node25 -->
<g id="edge2" class="edge">
<title>Node23&#45;&gt;Node25</title>
<path fill="none" stroke="#191970" d="M112.8951,-131.7591C128.7161,-136.9273 145.7523,-142.4924 160.9237,-147.4484"/>
<polygon fill="#191970" stroke="#191970" points="113.8214,-128.3797 103.2289,-128.6014 111.6477,-135.0337 113.8214,-128.3797"/>
</g>
<!-- Node26 -->
<g id="node4" class="node">
<title>Node26</title>
<g id="a_node4"><a xlink:href="classPDI_1_1Data__descriptor.html#ad96a445e91ce85ffc2d7c837f138b28c" target="_top" xlink:title="PDI::Data_descriptor\l::share">
<polygon fill="#ffffff" stroke="#000000" points="150,-98.5 150,-128.5 264,-128.5 264,-98.5 150,-98.5"/>
<text text-anchor="start" x="158" y="-116.5" font-family="Helvetica,sans-Serif" font-size="10.00" fill="#000000">PDI::Data_descriptor</text>
<text text-anchor="middle" x="207" y="-105.5" font-family="Helvetica,sans-Serif" font-size="10.00" fill="#000000">::share</text>
</a>
</g>
</g>
<!-- Node23&#45;&gt;Node26 -->
<g id="edge3" class="edge">
<title>Node23&#45;&gt;Node26</title>
<path fill="none" stroke="#191970" d="M124.3106,-113.5C132.7284,-113.5 141.2768,-113.5 149.5255,-113.5"/>
<polygon fill="#191970" stroke="#191970" points="124.1365,-110.0001 114.1365,-113.5 124.1364,-117.0001 124.1365,-110.0001"/>
</g>
<!-- Node27 -->
<g id="node5" class="node">
<title>Node27</title>
<g id="a_node5"><a xlink:href="classPDI_1_1Data__descriptor.html#a1f20afe7938a747f545a6809ce115fd0" target="_top" xlink:title="PDI::Data_descriptor\l::release">
<polygon fill="#ffffff" stroke="#000000" points="150,-49.5 150,-79.5 264,-79.5 264,-49.5 150,-49.5"/>
<text text-anchor="start" x="158" y="-67.5" font-family="Helvetica,sans-Serif" font-size="10.00" fill="#000000">PDI::Data_descriptor</text>
<text text-anchor="middle" x="207" y="-56.5" font-family="Helvetica,sans-Serif" font-size="10.00" fill="#000000">::release</text>
</a>
</g>
</g>
<!-- Node23&#45;&gt;Node27 -->
<g id="edge4" class="edge">
<title>Node23&#45;&gt;Node27</title>
<path fill="none" stroke="#191970" d="M112.8951,-95.2409C128.7161,-90.0727 145.7523,-84.5076 160.9237,-79.5516"/>
<polygon fill="#191970" stroke="#191970" points="111.6477,-91.9663 103.2289,-98.3986 113.8214,-98.6203 111.6477,-91.9663"/>
</g>
<!-- Node28 -->
<g id="node6" class="node">
<title>Node28</title>
<g id="a_node6"><a xlink:href="classPDI_1_1Data__descriptor.html#ae01594aac136d2ca58e4c34cb9112c7c" target="_top" xlink:title="PDI::Data_descriptor\l::reclaim">
<polygon fill="#ffffff" stroke="#000000" points="150,-.5 150,-30.5 264,-30.5 264,-.5 150,-.5"/>
<text text-anchor="start" x="158" y="-18.5" font-family="Helvetica,sans-Serif" font-size="10.00" fill="#000000">PDI::Data_descriptor</text>
<text text-anchor="middle" x="207" y="-7.5" font-family="Helvetica,sans-Serif" font-size="10.00" fill="#000000">::reclaim</text>
</a>
</g>
</g>
<!-- Node23&#45;&gt;Node28 -->
<g id="edge5" class="edge">
<title>Node23&#45;&gt;Node28</title>
<path fill="none" stroke="#191970" d="M81.2722,-91.6569C99.3494,-76.1037 125.1061,-55.4023 150,-40.5 155.9338,-36.9479 162.4631,-33.6093 168.9195,-30.5995"/>
<polygon fill="#191970" stroke="#191970" points="78.7744,-89.1912 73.5376,-98.4013 83.3749,-94.4671 78.7744,-89.1912"/>
</g>
<!-- Node28&#45;&gt;Node24 -->
<g id="edge6" class="edge">
<title>Node28&#45;&gt;Node24</title>
<path fill="none" stroke="#191970" d="M253.9369,-35.028C257.3901,-36.7854 260.7792,-38.616 264,-40.5 291.9093,-56.8254 321.2601,-80.0878 339.3485,-95.2388"/>
<polygon fill="#191970" stroke="#191970" points="255.2428,-31.7716 244.7174,-30.561 252.1906,-38.0712 255.2428,-31.7716"/>
</g>
</g>
</svg>
