<?xml version="1.0" encoding="UTF-8" standalone="no"?>
<!DOCTYPE svg PUBLIC "-//W3C//DTD SVG 1.1//EN"
 "http://www.w3.org/Graphics/SVG/1.1/DTD/svg11.dtd">
<!-- Generated by graphviz version 2.40.1 (20161225.0304)
 -->
<!-- Title: PDI::Data_descriptor::~Data_descriptor Pages: 1 -->
<svg width="439pt" height="154pt"
 viewBox="0.00 0.00 439.00 153.50" xmlns="http://www.w3.org/2000/svg" xmlns:xlink="http://www.w3.org/1999/xlink">
<g id="graph0" class="graph" transform="scale(1 1) rotate(0) translate(4 149.5)">
<title>PDI::Data_descriptor::~Data_descriptor</title>
<polygon fill="#ffffff" stroke="transparent" points="-4,4 -4,-149.5 435,-149.5 435,4 -4,4"/>
<!-- Node8 -->
<g id="node1" class="node">
<title>Node8</title>
<polygon fill="#bfbfbf" stroke="#000000" points="0,-93 0,-123 114,-123 114,-93 0,-93"/>
<text text-anchor="start" x="8" y="-111" font-family="Helvetica,sans-Serif" font-size="10.00" fill="#000000">PDI::Data_descriptor</text>
<text text-anchor="middle" x="57" y="-100" font-family="Helvetica,sans-Serif" font-size="10.00" fill="#000000">::~Data_descriptor</text>
</g>
<!-- Node9 -->
<g id="node2" class="node">
<title>Node9</title>
<g id="a_node2"><a xlink:href="classPDI_1_1Data__descriptor.html#a4f68c4d432519377da35df709ca56125" target="_top" xlink:title="PDI::Data_descriptor\l::metadata">
<polygon fill="#ffffff" stroke="#000000" points="308.5,-115 308.5,-145 422.5,-145 422.5,-115 308.5,-115"/>
<text text-anchor="start" x="316.5" y="-133" font-family="Helvetica,sans-Serif" font-size="10.00" fill="#000000">PDI::Data_descriptor</text>
<text text-anchor="middle" x="365.5" y="-122" font-family="Helvetica,sans-Serif" font-size="10.00" fill="#000000">::metadata</text>
</a>
</g>
</g>
<!-- Node8&#45;&gt;Node9 -->
<g id="edge1" class="edge">
<title>Node8&#45;&gt;Node9</title>
<path fill="none" stroke="#191970" d="M114.3035,-112.0865C166.3861,-115.8006 243.2671,-121.2832 298.2429,-125.2037"/>
<polygon fill="#191970" stroke="#191970" points="298.0186,-128.6965 308.2423,-125.9168 298.5166,-121.7142 298.0186,-128.6965"/>
</g>
<!-- Node10 -->
<g id="node3" class="node">
<title>Node10</title>
<g id="a_node3"><a xlink:href="classPDI_1_1Data__descriptor.html#ae01594aac136d2ca58e4c34cb9112c7c" target="_top" xlink:title="PDI::Data_descriptor\l::reclaim">
<polygon fill="#ffffff" stroke="#000000" points="150,-71 150,-101 264,-101 264,-71 150,-71"/>
<text text-anchor="start" x="158" y="-89" font-family="Helvetica,sans-Serif" font-size="10.00" fill="#000000">PDI::Data_descriptor</text>
<text text-anchor="middle" x="207" y="-78" font-family="Helvetica,sans-Serif" font-size="10.00" fill="#000000">::reclaim</text>
</a>
</g>
</g>
<!-- Node8&#45;&gt;Node10 -->
<g id="edge2" class="edge">
<title>Node8&#45;&gt;Node10</title>
<path fill="none" stroke="#191970" d="M114.1365,-99.62C122.4675,-98.3981 131.1108,-97.1304 139.6217,-95.8821"/>
<polygon fill="#191970" stroke="#191970" points="140.1393,-99.3438 149.5255,-94.4296 139.1234,-92.4179 140.1393,-99.3438"/>
</g>
<!-- Node10&#45;&gt;Node9 -->
<g id="edge4" class="edge">
<title>Node10&#45;&gt;Node9</title>
<path fill="none" stroke="#191970" d="M261.1034,-101.0192C274.1652,-104.6452 288.2437,-108.5534 301.7034,-112.2899"/>
<polygon fill="#191970" stroke="#191970" points="300.7997,-115.6713 311.3715,-114.9738 302.6721,-108.9264 300.7997,-115.6713"/>
</g>
<!-- Node11 -->
<g id="node4" class="node">
<title>Node11</title>
<g id="a_node4"><a xlink:href="classPDI_1_1Data__descriptor.html#a518b9fd7e942a742ac75c4537bc677a8" target="_top" xlink:title="PDI::Data_descriptor::ref">
<polygon fill="#ffffff" stroke="#000000" points="300,-76.5 300,-95.5 431,-95.5 431,-76.5 300,-76.5"/>
<text text-anchor="middle" x="365.5" y="-83.5" font-family="Helvetica,sans-Serif" font-size="10.00" fill="#000000">PDI::Data_descriptor::ref</text>
</a>
</g>
</g>
<!-- Node10&#45;&gt;Node11 -->
<g id="edge3" class="edge">
<title>Node10&#45;&gt;Node11</title>
<path fill="none" stroke="#191970" d="M264.2221,-86C272.5075,-86 281.1418,-86 289.7217,-86"/>
<polygon fill="#191970" stroke="#191970" points="289.7447,-89.5001 299.7446,-86 289.7446,-82.5001 289.7447,-89.5001"/>
</g>
<!-- Node12 -->
<g id="node5" class="node">
<title>Node12</title>
<g id="a_node5"><a xlink:href="classPDI_1_1Ref__any.html#a92c53a0398732686e7b50480d4e2d82b" target="_top" xlink:title="PDI::Ref_any::copy">
<polygon fill="#ffffff" stroke="#000000" points="313,-38.5 313,-57.5 418,-57.5 418,-38.5 313,-38.5"/>
<text text-anchor="middle" x="365.5" y="-45.5" font-family="Helvetica,sans-Serif" font-size="10.00" fill="#000000">PDI::Ref_any::copy</text>
</a>
</g>
</g>
<!-- Node10&#45;&gt;Node12 -->
<g id="edge5" class="edge">
<title>Node10&#45;&gt;Node12</title>
<path fill="none" stroke="#191970" d="M264.2221,-72.2811C281.1115,-68.2319 299.4508,-63.8351 315.8239,-59.9097"/>
<polygon fill="#191970" stroke="#191970" points="316.8255,-63.2689 325.7339,-57.5338 315.1934,-56.4618 316.8255,-63.2689"/>
</g>
<!-- Node13 -->
<g id="node6" class="node">
<title>Node13</title>
<g id="a_node6"><a xlink:href="classPDI_1_1Ref__any.html#a2f653ad7b6152b4c1f027ed155c12e25" target="_top" xlink:title="PDI::Ref_any::release">
<polygon fill="#ffffff" stroke="#000000" points="306.5,-.5 306.5,-19.5 424.5,-19.5 424.5,-.5 306.5,-.5"/>
<text text-anchor="middle" x="365.5" y="-7.5" font-family="Helvetica,sans-Serif" font-size="10.00" fill="#000000">PDI::Ref_any::release</text>
</a>
</g>
</g>
<!-- Node10&#45;&gt;Node13 -->
<g id="edge6" class="edge">
<title>Node10&#45;&gt;Node13</title>
<path fill="none" stroke="#191970" d="M227.9015,-70.932C246.1884,-58.3122 273.8448,-40.5578 300,-29 305.1443,-26.7268 310.6345,-24.643 316.1653,-22.7567"/>
<polygon fill="#191970" stroke="#191970" points="317.6421,-25.9589 326.0984,-19.5762 315.5074,-19.2924 317.6421,-25.9589"/>
</g>
</g>
</svg>
