<?xml version="1.0" encoding="UTF-8" standalone="no"?>
<!DOCTYPE svg PUBLIC "-//W3C//DTD SVG 1.1//EN"
 "http://www.w3.org/Graphics/SVG/1.1/DTD/svg11.dtd">
<!-- Generated by graphviz version 2.40.1 (20161225.0304)
 -->
<!-- Title: PDI::Error::what Pages: 1 -->
<svg width="261pt" height="138pt"
 viewBox="0.00 0.00 261.00 138.00" xmlns="http://www.w3.org/2000/svg" xmlns:xlink="http://www.w3.org/1999/xlink">
<g id="graph0" class="graph" transform="scale(1 1) rotate(0) translate(4 134)">
<title>PDI::Error::what</title>
<polygon fill="#ffffff" stroke="transparent" points="-4,4 -4,-134 257,-134 257,4 -4,4"/>
<!-- Node10 -->
<g id="node1" class="node">
<title>Node10</title>
<polygon fill="#bfbfbf" stroke="#000000" points="0,-66.5 0,-85.5 89,-85.5 89,-66.5 0,-66.5"/>
<text text-anchor="middle" x="44.5" y="-73.5" font-family="Helvetica,sans-Serif" font-size="10.00" fill="#000000">PDI::Error::what</text>
</g>
<!-- Node11 -->
<g id="node2" class="node">
<title>Node11</title>
<g id="a_node2"><a xlink:href="classPDI_1_1Context.html#a1206d8088ffae032acf619faee139199" target="_top" xlink:title="PDI::Context::event">
<polygon fill="#ffffff" stroke="#000000" points="136,-110.5 136,-129.5 242,-129.5 242,-110.5 136,-110.5"/>
<text text-anchor="middle" x="189" y="-117.5" font-family="Helvetica,sans-Serif" font-size="10.00" fill="#000000">PDI::Context::event</text>
</a>
</g>
</g>
<!-- Node10&#45;&gt;Node11 -->
<g id="edge1" class="edge">
<title>Node10&#45;&gt;Node11</title>
<path fill="none" stroke="#191970" d="M84.964,-88.675C97.7595,-92.654 111.9623,-97.0404 125,-101 135.203,-104.0987 146.3382,-107.4241 156.4179,-110.413"/>
<polygon fill="#191970" stroke="#191970" points="85.6414,-85.2202 75.053,-85.5872 83.5593,-91.9034 85.6414,-85.2202"/>
</g>
<!-- Node12 -->
<g id="node3" class="node">
<title>Node12</title>
<g id="a_node3"><a xlink:href="classPDI_1_1Data__descriptor.html#ad96a445e91ce85ffc2d7c837f138b28c" target="_top" xlink:title="PDI::Data_descriptor\l::share">
<polygon fill="#ffffff" stroke="#000000" points="132,-61 132,-91 246,-91 246,-61 132,-61"/>
<text text-anchor="start" x="140" y="-79" font-family="Helvetica,sans-Serif" font-size="10.00" fill="#000000">PDI::Data_descriptor</text>
<text text-anchor="middle" x="189" y="-68" font-family="Helvetica,sans-Serif" font-size="10.00" fill="#000000">::share</text>
</a>
</g>
</g>
<!-- Node10&#45;&gt;Node12 -->
<g id="edge2" class="edge">
<title>Node10&#45;&gt;Node12</title>
<path fill="none" stroke="#191970" d="M99.0898,-76C109.7888,-76 121.0383,-76 131.8193,-76"/>
<polygon fill="#191970" stroke="#191970" points="99.0339,-72.5001 89.0338,-76 99.0338,-79.5001 99.0339,-72.5001"/>
</g>
<!-- Node13 -->
<g id="node4" class="node">
<title>Node13</title>
<g id="a_node4"><a xlink:href="structPDI_1_1Expression_1_1Impl_1_1Reference__expression.html#abb744e12f3e2948937c1cab9b6cda333" target="_top" xlink:title="PDI::Expression::Impl\l::Reference_expression\l::to_long">
<polygon fill="#ffffff" stroke="#000000" points="125,-.5 125,-41.5 253,-41.5 253,-.5 125,-.5"/>
<text text-anchor="start" x="133" y="-29.5" font-family="Helvetica,sans-Serif" font-size="10.00" fill="#000000">PDI::Expression::Impl</text>
<text text-anchor="start" x="133" y="-18.5" font-family="Helvetica,sans-Serif" font-size="10.00" fill="#000000">::Reference_expression</text>
<text text-anchor="middle" x="189" y="-7.5" font-family="Helvetica,sans-Serif" font-size="10.00" fill="#000000">::to_long</text>
</a>
</g>
</g>
<!-- Node10&#45;&gt;Node13 -->
<g id="edge3" class="edge">
<title>Node10&#45;&gt;Node13</title>
<path fill="none" stroke="#191970" d="M79.0628,-62.8446C95.8242,-56.4649 116.3437,-48.6546 135.0972,-41.5166"/>
<polygon fill="#191970" stroke="#191970" points="77.7708,-59.5913 69.67,-66.4197 80.261,-66.1335 77.7708,-59.5913"/>
</g>
</g>
</svg>
