<?xml version="1.0" encoding="UTF-8" standalone="no"?>
<!DOCTYPE svg PUBLIC "-//W3C//DTD SVG 1.1//EN"
 "http://www.w3.org/Graphics/SVG/1.1/DTD/svg11.dtd">
<!-- Generated by graphviz version 2.40.1 (20161225.0304)
 -->
<!-- Title: PDI::Ref_any::release Pages: 1 -->
<svg width="427pt" height="88pt"
 viewBox="0.00 0.00 427.00 88.00" xmlns="http://www.w3.org/2000/svg" xmlns:xlink="http://www.w3.org/1999/xlink">
<g id="graph0" class="graph" transform="scale(1 1) rotate(0) translate(4 84)">
<title>PDI::Ref_any::release</title>
<polygon fill="#ffffff" stroke="transparent" points="-4,4 -4,-84 423,-84 423,4 -4,4"/>
<!-- Node45 -->
<g id="node1" class="node">
<title>Node45</title>
<polygon fill="#bfbfbf" stroke="#000000" points="0,-30 0,-49 118,-49 118,-30 0,-30"/>
<text text-anchor="middle" x="59" y="-37" font-family="Helvetica,sans-Serif" font-size="10.00" fill="#000000">PDI::Ref_any::release</text>
</g>
<!-- Node46 -->
<g id="node2" class="node">
<title>Node46</title>
<g id="a_node2"><a xlink:href="classPDI_1_1Data__descriptor.html#ae01594aac136d2ca58e4c34cb9112c7c" target="_top" xlink:title="PDI::Data_descriptor\l::reclaim">
<polygon fill="#ffffff" stroke="#000000" points="154.5,-49.5 154.5,-79.5 268.5,-79.5 268.5,-49.5 154.5,-49.5"/>
<text text-anchor="start" x="162.5" y="-67.5" font-family="Helvetica,sans-Serif" font-size="10.00" fill="#000000">PDI::Data_descriptor</text>
<text text-anchor="middle" x="211.5" y="-56.5" font-family="Helvetica,sans-Serif" font-size="10.00" fill="#000000">::reclaim</text>
</a>
</g>
</g>
<!-- Node45&#45;&gt;Node46 -->
<g id="edge1" class="edge">
<title>Node45&#45;&gt;Node46</title>
<path fill="none" stroke="#191970" d="M127.2209,-50.6838C136.2771,-52.1684 145.486,-53.678 154.3291,-55.1277"/>
<polygon fill="#191970" stroke="#191970" points="127.5233,-47.1867 117.0887,-49.0227 126.3908,-54.0945 127.5233,-47.1867"/>
</g>
<!-- Node48 -->
<g id="node4" class="node">
<title>Node48</title>
<g id="a_node4"><a xlink:href="structPDI_1_1Expression_1_1Impl_1_1String__literal.html#aa328553949cd16ded5d46d31a88e1d1e" target="_top" xlink:title="PDI::Expression::Impl\l::String_literal::to_ref">
<polygon fill="#ffffff" stroke="#000000" points="154,-.5 154,-30.5 269,-30.5 269,-.5 154,-.5"/>
<text text-anchor="start" x="162" y="-18.5" font-family="Helvetica,sans-Serif" font-size="10.00" fill="#000000">PDI::Expression::Impl</text>
<text text-anchor="middle" x="211.5" y="-7.5" font-family="Helvetica,sans-Serif" font-size="10.00" fill="#000000">::String_literal::to_ref</text>
</a>
</g>
</g>
<!-- Node45&#45;&gt;Node48 -->
<g id="edge3" class="edge">
<title>Node45&#45;&gt;Node48</title>
<path fill="none" stroke="#191970" d="M128.5141,-28.5601C136.8749,-27.2443 145.3445,-25.9114 153.5167,-24.6252"/>
<polygon fill="#191970" stroke="#191970" points="127.7314,-25.1401 118.3972,-30.1523 128.8197,-32.055 127.7314,-25.1401"/>
</g>
<!-- Node47 -->
<g id="node3" class="node">
<title>Node47</title>
<g id="a_node3"><a xlink:href="classPDI_1_1Data__descriptor.html#ad4beb5d1669377ebe722ffb85e0f7951" target="_top" xlink:title="PDI::Data_descriptor\l::~Data_descriptor">
<polygon fill="#ffffff" stroke="#000000" points="305,-49.5 305,-79.5 419,-79.5 419,-49.5 305,-49.5"/>
<text text-anchor="start" x="313" y="-67.5" font-family="Helvetica,sans-Serif" font-size="10.00" fill="#000000">PDI::Data_descriptor</text>
<text text-anchor="middle" x="362" y="-56.5" font-family="Helvetica,sans-Serif" font-size="10.00" fill="#000000">::~Data_descriptor</text>
</a>
</g>
</g>
<!-- Node46&#45;&gt;Node47 -->
<g id="edge2" class="edge">
<title>Node46&#45;&gt;Node47</title>
<path fill="none" stroke="#191970" d="M278.8998,-64.5C287.5589,-64.5 296.3583,-64.5 304.8325,-64.5"/>
<polygon fill="#191970" stroke="#191970" points="278.827,-61.0001 268.8269,-64.5 278.8269,-68.0001 278.827,-61.0001"/>
</g>
</g>
</svg>
