<?xml version="1.0" encoding="UTF-8" standalone="no"?>
<!DOCTYPE svg PUBLIC "-//W3C//DTD SVG 1.1//EN"
 "http://www.w3.org/Graphics/SVG/1.1/DTD/svg11.dtd">
<!-- Generated by graphviz version 2.40.1 (20161225.0304)
 -->
<!-- Title: PDI::Error::status Pages: 1 -->
<svg width="267pt" height="138pt"
 viewBox="0.00 0.00 267.00 138.00" xmlns="http://www.w3.org/2000/svg" xmlns:xlink="http://www.w3.org/1999/xlink">
<g id="graph0" class="graph" transform="scale(1 1) rotate(0) translate(4 134)">
<title>PDI::Error::status</title>
<polygon fill="#ffffff" stroke="transparent" points="-4,4 -4,-134 263,-134 263,4 -4,4"/>
<!-- Node5 -->
<g id="node1" class="node">
<title>Node5</title>
<polygon fill="#bfbfbf" stroke="#000000" points="0,-66.5 0,-85.5 95,-85.5 95,-66.5 0,-66.5"/>
<text text-anchor="middle" x="47.5" y="-73.5" font-family="Helvetica,sans-Serif" font-size="10.00" fill="#000000">PDI::Error::status</text>
</g>
<!-- Node6 -->
<g id="node2" class="node">
<title>Node6</title>
<g id="a_node2"><a xlink:href="classPDI_1_1Context.html#a1206d8088ffae032acf619faee139199" target="_top" xlink:title="PDI::Context::event">
<polygon fill="#ffffff" stroke="#000000" points="142,-110.5 142,-129.5 248,-129.5 248,-110.5 142,-110.5"/>
<text text-anchor="middle" x="195" y="-117.5" font-family="Helvetica,sans-Serif" font-size="10.00" fill="#000000">PDI::Context::event</text>
</a>
</g>
</g>
<!-- Node5&#45;&gt;Node6 -->
<g id="edge1" class="edge">
<title>Node5&#45;&gt;Node6</title>
<path fill="none" stroke="#191970" d="M89.104,-88.477C102.4798,-92.4828 117.364,-96.9346 131,-101 141.3298,-104.0797 152.6006,-107.4293 162.7655,-110.4462"/>
<polygon fill="#191970" stroke="#191970" points="89.799,-85.0315 79.2151,-85.5144 87.79,-91.7371 89.799,-85.0315"/>
</g>
<!-- Node7 -->
<g id="node3" class="node">
<title>Node7</title>
<g id="a_node3"><a xlink:href="classPDI_1_1Data__descriptor.html#ad96a445e91ce85ffc2d7c837f138b28c" target="_top" xlink:title="PDI::Data_descriptor\l::share">
<polygon fill="#ffffff" stroke="#000000" points="138,-61 138,-91 252,-91 252,-61 138,-61"/>
<text text-anchor="start" x="146" y="-79" font-family="Helvetica,sans-Serif" font-size="10.00" fill="#000000">PDI::Data_descriptor</text>
<text text-anchor="middle" x="195" y="-68" font-family="Helvetica,sans-Serif" font-size="10.00" fill="#000000">::share</text>
</a>
</g>
</g>
<!-- Node5&#45;&gt;Node7 -->
<g id="edge2" class="edge">
<title>Node5&#45;&gt;Node7</title>
<path fill="none" stroke="#191970" d="M105.4325,-76C116.0879,-76 127.2057,-76 137.8382,-76"/>
<polygon fill="#191970" stroke="#191970" points="105.3891,-72.5001 95.389,-76 105.389,-79.5001 105.3891,-72.5001"/>
</g>
<!-- Node8 -->
<g id="node4" class="node">
<title>Node8</title>
<g id="a_node4"><a xlink:href="structPDI_1_1Expression_1_1Impl_1_1Reference__expression.html#abb744e12f3e2948937c1cab9b6cda333" target="_top" xlink:title="PDI::Expression::Impl\l::Reference_expression\l::to_long">
<polygon fill="#ffffff" stroke="#000000" points="131,-.5 131,-41.5 259,-41.5 259,-.5 131,-.5"/>
<text text-anchor="start" x="139" y="-29.5" font-family="Helvetica,sans-Serif" font-size="10.00" fill="#000000">PDI::Expression::Impl</text>
<text text-anchor="start" x="139" y="-18.5" font-family="Helvetica,sans-Serif" font-size="10.00" fill="#000000">::Reference_expression</text>
<text text-anchor="middle" x="195" y="-7.5" font-family="Helvetica,sans-Serif" font-size="10.00" fill="#000000">::to_long</text>
</a>
</g>
</g>
<!-- Node5&#45;&gt;Node8 -->
<g id="edge3" class="edge">
<title>Node5&#45;&gt;Node8</title>
<path fill="none" stroke="#191970" d="M82.7803,-62.8446C99.8897,-56.4649 120.8353,-48.6546 139.9781,-41.5166"/>
<polygon fill="#191970" stroke="#191970" points="81.3395,-59.6464 73.1925,-66.4197 83.7852,-66.2053 81.3395,-59.6464"/>
</g>
</g>
</svg>
