<?xml version="1.0" encoding="UTF-8" standalone="no"?>
<!DOCTYPE svg PUBLIC "-//W3C//DTD SVG 1.1//EN"
 "http://www.w3.org/Graphics/SVG/1.1/DTD/svg11.dtd">
<!-- Generated by graphviz version 2.40.1 (20161225.0304)
 -->
<!-- Title: PDI::Data_descriptor::creation_template Pages: 1 -->
<svg width="286pt" height="88pt"
 viewBox="0.00 0.00 286.00 88.00" xmlns="http://www.w3.org/2000/svg" xmlns:xlink="http://www.w3.org/1999/xlink">
<g id="graph0" class="graph" transform="scale(1 1) rotate(0) translate(4 84)">
<title>PDI::Data_descriptor::creation_template</title>
<polygon fill="#ffffff" stroke="transparent" points="-4,4 -4,-84 282,-84 282,4 -4,4"/>
<!-- Node18 -->
<g id="node1" class="node">
<title>Node18</title>
<polygon fill="#bfbfbf" stroke="#000000" points="0,-24.5 0,-54.5 114,-54.5 114,-24.5 0,-24.5"/>
<text text-anchor="start" x="8" y="-42.5" font-family="Helvetica,sans-Serif" font-size="10.00" fill="#000000">PDI::Data_descriptor</text>
<text text-anchor="middle" x="57" y="-31.5" font-family="Helvetica,sans-Serif" font-size="10.00" fill="#000000">::creation_template</text>
</g>
<!-- Node19 -->
<g id="node2" class="node">
<title>Node19</title>
<g id="a_node2"><a xlink:href="classPDI_1_1Datatype__template.html#a42d063913bd964006393c40d1c568a64" target="_top" xlink:title="PDI::Datatype_template\l::load">
<polygon fill="#ffffff" stroke="#000000" points="150,-49.5 150,-79.5 278,-79.5 278,-49.5 150,-49.5"/>
<text text-anchor="start" x="158" y="-67.5" font-family="Helvetica,sans-Serif" font-size="10.00" fill="#000000">PDI::Datatype_template</text>
<text text-anchor="middle" x="214" y="-56.5" font-family="Helvetica,sans-Serif" font-size="10.00" fill="#000000">::load</text>
</a>
</g>
</g>
<!-- Node18&#45;&gt;Node19 -->
<g id="edge1" class="edge">
<title>Node18&#45;&gt;Node19</title>
<path fill="none" stroke="#191970" d="M114.1247,-48.5963C122.443,-49.9209 131.1079,-51.3006 139.7053,-52.6696"/>
<polygon fill="#191970" stroke="#191970" points="139.3162,-56.1517 149.7422,-54.2679 140.417,-49.2388 139.3162,-56.1517"/>
</g>
<!-- Node20 -->
<g id="node3" class="node">
<title>Node20</title>
<g id="a_node3"><a xlink:href="classPDI_1_1Data__descriptor.html#a2cece9b8edb137b4aaaea8b95754a09a" target="_top" xlink:title="PDI::Data_descriptor\l::config">
<polygon fill="#ffffff" stroke="#000000" points="157,-.5 157,-30.5 271,-30.5 271,-.5 157,-.5"/>
<text text-anchor="start" x="165" y="-18.5" font-family="Helvetica,sans-Serif" font-size="10.00" fill="#000000">PDI::Data_descriptor</text>
<text text-anchor="middle" x="214" y="-7.5" font-family="Helvetica,sans-Serif" font-size="10.00" fill="#000000">::config</text>
</a>
</g>
</g>
<!-- Node18&#45;&gt;Node20 -->
<g id="edge2" class="edge">
<title>Node18&#45;&gt;Node20</title>
<path fill="none" stroke="#191970" d="M114.1247,-30.7676C124.7979,-29.136 136.0418,-27.4172 146.9816,-25.7448"/>
<polygon fill="#191970" stroke="#191970" points="147.5616,-29.1969 156.9178,-24.2259 146.5037,-22.2773 147.5616,-29.1969"/>
</g>
</g>
</svg>
