<?xml version="1.0" encoding="UTF-8" standalone="no"?>
<!DOCTYPE svg PUBLIC "-//W3C//DTD SVG 1.1//EN"
 "http://www.w3.org/Graphics/SVG/1.1/DTD/svg11.dtd">
<!-- Generated by graphviz version 2.40.1 (20161225.0304)
 -->
<!-- Title: PDI::Data_descriptor::release Pages: 1 -->
<svg width="289pt" height="78pt"
 viewBox="0.00 0.00 289.00 77.50" xmlns="http://www.w3.org/2000/svg" xmlns:xlink="http://www.w3.org/1999/xlink">
<g id="graph0" class="graph" transform="scale(1 1) rotate(0) translate(4 73.5)">
<title>PDI::Data_descriptor::release</title>
<polygon fill="#ffffff" stroke="transparent" points="-4,4 -4,-73.5 285,-73.5 285,4 -4,4"/>
<!-- Node53 -->
<g id="node1" class="node">
<title>Node53</title>
<polygon fill="#bfbfbf" stroke="#000000" points="0,-22.5 0,-52.5 114,-52.5 114,-22.5 0,-22.5"/>
<text text-anchor="start" x="8" y="-40.5" font-family="Helvetica,sans-Serif" font-size="10.00" fill="#000000">PDI::Data_descriptor</text>
<text text-anchor="middle" x="57" y="-29.5" font-family="Helvetica,sans-Serif" font-size="10.00" fill="#000000">::release</text>
</g>
<!-- Node54 -->
<g id="node2" class="node">
<title>Node54</title>
<g id="a_node2"><a xlink:href="classPDI_1_1Data__descriptor.html#a518b9fd7e942a742ac75c4537bc677a8" target="_top" xlink:title="PDI::Data_descriptor::ref">
<polygon fill="#ffffff" stroke="#000000" points="150,-50 150,-69 281,-69 281,-50 150,-50"/>
<text text-anchor="middle" x="215.5" y="-57" font-family="Helvetica,sans-Serif" font-size="10.00" fill="#000000">PDI::Data_descriptor::ref</text>
</a>
</g>
</g>
<!-- Node53&#45;&gt;Node54 -->
<g id="edge1" class="edge">
<title>Node53&#45;&gt;Node54</title>
<path fill="none" stroke="#191970" d="M114.2221,-45.4425C122.5075,-46.5925 131.1418,-47.791 139.7217,-48.9819"/>
<polygon fill="#191970" stroke="#191970" points="139.3584,-52.4649 149.7446,-50.3731 140.3208,-45.5314 139.3584,-52.4649"/>
</g>
<!-- Node55 -->
<g id="node3" class="node">
<title>Node55</title>
<g id="a_node3"><a xlink:href="classPDI_1_1Data__descriptor.html#a4f68c4d432519377da35df709ca56125" target="_top" xlink:title="PDI::Data_descriptor\l::metadata">
<polygon fill="#ffffff" stroke="#000000" points="158.5,-.5 158.5,-30.5 272.5,-30.5 272.5,-.5 158.5,-.5"/>
<text text-anchor="start" x="166.5" y="-18.5" font-family="Helvetica,sans-Serif" font-size="10.00" fill="#000000">PDI::Data_descriptor</text>
<text text-anchor="middle" x="215.5" y="-7.5" font-family="Helvetica,sans-Serif" font-size="10.00" fill="#000000">::metadata</text>
</a>
</g>
</g>
<!-- Node53&#45;&gt;Node55 -->
<g id="edge2" class="edge">
<title>Node53&#45;&gt;Node55</title>
<path fill="none" stroke="#191970" d="M114.2221,-29.5575C125.2203,-28.0309 136.8333,-26.419 148.1179,-24.8527"/>
<polygon fill="#191970" stroke="#191970" points="148.938,-28.2725 158.3619,-23.4308 147.9756,-21.339 148.938,-28.2725"/>
</g>
</g>
</svg>
