<?xml version="1.0" encoding="UTF-8" standalone="no"?>
<!DOCTYPE svg PUBLIC "-//W3C//DTD SVG 1.1//EN"
 "http://www.w3.org/Graphics/SVG/1.1/DTD/svg11.dtd">
<!-- Generated by graphviz version 2.40.1 (20161225.0304)
 -->
<!-- Title: PDI::Ref_any::get Pages: 1 -->
<svg width="270pt" height="78pt"
 viewBox="0.00 0.00 270.00 77.50" xmlns="http://www.w3.org/2000/svg" xmlns:xlink="http://www.w3.org/1999/xlink">
<g id="graph0" class="graph" transform="scale(1 1) rotate(0) translate(4 73.5)">
<title>PDI::Ref_any::get</title>
<polygon fill="#ffffff" stroke="transparent" points="-4,4 -4,-73.5 266,-73.5 266,4 -4,4"/>
<!-- Node17 -->
<g id="node1" class="node">
<title>Node17</title>
<polygon fill="#bfbfbf" stroke="#000000" points="0,-22.5 0,-41.5 98,-41.5 98,-22.5 0,-22.5"/>
<text text-anchor="middle" x="49" y="-29.5" font-family="Helvetica,sans-Serif" font-size="10.00" fill="#000000">PDI::Ref_any::get</text>
</g>
<!-- Node18 -->
<g id="node2" class="node">
<title>Node18</title>
<g id="a_node2"><a xlink:href="classPDI_1_1Data__descriptor.html#ad96a445e91ce85ffc2d7c837f138b28c" target="_top" xlink:title="PDI::Data_descriptor\l::share">
<polygon fill="#ffffff" stroke="#000000" points="141,-39 141,-69 255,-69 255,-39 141,-39"/>
<text text-anchor="start" x="149" y="-57" font-family="Helvetica,sans-Serif" font-size="10.00" fill="#000000">PDI::Data_descriptor</text>
<text text-anchor="middle" x="198" y="-46" font-family="Helvetica,sans-Serif" font-size="10.00" fill="#000000">::share</text>
</a>
</g>
</g>
<!-- Node17&#45;&gt;Node18 -->
<g id="edge1" class="edge">
<title>Node17&#45;&gt;Node18</title>
<path fill="none" stroke="#191970" d="M108.3123,-40.7575C119.0303,-42.34 130.1863,-43.9872 140.8413,-45.5605"/>
<polygon fill="#191970" stroke="#191970" points="108.6051,-37.2629 98.2011,-39.2646 107.5826,-44.1878 108.6051,-37.2629"/>
</g>
<!-- Node19 -->
<g id="node3" class="node">
<title>Node19</title>
<g id="a_node3"><a xlink:href="classPDI_1_1Ref__base.html#ac096ceaa80d0946c9c9f2044d2306f65" target="_top" xlink:title="PDI::Ref_base::do_copy">
<polygon fill="#ffffff" stroke="#000000" points="134,-.5 134,-19.5 262,-19.5 262,-.5 134,-.5"/>
<text text-anchor="middle" x="198" y="-7.5" font-family="Helvetica,sans-Serif" font-size="10.00" fill="#000000">PDI::Ref_base::do_copy</text>
</a>
</g>
</g>
<!-- Node17&#45;&gt;Node19 -->
<g id="edge2" class="edge">
<title>Node17&#45;&gt;Node19</title>
<path fill="none" stroke="#191970" d="M108.3205,-23.2413C116.752,-21.9964 125.4543,-20.7114 133.9704,-19.454"/>
<polygon fill="#191970" stroke="#191970" points="107.5826,-19.8122 98.2011,-24.7354 108.6051,-26.7371 107.5826,-19.8122"/>
</g>
</g>
</svg>
