<?xml version="1.0" encoding="UTF-8" standalone="no"?>
<!DOCTYPE svg PUBLIC "-//W3C//DTD SVG 1.1//EN"
 "http://www.w3.org/Graphics/SVG/1.1/DTD/svg11.dtd">
<!-- Generated by graphviz version 2.40.1 (20161225.0304)
 -->
<!-- Title: PDI::Datatype_template::load Pages: 1 -->
<svg width="286pt" height="39pt"
 viewBox="0.00 0.00 286.00 39.00" xmlns="http://www.w3.org/2000/svg" xmlns:xlink="http://www.w3.org/1999/xlink">
<g id="graph0" class="graph" transform="scale(1 1) rotate(0) translate(4 35)">
<title>PDI::Datatype_template::load</title>
<polygon fill="#ffffff" stroke="transparent" points="-4,4 -4,-35 282,-35 282,4 -4,4"/>
<!-- Node7 -->
<g id="node1" class="node">
<title>Node7</title>
<polygon fill="#bfbfbf" stroke="#000000" points="0,-.5 0,-30.5 128,-30.5 128,-.5 0,-.5"/>
<text text-anchor="start" x="8" y="-18.5" font-family="Helvetica,sans-Serif" font-size="10.00" fill="#000000">PDI::Datatype_template</text>
<text text-anchor="middle" x="64" y="-7.5" font-family="Helvetica,sans-Serif" font-size="10.00" fill="#000000">::load</text>
</g>
<!-- Node8 -->
<g id="node2" class="node">
<title>Node8</title>
<g id="a_node2"><a xlink:href="classPDI_1_1Data__descriptor.html#a41ac9f30e59ed0670674af3174c0bf41" target="_top" xlink:title="PDI::Data_descriptor\l::creation_template">
<polygon fill="#ffffff" stroke="#000000" points="164,-.5 164,-30.5 278,-30.5 278,-.5 164,-.5"/>
<text text-anchor="start" x="172" y="-18.5" font-family="Helvetica,sans-Serif" font-size="10.00" fill="#000000">PDI::Data_descriptor</text>
<text text-anchor="middle" x="221" y="-7.5" font-family="Helvetica,sans-Serif" font-size="10.00" fill="#000000">::creation_template</text>
</a>
</g>
</g>
<!-- Node7&#45;&gt;Node8 -->
<g id="edge1" class="edge">
<title>Node7&#45;&gt;Node8</title>
<path fill="none" stroke="#191970" d="M138.5277,-15.5C146.9499,-15.5 155.4333,-15.5 163.5887,-15.5"/>
<polygon fill="#191970" stroke="#191970" points="138.3109,-12.0001 128.3109,-15.5 138.3109,-19.0001 138.3109,-12.0001"/>
</g>
</g>
</svg>
