<?xml version="1.0" encoding="UTF-8" standalone="no"?>
<!DOCTYPE svg PUBLIC "-//W3C//DTD SVG 1.1//EN"
 "http://www.w3.org/Graphics/SVG/1.1/DTD/svg11.dtd">
<!-- Generated by graphviz version 2.40.1 (20161225.0304)
 -->
<!-- Title: PDI::Ref_any::copy Pages: 1 -->
<svg width="413pt" height="39pt"
 viewBox="0.00 0.00 413.00 39.00" xmlns="http://www.w3.org/2000/svg" xmlns:xlink="http://www.w3.org/1999/xlink">
<g id="graph0" class="graph" transform="scale(1 1) rotate(0) translate(4 35)">
<title>PDI::Ref_any::copy</title>
<polygon fill="#ffffff" stroke="transparent" points="-4,4 -4,-35 409,-35 409,4 -4,4"/>
<!-- Node13 -->
<g id="node1" class="node">
<title>Node13</title>
<polygon fill="#bfbfbf" stroke="#000000" points="0,-6 0,-25 105,-25 105,-6 0,-6"/>
<text text-anchor="middle" x="52.5" y="-13" font-family="Helvetica,sans-Serif" font-size="10.00" fill="#000000">PDI::Ref_any::copy</text>
</g>
<!-- Node14 -->
<g id="node2" class="node">
<title>Node14</title>
<g id="a_node2"><a xlink:href="classPDI_1_1Data__descriptor.html#ae01594aac136d2ca58e4c34cb9112c7c" target="_top" xlink:title="PDI::Data_descriptor\l::reclaim">
<polygon fill="#ffffff" stroke="#000000" points="141,-.5 141,-30.5 255,-30.5 255,-.5 141,-.5"/>
<text text-anchor="start" x="149" y="-18.5" font-family="Helvetica,sans-Serif" font-size="10.00" fill="#000000">PDI::Data_descriptor</text>
<text text-anchor="middle" x="198" y="-7.5" font-family="Helvetica,sans-Serif" font-size="10.00" fill="#000000">::reclaim</text>
</a>
</g>
</g>
<!-- Node13&#45;&gt;Node14 -->
<g id="edge1" class="edge">
<title>Node13&#45;&gt;Node14</title>
<path fill="none" stroke="#191970" d="M115.2065,-15.5C123.651,-15.5 132.2795,-15.5 140.6251,-15.5"/>
<polygon fill="#191970" stroke="#191970" points="115.0289,-12.0001 105.0288,-15.5 115.0288,-19.0001 115.0289,-12.0001"/>
</g>
<!-- Node15 -->
<g id="node3" class="node">
<title>Node15</title>
<g id="a_node3"><a xlink:href="classPDI_1_1Data__descriptor.html#ad4beb5d1669377ebe722ffb85e0f7951" target="_top" xlink:title="PDI::Data_descriptor\l::~Data_descriptor">
<polygon fill="#ffffff" stroke="#000000" points="291,-.5 291,-30.5 405,-30.5 405,-.5 291,-.5"/>
<text text-anchor="start" x="299" y="-18.5" font-family="Helvetica,sans-Serif" font-size="10.00" fill="#000000">PDI::Data_descriptor</text>
<text text-anchor="middle" x="348" y="-7.5" font-family="Helvetica,sans-Serif" font-size="10.00" fill="#000000">::~Data_descriptor</text>
</a>
</g>
</g>
<!-- Node14&#45;&gt;Node15 -->
<g id="edge2" class="edge">
<title>Node14&#45;&gt;Node15</title>
<path fill="none" stroke="#191970" d="M265.3106,-15.5C273.7284,-15.5 282.2768,-15.5 290.5255,-15.5"/>
<polygon fill="#191970" stroke="#191970" points="265.1365,-12.0001 255.1365,-15.5 265.1364,-19.0001 265.1365,-12.0001"/>
</g>
</g>
</svg>
