<?xml version="1.0" encoding="UTF-8" standalone="no"?>
<!DOCTYPE svg PUBLIC "-//W3C//DTD SVG 1.1//EN"
 "http://www.w3.org/Graphics/SVG/1.1/DTD/svg11.dtd">
<!-- Generated by graphviz version 2.40.1 (20161225.0304)
 -->
<!-- Title: /home/jbigot/data/projects/pdi/pdi/include/pdi/context.h Pages: 1 -->
<!--zoomable 431 -->
<svg id="main" version="1.1" xmlns="http://www.w3.org/2000/svg" xmlns:xlink="http://www.w3.org/1999/xlink" xml:space="preserve" onload="init(evt)">
<style type="text/css"><![CDATA[
.edge:hover path { stroke: red; }
.edge:hover polygon { stroke: red; fill: red; }
]]></style>
<script type="text/javascript"><![CDATA[
var edges = document.getElementsByTagName('g');
if (edges && edges.length) {
  for (var i=0;i<edges.length;i++) {
    if (edges[i].id.substr(0,4)=='edge') {
      edges[i].setAttribute('class','edge');
    }
  }
}
]]></script>
        <defs>
                <circle id="rim" cx="0" cy="0" r="7"/>
                <circle id="rim2" cx="0" cy="0" r="3.5"/>
                <g id="zoomPlus">
                        <use xlink:href="#rim" fill="#404040">
                                <set attributeName="fill" to="#808080" begin="zoomplus.mouseover" end="zoomplus.mouseout"/>
                        </use>
                        <path d="M-4,0h8M0,-4v8" fill="none" stroke="white" stroke-width="1.5" pointer-events="none"/>
                </g>
                <g id="zoomMin">
                        <use xlink:href="#rim" fill="#404040">
                                <set attributeName="fill" to="#808080" begin="zoomminus.mouseover" end="zoomminus.mouseout"/>
                        </use>
                        <path d="M-4,0h8" fill="none" stroke="white" stroke-width="1.5" pointer-events="none"/>
                </g>
                <g id="dirArrow">
                        <path fill="none" stroke="white" stroke-width="1.5" d="M0,-3.0v7 M-2.5,-0.5L0,-3.0L2.5,-0.5"/>
                </g>
               <g id="resetDef">
                       <use xlink:href="#rim2" fill="#404040">
                               <set attributeName="fill" to="#808080" begin="reset.mouseover" end="reset.mouseout"/>
                       </use>
               </g>
        </defs>

<script type="text/javascript">
var viewWidth = 1071;
var viewHeight = 431;
var sectionId = 'dynsection-0';
</script>
<script xlink:href="svgpan.js"/>
<svg id="graph" class="graph">
<g id="viewport">
<title>/home/jbigot/data/projects/pdi/pdi/include/pdi/context.h</title>
<polygon fill="#ffffff" stroke="transparent" points="-4,4 -4,-427 1067,-427 1067,4 -4,4"/>
<!-- Node0 -->
<g id="node1" class="node">
<title>Node0</title>
<polygon fill="#bfbfbf" stroke="#000000" points="592,-392.5 592,-422.5 742,-422.5 742,-392.5 592,-392.5"/>
<text text-anchor="start" x="600" y="-410.5" font-family="Helvetica,sans-Serif" font-size="10.00" fill="#000000">/home/jbigot/data/projects</text>
<text text-anchor="middle" x="667" y="-399.5" font-family="Helvetica,sans-Serif" font-size="10.00" fill="#000000">/pdi/pdi/include/pdi/context.h</text>
</g>
<!-- Node1 -->
<g id="node2" class="node">
<title>Node1</title>
<polygon fill="#ffffff" stroke="#bfbfbf" points="28.5,-.5 28.5,-19.5 69.5,-19.5 69.5,-.5 28.5,-.5"/>
<text text-anchor="middle" x="49" y="-7.5" font-family="Helvetica,sans-Serif" font-size="10.00" fill="#000000">mpi.h</text>
</g>
<!-- Node0&#45;&gt;Node1 -->
<g id="edge1" class="edge">
<title>Node0&#45;&gt;Node1</title>
<path fill="none" stroke="#191970" d="M591.7778,-403.9274C464.2712,-397.2735 211.2428,-381.3179 126,-356 65.399,-338.001 0,-353.2174 0,-290 0,-290 0,-290 0,-122 0,-86.3181 21.133,-49.1985 35.6419,-27.9186"/>
<polygon fill="#191970" stroke="#191970" points="38.6329,-29.7512 41.558,-19.5681 32.9211,-25.7046 38.6329,-29.7512"/>
</g>
<!-- Node2 -->
<g id="node3" class="node">
<title>Node2</title>
<polygon fill="#ffffff" stroke="#bfbfbf" points="929.5,-336.5 929.5,-355.5 958.5,-355.5 958.5,-336.5 929.5,-336.5"/>
<text text-anchor="middle" x="944" y="-343.5" font-family="Helvetica,sans-Serif" font-size="10.00" fill="#000000">list</text>
</g>
<!-- Node0&#45;&gt;Node2 -->
<g id="edge2" class="edge">
<title>Node0&#45;&gt;Node2</title>
<path fill="none" stroke="#191970" d="M742.2011,-394.4626C791.6803,-385.2539 857.6545,-371.7724 915,-356 916.4763,-355.594 917.9868,-355.153 919.5051,-354.6901"/>
<polygon fill="#191970" stroke="#191970" points="920.9515,-357.8991 929.3605,-351.454 918.7677,-351.2484 920.9515,-357.8991"/>
</g>
<!-- Node3 -->
<g id="node4" class="node">
<title>Node3</title>
<polygon fill="#ffffff" stroke="#bfbfbf" points="697,-56.5 697,-75.5 751,-75.5 751,-56.5 697,-56.5"/>
<text text-anchor="middle" x="724" y="-63.5" font-family="Helvetica,sans-Serif" font-size="10.00" fill="#000000">memory</text>
</g>
<!-- Node0&#45;&gt;Node3 -->
<g id="edge3" class="edge">
<title>Node0&#45;&gt;Node3</title>
<path fill="none" stroke="#191970" d="M742.2675,-393.3574C792.806,-379.3084 854.9223,-352.0068 882,-300 927.782,-212.0686 802.619,-117.0285 748.0329,-80.9901"/>
<polygon fill="#191970" stroke="#191970" points="749.909,-78.0353 739.6143,-75.5313 746.1005,-83.9086 749.909,-78.0353"/>
</g>
<!-- Node4 -->
<g id="node5" class="node">
<title>Node4</title>
<polygon fill="#ffffff" stroke="#bfbfbf" points="831.5,-280.5 831.5,-299.5 872.5,-299.5 872.5,-280.5 831.5,-280.5"/>
<text text-anchor="middle" x="852" y="-287.5" font-family="Helvetica,sans-Serif" font-size="10.00" fill="#000000">stack</text>
</g>
<!-- Node0&#45;&gt;Node4 -->
<g id="edge4" class="edge">
<title>Node0&#45;&gt;Node4</title>
<path fill="none" stroke="#191970" d="M704.7877,-392.4075C726.1342,-383.1737 752.8868,-370.3867 775,-356 797.1651,-341.5795 819.825,-321.3632 834.7703,-307.1148"/>
<polygon fill="#191970" stroke="#191970" points="837.4823,-309.3605 842.2274,-299.8877 832.6106,-304.3338 837.4823,-309.3605"/>
</g>
<!-- Node5 -->
<g id="node6" class="node">
<title>Node5</title>
<polygon fill="#ffffff" stroke="#bfbfbf" points="108.5,-168.5 108.5,-187.5 151.5,-187.5 151.5,-168.5 108.5,-168.5"/>
<text text-anchor="middle" x="130" y="-175.5" font-family="Helvetica,sans-Serif" font-size="10.00" fill="#000000">string</text>
</g>
<!-- Node0&#45;&gt;Node5 -->
<g id="edge5" class="edge">
<title>Node0&#45;&gt;Node5</title>
<path fill="none" stroke="#191970" d="M591.9869,-397.3913C450.7995,-376.648 154.3972,-324.3566 95,-244 83.5515,-228.5117 97.1622,-208.7839 110.6119,-194.9467"/>
<polygon fill="#191970" stroke="#191970" points="113.1262,-197.3846 117.9072,-187.9297 108.2736,-192.3395 113.1262,-197.3846"/>
</g>
<!-- Node6 -->
<g id="node7" class="node">
<title>Node6</title>
<polygon fill="#ffffff" stroke="#bfbfbf" points="104,-224.5 104,-243.5 196,-243.5 196,-224.5 104,-224.5"/>
<text text-anchor="middle" x="150" y="-231.5" font-family="Helvetica,sans-Serif" font-size="10.00" fill="#000000">unordered_map</text>
</g>
<!-- Node0&#45;&gt;Node6 -->
<g id="edge6" class="edge">
<title>Node0&#45;&gt;Node6</title>
<path fill="none" stroke="#191970" d="M622.0241,-392.4065C521.7591,-358.7586 281.4126,-278.1007 188.0195,-246.759"/>
<polygon fill="#191970" stroke="#191970" points="189.0037,-243.3975 178.4097,-243.534 186.7766,-250.0338 189.0037,-243.3975"/>
</g>
<!-- Node7 -->
<g id="node8" class="node">
<title>Node7</title>
<polygon fill="#ffffff" stroke="#bfbfbf" points="977,-336.5 977,-355.5 1063,-355.5 1063,-336.5 977,-336.5"/>
<text text-anchor="middle" x="1020" y="-343.5" font-family="Helvetica,sans-Serif" font-size="10.00" fill="#000000">unordered_set</text>
</g>
<!-- Node0&#45;&gt;Node7 -->
<g id="edge7" class="edge">
<title>Node0&#45;&gt;Node7</title>
<path fill="none" stroke="#191970" d="M742.2226,-395.0699C800.7763,-385.2924 884.3545,-371.1148 966.8316,-356.1865"/>
<polygon fill="#191970" stroke="#191970" points="967.6682,-359.5919 976.8825,-354.3625 966.4183,-352.7044 967.6682,-359.5919"/>
</g>
<!-- Node8 -->
<g id="node9" class="node">
<title>Node8</title>
<g id="a_node9"><a xlink:href="pdi__fwd_8h.html" target="_top" xlink:title="pdi/pdi_fwd.h">
<polygon fill="#ffffff" stroke="#000000" points="356.5,-112.5 356.5,-131.5 435.5,-131.5 435.5,-112.5 356.5,-112.5"/>
<text text-anchor="middle" x="396" y="-119.5" font-family="Helvetica,sans-Serif" font-size="10.00" fill="#000000">pdi/pdi_fwd.h</text>
</a>
</g>
</g>
<!-- Node0&#45;&gt;Node8 -->
<g id="edge8" class="edge">
<title>Node0&#45;&gt;Node8</title>
<path fill="none" stroke="#191970" d="M591.7527,-401.2342C424.7959,-386.3207 38,-345.7535 38,-290 38,-290 38,-290 38,-234 38,-194.0568 63.7419,-186.7703 99,-168 140.8131,-145.7401 272.719,-131.916 345.8853,-125.7592"/>
<polygon fill="#191970" stroke="#191970" points="346.5576,-129.2158 356.2364,-124.9064 345.9828,-122.2394 346.5576,-129.2158"/>
</g>
<!-- Node13 -->
<g id="node14" class="node">
<title>Node13</title>
<g id="a_node14"><a xlink:href="data__descriptor_8h.html" target="_top" xlink:title="pdi/data_descriptor.h">
<polygon fill="#ffffff" stroke="#000000" points="650,-336.5 650,-355.5 766,-355.5 766,-336.5 650,-336.5"/>
<text text-anchor="middle" x="708" y="-343.5" font-family="Helvetica,sans-Serif" font-size="10.00" fill="#000000">pdi/data_descriptor.h</text>
</a>
</g>
</g>
<!-- Node0&#45;&gt;Node13 -->
<g id="edge15" class="edge">
<title>Node0&#45;&gt;Node13</title>
<path fill="none" stroke="#191970" d="M677.1348,-392.2977C682.7668,-383.8498 689.8151,-373.2773 695.754,-364.369"/>
<polygon fill="#191970" stroke="#191970" points="698.8005,-366.1089 701.4354,-355.8469 692.9762,-362.226 698.8005,-366.1089"/>
</g>
<!-- Node16 -->
<g id="node17" class="node">
<title>Node16</title>
<g id="a_node17"><a xlink:href="ref__any_8h.html" target="_top" xlink:title="pdi/ref_any.h">
<polygon fill="#ffffff" stroke="#000000" points="447,-280.5 447,-299.5 525,-299.5 525,-280.5 447,-280.5"/>
<text text-anchor="middle" x="486" y="-287.5" font-family="Helvetica,sans-Serif" font-size="10.00" fill="#000000">pdi/ref_any.h</text>
</a>
</g>
</g>
<!-- Node0&#45;&gt;Node16 -->
<g id="edge39" class="edge">
<title>Node0&#45;&gt;Node16</title>
<path fill="none" stroke="#191970" d="M643.708,-392.3795C608.9999,-369.848 544.078,-327.7026 509.3413,-305.1525"/>
<polygon fill="#191970" stroke="#191970" points="511.0886,-302.114 500.7952,-299.6046 507.2771,-307.9853 511.0886,-302.114"/>
</g>
<!-- Node8&#45;&gt;Node3 -->
<g id="edge9" class="edge">
<title>Node8&#45;&gt;Node3</title>
<path fill="none" stroke="#191970" d="M435.5645,-115.2451C499.3477,-104.3553 624.0498,-83.0647 686.4939,-72.4035"/>
<polygon fill="#191970" stroke="#191970" points="687.4141,-75.7971 696.6824,-70.664 686.236,-68.8969 687.4141,-75.7971"/>
</g>
<!-- Node9 -->
<g id="node10" class="node">
<title>Node9</title>
<g id="a_node10"><a xlink:href="pdi_8h.html" target="_top" xlink:title="pdi.h">
<polygon fill="#ffffff" stroke="#000000" points="153.5,-56.5 153.5,-75.5 192.5,-75.5 192.5,-56.5 153.5,-56.5"/>
<text text-anchor="middle" x="173" y="-63.5" font-family="Helvetica,sans-Serif" font-size="10.00" fill="#000000">pdi.h</text>
</a>
</g>
</g>
<!-- Node8&#45;&gt;Node9 -->
<g id="edge10" class="edge">
<title>Node8&#45;&gt;Node9</title>
<path fill="none" stroke="#191970" d="M357.9183,-112.4369C313.954,-101.3965 242.5758,-83.4719 202.5773,-73.4275"/>
<polygon fill="#191970" stroke="#191970" points="203.1994,-69.9751 192.6481,-70.934 201.4944,-76.7643 203.1994,-69.9751"/>
</g>
<!-- Node9&#45;&gt;Node1 -->
<g id="edge11" class="edge">
<title>Node9&#45;&gt;Node1</title>
<path fill="none" stroke="#191970" d="M153.3518,-57.1266C133.394,-48.1134 102.2208,-34.0352 79.1383,-23.6108"/>
<polygon fill="#191970" stroke="#191970" points="80.3517,-20.3185 69.7974,-19.3924 77.4705,-26.6981 80.3517,-20.3185"/>
</g>
<!-- Node10 -->
<g id="node11" class="node">
<title>Node10</title>
<polygon fill="#ffffff" stroke="#bfbfbf" points="374.5,-.5 374.5,-19.5 441.5,-19.5 441.5,-.5 374.5,-.5"/>
<text text-anchor="middle" x="408" y="-7.5" font-family="Helvetica,sans-Serif" font-size="10.00" fill="#000000">paraconf.h</text>
</g>
<!-- Node9&#45;&gt;Node10 -->
<g id="edge12" class="edge">
<title>Node9&#45;&gt;Node10</title>
<path fill="none" stroke="#191970" d="M192.7197,-59.9786C197.3865,-58.6151 202.3566,-57.213 207,-56 260.9614,-41.9039 323.6877,-27.9279 364.5247,-19.1467"/>
<polygon fill="#191970" stroke="#191970" points="365.3709,-22.5449 374.4168,-17.0292 363.9056,-15.7 365.3709,-22.5449"/>
</g>
<!-- Node11 -->
<g id="node12" class="node">
<title>Node11</title>
<polygon fill="#ffffff" stroke="#bfbfbf" points="113,-.5 113,-19.5 185,-19.5 185,-.5 113,-.5"/>
<text text-anchor="middle" x="149" y="-7.5" font-family="Helvetica,sans-Serif" font-size="10.00" fill="#000000">pdi/export.h</text>
</g>
<!-- Node9&#45;&gt;Node11 -->
<g id="edge13" class="edge">
<title>Node9&#45;&gt;Node11</title>
<path fill="none" stroke="#191970" d="M168.8195,-56.2455C165.619,-48.7776 161.104,-38.2427 157.1916,-29.1137"/>
<polygon fill="#191970" stroke="#191970" points="160.2888,-27.4554 153.1326,-19.6427 153.8548,-30.2129 160.2888,-27.4554"/>
</g>
<!-- Node12 -->
<g id="node13" class="node">
<title>Node12</title>
<polygon fill="#ffffff" stroke="#bfbfbf" points="203.5,-.5 203.5,-19.5 280.5,-19.5 280.5,-.5 203.5,-.5"/>
<text text-anchor="middle" x="242" y="-7.5" font-family="Helvetica,sans-Serif" font-size="10.00" fill="#000000">pdi/version.h</text>
</g>
<!-- Node9&#45;&gt;Node12 -->
<g id="edge14" class="edge">
<title>Node9&#45;&gt;Node12</title>
<path fill="none" stroke="#191970" d="M185.0189,-56.2455C195.2098,-47.9746 210.0362,-35.9416 222.0107,-26.2232"/>
<polygon fill="#191970" stroke="#191970" points="224.5598,-28.662 230.1188,-19.6427 220.1486,-23.2268 224.5598,-28.662"/>
</g>
<!-- Node13&#45;&gt;Node3 -->
<g id="edge17" class="edge">
<title>Node13&#45;&gt;Node3</title>
<path fill="none" stroke="#191970" d="M716.9063,-336.3544C732.9375,-317.945 765,-275.8901 765,-234 765,-234 765,-234 765,-178 765,-143.3444 747.4755,-106.1312 735.3408,-84.5174"/>
<polygon fill="#191970" stroke="#191970" points="738.2886,-82.6243 730.227,-75.7496 732.2419,-86.1511 738.2886,-82.6243"/>
</g>
<!-- Node13&#45;&gt;Node4 -->
<g id="edge18" class="edge">
<title>Node13&#45;&gt;Node4</title>
<path fill="none" stroke="#191970" d="M732.7545,-336.3733C757.4257,-326.7789 795.3476,-312.0315 821.7809,-301.7519"/>
<polygon fill="#191970" stroke="#191970" points="823.2462,-304.9374 831.2977,-298.0509 820.709,-298.4134 823.2462,-304.9374"/>
</g>
<!-- Node13&#45;&gt;Node8 -->
<g id="edge20" class="edge">
<title>Node13&#45;&gt;Node8</title>
<path fill="none" stroke="#191970" d="M709.3824,-336.1547C710.6136,-326.8576 712.3219,-312.5134 713,-300 714.9027,-264.887 714.5878,-250.0798 691,-224 654.4664,-183.6067 633.0009,-187.1109 582,-168 537.1557,-151.1961 483.9261,-138.7444 445.9244,-131.0641"/>
<polygon fill="#191970" stroke="#191970" points="446.119,-127.5347 435.6295,-129.0248 444.7587,-134.4013 446.119,-127.5347"/>
</g>
<!-- Node13&#45;&gt;Node10 -->
<g id="edge19" class="edge">
<title>Node13&#45;&gt;Node10</title>
<path fill="none" stroke="#191970" d="M723.9531,-336.1948C736.0749,-327.9561 752.2705,-315.1206 762,-300 820.683,-208.8008 838.1311,-131.2098 760,-56 738.1108,-34.9293 541.0893,-19.0259 451.7258,-12.8313"/>
<polygon fill="#191970" stroke="#191970" points="451.8504,-9.3317 441.635,-12.1414 451.3729,-16.3154 451.8504,-9.3317"/>
</g>
<!-- Node14 -->
<g id="node15" class="node">
<title>Node14</title>
<polygon fill="#ffffff" stroke="#bfbfbf" points="599,-224.5 599,-243.5 661,-243.5 661,-224.5 599,-224.5"/>
<text text-anchor="middle" x="630" y="-231.5" font-family="Helvetica,sans-Serif" font-size="10.00" fill="#000000">functional</text>
</g>
<!-- Node13&#45;&gt;Node14 -->
<g id="edge16" class="edge">
<title>Node13&#45;&gt;Node14</title>
<path fill="none" stroke="#191970" d="M700.8506,-336.1779C694.1198,-326.8973 683.7881,-312.5642 675,-300 663.7624,-283.9338 651.2128,-265.4842 642.2274,-252.1835"/>
<polygon fill="#191970" stroke="#191970" points="645.1284,-250.2253 636.6361,-243.8904 639.3243,-254.1385 645.1284,-250.2253"/>
</g>
<!-- Node15 -->
<g id="node16" class="node">
<title>Node15</title>
<g id="a_node16"><a xlink:href="datatype__template_8h.html" target="_top" xlink:title="pdi/datatype_template.h">
<polygon fill="#ffffff" stroke="#000000" points="443,-168.5 443,-187.5 573,-187.5 573,-168.5 443,-168.5"/>
<text text-anchor="middle" x="508" y="-175.5" font-family="Helvetica,sans-Serif" font-size="10.00" fill="#000000">pdi/datatype_template.h</text>
</a>
</g>
</g>
<!-- Node13&#45;&gt;Node15 -->
<g id="edge21" class="edge">
<title>Node13&#45;&gt;Node15</title>
<path fill="none" stroke="#191970" d="M707.9237,-336.1809C707.1954,-313.1575 702.085,-255.2839 670,-224 655.7321,-210.0883 610.7243,-197.9491 571.7599,-189.6394"/>
<polygon fill="#191970" stroke="#191970" points="571.988,-186.1121 561.4851,-187.5049 570.5642,-192.9658 571.988,-186.1121"/>
</g>
<!-- Node13&#45;&gt;Node16 -->
<g id="edge24" class="edge">
<title>Node13&#45;&gt;Node16</title>
<path fill="none" stroke="#191970" d="M670.0891,-336.4369C632.335,-326.9133 574.2735,-312.2672 533.4736,-301.9753"/>
<polygon fill="#191970" stroke="#191970" points="534.3069,-298.576 523.7546,-299.5237 532.5947,-305.3633 534.3069,-298.576"/>
</g>
<!-- Node15&#45;&gt;Node8 -->
<g id="edge23" class="edge">
<title>Node15&#45;&gt;Node8</title>
<path fill="none" stroke="#191970" d="M488.7465,-168.3733C470.9288,-159.4644 444.2253,-146.1127 424.0406,-136.0203"/>
<polygon fill="#191970" stroke="#191970" points="425.5118,-132.8428 415.0022,-131.5011 422.3813,-139.1038 425.5118,-132.8428"/>
</g>
<!-- Node15&#45;&gt;Node10 -->
<g id="edge22" class="edge">
<title>Node15&#45;&gt;Node10</title>
<path fill="none" stroke="#191970" d="M502.337,-168.4862C486.3241,-141.5845 440.4996,-64.5994 419.171,-28.7673"/>
<polygon fill="#191970" stroke="#191970" points="421.9723,-26.6306 413.8499,-19.8279 415.9573,-30.211 421.9723,-26.6306"/>
</g>
<!-- Node16&#45;&gt;Node3 -->
<g id="edge27" class="edge">
<title>Node16&#45;&gt;Node3</title>
<path fill="none" stroke="#191970" d="M501.5553,-280.3826C515.3358,-271.5822 535.7335,-257.858 552,-244 615.0591,-190.2779 680.6796,-116.5303 709.2468,-83.379"/>
<polygon fill="#191970" stroke="#191970" points="712.142,-85.3792 715.9893,-75.5075 706.8257,-80.8254 712.142,-85.3792"/>
</g>
<!-- Node16&#45;&gt;Node6 -->
<g id="edge29" class="edge">
<title>Node16&#45;&gt;Node6</title>
<path fill="none" stroke="#191970" d="M446.8693,-283.8171C394.4545,-275.4861 298.2875,-260.0302 206.2456,-244.1937"/>
<polygon fill="#191970" stroke="#191970" points="206.6525,-240.7123 196.203,-242.4614 205.4625,-247.6104 206.6525,-240.7123"/>
</g>
<!-- Node16&#45;&gt;Node8 -->
<g id="edge30" class="edge">
<title>Node16&#45;&gt;Node8</title>
<path fill="none" stroke="#191970" d="M447.023,-280.3933C428.1381,-273.5635 407.1742,-262.2604 396,-244 376.7393,-212.525 383.6941,-167.3874 390.1032,-141.7603"/>
<polygon fill="#191970" stroke="#191970" points="393.5725,-142.3411 392.8259,-131.7726 386.8189,-140.5 393.5725,-142.3411"/>
</g>
<!-- Node16&#45;&gt;Node14 -->
<g id="edge26" class="edge">
<title>Node16&#45;&gt;Node14</title>
<path fill="none" stroke="#191970" d="M510.7545,-280.3733C534.2849,-271.2226 569.8687,-257.3844 596.0426,-247.2057"/>
<polygon fill="#191970" stroke="#191970" points="597.5171,-250.3877 605.5685,-243.5011 594.9799,-243.8636 597.5171,-250.3877"/>
</g>
<!-- Node17 -->
<g id="node18" class="node">
<title>Node17</title>
<polygon fill="#ffffff" stroke="#bfbfbf" points="297.5,-224.5 297.5,-243.5 348.5,-243.5 348.5,-224.5 297.5,-224.5"/>
<text text-anchor="middle" x="323" y="-231.5" font-family="Helvetica,sans-Serif" font-size="10.00" fill="#000000">cassert</text>
</g>
<!-- Node16&#45;&gt;Node17 -->
<g id="edge25" class="edge">
<title>Node16&#45;&gt;Node17</title>
<path fill="none" stroke="#191970" d="M457.9793,-280.3733C430.338,-270.8769 388.0025,-256.3321 358.1269,-246.0682"/>
<polygon fill="#191970" stroke="#191970" points="359.1068,-242.704 348.5121,-242.7649 356.8323,-249.3242 359.1068,-242.704"/>
</g>
<!-- Node18 -->
<g id="node19" class="node">
<title>Node18</title>
<polygon fill="#ffffff" stroke="#bfbfbf" points="507,-224.5 507,-243.5 543,-243.5 543,-224.5 507,-224.5"/>
<text text-anchor="middle" x="525" y="-231.5" font-family="Helvetica,sans-Serif" font-size="10.00" fill="#000000">new</text>
</g>
<!-- Node16&#45;&gt;Node18 -->
<g id="edge28" class="edge">
<title>Node16&#45;&gt;Node18</title>
<path fill="none" stroke="#191970" d="M492.7933,-280.2455C498.2178,-272.4564 505.9661,-261.3308 512.5033,-251.9439"/>
<polygon fill="#191970" stroke="#191970" points="515.4417,-253.849 518.2846,-243.6427 509.6975,-249.8485 515.4417,-253.849"/>
</g>
<!-- Node19 -->
<g id="node20" class="node">
<title>Node19</title>
<g id="a_node20"><a xlink:href="datatype_8h.html" target="_top" xlink:title="pdi/datatype.h">
<polygon fill="#ffffff" stroke="#000000" points="405.5,-224.5 405.5,-243.5 488.5,-243.5 488.5,-224.5 405.5,-224.5"/>
<text text-anchor="middle" x="447" y="-231.5" font-family="Helvetica,sans-Serif" font-size="10.00" fill="#000000">pdi/datatype.h</text>
</a>
</g>
</g>
<!-- Node16&#45;&gt;Node19 -->
<g id="edge31" class="edge">
<title>Node16&#45;&gt;Node19</title>
<path fill="none" stroke="#191970" d="M479.2067,-280.2455C473.7822,-272.4564 466.0339,-261.3308 459.4967,-251.9439"/>
<polygon fill="#191970" stroke="#191970" points="462.3025,-249.8485 453.7154,-243.6427 456.5583,-253.849 462.3025,-249.8485"/>
</g>
<!-- Node20 -->
<g id="node21" class="node">
<title>Node20</title>
<g id="a_node21"><a xlink:href="error_8h.html" target="_top" xlink:title="pdi/error.h">
<polygon fill="#ffffff" stroke="#000000" points="214.5,-224.5 214.5,-243.5 279.5,-243.5 279.5,-224.5 214.5,-224.5"/>
<text text-anchor="middle" x="247" y="-231.5" font-family="Helvetica,sans-Serif" font-size="10.00" fill="#000000">pdi/error.h</text>
</a>
</g>
</g>
<!-- Node16&#45;&gt;Node20 -->
<g id="edge34" class="edge">
<title>Node16&#45;&gt;Node20</title>
<path fill="none" stroke="#191970" d="M446.899,-281.0489C409.0456,-272.3539 349.7673,-258.66 289.7013,-244.3894"/>
<polygon fill="#191970" stroke="#191970" points="290.2045,-240.9115 279.6659,-242.0015 288.5841,-247.7213 290.2045,-240.9115"/>
</g>
<!-- Node19&#45;&gt;Node8 -->
<g id="edge32" class="edge">
<title>Node19&#45;&gt;Node8</title>
<path fill="none" stroke="#191970" d="M442.6518,-224.4509C434.2209,-205.936 415.5162,-164.8591 404.5237,-140.7187"/>
<polygon fill="#191970" stroke="#191970" points="407.6667,-139.1753 400.3372,-131.5249 401.2961,-142.0762 407.6667,-139.1753"/>
</g>
<!-- Node19&#45;&gt;Node15 -->
<g id="edge33" class="edge">
<title>Node19&#45;&gt;Node15</title>
<path fill="none" stroke="#191970" d="M457.6254,-224.2455C466.5473,-216.0549 479.488,-204.1749 490.0192,-194.5069"/>
<polygon fill="#191970" stroke="#191970" points="492.4968,-196.9837 497.4964,-187.6427 487.7629,-191.8271 492.4968,-196.9837"/>
</g>
<!-- Node20&#45;&gt;Node5 -->
<g id="edge36" class="edge">
<title>Node20&#45;&gt;Node5</title>
<path fill="none" stroke="#191970" d="M226.887,-224.3733C208.1897,-215.4241 180.1256,-201.9917 159.0066,-191.8835"/>
<polygon fill="#191970" stroke="#191970" points="160.3817,-188.6614 149.8506,-187.5011 157.3595,-194.9755 160.3817,-188.6614"/>
</g>
<!-- Node20&#45;&gt;Node8 -->
<g id="edge38" class="edge">
<title>Node20&#45;&gt;Node8</title>
<path fill="none" stroke="#191970" d="M249.1729,-224.1174C252.7902,-209.8685 261.3535,-183.5606 278,-168 296.9741,-150.2636 323.5617,-139.1012 346.6969,-132.2224"/>
<polygon fill="#191970" stroke="#191970" points="347.6734,-135.5837 356.3683,-129.5299 345.796,-128.8401 347.6734,-135.5837"/>
</g>
<!-- Node20&#45;&gt;Node10 -->
<g id="edge37" class="edge">
<title>Node20&#45;&gt;Node10</title>
<path fill="none" stroke="#191970" d="M247.2686,-224.0513C247.9963,-210.6277 250.6253,-186.2917 260,-168 291.4725,-106.5914 353.923,-51.9997 386.7319,-26.0312"/>
<polygon fill="#191970" stroke="#191970" points="389.0331,-28.6753 394.7741,-19.7706 384.7331,-23.1516 389.0331,-28.6753"/>
</g>
<!-- Node21 -->
<g id="node22" class="node">
<title>Node21</title>
<polygon fill="#ffffff" stroke="#bfbfbf" points="287,-168.5 287,-187.5 349,-187.5 349,-168.5 287,-168.5"/>
<text text-anchor="middle" x="318" y="-175.5" font-family="Helvetica,sans-Serif" font-size="10.00" fill="#000000">exception</text>
</g>
<!-- Node20&#45;&gt;Node21 -->
<g id="edge35" class="edge">
<title>Node20&#45;&gt;Node21</title>
<path fill="none" stroke="#191970" d="M259.3673,-224.2455C269.9554,-215.8943 285.4064,-203.7076 297.7893,-193.9408"/>
<polygon fill="#191970" stroke="#191970" points="300.0903,-196.5837 305.7745,-187.6427 295.7553,-191.0875 300.0903,-196.5837"/>
</g>
</g>
</svg>
        <g id="navigator" transform="translate(0 0)" fill="#404254">
                <rect fill="#f2f5e9" fill-opacity="0.5" stroke="#606060" stroke-width=".5" x="0" y="0" width="60" height="60"/>
                <use id="zoomplus" xlink:href="#zoomPlus" x="17" y="9" onmousedown="handleZoom(evt,'in')"/>
                <use id="zoomminus" xlink:href="#zoomMin" x="42" y="9" onmousedown="handleZoom(evt,'out')"/>
                <use id="reset" xlink:href="#resetDef" x="30" y="36" onmousedown="handleReset()"/>
                <g id="arrowUp" xlink:href="#dirArrow" transform="translate(30 24)" onmousedown="handlePan(0,-1)">
                  <use xlink:href="#rim" fill="#404040">
                        <set attributeName="fill" to="#808080" begin="arrowUp.mouseover" end="arrowUp.mouseout"/>
                  </use>
                  <path fill="none" stroke="white" stroke-width="1.5" d="M0,-3.0v7 M-2.5,-0.5L0,-3.0L2.5,-0.5"/>
                </g>
                <g id="arrowRight" xlink:href="#dirArrow" transform="rotate(90) translate(36 -43)" onmousedown="handlePan(1,0)">
                  <use xlink:href="#rim" fill="#404040">
                        <set attributeName="fill" to="#808080" begin="arrowRight.mouseover" end="arrowRight.mouseout"/>
                  </use>
                  <path fill="none" stroke="white" stroke-width="1.5" d="M0,-3.0v7 M-2.5,-0.5L0,-3.0L2.5,-0.5"/>
                </g>
                <g id="arrowDown" xlink:href="#dirArrow" transform="rotate(180) translate(-30 -48)" onmousedown="handlePan(0,1)">
                  <use xlink:href="#rim" fill="#404040">
                        <set attributeName="fill" to="#808080" begin="arrowDown.mouseover" end="arrowDown.mouseout"/>
                  </use>
                  <path fill="none" stroke="white" stroke-width="1.5" d="M0,-3.0v7 M-2.5,-0.5L0,-3.0L2.5,-0.5"/>
                </g>
                <g id="arrowLeft" xlink:href="#dirArrow" transform="rotate(270) translate(-36 17)" onmousedown="handlePan(-1,0)">
                  <use xlink:href="#rim" fill="#404040">
                        <set attributeName="fill" to="#808080" begin="arrowLeft.mouseover" end="arrowLeft.mouseout"/>
                  </use>
                  <path fill="none" stroke="white" stroke-width="1.5" d="M0,-3.0v7 M-2.5,-0.5L0,-3.0L2.5,-0.5"/>
                </g>
        </g>
        <svg viewBox="0 0 15 15" width="100%" height="30px" preserveAspectRatio="xMaxYMin meet">
         <g id="arrow_out" transform="scale(0.3 0.3)">
          <a xlink:href="context_8h__incl_org.svg" target="_base">
           <rect id="button" ry="5" rx="5" y="6" x="6" height="38" width="38"
                fill="#f2f5e9" fill-opacity="0.5" stroke="#606060" stroke-width="1.0"/>
           <path id="arrow"
             d="M 11.500037,31.436501 C 11.940474,20.09759 22.043105,11.32322 32.158766,21.979434 L 37.068811,17.246167 C 37.068811,17.246167 37.088388,32 37.088388,32 L 22.160133,31.978069 C 22.160133,31.978069 26.997745,27.140456 26.997745,27.140456 C 18.528582,18.264221 13.291696,25.230495 11.500037,31.436501 z"
             style="fill:#404040;"/>
          </a>
         </g>
        </svg>
</svg>
