<?xml version="1.0" encoding="UTF-8" standalone="no"?>
<!DOCTYPE svg PUBLIC "-//W3C//DTD SVG 1.1//EN"
 "http://www.w3.org/Graphics/SVG/1.1/DTD/svg11.dtd">
<!-- Generated by graphviz version 2.40.1 (20161225.0304)
 -->
<!-- Title: /home/jbigot/data/projects/pdi/pdi/src/context.cxx Pages: 1 -->
<svg width="1218pt" height="487pt"
 viewBox="0.00 0.00 1217.50 487.00" xmlns="http://www.w3.org/2000/svg" xmlns:xlink="http://www.w3.org/1999/xlink">
<g id="graph0" class="graph" transform="scale(1 1) rotate(0) translate(4 483)">
<title>/home/jbigot/data/projects/pdi/pdi/src/context.cxx</title>
<polygon fill="#ffffff" stroke="transparent" points="-4,4 -4,-483 1213.5,-483 1213.5,4 -4,4"/>
<!-- Node0 -->
<g id="node1" class="node">
<title>Node0</title>
<polygon fill="#bfbfbf" stroke="#000000" points="414.5,-448.5 414.5,-478.5 552.5,-478.5 552.5,-448.5 414.5,-448.5"/>
<text text-anchor="start" x="422.5" y="-466.5" font-family="Helvetica,sans-Serif" font-size="10.00" fill="#000000">/home/jbigot/data/projects</text>
<text text-anchor="middle" x="483.5" y="-455.5" font-family="Helvetica,sans-Serif" font-size="10.00" fill="#000000">/pdi/pdi/src/context.cxx</text>
</g>
<!-- Node1 -->
<g id="node2" class="node">
<title>Node1</title>
<polygon fill="#ffffff" stroke="#bfbfbf" points="0,-392.5 0,-411.5 53,-411.5 53,-392.5 0,-392.5"/>
<text text-anchor="middle" x="26.5" y="-399.5" font-family="Helvetica,sans-Serif" font-size="10.00" fill="#000000">config.h</text>
</g>
<!-- Node0&#45;&gt;Node1 -->
<g id="edge1" class="edge">
<title>Node0&#45;&gt;Node1</title>
<path fill="none" stroke="#191970" d="M414.2591,-458.403C332.3507,-451.6244 191.836,-437.6447 63.1769,-412.0997"/>
<polygon fill="#191970" stroke="#191970" points="63.641,-408.6229 53.1468,-410.0795 62.2588,-415.4851 63.641,-408.6229"/>
</g>
<!-- Node2 -->
<g id="node3" class="node">
<title>Node2</title>
<polygon fill="#ffffff" stroke="#bfbfbf" points="71,-392.5 71,-411.5 128,-411.5 128,-392.5 71,-392.5"/>
<text text-anchor="middle" x="99.5" y="-399.5" font-family="Helvetica,sans-Serif" font-size="10.00" fill="#000000">iostream</text>
</g>
<!-- Node0&#45;&gt;Node2 -->
<g id="edge2" class="edge">
<title>Node0&#45;&gt;Node2</title>
<path fill="none" stroke="#191970" d="M414.325,-454.6762C345.2404,-445.483 236.146,-429.9318 142.5,-412 141.0415,-411.7207 139.5575,-411.4264 138.0601,-411.121"/>
<polygon fill="#191970" stroke="#191970" points="138.6264,-407.6629 128.1144,-408.9848 137.1564,-414.5068 138.6264,-407.6629"/>
</g>
<!-- Node3 -->
<g id="node4" class="node">
<title>Node3</title>
<polygon fill="#ffffff" stroke="#bfbfbf" points="779.5,-56.5 779.5,-75.5 833.5,-75.5 833.5,-56.5 779.5,-56.5"/>
<text text-anchor="middle" x="806.5" y="-63.5" font-family="Helvetica,sans-Serif" font-size="10.00" fill="#000000">memory</text>
</g>
<!-- Node0&#45;&gt;Node3 -->
<g id="edge3" class="edge">
<title>Node0&#45;&gt;Node3</title>
<path fill="none" stroke="#191970" d="M552.7831,-459.5165C734.2504,-448.1623 1209.5,-412.1152 1209.5,-346 1209.5,-346 1209.5,-346 1209.5,-234 1209.5,-155.1158 943.1134,-93.4517 843.4979,-73.1501"/>
<polygon fill="#191970" stroke="#191970" points="844.0618,-69.6935 833.5677,-71.1512 842.6804,-76.5558 844.0618,-69.6935"/>
</g>
<!-- Node4 -->
<g id="node5" class="node">
<title>Node4</title>
<polygon fill="#ffffff" stroke="#bfbfbf" points="369.5,-392.5 369.5,-411.5 415.5,-411.5 415.5,-392.5 369.5,-392.5"/>
<text text-anchor="middle" x="392.5" y="-399.5" font-family="Helvetica,sans-Serif" font-size="10.00" fill="#000000">vector</text>
</g>
<!-- Node0&#45;&gt;Node4 -->
<g id="edge4" class="edge">
<title>Node0&#45;&gt;Node4</title>
<path fill="none" stroke="#191970" d="M461.0056,-448.2977C447.1033,-438.9022 429.3124,-426.8787 415.3454,-417.4395"/>
<polygon fill="#191970" stroke="#191970" points="417.0436,-414.3629 406.7985,-411.6633 413.124,-420.1626 417.0436,-414.3629"/>
</g>
<!-- Node5 -->
<g id="node6" class="node">
<title>Node5</title>
<polygon fill="#ffffff" stroke="#bfbfbf" points="434,-392.5 434,-411.5 481,-411.5 481,-392.5 434,-392.5"/>
<text text-anchor="middle" x="457.5" y="-399.5" font-family="Helvetica,sans-Serif" font-size="10.00" fill="#000000">dlfcn.h</text>
</g>
<!-- Node0&#45;&gt;Node5 -->
<g id="edge5" class="edge">
<title>Node0&#45;&gt;Node5</title>
<path fill="none" stroke="#191970" d="M477.073,-448.2977C473.6143,-440.1166 469.3133,-429.943 465.6246,-421.2179"/>
<polygon fill="#191970" stroke="#191970" points="468.7807,-419.6947 461.6629,-411.8469 462.3332,-422.4205 468.7807,-419.6947"/>
</g>
<!-- Node6 -->
<g id="node7" class="node">
<title>Node6</title>
<g id="a_node7"><a xlink:href="paraconf__wrapper_8h.html" target="_top" xlink:title="pdi/paraconf_wrapper.h">
<polygon fill="#ffffff" stroke="#000000" points="1052,-224.5 1052,-243.5 1181,-243.5 1181,-224.5 1052,-224.5"/>
<text text-anchor="middle" x="1116.5" y="-231.5" font-family="Helvetica,sans-Serif" font-size="10.00" fill="#000000">pdi/paraconf_wrapper.h</text>
</a>
</g>
</g>
<!-- Node0&#45;&gt;Node6 -->
<g id="edge6" class="edge">
<title>Node0&#45;&gt;Node6</title>
<path fill="none" stroke="#191970" d="M552.5379,-457.1039C683.0265,-443.8986 959.7573,-410.2337 1037.5,-356 1074.5882,-330.1271 1098.4645,-280.6912 1109.4512,-253.3617"/>
<polygon fill="#191970" stroke="#191970" points="1112.8234,-254.3437 1113.1458,-243.7538 1106.2898,-251.8312 1112.8234,-254.3437"/>
</g>
<!-- Node14 -->
<g id="node15" class="node">
<title>Node14</title>
<g id="a_node15"><a xlink:href="plugin_8h.html" target="_top" xlink:title="pdi/plugin.h">
<polygon fill="#ffffff" stroke="#000000" points="121.5,-280.5 121.5,-299.5 191.5,-299.5 191.5,-280.5 121.5,-280.5"/>
<text text-anchor="middle" x="156.5" y="-287.5" font-family="Helvetica,sans-Serif" font-size="10.00" fill="#000000">pdi/plugin.h</text>
</a>
</g>
</g>
<!-- Node0&#45;&gt;Node14 -->
<g id="edge16" class="edge">
<title>Node0&#45;&gt;Node14</title>
<path fill="none" stroke="#191970" d="M441.5706,-448.4487C392.3716,-429.9566 309.1766,-396.0593 243.5,-356 218.8286,-340.9518 192.6928,-320.4245 175.5833,-306.2781"/>
<polygon fill="#191970" stroke="#191970" points="177.4294,-303.2591 167.5145,-299.5249 172.9367,-308.6271 177.4294,-303.2591"/>
</g>
<!-- Node15 -->
<g id="node16" class="node">
<title>Node15</title>
<g id="a_node16"><a xlink:href="ref__any_8h.html" target="_top" xlink:title="pdi/ref_any.h">
<polygon fill="#ffffff" stroke="#000000" points="552.5,-280.5 552.5,-299.5 630.5,-299.5 630.5,-280.5 552.5,-280.5"/>
<text text-anchor="middle" x="591.5" y="-287.5" font-family="Helvetica,sans-Serif" font-size="10.00" fill="#000000">pdi/ref_any.h</text>
</a>
</g>
</g>
<!-- Node0&#45;&gt;Node15 -->
<g id="edge18" class="edge">
<title>Node0&#45;&gt;Node15</title>
<path fill="none" stroke="#191970" d="M492.4874,-448.4956C506.8601,-424.5721 535.9979,-376.3652 561.5,-336 567.272,-326.864 573.8137,-316.8006 579.3121,-308.422"/>
<polygon fill="#191970" stroke="#191970" points="582.4019,-310.0938 584.98,-299.8174 576.5562,-306.2432 582.4019,-310.0938"/>
</g>
<!-- Node22 -->
<g id="node23" class="node">
<title>Node22</title>
<g id="a_node23"><a xlink:href="error_8h.html" target="_top" xlink:title="pdi/error.h">
<polygon fill="#ffffff" stroke="#000000" points="892,-224.5 892,-243.5 957,-243.5 957,-224.5 892,-224.5"/>
<text text-anchor="middle" x="924.5" y="-231.5" font-family="Helvetica,sans-Serif" font-size="10.00" fill="#000000">pdi/error.h</text>
</a>
</g>
</g>
<!-- Node0&#45;&gt;Node22 -->
<g id="edge35" class="edge">
<title>Node0&#45;&gt;Node22</title>
<path fill="none" stroke="#191970" d="M552.6623,-456.2534C634.9152,-445.1112 773.9549,-418.1272 876.5,-356 905.549,-338.4006 916.0854,-331.6142 928.5,-300 934.2694,-285.3081 932.6872,-267.3584 929.9863,-253.8889"/>
<polygon fill="#191970" stroke="#191970" points="933.3061,-252.7195 927.5913,-243.7981 926.4953,-254.3361 933.3061,-252.7195"/>
</g>
<!-- Node24 -->
<g id="node25" class="node">
<title>Node24</title>
<g id="a_node25"><a xlink:href="context_8h.html" target="_top" xlink:title="pdi/context.h">
<polygon fill="#ffffff" stroke="#000000" points="552,-392.5 552,-411.5 629,-411.5 629,-392.5 552,-392.5"/>
<text text-anchor="middle" x="590.5" y="-399.5" font-family="Helvetica,sans-Serif" font-size="10.00" fill="#000000">pdi/context.h</text>
</a>
</g>
</g>
<!-- Node0&#45;&gt;Node24 -->
<g id="edge36" class="edge">
<title>Node0&#45;&gt;Node24</title>
<path fill="none" stroke="#191970" d="M509.6751,-448.4554C526.5887,-438.734 548.4829,-426.15 565.2172,-416.5317"/>
<polygon fill="#191970" stroke="#191970" points="566.993,-419.548 573.9188,-411.5303 563.5047,-413.4791 566.993,-419.548"/>
</g>
<!-- Node7 -->
<g id="node8" class="node">
<title>Node7</title>
<polygon fill="#ffffff" stroke="#bfbfbf" points="953,-168.5 953,-187.5 996,-187.5 996,-168.5 953,-168.5"/>
<text text-anchor="middle" x="974.5" y="-175.5" font-family="Helvetica,sans-Serif" font-size="10.00" fill="#000000">string</text>
</g>
<!-- Node6&#45;&gt;Node7 -->
<g id="edge7" class="edge">
<title>Node6&#45;&gt;Node7</title>
<path fill="none" stroke="#191970" d="M1092.0893,-224.3733C1068.1826,-214.9453 1031.6586,-200.5414 1005.6655,-190.2906"/>
<polygon fill="#191970" stroke="#191970" points="1006.8541,-186.9971 996.2673,-186.5843 1004.286,-193.509 1006.8541,-186.9971"/>
</g>
<!-- Node8 -->
<g id="node9" class="node">
<title>Node8</title>
<polygon fill="#ffffff" stroke="#bfbfbf" points="541,-.5 541,-19.5 608,-19.5 608,-.5 541,-.5"/>
<text text-anchor="middle" x="574.5" y="-7.5" font-family="Helvetica,sans-Serif" font-size="10.00" fill="#000000">paraconf.h</text>
</g>
<!-- Node6&#45;&gt;Node8 -->
<g id="edge8" class="edge">
<title>Node6&#45;&gt;Node8</title>
<path fill="none" stroke="#191970" d="M1107.1198,-224.4885C1076.1407,-193.7532 972.9923,-96.7416 866.5,-56 821.9916,-38.9721 688.3859,-22.4411 618.379,-14.6475"/>
<polygon fill="#191970" stroke="#191970" points="618.4443,-11.1336 608.1211,-13.5174 617.6777,-18.0915 618.4443,-11.1336"/>
</g>
<!-- Node9 -->
<g id="node10" class="node">
<title>Node9</title>
<g id="a_node10"><a xlink:href="pdi__fwd_8h.html" target="_top" xlink:title="pdi/pdi_fwd.h">
<polygon fill="#ffffff" stroke="#000000" points="423,-112.5 423,-131.5 502,-131.5 502,-112.5 423,-112.5"/>
<text text-anchor="middle" x="462.5" y="-119.5" font-family="Helvetica,sans-Serif" font-size="10.00" fill="#000000">pdi/pdi_fwd.h</text>
</a>
</g>
</g>
<!-- Node6&#45;&gt;Node9 -->
<g id="edge9" class="edge">
<title>Node6&#45;&gt;Node9</title>
<path fill="none" stroke="#191970" d="M1104.4195,-224.2653C1084.9381,-209.185 1044.7805,-180.6032 1005.5,-168 914.4469,-138.7856 628.6118,-127.0264 512.3867,-123.3719"/>
<polygon fill="#191970" stroke="#191970" points="512.4397,-119.872 502.3368,-123.0629 512.2245,-126.8687 512.4397,-119.872"/>
</g>
<!-- Node9&#45;&gt;Node3 -->
<g id="edge10" class="edge">
<title>Node9&#45;&gt;Node3</title>
<path fill="none" stroke="#191970" d="M502.2972,-115.5214C569.3099,-104.6123 703.7415,-82.7281 769.1038,-72.0877"/>
<polygon fill="#191970" stroke="#191970" points="770.0466,-75.4804 779.3543,-70.4191 768.9218,-68.5714 770.0466,-75.4804"/>
</g>
<!-- Node10 -->
<g id="node11" class="node">
<title>Node10</title>
<g id="a_node11"><a xlink:href="pdi_8h.html" target="_top" xlink:title="pdi.h">
<polygon fill="#ffffff" stroke="#000000" points="152,-56.5 152,-75.5 191,-75.5 191,-56.5 152,-56.5"/>
<text text-anchor="middle" x="171.5" y="-63.5" font-family="Helvetica,sans-Serif" font-size="10.00" fill="#000000">pdi.h</text>
</a>
</g>
</g>
<!-- Node9&#45;&gt;Node10 -->
<g id="edge11" class="edge">
<title>Node9&#45;&gt;Node10</title>
<path fill="none" stroke="#191970" d="M422.9516,-114.3893C363.9257,-103.0304 254.0899,-81.8936 201.317,-71.738"/>
<polygon fill="#191970" stroke="#191970" points="201.7389,-68.255 191.2577,-69.8022 200.4161,-75.1289 201.7389,-68.255"/>
</g>
<!-- Node10&#45;&gt;Node8 -->
<g id="edge13" class="edge">
<title>Node10&#45;&gt;Node8</title>
<path fill="none" stroke="#191970" d="M191.1395,-59.6365C195.8096,-58.2872 200.8013,-56.9771 205.5,-56 321.6816,-31.839 461.2617,-18.6587 530.7407,-13.1467"/>
<polygon fill="#191970" stroke="#191970" points="531.1757,-16.6235 540.8739,-12.358 530.6324,-9.6446 531.1757,-16.6235"/>
</g>
<!-- Node11 -->
<g id="node12" class="node">
<title>Node11</title>
<polygon fill="#ffffff" stroke="#bfbfbf" points="74,-.5 74,-19.5 115,-19.5 115,-.5 74,-.5"/>
<text text-anchor="middle" x="94.5" y="-7.5" font-family="Helvetica,sans-Serif" font-size="10.00" fill="#000000">mpi.h</text>
</g>
<!-- Node10&#45;&gt;Node11 -->
<g id="edge12" class="edge">
<title>Node10&#45;&gt;Node11</title>
<path fill="none" stroke="#191970" d="M158.0876,-56.2455C146.4943,-47.814 129.5252,-35.4729 116.0322,-25.6598"/>
<polygon fill="#191970" stroke="#191970" points="117.9047,-22.6938 107.7587,-19.6427 113.7874,-28.355 117.9047,-22.6938"/>
</g>
<!-- Node12 -->
<g id="node13" class="node">
<title>Node12</title>
<polygon fill="#ffffff" stroke="#bfbfbf" points="134.5,-.5 134.5,-19.5 206.5,-19.5 206.5,-.5 134.5,-.5"/>
<text text-anchor="middle" x="170.5" y="-7.5" font-family="Helvetica,sans-Serif" font-size="10.00" fill="#000000">pdi/export.h</text>
</g>
<!-- Node10&#45;&gt;Node12 -->
<g id="edge14" class="edge">
<title>Node10&#45;&gt;Node12</title>
<path fill="none" stroke="#191970" d="M171.3258,-56.2455C171.1953,-48.9382 171.0124,-38.6944 170.8519,-29.7046"/>
<polygon fill="#191970" stroke="#191970" points="174.3503,-29.5786 170.6722,-19.6427 167.3514,-29.7036 174.3503,-29.5786"/>
</g>
<!-- Node13 -->
<g id="node14" class="node">
<title>Node13</title>
<polygon fill="#ffffff" stroke="#bfbfbf" points="225,-.5 225,-19.5 302,-19.5 302,-.5 225,-.5"/>
<text text-anchor="middle" x="263.5" y="-7.5" font-family="Helvetica,sans-Serif" font-size="10.00" fill="#000000">pdi/version.h</text>
</g>
<!-- Node10&#45;&gt;Node13 -->
<g id="edge15" class="edge">
<title>Node10&#45;&gt;Node13</title>
<path fill="none" stroke="#191970" d="M187.5252,-56.2455C201.6408,-47.6534 222.4263,-35.0014 238.6899,-25.1018"/>
<polygon fill="#191970" stroke="#191970" points="240.9363,-27.8319 247.6585,-19.6427 237.2966,-21.8525 240.9363,-27.8319"/>
</g>
<!-- Node14&#45;&gt;Node9 -->
<g id="edge17" class="edge">
<title>Node14&#45;&gt;Node9</title>
<path fill="none" stroke="#191970" d="M160.4599,-280.1944C170.4942,-256.6818 199.3032,-196.9045 243.5,-168 270.8953,-150.0836 357.1156,-135.8227 412.8478,-128.1678"/>
<polygon fill="#191970" stroke="#191970" points="413.4355,-131.6204 422.8784,-126.816 412.5004,-124.6831 413.4355,-131.6204"/>
</g>
<!-- Node15&#45;&gt;Node3 -->
<g id="edge21" class="edge">
<title>Node15&#45;&gt;Node3</title>
<path fill="none" stroke="#191970" d="M621.9394,-280.4269C642.395,-272.8963 669.0636,-260.8453 688.5,-244 742.3065,-197.3665 781.7899,-120.5291 798.1599,-85.0468"/>
<polygon fill="#191970" stroke="#191970" points="801.4019,-86.3717 802.3236,-75.817 795.0211,-83.4932 801.4019,-86.3717"/>
</g>
<!-- Node15&#45;&gt;Node9 -->
<g id="edge24" class="edge">
<title>Node15&#45;&gt;Node9</title>
<path fill="none" stroke="#191970" d="M552.3941,-281.1395C518.7788,-272.6411 474.0885,-258.9263 463.5,-244 441.9462,-213.6161 449.5358,-167.3982 456.3982,-141.4433"/>
<polygon fill="#191970" stroke="#191970" points="459.8099,-142.2434 459.2076,-131.6657 453.0821,-140.3102 459.8099,-142.2434"/>
</g>
<!-- Node16 -->
<g id="node17" class="node">
<title>Node16</title>
<polygon fill="#ffffff" stroke="#bfbfbf" points="628,-224.5 628,-243.5 679,-243.5 679,-224.5 628,-224.5"/>
<text text-anchor="middle" x="653.5" y="-231.5" font-family="Helvetica,sans-Serif" font-size="10.00" fill="#000000">cassert</text>
</g>
<!-- Node15&#45;&gt;Node16 -->
<g id="edge19" class="edge">
<title>Node15&#45;&gt;Node16</title>
<path fill="none" stroke="#191970" d="M602.2996,-280.2455C611.3678,-272.0549 624.5206,-260.1749 635.2245,-250.5069"/>
<polygon fill="#191970" stroke="#191970" points="637.7491,-252.9429 642.8242,-243.6427 633.0571,-247.7482 637.7491,-252.9429"/>
</g>
<!-- Node17 -->
<g id="node18" class="node">
<title>Node17</title>
<polygon fill="#ffffff" stroke="#bfbfbf" points="735.5,-224.5 735.5,-243.5 797.5,-243.5 797.5,-224.5 735.5,-224.5"/>
<text text-anchor="middle" x="766.5" y="-231.5" font-family="Helvetica,sans-Serif" font-size="10.00" fill="#000000">functional</text>
</g>
<!-- Node15&#45;&gt;Node17 -->
<g id="edge20" class="edge">
<title>Node15&#45;&gt;Node17</title>
<path fill="none" stroke="#191970" d="M621.5836,-280.3733C650.6834,-271.0613 694.9523,-256.8953 726.903,-246.671"/>
<polygon fill="#191970" stroke="#191970" points="728.3515,-249.8824 736.809,-243.5011 726.218,-243.2155 728.3515,-249.8824"/>
</g>
<!-- Node18 -->
<g id="node19" class="node">
<title>Node18</title>
<polygon fill="#ffffff" stroke="#bfbfbf" points="573.5,-224.5 573.5,-243.5 609.5,-243.5 609.5,-224.5 573.5,-224.5"/>
<text text-anchor="middle" x="591.5" y="-231.5" font-family="Helvetica,sans-Serif" font-size="10.00" fill="#000000">new</text>
</g>
<!-- Node15&#45;&gt;Node18 -->
<g id="edge22" class="edge">
<title>Node15&#45;&gt;Node18</title>
<path fill="none" stroke="#191970" d="M591.5,-280.2455C591.5,-272.9382 591.5,-262.6944 591.5,-253.7046"/>
<polygon fill="#191970" stroke="#191970" points="595.0001,-253.6426 591.5,-243.6427 588.0001,-253.6427 595.0001,-253.6426"/>
</g>
<!-- Node19 -->
<g id="node20" class="node">
<title>Node19</title>
<polygon fill="#ffffff" stroke="#bfbfbf" points="323.5,-224.5 323.5,-243.5 415.5,-243.5 415.5,-224.5 323.5,-224.5"/>
<text text-anchor="middle" x="369.5" y="-231.5" font-family="Helvetica,sans-Serif" font-size="10.00" fill="#000000">unordered_map</text>
</g>
<!-- Node15&#45;&gt;Node19 -->
<g id="edge23" class="edge">
<title>Node15&#45;&gt;Node19</title>
<path fill="none" stroke="#191970" d="M553.5891,-280.4369C515.835,-270.9133 457.7735,-256.2672 416.9736,-245.9753"/>
<polygon fill="#191970" stroke="#191970" points="417.8069,-242.576 407.2546,-243.5237 416.0947,-249.3633 417.8069,-242.576"/>
</g>
<!-- Node20 -->
<g id="node21" class="node">
<title>Node20</title>
<g id="a_node21"><a xlink:href="datatype_8h.html" target="_top" xlink:title="pdi/datatype.h">
<polygon fill="#ffffff" stroke="#000000" points="472,-224.5 472,-243.5 555,-243.5 555,-224.5 472,-224.5"/>
<text text-anchor="middle" x="513.5" y="-231.5" font-family="Helvetica,sans-Serif" font-size="10.00" fill="#000000">pdi/datatype.h</text>
</a>
</g>
</g>
<!-- Node15&#45;&gt;Node20 -->
<g id="edge25" class="edge">
<title>Node15&#45;&gt;Node20</title>
<path fill="none" stroke="#191970" d="M577.9134,-280.2455C566.1695,-271.814 548.9801,-259.4729 535.3118,-249.6598"/>
<polygon fill="#191970" stroke="#191970" points="537.0954,-246.6316 526.9309,-243.6427 533.0129,-252.3179 537.0954,-246.6316"/>
</g>
<!-- Node15&#45;&gt;Node22 -->
<g id="edge30" class="edge">
<title>Node15&#45;&gt;Node22</title>
<path fill="none" stroke="#191970" d="M630.6786,-283.4114C693.6718,-272.818 816.9766,-252.082 882.0127,-241.145"/>
<polygon fill="#191970" stroke="#191970" points="882.6511,-244.5869 891.9321,-239.4769 881.4901,-237.6838 882.6511,-244.5869"/>
</g>
<!-- Node20&#45;&gt;Node9 -->
<g id="edge26" class="edge">
<title>Node20&#45;&gt;Node9</title>
<path fill="none" stroke="#191970" d="M509.1518,-224.4509C500.7209,-205.936 482.0162,-164.8591 471.0237,-140.7187"/>
<polygon fill="#191970" stroke="#191970" points="474.1667,-139.1753 466.8372,-131.5249 467.7961,-142.0762 474.1667,-139.1753"/>
</g>
<!-- Node21 -->
<g id="node22" class="node">
<title>Node21</title>
<g id="a_node22"><a xlink:href="datatype__template_8h.html" target="_top" xlink:title="pdi/datatype_template.h">
<polygon fill="#ffffff" stroke="#000000" points="509.5,-168.5 509.5,-187.5 639.5,-187.5 639.5,-168.5 509.5,-168.5"/>
<text text-anchor="middle" x="574.5" y="-175.5" font-family="Helvetica,sans-Serif" font-size="10.00" fill="#000000">pdi/datatype_template.h</text>
</a>
</g>
</g>
<!-- Node20&#45;&gt;Node21 -->
<g id="edge27" class="edge">
<title>Node20&#45;&gt;Node21</title>
<path fill="none" stroke="#191970" d="M524.1254,-224.2455C533.0473,-216.0549 545.988,-204.1749 556.5192,-194.5069"/>
<polygon fill="#191970" stroke="#191970" points="558.9968,-196.9837 563.9964,-187.6427 554.2629,-191.8271 558.9968,-196.9837"/>
</g>
<!-- Node21&#45;&gt;Node8 -->
<g id="edge28" class="edge">
<title>Node21&#45;&gt;Node8</title>
<path fill="none" stroke="#191970" d="M574.5,-168.4862C574.5,-141.9293 574.5,-66.5651 574.5,-30.1655"/>
<polygon fill="#191970" stroke="#191970" points="578.0001,-29.8278 574.5,-19.8279 571.0001,-29.8279 578.0001,-29.8278"/>
</g>
<!-- Node21&#45;&gt;Node9 -->
<g id="edge29" class="edge">
<title>Node21&#45;&gt;Node9</title>
<path fill="none" stroke="#191970" d="M555.2465,-168.3733C537.4288,-159.4644 510.7253,-146.1127 490.5406,-136.0203"/>
<polygon fill="#191970" stroke="#191970" points="492.0118,-132.8428 481.5022,-131.5011 488.8813,-139.1038 492.0118,-132.8428"/>
</g>
<!-- Node22&#45;&gt;Node7 -->
<g id="edge32" class="edge">
<title>Node22&#45;&gt;Node7</title>
<path fill="none" stroke="#191970" d="M933.2093,-224.2455C940.3073,-216.2958 950.5084,-204.8706 958.995,-195.3656"/>
<polygon fill="#191970" stroke="#191970" points="961.8411,-197.4331 965.8905,-187.6427 956.6195,-192.771 961.8411,-197.4331"/>
</g>
<!-- Node22&#45;&gt;Node8 -->
<g id="edge33" class="edge">
<title>Node22&#45;&gt;Node8</title>
<path fill="none" stroke="#191970" d="M923.3496,-224.1561C919.163,-193.2557 901.7265,-97.7655 842.5,-56 807.1606,-31.0793 685.1538,-18.2689 618.6195,-12.9983"/>
<polygon fill="#191970" stroke="#191970" points="618.6779,-9.4926 608.4393,-12.2164 618.1418,-16.472 618.6779,-9.4926"/>
</g>
<!-- Node22&#45;&gt;Node9 -->
<g id="edge34" class="edge">
<title>Node22&#45;&gt;Node9</title>
<path fill="none" stroke="#191970" d="M891.6445,-226.035C811.6862,-206.6512 606.5929,-156.9316 511.8444,-133.9623"/>
<polygon fill="#191970" stroke="#191970" points="512.4813,-130.5154 501.9382,-131.5608 510.8321,-137.3183 512.4813,-130.5154"/>
</g>
<!-- Node23 -->
<g id="node24" class="node">
<title>Node23</title>
<polygon fill="#ffffff" stroke="#bfbfbf" points="834.5,-168.5 834.5,-187.5 896.5,-187.5 896.5,-168.5 834.5,-168.5"/>
<text text-anchor="middle" x="865.5" y="-175.5" font-family="Helvetica,sans-Serif" font-size="10.00" fill="#000000">exception</text>
</g>
<!-- Node22&#45;&gt;Node23 -->
<g id="edge31" class="edge">
<title>Node22&#45;&gt;Node23</title>
<path fill="none" stroke="#191970" d="M914.223,-224.2455C905.6782,-216.1352 893.3222,-204.4075 883.1915,-194.7919"/>
<polygon fill="#191970" stroke="#191970" points="885.3218,-191.9884 875.6592,-187.6427 880.5028,-197.0655 885.3218,-191.9884"/>
</g>
<!-- Node24&#45;&gt;Node3 -->
<g id="edge39" class="edge">
<title>Node24&#45;&gt;Node3</title>
<path fill="none" stroke="#191970" d="M629.1328,-399.4411C702.2517,-394.0985 857.8196,-380.2025 905.5,-356 936.6073,-340.21 941.4048,-329.1953 960.5,-300 994.4271,-248.1277 1037.8219,-220.8874 1005.5,-168 970.2301,-110.2888 890.8027,-83.8876 843.6536,-72.9089"/>
<polygon fill="#191970" stroke="#191970" points="844.3464,-69.4776 833.8264,-70.735 842.8344,-76.3124 844.3464,-69.4776"/>
</g>
<!-- Node24&#45;&gt;Node7 -->
<g id="edge41" class="edge">
<title>Node24&#45;&gt;Node7</title>
<path fill="none" stroke="#191970" d="M629.0579,-398.9189C696.873,-392.991 834.3112,-378.5543 876.5,-356 932.8154,-325.8936 944.0995,-303.8 966.5,-244 972.0672,-229.138 973.9619,-211.2009 974.5231,-197.7796"/>
<polygon fill="#191970" stroke="#191970" points="978.0232,-197.8051 974.7322,-187.7344 971.0247,-197.6593 978.0232,-197.8051"/>
</g>
<!-- Node24&#45;&gt;Node9 -->
<g id="edge44" class="edge">
<title>Node24&#45;&gt;Node9</title>
<path fill="none" stroke="#191970" d="M551.9754,-397.3321C464.3195,-385.6384 257.5,-351.5286 257.5,-290 257.5,-290 257.5,-290 257.5,-234 257.5,-163.4587 352.1369,-137.071 412.8098,-127.402"/>
<polygon fill="#191970" stroke="#191970" points="413.5995,-130.8231 422.9739,-125.8865 412.5671,-123.8996 413.5995,-130.8231"/>
</g>
<!-- Node24&#45;&gt;Node11 -->
<g id="edge37" class="edge">
<title>Node24&#45;&gt;Node11</title>
<path fill="none" stroke="#191970" d="M551.8626,-397.4761C496.1469,-390.5858 390.1905,-376.1079 301.5,-356 216.0587,-336.6288 174.2087,-362.1892 112.5,-300 90.9997,-278.3323 93.5,-264.5246 93.5,-234 93.5,-234 93.5,-234 93.5,-122 93.5,-89.7103 93.9207,-52.1863 94.2164,-29.8043"/>
<polygon fill="#191970" stroke="#191970" points="97.719,-29.6353 94.3567,-19.5881 90.7196,-29.5391 97.719,-29.6353"/>
</g>
<!-- Node24&#45;&gt;Node15 -->
<g id="edge53" class="edge">
<title>Node24&#45;&gt;Node15</title>
<path fill="none" stroke="#191970" d="M583.3848,-392.335C574.9045,-379.6271 562.4722,-356.5061 567.5,-336 569.8743,-326.3164 574.6821,-316.4071 579.3753,-308.2776"/>
<polygon fill="#191970" stroke="#191970" points="582.4119,-310.0214 584.6792,-299.672 576.4528,-306.3486 582.4119,-310.0214"/>
</g>
<!-- Node24&#45;&gt;Node19 -->
<g id="edge42" class="edge">
<title>Node24&#45;&gt;Node19</title>
<path fill="none" stroke="#191970" d="M577.9849,-392.4862C541.6032,-364.8296 435.589,-284.2396 390.3505,-249.8502"/>
<polygon fill="#191970" stroke="#191970" points="392.2309,-246.8831 382.1518,-243.6177 387.9946,-252.4558 392.2309,-246.8831"/>
</g>
<!-- Node25 -->
<g id="node26" class="node">
<title>Node25</title>
<polygon fill="#ffffff" stroke="#bfbfbf" points="576,-336.5 576,-355.5 605,-355.5 605,-336.5 576,-336.5"/>
<text text-anchor="middle" x="590.5" y="-343.5" font-family="Helvetica,sans-Serif" font-size="10.00" fill="#000000">list</text>
</g>
<!-- Node24&#45;&gt;Node25 -->
<g id="edge38" class="edge">
<title>Node24&#45;&gt;Node25</title>
<path fill="none" stroke="#191970" d="M590.5,-392.2455C590.5,-384.9382 590.5,-374.6944 590.5,-365.7046"/>
<polygon fill="#191970" stroke="#191970" points="594.0001,-365.6426 590.5,-355.6427 587.0001,-365.6427 594.0001,-365.6426"/>
</g>
<!-- Node26 -->
<g id="node27" class="node">
<title>Node26</title>
<polygon fill="#ffffff" stroke="#bfbfbf" points="878,-280.5 878,-299.5 919,-299.5 919,-280.5 878,-280.5"/>
<text text-anchor="middle" x="898.5" y="-287.5" font-family="Helvetica,sans-Serif" font-size="10.00" fill="#000000">stack</text>
</g>
<!-- Node24&#45;&gt;Node26 -->
<g id="edge40" class="edge">
<title>Node24&#45;&gt;Node26</title>
<path fill="none" stroke="#191970" d="M629.152,-398.8613C692.7494,-393.1026 816.0504,-379.258 852.5,-356 869.9109,-344.8904 882.556,-324.5936 890.1317,-309.4302"/>
<polygon fill="#191970" stroke="#191970" points="893.5083,-310.4708 894.5628,-299.9286 887.1642,-307.5122 893.5083,-310.4708"/>
</g>
<!-- Node27 -->
<g id="node28" class="node">
<title>Node27</title>
<polygon fill="#ffffff" stroke="#bfbfbf" points="623.5,-336.5 623.5,-355.5 709.5,-355.5 709.5,-336.5 623.5,-336.5"/>
<text text-anchor="middle" x="666.5" y="-343.5" font-family="Helvetica,sans-Serif" font-size="10.00" fill="#000000">unordered_set</text>
</g>
<!-- Node24&#45;&gt;Node27 -->
<g id="edge43" class="edge">
<title>Node24&#45;&gt;Node27</title>
<path fill="none" stroke="#191970" d="M603.7382,-392.2455C615.181,-383.814 631.9296,-371.4729 645.2475,-361.6598"/>
<polygon fill="#191970" stroke="#191970" points="647.4391,-364.3924 653.4135,-355.6427 643.2867,-358.757 647.4391,-364.3924"/>
</g>
<!-- Node28 -->
<g id="node29" class="node">
<title>Node28</title>
<g id="a_node29"><a xlink:href="data__descriptor_8h.html" target="_top" xlink:title="pdi/data_descriptor.h">
<polygon fill="#ffffff" stroke="#000000" points="727.5,-336.5 727.5,-355.5 843.5,-355.5 843.5,-336.5 727.5,-336.5"/>
<text text-anchor="middle" x="785.5" y="-343.5" font-family="Helvetica,sans-Serif" font-size="10.00" fill="#000000">pdi/data_descriptor.h</text>
</a>
</g>
</g>
<!-- Node24&#45;&gt;Node28 -->
<g id="edge45" class="edge">
<title>Node24&#45;&gt;Node28</title>
<path fill="none" stroke="#191970" d="M624.0217,-392.3733C656.8683,-382.9404 707.0595,-368.5265 742.7578,-358.2747"/>
<polygon fill="#191970" stroke="#191970" points="743.7703,-361.6255 752.4157,-355.5011 741.8381,-354.8974 743.7703,-361.6255"/>
</g>
<!-- Node28&#45;&gt;Node3 -->
<g id="edge47" class="edge">
<title>Node28&#45;&gt;Node3</title>
<path fill="none" stroke="#191970" d="M798.2248,-336.2466C808.0407,-327.8582 820.8633,-314.7955 826.5,-300 834.0393,-280.2103 816.1695,-138.427 809.1664,-85.6906"/>
<polygon fill="#191970" stroke="#191970" points="812.612,-85.0502 807.8147,-75.6036 805.674,-85.9799 812.612,-85.0502"/>
</g>
<!-- Node28&#45;&gt;Node8 -->
<g id="edge49" class="edge">
<title>Node28&#45;&gt;Node8</title>
<path fill="none" stroke="#191970" d="M727.4039,-337.2688C724.3933,-336.8351 721.4115,-336.4099 718.5,-336 606.4236,-320.2204 219.5,-347.1818 219.5,-234 219.5,-234 219.5,-234 219.5,-122 219.5,-57.4506 435.6583,-25.4429 530.6303,-14.4951"/>
<polygon fill="#191970" stroke="#191970" points="531.2368,-17.949 540.7824,-13.3521 530.4536,-10.993 531.2368,-17.949"/>
</g>
<!-- Node28&#45;&gt;Node9 -->
<g id="edge50" class="edge">
<title>Node28&#45;&gt;Node9</title>
<path fill="none" stroke="#191970" d="M732.7653,-336.4357C612.5499,-314.3845 327.5277,-260.5974 314.5,-244 277.2607,-196.5568 366.8029,-155.1763 422.3672,-135.0289"/>
<polygon fill="#191970" stroke="#191970" points="423.7119,-138.2659 431.9734,-131.6328 421.3786,-131.6662 423.7119,-138.2659"/>
</g>
<!-- Node28&#45;&gt;Node15 -->
<g id="edge52" class="edge">
<title>Node28&#45;&gt;Node15</title>
<path fill="none" stroke="#191970" d="M752.1502,-336.3733C719.472,-326.9404 669.5382,-312.5265 634.023,-302.2747"/>
<polygon fill="#191970" stroke="#191970" points="634.993,-298.9119 624.4146,-299.5011 633.0516,-305.6373 634.993,-298.9119"/>
</g>
<!-- Node28&#45;&gt;Node17 -->
<g id="edge46" class="edge">
<title>Node28&#45;&gt;Node17</title>
<path fill="none" stroke="#191970" d="M783.8801,-336.4509C780.7812,-318.184 773.9567,-277.9553 769.8416,-253.6976"/>
<polygon fill="#191970" stroke="#191970" points="773.2391,-252.7986 768.1158,-243.5249 766.3377,-253.9694 773.2391,-252.7986"/>
</g>
<!-- Node28&#45;&gt;Node21 -->
<g id="edge51" class="edge">
<title>Node28&#45;&gt;Node21</title>
<path fill="none" stroke="#191970" d="M791.5867,-336.4836C805.0484,-314.1139 834.0518,-257.551 806.5,-224 796.4047,-211.7065 713.5255,-197.4413 649.6754,-188.0957"/>
<polygon fill="#191970" stroke="#191970" points="650.0033,-184.6068 639.6053,-186.6391 649.0012,-191.5347 650.0033,-184.6068"/>
</g>
<!-- Node28&#45;&gt;Node26 -->
<g id="edge48" class="edge">
<title>Node28&#45;&gt;Node26</title>
<path fill="none" stroke="#191970" d="M804.9254,-336.3733C822.9021,-327.4644 849.8441,-314.1127 870.209,-304.0203"/>
<polygon fill="#191970" stroke="#191970" points="871.9222,-307.0776 879.3281,-299.5011 868.8139,-300.8055 871.9222,-307.0776"/>
</g>
</g>
</svg>
