<?xml version="1.0" encoding="UTF-8" standalone="no"?>
<!DOCTYPE svg PUBLIC "-//W3C//DTD SVG 1.1//EN"
 "http://www.w3.org/Graphics/SVG/1.1/DTD/svg11.dtd">
<!-- Generated by graphviz version 2.40.1 (20161225.0304)
 -->
<!-- Title: /home/jbigot/data/projects/pdi/pdi/include/pdi/datatype.h Pages: 1 -->
<svg width="1715pt" height="318pt"
 viewBox="0.00 0.00 1715.17 318.00" xmlns="http://www.w3.org/2000/svg" xmlns:xlink="http://www.w3.org/1999/xlink">
<g id="graph0" class="graph" transform="scale(1 1) rotate(0) translate(4 314)">
<title>/home/jbigot/data/projects/pdi/pdi/include/pdi/datatype.h</title>
<polygon fill="#ffffff" stroke="transparent" points="-4,4 -4,-314 1711.1651,-314 1711.1651,4 -4,4"/>
<!-- Node9 -->
<g id="node1" class="node">
<title>Node9</title>
<polygon fill="#bfbfbf" stroke="#000000" points="803.6651,-279.5 803.6651,-309.5 960.6651,-309.5 960.6651,-279.5 803.6651,-279.5"/>
<text text-anchor="start" x="811.6651" y="-297.5" font-family="Helvetica,sans-Serif" font-size="10.00" fill="#000000">/home/jbigot/data/projects</text>
<text text-anchor="middle" x="882.1651" y="-286.5" font-family="Helvetica,sans-Serif" font-size="10.00" fill="#000000">/pdi/pdi/include/pdi/datatype.h</text>
</g>
<!-- Node10 -->
<g id="node2" class="node">
<title>Node10</title>
<g id="a_node2"><a xlink:href="array__datatype_8h.html" target="_top" xlink:title="/home/jbigot/data/projects\l/pdi/pdi/include/pdi/array\l_datatype.h">
<polygon fill="#ffffff" stroke="#000000" points="214.1651,-134.5 214.1651,-175.5 352.1651,-175.5 352.1651,-134.5 214.1651,-134.5"/>
<text text-anchor="start" x="222.1651" y="-163.5" font-family="Helvetica,sans-Serif" font-size="10.00" fill="#000000">/home/jbigot/data/projects</text>
<text text-anchor="start" x="222.1651" y="-152.5" font-family="Helvetica,sans-Serif" font-size="10.00" fill="#000000">/pdi/pdi/include/pdi/array</text>
<text text-anchor="middle" x="283.1651" y="-141.5" font-family="Helvetica,sans-Serif" font-size="10.00" fill="#000000">_datatype.h</text>
</a>
</g>
</g>
<!-- Node9&#45;&gt;Node10 -->
<g id="edge1" class="edge">
<title>Node9&#45;&gt;Node10</title>
<path fill="none" stroke="#191970" d="M799.9353,-277.3641C753.7854,-267.6007 695.192,-254.9619 643.1651,-243 541.7411,-219.6809 424.7658,-190.6984 352.3811,-172.5186"/>
<polygon fill="#191970" stroke="#191970" points="799.3782,-280.8236 809.8856,-279.4654 800.8246,-273.9746 799.3782,-280.8236"/>
</g>
<!-- Node13 -->
<g id="node5" class="node">
<title>Node13</title>
<g id="a_node5"><a xlink:href="expression_8cxx.html" target="_top" xlink:title="/home/jbigot/data/projects\l/pdi/pdi/src/expression.cxx">
<polygon fill="#ffffff" stroke="#000000" points="749.6651,-.5 749.6651,-30.5 890.6651,-30.5 890.6651,-.5 749.6651,-.5"/>
<text text-anchor="start" x="757.6651" y="-18.5" font-family="Helvetica,sans-Serif" font-size="10.00" fill="#000000">/home/jbigot/data/projects</text>
<text text-anchor="middle" x="820.1651" y="-7.5" font-family="Helvetica,sans-Serif" font-size="10.00" fill="#000000">/pdi/pdi/src/expression.cxx</text>
</a>
</g>
</g>
<!-- Node9&#45;&gt;Node13 -->
<g id="edge41" class="edge">
<title>Node9&#45;&gt;Node13</title>
<path fill="none" stroke="#191970" d="M793.3664,-293.3984C637.1829,-290.5086 320.0187,-280.117 216.1651,-243 106.2286,-203.7089 -58.6882,-152.1661 21.1651,-67 45.8999,-40.6197 558.5155,-23.0942 749.3807,-17.4619"/>
<polygon fill="#191970" stroke="#191970" points="793.3562,-296.8987 803.4172,-293.5781 793.4814,-289.8998 793.3562,-296.8987"/>
</g>
<!-- Node14 -->
<g id="node6" class="node">
<title>Node14</title>
<g id="a_node6"><a xlink:href="ref__any_8cxx.html" target="_top" xlink:title="/home/jbigot/data/projects\l/pdi/pdi/src/ref_any.cxx">
<polygon fill="#ffffff" stroke="#000000" points="46.1651,-67.5 46.1651,-97.5 184.1651,-97.5 184.1651,-67.5 46.1651,-67.5"/>
<text text-anchor="start" x="54.1651" y="-85.5" font-family="Helvetica,sans-Serif" font-size="10.00" fill="#000000">/home/jbigot/data/projects</text>
<text text-anchor="middle" x="115.1651" y="-74.5" font-family="Helvetica,sans-Serif" font-size="10.00" fill="#000000">/pdi/pdi/src/ref_any.cxx</text>
</a>
</g>
</g>
<!-- Node9&#45;&gt;Node14 -->
<g id="edge43" class="edge">
<title>Node9&#45;&gt;Node14</title>
<path fill="none" stroke="#191970" d="M793.4554,-291.3578C620.1326,-283.4666 245.0665,-257.2312 149.1651,-176 125.7048,-156.1284 118.4314,-118.6873 116.1771,-97.7164"/>
<polygon fill="#191970" stroke="#191970" points="793.4236,-294.8598 803.5694,-291.8078 793.7349,-287.8667 793.4236,-294.8598"/>
</g>
<!-- Node15 -->
<g id="node7" class="node">
<title>Node15</title>
<g id="a_node7"><a xlink:href="record__datatype_8h.html" target="_top" xlink:title="/home/jbigot/data/projects\l/pdi/pdi/include/pdi/record\l_datatype.h">
<polygon fill="#ffffff" stroke="#000000" points="415.1651,-134.5 415.1651,-175.5 553.1651,-175.5 553.1651,-134.5 415.1651,-134.5"/>
<text text-anchor="start" x="423.1651" y="-163.5" font-family="Helvetica,sans-Serif" font-size="10.00" fill="#000000">/home/jbigot/data/projects</text>
<text text-anchor="start" x="423.1651" y="-152.5" font-family="Helvetica,sans-Serif" font-size="10.00" fill="#000000">/pdi/pdi/include/pdi/record</text>
<text text-anchor="middle" x="484.1651" y="-141.5" font-family="Helvetica,sans-Serif" font-size="10.00" fill="#000000">_datatype.h</text>
</a>
</g>
</g>
<!-- Node9&#45;&gt;Node15 -->
<g id="edge6" class="edge">
<title>Node9&#45;&gt;Node15</title>
<path fill="none" stroke="#191970" d="M829.567,-276.0642C755.2782,-250.0258 620.0686,-202.6345 542.688,-175.5124"/>
<polygon fill="#191970" stroke="#191970" points="828.5992,-279.4337 839.194,-279.4385 830.9146,-272.8277 828.5992,-279.4337"/>
</g>
<!-- Node17 -->
<g id="node9" class="node">
<title>Node17</title>
<g id="a_node9"><a xlink:href="ref__any_8h.html" target="_top" xlink:title="/home/jbigot/data/projects\l/pdi/pdi/include/pdi/ref_any.h">
<polygon fill="#ffffff" stroke="#000000" points="1050.1651,-212.5 1050.1651,-242.5 1202.1651,-242.5 1202.1651,-212.5 1050.1651,-212.5"/>
<text text-anchor="start" x="1058.1651" y="-230.5" font-family="Helvetica,sans-Serif" font-size="10.00" fill="#000000">/home/jbigot/data/projects</text>
<text text-anchor="middle" x="1126.1651" y="-219.5" font-family="Helvetica,sans-Serif" font-size="10.00" fill="#000000">/pdi/pdi/include/pdi/ref_any.h</text>
</a>
</g>
</g>
<!-- Node9&#45;&gt;Node17 -->
<g id="edge10" class="edge">
<title>Node9&#45;&gt;Node17</title>
<path fill="none" stroke="#191970" d="M947.0464,-276.6842C985.7494,-266.0568 1034.3573,-252.7095 1071.168,-242.6017"/>
<polygon fill="#191970" stroke="#191970" points="945.6398,-273.4409 936.9235,-279.4639 947.4934,-280.191 945.6398,-273.4409"/>
</g>
<!-- Node20 -->
<g id="node12" class="node">
<title>Node20</title>
<g id="a_node12"><a xlink:href="data__descriptor_8cxx.html" target="_top" xlink:title="/home/jbigot/data/projects\l/pdi/pdi/src/data_descriptor.cxx">
<polygon fill="#ffffff" stroke="#000000" points="1269.1651,-.5 1269.1651,-30.5 1433.1651,-30.5 1433.1651,-.5 1269.1651,-.5"/>
<text text-anchor="start" x="1277.1651" y="-18.5" font-family="Helvetica,sans-Serif" font-size="10.00" fill="#000000">/home/jbigot/data/projects</text>
<text text-anchor="middle" x="1351.1651" y="-7.5" font-family="Helvetica,sans-Serif" font-size="10.00" fill="#000000">/pdi/pdi/src/data_descriptor.cxx</text>
</a>
</g>
</g>
<!-- Node9&#45;&gt;Node20 -->
<g id="edge39" class="edge">
<title>Node9&#45;&gt;Node20</title>
<path fill="none" stroke="#191970" d="M970.9698,-289.5704C1115.1679,-279.4478 1389.8414,-250.6264 1446.1651,-176 1483.9098,-125.99 1410.3194,-59.8837 1372.1369,-30.586"/>
<polygon fill="#191970" stroke="#191970" points="970.5546,-286.0906 960.8178,-290.2673 971.0341,-293.0742 970.5546,-286.0906"/>
</g>
<!-- Node21 -->
<g id="node13" class="node">
<title>Node21</title>
<g id="a_node13"><a xlink:href="pdi_8cxx.html" target="_top" xlink:title="/home/jbigot/data/projects\l/pdi/pdi/src/pdi.cxx">
<polygon fill="#ffffff" stroke="#000000" points="1451.1651,-.5 1451.1651,-30.5 1589.1651,-30.5 1589.1651,-.5 1451.1651,-.5"/>
<text text-anchor="start" x="1459.1651" y="-18.5" font-family="Helvetica,sans-Serif" font-size="10.00" fill="#000000">/home/jbigot/data/projects</text>
<text text-anchor="middle" x="1520.1651" y="-7.5" font-family="Helvetica,sans-Serif" font-size="10.00" fill="#000000">/pdi/pdi/src/pdi.cxx</text>
</a>
</g>
</g>
<!-- Node9&#45;&gt;Node21 -->
<g id="edge42" class="edge">
<title>Node9&#45;&gt;Node21</title>
<path fill="none" stroke="#191970" d="M970.8544,-290.0698C1089.7434,-283.2678 1293.9709,-268.3114 1364.1651,-243 1414.839,-224.7275 1432.2398,-218.6339 1465.1651,-176 1500.2726,-130.5406 1513.8079,-61.2112 1518.265,-30.7525"/>
<polygon fill="#191970" stroke="#191970" points="970.4688,-286.5859 960.682,-290.6438 970.8633,-293.5748 970.4688,-286.5859"/>
</g>
<!-- Node26 -->
<g id="node18" class="node">
<title>Node26</title>
<g id="a_node18"><a xlink:href="scalar__datatype_8h.html" target="_top" xlink:title="/home/jbigot/data/projects\l/pdi/pdi/include/pdi/scalar\l_datatype.h">
<polygon fill="#ffffff" stroke="#000000" points="813.1651,-134.5 813.1651,-175.5 951.1651,-175.5 951.1651,-134.5 813.1651,-134.5"/>
<text text-anchor="start" x="821.1651" y="-163.5" font-family="Helvetica,sans-Serif" font-size="10.00" fill="#000000">/home/jbigot/data/projects</text>
<text text-anchor="start" x="821.1651" y="-152.5" font-family="Helvetica,sans-Serif" font-size="10.00" fill="#000000">/pdi/pdi/include/pdi/scalar</text>
<text text-anchor="middle" x="882.1651" y="-141.5" font-family="Helvetica,sans-Serif" font-size="10.00" fill="#000000">_datatype.h</text>
</a>
</g>
</g>
<!-- Node9&#45;&gt;Node26 -->
<g id="edge33" class="edge">
<title>Node9&#45;&gt;Node26</title>
<path fill="none" stroke="#191970" d="M882.1651,-269.1507C882.1651,-242.3121 882.1651,-200.4622 882.1651,-175.586"/>
<polygon fill="#191970" stroke="#191970" points="878.6652,-269.3055 882.1651,-279.3055 885.6652,-269.3055 878.6652,-269.3055"/>
</g>
<!-- Node27 -->
<g id="node19" class="node">
<title>Node27</title>
<g id="a_node19"><a xlink:href="datatype_8cxx.html" target="_top" xlink:title="/home/jbigot/data/projects\l/pdi/pdi/src/datatype.cxx">
<polygon fill="#ffffff" stroke="#000000" points="1569.1651,-212.5 1569.1651,-242.5 1707.1651,-242.5 1707.1651,-212.5 1569.1651,-212.5"/>
<text text-anchor="start" x="1577.1651" y="-230.5" font-family="Helvetica,sans-Serif" font-size="10.00" fill="#000000">/home/jbigot/data/projects</text>
<text text-anchor="middle" x="1638.1651" y="-219.5" font-family="Helvetica,sans-Serif" font-size="10.00" fill="#000000">/pdi/pdi/src/datatype.cxx</text>
</a>
</g>
</g>
<!-- Node9&#45;&gt;Node27 -->
<g id="edge40" class="edge">
<title>Node9&#45;&gt;Node27</title>
<path fill="none" stroke="#191970" d="M970.9035,-290.7735C1099.9447,-284.6609 1346.7378,-270.3547 1555.1651,-243 1559.6707,-242.4087 1564.3022,-241.7333 1568.9631,-241.0028"/>
<polygon fill="#191970" stroke="#191970" points="970.5072,-287.2881 960.6819,-291.2522 970.8348,-294.2805 970.5072,-287.2881"/>
</g>
<!-- Node11 -->
<g id="node3" class="node">
<title>Node11</title>
<g id="a_node3"><a xlink:href="array__datatype_8cxx.html" target="_top" xlink:title="/home/jbigot/data/projects\l/pdi/pdi/src/array_datatype.cxx">
<polygon fill="#ffffff" stroke="#000000" points="202.6651,-67.5 202.6651,-97.5 363.6651,-97.5 363.6651,-67.5 202.6651,-67.5"/>
<text text-anchor="start" x="210.6651" y="-85.5" font-family="Helvetica,sans-Serif" font-size="10.00" fill="#000000">/home/jbigot/data/projects</text>
<text text-anchor="middle" x="283.1651" y="-74.5" font-family="Helvetica,sans-Serif" font-size="10.00" fill="#000000">/pdi/pdi/src/array_datatype.cxx</text>
</a>
</g>
</g>
<!-- Node10&#45;&gt;Node11 -->
<g id="edge2" class="edge">
<title>Node10&#45;&gt;Node11</title>
<path fill="none" stroke="#191970" d="M283.1651,-124.3279C283.1651,-115.0871 283.1651,-105.3508 283.1651,-97.5991"/>
<polygon fill="#191970" stroke="#191970" points="279.6652,-124.4183 283.1651,-134.4183 286.6652,-124.4184 279.6652,-124.4183"/>
</g>
<!-- Node12 -->
<g id="node4" class="node">
<title>Node12</title>
<g id="a_node4"><a xlink:href="datatype__template_8cxx.html" target="_top" xlink:title="/home/jbigot/data/projects\l/pdi/pdi/src/datatype_template.cxx">
<polygon fill="#ffffff" stroke="#000000" points="566.6651,-67.5 566.6651,-97.5 743.6651,-97.5 743.6651,-67.5 566.6651,-67.5"/>
<text text-anchor="start" x="574.6651" y="-85.5" font-family="Helvetica,sans-Serif" font-size="10.00" fill="#000000">/home/jbigot/data/projects</text>
<text text-anchor="middle" x="655.1651" y="-74.5" font-family="Helvetica,sans-Serif" font-size="10.00" fill="#000000">/pdi/pdi/src/datatype_template.cxx</text>
</a>
</g>
</g>
<!-- Node10&#45;&gt;Node12 -->
<g id="edge3" class="edge">
<title>Node10&#45;&gt;Node12</title>
<path fill="none" stroke="#191970" d="M362.2597,-139.5851C425.9462,-127.1731 514.9491,-109.827 578.0918,-97.521"/>
<polygon fill="#191970" stroke="#191970" points="361.4095,-136.1848 352.2637,-141.5332 362.7486,-143.0556 361.4095,-136.1848"/>
</g>
<!-- Node10&#45;&gt;Node13 -->
<g id="edge4" class="edge">
<title>Node10&#45;&gt;Node13</title>
<path fill="none" stroke="#191970" d="M203.9445,-151.1942C113.2944,-144.1084 -16.1757,-123.9645 37.1651,-67 61.3315,-41.192 561.3385,-23.3708 749.4431,-17.5572"/>
<polygon fill="#191970" stroke="#191970" points="203.7323,-154.6879 213.9638,-151.9372 204.2501,-147.7071 203.7323,-154.6879"/>
</g>
<!-- Node10&#45;&gt;Node14 -->
<g id="edge5" class="edge">
<title>Node10&#45;&gt;Node14</title>
<path fill="none" stroke="#191970" d="M226.0219,-130.34C200.8471,-119.4758 172.0755,-107.0595 150.1534,-97.5991"/>
<polygon fill="#191970" stroke="#191970" points="224.9041,-133.6695 235.4725,-134.4183 227.6777,-127.2425 224.9041,-133.6695"/>
</g>
<!-- Node15&#45;&gt;Node12 -->
<g id="edge7" class="edge">
<title>Node15&#45;&gt;Node12</title>
<path fill="none" stroke="#191970" d="M541.9904,-130.4834C567.695,-119.5853 597.1403,-107.1012 619.5521,-97.5991"/>
<polygon fill="#191970" stroke="#191970" points="540.55,-127.2925 532.7095,-134.4183 543.2824,-133.7372 540.55,-127.2925"/>
</g>
<!-- Node15&#45;&gt;Node14 -->
<g id="edge9" class="edge">
<title>Node15&#45;&gt;Node14</title>
<path fill="none" stroke="#191970" d="M405.1492,-139.5832C346.6136,-128.1476 264.9022,-112.1535 193.1651,-98 190.3206,-97.4388 187.4179,-96.8653 184.4857,-96.2855"/>
<polygon fill="#191970" stroke="#191970" points="404.5836,-143.0388 415.0692,-141.5209 405.9257,-136.1687 404.5836,-143.0388"/>
</g>
<!-- Node16 -->
<g id="node8" class="node">
<title>Node16</title>
<g id="a_node8"><a xlink:href="record__datatype_8cxx.html" target="_top" xlink:title="/home/jbigot/data/projects\l/pdi/pdi/src/record_datatype.cxx">
<polygon fill="#ffffff" stroke="#000000" points="381.6651,-67.5 381.6651,-97.5 548.6651,-97.5 548.6651,-67.5 381.6651,-67.5"/>
<text text-anchor="start" x="389.6651" y="-85.5" font-family="Helvetica,sans-Serif" font-size="10.00" fill="#000000">/home/jbigot/data/projects</text>
<text text-anchor="middle" x="465.1651" y="-74.5" font-family="Helvetica,sans-Serif" font-size="10.00" fill="#000000">/pdi/pdi/src/record_datatype.cxx</text>
</a>
</g>
</g>
<!-- Node15&#45;&gt;Node16 -->
<g id="edge8" class="edge">
<title>Node15&#45;&gt;Node16</title>
<path fill="none" stroke="#191970" d="M476.205,-124.6258C473.7601,-115.2967 471.1755,-105.4342 469.1222,-97.5991"/>
<polygon fill="#191970" stroke="#191970" points="472.8505,-125.6323 478.7713,-134.4183 479.6218,-123.8577 472.8505,-125.6323"/>
</g>
<!-- Node17&#45;&gt;Node13 -->
<g id="edge29" class="edge">
<title>Node17&#45;&gt;Node13</title>
<path fill="none" stroke="#191970" d="M1112.1571,-203.4937C1090.4493,-168.3771 1045.3756,-103.2509 990.1651,-67 960.3912,-47.4506 922.879,-35.0583 890.6719,-27.3444"/>
<polygon fill="#191970" stroke="#191970" points="1109.2278,-205.4131 1117.4074,-212.1469 1115.2124,-201.782 1109.2278,-205.4131"/>
</g>
<!-- Node17&#45;&gt;Node14 -->
<g id="edge32" class="edge">
<title>Node17&#45;&gt;Node14</title>
<path fill="none" stroke="#191970" d="M1039.6211,-226.2522C824.9173,-222.6488 279.7241,-210.2091 205.1651,-176 168.3043,-159.0875 138.7844,-119.7332 124.5057,-97.8572"/>
<polygon fill="#191970" stroke="#191970" points="1039.8438,-229.7563 1049.9004,-226.4222 1039.9597,-222.7572 1039.8438,-229.7563"/>
</g>
<!-- Node18 -->
<g id="node10" class="node">
<title>Node18</title>
<g id="a_node10"><a xlink:href="context_8h.html" target="_top" xlink:title="/home/jbigot/data/projects\l/pdi/pdi/include/pdi/context.h">
<polygon fill="#ffffff" stroke="#000000" points="1173.1651,-67.5 1173.1651,-97.5 1323.1651,-97.5 1323.1651,-67.5 1173.1651,-67.5"/>
<text text-anchor="start" x="1181.1651" y="-85.5" font-family="Helvetica,sans-Serif" font-size="10.00" fill="#000000">/home/jbigot/data/projects</text>
<text text-anchor="middle" x="1248.1651" y="-74.5" font-family="Helvetica,sans-Serif" font-size="10.00" fill="#000000">/pdi/pdi/include/pdi/context.h</text>
</a>
</g>
</g>
<!-- Node17&#45;&gt;Node18 -->
<g id="edge11" class="edge">
<title>Node17&#45;&gt;Node18</title>
<path fill="none" stroke="#191970" d="M1145.5939,-204.4085C1170.8248,-174.4209 1214.1553,-122.9215 1235.5114,-97.5392"/>
<polygon fill="#191970" stroke="#191970" points="1142.7507,-202.3513 1138.9907,-212.2565 1148.107,-206.858 1142.7507,-202.3513"/>
</g>
<!-- Node19 -->
<g id="node11" class="node">
<title>Node19</title>
<g id="a_node11"><a xlink:href="context_8cxx.html" target="_top" xlink:title="/home/jbigot/data/projects\l/pdi/pdi/src/context.cxx">
<polygon fill="#ffffff" stroke="#000000" points="1113.1651,-.5 1113.1651,-30.5 1251.1651,-30.5 1251.1651,-.5 1113.1651,-.5"/>
<text text-anchor="start" x="1121.1651" y="-18.5" font-family="Helvetica,sans-Serif" font-size="10.00" fill="#000000">/home/jbigot/data/projects</text>
<text text-anchor="middle" x="1182.1651" y="-7.5" font-family="Helvetica,sans-Serif" font-size="10.00" fill="#000000">/pdi/pdi/src/context.cxx</text>
</a>
</g>
</g>
<!-- Node17&#45;&gt;Node19 -->
<g id="edge27" class="edge">
<title>Node17&#45;&gt;Node19</title>
<path fill="none" stroke="#191970" d="M1131.3202,-202.1297C1137.9798,-170.3126 1150.3679,-114.2054 1164.1651,-67 1167.7788,-54.6362 1172.6331,-40.8743 1176.3899,-30.6891"/>
<polygon fill="#191970" stroke="#191970" points="1127.8113,-201.8145 1129.2106,-212.3165 1134.6659,-203.234 1127.8113,-201.8145"/>
</g>
<!-- Node17&#45;&gt;Node20 -->
<g id="edge28" class="edge">
<title>Node17&#45;&gt;Node20</title>
<path fill="none" stroke="#191970" d="M1161.6987,-207.164C1217.5691,-174.8972 1320.8047,-113.9815 1332.1651,-98 1346.5566,-77.7545 1350.2272,-48.2854 1351.0599,-30.5938"/>
<polygon fill="#191970" stroke="#191970" points="1159.7488,-204.2481 1152.8322,-212.2739 1163.244,-210.3131 1159.7488,-204.2481"/>
</g>
<!-- Node17&#45;&gt;Node21 -->
<g id="edge30" class="edge">
<title>Node17&#45;&gt;Node21</title>
<path fill="none" stroke="#191970" d="M1212.5431,-222.6666C1294.5122,-216.4998 1410.3433,-203.1854 1446.1651,-176 1494.5604,-139.2726 1512.3615,-63.3459 1517.9434,-30.8269"/>
<polygon fill="#191970" stroke="#191970" points="1212.1903,-219.183 1202.4715,-223.4015 1212.6997,-226.1644 1212.1903,-219.183"/>
</g>
<!-- Node22 -->
<g id="node14" class="node">
<title>Node22</title>
<g id="a_node14"><a xlink:href="plugin_8cxx.html" target="_top" xlink:title="/home/jbigot/data/projects\l/pdi/pdi/src/plugin.cxx">
<polygon fill="#ffffff" stroke="#000000" points="957.1651,-.5 957.1651,-30.5 1095.1651,-30.5 1095.1651,-.5 957.1651,-.5"/>
<text text-anchor="start" x="965.1651" y="-18.5" font-family="Helvetica,sans-Serif" font-size="10.00" fill="#000000">/home/jbigot/data/projects</text>
<text text-anchor="middle" x="1026.1651" y="-7.5" font-family="Helvetica,sans-Serif" font-size="10.00" fill="#000000">/pdi/pdi/src/plugin.cxx</text>
</a>
</g>
</g>
<!-- Node17&#45;&gt;Node22 -->
<g id="edge31" class="edge">
<title>Node17&#45;&gt;Node22</title>
<path fill="none" stroke="#191970" d="M1123.8375,-201.9976C1119.8431,-168.7795 1109.3989,-109.8936 1083.1651,-67 1074.3279,-52.5506 1060.2306,-39.7631 1048.2672,-30.5447"/>
<polygon fill="#191970" stroke="#191970" points="1120.3891,-202.6598 1124.9584,-212.2186 1127.3474,-201.8967 1120.3891,-202.6598"/>
</g>
<!-- Node23 -->
<g id="node15" class="node">
<title>Node23</title>
<g id="a_node15"><a xlink:href="data__descriptor_8h.html" target="_top" xlink:title="/home/jbigot/data/projects\l/pdi/pdi/include/pdi/data\l_descriptor.h">
<polygon fill="#ffffff" stroke="#000000" points="1299.1651,-134.5 1299.1651,-175.5 1437.1651,-175.5 1437.1651,-134.5 1299.1651,-134.5"/>
<text text-anchor="start" x="1307.1651" y="-163.5" font-family="Helvetica,sans-Serif" font-size="10.00" fill="#000000">/home/jbigot/data/projects</text>
<text text-anchor="start" x="1307.1651" y="-152.5" font-family="Helvetica,sans-Serif" font-size="10.00" fill="#000000">/pdi/pdi/include/pdi/data</text>
<text text-anchor="middle" x="1368.1651" y="-141.5" font-family="Helvetica,sans-Serif" font-size="10.00" fill="#000000">_descriptor.h</text>
</a>
</g>
</g>
<!-- Node17&#45;&gt;Node23 -->
<g id="edge17" class="edge">
<title>Node17&#45;&gt;Node23</title>
<path fill="none" stroke="#191970" d="M1186.2271,-209.5062C1220.6559,-199.1918 1263.992,-186.2089 1299.7325,-175.5015"/>
<polygon fill="#191970" stroke="#191970" points="1184.8826,-206.2553 1176.3077,-212.478 1186.8915,-212.9608 1184.8826,-206.2553"/>
</g>
<!-- Node24 -->
<g id="node16" class="node">
<title>Node24</title>
<g id="a_node16"><a xlink:href="expression_8h.html" target="_top" xlink:title="/home/jbigot/data/projects\l/pdi/pdi/include/pdi/expression.h">
<polygon fill="#ffffff" stroke="#000000" points="608.6651,-140 608.6651,-170 775.6651,-170 775.6651,-140 608.6651,-140"/>
<text text-anchor="start" x="616.6651" y="-158" font-family="Helvetica,sans-Serif" font-size="10.00" fill="#000000">/home/jbigot/data/projects</text>
<text text-anchor="middle" x="692.1651" y="-147" font-family="Helvetica,sans-Serif" font-size="10.00" fill="#000000">/pdi/pdi/include/pdi/expression.h</text>
</a>
</g>
</g>
<!-- Node17&#45;&gt;Node24 -->
<g id="edge21" class="edge">
<title>Node17&#45;&gt;Node24</title>
<path fill="none" stroke="#191970" d="M1039.765,-214.3233C974.8717,-204.2709 883.8484,-189.8399 804.1651,-176 793.3474,-174.1211 781.956,-172.0699 770.7482,-170.0093"/>
<polygon fill="#191970" stroke="#191970" points="1039.5324,-217.8289 1049.9499,-215.8983 1040.6022,-210.9111 1039.5324,-217.8289"/>
</g>
<!-- Node18&#45;&gt;Node13 -->
<g id="edge14" class="edge">
<title>Node18&#45;&gt;Node13</title>
<path fill="none" stroke="#191970" d="M1163.1079,-69.185C1083.3718,-56.7029 965.5546,-38.2596 890.8519,-26.5654"/>
<polygon fill="#191970" stroke="#191970" points="1162.7025,-72.664 1173.1235,-70.7528 1163.7851,-65.7483 1162.7025,-72.664"/>
</g>
<!-- Node18&#45;&gt;Node19 -->
<g id="edge12" class="edge">
<title>Node18&#45;&gt;Node19</title>
<path fill="none" stroke="#191970" d="M1225.9274,-59.9253C1216.4288,-50.2828 1205.5945,-39.2843 1197.0823,-30.6432"/>
<polygon fill="#191970" stroke="#191970" points="1223.6776,-62.6288 1233.1887,-67.2967 1228.6644,-57.7164 1223.6776,-62.6288"/>
</g>
<!-- Node18&#45;&gt;Node20 -->
<g id="edge13" class="edge">
<title>Node18&#45;&gt;Node20</title>
<path fill="none" stroke="#191970" d="M1279.9951,-61.7951C1295.4286,-51.7558 1313.6356,-39.9124 1327.7707,-30.7177"/>
<polygon fill="#191970" stroke="#191970" points="1277.7545,-59.0772 1271.2804,-67.4639 1281.5714,-64.945 1277.7545,-59.0772"/>
</g>
<!-- Node18&#45;&gt;Node21 -->
<g id="edge15" class="edge">
<title>Node18&#45;&gt;Node21</title>
<path fill="none" stroke="#191970" d="M1319.1187,-65.0225C1362.4818,-54.3411 1417.3855,-40.8171 1458.8568,-30.6017"/>
<polygon fill="#191970" stroke="#191970" points="1318.0799,-61.6737 1309.2073,-67.4639 1319.7542,-68.4705 1318.0799,-61.6737"/>
</g>
<!-- Node18&#45;&gt;Node22 -->
<g id="edge16" class="edge">
<title>Node18&#45;&gt;Node22</title>
<path fill="none" stroke="#191970" d="M1188.6838,-64.5484C1153.5442,-53.9432 1109.5527,-40.6665 1076.2036,-30.6017"/>
<polygon fill="#191970" stroke="#191970" points="1187.7592,-67.9252 1198.344,-67.4639 1189.7818,-61.2238 1187.7592,-67.9252"/>
</g>
<!-- Node23&#45;&gt;Node18 -->
<g id="edge18" class="edge">
<title>Node23&#45;&gt;Node18</title>
<path fill="none" stroke="#191970" d="M1325.198,-129.0407C1307.7446,-118.4959 1288.1945,-106.6844 1273.1568,-97.5991"/>
<polygon fill="#191970" stroke="#191970" points="1323.7299,-132.2428 1334.0989,-134.4183 1327.3497,-126.2514 1323.7299,-132.2428"/>
</g>
<!-- Node23&#45;&gt;Node20 -->
<g id="edge19" class="edge">
<title>Node23&#45;&gt;Node20</title>
<path fill="none" stroke="#191970" d="M1368.8503,-123.8336C1368.7837,-106.93 1367.9902,-85.7232 1365.1651,-67 1363.2851,-54.54 1359.4515,-40.7841 1356.2705,-30.6257"/>
<polygon fill="#191970" stroke="#191970" points="1365.3486,-124.2351 1368.8031,-134.2509 1372.3485,-124.2669 1365.3486,-124.2351"/>
</g>
<!-- Node23&#45;&gt;Node21 -->
<g id="edge20" class="edge">
<title>Node23&#45;&gt;Node21</title>
<path fill="none" stroke="#191970" d="M1392.5968,-126.6663C1408.5465,-108.7989 1430.2265,-85.6595 1451.1651,-67 1466.0076,-53.7732 1484.0518,-40.3894 1497.9647,-30.5817"/>
<polygon fill="#191970" stroke="#191970" points="1389.6985,-124.6603 1385.6951,-134.4696 1394.9419,-129.2979 1389.6985,-124.6603"/>
</g>
<!-- Node24&#45;&gt;Node11 -->
<g id="edge22" class="edge">
<title>Node24&#45;&gt;Node11</title>
<path fill="none" stroke="#191970" d="M598.1412,-138.3332C527.2469,-125.7663 431.0413,-108.7128 363.6738,-96.7711"/>
<polygon fill="#191970" stroke="#191970" points="597.9535,-141.8544 608.4109,-140.1536 599.1754,-134.9618 597.9535,-141.8544"/>
</g>
<!-- Node24&#45;&gt;Node12 -->
<g id="edge23" class="edge">
<title>Node24&#45;&gt;Node12</title>
<path fill="none" stroke="#191970" d="M679.8389,-130.8473C674.2149,-119.8272 667.7311,-107.1224 662.8218,-97.5028"/>
<polygon fill="#191970" stroke="#191970" points="676.8355,-132.6618 684.4987,-139.978 683.0705,-129.4798 676.8355,-132.6618"/>
</g>
<!-- Node24&#45;&gt;Node13 -->
<g id="edge24" class="edge">
<title>Node24&#45;&gt;Node13</title>
<path fill="none" stroke="#191970" d="M717.0779,-133.1473C728.433,-122.8316 741.8383,-110.1419 753.1651,-98 774.0585,-75.6034 796.0273,-47.5635 808.8919,-30.6161"/>
<polygon fill="#191970" stroke="#191970" points="714.6922,-130.5856 709.595,-139.8737 719.3718,-135.7915 714.6922,-130.5856"/>
</g>
<!-- Node24&#45;&gt;Node16 -->
<g id="edge25" class="edge">
<title>Node24&#45;&gt;Node16</title>
<path fill="none" stroke="#191970" d="M635.2353,-136.8175C597.2422,-124.6832 547.8871,-108.92 512.1394,-97.5028"/>
<polygon fill="#191970" stroke="#191970" points="634.5398,-140.2695 645.1306,-139.978 636.6695,-133.6014 634.5398,-140.2695"/>
</g>
<!-- Node25 -->
<g id="node17" class="node">
<title>Node25</title>
<g id="a_node17"><a xlink:href="scalar__datatype_8cxx.html" target="_top" xlink:title="/home/jbigot/data/projects\l/pdi/pdi/src/scalar_datatype.cxx">
<polygon fill="#ffffff" stroke="#000000" points="799.6651,-67.5 799.6651,-97.5 964.6651,-97.5 964.6651,-67.5 799.6651,-67.5"/>
<text text-anchor="start" x="807.6651" y="-85.5" font-family="Helvetica,sans-Serif" font-size="10.00" fill="#000000">/home/jbigot/data/projects</text>
<text text-anchor="middle" x="882.1651" y="-74.5" font-family="Helvetica,sans-Serif" font-size="10.00" fill="#000000">/pdi/pdi/src/scalar_datatype.cxx</text>
</a>
</g>
</g>
<!-- Node24&#45;&gt;Node25 -->
<g id="edge26" class="edge">
<title>Node24&#45;&gt;Node25</title>
<path fill="none" stroke="#191970" d="M741.0382,-136.3511C772.6689,-124.2814 813.3085,-108.7743 842.8475,-97.5028"/>
<polygon fill="#191970" stroke="#191970" points="739.6284,-133.1428 731.5333,-139.978 742.124,-139.6829 739.6284,-133.1428"/>
</g>
<!-- Node26&#45;&gt;Node12 -->
<g id="edge35" class="edge">
<title>Node26&#45;&gt;Node12</title>
<path fill="none" stroke="#191970" d="M808.0863,-131.3404C773.3442,-120.2444 732.9752,-107.3512 702.441,-97.5991"/>
<polygon fill="#191970" stroke="#191970" points="807.1324,-134.7099 817.7233,-134.4183 809.2622,-128.0418 807.1324,-134.7099"/>
</g>
<!-- Node26&#45;&gt;Node13 -->
<g id="edge36" class="edge">
<title>Node26&#45;&gt;Node13</title>
<path fill="none" stroke="#191970" d="M938.3892,-129.5052C966.444,-113.1293 991.1361,-90.5701 974.1651,-67 963.7462,-52.5296 926.0211,-39.785 890.5201,-30.5939"/>
<polygon fill="#191970" stroke="#191970" points="936.6557,-126.4643 929.6169,-134.3831 940.0576,-132.5821 936.6557,-126.4643"/>
</g>
<!-- Node26&#45;&gt;Node14 -->
<g id="edge37" class="edge">
<title>Node26&#45;&gt;Node14</title>
<path fill="none" stroke="#191970" d="M802.9117,-136.8131C796.9251,-135.7551 790.9606,-134.7988 785.1651,-134 524.0368,-98.0078 454.5907,-131.7658 193.1651,-98 190.2897,-97.6286 187.3611,-97.2138 184.4075,-96.7653"/>
<polygon fill="#191970" stroke="#191970" points="802.5115,-140.2985 812.9819,-138.6798 803.7874,-133.4157 802.5115,-140.2985"/>
</g>
<!-- Node26&#45;&gt;Node20 -->
<g id="edge34" class="edge">
<title>Node26&#45;&gt;Node20</title>
<path fill="none" stroke="#191970" d="M955.4286,-131.3934C1012.2286,-113.2723 1092.9926,-87.899 1164.1651,-67 1207.7834,-54.192 1257.4011,-40.5707 1294.5609,-30.5557"/>
<polygon fill="#191970" stroke="#191970" points="954.2787,-128.0864 945.8179,-134.4633 956.4087,-134.7545 954.2787,-128.0864"/>
</g>
<!-- Node26&#45;&gt;Node25 -->
<g id="edge38" class="edge">
<title>Node26&#45;&gt;Node25</title>
<path fill="none" stroke="#191970" d="M882.1651,-124.3279C882.1651,-115.0871 882.1651,-105.3508 882.1651,-97.5991"/>
<polygon fill="#191970" stroke="#191970" points="878.6652,-124.4183 882.1651,-134.4183 885.6652,-124.4184 878.6652,-124.4183"/>
</g>
</g>
</svg>
