<?xml version="1.0" encoding="UTF-8" standalone="no"?>
<!DOCTYPE svg PUBLIC "-//W3C//DTD SVG 1.1//EN"
 "http://www.w3.org/Graphics/SVG/1.1/DTD/svg11.dtd">
<!-- Generated by graphviz version 2.40.1 (20161225.0304)
 -->
<!-- Title: /home/jbigot/data/projects/pdi/pdi/include/pdi/datatype_template.h Pages: 1 -->
<svg width="327pt" height="218pt"
 viewBox="0.00 0.00 327.00 218.00" xmlns="http://www.w3.org/2000/svg" xmlns:xlink="http://www.w3.org/1999/xlink">
<g id="graph0" class="graph" transform="scale(1 1) rotate(0) translate(4 214)">
<title>/home/jbigot/data/projects/pdi/pdi/include/pdi/datatype_template.h</title>
<polygon fill="#ffffff" stroke="transparent" points="-4,4 -4,-214 323,-214 323,4 -4,4"/>
<!-- Node0 -->
<g id="node1" class="node">
<title>Node0</title>
<polygon fill="#bfbfbf" stroke="#000000" points="0,-168.5 0,-209.5 149,-209.5 149,-168.5 0,-168.5"/>
<text text-anchor="start" x="8" y="-197.5" font-family="Helvetica,sans-Serif" font-size="10.00" fill="#000000">/home/jbigot/data/projects</text>
<text text-anchor="start" x="8" y="-186.5" font-family="Helvetica,sans-Serif" font-size="10.00" fill="#000000">/pdi/pdi/include/pdi/datatype</text>
<text text-anchor="middle" x="74.5" y="-175.5" font-family="Helvetica,sans-Serif" font-size="10.00" fill="#000000">_template.h</text>
</g>
<!-- Node1 -->
<g id="node2" class="node">
<title>Node1</title>
<polygon fill="#ffffff" stroke="#bfbfbf" points="7,-.5 7,-19.5 74,-19.5 74,-.5 7,-.5"/>
<text text-anchor="middle" x="40.5" y="-7.5" font-family="Helvetica,sans-Serif" font-size="10.00" fill="#000000">paraconf.h</text>
</g>
<!-- Node0&#45;&gt;Node1 -->
<g id="edge1" class="edge">
<title>Node0&#45;&gt;Node1</title>
<path fill="none" stroke="#191970" d="M68.9868,-168.2424C66.2324,-157.4746 62.9697,-144.08 60.5,-132 53.1514,-96.0564 46.6998,-53.722 43.2234,-29.5552"/>
<polygon fill="#191970" stroke="#191970" points="46.6723,-28.9477 41.8038,-19.5378 39.7416,-29.93 46.6723,-28.9477"/>
</g>
<!-- Node2 -->
<g id="node3" class="node">
<title>Node2</title>
<g id="a_node3"><a xlink:href="pdi__fwd_8h.html" target="_top" xlink:title="pdi/pdi_fwd.h">
<polygon fill="#ffffff" stroke="#000000" points="69,-112.5 69,-131.5 148,-131.5 148,-112.5 69,-112.5"/>
<text text-anchor="middle" x="108.5" y="-119.5" font-family="Helvetica,sans-Serif" font-size="10.00" fill="#000000">pdi/pdi_fwd.h</text>
</a>
</g>
</g>
<!-- Node0&#45;&gt;Node2 -->
<g id="edge2" class="edge">
<title>Node0&#45;&gt;Node2</title>
<path fill="none" stroke="#191970" d="M85.0714,-168.168C89.4989,-159.4433 94.6087,-149.374 98.9242,-140.87"/>
<polygon fill="#191970" stroke="#191970" points="102.1326,-142.2818 103.5368,-131.7805 95.8903,-139.1141 102.1326,-142.2818"/>
</g>
<!-- Node3 -->
<g id="node4" class="node">
<title>Node3</title>
<polygon fill="#ffffff" stroke="#bfbfbf" points="74.5,-56.5 74.5,-75.5 128.5,-75.5 128.5,-56.5 74.5,-56.5"/>
<text text-anchor="middle" x="101.5" y="-63.5" font-family="Helvetica,sans-Serif" font-size="10.00" fill="#000000">memory</text>
</g>
<!-- Node2&#45;&gt;Node3 -->
<g id="edge3" class="edge">
<title>Node2&#45;&gt;Node3</title>
<path fill="none" stroke="#191970" d="M107.2807,-112.2455C106.3673,-104.9382 105.0868,-94.6944 103.9631,-85.7046"/>
<polygon fill="#191970" stroke="#191970" points="107.4187,-85.1313 102.7053,-75.6427 100.4728,-85.9996 107.4187,-85.1313"/>
</g>
<!-- Node4 -->
<g id="node5" class="node">
<title>Node4</title>
<g id="a_node5"><a xlink:href="pdi_8h.html" target="_top" xlink:title="pdi.h">
<polygon fill="#ffffff" stroke="#000000" points="147,-56.5 147,-75.5 186,-75.5 186,-56.5 147,-56.5"/>
<text text-anchor="middle" x="166.5" y="-63.5" font-family="Helvetica,sans-Serif" font-size="10.00" fill="#000000">pdi.h</text>
</a>
</g>
</g>
<!-- Node2&#45;&gt;Node4 -->
<g id="edge4" class="edge">
<title>Node2&#45;&gt;Node4</title>
<path fill="none" stroke="#191970" d="M118.6028,-112.2455C127.0028,-104.1352 139.1494,-92.4075 149.1084,-82.7919"/>
<polygon fill="#191970" stroke="#191970" points="151.75,-85.1066 156.5129,-75.6427 146.8878,-80.0707 151.75,-85.1066"/>
</g>
<!-- Node4&#45;&gt;Node1 -->
<g id="edge6" class="edge">
<title>Node4&#45;&gt;Node1</title>
<path fill="none" stroke="#191970" d="M146.8125,-57.25C126.6161,-48.2738 94.9095,-34.182 71.3722,-23.721"/>
<polygon fill="#191970" stroke="#191970" points="72.7198,-20.4898 62.1602,-19.6267 69.8768,-26.8865 72.7198,-20.4898"/>
</g>
<!-- Node5 -->
<g id="node6" class="node">
<title>Node5</title>
<polygon fill="#ffffff" stroke="#bfbfbf" points="92,-.5 92,-19.5 133,-19.5 133,-.5 92,-.5"/>
<text text-anchor="middle" x="112.5" y="-7.5" font-family="Helvetica,sans-Serif" font-size="10.00" fill="#000000">mpi.h</text>
</g>
<!-- Node4&#45;&gt;Node5 -->
<g id="edge5" class="edge">
<title>Node4&#45;&gt;Node5</title>
<path fill="none" stroke="#191970" d="M157.0939,-56.2455C149.3507,-48.2155 138.188,-36.6394 128.9682,-27.0781"/>
<polygon fill="#191970" stroke="#191970" points="131.2591,-24.4117 121.7983,-19.6427 126.2202,-29.2706 131.2591,-24.4117"/>
</g>
<!-- Node6 -->
<g id="node7" class="node">
<title>Node6</title>
<polygon fill="#ffffff" stroke="#bfbfbf" points="151.5,-.5 151.5,-19.5 223.5,-19.5 223.5,-.5 151.5,-.5"/>
<text text-anchor="middle" x="187.5" y="-7.5" font-family="Helvetica,sans-Serif" font-size="10.00" fill="#000000">pdi/export.h</text>
</g>
<!-- Node4&#45;&gt;Node6 -->
<g id="edge7" class="edge">
<title>Node4&#45;&gt;Node6</title>
<path fill="none" stroke="#191970" d="M170.1579,-56.2455C172.9584,-48.7776 176.909,-38.2427 180.3324,-29.1137"/>
<polygon fill="#191970" stroke="#191970" points="183.6499,-30.2349 183.884,-19.6427 177.0955,-27.777 183.6499,-30.2349"/>
</g>
<!-- Node7 -->
<g id="node8" class="node">
<title>Node7</title>
<polygon fill="#ffffff" stroke="#bfbfbf" points="242,-.5 242,-19.5 319,-19.5 319,-.5 242,-.5"/>
<text text-anchor="middle" x="280.5" y="-7.5" font-family="Helvetica,sans-Serif" font-size="10.00" fill="#000000">pdi/version.h</text>
</g>
<!-- Node4&#45;&gt;Node7 -->
<g id="edge8" class="edge">
<title>Node4&#45;&gt;Node7</title>
<path fill="none" stroke="#191970" d="M186.0973,-56.3733C204.2331,-47.4644 231.4135,-34.1127 251.9587,-24.0203"/>
<polygon fill="#191970" stroke="#191970" points="253.7261,-27.0517 261.1584,-19.5011 250.6397,-20.7688 253.7261,-27.0517"/>
</g>
</g>
</svg>
