<?xml version="1.0" encoding="UTF-8" standalone="no"?>
<!DOCTYPE svg PUBLIC "-//W3C//DTD SVG 1.1//EN"
 "http://www.w3.org/Graphics/SVG/1.1/DTD/svg11.dtd">
<!-- Generated by graphviz version 2.40.1 (20161225.0304)
 -->
<!-- Title: /home/jbigot/data/projects/pdi/pdi/src/datatype_template.cxx Pages: 1 -->
<svg width="1250pt" height="431pt"
 viewBox="0.00 0.00 1249.50 431.00" xmlns="http://www.w3.org/2000/svg" xmlns:xlink="http://www.w3.org/1999/xlink">
<g id="graph0" class="graph" transform="scale(1 1) rotate(0) translate(4 427)">
<title>/home/jbigot/data/projects/pdi/pdi/src/datatype_template.cxx</title>
<polygon fill="#ffffff" stroke="transparent" points="-4,4 -4,-427 1245.5,-427 1245.5,4 -4,4"/>
<!-- Node0 -->
<g id="node1" class="node">
<title>Node0</title>
<polygon fill="#bfbfbf" stroke="#000000" points="382,-392.5 382,-422.5 559,-422.5 559,-392.5 382,-392.5"/>
<text text-anchor="start" x="390" y="-410.5" font-family="Helvetica,sans-Serif" font-size="10.00" fill="#000000">/home/jbigot/data/projects</text>
<text text-anchor="middle" x="470.5" y="-399.5" font-family="Helvetica,sans-Serif" font-size="10.00" fill="#000000">/pdi/pdi/src/datatype_template.cxx</text>
</g>
<!-- Node1 -->
<g id="node2" class="node">
<title>Node1</title>
<polygon fill="#ffffff" stroke="#bfbfbf" points="0,-336.5 0,-355.5 53,-355.5 53,-336.5 0,-336.5"/>
<text text-anchor="middle" x="26.5" y="-343.5" font-family="Helvetica,sans-Serif" font-size="10.00" fill="#000000">config.h</text>
</g>
<!-- Node0&#45;&gt;Node1 -->
<g id="edge1" class="edge">
<title>Node0&#45;&gt;Node1</title>
<path fill="none" stroke="#191970" d="M381.9558,-400.0684C301.2576,-392.4383 178.6998,-378.707 63.2109,-355.8817"/>
<polygon fill="#191970" stroke="#191970" points="63.6249,-352.3951 53.1322,-353.8626 62.2498,-359.2588 63.6249,-352.3951"/>
</g>
<!-- Node2 -->
<g id="node3" class="node">
<title>Node2</title>
<polygon fill="#ffffff" stroke="#bfbfbf" points="71.5,-336.5 71.5,-355.5 131.5,-355.5 131.5,-336.5 71.5,-336.5"/>
<text text-anchor="middle" x="101.5" y="-343.5" font-family="Helvetica,sans-Serif" font-size="10.00" fill="#000000">algorithm</text>
</g>
<!-- Node0&#45;&gt;Node2 -->
<g id="edge2" class="edge">
<title>Node0&#45;&gt;Node2</title>
<path fill="none" stroke="#191970" d="M381.9423,-395.087C316.4395,-385.5126 225.1565,-371.3456 145.5,-356 144.2452,-355.7583 142.9717,-355.5067 141.6869,-355.2476"/>
<polygon fill="#191970" stroke="#191970" points="142.2481,-351.7891 131.7411,-353.1502 140.8036,-358.6384 142.2481,-351.7891"/>
</g>
<!-- Node3 -->
<g id="node4" class="node">
<title>Node3</title>
<polygon fill="#ffffff" stroke="#bfbfbf" points="766,-224.5 766,-243.5 817,-243.5 817,-224.5 766,-224.5"/>
<text text-anchor="middle" x="791.5" y="-231.5" font-family="Helvetica,sans-Serif" font-size="10.00" fill="#000000">cassert</text>
</g>
<!-- Node0&#45;&gt;Node3 -->
<g id="edge3" class="edge">
<title>Node0&#45;&gt;Node3</title>
<path fill="none" stroke="#191970" d="M559.1376,-401.0589C615.2083,-394.5955 688.219,-381.6943 748.5,-356 787.7584,-339.2664 807.0182,-337.9697 826.5,-300 835.112,-283.2154 822.6388,-264.1976 810.2606,-250.9028"/>
<polygon fill="#191970" stroke="#191970" points="812.693,-248.3855 803.1435,-243.7965 807.747,-253.339 812.693,-248.3855"/>
</g>
<!-- Node4 -->
<g id="node5" class="node">
<title>Node4</title>
<polygon fill="#ffffff" stroke="#bfbfbf" points="232,-336.5 232,-355.5 279,-355.5 279,-336.5 232,-336.5"/>
<text text-anchor="middle" x="255.5" y="-343.5" font-family="Helvetica,sans-Serif" font-size="10.00" fill="#000000">cstdint</text>
</g>
<!-- Node0&#45;&gt;Node4 -->
<g id="edge4" class="edge">
<title>Node0&#45;&gt;Node4</title>
<path fill="none" stroke="#191970" d="M417.9051,-392.4554C377.7972,-380.9827 323.7509,-365.5229 289.2573,-355.6562"/>
<polygon fill="#191970" stroke="#191970" points="289.7942,-352.1694 279.2172,-352.7842 287.8691,-358.8995 289.7942,-352.1694"/>
</g>
<!-- Node5 -->
<g id="node6" class="node">
<title>Node5</title>
<polygon fill="#ffffff" stroke="#bfbfbf" points="1157.5,-56.5 1157.5,-75.5 1211.5,-75.5 1211.5,-56.5 1157.5,-56.5"/>
<text text-anchor="middle" x="1184.5" y="-63.5" font-family="Helvetica,sans-Serif" font-size="10.00" fill="#000000">memory</text>
</g>
<!-- Node0&#45;&gt;Node5 -->
<g id="edge5" class="edge">
<title>Node0&#45;&gt;Node5</title>
<path fill="none" stroke="#191970" d="M559.3198,-403.1277C762.0542,-391.9627 1241.5,-358.3345 1241.5,-290 1241.5,-290 1241.5,-290 1241.5,-178 1241.5,-141.1826 1216.7325,-104.2377 1199.8499,-83.3313"/>
<polygon fill="#191970" stroke="#191970" points="1202.5131,-81.06 1193.4063,-75.6456 1197.1489,-85.5574 1202.5131,-81.06"/>
</g>
<!-- Node6 -->
<g id="node7" class="node">
<title>Node6</title>
<polygon fill="#ffffff" stroke="#bfbfbf" points="319,-168.5 319,-187.5 362,-187.5 362,-168.5 319,-168.5"/>
<text text-anchor="middle" x="340.5" y="-175.5" font-family="Helvetica,sans-Serif" font-size="10.00" fill="#000000">string</text>
</g>
<!-- Node0&#45;&gt;Node6 -->
<g id="edge6" class="edge">
<title>Node0&#45;&gt;Node6</title>
<path fill="none" stroke="#191970" d="M450.0413,-392.3587C438.4129,-382.9278 424.2696,-369.9599 414.5,-356 378.1385,-304.0426 355.0621,-231.4768 345.526,-197.279"/>
<polygon fill="#191970" stroke="#191970" points="348.897,-196.337 342.9059,-187.5988 342.1402,-198.1659 348.897,-196.337"/>
</g>
<!-- Node7 -->
<g id="node8" class="node">
<title>Node7</title>
<polygon fill="#ffffff" stroke="#bfbfbf" points="623.5,-280.5 623.5,-299.5 669.5,-299.5 669.5,-280.5 623.5,-280.5"/>
<text text-anchor="middle" x="646.5" y="-287.5" font-family="Helvetica,sans-Serif" font-size="10.00" fill="#000000">vector</text>
</g>
<!-- Node0&#45;&gt;Node7 -->
<g id="edge7" class="edge">
<title>Node0&#45;&gt;Node7</title>
<path fill="none" stroke="#191970" d="M536.4931,-392.4408C573.3421,-382.7964 614.41,-369.579 627.5,-356 639.3699,-343.6867 643.9032,-324.4517 645.5949,-309.9172"/>
<polygon fill="#191970" stroke="#191970" points="649.0864,-310.1623 646.4091,-299.9113 642.1095,-309.5945 649.0864,-310.1623"/>
</g>
<!-- Node8 -->
<g id="node9" class="node">
<title>Node8</title>
<g id="a_node9"><a xlink:href="pdi_8h.html" target="_top" xlink:title="pdi.h">
<polygon fill="#ffffff" stroke="#000000" points="185,-56.5 185,-75.5 224,-75.5 224,-56.5 185,-56.5"/>
<text text-anchor="middle" x="204.5" y="-63.5" font-family="Helvetica,sans-Serif" font-size="10.00" fill="#000000">pdi.h</text>
</a>
</g>
</g>
<!-- Node0&#45;&gt;Node8 -->
<g id="edge8" class="edge">
<title>Node0&#45;&gt;Node8</title>
<path fill="none" stroke="#191970" d="M381.7357,-394.7675C322.0867,-385.14 249.6064,-371.045 222.5,-356 187.0436,-336.3204 159.5,-330.5518 159.5,-290 159.5,-290 159.5,-290 159.5,-178 159.5,-142.7698 178.9078,-105.5087 192.2324,-84.0783"/>
<polygon fill="#191970" stroke="#191970" points="195.1822,-85.9621 197.6655,-75.6623 189.3012,-82.1655 195.1822,-85.9621"/>
</g>
<!-- Node13 -->
<g id="node14" class="node">
<title>Node13</title>
<g id="a_node14"><a xlink:href="array__datatype_8h.html" target="_top" xlink:title="pdi/array_datatype.h">
<polygon fill="#ffffff" stroke="#000000" points="687.5,-280.5 687.5,-299.5 801.5,-299.5 801.5,-280.5 687.5,-280.5"/>
<text text-anchor="middle" x="744.5" y="-287.5" font-family="Helvetica,sans-Serif" font-size="10.00" fill="#000000">pdi/array_datatype.h</text>
</a>
</g>
</g>
<!-- Node0&#45;&gt;Node13 -->
<g id="edge13" class="edge">
<title>Node0&#45;&gt;Node13</title>
<path fill="none" stroke="#191970" d="M539.9905,-392.432C573.1175,-383.9383 612.778,-371.8214 646.5,-356 675.6481,-342.3245 705.8939,-320.6076 724.9339,-305.851"/>
<polygon fill="#191970" stroke="#191970" points="727.1604,-308.5526 732.8492,-299.6146 722.8282,-303.0542 727.1604,-308.5526"/>
</g>
<!-- Node16 -->
<g id="node17" class="node">
<title>Node16</title>
<g id="a_node17"><a xlink:href="datatype__template_8h.html" target="_top" xlink:title="pdi/datatype_template.h">
<polygon fill="#ffffff" stroke="#000000" points="380.5,-168.5 380.5,-187.5 510.5,-187.5 510.5,-168.5 380.5,-168.5"/>
<text text-anchor="middle" x="445.5" y="-175.5" font-family="Helvetica,sans-Serif" font-size="10.00" fill="#000000">pdi/datatype_template.h</text>
</a>
</g>
</g>
<!-- Node0&#45;&gt;Node16 -->
<g id="edge50" class="edge">
<title>Node0&#45;&gt;Node16</title>
<path fill="none" stroke="#191970" d="M457.0438,-392.499C440.4483,-372.8879 413.1318,-336.6955 402.5,-300 391.631,-262.4858 415.3751,-219.637 431.7195,-196.0152"/>
<polygon fill="#191970" stroke="#191970" points="434.7205,-197.8379 437.739,-187.6822 429.0461,-193.739 434.7205,-197.8379"/>
</g>
<!-- Node17 -->
<g id="node18" class="node">
<title>Node17</title>
<g id="a_node18"><a xlink:href="paraconf__wrapper_8h.html" target="_top" xlink:title="pdi/paraconf_wrapper.h">
<polygon fill="#ffffff" stroke="#000000" points="188,-224.5 188,-243.5 317,-243.5 317,-224.5 188,-224.5"/>
<text text-anchor="middle" x="252.5" y="-231.5" font-family="Helvetica,sans-Serif" font-size="10.00" fill="#000000">pdi/paraconf_wrapper.h</text>
</a>
</g>
</g>
<!-- Node0&#45;&gt;Node17 -->
<g id="edge22" class="edge">
<title>Node0&#45;&gt;Node17</title>
<path fill="none" stroke="#191970" d="M404.1263,-392.4061C379.5021,-384.4843 352.4874,-372.8157 331.5,-356 296.3833,-327.8636 271.8565,-279.7268 260.2061,-253.1069"/>
<polygon fill="#191970" stroke="#191970" points="263.3659,-251.5924 256.2525,-243.7406 256.9169,-254.3146 263.3659,-251.5924"/>
</g>
<!-- Node18 -->
<g id="node19" class="node">
<title>Node18</title>
<g id="a_node19"><a xlink:href="record__datatype_8h.html" target="_top" xlink:title="pdi/record_datatype.h">
<polygon fill="#ffffff" stroke="#000000" points="498.5,-336.5 498.5,-355.5 618.5,-355.5 618.5,-336.5 498.5,-336.5"/>
<text text-anchor="middle" x="558.5" y="-343.5" font-family="Helvetica,sans-Serif" font-size="10.00" fill="#000000">pdi/record_datatype.h</text>
</a>
</g>
</g>
<!-- Node0&#45;&gt;Node18 -->
<g id="edge26" class="edge">
<title>Node0&#45;&gt;Node18</title>
<path fill="none" stroke="#191970" d="M492.2528,-392.2977C505.6968,-382.9022 522.9011,-370.8787 536.4078,-361.4395"/>
<polygon fill="#191970" stroke="#191970" points="538.4811,-364.2605 544.6729,-355.6633 534.4712,-358.5228 538.4811,-364.2605"/>
</g>
<!-- Node19 -->
<g id="node20" class="node">
<title>Node19</title>
<g id="a_node20"><a xlink:href="scalar__datatype_8h.html" target="_top" xlink:title="pdi/scalar_datatype.h">
<polygon fill="#ffffff" stroke="#000000" points="411.5,-280.5 411.5,-299.5 529.5,-299.5 529.5,-280.5 411.5,-280.5"/>
<text text-anchor="middle" x="470.5" y="-287.5" font-family="Helvetica,sans-Serif" font-size="10.00" fill="#000000">pdi/scalar_datatype.h</text>
</a>
</g>
</g>
<!-- Node0&#45;&gt;Node19 -->
<g id="edge30" class="edge">
<title>Node0&#45;&gt;Node19</title>
<path fill="none" stroke="#191970" d="M470.5,-392.1389C470.5,-370.9692 470.5,-332.8174 470.5,-309.6112"/>
<polygon fill="#191970" stroke="#191970" points="474.0001,-309.5594 470.5,-299.5595 467.0001,-309.5595 474.0001,-309.5594"/>
</g>
<!-- Node20 -->
<g id="node21" class="node">
<title>Node20</title>
<g id="a_node21"><a xlink:href="error_8h.html" target="_top" xlink:title="pdi/error.h">
<polygon fill="#ffffff" stroke="#000000" points="683,-224.5 683,-243.5 748,-243.5 748,-224.5 683,-224.5"/>
<text text-anchor="middle" x="715.5" y="-231.5" font-family="Helvetica,sans-Serif" font-size="10.00" fill="#000000">pdi/error.h</text>
</a>
</g>
</g>
<!-- Node0&#45;&gt;Node20 -->
<g id="edge33" class="edge">
<title>Node0&#45;&gt;Node20</title>
<path fill="none" stroke="#191970" d="M558.5252,-392.4411C649.5346,-374.7824 782.2346,-342.4468 810.5,-300 827.447,-274.5503 790.6348,-256.0277 758.0134,-245.1942"/>
<polygon fill="#191970" stroke="#191970" points="758.6774,-241.7344 748.0882,-242.0798 756.5816,-248.4133 758.6774,-241.7344"/>
</g>
<!-- Node22 -->
<g id="node23" class="node">
<title>Node22</title>
<g id="a_node23"><a xlink:href="expression_8h.html" target="_top" xlink:title="pdi/expression.h">
<polygon fill="#ffffff" stroke="#000000" points="910.5,-336.5 910.5,-355.5 1004.5,-355.5 1004.5,-336.5 910.5,-336.5"/>
<text text-anchor="middle" x="957.5" y="-343.5" font-family="Helvetica,sans-Serif" font-size="10.00" fill="#000000">pdi/expression.h</text>
</a>
</g>
</g>
<!-- Node0&#45;&gt;Node22 -->
<g id="edge38" class="edge">
<title>Node0&#45;&gt;Node22</title>
<path fill="none" stroke="#191970" d="M559.1115,-396.5569C642.3624,-386.2378 770.4094,-370.2685 881.5,-356 887.6503,-355.2101 894.0793,-354.3764 900.482,-353.5411"/>
<polygon fill="#191970" stroke="#191970" points="901.0164,-357.0011 910.4778,-352.2332 900.1082,-350.0603 901.0164,-357.0011"/>
</g>
<!-- Node9 -->
<g id="node10" class="node">
<title>Node9</title>
<polygon fill="#ffffff" stroke="#bfbfbf" points="261,-.5 261,-19.5 302,-19.5 302,-.5 261,-.5"/>
<text text-anchor="middle" x="281.5" y="-7.5" font-family="Helvetica,sans-Serif" font-size="10.00" fill="#000000">mpi.h</text>
</g>
<!-- Node8&#45;&gt;Node9 -->
<g id="edge9" class="edge">
<title>Node8&#45;&gt;Node9</title>
<path fill="none" stroke="#191970" d="M217.9124,-56.2455C229.5057,-47.814 246.4748,-35.4729 259.9678,-25.6598"/>
<polygon fill="#191970" stroke="#191970" points="262.2126,-28.355 268.2413,-19.6427 258.0953,-22.6938 262.2126,-28.355"/>
</g>
<!-- Node10 -->
<g id="node11" class="node">
<title>Node10</title>
<polygon fill="#ffffff" stroke="#bfbfbf" points="366,-.5 366,-19.5 433,-19.5 433,-.5 366,-.5"/>
<text text-anchor="middle" x="399.5" y="-7.5" font-family="Helvetica,sans-Serif" font-size="10.00" fill="#000000">paraconf.h</text>
</g>
<!-- Node8&#45;&gt;Node10 -->
<g id="edge10" class="edge">
<title>Node8&#45;&gt;Node10</title>
<path fill="none" stroke="#191970" d="M224.269,-60.1575C228.9337,-58.7867 233.8906,-57.3363 238.5,-56 278.3518,-44.4465 323.8142,-31.4765 356.2421,-22.2612"/>
<polygon fill="#191970" stroke="#191970" points="357.2036,-25.6266 365.8669,-19.5275 355.2911,-18.8929 357.2036,-25.6266"/>
</g>
<!-- Node11 -->
<g id="node12" class="node">
<title>Node11</title>
<polygon fill="#ffffff" stroke="#bfbfbf" points="75.5,-.5 75.5,-19.5 147.5,-19.5 147.5,-.5 75.5,-.5"/>
<text text-anchor="middle" x="111.5" y="-7.5" font-family="Helvetica,sans-Serif" font-size="10.00" fill="#000000">pdi/export.h</text>
</g>
<!-- Node8&#45;&gt;Node11 -->
<g id="edge11" class="edge">
<title>Node8&#45;&gt;Node11</title>
<path fill="none" stroke="#191970" d="M188.3006,-56.2455C173.8982,-47.5731 152.6268,-34.7645 136.1201,-24.825"/>
<polygon fill="#191970" stroke="#191970" points="137.886,-21.8028 127.5137,-19.6427 134.275,-27.7996 137.886,-21.8028"/>
</g>
<!-- Node12 -->
<g id="node13" class="node">
<title>Node12</title>
<polygon fill="#ffffff" stroke="#bfbfbf" points="166,-.5 166,-19.5 243,-19.5 243,-.5 166,-.5"/>
<text text-anchor="middle" x="204.5" y="-7.5" font-family="Helvetica,sans-Serif" font-size="10.00" fill="#000000">pdi/version.h</text>
</g>
<!-- Node8&#45;&gt;Node12 -->
<g id="edge12" class="edge">
<title>Node8&#45;&gt;Node12</title>
<path fill="none" stroke="#191970" d="M204.5,-56.2455C204.5,-48.9382 204.5,-38.6944 204.5,-29.7046"/>
<polygon fill="#191970" stroke="#191970" points="208.0001,-29.6426 204.5,-19.6427 201.0001,-29.6427 208.0001,-29.6426"/>
</g>
<!-- Node14 -->
<g id="node15" class="node">
<title>Node14</title>
<g id="a_node15"><a xlink:href="pdi__fwd_8h.html" target="_top" xlink:title="pdi/pdi_fwd.h">
<polygon fill="#ffffff" stroke="#000000" points="577,-112.5 577,-131.5 656,-131.5 656,-112.5 577,-112.5"/>
<text text-anchor="middle" x="616.5" y="-119.5" font-family="Helvetica,sans-Serif" font-size="10.00" fill="#000000">pdi/pdi_fwd.h</text>
</a>
</g>
</g>
<!-- Node13&#45;&gt;Node14 -->
<g id="edge14" class="edge">
<title>Node13&#45;&gt;Node14</title>
<path fill="none" stroke="#191970" d="M723.9262,-280.3569C708.6833,-272.3709 688.2542,-259.79 674.5,-244 647.4082,-212.8982 630.166,-166.9488 622.0268,-141.2324"/>
<polygon fill="#191970" stroke="#191970" points="625.3432,-140.1075 619.0937,-131.5521 618.6439,-142.1373 625.3432,-140.1075"/>
</g>
<!-- Node15 -->
<g id="node16" class="node">
<title>Node15</title>
<g id="a_node16"><a xlink:href="datatype_8h.html" target="_top" xlink:title="pdi/datatype.h">
<polygon fill="#ffffff" stroke="#000000" points="505,-224.5 505,-243.5 588,-243.5 588,-224.5 505,-224.5"/>
<text text-anchor="middle" x="546.5" y="-231.5" font-family="Helvetica,sans-Serif" font-size="10.00" fill="#000000">pdi/datatype.h</text>
</a>
</g>
</g>
<!-- Node13&#45;&gt;Node15 -->
<g id="edge17" class="edge">
<title>Node13&#45;&gt;Node15</title>
<path fill="none" stroke="#191970" d="M710.4626,-280.3733C677.1106,-270.9404 626.1473,-256.5265 589.8998,-246.2747"/>
<polygon fill="#191970" stroke="#191970" points="590.6684,-242.8548 580.0933,-243.5011 588.7632,-249.5906 590.6684,-242.8548"/>
</g>
<!-- Node14&#45;&gt;Node5 -->
<g id="edge15" class="edge">
<title>Node14&#45;&gt;Node5</title>
<path fill="none" stroke="#191970" d="M656.4407,-118.0622C761.5557,-107.6987 1044.8004,-79.7732 1147.0453,-69.6927"/>
<polygon fill="#191970" stroke="#191970" points="1147.5961,-73.1555 1157.2044,-68.6911 1146.9092,-66.1892 1147.5961,-73.1555"/>
</g>
<!-- Node14&#45;&gt;Node8 -->
<g id="edge16" class="edge">
<title>Node14&#45;&gt;Node8</title>
<path fill="none" stroke="#191970" d="M576.9957,-116.6305C495.0027,-105.4858 307.9005,-80.0544 234.6753,-70.1015"/>
<polygon fill="#191970" stroke="#191970" points="234.7085,-66.5739 224.3282,-68.6951 233.7657,-73.5101 234.7085,-66.5739"/>
</g>
<!-- Node15&#45;&gt;Node14 -->
<g id="edge18" class="edge">
<title>Node15&#45;&gt;Node14</title>
<path fill="none" stroke="#191970" d="M552.4682,-224.4509C564.1433,-205.7707 590.1726,-164.1238 605.2024,-140.0761"/>
<polygon fill="#191970" stroke="#191970" points="608.2149,-141.8599 610.5469,-131.5249 602.2789,-138.1499 608.2149,-141.8599"/>
</g>
<!-- Node15&#45;&gt;Node16 -->
<g id="edge19" class="edge">
<title>Node15&#45;&gt;Node16</title>
<path fill="none" stroke="#191970" d="M528.9071,-224.2455C513.121,-215.4928 489.7361,-202.527 471.7413,-192.5496"/>
<polygon fill="#191970" stroke="#191970" points="473.3341,-189.4308 462.8913,-187.6427 469.9397,-195.5528 473.3341,-189.4308"/>
</g>
<!-- Node16&#45;&gt;Node10 -->
<g id="edge20" class="edge">
<title>Node16&#45;&gt;Node10</title>
<path fill="none" stroke="#191970" d="M442.895,-168.4862C435.592,-141.8144 414.8092,-65.9117 404.8927,-29.695"/>
<polygon fill="#191970" stroke="#191970" points="408.2077,-28.5485 402.191,-19.8279 401.4562,-30.3972 408.2077,-28.5485"/>
</g>
<!-- Node16&#45;&gt;Node14 -->
<g id="edge21" class="edge">
<title>Node16&#45;&gt;Node14</title>
<path fill="none" stroke="#191970" d="M474.8959,-168.3733C503.3307,-159.0613 546.5877,-144.8953 577.8081,-134.671"/>
<polygon fill="#191970" stroke="#191970" points="579.0736,-137.9396 587.4876,-131.5011 576.895,-131.2872 579.0736,-137.9396"/>
</g>
<!-- Node17&#45;&gt;Node6 -->
<g id="edge23" class="edge">
<title>Node17&#45;&gt;Node6</title>
<path fill="none" stroke="#191970" d="M267.8284,-224.2455C281.3303,-215.6534 301.2122,-203.0014 316.7686,-193.1018"/>
<polygon fill="#191970" stroke="#191970" points="318.7897,-195.9643 325.3472,-187.6427 315.0315,-190.0587 318.7897,-195.9643"/>
</g>
<!-- Node17&#45;&gt;Node10 -->
<g id="edge24" class="edge">
<title>Node17&#45;&gt;Node10</title>
<path fill="none" stroke="#191970" d="M255.9763,-224.2678C260.8601,-211.0895 270.4074,-187.0307 281.5,-168 313.2173,-113.5851 360.287,-55.783 384.2641,-27.5633"/>
<polygon fill="#191970" stroke="#191970" points="387.0739,-29.6632 390.9214,-19.7916 381.7577,-25.1093 387.0739,-29.6632"/>
</g>
<!-- Node17&#45;&gt;Node14 -->
<g id="edge25" class="edge">
<title>Node17&#45;&gt;Node14</title>
<path fill="none" stroke="#191970" d="M257.7001,-224.4647C266.3291,-209.6575 285.1006,-181.4432 309.5,-168 352.723,-144.1856 491.2158,-130.9026 566.551,-125.2705"/>
<polygon fill="#191970" stroke="#191970" points="567.0269,-128.7452 576.7455,-124.5263 566.5171,-121.7638 567.0269,-128.7452"/>
</g>
<!-- Node18&#45;&gt;Node7 -->
<g id="edge27" class="edge">
<title>Node18&#45;&gt;Node7</title>
<path fill="none" stroke="#191970" d="M573.8284,-336.2455C587.3303,-327.6534 607.2122,-315.0014 622.7686,-305.1018"/>
<polygon fill="#191970" stroke="#191970" points="624.7897,-307.9643 631.3472,-299.6427 621.0315,-302.0587 624.7897,-307.9643"/>
</g>
<!-- Node18&#45;&gt;Node14 -->
<g id="edge28" class="edge">
<title>Node18&#45;&gt;Node14</title>
<path fill="none" stroke="#191970" d="M562.9666,-336.3802C571.0658,-318.55 588.1961,-278.9953 597.5,-244 606.9142,-208.5898 612.2273,-166.0765 614.7188,-141.7319"/>
<polygon fill="#191970" stroke="#191970" points="618.2165,-141.9234 615.6954,-131.6329 611.249,-141.2496 618.2165,-141.9234"/>
</g>
<!-- Node18&#45;&gt;Node15 -->
<g id="edge29" class="edge">
<title>Node18&#45;&gt;Node15</title>
<path fill="none" stroke="#191970" d="M557.4769,-336.4509C555.5197,-318.184 551.2095,-277.9553 548.6105,-253.6976"/>
<polygon fill="#191970" stroke="#191970" points="552.066,-253.0951 547.5205,-243.5249 545.1059,-253.8409 552.066,-253.0951"/>
</g>
<!-- Node19&#45;&gt;Node14 -->
<g id="edge31" class="edge">
<title>Node19&#45;&gt;Node14</title>
<path fill="none" stroke="#191970" d="M472.719,-280.3185C476.1598,-266.7743 483.7489,-241.8313 496.5,-224 522.9349,-187.0331 565.6284,-155.0714 592.3249,-137.1986"/>
<polygon fill="#191970" stroke="#191970" points="594.2781,-140.1032 600.7186,-131.6907 590.4377,-134.2507 594.2781,-140.1032"/>
</g>
<!-- Node19&#45;&gt;Node15 -->
<g id="edge32" class="edge">
<title>Node19&#45;&gt;Node15</title>
<path fill="none" stroke="#191970" d="M483.7382,-280.2455C495.181,-271.814 511.9296,-259.4729 525.2475,-249.6598"/>
<polygon fill="#191970" stroke="#191970" points="527.4391,-252.3924 533.4135,-243.6427 523.2867,-246.757 527.4391,-252.3924"/>
</g>
<!-- Node20&#45;&gt;Node6 -->
<g id="edge35" class="edge">
<title>Node20&#45;&gt;Node6</title>
<path fill="none" stroke="#191970" d="M682.9067,-231.5988C623.0992,-226.7742 491.776,-214.2381 372.1062,-187.7605"/>
<polygon fill="#191970" stroke="#191970" points="372.5678,-184.2769 362.0431,-185.4943 371.0298,-191.1059 372.5678,-184.2769"/>
</g>
<!-- Node20&#45;&gt;Node10 -->
<g id="edge36" class="edge">
<title>Node20&#45;&gt;Node10</title>
<path fill="none" stroke="#191970" d="M742.4364,-224.4881C770.2153,-213.101 807.4026,-192.4704 791.5,-168 713.7754,-48.4003 528.0617,-19.3319 443.1769,-12.2676"/>
<polygon fill="#191970" stroke="#191970" points="443.3356,-8.7696 433.0969,-11.4935 442.7995,-15.749 443.3356,-8.7696"/>
</g>
<!-- Node20&#45;&gt;Node14 -->
<g id="edge37" class="edge">
<title>Node20&#45;&gt;Node14</title>
<path fill="none" stroke="#191970" d="M709.4505,-224.0843C701.0645,-210.698 685.0594,-186.4044 668.5,-168 658.8005,-157.2198 646.7326,-146.4123 636.6648,-137.9841"/>
<polygon fill="#191970" stroke="#191970" points="638.727,-135.1489 628.7742,-131.5169 634.2897,-140.5629 638.727,-135.1489"/>
</g>
<!-- Node21 -->
<g id="node22" class="node">
<title>Node21</title>
<polygon fill="#ffffff" stroke="#bfbfbf" points="720.5,-168.5 720.5,-187.5 782.5,-187.5 782.5,-168.5 720.5,-168.5"/>
<text text-anchor="middle" x="751.5" y="-175.5" font-family="Helvetica,sans-Serif" font-size="10.00" fill="#000000">exception</text>
</g>
<!-- Node20&#45;&gt;Node21 -->
<g id="edge34" class="edge">
<title>Node20&#45;&gt;Node21</title>
<path fill="none" stroke="#191970" d="M721.7707,-224.2455C726.7264,-216.5367 733.783,-205.5598 739.7776,-196.2348"/>
<polygon fill="#191970" stroke="#191970" points="742.8376,-197.9471 745.3011,-187.6427 736.9494,-194.1618 742.8376,-197.9471"/>
</g>
<!-- Node22&#45;&gt;Node5 -->
<g id="edge39" class="edge">
<title>Node22&#45;&gt;Node5</title>
<path fill="none" stroke="#191970" d="M997.8464,-336.4646C1067.636,-318.7865 1203.5,-278.6387 1203.5,-234 1203.5,-234 1203.5,-234 1203.5,-178 1203.5,-145.2688 1195.5148,-107.9052 1189.8978,-85.6716"/>
<polygon fill="#191970" stroke="#191970" points="1193.2289,-84.5763 1187.3035,-75.7934 1186.4585,-86.3545 1193.2289,-84.5763"/>
</g>
<!-- Node22&#45;&gt;Node14 -->
<g id="edge40" class="edge">
<title>Node22&#45;&gt;Node14</title>
<path fill="none" stroke="#191970" d="M948.7218,-336.2918C915.8535,-299.9804 801.4295,-173.9339 791.5,-168 752.9253,-144.9476 702.8175,-133.2948 666.1108,-127.4996"/>
<polygon fill="#191970" stroke="#191970" points="666.5398,-124.025 656.1337,-126.0158 665.51,-130.9488 666.5398,-124.025"/>
</g>
<!-- Node23 -->
<g id="node24" class="node">
<title>Node23</title>
<g id="a_node24"><a xlink:href="ref__any_8h.html" target="_top" xlink:title="pdi/ref_any.h">
<polygon fill="#ffffff" stroke="#000000" points="933.5,-280.5 933.5,-299.5 1011.5,-299.5 1011.5,-280.5 933.5,-280.5"/>
<text text-anchor="middle" x="972.5" y="-287.5" font-family="Helvetica,sans-Serif" font-size="10.00" fill="#000000">pdi/ref_any.h</text>
</a>
</g>
</g>
<!-- Node22&#45;&gt;Node23 -->
<g id="edge41" class="edge">
<title>Node22&#45;&gt;Node23</title>
<path fill="none" stroke="#191970" d="M960.1128,-336.2455C962.0916,-328.8579 964.8744,-318.4689 967.3012,-309.4087"/>
<polygon fill="#191970" stroke="#191970" points="970.7105,-310.2078 969.9171,-299.6427 963.9489,-308.3966 970.7105,-310.2078"/>
</g>
<!-- Node23&#45;&gt;Node3 -->
<g id="edge42" class="edge">
<title>Node23&#45;&gt;Node3</title>
<path fill="none" stroke="#191970" d="M941.385,-280.3733C909.6,-270.5392 860.3172,-255.2915 827.0213,-244.99"/>
<polygon fill="#191970" stroke="#191970" points="827.8262,-241.5754 817.2384,-241.9633 825.7571,-248.2627 827.8262,-241.5754"/>
</g>
<!-- Node23&#45;&gt;Node5 -->
<g id="edge44" class="edge">
<title>Node23&#45;&gt;Node5</title>
<path fill="none" stroke="#191970" d="M1011.6127,-284.487C1057.0425,-277.2851 1128.1232,-263.2832 1146.5,-244 1188.2024,-200.2406 1188.799,-122.4869 1186.4366,-85.9783"/>
<polygon fill="#191970" stroke="#191970" points="1189.8984,-85.3594 1185.614,-75.6696 1182.9206,-85.9163 1189.8984,-85.3594"/>
</g>
<!-- Node23&#45;&gt;Node14 -->
<g id="edge47" class="edge">
<title>Node23&#45;&gt;Node14</title>
<path fill="none" stroke="#191970" d="M981.6867,-280.4122C993.4054,-266.9792 1010.7673,-242.1676 998.5,-224 961.2438,-168.8242 761.122,-138.7014 666.3408,-127.3442"/>
<polygon fill="#191970" stroke="#191970" points="666.4798,-123.8366 656.1397,-126.1457 665.663,-130.7887 666.4798,-123.8366"/>
</g>
<!-- Node23&#45;&gt;Node15 -->
<g id="edge48" class="edge">
<title>Node23&#45;&gt;Node15</title>
<path fill="none" stroke="#191970" d="M933.1865,-284.832C855.9936,-274.6846 684.63,-252.1579 598.3126,-240.811"/>
<polygon fill="#191970" stroke="#191970" points="598.5906,-237.3176 588.2197,-239.4843 597.6782,-244.2579 598.5906,-237.3176"/>
</g>
<!-- Node23&#45;&gt;Node20 -->
<g id="edge49" class="edge">
<title>Node23&#45;&gt;Node20</title>
<path fill="none" stroke="#191970" d="M933.2081,-281.876C892.0797,-273.3094 825.3704,-259.2387 757.9861,-244.0713"/>
<polygon fill="#191970" stroke="#191970" points="758.5675,-240.6145 748.0422,-241.826 757.0257,-247.4426 758.5675,-240.6145"/>
</g>
<!-- Node24 -->
<g id="node25" class="node">
<title>Node24</title>
<polygon fill="#ffffff" stroke="#bfbfbf" points="873.5,-224.5 873.5,-243.5 935.5,-243.5 935.5,-224.5 873.5,-224.5"/>
<text text-anchor="middle" x="904.5" y="-231.5" font-family="Helvetica,sans-Serif" font-size="10.00" fill="#000000">functional</text>
</g>
<!-- Node23&#45;&gt;Node24 -->
<g id="edge43" class="edge">
<title>Node23&#45;&gt;Node24</title>
<path fill="none" stroke="#191970" d="M960.6553,-280.2455C950.612,-271.9746 936.0005,-259.9416 924.1996,-250.2232"/>
<polygon fill="#191970" stroke="#191970" points="926.1533,-247.298 916.209,-243.6427 921.7033,-252.7015 926.1533,-247.298"/>
</g>
<!-- Node25 -->
<g id="node26" class="node">
<title>Node25</title>
<polygon fill="#ffffff" stroke="#bfbfbf" points="953.5,-224.5 953.5,-243.5 989.5,-243.5 989.5,-224.5 953.5,-224.5"/>
<text text-anchor="middle" x="971.5" y="-231.5" font-family="Helvetica,sans-Serif" font-size="10.00" fill="#000000">new</text>
</g>
<!-- Node23&#45;&gt;Node25 -->
<g id="edge45" class="edge">
<title>Node23&#45;&gt;Node25</title>
<path fill="none" stroke="#191970" d="M972.3258,-280.2455C972.1953,-272.9382 972.0124,-262.6944 971.8519,-253.7046"/>
<polygon fill="#191970" stroke="#191970" points="975.3503,-253.5786 971.6722,-243.6427 968.3514,-253.7036 975.3503,-253.5786"/>
</g>
<!-- Node26 -->
<g id="node27" class="node">
<title>Node26</title>
<polygon fill="#ffffff" stroke="#bfbfbf" points="1045.5,-224.5 1045.5,-243.5 1137.5,-243.5 1137.5,-224.5 1045.5,-224.5"/>
<text text-anchor="middle" x="1091.5" y="-231.5" font-family="Helvetica,sans-Serif" font-size="10.00" fill="#000000">unordered_map</text>
</g>
<!-- Node23&#45;&gt;Node26 -->
<g id="edge46" class="edge">
<title>Node23&#45;&gt;Node26</title>
<path fill="none" stroke="#191970" d="M992.9568,-280.3733C1011.9738,-271.4241 1040.5175,-257.9917 1061.9976,-247.8835"/>
<polygon fill="#191970" stroke="#191970" points="1063.7522,-250.926 1071.3101,-243.5011 1060.7716,-244.5923 1063.7522,-250.926"/>
</g>
</g>
</svg>
