<?xml version="1.0" encoding="UTF-8" standalone="no"?>
<!DOCTYPE svg PUBLIC "-//W3C//DTD SVG 1.1//EN"
 "http://www.w3.org/Graphics/SVG/1.1/DTD/svg11.dtd">
<!-- Generated by graphviz version 2.40.1 (20161225.0304)
 -->
<!-- Title: /home/jbigot/data/projects/pdi/pdi/include/pdi/data_descriptor.h Pages: 1 -->
<svg width="780pt" height="386pt"
 viewBox="0.00 0.00 780.00 386.00" xmlns="http://www.w3.org/2000/svg" xmlns:xlink="http://www.w3.org/1999/xlink">
<g id="graph0" class="graph" transform="scale(1 1) rotate(0) translate(4 382)">
<title>/home/jbigot/data/projects/pdi/pdi/include/pdi/data_descriptor.h</title>
<polygon fill="#ffffff" stroke="transparent" points="-4,4 -4,-382 776,-382 776,4 -4,4"/>
<!-- Node0 -->
<g id="node1" class="node">
<title>Node0</title>
<polygon fill="#bfbfbf" stroke="#000000" points="125,-336.5 125,-377.5 263,-377.5 263,-336.5 125,-336.5"/>
<text text-anchor="start" x="133" y="-365.5" font-family="Helvetica,sans-Serif" font-size="10.00" fill="#000000">/home/jbigot/data/projects</text>
<text text-anchor="start" x="133" y="-354.5" font-family="Helvetica,sans-Serif" font-size="10.00" fill="#000000">/pdi/pdi/include/pdi/data</text>
<text text-anchor="middle" x="194" y="-343.5" font-family="Helvetica,sans-Serif" font-size="10.00" fill="#000000">_descriptor.h</text>
</g>
<!-- Node1 -->
<g id="node2" class="node">
<title>Node1</title>
<polygon fill="#ffffff" stroke="#bfbfbf" points="66,-224.5 66,-243.5 128,-243.5 128,-224.5 66,-224.5"/>
<text text-anchor="middle" x="97" y="-231.5" font-family="Helvetica,sans-Serif" font-size="10.00" fill="#000000">functional</text>
</g>
<!-- Node0&#45;&gt;Node1 -->
<g id="edge1" class="edge">
<title>Node0&#45;&gt;Node1</title>
<path fill="none" stroke="#191970" d="M192.8707,-336.1834C191.0289,-319.5365 186.2599,-296.3566 174,-280 163.5041,-265.9968 147.3843,-255.4233 132.601,-247.9669"/>
<polygon fill="#191970" stroke="#191970" points="133.6897,-244.6108 123.1519,-243.5124 130.7047,-250.9425 133.6897,-244.6108"/>
</g>
<!-- Node2 -->
<g id="node3" class="node">
<title>Node2</title>
<polygon fill="#ffffff" stroke="#bfbfbf" points="270,-56.5 270,-75.5 324,-75.5 324,-56.5 270,-56.5"/>
<text text-anchor="middle" x="297" y="-63.5" font-family="Helvetica,sans-Serif" font-size="10.00" fill="#000000">memory</text>
</g>
<!-- Node0&#45;&gt;Node2 -->
<g id="edge2" class="edge">
<title>Node0&#45;&gt;Node2</title>
<path fill="none" stroke="#191970" d="M132.7924,-336.4728C89.0881,-317.5051 38,-284.5267 38,-234 38,-234 38,-234 38,-178 38,-130.2564 188.1434,-90.2883 259.7969,-73.9325"/>
<polygon fill="#191970" stroke="#191970" points="260.7818,-77.2986 269.772,-71.6926 259.2481,-70.4687 260.7818,-77.2986"/>
</g>
<!-- Node3 -->
<g id="node4" class="node">
<title>Node3</title>
<polygon fill="#ffffff" stroke="#bfbfbf" points="124.5,-280.5 124.5,-299.5 165.5,-299.5 165.5,-280.5 124.5,-280.5"/>
<text text-anchor="middle" x="145" y="-287.5" font-family="Helvetica,sans-Serif" font-size="10.00" fill="#000000">stack</text>
</g>
<!-- Node0&#45;&gt;Node3 -->
<g id="edge3" class="edge">
<title>Node0&#45;&gt;Node3</title>
<path fill="none" stroke="#191970" d="M178.7647,-336.168C172.1758,-327.1587 164.5385,-316.7159 158.1958,-308.0432"/>
<polygon fill="#191970" stroke="#191970" points="160.8812,-305.7861 152.1529,-299.7805 155.231,-309.9183 160.8812,-305.7861"/>
</g>
<!-- Node4 -->
<g id="node5" class="node">
<title>Node4</title>
<polygon fill="#ffffff" stroke="#bfbfbf" points="412.5,-.5 412.5,-19.5 479.5,-19.5 479.5,-.5 412.5,-.5"/>
<text text-anchor="middle" x="446" y="-7.5" font-family="Helvetica,sans-Serif" font-size="10.00" fill="#000000">paraconf.h</text>
</g>
<!-- Node0&#45;&gt;Node4 -->
<g id="edge4" class="edge">
<title>Node0&#45;&gt;Node4</title>
<path fill="none" stroke="#191970" d="M124.7832,-342.8422C69.0692,-326.9286 0,-294.916 0,-234 0,-234 0,-234 0,-122 0,-39.6331 289.7594,-17.2819 402.1685,-11.71"/>
<polygon fill="#191970" stroke="#191970" points="402.6543,-15.191 412.4775,-11.2217 402.3231,-8.1989 402.6543,-15.191"/>
</g>
<!-- Node5 -->
<g id="node6" class="node">
<title>Node5</title>
<g id="a_node6"><a xlink:href="pdi__fwd_8h.html" target="_top" xlink:title="pdi/pdi_fwd.h">
<polygon fill="#ffffff" stroke="#000000" points="505.5,-112.5 505.5,-131.5 584.5,-131.5 584.5,-112.5 505.5,-112.5"/>
<text text-anchor="middle" x="545" y="-119.5" font-family="Helvetica,sans-Serif" font-size="10.00" fill="#000000">pdi/pdi_fwd.h</text>
</a>
</g>
</g>
<!-- Node0&#45;&gt;Node5 -->
<g id="edge5" class="edge">
<title>Node0&#45;&gt;Node5</title>
<path fill="none" stroke="#191970" d="M263.1937,-347.1091C364.9673,-330.9851 547.1945,-295.5719 586,-244 591.3445,-236.8973 587.9449,-232.6735 586,-224 582.1284,-206.7345 575.8085,-204.3319 569,-188 562.4847,-172.3715 555.9754,-154.2765 551.383,-140.9903"/>
<polygon fill="#191970" stroke="#191970" points="554.6885,-139.8395 548.1474,-131.505 548.0634,-142.0995 554.6885,-139.8395"/>
</g>
<!-- Node10 -->
<g id="node11" class="node">
<title>Node10</title>
<g id="a_node11"><a xlink:href="datatype__template_8h.html" target="_top" xlink:title="pdi/datatype_template.h">
<polygon fill="#ffffff" stroke="#000000" points="578,-168.5 578,-187.5 708,-187.5 708,-168.5 578,-168.5"/>
<text text-anchor="middle" x="643" y="-175.5" font-family="Helvetica,sans-Serif" font-size="10.00" fill="#000000">pdi/datatype_template.h</text>
</a>
</g>
</g>
<!-- Node0&#45;&gt;Node10 -->
<g id="edge12" class="edge">
<title>Node0&#45;&gt;Node10</title>
<path fill="none" stroke="#191970" d="M263.0891,-352.1118C376.8342,-343.426 593.5507,-323.9443 619,-300 646.9257,-273.7257 647.6533,-225.1783 645.4813,-197.9152"/>
<polygon fill="#191970" stroke="#191970" points="648.9327,-197.258 644.4437,-187.6611 641.9683,-197.9627 648.9327,-197.258"/>
</g>
<!-- Node11 -->
<g id="node12" class="node">
<title>Node11</title>
<g id="a_node12"><a xlink:href="ref__any_8h.html" target="_top" xlink:title="pdi/ref_any.h">
<polygon fill="#ffffff" stroke="#000000" points="281,-280.5 281,-299.5 359,-299.5 359,-280.5 281,-280.5"/>
<text text-anchor="middle" x="320" y="-287.5" font-family="Helvetica,sans-Serif" font-size="10.00" fill="#000000">pdi/ref_any.h</text>
</a>
</g>
</g>
<!-- Node0&#45;&gt;Node11 -->
<g id="edge15" class="edge">
<title>Node0&#45;&gt;Node11</title>
<path fill="none" stroke="#191970" d="M232.8323,-336.3511C252.2335,-326.0346 275.2389,-313.8015 292.7429,-304.4939"/>
<polygon fill="#191970" stroke="#191970" points="294.6574,-307.4399 301.8435,-299.6546 291.3709,-301.2594 294.6574,-307.4399"/>
</g>
<!-- Node5&#45;&gt;Node2 -->
<g id="edge6" class="edge">
<title>Node5&#45;&gt;Node2</title>
<path fill="none" stroke="#191970" d="M505.4294,-113.0647C458.2617,-102.4139 380.0549,-84.7543 334.0343,-74.3626"/>
<polygon fill="#191970" stroke="#191970" points="334.6976,-70.9243 324.1723,-72.1357 333.1557,-77.7524 334.6976,-70.9243"/>
</g>
<!-- Node6 -->
<g id="node7" class="node">
<title>Node6</title>
<g id="a_node7"><a xlink:href="pdi_8h.html" target="_top" xlink:title="pdi.h">
<polygon fill="#ffffff" stroke="#000000" points="641.5,-56.5 641.5,-75.5 680.5,-75.5 680.5,-56.5 641.5,-56.5"/>
<text text-anchor="middle" x="661" y="-63.5" font-family="Helvetica,sans-Serif" font-size="10.00" fill="#000000">pdi.h</text>
</a>
</g>
</g>
<!-- Node5&#45;&gt;Node6 -->
<g id="edge7" class="edge">
<title>Node5&#45;&gt;Node6</title>
<path fill="none" stroke="#191970" d="M564.9411,-112.3733C583.4786,-103.4241 611.3028,-89.9917 632.2413,-79.8835"/>
<polygon fill="#191970" stroke="#191970" points="633.8352,-83.0006 641.3191,-75.5011 630.7919,-76.6967 633.8352,-83.0006"/>
</g>
<!-- Node6&#45;&gt;Node4 -->
<g id="edge9" class="edge">
<title>Node6&#45;&gt;Node4</title>
<path fill="none" stroke="#191970" d="M641.2588,-60.0589C636.5929,-58.6921 631.6285,-57.2684 627,-56 580.2676,-43.194 526.4127,-29.6628 489.6781,-20.6176"/>
<polygon fill="#191970" stroke="#191970" points="490.3374,-17.1755 479.7912,-18.1896 488.6679,-23.9736 490.3374,-17.1755"/>
</g>
<!-- Node7 -->
<g id="node8" class="node">
<title>Node7</title>
<polygon fill="#ffffff" stroke="#bfbfbf" points="640.5,-.5 640.5,-19.5 681.5,-19.5 681.5,-.5 640.5,-.5"/>
<text text-anchor="middle" x="661" y="-7.5" font-family="Helvetica,sans-Serif" font-size="10.00" fill="#000000">mpi.h</text>
</g>
<!-- Node6&#45;&gt;Node7 -->
<g id="edge8" class="edge">
<title>Node6&#45;&gt;Node7</title>
<path fill="none" stroke="#191970" d="M661,-56.2455C661,-48.9382 661,-38.6944 661,-29.7046"/>
<polygon fill="#191970" stroke="#191970" points="664.5001,-29.6426 661,-19.6427 657.5001,-29.6427 664.5001,-29.6426"/>
</g>
<!-- Node8 -->
<g id="node9" class="node">
<title>Node8</title>
<polygon fill="#ffffff" stroke="#bfbfbf" points="700,-.5 700,-19.5 772,-19.5 772,-.5 700,-.5"/>
<text text-anchor="middle" x="736" y="-7.5" font-family="Helvetica,sans-Serif" font-size="10.00" fill="#000000">pdi/export.h</text>
</g>
<!-- Node6&#45;&gt;Node8 -->
<g id="edge10" class="edge">
<title>Node6&#45;&gt;Node8</title>
<path fill="none" stroke="#191970" d="M674.064,-56.2455C685.3562,-47.814 701.8845,-35.4729 715.0271,-25.6598"/>
<polygon fill="#191970" stroke="#191970" points="717.1669,-28.4301 723.0857,-19.6427 712.9789,-22.8211 717.1669,-28.4301"/>
</g>
<!-- Node9 -->
<g id="node10" class="node">
<title>Node9</title>
<polygon fill="#ffffff" stroke="#bfbfbf" points="545.5,-.5 545.5,-19.5 622.5,-19.5 622.5,-.5 545.5,-.5"/>
<text text-anchor="middle" x="584" y="-7.5" font-family="Helvetica,sans-Serif" font-size="10.00" fill="#000000">pdi/version.h</text>
</g>
<!-- Node6&#45;&gt;Node9 -->
<g id="edge11" class="edge">
<title>Node6&#45;&gt;Node9</title>
<path fill="none" stroke="#191970" d="M647.5876,-56.2455C635.9943,-47.814 619.0252,-35.4729 605.5322,-25.6598"/>
<polygon fill="#191970" stroke="#191970" points="607.4047,-22.6938 597.2587,-19.6427 603.2874,-28.355 607.4047,-22.6938"/>
</g>
<!-- Node10&#45;&gt;Node4 -->
<g id="edge13" class="edge">
<title>Node10&#45;&gt;Node4</title>
<path fill="none" stroke="#191970" d="M637.2151,-168.2662C628.8262,-154.6597 612.2755,-129.6433 594,-112 556.1567,-75.4659 503.9832,-42.821 472.758,-24.783"/>
<polygon fill="#191970" stroke="#191970" points="474.2001,-21.5765 463.7789,-19.6659 470.7341,-27.6582 474.2001,-21.5765"/>
</g>
<!-- Node10&#45;&gt;Node5 -->
<g id="edge14" class="edge">
<title>Node10&#45;&gt;Node5</title>
<path fill="none" stroke="#191970" d="M625.9297,-168.2455C610.753,-159.5731 588.3379,-146.7645 570.9437,-136.825"/>
<polygon fill="#191970" stroke="#191970" points="572.2936,-133.5653 561.8747,-131.6427 568.8206,-139.643 572.2936,-133.5653"/>
</g>
<!-- Node11&#45;&gt;Node1 -->
<g id="edge17" class="edge">
<title>Node11&#45;&gt;Node1</title>
<path fill="none" stroke="#191970" d="M281.9183,-280.4369C241.8954,-270.3863 179.1534,-254.6305 138.049,-244.3083"/>
<polygon fill="#191970" stroke="#191970" points="138.6433,-240.8489 128.092,-241.8078 136.9383,-247.6381 138.6433,-240.8489"/>
</g>
<!-- Node11&#45;&gt;Node2 -->
<g id="edge18" class="edge">
<title>Node11&#45;&gt;Node2</title>
<path fill="none" stroke="#191970" d="M319.0117,-280.375C315.5246,-246.4133 303.7508,-131.7472 299.0063,-85.5392"/>
<polygon fill="#191970" stroke="#191970" points="302.4878,-85.1793 297.9846,-75.5891 295.5244,-85.8944 302.4878,-85.1793"/>
</g>
<!-- Node11&#45;&gt;Node5 -->
<g id="edge21" class="edge">
<title>Node11&#45;&gt;Node5</title>
<path fill="none" stroke="#191970" d="M332.7416,-280.4862C369.859,-252.772 478.1649,-171.9036 524.0592,-137.6358"/>
<polygon fill="#191970" stroke="#191970" points="526.2004,-140.4051 532.1192,-131.6177 522.0124,-134.7961 526.2004,-140.4051"/>
</g>
<!-- Node12 -->
<g id="node13" class="node">
<title>Node12</title>
<polygon fill="#ffffff" stroke="#bfbfbf" points="525.5,-224.5 525.5,-243.5 576.5,-243.5 576.5,-224.5 525.5,-224.5"/>
<text text-anchor="middle" x="551" y="-231.5" font-family="Helvetica,sans-Serif" font-size="10.00" fill="#000000">cassert</text>
</g>
<!-- Node11&#45;&gt;Node12 -->
<g id="edge16" class="edge">
<title>Node11&#45;&gt;Node12</title>
<path fill="none" stroke="#191970" d="M359.0348,-281.5698C396.7949,-273.2631 455.8506,-259.874 515.4658,-244.3102"/>
<polygon fill="#191970" stroke="#191970" points="516.6429,-247.6197 525.4237,-241.6911 514.8623,-240.8499 516.6429,-247.6197"/>
</g>
<!-- Node13 -->
<g id="node14" class="node">
<title>Node13</title>
<polygon fill="#ffffff" stroke="#bfbfbf" points="146,-224.5 146,-243.5 182,-243.5 182,-224.5 146,-224.5"/>
<text text-anchor="middle" x="164" y="-231.5" font-family="Helvetica,sans-Serif" font-size="10.00" fill="#000000">new</text>
</g>
<!-- Node11&#45;&gt;Node13 -->
<g id="edge19" class="edge">
<title>Node11&#45;&gt;Node13</title>
<path fill="none" stroke="#191970" d="M292.7857,-280.4039C268.5428,-271.8318 231.8727,-258.808 191.7288,-244.2391"/>
<polygon fill="#191970" stroke="#191970" points="192.8829,-240.9346 182.2888,-240.8079 190.4915,-247.5135 192.8829,-240.9346"/>
</g>
<!-- Node14 -->
<g id="node15" class="node">
<title>Node14</title>
<polygon fill="#ffffff" stroke="#bfbfbf" points="200,-224.5 200,-243.5 292,-243.5 292,-224.5 200,-224.5"/>
<text text-anchor="middle" x="246" y="-231.5" font-family="Helvetica,sans-Serif" font-size="10.00" fill="#000000">unordered_map</text>
</g>
<!-- Node11&#45;&gt;Node14 -->
<g id="edge20" class="edge">
<title>Node11&#45;&gt;Node14</title>
<path fill="none" stroke="#191970" d="M307.1102,-280.2455C296.0746,-271.8943 279.9708,-259.7076 267.0647,-249.9408"/>
<polygon fill="#191970" stroke="#191970" points="268.8283,-246.8862 258.7421,-243.6427 264.6041,-252.4681 268.8283,-246.8862"/>
</g>
<!-- Node15 -->
<g id="node16" class="node">
<title>Node15</title>
<g id="a_node16"><a xlink:href="datatype_8h.html" target="_top" xlink:title="pdi/datatype.h">
<polygon fill="#ffffff" stroke="#000000" points="424.5,-224.5 424.5,-243.5 507.5,-243.5 507.5,-224.5 424.5,-224.5"/>
<text text-anchor="middle" x="466" y="-231.5" font-family="Helvetica,sans-Serif" font-size="10.00" fill="#000000">pdi/datatype.h</text>
</a>
</g>
</g>
<!-- Node11&#45;&gt;Node15 -->
<g id="edge22" class="edge">
<title>Node11&#45;&gt;Node15</title>
<path fill="none" stroke="#191970" d="M345.0983,-280.3733C368.9555,-271.2226 405.0335,-257.3844 431.571,-247.2057"/>
<polygon fill="#191970" stroke="#191970" points="433.1459,-250.3503 441.2292,-243.5011 430.639,-243.8145 433.1459,-250.3503"/>
</g>
<!-- Node16 -->
<g id="node17" class="node">
<title>Node16</title>
<g id="a_node17"><a xlink:href="error_8h.html" target="_top" xlink:title="pdi/error.h">
<polygon fill="#ffffff" stroke="#000000" points="325.5,-168.5 325.5,-187.5 390.5,-187.5 390.5,-168.5 325.5,-168.5"/>
<text text-anchor="middle" x="358" y="-175.5" font-family="Helvetica,sans-Serif" font-size="10.00" fill="#000000">pdi/error.h</text>
</a>
</g>
</g>
<!-- Node11&#45;&gt;Node16 -->
<g id="edge25" class="edge">
<title>Node11&#45;&gt;Node16</title>
<path fill="none" stroke="#191970" d="M323.2399,-280.4509C329.4937,-262.0186 343.3342,-221.2254 351.539,-197.043"/>
<polygon fill="#191970" stroke="#191970" points="354.8697,-198.1192 354.7683,-187.5249 348.2409,-195.8701 354.8697,-198.1192"/>
</g>
<!-- Node15&#45;&gt;Node5 -->
<g id="edge23" class="edge">
<title>Node15&#45;&gt;Node5</title>
<path fill="none" stroke="#191970" d="M472.7355,-224.4509C485.9701,-205.688 515.548,-163.7548 532.4743,-139.758"/>
<polygon fill="#191970" stroke="#191970" points="535.3776,-141.714 538.2816,-131.5249 529.6574,-137.6792 535.3776,-141.714"/>
</g>
<!-- Node15&#45;&gt;Node10 -->
<g id="edge24" class="edge">
<title>Node15&#45;&gt;Node10</title>
<path fill="none" stroke="#191970" d="M496.4274,-224.3733C525.9872,-215.021 571.0226,-200.7725 603.3695,-190.5385"/>
<polygon fill="#191970" stroke="#191970" points="604.4913,-193.8546 612.9697,-187.5011 602.3797,-187.1807 604.4913,-193.8546"/>
</g>
<!-- Node16&#45;&gt;Node4 -->
<g id="edge28" class="edge">
<title>Node16&#45;&gt;Node4</title>
<path fill="none" stroke="#191970" d="M362.9834,-168.4862C377.0748,-141.5845 417.4003,-64.5994 436.1695,-28.7673"/>
<polygon fill="#191970" stroke="#191970" points="439.3124,-30.3103 440.8521,-19.8279 433.1115,-27.0622 439.3124,-30.3103"/>
</g>
<!-- Node16&#45;&gt;Node5 -->
<g id="edge29" class="edge">
<title>Node16&#45;&gt;Node5</title>
<path fill="none" stroke="#191970" d="M390.1464,-168.3733C421.5109,-158.9807 469.3665,-144.6496 503.5716,-134.4064"/>
<polygon fill="#191970" stroke="#191970" points="504.6975,-137.7229 513.273,-131.5011 502.6893,-131.0171 504.6975,-137.7229"/>
</g>
<!-- Node17 -->
<g id="node18" class="node">
<title>Node17</title>
<polygon fill="#ffffff" stroke="#bfbfbf" points="425,-112.5 425,-131.5 487,-131.5 487,-112.5 425,-112.5"/>
<text text-anchor="middle" x="456" y="-119.5" font-family="Helvetica,sans-Serif" font-size="10.00" fill="#000000">exception</text>
</g>
<!-- Node16&#45;&gt;Node17 -->
<g id="edge26" class="edge">
<title>Node16&#45;&gt;Node17</title>
<path fill="none" stroke="#191970" d="M375.0703,-168.2455C390.247,-159.5731 412.6621,-146.7645 430.0563,-136.825"/>
<polygon fill="#191970" stroke="#191970" points="432.1794,-139.643 439.1253,-131.6427 428.7064,-133.5653 432.1794,-139.643"/>
</g>
<!-- Node18 -->
<g id="node19" class="node">
<title>Node18</title>
<polygon fill="#ffffff" stroke="#bfbfbf" points="325.5,-112.5 325.5,-131.5 368.5,-131.5 368.5,-112.5 325.5,-112.5"/>
<text text-anchor="middle" x="347" y="-119.5" font-family="Helvetica,sans-Serif" font-size="10.00" fill="#000000">string</text>
</g>
<!-- Node16&#45;&gt;Node18 -->
<g id="edge27" class="edge">
<title>Node16&#45;&gt;Node18</title>
<path fill="none" stroke="#191970" d="M356.0839,-168.2455C354.6486,-160.9382 352.6364,-150.6944 350.8705,-141.7046"/>
<polygon fill="#191970" stroke="#191970" points="354.256,-140.7805 348.8941,-131.6427 347.3873,-142.1298 354.256,-140.7805"/>
</g>
</g>
</svg>
