<?xml version="1.0" encoding="UTF-8" standalone="no"?>
<!DOCTYPE svg PUBLIC "-//W3C//DTD SVG 1.1//EN"
 "http://www.w3.org/Graphics/SVG/1.1/DTD/svg11.dtd">
<!-- Generated by graphviz version 2.40.1 (20161225.0304)
 -->
<!-- Title: /home/jbigot/data/projects/pdi/pdi/src/data_descriptor.cxx Pages: 1 -->
<svg width="1166pt" height="487pt"
 viewBox="0.00 0.00 1166.22 487.00" xmlns="http://www.w3.org/2000/svg" xmlns:xlink="http://www.w3.org/1999/xlink">
<g id="graph0" class="graph" transform="scale(1 1) rotate(0) translate(4 483)">
<title>/home/jbigot/data/projects/pdi/pdi/src/data_descriptor.cxx</title>
<polygon fill="#ffffff" stroke="transparent" points="-4,4 -4,-483 1162.2168,-483 1162.2168,4 -4,4"/>
<!-- Node0 -->
<g id="node1" class="node">
<title>Node0</title>
<polygon fill="#bfbfbf" stroke="#000000" points="369.5,-448.5 369.5,-478.5 533.5,-478.5 533.5,-448.5 369.5,-448.5"/>
<text text-anchor="start" x="377.5" y="-466.5" font-family="Helvetica,sans-Serif" font-size="10.00" fill="#000000">/home/jbigot/data/projects</text>
<text text-anchor="middle" x="451.5" y="-455.5" font-family="Helvetica,sans-Serif" font-size="10.00" fill="#000000">/pdi/pdi/src/data_descriptor.cxx</text>
</g>
<!-- Node1 -->
<g id="node2" class="node">
<title>Node1</title>
<polygon fill="#ffffff" stroke="#bfbfbf" points="0,-392.5 0,-411.5 53,-411.5 53,-392.5 0,-392.5"/>
<text text-anchor="middle" x="26.5" y="-399.5" font-family="Helvetica,sans-Serif" font-size="10.00" fill="#000000">config.h</text>
</g>
<!-- Node0&#45;&gt;Node1 -->
<g id="edge1" class="edge">
<title>Node0&#45;&gt;Node1</title>
<path fill="none" stroke="#191970" d="M369.4941,-456.2099C292.4902,-448.5582 174.0081,-434.7166 63.1662,-412.1217"/>
<polygon fill="#191970" stroke="#191970" points="63.6539,-408.6486 53.1524,-410.0519 62.2369,-415.5037 63.6539,-408.6486"/>
</g>
<!-- Node2 -->
<g id="node3" class="node">
<title>Node2</title>
<polygon fill="#ffffff" stroke="#bfbfbf" points="71,-392.5 71,-411.5 128,-411.5 128,-392.5 71,-392.5"/>
<text text-anchor="middle" x="99.5" y="-399.5" font-family="Helvetica,sans-Serif" font-size="10.00" fill="#000000">iostream</text>
</g>
<!-- Node0&#45;&gt;Node2 -->
<g id="edge2" class="edge">
<title>Node0&#45;&gt;Node2</title>
<path fill="none" stroke="#191970" d="M369.2685,-451.2464C306.8605,-441.5956 219.0368,-427.2618 142.5,-412 141.0437,-411.7096 139.5615,-411.4059 138.0657,-411.0925"/>
<polygon fill="#191970" stroke="#191970" points="138.6427,-407.6361 128.1264,-408.9235 137.1502,-414.4752 138.6427,-407.6361"/>
</g>
<!-- Node3 -->
<g id="node4" class="node">
<title>Node3</title>
<polygon fill="#ffffff" stroke="#bfbfbf" points="475.5,-56.5 475.5,-75.5 529.5,-75.5 529.5,-56.5 475.5,-56.5"/>
<text text-anchor="middle" x="502.5" y="-63.5" font-family="Helvetica,sans-Serif" font-size="10.00" fill="#000000">memory</text>
</g>
<!-- Node0&#45;&gt;Node3 -->
<g id="edge3" class="edge">
<title>Node0&#45;&gt;Node3</title>
<path fill="none" stroke="#191970" d="M369.2972,-455.9544C301.9696,-448.2843 213.4313,-434.3121 185.5,-412 160.4665,-392.0027 156.5,-378.0401 156.5,-346 156.5,-346 156.5,-346 156.5,-290 156.5,-187.9625 210.9833,-159.0996 301.5,-112 354.3417,-84.5043 423.4108,-73.318 465.2866,-68.8558"/>
<polygon fill="#191970" stroke="#191970" points="465.7151,-72.3306 475.3207,-67.8604 465.024,-65.3648 465.7151,-72.3306"/>
</g>
<!-- Node4 -->
<g id="node5" class="node">
<title>Node4</title>
<polygon fill="#ffffff" stroke="#bfbfbf" points="194.5,-392.5 194.5,-411.5 240.5,-411.5 240.5,-392.5 194.5,-392.5"/>
<text text-anchor="middle" x="217.5" y="-399.5" font-family="Helvetica,sans-Serif" font-size="10.00" fill="#000000">vector</text>
</g>
<!-- Node0&#45;&gt;Node4 -->
<g id="edge4" class="edge">
<title>Node0&#45;&gt;Node4</title>
<path fill="none" stroke="#191970" d="M393.2817,-448.4152C354.0455,-438.2157 301.1341,-424.3972 254.5,-412 253.2339,-411.6634 251.9438,-411.3195 250.6407,-410.9713"/>
<polygon fill="#191970" stroke="#191970" points="251.1503,-407.4842 240.5847,-408.2707 249.3347,-414.2446 251.1503,-407.4842"/>
</g>
<!-- Node5 -->
<g id="node6" class="node">
<title>Node5</title>
<g id="a_node6"><a xlink:href="context_8h.html" target="_top" xlink:title="pdi/context.h">
<polygon fill="#ffffff" stroke="#000000" points="413,-392.5 413,-411.5 490,-411.5 490,-392.5 413,-392.5"/>
<text text-anchor="middle" x="451.5" y="-399.5" font-family="Helvetica,sans-Serif" font-size="10.00" fill="#000000">pdi/context.h</text>
</a>
</g>
</g>
<!-- Node0&#45;&gt;Node5 -->
<g id="edge5" class="edge">
<title>Node0&#45;&gt;Node5</title>
<path fill="none" stroke="#191970" d="M451.5,-448.2977C451.5,-440.3834 451.5,-430.6043 451.5,-422.0759"/>
<polygon fill="#191970" stroke="#191970" points="455.0001,-421.8469 451.5,-411.8469 448.0001,-421.847 455.0001,-421.8469"/>
</g>
<!-- Node17 -->
<g id="node18" class="node">
<title>Node17</title>
<g id="a_node18"><a xlink:href="data__descriptor_8h.html" target="_top" xlink:title="pdi/data_descriptor.h">
<polygon fill="#ffffff" stroke="#000000" points="686.5,-336.5 686.5,-355.5 802.5,-355.5 802.5,-336.5 686.5,-336.5"/>
<text text-anchor="middle" x="744.5" y="-343.5" font-family="Helvetica,sans-Serif" font-size="10.00" fill="#000000">pdi/data_descriptor.h</text>
</a>
</g>
</g>
<!-- Node0&#45;&gt;Node17 -->
<g id="edge53" class="edge">
<title>Node0&#45;&gt;Node17</title>
<path fill="none" stroke="#191970" d="M533.5038,-454.594C576.735,-447.4341 629.5542,-434.6562 672.5,-412 695.5313,-399.8498 716.8391,-378.5279 730.2039,-363.4095"/>
<polygon fill="#191970" stroke="#191970" points="732.9218,-365.6168 736.7721,-355.7463 727.6069,-361.0613 732.9218,-365.6168"/>
</g>
<!-- Node20 -->
<g id="node21" class="node">
<title>Node20</title>
<g id="a_node21"><a xlink:href="ref__any_8h.html" target="_top" xlink:title="pdi/ref_any.h">
<polygon fill="#ffffff" stroke="#000000" points="581.5,-280.5 581.5,-299.5 659.5,-299.5 659.5,-280.5 581.5,-280.5"/>
<text text-anchor="middle" x="620.5" y="-287.5" font-family="Helvetica,sans-Serif" font-size="10.00" fill="#000000">pdi/ref_any.h</text>
</a>
</g>
</g>
<!-- Node0&#45;&gt;Node20 -->
<g id="edge51" class="edge">
<title>Node0&#45;&gt;Node20</title>
<path fill="none" stroke="#191970" d="M498.2053,-448.4896C538.9403,-432.6278 595.4707,-403.2565 621.5,-356 629.2654,-341.9017 628.2089,-323.4066 625.6732,-309.583"/>
<polygon fill="#191970" stroke="#191970" points="629.0556,-308.6698 623.4628,-299.6715 622.2235,-310.1936 629.0556,-308.6698"/>
</g>
<!-- Node23 -->
<g id="node24" class="node">
<title>Node23</title>
<g id="a_node24"><a xlink:href="datatype_8h.html" target="_top" xlink:title="pdi/datatype.h">
<polygon fill="#ffffff" stroke="#000000" points="925,-224.5 925,-243.5 1008,-243.5 1008,-224.5 925,-224.5"/>
<text text-anchor="middle" x="966.5" y="-231.5" font-family="Helvetica,sans-Serif" font-size="10.00" fill="#000000">pdi/datatype.h</text>
</a>
</g>
</g>
<!-- Node0&#45;&gt;Node23 -->
<g id="edge45" class="edge">
<title>Node0&#45;&gt;Node23</title>
<path fill="none" stroke="#191970" d="M533.9603,-453.2656C650.1587,-437.3592 854.2159,-403.5164 910.5,-356 927.0669,-342.0138 949.1338,-283.9119 959.9544,-253.2096"/>
<polygon fill="#191970" stroke="#191970" points="963.3138,-254.2046 963.2853,-243.6098 956.7006,-251.9099 963.3138,-254.2046"/>
</g>
<!-- Node24 -->
<g id="node25" class="node">
<title>Node24</title>
<g id="a_node25"><a xlink:href="error_8h.html" target="_top" xlink:title="pdi/error.h">
<polygon fill="#ffffff" stroke="#000000" points="261,-224.5 261,-243.5 326,-243.5 326,-224.5 261,-224.5"/>
<text text-anchor="middle" x="293.5" y="-231.5" font-family="Helvetica,sans-Serif" font-size="10.00" fill="#000000">pdi/error.h</text>
</a>
</g>
</g>
<!-- Node0&#45;&gt;Node24 -->
<g id="edge52" class="edge">
<title>Node0&#45;&gt;Node24</title>
<path fill="none" stroke="#191970" d="M435.9562,-448.4299C426.1219,-438.5195 413.4363,-425.0195 403.5,-412 361.756,-357.3028 321.5676,-286.105 303.4838,-252.7646"/>
<polygon fill="#191970" stroke="#191970" points="306.4237,-250.8417 298.6039,-243.6932 300.259,-254.1579 306.4237,-250.8417"/>
</g>
<!-- Node26 -->
<g id="node27" class="node">
<title>Node26</title>
<g id="a_node27"><a xlink:href="scalar__datatype_8h.html" target="_top" xlink:title="pdi/scalar_datatype.h">
<polygon fill="#ffffff" stroke="#000000" points="962.5,-280.5 962.5,-299.5 1080.5,-299.5 1080.5,-280.5 962.5,-280.5"/>
<text text-anchor="middle" x="1021.5" y="-287.5" font-family="Helvetica,sans-Serif" font-size="10.00" fill="#000000">pdi/scalar_datatype.h</text>
</a>
</g>
</g>
<!-- Node0&#45;&gt;Node26 -->
<g id="edge46" class="edge">
<title>Node0&#45;&gt;Node26</title>
<path fill="none" stroke="#191970" d="M533.6957,-458.996C665.8726,-451.1591 914.3697,-433.7524 948.5,-412 985.986,-388.109 1006.8576,-337.4544 1015.9391,-309.5158"/>
<polygon fill="#191970" stroke="#191970" points="1019.3615,-310.293 1018.9436,-299.7064 1012.6684,-308.2429 1019.3615,-310.293"/>
</g>
<!-- Node27 -->
<g id="node28" class="node">
<title>Node27</title>
<g id="a_node28"><a xlink:href="plugin_8h.html" target="_top" xlink:title="pdi/plugin.h">
<polygon fill="#ffffff" stroke="#000000" points="1085.5,-336.5 1085.5,-355.5 1155.5,-355.5 1155.5,-336.5 1085.5,-336.5"/>
<text text-anchor="middle" x="1120.5" y="-343.5" font-family="Helvetica,sans-Serif" font-size="10.00" fill="#000000">pdi/plugin.h</text>
</a>
</g>
</g>
<!-- Node0&#45;&gt;Node27 -->
<g id="edge49" class="edge">
<title>Node0&#45;&gt;Node27</title>
<path fill="none" stroke="#191970" d="M533.6317,-460.4213C666.919,-454.6746 924.1229,-440.2553 1010.5,-412 1044.5793,-400.8521 1079.3008,-377.6217 1100.3775,-361.9155"/>
<polygon fill="#191970" stroke="#191970" points="1102.6998,-364.5463 1108.5334,-355.7021 1098.4577,-358.9781 1102.6998,-364.5463"/>
</g>
<!-- Node5&#45;&gt;Node3 -->
<g id="edge8" class="edge">
<title>Node5&#45;&gt;Node3</title>
<path fill="none" stroke="#191970" d="M431.1089,-392.3436C368.6965,-361.4733 188.3022,-261.7101 252.5,-168 277.533,-131.459 401.8425,-93.2833 465.2149,-75.799"/>
<polygon fill="#191970" stroke="#191970" points="466.4775,-79.0826 475.2045,-73.0752 464.636,-72.3291 466.4775,-79.0826"/>
</g>
<!-- Node6 -->
<g id="node7" class="node">
<title>Node6</title>
<polygon fill="#ffffff" stroke="#bfbfbf" points="414,-.5 414,-19.5 455,-19.5 455,-.5 414,-.5"/>
<text text-anchor="middle" x="434.5" y="-7.5" font-family="Helvetica,sans-Serif" font-size="10.00" fill="#000000">mpi.h</text>
</g>
<!-- Node5&#45;&gt;Node6 -->
<g id="edge6" class="edge">
<title>Node5&#45;&gt;Node6</title>
<path fill="none" stroke="#191970" d="M418.6092,-392.4367C394.1606,-384.5688 360.5062,-372.1026 333.5,-356 277.1889,-322.4242 253.4598,-307.589 237.5,-244 222.5772,-184.543 235.4065,-156.5641 277.5,-112 314.8784,-72.4277 370.5401,-40.9795 404.5683,-23.9609"/>
<polygon fill="#191970" stroke="#191970" points="406.5365,-26.894 413.9745,-19.349 403.4548,-20.6088 406.5365,-26.894"/>
</g>
<!-- Node7 -->
<g id="node8" class="node">
<title>Node7</title>
<polygon fill="#ffffff" stroke="#bfbfbf" points="459,-336.5 459,-355.5 488,-355.5 488,-336.5 459,-336.5"/>
<text text-anchor="middle" x="473.5" y="-343.5" font-family="Helvetica,sans-Serif" font-size="10.00" fill="#000000">list</text>
</g>
<!-- Node5&#45;&gt;Node7 -->
<g id="edge7" class="edge">
<title>Node5&#45;&gt;Node7</title>
<path fill="none" stroke="#191970" d="M455.3321,-392.2455C458.2659,-384.7776 462.4047,-374.2427 465.991,-365.1137"/>
<polygon fill="#191970" stroke="#191970" points="469.3129,-366.23 469.7118,-355.6427 462.7976,-363.6704 469.3129,-366.23"/>
</g>
<!-- Node8 -->
<g id="node9" class="node">
<title>Node8</title>
<polygon fill="#ffffff" stroke="#bfbfbf" points="471,-280.5 471,-299.5 512,-299.5 512,-280.5 471,-280.5"/>
<text text-anchor="middle" x="491.5" y="-287.5" font-family="Helvetica,sans-Serif" font-size="10.00" fill="#000000">stack</text>
</g>
<!-- Node5&#45;&gt;Node8 -->
<g id="edge9" class="edge">
<title>Node5&#45;&gt;Node8</title>
<path fill="none" stroke="#191970" d="M448.8987,-392.2033C445.8855,-378.952 442.2043,-354.8107 449.5,-336 453.8858,-324.692 462.4902,-314.463 470.7749,-306.5381"/>
<polygon fill="#191970" stroke="#191970" points="473.3301,-308.9494 478.472,-299.6859 468.6756,-303.721 473.3301,-308.9494"/>
</g>
<!-- Node9 -->
<g id="node10" class="node">
<title>Node9</title>
<polygon fill="#ffffff" stroke="#bfbfbf" points="380,-168.5 380,-187.5 423,-187.5 423,-168.5 380,-168.5"/>
<text text-anchor="middle" x="401.5" y="-175.5" font-family="Helvetica,sans-Serif" font-size="10.00" fill="#000000">string</text>
</g>
<!-- Node5&#45;&gt;Node9 -->
<g id="edge10" class="edge">
<title>Node5&#45;&gt;Node9</title>
<path fill="none" stroke="#191970" d="M444.6695,-392.2637C428.3905,-368.3906 387.6142,-304.4746 373.5,-244 371.4797,-235.3437 371.1,-232.5588 373.5,-224 376.2878,-214.0584 381.8812,-204.1336 387.3407,-196.0613"/>
<polygon fill="#191970" stroke="#191970" points="390.2676,-197.9866 393.2911,-187.8323 384.5952,-193.8849 390.2676,-197.9866"/>
</g>
<!-- Node10 -->
<g id="node11" class="node">
<title>Node10</title>
<polygon fill="#ffffff" stroke="#bfbfbf" points="382.5,-224.5 382.5,-243.5 474.5,-243.5 474.5,-224.5 382.5,-224.5"/>
<text text-anchor="middle" x="428.5" y="-231.5" font-family="Helvetica,sans-Serif" font-size="10.00" fill="#000000">unordered_map</text>
</g>
<!-- Node5&#45;&gt;Node10 -->
<g id="edge11" class="edge">
<title>Node5&#45;&gt;Node10</title>
<path fill="none" stroke="#191970" d="M449.0449,-392.188C446.8013,-382.9146 443.5326,-368.5863 441.5,-356 435.6955,-320.0569 431.8467,-277.7223 429.9297,-253.5553"/>
<polygon fill="#191970" stroke="#191970" points="433.416,-253.2421 429.1641,-243.5378 426.4364,-253.7755 433.416,-253.2421"/>
</g>
<!-- Node11 -->
<g id="node12" class="node">
<title>Node11</title>
<polygon fill="#ffffff" stroke="#bfbfbf" points="506.5,-336.5 506.5,-355.5 592.5,-355.5 592.5,-336.5 506.5,-336.5"/>
<text text-anchor="middle" x="549.5" y="-343.5" font-family="Helvetica,sans-Serif" font-size="10.00" fill="#000000">unordered_set</text>
</g>
<!-- Node5&#45;&gt;Node11 -->
<g id="edge12" class="edge">
<title>Node5&#45;&gt;Node11</title>
<path fill="none" stroke="#191970" d="M468.5703,-392.2455C483.747,-383.5731 506.1621,-370.7645 523.5563,-360.825"/>
<polygon fill="#191970" stroke="#191970" points="525.6794,-363.643 532.6253,-355.6427 522.2064,-357.5653 525.6794,-363.643"/>
</g>
<!-- Node12 -->
<g id="node13" class="node">
<title>Node12</title>
<g id="a_node13"><a xlink:href="pdi__fwd_8h.html" target="_top" xlink:title="pdi/pdi_fwd.h">
<polygon fill="#ffffff" stroke="#000000" points="857,-112.5 857,-131.5 936,-131.5 936,-112.5 857,-112.5"/>
<text text-anchor="middle" x="896.5" y="-119.5" font-family="Helvetica,sans-Serif" font-size="10.00" fill="#000000">pdi/pdi_fwd.h</text>
</a>
</g>
</g>
<!-- Node5&#45;&gt;Node12 -->
<g id="edge13" class="edge">
<title>Node5&#45;&gt;Node12</title>
<path fill="none" stroke="#191970" d="M490.3034,-399.6303C570.9706,-394.2861 754.0386,-379.8659 811.5,-356 855.6706,-337.6543 896.5,-337.8289 896.5,-290 896.5,-290 896.5,-290 896.5,-234 896.5,-201.7116 896.5,-164.1872 896.5,-141.8048"/>
<polygon fill="#191970" stroke="#191970" points="900.0001,-141.5883 896.5,-131.5884 893.0001,-141.5884 900.0001,-141.5883"/>
</g>
<!-- Node5&#45;&gt;Node17 -->
<g id="edge20" class="edge">
<title>Node5&#45;&gt;Node17</title>
<path fill="none" stroke="#191970" d="M490.1059,-394.6214C539.7277,-385.1374 626.4079,-368.5705 684.6188,-357.4449"/>
<polygon fill="#191970" stroke="#191970" points="685.6168,-360.8176 694.782,-355.5024 684.3027,-353.942 685.6168,-360.8176"/>
</g>
<!-- Node5&#45;&gt;Node20 -->
<g id="edge44" class="edge">
<title>Node5&#45;&gt;Node20</title>
<path fill="none" stroke="#191970" d="M490.3439,-394.4668C529.3821,-386.1521 585.9386,-371.8323 601.5,-356 613.4888,-343.8024 618.0078,-324.5535 619.6638,-309.9844"/>
<polygon fill="#191970" stroke="#191970" points="623.1582,-310.1922 620.4485,-299.9497 616.1795,-309.6464 623.1582,-310.1922"/>
</g>
<!-- Node12&#45;&gt;Node3 -->
<g id="edge14" class="edge">
<title>Node12&#45;&gt;Node3</title>
<path fill="none" stroke="#191970" d="M856.9178,-116.3741C780.6597,-105.5354 614.3454,-81.8968 539.8683,-71.3112"/>
<polygon fill="#191970" stroke="#191970" points="539.9609,-67.7893 529.5679,-69.8472 538.9758,-74.7196 539.9609,-67.7893"/>
</g>
<!-- Node13 -->
<g id="node14" class="node">
<title>Node13</title>
<g id="a_node14"><a xlink:href="pdi_8h.html" target="_top" xlink:title="pdi.h">
<polygon fill="#ffffff" stroke="#000000" points="877,-56.5 877,-75.5 916,-75.5 916,-56.5 877,-56.5"/>
<text text-anchor="middle" x="896.5" y="-63.5" font-family="Helvetica,sans-Serif" font-size="10.00" fill="#000000">pdi.h</text>
</a>
</g>
</g>
<!-- Node12&#45;&gt;Node13 -->
<g id="edge15" class="edge">
<title>Node12&#45;&gt;Node13</title>
<path fill="none" stroke="#191970" d="M896.5,-112.2455C896.5,-104.9382 896.5,-94.6944 896.5,-85.7046"/>
<polygon fill="#191970" stroke="#191970" points="900.0001,-85.6426 896.5,-75.6427 893.0001,-85.6427 900.0001,-85.6426"/>
</g>
<!-- Node13&#45;&gt;Node6 -->
<g id="edge16" class="edge">
<title>Node13&#45;&gt;Node6</title>
<path fill="none" stroke="#191970" d="M876.9435,-63.6295C804.8125,-54.8864 553.315,-24.4018 465.2461,-13.7268"/>
<polygon fill="#191970" stroke="#191970" points="465.4527,-10.2263 455.1041,-12.4975 464.6103,-17.1754 465.4527,-10.2263"/>
</g>
<!-- Node14 -->
<g id="node15" class="node">
<title>Node14</title>
<polygon fill="#ffffff" stroke="#bfbfbf" points="781,-.5 781,-19.5 848,-19.5 848,-.5 781,-.5"/>
<text text-anchor="middle" x="814.5" y="-7.5" font-family="Helvetica,sans-Serif" font-size="10.00" fill="#000000">paraconf.h</text>
</g>
<!-- Node13&#45;&gt;Node14 -->
<g id="edge17" class="edge">
<title>Node13&#45;&gt;Node14</title>
<path fill="none" stroke="#191970" d="M882.2167,-56.2455C869.753,-47.7337 851.4549,-35.2375 837.0208,-25.3801"/>
<polygon fill="#191970" stroke="#191970" points="838.8515,-22.392 828.6196,-19.6427 834.9038,-28.1726 838.8515,-22.392"/>
</g>
<!-- Node15 -->
<g id="node16" class="node">
<title>Node15</title>
<polygon fill="#ffffff" stroke="#bfbfbf" points="866.5,-.5 866.5,-19.5 938.5,-19.5 938.5,-.5 866.5,-.5"/>
<text text-anchor="middle" x="902.5" y="-7.5" font-family="Helvetica,sans-Serif" font-size="10.00" fill="#000000">pdi/export.h</text>
</g>
<!-- Node13&#45;&gt;Node15 -->
<g id="edge18" class="edge">
<title>Node13&#45;&gt;Node15</title>
<path fill="none" stroke="#191970" d="M897.5451,-56.2455C898.328,-48.9382 899.4256,-38.6944 900.3888,-29.7046"/>
<polygon fill="#191970" stroke="#191970" points="903.8815,-29.9587 901.4669,-19.6427 896.9214,-29.2129 903.8815,-29.9587"/>
</g>
<!-- Node16 -->
<g id="node17" class="node">
<title>Node16</title>
<polygon fill="#ffffff" stroke="#bfbfbf" points="957,-.5 957,-19.5 1034,-19.5 1034,-.5 957,-.5"/>
<text text-anchor="middle" x="995.5" y="-7.5" font-family="Helvetica,sans-Serif" font-size="10.00" fill="#000000">pdi/version.h</text>
</g>
<!-- Node13&#45;&gt;Node16 -->
<g id="edge19" class="edge">
<title>Node13&#45;&gt;Node16</title>
<path fill="none" stroke="#191970" d="M913.7445,-56.2455C929.0761,-47.5731 951.7199,-34.7645 969.2916,-24.825"/>
<polygon fill="#191970" stroke="#191970" points="971.4724,-27.6126 978.4531,-19.6427 968.0259,-21.5198 971.4724,-27.6126"/>
</g>
<!-- Node17&#45;&gt;Node3 -->
<g id="edge22" class="edge">
<title>Node17&#45;&gt;Node3</title>
<path fill="none" stroke="#191970" d="M749.8515,-336.402C761.1124,-314.8029 784.5494,-261.3485 763.5,-224 715.0685,-138.0669 598.9838,-93.547 539.3032,-75.6625"/>
<polygon fill="#191970" stroke="#191970" points="540.1152,-72.2538 529.5357,-72.8232 538.1612,-78.9755 540.1152,-72.2538"/>
</g>
<!-- Node17&#45;&gt;Node8 -->
<g id="edge23" class="edge">
<title>Node17&#45;&gt;Node8</title>
<path fill="none" stroke="#191970" d="M701.2952,-336.4369C650.3387,-325.158 566.9215,-306.6941 522.1652,-296.7876"/>
<polygon fill="#191970" stroke="#191970" points="522.7032,-293.322 512.1831,-294.5781 521.1903,-300.1566 522.7032,-293.322"/>
</g>
<!-- Node17&#45;&gt;Node12 -->
<g id="edge25" class="edge">
<title>Node17&#45;&gt;Node12</title>
<path fill="none" stroke="#191970" d="M776.6812,-336.3697C795.831,-329.148 819.2837,-317.4637 834.5,-300 845.3006,-287.6042 877.3528,-184.973 890.634,-141.4215"/>
<polygon fill="#191970" stroke="#191970" points="894.0254,-142.2984 893.5817,-131.7128 887.3274,-140.2646 894.0254,-142.2984"/>
</g>
<!-- Node17&#45;&gt;Node14 -->
<g id="edge24" class="edge">
<title>Node17&#45;&gt;Node14</title>
<path fill="none" stroke="#191970" d="M757.0499,-336.4082C778.636,-318.7155 820.5,-278.6472 820.5,-234 820.5,-234 820.5,-234 820.5,-122 820.5,-89.6653 817.9755,-52.1547 816.2016,-29.7876"/>
<polygon fill="#191970" stroke="#191970" points="819.6698,-29.2576 815.3597,-19.5791 812.6935,-29.833 819.6698,-29.2576"/>
</g>
<!-- Node18 -->
<g id="node19" class="node">
<title>Node18</title>
<polygon fill="#ffffff" stroke="#bfbfbf" points="692.5,-224.5 692.5,-243.5 754.5,-243.5 754.5,-224.5 692.5,-224.5"/>
<text text-anchor="middle" x="723.5" y="-231.5" font-family="Helvetica,sans-Serif" font-size="10.00" fill="#000000">functional</text>
</g>
<!-- Node17&#45;&gt;Node18 -->
<g id="edge21" class="edge">
<title>Node17&#45;&gt;Node18</title>
<path fill="none" stroke="#191970" d="M742.7096,-336.4509C739.269,-318.1013 731.6733,-277.5908 727.1317,-253.3693"/>
<polygon fill="#191970" stroke="#191970" points="730.5689,-252.7086 725.2859,-243.5249 723.6888,-253.9986 730.5689,-252.7086"/>
</g>
<!-- Node19 -->
<g id="node20" class="node">
<title>Node19</title>
<g id="a_node20"><a xlink:href="datatype__template_8h.html" target="_top" xlink:title="pdi/datatype_template.h">
<polygon fill="#ffffff" stroke="#000000" points="1000.5,-168.5 1000.5,-187.5 1130.5,-187.5 1130.5,-168.5 1000.5,-168.5"/>
<text text-anchor="middle" x="1065.5" y="-175.5" font-family="Helvetica,sans-Serif" font-size="10.00" fill="#000000">pdi/datatype_template.h</text>
</a>
</g>
</g>
<!-- Node17&#45;&gt;Node19 -->
<g id="edge26" class="edge">
<title>Node17&#45;&gt;Node19</title>
<path fill="none" stroke="#191970" d="M802.8734,-342.3567C896.3197,-335.9233 1070.9414,-321.1973 1089.5,-300 1115.0819,-270.7808 1092.8551,-222.3776 1077.3815,-196.1843"/>
<polygon fill="#191970" stroke="#191970" points="1080.321,-194.2831 1072.0872,-187.6157 1074.366,-197.9626 1080.321,-194.2831"/>
</g>
<!-- Node17&#45;&gt;Node20 -->
<g id="edge29" class="edge">
<title>Node17&#45;&gt;Node20</title>
<path fill="none" stroke="#191970" d="M723.1836,-336.3733C703.2784,-327.3838 673.3564,-313.8706 650.94,-303.7471"/>
<polygon fill="#191970" stroke="#191970" points="652.0925,-300.4272 641.5382,-299.5011 649.2113,-306.8068 652.0925,-300.4272"/>
</g>
<!-- Node19&#45;&gt;Node12 -->
<g id="edge28" class="edge">
<title>Node19&#45;&gt;Node12</title>
<path fill="none" stroke="#191970" d="M1036.4479,-168.3733C1008.3457,-159.0613 965.5946,-144.8953 934.7393,-134.671"/>
<polygon fill="#191970" stroke="#191970" points="935.7664,-131.3243 925.173,-131.5011 933.5645,-137.969 935.7664,-131.3243"/>
</g>
<!-- Node19&#45;&gt;Node14 -->
<g id="edge27" class="edge">
<title>Node19&#45;&gt;Node14</title>
<path fill="none" stroke="#191970" d="M1056.5175,-168.2531C1035.4731,-145.8779 980.58,-90.1375 925.5,-56 903.3587,-42.2772 876.4066,-30.9969 854.6053,-23.0414"/>
<polygon fill="#191970" stroke="#191970" points="855.5815,-19.6739 844.9868,-19.6233 853.2375,-26.2698 855.5815,-19.6739"/>
</g>
<!-- Node20&#45;&gt;Node3 -->
<g id="edge32" class="edge">
<title>Node20&#45;&gt;Node3</title>
<path fill="none" stroke="#191970" d="M581.0895,-281.6415C559.9806,-275.0483 535.5064,-263.5744 521.5,-244 487.0671,-195.8789 493.3422,-120.8784 498.8198,-85.5977"/>
<polygon fill="#191970" stroke="#191970" points="502.2899,-86.0686 500.5176,-75.623 495.3891,-84.8939 502.2899,-86.0686"/>
</g>
<!-- Node20&#45;&gt;Node10 -->
<g id="edge34" class="edge">
<title>Node20&#45;&gt;Node10</title>
<path fill="none" stroke="#191970" d="M587.494,-280.3733C555.2909,-270.9807 506.1558,-256.6496 471.0361,-246.4064"/>
<polygon fill="#191970" stroke="#191970" points="471.6553,-242.9412 461.0753,-243.5011 469.6953,-249.6612 471.6553,-242.9412"/>
</g>
<!-- Node20&#45;&gt;Node12 -->
<g id="edge35" class="edge">
<title>Node20&#45;&gt;Node12</title>
<path fill="none" stroke="#191970" d="M627.7585,-280.4302C638.6506,-266.5709 660.421,-240.7435 683.5,-224 739.8074,-183.1498 815.0395,-151.6435 859.3776,-135.0392"/>
<polygon fill="#191970" stroke="#191970" points="860.7163,-138.276 868.8859,-131.53 858.2925,-131.709 860.7163,-138.276"/>
</g>
<!-- Node20&#45;&gt;Node18 -->
<g id="edge31" class="edge">
<title>Node20&#45;&gt;Node18</title>
<path fill="none" stroke="#191970" d="M638.4412,-280.2455C654.54,-271.4928 678.3879,-258.527 696.7391,-248.5496"/>
<polygon fill="#191970" stroke="#191970" points="698.6507,-251.4942 705.7644,-243.6427 695.3071,-245.3444 698.6507,-251.4942"/>
</g>
<!-- Node21 -->
<g id="node22" class="node">
<title>Node21</title>
<polygon fill="#ffffff" stroke="#bfbfbf" points="531,-224.5 531,-243.5 582,-243.5 582,-224.5 531,-224.5"/>
<text text-anchor="middle" x="556.5" y="-231.5" font-family="Helvetica,sans-Serif" font-size="10.00" fill="#000000">cassert</text>
</g>
<!-- Node20&#45;&gt;Node21 -->
<g id="edge30" class="edge">
<title>Node20&#45;&gt;Node21</title>
<path fill="none" stroke="#191970" d="M609.3521,-280.2455C599.9913,-272.0549 586.4142,-260.1749 575.3651,-250.5069"/>
<polygon fill="#191970" stroke="#191970" points="577.3508,-247.5937 567.5202,-243.6427 572.7412,-252.8618 577.3508,-247.5937"/>
</g>
<!-- Node22 -->
<g id="node23" class="node">
<title>Node22</title>
<polygon fill="#ffffff" stroke="#bfbfbf" points="600.5,-224.5 600.5,-243.5 636.5,-243.5 636.5,-224.5 600.5,-224.5"/>
<text text-anchor="middle" x="618.5" y="-231.5" font-family="Helvetica,sans-Serif" font-size="10.00" fill="#000000">new</text>
</g>
<!-- Node20&#45;&gt;Node22 -->
<g id="edge33" class="edge">
<title>Node20&#45;&gt;Node22</title>
<path fill="none" stroke="#191970" d="M620.1516,-280.2455C619.8907,-272.9382 619.5248,-262.6944 619.2037,-253.7046"/>
<polygon fill="#191970" stroke="#191970" points="622.6992,-253.5113 618.8444,-243.6427 615.7036,-253.7613 622.6992,-253.5113"/>
</g>
<!-- Node20&#45;&gt;Node23 -->
<g id="edge36" class="edge">
<title>Node20&#45;&gt;Node23</title>
<path fill="none" stroke="#191970" d="M659.518,-283.6849C722.1813,-273.5429 845.2725,-253.6206 915.0474,-242.3276"/>
<polygon fill="#191970" stroke="#191970" points="915.6293,-245.779 924.9417,-240.7262 914.5109,-238.869 915.6293,-245.779"/>
</g>
<!-- Node20&#45;&gt;Node24 -->
<g id="edge39" class="edge">
<title>Node20&#45;&gt;Node24</title>
<path fill="none" stroke="#191970" d="M581.381,-283.3007C519.7166,-272.7405 400.3665,-252.3013 336.4207,-241.3503"/>
<polygon fill="#191970" stroke="#191970" points="336.723,-237.8512 326.2757,-239.613 335.5414,-244.7508 336.723,-237.8512"/>
</g>
<!-- Node23&#45;&gt;Node12 -->
<g id="edge37" class="edge">
<title>Node23&#45;&gt;Node12</title>
<path fill="none" stroke="#191970" d="M960.5318,-224.4509C948.8567,-205.7707 922.8274,-164.1238 907.7976,-140.0761"/>
<polygon fill="#191970" stroke="#191970" points="910.7211,-138.1499 902.4531,-131.5249 904.7851,-141.8599 910.7211,-138.1499"/>
</g>
<!-- Node23&#45;&gt;Node19 -->
<g id="edge38" class="edge">
<title>Node23&#45;&gt;Node19</title>
<path fill="none" stroke="#191970" d="M983.7445,-224.2455C999.0761,-215.5731 1021.7199,-202.7645 1039.2916,-192.825"/>
<polygon fill="#191970" stroke="#191970" points="1041.4724,-195.6126 1048.4531,-187.6427 1038.0259,-189.5198 1041.4724,-195.6126"/>
</g>
<!-- Node24&#45;&gt;Node9 -->
<g id="edge41" class="edge">
<title>Node24&#45;&gt;Node9</title>
<path fill="none" stroke="#191970" d="M312.3122,-224.2455C329.3473,-215.4125 354.6575,-202.2887 373.9681,-192.2758"/>
<polygon fill="#191970" stroke="#191970" points="375.637,-195.353 382.9034,-187.6427 372.4147,-189.1388 375.637,-195.353"/>
</g>
<!-- Node24&#45;&gt;Node12 -->
<g id="edge43" class="edge">
<title>Node24&#45;&gt;Node12</title>
<path fill="none" stroke="#191970" d="M301.2592,-224.2536C313.9225,-209.1573 340.6348,-180.5539 370.5,-168 455.6228,-132.2184 732.5213,-124.2661 846.6411,-122.5018"/>
<polygon fill="#191970" stroke="#191970" points="846.8941,-125.9986 856.8423,-122.354 846.7926,-118.9993 846.8941,-125.9986"/>
</g>
<!-- Node24&#45;&gt;Node14 -->
<g id="edge42" class="edge">
<title>Node24&#45;&gt;Node14</title>
<path fill="none" stroke="#191970" d="M280.1122,-224.4242C263.9238,-211.6213 240.2759,-188.1947 252.5,-168 308.0892,-76.1643 364.1628,-88.4199 466.5,-56 522.2393,-38.3421 689.9349,-21.3112 770.4375,-13.888"/>
<polygon fill="#191970" stroke="#191970" points="771.0953,-17.3426 780.7353,-12.9471 770.4583,-10.3716 771.0953,-17.3426"/>
</g>
<!-- Node25 -->
<g id="node26" class="node">
<title>Node25</title>
<polygon fill="#ffffff" stroke="#bfbfbf" points="261.5,-168.5 261.5,-187.5 323.5,-187.5 323.5,-168.5 261.5,-168.5"/>
<text text-anchor="middle" x="292.5" y="-175.5" font-family="Helvetica,sans-Serif" font-size="10.00" fill="#000000">exception</text>
</g>
<!-- Node24&#45;&gt;Node25 -->
<g id="edge40" class="edge">
<title>Node24&#45;&gt;Node25</title>
<path fill="none" stroke="#191970" d="M293.3258,-224.2455C293.1953,-216.9382 293.0124,-206.6944 292.8519,-197.7046"/>
<polygon fill="#191970" stroke="#191970" points="296.3503,-197.5786 292.6722,-187.6427 289.3514,-197.7036 296.3503,-197.5786"/>
</g>
<!-- Node26&#45;&gt;Node12 -->
<g id="edge47" class="edge">
<title>Node26&#45;&gt;Node12</title>
<path fill="none" stroke="#191970" d="M1023.1665,-280.4378C1025.0225,-267.0352 1026.6712,-242.2594 1017.5,-224 1006.3407,-201.7823 950.4833,-159.9988 918.7058,-137.4189"/>
<polygon fill="#191970" stroke="#191970" points="920.6287,-134.4922 910.4386,-131.5917 916.5958,-140.2138 920.6287,-134.4922"/>
</g>
<!-- Node26&#45;&gt;Node23 -->
<g id="edge48" class="edge">
<title>Node26&#45;&gt;Node23</title>
<path fill="none" stroke="#191970" d="M1011.9197,-280.2455C1003.9542,-272.1352 992.4359,-260.4075 982.9921,-250.7919"/>
<polygon fill="#191970" stroke="#191970" points="985.4747,-248.3247 975.9705,-243.6427 980.4805,-253.2297 985.4747,-248.3247"/>
</g>
<!-- Node27&#45;&gt;Node12 -->
<g id="edge50" class="edge">
<title>Node27&#45;&gt;Node12</title>
<path fill="none" stroke="#191970" d="M1125.9328,-336.1145C1141.3002,-306.6748 1181.3348,-218.4972 1139.5,-168 1115.4659,-138.9895 1010.2022,-128.1366 946.3632,-124.1796"/>
<polygon fill="#191970" stroke="#191970" points="946.2947,-120.6697 936.1077,-123.5809 945.8867,-127.6578 946.2947,-120.6697"/>
</g>
</g>
</svg>
