<?xml version="1.0" encoding="UTF-8" standalone="no"?>
<!DOCTYPE svg PUBLIC "-//W3C//DTD SVG 1.1//EN"
 "http://www.w3.org/Graphics/SVG/1.1/DTD/svg11.dtd">
<!-- Generated by graphviz version 2.40.1 (20161225.0304)
 -->
<!-- Title: /home/jbigot/data/projects/pdi/pdi/include/pdi/datatype.h Pages: 1 -->
<svg width="352pt" height="263pt"
 viewBox="0.00 0.00 351.50 263.00" xmlns="http://www.w3.org/2000/svg" xmlns:xlink="http://www.w3.org/1999/xlink">
<g id="graph0" class="graph" transform="scale(1 1) rotate(0) translate(4 259)">
<title>/home/jbigot/data/projects/pdi/pdi/include/pdi/datatype.h</title>
<polygon fill="#ffffff" stroke="transparent" points="-4,4 -4,-259 347.5,-259 347.5,4 -4,4"/>
<!-- Node0 -->
<g id="node1" class="node">
<title>Node0</title>
<polygon fill="#bfbfbf" stroke="#000000" points="153,-224.5 153,-254.5 310,-254.5 310,-224.5 153,-224.5"/>
<text text-anchor="start" x="161" y="-242.5" font-family="Helvetica,sans-Serif" font-size="10.00" fill="#000000">/home/jbigot/data/projects</text>
<text text-anchor="middle" x="231.5" y="-231.5" font-family="Helvetica,sans-Serif" font-size="10.00" fill="#000000">/pdi/pdi/include/pdi/datatype.h</text>
</g>
<!-- Node1 -->
<g id="node2" class="node">
<title>Node1</title>
<g id="a_node2"><a xlink:href="pdi__fwd_8h.html" target="_top" xlink:title="pdi/pdi_fwd.h">
<polygon fill="#ffffff" stroke="#000000" points="147,-112.5 147,-131.5 226,-131.5 226,-112.5 147,-112.5"/>
<text text-anchor="middle" x="186.5" y="-119.5" font-family="Helvetica,sans-Serif" font-size="10.00" fill="#000000">pdi/pdi_fwd.h</text>
</a>
</g>
</g>
<!-- Node0&#45;&gt;Node1 -->
<g id="edge1" class="edge">
<title>Node0&#45;&gt;Node1</title>
<path fill="none" stroke="#191970" d="M222.3207,-224.137C216.6149,-214.1099 209.4493,-200.5897 204.5,-188 198.5252,-172.8016 193.7758,-154.8895 190.6592,-141.5633"/>
<polygon fill="#191970" stroke="#191970" points="194.0313,-140.604 188.4342,-131.6082 187.1998,-142.1309 194.0313,-140.604"/>
</g>
<!-- Node8 -->
<g id="node9" class="node">
<title>Node8</title>
<g id="a_node9"><a xlink:href="datatype__template_8h.html" target="_top" xlink:title="pdi/datatype_template.h">
<polygon fill="#ffffff" stroke="#000000" points="213.5,-168.5 213.5,-187.5 343.5,-187.5 343.5,-168.5 213.5,-168.5"/>
<text text-anchor="middle" x="278.5" y="-175.5" font-family="Helvetica,sans-Serif" font-size="10.00" fill="#000000">pdi/datatype_template.h</text>
</a>
</g>
</g>
<!-- Node0&#45;&gt;Node8 -->
<g id="edge8" class="edge">
<title>Node0&#45;&gt;Node8</title>
<path fill="none" stroke="#191970" d="M243.118,-224.2977C249.71,-215.672 257.9948,-204.8312 264.8901,-195.8087"/>
<polygon fill="#191970" stroke="#191970" points="267.6835,-197.9176 270.9747,-187.8469 262.1217,-193.6671 267.6835,-197.9176"/>
</g>
<!-- Node2 -->
<g id="node3" class="node">
<title>Node2</title>
<polygon fill="#ffffff" stroke="#bfbfbf" points="95.5,-56.5 95.5,-75.5 149.5,-75.5 149.5,-56.5 95.5,-56.5"/>
<text text-anchor="middle" x="122.5" y="-63.5" font-family="Helvetica,sans-Serif" font-size="10.00" fill="#000000">memory</text>
</g>
<!-- Node1&#45;&gt;Node2 -->
<g id="edge2" class="edge">
<title>Node1&#45;&gt;Node2</title>
<path fill="none" stroke="#191970" d="M175.3521,-112.2455C165.9913,-104.0549 152.4142,-92.1749 141.3651,-82.5069"/>
<polygon fill="#191970" stroke="#191970" points="143.3508,-79.5937 133.5202,-75.6427 138.7412,-84.8618 143.3508,-79.5937"/>
</g>
<!-- Node3 -->
<g id="node4" class="node">
<title>Node3</title>
<g id="a_node4"><a xlink:href="pdi_8h.html" target="_top" xlink:title="pdi.h">
<polygon fill="#ffffff" stroke="#000000" points="168,-56.5 168,-75.5 207,-75.5 207,-56.5 168,-56.5"/>
<text text-anchor="middle" x="187.5" y="-63.5" font-family="Helvetica,sans-Serif" font-size="10.00" fill="#000000">pdi.h</text>
</a>
</g>
</g>
<!-- Node1&#45;&gt;Node3 -->
<g id="edge3" class="edge">
<title>Node1&#45;&gt;Node3</title>
<path fill="none" stroke="#191970" d="M186.6742,-112.2455C186.8047,-104.9382 186.9876,-94.6944 187.1481,-85.7046"/>
<polygon fill="#191970" stroke="#191970" points="190.6486,-85.7036 187.3278,-75.6427 183.6497,-85.5786 190.6486,-85.7036"/>
</g>
<!-- Node4 -->
<g id="node5" class="node">
<title>Node4</title>
<polygon fill="#ffffff" stroke="#bfbfbf" points="0,-.5 0,-19.5 41,-19.5 41,-.5 0,-.5"/>
<text text-anchor="middle" x="20.5" y="-7.5" font-family="Helvetica,sans-Serif" font-size="10.00" fill="#000000">mpi.h</text>
</g>
<!-- Node3&#45;&gt;Node4 -->
<g id="edge4" class="edge">
<title>Node3&#45;&gt;Node4</title>
<path fill="none" stroke="#191970" d="M167.854,-59.1949C164.7268,-58.1205 161.5262,-57.0261 158.5,-56 153.2445,-54.218 90.135,-33.1928 51.1044,-20.1926"/>
<polygon fill="#191970" stroke="#191970" points="51.8698,-16.7586 41.2762,-16.9192 49.6578,-23.3999 51.8698,-16.7586"/>
</g>
<!-- Node5 -->
<g id="node6" class="node">
<title>Node5</title>
<polygon fill="#ffffff" stroke="#bfbfbf" points="245,-.5 245,-19.5 312,-19.5 312,-.5 245,-.5"/>
<text text-anchor="middle" x="278.5" y="-7.5" font-family="Helvetica,sans-Serif" font-size="10.00" fill="#000000">paraconf.h</text>
</g>
<!-- Node3&#45;&gt;Node5 -->
<g id="edge5" class="edge">
<title>Node3&#45;&gt;Node5</title>
<path fill="none" stroke="#191970" d="M203.351,-56.2455C217.3132,-47.6534 237.8728,-35.0014 253.9596,-25.1018"/>
<polygon fill="#191970" stroke="#191970" points="256.1484,-27.8645 262.8307,-19.6427 252.4797,-21.9029 256.1484,-27.8645"/>
</g>
<!-- Node6 -->
<g id="node7" class="node">
<title>Node6</title>
<polygon fill="#ffffff" stroke="#bfbfbf" points="59.5,-.5 59.5,-19.5 131.5,-19.5 131.5,-.5 59.5,-.5"/>
<text text-anchor="middle" x="95.5" y="-7.5" font-family="Helvetica,sans-Serif" font-size="10.00" fill="#000000">pdi/export.h</text>
</g>
<!-- Node3&#45;&gt;Node6 -->
<g id="edge6" class="edge">
<title>Node3&#45;&gt;Node6</title>
<path fill="none" stroke="#191970" d="M171.4748,-56.2455C157.3592,-47.6534 136.5737,-35.0014 120.3101,-25.1018"/>
<polygon fill="#191970" stroke="#191970" points="121.7034,-21.8525 111.3415,-19.6427 118.0637,-27.8319 121.7034,-21.8525"/>
</g>
<!-- Node7 -->
<g id="node8" class="node">
<title>Node7</title>
<polygon fill="#ffffff" stroke="#bfbfbf" points="150,-.5 150,-19.5 227,-19.5 227,-.5 150,-.5"/>
<text text-anchor="middle" x="188.5" y="-7.5" font-family="Helvetica,sans-Serif" font-size="10.00" fill="#000000">pdi/version.h</text>
</g>
<!-- Node3&#45;&gt;Node7 -->
<g id="edge7" class="edge">
<title>Node3&#45;&gt;Node7</title>
<path fill="none" stroke="#191970" d="M187.6742,-56.2455C187.8047,-48.9382 187.9876,-38.6944 188.1481,-29.7046"/>
<polygon fill="#191970" stroke="#191970" points="191.6486,-29.7036 188.3278,-19.6427 184.6497,-29.5786 191.6486,-29.7036"/>
</g>
<!-- Node8&#45;&gt;Node1 -->
<g id="edge10" class="edge">
<title>Node8&#45;&gt;Node1</title>
<path fill="none" stroke="#191970" d="M262.4748,-168.2455C248.3592,-159.6534 227.5737,-147.0014 211.3101,-137.1018"/>
<polygon fill="#191970" stroke="#191970" points="212.7034,-133.8525 202.3415,-131.6427 209.0637,-139.8319 212.7034,-133.8525"/>
</g>
<!-- Node8&#45;&gt;Node5 -->
<g id="edge9" class="edge">
<title>Node8&#45;&gt;Node5</title>
<path fill="none" stroke="#191970" d="M278.5,-168.4862C278.5,-141.9293 278.5,-66.5651 278.5,-30.1655"/>
<polygon fill="#191970" stroke="#191970" points="282.0001,-29.8278 278.5,-19.8279 275.0001,-29.8279 282.0001,-29.8278"/>
</g>
</g>
</svg>
