<?xml version="1.0" encoding="UTF-8" standalone="no"?>
<!DOCTYPE svg PUBLIC "-//W3C//DTD SVG 1.1//EN"
 "http://www.w3.org/Graphics/SVG/1.1/DTD/svg11.dtd">
<!-- Generated by graphviz version 2.40.1 (20161225.0304)
 -->
<!-- Title: /home/jbigot/data/projects/pdi/pdi/include/pdi/datatype_template.h Pages: 1 -->
<!--zoomable 396 -->
<svg id="main" version="1.1" xmlns="http://www.w3.org/2000/svg" xmlns:xlink="http://www.w3.org/1999/xlink" xml:space="preserve" onload="init(evt)">
<style type="text/css"><![CDATA[
.edge:hover path { stroke: red; }
.edge:hover polygon { stroke: red; fill: red; }
]]></style>
<script type="text/javascript"><![CDATA[
var edges = document.getElementsByTagName('g');
if (edges && edges.length) {
  for (var i=0;i<edges.length;i++) {
    if (edges[i].id.substr(0,4)=='edge') {
      edges[i].setAttribute('class','edge');
    }
  }
}
]]></script>
        <defs>
                <circle id="rim" cx="0" cy="0" r="7"/>
                <circle id="rim2" cx="0" cy="0" r="3.5"/>
                <g id="zoomPlus">
                        <use xlink:href="#rim" fill="#404040">
                                <set attributeName="fill" to="#808080" begin="zoomplus.mouseover" end="zoomplus.mouseout"/>
                        </use>
                        <path d="M-4,0h8M0,-4v8" fill="none" stroke="white" stroke-width="1.5" pointer-events="none"/>
                </g>
                <g id="zoomMin">
                        <use xlink:href="#rim" fill="#404040">
                                <set attributeName="fill" to="#808080" begin="zoomminus.mouseover" end="zoomminus.mouseout"/>
                        </use>
                        <path d="M-4,0h8" fill="none" stroke="white" stroke-width="1.5" pointer-events="none"/>
                </g>
                <g id="dirArrow">
                        <path fill="none" stroke="white" stroke-width="1.5" d="M0,-3.0v7 M-2.5,-0.5L0,-3.0L2.5,-0.5"/>
                </g>
               <g id="resetDef">
                       <use xlink:href="#rim2" fill="#404040">
                               <set attributeName="fill" to="#808080" begin="reset.mouseover" end="reset.mouseout"/>
                       </use>
               </g>
        </defs>

<script type="text/javascript">
var viewWidth = 1648;
var viewHeight = 396;
var sectionId = 'dynsection-1';
</script>
<script xlink:href="svgpan.js"/>
<svg id="graph" class="graph">
<g id="viewport">
<title>/home/jbigot/data/projects/pdi/pdi/include/pdi/datatype_template.h</title>
<polygon fill="#ffffff" stroke="transparent" points="-4,4 -4,-392 1643.9756,-392 1643.9756,4 -4,4"/>
<!-- Node8 -->
<g id="node1" class="node">
<title>Node8</title>
<polygon fill="#bfbfbf" stroke="#000000" points="890.5,-346.5 890.5,-387.5 1039.5,-387.5 1039.5,-346.5 890.5,-346.5"/>
<text text-anchor="start" x="898.5" y="-375.5" font-family="Helvetica,sans-Serif" font-size="10.00" fill="#000000">/home/jbigot/data/projects</text>
<text text-anchor="start" x="898.5" y="-364.5" font-family="Helvetica,sans-Serif" font-size="10.00" fill="#000000">/pdi/pdi/include/pdi/datatype</text>
<text text-anchor="middle" x="965" y="-353.5" font-family="Helvetica,sans-Serif" font-size="10.00" fill="#000000">_template.h</text>
</g>
<!-- Node9 -->
<g id="node2" class="node">
<title>Node9</title>
<g id="a_node2"><a xlink:href="data__descriptor_8h.html" target="_top" xlink:title="/home/jbigot/data/projects\l/pdi/pdi/include/pdi/data\l_descriptor.h">
<polygon fill="#ffffff" stroke="#000000" points="217,-134.5 217,-175.5 355,-175.5 355,-134.5 217,-134.5"/>
<text text-anchor="start" x="225" y="-163.5" font-family="Helvetica,sans-Serif" font-size="10.00" fill="#000000">/home/jbigot/data/projects</text>
<text text-anchor="start" x="225" y="-152.5" font-family="Helvetica,sans-Serif" font-size="10.00" fill="#000000">/pdi/pdi/include/pdi/data</text>
<text text-anchor="middle" x="286" y="-141.5" font-family="Helvetica,sans-Serif" font-size="10.00" fill="#000000">_descriptor.h</text>
</a>
</g>
</g>
<!-- Node8&#45;&gt;Node9 -->
<g id="edge1" class="edge">
<title>Node8&#45;&gt;Node9</title>
<path fill="none" stroke="#191970" d="M880.0399,-356.9752C734.0888,-338.5706 443.0311,-296.3412 356,-243 329.2026,-226.5759 308.4247,-196.0042 296.6939,-175.5761"/>
<polygon fill="#191970" stroke="#191970" points="879.9354,-360.4893 890.2928,-358.2589 880.8051,-353.5436 879.9354,-360.4893"/>
</g>
<!-- Node16 -->
<g id="node9" class="node">
<title>Node16</title>
<g id="a_node9"><a xlink:href="datatype_8h.html" target="_top" xlink:title="/home/jbigot/data/projects\l/pdi/pdi/include/pdi/datatype.h">
<polygon fill="#ffffff" stroke="#000000" points="993.5,-279.5 993.5,-309.5 1150.5,-309.5 1150.5,-279.5 993.5,-279.5"/>
<text text-anchor="start" x="1001.5" y="-297.5" font-family="Helvetica,sans-Serif" font-size="10.00" fill="#000000">/home/jbigot/data/projects</text>
<text text-anchor="middle" x="1072" y="-286.5" font-family="Helvetica,sans-Serif" font-size="10.00" fill="#000000">/pdi/pdi/include/pdi/datatype.h</text>
</a>
</g>
</g>
<!-- Node8&#45;&gt;Node16 -->
<g id="edge10" class="edge">
<title>Node8&#45;&gt;Node16</title>
<path fill="none" stroke="#191970" d="M1003.7411,-340.7502C1019.1945,-330.2794 1036.4301,-318.6011 1049.7158,-309.5991"/>
<polygon fill="#191970" stroke="#191970" points="1001.691,-337.9114 995.3757,-346.4183 1005.6176,-343.7065 1001.691,-337.9114"/>
</g>
<!-- Node19 -->
<g id="node12" class="node">
<title>Node19</title>
<g id="a_node12"><a xlink:href="datatype__template_8cxx.html" target="_top" xlink:title="/home/jbigot/data/projects\l/pdi/pdi/src/datatype_template.cxx">
<polygon fill="#ffffff" stroke="#000000" points="866.5,-67.5 866.5,-97.5 1043.5,-97.5 1043.5,-67.5 866.5,-67.5"/>
<text text-anchor="start" x="874.5" y="-85.5" font-family="Helvetica,sans-Serif" font-size="10.00" fill="#000000">/home/jbigot/data/projects</text>
<text text-anchor="middle" x="955" y="-74.5" font-family="Helvetica,sans-Serif" font-size="10.00" fill="#000000">/pdi/pdi/src/datatype_template.cxx</text>
</a>
</g>
</g>
<!-- Node8&#45;&gt;Node19 -->
<g id="edge46" class="edge">
<title>Node8&#45;&gt;Node19</title>
<path fill="none" stroke="#191970" d="M963.9084,-335.945C961.7723,-275.1723 957.1108,-142.5517 955.5337,-97.6844"/>
<polygon fill="#191970" stroke="#191970" points="960.4155,-336.2092 964.2647,-346.08 967.4111,-335.9632 960.4155,-336.2092"/>
</g>
<!-- Node10 -->
<g id="node3" class="node">
<title>Node10</title>
<g id="a_node3"><a xlink:href="context_8h.html" target="_top" xlink:title="/home/jbigot/data/projects\l/pdi/pdi/include/pdi/context.h">
<polygon fill="#ffffff" stroke="#000000" points="211,-67.5 211,-97.5 361,-97.5 361,-67.5 211,-67.5"/>
<text text-anchor="start" x="219" y="-85.5" font-family="Helvetica,sans-Serif" font-size="10.00" fill="#000000">/home/jbigot/data/projects</text>
<text text-anchor="middle" x="286" y="-74.5" font-family="Helvetica,sans-Serif" font-size="10.00" fill="#000000">/pdi/pdi/include/pdi/context.h</text>
</a>
</g>
</g>
<!-- Node9&#45;&gt;Node10 -->
<g id="edge2" class="edge">
<title>Node9&#45;&gt;Node10</title>
<path fill="none" stroke="#191970" d="M286,-124.3279C286,-115.0871 286,-105.3508 286,-97.5991"/>
<polygon fill="#191970" stroke="#191970" points="282.5001,-124.4183 286,-134.4183 289.5001,-124.4184 282.5001,-124.4183"/>
</g>
<!-- Node12 -->
<g id="node5" class="node">
<title>Node12</title>
<g id="a_node5"><a xlink:href="data__descriptor_8cxx.html" target="_top" xlink:title="/home/jbigot/data/projects\l/pdi/pdi/src/data_descriptor.cxx">
<polygon fill="#ffffff" stroke="#000000" points="468,-.5 468,-30.5 632,-30.5 632,-.5 468,-.5"/>
<text text-anchor="start" x="476" y="-18.5" font-family="Helvetica,sans-Serif" font-size="10.00" fill="#000000">/home/jbigot/data/projects</text>
<text text-anchor="middle" x="550" y="-7.5" font-family="Helvetica,sans-Serif" font-size="10.00" fill="#000000">/pdi/pdi/src/data_descriptor.cxx</text>
</a>
</g>
</g>
<!-- Node9&#45;&gt;Node12 -->
<g id="edge8" class="edge">
<title>Node9&#45;&gt;Node12</title>
<path fill="none" stroke="#191970" d="M333.2427,-129.6383C366.1983,-111.9872 411.2229,-87.9526 451,-67 474.4836,-54.63 501.1852,-40.7506 520.9351,-30.5199"/>
<polygon fill="#191970" stroke="#191970" points="331.4433,-126.6317 324.2819,-134.4397 334.7494,-132.8018 331.4433,-126.6317"/>
</g>
<!-- Node14 -->
<g id="node7" class="node">
<title>Node14</title>
<g id="a_node7"><a xlink:href="pdi_8cxx.html" target="_top" xlink:title="/home/jbigot/data/projects\l/pdi/pdi/src/pdi.cxx">
<polygon fill="#ffffff" stroke="#000000" points="0,-.5 0,-30.5 138,-30.5 138,-.5 0,-.5"/>
<text text-anchor="start" x="8" y="-18.5" font-family="Helvetica,sans-Serif" font-size="10.00" fill="#000000">/home/jbigot/data/projects</text>
<text text-anchor="middle" x="69" y="-7.5" font-family="Helvetica,sans-Serif" font-size="10.00" fill="#000000">/pdi/pdi/src/pdi.cxx</text>
</a>
</g>
</g>
<!-- Node9&#45;&gt;Node14 -->
<g id="edge9" class="edge">
<title>Node9&#45;&gt;Node14</title>
<path fill="none" stroke="#191970" d="M245.3297,-128.8548C200.2445,-99.8714 129.0687,-54.1156 92.4613,-30.5822"/>
<polygon fill="#191970" stroke="#191970" points="243.6764,-131.9528 253.9809,-134.4163 247.4618,-126.0645 243.6764,-131.9528"/>
</g>
<!-- Node11 -->
<g id="node4" class="node">
<title>Node11</title>
<g id="a_node4"><a xlink:href="context_8cxx.html" target="_top" xlink:title="/home/jbigot/data/projects\l/pdi/pdi/src/context.cxx">
<polygon fill="#ffffff" stroke="#000000" points="156,-.5 156,-30.5 294,-30.5 294,-.5 156,-.5"/>
<text text-anchor="start" x="164" y="-18.5" font-family="Helvetica,sans-Serif" font-size="10.00" fill="#000000">/home/jbigot/data/projects</text>
<text text-anchor="middle" x="225" y="-7.5" font-family="Helvetica,sans-Serif" font-size="10.00" fill="#000000">/pdi/pdi/src/context.cxx</text>
</a>
</g>
</g>
<!-- Node10&#45;&gt;Node11 -->
<g id="edge3" class="edge">
<title>Node10&#45;&gt;Node11</title>
<path fill="none" stroke="#191970" d="M265.1858,-59.6385C256.4699,-50.0653 246.5765,-39.1987 238.7871,-30.6432"/>
<polygon fill="#191970" stroke="#191970" points="262.8379,-62.2585 272.1582,-67.2967 268.014,-57.5459 262.8379,-62.2585"/>
</g>
<!-- Node10&#45;&gt;Node12 -->
<g id="edge4" class="edge">
<title>Node10&#45;&gt;Node12</title>
<path fill="none" stroke="#191970" d="M355.1326,-64.955C397.1787,-54.2842 450.328,-40.7955 490.4948,-30.6017"/>
<polygon fill="#191970" stroke="#191970" points="354.0785,-61.6115 345.2468,-67.4639 355.8005,-68.3964 354.0785,-61.6115"/>
</g>
<!-- Node13 -->
<g id="node6" class="node">
<title>Node13</title>
<g id="a_node6"><a xlink:href="expression_8cxx.html" target="_top" xlink:title="/home/jbigot/data/projects\l/pdi/pdi/src/expression.cxx">
<polygon fill="#ffffff" stroke="#000000" points="709.5,-.5 709.5,-30.5 850.5,-30.5 850.5,-.5 709.5,-.5"/>
<text text-anchor="start" x="717.5" y="-18.5" font-family="Helvetica,sans-Serif" font-size="10.00" fill="#000000">/home/jbigot/data/projects</text>
<text text-anchor="middle" x="780" y="-7.5" font-family="Helvetica,sans-Serif" font-size="10.00" fill="#000000">/pdi/pdi/src/expression.cxx</text>
</a>
</g>
</g>
<!-- Node10&#45;&gt;Node13 -->
<g id="edge5" class="edge">
<title>Node10&#45;&gt;Node13</title>
<path fill="none" stroke="#191970" d="M370.9574,-70.9774C466.5863,-58.0075 620.2145,-37.1713 709.4782,-25.0647"/>
<polygon fill="#191970" stroke="#191970" points="370.4668,-67.5118 361.028,-72.3241 371.4077,-74.4483 370.4668,-67.5118"/>
</g>
<!-- Node10&#45;&gt;Node14 -->
<g id="edge6" class="edge">
<title>Node10&#45;&gt;Node14</title>
<path fill="none" stroke="#191970" d="M227.4175,-64.4123C193.1429,-53.8298 150.3701,-40.6235 117.9114,-30.6017"/>
<polygon fill="#191970" stroke="#191970" points="226.7135,-67.8579 237.301,-67.4639 228.7786,-61.1695 226.7135,-67.8579"/>
</g>
<!-- Node15 -->
<g id="node8" class="node">
<title>Node15</title>
<g id="a_node8"><a xlink:href="plugin_8cxx.html" target="_top" xlink:title="/home/jbigot/data/projects\l/pdi/pdi/src/plugin.cxx">
<polygon fill="#ffffff" stroke="#000000" points="312,-.5 312,-30.5 450,-30.5 450,-.5 312,-.5"/>
<text text-anchor="start" x="320" y="-18.5" font-family="Helvetica,sans-Serif" font-size="10.00" fill="#000000">/home/jbigot/data/projects</text>
<text text-anchor="middle" x="381" y="-7.5" font-family="Helvetica,sans-Serif" font-size="10.00" fill="#000000">/pdi/pdi/src/plugin.cxx</text>
</a>
</g>
</g>
<!-- Node10&#45;&gt;Node15 -->
<g id="edge7" class="edge">
<title>Node10&#45;&gt;Node15</title>
<path fill="none" stroke="#191970" d="M315.9932,-61.3469C330.1288,-51.3776 346.6695,-39.7121 359.5283,-30.6432"/>
<polygon fill="#191970" stroke="#191970" points="313.7118,-58.6729 307.557,-67.2967 317.7463,-64.3934 313.7118,-58.6729"/>
</g>
<!-- Node16&#45;&gt;Node12 -->
<g id="edge41" class="edge">
<title>Node16&#45;&gt;Node12</title>
<path fill="none" stroke="#191970" d="M983.0122,-282.4342C863.2275,-264.4771 658.8881,-227.2517 605,-176 562.9532,-136.0103 553.0493,-62.5226 550.7175,-30.7735"/>
<polygon fill="#191970" stroke="#191970" points="982.8592,-285.9497 993.2645,-283.9551 983.8864,-279.0255 982.8592,-285.9497"/>
</g>
<!-- Node16&#45;&gt;Node13 -->
<g id="edge43" class="edge">
<title>Node16&#45;&gt;Node13</title>
<path fill="none" stroke="#191970" d="M1160.6095,-287.6142C1346.5959,-270.1033 1749.4935,-214.3422 1611,-67 1585.121,-39.4676 1046.9827,-22.5505 850.7782,-17.2784"/>
<polygon fill="#191970" stroke="#191970" points="1160.2041,-284.1367 1150.5687,-288.5422 1160.8484,-291.1069 1160.2041,-284.1367"/>
</g>
<!-- Node16&#45;&gt;Node14 -->
<g id="edge44" class="edge">
<title>Node16&#45;&gt;Node14</title>
<path fill="none" stroke="#191970" d="M983.3813,-290.635C819.2362,-283.06 473.8883,-265.0604 356,-243 256.3678,-224.3559 217.5711,-238.7902 138,-176 90.8561,-138.7983 75.3617,-63.131 70.7608,-30.7538"/>
<polygon fill="#191970" stroke="#191970" points="983.2995,-294.1349 993.4495,-291.0971 983.6205,-287.1422 983.2995,-294.1349"/>
</g>
<!-- Node17 -->
<g id="node10" class="node">
<title>Node17</title>
<g id="a_node10"><a xlink:href="array__datatype_8h.html" target="_top" xlink:title="/home/jbigot/data/projects\l/pdi/pdi/include/pdi/array\l_datatype.h">
<polygon fill="#ffffff" stroke="#000000" points="1258,-134.5 1258,-175.5 1396,-175.5 1396,-134.5 1258,-134.5"/>
<text text-anchor="start" x="1266" y="-163.5" font-family="Helvetica,sans-Serif" font-size="10.00" fill="#000000">/home/jbigot/data/projects</text>
<text text-anchor="start" x="1266" y="-152.5" font-family="Helvetica,sans-Serif" font-size="10.00" fill="#000000">/pdi/pdi/include/pdi/array</text>
<text text-anchor="middle" x="1327" y="-141.5" font-family="Helvetica,sans-Serif" font-size="10.00" fill="#000000">_datatype.h</text>
</a>
</g>
</g>
<!-- Node16&#45;&gt;Node17 -->
<g id="edge11" class="edge">
<title>Node16&#45;&gt;Node17</title>
<path fill="none" stroke="#191970" d="M1083.0039,-270.2893C1092.6239,-251.7418 1108.2954,-226.883 1129,-212 1166.7593,-184.8577 1217.2283,-170.583 1257.7615,-163.1065"/>
<polygon fill="#191970" stroke="#191970" points="1079.8298,-268.8121 1078.5302,-279.3269 1086.1033,-271.9175 1079.8298,-268.8121"/>
</g>
<!-- Node20 -->
<g id="node13" class="node">
<title>Node20</title>
<g id="a_node13"><a xlink:href="ref__any_8cxx.html" target="_top" xlink:title="/home/jbigot/data/projects\l/pdi/pdi/src/ref_any.cxx">
<polygon fill="#ffffff" stroke="#000000" points="1464,-67.5 1464,-97.5 1602,-97.5 1602,-67.5 1464,-67.5"/>
<text text-anchor="start" x="1472" y="-85.5" font-family="Helvetica,sans-Serif" font-size="10.00" fill="#000000">/home/jbigot/data/projects</text>
<text text-anchor="middle" x="1533" y="-74.5" font-family="Helvetica,sans-Serif" font-size="10.00" fill="#000000">/pdi/pdi/src/ref_any.cxx</text>
</a>
</g>
</g>
<!-- Node16&#45;&gt;Node20 -->
<g id="edge45" class="edge">
<title>Node16&#45;&gt;Node20</title>
<path fill="none" stroke="#191970" d="M1160.6979,-283.3899C1243.071,-269.4953 1365.9188,-239.3286 1454,-176 1484.3676,-154.1663 1510.3196,-118.1606 1523.574,-97.7892"/>
<polygon fill="#191970" stroke="#191970" points="1159.9091,-279.9724 1150.6074,-285.0448 1161.0421,-286.8801 1159.9091,-279.9724"/>
</g>
<!-- Node21 -->
<g id="node14" class="node">
<title>Node21</title>
<g id="a_node14"><a xlink:href="record__datatype_8h.html" target="_top" xlink:title="/home/jbigot/data/projects\l/pdi/pdi/include/pdi/record\l_datatype.h">
<polygon fill="#ffffff" stroke="#000000" points="1035,-134.5 1035,-175.5 1173,-175.5 1173,-134.5 1035,-134.5"/>
<text text-anchor="start" x="1043" y="-163.5" font-family="Helvetica,sans-Serif" font-size="10.00" fill="#000000">/home/jbigot/data/projects</text>
<text text-anchor="start" x="1043" y="-152.5" font-family="Helvetica,sans-Serif" font-size="10.00" fill="#000000">/pdi/pdi/include/pdi/record</text>
<text text-anchor="middle" x="1104" y="-141.5" font-family="Helvetica,sans-Serif" font-size="10.00" fill="#000000">_datatype.h</text>
</a>
</g>
</g>
<!-- Node16&#45;&gt;Node21 -->
<g id="edge16" class="edge">
<title>Node16&#45;&gt;Node21</title>
<path fill="none" stroke="#191970" d="M1077.733,-269.5077C1083.886,-242.6844 1093.546,-200.5728 1099.2778,-175.586"/>
<polygon fill="#191970" stroke="#191970" points="1074.31,-268.7761 1075.4855,-279.3055 1081.1328,-270.3412 1074.31,-268.7761"/>
</g>
<!-- Node23 -->
<g id="node16" class="node">
<title>Node23</title>
<g id="a_node16"><a xlink:href="ref__any_8h.html" target="_top" xlink:title="/home/jbigot/data/projects\l/pdi/pdi/include/pdi/ref_any.h">
<polygon fill="#ffffff" stroke="#000000" points="365,-212.5 365,-242.5 517,-242.5 517,-212.5 365,-212.5"/>
<text text-anchor="start" x="373" y="-230.5" font-family="Helvetica,sans-Serif" font-size="10.00" fill="#000000">/home/jbigot/data/projects</text>
<text text-anchor="middle" x="441" y="-219.5" font-family="Helvetica,sans-Serif" font-size="10.00" fill="#000000">/pdi/pdi/include/pdi/ref_any.h</text>
</a>
</g>
</g>
<!-- Node16&#45;&gt;Node23 -->
<g id="edge20" class="edge">
<title>Node16&#45;&gt;Node23</title>
<path fill="none" stroke="#191970" d="M983.0179,-286.6132C879.9185,-277.2486 704.9829,-260.6606 555,-243 542.8004,-241.5635 529.8831,-239.9226 517.297,-238.2585"/>
<polygon fill="#191970" stroke="#191970" points="982.7998,-290.1077 993.0748,-287.5244 983.4315,-283.1362 982.7998,-290.1077"/>
</g>
<!-- Node26 -->
<g id="node19" class="node">
<title>Node26</title>
<g id="a_node19"><a xlink:href="scalar__datatype_8h.html" target="_top" xlink:title="/home/jbigot/data/projects\l/pdi/pdi/include/pdi/scalar\l_datatype.h">
<polygon fill="#ffffff" stroke="#000000" points="614,-134.5 614,-175.5 752,-175.5 752,-134.5 614,-134.5"/>
<text text-anchor="start" x="622" y="-163.5" font-family="Helvetica,sans-Serif" font-size="10.00" fill="#000000">/home/jbigot/data/projects</text>
<text text-anchor="start" x="622" y="-152.5" font-family="Helvetica,sans-Serif" font-size="10.00" fill="#000000">/pdi/pdi/include/pdi/scalar</text>
<text text-anchor="middle" x="683" y="-141.5" font-family="Helvetica,sans-Serif" font-size="10.00" fill="#000000">_datatype.h</text>
</a>
</g>
</g>
<!-- Node16&#45;&gt;Node26 -->
<g id="edge35" class="edge">
<title>Node16&#45;&gt;Node26</title>
<path fill="none" stroke="#191970" d="M1020.1459,-275.9045C947.4432,-249.8325 815.676,-202.5792 740.1995,-175.5124"/>
<polygon fill="#191970" stroke="#191970" points="1019.4061,-279.3574 1030.0006,-279.4385 1021.769,-272.7683 1019.4061,-279.3574"/>
</g>
<!-- Node27 -->
<g id="node20" class="node">
<title>Node27</title>
<g id="a_node20"><a xlink:href="datatype_8cxx.html" target="_top" xlink:title="/home/jbigot/data/projects\l/pdi/pdi/src/datatype.cxx">
<polygon fill="#ffffff" stroke="#000000" points="1138,-212.5 1138,-242.5 1276,-242.5 1276,-212.5 1138,-212.5"/>
<text text-anchor="start" x="1146" y="-230.5" font-family="Helvetica,sans-Serif" font-size="10.00" fill="#000000">/home/jbigot/data/projects</text>
<text text-anchor="middle" x="1207" y="-219.5" font-family="Helvetica,sans-Serif" font-size="10.00" fill="#000000">/pdi/pdi/src/datatype.cxx</text>
</a>
</g>
</g>
<!-- Node16&#45;&gt;Node27 -->
<g id="edge42" class="edge">
<title>Node16&#45;&gt;Node27</title>
<path fill="none" stroke="#191970" d="M1111.466,-274.9132C1132.1555,-264.645 1157.1182,-252.2561 1176.3374,-242.7177"/>
<polygon fill="#191970" stroke="#191970" points="1109.6982,-271.8831 1102.2966,-279.4639 1112.8101,-278.1534 1109.6982,-271.8831"/>
</g>
<!-- Node17&#45;&gt;Node13 -->
<g id="edge14" class="edge">
<title>Node17&#45;&gt;Node13</title>
<path fill="none" stroke="#191970" d="M1381.0253,-129.5457C1410.4641,-112.3397 1437.1608,-88.8565 1417,-67 1398.0052,-46.4076 1012.3779,-26.2477 850.5365,-18.6589"/>
<polygon fill="#191970" stroke="#191970" points="1379.2839,-126.5094 1372.2697,-134.4499 1382.7047,-132.6167 1379.2839,-126.5094"/>
</g>
<!-- Node18 -->
<g id="node11" class="node">
<title>Node18</title>
<g id="a_node11"><a xlink:href="array__datatype_8cxx.html" target="_top" xlink:title="/home/jbigot/data/projects\l/pdi/pdi/src/array_datatype.cxx">
<polygon fill="#ffffff" stroke="#000000" points="1246.5,-67.5 1246.5,-97.5 1407.5,-97.5 1407.5,-67.5 1246.5,-67.5"/>
<text text-anchor="start" x="1254.5" y="-85.5" font-family="Helvetica,sans-Serif" font-size="10.00" fill="#000000">/home/jbigot/data/projects</text>
<text text-anchor="middle" x="1327" y="-74.5" font-family="Helvetica,sans-Serif" font-size="10.00" fill="#000000">/pdi/pdi/src/array_datatype.cxx</text>
</a>
</g>
</g>
<!-- Node17&#45;&gt;Node18 -->
<g id="edge12" class="edge">
<title>Node17&#45;&gt;Node18</title>
<path fill="none" stroke="#191970" d="M1327,-124.3279C1327,-115.0871 1327,-105.3508 1327,-97.5991"/>
<polygon fill="#191970" stroke="#191970" points="1323.5001,-124.4183 1327,-134.4183 1330.5001,-124.4184 1323.5001,-124.4183"/>
</g>
<!-- Node17&#45;&gt;Node19 -->
<g id="edge13" class="edge">
<title>Node17&#45;&gt;Node19</title>
<path fill="none" stroke="#191970" d="M1247.9054,-139.5851C1184.219,-127.1731 1095.216,-109.827 1032.0733,-97.521"/>
<polygon fill="#191970" stroke="#191970" points="1247.4166,-143.0556 1257.9015,-141.5332 1248.7557,-136.1848 1247.4166,-143.0556"/>
</g>
<!-- Node17&#45;&gt;Node20 -->
<g id="edge15" class="edge">
<title>Node17&#45;&gt;Node20</title>
<path fill="none" stroke="#191970" d="M1395.0353,-131.0555C1426.3794,-120.0242 1462.625,-107.2679 1490.0977,-97.5991"/>
<polygon fill="#191970" stroke="#191970" points="1393.7512,-127.797 1385.4803,-134.4183 1396.0751,-134.4 1393.7512,-127.797"/>
</g>
<!-- Node21&#45;&gt;Node19 -->
<g id="edge17" class="edge">
<title>Node21&#45;&gt;Node19</title>
<path fill="none" stroke="#191970" d="M1052.4325,-129.9084C1030.3183,-119.1482 1005.2171,-106.9345 986.0313,-97.5991"/>
<polygon fill="#191970" stroke="#191970" points="1051.1777,-133.1902 1061.7011,-134.4183 1054.2405,-126.8958 1051.1777,-133.1902"/>
</g>
<!-- Node21&#45;&gt;Node20 -->
<g id="edge19" class="edge">
<title>Node21&#45;&gt;Node20</title>
<path fill="none" stroke="#191970" d="M1183.4849,-141.5672C1263.9398,-127.9706 1387.0983,-107.157 1463.6967,-94.2121"/>
<polygon fill="#191970" stroke="#191970" points="1182.68,-138.1535 1173.4031,-143.271 1183.8465,-145.0557 1182.68,-138.1535"/>
</g>
<!-- Node22 -->
<g id="node15" class="node">
<title>Node22</title>
<g id="a_node15"><a xlink:href="record__datatype_8cxx.html" target="_top" xlink:title="/home/jbigot/data/projects\l/pdi/pdi/src/record_datatype.cxx">
<polygon fill="#ffffff" stroke="#000000" points="1061.5,-67.5 1061.5,-97.5 1228.5,-97.5 1228.5,-67.5 1061.5,-67.5"/>
<text text-anchor="start" x="1069.5" y="-85.5" font-family="Helvetica,sans-Serif" font-size="10.00" fill="#000000">/home/jbigot/data/projects</text>
<text text-anchor="middle" x="1145" y="-74.5" font-family="Helvetica,sans-Serif" font-size="10.00" fill="#000000">/pdi/pdi/src/record_datatype.cxx</text>
</a>
</g>
</g>
<!-- Node21&#45;&gt;Node22 -->
<g id="edge18" class="edge">
<title>Node21&#45;&gt;Node22</title>
<path fill="none" stroke="#191970" d="M1120.673,-125.5173C1126.0957,-115.9283 1131.8889,-105.6842 1136.4612,-97.5991"/>
<polygon fill="#191970" stroke="#191970" points="1117.5153,-123.9909 1115.6393,-134.4183 1123.6085,-127.4367 1117.5153,-123.9909"/>
</g>
<!-- Node23&#45;&gt;Node9 -->
<g id="edge22" class="edge">
<title>Node23&#45;&gt;Node9</title>
<path fill="none" stroke="#191970" d="M399.6606,-208.1638C378.1055,-198.0816 351.74,-185.7494 329.8308,-175.5015"/>
<polygon fill="#191970" stroke="#191970" points="398.3429,-211.4114 408.8839,-212.478 401.3087,-205.0707 398.3429,-211.4114"/>
</g>
<!-- Node23&#45;&gt;Node10 -->
<g id="edge21" class="edge">
<title>Node23&#45;&gt;Node10</title>
<path fill="none" stroke="#191970" d="M424.8422,-204.1602C410.3226,-184.17 387.6933,-155.3196 364,-134 348.4392,-119.9982 328.7549,-107.0307 313.054,-97.6104"/>
<polygon fill="#191970" stroke="#191970" points="422.0695,-206.3 430.7325,-212.3995 427.764,-202.229 422.0695,-206.3"/>
</g>
<!-- Node23&#45;&gt;Node11 -->
<g id="edge29" class="edge">
<title>Node23&#45;&gt;Node11</title>
<path fill="none" stroke="#191970" d="M354.76,-219.1381C296.6653,-211.5876 227.2569,-198.178 208,-176 171.809,-134.3193 201.3852,-61.7432 216.9404,-30.504"/>
<polygon fill="#191970" stroke="#191970" points="354.3585,-222.6151 364.7171,-220.3903 355.232,-215.6698 354.3585,-222.6151"/>
</g>
<!-- Node23&#45;&gt;Node12 -->
<g id="edge30" class="edge">
<title>Node23&#45;&gt;Node12</title>
<path fill="none" stroke="#191970" d="M444.0561,-201.8464C449.0136,-168.4638 461.2142,-109.399 489,-67 498.5721,-52.3937 513.4988,-39.6897 526.1904,-30.5537"/>
<polygon fill="#191970" stroke="#191970" points="440.5382,-201.7376 442.6405,-212.1218 447.4727,-202.693 440.5382,-201.7376"/>
</g>
<!-- Node23&#45;&gt;Node13 -->
<g id="edge31" class="edge">
<title>Node23&#45;&gt;Node13</title>
<path fill="none" stroke="#191970" d="M461.5358,-204.8745C493.7332,-170.6254 559.4289,-105.5374 627,-67 655.1193,-50.9629 689.0094,-38.9136 717.7392,-30.5182"/>
<polygon fill="#191970" stroke="#191970" points="458.7025,-202.7815 454.4543,-212.4874 463.8279,-207.5492 458.7025,-202.7815"/>
</g>
<!-- Node23&#45;&gt;Node14 -->
<g id="edge32" class="edge">
<title>Node23&#45;&gt;Node14</title>
<path fill="none" stroke="#191970" d="M354.6236,-216.6342C292.6149,-207.5941 215.358,-193.4126 188,-176 130.0583,-139.1216 90.5587,-63.2775 75.6346,-30.8036"/>
<polygon fill="#191970" stroke="#191970" points="354.4314,-220.1423 364.8267,-218.0959 355.4241,-213.2131 354.4314,-220.1423"/>
</g>
<!-- Node23&#45;&gt;Node15 -->
<g id="edge33" class="edge">
<title>Node23&#45;&gt;Node15</title>
<path fill="none" stroke="#191970" d="M433.9335,-202.5318C421.3643,-158.1206 395.4849,-66.6799 385.276,-30.6084"/>
<polygon fill="#191970" stroke="#191970" points="430.5939,-203.5846 436.6849,-212.2535 437.3294,-201.6783 430.5939,-203.5846"/>
</g>
<!-- Node23&#45;&gt;Node20 -->
<g id="edge34" class="edge">
<title>Node23&#45;&gt;Node20</title>
<path fill="none" stroke="#191970" d="M527.3175,-225.6952C748.4489,-220.6747 1323.6478,-204.9722 1405,-176 1451.9235,-159.289 1496.4806,-119.4684 1518.5608,-97.5703"/>
<polygon fill="#191970" stroke="#191970" points="526.9771,-222.2019 517.0585,-225.9262 527.1348,-229.2001 526.9771,-222.2019"/>
</g>
<!-- Node24 -->
<g id="node17" class="node">
<title>Node24</title>
<g id="a_node17"><a xlink:href="expression_8h.html" target="_top" xlink:title="/home/jbigot/data/projects\l/pdi/pdi/include/pdi/expression.h">
<polygon fill="#ffffff" stroke="#000000" points="770.5,-140 770.5,-170 937.5,-170 937.5,-140 770.5,-140"/>
<text text-anchor="start" x="778.5" y="-158" font-family="Helvetica,sans-Serif" font-size="10.00" fill="#000000">/home/jbigot/data/projects</text>
<text text-anchor="middle" x="854" y="-147" font-family="Helvetica,sans-Serif" font-size="10.00" fill="#000000">/pdi/pdi/include/pdi/expression.h</text>
</a>
</g>
</g>
<!-- Node23&#45;&gt;Node24 -->
<g id="edge23" class="edge">
<title>Node23&#45;&gt;Node24</title>
<path fill="none" stroke="#191970" d="M527.3385,-215.0997C591.885,-205.4671 682.2038,-191.2215 761,-176 770.3448,-174.1948 780.1836,-172.1411 789.8229,-170.0416"/>
<polygon fill="#191970" stroke="#191970" points="526.583,-211.6735 517.2061,-216.6056 527.612,-218.5974 526.583,-211.6735"/>
</g>
<!-- Node24&#45;&gt;Node13 -->
<g id="edge26" class="edge">
<title>Node24&#45;&gt;Node13</title>
<path fill="none" stroke="#191970" d="M846.5787,-130.2091C840.6462,-112.0841 831.4403,-87.2366 820,-67 812.6457,-53.9911 802.2408,-40.7054 793.8864,-30.8869"/>
<polygon fill="#191970" stroke="#191970" points="843.2501,-131.2915 849.6084,-139.7663 849.9229,-129.1762 843.2501,-131.2915"/>
</g>
<!-- Node24&#45;&gt;Node18 -->
<g id="edge24" class="edge">
<title>Node24&#45;&gt;Node18</title>
<path fill="none" stroke="#191970" d="M947.8753,-141.7356C1025.6835,-130.5805 1139.1393,-113.9434 1238,-98 1240.7871,-97.5505 1243.6223,-97.0876 1246.485,-96.6154"/>
<polygon fill="#191970" stroke="#191970" points="947.0182,-138.3225 937.6151,-143.2044 948.0102,-145.2519 947.0182,-138.3225"/>
</g>
<!-- Node24&#45;&gt;Node19 -->
<g id="edge25" class="edge">
<title>Node24&#45;&gt;Node19</title>
<path fill="none" stroke="#191970" d="M883.0738,-134.1302C899.3799,-122.4253 919.3448,-108.0941 934.0995,-97.5028"/>
<polygon fill="#191970" stroke="#191970" points="881.01,-131.3032 874.9273,-139.978 885.092,-136.9898 881.01,-131.3032"/>
</g>
<!-- Node24&#45;&gt;Node22 -->
<g id="edge27" class="edge">
<title>Node24&#45;&gt;Node22</title>
<path fill="none" stroke="#191970" d="M924.1989,-137.5106C973.2558,-125.2885 1038.078,-109.1386 1084.7819,-97.5028"/>
<polygon fill="#191970" stroke="#191970" points="923.1526,-134.1642 914.2954,-139.978 924.8449,-140.9566 923.1526,-134.1642"/>
</g>
<!-- Node25 -->
<g id="node18" class="node">
<title>Node25</title>
<g id="a_node18"><a xlink:href="scalar__datatype_8cxx.html" target="_top" xlink:title="/home/jbigot/data/projects\l/pdi/pdi/src/scalar_datatype.cxx">
<polygon fill="#ffffff" stroke="#000000" points="645.5,-67.5 645.5,-97.5 810.5,-97.5 810.5,-67.5 645.5,-67.5"/>
<text text-anchor="start" x="653.5" y="-85.5" font-family="Helvetica,sans-Serif" font-size="10.00" fill="#000000">/home/jbigot/data/projects</text>
<text text-anchor="middle" x="728" y="-74.5" font-family="Helvetica,sans-Serif" font-size="10.00" fill="#000000">/pdi/pdi/src/scalar_datatype.cxx</text>
</a>
</g>
</g>
<!-- Node24&#45;&gt;Node25 -->
<g id="edge28" class="edge">
<title>Node24&#45;&gt;Node25</title>
<path fill="none" stroke="#191970" d="M819.1221,-134.9313C798.5334,-123.0847 772.9029,-108.337 754.0738,-97.5028"/>
<polygon fill="#191970" stroke="#191970" points="817.4796,-138.0243 827.8927,-139.978 820.9707,-131.957 817.4796,-138.0243"/>
</g>
<!-- Node26&#45;&gt;Node12 -->
<g id="edge36" class="edge">
<title>Node26&#45;&gt;Node12</title>
<path fill="none" stroke="#191970" d="M655.3634,-127.1555C646.2776,-117.9255 636.1607,-107.5663 627,-98 604.6418,-74.6517 579.1173,-47.1286 563.7962,-30.5117"/>
<polygon fill="#191970" stroke="#191970" points="652.8763,-129.6181 662.391,-134.2789 657.8595,-124.702 652.8763,-129.6181"/>
</g>
<!-- Node26&#45;&gt;Node13 -->
<g id="edge38" class="edge">
<title>Node26&#45;&gt;Node13</title>
<path fill="none" stroke="#191970" d="M652.1055,-126.4399C636.686,-108.668 623.849,-85.7141 637,-67 646.8237,-53.0208 683.3014,-40.006 716.9529,-30.5572"/>
<polygon fill="#191970" stroke="#191970" points="649.9287,-129.2412 659.2878,-134.207 655.0682,-124.4886 649.9287,-129.2412"/>
</g>
<!-- Node26&#45;&gt;Node19 -->
<g id="edge37" class="edge">
<title>Node26&#45;&gt;Node19</title>
<path fill="none" stroke="#191970" d="M762.0872,-133.9198C805.8123,-122.2651 859.1137,-108.0579 898.6002,-97.533"/>
<polygon fill="#191970" stroke="#191970" points="761.1021,-130.5601 752.3409,-136.5176 762.905,-137.3239 761.1021,-130.5601"/>
</g>
<!-- Node26&#45;&gt;Node20 -->
<g id="edge39" class="edge">
<title>Node26&#45;&gt;Node20</title>
<path fill="none" stroke="#191970" d="M762.139,-134.1827C1051.6998,-89.1339 1129.9929,-125.0208 1417,-98 1432.1713,-96.5717 1448.4096,-94.6499 1463.7874,-92.6463"/>
<polygon fill="#191970" stroke="#191970" points="761.5239,-130.7364 752.1901,-135.7493 762.6128,-137.6512 761.5239,-130.7364"/>
</g>
<!-- Node26&#45;&gt;Node25 -->
<g id="edge40" class="edge">
<title>Node26&#45;&gt;Node25</title>
<path fill="none" stroke="#191970" d="M701.1157,-125.8136C707.1202,-116.1397 713.5581,-105.7676 718.6281,-97.5991"/>
<polygon fill="#191970" stroke="#191970" points="698.0748,-124.0761 695.7748,-134.4183 704.0222,-127.7677 698.0748,-124.0761"/>
</g>
</g>
</svg>
        <g id="navigator" transform="translate(0 0)" fill="#404254">
                <rect fill="#f2f5e9" fill-opacity="0.5" stroke="#606060" stroke-width=".5" x="0" y="0" width="60" height="60"/>
                <use id="zoomplus" xlink:href="#zoomPlus" x="17" y="9" onmousedown="handleZoom(evt,'in')"/>
                <use id="zoomminus" xlink:href="#zoomMin" x="42" y="9" onmousedown="handleZoom(evt,'out')"/>
                <use id="reset" xlink:href="#resetDef" x="30" y="36" onmousedown="handleReset()"/>
                <g id="arrowUp" xlink:href="#dirArrow" transform="translate(30 24)" onmousedown="handlePan(0,-1)">
                  <use xlink:href="#rim" fill="#404040">
                        <set attributeName="fill" to="#808080" begin="arrowUp.mouseover" end="arrowUp.mouseout"/>
                  </use>
                  <path fill="none" stroke="white" stroke-width="1.5" d="M0,-3.0v7 M-2.5,-0.5L0,-3.0L2.5,-0.5"/>
                </g>
                <g id="arrowRight" xlink:href="#dirArrow" transform="rotate(90) translate(36 -43)" onmousedown="handlePan(1,0)">
                  <use xlink:href="#rim" fill="#404040">
                        <set attributeName="fill" to="#808080" begin="arrowRight.mouseover" end="arrowRight.mouseout"/>
                  </use>
                  <path fill="none" stroke="white" stroke-width="1.5" d="M0,-3.0v7 M-2.5,-0.5L0,-3.0L2.5,-0.5"/>
                </g>
                <g id="arrowDown" xlink:href="#dirArrow" transform="rotate(180) translate(-30 -48)" onmousedown="handlePan(0,1)">
                  <use xlink:href="#rim" fill="#404040">
                        <set attributeName="fill" to="#808080" begin="arrowDown.mouseover" end="arrowDown.mouseout"/>
                  </use>
                  <path fill="none" stroke="white" stroke-width="1.5" d="M0,-3.0v7 M-2.5,-0.5L0,-3.0L2.5,-0.5"/>
                </g>
                <g id="arrowLeft" xlink:href="#dirArrow" transform="rotate(270) translate(-36 17)" onmousedown="handlePan(-1,0)">
                  <use xlink:href="#rim" fill="#404040">
                        <set attributeName="fill" to="#808080" begin="arrowLeft.mouseover" end="arrowLeft.mouseout"/>
                  </use>
                  <path fill="none" stroke="white" stroke-width="1.5" d="M0,-3.0v7 M-2.5,-0.5L0,-3.0L2.5,-0.5"/>
                </g>
        </g>
        <svg viewBox="0 0 15 15" width="100%" height="30px" preserveAspectRatio="xMaxYMin meet">
         <g id="arrow_out" transform="scale(0.3 0.3)">
          <a xlink:href="datatype__template_8h__dep__incl_org.svg" target="_base">
           <rect id="button" ry="5" rx="5" y="6" x="6" height="38" width="38"
                fill="#f2f5e9" fill-opacity="0.5" stroke="#606060" stroke-width="1.0"/>
           <path id="arrow"
             d="M 11.500037,31.436501 C 11.940474,20.09759 22.043105,11.32322 32.158766,21.979434 L 37.068811,17.246167 C 37.068811,17.246167 37.088388,32 37.088388,32 L 22.160133,31.978069 C 22.160133,31.978069 26.997745,27.140456 26.997745,27.140456 C 18.528582,18.264221 13.291696,25.230495 11.500037,31.436501 z"
             style="fill:#404040;"/>
          </a>
         </g>
        </svg>
</svg>
