<?xml version="1.0" encoding="UTF-8" standalone="no"?>
<!DOCTYPE svg PUBLIC "-//W3C//DTD SVG 1.1//EN"
 "http://www.w3.org/Graphics/SVG/1.1/DTD/svg11.dtd">
<!-- Generated by graphviz version 2.40.1 (20161225.0304)
 -->
<!-- Title: /home/jbigot/data/projects/pdi/pdi/include/pdi/error.h Pages: 1 -->
<!--zoomable 318 -->
<svg id="main" version="1.1" xmlns="http://www.w3.org/2000/svg" xmlns:xlink="http://www.w3.org/1999/xlink" xml:space="preserve" onload="init(evt)">
<style type="text/css"><![CDATA[
.edge:hover path { stroke: red; }
.edge:hover polygon { stroke: red; fill: red; }
]]></style>
<script type="text/javascript"><![CDATA[
var edges = document.getElementsByTagName('g');
if (edges && edges.length) {
  for (var i=0;i<edges.length;i++) {
    if (edges[i].id.substr(0,4)=='edge') {
      edges[i].setAttribute('class','edge');
    }
  }
}
]]></script>
        <defs>
                <circle id="rim" cx="0" cy="0" r="7"/>
                <circle id="rim2" cx="0" cy="0" r="3.5"/>
                <g id="zoomPlus">
                        <use xlink:href="#rim" fill="#404040">
                                <set attributeName="fill" to="#808080" begin="zoomplus.mouseover" end="zoomplus.mouseout"/>
                        </use>
                        <path d="M-4,0h8M0,-4v8" fill="none" stroke="white" stroke-width="1.5" pointer-events="none"/>
                </g>
                <g id="zoomMin">
                        <use xlink:href="#rim" fill="#404040">
                                <set attributeName="fill" to="#808080" begin="zoomminus.mouseover" end="zoomminus.mouseout"/>
                        </use>
                        <path d="M-4,0h8" fill="none" stroke="white" stroke-width="1.5" pointer-events="none"/>
                </g>
                <g id="dirArrow">
                        <path fill="none" stroke="white" stroke-width="1.5" d="M0,-3.0v7 M-2.5,-0.5L0,-3.0L2.5,-0.5"/>
                </g>
               <g id="resetDef">
                       <use xlink:href="#rim2" fill="#404040">
                               <set attributeName="fill" to="#808080" begin="reset.mouseover" end="reset.mouseout"/>
                       </use>
               </g>
        </defs>

<script type="text/javascript">
var viewWidth = 1833;
var viewHeight = 318;
var sectionId = 'dynsection-1';
</script>
<script xlink:href="svgpan.js"/>
<svg id="graph" class="graph">
<g id="viewport">
<title>/home/jbigot/data/projects/pdi/pdi/include/pdi/error.h</title>
<polygon fill="#ffffff" stroke="transparent" points="-4,4 -4,-314 1829,-314 1829,4 -4,4"/>
<!-- Node10 -->
<g id="node1" class="node">
<title>Node10</title>
<polygon fill="#bfbfbf" stroke="#000000" points="910.5,-279.5 910.5,-309.5 1049.5,-309.5 1049.5,-279.5 910.5,-279.5"/>
<text text-anchor="start" x="918.5" y="-297.5" font-family="Helvetica,sans-Serif" font-size="10.00" fill="#000000">/home/jbigot/data/projects</text>
<text text-anchor="middle" x="980" y="-286.5" font-family="Helvetica,sans-Serif" font-size="10.00" fill="#000000">/pdi/pdi/include/pdi/error.h</text>
</g>
<!-- Node11 -->
<g id="node2" class="node">
<title>Node11</title>
<g id="a_node2"><a xlink:href="ref__any_8h.html" target="_top" xlink:title="/home/jbigot/data/projects\l/pdi/pdi/include/pdi/ref_any.h">
<polygon fill="#ffffff" stroke="#000000" points="386,-212.5 386,-242.5 538,-242.5 538,-212.5 386,-212.5"/>
<text text-anchor="start" x="394" y="-230.5" font-family="Helvetica,sans-Serif" font-size="10.00" fill="#000000">/home/jbigot/data/projects</text>
<text text-anchor="middle" x="462" y="-219.5" font-family="Helvetica,sans-Serif" font-size="10.00" fill="#000000">/pdi/pdi/include/pdi/ref_any.h</text>
</a>
</g>
</g>
<!-- Node10&#45;&gt;Node11 -->
<g id="edge1" class="edge">
<title>Node10&#45;&gt;Node11</title>
<path fill="none" stroke="#191970" d="M900.2113,-284.1798C801.6987,-271.4379 635.3297,-249.9191 538.4028,-237.3822"/>
<polygon fill="#191970" stroke="#191970" points="900.0428,-287.6871 910.4092,-285.4989 900.9408,-280.7449 900.0428,-287.6871"/>
</g>
<!-- Node13 -->
<g id="node4" class="node">
<title>Node13</title>
<g id="a_node4"><a xlink:href="context_8cxx.html" target="_top" xlink:title="/home/jbigot/data/projects\l/pdi/pdi/src/context.cxx">
<polygon fill="#ffffff" stroke="#000000" points="156,-.5 156,-30.5 294,-30.5 294,-.5 156,-.5"/>
<text text-anchor="start" x="164" y="-18.5" font-family="Helvetica,sans-Serif" font-size="10.00" fill="#000000">/home/jbigot/data/projects</text>
<text text-anchor="middle" x="225" y="-7.5" font-family="Helvetica,sans-Serif" font-size="10.00" fill="#000000">/pdi/pdi/src/context.cxx</text>
</a>
</g>
</g>
<!-- Node10&#45;&gt;Node13 -->
<g id="edge25" class="edge">
<title>Node10&#45;&gt;Node13</title>
<path fill="none" stroke="#191970" d="M900.1607,-290.1224C759.8668,-282.0231 474.7225,-263.6323 377,-243 287.337,-224.0693 235.24,-250.5877 182,-176 174.8944,-166.0453 181.0905,-80.2891 186,-67 191.0527,-53.3235 201.0308,-40.2567 209.629,-30.7072"/>
<polygon fill="#191970" stroke="#191970" points="900.2318,-293.6322 910.4159,-290.711 900.6329,-286.6437 900.2318,-293.6322"/>
</g>
<!-- Node14 -->
<g id="node5" class="node">
<title>Node14</title>
<g id="a_node5"><a xlink:href="data__descriptor_8cxx.html" target="_top" xlink:title="/home/jbigot/data/projects\l/pdi/pdi/src/data_descriptor.cxx">
<polygon fill="#ffffff" stroke="#000000" points="316,-.5 316,-30.5 480,-30.5 480,-.5 316,-.5"/>
<text text-anchor="start" x="324" y="-18.5" font-family="Helvetica,sans-Serif" font-size="10.00" fill="#000000">/home/jbigot/data/projects</text>
<text text-anchor="middle" x="398" y="-7.5" font-family="Helvetica,sans-Serif" font-size="10.00" fill="#000000">/pdi/pdi/src/data_descriptor.cxx</text>
</a>
</g>
</g>
<!-- Node10&#45;&gt;Node14 -->
<g id="edge26" class="edge">
<title>Node10&#45;&gt;Node14</title>
<path fill="none" stroke="#191970" d="M906.7825,-276.6983C875.2188,-268.0406 838.2296,-256.5585 806,-243 652.0043,-178.2164 481.6565,-70.3826 420.9888,-30.7314"/>
<polygon fill="#191970" stroke="#191970" points="906.2603,-280.1825 916.8269,-279.409 908.0843,-273.4243 906.2603,-280.1825"/>
</g>
<!-- Node15 -->
<g id="node6" class="node">
<title>Node15</title>
<g id="a_node6"><a xlink:href="expression_8cxx.html" target="_top" xlink:title="/home/jbigot/data/projects\l/pdi/pdi/src/expression.cxx">
<polygon fill="#ffffff" stroke="#000000" points="724.5,-.5 724.5,-30.5 865.5,-30.5 865.5,-.5 724.5,-.5"/>
<text text-anchor="start" x="732.5" y="-18.5" font-family="Helvetica,sans-Serif" font-size="10.00" fill="#000000">/home/jbigot/data/projects</text>
<text text-anchor="middle" x="795" y="-7.5" font-family="Helvetica,sans-Serif" font-size="10.00" fill="#000000">/pdi/pdi/src/expression.cxx</text>
</a>
</g>
</g>
<!-- Node10&#45;&gt;Node15 -->
<g id="edge29" class="edge">
<title>Node10&#45;&gt;Node15</title>
<path fill="none" stroke="#191970" d="M1059.6001,-284.9125C1222.1231,-262.4031 1566.9626,-197.9097 1446,-67 1426.5122,-45.9096 1030.0363,-25.9418 865.5561,-18.5322"/>
<polygon fill="#191970" stroke="#191970" points="1059.0727,-281.452 1049.6375,-286.2714 1060.0188,-288.3878 1059.0727,-281.452"/>
</g>
<!-- Node16 -->
<g id="node7" class="node">
<title>Node16</title>
<g id="a_node7"><a xlink:href="pdi_8cxx.html" target="_top" xlink:title="/home/jbigot/data/projects\l/pdi/pdi/src/pdi.cxx">
<polygon fill="#ffffff" stroke="#000000" points="0,-.5 0,-30.5 138,-30.5 138,-.5 0,-.5"/>
<text text-anchor="start" x="8" y="-18.5" font-family="Helvetica,sans-Serif" font-size="10.00" fill="#000000">/home/jbigot/data/projects</text>
<text text-anchor="middle" x="69" y="-7.5" font-family="Helvetica,sans-Serif" font-size="10.00" fill="#000000">/pdi/pdi/src/pdi.cxx</text>
</a>
</g>
</g>
<!-- Node10&#45;&gt;Node16 -->
<g id="edge31" class="edge">
<title>Node10&#45;&gt;Node16</title>
<path fill="none" stroke="#191970" d="M900.2826,-291.9366C716.9793,-285.6429 276.433,-268.0932 214,-243 135.3214,-211.3774 121.565,-176.7018 90,-98 80.9222,-75.3661 74.8224,-47.6365 71.6329,-30.7825"/>
<polygon fill="#191970" stroke="#191970" points="900.2853,-295.4387 910.3988,-292.2815 900.5238,-288.4427 900.2853,-295.4387"/>
</g>
<!-- Node20 -->
<g id="node11" class="node">
<title>Node20</title>
<g id="a_node11"><a xlink:href="array__datatype_8cxx.html" target="_top" xlink:title="/home/jbigot/data/projects\l/pdi/pdi/src/array_datatype.cxx">
<polygon fill="#ffffff" stroke="#000000" points="674.5,-67.5 674.5,-97.5 835.5,-97.5 835.5,-67.5 674.5,-67.5"/>
<text text-anchor="start" x="682.5" y="-85.5" font-family="Helvetica,sans-Serif" font-size="10.00" fill="#000000">/home/jbigot/data/projects</text>
<text text-anchor="middle" x="755" y="-74.5" font-family="Helvetica,sans-Serif" font-size="10.00" fill="#000000">/pdi/pdi/src/array_datatype.cxx</text>
</a>
</g>
</g>
<!-- Node10&#45;&gt;Node20 -->
<g id="edge24" class="edge">
<title>Node10&#45;&gt;Node20</title>
<path fill="none" stroke="#191970" d="M922.8695,-275.9138C876.257,-257.7787 812.3692,-225.595 776,-176 758.7827,-152.5216 755.2914,-117.45 754.8057,-97.6067"/>
<polygon fill="#191970" stroke="#191970" points="921.6513,-279.195 932.2428,-279.463 924.1302,-272.6485 921.6513,-279.195"/>
</g>
<!-- Node21 -->
<g id="node12" class="node">
<title>Node21</title>
<g id="a_node12"><a xlink:href="datatype__template_8cxx.html" target="_top" xlink:title="/home/jbigot/data/projects\l/pdi/pdi/src/datatype_template.cxx">
<polygon fill="#ffffff" stroke="#000000" points="891.5,-67.5 891.5,-97.5 1068.5,-97.5 1068.5,-67.5 891.5,-67.5"/>
<text text-anchor="start" x="899.5" y="-85.5" font-family="Helvetica,sans-Serif" font-size="10.00" fill="#000000">/home/jbigot/data/projects</text>
<text text-anchor="middle" x="980" y="-74.5" font-family="Helvetica,sans-Serif" font-size="10.00" fill="#000000">/pdi/pdi/src/datatype_template.cxx</text>
</a>
</g>
</g>
<!-- Node10&#45;&gt;Node21 -->
<g id="edge27" class="edge">
<title>Node10&#45;&gt;Node21</title>
<path fill="none" stroke="#191970" d="M980,-269.2501C980,-224.7351 980,-133.6038 980,-97.6084"/>
<polygon fill="#191970" stroke="#191970" points="976.5001,-269.2534 980,-279.2535 983.5001,-269.2535 976.5001,-269.2534"/>
</g>
<!-- Node22 -->
<g id="node13" class="node">
<title>Node22</title>
<g id="a_node13"><a xlink:href="record__datatype_8cxx.html" target="_top" xlink:title="/home/jbigot/data/projects\l/pdi/pdi/src/record_datatype.cxx">
<polygon fill="#ffffff" stroke="#000000" points="1086.5,-67.5 1086.5,-97.5 1253.5,-97.5 1253.5,-67.5 1086.5,-67.5"/>
<text text-anchor="start" x="1094.5" y="-85.5" font-family="Helvetica,sans-Serif" font-size="10.00" fill="#000000">/home/jbigot/data/projects</text>
<text text-anchor="middle" x="1170" y="-74.5" font-family="Helvetica,sans-Serif" font-size="10.00" fill="#000000">/pdi/pdi/src/record_datatype.cxx</text>
</a>
</g>
</g>
<!-- Node10&#45;&gt;Node22 -->
<g id="edge32" class="edge">
<title>Node10&#45;&gt;Node22</title>
<path fill="none" stroke="#191970" d="M1000.3983,-271.7398C1039.3992,-228.223 1123.5856,-134.2887 1156.4595,-97.6084"/>
<polygon fill="#191970" stroke="#191970" points="997.732,-269.4706 993.6643,-279.2535 1002.9449,-274.1425 997.732,-269.4706"/>
</g>
<!-- Node23 -->
<g id="node14" class="node">
<title>Node23</title>
<g id="a_node14"><a xlink:href="scalar__datatype_8cxx.html" target="_top" xlink:title="/home/jbigot/data/projects\l/pdi/pdi/src/scalar_datatype.cxx">
<polygon fill="#ffffff" stroke="#000000" points="1271.5,-67.5 1271.5,-97.5 1436.5,-97.5 1436.5,-67.5 1271.5,-67.5"/>
<text text-anchor="start" x="1279.5" y="-85.5" font-family="Helvetica,sans-Serif" font-size="10.00" fill="#000000">/home/jbigot/data/projects</text>
<text text-anchor="middle" x="1354" y="-74.5" font-family="Helvetica,sans-Serif" font-size="10.00" fill="#000000">/pdi/pdi/src/scalar_datatype.cxx</text>
</a>
</g>
</g>
<!-- Node10&#45;&gt;Node23 -->
<g id="edge33" class="edge">
<title>Node10&#45;&gt;Node23</title>
<path fill="none" stroke="#191970" d="M1015.6186,-274.3098C1090.1768,-232.0469 1261.231,-135.0856 1327.2881,-97.6415"/>
<polygon fill="#191970" stroke="#191970" points="1013.5709,-271.4472 1006.5973,-279.4234 1017.0229,-277.5369 1013.5709,-271.4472"/>
</g>
<!-- Node25 -->
<g id="node16" class="node">
<title>Node25</title>
<g id="a_node16"><a xlink:href="error_8cxx.html" target="_top" xlink:title="/home/jbigot/data/projects\l/pdi/pdi/src/error.cxx">
<polygon fill="#ffffff" stroke="#000000" points="1493,-212.5 1493,-242.5 1631,-242.5 1631,-212.5 1493,-212.5"/>
<text text-anchor="start" x="1501" y="-230.5" font-family="Helvetica,sans-Serif" font-size="10.00" fill="#000000">/home/jbigot/data/projects</text>
<text text-anchor="middle" x="1562" y="-219.5" font-family="Helvetica,sans-Serif" font-size="10.00" fill="#000000">/pdi/pdi/src/error.cxx</text>
</a>
</g>
</g>
<!-- Node10&#45;&gt;Node25 -->
<g id="edge28" class="edge">
<title>Node10&#45;&gt;Node25</title>
<path fill="none" stroke="#191970" d="M1059.8437,-288.2855C1158.5785,-280.1349 1331.6511,-264.3257 1479,-243 1483.4974,-242.3491 1488.1226,-241.6285 1492.7789,-240.8648"/>
<polygon fill="#191970" stroke="#191970" points="1059.3253,-284.8162 1049.6449,-289.122 1059.8976,-291.7928 1059.3253,-284.8162"/>
</g>
<!-- Node26 -->
<g id="node17" class="node">
<title>Node26</title>
<g id="a_node17"><a xlink:href="paraconf__wrapper_8cxx.html" target="_top" xlink:title="/home/jbigot/data/projects\l/pdi/pdi/src/paraconf_wrapper.cxx">
<polygon fill="#ffffff" stroke="#000000" points="1649,-212.5 1649,-242.5 1825,-242.5 1825,-212.5 1649,-212.5"/>
<text text-anchor="start" x="1657" y="-230.5" font-family="Helvetica,sans-Serif" font-size="10.00" fill="#000000">/home/jbigot/data/projects</text>
<text text-anchor="middle" x="1737" y="-219.5" font-family="Helvetica,sans-Serif" font-size="10.00" fill="#000000">/pdi/pdi/src/paraconf_wrapper.cxx</text>
</a>
</g>
</g>
<!-- Node10&#45;&gt;Node26 -->
<g id="edge30" class="edge">
<title>Node10&#45;&gt;Node26</title>
<path fill="none" stroke="#191970" d="M1059.7319,-290.3578C1184.0049,-283.4333 1431.3022,-267.7758 1640,-243 1642.879,-242.6582 1645.8033,-242.2935 1648.7543,-241.9103"/>
<polygon fill="#191970" stroke="#191970" points="1059.3378,-286.8742 1049.5463,-290.9211 1059.7244,-293.8635 1059.3378,-286.8742"/>
</g>
<!-- Node12 -->
<g id="node3" class="node">
<title>Node12</title>
<g id="a_node3"><a xlink:href="context_8h.html" target="_top" xlink:title="/home/jbigot/data/projects\l/pdi/pdi/include/pdi/context.h">
<polygon fill="#ffffff" stroke="#000000" points="249,-67.5 249,-97.5 399,-97.5 399,-67.5 249,-67.5"/>
<text text-anchor="start" x="257" y="-85.5" font-family="Helvetica,sans-Serif" font-size="10.00" fill="#000000">/home/jbigot/data/projects</text>
<text text-anchor="middle" x="324" y="-74.5" font-family="Helvetica,sans-Serif" font-size="10.00" fill="#000000">/pdi/pdi/include/pdi/context.h</text>
</a>
</g>
</g>
<!-- Node11&#45;&gt;Node12 -->
<g id="edge2" class="edge">
<title>Node11&#45;&gt;Node12</title>
<path fill="none" stroke="#191970" d="M433.8266,-206.0325C422.8514,-197.1824 410.4307,-186.5422 400,-176 374.6938,-150.4233 349.0852,-117.0079 335.0042,-97.8328"/>
<polygon fill="#191970" stroke="#191970" points="431.8707,-208.9485 441.8807,-212.4201 436.2204,-203.4639 431.8707,-208.9485"/>
</g>
<!-- Node11&#45;&gt;Node13 -->
<g id="edge18" class="edge">
<title>Node11&#45;&gt;Node13</title>
<path fill="none" stroke="#191970" d="M375.5497,-222.0334C308.3329,-215.7669 222.9329,-202.6835 201,-176 165.9349,-133.3399 198.6316,-61.9209 215.8844,-30.7867"/>
<polygon fill="#191970" stroke="#191970" points="375.4745,-225.5406 385.7466,-222.9455 376.0982,-218.5684 375.4745,-225.5406"/>
</g>
<!-- Node11&#45;&gt;Node14 -->
<g id="edge19" class="edge">
<title>Node11&#45;&gt;Node14</title>
<path fill="none" stroke="#191970" d="M446.6456,-203.7075C441.7086,-195.2283 436.5928,-185.4367 433,-176 427.8121,-162.3736 408.5783,-68.0982 401.0496,-30.7186"/>
<polygon fill="#191970" stroke="#191970" points="443.6814,-205.5697 451.8521,-212.3144 449.6708,-201.9465 443.6814,-205.5697"/>
</g>
<!-- Node11&#45;&gt;Node15 -->
<g id="edge20" class="edge">
<title>Node11&#45;&gt;Node15</title>
<path fill="none" stroke="#191970" d="M547.9233,-209.3685C569.602,-201.7454 591.6273,-191.0224 609,-176 650.3523,-140.2421 625.4234,-103.6358 666,-67 684.704,-50.1125 709.6332,-38.4306 732.5887,-30.5185"/>
<polygon fill="#191970" stroke="#191970" points="546.7246,-206.0785 538.3382,-212.5529 548.9316,-212.7215 546.7246,-206.0785"/>
</g>
<!-- Node11&#45;&gt;Node16 -->
<g id="edge21" class="edge">
<title>Node11&#45;&gt;Node16</title>
<path fill="none" stroke="#191970" d="M375.6167,-218.824C305.5698,-210.4855 213.489,-196.1669 182,-176 125.1798,-139.61 88.6561,-63.4988 75.0229,-30.8788"/>
<polygon fill="#191970" stroke="#191970" points="375.4433,-222.3274 385.7818,-220.0108 376.2552,-215.3746 375.4433,-222.3274"/>
</g>
<!-- Node17 -->
<g id="node8" class="node">
<title>Node17</title>
<g id="a_node8"><a xlink:href="plugin_8cxx.html" target="_top" xlink:title="/home/jbigot/data/projects\l/pdi/pdi/src/plugin.cxx">
<polygon fill="#ffffff" stroke="#000000" points="500,-.5 500,-30.5 638,-30.5 638,-.5 500,-.5"/>
<text text-anchor="start" x="508" y="-18.5" font-family="Helvetica,sans-Serif" font-size="10.00" fill="#000000">/home/jbigot/data/projects</text>
<text text-anchor="middle" x="569" y="-7.5" font-family="Helvetica,sans-Serif" font-size="10.00" fill="#000000">/pdi/pdi/src/plugin.cxx</text>
</a>
</g>
</g>
<!-- Node11&#45;&gt;Node17 -->
<g id="edge22" class="edge">
<title>Node11&#45;&gt;Node17</title>
<path fill="none" stroke="#191970" d="M547.8547,-208.8108C564.0763,-201.2968 579.0554,-190.7638 589,-176 619.5903,-130.5855 591.9739,-61.2326 577.0761,-30.7601"/>
<polygon fill="#191970" stroke="#191970" points="546.0377,-205.7789 538.1887,-212.8953 548.7624,-212.2269 546.0377,-205.7789"/>
</g>
<!-- Node18 -->
<g id="node9" class="node">
<title>Node18</title>
<g id="a_node9"><a xlink:href="data__descriptor_8h.html" target="_top" xlink:title="/home/jbigot/data/projects\l/pdi/pdi/include/pdi/data\l_descriptor.h">
<polygon fill="#ffffff" stroke="#000000" points="210,-134.5 210,-175.5 348,-175.5 348,-134.5 210,-134.5"/>
<text text-anchor="start" x="218" y="-163.5" font-family="Helvetica,sans-Serif" font-size="10.00" fill="#000000">/home/jbigot/data/projects</text>
<text text-anchor="start" x="218" y="-152.5" font-family="Helvetica,sans-Serif" font-size="10.00" fill="#000000">/pdi/pdi/include/pdi/data</text>
<text text-anchor="middle" x="279" y="-141.5" font-family="Helvetica,sans-Serif" font-size="10.00" fill="#000000">_descriptor.h</text>
</a>
</g>
</g>
<!-- Node11&#45;&gt;Node18 -->
<g id="edge8" class="edge">
<title>Node11&#45;&gt;Node18</title>
<path fill="none" stroke="#191970" d="M414.5568,-208.7042C388.8623,-198.5247 357.0796,-185.9332 330.7486,-175.5015"/>
<polygon fill="#191970" stroke="#191970" points="413.4961,-212.0486 424.0823,-212.478 416.0744,-205.5407 413.4961,-212.0486"/>
</g>
<!-- Node19 -->
<g id="node10" class="node">
<title>Node19</title>
<g id="a_node10"><a xlink:href="expression_8h.html" target="_top" xlink:title="/home/jbigot/data/projects\l/pdi/pdi/include/pdi/expression.h">
<polygon fill="#ffffff" stroke="#000000" points="784.5,-140 784.5,-170 951.5,-170 951.5,-140 784.5,-140"/>
<text text-anchor="start" x="792.5" y="-158" font-family="Helvetica,sans-Serif" font-size="10.00" fill="#000000">/home/jbigot/data/projects</text>
<text text-anchor="middle" x="868" y="-147" font-family="Helvetica,sans-Serif" font-size="10.00" fill="#000000">/pdi/pdi/include/pdi/expression.h</text>
</a>
</g>
</g>
<!-- Node11&#45;&gt;Node19 -->
<g id="edge12" class="edge">
<title>Node11&#45;&gt;Node19</title>
<path fill="none" stroke="#191970" d="M548.4318,-212.0657C618.0656,-199.6311 715.3787,-182.2538 784.2804,-169.9499"/>
<polygon fill="#191970" stroke="#191970" points="547.5945,-208.6598 538.3655,-213.8633 548.8251,-215.5508 547.5945,-208.6598"/>
</g>
<!-- Node24 -->
<g id="node15" class="node">
<title>Node24</title>
<g id="a_node15"><a xlink:href="ref__any_8cxx.html" target="_top" xlink:title="/home/jbigot/data/projects\l/pdi/pdi/src/ref_any.cxx">
<polygon fill="#ffffff" stroke="#000000" points="442,-140 442,-170 580,-170 580,-140 442,-140"/>
<text text-anchor="start" x="450" y="-158" font-family="Helvetica,sans-Serif" font-size="10.00" fill="#000000">/home/jbigot/data/projects</text>
<text text-anchor="middle" x="511" y="-147" font-family="Helvetica,sans-Serif" font-size="10.00" fill="#000000">/pdi/pdi/src/ref_any.cxx</text>
</a>
</g>
</g>
<!-- Node11&#45;&gt;Node24 -->
<g id="edge23" class="edge">
<title>Node11&#45;&gt;Node24</title>
<path fill="none" stroke="#191970" d="M477.8739,-204.013C485.4242,-192.8418 494.2273,-179.8167 500.8602,-170.0028"/>
<polygon fill="#191970" stroke="#191970" points="474.8527,-202.2329 472.1528,-212.478 480.6523,-206.1527 474.8527,-202.2329"/>
</g>
<!-- Node12&#45;&gt;Node13 -->
<g id="edge3" class="edge">
<title>Node12&#45;&gt;Node13</title>
<path fill="none" stroke="#191970" d="M293.1602,-61.6286C278.3387,-51.5979 260.9025,-39.7976 247.3757,-30.6432"/>
<polygon fill="#191970" stroke="#191970" points="291.292,-64.5904 301.5354,-67.2967 295.2153,-58.7932 291.292,-64.5904"/>
</g>
<!-- Node12&#45;&gt;Node14 -->
<g id="edge4" class="edge">
<title>Node12&#45;&gt;Node14</title>
<path fill="none" stroke="#191970" d="M348.3024,-60.4965C359.101,-50.7193 371.5418,-39.4554 381.2747,-30.6432"/>
<polygon fill="#191970" stroke="#191970" points="345.8556,-57.9903 340.7917,-67.2967 350.5539,-63.1794 345.8556,-57.9903"/>
</g>
<!-- Node12&#45;&gt;Node15 -->
<g id="edge5" class="edge">
<title>Node12&#45;&gt;Node15</title>
<path fill="none" stroke="#191970" d="M409.0756,-70.398C499.2615,-57.569 640.0657,-37.5395 724.3497,-25.55"/>
<polygon fill="#191970" stroke="#191970" points="408.5595,-66.936 399.1522,-71.8096 409.5454,-73.8663 408.5595,-66.936"/>
</g>
<!-- Node12&#45;&gt;Node16 -->
<g id="edge6" class="edge">
<title>Node12&#45;&gt;Node16</title>
<path fill="none" stroke="#191970" d="M256.967,-64.8874C216.3949,-54.2273 165.1922,-40.774 126.4766,-30.6017"/>
<polygon fill="#191970" stroke="#191970" points="256.2118,-68.3077 266.773,-67.4639 257.9907,-61.5375 256.2118,-68.3077"/>
</g>
<!-- Node12&#45;&gt;Node17 -->
<g id="edge7" class="edge">
<title>Node12&#45;&gt;Node17</title>
<path fill="none" stroke="#191970" d="M388.6516,-64.8198C427.5932,-54.1704 476.6586,-40.7525 513.7774,-30.6017"/>
<polygon fill="#191970" stroke="#191970" points="387.7053,-61.4499 378.9828,-67.4639 389.5519,-68.202 387.7053,-61.4499"/>
</g>
<!-- Node18&#45;&gt;Node12 -->
<g id="edge9" class="edge">
<title>Node18&#45;&gt;Node12</title>
<path fill="none" stroke="#191970" d="M297.1157,-125.8136C303.1202,-116.1397 309.5581,-105.7676 314.6281,-97.5991"/>
<polygon fill="#191970" stroke="#191970" points="294.0748,-124.0761 291.7748,-134.4183 300.0222,-127.7677 294.0748,-124.0761"/>
</g>
<!-- Node18&#45;&gt;Node14 -->
<g id="edge10" class="edge">
<title>Node18&#45;&gt;Node14</title>
<path fill="none" stroke="#191970" d="M251.7686,-126.2554C238.0723,-108.2262 226.8909,-85.0609 240,-67 250.6344,-52.3486 288.8142,-39.6855 324.9763,-30.5823"/>
<polygon fill="#191970" stroke="#191970" points="249.1443,-128.5762 258.1602,-134.1409 254.5823,-124.1684 249.1443,-128.5762"/>
</g>
<!-- Node18&#45;&gt;Node16 -->
<g id="edge11" class="edge">
<title>Node18&#45;&gt;Node16</title>
<path fill="none" stroke="#191970" d="M239.6416,-128.8548C196.0108,-99.8714 127.131,-54.1156 91.7044,-30.5822"/>
<polygon fill="#191970" stroke="#191970" points="237.7475,-131.7984 248.0138,-134.4163 241.6208,-125.9676 237.7475,-131.7984"/>
</g>
<!-- Node19&#45;&gt;Node15 -->
<g id="edge15" class="edge">
<title>Node19&#45;&gt;Node15</title>
<path fill="none" stroke="#191970" d="M864.9348,-129.8541C861.8894,-111.5128 856.0162,-86.5504 845,-67 837.1695,-53.1034 824.6695,-40.2284 814.1272,-30.8275"/>
<polygon fill="#191970" stroke="#191970" points="861.4809,-130.4233 866.4187,-139.7971 868.4043,-129.39 861.4809,-130.4233"/>
</g>
<!-- Node19&#45;&gt;Node20 -->
<g id="edge13" class="edge">
<title>Node19&#45;&gt;Node20</title>
<path fill="none" stroke="#191970" d="M835.9729,-134.4517C817.6388,-122.6886 795.0429,-108.1913 778.3837,-97.5028"/>
<polygon fill="#191970" stroke="#191970" points="834.2797,-137.5237 844.5863,-139.978 838.0597,-131.632 834.2797,-137.5237"/>
</g>
<!-- Node19&#45;&gt;Node21 -->
<g id="edge14" class="edge">
<title>Node19&#45;&gt;Node21</title>
<path fill="none" stroke="#191970" d="M899.7436,-134.4517C917.9156,-122.6886 940.3114,-108.1913 956.8233,-97.5028"/>
<polygon fill="#191970" stroke="#191970" points="897.6992,-131.6057 891.2065,-139.978 901.5031,-137.482 897.6992,-131.6057"/>
</g>
<!-- Node19&#45;&gt;Node22 -->
<g id="edge16" class="edge">
<title>Node19&#45;&gt;Node22</title>
<path fill="none" stroke="#191970" d="M940.5339,-137.5871C991.4828,-125.3559 1058.9351,-109.1629 1107.5056,-97.5028"/>
<polygon fill="#191970" stroke="#191970" points="939.4813,-134.2402 930.5746,-139.978 941.1154,-141.0468 939.4813,-134.2402"/>
</g>
<!-- Node19&#45;&gt;Node23 -->
<g id="edge17" class="edge">
<title>Node19&#45;&gt;Node23</title>
<path fill="none" stroke="#191970" d="M961.7636,-142.1527C1041.8611,-131.0144 1160.1126,-114.1832 1263,-98 1265.6914,-97.5767 1268.4266,-97.1412 1271.1879,-96.6971"/>
<polygon fill="#191970" stroke="#191970" points="961.1234,-138.7079 951.6999,-143.5501 962.0863,-145.6414 961.1234,-138.7079"/>
</g>
</g>
</svg>
        <g id="navigator" transform="translate(0 0)" fill="#404254">
                <rect fill="#f2f5e9" fill-opacity="0.5" stroke="#606060" stroke-width=".5" x="0" y="0" width="60" height="60"/>
                <use id="zoomplus" xlink:href="#zoomPlus" x="17" y="9" onmousedown="handleZoom(evt,'in')"/>
                <use id="zoomminus" xlink:href="#zoomMin" x="42" y="9" onmousedown="handleZoom(evt,'out')"/>
                <use id="reset" xlink:href="#resetDef" x="30" y="36" onmousedown="handleReset()"/>
                <g id="arrowUp" xlink:href="#dirArrow" transform="translate(30 24)" onmousedown="handlePan(0,-1)">
                  <use xlink:href="#rim" fill="#404040">
                        <set attributeName="fill" to="#808080" begin="arrowUp.mouseover" end="arrowUp.mouseout"/>
                  </use>
                  <path fill="none" stroke="white" stroke-width="1.5" d="M0,-3.0v7 M-2.5,-0.5L0,-3.0L2.5,-0.5"/>
                </g>
                <g id="arrowRight" xlink:href="#dirArrow" transform="rotate(90) translate(36 -43)" onmousedown="handlePan(1,0)">
                  <use xlink:href="#rim" fill="#404040">
                        <set attributeName="fill" to="#808080" begin="arrowRight.mouseover" end="arrowRight.mouseout"/>
                  </use>
                  <path fill="none" stroke="white" stroke-width="1.5" d="M0,-3.0v7 M-2.5,-0.5L0,-3.0L2.5,-0.5"/>
                </g>
                <g id="arrowDown" xlink:href="#dirArrow" transform="rotate(180) translate(-30 -48)" onmousedown="handlePan(0,1)">
                  <use xlink:href="#rim" fill="#404040">
                        <set attributeName="fill" to="#808080" begin="arrowDown.mouseover" end="arrowDown.mouseout"/>
                  </use>
                  <path fill="none" stroke="white" stroke-width="1.5" d="M0,-3.0v7 M-2.5,-0.5L0,-3.0L2.5,-0.5"/>
                </g>
                <g id="arrowLeft" xlink:href="#dirArrow" transform="rotate(270) translate(-36 17)" onmousedown="handlePan(-1,0)">
                  <use xlink:href="#rim" fill="#404040">
                        <set attributeName="fill" to="#808080" begin="arrowLeft.mouseover" end="arrowLeft.mouseout"/>
                  </use>
                  <path fill="none" stroke="white" stroke-width="1.5" d="M0,-3.0v7 M-2.5,-0.5L0,-3.0L2.5,-0.5"/>
                </g>
        </g>
        <svg viewBox="0 0 15 15" width="100%" height="30px" preserveAspectRatio="xMaxYMin meet">
         <g id="arrow_out" transform="scale(0.3 0.3)">
          <a xlink:href="error_8h__dep__incl_org.svg" target="_base">
           <rect id="button" ry="5" rx="5" y="6" x="6" height="38" width="38"
                fill="#f2f5e9" fill-opacity="0.5" stroke="#606060" stroke-width="1.0"/>
           <path id="arrow"
             d="M 11.500037,31.436501 C 11.940474,20.09759 22.043105,11.32322 32.158766,21.979434 L 37.068811,17.246167 C 37.068811,17.246167 37.088388,32 37.088388,32 L 22.160133,31.978069 C 22.160133,31.978069 26.997745,27.140456 26.997745,27.140456 C 18.528582,18.264221 13.291696,25.230495 11.500037,31.436501 z"
             style="fill:#404040;"/>
          </a>
         </g>
        </svg>
</svg>
