<?xml version="1.0" encoding="UTF-8" standalone="no"?>
<!DOCTYPE svg PUBLIC "-//W3C//DTD SVG 1.1//EN"
 "http://www.w3.org/Graphics/SVG/1.1/DTD/svg11.dtd">
<!-- Generated by graphviz version 2.40.1 (20161225.0304)
 -->
<!-- Title: /home/jbigot/data/projects/pdi/pdi/include/pdi/error.h Pages: 1 -->
<svg width="439pt" height="207pt"
 viewBox="0.00 0.00 438.50 207.00" xmlns="http://www.w3.org/2000/svg" xmlns:xlink="http://www.w3.org/1999/xlink">
<g id="graph0" class="graph" transform="scale(1 1) rotate(0) translate(4 203)">
<title>/home/jbigot/data/projects/pdi/pdi/include/pdi/error.h</title>
<polygon fill="#ffffff" stroke="transparent" points="-4,4 -4,-203 434.5,-203 434.5,4 -4,4"/>
<!-- Node0 -->
<g id="node1" class="node">
<title>Node0</title>
<polygon fill="#bfbfbf" stroke="#000000" points="57.5,-168.5 57.5,-198.5 196.5,-198.5 196.5,-168.5 57.5,-168.5"/>
<text text-anchor="start" x="65.5" y="-186.5" font-family="Helvetica,sans-Serif" font-size="10.00" fill="#000000">/home/jbigot/data/projects</text>
<text text-anchor="middle" x="127" y="-175.5" font-family="Helvetica,sans-Serif" font-size="10.00" fill="#000000">/pdi/pdi/include/pdi/error.h</text>
</g>
<!-- Node1 -->
<g id="node2" class="node">
<title>Node1</title>
<polygon fill="#ffffff" stroke="#bfbfbf" points="0,-112.5 0,-131.5 62,-131.5 62,-112.5 0,-112.5"/>
<text text-anchor="middle" x="31" y="-119.5" font-family="Helvetica,sans-Serif" font-size="10.00" fill="#000000">exception</text>
</g>
<!-- Node0&#45;&gt;Node1 -->
<g id="edge1" class="edge">
<title>Node0&#45;&gt;Node1</title>
<path fill="none" stroke="#191970" d="M103.2697,-168.2977C88.4638,-158.8127 69.4772,-146.6495 54.6807,-137.1705"/>
<polygon fill="#191970" stroke="#191970" points="56.3925,-134.1105 46.0841,-131.6633 52.6165,-140.0047 56.3925,-134.1105"/>
</g>
<!-- Node2 -->
<g id="node3" class="node">
<title>Node2</title>
<polygon fill="#ffffff" stroke="#bfbfbf" points="80.5,-112.5 80.5,-131.5 123.5,-131.5 123.5,-112.5 80.5,-112.5"/>
<text text-anchor="middle" x="102" y="-119.5" font-family="Helvetica,sans-Serif" font-size="10.00" fill="#000000">string</text>
</g>
<!-- Node0&#45;&gt;Node2 -->
<g id="edge2" class="edge">
<title>Node0&#45;&gt;Node2</title>
<path fill="none" stroke="#191970" d="M120.8202,-168.2977C117.4946,-160.1166 113.3589,-149.943 109.8121,-141.2179"/>
<polygon fill="#191970" stroke="#191970" points="113.011,-139.7927 106.0028,-131.8469 106.5263,-142.4288 113.011,-139.7927"/>
</g>
<!-- Node3 -->
<g id="node4" class="node">
<title>Node3</title>
<polygon fill="#ffffff" stroke="#bfbfbf" points="118.5,-.5 118.5,-19.5 185.5,-19.5 185.5,-.5 118.5,-.5"/>
<text text-anchor="middle" x="152" y="-7.5" font-family="Helvetica,sans-Serif" font-size="10.00" fill="#000000">paraconf.h</text>
</g>
<!-- Node0&#45;&gt;Node3 -->
<g id="edge3" class="edge">
<title>Node0&#45;&gt;Node3</title>
<path fill="none" stroke="#191970" d="M129.1749,-168.4065C133.6985,-137.0126 144.1187,-64.6961 149.1625,-29.6925"/>
<polygon fill="#191970" stroke="#191970" points="152.6348,-30.135 150.5968,-19.738 145.7063,-29.1366 152.6348,-30.135"/>
</g>
<!-- Node4 -->
<g id="node5" class="node">
<title>Node4</title>
<g id="a_node5"><a xlink:href="pdi__fwd_8h.html" target="_top" xlink:title="pdi/pdi_fwd.h">
<polygon fill="#ffffff" stroke="#000000" points="180.5,-112.5 180.5,-131.5 259.5,-131.5 259.5,-112.5 180.5,-112.5"/>
<text text-anchor="middle" x="220" y="-119.5" font-family="Helvetica,sans-Serif" font-size="10.00" fill="#000000">pdi/pdi_fwd.h</text>
</a>
</g>
</g>
<!-- Node0&#45;&gt;Node4 -->
<g id="edge4" class="edge">
<title>Node0&#45;&gt;Node4</title>
<path fill="none" stroke="#191970" d="M149.9888,-168.2977C164.1966,-158.9022 182.3785,-146.8787 196.6525,-137.4395"/>
<polygon fill="#191970" stroke="#191970" points="198.9767,-140.0986 205.3872,-131.6633 195.1155,-134.2598 198.9767,-140.0986"/>
</g>
<!-- Node5 -->
<g id="node6" class="node">
<title>Node5</title>
<polygon fill="#ffffff" stroke="#bfbfbf" points="186,-56.5 186,-75.5 240,-75.5 240,-56.5 186,-56.5"/>
<text text-anchor="middle" x="213" y="-63.5" font-family="Helvetica,sans-Serif" font-size="10.00" fill="#000000">memory</text>
</g>
<!-- Node4&#45;&gt;Node5 -->
<g id="edge5" class="edge">
<title>Node4&#45;&gt;Node5</title>
<path fill="none" stroke="#191970" d="M218.7807,-112.2455C217.8673,-104.9382 216.5868,-94.6944 215.4631,-85.7046"/>
<polygon fill="#191970" stroke="#191970" points="218.9187,-85.1313 214.2053,-75.6427 211.9728,-85.9996 218.9187,-85.1313"/>
</g>
<!-- Node6 -->
<g id="node7" class="node">
<title>Node6</title>
<g id="a_node7"><a xlink:href="pdi_8h.html" target="_top" xlink:title="pdi.h">
<polygon fill="#ffffff" stroke="#000000" points="258.5,-56.5 258.5,-75.5 297.5,-75.5 297.5,-56.5 258.5,-56.5"/>
<text text-anchor="middle" x="278" y="-63.5" font-family="Helvetica,sans-Serif" font-size="10.00" fill="#000000">pdi.h</text>
</a>
</g>
</g>
<!-- Node4&#45;&gt;Node6 -->
<g id="edge6" class="edge">
<title>Node4&#45;&gt;Node6</title>
<path fill="none" stroke="#191970" d="M230.1028,-112.2455C238.5028,-104.1352 250.6494,-92.4075 260.6084,-82.7919"/>
<polygon fill="#191970" stroke="#191970" points="263.25,-85.1066 268.0129,-75.6427 258.3878,-80.0707 263.25,-85.1066"/>
</g>
<!-- Node6&#45;&gt;Node3 -->
<g id="edge8" class="edge">
<title>Node6&#45;&gt;Node3</title>
<path fill="none" stroke="#191970" d="M258.3125,-57.25C238.1161,-48.2738 206.4095,-34.182 182.8722,-23.721"/>
<polygon fill="#191970" stroke="#191970" points="184.2198,-20.4898 173.6602,-19.6267 181.3768,-26.8865 184.2198,-20.4898"/>
</g>
<!-- Node7 -->
<g id="node8" class="node">
<title>Node7</title>
<polygon fill="#ffffff" stroke="#bfbfbf" points="203.5,-.5 203.5,-19.5 244.5,-19.5 244.5,-.5 203.5,-.5"/>
<text text-anchor="middle" x="224" y="-7.5" font-family="Helvetica,sans-Serif" font-size="10.00" fill="#000000">mpi.h</text>
</g>
<!-- Node6&#45;&gt;Node7 -->
<g id="edge7" class="edge">
<title>Node6&#45;&gt;Node7</title>
<path fill="none" stroke="#191970" d="M268.5939,-56.2455C260.8507,-48.2155 249.688,-36.6394 240.4682,-27.0781"/>
<polygon fill="#191970" stroke="#191970" points="242.7591,-24.4117 233.2983,-19.6427 237.7202,-29.2706 242.7591,-24.4117"/>
</g>
<!-- Node8 -->
<g id="node9" class="node">
<title>Node8</title>
<polygon fill="#ffffff" stroke="#bfbfbf" points="263,-.5 263,-19.5 335,-19.5 335,-.5 263,-.5"/>
<text text-anchor="middle" x="299" y="-7.5" font-family="Helvetica,sans-Serif" font-size="10.00" fill="#000000">pdi/export.h</text>
</g>
<!-- Node6&#45;&gt;Node8 -->
<g id="edge9" class="edge">
<title>Node6&#45;&gt;Node8</title>
<path fill="none" stroke="#191970" d="M281.6579,-56.2455C284.4584,-48.7776 288.409,-38.2427 291.8324,-29.1137"/>
<polygon fill="#191970" stroke="#191970" points="295.1499,-30.2349 295.384,-19.6427 288.5955,-27.777 295.1499,-30.2349"/>
</g>
<!-- Node9 -->
<g id="node10" class="node">
<title>Node9</title>
<polygon fill="#ffffff" stroke="#bfbfbf" points="353.5,-.5 353.5,-19.5 430.5,-19.5 430.5,-.5 353.5,-.5"/>
<text text-anchor="middle" x="392" y="-7.5" font-family="Helvetica,sans-Serif" font-size="10.00" fill="#000000">pdi/version.h</text>
</g>
<!-- Node6&#45;&gt;Node9 -->
<g id="edge10" class="edge">
<title>Node6&#45;&gt;Node9</title>
<path fill="none" stroke="#191970" d="M297.5973,-56.3733C315.7331,-47.4644 342.9135,-34.1127 363.4587,-24.0203"/>
<polygon fill="#191970" stroke="#191970" points="365.2261,-27.0517 372.6584,-19.5011 362.1397,-20.7688 365.2261,-27.0517"/>
</g>
</g>
</svg>
