<?xml version="1.0" encoding="UTF-8" standalone="no"?>
<!DOCTYPE svg PUBLIC "-//W3C//DTD SVG 1.1//EN"
 "http://www.w3.org/Graphics/SVG/1.1/DTD/svg11.dtd">
<!-- Generated by graphviz version 2.40.1 (20161225.0304)
 -->
<!-- Title: /home/jbigot/data/projects/pdi/pdi/src/error.cxx Pages: 1 -->
<svg width="468pt" height="263pt"
 viewBox="0.00 0.00 468.00 263.00" xmlns="http://www.w3.org/2000/svg" xmlns:xlink="http://www.w3.org/1999/xlink">
<g id="graph0" class="graph" transform="scale(1 1) rotate(0) translate(4 259)">
<title>/home/jbigot/data/projects/pdi/pdi/src/error.cxx</title>
<polygon fill="#ffffff" stroke="transparent" points="-4,4 -4,-259 464,-259 464,4 -4,4"/>
<!-- Node0 -->
<g id="node1" class="node">
<title>Node0</title>
<polygon fill="#bfbfbf" stroke="#000000" points="100.5,-224.5 100.5,-254.5 238.5,-254.5 238.5,-224.5 100.5,-224.5"/>
<text text-anchor="start" x="108.5" y="-242.5" font-family="Helvetica,sans-Serif" font-size="10.00" fill="#000000">/home/jbigot/data/projects</text>
<text text-anchor="middle" x="169.5" y="-231.5" font-family="Helvetica,sans-Serif" font-size="10.00" fill="#000000">/pdi/pdi/src/error.cxx</text>
</g>
<!-- Node1 -->
<g id="node2" class="node">
<title>Node1</title>
<polygon fill="#ffffff" stroke="#bfbfbf" points="0,-168.5 0,-187.5 53,-187.5 53,-168.5 0,-168.5"/>
<text text-anchor="middle" x="26.5" y="-175.5" font-family="Helvetica,sans-Serif" font-size="10.00" fill="#000000">config.h</text>
</g>
<!-- Node0&#45;&gt;Node1 -->
<g id="edge1" class="edge">
<title>Node0&#45;&gt;Node1</title>
<path fill="none" stroke="#191970" d="M134.5183,-224.4554C111.1816,-214.419 80.7502,-201.3314 58.137,-191.6061"/>
<polygon fill="#191970" stroke="#191970" points="59.2292,-188.2659 48.6599,-187.5303 56.4636,-194.6965 59.2292,-188.2659"/>
</g>
<!-- Node2 -->
<g id="node3" class="node">
<title>Node2</title>
<polygon fill="#ffffff" stroke="#bfbfbf" points="71,-168.5 71,-187.5 122,-187.5 122,-168.5 71,-168.5"/>
<text text-anchor="middle" x="96.5" y="-175.5" font-family="Helvetica,sans-Serif" font-size="10.00" fill="#000000">cassert</text>
</g>
<!-- Node0&#45;&gt;Node2 -->
<g id="edge2" class="edge">
<title>Node0&#45;&gt;Node2</title>
<path fill="none" stroke="#191970" d="M151.4551,-224.2977C140.6886,-215.2274 127.0149,-203.7077 116.0005,-194.4285"/>
<polygon fill="#191970" stroke="#191970" points="118.0911,-191.6132 108.1882,-187.8469 113.5809,-196.9667 118.0911,-191.6132"/>
</g>
<!-- Node3 -->
<g id="node4" class="node">
<title>Node3</title>
<polygon fill="#ffffff" stroke="#bfbfbf" points="155.5,-56.5 155.5,-75.5 209.5,-75.5 209.5,-56.5 155.5,-56.5"/>
<text text-anchor="middle" x="182.5" y="-63.5" font-family="Helvetica,sans-Serif" font-size="10.00" fill="#000000">memory</text>
</g>
<!-- Node0&#45;&gt;Node3 -->
<g id="edge3" class="edge">
<title>Node0&#45;&gt;Node3</title>
<path fill="none" stroke="#191970" d="M168.1732,-224.4904C166.3549,-200.56 163.9088,-152.3436 169.5,-112 170.7357,-103.0835 173.2581,-93.4647 175.755,-85.3395"/>
<polygon fill="#191970" stroke="#191970" points="179.1247,-86.296 178.9124,-75.7033 172.4726,-84.1164 179.1247,-86.296"/>
</g>
<!-- Node4 -->
<g id="node5" class="node">
<title>Node4</title>
<polygon fill="#ffffff" stroke="#bfbfbf" points="179,-112.5 179,-131.5 222,-131.5 222,-112.5 179,-112.5"/>
<text text-anchor="middle" x="200.5" y="-119.5" font-family="Helvetica,sans-Serif" font-size="10.00" fill="#000000">string</text>
</g>
<!-- Node0&#45;&gt;Node4 -->
<g id="edge4" class="edge">
<title>Node0&#45;&gt;Node4</title>
<path fill="none" stroke="#191970" d="M173.5527,-224.1389C179.1633,-202.873 189.2951,-164.4702 195.4092,-141.2956"/>
<polygon fill="#191970" stroke="#191970" points="198.811,-142.1215 197.9779,-131.5595 192.0426,-140.3357 198.811,-142.1215"/>
</g>
<!-- Node5 -->
<g id="node6" class="node">
<title>Node5</title>
<polygon fill="#ffffff" stroke="#bfbfbf" points="216.5,-168.5 216.5,-187.5 278.5,-187.5 278.5,-168.5 216.5,-168.5"/>
<text text-anchor="middle" x="247.5" y="-175.5" font-family="Helvetica,sans-Serif" font-size="10.00" fill="#000000">pthread.h</text>
</g>
<!-- Node0&#45;&gt;Node5 -->
<g id="edge5" class="edge">
<title>Node0&#45;&gt;Node5</title>
<path fill="none" stroke="#191970" d="M188.7809,-224.2977C200.3976,-215.1384 215.1818,-203.4816 227.0092,-194.1562"/>
<polygon fill="#191970" stroke="#191970" points="229.3256,-196.787 235.0112,-187.8469 224.9914,-191.2901 229.3256,-196.787"/>
</g>
<!-- Node6 -->
<g id="node7" class="node">
<title>Node6</title>
<g id="a_node7"><a xlink:href="error_8h.html" target="_top" xlink:title="pdi/error.h">
<polygon fill="#ffffff" stroke="#000000" points="297,-168.5 297,-187.5 362,-187.5 362,-168.5 297,-168.5"/>
<text text-anchor="middle" x="329.5" y="-175.5" font-family="Helvetica,sans-Serif" font-size="10.00" fill="#000000">pdi/error.h</text>
</a>
</g>
</g>
<!-- Node0&#45;&gt;Node6 -->
<g id="edge6" class="edge">
<title>Node0&#45;&gt;Node6</title>
<path fill="none" stroke="#191970" d="M208.6404,-224.4554C235.1026,-214.284 269.7181,-200.9787 295.1183,-191.2155"/>
<polygon fill="#191970" stroke="#191970" points="296.6272,-194.3852 304.7057,-187.5303 294.1157,-187.8512 296.6272,-194.3852"/>
</g>
<!-- Node6&#45;&gt;Node4 -->
<g id="edge8" class="edge">
<title>Node6&#45;&gt;Node4</title>
<path fill="none" stroke="#191970" d="M307.3241,-168.3733C286.5234,-159.3435 255.2083,-145.7494 231.8542,-135.6111"/>
<polygon fill="#191970" stroke="#191970" points="232.9532,-132.2727 222.3865,-131.5011 230.1657,-138.6938 232.9532,-132.2727"/>
</g>
<!-- Node7 -->
<g id="node8" class="node">
<title>Node7</title>
<polygon fill="#ffffff" stroke="#bfbfbf" points="336.5,-112.5 336.5,-131.5 398.5,-131.5 398.5,-112.5 336.5,-112.5"/>
<text text-anchor="middle" x="367.5" y="-119.5" font-family="Helvetica,sans-Serif" font-size="10.00" fill="#000000">exception</text>
</g>
<!-- Node6&#45;&gt;Node7 -->
<g id="edge7" class="edge">
<title>Node6&#45;&gt;Node7</title>
<path fill="none" stroke="#191970" d="M336.1191,-168.2455C341.4046,-160.4564 348.9541,-149.3308 355.3238,-139.9439"/>
<polygon fill="#191970" stroke="#191970" points="358.2379,-141.8827 360.9568,-131.6427 352.4455,-137.9522 358.2379,-141.8827"/>
</g>
<!-- Node8 -->
<g id="node9" class="node">
<title>Node8</title>
<polygon fill="#ffffff" stroke="#bfbfbf" points="393,-.5 393,-19.5 460,-19.5 460,-.5 393,-.5"/>
<text text-anchor="middle" x="426.5" y="-7.5" font-family="Helvetica,sans-Serif" font-size="10.00" fill="#000000">paraconf.h</text>
</g>
<!-- Node6&#45;&gt;Node8 -->
<g id="edge9" class="edge">
<title>Node6&#45;&gt;Node8</title>
<path fill="none" stroke="#191970" d="M357.7001,-168.4928C374.8543,-161.2179 395.6708,-149.4316 407.5,-132 428.5751,-100.9437 429.7096,-55.2998 428.3215,-29.55"/>
<polygon fill="#191970" stroke="#191970" points="431.8097,-29.2581 427.596,-19.5372 424.828,-29.764 431.8097,-29.2581"/>
</g>
<!-- Node9 -->
<g id="node10" class="node">
<title>Node9</title>
<g id="a_node10"><a xlink:href="pdi__fwd_8h.html" target="_top" xlink:title="pdi/pdi_fwd.h">
<polygon fill="#ffffff" stroke="#000000" points="240,-112.5 240,-131.5 319,-131.5 319,-112.5 240,-112.5"/>
<text text-anchor="middle" x="279.5" y="-119.5" font-family="Helvetica,sans-Serif" font-size="10.00" fill="#000000">pdi/pdi_fwd.h</text>
</a>
</g>
</g>
<!-- Node6&#45;&gt;Node9 -->
<g id="edge10" class="edge">
<title>Node6&#45;&gt;Node9</title>
<path fill="none" stroke="#191970" d="M320.7907,-168.2455C313.6927,-160.2958 303.4916,-148.8706 295.005,-139.3656"/>
<polygon fill="#191970" stroke="#191970" points="297.3805,-136.771 288.1095,-131.6427 292.1589,-141.4331 297.3805,-136.771"/>
</g>
<!-- Node9&#45;&gt;Node3 -->
<g id="edge11" class="edge">
<title>Node9&#45;&gt;Node3</title>
<path fill="none" stroke="#191970" d="M262.6039,-112.2455C247.582,-103.5731 225.3957,-90.7645 208.179,-80.825"/>
<polygon fill="#191970" stroke="#191970" points="209.6128,-77.6114 199.2025,-75.6427 206.1129,-83.6737 209.6128,-77.6114"/>
</g>
<!-- Node10 -->
<g id="node11" class="node">
<title>Node10</title>
<g id="a_node11"><a xlink:href="pdi_8h.html" target="_top" xlink:title="pdi.h">
<polygon fill="#ffffff" stroke="#000000" points="260,-56.5 260,-75.5 299,-75.5 299,-56.5 260,-56.5"/>
<text text-anchor="middle" x="279.5" y="-63.5" font-family="Helvetica,sans-Serif" font-size="10.00" fill="#000000">pdi.h</text>
</a>
</g>
</g>
<!-- Node9&#45;&gt;Node10 -->
<g id="edge12" class="edge">
<title>Node9&#45;&gt;Node10</title>
<path fill="none" stroke="#191970" d="M279.5,-112.2455C279.5,-104.9382 279.5,-94.6944 279.5,-85.7046"/>
<polygon fill="#191970" stroke="#191970" points="283.0001,-85.6426 279.5,-75.6427 276.0001,-85.6427 283.0001,-85.6426"/>
</g>
<!-- Node10&#45;&gt;Node8 -->
<g id="edge14" class="edge">
<title>Node10&#45;&gt;Node8</title>
<path fill="none" stroke="#191970" d="M299.0205,-58.5636C322.737,-49.5287 363.1651,-34.1276 392.1383,-23.0902"/>
<polygon fill="#191970" stroke="#191970" points="393.3852,-26.3606 401.4841,-19.5299 390.8932,-19.8192 393.3852,-26.3606"/>
</g>
<!-- Node11 -->
<g id="node12" class="node">
<title>Node11</title>
<polygon fill="#ffffff" stroke="#bfbfbf" points="148,-.5 148,-19.5 189,-19.5 189,-.5 148,-.5"/>
<text text-anchor="middle" x="168.5" y="-7.5" font-family="Helvetica,sans-Serif" font-size="10.00" fill="#000000">mpi.h</text>
</g>
<!-- Node10&#45;&gt;Node11 -->
<g id="edge13" class="edge">
<title>Node10&#45;&gt;Node11</title>
<path fill="none" stroke="#191970" d="M260.4184,-56.3733C242.7598,-47.4644 216.2947,-34.1127 196.2902,-24.0203"/>
<polygon fill="#191970" stroke="#191970" points="197.8372,-20.8806 187.3326,-19.5011 194.6842,-27.1303 197.8372,-20.8806"/>
</g>
<!-- Node12 -->
<g id="node13" class="node">
<title>Node12</title>
<polygon fill="#ffffff" stroke="#bfbfbf" points="207.5,-.5 207.5,-19.5 279.5,-19.5 279.5,-.5 207.5,-.5"/>
<text text-anchor="middle" x="243.5" y="-7.5" font-family="Helvetica,sans-Serif" font-size="10.00" fill="#000000">pdi/export.h</text>
</g>
<!-- Node10&#45;&gt;Node12 -->
<g id="edge15" class="edge">
<title>Node10&#45;&gt;Node12</title>
<path fill="none" stroke="#191970" d="M273.2293,-56.2455C268.2736,-48.5367 261.217,-37.5598 255.2224,-28.2348"/>
<polygon fill="#191970" stroke="#191970" points="258.0506,-26.1618 249.6989,-19.6427 252.1624,-29.9471 258.0506,-26.1618"/>
</g>
<!-- Node13 -->
<g id="node14" class="node">
<title>Node13</title>
<polygon fill="#ffffff" stroke="#bfbfbf" points="298,-.5 298,-19.5 375,-19.5 375,-.5 298,-.5"/>
<text text-anchor="middle" x="336.5" y="-7.5" font-family="Helvetica,sans-Serif" font-size="10.00" fill="#000000">pdi/version.h</text>
</g>
<!-- Node10&#45;&gt;Node13 -->
<g id="edge16" class="edge">
<title>Node10&#45;&gt;Node13</title>
<path fill="none" stroke="#191970" d="M289.4286,-56.2455C297.6838,-48.1352 309.6209,-36.4075 319.4082,-26.7919"/>
<polygon fill="#191970" stroke="#191970" points="322.0046,-29.1476 326.6851,-19.6427 317.0989,-24.1542 322.0046,-29.1476"/>
</g>
</g>
</svg>
