<?xml version="1.0" encoding="UTF-8" standalone="no"?>
<!DOCTYPE svg PUBLIC "-//W3C//DTD SVG 1.1//EN"
 "http://www.w3.org/Graphics/SVG/1.1/DTD/svg11.dtd">
<!-- Generated by graphviz version 2.40.1 (20161225.0304)
 -->
<!-- Title: /home/jbigot/data/projects/pdi/pdi/src/expression.cxx Pages: 1 -->
<svg width="1255pt" height="487pt"
 viewBox="0.00 0.00 1255.04 487.00" xmlns="http://www.w3.org/2000/svg" xmlns:xlink="http://www.w3.org/1999/xlink">
<g id="graph0" class="graph" transform="scale(1 1) rotate(0) translate(4 483)">
<title>/home/jbigot/data/projects/pdi/pdi/src/expression.cxx</title>
<polygon fill="#ffffff" stroke="transparent" points="-4,4 -4,-483 1251.0449,-483 1251.0449,4 -4,4"/>
<!-- Node0 -->
<g id="node1" class="node">
<title>Node0</title>
<polygon fill="#bfbfbf" stroke="#000000" points="524.5449,-448.5 524.5449,-478.5 665.5449,-478.5 665.5449,-448.5 524.5449,-448.5"/>
<text text-anchor="start" x="532.5449" y="-466.5" font-family="Helvetica,sans-Serif" font-size="10.00" fill="#000000">/home/jbigot/data/projects</text>
<text text-anchor="middle" x="595.0449" y="-455.5" font-family="Helvetica,sans-Serif" font-size="10.00" fill="#000000">/pdi/pdi/src/expression.cxx</text>
</g>
<!-- Node1 -->
<g id="node2" class="node">
<title>Node1</title>
<polygon fill="#ffffff" stroke="#bfbfbf" points="149.5449,-392.5 149.5449,-411.5 202.5449,-411.5 202.5449,-392.5 149.5449,-392.5"/>
<text text-anchor="middle" x="176.0449" y="-399.5" font-family="Helvetica,sans-Serif" font-size="10.00" fill="#000000">config.h</text>
</g>
<!-- Node0&#45;&gt;Node1 -->
<g id="edge1" class="edge">
<title>Node0&#45;&gt;Node1</title>
<path fill="none" stroke="#191970" d="M524.3276,-456.0863C448.1179,-447.5802 323.4387,-432.1662 217.0449,-412 215.6052,-411.7271 214.1402,-411.4358 212.6626,-411.1307"/>
<polygon fill="#191970" stroke="#191970" points="213.3841,-407.7057 202.8642,-408.9639 211.8726,-414.5406 213.3841,-407.7057"/>
</g>
<!-- Node2 -->
<g id="node3" class="node">
<title>Node2</title>
<polygon fill="#ffffff" stroke="#bfbfbf" points="311.5449,-224.5 311.5449,-243.5 362.5449,-243.5 362.5449,-224.5 311.5449,-224.5"/>
<text text-anchor="middle" x="337.0449" y="-231.5" font-family="Helvetica,sans-Serif" font-size="10.00" fill="#000000">cassert</text>
</g>
<!-- Node0&#45;&gt;Node2 -->
<g id="edge2" class="edge">
<title>Node0&#45;&gt;Node2</title>
<path fill="none" stroke="#191970" d="M578.1168,-448.4419C531.8058,-407.2466 403.2907,-292.9279 355.3703,-250.3011"/>
<polygon fill="#191970" stroke="#191970" points="357.6923,-247.6822 347.8943,-243.6509 353.0398,-252.9124 357.6923,-247.6822"/>
</g>
<!-- Node3 -->
<g id="node4" class="node">
<title>Node3</title>
<polygon fill="#ffffff" stroke="#bfbfbf" points="718.5449,-392.5 718.5449,-411.5 765.5449,-411.5 765.5449,-392.5 718.5449,-392.5"/>
<text text-anchor="middle" x="742.0449" y="-399.5" font-family="Helvetica,sans-Serif" font-size="10.00" fill="#000000">cctype</text>
</g>
<!-- Node0&#45;&gt;Node3 -->
<g id="edge3" class="edge">
<title>Node0&#45;&gt;Node3</title>
<path fill="none" stroke="#191970" d="M631.0051,-448.4554C655.1022,-438.374 686.558,-425.2139 709.8352,-415.4755"/>
<polygon fill="#191970" stroke="#191970" points="711.3908,-418.6187 719.2651,-411.5303 708.6891,-412.1611 711.3908,-418.6187"/>
</g>
<!-- Node4 -->
<g id="node5" class="node">
<title>Node4</title>
<polygon fill="#ffffff" stroke="#bfbfbf" points="783.5449,-392.5 783.5449,-411.5 830.5449,-411.5 830.5449,-392.5 783.5449,-392.5"/>
<text text-anchor="middle" x="807.0449" y="-399.5" font-family="Helvetica,sans-Serif" font-size="10.00" fill="#000000">cstdint</text>
</g>
<!-- Node0&#45;&gt;Node4 -->
<g id="edge4" class="edge">
<title>Node0&#45;&gt;Node4</title>
<path fill="none" stroke="#191970" d="M649.0981,-448.4035C682.5881,-438.9652 726.7197,-426.3764 773.5779,-412.3989"/>
<polygon fill="#191970" stroke="#191970" points="774.7215,-415.7101 783.2989,-409.4908 772.7152,-409.0038 774.7215,-415.7101"/>
</g>
<!-- Node5 -->
<g id="node6" class="node">
<title>Node5</title>
<polygon fill="#ffffff" stroke="#bfbfbf" points="849.0449,-392.5 849.0449,-411.5 895.0449,-411.5 895.0449,-392.5 849.0449,-392.5"/>
<text text-anchor="middle" x="872.0449" y="-399.5" font-family="Helvetica,sans-Serif" font-size="10.00" fill="#000000">cstdlib</text>
</g>
<!-- Node0&#45;&gt;Node5 -->
<g id="edge5" class="edge">
<title>Node0&#45;&gt;Node5</title>
<path fill="none" stroke="#191970" d="M665.6909,-450.5094C712.4605,-441.4785 775.3,-428.5269 838.9018,-412.1306"/>
<polygon fill="#191970" stroke="#191970" points="839.9058,-415.486 848.7007,-409.5784 838.1413,-408.712 839.9058,-415.486"/>
</g>
<!-- Node6 -->
<g id="node7" class="node">
<title>Node6</title>
<polygon fill="#ffffff" stroke="#bfbfbf" points="913.0449,-392.5 913.0449,-411.5 967.0449,-411.5 967.0449,-392.5 913.0449,-392.5"/>
<text text-anchor="middle" x="940.0449" y="-399.5" font-family="Helvetica,sans-Serif" font-size="10.00" fill="#000000">sstream</text>
</g>
<!-- Node0&#45;&gt;Node6 -->
<g id="edge6" class="edge">
<title>Node0&#45;&gt;Node6</title>
<path fill="none" stroke="#191970" d="M665.7118,-453.8953C726.3356,-445.159 816.1619,-431.0373 903.2181,-412.0054"/>
<polygon fill="#191970" stroke="#191970" points="903.9863,-415.4202 912.9952,-409.8444 902.4755,-408.5851 903.9863,-415.4202"/>
</g>
<!-- Node7 -->
<g id="node8" class="node">
<title>Node7</title>
<polygon fill="#ffffff" stroke="#bfbfbf" points="985.0449,-392.5 985.0449,-411.5 1025.0449,-411.5 1025.0449,-392.5 985.0449,-392.5"/>
<text text-anchor="middle" x="1005.0449" y="-399.5" font-family="Helvetica,sans-Serif" font-size="10.00" fill="#000000">utility</text>
</g>
<!-- Node0&#45;&gt;Node7 -->
<g id="edge7" class="edge">
<title>Node0&#45;&gt;Node7</title>
<path fill="none" stroke="#191970" d="M665.68,-458.1595C740.5657,-451.5535 862.2473,-438.1246 975.0727,-411.8427"/>
<polygon fill="#191970" stroke="#191970" points="975.9898,-415.2224 984.9139,-409.5118 974.3764,-408.4109 975.9898,-415.2224"/>
</g>
<!-- Node8 -->
<g id="node9" class="node">
<title>Node8</title>
<polygon fill="#ffffff" stroke="#bfbfbf" points="1043.0449,-392.5 1043.0449,-411.5 1089.0449,-411.5 1089.0449,-392.5 1043.0449,-392.5"/>
<text text-anchor="middle" x="1066.0449" y="-399.5" font-family="Helvetica,sans-Serif" font-size="10.00" fill="#000000">vector</text>
</g>
<!-- Node0&#45;&gt;Node8 -->
<g id="edge8" class="edge">
<title>Node0&#45;&gt;Node8</title>
<path fill="none" stroke="#191970" d="M665.6507,-459.2774C750.8115,-453.2792 898.2814,-440.002 1032.6942,-411.9601"/>
<polygon fill="#191970" stroke="#191970" points="1033.7025,-415.3243 1042.7595,-409.827 1032.2512,-408.4764 1033.7025,-415.3243"/>
</g>
<!-- Node9 -->
<g id="node10" class="node">
<title>Node9</title>
<g id="a_node10"><a xlink:href="array__datatype_8h.html" target="_top" xlink:title="pdi/array_datatype.h">
<polygon fill="#ffffff" stroke="#000000" points="29.0449,-280.5 29.0449,-299.5 143.0449,-299.5 143.0449,-280.5 29.0449,-280.5"/>
<text text-anchor="middle" x="86.0449" y="-287.5" font-family="Helvetica,sans-Serif" font-size="10.00" fill="#000000">pdi/array_datatype.h</text>
</a>
</g>
</g>
<!-- Node0&#45;&gt;Node9 -->
<g id="edge9" class="edge">
<title>Node0&#45;&gt;Node9</title>
<path fill="none" stroke="#191970" d="M524.4451,-455.6338C444.1925,-446.0863 318.5562,-429.1289 274.0449,-412 206.043,-385.8314 136.9297,-332.6654 104.7189,-306.0024"/>
<polygon fill="#191970" stroke="#191970" points="106.9069,-303.2695 96.9948,-299.5275 102.4099,-308.634 106.9069,-303.2695"/>
</g>
<!-- Node17 -->
<g id="node18" class="node">
<title>Node17</title>
<g id="a_node18"><a xlink:href="datatype_8h.html" target="_top" xlink:title="pdi/datatype.h">
<polygon fill="#ffffff" stroke="#000000" points="171.5449,-224.5 171.5449,-243.5 254.5449,-243.5 254.5449,-224.5 171.5449,-224.5"/>
<text text-anchor="middle" x="213.0449" y="-231.5" font-family="Helvetica,sans-Serif" font-size="10.00" fill="#000000">pdi/datatype.h</text>
</a>
</g>
</g>
<!-- Node0&#45;&gt;Node17 -->
<g id="edge57" class="edge">
<title>Node0&#45;&gt;Node17</title>
<path fill="none" stroke="#191970" d="M527.1767,-448.4584C493.3201,-439.8128 452.1995,-427.5579 417.0449,-412 373.6185,-392.7814 358.1151,-391.0245 326.0449,-356 300.5418,-328.1475 313.5688,-307.8335 288.0449,-280 275.9347,-266.7939 259.1753,-256.032 244.5701,-248.2471"/>
<polygon fill="#191970" stroke="#191970" points="245.8549,-244.9741 235.3541,-243.5655 242.6845,-251.215 245.8549,-244.9741"/>
</g>
<!-- Node19 -->
<g id="node20" class="node">
<title>Node19</title>
<g id="a_node20"><a xlink:href="context_8h.html" target="_top" xlink:title="pdi/context.h">
<polygon fill="#ffffff" stroke="#000000" points="623.5449,-392.5 623.5449,-411.5 700.5449,-411.5 700.5449,-392.5 623.5449,-392.5"/>
<text text-anchor="middle" x="662.0449" y="-399.5" font-family="Helvetica,sans-Serif" font-size="10.00" fill="#000000">pdi/context.h</text>
</a>
</g>
</g>
<!-- Node0&#45;&gt;Node19 -->
<g id="edge22" class="edge">
<title>Node0&#45;&gt;Node19</title>
<path fill="none" stroke="#191970" d="M611.6067,-448.2977C621.3914,-439.3163 633.7923,-427.9334 643.8492,-418.702"/>
<polygon fill="#191970" stroke="#191970" points="646.3171,-421.1876 651.3174,-411.8469 641.5836,-416.0307 646.3171,-421.1876"/>
</g>
<!-- Node27 -->
<g id="node28" class="node">
<title>Node27</title>
<g id="a_node28"><a xlink:href="ref__any_8h.html" target="_top" xlink:title="pdi/ref_any.h">
<polygon fill="#ffffff" stroke="#000000" points="485.0449,-280.5 485.0449,-299.5 563.0449,-299.5 563.0449,-280.5 485.0449,-280.5"/>
<text text-anchor="middle" x="524.0449" y="-287.5" font-family="Helvetica,sans-Serif" font-size="10.00" fill="#000000">pdi/ref_any.h</text>
</a>
</g>
</g>
<!-- Node0&#45;&gt;Node27 -->
<g id="edge52" class="edge">
<title>Node0&#45;&gt;Node27</title>
<path fill="none" stroke="#191970" d="M588.8683,-448.4065C575.9656,-416.8767 546.1712,-344.0692 531.9183,-309.24"/>
<polygon fill="#191970" stroke="#191970" points="535.0566,-307.6675 528.0299,-299.738 528.5781,-310.3187 535.0566,-307.6675"/>
</g>
<!-- Node29 -->
<g id="node30" class="node">
<title>Node29</title>
<g id="a_node30"><a xlink:href="error_8h.html" target="_top" xlink:title="pdi/error.h">
<polygon fill="#ffffff" stroke="#000000" points="511.5449,-224.5 511.5449,-243.5 576.5449,-243.5 576.5449,-224.5 511.5449,-224.5"/>
<text text-anchor="middle" x="544.0449" y="-231.5" font-family="Helvetica,sans-Serif" font-size="10.00" fill="#000000">pdi/error.h</text>
</a>
</g>
</g>
<!-- Node0&#45;&gt;Node29 -->
<g id="edge56" class="edge">
<title>Node0&#45;&gt;Node29</title>
<path fill="none" stroke="#191970" d="M595.2637,-448.2685C595.2705,-416.1915 592.8839,-339.7191 572.0449,-280 568.5984,-270.1231 562.8157,-260.0926 557.3974,-251.9295"/>
<polygon fill="#191970" stroke="#191970" points="560.1798,-249.8009 551.5788,-243.6143 554.4445,-253.8143 560.1798,-249.8009"/>
</g>
<!-- Node31 -->
<g id="node32" class="node">
<title>Node31</title>
<g id="a_node32"><a xlink:href="scalar__datatype_8h.html" target="_top" xlink:title="pdi/scalar_datatype.h">
<polygon fill="#ffffff" stroke="#000000" points="161.0449,-280.5 161.0449,-299.5 279.0449,-299.5 279.0449,-280.5 161.0449,-280.5"/>
<text text-anchor="middle" x="220.0449" y="-287.5" font-family="Helvetica,sans-Serif" font-size="10.00" fill="#000000">pdi/scalar_datatype.h</text>
</a>
</g>
</g>
<!-- Node0&#45;&gt;Node31 -->
<g id="edge53" class="edge">
<title>Node0&#45;&gt;Node31</title>
<path fill="none" stroke="#191970" d="M524.2095,-458.2503C447.0437,-451.3583 329.6932,-437.0856 293.0449,-412 283.3541,-405.3667 247.7279,-341.1719 230.0831,-308.6649"/>
<polygon fill="#191970" stroke="#191970" points="233.0674,-306.8253 225.2331,-299.6927 226.9095,-310.154 233.0674,-306.8253"/>
</g>
<!-- Node32 -->
<g id="node33" class="node">
<title>Node32</title>
<g id="a_node33"><a xlink:href="expression_8h.html" target="_top" xlink:title="pdi/expression.h">
<polygon fill="#ffffff" stroke="#000000" points="335.0449,-336.5 335.0449,-355.5 429.0449,-355.5 429.0449,-336.5 335.0449,-336.5"/>
<text text-anchor="middle" x="382.0449" y="-343.5" font-family="Helvetica,sans-Serif" font-size="10.00" fill="#000000">pdi/expression.h</text>
</a>
</g>
</g>
<!-- Node0&#45;&gt;Node32 -->
<g id="edge58" class="edge">
<title>Node0&#45;&gt;Node32</title>
<path fill="none" stroke="#191970" d="M527.4462,-448.4143C499.8568,-440.3252 468.5194,-428.5344 443.0449,-412 423.536,-399.3376 406.0645,-379.0443 394.8721,-364.2997"/>
<polygon fill="#191970" stroke="#191970" points="397.4884,-361.9488 388.7526,-355.9541 391.8434,-366.0881 397.4884,-361.9488"/>
</g>
<!-- Node10 -->
<g id="node11" class="node">
<title>Node10</title>
<g id="a_node11"><a xlink:href="pdi__fwd_8h.html" target="_top" xlink:title="pdi/pdi_fwd.h">
<polygon fill="#ffffff" stroke="#000000" points="389.5449,-112.5 389.5449,-131.5 468.5449,-131.5 468.5449,-112.5 389.5449,-112.5"/>
<text text-anchor="middle" x="429.0449" y="-119.5" font-family="Helvetica,sans-Serif" font-size="10.00" fill="#000000">pdi/pdi_fwd.h</text>
</a>
</g>
</g>
<!-- Node9&#45;&gt;Node10 -->
<g id="edge10" class="edge">
<title>Node9&#45;&gt;Node10</title>
<path fill="none" stroke="#191970" d="M91.2529,-280.4863C104.5956,-257.0976 142.4738,-196.6189 192.0449,-168 223.2702,-149.9727 319.569,-135.3997 379.3717,-127.7803"/>
<polygon fill="#191970" stroke="#191970" points="379.8772,-131.2444 389.3645,-126.5284 379.007,-124.2987 379.8772,-131.2444"/>
</g>
<!-- Node9&#45;&gt;Node17 -->
<g id="edge17" class="edge">
<title>Node9&#45;&gt;Node17</title>
<path fill="none" stroke="#191970" d="M107.877,-280.3733C128.3552,-271.3435 159.1848,-257.7494 182.1768,-247.6111"/>
<polygon fill="#191970" stroke="#191970" points="183.7599,-250.7383 191.4977,-243.5011 180.9356,-244.3333 183.7599,-250.7383"/>
</g>
<!-- Node11 -->
<g id="node12" class="node">
<title>Node11</title>
<polygon fill="#ffffff" stroke="#bfbfbf" points="597.0449,-56.5 597.0449,-75.5 651.0449,-75.5 651.0449,-56.5 597.0449,-56.5"/>
<text text-anchor="middle" x="624.0449" y="-63.5" font-family="Helvetica,sans-Serif" font-size="10.00" fill="#000000">memory</text>
</g>
<!-- Node10&#45;&gt;Node11 -->
<g id="edge11" class="edge">
<title>Node10&#45;&gt;Node11</title>
<path fill="none" stroke="#191970" d="M462.5666,-112.3733C497.156,-102.4399 550.9792,-86.983 586.8576,-76.6794"/>
<polygon fill="#191970" stroke="#191970" points="588.2768,-79.9134 596.9222,-73.7891 586.3446,-73.1854 588.2768,-79.9134"/>
</g>
<!-- Node12 -->
<g id="node13" class="node">
<title>Node12</title>
<g id="a_node13"><a xlink:href="pdi_8h.html" target="_top" xlink:title="pdi.h">
<polygon fill="#ffffff" stroke="#000000" points="501.5449,-56.5 501.5449,-75.5 540.5449,-75.5 540.5449,-56.5 501.5449,-56.5"/>
<text text-anchor="middle" x="521.0449" y="-63.5" font-family="Helvetica,sans-Serif" font-size="10.00" fill="#000000">pdi.h</text>
</a>
</g>
</g>
<!-- Node10&#45;&gt;Node12 -->
<g id="edge12" class="edge">
<title>Node10&#45;&gt;Node12</title>
<path fill="none" stroke="#191970" d="M445.0701,-112.2455C459.1857,-103.6534 479.9713,-91.0014 496.2348,-81.1018"/>
<polygon fill="#191970" stroke="#191970" points="498.4812,-83.8319 505.2034,-75.6427 494.8415,-77.8525 498.4812,-83.8319"/>
</g>
<!-- Node13 -->
<g id="node14" class="node">
<title>Node13</title>
<polygon fill="#ffffff" stroke="#bfbfbf" points="732.5449,-.5 732.5449,-19.5 773.5449,-19.5 773.5449,-.5 732.5449,-.5"/>
<text text-anchor="middle" x="753.0449" y="-7.5" font-family="Helvetica,sans-Serif" font-size="10.00" fill="#000000">mpi.h</text>
</g>
<!-- Node12&#45;&gt;Node13 -->
<g id="edge13" class="edge">
<title>Node12&#45;&gt;Node13</title>
<path fill="none" stroke="#191970" d="M540.7675,-59.9897C545.4341,-58.6258 550.4035,-57.2206 555.0449,-56 613.8511,-40.5348 683.1915,-25.0495 722.2471,-16.5768"/>
<polygon fill="#191970" stroke="#191970" points="723.3898,-19.9108 732.4258,-14.3789 721.9123,-13.0685 723.3898,-19.9108"/>
</g>
<!-- Node14 -->
<g id="node15" class="node">
<title>Node14</title>
<polygon fill="#ffffff" stroke="#bfbfbf" points="845.5449,-.5 845.5449,-19.5 912.5449,-19.5 912.5449,-.5 845.5449,-.5"/>
<text text-anchor="middle" x="879.0449" y="-7.5" font-family="Helvetica,sans-Serif" font-size="10.00" fill="#000000">paraconf.h</text>
</g>
<!-- Node12&#45;&gt;Node14 -->
<g id="edge14" class="edge">
<title>Node12&#45;&gt;Node14</title>
<path fill="none" stroke="#191970" d="M540.6967,-59.6944C545.3663,-58.3427 550.3547,-57.0171 555.0449,-56 607.6103,-44.6013 759.6613,-24.9 835.2779,-15.4134"/>
<polygon fill="#191970" stroke="#191970" points="835.9339,-18.8587 845.4222,-14.1445 835.0651,-11.9128 835.9339,-18.8587"/>
</g>
<!-- Node15 -->
<g id="node16" class="node">
<title>Node15</title>
<polygon fill="#ffffff" stroke="#bfbfbf" points="439.0449,-.5 439.0449,-19.5 511.0449,-19.5 511.0449,-.5 439.0449,-.5"/>
<text text-anchor="middle" x="475.0449" y="-7.5" font-family="Helvetica,sans-Serif" font-size="10.00" fill="#000000">pdi/export.h</text>
</g>
<!-- Node12&#45;&gt;Node15 -->
<g id="edge15" class="edge">
<title>Node12&#45;&gt;Node15</title>
<path fill="none" stroke="#191970" d="M513.0323,-56.2455C506.5681,-48.3761 497.3065,-37.101 489.5466,-27.6542"/>
<polygon fill="#191970" stroke="#191970" points="492.0177,-25.1484 482.9657,-19.6427 486.6086,-29.5916 492.0177,-25.1484"/>
</g>
<!-- Node16 -->
<g id="node17" class="node">
<title>Node16</title>
<polygon fill="#ffffff" stroke="#bfbfbf" points="529.5449,-.5 529.5449,-19.5 606.5449,-19.5 606.5449,-.5 529.5449,-.5"/>
<text text-anchor="middle" x="568.0449" y="-7.5" font-family="Helvetica,sans-Serif" font-size="10.00" fill="#000000">pdi/version.h</text>
</g>
<!-- Node12&#45;&gt;Node16 -->
<g id="edge16" class="edge">
<title>Node12&#45;&gt;Node16</title>
<path fill="none" stroke="#191970" d="M529.2317,-56.2455C535.9038,-48.2958 545.4928,-36.8706 553.4702,-27.3656"/>
<polygon fill="#191970" stroke="#191970" points="556.2041,-29.5525 559.9519,-19.6427 550.8423,-25.0524 556.2041,-29.5525"/>
</g>
<!-- Node17&#45;&gt;Node10 -->
<g id="edge18" class="edge">
<title>Node17&#45;&gt;Node10</title>
<path fill="none" stroke="#191970" d="M218.6187,-224.364C227.4596,-209.9383 246.0722,-182.8406 269.0449,-168 302.3774,-146.4668 345.978,-134.7996 379.2452,-128.6095"/>
<polygon fill="#191970" stroke="#191970" points="379.9707,-132.0358 389.2149,-126.8594 378.7603,-125.1412 379.9707,-132.0358"/>
</g>
<!-- Node18 -->
<g id="node19" class="node">
<title>Node18</title>
<g id="a_node19"><a xlink:href="datatype__template_8h.html" target="_top" xlink:title="pdi/datatype_template.h">
<polygon fill="#ffffff" stroke="#000000" points="457.0449,-168.5 457.0449,-187.5 587.0449,-187.5 587.0449,-168.5 457.0449,-168.5"/>
<text text-anchor="middle" x="522.0449" y="-175.5" font-family="Helvetica,sans-Serif" font-size="10.00" fill="#000000">pdi/datatype_template.h</text>
</a>
</g>
</g>
<!-- Node17&#45;&gt;Node18 -->
<g id="edge19" class="edge">
<title>Node17&#45;&gt;Node18</title>
<path fill="none" stroke="#191970" d="M254.718,-226.4476C307.3838,-216.903 398.5089,-200.3884 459.5296,-189.3296"/>
<polygon fill="#191970" stroke="#191970" points="460.2134,-192.7628 469.429,-187.5356 458.9651,-185.875 460.2134,-192.7628"/>
</g>
<!-- Node18&#45;&gt;Node10 -->
<g id="edge21" class="edge">
<title>Node18&#45;&gt;Node10</title>
<path fill="none" stroke="#191970" d="M505.8455,-168.2455C491.4431,-159.5731 470.1717,-146.7645 453.665,-136.825"/>
<polygon fill="#191970" stroke="#191970" points="455.4309,-133.8028 445.0586,-131.6427 451.8199,-139.7996 455.4309,-133.8028"/>
</g>
<!-- Node18&#45;&gt;Node14 -->
<g id="edge20" class="edge">
<title>Node18&#45;&gt;Node14</title>
<path fill="none" stroke="#191970" d="M524.1444,-168.4564C529.8433,-144.9995 547.944,-84.3773 588.0449,-56 607.8833,-41.9614 758.662,-23.4131 835.0197,-14.7893"/>
<polygon fill="#191970" stroke="#191970" points="835.7308,-18.2316 845.2788,-13.6398 834.9513,-11.2751 835.7308,-18.2316"/>
</g>
<!-- Node19&#45;&gt;Node10 -->
<g id="edge30" class="edge">
<title>Node19&#45;&gt;Node10</title>
<path fill="none" stroke="#191970" d="M676.6344,-392.3761C713.7674,-366.6003 806.8135,-293.2524 776.0449,-224 760.9685,-190.0667 747.5234,-184.061 714.0449,-168 673.3435,-148.4739 548.8033,-133.6506 478.5683,-126.5801"/>
<polygon fill="#191970" stroke="#191970" points="478.9127,-123.0972 468.6162,-125.5935 478.2221,-130.063 478.9127,-123.0972"/>
</g>
<!-- Node19&#45;&gt;Node11 -->
<g id="edge25" class="edge">
<title>Node19&#45;&gt;Node11</title>
<path fill="none" stroke="#191970" d="M700.7807,-393.732C703.9109,-393.1243 707.0283,-392.5391 710.0449,-392 864.0924,-364.4709 1047.0449,-446.488 1047.0449,-290 1047.0449,-290 1047.0449,-290 1047.0449,-234 1047.0449,-195.2415 1022.7775,-188.7557 990.0449,-168 883.2751,-100.2974 731.2284,-76.7968 661.5465,-69.2606"/>
<polygon fill="#191970" stroke="#191970" points="661.7901,-65.7673 651.4836,-68.2224 661.0716,-72.7303 661.7901,-65.7673"/>
</g>
<!-- Node19&#45;&gt;Node13 -->
<g id="edge23" class="edge">
<title>Node19&#45;&gt;Node13</title>
<path fill="none" stroke="#191970" d="M700.757,-393.5908C703.8925,-393.0148 707.0176,-392.4754 710.0449,-392 784.6665,-380.2826 984.9855,-397.5835 1048.0449,-356 1076.1187,-337.4872 1085.0449,-323.6283 1085.0449,-290 1085.0449,-290 1085.0449,-290 1085.0449,-234 1085.0449,-89.4532 866.1096,-31.9528 783.8168,-15.4452"/>
<polygon fill="#191970" stroke="#191970" points="784.2962,-11.973 773.813,-13.5069 782.9646,-18.8452 784.2962,-11.973"/>
</g>
<!-- Node20 -->
<g id="node21" class="node">
<title>Node20</title>
<polygon fill="#ffffff" stroke="#bfbfbf" points="1113.5449,-336.5 1113.5449,-355.5 1142.5449,-355.5 1142.5449,-336.5 1113.5449,-336.5"/>
<text text-anchor="middle" x="1128.0449" y="-343.5" font-family="Helvetica,sans-Serif" font-size="10.00" fill="#000000">list</text>
</g>
<!-- Node19&#45;&gt;Node20 -->
<g id="edge24" class="edge">
<title>Node19&#45;&gt;Node20</title>
<path fill="none" stroke="#191970" d="M700.7498,-393.5444C703.887,-392.9788 707.0144,-392.4544 710.0449,-392 881.7529,-366.2528 929.3106,-392.563 1099.0449,-356 1100.5417,-355.6776 1102.068,-355.3014 1103.5984,-354.8877"/>
<polygon fill="#191970" stroke="#191970" points="1104.9937,-358.1182 1113.4861,-351.7834 1102.8969,-351.4396 1104.9937,-358.1182"/>
</g>
<!-- Node21 -->
<g id="node22" class="node">
<title>Node21</title>
<polygon fill="#ffffff" stroke="#bfbfbf" points="939.5449,-280.5 939.5449,-299.5 980.5449,-299.5 980.5449,-280.5 939.5449,-280.5"/>
<text text-anchor="middle" x="960.0449" y="-287.5" font-family="Helvetica,sans-Serif" font-size="10.00" fill="#000000">stack</text>
</g>
<!-- Node19&#45;&gt;Node21 -->
<g id="edge26" class="edge">
<title>Node19&#45;&gt;Node21</title>
<path fill="none" stroke="#191970" d="M700.554,-393.9605C703.7642,-393.2954 706.9601,-392.635 710.0449,-392 788.6734,-375.8135 815.3948,-392.2037 887.0449,-356 910.4622,-344.1676 932.0528,-322.7822 945.582,-307.5622"/>
<polygon fill="#191970" stroke="#191970" points="948.3575,-309.7028 952.2294,-299.8408 943.0526,-305.1358 948.3575,-309.7028"/>
</g>
<!-- Node22 -->
<g id="node23" class="node">
<title>Node22</title>
<polygon fill="#ffffff" stroke="#bfbfbf" points="937.5449,-168.5 937.5449,-187.5 980.5449,-187.5 980.5449,-168.5 937.5449,-168.5"/>
<text text-anchor="middle" x="959.0449" y="-175.5" font-family="Helvetica,sans-Serif" font-size="10.00" fill="#000000">string</text>
</g>
<!-- Node19&#45;&gt;Node22 -->
<g id="edge27" class="edge">
<title>Node19&#45;&gt;Node22</title>
<path fill="none" stroke="#191970" d="M700.7965,-393.8173C703.9231,-393.1905 707.0354,-392.5776 710.0449,-392 800.8922,-374.5644 830.1181,-392.6698 915.0449,-356 953.2369,-339.5094 971.401,-337.1884 990.0449,-300 1007.2512,-265.6792 986.2428,-221.0092 971.3662,-196.3573"/>
<polygon fill="#191970" stroke="#191970" points="974.1741,-194.2489 965.8698,-187.6694 968.2585,-197.9914 974.1741,-194.2489"/>
</g>
<!-- Node23 -->
<g id="node24" class="node">
<title>Node23</title>
<polygon fill="#ffffff" stroke="#bfbfbf" points="595.0449,-224.5 595.0449,-243.5 687.0449,-243.5 687.0449,-224.5 595.0449,-224.5"/>
<text text-anchor="middle" x="641.0449" y="-231.5" font-family="Helvetica,sans-Serif" font-size="10.00" fill="#000000">unordered_map</text>
</g>
<!-- Node19&#45;&gt;Node23 -->
<g id="edge28" class="edge">
<title>Node19&#45;&gt;Node23</title>
<path fill="none" stroke="#191970" d="M660.8557,-392.4862C657.5361,-365.9293 648.1155,-290.5651 643.5656,-254.1655"/>
<polygon fill="#191970" stroke="#191970" points="646.9868,-253.3165 642.2734,-243.8279 640.0408,-254.1848 646.9868,-253.3165"/>
</g>
<!-- Node24 -->
<g id="node25" class="node">
<title>Node24</title>
<polygon fill="#ffffff" stroke="#bfbfbf" points="1161.0449,-336.5 1161.0449,-355.5 1247.0449,-355.5 1247.0449,-336.5 1161.0449,-336.5"/>
<text text-anchor="middle" x="1204.0449" y="-343.5" font-family="Helvetica,sans-Serif" font-size="10.00" fill="#000000">unordered_set</text>
</g>
<!-- Node19&#45;&gt;Node24 -->
<g id="edge29" class="edge">
<title>Node19&#45;&gt;Node24</title>
<path fill="none" stroke="#191970" d="M700.7444,-393.5075C703.8827,-392.9501 707.0119,-392.4377 710.0449,-392 901.8802,-364.314 955.0058,-382.0384 1150.9282,-356.0126"/>
<polygon fill="#191970" stroke="#191970" points="1151.5323,-359.4629 1160.9742,-354.6567 1150.5959,-352.5258 1151.5323,-359.4629"/>
</g>
<!-- Node25 -->
<g id="node26" class="node">
<title>Node25</title>
<g id="a_node26"><a xlink:href="data__descriptor_8h.html" target="_top" xlink:title="pdi/data_descriptor.h">
<polygon fill="#ffffff" stroke="#000000" points="762.0449,-336.5 762.0449,-355.5 878.0449,-355.5 878.0449,-336.5 762.0449,-336.5"/>
<text text-anchor="middle" x="820.0449" y="-343.5" font-family="Helvetica,sans-Serif" font-size="10.00" fill="#000000">pdi/data_descriptor.h</text>
</a>
</g>
</g>
<!-- Node19&#45;&gt;Node25 -->
<g id="edge31" class="edge">
<title>Node19&#45;&gt;Node25</title>
<path fill="none" stroke="#191970" d="M689.2061,-392.3733C715.2516,-383.1419 754.7565,-369.1402 783.5428,-358.9375"/>
<polygon fill="#191970" stroke="#191970" points="784.9819,-362.1408 793.2382,-355.5011 782.6434,-355.5429 784.9819,-362.1408"/>
</g>
<!-- Node19&#45;&gt;Node27 -->
<g id="edge51" class="edge">
<title>Node19&#45;&gt;Node27</title>
<path fill="none" stroke="#191970" d="M650.2791,-392.4509C626.5494,-373.1921 572.7415,-329.5218 543.628,-305.8935"/>
<polygon fill="#191970" stroke="#191970" points="545.7511,-303.109 535.7809,-299.5249 541.3399,-308.5442 545.7511,-303.109"/>
</g>
<!-- Node25&#45;&gt;Node10 -->
<g id="edge36" class="edge">
<title>Node25&#45;&gt;Node10</title>
<path fill="none" stroke="#191970" d="M825.5173,-336.3732C836.6096,-315.5854 859.6602,-265.0579 847.0449,-224 838.2108,-195.2485 834.7259,-183.6581 809.0449,-168 754.7397,-134.8893 569.1841,-125.5757 479.0225,-122.9838"/>
<polygon fill="#191970" stroke="#191970" points="478.8668,-119.4784 468.7757,-122.7065 478.6773,-126.4758 478.8668,-119.4784"/>
</g>
<!-- Node25&#45;&gt;Node11 -->
<g id="edge33" class="edge">
<title>Node25&#45;&gt;Node11</title>
<path fill="none" stroke="#191970" d="M831.2239,-336.2904C840.2154,-327.7381 852.2689,-314.4245 858.0449,-300 880.2109,-244.6446 876.4502,-209.9207 834.0449,-168 784.4694,-118.9911 706.7192,-89.7946 661.0295,-75.9103"/>
<polygon fill="#191970" stroke="#191970" points="661.8209,-72.4947 651.2391,-73.0209 659.8394,-79.2084 661.8209,-72.4947"/>
</g>
<!-- Node25&#45;&gt;Node14 -->
<g id="edge35" class="edge">
<title>Node25&#45;&gt;Node14</title>
<path fill="none" stroke="#191970" d="M838.0544,-336.3449C875.15,-315.2736 959.1849,-261.1322 990.0449,-188 1017.2274,-123.5829 941.2155,-55.677 901.498,-25.7422"/>
<polygon fill="#191970" stroke="#191970" points="903.2999,-22.7228 893.1696,-19.6198 899.1537,-28.3629 903.2999,-22.7228"/>
</g>
<!-- Node25&#45;&gt;Node18 -->
<g id="edge37" class="edge">
<title>Node25&#45;&gt;Node18</title>
<path fill="none" stroke="#191970" d="M819.656,-336.2726C818.164,-312.9334 810.9475,-253.5123 776.0449,-224 762.407,-212.4684 667.2651,-197.4616 597.4117,-187.779"/>
<polygon fill="#191970" stroke="#191970" points="597.685,-184.2838 587.3016,-186.3901 596.7322,-191.2187 597.685,-184.2838"/>
</g>
<!-- Node25&#45;&gt;Node21 -->
<g id="edge34" class="edge">
<title>Node25&#45;&gt;Node21</title>
<path fill="none" stroke="#191970" d="M844.1118,-336.3733C867.854,-326.8764 904.2183,-312.3306 929.8785,-302.0666"/>
<polygon fill="#191970" stroke="#191970" points="931.4919,-305.1909 939.4767,-298.2273 928.8921,-298.6916 931.4919,-305.1909"/>
</g>
<!-- Node26 -->
<g id="node27" class="node">
<title>Node26</title>
<polygon fill="#ffffff" stroke="#bfbfbf" points="705.0449,-224.5 705.0449,-243.5 767.0449,-243.5 767.0449,-224.5 705.0449,-224.5"/>
<text text-anchor="middle" x="736.0449" y="-231.5" font-family="Helvetica,sans-Serif" font-size="10.00" fill="#000000">functional</text>
</g>
<!-- Node25&#45;&gt;Node26 -->
<g id="edge32" class="edge">
<title>Node25&#45;&gt;Node26</title>
<path fill="none" stroke="#191970" d="M811.654,-336.3172C803.7916,-327.1351 791.8188,-312.8685 782.0449,-300 769.9647,-284.095 757.0271,-265.3651 747.9593,-251.929"/>
<polygon fill="#191970" stroke="#191970" points="750.8333,-249.9304 742.358,-243.5726 745.0187,-253.828 750.8333,-249.9304"/>
</g>
<!-- Node25&#45;&gt;Node27 -->
<g id="edge38" class="edge">
<title>Node25&#45;&gt;Node27</title>
<path fill="none" stroke="#191970" d="M769.497,-336.4369C714.739,-326.0773 627.9417,-309.6562 573.5819,-299.3719"/>
<polygon fill="#191970" stroke="#191970" points="573.9694,-295.8832 563.4931,-297.4632 572.6681,-302.7612 573.9694,-295.8832"/>
</g>
<!-- Node27&#45;&gt;Node2 -->
<g id="edge39" class="edge">
<title>Node27&#45;&gt;Node2</title>
<path fill="none" stroke="#191970" d="M491.8985,-280.3733C458.6331,-270.4114 406.8171,-254.8944 372.4113,-244.591"/>
<polygon fill="#191970" stroke="#191970" points="373.3497,-241.2185 362.7659,-241.7026 371.3415,-247.9243 373.3497,-241.2185"/>
</g>
<!-- Node27&#45;&gt;Node10 -->
<g id="edge44" class="edge">
<title>Node27&#45;&gt;Node10</title>
<path fill="none" stroke="#191970" d="M488.8424,-280.4855C458.8803,-271.5915 419.2673,-257.6661 410.0449,-244 388.7679,-212.4707 406.1156,-166.0352 418.7655,-140.5061"/>
<polygon fill="#191970" stroke="#191970" points="421.927,-142.0129 423.4533,-131.5286 415.7221,-138.7727 421.927,-142.0129"/>
</g>
<!-- Node27&#45;&gt;Node11 -->
<g id="edge41" class="edge">
<title>Node27&#45;&gt;Node11</title>
<path fill="none" stroke="#191970" d="M515.7691,-280.2857C505.2564,-266.7023 489.8608,-241.7133 502.0449,-224 527.3983,-187.141 566.7037,-221.7709 596.0449,-188 621.1241,-159.1345 624.9556,-112.3118 624.8999,-85.855"/>
<polygon fill="#191970" stroke="#191970" points="628.3929,-85.4931 624.676,-75.5717 621.3946,-85.6455 628.3929,-85.4931"/>
</g>
<!-- Node27&#45;&gt;Node17 -->
<g id="edge45" class="edge">
<title>Node27&#45;&gt;Node17</title>
<path fill="none" stroke="#191970" d="M484.9714,-282.9643C429.1833,-272.9188 326.6141,-254.4498 264.6399,-243.2904"/>
<polygon fill="#191970" stroke="#191970" points="265.144,-239.825 254.682,-241.4974 263.9035,-246.7142 265.144,-239.825"/>
</g>
<!-- Node27&#45;&gt;Node23 -->
<g id="edge43" class="edge">
<title>Node27&#45;&gt;Node23</title>
<path fill="none" stroke="#191970" d="M544.1579,-280.3733C562.8552,-271.4241 590.9193,-257.9917 612.0383,-247.8835"/>
<polygon fill="#191970" stroke="#191970" points="613.6854,-250.9755 621.1943,-243.5011 610.6632,-244.6614 613.6854,-250.9755"/>
</g>
<!-- Node27&#45;&gt;Node26 -->
<g id="edge40" class="edge">
<title>Node27&#45;&gt;Node26</title>
<path fill="none" stroke="#191970" d="M560.489,-280.3733C597.8733,-270.4982 655.9235,-255.1641 694.9272,-244.8613"/>
<polygon fill="#191970" stroke="#191970" points="696.1243,-248.1652 704.8988,-242.2273 694.3366,-241.3973 696.1243,-248.1652"/>
</g>
<!-- Node28 -->
<g id="node29" class="node">
<title>Node28</title>
<polygon fill="#ffffff" stroke="#bfbfbf" points="419.0449,-224.5 419.0449,-243.5 455.0449,-243.5 455.0449,-224.5 419.0449,-224.5"/>
<text text-anchor="middle" x="437.0449" y="-231.5" font-family="Helvetica,sans-Serif" font-size="10.00" fill="#000000">new</text>
</g>
<!-- Node27&#45;&gt;Node28 -->
<g id="edge42" class="edge">
<title>Node27&#45;&gt;Node28</title>
<path fill="none" stroke="#191970" d="M508.8907,-280.2455C495.5422,-271.6534 475.8863,-259.0014 460.5066,-249.1018"/>
<polygon fill="#191970" stroke="#191970" points="462.3285,-246.1121 452.0255,-243.6427 458.5398,-251.9982 462.3285,-246.1121"/>
</g>
<!-- Node27&#45;&gt;Node29 -->
<g id="edge46" class="edge">
<title>Node27&#45;&gt;Node29</title>
<path fill="none" stroke="#191970" d="M527.5286,-280.2455C530.1958,-272.7776 533.9582,-262.2427 537.2186,-253.1137"/>
<polygon fill="#191970" stroke="#191970" points="540.5338,-254.2373 540.6011,-243.6427 533.9416,-251.8829 540.5338,-254.2373"/>
</g>
<!-- Node29&#45;&gt;Node10 -->
<g id="edge50" class="edge">
<title>Node29&#45;&gt;Node10</title>
<path fill="none" stroke="#191970" d="M511.2395,-225.8027C490.357,-218.9725 464.2778,-207.1894 448.0449,-188 437.1073,-175.0704 432.4578,-156.172 430.4858,-141.9078"/>
<polygon fill="#191970" stroke="#191970" points="433.9354,-141.2437 429.4093,-131.6644 426.9737,-141.9754 433.9354,-141.2437"/>
</g>
<!-- Node29&#45;&gt;Node14 -->
<g id="edge49" class="edge">
<title>Node29&#45;&gt;Node14</title>
<path fill="none" stroke="#191970" d="M576.6016,-226.2195C622.5676,-215.0786 702.2378,-195.1382 714.0449,-188 784.2205,-145.5742 843.0545,-64.787 867.2365,-28.4801"/>
<polygon fill="#191970" stroke="#191970" points="870.3233,-30.155 872.8726,-19.8715 864.4668,-26.3208 870.3233,-30.155"/>
</g>
<!-- Node29&#45;&gt;Node22 -->
<g id="edge48" class="edge">
<title>Node29&#45;&gt;Node22</title>
<path fill="none" stroke="#191970" d="M576.9856,-225.7823C580.0389,-225.1339 583.0934,-224.5273 586.0449,-224 717.8074,-200.4608 752.2755,-204.9628 885.0449,-188 898.9462,-186.224 914.3024,-184.1647 927.4061,-182.3782"/>
<polygon fill="#191970" stroke="#191970" points="927.9287,-185.8393 937.3612,-181.0144 926.9786,-178.9041 927.9287,-185.8393"/>
</g>
<!-- Node30 -->
<g id="node31" class="node">
<title>Node30</title>
<polygon fill="#ffffff" stroke="#bfbfbf" points="643.0449,-168.5 643.0449,-187.5 705.0449,-187.5 705.0449,-168.5 643.0449,-168.5"/>
<text text-anchor="middle" x="674.0449" y="-175.5" font-family="Helvetica,sans-Serif" font-size="10.00" fill="#000000">exception</text>
</g>
<!-- Node29&#45;&gt;Node30 -->
<g id="edge47" class="edge">
<title>Node29&#45;&gt;Node30</title>
<path fill="none" stroke="#191970" d="M566.3927,-224.3733C587.4482,-215.3032 619.1945,-201.6279 642.7624,-191.4755"/>
<polygon fill="#191970" stroke="#191970" points="644.1893,-194.6719 651.9887,-187.5011 641.4199,-188.243 644.1893,-194.6719"/>
</g>
<!-- Node31&#45;&gt;Node10 -->
<g id="edge54" class="edge">
<title>Node31&#45;&gt;Node10</title>
<path fill="none" stroke="#191970" d="M200.7516,-280.4466C179.5756,-268.5585 150.0693,-247.0011 162.0449,-224 182.088,-185.5042 202.5221,-185.9332 242.0449,-168 286.3426,-147.9002 340.6924,-135.7888 379.3588,-129.0781"/>
<polygon fill="#191970" stroke="#191970" points="380.0468,-132.5117 389.3306,-127.4066 378.8896,-125.608 380.0468,-132.5117"/>
</g>
<!-- Node31&#45;&gt;Node17 -->
<g id="edge55" class="edge">
<title>Node31&#45;&gt;Node17</title>
<path fill="none" stroke="#191970" d="M218.8256,-280.2455C217.9122,-272.9382 216.6317,-262.6944 215.508,-253.7046"/>
<polygon fill="#191970" stroke="#191970" points="218.9636,-253.1313 214.2502,-243.6427 212.0177,-253.9996 218.9636,-253.1313"/>
</g>
<!-- Node32&#45;&gt;Node10 -->
<g id="edge60" class="edge">
<title>Node32&#45;&gt;Node10</title>
<path fill="none" stroke="#191970" d="M373.0001,-336.2296C353.6413,-315.0603 309.3551,-265.1659 302.0449,-244 299.1431,-235.5981 298.202,-232.0153 302.0449,-224 321.933,-182.5185 367.8259,-152.5692 398.6444,-136.2455"/>
<polygon fill="#191970" stroke="#191970" points="400.3735,-139.2924 407.6793,-131.6193 397.1831,-133.0617 400.3735,-139.2924"/>
</g>
<!-- Node32&#45;&gt;Node11 -->
<g id="edge59" class="edge">
<title>Node32&#45;&gt;Node11</title>
<path fill="none" stroke="#191970" d="M334.8866,-342.8825C242.2749,-336.3494 43.5578,-320.1466 20.0449,-300 -3.1347,-280.139 1.0449,-264.5246 1.0449,-234 1.0449,-234 1.0449,-234 1.0449,-178 1.0449,-163.0373 452.1987,-92.4341 586.6625,-71.7236"/>
<polygon fill="#191970" stroke="#191970" points="587.5231,-75.1325 596.8748,-70.1528 586.4589,-68.2138 587.5231,-75.1325"/>
</g>
<!-- Node32&#45;&gt;Node27 -->
<g id="edge61" class="edge">
<title>Node32&#45;&gt;Node27</title>
<path fill="none" stroke="#191970" d="M406.4556,-336.3733C429.6591,-327.2226 464.7487,-313.3844 490.5591,-303.2057"/>
<polygon fill="#191970" stroke="#191970" points="491.9341,-306.4258 499.9528,-299.5011 489.366,-299.9139 491.9341,-306.4258"/>
</g>
</g>
</svg>
