<?xml version="1.0" encoding="UTF-8" standalone="no"?>
<!DOCTYPE svg PUBLIC "-//W3C//DTD SVG 1.1//EN"
 "http://www.w3.org/Graphics/SVG/1.1/DTD/svg11.dtd">
<!-- Generated by graphviz version 2.40.1 (20161225.0304)
 -->
<!-- Title: /home/jbigot/data/projects/pdi/pdi/include/pdi/expression.h Pages: 1 -->
<!--zoomable 375 -->
<svg id="main" version="1.1" xmlns="http://www.w3.org/2000/svg" xmlns:xlink="http://www.w3.org/1999/xlink" xml:space="preserve" onload="init(evt)">
<style type="text/css"><![CDATA[
.edge:hover path { stroke: red; }
.edge:hover polygon { stroke: red; fill: red; }
]]></style>
<script type="text/javascript"><![CDATA[
var edges = document.getElementsByTagName('g');
if (edges && edges.length) {
  for (var i=0;i<edges.length;i++) {
    if (edges[i].id.substr(0,4)=='edge') {
      edges[i].setAttribute('class','edge');
    }
  }
}
]]></script>
        <defs>
                <circle id="rim" cx="0" cy="0" r="7"/>
                <circle id="rim2" cx="0" cy="0" r="3.5"/>
                <g id="zoomPlus">
                        <use xlink:href="#rim" fill="#404040">
                                <set attributeName="fill" to="#808080" begin="zoomplus.mouseover" end="zoomplus.mouseout"/>
                        </use>
                        <path d="M-4,0h8M0,-4v8" fill="none" stroke="white" stroke-width="1.5" pointer-events="none"/>
                </g>
                <g id="zoomMin">
                        <use xlink:href="#rim" fill="#404040">
                                <set attributeName="fill" to="#808080" begin="zoomminus.mouseover" end="zoomminus.mouseout"/>
                        </use>
                        <path d="M-4,0h8" fill="none" stroke="white" stroke-width="1.5" pointer-events="none"/>
                </g>
                <g id="dirArrow">
                        <path fill="none" stroke="white" stroke-width="1.5" d="M0,-3.0v7 M-2.5,-0.5L0,-3.0L2.5,-0.5"/>
                </g>
               <g id="resetDef">
                       <use xlink:href="#rim2" fill="#404040">
                               <set attributeName="fill" to="#808080" begin="reset.mouseover" end="reset.mouseout"/>
                       </use>
               </g>
        </defs>

<script type="text/javascript">
var viewWidth = 609;
var viewHeight = 375;
var sectionId = 'dynsection-0';
</script>
<script xlink:href="svgpan.js"/>
<svg id="graph" class="graph">
<g id="viewport">
<title>/home/jbigot/data/projects/pdi/pdi/include/pdi/expression.h</title>
<polygon fill="#ffffff" stroke="transparent" points="-4,4 -4,-371 604.8582,-371 604.8582,4 -4,4"/>
<!-- Node0 -->
<g id="node1" class="node">
<title>Node0</title>
<polygon fill="#bfbfbf" stroke="#000000" points="0,-336.5 0,-366.5 167,-366.5 167,-336.5 0,-336.5"/>
<text text-anchor="start" x="8" y="-354.5" font-family="Helvetica,sans-Serif" font-size="10.00" fill="#000000">/home/jbigot/data/projects</text>
<text text-anchor="middle" x="83.5" y="-343.5" font-family="Helvetica,sans-Serif" font-size="10.00" fill="#000000">/pdi/pdi/include/pdi/expression.h</text>
</g>
<!-- Node1 -->
<g id="node2" class="node">
<title>Node1</title>
<polygon fill="#ffffff" stroke="#bfbfbf" points="94.5,-56.5 94.5,-75.5 148.5,-75.5 148.5,-56.5 94.5,-56.5"/>
<text text-anchor="middle" x="121.5" y="-63.5" font-family="Helvetica,sans-Serif" font-size="10.00" fill="#000000">memory</text>
</g>
<!-- Node0&#45;&gt;Node1 -->
<g id="edge1" class="edge">
<title>Node0&#45;&gt;Node1</title>
<path fill="none" stroke="#191970" d="M75.2546,-336.42C64.0785,-314.5326 45.5,-272.3768 45.5,-234 45.5,-234 45.5,-234 45.5,-178 45.5,-138.2361 78.7071,-102.1042 101.2208,-82.177"/>
<polygon fill="#191970" stroke="#191970" points="103.6079,-84.7412 108.9501,-75.5918 99.0683,-79.4128 103.6079,-84.7412"/>
</g>
<!-- Node2 -->
<g id="node3" class="node">
<title>Node2</title>
<g id="a_node3"><a xlink:href="pdi__fwd_8h.html" target="_top" xlink:title="pdi/pdi_fwd.h">
<polygon fill="#ffffff" stroke="#000000" points="237,-112.5 237,-131.5 316,-131.5 316,-112.5 237,-112.5"/>
<text text-anchor="middle" x="276.5" y="-119.5" font-family="Helvetica,sans-Serif" font-size="10.00" fill="#000000">pdi/pdi_fwd.h</text>
</a>
</g>
</g>
<!-- Node0&#45;&gt;Node2 -->
<g id="edge2" class="edge">
<title>Node0&#45;&gt;Node2</title>
<path fill="none" stroke="#191970" d="M88.0634,-336.457C99.0838,-302.3668 130.1725,-218.2926 182.5,-168 197.5316,-153.553 217.9741,-142.8151 235.9567,-135.3639"/>
<polygon fill="#191970" stroke="#191970" points="237.6152,-138.4729 245.6439,-131.5598 235.0565,-131.9573 237.6152,-138.4729"/>
</g>
<!-- Node8 -->
<g id="node9" class="node">
<title>Node8</title>
<g id="a_node9"><a xlink:href="ref__any_8h.html" target="_top" xlink:title="pdi/ref_any.h">
<polygon fill="#ffffff" stroke="#000000" points="249.5,-280.5 249.5,-299.5 327.5,-299.5 327.5,-280.5 249.5,-280.5"/>
<text text-anchor="middle" x="288.5" y="-287.5" font-family="Helvetica,sans-Serif" font-size="10.00" fill="#000000">pdi/ref_any.h</text>
</a>
</g>
</g>
<!-- Node0&#45;&gt;Node8 -->
<g id="edge9" class="edge">
<title>Node0&#45;&gt;Node8</title>
<path fill="none" stroke="#191970" d="M133.6486,-336.4554C168.4535,-326.0139 214.2667,-312.27 247.0151,-302.4455"/>
<polygon fill="#191970" stroke="#191970" points="248.1598,-305.7563 256.7323,-299.5303 246.1483,-299.0515 248.1598,-305.7563"/>
</g>
<!-- Node2&#45;&gt;Node1 -->
<g id="edge3" class="edge">
<title>Node2&#45;&gt;Node1</title>
<path fill="none" stroke="#191970" d="M249.8546,-112.3733C224.3036,-103.1419 185.5488,-89.1402 157.3091,-78.9375"/>
<polygon fill="#191970" stroke="#191970" points="158.3921,-75.6074 147.7978,-75.5011 156.0135,-82.1909 158.3921,-75.6074"/>
</g>
<!-- Node3 -->
<g id="node4" class="node">
<title>Node3</title>
<g id="a_node4"><a xlink:href="pdi_8h.html" target="_top" xlink:title="pdi.h">
<polygon fill="#ffffff" stroke="#000000" points="257,-56.5 257,-75.5 296,-75.5 296,-56.5 257,-56.5"/>
<text text-anchor="middle" x="276.5" y="-63.5" font-family="Helvetica,sans-Serif" font-size="10.00" fill="#000000">pdi.h</text>
</a>
</g>
</g>
<!-- Node2&#45;&gt;Node3 -->
<g id="edge4" class="edge">
<title>Node2&#45;&gt;Node3</title>
<path fill="none" stroke="#191970" d="M276.5,-112.2455C276.5,-104.9382 276.5,-94.6944 276.5,-85.7046"/>
<polygon fill="#191970" stroke="#191970" points="280.0001,-85.6426 276.5,-75.6427 273.0001,-85.6427 280.0001,-85.6426"/>
</g>
<!-- Node4 -->
<g id="node5" class="node">
<title>Node4</title>
<polygon fill="#ffffff" stroke="#bfbfbf" points="170,-.5 170,-19.5 211,-19.5 211,-.5 170,-.5"/>
<text text-anchor="middle" x="190.5" y="-7.5" font-family="Helvetica,sans-Serif" font-size="10.00" fill="#000000">mpi.h</text>
</g>
<!-- Node3&#45;&gt;Node4 -->
<g id="edge5" class="edge">
<title>Node3&#45;&gt;Node4</title>
<path fill="none" stroke="#191970" d="M261.5199,-56.2455C248.3249,-47.6534 228.8949,-35.0014 213.6921,-25.1018"/>
<polygon fill="#191970" stroke="#191970" points="215.5983,-22.1665 205.3084,-19.6427 211.7785,-28.0325 215.5983,-22.1665"/>
</g>
<!-- Node5 -->
<g id="node6" class="node">
<title>Node5</title>
<polygon fill="#ffffff" stroke="#bfbfbf" points="415,-.5 415,-19.5 482,-19.5 482,-.5 415,-.5"/>
<text text-anchor="middle" x="448.5" y="-7.5" font-family="Helvetica,sans-Serif" font-size="10.00" fill="#000000">paraconf.h</text>
</g>
<!-- Node3&#45;&gt;Node5 -->
<g id="edge6" class="edge">
<title>Node3&#45;&gt;Node5</title>
<path fill="none" stroke="#191970" d="M296.2306,-59.5761C323.8152,-50.595 374.4799,-34.0996 409.7576,-22.6138"/>
<polygon fill="#191970" stroke="#191970" points="410.8426,-25.9415 419.2678,-19.5175 408.6755,-19.2854 410.8426,-25.9415"/>
</g>
<!-- Node6 -->
<g id="node7" class="node">
<title>Node6</title>
<polygon fill="#ffffff" stroke="#bfbfbf" points="229.5,-.5 229.5,-19.5 301.5,-19.5 301.5,-.5 229.5,-.5"/>
<text text-anchor="middle" x="265.5" y="-7.5" font-family="Helvetica,sans-Serif" font-size="10.00" fill="#000000">pdi/export.h</text>
</g>
<!-- Node3&#45;&gt;Node6 -->
<g id="edge7" class="edge">
<title>Node3&#45;&gt;Node6</title>
<path fill="none" stroke="#191970" d="M274.5839,-56.2455C273.1486,-48.9382 271.1364,-38.6944 269.3705,-29.7046"/>
<polygon fill="#191970" stroke="#191970" points="272.756,-28.7805 267.3941,-19.6427 265.8873,-30.1298 272.756,-28.7805"/>
</g>
<!-- Node7 -->
<g id="node8" class="node">
<title>Node7</title>
<polygon fill="#ffffff" stroke="#bfbfbf" points="320,-.5 320,-19.5 397,-19.5 397,-.5 320,-.5"/>
<text text-anchor="middle" x="358.5" y="-7.5" font-family="Helvetica,sans-Serif" font-size="10.00" fill="#000000">pdi/version.h</text>
</g>
<!-- Node3&#45;&gt;Node7 -->
<g id="edge8" class="edge">
<title>Node3&#45;&gt;Node7</title>
<path fill="none" stroke="#191970" d="M290.7833,-56.2455C303.247,-47.7337 321.5451,-35.2375 335.9792,-25.3801"/>
<polygon fill="#191970" stroke="#191970" points="338.0962,-28.1726 344.3804,-19.6427 334.1485,-22.392 338.0962,-28.1726"/>
</g>
<!-- Node8&#45;&gt;Node1 -->
<g id="edge12" class="edge">
<title>Node8&#45;&gt;Node1</title>
<path fill="none" stroke="#191970" d="M249.4805,-284.4823C223.0546,-278.7414 189.2896,-267.1632 168.5,-244 127.853,-198.7121 121.6694,-122.3305 121.1696,-86.1559"/>
<polygon fill="#191970" stroke="#191970" points="124.6695,-85.9145 121.1706,-75.9141 117.6695,-85.9137 124.6695,-85.9145"/>
</g>
<!-- Node8&#45;&gt;Node2 -->
<g id="edge15" class="edge">
<title>Node8&#45;&gt;Node2</title>
<path fill="none" stroke="#191970" d="M249.2818,-284.4977C224.7397,-278.8053 194.9421,-267.2777 179.5,-244 152.4028,-203.1531 212.2233,-159.0266 249.5217,-136.7144"/>
<polygon fill="#191970" stroke="#191970" points="251.5632,-139.5763 258.4524,-131.5271 248.0473,-133.5233 251.5632,-139.5763"/>
</g>
<!-- Node9 -->
<g id="node10" class="node">
<title>Node9</title>
<polygon fill="#ffffff" stroke="#bfbfbf" points="188,-224.5 188,-243.5 239,-243.5 239,-224.5 188,-224.5"/>
<text text-anchor="middle" x="213.5" y="-231.5" font-family="Helvetica,sans-Serif" font-size="10.00" fill="#000000">cassert</text>
</g>
<!-- Node8&#45;&gt;Node9 -->
<g id="edge10" class="edge">
<title>Node8&#45;&gt;Node9</title>
<path fill="none" stroke="#191970" d="M275.436,-280.2455C264.1438,-271.814 247.6155,-259.4729 234.4729,-249.6598"/>
<polygon fill="#191970" stroke="#191970" points="236.5211,-246.8211 226.4143,-243.6427 232.3331,-252.4301 236.5211,-246.8211"/>
</g>
<!-- Node10 -->
<g id="node11" class="node">
<title>Node10</title>
<polygon fill="#ffffff" stroke="#bfbfbf" points="257.5,-224.5 257.5,-243.5 319.5,-243.5 319.5,-224.5 257.5,-224.5"/>
<text text-anchor="middle" x="288.5" y="-231.5" font-family="Helvetica,sans-Serif" font-size="10.00" fill="#000000">functional</text>
</g>
<!-- Node8&#45;&gt;Node10 -->
<g id="edge11" class="edge">
<title>Node8&#45;&gt;Node10</title>
<path fill="none" stroke="#191970" d="M288.5,-280.2455C288.5,-272.9382 288.5,-262.6944 288.5,-253.7046"/>
<polygon fill="#191970" stroke="#191970" points="292.0001,-253.6426 288.5,-243.6427 285.0001,-253.6427 292.0001,-253.6426"/>
</g>
<!-- Node11 -->
<g id="node12" class="node">
<title>Node11</title>
<polygon fill="#ffffff" stroke="#bfbfbf" points="337.5,-224.5 337.5,-243.5 373.5,-243.5 373.5,-224.5 337.5,-224.5"/>
<text text-anchor="middle" x="355.5" y="-231.5" font-family="Helvetica,sans-Serif" font-size="10.00" fill="#000000">new</text>
</g>
<!-- Node8&#45;&gt;Node11 -->
<g id="edge13" class="edge">
<title>Node8&#45;&gt;Node11</title>
<path fill="none" stroke="#191970" d="M300.1705,-280.2455C310.0661,-271.9746 324.4627,-259.9416 336.0901,-250.2232"/>
<polygon fill="#191970" stroke="#191970" points="338.535,-252.7413 343.9632,-243.6427 334.0458,-247.3703 338.535,-252.7413"/>
</g>
<!-- Node12 -->
<g id="node13" class="node">
<title>Node12</title>
<polygon fill="#ffffff" stroke="#bfbfbf" points="391.5,-224.5 391.5,-243.5 483.5,-243.5 483.5,-224.5 391.5,-224.5"/>
<text text-anchor="middle" x="437.5" y="-231.5" font-family="Helvetica,sans-Serif" font-size="10.00" fill="#000000">unordered_map</text>
</g>
<!-- Node8&#45;&gt;Node12 -->
<g id="edge14" class="edge">
<title>Node8&#45;&gt;Node12</title>
<path fill="none" stroke="#191970" d="M314.114,-280.3733C338.5687,-271.1822 375.6054,-257.2624 402.7209,-247.0713"/>
<polygon fill="#191970" stroke="#191970" points="404.0909,-250.2956 412.2202,-243.5011 401.6281,-243.7431 404.0909,-250.2956"/>
</g>
<!-- Node13 -->
<g id="node14" class="node">
<title>Node13</title>
<g id="a_node14"><a xlink:href="datatype_8h.html" target="_top" xlink:title="pdi/datatype.h">
<polygon fill="#ffffff" stroke="#000000" points="502,-224.5 502,-243.5 585,-243.5 585,-224.5 502,-224.5"/>
<text text-anchor="middle" x="543.5" y="-231.5" font-family="Helvetica,sans-Serif" font-size="10.00" fill="#000000">pdi/datatype.h</text>
</a>
</g>
</g>
<!-- Node8&#45;&gt;Node13 -->
<g id="edge16" class="edge">
<title>Node8&#45;&gt;Node13</title>
<path fill="none" stroke="#191970" d="M327.5066,-281.4338C371.5321,-271.7655 443.3348,-255.9971 491.9525,-245.3202"/>
<polygon fill="#191970" stroke="#191970" points="492.9403,-248.6868 501.9568,-243.1232 491.4387,-241.8497 492.9403,-248.6868"/>
</g>
<!-- Node15 -->
<g id="node16" class="node">
<title>Node15</title>
<g id="a_node16"><a xlink:href="error_8h.html" target="_top" xlink:title="pdi/error.h">
<polygon fill="#ffffff" stroke="#000000" points="525,-168.5 525,-187.5 590,-187.5 590,-168.5 525,-168.5"/>
<text text-anchor="middle" x="557.5" y="-175.5" font-family="Helvetica,sans-Serif" font-size="10.00" fill="#000000">pdi/error.h</text>
</a>
</g>
</g>
<!-- Node8&#45;&gt;Node15 -->
<g id="edge21" class="edge">
<title>Node8&#45;&gt;Node15</title>
<path fill="none" stroke="#191970" d="M327.616,-286.9416C406.2082,-280.3991 577.2817,-264.0002 594.5,-244 607.4909,-228.9103 592.1263,-208.5512 577.4305,-194.4531"/>
<polygon fill="#191970" stroke="#191970" points="579.7293,-191.8131 569.9602,-187.7124 575.0398,-197.0102 579.7293,-191.8131"/>
</g>
<!-- Node13&#45;&gt;Node2 -->
<g id="edge17" class="edge">
<title>Node13&#45;&gt;Node2</title>
<path fill="none" stroke="#191970" d="M501.9132,-225.4715C456.4609,-215.7924 386.8573,-199.8177 362.5,-188 336.2568,-175.2673 310.2687,-153.7613 293.8454,-138.7717"/>
<polygon fill="#191970" stroke="#191970" points="295.8747,-135.8777 286.1783,-131.608 291.0957,-140.9925 295.8747,-135.8777"/>
</g>
<!-- Node14 -->
<g id="node15" class="node">
<title>Node14</title>
<g id="a_node15"><a xlink:href="datatype__template_8h.html" target="_top" xlink:title="pdi/datatype_template.h">
<polygon fill="#ffffff" stroke="#000000" points="371.5,-168.5 371.5,-187.5 501.5,-187.5 501.5,-168.5 371.5,-168.5"/>
<text text-anchor="middle" x="436.5" y="-175.5" font-family="Helvetica,sans-Serif" font-size="10.00" fill="#000000">pdi/datatype_template.h</text>
</a>
</g>
</g>
<!-- Node13&#45;&gt;Node14 -->
<g id="edge18" class="edge">
<title>Node13&#45;&gt;Node14</title>
<path fill="none" stroke="#191970" d="M524.862,-224.2455C508.0614,-215.4527 483.1366,-202.4079 464.0382,-192.4125"/>
<polygon fill="#191970" stroke="#191970" points="465.4073,-189.1787 454.9244,-187.6427 462.1614,-195.3807 465.4073,-189.1787"/>
</g>
<!-- Node14&#45;&gt;Node2 -->
<g id="edge20" class="edge">
<title>Node14&#45;&gt;Node2</title>
<path fill="none" stroke="#191970" d="M408.995,-168.3733C382.6198,-159.1419 342.6149,-145.1402 313.4642,-134.9375"/>
<polygon fill="#191970" stroke="#191970" points="314.2409,-131.5012 303.6461,-131.5011 311.9284,-138.1082 314.2409,-131.5012"/>
</g>
<!-- Node14&#45;&gt;Node5 -->
<g id="edge19" class="edge">
<title>Node14&#45;&gt;Node5</title>
<path fill="none" stroke="#191970" d="M437.1796,-168.4862C439.0765,-141.9293 444.4596,-66.5651 447.0596,-30.1655"/>
<polygon fill="#191970" stroke="#191970" points="450.5766,-30.0519 447.798,-19.8279 443.5943,-29.5531 450.5766,-30.0519"/>
</g>
<!-- Node15&#45;&gt;Node2 -->
<g id="edge25" class="edge">
<title>Node15&#45;&gt;Node2</title>
<path fill="none" stroke="#191970" d="M524.8976,-170.9949C520.0727,-169.978 515.1586,-168.9534 510.5,-168 447.0145,-155.007 373.6893,-140.7069 326.2868,-131.5548"/>
<polygon fill="#191970" stroke="#191970" points="326.767,-128.0829 316.2851,-129.6258 325.4413,-134.9563 326.767,-128.0829"/>
</g>
<!-- Node15&#45;&gt;Node5 -->
<g id="edge24" class="edge">
<title>Node15&#45;&gt;Node5</title>
<path fill="none" stroke="#191970" d="M570.5299,-168.3707C585.9872,-155.7013 608.3741,-132.622 597.5,-112 574.1104,-67.6433 521.776,-38.8946 485.801,-23.5671"/>
<polygon fill="#191970" stroke="#191970" points="486.7059,-20.1553 476.1257,-19.598 484.0491,-26.6315 486.7059,-20.1553"/>
</g>
<!-- Node16 -->
<g id="node17" class="node">
<title>Node16</title>
<polygon fill="#ffffff" stroke="#bfbfbf" points="526.5,-112.5 526.5,-131.5 588.5,-131.5 588.5,-112.5 526.5,-112.5"/>
<text text-anchor="middle" x="557.5" y="-119.5" font-family="Helvetica,sans-Serif" font-size="10.00" fill="#000000">exception</text>
</g>
<!-- Node15&#45;&gt;Node16 -->
<g id="edge22" class="edge">
<title>Node15&#45;&gt;Node16</title>
<path fill="none" stroke="#191970" d="M557.5,-168.2455C557.5,-160.9382 557.5,-150.6944 557.5,-141.7046"/>
<polygon fill="#191970" stroke="#191970" points="561.0001,-141.6426 557.5,-131.6427 554.0001,-141.6427 561.0001,-141.6426"/>
</g>
<!-- Node17 -->
<g id="node18" class="node">
<title>Node17</title>
<polygon fill="#ffffff" stroke="#bfbfbf" points="465,-112.5 465,-131.5 508,-131.5 508,-112.5 465,-112.5"/>
<text text-anchor="middle" x="486.5" y="-119.5" font-family="Helvetica,sans-Serif" font-size="10.00" fill="#000000">string</text>
</g>
<!-- Node15&#45;&gt;Node17 -->
<g id="edge23" class="edge">
<title>Node15&#45;&gt;Node17</title>
<path fill="none" stroke="#191970" d="M545.1327,-168.2455C534.5446,-159.8943 519.0936,-147.7076 506.7107,-137.9408"/>
<polygon fill="#191970" stroke="#191970" points="508.7447,-135.0875 498.7255,-131.6427 504.4097,-140.5837 508.7447,-135.0875"/>
</g>
</g>
</svg>
        <g id="navigator" transform="translate(0 0)" fill="#404254">
                <rect fill="#f2f5e9" fill-opacity="0.5" stroke="#606060" stroke-width=".5" x="0" y="0" width="60" height="60"/>
                <use id="zoomplus" xlink:href="#zoomPlus" x="17" y="9" onmousedown="handleZoom(evt,'in')"/>
                <use id="zoomminus" xlink:href="#zoomMin" x="42" y="9" onmousedown="handleZoom(evt,'out')"/>
                <use id="reset" xlink:href="#resetDef" x="30" y="36" onmousedown="handleReset()"/>
                <g id="arrowUp" xlink:href="#dirArrow" transform="translate(30 24)" onmousedown="handlePan(0,-1)">
                  <use xlink:href="#rim" fill="#404040">
                        <set attributeName="fill" to="#808080" begin="arrowUp.mouseover" end="arrowUp.mouseout"/>
                  </use>
                  <path fill="none" stroke="white" stroke-width="1.5" d="M0,-3.0v7 M-2.5,-0.5L0,-3.0L2.5,-0.5"/>
                </g>
                <g id="arrowRight" xlink:href="#dirArrow" transform="rotate(90) translate(36 -43)" onmousedown="handlePan(1,0)">
                  <use xlink:href="#rim" fill="#404040">
                        <set attributeName="fill" to="#808080" begin="arrowRight.mouseover" end="arrowRight.mouseout"/>
                  </use>
                  <path fill="none" stroke="white" stroke-width="1.5" d="M0,-3.0v7 M-2.5,-0.5L0,-3.0L2.5,-0.5"/>
                </g>
                <g id="arrowDown" xlink:href="#dirArrow" transform="rotate(180) translate(-30 -48)" onmousedown="handlePan(0,1)">
                  <use xlink:href="#rim" fill="#404040">
                        <set attributeName="fill" to="#808080" begin="arrowDown.mouseover" end="arrowDown.mouseout"/>
                  </use>
                  <path fill="none" stroke="white" stroke-width="1.5" d="M0,-3.0v7 M-2.5,-0.5L0,-3.0L2.5,-0.5"/>
                </g>
                <g id="arrowLeft" xlink:href="#dirArrow" transform="rotate(270) translate(-36 17)" onmousedown="handlePan(-1,0)">
                  <use xlink:href="#rim" fill="#404040">
                        <set attributeName="fill" to="#808080" begin="arrowLeft.mouseover" end="arrowLeft.mouseout"/>
                  </use>
                  <path fill="none" stroke="white" stroke-width="1.5" d="M0,-3.0v7 M-2.5,-0.5L0,-3.0L2.5,-0.5"/>
                </g>
        </g>
        <svg viewBox="0 0 15 15" width="100%" height="30px" preserveAspectRatio="xMaxYMin meet">
         <g id="arrow_out" transform="scale(0.3 0.3)">
          <a xlink:href="expression_8h__incl_org.svg" target="_base">
           <rect id="button" ry="5" rx="5" y="6" x="6" height="38" width="38"
                fill="#f2f5e9" fill-opacity="0.5" stroke="#606060" stroke-width="1.0"/>
           <path id="arrow"
             d="M 11.500037,31.436501 C 11.940474,20.09759 22.043105,11.32322 32.158766,21.979434 L 37.068811,17.246167 C 37.068811,17.246167 37.088388,32 37.088388,32 L 22.160133,31.978069 C 22.160133,31.978069 26.997745,27.140456 26.997745,27.140456 C 18.528582,18.264221 13.291696,25.230495 11.500037,31.436501 z"
             style="fill:#404040;"/>
          </a>
         </g>
        </svg>
</svg>
