<?xml version="1.0" encoding="UTF-8" standalone="no"?>
<!DOCTYPE svg PUBLIC "-//W3C//DTD SVG 1.1//EN"
 "http://www.w3.org/Graphics/SVG/1.1/DTD/svg11.dtd">
<!-- Generated by graphviz version 2.40.1 (20161225.0304)
 -->
<!-- Title: PDI_init_f Pages: 1 -->
<svg width="268pt" height="28pt"
 viewBox="0.00 0.00 268.00 28.00" xmlns="http://www.w3.org/2000/svg" xmlns:xlink="http://www.w3.org/1999/xlink">
<g id="graph0" class="graph" transform="scale(1 1) rotate(0) translate(4 24)">
<title>PDI_init_f</title>
<polygon fill="#ffffff" stroke="transparent" points="-4,4 -4,-24 264,-24 264,4 -4,4"/>
<!-- Node0 -->
<g id="node1" class="node">
<title>Node0</title>
<polygon fill="#bfbfbf" stroke="#000000" points="0,-.5 0,-19.5 62,-19.5 62,-.5 0,-.5"/>
<text text-anchor="middle" x="31" y="-7.5" font-family="Helvetica,sans-Serif" font-size="10.00" fill="#000000">PDI_init_f</text>
</g>
<!-- Node1 -->
<g id="node2" class="node">
<title>Node1</title>
<g id="a_node2"><a xlink:href="pdi_8h.html#a5861a86c694942a5d67b5e5a88387f6f" target="_top" xlink:title="Initialization / Finalization stuff. ">
<polygon fill="#ffffff" stroke="#000000" points="98,-.5 98,-19.5 151,-19.5 151,-.5 98,-.5"/>
<text text-anchor="middle" x="124.5" y="-7.5" font-family="Helvetica,sans-Serif" font-size="10.00" fill="#000000">PDI_init</text>
</a>
</g>
</g>
<!-- Node0&#45;&gt;Node1 -->
<g id="edge1" class="edge">
<title>Node0&#45;&gt;Node1</title>
<path fill="none" stroke="#191970" d="M62.1341,-10C70.3675,-10 79.3308,-10 87.8278,-10"/>
<polygon fill="#191970" stroke="#191970" points="87.8807,-13.5001 97.8806,-10 87.8806,-6.5001 87.8807,-13.5001"/>
</g>
<!-- Node2 -->
<g id="node3" class="node">
<title>Node2</title>
<g id="a_node3"><a xlink:href="pdi_8cxx.html#a53d83851dcb286b25c8f7061d00d997b" target="_top" xlink:title="PDI_finalize">
<polygon fill="#ffffff" stroke="#000000" points="187,-.5 187,-19.5 260,-19.5 260,-.5 187,-.5"/>
<text text-anchor="middle" x="223.5" y="-7.5" font-family="Helvetica,sans-Serif" font-size="10.00" fill="#000000">PDI_finalize</text>
</a>
</g>
</g>
<!-- Node1&#45;&gt;Node2 -->
<g id="edge2" class="edge">
<title>Node1&#45;&gt;Node2</title>
<path fill="none" stroke="#191970" d="M151.0302,-10C158.9342,-10 167.8422,-10 176.6387,-10"/>
<polygon fill="#191970" stroke="#191970" points="176.8471,-13.5001 186.847,-10 176.847,-6.5001 176.8471,-13.5001"/>
</g>
</g>
</svg>
