<?xml version="1.0" encoding="UTF-8" standalone="no"?>
<!DOCTYPE svg PUBLIC "-//W3C//DTD SVG 1.1//EN"
 "http://www.w3.org/Graphics/SVG/1.1/DTD/svg11.dtd">
<!-- Generated by graphviz version 2.40.1 (20161225.0304)
 -->
<!-- Title: Graph Legend Pages: 1 -->
<svg width="530pt" height="159pt"
 viewBox="0.00 0.00 529.50 159.00" xmlns="http://www.w3.org/2000/svg" xmlns:xlink="http://www.w3.org/1999/xlink">
<g id="graph0" class="graph" transform="scale(1 1) rotate(0) translate(4 155)">
<title>Graph Legend</title>
<polygon fill="#ffffff" stroke="transparent" points="-4,4 -4,-155 525.5,-155 525.5,4 -4,4"/>
<!-- Node9 -->
<g id="node1" class="node">
<title>Node9</title>
<polygon fill="#bfbfbf" stroke="#000000" points="305.5,-19 246.5,-19 246.5,0 305.5,0 305.5,-19"/>
<text text-anchor="middle" x="276" y="-7" font-family="Helvetica,sans-Serif" font-size="10.00" fill="#000000">Inherited</text>
</g>
<!-- Node10 -->
<g id="node2" class="node">
<title>Node10</title>
<g id="a_node2"><a xlink:href="$classPublicBase.html" xlink:title="PublicBase">
<polygon fill="none" stroke="#000000" points="68,-85 0,-85 0,-66 68,-66 68,-85"/>
<text text-anchor="middle" x="34" y="-73" font-family="Helvetica,sans-Serif" font-size="10.00" fill="#000000">PublicBase</text>
</a>
</g>
</g>
<!-- Node10&#45;&gt;Node9 -->
<g id="edge1" class="edge">
<title>Node10&#45;&gt;Node9</title>
<path fill="none" stroke="#191970" d="M78.1108,-63.4698C126.8764,-50.1701 204.0891,-29.1121 246.2,-17.6273"/>
<polygon fill="#191970" stroke="#191970" points="76.8861,-60.1759 68.1594,-66.1838 78.728,-66.9292 76.8861,-60.1759"/>
</g>
<!-- Node11 -->
<g id="node3" class="node">
<title>Node11</title>
<g id="a_node3"><a xlink:href="$classTruncated.html" xlink:title="Truncated">
<polygon fill="none" stroke="#ff0000" points="66.5,-151 1.5,-151 1.5,-132 66.5,-132 66.5,-151"/>
<text text-anchor="middle" x="34" y="-139" font-family="Helvetica,sans-Serif" font-size="10.00" fill="#000000">Truncated</text>
</a>
</g>
</g>
<!-- Node11&#45;&gt;Node10 -->
<g id="edge2" class="edge">
<title>Node11&#45;&gt;Node10</title>
<path fill="none" stroke="#191970" d="M34,-121.732C34,-109.6966 34,-94.847 34,-85.2785"/>
<polygon fill="#191970" stroke="#191970" points="30.5001,-121.7614 34,-131.7615 37.5001,-121.7615 30.5001,-121.7614"/>
</g>
<!-- Node13 -->
<g id="node4" class="node">
<title>Node13</title>
<g id="a_node4"><a xlink:href="$classProtectedBase.html" xlink:title="ProtectedBase">
<polygon fill="none" stroke="#000000" points="172,-85 86,-85 86,-66 172,-66 172,-85"/>
<text text-anchor="middle" x="129" y="-73" font-family="Helvetica,sans-Serif" font-size="10.00" fill="#000000">ProtectedBase</text>
</a>
</g>
</g>
<!-- Node13&#45;&gt;Node9 -->
<g id="edge3" class="edge">
<title>Node13&#45;&gt;Node9</title>
<path fill="none" stroke="#006400" d="M159.8325,-61.6568C188.2406,-48.9022 229.657,-30.3071 254.5991,-19.1085"/>
<polygon fill="#006400" stroke="#006400" points="158.0642,-58.6141 150.3751,-65.903 160.9314,-65 158.0642,-58.6141"/>
</g>
<!-- Node14 -->
<g id="node5" class="node">
<title>Node14</title>
<g id="a_node5"><a xlink:href="$classPrivateBase.html" xlink:title="PrivateBase">
<polygon fill="none" stroke="#000000" points="264,-85 190,-85 190,-66 264,-66 264,-85"/>
<text text-anchor="middle" x="227" y="-73" font-family="Helvetica,sans-Serif" font-size="10.00" fill="#000000">PrivateBase</text>
</a>
</g>
</g>
<!-- Node14&#45;&gt;Node9 -->
<g id="edge4" class="edge">
<title>Node14&#45;&gt;Node9</title>
<path fill="none" stroke="#8b1a1a" d="M240.3257,-57.5511C249.4764,-45.2256 261.2739,-29.3352 268.7402,-19.2785"/>
<polygon fill="#8b1a1a" stroke="#8b1a1a" points="237.381,-55.646 234.2301,-65.7615 243.0014,-59.8187 237.381,-55.646"/>
</g>
<!-- Node15 -->
<g id="node6" class="node">
<title>Node15</title>
<polygon fill="none" stroke="#bfbfbf" points="370,-85 282,-85 282,-66 370,-66 370,-85"/>
<text text-anchor="middle" x="326" y="-73" font-family="Helvetica,sans-Serif" font-size="10.00" fill="#000000">Undocumented</text>
</g>
<!-- Node15&#45;&gt;Node9 -->
<g id="edge5" class="edge">
<title>Node15&#45;&gt;Node9</title>
<path fill="none" stroke="#191970" d="M312.4023,-57.5511C303.0648,-45.2256 291.0266,-29.3352 283.4079,-19.2785"/>
<polygon fill="#191970" stroke="#191970" points="309.7939,-59.904 318.6223,-65.7615 315.3735,-55.677 309.7939,-59.904"/>
</g>
<!-- Node16 -->
<g id="node7" class="node">
<title>Node16</title>
<g id="a_node7"><a xlink:href="$classTempl.html" xlink:title="Templ&lt; int &gt;">
<polygon fill="none" stroke="#000000" points="462.5,-85 387.5,-85 387.5,-66 462.5,-66 462.5,-85"/>
<text text-anchor="middle" x="425" y="-73" font-family="Helvetica,sans-Serif" font-size="10.00" fill="#000000">Templ&lt; int &gt;</text>
</a>
</g>
</g>
<!-- Node16&#45;&gt;Node9 -->
<g id="edge6" class="edge">
<title>Node16&#45;&gt;Node9</title>
<path fill="none" stroke="#191970" d="M394.1245,-61.8236C365.3204,-49.0647 323.0839,-30.356 297.692,-19.1085"/>
<polygon fill="#191970" stroke="#191970" points="392.7734,-65.0531 403.3341,-65.903 395.6085,-58.6529 392.7734,-65.0531"/>
</g>
<!-- Node17 -->
<g id="node8" class="node">
<title>Node17</title>
<g id="a_node8"><a xlink:href="$classTempl.html" xlink:title="Templ&lt; T &gt;">
<polygon fill="none" stroke="#000000" points="460.5,-151 389.5,-151 389.5,-132 460.5,-132 460.5,-151"/>
<text text-anchor="middle" x="425" y="-139" font-family="Helvetica,sans-Serif" font-size="10.00" fill="#000000">Templ&lt; T &gt;</text>
</a>
</g>
</g>
<!-- Node17&#45;&gt;Node16 -->
<g id="edge7" class="edge">
<title>Node17&#45;&gt;Node16</title>
<path fill="none" stroke="#ffa500" stroke-dasharray="5,2" d="M425,-121.732C425,-109.6966 425,-94.847 425,-85.2785"/>
<polygon fill="#ffa500" stroke="#ffa500" points="421.5001,-121.7614 425,-131.7615 428.5001,-121.7615 421.5001,-121.7614"/>
<text text-anchor="middle" x="440" y="-106" font-family="Helvetica,sans-Serif" font-size="10.00" fill="#000000">&lt; int &gt;</text>
</g>
<!-- Node18 -->
<g id="node9" class="node">
<title>Node18</title>
<g id="a_node9"><a xlink:href="$classUsed.html" xlink:title="Used">
<polygon fill="none" stroke="#000000" points="521.5,-85 480.5,-85 480.5,-66 521.5,-66 521.5,-85"/>
<text text-anchor="middle" x="501" y="-73" font-family="Helvetica,sans-Serif" font-size="10.00" fill="#000000">Used</text>
</a>
</g>
</g>
<!-- Node18&#45;&gt;Node9 -->
<g id="edge8" class="edge">
<title>Node18&#45;&gt;Node9</title>
<path fill="none" stroke="#9a32cd" stroke-dasharray="5,2" d="M470.586,-65.6337C406.5968,-46.0382 342.2451,-27.8748 305.6509,-17.6896"/>
<polygon fill="#9a32cd" stroke="#9a32cd" points="469.8469,-69.0681 480.434,-68.6619 471.9044,-62.3772 469.8469,-69.0681"/>
<text text-anchor="middle" x="439" y="-40" font-family="Helvetica,sans-Serif" font-size="10.00" fill="#000000">m_usedClass</text>
</g>
</g>
</svg>
