<?xml version="1.0" encoding="UTF-8" standalone="no"?>
<!DOCTYPE svg PUBLIC "-//W3C//DTD SVG 1.1//EN"
 "http://www.w3.org/Graphics/SVG/1.1/DTD/svg11.dtd">
<!-- Generated by graphviz version 2.40.1 (20161225.0304)
 -->
<!-- Title: Graphical Class Hierarchy Pages: 1 -->
<svg width="287pt" height="186pt"
 viewBox="0.00 0.00 287.00 186.00" xmlns="http://www.w3.org/2000/svg" xmlns:xlink="http://www.w3.org/1999/xlink">
<g id="graph0" class="graph" transform="scale(1 1) rotate(0) translate(4 182)">
<title>Graphical Class Hierarchy</title>
<polygon fill="#ffffff" stroke="transparent" points="-4,4 -4,-182 283,-182 283,4 -4,4"/>
<!-- Node0 -->
<g id="node1" class="node">
<title>Node0</title>
<g id="a_node1"><a xlink:href="structPDI_1_1Expression_1_1Impl.html" target="_top" xlink:title="PDI::Expression::Impl">
<polygon fill="#ffffff" stroke="#000000" points="0,-79 0,-98 115,-98 115,-79 0,-79"/>
<text text-anchor="middle" x="57.5" y="-86" font-family="Helvetica,sans-Serif" font-size="10.00" fill="#000000">PDI::Expression::Impl</text>
</a>
</g>
</g>
<!-- Node1 -->
<g id="node2" class="node">
<title>Node1</title>
<g id="a_node2"><a xlink:href="structPDI_1_1Expression_1_1Impl_1_1Int__literal.html" target="_top" xlink:title="PDI::Expression::Impl\l::Int_literal">
<polygon fill="#ffffff" stroke="#000000" points="157.5,-147.5 157.5,-177.5 272.5,-177.5 272.5,-147.5 157.5,-147.5"/>
<text text-anchor="start" x="165.5" y="-165.5" font-family="Helvetica,sans-Serif" font-size="10.00" fill="#000000">PDI::Expression::Impl</text>
<text text-anchor="middle" x="215" y="-154.5" font-family="Helvetica,sans-Serif" font-size="10.00" fill="#000000">::Int_literal</text>
</a>
</g>
</g>
<!-- Node0&#45;&gt;Node1 -->
<g id="edge1" class="edge">
<title>Node0&#45;&gt;Node1</title>
<path fill="none" stroke="#191970" d="M82.44,-103.0024C101.0192,-113.5173 127.184,-127.7236 151,-138.5 157.8112,-141.582 165.146,-144.6005 172.3341,-147.4002"/>
<polygon fill="#191970" stroke="#191970" points="84.1401,-99.9428 73.7206,-98.0234 80.6689,-106.0216 84.1401,-99.9428"/>
</g>
<!-- Node2 -->
<g id="node3" class="node">
<title>Node2</title>
<g id="a_node3"><a xlink:href="structPDI_1_1Expression_1_1Impl_1_1Operation.html" target="_top" xlink:title="PDI::Expression::Impl\l::Operation">
<polygon fill="#ffffff" stroke="#000000" points="157.5,-98.5 157.5,-128.5 272.5,-128.5 272.5,-98.5 157.5,-98.5"/>
<text text-anchor="start" x="165.5" y="-116.5" font-family="Helvetica,sans-Serif" font-size="10.00" fill="#000000">PDI::Expression::Impl</text>
<text text-anchor="middle" x="215" y="-105.5" font-family="Helvetica,sans-Serif" font-size="10.00" fill="#000000">::Operation</text>
</a>
</g>
</g>
<!-- Node0&#45;&gt;Node2 -->
<g id="edge2" class="edge">
<title>Node0&#45;&gt;Node2</title>
<path fill="none" stroke="#191970" d="M125.3386,-99.268C135.9717,-100.9558 146.8755,-102.6866 157.2541,-104.334"/>
<polygon fill="#191970" stroke="#191970" points="125.6779,-95.7782 115.2529,-97.6671 124.5805,-102.6916 125.6779,-95.7782"/>
</g>
<!-- Node3 -->
<g id="node4" class="node">
<title>Node3</title>
<g id="a_node4"><a xlink:href="structPDI_1_1Expression_1_1Impl_1_1Reference__expression.html" target="_top" xlink:title="PDI::Expression::Impl\l::Reference_expression">
<polygon fill="#ffffff" stroke="#000000" points="151,-49.5 151,-79.5 279,-79.5 279,-49.5 151,-49.5"/>
<text text-anchor="start" x="159" y="-67.5" font-family="Helvetica,sans-Serif" font-size="10.00" fill="#000000">PDI::Expression::Impl</text>
<text text-anchor="middle" x="215" y="-56.5" font-family="Helvetica,sans-Serif" font-size="10.00" fill="#000000">::Reference_expression</text>
</a>
</g>
</g>
<!-- Node0&#45;&gt;Node3 -->
<g id="edge3" class="edge">
<title>Node0&#45;&gt;Node3</title>
<path fill="none" stroke="#191970" d="M125.1616,-78.1897C133.6926,-76.8897 142.4008,-75.5627 150.8748,-74.2715"/>
<polygon fill="#191970" stroke="#191970" points="124.6115,-74.733 115.2529,-79.6996 125.666,-81.6531 124.6115,-74.733"/>
</g>
<!-- Node4 -->
<g id="node5" class="node">
<title>Node4</title>
<g id="a_node5"><a xlink:href="structPDI_1_1Expression_1_1Impl_1_1String__literal.html" target="_top" xlink:title="PDI::Expression::Impl\l::String_literal">
<polygon fill="#ffffff" stroke="#000000" points="157.5,-.5 157.5,-30.5 272.5,-30.5 272.5,-.5 157.5,-.5"/>
<text text-anchor="start" x="165.5" y="-18.5" font-family="Helvetica,sans-Serif" font-size="10.00" fill="#000000">PDI::Expression::Impl</text>
<text text-anchor="middle" x="215" y="-7.5" font-family="Helvetica,sans-Serif" font-size="10.00" fill="#000000">::String_literal</text>
</a>
</g>
</g>
<!-- Node0&#45;&gt;Node4 -->
<g id="edge4" class="edge">
<title>Node0&#45;&gt;Node4</title>
<path fill="none" stroke="#191970" d="M83.8265,-74.0733C102.3699,-64.1378 127.9086,-50.9047 151,-40.5 158.5042,-37.1187 166.6126,-33.7439 174.4543,-30.6179"/>
<polygon fill="#191970" stroke="#191970" points="81.9548,-71.1062 74.8171,-78.9359 85.2796,-77.2663 81.9548,-71.1062"/>
</g>
</g>
</svg>
