<?xml version="1.0" encoding="UTF-8" standalone="no"?>
<!DOCTYPE svg PUBLIC "-//W3C//DTD SVG 1.1//EN"
 "http://www.w3.org/Graphics/SVG/1.1/DTD/svg11.dtd">
<!-- Generated by graphviz version 2.40.1 (20161225.0304)
 -->
<!-- Title: /home/jbigot/data/projects/pdi/pdi/include/pdi/paraconf_wrapper.h Pages: 1 -->
<svg width="361pt" height="218pt"
 viewBox="0.00 0.00 361.00 218.00" xmlns="http://www.w3.org/2000/svg" xmlns:xlink="http://www.w3.org/1999/xlink">
<g id="graph0" class="graph" transform="scale(1 1) rotate(0) translate(4 214)">
<title>/home/jbigot/data/projects/pdi/pdi/include/pdi/paraconf_wrapper.h</title>
<polygon fill="#ffffff" stroke="transparent" points="-4,4 -4,-214 357,-214 357,4 -4,4"/>
<!-- Node0 -->
<g id="node1" class="node">
<title>Node0</title>
<polygon fill="#bfbfbf" stroke="#000000" points="0,-168.5 0,-209.5 149,-209.5 149,-168.5 0,-168.5"/>
<text text-anchor="start" x="8" y="-197.5" font-family="Helvetica,sans-Serif" font-size="10.00" fill="#000000">/home/jbigot/data/projects</text>
<text text-anchor="start" x="8" y="-186.5" font-family="Helvetica,sans-Serif" font-size="10.00" fill="#000000">/pdi/pdi/include/pdi/paraconf</text>
<text text-anchor="middle" x="74.5" y="-175.5" font-family="Helvetica,sans-Serif" font-size="10.00" fill="#000000">_wrapper.h</text>
</g>
<!-- Node1 -->
<g id="node2" class="node">
<title>Node1</title>
<polygon fill="#ffffff" stroke="#bfbfbf" points="3,-112.5 3,-131.5 46,-131.5 46,-112.5 3,-112.5"/>
<text text-anchor="middle" x="24.5" y="-119.5" font-family="Helvetica,sans-Serif" font-size="10.00" fill="#000000">string</text>
</g>
<!-- Node0&#45;&gt;Node1 -->
<g id="edge1" class="edge">
<title>Node0&#45;&gt;Node1</title>
<path fill="none" stroke="#191970" d="M58.9538,-168.168C52.2304,-159.1587 44.4372,-148.7159 37.9651,-140.0432"/>
<polygon fill="#191970" stroke="#191970" points="40.5848,-137.7015 31.7989,-131.7805 34.9747,-141.8881 40.5848,-137.7015"/>
</g>
<!-- Node2 -->
<g id="node3" class="node">
<title>Node2</title>
<polygon fill="#ffffff" stroke="#bfbfbf" points="41,-.5 41,-19.5 108,-19.5 108,-.5 41,-.5"/>
<text text-anchor="middle" x="74.5" y="-7.5" font-family="Helvetica,sans-Serif" font-size="10.00" fill="#000000">paraconf.h</text>
</g>
<!-- Node0&#45;&gt;Node2 -->
<g id="edge2" class="edge">
<title>Node0&#45;&gt;Node2</title>
<path fill="none" stroke="#191970" d="M74.5,-168.4664C74.5,-133.8145 74.5,-64.1656 74.5,-29.927"/>
<polygon fill="#191970" stroke="#191970" points="78.0001,-29.7748 74.5,-19.7749 71.0001,-29.7749 78.0001,-29.7748"/>
</g>
<!-- Node3 -->
<g id="node4" class="node">
<title>Node3</title>
<g id="a_node4"><a xlink:href="pdi__fwd_8h.html" target="_top" xlink:title="pdi/pdi_fwd.h">
<polygon fill="#ffffff" stroke="#000000" points="103,-112.5 103,-131.5 182,-131.5 182,-112.5 103,-112.5"/>
<text text-anchor="middle" x="142.5" y="-119.5" font-family="Helvetica,sans-Serif" font-size="10.00" fill="#000000">pdi/pdi_fwd.h</text>
</a>
</g>
</g>
<!-- Node0&#45;&gt;Node3 -->
<g id="edge3" class="edge">
<title>Node0&#45;&gt;Node3</title>
<path fill="none" stroke="#191970" d="M95.6429,-168.168C105.1716,-158.7794 116.2805,-147.834 125.2895,-138.9574"/>
<polygon fill="#191970" stroke="#191970" points="127.9068,-141.2921 132.5736,-131.7805 122.9938,-136.3058 127.9068,-141.2921"/>
</g>
<!-- Node4 -->
<g id="node5" class="node">
<title>Node4</title>
<polygon fill="#ffffff" stroke="#bfbfbf" points="108.5,-56.5 108.5,-75.5 162.5,-75.5 162.5,-56.5 108.5,-56.5"/>
<text text-anchor="middle" x="135.5" y="-63.5" font-family="Helvetica,sans-Serif" font-size="10.00" fill="#000000">memory</text>
</g>
<!-- Node3&#45;&gt;Node4 -->
<g id="edge4" class="edge">
<title>Node3&#45;&gt;Node4</title>
<path fill="none" stroke="#191970" d="M141.2807,-112.2455C140.3673,-104.9382 139.0868,-94.6944 137.9631,-85.7046"/>
<polygon fill="#191970" stroke="#191970" points="141.4187,-85.1313 136.7053,-75.6427 134.4728,-85.9996 141.4187,-85.1313"/>
</g>
<!-- Node5 -->
<g id="node6" class="node">
<title>Node5</title>
<g id="a_node6"><a xlink:href="pdi_8h.html" target="_top" xlink:title="pdi.h">
<polygon fill="#ffffff" stroke="#000000" points="181,-56.5 181,-75.5 220,-75.5 220,-56.5 181,-56.5"/>
<text text-anchor="middle" x="200.5" y="-63.5" font-family="Helvetica,sans-Serif" font-size="10.00" fill="#000000">pdi.h</text>
</a>
</g>
</g>
<!-- Node3&#45;&gt;Node5 -->
<g id="edge5" class="edge">
<title>Node3&#45;&gt;Node5</title>
<path fill="none" stroke="#191970" d="M152.6028,-112.2455C161.0028,-104.1352 173.1494,-92.4075 183.1084,-82.7919"/>
<polygon fill="#191970" stroke="#191970" points="185.75,-85.1066 190.5129,-75.6427 180.8878,-80.0707 185.75,-85.1066"/>
</g>
<!-- Node5&#45;&gt;Node2 -->
<g id="edge7" class="edge">
<title>Node5&#45;&gt;Node2</title>
<path fill="none" stroke="#191970" d="M180.8125,-57.25C160.6161,-48.2738 128.9095,-34.182 105.3722,-23.721"/>
<polygon fill="#191970" stroke="#191970" points="106.7198,-20.4898 96.1602,-19.6267 103.8768,-26.8865 106.7198,-20.4898"/>
</g>
<!-- Node6 -->
<g id="node7" class="node">
<title>Node6</title>
<polygon fill="#ffffff" stroke="#bfbfbf" points="126,-.5 126,-19.5 167,-19.5 167,-.5 126,-.5"/>
<text text-anchor="middle" x="146.5" y="-7.5" font-family="Helvetica,sans-Serif" font-size="10.00" fill="#000000">mpi.h</text>
</g>
<!-- Node5&#45;&gt;Node6 -->
<g id="edge6" class="edge">
<title>Node5&#45;&gt;Node6</title>
<path fill="none" stroke="#191970" d="M191.0939,-56.2455C183.3507,-48.2155 172.188,-36.6394 162.9682,-27.0781"/>
<polygon fill="#191970" stroke="#191970" points="165.2591,-24.4117 155.7983,-19.6427 160.2202,-29.2706 165.2591,-24.4117"/>
</g>
<!-- Node7 -->
<g id="node8" class="node">
<title>Node7</title>
<polygon fill="#ffffff" stroke="#bfbfbf" points="185.5,-.5 185.5,-19.5 257.5,-19.5 257.5,-.5 185.5,-.5"/>
<text text-anchor="middle" x="221.5" y="-7.5" font-family="Helvetica,sans-Serif" font-size="10.00" fill="#000000">pdi/export.h</text>
</g>
<!-- Node5&#45;&gt;Node7 -->
<g id="edge8" class="edge">
<title>Node5&#45;&gt;Node7</title>
<path fill="none" stroke="#191970" d="M204.1579,-56.2455C206.9584,-48.7776 210.909,-38.2427 214.3324,-29.1137"/>
<polygon fill="#191970" stroke="#191970" points="217.6499,-30.2349 217.884,-19.6427 211.0955,-27.777 217.6499,-30.2349"/>
</g>
<!-- Node8 -->
<g id="node9" class="node">
<title>Node8</title>
<polygon fill="#ffffff" stroke="#bfbfbf" points="276,-.5 276,-19.5 353,-19.5 353,-.5 276,-.5"/>
<text text-anchor="middle" x="314.5" y="-7.5" font-family="Helvetica,sans-Serif" font-size="10.00" fill="#000000">pdi/version.h</text>
</g>
<!-- Node5&#45;&gt;Node8 -->
<g id="edge9" class="edge">
<title>Node5&#45;&gt;Node8</title>
<path fill="none" stroke="#191970" d="M220.0973,-56.3733C238.2331,-47.4644 265.4135,-34.1127 285.9587,-24.0203"/>
<polygon fill="#191970" stroke="#191970" points="287.7261,-27.0517 295.1584,-19.5011 284.6397,-20.7688 287.7261,-27.0517"/>
</g>
</g>
</svg>
