<?xml version="1.0" encoding="UTF-8" standalone="no"?>
<!DOCTYPE svg PUBLIC "-//W3C//DTD SVG 1.1//EN"
 "http://www.w3.org/Graphics/SVG/1.1/DTD/svg11.dtd">
<!-- Generated by graphviz version 2.40.1 (20161225.0304)
 -->
<!-- Title: /home/jbigot/data/projects/pdi/pdi/src/pdi.cxx Pages: 1 -->
<!--zoomable 487 -->
<svg id="main" version="1.1" xmlns="http://www.w3.org/2000/svg" xmlns:xlink="http://www.w3.org/1999/xlink" xml:space="preserve" onload="init(evt)">
<style type="text/css"><![CDATA[
.edge:hover path { stroke: red; }
.edge:hover polygon { stroke: red; fill: red; }
]]></style>
<script type="text/javascript"><![CDATA[
var edges = document.getElementsByTagName('g');
if (edges && edges.length) {
  for (var i=0;i<edges.length;i++) {
    if (edges[i].id.substr(0,4)=='edge') {
      edges[i].setAttribute('class','edge');
    }
  }
}
]]></script>
        <defs>
                <circle id="rim" cx="0" cy="0" r="7"/>
                <circle id="rim2" cx="0" cy="0" r="3.5"/>
                <g id="zoomPlus">
                        <use xlink:href="#rim" fill="#404040">
                                <set attributeName="fill" to="#808080" begin="zoomplus.mouseover" end="zoomplus.mouseout"/>
                        </use>
                        <path d="M-4,0h8M0,-4v8" fill="none" stroke="white" stroke-width="1.5" pointer-events="none"/>
                </g>
                <g id="zoomMin">
                        <use xlink:href="#rim" fill="#404040">
                                <set attributeName="fill" to="#808080" begin="zoomminus.mouseover" end="zoomminus.mouseout"/>
                        </use>
                        <path d="M-4,0h8" fill="none" stroke="white" stroke-width="1.5" pointer-events="none"/>
                </g>
                <g id="dirArrow">
                        <path fill="none" stroke="white" stroke-width="1.5" d="M0,-3.0v7 M-2.5,-0.5L0,-3.0L2.5,-0.5"/>
                </g>
               <g id="resetDef">
                       <use xlink:href="#rim2" fill="#404040">
                               <set attributeName="fill" to="#808080" begin="reset.mouseover" end="reset.mouseout"/>
                       </use>
               </g>
        </defs>

<script type="text/javascript">
var viewWidth = 1338;
var viewHeight = 487;
var sectionId = 'dynsection-0';
</script>
<script xlink:href="svgpan.js"/>
<svg id="graph" class="graph">
<g id="viewport">
<title>/home/jbigot/data/projects/pdi/pdi/src/pdi.cxx</title>
<polygon fill="#ffffff" stroke="transparent" points="-4,4 -4,-483 1333.5,-483 1333.5,4 -4,4"/>
<!-- Node0 -->
<g id="node1" class="node">
<title>Node0</title>
<polygon fill="#bfbfbf" stroke="#000000" points="369.5,-448.5 369.5,-478.5 507.5,-478.5 507.5,-448.5 369.5,-448.5"/>
<text text-anchor="start" x="377.5" y="-466.5" font-family="Helvetica,sans-Serif" font-size="10.00" fill="#000000">/home/jbigot/data/projects</text>
<text text-anchor="middle" x="438.5" y="-455.5" font-family="Helvetica,sans-Serif" font-size="10.00" fill="#000000">/pdi/pdi/src/pdi.cxx</text>
</g>
<!-- Node1 -->
<g id="node2" class="node">
<title>Node1</title>
<polygon fill="#ffffff" stroke="#bfbfbf" points="0,-392.5 0,-411.5 53,-411.5 53,-392.5 0,-392.5"/>
<text text-anchor="middle" x="26.5" y="-399.5" font-family="Helvetica,sans-Serif" font-size="10.00" fill="#000000">config.h</text>
</g>
<!-- Node0&#45;&gt;Node1 -->
<g id="edge1" class="edge">
<title>Node0&#45;&gt;Node1</title>
<path fill="none" stroke="#191970" d="M369.2001,-457.0264C295.4142,-449.4607 175.1487,-435.2039 63.2613,-412.1508"/>
<polygon fill="#191970" stroke="#191970" points="63.6595,-408.6585 53.155,-410.0394 62.2279,-415.5105 63.6595,-408.6585"/>
</g>
<!-- Node2 -->
<g id="node3" class="node">
<title>Node2</title>
<polygon fill="#ffffff" stroke="#bfbfbf" points="71,-392.5 71,-411.5 122,-411.5 122,-392.5 71,-392.5"/>
<text text-anchor="middle" x="96.5" y="-399.5" font-family="Helvetica,sans-Serif" font-size="10.00" fill="#000000">cstddef</text>
</g>
<!-- Node0&#45;&gt;Node2 -->
<g id="edge2" class="edge">
<title>Node0&#45;&gt;Node2</title>
<path fill="none" stroke="#191970" d="M369.2496,-453.2251C307.8548,-443.7512 215.8803,-428.6657 136.5,-412 135.0551,-411.6967 133.5834,-411.3773 132.0986,-411.0464"/>
<polygon fill="#191970" stroke="#191970" points="132.7885,-407.6134 122.2542,-408.7446 131.1947,-414.4295 132.7885,-407.6134"/>
</g>
<!-- Node3 -->
<g id="node4" class="node">
<title>Node3</title>
<polygon fill="#ffffff" stroke="#bfbfbf" points="315.5,-168.5 315.5,-187.5 377.5,-187.5 377.5,-168.5 315.5,-168.5"/>
<text text-anchor="middle" x="346.5" y="-175.5" font-family="Helvetica,sans-Serif" font-size="10.00" fill="#000000">exception</text>
</g>
<!-- Node0&#45;&gt;Node3 -->
<g id="edge3" class="edge">
<title>Node0&#45;&gt;Node3</title>
<path fill="none" stroke="#191970" d="M414.7561,-448.484C402.5039,-439.442 388.4884,-426.8162 380.5,-412 341.9523,-340.5054 342.6806,-239.7441 344.9997,-197.6636"/>
<polygon fill="#191970" stroke="#191970" points="348.4954,-197.8421 345.6487,-187.6369 341.51,-197.3899 348.4954,-197.8421"/>
</g>
<!-- Node4 -->
<g id="node5" class="node">
<title>Node4</title>
<polygon fill="#ffffff" stroke="#bfbfbf" points="1116,-392.5 1116,-411.5 1173,-411.5 1173,-392.5 1116,-392.5"/>
<text text-anchor="middle" x="1144.5" y="-399.5" font-family="Helvetica,sans-Serif" font-size="10.00" fill="#000000">iostream</text>
</g>
<!-- Node0&#45;&gt;Node4 -->
<g id="edge4" class="edge">
<title>Node0&#45;&gt;Node4</title>
<path fill="none" stroke="#191970" d="M507.6143,-461.5648C628.6129,-457.4136 886.4176,-445.1688 1101.5,-412 1102.9676,-411.7737 1104.4594,-411.5243 1105.9633,-411.2567"/>
<polygon fill="#191970" stroke="#191970" points="1106.8092,-414.6572 1115.9361,-409.2767 1105.4459,-407.7912 1106.8092,-414.6572"/>
</g>
<!-- Node5 -->
<g id="node6" class="node">
<title>Node5</title>
<polygon fill="#ffffff" stroke="#bfbfbf" points="176,-168.5 176,-187.5 219,-187.5 219,-168.5 176,-168.5"/>
<text text-anchor="middle" x="197.5" y="-175.5" font-family="Helvetica,sans-Serif" font-size="10.00" fill="#000000">string</text>
</g>
<!-- Node0&#45;&gt;Node5 -->
<g id="edge5" class="edge">
<title>Node0&#45;&gt;Node5</title>
<path fill="none" stroke="#191970" d="M379.8861,-448.435C305.9936,-427.6881 188.5,-388.0828 188.5,-346 188.5,-346 188.5,-346 188.5,-290 188.5,-257.6075 192.2867,-220.1141 194.9477,-197.7662"/>
<polygon fill="#191970" stroke="#191970" points="198.455,-197.9219 196.2105,-187.5676 191.5081,-197.0616 198.455,-197.9219"/>
</g>
<!-- Node6 -->
<g id="node7" class="node">
<title>Node6</title>
<polygon fill="#ffffff" stroke="#bfbfbf" points="1191.5,-392.5 1191.5,-411.5 1245.5,-411.5 1245.5,-392.5 1191.5,-392.5"/>
<text text-anchor="middle" x="1218.5" y="-399.5" font-family="Helvetica,sans-Serif" font-size="10.00" fill="#000000">sstream</text>
</g>
<!-- Node0&#45;&gt;Node6 -->
<g id="edge6" class="edge">
<title>Node0&#45;&gt;Node6</title>
<path fill="none" stroke="#191970" d="M507.526,-460.5061C662.6179,-453.4967 1035.8154,-434.982 1181.055,-411.892"/>
<polygon fill="#191970" stroke="#191970" points="1181.8208,-415.3129 1191.1122,-410.2217 1180.6739,-408.4074 1181.8208,-415.3129"/>
</g>
<!-- Node7 -->
<g id="node8" class="node">
<title>Node7</title>
<polygon fill="#ffffff" stroke="#bfbfbf" points="1263.5,-392.5 1263.5,-411.5 1329.5,-411.5 1329.5,-392.5 1263.5,-392.5"/>
<text text-anchor="middle" x="1296.5" y="-399.5" font-family="Helvetica,sans-Serif" font-size="10.00" fill="#000000">type_traits</text>
</g>
<!-- Node0&#45;&gt;Node7 -->
<g id="edge7" class="edge">
<title>Node0&#45;&gt;Node7</title>
<path fill="none" stroke="#191970" d="M507.7892,-460.6515C673.9787,-453.5789 1092.7068,-434.2725 1252.9538,-411.9621"/>
<polygon fill="#191970" stroke="#191970" points="1253.7348,-415.3856 1263.1298,-410.4883 1252.7314,-408.4579 1253.7348,-415.3856"/>
</g>
<!-- Node8 -->
<g id="node9" class="node">
<title>Node8</title>
<polygon fill="#ffffff" stroke="#bfbfbf" points="395.5,-336.5 395.5,-355.5 481.5,-355.5 481.5,-336.5 395.5,-336.5"/>
<text text-anchor="middle" x="438.5" y="-343.5" font-family="Helvetica,sans-Serif" font-size="10.00" fill="#000000">unordered_set</text>
</g>
<!-- Node0&#45;&gt;Node8 -->
<g id="edge8" class="edge">
<title>Node0&#45;&gt;Node8</title>
<path fill="none" stroke="#191970" d="M438.5,-448.1389C438.5,-426.9692 438.5,-388.8174 438.5,-365.6112"/>
<polygon fill="#191970" stroke="#191970" points="442.0001,-365.5594 438.5,-355.5595 435.0001,-365.5595 442.0001,-365.5594"/>
</g>
<!-- Node9 -->
<g id="node10" class="node">
<title>Node9</title>
<g id="a_node10"><a xlink:href="context_8h.html" target="_top" xlink:title="pdi/context.h">
<polygon fill="#ffffff" stroke="#000000" points="590,-392.5 590,-411.5 667,-411.5 667,-392.5 590,-392.5"/>
<text text-anchor="middle" x="628.5" y="-399.5" font-family="Helvetica,sans-Serif" font-size="10.00" fill="#000000">pdi/context.h</text>
</a>
</g>
</g>
<!-- Node0&#45;&gt;Node9 -->
<g id="edge9" class="edge">
<title>Node0&#45;&gt;Node9</title>
<path fill="none" stroke="#191970" d="M484.9792,-448.4554C516.9593,-438.104 558.9671,-424.5067 589.2629,-414.7004"/>
<polygon fill="#191970" stroke="#191970" points="590.6206,-417.9398 599.0567,-411.5303 588.4649,-411.28 590.6206,-417.9398"/>
</g>
<!-- Node20 -->
<g id="node21" class="node">
<title>Node20</title>
<g id="a_node21"><a xlink:href="data__descriptor_8h.html" target="_top" xlink:title="pdi/data_descriptor.h">
<polygon fill="#ffffff" stroke="#000000" points="737.5,-336.5 737.5,-355.5 853.5,-355.5 853.5,-336.5 737.5,-336.5"/>
<text text-anchor="middle" x="795.5" y="-343.5" font-family="Helvetica,sans-Serif" font-size="10.00" fill="#000000">pdi/data_descriptor.h</text>
</a>
</g>
</g>
<!-- Node0&#45;&gt;Node20 -->
<g id="edge49" class="edge">
<title>Node0&#45;&gt;Node20</title>
<path fill="none" stroke="#191970" d="M507.7321,-454.0241C556.059,-446.0919 621.4983,-432.6866 676.5,-412 712.0282,-398.6375 749.8352,-376.0501 773.0656,-361.0809"/>
<polygon fill="#191970" stroke="#191970" points="775.0523,-363.9637 781.5067,-355.5619 771.2215,-358.1049 775.0523,-363.9637"/>
</g>
<!-- Node23 -->
<g id="node24" class="node">
<title>Node23</title>
<g id="a_node24"><a xlink:href="ref__any_8h.html" target="_top" xlink:title="pdi/ref_any.h">
<polygon fill="#ffffff" stroke="#000000" points="546.5,-280.5 546.5,-299.5 624.5,-299.5 624.5,-280.5 546.5,-280.5"/>
<text text-anchor="middle" x="585.5" y="-287.5" font-family="Helvetica,sans-Serif" font-size="10.00" fill="#000000">pdi/ref_any.h</text>
</a>
</g>
</g>
<!-- Node0&#45;&gt;Node23 -->
<g id="edge56" class="edge">
<title>Node0&#45;&gt;Node23</title>
<path fill="none" stroke="#191970" d="M423.1395,-448.3311C399.2476,-422.8933 358.6762,-370.9891 386.5,-336 404.8632,-312.9078 483.4372,-300.4001 536.1859,-294.4738"/>
<polygon fill="#191970" stroke="#191970" points="536.7992,-297.928 546.3658,-293.3751 536.048,-290.9684 536.7992,-297.928"/>
</g>
<!-- Node26 -->
<g id="node27" class="node">
<title>Node26</title>
<g id="a_node27"><a xlink:href="datatype_8h.html" target="_top" xlink:title="pdi/datatype.h">
<polygon fill="#ffffff" stroke="#000000" points="881,-224.5 881,-243.5 964,-243.5 964,-224.5 881,-224.5"/>
<text text-anchor="middle" x="922.5" y="-231.5" font-family="Helvetica,sans-Serif" font-size="10.00" fill="#000000">pdi/datatype.h</text>
</a>
</g>
</g>
<!-- Node0&#45;&gt;Node26 -->
<g id="edge58" class="edge">
<title>Node0&#45;&gt;Node26</title>
<path fill="none" stroke="#191970" d="M507.5013,-453.9358C613.7307,-437.9355 810.5247,-402.829 862.5,-356 893.6327,-327.9499 910.4412,-280.129 917.8199,-253.4508"/>
<polygon fill="#191970" stroke="#191970" points="921.217,-254.2938 920.3455,-243.7348 914.4421,-252.5326 921.217,-254.2938"/>
</g>
<!-- Node27 -->
<g id="node28" class="node">
<title>Node27</title>
<g id="a_node28"><a xlink:href="error_8h.html" target="_top" xlink:title="pdi/error.h">
<polygon fill="#ffffff" stroke="#000000" points="255,-224.5 255,-243.5 320,-243.5 320,-224.5 255,-224.5"/>
<text text-anchor="middle" x="287.5" y="-231.5" font-family="Helvetica,sans-Serif" font-size="10.00" fill="#000000">pdi/error.h</text>
</a>
</g>
</g>
<!-- Node0&#45;&gt;Node27 -->
<g id="edge57" class="edge">
<title>Node0&#45;&gt;Node27</title>
<path fill="none" stroke="#191970" d="M369.5285,-448.4239C349.2964,-440.7362 329.0021,-429.2135 315.5,-412 278.7405,-365.1362 281.1715,-289.5227 284.8316,-253.8454"/>
<polygon fill="#191970" stroke="#191970" points="288.3267,-254.0918 286.0151,-243.7522 281.3743,-253.2765 288.3267,-254.0918"/>
</g>
<!-- Node28 -->
<g id="node29" class="node">
<title>Node28</title>
<g id="a_node29"><a xlink:href="paraconf__wrapper_8h.html" target="_top" xlink:title="pdi/paraconf_wrapper.h">
<polygon fill="#ffffff" stroke="#000000" points="31,-224.5 31,-243.5 160,-243.5 160,-224.5 31,-224.5"/>
<text text-anchor="middle" x="95.5" y="-231.5" font-family="Helvetica,sans-Serif" font-size="10.00" fill="#000000">pdi/paraconf_wrapper.h</text>
</a>
</g>
</g>
<!-- Node0&#45;&gt;Node28 -->
<g id="edge50" class="edge">
<title>Node0&#45;&gt;Node28</title>
<path fill="none" stroke="#191970" d="M369.1921,-457.2352C301.3388,-449.8465 203.9889,-435.501 174.5,-412 123.4621,-371.3256 104.4761,-290.7871 98.224,-253.6275"/>
<polygon fill="#191970" stroke="#191970" points="101.6575,-252.9281 96.6711,-243.5801 94.7396,-253.9974 101.6575,-252.9281"/>
</g>
<!-- Node29 -->
<g id="node30" class="node">
<title>Node29</title>
<g id="a_node30"><a xlink:href="plugin_8h.html" target="_top" xlink:title="pdi/plugin.h">
<polygon fill="#ffffff" stroke="#000000" points="1134.5,-280.5 1134.5,-299.5 1204.5,-299.5 1204.5,-280.5 1134.5,-280.5"/>
<text text-anchor="middle" x="1169.5" y="-287.5" font-family="Helvetica,sans-Serif" font-size="10.00" fill="#000000">pdi/plugin.h</text>
</a>
</g>
</g>
<!-- Node0&#45;&gt;Node29 -->
<g id="edge54" class="edge">
<title>Node0&#45;&gt;Node29</title>
<path fill="none" stroke="#191970" d="M507.5464,-460.3923C637.6672,-454.0163 914.3826,-437.843 1006.5,-412 1060.8513,-396.752 1077.1213,-392.1228 1120.5,-356 1136.5385,-342.6442 1150.244,-323.0079 1159.0476,-308.6261"/>
<polygon fill="#191970" stroke="#191970" points="1162.2738,-310.0445 1164.3276,-299.6506 1156.2404,-306.4951 1162.2738,-310.0445"/>
</g>
<!-- Node9&#45;&gt;Node5 -->
<g id="edge14" class="edge">
<title>Node9&#45;&gt;Node5</title>
<path fill="none" stroke="#191970" d="M608.8612,-392.4909C573.6157,-375.4425 502.1975,-340.9824 490.5,-336 383.4897,-290.4206 338.0519,-314.4474 245.5,-244 229.012,-231.4499 215.697,-211.6988 207.3108,-197.0703"/>
<polygon fill="#191970" stroke="#191970" points="210.1763,-195.0146 202.314,-187.9128 204.0315,-198.3675 210.1763,-195.0146"/>
</g>
<!-- Node9&#45;&gt;Node8 -->
<g id="edge16" class="edge">
<title>Node9&#45;&gt;Node8</title>
<path fill="none" stroke="#191970" d="M595.8378,-392.3733C563.9702,-382.9807 515.3469,-368.6496 480.593,-358.4064"/>
<polygon fill="#191970" stroke="#191970" points="481.3175,-354.9711 470.736,-355.5011 479.3385,-361.6855 481.3175,-354.9711"/>
</g>
<!-- Node10 -->
<g id="node11" class="node">
<title>Node10</title>
<polygon fill="#ffffff" stroke="#bfbfbf" points="1131,-.5 1131,-19.5 1172,-19.5 1172,-.5 1131,-.5"/>
<text text-anchor="middle" x="1151.5" y="-7.5" font-family="Helvetica,sans-Serif" font-size="10.00" fill="#000000">mpi.h</text>
</g>
<!-- Node9&#45;&gt;Node10 -->
<g id="edge10" class="edge">
<title>Node9&#45;&gt;Node10</title>
<path fill="none" stroke="#191970" d="M667.1342,-397.5012C730.8253,-389.7261 854.8632,-372.9715 895.5,-356 1021.0279,-303.5746 1144.5,-314.0356 1144.5,-178 1144.5,-178 1144.5,-178 1144.5,-122 1144.5,-89.6486 1147.4452,-52.1429 1149.5149,-29.7814"/>
<polygon fill="#191970" stroke="#191970" points="1153.0229,-29.8651 1150.4971,-19.5758 1146.0551,-29.1945 1153.0229,-29.8651"/>
</g>
<!-- Node11 -->
<g id="node12" class="node">
<title>Node11</title>
<polygon fill="#ffffff" stroke="#bfbfbf" points="614,-336.5 614,-355.5 643,-355.5 643,-336.5 614,-336.5"/>
<text text-anchor="middle" x="628.5" y="-343.5" font-family="Helvetica,sans-Serif" font-size="10.00" fill="#000000">list</text>
</g>
<!-- Node9&#45;&gt;Node11 -->
<g id="edge11" class="edge">
<title>Node9&#45;&gt;Node11</title>
<path fill="none" stroke="#191970" d="M628.5,-392.2455C628.5,-384.9382 628.5,-374.6944 628.5,-365.7046"/>
<polygon fill="#191970" stroke="#191970" points="632.0001,-365.6426 628.5,-355.6427 625.0001,-365.6427 632.0001,-365.6426"/>
</g>
<!-- Node12 -->
<g id="node13" class="node">
<title>Node12</title>
<polygon fill="#ffffff" stroke="#bfbfbf" points="574.5,-56.5 574.5,-75.5 628.5,-75.5 628.5,-56.5 574.5,-56.5"/>
<text text-anchor="middle" x="601.5" y="-63.5" font-family="Helvetica,sans-Serif" font-size="10.00" fill="#000000">memory</text>
</g>
<!-- Node9&#45;&gt;Node12 -->
<g id="edge12" class="edge">
<title>Node9&#45;&gt;Node12</title>
<path fill="none" stroke="#191970" d="M613.471,-392.4534C565.438,-361.7899 418.1001,-266.494 406.5,-244 365.8505,-165.1756 498.0367,-103.8228 565.021,-78.5585"/>
<polygon fill="#191970" stroke="#191970" points="566.2336,-81.8418 574.4025,-75.095 563.8092,-75.275 566.2336,-81.8418"/>
</g>
<!-- Node13 -->
<g id="node14" class="node">
<title>Node13</title>
<polygon fill="#ffffff" stroke="#bfbfbf" points="703,-280.5 703,-299.5 744,-299.5 744,-280.5 703,-280.5"/>
<text text-anchor="middle" x="723.5" y="-287.5" font-family="Helvetica,sans-Serif" font-size="10.00" fill="#000000">stack</text>
</g>
<!-- Node9&#45;&gt;Node13 -->
<g id="edge13" class="edge">
<title>Node9&#45;&gt;Node13</title>
<path fill="none" stroke="#191970" d="M643.3513,-392.33C655.669,-383.8018 673.1086,-370.5014 685.5,-356 697.8028,-341.6022 708.2345,-322.6545 715.0374,-308.7555"/>
<polygon fill="#191970" stroke="#191970" points="718.2249,-310.2021 719.3246,-299.6644 711.8936,-307.2163 718.2249,-310.2021"/>
</g>
<!-- Node14 -->
<g id="node15" class="node">
<title>Node14</title>
<polygon fill="#ffffff" stroke="#bfbfbf" points="614.5,-224.5 614.5,-243.5 706.5,-243.5 706.5,-224.5 614.5,-224.5"/>
<text text-anchor="middle" x="660.5" y="-231.5" font-family="Helvetica,sans-Serif" font-size="10.00" fill="#000000">unordered_map</text>
</g>
<!-- Node9&#45;&gt;Node14 -->
<g id="edge15" class="edge">
<title>Node9&#45;&gt;Node14</title>
<path fill="none" stroke="#191970" d="M635.1116,-392.273C640.8325,-383.2906 648.7574,-369.3575 652.5,-356 662.2887,-321.0638 662.5722,-278.3915 661.6797,-253.8889"/>
<polygon fill="#191970" stroke="#191970" points="665.1673,-253.5416 661.2002,-243.7175 658.1751,-253.8712 665.1673,-253.5416"/>
</g>
<!-- Node15 -->
<g id="node16" class="node">
<title>Node15</title>
<g id="a_node16"><a xlink:href="pdi__fwd_8h.html" target="_top" xlink:title="pdi/pdi_fwd.h">
<polygon fill="#ffffff" stroke="#000000" points="893,-112.5 893,-131.5 972,-131.5 972,-112.5 893,-112.5"/>
<text text-anchor="middle" x="932.5" y="-119.5" font-family="Helvetica,sans-Serif" font-size="10.00" fill="#000000">pdi/pdi_fwd.h</text>
</a>
</g>
</g>
<!-- Node9&#45;&gt;Node15 -->
<g id="edge17" class="edge">
<title>Node9&#45;&gt;Node15</title>
<path fill="none" stroke="#191970" d="M667.1893,-399.2616C714.7811,-394.8112 797.2768,-383.5378 862.5,-356 902.8195,-338.9767 911.1428,-329.4697 943.5,-300 967.523,-278.1208 979.385,-274.5329 990.5,-244 996.7715,-226.7722 990.7609,-181.9255 983.5,-168 977.212,-155.9404 966.4028,-145.4953 956.3496,-137.6201"/>
<polygon fill="#191970" stroke="#191970" points="958.3293,-134.7316 948.1985,-131.6304 954.1842,-140.3723 958.3293,-134.7316"/>
</g>
<!-- Node9&#45;&gt;Node20 -->
<g id="edge24" class="edge">
<title>Node9&#45;&gt;Node20</title>
<path fill="none" stroke="#191970" d="M657.2083,-392.3733C684.8577,-383.1016 726.8576,-369.0178 757.3166,-358.804"/>
<polygon fill="#191970" stroke="#191970" points="758.7979,-361.9989 767.1663,-355.5011 756.5724,-355.3621 758.7979,-361.9989"/>
</g>
<!-- Node9&#45;&gt;Node23 -->
<g id="edge48" class="edge">
<title>Node9&#45;&gt;Node23</title>
<path fill="none" stroke="#191970" d="M623.072,-392.3503C618.0664,-383.1915 610.6528,-368.9407 605.5,-356 599.4098,-340.7052 594.0921,-322.8003 590.474,-309.5014"/>
<polygon fill="#191970" stroke="#191970" points="593.7897,-308.3486 587.8549,-299.5721 587.0212,-310.1341 593.7897,-308.3486"/>
</g>
<!-- Node15&#45;&gt;Node12 -->
<g id="edge18" class="edge">
<title>Node15&#45;&gt;Node12</title>
<path fill="none" stroke="#191970" d="M892.9024,-115.3007C828.3706,-104.3829 701.427,-82.9061 638.569,-72.2715"/>
<polygon fill="#191970" stroke="#191970" points="639.1325,-68.8172 628.6887,-70.5999 637.9647,-75.7191 639.1325,-68.8172"/>
</g>
<!-- Node16 -->
<g id="node17" class="node">
<title>Node16</title>
<g id="a_node17"><a xlink:href="pdi_8h.html" target="_top" xlink:title="pdi.h">
<polygon fill="#ffffff" stroke="#000000" points="1064,-56.5 1064,-75.5 1103,-75.5 1103,-56.5 1064,-56.5"/>
<text text-anchor="middle" x="1083.5" y="-63.5" font-family="Helvetica,sans-Serif" font-size="10.00" fill="#000000">pdi.h</text>
</a>
</g>
</g>
<!-- Node15&#45;&gt;Node16 -->
<g id="edge19" class="edge">
<title>Node15&#45;&gt;Node16</title>
<path fill="none" stroke="#191970" d="M958.4578,-112.3733C985.0431,-102.5138 1026.3015,-87.2127 1054.0812,-76.9103"/>
<polygon fill="#191970" stroke="#191970" points="1055.4949,-80.119 1063.6539,-73.3601 1053.0609,-73.5558 1055.4949,-80.119"/>
</g>
<!-- Node16&#45;&gt;Node10 -->
<g id="edge20" class="edge">
<title>Node16&#45;&gt;Node10</title>
<path fill="none" stroke="#191970" d="M1095.3447,-56.2455C1105.388,-47.9746 1119.9995,-35.9416 1131.8004,-26.2232"/>
<polygon fill="#191970" stroke="#191970" points="1134.2967,-28.7015 1139.791,-19.6427 1129.8467,-23.298 1134.2967,-28.7015"/>
</g>
<!-- Node17 -->
<g id="node18" class="node">
<title>Node17</title>
<polygon fill="#ffffff" stroke="#bfbfbf" points="819,-.5 819,-19.5 886,-19.5 886,-.5 819,-.5"/>
<text text-anchor="middle" x="852.5" y="-7.5" font-family="Helvetica,sans-Serif" font-size="10.00" fill="#000000">paraconf.h</text>
</g>
<!-- Node16&#45;&gt;Node17 -->
<g id="edge21" class="edge">
<title>Node16&#45;&gt;Node17</title>
<path fill="none" stroke="#191970" d="M1063.7764,-59.9934C1059.1098,-58.6294 1054.1407,-57.2232 1049.5,-56 997.0136,-42.1654 936.1021,-28.2699 896.0667,-19.429"/>
<polygon fill="#191970" stroke="#191970" points="896.6238,-15.968 886.1055,-17.2386 895.1204,-22.8047 896.6238,-15.968"/>
</g>
<!-- Node18 -->
<g id="node19" class="node">
<title>Node18</title>
<polygon fill="#ffffff" stroke="#bfbfbf" points="1040.5,-.5 1040.5,-19.5 1112.5,-19.5 1112.5,-.5 1040.5,-.5"/>
<text text-anchor="middle" x="1076.5" y="-7.5" font-family="Helvetica,sans-Serif" font-size="10.00" fill="#000000">pdi/export.h</text>
</g>
<!-- Node16&#45;&gt;Node18 -->
<g id="edge22" class="edge">
<title>Node16&#45;&gt;Node18</title>
<path fill="none" stroke="#191970" d="M1082.2807,-56.2455C1081.3673,-48.9382 1080.0868,-38.6944 1078.9631,-29.7046"/>
<polygon fill="#191970" stroke="#191970" points="1082.4187,-29.1313 1077.7053,-19.6427 1075.4728,-29.9996 1082.4187,-29.1313"/>
</g>
<!-- Node19 -->
<g id="node20" class="node">
<title>Node19</title>
<polygon fill="#ffffff" stroke="#bfbfbf" points="945,-.5 945,-19.5 1022,-19.5 1022,-.5 945,-.5"/>
<text text-anchor="middle" x="983.5" y="-7.5" font-family="Helvetica,sans-Serif" font-size="10.00" fill="#000000">pdi/version.h</text>
</g>
<!-- Node16&#45;&gt;Node19 -->
<g id="edge23" class="edge">
<title>Node16&#45;&gt;Node19</title>
<path fill="none" stroke="#191970" d="M1066.0813,-56.2455C1050.4515,-47.4928 1027.2981,-34.527 1009.4815,-24.5496"/>
<polygon fill="#191970" stroke="#191970" points="1011.1543,-21.475 1000.7191,-19.6427 1007.734,-27.5825 1011.1543,-21.475"/>
</g>
<!-- Node20&#45;&gt;Node12 -->
<g id="edge26" class="edge">
<title>Node20&#45;&gt;Node12</title>
<path fill="none" stroke="#191970" d="M798.1908,-336.2105C803.5568,-314.6726 813.5924,-262.0687 795.5,-224 761.5559,-152.5775 677.781,-102.8344 632.2142,-80.056"/>
<polygon fill="#191970" stroke="#191970" points="633.6241,-76.8495 623.1024,-75.6065 630.5525,-83.1396 633.6241,-76.8495"/>
</g>
<!-- Node20&#45;&gt;Node13 -->
<g id="edge27" class="edge">
<title>Node20&#45;&gt;Node13</title>
<path fill="none" stroke="#191970" d="M782.9586,-336.2455C772.2213,-327.8943 756.5527,-315.7076 743.9953,-305.9408"/>
<polygon fill="#191970" stroke="#191970" points="745.9401,-303.0194 735.8977,-299.6427 741.6425,-308.5449 745.9401,-303.0194"/>
</g>
<!-- Node20&#45;&gt;Node15 -->
<g id="edge29" class="edge">
<title>Node20&#45;&gt;Node15</title>
<path fill="none" stroke="#191970" d="M833.5037,-336.4806C876.2153,-323.5205 943.4978,-295.7713 973.5,-244 993.3568,-209.7355 966.0673,-164.4394 947.3948,-139.8098"/>
<polygon fill="#191970" stroke="#191970" points="949.9552,-137.4048 941.0086,-131.7295 944.4633,-141.7453 949.9552,-137.4048"/>
</g>
<!-- Node20&#45;&gt;Node17 -->
<g id="edge28" class="edge">
<title>Node20&#45;&gt;Node17</title>
<path fill="none" stroke="#191970" d="M853.6318,-336.7699C903.4634,-325.1353 970.3082,-299.4672 990.5,-244 1001.9087,-212.6602 1032.8826,-208.1081 981.5,-112 959.5414,-70.9277 913.1889,-40.7832 882.4464,-24.3166"/>
<polygon fill="#191970" stroke="#191970" points="883.9392,-21.1481 873.451,-19.6485 880.7148,-27.3613 883.9392,-21.1481"/>
</g>
<!-- Node21 -->
<g id="node22" class="node">
<title>Node21</title>
<polygon fill="#ffffff" stroke="#bfbfbf" points="724.5,-224.5 724.5,-243.5 786.5,-243.5 786.5,-224.5 724.5,-224.5"/>
<text text-anchor="middle" x="755.5" y="-231.5" font-family="Helvetica,sans-Serif" font-size="10.00" fill="#000000">functional</text>
</g>
<!-- Node20&#45;&gt;Node21 -->
<g id="edge25" class="edge">
<title>Node20&#45;&gt;Node21</title>
<path fill="none" stroke="#191970" d="M792.0896,-336.4509C785.5067,-318.0186 770.9376,-277.2254 762.3011,-253.043"/>
<polygon fill="#191970" stroke="#191970" points="765.5613,-251.7651 758.9017,-243.5249 758.9691,-254.1195 765.5613,-251.7651"/>
</g>
<!-- Node22 -->
<g id="node23" class="node">
<title>Node22</title>
<g id="a_node23"><a xlink:href="datatype__template_8h.html" target="_top" xlink:title="pdi/datatype_template.h">
<polygon fill="#ffffff" stroke="#000000" points="787.5,-168.5 787.5,-187.5 917.5,-187.5 917.5,-168.5 787.5,-168.5"/>
<text text-anchor="middle" x="852.5" y="-175.5" font-family="Helvetica,sans-Serif" font-size="10.00" fill="#000000">pdi/datatype_template.h</text>
</a>
</g>
</g>
<!-- Node20&#45;&gt;Node22 -->
<g id="edge30" class="edge">
<title>Node20&#45;&gt;Node22</title>
<path fill="none" stroke="#191970" d="M804.4771,-336.1818C812.047,-327.3574 822.5687,-313.7116 828.5,-300 843.2233,-265.9639 848.9939,-222.6685 851.1972,-197.8685"/>
<polygon fill="#191970" stroke="#191970" points="854.7107,-197.829 851.9969,-187.5876 847.7318,-197.286 854.7107,-197.829"/>
</g>
<!-- Node20&#45;&gt;Node23 -->
<g id="edge33" class="edge">
<title>Node20&#45;&gt;Node23</title>
<path fill="none" stroke="#191970" d="M759.3997,-336.3733C723.8752,-326.9001 669.512,-312.4032 631.0381,-302.1435"/>
<polygon fill="#191970" stroke="#191970" points="631.6934,-298.696 621.1292,-299.5011 629.8897,-305.4596 631.6934,-298.696"/>
</g>
<!-- Node22&#45;&gt;Node15 -->
<g id="edge32" class="edge">
<title>Node22&#45;&gt;Node15</title>
<path fill="none" stroke="#191970" d="M866.4349,-168.2455C878.5947,-159.7337 896.4464,-147.2375 910.5285,-137.3801"/>
<polygon fill="#191970" stroke="#191970" points="912.5395,-140.2447 918.7248,-131.6427 908.5253,-134.51 912.5395,-140.2447"/>
</g>
<!-- Node22&#45;&gt;Node17 -->
<g id="edge31" class="edge">
<title>Node22&#45;&gt;Node17</title>
<path fill="none" stroke="#191970" d="M852.5,-168.4862C852.5,-141.9293 852.5,-66.5651 852.5,-30.1655"/>
<polygon fill="#191970" stroke="#191970" points="856.0001,-29.8278 852.5,-19.8279 849.0001,-29.8279 856.0001,-29.8278"/>
</g>
<!-- Node23&#45;&gt;Node12 -->
<g id="edge36" class="edge">
<title>Node23&#45;&gt;Node12</title>
<path fill="none" stroke="#191970" d="M586.0495,-280.157C586.7805,-267.2565 588.1395,-243.9277 589.5,-224 592.8912,-174.3298 597.4848,-115.9246 599.886,-85.958"/>
<polygon fill="#191970" stroke="#191970" points="603.4048,-85.8632 600.7184,-75.6147 596.4274,-85.3017 603.4048,-85.8632"/>
</g>
<!-- Node23&#45;&gt;Node14 -->
<g id="edge38" class="edge">
<title>Node23&#45;&gt;Node14</title>
<path fill="none" stroke="#191970" d="M598.564,-280.2455C609.8562,-271.814 626.3845,-259.4729 639.5271,-249.6598"/>
<polygon fill="#191970" stroke="#191970" points="641.6669,-252.4301 647.5857,-243.6427 637.4789,-246.8211 641.6669,-252.4301"/>
</g>
<!-- Node23&#45;&gt;Node15 -->
<g id="edge39" class="edge">
<title>Node23&#45;&gt;Node15</title>
<path fill="none" stroke="#191970" d="M585.7503,-280.0701C586.6497,-265.7623 590.4051,-239.3817 605.5,-224 644.496,-184.2631 801.3811,-148.088 882.8427,-131.5222"/>
<polygon fill="#191970" stroke="#191970" points="883.7528,-134.9093 892.8659,-129.5055 882.372,-128.0468 883.7528,-134.9093"/>
</g>
<!-- Node23&#45;&gt;Node21 -->
<g id="edge35" class="edge">
<title>Node23&#45;&gt;Node21</title>
<path fill="none" stroke="#191970" d="M614.724,-280.3733C642.9925,-271.0613 685.9965,-256.8953 717.0344,-246.671"/>
<polygon fill="#191970" stroke="#191970" points="718.2544,-249.9542 726.6573,-243.5011 716.0643,-243.3056 718.2544,-249.9542"/>
</g>
<!-- Node24 -->
<g id="node25" class="node">
<title>Node24</title>
<polygon fill="#ffffff" stroke="#bfbfbf" points="415,-224.5 415,-243.5 466,-243.5 466,-224.5 415,-224.5"/>
<text text-anchor="middle" x="440.5" y="-231.5" font-family="Helvetica,sans-Serif" font-size="10.00" fill="#000000">cassert</text>
</g>
<!-- Node23&#45;&gt;Node24 -->
<g id="edge34" class="edge">
<title>Node23&#45;&gt;Node24</title>
<path fill="none" stroke="#191970" d="M560.5736,-280.3733C536.8798,-271.2226 501.0489,-257.3844 474.6932,-247.2057"/>
<polygon fill="#191970" stroke="#191970" points="475.6906,-243.8389 465.1011,-243.5011 473.1686,-250.3689 475.6906,-243.8389"/>
</g>
<!-- Node25 -->
<g id="node26" class="node">
<title>Node25</title>
<polygon fill="#ffffff" stroke="#bfbfbf" points="484.5,-224.5 484.5,-243.5 520.5,-243.5 520.5,-224.5 484.5,-224.5"/>
<text text-anchor="middle" x="502.5" y="-231.5" font-family="Helvetica,sans-Serif" font-size="10.00" fill="#000000">new</text>
</g>
<!-- Node23&#45;&gt;Node25 -->
<g id="edge37" class="edge">
<title>Node23&#45;&gt;Node25</title>
<path fill="none" stroke="#191970" d="M571.0425,-280.2455C558.4268,-271.7337 539.9056,-259.2375 525.2955,-249.3801"/>
<polygon fill="#191970" stroke="#191970" points="527.0391,-246.3343 516.7918,-243.6427 523.1239,-252.1371 527.0391,-246.3343"/>
</g>
<!-- Node23&#45;&gt;Node26 -->
<g id="edge40" class="edge">
<title>Node23&#45;&gt;Node26</title>
<path fill="none" stroke="#191970" d="M624.8177,-283.4665C685.7577,-273.34 803.0365,-253.8515 870.7748,-242.5953"/>
<polygon fill="#191970" stroke="#191970" points="871.5099,-246.0212 880.8008,-240.9292 870.3623,-239.1159 871.5099,-246.0212"/>
</g>
<!-- Node23&#45;&gt;Node27 -->
<g id="edge43" class="edge">
<title>Node23&#45;&gt;Node27</title>
<path fill="none" stroke="#191970" d="M546.2353,-282.6214C490.3247,-272.1147 388.1568,-252.9154 330.3448,-242.0514"/>
<polygon fill="#191970" stroke="#191970" points="330.9052,-238.5955 320.4308,-240.1883 329.6123,-245.4751 330.9052,-238.5955"/>
</g>
<!-- Node26&#45;&gt;Node15 -->
<g id="edge41" class="edge">
<title>Node26&#45;&gt;Node15</title>
<path fill="none" stroke="#191970" d="M923.3526,-224.4509C924.9836,-206.184 928.5754,-165.9553 930.7413,-141.6976"/>
<polygon fill="#191970" stroke="#191970" points="934.2463,-141.7966 931.6496,-131.5249 927.274,-141.174 934.2463,-141.7966"/>
</g>
<!-- Node26&#45;&gt;Node22 -->
<g id="edge42" class="edge">
<title>Node26&#45;&gt;Node22</title>
<path fill="none" stroke="#191970" d="M910.3069,-224.2455C899.8679,-215.8943 884.6345,-203.7076 872.426,-193.9408"/>
<polygon fill="#191970" stroke="#191970" points="874.5485,-191.1566 864.5533,-187.6427 870.1756,-196.6227 874.5485,-191.1566"/>
</g>
<!-- Node27&#45;&gt;Node3 -->
<g id="edge44" class="edge">
<title>Node27&#45;&gt;Node3</title>
<path fill="none" stroke="#191970" d="M297.777,-224.2455C306.3218,-216.1352 318.6778,-204.4075 328.8085,-194.7919"/>
<polygon fill="#191970" stroke="#191970" points="331.4972,-197.0655 336.3408,-187.6427 326.6782,-191.9884 331.4972,-197.0655"/>
</g>
<!-- Node27&#45;&gt;Node5 -->
<g id="edge45" class="edge">
<title>Node27&#45;&gt;Node5</title>
<path fill="none" stroke="#191970" d="M271.8232,-224.2455C258.0144,-215.6534 237.6807,-203.0014 221.7708,-193.1018"/>
<polygon fill="#191970" stroke="#191970" points="223.3368,-189.954 212.9972,-187.6427 219.6387,-195.8974 223.3368,-189.954"/>
</g>
<!-- Node27&#45;&gt;Node15 -->
<g id="edge47" class="edge">
<title>Node27&#45;&gt;Node15</title>
<path fill="none" stroke="#191970" d="M287.1216,-224.0726C287.1566,-209.2661 289.6521,-181.6779 306.5,-168 350.8639,-131.9833 742.7744,-124.1058 882.9318,-122.435"/>
<polygon fill="#191970" stroke="#191970" points="883.0122,-125.9344 892.9717,-122.3209 882.9325,-118.9349 883.0122,-125.9344"/>
</g>
<!-- Node27&#45;&gt;Node17 -->
<g id="edge46" class="edge">
<title>Node27&#45;&gt;Node17</title>
<path fill="none" stroke="#191970" d="M284.7818,-224.2134C281.5834,-210.5442 277.943,-185.4538 288.5,-168 315.4674,-123.415 343.6024,-132.5154 391.5,-112 466.178,-80.0141 486.496,-74.9279 565.5,-56 650.5047,-35.6345 751.8739,-21.7686 808.5437,-14.9306"/>
<polygon fill="#191970" stroke="#191970" points="809.0744,-18.3923 818.591,-13.7356 808.2476,-11.4413 809.0744,-18.3923"/>
</g>
<!-- Node28&#45;&gt;Node5 -->
<g id="edge51" class="edge">
<title>Node28&#45;&gt;Node5</title>
<path fill="none" stroke="#191970" d="M113.267,-224.2455C129.2095,-215.4928 152.8259,-202.527 170.9989,-192.5496"/>
<polygon fill="#191970" stroke="#191970" points="172.8552,-195.5233 179.9366,-187.6427 169.4863,-189.3873 172.8552,-195.5233"/>
</g>
<!-- Node28&#45;&gt;Node15 -->
<g id="edge53" class="edge">
<title>Node28&#45;&gt;Node15</title>
<path fill="none" stroke="#191970" d="M102.4339,-224.1662C113.8081,-208.9501 138.032,-180.1856 166.5,-168 232.0406,-139.9455 723.5057,-126.6461 882.8146,-123.0408"/>
<polygon fill="#191970" stroke="#191970" points="882.9004,-126.5399 892.8197,-122.8173 882.7439,-119.5416 882.9004,-126.5399"/>
</g>
<!-- Node28&#45;&gt;Node17 -->
<g id="edge52" class="edge">
<title>Node28&#45;&gt;Node17</title>
<path fill="none" stroke="#191970" d="M98.6473,-224.4327C103.8448,-210.0965 115.571,-183.1144 134.5,-168 261.8002,-66.3538 324.4275,-91.1173 483.5,-56 599.3772,-30.4186 739.09,-17.8576 808.6681,-12.8078"/>
<polygon fill="#191970" stroke="#191970" points="809.0886,-16.2869 818.8162,-12.0888 808.5938,-9.3044 809.0886,-16.2869"/>
</g>
<!-- Node29&#45;&gt;Node15 -->
<g id="edge55" class="edge">
<title>Node29&#45;&gt;Node15</title>
<path fill="none" stroke="#191970" d="M1161.9937,-280.4961C1143.9224,-258.1536 1095.6879,-201.6451 1044.5,-168 1023.0216,-153.8826 996.5101,-142.7569 974.6732,-134.9858"/>
<polygon fill="#191970" stroke="#191970" points="975.5985,-131.6027 965.0038,-131.6526 973.3172,-138.2206 975.5985,-131.6027"/>
</g>
</g>
</svg>
        <g id="navigator" transform="translate(0 0)" fill="#404254">
                <rect fill="#f2f5e9" fill-opacity="0.5" stroke="#606060" stroke-width=".5" x="0" y="0" width="60" height="60"/>
                <use id="zoomplus" xlink:href="#zoomPlus" x="17" y="9" onmousedown="handleZoom(evt,'in')"/>
                <use id="zoomminus" xlink:href="#zoomMin" x="42" y="9" onmousedown="handleZoom(evt,'out')"/>
                <use id="reset" xlink:href="#resetDef" x="30" y="36" onmousedown="handleReset()"/>
                <g id="arrowUp" xlink:href="#dirArrow" transform="translate(30 24)" onmousedown="handlePan(0,-1)">
                  <use xlink:href="#rim" fill="#404040">
                        <set attributeName="fill" to="#808080" begin="arrowUp.mouseover" end="arrowUp.mouseout"/>
                  </use>
                  <path fill="none" stroke="white" stroke-width="1.5" d="M0,-3.0v7 M-2.5,-0.5L0,-3.0L2.5,-0.5"/>
                </g>
                <g id="arrowRight" xlink:href="#dirArrow" transform="rotate(90) translate(36 -43)" onmousedown="handlePan(1,0)">
                  <use xlink:href="#rim" fill="#404040">
                        <set attributeName="fill" to="#808080" begin="arrowRight.mouseover" end="arrowRight.mouseout"/>
                  </use>
                  <path fill="none" stroke="white" stroke-width="1.5" d="M0,-3.0v7 M-2.5,-0.5L0,-3.0L2.5,-0.5"/>
                </g>
                <g id="arrowDown" xlink:href="#dirArrow" transform="rotate(180) translate(-30 -48)" onmousedown="handlePan(0,1)">
                  <use xlink:href="#rim" fill="#404040">
                        <set attributeName="fill" to="#808080" begin="arrowDown.mouseover" end="arrowDown.mouseout"/>
                  </use>
                  <path fill="none" stroke="white" stroke-width="1.5" d="M0,-3.0v7 M-2.5,-0.5L0,-3.0L2.5,-0.5"/>
                </g>
                <g id="arrowLeft" xlink:href="#dirArrow" transform="rotate(270) translate(-36 17)" onmousedown="handlePan(-1,0)">
                  <use xlink:href="#rim" fill="#404040">
                        <set attributeName="fill" to="#808080" begin="arrowLeft.mouseover" end="arrowLeft.mouseout"/>
                  </use>
                  <path fill="none" stroke="white" stroke-width="1.5" d="M0,-3.0v7 M-2.5,-0.5L0,-3.0L2.5,-0.5"/>
                </g>
        </g>
        <svg viewBox="0 0 15 15" width="100%" height="30px" preserveAspectRatio="xMaxYMin meet">
         <g id="arrow_out" transform="scale(0.3 0.3)">
          <a xlink:href="pdi_8cxx__incl_org.svg" target="_base">
           <rect id="button" ry="5" rx="5" y="6" x="6" height="38" width="38"
                fill="#f2f5e9" fill-opacity="0.5" stroke="#606060" stroke-width="1.0"/>
           <path id="arrow"
             d="M 11.500037,31.436501 C 11.940474,20.09759 22.043105,11.32322 32.158766,21.979434 L 37.068811,17.246167 C 37.068811,17.246167 37.088388,32 37.088388,32 L 22.160133,31.978069 C 22.160133,31.978069 26.997745,27.140456 26.997745,27.140456 C 18.528582,18.264221 13.291696,25.230495 11.500037,31.436501 z"
             style="fill:#404040;"/>
          </a>
         </g>
        </svg>
</svg>
