<?xml version="1.0" encoding="UTF-8" standalone="no"?>
<!DOCTYPE svg PUBLIC "-//W3C//DTD SVG 1.1//EN"
 "http://www.w3.org/Graphics/SVG/1.1/DTD/svg11.dtd">
<!-- Generated by graphviz version 2.40.1 (20161225.0304)
 -->
<!-- Title: PDI_transaction_end Pages: 1 -->
<svg width="234pt" height="66pt"
 viewBox="0.00 0.00 234.00 66.00" xmlns="http://www.w3.org/2000/svg" xmlns:xlink="http://www.w3.org/1999/xlink">
<g id="graph0" class="graph" transform="scale(1 1) rotate(0) translate(4 62)">
<title>PDI_transaction_end</title>
<polygon fill="#ffffff" stroke="transparent" points="-4,4 -4,-62 230,-62 230,4 -4,4"/>
<!-- Node34 -->
<g id="node1" class="node">
<title>Node34</title>
<polygon fill="#bfbfbf" stroke="#000000" points="0,-19.5 0,-38.5 116,-38.5 116,-19.5 0,-19.5"/>
<text text-anchor="middle" x="58" y="-26.5" font-family="Helvetica,sans-Serif" font-size="10.00" fill="#000000">PDI_transaction_end</text>
</g>
<!-- Node35 -->
<g id="node2" class="node">
<title>Node35</title>
<g id="a_node2"><a xlink:href="pdi_8cxx.html#af047cf4c39c3e80684372feb273cc06d" target="_top" xlink:title="PDI_event">
<polygon fill="#ffffff" stroke="#000000" points="156,-38.5 156,-57.5 222,-57.5 222,-38.5 156,-38.5"/>
<text text-anchor="middle" x="189" y="-45.5" font-family="Helvetica,sans-Serif" font-size="10.00" fill="#000000">PDI_event</text>
</a>
</g>
</g>
<!-- Node34&#45;&gt;Node35 -->
<g id="edge1" class="edge">
<title>Node34&#45;&gt;Node35</title>
<path fill="none" stroke="#191970" d="M116.2214,-37.4443C126.1575,-38.8854 136.3199,-40.3594 145.7786,-41.7313"/>
<polygon fill="#191970" stroke="#191970" points="145.3233,-45.2018 155.7222,-43.1734 146.3281,-38.2742 145.3233,-45.2018"/>
</g>
<!-- Node36 -->
<g id="node3" class="node">
<title>Node36</title>
<g id="a_node3"><a xlink:href="pdi_8cxx.html#abf58b7c146cbf7e3341245f60cec0f7e" target="_top" xlink:title="PDI_reclaim">
<polygon fill="#ffffff" stroke="#000000" points="152,-.5 152,-19.5 226,-19.5 226,-.5 152,-.5"/>
<text text-anchor="middle" x="189" y="-7.5" font-family="Helvetica,sans-Serif" font-size="10.00" fill="#000000">PDI_reclaim</text>
</a>
</g>
</g>
<!-- Node34&#45;&gt;Node36 -->
<g id="edge2" class="edge">
<title>Node34&#45;&gt;Node36</title>
<path fill="none" stroke="#191970" d="M116.2214,-20.5557C124.6777,-19.3292 133.2979,-18.0789 141.5087,-16.8881"/>
<polygon fill="#191970" stroke="#191970" points="142.2529,-20.3168 151.6469,-15.4176 141.2481,-13.3893 142.2529,-20.3168"/>
</g>
</g>
</svg>
