<?xml version="1.0" encoding="UTF-8" standalone="no"?>
<!DOCTYPE svg PUBLIC "-//W3C//DTD SVG 1.1//EN"
 "http://www.w3.org/Graphics/SVG/1.1/DTD/svg11.dtd">
<!-- Generated by graphviz version 2.40.1 (20161225.0304)
 -->
<!-- Title: PDI_reclaim Pages: 1 -->
<svg width="234pt" height="66pt"
 viewBox="0.00 0.00 234.00 66.00" xmlns="http://www.w3.org/2000/svg" xmlns:xlink="http://www.w3.org/1999/xlink">
<g id="graph0" class="graph" transform="scale(1 1) rotate(0) translate(4 62)">
<title>PDI_reclaim</title>
<polygon fill="#ffffff" stroke="transparent" points="-4,4 -4,-62 230,-62 230,4 -4,4"/>
<!-- Node24 -->
<g id="node1" class="node">
<title>Node24</title>
<polygon fill="#bfbfbf" stroke="#000000" points="0,-19.5 0,-38.5 74,-38.5 74,-19.5 0,-19.5"/>
<text text-anchor="middle" x="37" y="-26.5" font-family="Helvetica,sans-Serif" font-size="10.00" fill="#000000">PDI_reclaim</text>
</g>
<!-- Node25 -->
<g id="node2" class="node">
<title>Node25</title>
<g id="a_node2"><a xlink:href="pdi_8cxx.html#abf3f81774644eff9a3cf511e57273454" target="_top" xlink:title="PDI_expose">
<polygon fill="#ffffff" stroke="#000000" points="131,-38.5 131,-57.5 205,-57.5 205,-38.5 131,-38.5"/>
<text text-anchor="middle" x="168" y="-45.5" font-family="Helvetica,sans-Serif" font-size="10.00" fill="#000000">PDI_expose</text>
</a>
</g>
</g>
<!-- Node24&#45;&gt;Node25 -->
<g id="edge1" class="edge">
<title>Node24&#45;&gt;Node25</title>
<path fill="none" stroke="#191970" d="M84.4608,-35.8836C99.6884,-38.0922 116.3267,-40.5054 130.7181,-42.5927"/>
<polygon fill="#191970" stroke="#191970" points="84.5878,-32.3655 74.1889,-34.3938 83.583,-39.293 84.5878,-32.3655"/>
</g>
<!-- Node26 -->
<g id="node3" class="node">
<title>Node26</title>
<g id="a_node3"><a xlink:href="pdi_8cxx.html#aec4ebe672273ed893952e34bc408ba73" target="_top" xlink:title="PDI_transaction_end">
<polygon fill="#ffffff" stroke="#000000" points="110,-.5 110,-19.5 226,-19.5 226,-.5 110,-.5"/>
<text text-anchor="middle" x="168" y="-7.5" font-family="Helvetica,sans-Serif" font-size="10.00" fill="#000000">PDI_transaction_end</text>
</a>
</g>
</g>
<!-- Node24&#45;&gt;Node26 -->
<g id="edge2" class="edge">
<title>Node24&#45;&gt;Node26</title>
<path fill="none" stroke="#191970" d="M84.3332,-22.1349C92.5509,-20.943 101.1829,-19.691 109.6534,-18.4625"/>
<polygon fill="#191970" stroke="#191970" points="83.583,-18.707 74.1889,-23.6062 84.5878,-25.6345 83.583,-18.707"/>
</g>
</g>
</svg>
