<?xml version="1.0" encoding="UTF-8" standalone="no"?>
<!DOCTYPE svg PUBLIC "-//W3C//DTD SVG 1.1//EN"
 "http://www.w3.org/Graphics/SVG/1.1/DTD/svg11.dtd">
<!-- Generated by graphviz version 2.40.1 (20161225.0304)
 -->
<!-- Title: /home/jbigot/data/projects/pdi/pdi/include/pdi/pdi_fwd.h Pages: 1 -->
<svg width="320pt" height="151pt"
 viewBox="0.00 0.00 320.00 151.00" xmlns="http://www.w3.org/2000/svg" xmlns:xlink="http://www.w3.org/1999/xlink">
<g id="graph0" class="graph" transform="scale(1 1) rotate(0) translate(4 147)">
<title>/home/jbigot/data/projects/pdi/pdi/include/pdi/pdi_fwd.h</title>
<polygon fill="#ffffff" stroke="transparent" points="-4,4 -4,-147 316,-147 316,4 -4,4"/>
<!-- Node0 -->
<g id="node1" class="node">
<title>Node0</title>
<polygon fill="#bfbfbf" stroke="#000000" points="27.5,-112.5 27.5,-142.5 179.5,-142.5 179.5,-112.5 27.5,-112.5"/>
<text text-anchor="start" x="35.5" y="-130.5" font-family="Helvetica,sans-Serif" font-size="10.00" fill="#000000">/home/jbigot/data/projects</text>
<text text-anchor="middle" x="103.5" y="-119.5" font-family="Helvetica,sans-Serif" font-size="10.00" fill="#000000">/pdi/pdi/include/pdi/pdi_fwd.h</text>
</g>
<!-- Node1 -->
<g id="node2" class="node">
<title>Node1</title>
<polygon fill="#ffffff" stroke="#bfbfbf" points="44.5,-56.5 44.5,-75.5 98.5,-75.5 98.5,-56.5 44.5,-56.5"/>
<text text-anchor="middle" x="71.5" y="-63.5" font-family="Helvetica,sans-Serif" font-size="10.00" fill="#000000">memory</text>
</g>
<!-- Node0&#45;&gt;Node1 -->
<g id="edge1" class="edge">
<title>Node0&#45;&gt;Node1</title>
<path fill="none" stroke="#191970" d="M95.5899,-112.2977C91.2868,-104.0277 85.9242,-93.7215 81.3518,-84.9339"/>
<polygon fill="#191970" stroke="#191970" points="84.3443,-83.1024 76.6236,-75.8469 78.1346,-86.3335 84.3443,-83.1024"/>
</g>
<!-- Node2 -->
<g id="node3" class="node">
<title>Node2</title>
<g id="a_node3"><a xlink:href="pdi_8h.html" target="_top" xlink:title="pdi.h">
<polygon fill="#ffffff" stroke="#000000" points="117,-56.5 117,-75.5 156,-75.5 156,-56.5 117,-56.5"/>
<text text-anchor="middle" x="136.5" y="-63.5" font-family="Helvetica,sans-Serif" font-size="10.00" fill="#000000">pdi.h</text>
</a>
</g>
</g>
<!-- Node0&#45;&gt;Node2 -->
<g id="edge2" class="edge">
<title>Node0&#45;&gt;Node2</title>
<path fill="none" stroke="#191970" d="M111.6573,-112.2977C116.0949,-104.0277 121.625,-93.7215 126.3404,-84.9339"/>
<polygon fill="#191970" stroke="#191970" points="129.5721,-86.3134 131.2163,-75.8469 123.404,-83.0037 129.5721,-86.3134"/>
</g>
<!-- Node3 -->
<g id="node4" class="node">
<title>Node3</title>
<polygon fill="#ffffff" stroke="#bfbfbf" points="0,-.5 0,-19.5 41,-19.5 41,-.5 0,-.5"/>
<text text-anchor="middle" x="20.5" y="-7.5" font-family="Helvetica,sans-Serif" font-size="10.00" fill="#000000">mpi.h</text>
</g>
<!-- Node2&#45;&gt;Node3 -->
<g id="edge3" class="edge">
<title>Node2&#45;&gt;Node3</title>
<path fill="none" stroke="#191970" d="M116.8222,-56.5004C98.3242,-47.5703 70.4131,-34.096 49.3902,-23.947"/>
<polygon fill="#191970" stroke="#191970" points="50.8015,-20.7419 40.2743,-19.5462 47.7582,-27.0457 50.8015,-20.7419"/>
</g>
<!-- Node4 -->
<g id="node5" class="node">
<title>Node4</title>
<polygon fill="#ffffff" stroke="#bfbfbf" points="59,-.5 59,-19.5 126,-19.5 126,-.5 59,-.5"/>
<text text-anchor="middle" x="92.5" y="-7.5" font-family="Helvetica,sans-Serif" font-size="10.00" fill="#000000">paraconf.h</text>
</g>
<!-- Node2&#45;&gt;Node4 -->
<g id="edge4" class="edge">
<title>Node2&#45;&gt;Node4</title>
<path fill="none" stroke="#191970" d="M128.8358,-56.2455C122.6527,-48.3761 113.7937,-37.101 106.3711,-27.6542"/>
<polygon fill="#191970" stroke="#191970" points="109.0068,-25.3435 100.0764,-19.6427 103.5025,-29.6683 109.0068,-25.3435"/>
</g>
<!-- Node5 -->
<g id="node6" class="node">
<title>Node5</title>
<polygon fill="#ffffff" stroke="#bfbfbf" points="144.5,-.5 144.5,-19.5 216.5,-19.5 216.5,-.5 144.5,-.5"/>
<text text-anchor="middle" x="180.5" y="-7.5" font-family="Helvetica,sans-Serif" font-size="10.00" fill="#000000">pdi/export.h</text>
</g>
<!-- Node2&#45;&gt;Node5 -->
<g id="edge5" class="edge">
<title>Node2&#45;&gt;Node5</title>
<path fill="none" stroke="#191970" d="M144.1642,-56.2455C150.3473,-48.3761 159.2063,-37.101 166.6289,-27.6542"/>
<polygon fill="#191970" stroke="#191970" points="169.4975,-29.6683 172.9236,-19.6427 163.9932,-25.3435 169.4975,-29.6683"/>
</g>
<!-- Node6 -->
<g id="node7" class="node">
<title>Node6</title>
<polygon fill="#ffffff" stroke="#bfbfbf" points="235,-.5 235,-19.5 312,-19.5 312,-.5 235,-.5"/>
<text text-anchor="middle" x="273.5" y="-7.5" font-family="Helvetica,sans-Serif" font-size="10.00" fill="#000000">pdi/version.h</text>
</g>
<!-- Node2&#45;&gt;Node6 -->
<g id="edge6" class="edge">
<title>Node2&#45;&gt;Node6</title>
<path fill="none" stroke="#191970" d="M156.1288,-57.9766C178.1725,-48.966 214.3054,-34.1963 240.6658,-23.4213"/>
<polygon fill="#191970" stroke="#191970" points="242.3082,-26.5311 250.2404,-19.5076 239.6596,-20.0515 242.3082,-26.5311"/>
</g>
</g>
</svg>
