<?xml version="1.0" encoding="UTF-8" standalone="no"?>
<!DOCTYPE svg PUBLIC "-//W3C//DTD SVG 1.1//EN"
 "http://www.w3.org/Graphics/SVG/1.1/DTD/svg11.dtd">
<!-- Generated by graphviz version 2.40.1 (20161225.0304)
 -->
<!-- Title: PDI_finalize Pages: 1 -->
<svg width="268pt" height="28pt"
 viewBox="0.00 0.00 268.00 28.00" xmlns="http://www.w3.org/2000/svg" xmlns:xlink="http://www.w3.org/1999/xlink">
<g id="graph0" class="graph" transform="scale(1 1) rotate(0) translate(4 24)">
<title>PDI_finalize</title>
<polygon fill="#ffffff" stroke="transparent" points="-4,4 -4,-24 264,-24 264,4 -4,4"/>
<!-- Node16 -->
<g id="node1" class="node">
<title>Node16</title>
<polygon fill="#bfbfbf" stroke="#000000" points="0,-.5 0,-19.5 73,-19.5 73,-.5 0,-.5"/>
<text text-anchor="middle" x="36.5" y="-7.5" font-family="Helvetica,sans-Serif" font-size="10.00" fill="#000000">PDI_finalize</text>
</g>
<!-- Node17 -->
<g id="node2" class="node">
<title>Node17</title>
<g id="a_node2"><a xlink:href="pdi_8cxx.html#a53db1a59d170f85530a7beff114e6bdf" target="_top" xlink:title="Initialization / Finalization stuff. ">
<polygon fill="#ffffff" stroke="#000000" points="109,-.5 109,-19.5 162,-19.5 162,-.5 109,-.5"/>
<text text-anchor="middle" x="135.5" y="-7.5" font-family="Helvetica,sans-Serif" font-size="10.00" fill="#000000">PDI_init</text>
</a>
</g>
</g>
<!-- Node16&#45;&gt;Node17 -->
<g id="edge1" class="edge">
<title>Node16&#45;&gt;Node17</title>
<path fill="none" stroke="#191970" d="M83.308,-10C92.1203,-10 101.0468,-10 108.9657,-10"/>
<polygon fill="#191970" stroke="#191970" points="83.0827,-6.5001 73.0827,-10 83.0826,-13.5001 83.0827,-6.5001"/>
</g>
<!-- Node18 -->
<g id="node3" class="node">
<title>Node18</title>
<g id="a_node3"><a xlink:href="fapi_8c.html#a35d0dc6a128841f0b8ec13ba6199cf1f" target="_top" xlink:title="PDI_init_f">
<polygon fill="#ffffff" stroke="#000000" points="198,-.5 198,-19.5 260,-19.5 260,-.5 198,-.5"/>
<text text-anchor="middle" x="229" y="-7.5" font-family="Helvetica,sans-Serif" font-size="10.00" fill="#000000">PDI_init_f</text>
</a>
</g>
</g>
<!-- Node17&#45;&gt;Node18 -->
<g id="edge2" class="edge">
<title>Node17&#45;&gt;Node18</title>
<path fill="none" stroke="#191970" d="M172.0814,-10C180.5676,-10 189.5236,-10 197.7562,-10"/>
<polygon fill="#191970" stroke="#191970" points="172.0433,-6.5001 162.0432,-10 172.0432,-13.5001 172.0433,-6.5001"/>
</g>
</g>
</svg>
