<?xml version="1.0" encoding="UTF-8" standalone="no"?>
<!DOCTYPE svg PUBLIC "-//W3C//DTD SVG 1.1//EN"
 "http://www.w3.org/Graphics/SVG/1.1/DTD/svg11.dtd">
<!-- Generated by graphviz version 2.40.1 (20161225.0304)
 -->
<!-- Title: PDI_access Pages: 1 -->
<svg width="248pt" height="78pt"
 viewBox="0.00 0.00 248.00 77.50" xmlns="http://www.w3.org/2000/svg" xmlns:xlink="http://www.w3.org/1999/xlink">
<g id="graph0" class="graph" transform="scale(1 1) rotate(0) translate(4 73.5)">
<title>PDI_access</title>
<polygon fill="#ffffff" stroke="transparent" points="-4,4 -4,-73.5 244,-73.5 244,4 -4,4"/>
<!-- Node0 -->
<g id="node1" class="node">
<title>Node0</title>
<polygon fill="#bfbfbf" stroke="#000000" points="0,-22.5 0,-41.5 73,-41.5 73,-22.5 0,-22.5"/>
<text text-anchor="middle" x="36.5" y="-29.5" font-family="Helvetica,sans-Serif" font-size="10.00" fill="#000000">PDI_access</text>
</g>
<!-- Node1 -->
<g id="node2" class="node">
<title>Node1</title>
<g id="a_node2"><a xlink:href="classPDI_1_1Data__descriptor.html#a513e8b59893e4f68d733a7fc8058665e" target="_top" xlink:title="PDI::Data_descriptor\l::share">
<polygon fill="#ffffff" stroke="#000000" points="117.5,-39 117.5,-69 231.5,-69 231.5,-39 117.5,-39"/>
<text text-anchor="start" x="125.5" y="-57" font-family="Helvetica,sans-Serif" font-size="10.00" fill="#000000">PDI::Data_descriptor</text>
<text text-anchor="middle" x="174.5" y="-46" font-family="Helvetica,sans-Serif" font-size="10.00" fill="#000000">::share</text>
</a>
</g>
</g>
<!-- Node0&#45;&gt;Node1 -->
<g id="edge1" class="edge">
<title>Node0&#45;&gt;Node1</title>
<path fill="none" stroke="#191970" d="M73.1192,-37.8378C83.7242,-39.5285 95.6491,-41.4296 107.4955,-43.3181"/>
<polygon fill="#191970" stroke="#191970" points="106.971,-46.7786 117.3973,-44.8967 108.0731,-39.8659 106.971,-46.7786"/>
</g>
<!-- Node2 -->
<g id="node3" class="node">
<title>Node2</title>
<g id="a_node3"><a xlink:href="classPDI_1_1Data__descriptor.html#a518b9fd7e942a742ac75c4537bc677a8" target="_top" xlink:title="PDI::Data_descriptor::ref">
<polygon fill="#ffffff" stroke="#000000" points="109,-.5 109,-19.5 240,-19.5 240,-.5 109,-.5"/>
<text text-anchor="middle" x="174.5" y="-7.5" font-family="Helvetica,sans-Serif" font-size="10.00" fill="#000000">PDI::Data_descriptor::ref</text>
</a>
</g>
</g>
<!-- Node0&#45;&gt;Node2 -->
<g id="edge2" class="edge">
<title>Node0&#45;&gt;Node2</title>
<path fill="none" stroke="#191970" d="M73.1192,-26.1622C82.9008,-24.6028 93.8052,-22.8644 104.7352,-21.1219"/>
<polygon fill="#191970" stroke="#191970" points="105.4245,-24.5563 114.7487,-19.5256 104.3224,-17.6436 105.4245,-24.5563"/>
</g>
</g>
</svg>
