<?xml version="1.0" encoding="UTF-8" standalone="no"?>
<!DOCTYPE svg PUBLIC "-//W3C//DTD SVG 1.1//EN"
 "http://www.w3.org/Graphics/SVG/1.1/DTD/svg11.dtd">
<!-- Generated by graphviz version 2.40.1 (20161225.0304)
 -->
<!-- Title: /home/jbigot/data/projects/pdi/pdi/include/pdi/pdi_fwd.h Pages: 1 -->
<svg width="2279pt" height="463pt"
 viewBox="0.00 0.00 2278.91 463.00" xmlns="http://www.w3.org/2000/svg" xmlns:xlink="http://www.w3.org/1999/xlink">
<g id="graph0" class="graph" transform="scale(1 1) rotate(0) translate(4 459)">
<title>/home/jbigot/data/projects/pdi/pdi/include/pdi/pdi_fwd.h</title>
<polygon fill="#ffffff" stroke="transparent" points="-4,4 -4,-459 2274.9067,-459 2274.9067,4 -4,4"/>
<!-- Node7 -->
<g id="node1" class="node">
<title>Node7</title>
<polygon fill="#bfbfbf" stroke="#000000" points="960,-424.5 960,-454.5 1112,-454.5 1112,-424.5 960,-424.5"/>
<text text-anchor="start" x="968" y="-442.5" font-family="Helvetica,sans-Serif" font-size="10.00" fill="#000000">/home/jbigot/data/projects</text>
<text text-anchor="middle" x="1036" y="-431.5" font-family="Helvetica,sans-Serif" font-size="10.00" fill="#000000">/pdi/pdi/include/pdi/pdi_fwd.h</text>
</g>
<!-- Node8 -->
<g id="node2" class="node">
<title>Node8</title>
<g id="a_node2"><a xlink:href="array__datatype_8h.html" target="_top" xlink:title="/home/jbigot/data/projects\l/pdi/pdi/include/pdi/array\l_datatype.h">
<polygon fill="#ffffff" stroke="#000000" points="938,-134.5 938,-175.5 1076,-175.5 1076,-134.5 938,-134.5"/>
<text text-anchor="start" x="946" y="-163.5" font-family="Helvetica,sans-Serif" font-size="10.00" fill="#000000">/home/jbigot/data/projects</text>
<text text-anchor="start" x="946" y="-152.5" font-family="Helvetica,sans-Serif" font-size="10.00" fill="#000000">/pdi/pdi/include/pdi/array</text>
<text text-anchor="middle" x="1007" y="-141.5" font-family="Helvetica,sans-Serif" font-size="10.00" fill="#000000">_datatype.h</text>
</a>
</g>
</g>
<!-- Node7&#45;&gt;Node8 -->
<g id="edge1" class="edge">
<title>Node7&#45;&gt;Node8</title>
<path fill="none" stroke="#191970" d="M1073.7839,-418.5799C1084.5978,-410.5432 1095.0568,-400.2914 1101,-388 1135.0509,-317.578 1139.3806,-280.159 1101,-212 1092.1038,-196.2014 1076.8654,-184.2789 1061.2171,-175.5312"/>
<polygon fill="#191970" stroke="#191970" points="1071.7538,-415.7284 1065.5142,-424.291 1075.7317,-421.4883 1071.7538,-415.7284"/>
</g>
<!-- Node13 -->
<g id="node7" class="node">
<title>Node13</title>
<g id="a_node7"><a xlink:href="context_8h.html" target="_top" xlink:title="/home/jbigot/data/projects\l/pdi/pdi/include/pdi/context.h">
<polygon fill="#ffffff" stroke="#000000" points="348,-67.5 348,-97.5 498,-97.5 498,-67.5 348,-67.5"/>
<text text-anchor="start" x="356" y="-85.5" font-family="Helvetica,sans-Serif" font-size="10.00" fill="#000000">/home/jbigot/data/projects</text>
<text text-anchor="middle" x="423" y="-74.5" font-family="Helvetica,sans-Serif" font-size="10.00" fill="#000000">/pdi/pdi/include/pdi/context.h</text>
</a>
</g>
</g>
<!-- Node7&#45;&gt;Node13 -->
<g id="edge6" class="edge">
<title>Node7&#45;&gt;Node13</title>
<path fill="none" stroke="#191970" d="M949.7788,-431.607C754.2447,-412.5477 294,-360.6594 294,-294.5 294,-294.5 294,-294.5 294,-227.5 294,-185.0951 286.7769,-167.3245 313,-134 326.3659,-117.0145 346.663,-105.3746 366.1983,-97.5226"/>
<polygon fill="#191970" stroke="#191970" points="949.4433,-435.0908 959.7342,-432.5713 950.1182,-428.1234 949.4433,-435.0908"/>
</g>
<!-- Node18 -->
<g id="node12" class="node">
<title>Node18</title>
<g id="a_node12"><a xlink:href="data__descriptor_8h.html" target="_top" xlink:title="/home/jbigot/data/projects\l/pdi/pdi/include/pdi/data\l_descriptor.h">
<polygon fill="#ffffff" stroke="#000000" points="322,-134.5 322,-175.5 460,-175.5 460,-134.5 322,-134.5"/>
<text text-anchor="start" x="330" y="-163.5" font-family="Helvetica,sans-Serif" font-size="10.00" fill="#000000">/home/jbigot/data/projects</text>
<text text-anchor="start" x="330" y="-152.5" font-family="Helvetica,sans-Serif" font-size="10.00" fill="#000000">/pdi/pdi/include/pdi/data</text>
<text text-anchor="middle" x="391" y="-141.5" font-family="Helvetica,sans-Serif" font-size="10.00" fill="#000000">_descriptor.h</text>
</a>
</g>
</g>
<!-- Node7&#45;&gt;Node18 -->
<g id="edge12" class="edge">
<title>Node7&#45;&gt;Node18</title>
<path fill="none" stroke="#191970" d="M949.8493,-426.8808C901.9876,-418.5318 841.8177,-405.8032 790,-388 651.4568,-340.4003 616.4335,-323.4363 494,-243 463.3351,-222.8538 431.7952,-194.583 411.8338,-175.5706"/>
<polygon fill="#191970" stroke="#191970" points="949.421,-430.3583 959.8682,-428.5962 950.6023,-423.4587 949.421,-430.3583"/>
</g>
<!-- Node19 -->
<g id="node13" class="node">
<title>Node19</title>
<g id="a_node13"><a xlink:href="datatype_8h.html" target="_top" xlink:title="/home/jbigot/data/projects\l/pdi/pdi/include/pdi/datatype.h">
<polygon fill="#ffffff" stroke="#000000" points="798.5,-279.5 798.5,-309.5 955.5,-309.5 955.5,-279.5 798.5,-279.5"/>
<text text-anchor="start" x="806.5" y="-297.5" font-family="Helvetica,sans-Serif" font-size="10.00" fill="#000000">/home/jbigot/data/projects</text>
<text text-anchor="middle" x="877" y="-286.5" font-family="Helvetica,sans-Serif" font-size="10.00" fill="#000000">/pdi/pdi/include/pdi/datatype.h</text>
</a>
</g>
</g>
<!-- Node7&#45;&gt;Node19 -->
<g id="edge16" class="edge">
<title>Node7&#45;&gt;Node19</title>
<path fill="none" stroke="#191970" d="M950.6527,-420.9243C932.1655,-413.3814 914.2197,-402.8075 901,-388 881.3565,-365.9972 877.3791,-330.0549 876.8115,-309.7397"/>
<polygon fill="#191970" stroke="#191970" points="949.4579,-424.2144 960.0491,-424.4936 951.9437,-417.6706 949.4579,-424.2144"/>
</g>
<!-- Node20 -->
<g id="node14" class="node">
<title>Node20</title>
<g id="a_node14"><a xlink:href="record__datatype_8h.html" target="_top" xlink:title="/home/jbigot/data/projects\l/pdi/pdi/include/pdi/record\l_datatype.h">
<polygon fill="#ffffff" stroke="#000000" points="1132,-134.5 1132,-175.5 1270,-175.5 1270,-134.5 1132,-134.5"/>
<text text-anchor="start" x="1140" y="-163.5" font-family="Helvetica,sans-Serif" font-size="10.00" fill="#000000">/home/jbigot/data/projects</text>
<text text-anchor="start" x="1140" y="-152.5" font-family="Helvetica,sans-Serif" font-size="10.00" fill="#000000">/pdi/pdi/include/pdi/record</text>
<text text-anchor="middle" x="1201" y="-141.5" font-family="Helvetica,sans-Serif" font-size="10.00" fill="#000000">_datatype.h</text>
</a>
</g>
</g>
<!-- Node7&#45;&gt;Node20 -->
<g id="edge78" class="edge">
<title>Node7&#45;&gt;Node20</title>
<path fill="none" stroke="#191970" d="M1083.6019,-419.7925C1098.2445,-411.77 1113.3043,-401.2198 1124,-388 1176.9231,-322.587 1194.017,-219.4254 1199.0658,-175.6931"/>
<polygon fill="#191970" stroke="#191970" points="1081.8528,-416.7567 1074.5814,-424.4623 1085.071,-422.9731 1081.8528,-416.7567"/>
</g>
<!-- Node22 -->
<g id="node16" class="node">
<title>Node22</title>
<g id="a_node16"><a xlink:href="ref__any_8h.html" target="_top" xlink:title="/home/jbigot/data/projects\l/pdi/pdi/include/pdi/ref_any.h">
<polygon fill="#ffffff" stroke="#000000" points="503,-212.5 503,-242.5 655,-242.5 655,-212.5 503,-212.5"/>
<text text-anchor="start" x="511" y="-230.5" font-family="Helvetica,sans-Serif" font-size="10.00" fill="#000000">/home/jbigot/data/projects</text>
<text text-anchor="middle" x="579" y="-219.5" font-family="Helvetica,sans-Serif" font-size="10.00" fill="#000000">/pdi/pdi/include/pdi/ref_any.h</text>
</a>
</g>
</g>
<!-- Node7&#45;&gt;Node22 -->
<g id="edge79" class="edge">
<title>Node7&#45;&gt;Node22</title>
<path fill="none" stroke="#191970" d="M972.0848,-421.4963C942.9456,-412.5721 908.2709,-400.9366 878,-388 772.0863,-342.7368 653.564,-273.0033 603.4591,-242.5713"/>
<polygon fill="#191970" stroke="#191970" points="971.1552,-424.8717 981.7403,-424.4169 973.1819,-418.1715 971.1552,-424.8717"/>
</g>
<!-- Node23 -->
<g id="node17" class="node">
<title>Node23</title>
<g id="a_node17"><a xlink:href="expression_8h.html" target="_top" xlink:title="/home/jbigot/data/projects\l/pdi/pdi/include/pdi/expression.h">
<polygon fill="#ffffff" stroke="#000000" points="1325.5,-140 1325.5,-170 1492.5,-170 1492.5,-140 1325.5,-140"/>
<text text-anchor="start" x="1333.5" y="-158" font-family="Helvetica,sans-Serif" font-size="10.00" fill="#000000">/home/jbigot/data/projects</text>
<text text-anchor="middle" x="1409" y="-147" font-family="Helvetica,sans-Serif" font-size="10.00" fill="#000000">/pdi/pdi/include/pdi/expression.h</text>
</a>
</g>
</g>
<!-- Node7&#45;&gt;Node23 -->
<g id="edge64" class="edge">
<title>Node7&#45;&gt;Node23</title>
<path fill="none" stroke="#191970" d="M1087.758,-420.6711C1108.502,-412.082 1132.1439,-400.9281 1152,-388 1256.2213,-320.1426 1359.5263,-210.1524 1395.5797,-170.1541"/>
<polygon fill="#191970" stroke="#191970" points="1086.4128,-417.4397 1078.455,-424.4342 1089.0377,-423.9289 1086.4128,-417.4397"/>
</g>
<!-- Node25 -->
<g id="node19" class="node">
<title>Node25</title>
<g id="a_node19"><a xlink:href="scalar__datatype_8h.html" target="_top" xlink:title="/home/jbigot/data/projects\l/pdi/pdi/include/pdi/scalar\l_datatype.h">
<polygon fill="#ffffff" stroke="#000000" points="782,-134.5 782,-175.5 920,-175.5 920,-134.5 782,-134.5"/>
<text text-anchor="start" x="790" y="-163.5" font-family="Helvetica,sans-Serif" font-size="10.00" fill="#000000">/home/jbigot/data/projects</text>
<text text-anchor="start" x="790" y="-152.5" font-family="Helvetica,sans-Serif" font-size="10.00" fill="#000000">/pdi/pdi/include/pdi/scalar</text>
<text text-anchor="middle" x="851" y="-141.5" font-family="Helvetica,sans-Serif" font-size="10.00" fill="#000000">_datatype.h</text>
</a>
</g>
</g>
<!-- Node7&#45;&gt;Node25 -->
<g id="edge80" class="edge">
<title>Node7&#45;&gt;Node25</title>
<path fill="none" stroke="#191970" d="M1054.4667,-415.9251C1059.9319,-407.5778 1065.1998,-397.8123 1068,-388 1073.1225,-370.05 1075.6885,-363.0098 1068,-346 1031.6178,-265.5091 942.6947,-205.4158 890.6708,-175.718"/>
<polygon fill="#191970" stroke="#191970" points="1051.4297,-414.1606 1048.5664,-424.3612 1057.166,-418.1726 1051.4297,-414.1606"/>
</g>
<!-- Node27 -->
<g id="node21" class="node">
<title>Node27</title>
<g id="a_node21"><a xlink:href="datatype__template_8h.html" target="_top" xlink:title="/home/jbigot/data/projects\l/pdi/pdi/include/pdi/datatype\l_template.h">
<polygon fill="#ffffff" stroke="#000000" points="910.5,-346.5 910.5,-387.5 1059.5,-387.5 1059.5,-346.5 910.5,-346.5"/>
<text text-anchor="start" x="918.5" y="-375.5" font-family="Helvetica,sans-Serif" font-size="10.00" fill="#000000">/home/jbigot/data/projects</text>
<text text-anchor="start" x="918.5" y="-364.5" font-family="Helvetica,sans-Serif" font-size="10.00" fill="#000000">/pdi/pdi/include/pdi/datatype</text>
<text text-anchor="middle" x="985" y="-353.5" font-family="Helvetica,sans-Serif" font-size="10.00" fill="#000000">_template.h</text>
</a>
</g>
</g>
<!-- Node7&#45;&gt;Node27 -->
<g id="edge48" class="edge">
<title>Node7&#45;&gt;Node27</title>
<path fill="none" stroke="#191970" d="M1019.5575,-416.1258C1013.0742,-406.9094 1005.6931,-396.4167 999.4218,-387.5015"/>
<polygon fill="#191970" stroke="#191970" points="1016.8165,-418.3126 1025.4328,-424.478 1022.5419,-414.2851 1016.8165,-418.3126"/>
</g>
<!-- Node28 -->
<g id="node22" class="node">
<title>Node28</title>
<g id="a_node22"><a xlink:href="error_8h.html" target="_top" xlink:title="/home/jbigot/data/projects\l/pdi/pdi/include/pdi/error.h">
<polygon fill="#ffffff" stroke="#000000" points="1898.5,-279.5 1898.5,-309.5 2037.5,-309.5 2037.5,-279.5 1898.5,-279.5"/>
<text text-anchor="start" x="1906.5" y="-297.5" font-family="Helvetica,sans-Serif" font-size="10.00" fill="#000000">/home/jbigot/data/projects</text>
<text text-anchor="middle" x="1968" y="-286.5" font-family="Helvetica,sans-Serif" font-size="10.00" fill="#000000">/pdi/pdi/include/pdi/error.h</text>
</a>
</g>
</g>
<!-- Node7&#45;&gt;Node28 -->
<g id="edge52" class="edge">
<title>Node7&#45;&gt;Node28</title>
<path fill="none" stroke="#191970" d="M1122.3519,-434.8306C1228.6734,-428.2489 1414.5204,-414.0326 1572,-388 1696.0562,-367.4925 1839.0467,-330.2998 1914.6649,-309.5393"/>
<polygon fill="#191970" stroke="#191970" points="1122.0825,-431.3404 1112.3145,-435.4438 1122.5094,-438.3274 1122.0825,-431.3404"/>
</g>
<!-- Node31 -->
<g id="node25" class="node">
<title>Node31</title>
<g id="a_node25"><a xlink:href="paraconf__wrapper_8h.html" target="_top" xlink:title="/home/jbigot/data/projects\l/pdi/pdi/include/pdi/paraconf\l_wrapper.h">
<polygon fill="#ffffff" stroke="#000000" points="1623.5,-134.5 1623.5,-175.5 1772.5,-175.5 1772.5,-134.5 1623.5,-134.5"/>
<text text-anchor="start" x="1631.5" y="-163.5" font-family="Helvetica,sans-Serif" font-size="10.00" fill="#000000">/home/jbigot/data/projects</text>
<text text-anchor="start" x="1631.5" y="-152.5" font-family="Helvetica,sans-Serif" font-size="10.00" fill="#000000">/pdi/pdi/include/pdi/paraconf</text>
<text text-anchor="middle" x="1698" y="-141.5" font-family="Helvetica,sans-Serif" font-size="10.00" fill="#000000">_wrapper.h</text>
</a>
</g>
</g>
<!-- Node7&#45;&gt;Node31 -->
<g id="edge65" class="edge">
<title>Node7&#45;&gt;Node31</title>
<path fill="none" stroke="#191970" d="M1097.1819,-421.4059C1126.7255,-412.2012 1162.5125,-400.3603 1194,-388 1370.5478,-318.697 1573.4232,-218.2927 1657.8752,-175.5289"/>
<polygon fill="#191970" stroke="#191970" points="1095.9382,-418.1268 1087.4174,-424.4233 1098.005,-424.8148 1095.9382,-418.1268"/>
</g>
<!-- Node32 -->
<g id="node26" class="node">
<title>Node32</title>
<g id="a_node26"><a xlink:href="plugin_8h.html" target="_top" xlink:title="/home/jbigot/data/projects\l/pdi/pdi/include/pdi/plugin.h">
<polygon fill="#ffffff" stroke="#000000" points="110.5,-67.5 110.5,-97.5 253.5,-97.5 253.5,-67.5 110.5,-67.5"/>
<text text-anchor="start" x="118.5" y="-85.5" font-family="Helvetica,sans-Serif" font-size="10.00" fill="#000000">/home/jbigot/data/projects</text>
<text text-anchor="middle" x="182" y="-74.5" font-family="Helvetica,sans-Serif" font-size="10.00" fill="#000000">/pdi/pdi/include/pdi/plugin.h</text>
</a>
</g>
</g>
<!-- Node7&#45;&gt;Node32 -->
<g id="edge73" class="edge">
<title>Node7&#45;&gt;Node32</title>
<path fill="none" stroke="#191970" d="M949.6651,-436.9185C797.1466,-431.6583 486.2922,-417.6039 382,-388 294.5173,-363.1676 200,-385.4389 200,-294.5 200,-294.5 200,-294.5 200,-227.5 200,-179.8104 190.2925,-123.9654 185.1354,-97.6626"/>
<polygon fill="#191970" stroke="#191970" points="949.81,-440.4253 959.9232,-437.2672 950.0479,-433.4294 949.81,-440.4253"/>
</g>
<!-- Node9 -->
<g id="node3" class="node">
<title>Node9</title>
<g id="a_node3"><a xlink:href="array__datatype_8cxx.html" target="_top" xlink:title="/home/jbigot/data/projects\l/pdi/pdi/src/array_datatype.cxx">
<polygon fill="#ffffff" stroke="#000000" points="1353.5,-67.5 1353.5,-97.5 1514.5,-97.5 1514.5,-67.5 1353.5,-67.5"/>
<text text-anchor="start" x="1361.5" y="-85.5" font-family="Helvetica,sans-Serif" font-size="10.00" fill="#000000">/home/jbigot/data/projects</text>
<text text-anchor="middle" x="1434" y="-74.5" font-family="Helvetica,sans-Serif" font-size="10.00" fill="#000000">/pdi/pdi/src/array_datatype.cxx</text>
</a>
</g>
</g>
<!-- Node8&#45;&gt;Node9 -->
<g id="edge2" class="edge">
<title>Node8&#45;&gt;Node9</title>
<path fill="none" stroke="#191970" d="M1086.4685,-140.422C1098.6962,-138.2343 1111.1815,-136.0322 1123,-134 1221.0775,-117.1354 1245.8514,-114.4453 1344,-98 1346.971,-97.5022 1349.9968,-96.9929 1353.0529,-96.4765"/>
<polygon fill="#191970" stroke="#191970" points="1085.5018,-137.0395 1076.2781,-142.2522 1086.7393,-143.9293 1085.5018,-137.0395"/>
</g>
<!-- Node10 -->
<g id="node4" class="node">
<title>Node10</title>
<g id="a_node4"><a xlink:href="datatype__template_8cxx.html" target="_top" xlink:title="/home/jbigot/data/projects\l/pdi/pdi/src/datatype_template.cxx">
<polygon fill="#ffffff" stroke="#000000" points="937.5,-67.5 937.5,-97.5 1114.5,-97.5 1114.5,-67.5 937.5,-67.5"/>
<text text-anchor="start" x="945.5" y="-85.5" font-family="Helvetica,sans-Serif" font-size="10.00" fill="#000000">/home/jbigot/data/projects</text>
<text text-anchor="middle" x="1026" y="-74.5" font-family="Helvetica,sans-Serif" font-size="10.00" fill="#000000">/pdi/pdi/src/datatype_template.cxx</text>
</a>
</g>
</g>
<!-- Node8&#45;&gt;Node10 -->
<g id="edge3" class="edge">
<title>Node8&#45;&gt;Node10</title>
<path fill="none" stroke="#191970" d="M1014.9601,-124.6258C1017.405,-115.2967 1019.9897,-105.4342 1022.043,-97.5991"/>
<polygon fill="#191970" stroke="#191970" points="1011.5433,-123.8577 1012.3938,-134.4183 1018.3146,-125.6323 1011.5433,-123.8577"/>
</g>
<!-- Node11 -->
<g id="node5" class="node">
<title>Node11</title>
<g id="a_node5"><a xlink:href="expression_8cxx.html" target="_top" xlink:title="/home/jbigot/data/projects\l/pdi/pdi/src/expression.cxx">
<polygon fill="#ffffff" stroke="#000000" points="801.5,-.5 801.5,-30.5 942.5,-30.5 942.5,-.5 801.5,-.5"/>
<text text-anchor="start" x="809.5" y="-18.5" font-family="Helvetica,sans-Serif" font-size="10.00" fill="#000000">/home/jbigot/data/projects</text>
<text text-anchor="middle" x="872" y="-7.5" font-family="Helvetica,sans-Serif" font-size="10.00" fill="#000000">/pdi/pdi/src/expression.cxx</text>
</a>
</g>
</g>
<!-- Node8&#45;&gt;Node11 -->
<g id="edge4" class="edge">
<title>Node8&#45;&gt;Node11</title>
<path fill="none" stroke="#191970" d="M964.5491,-128.4782C952.042,-119.6161 938.8213,-109.1362 928,-98 907.7326,-77.143 889.949,-48.131 880.1176,-30.6498"/>
<polygon fill="#191970" stroke="#191970" points="962.8361,-131.5483 973.0557,-134.3431 966.8095,-125.7853 962.8361,-131.5483"/>
</g>
<!-- Node12 -->
<g id="node6" class="node">
<title>Node12</title>
<g id="a_node6"><a xlink:href="ref__any_8cxx.html" target="_top" xlink:title="/home/jbigot/data/projects\l/pdi/pdi/src/ref_any.cxx">
<polygon fill="#ffffff" stroke="#000000" points="706,-67.5 706,-97.5 844,-97.5 844,-67.5 706,-67.5"/>
<text text-anchor="start" x="714" y="-85.5" font-family="Helvetica,sans-Serif" font-size="10.00" fill="#000000">/home/jbigot/data/projects</text>
<text text-anchor="middle" x="775" y="-74.5" font-family="Helvetica,sans-Serif" font-size="10.00" fill="#000000">/pdi/pdi/src/ref_any.cxx</text>
</a>
</g>
</g>
<!-- Node8&#45;&gt;Node12 -->
<g id="edge5" class="edge">
<title>Node8&#45;&gt;Node12</title>
<path fill="none" stroke="#191970" d="M931.2894,-131.3404C895.7821,-120.2444 854.524,-107.3512 823.3171,-97.5991"/>
<polygon fill="#191970" stroke="#191970" points="930.5499,-134.7762 941.1387,-134.4183 932.6379,-128.0948 930.5499,-134.7762"/>
</g>
<!-- Node13&#45;&gt;Node11 -->
<g id="edge9" class="edge">
<title>Node13&#45;&gt;Node11</title>
<path fill="none" stroke="#191970" d="M508.2857,-69.7736C593.2149,-57.1004 722.0583,-37.8744 801.4184,-26.0322"/>
<polygon fill="#191970" stroke="#191970" points="507.5264,-66.3481 498.1525,-71.2857 508.5596,-73.2714 507.5264,-66.3481"/>
</g>
<!-- Node14 -->
<g id="node8" class="node">
<title>Node14</title>
<g id="a_node8"><a xlink:href="context_8cxx.html" target="_top" xlink:title="/home/jbigot/data/projects\l/pdi/pdi/src/context.cxx">
<polygon fill="#ffffff" stroke="#000000" points="533,-.5 533,-30.5 671,-30.5 671,-.5 533,-.5"/>
<text text-anchor="start" x="541" y="-18.5" font-family="Helvetica,sans-Serif" font-size="10.00" fill="#000000">/home/jbigot/data/projects</text>
<text text-anchor="middle" x="602" y="-7.5" font-family="Helvetica,sans-Serif" font-size="10.00" fill="#000000">/pdi/pdi/src/context.cxx</text>
</a>
</g>
</g>
<!-- Node13&#45;&gt;Node14 -->
<g id="edge7" class="edge">
<title>Node13&#45;&gt;Node14</title>
<path fill="none" stroke="#191970" d="M472.786,-63.865C500.8054,-53.3773 535.3387,-40.4515 561.6537,-30.6017"/>
<polygon fill="#191970" stroke="#191970" points="471.3096,-60.6804 463.1711,-67.4639 473.7635,-67.2362 471.3096,-60.6804"/>
</g>
<!-- Node15 -->
<g id="node9" class="node">
<title>Node15</title>
<g id="a_node9"><a xlink:href="data__descriptor_8cxx.html" target="_top" xlink:title="/home/jbigot/data/projects\l/pdi/pdi/src/data_descriptor.cxx">
<polygon fill="#ffffff" stroke="#000000" points="0,-.5 0,-30.5 164,-30.5 164,-.5 0,-.5"/>
<text text-anchor="start" x="8" y="-18.5" font-family="Helvetica,sans-Serif" font-size="10.00" fill="#000000">/home/jbigot/data/projects</text>
<text text-anchor="middle" x="82" y="-7.5" font-family="Helvetica,sans-Serif" font-size="10.00" fill="#000000">/pdi/pdi/src/data_descriptor.cxx</text>
</a>
</g>
</g>
<!-- Node13&#45;&gt;Node15 -->
<g id="edge8" class="edge">
<title>Node13&#45;&gt;Node15</title>
<path fill="none" stroke="#191970" d="M337.6652,-65.7333C282.6536,-54.9246 211.7263,-40.9887 158.5383,-30.5383"/>
<polygon fill="#191970" stroke="#191970" points="337.2568,-69.2199 347.744,-67.7136 338.6064,-62.3513 337.2568,-69.2199"/>
</g>
<!-- Node16 -->
<g id="node10" class="node">
<title>Node16</title>
<g id="a_node10"><a xlink:href="pdi_8cxx.html" target="_top" xlink:title="/home/jbigot/data/projects\l/pdi/pdi/src/pdi.cxx">
<polygon fill="#ffffff" stroke="#000000" points="365,-.5 365,-30.5 503,-30.5 503,-.5 365,-.5"/>
<text text-anchor="start" x="373" y="-18.5" font-family="Helvetica,sans-Serif" font-size="10.00" fill="#000000">/home/jbigot/data/projects</text>
<text text-anchor="middle" x="434" y="-7.5" font-family="Helvetica,sans-Serif" font-size="10.00" fill="#000000">/pdi/pdi/src/pdi.cxx</text>
</a>
</g>
</g>
<!-- Node13&#45;&gt;Node16 -->
<g id="edge10" class="edge">
<title>Node13&#45;&gt;Node16</title>
<path fill="none" stroke="#191970" d="M427.1344,-57.3179C428.6081,-48.3414 430.2215,-38.5143 431.5138,-30.6432"/>
<polygon fill="#191970" stroke="#191970" points="423.6625,-56.8617 425.4961,-67.2967 430.57,-57.9958 423.6625,-56.8617"/>
</g>
<!-- Node17 -->
<g id="node11" class="node">
<title>Node17</title>
<g id="a_node11"><a xlink:href="plugin_8cxx.html" target="_top" xlink:title="/home/jbigot/data/projects\l/pdi/pdi/src/plugin.cxx">
<polygon fill="#ffffff" stroke="#000000" points="209,-.5 209,-30.5 347,-30.5 347,-.5 209,-.5"/>
<text text-anchor="start" x="217" y="-18.5" font-family="Helvetica,sans-Serif" font-size="10.00" fill="#000000">/home/jbigot/data/projects</text>
<text text-anchor="middle" x="278" y="-7.5" font-family="Helvetica,sans-Serif" font-size="10.00" fill="#000000">/pdi/pdi/src/plugin.cxx</text>
</a>
</g>
</g>
<!-- Node13&#45;&gt;Node17 -->
<g id="edge11" class="edge">
<title>Node13&#45;&gt;Node17</title>
<path fill="none" stroke="#191970" d="M381.1764,-63.1746C358.7549,-52.8143 331.534,-40.2364 310.6828,-30.6017"/>
<polygon fill="#191970" stroke="#191970" points="379.9133,-66.4465 390.4592,-67.4639 382.8495,-60.0921 379.9133,-66.4465"/>
</g>
<!-- Node18&#45;&gt;Node13 -->
<g id="edge13" class="edge">
<title>Node18&#45;&gt;Node13</title>
<path fill="none" stroke="#191970" d="M404.144,-125.2205C408.3386,-115.7173 412.8038,-105.6009 416.3356,-97.5991"/>
<polygon fill="#191970" stroke="#191970" points="400.9204,-123.8565 400.0843,-134.4183 407.3243,-126.6831 400.9204,-123.8565"/>
</g>
<!-- Node18&#45;&gt;Node15 -->
<g id="edge14" class="edge">
<title>Node18&#45;&gt;Node15</title>
<path fill="none" stroke="#191970" d="M311.6816,-152.3063C226.277,-147.5398 98.5095,-134.365 68,-98 52.1264,-79.0798 63.5086,-48.9073 72.9475,-30.7703"/>
<polygon fill="#191970" stroke="#191970" points="311.7061,-155.8124 321.8774,-152.8469 312.0768,-148.8222 311.7061,-155.8124"/>
</g>
<!-- Node18&#45;&gt;Node16 -->
<g id="edge15" class="edge">
<title>Node18&#45;&gt;Node16</title>
<path fill="none" stroke="#191970" d="M357.8309,-127.2777C341.2433,-109.9378 327.0053,-87.1462 339,-67 348.9814,-50.2353 366.5316,-38.5925 383.8537,-30.6767"/>
<polygon fill="#191970" stroke="#191970" points="355.4332,-129.8287 365.0141,-134.3517 360.3449,-124.8412 355.4332,-129.8287"/>
</g>
<!-- Node19&#45;&gt;Node8 -->
<g id="edge17" class="edge">
<title>Node19&#45;&gt;Node8</title>
<path fill="none" stroke="#191970" d="M898.0096,-271.9551C922.8406,-245.3095 963.8095,-201.3467 987.8159,-175.586"/>
<polygon fill="#191970" stroke="#191970" points="895.4168,-269.6035 891.1598,-279.3055 900.5379,-274.3759 895.4168,-269.6035"/>
</g>
<!-- Node19&#45;&gt;Node11 -->
<g id="edge45" class="edge">
<title>Node19&#45;&gt;Node11</title>
<path fill="none" stroke="#191970" d="M877.02,-269.2912C875.7617,-251.4367 871.3653,-227.9239 858,-212 831.6246,-180.5755 806.872,-199.1484 773,-176 724.2411,-142.6777 661.6224,-114.2888 697,-67 709.9007,-49.7558 758.484,-36.2989 801.1963,-27.4721"/>
<polygon fill="#191970" stroke="#191970" points="873.524,-269.4617 877.4464,-279.3037 880.5177,-269.1638 873.524,-269.4617"/>
</g>
<!-- Node19&#45;&gt;Node12 -->
<g id="edge47" class="edge">
<title>Node19&#45;&gt;Node12</title>
<path fill="none" stroke="#191970" d="M788.1038,-278.5688C750.632,-269.8756 713.1023,-257.8403 702,-243 666.4257,-195.4482 726.6911,-127.7952 757.9688,-97.8149"/>
<polygon fill="#191970" stroke="#191970" points="787.6053,-282.0439 798.1291,-280.8188 789.1383,-275.2138 787.6053,-282.0439"/>
</g>
<!-- Node19&#45;&gt;Node15 -->
<g id="edge43" class="edge">
<title>Node19&#45;&gt;Node15</title>
<path fill="none" stroke="#191970" d="M788.3192,-290.3204C609.8995,-280.4174 215.182,-250.5186 105,-176 69.2154,-151.7981 60.5768,-139.0115 47,-98 42.67,-84.9203 42.9487,-80.1687 47,-67 51.1323,-53.5678 60.0933,-40.4972 67.9133,-30.8848"/>
<polygon fill="#191970" stroke="#191970" points="788.2857,-293.8237 798.4618,-290.8747 788.6678,-286.8342 788.2857,-293.8237"/>
</g>
<!-- Node19&#45;&gt;Node16 -->
<g id="edge46" class="edge">
<title>Node19&#45;&gt;Node16</title>
<path fill="none" stroke="#191970" d="M788.1281,-290.068C643.1497,-280.6581 366.4875,-252.8336 313,-176 284.947,-135.7024 299.9429,-105.0305 331,-67 344.5942,-50.3535 364.9338,-38.6062 383.9567,-30.5789"/>
<polygon fill="#191970" stroke="#191970" points="788.1329,-293.5753 798.334,-290.7142 788.5752,-286.5892 788.1329,-293.5753"/>
</g>
<!-- Node19&#45;&gt;Node20 -->
<g id="edge18" class="edge">
<title>Node19&#45;&gt;Node20</title>
<path fill="none" stroke="#191970" d="M921.3095,-275.4223C982.0888,-249.2534 1090.8792,-202.4131 1153.3583,-175.5124"/>
<polygon fill="#191970" stroke="#191970" points="919.7822,-272.2692 911.9815,-279.4385 922.5505,-278.6986 919.7822,-272.2692"/>
</g>
<!-- Node19&#45;&gt;Node22 -->
<g id="edge22" class="edge">
<title>Node19&#45;&gt;Node22</title>
<path fill="none" stroke="#191970" d="M800.145,-277.2205C752.4118,-266.4886 691.6576,-252.8291 645.9111,-242.5438"/>
<polygon fill="#191970" stroke="#191970" points="799.5988,-280.685 810.123,-279.4639 801.1343,-273.8555 799.5988,-280.685"/>
</g>
<!-- Node19&#45;&gt;Node25 -->
<g id="edge37" class="edge">
<title>Node19&#45;&gt;Node25</title>
<path fill="none" stroke="#191970" d="M887.1916,-269.7652C892.5869,-253.1546 896.979,-230.9289 891,-212 886.8125,-198.7429 878.3153,-185.894 870.2254,-175.7618"/>
<polygon fill="#191970" stroke="#191970" points="883.8528,-268.7076 883.7863,-279.3023 890.4452,-271.0615 883.8528,-268.7076"/>
</g>
<!-- Node26 -->
<g id="node20" class="node">
<title>Node26</title>
<g id="a_node20"><a xlink:href="datatype_8cxx.html" target="_top" xlink:title="/home/jbigot/data/projects\l/pdi/pdi/src/datatype.cxx">
<polygon fill="#ffffff" stroke="#000000" points="711,-212.5 711,-242.5 849,-242.5 849,-212.5 711,-212.5"/>
<text text-anchor="start" x="719" y="-230.5" font-family="Helvetica,sans-Serif" font-size="10.00" fill="#000000">/home/jbigot/data/projects</text>
<text text-anchor="middle" x="780" y="-219.5" font-family="Helvetica,sans-Serif" font-size="10.00" fill="#000000">/pdi/pdi/src/datatype.cxx</text>
</a>
</g>
</g>
<!-- Node19&#45;&gt;Node26 -->
<g id="edge44" class="edge">
<title>Node19&#45;&gt;Node26</title>
<path fill="none" stroke="#191970" d="M846.3754,-273.3469C831.9422,-263.3776 815.0533,-251.7121 801.9237,-242.6432"/>
<polygon fill="#191970" stroke="#191970" points="844.772,-276.4932 854.9892,-279.2967 848.7503,-270.7335 844.772,-276.4932"/>
</g>
<!-- Node20&#45;&gt;Node10 -->
<g id="edge19" class="edge">
<title>Node20&#45;&gt;Node10</title>
<path fill="none" stroke="#191970" d="M1141.8221,-130.4834C1115.5162,-119.5853 1085.3822,-107.1012 1062.4461,-97.5991"/>
<polygon fill="#191970" stroke="#191970" points="1140.7419,-133.8244 1151.3201,-134.4183 1143.4212,-127.3574 1140.7419,-133.8244"/>
</g>
<!-- Node20&#45;&gt;Node12 -->
<g id="edge21" class="edge">
<title>Node20&#45;&gt;Node12</title>
<path fill="none" stroke="#191970" d="M1121.5258,-140.4551C1109.2988,-138.263 1096.8153,-136.0508 1085,-134 1002.3542,-119.655 907.1622,-103.9646 844.3047,-93.7191"/>
<polygon fill="#191970" stroke="#191970" points="1121.2541,-143.9624 1131.7158,-142.2879 1122.4933,-137.0729 1121.2541,-143.9624"/>
</g>
<!-- Node21 -->
<g id="node15" class="node">
<title>Node21</title>
<g id="a_node15"><a xlink:href="record__datatype_8cxx.html" target="_top" xlink:title="/home/jbigot/data/projects\l/pdi/pdi/src/record_datatype.cxx">
<polygon fill="#ffffff" stroke="#000000" points="1532.5,-67.5 1532.5,-97.5 1699.5,-97.5 1699.5,-67.5 1532.5,-67.5"/>
<text text-anchor="start" x="1540.5" y="-85.5" font-family="Helvetica,sans-Serif" font-size="10.00" fill="#000000">/home/jbigot/data/projects</text>
<text text-anchor="middle" x="1616" y="-74.5" font-family="Helvetica,sans-Serif" font-size="10.00" fill="#000000">/pdi/pdi/src/record_datatype.cxx</text>
</a>
</g>
</g>
<!-- Node20&#45;&gt;Node21 -->
<g id="edge20" class="edge">
<title>Node20&#45;&gt;Node21</title>
<path fill="none" stroke="#191970" d="M1280.4852,-140.5177C1292.7106,-138.3171 1305.1909,-136.0859 1317,-134 1389.6196,-121.1729 1472.2341,-106.9732 1532.1931,-96.7384"/>
<polygon fill="#191970" stroke="#191970" points="1279.5161,-137.136 1270.296,-142.3553 1280.7585,-144.0248 1279.5161,-137.136"/>
</g>
<!-- Node22&#45;&gt;Node11 -->
<g id="edge33" class="edge">
<title>Node22&#45;&gt;Node11</title>
<path fill="none" stroke="#191970" d="M590.4741,-203.2715C610.8116,-160.7395 652.1575,-76.2525 664,-67 685.3633,-50.3088 749.8226,-35.9301 801.381,-26.6409"/>
<polygon fill="#191970" stroke="#191970" points="587.2704,-201.8584 586.1278,-212.3914 593.5895,-204.8699 587.2704,-201.8584"/>
</g>
<!-- Node22&#45;&gt;Node12 -->
<g id="edge36" class="edge">
<title>Node22&#45;&gt;Node12</title>
<path fill="none" stroke="#191970" d="M610.9966,-206.733C624.5225,-197.6478 640.2869,-186.6488 654,-176 676.3892,-158.6138 679.7215,-151.5277 702,-134 718.3342,-121.149 737.5695,-107.6411 752.1936,-97.685"/>
<polygon fill="#191970" stroke="#191970" points="608.8612,-203.9498 602.4754,-212.4039 612.7395,-209.7773 608.8612,-203.9498"/>
</g>
<!-- Node22&#45;&gt;Node13 -->
<g id="edge23" class="edge">
<title>Node22&#45;&gt;Node13</title>
<path fill="none" stroke="#191970" d="M549.1973,-206.1468C537.2949,-197.2244 523.6722,-186.5024 512,-176 483.3454,-150.2172 453.0194,-116.8726 436.2031,-97.7662"/>
<polygon fill="#191970" stroke="#191970" points="547.3872,-209.1615 557.5075,-212.2968 551.5513,-203.5347 547.3872,-209.1615"/>
</g>
<!-- Node22&#45;&gt;Node14 -->
<g id="edge31" class="edge">
<title>Node22&#45;&gt;Node14</title>
<path fill="none" stroke="#191970" d="M581.7394,-202.2501C586.5688,-157.7351 596.4557,-66.6038 600.3609,-30.6084"/>
<polygon fill="#191970" stroke="#191970" points="578.2532,-201.9343 580.6541,-212.2535 585.2124,-202.6894 578.2532,-201.9343"/>
</g>
<!-- Node22&#45;&gt;Node15 -->
<g id="edge32" class="edge">
<title>Node22&#45;&gt;Node15</title>
<path fill="none" stroke="#191970" d="M492.5304,-219.1411C357.937,-204.0996 108.3887,-167.3785 57,-98 41.9456,-77.6755 57.6629,-48.2317 70.0844,-30.5664"/>
<polygon fill="#191970" stroke="#191970" points="492.4871,-222.6574 502.8101,-220.2727 493.2532,-215.6994 492.4871,-222.6574"/>
</g>
<!-- Node22&#45;&gt;Node16 -->
<g id="edge34" class="edge">
<title>Node22&#45;&gt;Node16</title>
<path fill="none" stroke="#191970" d="M579.2483,-202.2875C578.293,-168.0164 571.8283,-106.484 540,-67 526.4534,-50.195 506.0698,-38.4946 486.785,-30.5455"/>
<polygon fill="#191970" stroke="#191970" points="575.75,-202.4442 579.39,-212.3941 582.7493,-202.346 575.75,-202.4442"/>
</g>
<!-- Node22&#45;&gt;Node17 -->
<g id="edge35" class="edge">
<title>Node22&#45;&gt;Node17</title>
<path fill="none" stroke="#191970" d="M570.9911,-202.8759C557.3987,-162.5497 529.1346,-85.0891 507,-67 500.6696,-61.8266 412.2638,-42.897 347.1858,-29.4938"/>
<polygon fill="#191970" stroke="#191970" points="567.715,-204.1159 574.1935,-212.4992 574.3569,-201.9056 567.715,-204.1159"/>
</g>
<!-- Node22&#45;&gt;Node18 -->
<g id="edge24" class="edge">
<title>Node22&#45;&gt;Node18</title>
<path fill="none" stroke="#191970" d="M530.609,-208.8386C504.1518,-198.6357 471.3321,-185.9791 444.1625,-175.5015"/>
<polygon fill="#191970" stroke="#191970" points="529.4567,-212.1454 540.0463,-212.478 531.9754,-205.6142 529.4567,-212.1454"/>
</g>
<!-- Node22&#45;&gt;Node23 -->
<g id="edge25" class="edge">
<title>Node22&#45;&gt;Node23</title>
<path fill="none" stroke="#191970" d="M665.2988,-215.9268C677.6041,-214.4801 690.114,-213.1186 702,-212 957.8128,-187.9256 1023.6448,-204.5216 1279,-176 1293.9957,-174.3251 1309.9,-172.118 1325.2476,-169.7644"/>
<polygon fill="#191970" stroke="#191970" points="664.5407,-212.4926 655.0287,-217.1586 665.3744,-219.4428 664.5407,-212.4926"/>
</g>
<!-- Node23&#45;&gt;Node9 -->
<g id="edge26" class="edge">
<title>Node23&#45;&gt;Node9</title>
<path fill="none" stroke="#191970" d="M1417.4439,-130.5128C1421.2169,-119.5709 1425.543,-107.0252 1428.8266,-97.5028"/>
<polygon fill="#191970" stroke="#191970" points="1414.1312,-129.3832 1414.18,-139.978 1420.7488,-131.6652 1414.1312,-129.3832"/>
</g>
<!-- Node23&#45;&gt;Node10 -->
<g id="edge27" class="edge">
<title>Node23&#45;&gt;Node10</title>
<path fill="none" stroke="#191970" d="M1330.9182,-137.8474C1324.5235,-136.5183 1318.1559,-135.2202 1312,-134 1245.8091,-120.8797 1170.7144,-107.4114 1114.0875,-97.5401"/>
<polygon fill="#191970" stroke="#191970" points="1330.4568,-141.3267 1340.9624,-139.9547 1331.8942,-134.4759 1330.4568,-141.3267"/>
</g>
<!-- Node23&#45;&gt;Node11 -->
<g id="edge28" class="edge">
<title>Node23&#45;&gt;Node11</title>
<path fill="none" stroke="#191970" d="M1329.9499,-137.7376C1260.3313,-122.3932 1168.7888,-101.8116 1161,-98 1141.4226,-88.4195 1142.6888,-76.3494 1123,-67 1065.8386,-39.8564 994.7029,-26.977 942.7722,-20.8905"/>
<polygon fill="#191970" stroke="#191970" points="1329.5311,-141.2292 1340.0498,-139.961 1331.0361,-134.3929 1329.5311,-141.2292"/>
</g>
<!-- Node23&#45;&gt;Node21 -->
<g id="edge29" class="edge">
<title>Node23&#45;&gt;Node21</title>
<path fill="none" stroke="#191970" d="M1461.3569,-136.6624C1495.9425,-124.5491 1540.705,-108.8714 1573.1644,-97.5028"/>
<polygon fill="#191970" stroke="#191970" points="1460.1715,-133.3691 1451.8905,-139.978 1462.4854,-139.9756 1460.1715,-133.3691"/>
</g>
<!-- Node24 -->
<g id="node18" class="node">
<title>Node24</title>
<g id="a_node18"><a xlink:href="scalar__datatype_8cxx.html" target="_top" xlink:title="/home/jbigot/data/projects\l/pdi/pdi/src/scalar_datatype.cxx">
<polygon fill="#ffffff" stroke="#000000" points="1170.5,-67.5 1170.5,-97.5 1335.5,-97.5 1335.5,-67.5 1170.5,-67.5"/>
<text text-anchor="start" x="1178.5" y="-85.5" font-family="Helvetica,sans-Serif" font-size="10.00" fill="#000000">/home/jbigot/data/projects</text>
<text text-anchor="middle" x="1253" y="-74.5" font-family="Helvetica,sans-Serif" font-size="10.00" fill="#000000">/pdi/pdi/src/scalar_datatype.cxx</text>
</a>
</g>
</g>
<!-- Node23&#45;&gt;Node24 -->
<g id="edge30" class="edge">
<title>Node23&#45;&gt;Node24</title>
<path fill="none" stroke="#191970" d="M1367.5228,-135.7237C1341.7543,-123.748 1309.1168,-108.5799 1285.2819,-97.5028"/>
<polygon fill="#191970" stroke="#191970" points="1366.1331,-138.9373 1376.6767,-139.978 1369.0833,-132.5894 1366.1331,-138.9373"/>
</g>
<!-- Node25&#45;&gt;Node10 -->
<g id="edge39" class="edge">
<title>Node25&#45;&gt;Node10</title>
<path fill="none" stroke="#191970" d="M910.1779,-130.4834C936.4838,-119.5853 966.6178,-107.1012 989.5539,-97.5991"/>
<polygon fill="#191970" stroke="#191970" points="908.5788,-127.3574 900.6799,-134.4183 911.2581,-133.8244 908.5788,-127.3574"/>
</g>
<!-- Node25&#45;&gt;Node11 -->
<g id="edge40" class="edge">
<title>Node25&#45;&gt;Node11</title>
<path fill="none" stroke="#191970" d="M855.6085,-124.3864C859.9794,-95.3514 866.364,-52.9389 869.7296,-30.5822"/>
<polygon fill="#191970" stroke="#191970" points="852.1263,-124.0067 854.0986,-134.4163 859.0483,-125.0488 852.1263,-124.0067"/>
</g>
<!-- Node25&#45;&gt;Node12 -->
<g id="edge41" class="edge">
<title>Node25&#45;&gt;Node12</title>
<path fill="none" stroke="#191970" d="M821.9507,-127.2885C811.3792,-117.2038 799.8277,-106.1843 790.828,-97.5991"/>
<polygon fill="#191970" stroke="#191970" points="819.7731,-130.0483 829.4247,-134.4183 824.6049,-124.9833 819.7731,-130.0483"/>
</g>
<!-- Node25&#45;&gt;Node15 -->
<g id="edge38" class="edge">
<title>Node25&#45;&gt;Node15</title>
<path fill="none" stroke="#191970" d="M771.6035,-150.2009C581.2435,-138.5327 113.6093,-108.8413 101,-98 81.7194,-81.4228 79.8208,-49.5746 80.6164,-30.6656"/>
<polygon fill="#191970" stroke="#191970" points="771.6294,-153.709 781.8245,-150.8264 772.057,-146.722 771.6294,-153.709"/>
</g>
<!-- Node25&#45;&gt;Node24 -->
<g id="edge42" class="edge">
<title>Node25&#45;&gt;Node24</title>
<path fill="none" stroke="#191970" d="M930.0253,-133.8777C1017.2282,-115.5815 1106.9676,-101.953 1170.3287,-93.1918"/>
<polygon fill="#191970" stroke="#191970" points="929.2868,-130.4564 920.2306,-135.955 930.7391,-137.3041 929.2868,-130.4564"/>
</g>
<!-- Node27&#45;&gt;Node10 -->
<g id="edge51" class="edge">
<title>Node27&#45;&gt;Node10</title>
<path fill="none" stroke="#191970" d="M1006.0916,-337.791C1030.6523,-301.8061 1069.7956,-237.8202 1085,-176 1089.4581,-157.8735 1092.7236,-150.9938 1085,-134 1078.1367,-118.8989 1064.4154,-106.4948 1051.9313,-97.6467"/>
<polygon fill="#191970" stroke="#191970" points="1003.0021,-336.1045 1000.1849,-346.318 1008.7564,-340.0905 1003.0021,-336.1045"/>
</g>
<!-- Node27&#45;&gt;Node18 -->
<g id="edge49" class="edge">
<title>Node27&#45;&gt;Node18</title>
<path fill="none" stroke="#191970" d="M983.3978,-336.2718C981.1379,-318.1838 975.9126,-295.6621 964,-279 931.5858,-233.6624 910.4948,-230.7209 858,-212 786.3568,-186.4504 571.7708,-167.9066 460.1567,-159.6984"/>
<polygon fill="#191970" stroke="#191970" points="979.9265,-336.7338 984.4138,-346.3315 986.8911,-336.0304 979.9265,-336.7338"/>
</g>
<!-- Node27&#45;&gt;Node19 -->
<g id="edge50" class="edge">
<title>Node27&#45;&gt;Node19</title>
<path fill="none" stroke="#191970" d="M945.8968,-340.7502C930.299,-330.2794 912.9023,-318.6011 899.4925,-309.5991"/>
<polygon fill="#191970" stroke="#191970" points="944.0869,-343.7507 954.3404,-346.4183 947.9885,-337.9388 944.0869,-343.7507"/>
</g>
<!-- Node28&#45;&gt;Node9 -->
<g id="edge54" class="edge">
<title>Node28&#45;&gt;Node9</title>
<path fill="none" stroke="#191970" d="M1904.9654,-276.5562C1833.4971,-255.4764 1714.0455,-218.0058 1615,-176 1577.667,-160.1668 1570.0259,-152.6167 1534,-134 1510.2323,-121.7179 1483.2643,-107.8322 1463.3281,-97.5769"/>
<polygon fill="#191970" stroke="#191970" points="1904.1433,-279.9625 1914.7243,-279.4206 1906.1148,-273.2458 1904.1433,-279.9625"/>
</g>
<!-- Node28&#45;&gt;Node10 -->
<g id="edge57" class="edge">
<title>Node28&#45;&gt;Node10</title>
<path fill="none" stroke="#191970" d="M1888.3253,-285.9968C1811.9518,-277.2784 1693.5986,-262.2815 1592,-243 1468.4086,-219.5447 1425.0802,-240.3712 1317,-176 1295.3724,-163.1189 1300.8695,-146.4661 1279,-134 1264.4454,-125.7036 1180.6076,-109.5337 1113.3708,-97.5157"/>
<polygon fill="#191970" stroke="#191970" points="1888.0227,-289.4848 1898.3532,-287.1329 1888.8108,-282.5293 1888.0227,-289.4848"/>
</g>
<!-- Node28&#45;&gt;Node11 -->
<g id="edge59" class="edge">
<title>Node28&#45;&gt;Node11</title>
<path fill="none" stroke="#191970" d="M2016.4739,-274.4609C2029.355,-266.6413 2041.7001,-256.2917 2049,-243 2086.6549,-174.4375 2103.089,-123.5075 2049,-67 2010.6144,-26.8981 1190.6679,-17.7741 942.5264,-15.9278"/>
<polygon fill="#191970" stroke="#191970" points="2014.5385,-271.5334 2007.5259,-279.4754 2017.9606,-277.6399 2014.5385,-271.5334"/>
</g>
<!-- Node28&#45;&gt;Node14 -->
<g id="edge55" class="edge">
<title>Node28&#45;&gt;Node14</title>
<path fill="none" stroke="#191970" d="M2048.064,-291.8654C2126.3831,-287.4024 2237.751,-275.3806 2265,-243 2273.8712,-232.4582 2271.4817,-224.1579 2265,-212 2210.6046,-109.9695 2159.1163,-102.2631 2049,-67 1915.9326,-24.3871 931.5125,-38.6831 792,-31 752.0148,-28.798 707.3814,-25.2148 671.4266,-22.048"/>
<polygon fill="#191970" stroke="#191970" points="2047.5227,-288.3894 2037.7254,-292.422 2047.8991,-295.3792 2047.5227,-288.3894"/>
</g>
<!-- Node28&#45;&gt;Node15 -->
<g id="edge56" class="edge">
<title>Node28&#45;&gt;Node15</title>
<path fill="none" stroke="#191970" d="M1979.1268,-270.0776C1998.4939,-223.4603 2031.492,-121.586 1978,-67 1943.425,-31.7178 249.2586,-34.7225 200,-31 188.3591,-30.1203 176.1088,-28.8739 164.0851,-27.4655"/>
<polygon fill="#191970" stroke="#191970" points="1975.8508,-268.8365 1975.1233,-279.4063 1982.2834,-271.5972 1975.8508,-268.8365"/>
</g>
<!-- Node28&#45;&gt;Node16 -->
<g id="edge61" class="edge">
<title>Node28&#45;&gt;Node16</title>
<path fill="none" stroke="#191970" d="M1992.7008,-271.8706C2000.0424,-263.588 2007.1487,-253.6217 2011,-243 2037.6639,-169.4626 2065.638,-122.9768 2011,-67 1982.1397,-37.4326 565.1219,-35.017 524,-31 517.2146,-30.3372 510.1695,-29.4597 503.1433,-28.4584"/>
<polygon fill="#191970" stroke="#191970" points="1990.0318,-269.5986 1985.6884,-279.2622 1995.1101,-274.4164 1990.0318,-269.5986"/>
</g>
<!-- Node28&#45;&gt;Node21 -->
<g id="edge62" class="edge">
<title>Node28&#45;&gt;Node21</title>
<path fill="none" stroke="#191970" d="M2047.9397,-290.8815C2121.5167,-285.6754 2222.9255,-273.107 2248,-243 2256.8173,-232.4131 2256.7098,-222.6755 2248,-212 2213.4168,-169.612 1863.5124,-116.4965 1699.7256,-93.7164"/>
<polygon fill="#191970" stroke="#191970" points="2047.495,-287.4035 2037.7532,-291.5683 2047.966,-294.3876 2047.495,-287.4035"/>
</g>
<!-- Node28&#45;&gt;Node22 -->
<g id="edge53" class="edge">
<title>Node28&#45;&gt;Node22</title>
<path fill="none" stroke="#191970" d="M1888.0958,-293.597C1688.0027,-290.8259 1149.369,-280.2199 702,-243 686.7712,-241.733 670.5286,-239.9765 655.0058,-238.0996"/>
<polygon fill="#191970" stroke="#191970" points="1888.177,-297.0984 1898.2236,-293.7346 1888.2721,-290.099 1888.177,-297.0984"/>
</g>
<!-- Node28&#45;&gt;Node24 -->
<g id="edge63" class="edge">
<title>Node28&#45;&gt;Node24</title>
<path fill="none" stroke="#191970" d="M1888.3393,-282.6175C1835.9593,-273.8838 1766.2211,-260.4977 1706,-243 1627.2187,-220.1095 1599.8945,-224.8711 1534,-176 1514.9324,-161.8584 1521.1787,-146.505 1501,-134 1486.7962,-125.1977 1402.0297,-108.6924 1335.5011,-96.7345"/>
<polygon fill="#191970" stroke="#191970" points="1887.8076,-286.077 1898.2433,-284.248 1888.9447,-279.17 1887.8076,-286.077"/>
</g>
<!-- Node29 -->
<g id="node23" class="node">
<title>Node29</title>
<g id="a_node23"><a xlink:href="error_8cxx.html" target="_top" xlink:title="/home/jbigot/data/projects\l/pdi/pdi/src/error.cxx">
<polygon fill="#ffffff" stroke="#000000" points="2101,-212.5 2101,-242.5 2239,-242.5 2239,-212.5 2101,-212.5"/>
<text text-anchor="start" x="2109" y="-230.5" font-family="Helvetica,sans-Serif" font-size="10.00" fill="#000000">/home/jbigot/data/projects</text>
<text text-anchor="middle" x="2170" y="-219.5" font-family="Helvetica,sans-Serif" font-size="10.00" fill="#000000">/pdi/pdi/src/error.cxx</text>
</a>
</g>
</g>
<!-- Node28&#45;&gt;Node29 -->
<g id="edge58" class="edge">
<title>Node28&#45;&gt;Node29</title>
<path fill="none" stroke="#191970" d="M2022.9443,-276.2759C2054.78,-265.7165 2094.3842,-252.5805 2124.4695,-242.6017"/>
<polygon fill="#191970" stroke="#191970" points="2021.7224,-272.9936 2013.3327,-279.4639 2023.9262,-279.6377 2021.7224,-272.9936"/>
</g>
<!-- Node30 -->
<g id="node24" class="node">
<title>Node30</title>
<g id="a_node24"><a xlink:href="paraconf__wrapper_8cxx.html" target="_top" xlink:title="/home/jbigot/data/projects\l/pdi/pdi/src/paraconf_wrapper.cxx">
<polygon fill="#ffffff" stroke="#000000" points="1793,-67.5 1793,-97.5 1969,-97.5 1969,-67.5 1793,-67.5"/>
<text text-anchor="start" x="1801" y="-85.5" font-family="Helvetica,sans-Serif" font-size="10.00" fill="#000000">/home/jbigot/data/projects</text>
<text text-anchor="middle" x="1881" y="-74.5" font-family="Helvetica,sans-Serif" font-size="10.00" fill="#000000">/pdi/pdi/src/paraconf_wrapper.cxx</text>
</a>
</g>
</g>
<!-- Node28&#45;&gt;Node30 -->
<g id="edge60" class="edge">
<title>Node28&#45;&gt;Node30</title>
<path fill="none" stroke="#191970" d="M1957.8687,-269.8123C1939.6867,-225.5067 1902.0343,-133.756 1887.2001,-97.6084"/>
<polygon fill="#191970" stroke="#191970" points="1954.7086,-271.331 1961.7432,-279.2535 1961.1845,-268.6734 1954.7086,-271.331"/>
</g>
<!-- Node31&#45;&gt;Node9 -->
<g id="edge66" class="edge">
<title>Node31&#45;&gt;Node9</title>
<path fill="none" stroke="#191970" d="M1613.711,-131.8525C1572.7899,-120.6147 1524.8002,-107.4357 1488.7104,-97.5246"/>
<polygon fill="#191970" stroke="#191970" points="1612.8369,-135.2419 1623.4068,-134.5151 1614.6907,-128.4918 1612.8369,-135.2419"/>
</g>
<!-- Node31&#45;&gt;Node10 -->
<g id="edge68" class="edge">
<title>Node31&#45;&gt;Node10</title>
<path fill="none" stroke="#191970" d="M1613.0568,-145.9318C1578.3176,-142.2267 1537.7331,-137.9026 1501,-134 1349.8946,-117.9465 1312.039,-114.6666 1161,-98 1145.9925,-96.344 1130.0513,-94.5472 1114.5812,-92.7836"/>
<polygon fill="#191970" stroke="#191970" points="1612.8494,-149.4295 1623.1642,-147.01 1613.5919,-142.469 1612.8494,-149.4295"/>
</g>
<!-- Node31&#45;&gt;Node14 -->
<g id="edge67" class="edge">
<title>Node31&#45;&gt;Node14</title>
<path fill="none" stroke="#191970" d="M1727.5785,-126.6651C1743.6325,-107.9359 1757.2015,-83.8278 1741,-67 1704.4069,-28.9924 844.6663,-34.1457 792,-31 752.0255,-28.6124 707.3926,-25.019 671.4355,-21.8932"/>
<polygon fill="#191970" stroke="#191970" points="1724.7548,-124.5686 1720.6257,-134.3257 1729.9382,-129.2731 1724.7548,-124.5686"/>
</g>
<!-- Node31&#45;&gt;Node16 -->
<g id="edge70" class="edge">
<title>Node31&#45;&gt;Node16</title>
<path fill="none" stroke="#191970" d="M1712.6881,-124.7731C1719.5993,-105.7149 1723.5154,-81.9631 1709,-67 1663.1399,-19.7255 589.5316,-37.6055 524,-31 517.2167,-30.3163 510.173,-29.4249 503.1476,-28.415"/>
<polygon fill="#191970" stroke="#191970" points="1709.365,-123.6561 1708.8827,-134.24 1715.8599,-126.2669 1709.365,-123.6561"/>
</g>
<!-- Node31&#45;&gt;Node21 -->
<g id="edge71" class="edge">
<title>Node31&#45;&gt;Node21</title>
<path fill="none" stroke="#191970" d="M1666.9893,-127.582C1655.4935,-117.418 1642.8821,-106.2677 1633.0776,-97.5991"/>
<polygon fill="#191970" stroke="#191970" points="1664.9114,-130.4166 1674.7214,-134.4183 1669.548,-125.1724 1664.9114,-130.4166"/>
</g>
<!-- Node31&#45;&gt;Node24 -->
<g id="edge72" class="edge">
<title>Node31&#45;&gt;Node24</title>
<path fill="none" stroke="#191970" d="M1613.4887,-141.6129C1541.7482,-130.1958 1436.0869,-113.256 1344,-98 1341.3122,-97.5547 1338.5801,-97.1002 1335.8214,-96.6397"/>
<polygon fill="#191970" stroke="#191970" points="1612.9559,-145.072 1623.3815,-143.1864 1614.0555,-138.1589 1612.9559,-145.072"/>
</g>
<!-- Node31&#45;&gt;Node30 -->
<g id="edge69" class="edge">
<title>Node31&#45;&gt;Node30</title>
<path fill="none" stroke="#191970" d="M1759.5215,-130.6267C1787.1151,-119.6948 1818.798,-107.1429 1842.8878,-97.5991"/>
<polygon fill="#191970" stroke="#191970" points="1757.9588,-127.4811 1749.951,-134.4183 1760.5371,-133.989 1757.9588,-127.4811"/>
</g>
<!-- Node32&#45;&gt;Node14 -->
<g id="edge74" class="edge">
<title>Node32&#45;&gt;Node14</title>
<path fill="none" stroke="#191970" d="M263.5523,-70.1382C330.3734,-59.9215 427.3682,-44.8907 512,-31 518.7276,-29.8958 525.7344,-28.7252 532.7368,-27.5417"/>
<polygon fill="#191970" stroke="#191970" points="262.8627,-66.7029 253.5058,-71.6728 263.9197,-73.6226 262.8627,-66.7029"/>
</g>
<!-- Node32&#45;&gt;Node15 -->
<g id="edge75" class="edge">
<title>Node32&#45;&gt;Node15</title>
<path fill="none" stroke="#191970" d="M150.8487,-61.6286C135.8775,-51.5979 118.2651,-39.7976 104.6017,-30.6432"/>
<polygon fill="#191970" stroke="#191970" points="149.0526,-64.6382 159.3085,-67.2967 152.9489,-58.8228 149.0526,-64.6382"/>
</g>
<!-- Node32&#45;&gt;Node16 -->
<g id="edge76" class="edge">
<title>Node32&#45;&gt;Node16</title>
<path fill="none" stroke="#191970" d="M248.2444,-64.8874C288.3391,-54.2273 338.9394,-40.774 377.1996,-30.6017"/>
<polygon fill="#191970" stroke="#191970" points="247.3186,-61.5119 238.5537,-67.4639 249.1173,-68.2768 247.3186,-61.5119"/>
</g>
<!-- Node32&#45;&gt;Node17 -->
<g id="edge77" class="edge">
<title>Node32&#45;&gt;Node17</title>
<path fill="none" stroke="#191970" d="M212.3089,-61.3469C226.5933,-51.3776 243.3081,-39.7121 256.3023,-30.6432"/>
<polygon fill="#191970" stroke="#191970" points="209.9811,-58.7033 203.7839,-67.2967 213.9874,-64.4436 209.9811,-58.7033"/>
</g>
</g>
</svg>
