<?xml version="1.0" encoding="UTF-8" standalone="no"?>
<!DOCTYPE svg PUBLIC "-//W3C//DTD SVG 1.1//EN"
 "http://www.w3.org/Graphics/SVG/1.1/DTD/svg11.dtd">
<!-- Generated by graphviz version 2.40.1 (20161225.0304)
 -->
<!-- Title: PDI_expose Pages: 1 -->
<svg width="192pt" height="66pt"
 viewBox="0.00 0.00 192.00 66.00" xmlns="http://www.w3.org/2000/svg" xmlns:xlink="http://www.w3.org/1999/xlink">
<g id="graph0" class="graph" transform="scale(1 1) rotate(0) translate(4 62)">
<title>PDI_expose</title>
<polygon fill="#ffffff" stroke="transparent" points="-4,4 -4,-62 188,-62 188,4 -4,4"/>
<!-- Node11 -->
<g id="node1" class="node">
<title>Node11</title>
<polygon fill="#bfbfbf" stroke="#000000" points="0,-19.5 0,-38.5 74,-38.5 74,-19.5 0,-19.5"/>
<text text-anchor="middle" x="37" y="-26.5" font-family="Helvetica,sans-Serif" font-size="10.00" fill="#000000">PDI_expose</text>
</g>
<!-- Node12 -->
<g id="node2" class="node">
<title>Node12</title>
<g id="a_node2"><a xlink:href="pdi_8cxx.html#a1e7bd53812b4bc1f2708d0c6176aae29" target="_top" xlink:title="PDI_share">
<polygon fill="#ffffff" stroke="#000000" points="113.5,-38.5 113.5,-57.5 180.5,-57.5 180.5,-38.5 113.5,-38.5"/>
<text text-anchor="middle" x="147" y="-45.5" font-family="Helvetica,sans-Serif" font-size="10.00" fill="#000000">PDI_share</text>
</a>
</g>
</g>
<!-- Node11&#45;&gt;Node12 -->
<g id="edge1" class="edge">
<title>Node11&#45;&gt;Node12</title>
<path fill="none" stroke="#191970" d="M74.241,-35.4325C83.6778,-37.0625 93.896,-38.8275 103.6082,-40.5051"/>
<polygon fill="#191970" stroke="#191970" points="103.0424,-43.9591 113.4922,-42.2123 104.2339,-37.0612 103.0424,-43.9591"/>
</g>
<!-- Node13 -->
<g id="node3" class="node">
<title>Node13</title>
<g id="a_node3"><a xlink:href="pdi_8cxx.html#abf58b7c146cbf7e3341245f60cec0f7e" target="_top" xlink:title="PDI_reclaim">
<polygon fill="#ffffff" stroke="#000000" points="110,-.5 110,-19.5 184,-19.5 184,-.5 110,-.5"/>
<text text-anchor="middle" x="147" y="-7.5" font-family="Helvetica,sans-Serif" font-size="10.00" fill="#000000">PDI_reclaim</text>
</a>
</g>
</g>
<!-- Node11&#45;&gt;Node13 -->
<g id="edge2" class="edge">
<title>Node11&#45;&gt;Node13</title>
<path fill="none" stroke="#191970" d="M74.241,-22.5675C82.4838,-21.1437 91.3229,-19.617 99.9001,-18.1354"/>
<polygon fill="#191970" stroke="#191970" points="100.539,-21.577 109.7974,-16.4259 99.3475,-14.6791 100.539,-21.577"/>
</g>
</g>
</svg>
