<?xml version="1.0" encoding="UTF-8" standalone="no"?>
<!DOCTYPE svg PUBLIC "-//W3C//DTD SVG 1.1//EN"
 "http://www.w3.org/Graphics/SVG/1.1/DTD/svg11.dtd">
<!-- Generated by graphviz version 2.40.1 (20161225.0304)
 -->
<!-- Title: /home/jbigot/data/projects/pdi/pdi/include/pdi.h Pages: 1 -->
<svg width="320pt" height="95pt"
 viewBox="0.00 0.00 320.00 95.00" xmlns="http://www.w3.org/2000/svg" xmlns:xlink="http://www.w3.org/1999/xlink">
<g id="graph0" class="graph" transform="scale(1 1) rotate(0) translate(4 91)">
<title>/home/jbigot/data/projects/pdi/pdi/include/pdi.h</title>
<polygon fill="#ffffff" stroke="transparent" points="-4,4 -4,-91 316,-91 316,4 -4,4"/>
<!-- Node0 -->
<g id="node1" class="node">
<title>Node0</title>
<polygon fill="#bfbfbf" stroke="#000000" points="67.5,-56.5 67.5,-86.5 205.5,-86.5 205.5,-56.5 67.5,-56.5"/>
<text text-anchor="start" x="75.5" y="-74.5" font-family="Helvetica,sans-Serif" font-size="10.00" fill="#000000">/home/jbigot/data/projects</text>
<text text-anchor="middle" x="136.5" y="-63.5" font-family="Helvetica,sans-Serif" font-size="10.00" fill="#000000">/pdi/pdi/include/pdi.h</text>
</g>
<!-- Node1 -->
<g id="node2" class="node">
<title>Node1</title>
<polygon fill="#ffffff" stroke="#bfbfbf" points="0,-.5 0,-19.5 41,-19.5 41,-.5 0,-.5"/>
<text text-anchor="middle" x="20.5" y="-7.5" font-family="Helvetica,sans-Serif" font-size="10.00" fill="#000000">mpi.h</text>
</g>
<!-- Node0&#45;&gt;Node1 -->
<g id="edge1" class="edge">
<title>Node0&#45;&gt;Node1</title>
<path fill="none" stroke="#191970" d="M108.1232,-56.4554C89.6172,-46.644 65.6112,-33.9167 47.4069,-24.2653"/>
<polygon fill="#191970" stroke="#191970" points="48.9505,-21.1222 38.4759,-19.5303 45.6715,-27.3068 48.9505,-21.1222"/>
</g>
<!-- Node2 -->
<g id="node3" class="node">
<title>Node2</title>
<polygon fill="#ffffff" stroke="#bfbfbf" points="59,-.5 59,-19.5 126,-19.5 126,-.5 59,-.5"/>
<text text-anchor="middle" x="92.5" y="-7.5" font-family="Helvetica,sans-Serif" font-size="10.00" fill="#000000">paraconf.h</text>
</g>
<!-- Node0&#45;&gt;Node2 -->
<g id="edge2" class="edge">
<title>Node0&#45;&gt;Node2</title>
<path fill="none" stroke="#191970" d="M125.6236,-56.2977C119.5159,-47.7609 111.8561,-37.0545 105.4412,-28.0883"/>
<polygon fill="#191970" stroke="#191970" points="108.2101,-25.9433 99.545,-19.8469 102.5171,-30.0163 108.2101,-25.9433"/>
</g>
<!-- Node3 -->
<g id="node4" class="node">
<title>Node3</title>
<polygon fill="#ffffff" stroke="#bfbfbf" points="144.5,-.5 144.5,-19.5 216.5,-19.5 216.5,-.5 144.5,-.5"/>
<text text-anchor="middle" x="180.5" y="-7.5" font-family="Helvetica,sans-Serif" font-size="10.00" fill="#000000">pdi/export.h</text>
</g>
<!-- Node0&#45;&gt;Node3 -->
<g id="edge3" class="edge">
<title>Node0&#45;&gt;Node3</title>
<path fill="none" stroke="#191970" d="M147.3764,-56.2977C153.4841,-47.7609 161.1439,-37.0545 167.5588,-28.0883"/>
<polygon fill="#191970" stroke="#191970" points="170.4829,-30.0163 173.455,-19.8469 164.7899,-25.9433 170.4829,-30.0163"/>
</g>
<!-- Node4 -->
<g id="node5" class="node">
<title>Node4</title>
<polygon fill="#ffffff" stroke="#bfbfbf" points="235,-.5 235,-19.5 312,-19.5 312,-.5 235,-.5"/>
<text text-anchor="middle" x="273.5" y="-7.5" font-family="Helvetica,sans-Serif" font-size="10.00" fill="#000000">pdi/version.h</text>
</g>
<!-- Node0&#45;&gt;Node4 -->
<g id="edge4" class="edge">
<title>Node0&#45;&gt;Node4</title>
<path fill="none" stroke="#191970" d="M170.014,-56.4554C192.2712,-46.464 221.2647,-33.4487 242.8985,-23.7372"/>
<polygon fill="#191970" stroke="#191970" points="244.5803,-26.8187 252.2699,-19.5303 241.7135,-20.4327 244.5803,-26.8187"/>
</g>
</g>
</svg>
