<?xml version="1.0" encoding="UTF-8" standalone="no"?>
<!DOCTYPE svg PUBLIC "-//W3C//DTD SVG 1.1//EN"
 "http://www.w3.org/Graphics/SVG/1.1/DTD/svg11.dtd">
<!-- Generated by graphviz version 2.40.1 (20161225.0304)
 -->
<!-- Title: /home/jbigot/data/projects/pdi/pdi/src/plugin.cxx Pages: 1 -->
<!--zoomable 487 -->
<svg id="main" version="1.1" xmlns="http://www.w3.org/2000/svg" xmlns:xlink="http://www.w3.org/1999/xlink" xml:space="preserve" onload="init(evt)">
<style type="text/css"><![CDATA[
.edge:hover path { stroke: red; }
.edge:hover polygon { stroke: red; fill: red; }
]]></style>
<script type="text/javascript"><![CDATA[
var edges = document.getElementsByTagName('g');
if (edges && edges.length) {
  for (var i=0;i<edges.length;i++) {
    if (edges[i].id.substr(0,4)=='edge') {
      edges[i].setAttribute('class','edge');
    }
  }
}
]]></script>
        <defs>
                <circle id="rim" cx="0" cy="0" r="7"/>
                <circle id="rim2" cx="0" cy="0" r="3.5"/>
                <g id="zoomPlus">
                        <use xlink:href="#rim" fill="#404040">
                                <set attributeName="fill" to="#808080" begin="zoomplus.mouseover" end="zoomplus.mouseout"/>
                        </use>
                        <path d="M-4,0h8M0,-4v8" fill="none" stroke="white" stroke-width="1.5" pointer-events="none"/>
                </g>
                <g id="zoomMin">
                        <use xlink:href="#rim" fill="#404040">
                                <set attributeName="fill" to="#808080" begin="zoomminus.mouseover" end="zoomminus.mouseout"/>
                        </use>
                        <path d="M-4,0h8" fill="none" stroke="white" stroke-width="1.5" pointer-events="none"/>
                </g>
                <g id="dirArrow">
                        <path fill="none" stroke="white" stroke-width="1.5" d="M0,-3.0v7 M-2.5,-0.5L0,-3.0L2.5,-0.5"/>
                </g>
               <g id="resetDef">
                       <use xlink:href="#rim2" fill="#404040">
                               <set attributeName="fill" to="#808080" begin="reset.mouseover" end="reset.mouseout"/>
                       </use>
               </g>
        </defs>

<script type="text/javascript">
var viewWidth = 1068;
var viewHeight = 487;
var sectionId = 'dynsection-0';
</script>
<script xlink:href="svgpan.js"/>
<svg id="graph" class="graph">
<g id="viewport">
<title>/home/jbigot/data/projects/pdi/pdi/src/plugin.cxx</title>
<polygon fill="#ffffff" stroke="transparent" points="-4,4 -4,-483 1063.5,-483 1063.5,4 -4,4"/>
<!-- Node0 -->
<g id="node1" class="node">
<title>Node0</title>
<polygon fill="#bfbfbf" stroke="#000000" points="31.5,-448.5 31.5,-478.5 169.5,-478.5 169.5,-448.5 31.5,-448.5"/>
<text text-anchor="start" x="39.5" y="-466.5" font-family="Helvetica,sans-Serif" font-size="10.00" fill="#000000">/home/jbigot/data/projects</text>
<text text-anchor="middle" x="100.5" y="-455.5" font-family="Helvetica,sans-Serif" font-size="10.00" fill="#000000">/pdi/pdi/src/plugin.cxx</text>
</g>
<!-- Node1 -->
<g id="node2" class="node">
<title>Node1</title>
<polygon fill="#ffffff" stroke="#bfbfbf" points="0,-392.5 0,-411.5 53,-411.5 53,-392.5 0,-392.5"/>
<text text-anchor="middle" x="26.5" y="-399.5" font-family="Helvetica,sans-Serif" font-size="10.00" fill="#000000">config.h</text>
</g>
<!-- Node0&#45;&gt;Node1 -->
<g id="edge1" class="edge">
<title>Node0&#45;&gt;Node1</title>
<path fill="none" stroke="#191970" d="M82.2079,-448.2977C71.2939,-439.2274 57.4329,-427.7077 46.2676,-418.4285"/>
<polygon fill="#191970" stroke="#191970" points="48.2762,-415.5468 38.3483,-411.8469 43.802,-420.9303 48.2762,-415.5468"/>
</g>
<!-- Node2 -->
<g id="node3" class="node">
<title>Node2</title>
<g id="a_node3"><a xlink:href="context_8h.html" target="_top" xlink:title="pdi/context.h">
<polygon fill="#ffffff" stroke="#000000" points="707,-392.5 707,-411.5 784,-411.5 784,-392.5 707,-392.5"/>
<text text-anchor="middle" x="745.5" y="-399.5" font-family="Helvetica,sans-Serif" font-size="10.00" fill="#000000">pdi/context.h</text>
</a>
</g>
</g>
<!-- Node0&#45;&gt;Node2 -->
<g id="edge2" class="edge">
<title>Node0&#45;&gt;Node2</title>
<path fill="none" stroke="#191970" d="M169.5263,-456.9184C300.7849,-444.4031 583.3761,-417.4583 696.8624,-406.6375"/>
<polygon fill="#191970" stroke="#191970" points="697.3642,-410.1057 706.9868,-405.6722 696.6997,-403.1373 697.3642,-410.1057"/>
</g>
<!-- Node18 -->
<g id="node19" class="node">
<title>Node18</title>
<g id="a_node19"><a xlink:href="ref__any_8h.html" target="_top" xlink:title="pdi/ref_any.h">
<polygon fill="#ffffff" stroke="#000000" points="472.5,-280.5 472.5,-299.5 550.5,-299.5 550.5,-280.5 472.5,-280.5"/>
<text text-anchor="middle" x="511.5" y="-287.5" font-family="Helvetica,sans-Serif" font-size="10.00" fill="#000000">pdi/ref_any.h</text>
</a>
</g>
</g>
<!-- Node0&#45;&gt;Node18 -->
<g id="edge42" class="edge">
<title>Node0&#45;&gt;Node18</title>
<path fill="none" stroke="#191970" d="M136.2546,-448.4065C215.3169,-415.0311 403.9439,-335.4039 479.4492,-303.53"/>
<polygon fill="#191970" stroke="#191970" points="481.0635,-306.6476 488.9151,-299.534 478.3411,-300.1987 481.0635,-306.6476"/>
</g>
<!-- Node24 -->
<g id="node25" class="node">
<title>Node24</title>
<g id="a_node25"><a xlink:href="plugin_8h.html" target="_top" xlink:title="pdi/plugin.h">
<polygon fill="#ffffff" stroke="#000000" points="46.5,-280.5 46.5,-299.5 116.5,-299.5 116.5,-280.5 46.5,-280.5"/>
<text text-anchor="middle" x="81.5" y="-287.5" font-family="Helvetica,sans-Serif" font-size="10.00" fill="#000000">pdi/plugin.h</text>
</a>
</g>
</g>
<!-- Node0&#45;&gt;Node24 -->
<g id="edge43" class="edge">
<title>Node0&#45;&gt;Node24</title>
<path fill="none" stroke="#191970" d="M98.8471,-448.4065C95.4092,-417.0126 87.4898,-344.6961 83.6565,-309.6925"/>
<polygon fill="#191970" stroke="#191970" points="87.1343,-309.2975 82.5664,-299.738 80.1759,-310.0596 87.1343,-309.2975"/>
</g>
<!-- Node3 -->
<g id="node4" class="node">
<title>Node3</title>
<polygon fill="#ffffff" stroke="#bfbfbf" points="859,-.5 859,-19.5 900,-19.5 900,-.5 859,-.5"/>
<text text-anchor="middle" x="879.5" y="-7.5" font-family="Helvetica,sans-Serif" font-size="10.00" fill="#000000">mpi.h</text>
</g>
<!-- Node2&#45;&gt;Node3 -->
<g id="edge3" class="edge">
<title>Node2&#45;&gt;Node3</title>
<path fill="none" stroke="#191970" d="M784.1163,-399.7532C851.1855,-395.1852 985.664,-382.8812 1023.5,-356 1050.7386,-336.6479 1059.5,-323.4132 1059.5,-290 1059.5,-290 1059.5,-290 1059.5,-122 1059.5,-52.4447 961.4096,-24.5475 910.0505,-14.7079"/>
<polygon fill="#191970" stroke="#191970" points="910.6105,-11.2525 900.1483,-12.9237 909.3691,-18.1416 910.6105,-11.2525"/>
</g>
<!-- Node4 -->
<g id="node5" class="node">
<title>Node4</title>
<polygon fill="#ffffff" stroke="#bfbfbf" points="860,-336.5 860,-355.5 889,-355.5 889,-336.5 860,-336.5"/>
<text text-anchor="middle" x="874.5" y="-343.5" font-family="Helvetica,sans-Serif" font-size="10.00" fill="#000000">list</text>
</g>
<!-- Node2&#45;&gt;Node4 -->
<g id="edge4" class="edge">
<title>Node2&#45;&gt;Node4</title>
<path fill="none" stroke="#191970" d="M767.6759,-392.3733C790.7458,-382.3584 826.7492,-366.729 850.4808,-356.4269"/>
<polygon fill="#191970" stroke="#191970" points="852.0474,-359.5625 859.8267,-352.3698 849.26,-353.1414 852.0474,-359.5625"/>
</g>
<!-- Node5 -->
<g id="node6" class="node">
<title>Node5</title>
<polygon fill="#ffffff" stroke="#bfbfbf" points="767.5,-56.5 767.5,-75.5 821.5,-75.5 821.5,-56.5 767.5,-56.5"/>
<text text-anchor="middle" x="794.5" y="-63.5" font-family="Helvetica,sans-Serif" font-size="10.00" fill="#000000">memory</text>
</g>
<!-- Node2&#45;&gt;Node5 -->
<g id="edge5" class="edge">
<title>Node2&#45;&gt;Node5</title>
<path fill="none" stroke="#191970" d="M784.0765,-399.9947C847.7462,-395.906 970.9425,-384.4584 1002.5,-356 1025.1686,-335.5577 1021.5,-320.5246 1021.5,-290 1021.5,-290 1021.5,-290 1021.5,-178 1021.5,-136.1818 896.0394,-94.6402 831.6608,-76.0765"/>
<polygon fill="#191970" stroke="#191970" points="832.4574,-72.6643 821.8815,-73.2979 830.5441,-79.3978 832.4574,-72.6643"/>
</g>
<!-- Node6 -->
<g id="node7" class="node">
<title>Node6</title>
<polygon fill="#ffffff" stroke="#bfbfbf" points="952,-280.5 952,-299.5 993,-299.5 993,-280.5 952,-280.5"/>
<text text-anchor="middle" x="972.5" y="-287.5" font-family="Helvetica,sans-Serif" font-size="10.00" fill="#000000">stack</text>
</g>
<!-- Node2&#45;&gt;Node6 -->
<g id="edge6" class="edge">
<title>Node2&#45;&gt;Node6</title>
<path fill="none" stroke="#191970" d="M759.0638,-392.3555C778.7601,-378.6331 816.7308,-353.2305 851.5,-336 881.4101,-321.1775 917.3462,-308.0696 942.2464,-299.6766"/>
<polygon fill="#191970" stroke="#191970" points="943.4771,-302.9559 951.8653,-296.4838 941.2719,-296.3123 943.4771,-302.9559"/>
</g>
<!-- Node7 -->
<g id="node8" class="node">
<title>Node7</title>
<polygon fill="#ffffff" stroke="#bfbfbf" points="304,-168.5 304,-187.5 347,-187.5 347,-168.5 304,-168.5"/>
<text text-anchor="middle" x="325.5" y="-175.5" font-family="Helvetica,sans-Serif" font-size="10.00" fill="#000000">string</text>
</g>
<!-- Node2&#45;&gt;Node7 -->
<g id="edge7" class="edge">
<title>Node2&#45;&gt;Node7</title>
<path fill="none" stroke="#191970" d="M706.9002,-394.3184C607.4566,-373.6594 346.8991,-313.731 298.5,-244 288.0945,-229.0083 298.624,-209.3988 309.4295,-195.4599"/>
<polygon fill="#191970" stroke="#191970" points="312.2702,-197.5192 316.0084,-187.6057 306.904,-193.0243 312.2702,-197.5192"/>
</g>
<!-- Node8 -->
<g id="node9" class="node">
<title>Node8</title>
<polygon fill="#ffffff" stroke="#bfbfbf" points="609.5,-224.5 609.5,-243.5 701.5,-243.5 701.5,-224.5 609.5,-224.5"/>
<text text-anchor="middle" x="655.5" y="-231.5" font-family="Helvetica,sans-Serif" font-size="10.00" fill="#000000">unordered_map</text>
</g>
<!-- Node2&#45;&gt;Node8 -->
<g id="edge8" class="edge">
<title>Node2&#45;&gt;Node8</title>
<path fill="none" stroke="#191970" d="M723.3422,-392.4176C708.3144,-384.7534 689.288,-372.5474 678.5,-356 658.0844,-324.685 654.7747,-279.8041 654.7634,-254.1121"/>
<polygon fill="#191970" stroke="#191970" points="658.2685,-253.8343 654.9406,-243.7757 651.2696,-253.7142 658.2685,-253.8343"/>
</g>
<!-- Node9 -->
<g id="node10" class="node">
<title>Node9</title>
<polygon fill="#ffffff" stroke="#bfbfbf" points="907.5,-336.5 907.5,-355.5 993.5,-355.5 993.5,-336.5 907.5,-336.5"/>
<text text-anchor="middle" x="950.5" y="-343.5" font-family="Helvetica,sans-Serif" font-size="10.00" fill="#000000">unordered_set</text>
</g>
<!-- Node2&#45;&gt;Node9 -->
<g id="edge9" class="edge">
<title>Node2&#45;&gt;Node9</title>
<path fill="none" stroke="#191970" d="M780.7408,-392.3733C815.4194,-382.9001 868.4883,-368.4032 906.0462,-358.1435"/>
<polygon fill="#191970" stroke="#191970" points="906.9949,-361.5126 915.7191,-355.5011 905.1502,-354.7601 906.9949,-361.5126"/>
</g>
<!-- Node10 -->
<g id="node11" class="node">
<title>Node10</title>
<g id="a_node11"><a xlink:href="pdi__fwd_8h.html" target="_top" xlink:title="pdi/pdi_fwd.h">
<polygon fill="#ffffff" stroke="#000000" points="456,-112.5 456,-131.5 535,-131.5 535,-112.5 456,-112.5"/>
<text text-anchor="middle" x="495.5" y="-119.5" font-family="Helvetica,sans-Serif" font-size="10.00" fill="#000000">pdi/pdi_fwd.h</text>
</a>
</g>
</g>
<!-- Node2&#45;&gt;Node10 -->
<g id="edge10" class="edge">
<title>Node2&#45;&gt;Node10</title>
<path fill="none" stroke="#191970" d="M706.9197,-398.7614C576.1055,-387.2707 157.5,-346.1161 157.5,-290 157.5,-290 157.5,-290 157.5,-234 157.5,-203.4754 153.4882,-188.0552 176.5,-168 196.4433,-150.619 361.0021,-133.8149 445.6326,-126.2202"/>
<polygon fill="#191970" stroke="#191970" points="446.1374,-129.6893 455.7887,-125.3186 445.5184,-122.7167 446.1374,-129.6893"/>
</g>
<!-- Node15 -->
<g id="node16" class="node">
<title>Node15</title>
<g id="a_node16"><a xlink:href="data__descriptor_8h.html" target="_top" xlink:title="pdi/data_descriptor.h">
<polygon fill="#ffffff" stroke="#000000" points="687.5,-336.5 687.5,-355.5 803.5,-355.5 803.5,-336.5 687.5,-336.5"/>
<text text-anchor="middle" x="745.5" y="-343.5" font-family="Helvetica,sans-Serif" font-size="10.00" fill="#000000">pdi/data_descriptor.h</text>
</a>
</g>
</g>
<!-- Node2&#45;&gt;Node15 -->
<g id="edge17" class="edge">
<title>Node2&#45;&gt;Node15</title>
<path fill="none" stroke="#191970" d="M745.5,-392.2455C745.5,-384.9382 745.5,-374.6944 745.5,-365.7046"/>
<polygon fill="#191970" stroke="#191970" points="749.0001,-365.6426 745.5,-355.6427 742.0001,-365.6427 749.0001,-365.6426"/>
</g>
<!-- Node2&#45;&gt;Node18 -->
<g id="edge41" class="edge">
<title>Node2&#45;&gt;Node18</title>
<path fill="none" stroke="#191970" d="M723.4967,-392.3811C702.7596,-383.2441 670.8705,-369.008 643.5,-356 607.2263,-338.7607 565.8847,-317.8883 539.281,-304.2952"/>
<polygon fill="#191970" stroke="#191970" points="540.6793,-301.0791 530.1831,-299.6368 537.4889,-307.3098 540.6793,-301.0791"/>
</g>
<!-- Node10&#45;&gt;Node5 -->
<g id="edge11" class="edge">
<title>Node10&#45;&gt;Node5</title>
<path fill="none" stroke="#191970" d="M535.2049,-114.5636C593.3788,-103.6682 700.9853,-83.5145 757.5507,-72.9203"/>
<polygon fill="#191970" stroke="#191970" points="758.3105,-76.3389 767.4952,-71.0577 757.0218,-69.4585 758.3105,-76.3389"/>
</g>
<!-- Node11 -->
<g id="node12" class="node">
<title>Node11</title>
<g id="a_node12"><a xlink:href="pdi_8h.html" target="_top" xlink:title="pdi.h">
<polygon fill="#ffffff" stroke="#000000" points="519,-56.5 519,-75.5 558,-75.5 558,-56.5 519,-56.5"/>
<text text-anchor="middle" x="538.5" y="-63.5" font-family="Helvetica,sans-Serif" font-size="10.00" fill="#000000">pdi.h</text>
</a>
</g>
</g>
<!-- Node10&#45;&gt;Node11 -->
<g id="edge12" class="edge">
<title>Node10&#45;&gt;Node11</title>
<path fill="none" stroke="#191970" d="M502.99,-112.2455C509.0326,-104.3761 517.6903,-93.101 524.9441,-83.6542"/>
<polygon fill="#191970" stroke="#191970" points="527.7815,-85.7058 531.0958,-75.6427 522.2295,-81.4426 527.7815,-85.7058"/>
</g>
<!-- Node11&#45;&gt;Node3 -->
<g id="edge13" class="edge">
<title>Node11&#45;&gt;Node3</title>
<path fill="none" stroke="#191970" d="M558.3075,-62.7472C615.2462,-53.3965 779.6911,-26.3909 848.5725,-15.079"/>
<polygon fill="#191970" stroke="#191970" points="849.4753,-18.4777 858.7759,-13.4034 848.3409,-11.5702 849.4753,-18.4777"/>
</g>
<!-- Node12 -->
<g id="node13" class="node">
<title>Node12</title>
<polygon fill="#ffffff" stroke="#bfbfbf" points="593,-.5 593,-19.5 660,-19.5 660,-.5 593,-.5"/>
<text text-anchor="middle" x="626.5" y="-7.5" font-family="Helvetica,sans-Serif" font-size="10.00" fill="#000000">paraconf.h</text>
</g>
<!-- Node11&#45;&gt;Node12 -->
<g id="edge14" class="edge">
<title>Node11&#45;&gt;Node12</title>
<path fill="none" stroke="#191970" d="M553.8284,-56.2455C567.3303,-47.6534 587.2122,-35.0014 602.7686,-25.1018"/>
<polygon fill="#191970" stroke="#191970" points="604.7897,-27.9643 611.3472,-19.6427 601.0315,-22.0587 604.7897,-27.9643"/>
</g>
<!-- Node13 -->
<g id="node14" class="node">
<title>Node13</title>
<polygon fill="#ffffff" stroke="#bfbfbf" points="502.5,-.5 502.5,-19.5 574.5,-19.5 574.5,-.5 502.5,-.5"/>
<text text-anchor="middle" x="538.5" y="-7.5" font-family="Helvetica,sans-Serif" font-size="10.00" fill="#000000">pdi/export.h</text>
</g>
<!-- Node11&#45;&gt;Node13 -->
<g id="edge15" class="edge">
<title>Node11&#45;&gt;Node13</title>
<path fill="none" stroke="#191970" d="M538.5,-56.2455C538.5,-48.9382 538.5,-38.6944 538.5,-29.7046"/>
<polygon fill="#191970" stroke="#191970" points="542.0001,-29.6426 538.5,-19.6427 535.0001,-29.6427 542.0001,-29.6426"/>
</g>
<!-- Node14 -->
<g id="node15" class="node">
<title>Node14</title>
<polygon fill="#ffffff" stroke="#bfbfbf" points="407,-.5 407,-19.5 484,-19.5 484,-.5 407,-.5"/>
<text text-anchor="middle" x="445.5" y="-7.5" font-family="Helvetica,sans-Serif" font-size="10.00" fill="#000000">pdi/version.h</text>
</g>
<!-- Node11&#45;&gt;Node14 -->
<g id="edge16" class="edge">
<title>Node11&#45;&gt;Node14</title>
<path fill="none" stroke="#191970" d="M522.3006,-56.2455C507.8982,-47.5731 486.6268,-34.7645 470.1201,-24.825"/>
<polygon fill="#191970" stroke="#191970" points="471.886,-21.8028 461.5137,-19.6427 468.275,-27.7996 471.886,-21.8028"/>
</g>
<!-- Node15&#45;&gt;Node5 -->
<g id="edge19" class="edge">
<title>Node15&#45;&gt;Node5</title>
<path fill="none" stroke="#191970" d="M776.9187,-336.45C818.1954,-321.727 885.5,-289.2492 885.5,-234 885.5,-234 885.5,-234 885.5,-178 885.5,-135.6829 845.8856,-100.4504 818.9312,-81.3755"/>
<polygon fill="#191970" stroke="#191970" points="820.588,-78.2695 810.351,-75.5391 816.6509,-84.0574 820.588,-78.2695"/>
</g>
<!-- Node15&#45;&gt;Node6 -->
<g id="edge20" class="edge">
<title>Node15&#45;&gt;Node6</title>
<path fill="none" stroke="#191970" d="M787.5793,-336.4688C826.5662,-327.5078 886.1124,-313.4902 937.5,-300 938.9517,-299.6189 940.4353,-299.2224 941.9323,-298.8168"/>
<polygon fill="#191970" stroke="#191970" points="943.1151,-302.1208 951.8125,-296.0705 941.2404,-295.3765 943.1151,-302.1208"/>
</g>
<!-- Node15&#45;&gt;Node10 -->
<g id="edge22" class="edge">
<title>Node15&#45;&gt;Node10</title>
<path fill="none" stroke="#191970" d="M754.9362,-336.2897C775.4731,-313.9915 820.0896,-258.402 790.5,-224 720.7388,-142.8932 646.1643,-239.6908 552.5,-188 532.302,-176.8533 515.9543,-155.5934 506.0292,-140.2085"/>
<polygon fill="#191970" stroke="#191970" points="508.9169,-138.2224 500.7023,-131.5313 502.9513,-141.8847 508.9169,-138.2224"/>
</g>
<!-- Node15&#45;&gt;Node12 -->
<g id="edge21" class="edge">
<title>Node15&#45;&gt;Node12</title>
<path fill="none" stroke="#191970" d="M796.985,-336.4417C849.5551,-323.3565 923.5,-294.2435 923.5,-234 923.5,-234 923.5,-234 923.5,-122 923.5,-68.5588 753.0187,-31.8062 670.3814,-17.1303"/>
<polygon fill="#191970" stroke="#191970" points="670.7332,-13.6389 660.2805,-15.3689 669.5305,-20.5349 670.7332,-13.6389"/>
</g>
<!-- Node16 -->
<g id="node17" class="node">
<title>Node16</title>
<polygon fill="#ffffff" stroke="#bfbfbf" points="719.5,-224.5 719.5,-243.5 781.5,-243.5 781.5,-224.5 719.5,-224.5"/>
<text text-anchor="middle" x="750.5" y="-231.5" font-family="Helvetica,sans-Serif" font-size="10.00" fill="#000000">functional</text>
</g>
<!-- Node15&#45;&gt;Node16 -->
<g id="edge18" class="edge">
<title>Node15&#45;&gt;Node16</title>
<path fill="none" stroke="#191970" d="M745.9263,-336.4509C746.7418,-318.184 748.5377,-277.9553 749.6206,-253.6976"/>
<polygon fill="#191970" stroke="#191970" points="753.1252,-253.6711 750.0748,-243.5249 746.1322,-253.3588 753.1252,-253.6711"/>
</g>
<!-- Node17 -->
<g id="node18" class="node">
<title>Node17</title>
<g id="a_node18"><a xlink:href="datatype__template_8h.html" target="_top" xlink:title="pdi/datatype_template.h">
<polygon fill="#ffffff" stroke="#000000" points="561.5,-168.5 561.5,-187.5 691.5,-187.5 691.5,-168.5 561.5,-168.5"/>
<text text-anchor="middle" x="626.5" y="-175.5" font-family="Helvetica,sans-Serif" font-size="10.00" fill="#000000">pdi/datatype_template.h</text>
</a>
</g>
</g>
<!-- Node15&#45;&gt;Node17 -->
<g id="edge23" class="edge">
<title>Node15&#45;&gt;Node17</title>
<path fill="none" stroke="#191970" d="M776.2191,-336.4362C793.4074,-329.3313 813.3632,-317.7464 823.5,-300 840.2535,-270.6698 844.4941,-250.461 823.5,-224 808.2088,-204.727 750.6542,-192.772 701.6738,-185.8974"/>
<polygon fill="#191970" stroke="#191970" points="702.0679,-182.4189 691.6892,-184.5482 701.1304,-189.3559 702.0679,-182.4189"/>
</g>
<!-- Node15&#45;&gt;Node18 -->
<g id="edge26" class="edge">
<title>Node15&#45;&gt;Node18</title>
<path fill="none" stroke="#191970" d="M705.5398,-336.4369C665.4191,-326.8353 603.5414,-312.027 560.4871,-301.7234"/>
<polygon fill="#191970" stroke="#191970" points="561.0561,-298.2608 550.5161,-299.3372 559.4268,-305.0686 561.0561,-298.2608"/>
</g>
<!-- Node17&#45;&gt;Node10 -->
<g id="edge25" class="edge">
<title>Node17&#45;&gt;Node10</title>
<path fill="none" stroke="#191970" d="M603.9803,-168.3733C582.7628,-159.3032 550.7724,-145.6279 527.0231,-135.4755"/>
<polygon fill="#191970" stroke="#191970" points="528.2967,-132.2136 517.7258,-131.5011 525.5452,-138.6502 528.2967,-132.2136"/>
</g>
<!-- Node17&#45;&gt;Node12 -->
<g id="edge24" class="edge">
<title>Node17&#45;&gt;Node12</title>
<path fill="none" stroke="#191970" d="M626.5,-168.4862C626.5,-141.9293 626.5,-66.5651 626.5,-30.1655"/>
<polygon fill="#191970" stroke="#191970" points="630.0001,-29.8278 626.5,-19.8279 623.0001,-29.8279 630.0001,-29.8278"/>
</g>
<!-- Node18&#45;&gt;Node5 -->
<g id="edge29" class="edge">
<title>Node18&#45;&gt;Node5</title>
<path fill="none" stroke="#191970" d="M522.3046,-280.3264C538.3776,-266.338 569.9785,-240.3513 600.5,-224 642.138,-201.6933 662.3295,-215.8267 700.5,-188 739.2008,-159.7867 769.7629,-111.329 784.6294,-84.7677"/>
<polygon fill="#191970" stroke="#191970" points="787.8328,-86.2037 789.5429,-75.7478 781.6856,-82.8551 787.8328,-86.2037"/>
</g>
<!-- Node18&#45;&gt;Node8 -->
<g id="edge31" class="edge">
<title>Node18&#45;&gt;Node8</title>
<path fill="none" stroke="#191970" d="M536.2545,-280.3733C559.7849,-271.2226 595.3687,-257.3844 621.5426,-247.2057"/>
<polygon fill="#191970" stroke="#191970" points="623.0171,-250.3877 631.0685,-243.5011 620.4799,-243.8636 623.0171,-250.3877"/>
</g>
<!-- Node18&#45;&gt;Node10 -->
<g id="edge32" class="edge">
<title>Node18&#45;&gt;Node10</title>
<path fill="none" stroke="#191970" d="M494.7627,-280.2988C482.7416,-272.2823 467.477,-259.6887 460.5,-244 444.8491,-208.8068 466.8886,-164.7951 482.4452,-140.415"/>
<polygon fill="#191970" stroke="#191970" points="485.549,-142.0698 488.1943,-131.8105 479.7286,-138.1809 485.549,-142.0698"/>
</g>
<!-- Node18&#45;&gt;Node16 -->
<g id="edge28" class="edge">
<title>Node18&#45;&gt;Node16</title>
<path fill="none" stroke="#191970" d="M550.8173,-281.1288C588.9543,-272.4755 648.7103,-258.7898 709.3358,-244.2533"/>
<polygon fill="#191970" stroke="#191970" points="710.165,-247.6538 719.0701,-241.9136 708.529,-240.8476 710.165,-247.6538"/>
</g>
<!-- Node19 -->
<g id="node20" class="node">
<title>Node19</title>
<polygon fill="#ffffff" stroke="#bfbfbf" points="308,-224.5 308,-243.5 359,-243.5 359,-224.5 308,-224.5"/>
<text text-anchor="middle" x="333.5" y="-231.5" font-family="Helvetica,sans-Serif" font-size="10.00" fill="#000000">cassert</text>
</g>
<!-- Node18&#45;&gt;Node19 -->
<g id="edge27" class="edge">
<title>Node18&#45;&gt;Node19</title>
<path fill="none" stroke="#191970" d="M480.9007,-280.3733C449.7326,-270.5676 401.4558,-255.3793 368.716,-245.0792"/>
<polygon fill="#191970" stroke="#191970" points="369.6798,-241.7134 359.0904,-242.0509 367.579,-248.3907 369.6798,-241.7134"/>
</g>
<!-- Node20 -->
<g id="node21" class="node">
<title>Node20</title>
<polygon fill="#ffffff" stroke="#bfbfbf" points="377.5,-224.5 377.5,-243.5 413.5,-243.5 413.5,-224.5 377.5,-224.5"/>
<text text-anchor="middle" x="395.5" y="-231.5" font-family="Helvetica,sans-Serif" font-size="10.00" fill="#000000">new</text>
</g>
<!-- Node18&#45;&gt;Node20 -->
<g id="edge30" class="edge">
<title>Node18&#45;&gt;Node20</title>
<path fill="none" stroke="#191970" d="M491.5589,-280.3733C472.572,-271.2072 443.8427,-257.3378 422.7482,-247.1543"/>
<polygon fill="#191970" stroke="#191970" points="424.183,-243.9605 413.6559,-242.7649 421.1398,-250.2644 424.183,-243.9605"/>
</g>
<!-- Node21 -->
<g id="node22" class="node">
<title>Node21</title>
<g id="a_node22"><a xlink:href="datatype_8h.html" target="_top" xlink:title="pdi/datatype.h">
<polygon fill="#ffffff" stroke="#000000" points="470,-224.5 470,-243.5 553,-243.5 553,-224.5 470,-224.5"/>
<text text-anchor="middle" x="511.5" y="-231.5" font-family="Helvetica,sans-Serif" font-size="10.00" fill="#000000">pdi/datatype.h</text>
</a>
</g>
</g>
<!-- Node18&#45;&gt;Node21 -->
<g id="edge33" class="edge">
<title>Node18&#45;&gt;Node21</title>
<path fill="none" stroke="#191970" d="M511.5,-280.2455C511.5,-272.9382 511.5,-262.6944 511.5,-253.7046"/>
<polygon fill="#191970" stroke="#191970" points="515.0001,-253.6426 511.5,-243.6427 508.0001,-253.6427 515.0001,-253.6426"/>
</g>
<!-- Node22 -->
<g id="node23" class="node">
<title>Node22</title>
<g id="a_node23"><a xlink:href="error_8h.html" target="_top" xlink:title="pdi/error.h">
<polygon fill="#ffffff" stroke="#000000" points="186,-224.5 186,-243.5 251,-243.5 251,-224.5 186,-224.5"/>
<text text-anchor="middle" x="218.5" y="-231.5" font-family="Helvetica,sans-Serif" font-size="10.00" fill="#000000">pdi/error.h</text>
</a>
</g>
</g>
<!-- Node18&#45;&gt;Node22 -->
<g id="edge36" class="edge">
<title>Node18&#45;&gt;Node22</title>
<path fill="none" stroke="#191970" d="M472.2887,-282.5057C417.3855,-272.0122 317.9792,-253.0131 261.2396,-242.1687"/>
<polygon fill="#191970" stroke="#191970" points="261.6412,-238.6821 251.1619,-240.2425 260.327,-245.5577 261.6412,-238.6821"/>
</g>
<!-- Node21&#45;&gt;Node10 -->
<g id="edge34" class="edge">
<title>Node21&#45;&gt;Node10</title>
<path fill="none" stroke="#191970" d="M510.1358,-224.4509C507.5263,-206.184 501.7793,-165.9553 498.3139,-141.6976"/>
<polygon fill="#191970" stroke="#191970" points="501.7398,-140.9294 496.8607,-131.5249 494.8102,-141.9194 501.7398,-140.9294"/>
</g>
<!-- Node21&#45;&gt;Node17 -->
<g id="edge35" class="edge">
<title>Node21&#45;&gt;Node17</title>
<path fill="none" stroke="#191970" d="M531.2692,-224.3733C549.6469,-215.4241 577.2312,-201.9917 597.9893,-191.8835"/>
<polygon fill="#191970" stroke="#191970" points="599.5304,-195.026 606.9888,-187.5011 596.4657,-188.7325 599.5304,-195.026"/>
</g>
<!-- Node22&#45;&gt;Node7 -->
<g id="edge38" class="edge">
<title>Node22&#45;&gt;Node7</title>
<path fill="none" stroke="#191970" d="M237.138,-224.2455C253.9386,-215.4527 278.8634,-202.4079 297.9618,-192.4125"/>
<polygon fill="#191970" stroke="#191970" points="299.8386,-195.3807 307.0756,-187.6427 296.5927,-189.1787 299.8386,-195.3807"/>
</g>
<!-- Node22&#45;&gt;Node10 -->
<g id="edge40" class="edge">
<title>Node22&#45;&gt;Node10</title>
<path fill="none" stroke="#191970" d="M226.7717,-224.2549C239.6939,-209.6865 266.1441,-182.4051 294.5,-168 342.56,-143.5849 403.6267,-131.9766 445.7697,-126.5563"/>
<polygon fill="#191970" stroke="#191970" points="446.2857,-130.0195 455.7902,-125.3381 445.4409,-123.0706 446.2857,-130.0195"/>
</g>
<!-- Node22&#45;&gt;Node12 -->
<g id="edge39" class="edge">
<title>Node22&#45;&gt;Node12</title>
<path fill="none" stroke="#191970" d="M204.7094,-224.406C187.7128,-211.3843 162.678,-187.5023 176.5,-168 201.0246,-133.3968 474.5474,-52.9737 582.7854,-22.2406"/>
<polygon fill="#191970" stroke="#191970" points="584.0619,-25.5169 592.7301,-19.4248 582.1548,-18.7816 584.0619,-25.5169"/>
</g>
<!-- Node23 -->
<g id="node24" class="node">
<title>Node23</title>
<polygon fill="#ffffff" stroke="#bfbfbf" points="185.5,-168.5 185.5,-187.5 247.5,-187.5 247.5,-168.5 185.5,-168.5"/>
<text text-anchor="middle" x="216.5" y="-175.5" font-family="Helvetica,sans-Serif" font-size="10.00" fill="#000000">exception</text>
</g>
<!-- Node22&#45;&gt;Node23 -->
<g id="edge37" class="edge">
<title>Node22&#45;&gt;Node23</title>
<path fill="none" stroke="#191970" d="M218.1516,-224.2455C217.8907,-216.9382 217.5248,-206.6944 217.2037,-197.7046"/>
<polygon fill="#191970" stroke="#191970" points="220.6992,-197.5113 216.8444,-187.6427 213.7036,-197.7613 220.6992,-197.5113"/>
</g>
<!-- Node24&#45;&gt;Node10 -->
<g id="edge44" class="edge">
<title>Node24&#45;&gt;Node10</title>
<path fill="none" stroke="#191970" d="M83.236,-280.4066C88.0503,-256.836 103.9206,-195.975 143.5,-168 191.0886,-134.3641 360.4568,-125.3207 445.7132,-122.8912"/>
<polygon fill="#191970" stroke="#191970" points="446.0234,-126.3843 455.9271,-122.6204 445.8378,-119.3868 446.0234,-126.3843"/>
</g>
</g>
</svg>
        <g id="navigator" transform="translate(0 0)" fill="#404254">
                <rect fill="#f2f5e9" fill-opacity="0.5" stroke="#606060" stroke-width=".5" x="0" y="0" width="60" height="60"/>
                <use id="zoomplus" xlink:href="#zoomPlus" x="17" y="9" onmousedown="handleZoom(evt,'in')"/>
                <use id="zoomminus" xlink:href="#zoomMin" x="42" y="9" onmousedown="handleZoom(evt,'out')"/>
                <use id="reset" xlink:href="#resetDef" x="30" y="36" onmousedown="handleReset()"/>
                <g id="arrowUp" xlink:href="#dirArrow" transform="translate(30 24)" onmousedown="handlePan(0,-1)">
                  <use xlink:href="#rim" fill="#404040">
                        <set attributeName="fill" to="#808080" begin="arrowUp.mouseover" end="arrowUp.mouseout"/>
                  </use>
                  <path fill="none" stroke="white" stroke-width="1.5" d="M0,-3.0v7 M-2.5,-0.5L0,-3.0L2.5,-0.5"/>
                </g>
                <g id="arrowRight" xlink:href="#dirArrow" transform="rotate(90) translate(36 -43)" onmousedown="handlePan(1,0)">
                  <use xlink:href="#rim" fill="#404040">
                        <set attributeName="fill" to="#808080" begin="arrowRight.mouseover" end="arrowRight.mouseout"/>
                  </use>
                  <path fill="none" stroke="white" stroke-width="1.5" d="M0,-3.0v7 M-2.5,-0.5L0,-3.0L2.5,-0.5"/>
                </g>
                <g id="arrowDown" xlink:href="#dirArrow" transform="rotate(180) translate(-30 -48)" onmousedown="handlePan(0,1)">
                  <use xlink:href="#rim" fill="#404040">
                        <set attributeName="fill" to="#808080" begin="arrowDown.mouseover" end="arrowDown.mouseout"/>
                  </use>
                  <path fill="none" stroke="white" stroke-width="1.5" d="M0,-3.0v7 M-2.5,-0.5L0,-3.0L2.5,-0.5"/>
                </g>
                <g id="arrowLeft" xlink:href="#dirArrow" transform="rotate(270) translate(-36 17)" onmousedown="handlePan(-1,0)">
                  <use xlink:href="#rim" fill="#404040">
                        <set attributeName="fill" to="#808080" begin="arrowLeft.mouseover" end="arrowLeft.mouseout"/>
                  </use>
                  <path fill="none" stroke="white" stroke-width="1.5" d="M0,-3.0v7 M-2.5,-0.5L0,-3.0L2.5,-0.5"/>
                </g>
        </g>
        <svg viewBox="0 0 15 15" width="100%" height="30px" preserveAspectRatio="xMaxYMin meet">
         <g id="arrow_out" transform="scale(0.3 0.3)">
          <a xlink:href="plugin_8cxx__incl_org.svg" target="_base">
           <rect id="button" ry="5" rx="5" y="6" x="6" height="38" width="38"
                fill="#f2f5e9" fill-opacity="0.5" stroke="#606060" stroke-width="1.0"/>
           <path id="arrow"
             d="M 11.500037,31.436501 C 11.940474,20.09759 22.043105,11.32322 32.158766,21.979434 L 37.068811,17.246167 C 37.068811,17.246167 37.088388,32 37.088388,32 L 22.160133,31.978069 C 22.160133,31.978069 26.997745,27.140456 26.997745,27.140456 C 18.528582,18.264221 13.291696,25.230495 11.500037,31.436501 z"
             style="fill:#404040;"/>
          </a>
         </g>
        </svg>
</svg>
