<?xml version="1.0" encoding="UTF-8" standalone="no"?>
<!DOCTYPE svg PUBLIC "-//W3C//DTD SVG 1.1//EN"
 "http://www.w3.org/Graphics/SVG/1.1/DTD/svg11.dtd">
<!-- Generated by graphviz version 2.40.1 (20161225.0304)
 -->
<!-- Title: /home/jbigot/data/projects/pdi/pdi/src/record_datatype.cxx Pages: 1 -->
<!--zoomable 431 -->
<svg id="main" version="1.1" xmlns="http://www.w3.org/2000/svg" xmlns:xlink="http://www.w3.org/1999/xlink" xml:space="preserve" onload="init(evt)">
<style type="text/css"><![CDATA[
.edge:hover path { stroke: red; }
.edge:hover polygon { stroke: red; fill: red; }
]]></style>
<script type="text/javascript"><![CDATA[
var edges = document.getElementsByTagName('g');
if (edges && edges.length) {
  for (var i=0;i<edges.length;i++) {
    if (edges[i].id.substr(0,4)=='edge') {
      edges[i].setAttribute('class','edge');
    }
  }
}
]]></script>
        <defs>
                <circle id="rim" cx="0" cy="0" r="7"/>
                <circle id="rim2" cx="0" cy="0" r="3.5"/>
                <g id="zoomPlus">
                        <use xlink:href="#rim" fill="#404040">
                                <set attributeName="fill" to="#808080" begin="zoomplus.mouseover" end="zoomplus.mouseout"/>
                        </use>
                        <path d="M-4,0h8M0,-4v8" fill="none" stroke="white" stroke-width="1.5" pointer-events="none"/>
                </g>
                <g id="zoomMin">
                        <use xlink:href="#rim" fill="#404040">
                                <set attributeName="fill" to="#808080" begin="zoomminus.mouseover" end="zoomminus.mouseout"/>
                        </use>
                        <path d="M-4,0h8" fill="none" stroke="white" stroke-width="1.5" pointer-events="none"/>
                </g>
                <g id="dirArrow">
                        <path fill="none" stroke="white" stroke-width="1.5" d="M0,-3.0v7 M-2.5,-0.5L0,-3.0L2.5,-0.5"/>
                </g>
               <g id="resetDef">
                       <use xlink:href="#rim2" fill="#404040">
                               <set attributeName="fill" to="#808080" begin="reset.mouseover" end="reset.mouseout"/>
                       </use>
               </g>
        </defs>

<script type="text/javascript">
var viewWidth = 944;
var viewHeight = 431;
var sectionId = 'dynsection-0';
</script>
<script xlink:href="svgpan.js"/>
<svg id="graph" class="graph">
<g id="viewport">
<title>/home/jbigot/data/projects/pdi/pdi/src/record_datatype.cxx</title>
<polygon fill="#ffffff" stroke="transparent" points="-4,4 -4,-427 939.5,-427 939.5,4 -4,4"/>
<!-- Node0 -->
<g id="node1" class="node">
<title>Node0</title>
<polygon fill="#bfbfbf" stroke="#000000" points="152,-392.5 152,-422.5 319,-422.5 319,-392.5 152,-392.5"/>
<text text-anchor="start" x="160" y="-410.5" font-family="Helvetica,sans-Serif" font-size="10.00" fill="#000000">/home/jbigot/data/projects</text>
<text text-anchor="middle" x="235.5" y="-399.5" font-family="Helvetica,sans-Serif" font-size="10.00" fill="#000000">/pdi/pdi/src/record_datatype.cxx</text>
</g>
<!-- Node1 -->
<g id="node2" class="node">
<title>Node1</title>
<polygon fill="#ffffff" stroke="#bfbfbf" points="0,-336.5 0,-355.5 53,-355.5 53,-336.5 0,-336.5"/>
<text text-anchor="middle" x="26.5" y="-343.5" font-family="Helvetica,sans-Serif" font-size="10.00" fill="#000000">config.h</text>
</g>
<!-- Node0&#45;&gt;Node1 -->
<g id="edge1" class="edge">
<title>Node0&#45;&gt;Node1</title>
<path fill="none" stroke="#191970" d="M184.3728,-392.4554C146.808,-381.4016 96.6652,-366.6467 63.063,-356.759"/>
<polygon fill="#191970" stroke="#191970" points="63.7794,-353.3215 53.1981,-353.8561 61.8033,-360.0368 63.7794,-353.3215"/>
</g>
<!-- Node2 -->
<g id="node3" class="node">
<title>Node2</title>
<polygon fill="#ffffff" stroke="#bfbfbf" points="71.5,-336.5 71.5,-355.5 131.5,-355.5 131.5,-336.5 71.5,-336.5"/>
<text text-anchor="middle" x="101.5" y="-343.5" font-family="Helvetica,sans-Serif" font-size="10.00" fill="#000000">algorithm</text>
</g>
<!-- Node0&#45;&gt;Node2 -->
<g id="edge2" class="edge">
<title>Node0&#45;&gt;Node2</title>
<path fill="none" stroke="#191970" d="M202.7199,-392.4554C180.95,-382.464 152.5914,-369.4487 131.4314,-359.7372"/>
<polygon fill="#191970" stroke="#191970" points="132.8137,-356.5206 122.2652,-355.5303 129.8938,-362.8826 132.8137,-356.5206"/>
</g>
<!-- Node3 -->
<g id="node4" class="node">
<title>Node3</title>
<polygon fill="#ffffff" stroke="#bfbfbf" points="841.5,-56.5 841.5,-75.5 895.5,-75.5 895.5,-56.5 841.5,-56.5"/>
<text text-anchor="middle" x="868.5" y="-63.5" font-family="Helvetica,sans-Serif" font-size="10.00" fill="#000000">memory</text>
</g>
<!-- Node0&#45;&gt;Node3 -->
<g id="edge3" class="edge">
<title>Node0&#45;&gt;Node3</title>
<path fill="none" stroke="#191970" d="M319.1115,-403.6925C454.1139,-396.9094 713.9266,-381.049 802.5,-356 865.9987,-338.0422 935.5,-355.9891 935.5,-290 935.5,-290 935.5,-290 935.5,-178 935.5,-139.7946 906.4331,-103.3286 886.5898,-82.8854"/>
<polygon fill="#191970" stroke="#191970" points="888.8309,-80.1788 879.2647,-75.6248 883.903,-85.1503 888.8309,-80.1788"/>
</g>
<!-- Node4 -->
<g id="node5" class="node">
<title>Node4</title>
<polygon fill="#ffffff" stroke="#bfbfbf" points="128,-168.5 128,-187.5 171,-187.5 171,-168.5 128,-168.5"/>
<text text-anchor="middle" x="149.5" y="-175.5" font-family="Helvetica,sans-Serif" font-size="10.00" fill="#000000">string</text>
</g>
<!-- Node0&#45;&gt;Node4 -->
<g id="edge4" class="edge">
<title>Node0&#45;&gt;Node4</title>
<path fill="none" stroke="#191970" d="M231.6526,-392.3799C223.3085,-360.5138 202.1365,-284.4182 175.5,-224 171.3507,-214.5883 165.8484,-204.5967 160.9743,-196.3386"/>
<polygon fill="#191970" stroke="#191970" points="163.8393,-194.3132 155.6598,-187.5793 157.8547,-197.9443 163.8393,-194.3132"/>
</g>
<!-- Node5 -->
<g id="node6" class="node">
<title>Node5</title>
<polygon fill="#ffffff" stroke="#bfbfbf" points="275.5,-280.5 275.5,-299.5 321.5,-299.5 321.5,-280.5 275.5,-280.5"/>
<text text-anchor="middle" x="298.5" y="-287.5" font-family="Helvetica,sans-Serif" font-size="10.00" fill="#000000">vector</text>
</g>
<!-- Node0&#45;&gt;Node5 -->
<g id="edge5" class="edge">
<title>Node0&#45;&gt;Node5</title>
<path fill="none" stroke="#191970" d="M243.7361,-392.1389C255.2415,-370.6806 276.1021,-331.7738 288.4896,-308.6702"/>
<polygon fill="#191970" stroke="#191970" points="291.7337,-310.0265 293.3745,-299.5595 285.5645,-306.7187 291.7337,-310.0265"/>
</g>
<!-- Node6 -->
<g id="node7" class="node">
<title>Node6</title>
<g id="a_node7"><a xlink:href="paraconf__wrapper_8h.html" target="_top" xlink:title="pdi/paraconf_wrapper.h">
<polygon fill="#ffffff" stroke="#000000" points="38,-224.5 38,-243.5 167,-243.5 167,-224.5 38,-224.5"/>
<text text-anchor="middle" x="102.5" y="-231.5" font-family="Helvetica,sans-Serif" font-size="10.00" fill="#000000">pdi/paraconf_wrapper.h</text>
</a>
</g>
</g>
<!-- Node0&#45;&gt;Node6 -->
<g id="edge6" class="edge">
<title>Node0&#45;&gt;Node6</title>
<path fill="none" stroke="#191970" d="M218.216,-392.075C207.6445,-382.2422 194.1522,-368.9548 183.5,-356 155.1325,-321.5007 127.5534,-276.8973 113.0399,-252.3046"/>
<polygon fill="#191970" stroke="#191970" points="116.0449,-250.5097 107.9796,-243.6393 110.0001,-254.0397 116.0449,-250.5097"/>
</g>
<!-- Node13 -->
<g id="node14" class="node">
<title>Node13</title>
<g id="a_node14"><a xlink:href="error_8h.html" target="_top" xlink:title="pdi/error.h">
<polygon fill="#ffffff" stroke="#000000" points="226,-224.5 226,-243.5 291,-243.5 291,-224.5 226,-224.5"/>
<text text-anchor="middle" x="258.5" y="-231.5" font-family="Helvetica,sans-Serif" font-size="10.00" fill="#000000">pdi/error.h</text>
</a>
</g>
</g>
<!-- Node0&#45;&gt;Node13 -->
<g id="edge16" class="edge">
<title>Node0&#45;&gt;Node13</title>
<path fill="none" stroke="#191970" d="M237.5009,-392.4065C241.6626,-361.0126 251.2492,-288.6961 255.8895,-253.6925"/>
<polygon fill="#191970" stroke="#191970" points="259.3645,-254.1113 257.2091,-243.738 252.4252,-253.1913 259.3645,-254.1113"/>
</g>
<!-- Node15 -->
<g id="node16" class="node">
<title>Node15</title>
<g id="a_node16"><a xlink:href="expression_8h.html" target="_top" xlink:title="pdi/expression.h">
<polygon fill="#ffffff" stroke="#000000" points="699.5,-336.5 699.5,-355.5 793.5,-355.5 793.5,-336.5 699.5,-336.5"/>
<text text-anchor="middle" x="746.5" y="-343.5" font-family="Helvetica,sans-Serif" font-size="10.00" fill="#000000">pdi/expression.h</text>
</a>
</g>
</g>
<!-- Node0&#45;&gt;Node15 -->
<g id="edge21" class="edge">
<title>Node0&#45;&gt;Node15</title>
<path fill="none" stroke="#191970" d="M319.0235,-397.4478C423.3815,-384.888 599.1847,-363.7297 689.3686,-352.8759"/>
<polygon fill="#191970" stroke="#191970" points="689.895,-356.3379 699.4051,-351.668 689.0585,-349.388 689.895,-356.3379"/>
</g>
<!-- Node23 -->
<g id="node24" class="node">
<title>Node23</title>
<g id="a_node24"><a xlink:href="record__datatype_8h.html" target="_top" xlink:title="pdi/record_datatype.h">
<polygon fill="#ffffff" stroke="#000000" points="301.5,-336.5 301.5,-355.5 421.5,-355.5 421.5,-336.5 301.5,-336.5"/>
<text text-anchor="middle" x="361.5" y="-343.5" font-family="Helvetica,sans-Serif" font-size="10.00" fill="#000000">pdi/record_datatype.h</text>
</a>
</g>
</g>
<!-- Node0&#45;&gt;Node23 -->
<g id="edge37" class="edge">
<title>Node0&#45;&gt;Node23</title>
<path fill="none" stroke="#191970" d="M266.3231,-392.4554C286.6088,-382.554 312.9788,-369.683 332.8162,-360.0004"/>
<polygon fill="#191970" stroke="#191970" points="334.523,-363.062 341.9745,-355.5303 331.4526,-356.7714 334.523,-363.062"/>
</g>
<!-- Node6&#45;&gt;Node4 -->
<g id="edge7" class="edge">
<title>Node6&#45;&gt;Node4</title>
<path fill="none" stroke="#191970" d="M110.6868,-224.2455C117.3589,-216.2958 126.9479,-204.8706 134.9253,-195.3656"/>
<polygon fill="#191970" stroke="#191970" points="137.6592,-197.5525 141.407,-187.6427 132.2974,-193.0524 137.6592,-197.5525"/>
</g>
<!-- Node7 -->
<g id="node8" class="node">
<title>Node7</title>
<polygon fill="#ffffff" stroke="#bfbfbf" points="201,-.5 201,-19.5 268,-19.5 268,-.5 201,-.5"/>
<text text-anchor="middle" x="234.5" y="-7.5" font-family="Helvetica,sans-Serif" font-size="10.00" fill="#000000">paraconf.h</text>
</g>
<!-- Node6&#45;&gt;Node7 -->
<g id="edge8" class="edge">
<title>Node6&#45;&gt;Node7</title>
<path fill="none" stroke="#191970" d="M100.4852,-224.2464C98.2019,-211.044 95.623,-186.9579 102.5,-168 124.7829,-106.5729 182.5549,-52.3045 213.7664,-26.2956"/>
<polygon fill="#191970" stroke="#191970" points="216.2802,-28.7617 221.8138,-19.7267 211.8537,-23.3389 216.2802,-28.7617"/>
</g>
<!-- Node8 -->
<g id="node9" class="node">
<title>Node8</title>
<g id="a_node9"><a xlink:href="pdi__fwd_8h.html" target="_top" xlink:title="pdi/pdi_fwd.h">
<polygon fill="#ffffff" stroke="#000000" points="464,-112.5 464,-131.5 543,-131.5 543,-112.5 464,-112.5"/>
<text text-anchor="middle" x="503.5" y="-119.5" font-family="Helvetica,sans-Serif" font-size="10.00" fill="#000000">pdi/pdi_fwd.h</text>
</a>
</g>
</g>
<!-- Node6&#45;&gt;Node8 -->
<g id="edge9" class="edge">
<title>Node6&#45;&gt;Node8</title>
<path fill="none" stroke="#191970" d="M101.715,-224.2147C101.1353,-209.5938 102.4519,-182.2448 118.5,-168 143.1458,-146.1236 355.3531,-130.7998 453.7617,-124.8042"/>
<polygon fill="#191970" stroke="#191970" points="453.9966,-128.2965 463.7686,-124.2028 453.5766,-121.3091 453.9966,-128.2965"/>
</g>
<!-- Node8&#45;&gt;Node3 -->
<g id="edge10" class="edge">
<title>Node8&#45;&gt;Node3</title>
<path fill="none" stroke="#191970" d="M543.2562,-115.9004C614.2567,-105.0072 761.8909,-82.3565 831.1317,-71.7332"/>
<polygon fill="#191970" stroke="#191970" points="831.8008,-75.1716 841.1543,-70.1955 830.7392,-68.2526 831.8008,-75.1716"/>
</g>
<!-- Node9 -->
<g id="node10" class="node">
<title>Node9</title>
<g id="a_node10"><a xlink:href="pdi_8h.html" target="_top" xlink:title="pdi.h">
<polygon fill="#ffffff" stroke="#000000" points="450,-56.5 450,-75.5 489,-75.5 489,-56.5 450,-56.5"/>
<text text-anchor="middle" x="469.5" y="-63.5" font-family="Helvetica,sans-Serif" font-size="10.00" fill="#000000">pdi.h</text>
</a>
</g>
</g>
<!-- Node8&#45;&gt;Node9 -->
<g id="edge11" class="edge">
<title>Node8&#45;&gt;Node9</title>
<path fill="none" stroke="#191970" d="M497.5777,-112.2455C492.8973,-104.5367 486.2327,-93.5598 480.5711,-84.2348"/>
<polygon fill="#191970" stroke="#191970" points="483.5361,-82.3741 475.3545,-75.6427 477.5525,-86.007 483.5361,-82.3741"/>
</g>
<!-- Node9&#45;&gt;Node7 -->
<g id="edge13" class="edge">
<title>Node9&#45;&gt;Node7</title>
<path fill="none" stroke="#191970" d="M449.8682,-61.3218C412.2242,-52.3513 329.0875,-32.54 277.8227,-20.3237"/>
<polygon fill="#191970" stroke="#191970" points="278.5566,-16.9007 268.0176,-17.9872 276.9339,-23.71 278.5566,-16.9007"/>
</g>
<!-- Node10 -->
<g id="node11" class="node">
<title>Node10</title>
<polygon fill="#ffffff" stroke="#bfbfbf" points="449,-.5 449,-19.5 490,-19.5 490,-.5 449,-.5"/>
<text text-anchor="middle" x="469.5" y="-7.5" font-family="Helvetica,sans-Serif" font-size="10.00" fill="#000000">mpi.h</text>
</g>
<!-- Node9&#45;&gt;Node10 -->
<g id="edge12" class="edge">
<title>Node9&#45;&gt;Node10</title>
<path fill="none" stroke="#191970" d="M469.5,-56.2455C469.5,-48.9382 469.5,-38.6944 469.5,-29.7046"/>
<polygon fill="#191970" stroke="#191970" points="473.0001,-29.6426 469.5,-19.6427 466.0001,-29.6427 473.0001,-29.6426"/>
</g>
<!-- Node11 -->
<g id="node12" class="node">
<title>Node11</title>
<polygon fill="#ffffff" stroke="#bfbfbf" points="508.5,-.5 508.5,-19.5 580.5,-19.5 580.5,-.5 508.5,-.5"/>
<text text-anchor="middle" x="544.5" y="-7.5" font-family="Helvetica,sans-Serif" font-size="10.00" fill="#000000">pdi/export.h</text>
</g>
<!-- Node9&#45;&gt;Node11 -->
<g id="edge14" class="edge">
<title>Node9&#45;&gt;Node11</title>
<path fill="none" stroke="#191970" d="M482.564,-56.2455C493.8562,-47.814 510.3845,-35.4729 523.5271,-25.6598"/>
<polygon fill="#191970" stroke="#191970" points="525.6669,-28.4301 531.5857,-19.6427 521.4789,-22.8211 525.6669,-28.4301"/>
</g>
<!-- Node12 -->
<g id="node13" class="node">
<title>Node12</title>
<polygon fill="#ffffff" stroke="#bfbfbf" points="354,-.5 354,-19.5 431,-19.5 431,-.5 354,-.5"/>
<text text-anchor="middle" x="392.5" y="-7.5" font-family="Helvetica,sans-Serif" font-size="10.00" fill="#000000">pdi/version.h</text>
</g>
<!-- Node9&#45;&gt;Node12 -->
<g id="edge15" class="edge">
<title>Node9&#45;&gt;Node12</title>
<path fill="none" stroke="#191970" d="M456.0876,-56.2455C444.4943,-47.814 427.5252,-35.4729 414.0322,-25.6598"/>
<polygon fill="#191970" stroke="#191970" points="415.9047,-22.6938 405.7587,-19.6427 411.7874,-28.355 415.9047,-22.6938"/>
</g>
<!-- Node13&#45;&gt;Node4 -->
<g id="edge18" class="edge">
<title>Node13&#45;&gt;Node4</title>
<path fill="none" stroke="#191970" d="M239.5136,-224.2455C222.3208,-215.4125 196.7762,-202.2887 177.2868,-192.2758"/>
<polygon fill="#191970" stroke="#191970" points="178.763,-189.0993 168.2688,-187.6427 175.5641,-195.3257 178.763,-189.0993"/>
</g>
<!-- Node13&#45;&gt;Node7 -->
<g id="edge19" class="edge">
<title>Node13&#45;&gt;Node7</title>
<path fill="none" stroke="#191970" d="M246.0788,-224.18C236.4984,-215.7529 223.9865,-202.6707 218.5,-188 198.0035,-133.1927 216.3888,-62.5363 227.4925,-29.1259"/>
<polygon fill="#191970" stroke="#191970" points="230.8074,-30.2492 230.7832,-19.6544 224.1951,-27.9518 230.8074,-30.2492"/>
</g>
<!-- Node13&#45;&gt;Node8 -->
<g id="edge20" class="edge">
<title>Node13&#45;&gt;Node8</title>
<path fill="none" stroke="#191970" d="M291.2102,-227.1328C341.466,-216.4123 433.2804,-196.0905 446.5,-188 465.9632,-176.0884 482.266,-155.3256 492.3835,-140.2626"/>
<polygon fill="#191970" stroke="#191970" points="495.3922,-142.0547 497.8567,-131.7505 489.5043,-138.2689 495.3922,-142.0547"/>
</g>
<!-- Node14 -->
<g id="node15" class="node">
<title>Node14</title>
<polygon fill="#ffffff" stroke="#bfbfbf" points="227.5,-168.5 227.5,-187.5 289.5,-187.5 289.5,-168.5 227.5,-168.5"/>
<text text-anchor="middle" x="258.5" y="-175.5" font-family="Helvetica,sans-Serif" font-size="10.00" fill="#000000">exception</text>
</g>
<!-- Node13&#45;&gt;Node14 -->
<g id="edge17" class="edge">
<title>Node13&#45;&gt;Node14</title>
<path fill="none" stroke="#191970" d="M258.5,-224.2455C258.5,-216.9382 258.5,-206.6944 258.5,-197.7046"/>
<polygon fill="#191970" stroke="#191970" points="262.0001,-197.6426 258.5,-187.6427 255.0001,-197.6427 262.0001,-197.6426"/>
</g>
<!-- Node15&#45;&gt;Node3 -->
<g id="edge22" class="edge">
<title>Node15&#45;&gt;Node3</title>
<path fill="none" stroke="#191970" d="M782.6683,-336.491C827.3403,-322.3037 897.5,-290.9557 897.5,-234 897.5,-234 897.5,-234 897.5,-178 897.5,-144.5134 885.2005,-107.1413 876.6215,-85.1469"/>
<polygon fill="#191970" stroke="#191970" points="879.7799,-83.6216 872.779,-75.6693 873.2928,-86.2517 879.7799,-83.6216"/>
</g>
<!-- Node15&#45;&gt;Node8 -->
<g id="edge23" class="edge">
<title>Node15&#45;&gt;Node8</title>
<path fill="none" stroke="#191970" d="M757.2601,-336.4822C780.1858,-315.0475 829.6211,-261.9078 802.5,-224 772.9885,-182.7511 630.0612,-147.8657 552.9947,-131.6782"/>
<polygon fill="#191970" stroke="#191970" points="553.5312,-128.2151 543.0289,-129.612 552.1101,-135.0693 553.5312,-128.2151"/>
</g>
<!-- Node16 -->
<g id="node17" class="node">
<title>Node16</title>
<g id="a_node17"><a xlink:href="ref__any_8h.html" target="_top" xlink:title="pdi/ref_any.h">
<polygon fill="#ffffff" stroke="#000000" points="594.5,-280.5 594.5,-299.5 672.5,-299.5 672.5,-280.5 594.5,-280.5"/>
<text text-anchor="middle" x="633.5" y="-287.5" font-family="Helvetica,sans-Serif" font-size="10.00" fill="#000000">pdi/ref_any.h</text>
</a>
</g>
</g>
<!-- Node15&#45;&gt;Node16 -->
<g id="edge24" class="edge">
<title>Node15&#45;&gt;Node16</title>
<path fill="none" stroke="#191970" d="M727.0746,-336.3733C709.0979,-327.4644 682.1559,-314.1127 661.791,-304.0203"/>
<polygon fill="#191970" stroke="#191970" points="663.1861,-300.8055 652.6719,-299.5011 660.0778,-307.0776 663.1861,-300.8055"/>
</g>
<!-- Node16&#45;&gt;Node3 -->
<g id="edge27" class="edge">
<title>Node16&#45;&gt;Node3</title>
<path fill="none" stroke="#191970" d="M672.6078,-283.6108C716.3601,-275.7468 783.5943,-261.2882 802.5,-244 849.0283,-201.4525 862.8733,-123.0995 866.8996,-86.2106"/>
<polygon fill="#191970" stroke="#191970" points="870.4282,-86.0751 867.8908,-75.7886 863.4597,-85.4123 870.4282,-86.0751"/>
</g>
<!-- Node16&#45;&gt;Node8 -->
<g id="edge30" class="edge">
<title>Node16&#45;&gt;Node8</title>
<path fill="none" stroke="#191970" d="M625.8794,-280.3559C618.7649,-271.2011 607.9985,-256.953 599.5,-244 578.0892,-211.3666 580.2136,-198.2092 555.5,-168 546.437,-156.9217 534.5931,-146.2232 524.4983,-137.9359"/>
<polygon fill="#191970" stroke="#191970" points="526.5315,-135.0807 516.5295,-131.5862 522.1692,-140.5553 526.5315,-135.0807"/>
</g>
<!-- Node16&#45;&gt;Node13 -->
<g id="edge36" class="edge">
<title>Node16&#45;&gt;Node13</title>
<path fill="none" stroke="#191970" d="M594.2555,-284.9676C533.5267,-277.0508 413.1723,-260.8454 311.5,-244 308.1181,-243.4397 304.6196,-242.8351 301.107,-242.2104"/>
<polygon fill="#191970" stroke="#191970" points="301.7207,-238.7647 291.2554,-240.4166 300.4666,-245.6514 301.7207,-238.7647"/>
</g>
<!-- Node17 -->
<g id="node18" class="node">
<title>Node17</title>
<polygon fill="#ffffff" stroke="#bfbfbf" points="608,-224.5 608,-243.5 659,-243.5 659,-224.5 608,-224.5"/>
<text text-anchor="middle" x="633.5" y="-231.5" font-family="Helvetica,sans-Serif" font-size="10.00" fill="#000000">cassert</text>
</g>
<!-- Node16&#45;&gt;Node17 -->
<g id="edge25" class="edge">
<title>Node16&#45;&gt;Node17</title>
<path fill="none" stroke="#191970" d="M633.5,-280.2455C633.5,-272.9382 633.5,-262.6944 633.5,-253.7046"/>
<polygon fill="#191970" stroke="#191970" points="637.0001,-253.6426 633.5,-243.6427 630.0001,-253.6427 637.0001,-253.6426"/>
</g>
<!-- Node18 -->
<g id="node19" class="node">
<title>Node18</title>
<polygon fill="#ffffff" stroke="#bfbfbf" points="677.5,-224.5 677.5,-243.5 739.5,-243.5 739.5,-224.5 677.5,-224.5"/>
<text text-anchor="middle" x="708.5" y="-231.5" font-family="Helvetica,sans-Serif" font-size="10.00" fill="#000000">functional</text>
</g>
<!-- Node16&#45;&gt;Node18 -->
<g id="edge26" class="edge">
<title>Node16&#45;&gt;Node18</title>
<path fill="none" stroke="#191970" d="M646.564,-280.2455C657.8562,-271.814 674.3845,-259.4729 687.5271,-249.6598"/>
<polygon fill="#191970" stroke="#191970" points="689.6669,-252.4301 695.5857,-243.6427 685.4789,-246.8211 689.6669,-252.4301"/>
</g>
<!-- Node19 -->
<g id="node20" class="node">
<title>Node19</title>
<polygon fill="#ffffff" stroke="#bfbfbf" points="757.5,-224.5 757.5,-243.5 793.5,-243.5 793.5,-224.5 757.5,-224.5"/>
<text text-anchor="middle" x="775.5" y="-231.5" font-family="Helvetica,sans-Serif" font-size="10.00" fill="#000000">new</text>
</g>
<!-- Node16&#45;&gt;Node19 -->
<g id="edge28" class="edge">
<title>Node16&#45;&gt;Node19</title>
<path fill="none" stroke="#191970" d="M657.9107,-280.3733C682.9424,-270.5016 721.8069,-255.1748 747.9317,-244.872"/>
<polygon fill="#191970" stroke="#191970" points="749.2465,-248.1159 757.2652,-241.1912 746.6784,-241.604 749.2465,-248.1159"/>
</g>
<!-- Node20 -->
<g id="node21" class="node">
<title>Node20</title>
<polygon fill="#ffffff" stroke="#bfbfbf" points="459.5,-224.5 459.5,-243.5 551.5,-243.5 551.5,-224.5 459.5,-224.5"/>
<text text-anchor="middle" x="505.5" y="-231.5" font-family="Helvetica,sans-Serif" font-size="10.00" fill="#000000">unordered_map</text>
</g>
<!-- Node16&#45;&gt;Node20 -->
<g id="edge29" class="edge">
<title>Node16&#45;&gt;Node20</title>
<path fill="none" stroke="#191970" d="M611.496,-280.3733C590.8565,-271.3435 559.7842,-257.7494 536.6111,-247.6111"/>
<polygon fill="#191970" stroke="#191970" points="537.7813,-244.3028 527.2169,-243.5011 534.9755,-250.7159 537.7813,-244.3028"/>
</g>
<!-- Node21 -->
<g id="node22" class="node">
<title>Node21</title>
<g id="a_node22"><a xlink:href="datatype_8h.html" target="_top" xlink:title="pdi/datatype.h">
<polygon fill="#ffffff" stroke="#000000" points="320,-224.5 320,-243.5 403,-243.5 403,-224.5 320,-224.5"/>
<text text-anchor="middle" x="361.5" y="-231.5" font-family="Helvetica,sans-Serif" font-size="10.00" fill="#000000">pdi/datatype.h</text>
</a>
</g>
</g>
<!-- Node16&#45;&gt;Node21 -->
<g id="edge31" class="edge">
<title>Node16&#45;&gt;Node21</title>
<path fill="none" stroke="#191970" d="M594.2394,-281.9169C546.5563,-272.0998 465.9779,-255.5102 413.2596,-244.6564"/>
<polygon fill="#191970" stroke="#191970" points="413.9304,-241.2212 403.43,-242.6327 412.5188,-248.0774 413.9304,-241.2212"/>
</g>
<!-- Node21&#45;&gt;Node8 -->
<g id="edge32" class="edge">
<title>Node21&#45;&gt;Node8</title>
<path fill="none" stroke="#191970" d="M403.1726,-226.7596C428.2422,-220.4258 459.137,-208.8355 479.5,-188 491.7236,-175.4928 497.7839,-156.2812 500.7501,-141.8048"/>
<polygon fill="#191970" stroke="#191970" points="504.2169,-142.2961 502.466,-131.847 497.3186,-141.1073 504.2169,-142.2961"/>
</g>
<!-- Node22 -->
<g id="node23" class="node">
<title>Node22</title>
<g id="a_node23"><a xlink:href="datatype__template_8h.html" target="_top" xlink:title="pdi/datatype_template.h">
<polygon fill="#ffffff" stroke="#000000" points="307.5,-168.5 307.5,-187.5 437.5,-187.5 437.5,-168.5 307.5,-168.5"/>
<text text-anchor="middle" x="372.5" y="-175.5" font-family="Helvetica,sans-Serif" font-size="10.00" fill="#000000">pdi/datatype_template.h</text>
</a>
</g>
</g>
<!-- Node21&#45;&gt;Node22 -->
<g id="edge33" class="edge">
<title>Node21&#45;&gt;Node22</title>
<path fill="none" stroke="#191970" d="M363.4161,-224.2455C364.8514,-216.9382 366.8636,-206.6944 368.6295,-197.7046"/>
<polygon fill="#191970" stroke="#191970" points="372.1127,-198.1298 370.6059,-187.6427 365.244,-196.7805 372.1127,-198.1298"/>
</g>
<!-- Node22&#45;&gt;Node7 -->
<g id="edge34" class="edge">
<title>Node22&#45;&gt;Node7</title>
<path fill="none" stroke="#191970" d="M364.6851,-168.4862C342.3984,-141.3545 278.2655,-63.2798 249.1687,-27.8576"/>
<polygon fill="#191970" stroke="#191970" points="251.6249,-25.3336 242.5729,-19.8279 246.2158,-29.7768 251.6249,-25.3336"/>
</g>
<!-- Node22&#45;&gt;Node8 -->
<g id="edge35" class="edge">
<title>Node22&#45;&gt;Node8</title>
<path fill="none" stroke="#191970" d="M395.0197,-168.3733C416.2372,-159.3032 448.2276,-145.6279 471.9769,-135.4755"/>
<polygon fill="#191970" stroke="#191970" points="473.4548,-138.6502 481.2742,-131.5011 470.7033,-132.2136 473.4548,-138.6502"/>
</g>
<!-- Node23&#45;&gt;Node5 -->
<g id="edge38" class="edge">
<title>Node23&#45;&gt;Node5</title>
<path fill="none" stroke="#191970" d="M350.5262,-336.2455C341.3118,-328.0549 327.9468,-316.1749 317.0703,-306.5069"/>
<polygon fill="#191970" stroke="#191970" points="319.1474,-303.6704 309.348,-299.6427 314.4968,-308.9023 319.1474,-303.6704"/>
</g>
<!-- Node23&#45;&gt;Node8 -->
<g id="edge39" class="edge">
<title>Node23&#45;&gt;Node8</title>
<path fill="none" stroke="#191970" d="M367.0995,-336.372C379.9848,-314.7115 413.4854,-261.1398 450.5,-224 469.5762,-204.8592 486.5716,-211.7303 499.5,-188 507.1372,-173.9819 507.6574,-155.7181 506.5392,-141.9578"/>
<polygon fill="#191970" stroke="#191970" points="509.9718,-141.1765 505.3348,-131.6503 503.0191,-141.989 509.9718,-141.1765"/>
</g>
<!-- Node23&#45;&gt;Node21 -->
<g id="edge40" class="edge">
<title>Node23&#45;&gt;Node21</title>
<path fill="none" stroke="#191970" d="M361.5,-336.4509C361.5,-318.184 361.5,-277.9553 361.5,-253.6976"/>
<polygon fill="#191970" stroke="#191970" points="365.0001,-253.5249 361.5,-243.5249 358.0001,-253.5249 365.0001,-253.5249"/>
</g>
</g>
</svg>
        <g id="navigator" transform="translate(0 0)" fill="#404254">
                <rect fill="#f2f5e9" fill-opacity="0.5" stroke="#606060" stroke-width=".5" x="0" y="0" width="60" height="60"/>
                <use id="zoomplus" xlink:href="#zoomPlus" x="17" y="9" onmousedown="handleZoom(evt,'in')"/>
                <use id="zoomminus" xlink:href="#zoomMin" x="42" y="9" onmousedown="handleZoom(evt,'out')"/>
                <use id="reset" xlink:href="#resetDef" x="30" y="36" onmousedown="handleReset()"/>
                <g id="arrowUp" xlink:href="#dirArrow" transform="translate(30 24)" onmousedown="handlePan(0,-1)">
                  <use xlink:href="#rim" fill="#404040">
                        <set attributeName="fill" to="#808080" begin="arrowUp.mouseover" end="arrowUp.mouseout"/>
                  </use>
                  <path fill="none" stroke="white" stroke-width="1.5" d="M0,-3.0v7 M-2.5,-0.5L0,-3.0L2.5,-0.5"/>
                </g>
                <g id="arrowRight" xlink:href="#dirArrow" transform="rotate(90) translate(36 -43)" onmousedown="handlePan(1,0)">
                  <use xlink:href="#rim" fill="#404040">
                        <set attributeName="fill" to="#808080" begin="arrowRight.mouseover" end="arrowRight.mouseout"/>
                  </use>
                  <path fill="none" stroke="white" stroke-width="1.5" d="M0,-3.0v7 M-2.5,-0.5L0,-3.0L2.5,-0.5"/>
                </g>
                <g id="arrowDown" xlink:href="#dirArrow" transform="rotate(180) translate(-30 -48)" onmousedown="handlePan(0,1)">
                  <use xlink:href="#rim" fill="#404040">
                        <set attributeName="fill" to="#808080" begin="arrowDown.mouseover" end="arrowDown.mouseout"/>
                  </use>
                  <path fill="none" stroke="white" stroke-width="1.5" d="M0,-3.0v7 M-2.5,-0.5L0,-3.0L2.5,-0.5"/>
                </g>
                <g id="arrowLeft" xlink:href="#dirArrow" transform="rotate(270) translate(-36 17)" onmousedown="handlePan(-1,0)">
                  <use xlink:href="#rim" fill="#404040">
                        <set attributeName="fill" to="#808080" begin="arrowLeft.mouseover" end="arrowLeft.mouseout"/>
                  </use>
                  <path fill="none" stroke="white" stroke-width="1.5" d="M0,-3.0v7 M-2.5,-0.5L0,-3.0L2.5,-0.5"/>
                </g>
        </g>
        <svg viewBox="0 0 15 15" width="100%" height="30px" preserveAspectRatio="xMaxYMin meet">
         <g id="arrow_out" transform="scale(0.3 0.3)">
          <a xlink:href="record__datatype_8cxx__incl_org.svg" target="_base">
           <rect id="button" ry="5" rx="5" y="6" x="6" height="38" width="38"
                fill="#f2f5e9" fill-opacity="0.5" stroke="#606060" stroke-width="1.0"/>
           <path id="arrow"
             d="M 11.500037,31.436501 C 11.940474,20.09759 22.043105,11.32322 32.158766,21.979434 L 37.068811,17.246167 C 37.068811,17.246167 37.088388,32 37.088388,32 L 22.160133,31.978069 C 22.160133,31.978069 26.997745,27.140456 26.997745,27.140456 C 18.528582,18.264221 13.291696,25.230495 11.500037,31.436501 z"
             style="fill:#404040;"/>
          </a>
         </g>
        </svg>
</svg>
