<?xml version="1.0" encoding="UTF-8" standalone="no"?>
<!DOCTYPE svg PUBLIC "-//W3C//DTD SVG 1.1//EN"
 "http://www.w3.org/Graphics/SVG/1.1/DTD/svg11.dtd">
<!-- Generated by graphviz version 2.40.1 (20161225.0304)
 -->
<!-- Title: /home/jbigot/data/projects/pdi/pdi/include/pdi/ref_any.h Pages: 1 -->
<svg width="1519pt" height="251pt"
 viewBox="0.00 0.00 1519.00 251.00" xmlns="http://www.w3.org/2000/svg" xmlns:xlink="http://www.w3.org/1999/xlink">
<g id="graph0" class="graph" transform="scale(1 1) rotate(0) translate(4 247)">
<title>/home/jbigot/data/projects/pdi/pdi/include/pdi/ref_any.h</title>
<polygon fill="#ffffff" stroke="transparent" points="-4,4 -4,-247 1515,-247 1515,4 -4,4"/>
<!-- Node17 -->
<g id="node1" class="node">
<title>Node17</title>
<polygon fill="#bfbfbf" stroke="#000000" points="413,-212.5 413,-242.5 565,-242.5 565,-212.5 413,-212.5"/>
<text text-anchor="start" x="421" y="-230.5" font-family="Helvetica,sans-Serif" font-size="10.00" fill="#000000">/home/jbigot/data/projects</text>
<text text-anchor="middle" x="489" y="-219.5" font-family="Helvetica,sans-Serif" font-size="10.00" fill="#000000">/pdi/pdi/include/pdi/ref_any.h</text>
</g>
<!-- Node18 -->
<g id="node2" class="node">
<title>Node18</title>
<g id="a_node2"><a xlink:href="context_8h.html" target="_top" xlink:title="/home/jbigot/data/projects\l/pdi/pdi/include/pdi/context.h">
<polygon fill="#ffffff" stroke="#000000" points="311,-67.5 311,-97.5 461,-97.5 461,-67.5 311,-67.5"/>
<text text-anchor="start" x="319" y="-85.5" font-family="Helvetica,sans-Serif" font-size="10.00" fill="#000000">/home/jbigot/data/projects</text>
<text text-anchor="middle" x="386" y="-74.5" font-family="Helvetica,sans-Serif" font-size="10.00" fill="#000000">/pdi/pdi/include/pdi/context.h</text>
</a>
</g>
</g>
<!-- Node17&#45;&gt;Node18 -->
<g id="edge1" class="edge">
<title>Node17&#45;&gt;Node18</title>
<path fill="none" stroke="#191970" d="M472.3231,-204.0229C450.9832,-173.9812 414.6362,-122.8131 396.683,-97.5392"/>
<polygon fill="#191970" stroke="#191970" points="469.5274,-206.1309 478.1719,-212.2565 475.2341,-202.0771 469.5274,-206.1309"/>
</g>
<!-- Node19 -->
<g id="node3" class="node">
<title>Node19</title>
<g id="a_node3"><a xlink:href="context_8cxx.html" target="_top" xlink:title="/home/jbigot/data/projects\l/pdi/pdi/src/context.cxx">
<polygon fill="#ffffff" stroke="#000000" points="0,-.5 0,-30.5 138,-30.5 138,-.5 0,-.5"/>
<text text-anchor="start" x="8" y="-18.5" font-family="Helvetica,sans-Serif" font-size="10.00" fill="#000000">/home/jbigot/data/projects</text>
<text text-anchor="middle" x="69" y="-7.5" font-family="Helvetica,sans-Serif" font-size="10.00" fill="#000000">/pdi/pdi/src/context.cxx</text>
</a>
</g>
</g>
<!-- Node17&#45;&gt;Node19 -->
<g id="edge17" class="edge">
<title>Node17&#45;&gt;Node19</title>
<path fill="none" stroke="#191970" d="M402.8177,-216.1552C338.5536,-206.6611 256.9333,-192.1074 227,-176 158.8243,-139.314 101.5914,-63.3647 79.1573,-30.8332"/>
<polygon fill="#191970" stroke="#191970" points="402.5719,-219.6563 412.9721,-217.635 403.5814,-212.7294 402.5719,-219.6563"/>
</g>
<!-- Node20 -->
<g id="node4" class="node">
<title>Node20</title>
<g id="a_node4"><a xlink:href="data__descriptor_8cxx.html" target="_top" xlink:title="/home/jbigot/data/projects\l/pdi/pdi/src/data_descriptor.cxx">
<polygon fill="#ffffff" stroke="#000000" points="156,-.5 156,-30.5 320,-30.5 320,-.5 156,-.5"/>
<text text-anchor="start" x="164" y="-18.5" font-family="Helvetica,sans-Serif" font-size="10.00" fill="#000000">/home/jbigot/data/projects</text>
<text text-anchor="middle" x="238" y="-7.5" font-family="Helvetica,sans-Serif" font-size="10.00" fill="#000000">/pdi/pdi/src/data_descriptor.cxx</text>
</a>
</g>
</g>
<!-- Node17&#45;&gt;Node20 -->
<g id="edge18" class="edge">
<title>Node17&#45;&gt;Node20</title>
<path fill="none" stroke="#191970" d="M402.7312,-219.5808C343.0594,-212.1846 270.9444,-198.7739 251,-176 214.7164,-134.5689 226.5772,-61.8582 233.9715,-30.5438"/>
<polygon fill="#191970" stroke="#191970" points="402.6047,-223.0905 412.95,-220.8047 403.4372,-216.1402 402.6047,-223.0905"/>
</g>
<!-- Node21 -->
<g id="node5" class="node">
<title>Node21</title>
<g id="a_node5"><a xlink:href="expression_8cxx.html" target="_top" xlink:title="/home/jbigot/data/projects\l/pdi/pdi/src/expression.cxx">
<polygon fill="#ffffff" stroke="#000000" points="494.5,-.5 494.5,-30.5 635.5,-30.5 635.5,-.5 494.5,-.5"/>
<text text-anchor="start" x="502.5" y="-18.5" font-family="Helvetica,sans-Serif" font-size="10.00" fill="#000000">/home/jbigot/data/projects</text>
<text text-anchor="middle" x="565" y="-7.5" font-family="Helvetica,sans-Serif" font-size="10.00" fill="#000000">/pdi/pdi/src/expression.cxx</text>
</a>
</g>
</g>
<!-- Node17&#45;&gt;Node21 -->
<g id="edge19" class="edge">
<title>Node17&#45;&gt;Node21</title>
<path fill="none" stroke="#191970" d="M497.8503,-202.8123C513.7334,-158.5067 546.6252,-66.756 559.5838,-30.6084"/>
<polygon fill="#191970" stroke="#191970" points="494.5457,-201.6589 494.4657,-212.2535 501.1351,-204.0212 494.5457,-201.6589"/>
</g>
<!-- Node22 -->
<g id="node6" class="node">
<title>Node22</title>
<g id="a_node6"><a xlink:href="pdi_8cxx.html" target="_top" xlink:title="/home/jbigot/data/projects\l/pdi/pdi/src/pdi.cxx">
<polygon fill="#ffffff" stroke="#000000" points="338,-.5 338,-30.5 476,-30.5 476,-.5 338,-.5"/>
<text text-anchor="start" x="346" y="-18.5" font-family="Helvetica,sans-Serif" font-size="10.00" fill="#000000">/home/jbigot/data/projects</text>
<text text-anchor="middle" x="407" y="-7.5" font-family="Helvetica,sans-Serif" font-size="10.00" fill="#000000">/pdi/pdi/src/pdi.cxx</text>
</a>
</g>
</g>
<!-- Node17&#45;&gt;Node22 -->
<g id="edge20" class="edge">
<title>Node17&#45;&gt;Node22</title>
<path fill="none" stroke="#191970" d="M491.616,-201.9934C493.8194,-168.7709 493.5183,-109.8801 470,-67 461.712,-51.8888 447.0155,-39.4842 433.9008,-30.6384"/>
<polygon fill="#191970" stroke="#191970" points="488.1069,-201.9699 490.8027,-212.216 495.0849,-202.5251 488.1069,-201.9699"/>
</g>
<!-- Node23 -->
<g id="node7" class="node">
<title>Node23</title>
<g id="a_node7"><a xlink:href="plugin_8cxx.html" target="_top" xlink:title="/home/jbigot/data/projects\l/pdi/pdi/src/plugin.cxx">
<polygon fill="#ffffff" stroke="#000000" points="965,-.5 965,-30.5 1103,-30.5 1103,-.5 965,-.5"/>
<text text-anchor="start" x="973" y="-18.5" font-family="Helvetica,sans-Serif" font-size="10.00" fill="#000000">/home/jbigot/data/projects</text>
<text text-anchor="middle" x="1034" y="-7.5" font-family="Helvetica,sans-Serif" font-size="10.00" fill="#000000">/pdi/pdi/src/plugin.cxx</text>
</a>
</g>
</g>
<!-- Node17&#45;&gt;Node23 -->
<g id="edge21" class="edge">
<title>Node17&#45;&gt;Node23</title>
<path fill="none" stroke="#191970" d="M575.3529,-220.4865C779.3704,-203.0399 1277.7482,-154.9594 1326,-98 1334.9056,-87.4873 1334.856,-77.5546 1326,-67 1298.1235,-33.7766 1180.4402,-21.9773 1103.2494,-17.7927"/>
<polygon fill="#191970" stroke="#191970" points="574.9429,-217.0087 565.2756,-221.3438 575.5363,-223.9835 574.9429,-217.0087"/>
</g>
<!-- Node24 -->
<g id="node8" class="node">
<title>Node24</title>
<g id="a_node8"><a xlink:href="data__descriptor_8h.html" target="_top" xlink:title="/home/jbigot/data/projects\l/pdi/pdi/include/pdi/data\l_descriptor.h">
<polygon fill="#ffffff" stroke="#000000" points="260,-134.5 260,-175.5 398,-175.5 398,-134.5 260,-134.5"/>
<text text-anchor="start" x="268" y="-163.5" font-family="Helvetica,sans-Serif" font-size="10.00" fill="#000000">/home/jbigot/data/projects</text>
<text text-anchor="start" x="268" y="-152.5" font-family="Helvetica,sans-Serif" font-size="10.00" fill="#000000">/pdi/pdi/include/pdi/data</text>
<text text-anchor="middle" x="329" y="-141.5" font-family="Helvetica,sans-Serif" font-size="10.00" fill="#000000">_descriptor.h</text>
</a>
</g>
</g>
<!-- Node17&#45;&gt;Node24 -->
<g id="edge7" class="edge">
<title>Node17&#45;&gt;Node24</title>
<path fill="none" stroke="#191970" d="M446.6261,-208.2993C424.3208,-198.1923 396.9621,-185.7953 374.2447,-175.5015"/>
<polygon fill="#191970" stroke="#191970" points="445.2948,-211.5386 455.8479,-212.478 448.1839,-205.1626 445.2948,-211.5386"/>
</g>
<!-- Node25 -->
<g id="node9" class="node">
<title>Node25</title>
<g id="a_node9"><a xlink:href="expression_8h.html" target="_top" xlink:title="/home/jbigot/data/projects\l/pdi/pdi/include/pdi/expression.h">
<polygon fill="#ffffff" stroke="#000000" points="682.5,-140 682.5,-170 849.5,-170 849.5,-140 682.5,-140"/>
<text text-anchor="start" x="690.5" y="-158" font-family="Helvetica,sans-Serif" font-size="10.00" fill="#000000">/home/jbigot/data/projects</text>
<text text-anchor="middle" x="766" y="-147" font-family="Helvetica,sans-Serif" font-size="10.00" fill="#000000">/pdi/pdi/include/pdi/expression.h</text>
</a>
</g>
</g>
<!-- Node17&#45;&gt;Node25 -->
<g id="edge11" class="edge">
<title>Node17&#45;&gt;Node25</title>
<path fill="none" stroke="#191970" d="M556.1143,-209.934C602.776,-197.7211 664.3148,-181.6144 708.6789,-170.0028"/>
<polygon fill="#191970" stroke="#191970" points="555.1825,-206.5599 546.3946,-212.478 556.955,-213.3318 555.1825,-206.5599"/>
</g>
<!-- Node30 -->
<g id="node14" class="node">
<title>Node30</title>
<g id="a_node14"><a xlink:href="ref__any_8cxx.html" target="_top" xlink:title="/home/jbigot/data/projects\l/pdi/pdi/src/ref_any.cxx">
<polygon fill="#ffffff" stroke="#000000" points="1373,-140 1373,-170 1511,-170 1511,-140 1373,-140"/>
<text text-anchor="start" x="1381" y="-158" font-family="Helvetica,sans-Serif" font-size="10.00" fill="#000000">/home/jbigot/data/projects</text>
<text text-anchor="middle" x="1442" y="-147" font-family="Helvetica,sans-Serif" font-size="10.00" fill="#000000">/pdi/pdi/src/ref_any.cxx</text>
</a>
</g>
</g>
<!-- Node17&#45;&gt;Node30 -->
<g id="edge22" class="edge">
<title>Node17&#45;&gt;Node30</title>
<path fill="none" stroke="#191970" d="M575.4094,-224.4613C764.4603,-217.4746 1209.7878,-199.0809 1359,-176 1368.6948,-174.5004 1378.9075,-172.3782 1388.7267,-170.0541"/>
<polygon fill="#191970" stroke="#191970" points="575.1028,-220.9701 565.2382,-224.8353 575.3601,-227.9654 575.1028,-220.9701"/>
</g>
<!-- Node18&#45;&gt;Node19 -->
<g id="edge2" class="edge">
<title>Node18&#45;&gt;Node19</title>
<path fill="none" stroke="#191970" d="M304.7567,-65.3287C253.2376,-54.4398 187.303,-40.5041 138.2686,-30.1404"/>
<polygon fill="#191970" stroke="#191970" points="304.3514,-68.8203 314.859,-67.4639 305.7989,-61.9716 304.3514,-68.8203"/>
</g>
<!-- Node18&#45;&gt;Node20 -->
<g id="edge3" class="edge">
<title>Node18&#45;&gt;Node20</title>
<path fill="none" stroke="#191970" d="M343.6173,-63.3132C320.6739,-52.9267 292.7366,-40.2794 271.359,-30.6017"/>
<polygon fill="#191970" stroke="#191970" points="342.2325,-66.5282 352.7859,-67.4639 345.1194,-60.1512 342.2325,-66.5282"/>
</g>
<!-- Node18&#45;&gt;Node21 -->
<g id="edge4" class="edge">
<title>Node18&#45;&gt;Node21</title>
<path fill="none" stroke="#191970" d="M435.786,-63.865C463.8054,-53.3773 498.3387,-40.4515 524.6537,-30.6017"/>
<polygon fill="#191970" stroke="#191970" points="434.3096,-60.6804 426.1711,-67.4639 436.7635,-67.2362 434.3096,-60.6804"/>
</g>
<!-- Node18&#45;&gt;Node22 -->
<g id="edge5" class="edge">
<title>Node18&#45;&gt;Node22</title>
<path fill="none" stroke="#191970" d="M393.8012,-57.6103C396.6394,-48.5553 399.7597,-38.5998 402.2536,-30.6432"/>
<polygon fill="#191970" stroke="#191970" points="390.4164,-56.7076 390.7652,-67.2967 397.0959,-58.8012 390.4164,-56.7076"/>
</g>
<!-- Node18&#45;&gt;Node23 -->
<g id="edge6" class="edge">
<title>Node18&#45;&gt;Node23</title>
<path fill="none" stroke="#191970" d="M471.5698,-73.6525C601.3242,-60.2365 845.3389,-35.0066 964.6983,-22.6655"/>
<polygon fill="#191970" stroke="#191970" points="470.8712,-70.206 461.2842,-74.716 471.5912,-77.1689 470.8712,-70.206"/>
</g>
<!-- Node24&#45;&gt;Node18 -->
<g id="edge8" class="edge">
<title>Node24&#45;&gt;Node18</title>
<path fill="none" stroke="#191970" d="M351.4816,-126.405C359.2187,-116.564 367.5758,-105.9343 374.129,-97.5991"/>
<polygon fill="#191970" stroke="#191970" points="348.6106,-124.3938 345.1814,-134.4183 354.1136,-128.7202 348.6106,-124.3938"/>
</g>
<!-- Node24&#45;&gt;Node20 -->
<g id="edge9" class="edge">
<title>Node24&#45;&gt;Node20</title>
<path fill="none" stroke="#191970" d="M310.0185,-125.902C291.0643,-96.8457 262.6784,-53.3312 247.8386,-30.5822"/>
<polygon fill="#191970" stroke="#191970" points="307.1776,-127.953 315.5726,-134.4163 313.0404,-124.1285 307.1776,-127.953"/>
</g>
<!-- Node24&#45;&gt;Node22 -->
<g id="edge10" class="edge">
<title>Node24&#45;&gt;Node22</title>
<path fill="none" stroke="#191970" d="M308.0853,-125.3113C298.2714,-107.4415 290.9141,-84.785 302,-67 312.6329,-49.9418 330.7448,-38.3752 348.961,-30.6038"/>
<polygon fill="#191970" stroke="#191970" points="305.2347,-127.3652 313.3566,-134.1686 311.25,-123.7853 305.2347,-127.3652"/>
</g>
<!-- Node25&#45;&gt;Node21 -->
<g id="edge14" class="edge">
<title>Node25&#45;&gt;Node21</title>
<path fill="none" stroke="#191970" d="M683.2815,-137.5376C642.0899,-127.2311 598.1076,-113.2403 584,-98 566.9267,-79.5559 564.1848,-48.9419 564.2462,-30.6457"/>
<polygon fill="#191970" stroke="#191970" points="682.5724,-140.9673 693.1177,-139.9441 684.236,-134.1678 682.5724,-140.9673"/>
</g>
<!-- Node26 -->
<g id="node10" class="node">
<title>Node26</title>
<g id="a_node10"><a xlink:href="array__datatype_8cxx.html" target="_top" xlink:title="/home/jbigot/data/projects\l/pdi/pdi/src/array_datatype.cxx">
<polygon fill="#ffffff" stroke="#000000" points="776.5,-67.5 776.5,-97.5 937.5,-97.5 937.5,-67.5 776.5,-67.5"/>
<text text-anchor="start" x="784.5" y="-85.5" font-family="Helvetica,sans-Serif" font-size="10.00" fill="#000000">/home/jbigot/data/projects</text>
<text text-anchor="middle" x="857" y="-74.5" font-family="Helvetica,sans-Serif" font-size="10.00" fill="#000000">/pdi/pdi/src/array_datatype.cxx</text>
</a>
</g>
</g>
<!-- Node25&#45;&gt;Node26 -->
<g id="edge12" class="edge">
<title>Node25&#45;&gt;Node26</title>
<path fill="none" stroke="#191970" d="M793.0072,-133.4833C807.5454,-121.9007 825.1189,-107.8998 838.1689,-97.5028"/>
<polygon fill="#191970" stroke="#191970" points="790.4956,-131.0093 784.8553,-139.978 794.8575,-136.4841 790.4956,-131.0093"/>
</g>
<!-- Node27 -->
<g id="node11" class="node">
<title>Node27</title>
<g id="a_node11"><a xlink:href="datatype__template_8cxx.html" target="_top" xlink:title="/home/jbigot/data/projects\l/pdi/pdi/src/datatype_template.cxx">
<polygon fill="#ffffff" stroke="#000000" points="955.5,-67.5 955.5,-97.5 1132.5,-97.5 1132.5,-67.5 955.5,-67.5"/>
<text text-anchor="start" x="963.5" y="-85.5" font-family="Helvetica,sans-Serif" font-size="10.00" fill="#000000">/home/jbigot/data/projects</text>
<text text-anchor="middle" x="1044" y="-74.5" font-family="Helvetica,sans-Serif" font-size="10.00" fill="#000000">/pdi/pdi/src/datatype_template.cxx</text>
</a>
</g>
</g>
<!-- Node25&#45;&gt;Node27 -->
<g id="edge13" class="edge">
<title>Node25&#45;&gt;Node27</title>
<path fill="none" stroke="#191970" d="M833.3566,-137.434C880.1867,-125.2211 941.9477,-109.1144 986.472,-97.5028"/>
<polygon fill="#191970" stroke="#191970" points="832.3949,-134.0676 823.6018,-139.978 834.1614,-140.8411 832.3949,-134.0676"/>
</g>
<!-- Node28 -->
<g id="node12" class="node">
<title>Node28</title>
<g id="a_node12"><a xlink:href="record__datatype_8cxx.html" target="_top" xlink:title="/home/jbigot/data/projects\l/pdi/pdi/src/record_datatype.cxx">
<polygon fill="#ffffff" stroke="#000000" points="1150.5,-67.5 1150.5,-97.5 1317.5,-97.5 1317.5,-67.5 1150.5,-67.5"/>
<text text-anchor="start" x="1158.5" y="-85.5" font-family="Helvetica,sans-Serif" font-size="10.00" fill="#000000">/home/jbigot/data/projects</text>
<text text-anchor="middle" x="1234" y="-74.5" font-family="Helvetica,sans-Serif" font-size="10.00" fill="#000000">/pdi/pdi/src/record_datatype.cxx</text>
</a>
</g>
</g>
<!-- Node25&#45;&gt;Node28 -->
<g id="edge15" class="edge">
<title>Node25&#45;&gt;Node28</title>
<path fill="none" stroke="#191970" d="M859.8443,-141.1159C935.732,-129.7968 1045.31,-113.2458 1141,-98 1144.0713,-97.5107 1147.199,-97.0086 1150.3577,-96.4984"/>
<polygon fill="#191970" stroke="#191970" points="859.2056,-137.6723 849.8308,-142.6082 860.2375,-144.5959 859.2056,-137.6723"/>
</g>
<!-- Node29 -->
<g id="node13" class="node">
<title>Node29</title>
<g id="a_node13"><a xlink:href="scalar__datatype_8cxx.html" target="_top" xlink:title="/home/jbigot/data/projects\l/pdi/pdi/src/scalar_datatype.cxx">
<polygon fill="#ffffff" stroke="#000000" points="593.5,-67.5 593.5,-97.5 758.5,-97.5 758.5,-67.5 593.5,-67.5"/>
<text text-anchor="start" x="601.5" y="-85.5" font-family="Helvetica,sans-Serif" font-size="10.00" fill="#000000">/home/jbigot/data/projects</text>
<text text-anchor="middle" x="676" y="-74.5" font-family="Helvetica,sans-Serif" font-size="10.00" fill="#000000">/pdi/pdi/src/scalar_datatype.cxx</text>
</a>
</g>
</g>
<!-- Node25&#45;&gt;Node29 -->
<g id="edge16" class="edge">
<title>Node25&#45;&gt;Node29</title>
<path fill="none" stroke="#191970" d="M739.2896,-133.4833C724.9112,-121.9007 707.5307,-107.8998 694.6242,-97.5028"/>
<polygon fill="#191970" stroke="#191970" points="737.3687,-136.4303 747.3519,-139.978 741.76,-130.979 737.3687,-136.4303"/>
</g>
</g>
</svg>
