<?xml version="1.0" encoding="UTF-8" standalone="no"?>
<!DOCTYPE svg PUBLIC "-//W3C//DTD SVG 1.1//EN"
 "http://www.w3.org/Graphics/SVG/1.1/DTD/svg11.dtd">
<!-- Generated by graphviz version 2.40.1 (20161225.0304)
 -->
<!-- Title: /home/jbigot/data/projects/pdi/pdi/src/ref_any.cxx Pages: 1 -->
<!--zoomable 375 -->
<svg id="main" version="1.1" xmlns="http://www.w3.org/2000/svg" xmlns:xlink="http://www.w3.org/1999/xlink" xml:space="preserve" onload="init(evt)">
<style type="text/css"><![CDATA[
.edge:hover path { stroke: red; }
.edge:hover polygon { stroke: red; fill: red; }
]]></style>
<script type="text/javascript"><![CDATA[
var edges = document.getElementsByTagName('g');
if (edges && edges.length) {
  for (var i=0;i<edges.length;i++) {
    if (edges[i].id.substr(0,4)=='edge') {
      edges[i].setAttribute('class','edge');
    }
  }
}
]]></script>
        <defs>
                <circle id="rim" cx="0" cy="0" r="7"/>
                <circle id="rim2" cx="0" cy="0" r="3.5"/>
                <g id="zoomPlus">
                        <use xlink:href="#rim" fill="#404040">
                                <set attributeName="fill" to="#808080" begin="zoomplus.mouseover" end="zoomplus.mouseout"/>
                        </use>
                        <path d="M-4,0h8M0,-4v8" fill="none" stroke="white" stroke-width="1.5" pointer-events="none"/>
                </g>
                <g id="zoomMin">
                        <use xlink:href="#rim" fill="#404040">
                                <set attributeName="fill" to="#808080" begin="zoomminus.mouseover" end="zoomminus.mouseout"/>
                        </use>
                        <path d="M-4,0h8" fill="none" stroke="white" stroke-width="1.5" pointer-events="none"/>
                </g>
                <g id="dirArrow">
                        <path fill="none" stroke="white" stroke-width="1.5" d="M0,-3.0v7 M-2.5,-0.5L0,-3.0L2.5,-0.5"/>
                </g>
               <g id="resetDef">
                       <use xlink:href="#rim2" fill="#404040">
                               <set attributeName="fill" to="#808080" begin="reset.mouseover" end="reset.mouseout"/>
                       </use>
               </g>
        </defs>

<script type="text/javascript">
var viewWidth = 1142;
var viewHeight = 375;
var sectionId = 'dynsection-0';
</script>
<script xlink:href="svgpan.js"/>
<svg id="graph" class="graph">
<g id="viewport">
<title>/home/jbigot/data/projects/pdi/pdi/src/ref_any.cxx</title>
<polygon fill="#ffffff" stroke="transparent" points="-4,4 -4,-371 1138.1514,-371 1138.1514,4 -4,4"/>
<!-- Node0 -->
<g id="node1" class="node">
<title>Node0</title>
<polygon fill="#bfbfbf" stroke="#000000" points="354.5,-336.5 354.5,-366.5 492.5,-366.5 492.5,-336.5 354.5,-336.5"/>
<text text-anchor="start" x="362.5" y="-354.5" font-family="Helvetica,sans-Serif" font-size="10.00" fill="#000000">/home/jbigot/data/projects</text>
<text text-anchor="middle" x="423.5" y="-343.5" font-family="Helvetica,sans-Serif" font-size="10.00" fill="#000000">/pdi/pdi/src/ref_any.cxx</text>
</g>
<!-- Node1 -->
<g id="node2" class="node">
<title>Node1</title>
<polygon fill="#ffffff" stroke="#bfbfbf" points="0,-280.5 0,-299.5 53,-299.5 53,-280.5 0,-280.5"/>
<text text-anchor="middle" x="26.5" y="-287.5" font-family="Helvetica,sans-Serif" font-size="10.00" fill="#000000">config.h</text>
</g>
<!-- Node0&#45;&gt;Node1 -->
<g id="edge1" class="edge">
<title>Node0&#45;&gt;Node1</title>
<path fill="none" stroke="#191970" d="M354.2591,-343.4732C282.2811,-334.6644 166.5123,-319.1908 67.5,-300 66.0614,-299.7212 64.5974,-299.4249 63.1206,-299.1155"/>
<polygon fill="#191970" stroke="#191970" points="63.8475,-295.6917 53.3255,-296.9318 62.3242,-302.524 63.8475,-295.6917"/>
</g>
<!-- Node2 -->
<g id="node3" class="node">
<title>Node2</title>
<polygon fill="#ffffff" stroke="#bfbfbf" points="659,-224.5 659,-243.5 710,-243.5 710,-224.5 659,-224.5"/>
<text text-anchor="middle" x="684.5" y="-231.5" font-family="Helvetica,sans-Serif" font-size="10.00" fill="#000000">cassert</text>
</g>
<!-- Node0&#45;&gt;Node2 -->
<g id="edge2" class="edge">
<title>Node0&#45;&gt;Node2</title>
<path fill="none" stroke="#191970" d="M492.6913,-348.9136C568.3244,-344.4606 682.399,-332.4169 709.5,-300 721.2147,-285.9874 710.8109,-265.9163 700.0749,-251.5929"/>
<polygon fill="#191970" stroke="#191970" points="702.5545,-249.0932 693.5421,-243.523 697.1138,-253.4976 702.5545,-249.0932"/>
</g>
<!-- Node3 -->
<g id="node4" class="node">
<title>Node3</title>
<polygon fill="#ffffff" stroke="#bfbfbf" points="109.5,-280.5 109.5,-299.5 157.5,-299.5 157.5,-280.5 109.5,-280.5"/>
<text text-anchor="middle" x="133.5" y="-287.5" font-family="Helvetica,sans-Serif" font-size="10.00" fill="#000000">cstring</text>
</g>
<!-- Node0&#45;&gt;Node3 -->
<g id="edge3" class="edge">
<title>Node0&#45;&gt;Node3</title>
<path fill="none" stroke="#191970" d="M354.3753,-339.5185C304.7425,-330.4842 236.1113,-317.1142 167.2865,-300.0246"/>
<polygon fill="#191970" stroke="#191970" points="168.1268,-296.6271 157.5757,-297.5886 166.4235,-303.4167 168.1268,-296.6271"/>
</g>
<!-- Node4 -->
<g id="node5" class="node">
<title>Node4</title>
<polygon fill="#ffffff" stroke="#bfbfbf" points="176,-280.5 176,-299.5 223,-299.5 223,-280.5 176,-280.5"/>
<text text-anchor="middle" x="199.5" y="-287.5" font-family="Helvetica,sans-Serif" font-size="10.00" fill="#000000">cstdint</text>
</g>
<!-- Node0&#45;&gt;Node4 -->
<g id="edge4" class="edge">
<title>Node0&#45;&gt;Node4</title>
<path fill="none" stroke="#191970" d="M364.9307,-336.4529C329.1959,-327.1192 282.3711,-314.619 233.1143,-300.401"/>
<polygon fill="#191970" stroke="#191970" points="233.8122,-296.9592 223.233,-297.5349 231.8622,-303.6821 233.8122,-296.9592"/>
</g>
<!-- Node5 -->
<g id="node6" class="node">
<title>Node5</title>
<polygon fill="#ffffff" stroke="#bfbfbf" points="241,-280.5 241,-299.5 278,-299.5 278,-280.5 241,-280.5"/>
<text text-anchor="middle" x="259.5" y="-287.5" font-family="Helvetica,sans-Serif" font-size="10.00" fill="#000000">map</text>
</g>
<!-- Node0&#45;&gt;Node5 -->
<g id="edge5" class="edge">
<title>Node0&#45;&gt;Node5</title>
<path fill="none" stroke="#191970" d="M383.3811,-336.4554C353.6147,-325.293 313.7836,-310.3563 287.4171,-300.4689"/>
<polygon fill="#191970" stroke="#191970" points="288.6124,-297.1792 278.0202,-296.9451 286.1545,-303.7335 288.6124,-297.1792"/>
</g>
<!-- Node6 -->
<g id="node7" class="node">
<title>Node6</title>
<polygon fill="#ffffff" stroke="#bfbfbf" points="926.5,-56.5 926.5,-75.5 980.5,-75.5 980.5,-56.5 926.5,-56.5"/>
<text text-anchor="middle" x="953.5" y="-63.5" font-family="Helvetica,sans-Serif" font-size="10.00" fill="#000000">memory</text>
</g>
<!-- Node0&#45;&gt;Node6 -->
<g id="edge6" class="edge">
<title>Node0&#45;&gt;Node6</title>
<path fill="none" stroke="#191970" d="M492.5464,-347.2758C670.9655,-335.4418 1133.5,-298.5396 1133.5,-234 1133.5,-234 1133.5,-234 1133.5,-178 1133.5,-147.4754 1136.1057,-133.5626 1114.5,-112 1097.107,-94.6418 1032.4713,-80.1486 990.5758,-72.3066"/>
<polygon fill="#191970" stroke="#191970" points="991.182,-68.8595 980.7157,-70.5046 989.9235,-75.7454 991.182,-68.8595"/>
</g>
<!-- Node7 -->
<g id="node8" class="node">
<title>Node7</title>
<polygon fill="#ffffff" stroke="#bfbfbf" points="218.5,-224.5 218.5,-243.5 264.5,-243.5 264.5,-224.5 218.5,-224.5"/>
<text text-anchor="middle" x="241.5" y="-231.5" font-family="Helvetica,sans-Serif" font-size="10.00" fill="#000000">vector</text>
</g>
<!-- Node0&#45;&gt;Node7 -->
<g id="edge7" class="edge">
<title>Node0&#45;&gt;Node7</title>
<path fill="none" stroke="#191970" d="M354.4844,-345.2373C264.5552,-336.368 116.7859,-319.0883 100.5,-300 67.8399,-261.72 157.2555,-244.2115 208.463,-237.5083"/>
<polygon fill="#191970" stroke="#191970" points="208.9552,-240.9741 218.4502,-236.2734 208.0962,-234.027 208.9552,-240.9741"/>
</g>
<!-- Node8 -->
<g id="node9" class="node">
<title>Node8</title>
<g id="a_node9"><a xlink:href="array__datatype_8h.html" target="_top" xlink:title="pdi/array_datatype.h">
<polygon fill="#ffffff" stroke="#000000" points="434.5,-280.5 434.5,-299.5 548.5,-299.5 548.5,-280.5 434.5,-280.5"/>
<text text-anchor="middle" x="491.5" y="-287.5" font-family="Helvetica,sans-Serif" font-size="10.00" fill="#000000">pdi/array_datatype.h</text>
</a>
</g>
</g>
<!-- Node0&#45;&gt;Node8 -->
<g id="edge8" class="edge">
<title>Node0&#45;&gt;Node8</title>
<path fill="none" stroke="#191970" d="M440.309,-336.2977C450.2397,-327.3163 462.8257,-315.9334 473.0327,-306.702"/>
<polygon fill="#191970" stroke="#191970" points="475.5434,-309.1505 480.6123,-299.8469 470.848,-303.9588 475.5434,-309.1505"/>
</g>
<!-- Node15 -->
<g id="node16" class="node">
<title>Node15</title>
<g id="a_node16"><a xlink:href="datatype_8h.html" target="_top" xlink:title="pdi/datatype.h">
<polygon fill="#ffffff" stroke="#000000" points="558,-224.5 558,-243.5 641,-243.5 641,-224.5 558,-224.5"/>
<text text-anchor="middle" x="599.5" y="-231.5" font-family="Helvetica,sans-Serif" font-size="10.00" fill="#000000">pdi/datatype.h</text>
</a>
</g>
</g>
<!-- Node0&#45;&gt;Node15 -->
<g id="edge21" class="edge">
<title>Node0&#45;&gt;Node15</title>
<path fill="none" stroke="#191970" d="M492.7324,-348.056C564.1305,-342.8832 668.481,-330.2422 693.5,-300 712.5304,-276.9966 677.1488,-258.3251 644.4913,-246.7868"/>
<polygon fill="#191970" stroke="#191970" points="645.5488,-243.4498 634.9548,-243.581 643.3183,-250.085 645.5488,-243.4498"/>
</g>
<!-- Node17 -->
<g id="node18" class="node">
<title>Node17</title>
<g id="a_node18"><a xlink:href="record__datatype_8h.html" target="_top" xlink:title="pdi/record_datatype.h">
<polygon fill="#ffffff" stroke="#000000" points="296.5,-280.5 296.5,-299.5 416.5,-299.5 416.5,-280.5 296.5,-280.5"/>
<text text-anchor="middle" x="356.5" y="-287.5" font-family="Helvetica,sans-Serif" font-size="10.00" fill="#000000">pdi/record_datatype.h</text>
</a>
</g>
</g>
<!-- Node0&#45;&gt;Node17 -->
<g id="edge22" class="edge">
<title>Node0&#45;&gt;Node17</title>
<path fill="none" stroke="#191970" d="M406.9382,-336.2977C397.1535,-327.3163 384.7526,-315.9334 374.6957,-306.702"/>
<polygon fill="#191970" stroke="#191970" points="376.9613,-304.0307 367.2275,-299.8469 372.2278,-309.1876 376.9613,-304.0307"/>
</g>
<!-- Node18 -->
<g id="node19" class="node">
<title>Node18</title>
<g id="a_node19"><a xlink:href="scalar__datatype_8h.html" target="_top" xlink:title="pdi/scalar_datatype.h">
<polygon fill="#ffffff" stroke="#000000" points="566.5,-280.5 566.5,-299.5 684.5,-299.5 684.5,-280.5 566.5,-280.5"/>
<text text-anchor="middle" x="625.5" y="-287.5" font-family="Helvetica,sans-Serif" font-size="10.00" fill="#000000">pdi/scalar_datatype.h</text>
</a>
</g>
</g>
<!-- Node0&#45;&gt;Node18 -->
<g id="edge26" class="edge">
<title>Node0&#45;&gt;Node18</title>
<path fill="none" stroke="#191970" d="M472.9148,-336.4554C507.2103,-326.0139 552.353,-312.27 584.6222,-302.4455"/>
<polygon fill="#191970" stroke="#191970" points="585.6501,-305.7912 594.1972,-299.5303 583.6113,-299.0947 585.6501,-305.7912"/>
</g>
<!-- Node19 -->
<g id="node20" class="node">
<title>Node19</title>
<g id="a_node20"><a xlink:href="ref__any_8h.html" target="_top" xlink:title="pdi/ref_any.h">
<polygon fill="#ffffff" stroke="#000000" points="778.5,-280.5 778.5,-299.5 856.5,-299.5 856.5,-280.5 778.5,-280.5"/>
<text text-anchor="middle" x="817.5" y="-287.5" font-family="Helvetica,sans-Serif" font-size="10.00" fill="#000000">pdi/ref_any.h</text>
</a>
</g>
</g>
<!-- Node0&#45;&gt;Node19 -->
<g id="edge29" class="edge">
<title>Node0&#45;&gt;Node19</title>
<path fill="none" stroke="#191970" d="M492.5225,-341.8317C561.4905,-331.9933 670.4981,-315.961 764.5,-300 765.7722,-299.784 767.0611,-299.5622 768.3611,-299.336"/>
<polygon fill="#191970" stroke="#191970" points="769.2251,-302.7372 778.4546,-297.5346 767.9952,-295.8461 769.2251,-302.7372"/>
</g>
<!-- Node9 -->
<g id="node10" class="node">
<title>Node9</title>
<g id="a_node10"><a xlink:href="pdi__fwd_8h.html" target="_top" xlink:title="pdi/pdi_fwd.h">
<polygon fill="#ffffff" stroke="#000000" points="677,-112.5 677,-131.5 756,-131.5 756,-112.5 677,-112.5"/>
<text text-anchor="middle" x="716.5" y="-119.5" font-family="Helvetica,sans-Serif" font-size="10.00" fill="#000000">pdi/pdi_fwd.h</text>
</a>
</g>
</g>
<!-- Node8&#45;&gt;Node9 -->
<g id="edge9" class="edge">
<title>Node8&#45;&gt;Node9</title>
<path fill="none" stroke="#191970" d="M495.667,-280.1611C505.9305,-257.0948 534.6705,-199.1352 576.5,-168 603.0277,-148.2544 638.459,-136.7213 667.0395,-130.1414"/>
<polygon fill="#191970" stroke="#191970" points="667.8069,-133.5564 676.8372,-128.0152 666.3224,-126.7156 667.8069,-133.5564"/>
</g>
<!-- Node8&#45;&gt;Node15 -->
<g id="edge16" class="edge">
<title>Node8&#45;&gt;Node15</title>
<path fill="none" stroke="#191970" d="M510.3122,-280.2455C527.3473,-271.4125 552.6575,-258.2887 571.9681,-248.2758"/>
<polygon fill="#191970" stroke="#191970" points="573.637,-251.353 580.9034,-243.6427 570.4147,-245.1388 573.637,-251.353"/>
</g>
<!-- Node9&#45;&gt;Node6 -->
<g id="edge10" class="edge">
<title>Node9&#45;&gt;Node6</title>
<path fill="none" stroke="#191970" d="M756.1685,-112.6269C800.8181,-102.0767 872.7947,-85.0696 916.3739,-74.7724"/>
<polygon fill="#191970" stroke="#191970" points="917.3516,-78.1378 926.2788,-72.432 915.7419,-71.3254 917.3516,-78.1378"/>
</g>
<!-- Node10 -->
<g id="node11" class="node">
<title>Node10</title>
<g id="a_node11"><a xlink:href="pdi_8h.html" target="_top" xlink:title="pdi.h">
<polygon fill="#ffffff" stroke="#000000" points="697,-56.5 697,-75.5 736,-75.5 736,-56.5 697,-56.5"/>
<text text-anchor="middle" x="716.5" y="-63.5" font-family="Helvetica,sans-Serif" font-size="10.00" fill="#000000">pdi.h</text>
</a>
</g>
</g>
<!-- Node9&#45;&gt;Node10 -->
<g id="edge11" class="edge">
<title>Node9&#45;&gt;Node10</title>
<path fill="none" stroke="#191970" d="M716.5,-112.2455C716.5,-104.9382 716.5,-94.6944 716.5,-85.7046"/>
<polygon fill="#191970" stroke="#191970" points="720.0001,-85.6426 716.5,-75.6427 713.0001,-85.6427 720.0001,-85.6426"/>
</g>
<!-- Node11 -->
<g id="node12" class="node">
<title>Node11</title>
<polygon fill="#ffffff" stroke="#bfbfbf" points="576,-.5 576,-19.5 617,-19.5 617,-.5 576,-.5"/>
<text text-anchor="middle" x="596.5" y="-7.5" font-family="Helvetica,sans-Serif" font-size="10.00" fill="#000000">mpi.h</text>
</g>
<!-- Node10&#45;&gt;Node11 -->
<g id="edge12" class="edge">
<title>Node10&#45;&gt;Node11</title>
<path fill="none" stroke="#191970" d="M696.9529,-56.878C677.8617,-47.9688 648.5429,-34.2867 626.4989,-23.9995"/>
<polygon fill="#191970" stroke="#191970" points="627.7892,-20.7393 617.2472,-19.682 624.829,-27.0826 627.7892,-20.7393"/>
</g>
<!-- Node12 -->
<g id="node13" class="node">
<title>Node12</title>
<polygon fill="#ffffff" stroke="#bfbfbf" points="821,-.5 821,-19.5 888,-19.5 888,-.5 821,-.5"/>
<text text-anchor="middle" x="854.5" y="-7.5" font-family="Helvetica,sans-Serif" font-size="10.00" fill="#000000">paraconf.h</text>
</g>
<!-- Node10&#45;&gt;Node12 -->
<g id="edge13" class="edge">
<title>Node10&#45;&gt;Node12</title>
<path fill="none" stroke="#191970" d="M736.272,-57.9766C758.5745,-48.9263 795.1942,-34.0661 821.7765,-23.2791"/>
<polygon fill="#191970" stroke="#191970" points="823.1206,-26.5109 831.0706,-19.5076 820.4884,-20.0246 823.1206,-26.5109"/>
</g>
<!-- Node13 -->
<g id="node14" class="node">
<title>Node13</title>
<polygon fill="#ffffff" stroke="#bfbfbf" points="635.5,-.5 635.5,-19.5 707.5,-19.5 707.5,-.5 635.5,-.5"/>
<text text-anchor="middle" x="671.5" y="-7.5" font-family="Helvetica,sans-Serif" font-size="10.00" fill="#000000">pdi/export.h</text>
</g>
<!-- Node10&#45;&gt;Node13 -->
<g id="edge14" class="edge">
<title>Node10&#45;&gt;Node13</title>
<path fill="none" stroke="#191970" d="M708.6616,-56.2455C702.338,-48.3761 693.2776,-37.101 685.6864,-27.6542"/>
<polygon fill="#191970" stroke="#191970" points="688.2408,-25.2454 679.2486,-19.6427 682.7842,-29.6302 688.2408,-25.2454"/>
</g>
<!-- Node14 -->
<g id="node15" class="node">
<title>Node14</title>
<polygon fill="#ffffff" stroke="#bfbfbf" points="726,-.5 726,-19.5 803,-19.5 803,-.5 726,-.5"/>
<text text-anchor="middle" x="764.5" y="-7.5" font-family="Helvetica,sans-Serif" font-size="10.00" fill="#000000">pdi/version.h</text>
</g>
<!-- Node10&#45;&gt;Node14 -->
<g id="edge15" class="edge">
<title>Node10&#45;&gt;Node14</title>
<path fill="none" stroke="#191970" d="M724.861,-56.2455C731.675,-48.2958 741.4681,-36.8706 749.6152,-27.3656"/>
<polygon fill="#191970" stroke="#191970" points="752.3843,-29.513 756.2349,-19.6427 747.0695,-24.9575 752.3843,-29.513"/>
</g>
<!-- Node15&#45;&gt;Node9 -->
<g id="edge17" class="edge">
<title>Node15&#45;&gt;Node9</title>
<path fill="none" stroke="#191970" d="M609.4754,-224.4509C629.4213,-205.3574 674.4325,-162.2697 699.2568,-138.5063"/>
<polygon fill="#191970" stroke="#191970" points="701.7464,-140.9683 706.5499,-131.5249 696.9059,-135.9116 701.7464,-140.9683"/>
</g>
<!-- Node16 -->
<g id="node17" class="node">
<title>Node16</title>
<g id="a_node17"><a xlink:href="datatype__template_8h.html" target="_top" xlink:title="pdi/datatype_template.h">
<polygon fill="#ffffff" stroke="#000000" points="766.5,-168.5 766.5,-187.5 896.5,-187.5 896.5,-168.5 766.5,-168.5"/>
<text text-anchor="middle" x="831.5" y="-175.5" font-family="Helvetica,sans-Serif" font-size="10.00" fill="#000000">pdi/datatype_template.h</text>
</a>
</g>
</g>
<!-- Node15&#45;&gt;Node16 -->
<g id="edge18" class="edge">
<title>Node15&#45;&gt;Node16</title>
<path fill="none" stroke="#191970" d="M639.1186,-224.4369C678.6568,-214.8932 739.5069,-200.2052 782.1582,-189.9101"/>
<polygon fill="#191970" stroke="#191970" points="783.1452,-193.2724 792.0448,-187.5237 781.5027,-186.4679 783.1452,-193.2724"/>
</g>
<!-- Node16&#45;&gt;Node9 -->
<g id="edge20" class="edge">
<title>Node16&#45;&gt;Node9</title>
<path fill="none" stroke="#191970" d="M811.7308,-168.3733C793.3531,-159.4241 765.7688,-145.9917 745.0107,-135.8835"/>
<polygon fill="#191970" stroke="#191970" points="746.5343,-132.7325 736.0112,-131.5011 743.4696,-139.026 746.5343,-132.7325"/>
</g>
<!-- Node16&#45;&gt;Node12 -->
<g id="edge19" class="edge">
<title>Node16&#45;&gt;Node12</title>
<path fill="none" stroke="#191970" d="M832.8025,-168.4862C836.4382,-141.9293 846.756,-66.5651 851.7392,-30.1655"/>
<polygon fill="#191970" stroke="#191970" points="855.2657,-30.2102 853.1545,-19.8279 848.3304,-29.2607 855.2657,-30.2102"/>
</g>
<!-- Node17&#45;&gt;Node7 -->
<g id="edge23" class="edge">
<title>Node17&#45;&gt;Node7</title>
<path fill="none" stroke="#191970" d="M336.7308,-280.3733C318.3531,-271.4241 290.7688,-257.9917 270.0107,-247.8835"/>
<polygon fill="#191970" stroke="#191970" points="271.5343,-244.7325 261.0112,-243.5011 268.4696,-251.026 271.5343,-244.7325"/>
</g>
<!-- Node17&#45;&gt;Node9 -->
<g id="edge24" class="edge">
<title>Node17&#45;&gt;Node9</title>
<path fill="none" stroke="#191970" d="M369.0173,-280.3511C398.9531,-257.6953 477.6961,-200.5588 551.5,-168 588.7328,-151.5746 633.3073,-139.5655 666.7357,-131.9446"/>
<polygon fill="#191970" stroke="#191970" points="667.7307,-135.3089 676.7317,-129.7203 666.2102,-128.476 667.7307,-135.3089"/>
</g>
<!-- Node17&#45;&gt;Node15 -->
<g id="edge25" class="edge">
<title>Node17&#45;&gt;Node15</title>
<path fill="none" stroke="#191970" d="M397.9971,-280.4369C439.5847,-270.8529 503.6834,-256.0812 548.3831,-245.78"/>
<polygon fill="#191970" stroke="#191970" points="549.2155,-249.18 558.1741,-243.5237 547.6435,-242.3588 549.2155,-249.18"/>
</g>
<!-- Node18&#45;&gt;Node9 -->
<g id="edge27" class="edge">
<title>Node18&#45;&gt;Node9</title>
<path fill="none" stroke="#191970" d="M597.3273,-280.3047C569.9227,-269.1732 534.3391,-249.1643 548.5,-224 574.8579,-177.1613 632.3811,-149.3462 672.7402,-134.8768"/>
<polygon fill="#191970" stroke="#191970" points="674.032,-138.1337 682.3461,-131.5667 671.7514,-131.5156 674.032,-138.1337"/>
</g>
<!-- Node18&#45;&gt;Node15 -->
<g id="edge28" class="edge">
<title>Node18&#45;&gt;Node15</title>
<path fill="none" stroke="#191970" d="M620.9711,-280.2455C617.4666,-272.6973 612.5073,-262.0158 608.2377,-252.8197"/>
<polygon fill="#191970" stroke="#191970" points="611.3627,-251.2389 603.977,-243.6427 605.0136,-254.1867 611.3627,-251.2389"/>
</g>
<!-- Node19&#45;&gt;Node2 -->
<g id="edge30" class="edge">
<title>Node19&#45;&gt;Node2</title>
<path fill="none" stroke="#191970" d="M794.6365,-280.3733C773.095,-271.3032 740.6162,-257.6279 716.5044,-247.4755"/>
<polygon fill="#191970" stroke="#191970" points="717.6397,-244.156 707.0652,-243.5011 714.9233,-250.6075 717.6397,-244.156"/>
</g>
<!-- Node19&#45;&gt;Node6 -->
<g id="edge32" class="edge">
<title>Node19&#45;&gt;Node6</title>
<path fill="none" stroke="#191970" d="M856.6148,-285.8147C905.2025,-279.716 983.8703,-266.5797 1001.5,-244 1016.6885,-224.5469 1006.6099,-241.0258 973.5,-132 968.7706,-116.4267 963.4245,-98.7826 959.4502,-85.658"/>
<polygon fill="#191970" stroke="#191970" points="962.7257,-84.3979 956.4781,-75.8411 956.026,-86.4263 962.7257,-84.3979"/>
</g>
<!-- Node19&#45;&gt;Node9 -->
<g id="edge35" class="edge">
<title>Node19&#45;&gt;Node9</title>
<path fill="none" stroke="#191970" d="M799.9578,-280.4557C786.5904,-272.3609 768.6419,-259.5917 757.5,-244 734.8666,-212.3273 724.0505,-167.2611 719.4498,-141.6998"/>
<polygon fill="#191970" stroke="#191970" points="722.887,-141.0323 717.7975,-131.74 715.9813,-142.178 722.887,-141.0323"/>
</g>
<!-- Node19&#45;&gt;Node15 -->
<g id="edge36" class="edge">
<title>Node19&#45;&gt;Node15</title>
<path fill="none" stroke="#191970" d="M780.0245,-280.3733C742.9897,-270.8598 686.2318,-256.2797 646.2639,-246.0127"/>
<polygon fill="#191970" stroke="#191970" points="647.0429,-242.5993 636.4865,-243.5011 645.3012,-249.3792 647.0429,-242.5993"/>
</g>
<!-- Node20 -->
<g id="node21" class="node">
<title>Node20</title>
<polygon fill="#ffffff" stroke="#bfbfbf" points="766.5,-224.5 766.5,-243.5 828.5,-243.5 828.5,-224.5 766.5,-224.5"/>
<text text-anchor="middle" x="797.5" y="-231.5" font-family="Helvetica,sans-Serif" font-size="10.00" fill="#000000">functional</text>
</g>
<!-- Node19&#45;&gt;Node20 -->
<g id="edge31" class="edge">
<title>Node19&#45;&gt;Node20</title>
<path fill="none" stroke="#191970" d="M814.0163,-280.2455C811.3492,-272.7776 807.5867,-262.2427 804.3263,-253.1137"/>
<polygon fill="#191970" stroke="#191970" points="807.6033,-251.8829 800.9438,-243.6427 801.0111,-254.2373 807.6033,-251.8829"/>
</g>
<!-- Node21 -->
<g id="node22" class="node">
<title>Node21</title>
<polygon fill="#ffffff" stroke="#bfbfbf" points="846.5,-224.5 846.5,-243.5 882.5,-243.5 882.5,-224.5 846.5,-224.5"/>
<text text-anchor="middle" x="864.5" y="-231.5" font-family="Helvetica,sans-Serif" font-size="10.00" fill="#000000">new</text>
</g>
<!-- Node19&#45;&gt;Node21 -->
<g id="edge33" class="edge">
<title>Node19&#45;&gt;Node21</title>
<path fill="none" stroke="#191970" d="M825.6868,-280.2455C832.3589,-272.2958 841.9479,-260.8706 849.9253,-251.3656"/>
<polygon fill="#191970" stroke="#191970" points="852.6592,-253.5525 856.407,-243.6427 847.2974,-249.0524 852.6592,-253.5525"/>
</g>
<!-- Node22 -->
<g id="node23" class="node">
<title>Node22</title>
<polygon fill="#ffffff" stroke="#bfbfbf" points="900.5,-224.5 900.5,-243.5 992.5,-243.5 992.5,-224.5 900.5,-224.5"/>
<text text-anchor="middle" x="946.5" y="-231.5" font-family="Helvetica,sans-Serif" font-size="10.00" fill="#000000">unordered_map</text>
</g>
<!-- Node19&#45;&gt;Node22 -->
<g id="edge34" class="edge">
<title>Node19&#45;&gt;Node22</title>
<path fill="none" stroke="#191970" d="M839.6759,-280.3733C860.4766,-271.3435 891.7917,-257.7494 915.1458,-247.6111"/>
<polygon fill="#191970" stroke="#191970" points="916.8343,-250.6938 924.6135,-243.5011 914.0468,-244.2727 916.8343,-250.6938"/>
</g>
<!-- Node23 -->
<g id="node24" class="node">
<title>Node23</title>
<g id="a_node24"><a xlink:href="error_8h.html" target="_top" xlink:title="pdi/error.h">
<polygon fill="#ffffff" stroke="#000000" points="1026,-168.5 1026,-187.5 1091,-187.5 1091,-168.5 1026,-168.5"/>
<text text-anchor="middle" x="1058.5" y="-175.5" font-family="Helvetica,sans-Serif" font-size="10.00" fill="#000000">pdi/error.h</text>
</a>
</g>
</g>
<!-- Node19&#45;&gt;Node23 -->
<g id="edge37" class="edge">
<title>Node19&#45;&gt;Node23</title>
<path fill="none" stroke="#191970" d="M856.6031,-286.2559C911.6855,-280.2409 1008.3391,-266.7355 1034.5,-244 1047.8468,-232.4008 1053.7739,-212.7611 1056.4044,-197.9141"/>
<polygon fill="#191970" stroke="#191970" points="1059.913,-198.0977 1057.8417,-187.7073 1052.9814,-197.1216 1059.913,-198.0977"/>
</g>
<!-- Node23&#45;&gt;Node9 -->
<g id="edge41" class="edge">
<title>Node23&#45;&gt;Node9</title>
<path fill="none" stroke="#191970" d="M1025.7076,-172.6305C965.5529,-162.7806 837.2431,-141.7708 766.2767,-130.1506"/>
<polygon fill="#191970" stroke="#191970" points="766.6714,-126.6687 756.2373,-128.5067 765.5402,-133.5767 766.6714,-126.6687"/>
</g>
<!-- Node23&#45;&gt;Node12 -->
<g id="edge40" class="edge">
<title>Node23&#45;&gt;Node12</title>
<path fill="none" stroke="#191970" d="M1077.17,-168.3522C1098.4424,-156.0296 1128.5521,-133.6931 1114.5,-112 1090.1779,-74.4523 965.8316,-38.0383 898.2949,-20.6321"/>
<polygon fill="#191970" stroke="#191970" points="898.9188,-17.1794 888.3644,-18.1042 897.1919,-23.963 898.9188,-17.1794"/>
</g>
<!-- Node24 -->
<g id="node25" class="node">
<title>Node24</title>
<polygon fill="#ffffff" stroke="#bfbfbf" points="1043.5,-112.5 1043.5,-131.5 1105.5,-131.5 1105.5,-112.5 1043.5,-112.5"/>
<text text-anchor="middle" x="1074.5" y="-119.5" font-family="Helvetica,sans-Serif" font-size="10.00" fill="#000000">exception</text>
</g>
<!-- Node23&#45;&gt;Node24 -->
<g id="edge38" class="edge">
<title>Node23&#45;&gt;Node24</title>
<path fill="none" stroke="#191970" d="M1061.287,-168.2455C1063.3977,-160.8579 1066.366,-150.4689 1068.9547,-141.4087"/>
<polygon fill="#191970" stroke="#191970" points="1072.363,-142.2195 1071.745,-131.6427 1065.6323,-140.2964 1072.363,-142.2195"/>
</g>
<!-- Node25 -->
<g id="node26" class="node">
<title>Node25</title>
<polygon fill="#ffffff" stroke="#bfbfbf" points="982,-112.5 982,-131.5 1025,-131.5 1025,-112.5 982,-112.5"/>
<text text-anchor="middle" x="1003.5" y="-119.5" font-family="Helvetica,sans-Serif" font-size="10.00" fill="#000000">string</text>
</g>
<!-- Node23&#45;&gt;Node25 -->
<g id="edge39" class="edge">
<title>Node23&#45;&gt;Node25</title>
<path fill="none" stroke="#191970" d="M1048.9197,-168.2455C1040.9542,-160.1352 1029.4359,-148.4075 1019.9921,-138.7919"/>
<polygon fill="#191970" stroke="#191970" points="1022.4747,-136.3247 1012.9705,-131.6427 1017.4805,-141.2297 1022.4747,-136.3247"/>
</g>
</g>
</svg>
        <g id="navigator" transform="translate(0 0)" fill="#404254">
                <rect fill="#f2f5e9" fill-opacity="0.5" stroke="#606060" stroke-width=".5" x="0" y="0" width="60" height="60"/>
                <use id="zoomplus" xlink:href="#zoomPlus" x="17" y="9" onmousedown="handleZoom(evt,'in')"/>
                <use id="zoomminus" xlink:href="#zoomMin" x="42" y="9" onmousedown="handleZoom(evt,'out')"/>
                <use id="reset" xlink:href="#resetDef" x="30" y="36" onmousedown="handleReset()"/>
                <g id="arrowUp" xlink:href="#dirArrow" transform="translate(30 24)" onmousedown="handlePan(0,-1)">
                  <use xlink:href="#rim" fill="#404040">
                        <set attributeName="fill" to="#808080" begin="arrowUp.mouseover" end="arrowUp.mouseout"/>
                  </use>
                  <path fill="none" stroke="white" stroke-width="1.5" d="M0,-3.0v7 M-2.5,-0.5L0,-3.0L2.5,-0.5"/>
                </g>
                <g id="arrowRight" xlink:href="#dirArrow" transform="rotate(90) translate(36 -43)" onmousedown="handlePan(1,0)">
                  <use xlink:href="#rim" fill="#404040">
                        <set attributeName="fill" to="#808080" begin="arrowRight.mouseover" end="arrowRight.mouseout"/>
                  </use>
                  <path fill="none" stroke="white" stroke-width="1.5" d="M0,-3.0v7 M-2.5,-0.5L0,-3.0L2.5,-0.5"/>
                </g>
                <g id="arrowDown" xlink:href="#dirArrow" transform="rotate(180) translate(-30 -48)" onmousedown="handlePan(0,1)">
                  <use xlink:href="#rim" fill="#404040">
                        <set attributeName="fill" to="#808080" begin="arrowDown.mouseover" end="arrowDown.mouseout"/>
                  </use>
                  <path fill="none" stroke="white" stroke-width="1.5" d="M0,-3.0v7 M-2.5,-0.5L0,-3.0L2.5,-0.5"/>
                </g>
                <g id="arrowLeft" xlink:href="#dirArrow" transform="rotate(270) translate(-36 17)" onmousedown="handlePan(-1,0)">
                  <use xlink:href="#rim" fill="#404040">
                        <set attributeName="fill" to="#808080" begin="arrowLeft.mouseover" end="arrowLeft.mouseout"/>
                  </use>
                  <path fill="none" stroke="white" stroke-width="1.5" d="M0,-3.0v7 M-2.5,-0.5L0,-3.0L2.5,-0.5"/>
                </g>
        </g>
        <svg viewBox="0 0 15 15" width="100%" height="30px" preserveAspectRatio="xMaxYMin meet">
         <g id="arrow_out" transform="scale(0.3 0.3)">
          <a xlink:href="ref__any_8cxx__incl_org.svg" target="_base">
           <rect id="button" ry="5" rx="5" y="6" x="6" height="38" width="38"
                fill="#f2f5e9" fill-opacity="0.5" stroke="#606060" stroke-width="1.0"/>
           <path id="arrow"
             d="M 11.500037,31.436501 C 11.940474,20.09759 22.043105,11.32322 32.158766,21.979434 L 37.068811,17.246167 C 37.068811,17.246167 37.088388,32 37.088388,32 L 22.160133,31.978069 C 22.160133,31.978069 26.997745,27.140456 26.997745,27.140456 C 18.528582,18.264221 13.291696,25.230495 11.500037,31.436501 z"
             style="fill:#404040;"/>
          </a>
         </g>
        </svg>
</svg>
