<?xml version="1.0" encoding="UTF-8" standalone="no"?>
<!DOCTYPE svg PUBLIC "-//W3C//DTD SVG 1.1//EN"
 "http://www.w3.org/Graphics/SVG/1.1/DTD/svg11.dtd">
<!-- Generated by graphviz version 2.40.1 (20161225.0304)
 -->
<!-- Title: /home/jbigot/data/projects/pdi/pdi/src/scalar_datatype.cxx Pages: 1 -->
<!--zoomable 431 -->
<svg id="main" version="1.1" xmlns="http://www.w3.org/2000/svg" xmlns:xlink="http://www.w3.org/1999/xlink" xml:space="preserve" onload="init(evt)">
<style type="text/css"><![CDATA[
.edge:hover path { stroke: red; }
.edge:hover polygon { stroke: red; fill: red; }
]]></style>
<script type="text/javascript"><![CDATA[
var edges = document.getElementsByTagName('g');
if (edges && edges.length) {
  for (var i=0;i<edges.length;i++) {
    if (edges[i].id.substr(0,4)=='edge') {
      edges[i].setAttribute('class','edge');
    }
  }
}
]]></script>
        <defs>
                <circle id="rim" cx="0" cy="0" r="7"/>
                <circle id="rim2" cx="0" cy="0" r="3.5"/>
                <g id="zoomPlus">
                        <use xlink:href="#rim" fill="#404040">
                                <set attributeName="fill" to="#808080" begin="zoomplus.mouseover" end="zoomplus.mouseout"/>
                        </use>
                        <path d="M-4,0h8M0,-4v8" fill="none" stroke="white" stroke-width="1.5" pointer-events="none"/>
                </g>
                <g id="zoomMin">
                        <use xlink:href="#rim" fill="#404040">
                                <set attributeName="fill" to="#808080" begin="zoomminus.mouseover" end="zoomminus.mouseout"/>
                        </use>
                        <path d="M-4,0h8" fill="none" stroke="white" stroke-width="1.5" pointer-events="none"/>
                </g>
                <g id="dirArrow">
                        <path fill="none" stroke="white" stroke-width="1.5" d="M0,-3.0v7 M-2.5,-0.5L0,-3.0L2.5,-0.5"/>
                </g>
               <g id="resetDef">
                       <use xlink:href="#rim2" fill="#404040">
                               <set attributeName="fill" to="#808080" begin="reset.mouseover" end="reset.mouseout"/>
                       </use>
               </g>
        </defs>

<script type="text/javascript">
var viewWidth = 1049;
var viewHeight = 431;
var sectionId = 'dynsection-0';
</script>
<script xlink:href="svgpan.js"/>
<svg id="graph" class="graph">
<g id="viewport">
<title>/home/jbigot/data/projects/pdi/pdi/src/scalar_datatype.cxx</title>
<polygon fill="#ffffff" stroke="transparent" points="-4,4 -4,-427 1044.5,-427 1044.5,4 -4,4"/>
<!-- Node0 -->
<g id="node1" class="node">
<title>Node0</title>
<polygon fill="#bfbfbf" stroke="#000000" points="244,-392.5 244,-422.5 409,-422.5 409,-392.5 244,-392.5"/>
<text text-anchor="start" x="252" y="-410.5" font-family="Helvetica,sans-Serif" font-size="10.00" fill="#000000">/home/jbigot/data/projects</text>
<text text-anchor="middle" x="326.5" y="-399.5" font-family="Helvetica,sans-Serif" font-size="10.00" fill="#000000">/pdi/pdi/src/scalar_datatype.cxx</text>
</g>
<!-- Node1 -->
<g id="node2" class="node">
<title>Node1</title>
<polygon fill="#ffffff" stroke="#bfbfbf" points="0,-336.5 0,-355.5 53,-355.5 53,-336.5 0,-336.5"/>
<text text-anchor="middle" x="26.5" y="-343.5" font-family="Helvetica,sans-Serif" font-size="10.00" fill="#000000">config.h</text>
</g>
<!-- Node0&#45;&gt;Node1 -->
<g id="edge1" class="edge">
<title>Node0&#45;&gt;Node1</title>
<path fill="none" stroke="#191970" d="M243.7977,-393.0856C194.0306,-384.0075 129.2417,-371.4816 62.9641,-355.9706"/>
<polygon fill="#191970" stroke="#191970" points="63.7129,-352.5513 53.1763,-353.6605 62.1049,-359.3641 63.7129,-352.5513"/>
</g>
<!-- Node2 -->
<g id="node3" class="node">
<title>Node2</title>
<polygon fill="#ffffff" stroke="#bfbfbf" points="71.5,-336.5 71.5,-355.5 131.5,-355.5 131.5,-336.5 71.5,-336.5"/>
<text text-anchor="middle" x="101.5" y="-343.5" font-family="Helvetica,sans-Serif" font-size="10.00" fill="#000000">algorithm</text>
</g>
<!-- Node0&#45;&gt;Node2 -->
<g id="edge2" class="edge">
<title>Node0&#45;&gt;Node2</title>
<path fill="none" stroke="#191970" d="M271.4588,-392.4554C231.2642,-381.4689 177.6928,-366.826 141.5242,-356.9399"/>
<polygon fill="#191970" stroke="#191970" points="142.3788,-353.5452 131.8098,-354.2847 140.5331,-360.2975 142.3788,-353.5452"/>
</g>
<!-- Node3 -->
<g id="node4" class="node">
<title>Node3</title>
<polygon fill="#ffffff" stroke="#bfbfbf" points="374,-224.5 374,-243.5 425,-243.5 425,-224.5 374,-224.5"/>
<text text-anchor="middle" x="399.5" y="-231.5" font-family="Helvetica,sans-Serif" font-size="10.00" fill="#000000">cassert</text>
</g>
<!-- Node0&#45;&gt;Node3 -->
<g id="edge3" class="edge">
<title>Node0&#45;&gt;Node3</title>
<path fill="none" stroke="#191970" d="M337.6819,-392.317C344.6406,-382.3617 353.3961,-368.8539 359.5,-356 375.9175,-321.4276 388.3064,-278.3489 394.6853,-253.7272"/>
<polygon fill="#191970" stroke="#191970" points="398.1346,-254.3624 397.1861,-243.8101 391.3471,-252.6508 398.1346,-254.3624"/>
</g>
<!-- Node4 -->
<g id="node5" class="node">
<title>Node4</title>
<polygon fill="#ffffff" stroke="#bfbfbf" points="232,-336.5 232,-355.5 279,-355.5 279,-336.5 232,-336.5"/>
<text text-anchor="middle" x="255.5" y="-343.5" font-family="Helvetica,sans-Serif" font-size="10.00" fill="#000000">cstdint</text>
</g>
<!-- Node0&#45;&gt;Node4 -->
<g id="edge4" class="edge">
<title>Node0&#45;&gt;Node4</title>
<path fill="none" stroke="#191970" d="M308.9494,-392.2977C298.4779,-383.2274 285.1789,-371.7077 274.4662,-362.4285"/>
<polygon fill="#191970" stroke="#191970" points="276.7182,-359.7487 266.868,-355.8469 272.1351,-365.0398 276.7182,-359.7487"/>
</g>
<!-- Node5 -->
<g id="node6" class="node">
<title>Node5</title>
<polygon fill="#ffffff" stroke="#bfbfbf" points="547.5,-56.5 547.5,-75.5 601.5,-75.5 601.5,-56.5 547.5,-56.5"/>
<text text-anchor="middle" x="574.5" y="-63.5" font-family="Helvetica,sans-Serif" font-size="10.00" fill="#000000">memory</text>
</g>
<!-- Node0&#45;&gt;Node5 -->
<g id="edge5" class="edge">
<title>Node0&#45;&gt;Node5</title>
<path fill="none" stroke="#191970" d="M268.0915,-392.4048C219.9335,-376.0249 159.5,-344.5936 159.5,-290 159.5,-290 159.5,-290 159.5,-178 159.5,-100.1583 435.0931,-74.8078 537.1117,-68.0903"/>
<polygon fill="#191970" stroke="#191970" points="537.5125,-71.572 547.2707,-67.4456 537.0691,-64.586 537.5125,-71.572"/>
</g>
<!-- Node6 -->
<g id="node7" class="node">
<title>Node6</title>
<polygon fill="#ffffff" stroke="#bfbfbf" points="309,-168.5 309,-187.5 352,-187.5 352,-168.5 309,-168.5"/>
<text text-anchor="middle" x="330.5" y="-175.5" font-family="Helvetica,sans-Serif" font-size="10.00" fill="#000000">string</text>
</g>
<!-- Node0&#45;&gt;Node6 -->
<g id="edge6" class="edge">
<title>Node0&#45;&gt;Node6</title>
<path fill="none" stroke="#191970" d="M326.7625,-392.4419C327.461,-352.3599 329.3662,-243.0534 330.153,-197.9113"/>
<polygon fill="#191970" stroke="#191970" points="333.6526,-197.9576 330.3275,-187.8981 326.6537,-197.8356 333.6526,-197.9576"/>
</g>
<!-- Node7 -->
<g id="node8" class="node">
<title>Node7</title>
<g id="a_node8"><a xlink:href="paraconf__wrapper_8h.html" target="_top" xlink:title="pdi/paraconf_wrapper.h">
<polygon fill="#ffffff" stroke="#000000" points="188,-224.5 188,-243.5 317,-243.5 317,-224.5 188,-224.5"/>
<text text-anchor="middle" x="252.5" y="-231.5" font-family="Helvetica,sans-Serif" font-size="10.00" fill="#000000">pdi/paraconf_wrapper.h</text>
</a>
</g>
</g>
<!-- Node0&#45;&gt;Node7 -->
<g id="edge7" class="edge">
<title>Node0&#45;&gt;Node7</title>
<path fill="none" stroke="#191970" d="M320.0624,-392.4065C306.6146,-360.8767 275.5612,-288.0692 260.7061,-253.24"/>
<polygon fill="#191970" stroke="#191970" points="263.796,-251.5632 256.6534,-243.738 257.3572,-254.3094 263.796,-251.5632"/>
</g>
<!-- Node14 -->
<g id="node15" class="node">
<title>Node14</title>
<g id="a_node15"><a xlink:href="error_8h.html" target="_top" xlink:title="pdi/error.h">
<polygon fill="#ffffff" stroke="#000000" points="443,-224.5 443,-243.5 508,-243.5 508,-224.5 443,-224.5"/>
<text text-anchor="middle" x="475.5" y="-231.5" font-family="Helvetica,sans-Serif" font-size="10.00" fill="#000000">pdi/error.h</text>
</a>
</g>
</g>
<!-- Node0&#45;&gt;Node14 -->
<g id="edge17" class="edge">
<title>Node0&#45;&gt;Node14</title>
<path fill="none" stroke="#191970" d="M342.9288,-392.196C353.4189,-382.1923 367.1334,-368.6762 378.5,-356 410.2166,-320.6292 444.0534,-276.3917 462.1843,-252.0861"/>
<polygon fill="#191970" stroke="#191970" points="465.1794,-253.9232 468.327,-243.8067 459.5577,-249.7523 465.1794,-253.9232"/>
</g>
<!-- Node16 -->
<g id="node17" class="node">
<title>Node16</title>
<g id="a_node17"><a xlink:href="expression_8h.html" target="_top" xlink:title="pdi/expression.h">
<polygon fill="#ffffff" stroke="#000000" points="527.5,-336.5 527.5,-355.5 621.5,-355.5 621.5,-336.5 527.5,-336.5"/>
<text text-anchor="middle" x="574.5" y="-343.5" font-family="Helvetica,sans-Serif" font-size="10.00" fill="#000000">pdi/expression.h</text>
</a>
</g>
</g>
<!-- Node0&#45;&gt;Node16 -->
<g id="edge22" class="edge">
<title>Node0&#45;&gt;Node16</title>
<path fill="none" stroke="#191970" d="M387.1676,-392.4554C429.999,-381.8339 486.6109,-367.7951 526.3483,-357.9408"/>
<polygon fill="#191970" stroke="#191970" points="527.2052,-361.3344 536.0688,-355.5303 525.5203,-354.5402 527.2052,-361.3344"/>
</g>
<!-- Node23 -->
<g id="node24" class="node">
<title>Node23</title>
<g id="a_node24"><a xlink:href="scalar__datatype_8h.html" target="_top" xlink:title="pdi/scalar_datatype.h">
<polygon fill="#ffffff" stroke="#000000" points="922.5,-280.5 922.5,-299.5 1040.5,-299.5 1040.5,-280.5 922.5,-280.5"/>
<text text-anchor="middle" x="981.5" y="-287.5" font-family="Helvetica,sans-Serif" font-size="10.00" fill="#000000">pdi/scalar_datatype.h</text>
</a>
</g>
</g>
<!-- Node0&#45;&gt;Node23 -->
<g id="edge38" class="edge">
<title>Node0&#45;&gt;Node23</title>
<path fill="none" stroke="#191970" d="M409.1467,-393.9129C470.3232,-383.7549 555.6732,-369.372 630.5,-356 733.3283,-337.624 852.8218,-314.8519 922.517,-301.4273"/>
<polygon fill="#191970" stroke="#191970" points="923.2741,-304.8458 932.4307,-299.516 921.9489,-297.9724 923.2741,-304.8458"/>
</g>
<!-- Node7&#45;&gt;Node6 -->
<g id="edge8" class="edge">
<title>Node7&#45;&gt;Node6</title>
<path fill="none" stroke="#191970" d="M266.0866,-224.2455C277.8305,-215.814 295.0199,-203.4729 308.6882,-193.6598"/>
<polygon fill="#191970" stroke="#191970" points="310.9871,-196.3179 317.0691,-187.6427 306.9046,-190.6316 310.9871,-196.3179"/>
</g>
<!-- Node8 -->
<g id="node9" class="node">
<title>Node8</title>
<polygon fill="#ffffff" stroke="#bfbfbf" points="512,-.5 512,-19.5 579,-19.5 579,-.5 512,-.5"/>
<text text-anchor="middle" x="545.5" y="-7.5" font-family="Helvetica,sans-Serif" font-size="10.00" fill="#000000">paraconf.h</text>
</g>
<!-- Node7&#45;&gt;Node8 -->
<g id="edge9" class="edge">
<title>Node7&#45;&gt;Node8</title>
<path fill="none" stroke="#191970" d="M253.5406,-224.4643C255.4832,-210.6476 260.7899,-184.8728 274.5,-168 336.6724,-91.4855 446.4278,-44.1766 505.3818,-23.0292"/>
<polygon fill="#191970" stroke="#191970" points="506.8095,-26.2375 515.0844,-19.6211 504.4896,-19.633 506.8095,-26.2375"/>
</g>
<!-- Node9 -->
<g id="node10" class="node">
<title>Node9</title>
<g id="a_node10"><a xlink:href="pdi__fwd_8h.html" target="_top" xlink:title="pdi/pdi_fwd.h">
<polygon fill="#ffffff" stroke="#000000" points="641,-112.5 641,-131.5 720,-131.5 720,-112.5 641,-112.5"/>
<text text-anchor="middle" x="680.5" y="-119.5" font-family="Helvetica,sans-Serif" font-size="10.00" fill="#000000">pdi/pdi_fwd.h</text>
</a>
</g>
</g>
<!-- Node7&#45;&gt;Node9 -->
<g id="edge10" class="edge">
<title>Node7&#45;&gt;Node9</title>
<path fill="none" stroke="#191970" d="M256.2815,-224.4117C262.7029,-209.5319 277.2479,-181.2199 299.5,-168 354.3231,-135.4298 540.1812,-125.8484 630.4624,-123.087"/>
<polygon fill="#191970" stroke="#191970" points="630.8281,-126.578 640.7226,-122.7901 630.6255,-119.5809 630.8281,-126.578"/>
</g>
<!-- Node9&#45;&gt;Node5 -->
<g id="edge11" class="edge">
<title>Node9&#45;&gt;Node5</title>
<path fill="none" stroke="#191970" d="M662.0362,-112.2455C645.3926,-103.4527 620.7007,-90.4079 601.7808,-80.4125"/>
<polygon fill="#191970" stroke="#191970" points="603.2291,-77.2193 592.7522,-75.6427 599.9592,-83.4086 603.2291,-77.2193"/>
</g>
<!-- Node10 -->
<g id="node11" class="node">
<title>Node10</title>
<g id="a_node11"><a xlink:href="pdi_8h.html" target="_top" xlink:title="pdi.h">
<polygon fill="#ffffff" stroke="#000000" points="777,-56.5 777,-75.5 816,-75.5 816,-56.5 777,-56.5"/>
<text text-anchor="middle" x="796.5" y="-63.5" font-family="Helvetica,sans-Serif" font-size="10.00" fill="#000000">pdi.h</text>
</a>
</g>
</g>
<!-- Node9&#45;&gt;Node10 -->
<g id="edge12" class="edge">
<title>Node9&#45;&gt;Node10</title>
<path fill="none" stroke="#191970" d="M700.4411,-112.3733C718.9786,-103.4241 746.8028,-89.9917 767.7413,-79.8835"/>
<polygon fill="#191970" stroke="#191970" points="769.3352,-83.0006 776.8191,-75.5011 766.2919,-76.6967 769.3352,-83.0006"/>
</g>
<!-- Node10&#45;&gt;Node8 -->
<g id="edge14" class="edge">
<title>Node10&#45;&gt;Node8</title>
<path fill="none" stroke="#191970" d="M776.7943,-59.9243C772.1269,-58.5631 767.153,-57.1756 762.5,-56 702.873,-40.9353 633.1935,-26.765 589.2072,-18.2357"/>
<polygon fill="#191970" stroke="#191970" points="589.6237,-14.7516 579.142,-16.2955 588.2988,-21.6251 589.6237,-14.7516"/>
</g>
<!-- Node11 -->
<g id="node12" class="node">
<title>Node11</title>
<polygon fill="#ffffff" stroke="#bfbfbf" points="776,-.5 776,-19.5 817,-19.5 817,-.5 776,-.5"/>
<text text-anchor="middle" x="796.5" y="-7.5" font-family="Helvetica,sans-Serif" font-size="10.00" fill="#000000">mpi.h</text>
</g>
<!-- Node10&#45;&gt;Node11 -->
<g id="edge13" class="edge">
<title>Node10&#45;&gt;Node11</title>
<path fill="none" stroke="#191970" d="M796.5,-56.2455C796.5,-48.9382 796.5,-38.6944 796.5,-29.7046"/>
<polygon fill="#191970" stroke="#191970" points="800.0001,-29.6426 796.5,-19.6427 793.0001,-29.6427 800.0001,-29.6426"/>
</g>
<!-- Node12 -->
<g id="node13" class="node">
<title>Node12</title>
<polygon fill="#ffffff" stroke="#bfbfbf" points="835.5,-.5 835.5,-19.5 907.5,-19.5 907.5,-.5 835.5,-.5"/>
<text text-anchor="middle" x="871.5" y="-7.5" font-family="Helvetica,sans-Serif" font-size="10.00" fill="#000000">pdi/export.h</text>
</g>
<!-- Node10&#45;&gt;Node12 -->
<g id="edge15" class="edge">
<title>Node10&#45;&gt;Node12</title>
<path fill="none" stroke="#191970" d="M809.564,-56.2455C820.8562,-47.814 837.3845,-35.4729 850.5271,-25.6598"/>
<polygon fill="#191970" stroke="#191970" points="852.6669,-28.4301 858.5857,-19.6427 848.4789,-22.8211 852.6669,-28.4301"/>
</g>
<!-- Node13 -->
<g id="node14" class="node">
<title>Node13</title>
<polygon fill="#ffffff" stroke="#bfbfbf" points="681,-.5 681,-19.5 758,-19.5 758,-.5 681,-.5"/>
<text text-anchor="middle" x="719.5" y="-7.5" font-family="Helvetica,sans-Serif" font-size="10.00" fill="#000000">pdi/version.h</text>
</g>
<!-- Node10&#45;&gt;Node13 -->
<g id="edge16" class="edge">
<title>Node10&#45;&gt;Node13</title>
<path fill="none" stroke="#191970" d="M783.0876,-56.2455C771.4943,-47.814 754.5252,-35.4729 741.0322,-25.6598"/>
<polygon fill="#191970" stroke="#191970" points="742.9047,-22.6938 732.7587,-19.6427 738.7874,-28.355 742.9047,-22.6938"/>
</g>
<!-- Node14&#45;&gt;Node6 -->
<g id="edge19" class="edge">
<title>Node14&#45;&gt;Node6</title>
<path fill="none" stroke="#191970" d="M450.5736,-224.3733C426.0182,-214.8898 388.427,-200.3718 361.8567,-190.1102"/>
<polygon fill="#191970" stroke="#191970" points="362.8526,-186.7429 352.2631,-186.4051 360.3306,-193.2728 362.8526,-186.7429"/>
</g>
<!-- Node14&#45;&gt;Node8 -->
<g id="edge20" class="edge">
<title>Node14&#45;&gt;Node8</title>
<path fill="none" stroke="#191970" d="M478.5078,-224.375C489.1433,-190.3415 525.1056,-75.262 539.4853,-29.247"/>
<polygon fill="#191970" stroke="#191970" points="542.8613,-30.1779 542.5034,-19.5891 536.1799,-28.09 542.8613,-30.1779"/>
</g>
<!-- Node14&#45;&gt;Node9 -->
<g id="edge21" class="edge">
<title>Node14&#45;&gt;Node9</title>
<path fill="none" stroke="#191970" d="M485.7797,-224.3683C501.0814,-210.4319 531.2016,-184.5094 560.5,-168 585.0769,-154.1511 614.6489,-142.7611 638.2868,-134.7793"/>
<polygon fill="#191970" stroke="#191970" points="639.6208,-138.025 648.0222,-131.57 637.4291,-131.3769 639.6208,-138.025"/>
</g>
<!-- Node15 -->
<g id="node16" class="node">
<title>Node15</title>
<polygon fill="#ffffff" stroke="#bfbfbf" points="370.5,-168.5 370.5,-187.5 432.5,-187.5 432.5,-168.5 370.5,-168.5"/>
<text text-anchor="middle" x="401.5" y="-175.5" font-family="Helvetica,sans-Serif" font-size="10.00" fill="#000000">exception</text>
</g>
<!-- Node14&#45;&gt;Node15 -->
<g id="edge18" class="edge">
<title>Node14&#45;&gt;Node15</title>
<path fill="none" stroke="#191970" d="M462.6102,-224.2455C451.5746,-215.8943 435.4708,-203.7076 422.5647,-193.9408"/>
<polygon fill="#191970" stroke="#191970" points="424.3283,-190.8862 414.2421,-187.6427 420.1041,-196.4681 424.3283,-190.8862"/>
</g>
<!-- Node16&#45;&gt;Node5 -->
<g id="edge23" class="edge">
<title>Node16&#45;&gt;Node5</title>
<path fill="none" stroke="#191970" d="M568.893,-336.4834C558.3226,-317.6141 536.5,-273.8343 536.5,-234 536.5,-234 536.5,-234 536.5,-178 536.5,-143.6118 552.7634,-106.2832 564.011,-84.5791"/>
<polygon fill="#191970" stroke="#191970" points="567.2317,-85.9804 568.893,-75.5166 561.069,-82.6605 567.2317,-85.9804"/>
</g>
<!-- Node16&#45;&gt;Node9 -->
<g id="edge24" class="edge">
<title>Node16&#45;&gt;Node9</title>
<path fill="none" stroke="#191970" d="M621.7613,-336.9019C698.6865,-321.0266 845.4393,-285.9264 875.5,-244 880.6795,-236.7761 880.1038,-231.6038 875.5,-224 857.5143,-194.2945 766.746,-155.3445 715.6292,-135.2575"/>
<polygon fill="#191970" stroke="#191970" points="716.8587,-131.9803 706.2701,-131.6163 714.3206,-138.504 716.8587,-131.9803"/>
</g>
<!-- Node17 -->
<g id="node18" class="node">
<title>Node17</title>
<g id="a_node18"><a xlink:href="ref__any_8h.html" target="_top" xlink:title="pdi/ref_any.h">
<polygon fill="#ffffff" stroke="#000000" points="573.5,-280.5 573.5,-299.5 651.5,-299.5 651.5,-280.5 573.5,-280.5"/>
<text text-anchor="middle" x="612.5" y="-287.5" font-family="Helvetica,sans-Serif" font-size="10.00" fill="#000000">pdi/ref_any.h</text>
</a>
</g>
</g>
<!-- Node16&#45;&gt;Node17 -->
<g id="edge25" class="edge">
<title>Node16&#45;&gt;Node17</title>
<path fill="none" stroke="#191970" d="M581.1191,-336.2455C586.4046,-328.4564 593.9541,-317.3308 600.3238,-307.9439"/>
<polygon fill="#191970" stroke="#191970" points="603.2379,-309.8827 605.9568,-299.6427 597.4455,-305.9522 603.2379,-309.8827"/>
</g>
<!-- Node17&#45;&gt;Node3 -->
<g id="edge26" class="edge">
<title>Node17&#45;&gt;Node3</title>
<path fill="none" stroke="#191970" d="M574.5776,-280.4968C540.5346,-271.8996 488.957,-258.7118 434.8612,-244.0497"/>
<polygon fill="#191970" stroke="#191970" points="435.6613,-240.6402 425.0933,-241.3935 433.8244,-247.3949 435.6613,-240.6402"/>
</g>
<!-- Node17&#45;&gt;Node5 -->
<g id="edge28" class="edge">
<title>Node17&#45;&gt;Node5</title>
<path fill="none" stroke="#191970" d="M610.8672,-280.375C605.1058,-246.4133 585.6535,-131.7472 577.8147,-85.5392"/>
<polygon fill="#191970" stroke="#191970" points="581.25,-84.8629 576.1267,-75.5891 574.3486,-86.0337 581.25,-84.8629"/>
</g>
<!-- Node17&#45;&gt;Node9 -->
<g id="edge31" class="edge">
<title>Node17&#45;&gt;Node9</title>
<path fill="none" stroke="#191970" d="M614.7175,-280.4376C617.8492,-267.4517 624.0274,-243.6102 631.5,-224 642.9302,-194.004 659.7309,-160.7462 670.3902,-140.6099"/>
<polygon fill="#191970" stroke="#191970" points="673.5762,-142.0744 675.2114,-131.6065 667.4052,-138.7699 673.5762,-142.0744"/>
</g>
<!-- Node17&#45;&gt;Node14 -->
<g id="edge37" class="edge">
<title>Node17&#45;&gt;Node14</title>
<path fill="none" stroke="#191970" d="M588.9489,-280.3733C566.6609,-271.2629 533.0063,-257.5062 508.1363,-247.3404"/>
<polygon fill="#191970" stroke="#191970" points="509.3247,-244.0451 498.7438,-243.5011 506.6761,-250.5247 509.3247,-244.0451"/>
</g>
<!-- Node18 -->
<g id="node19" class="node">
<title>Node18</title>
<polygon fill="#ffffff" stroke="#bfbfbf" points="750.5,-224.5 750.5,-243.5 812.5,-243.5 812.5,-224.5 750.5,-224.5"/>
<text text-anchor="middle" x="781.5" y="-231.5" font-family="Helvetica,sans-Serif" font-size="10.00" fill="#000000">functional</text>
</g>
<!-- Node17&#45;&gt;Node18 -->
<g id="edge27" class="edge">
<title>Node17&#45;&gt;Node18</title>
<path fill="none" stroke="#191970" d="M641.5521,-280.3733C669.6543,-271.0613 712.4054,-256.8953 743.2607,-246.671"/>
<polygon fill="#191970" stroke="#191970" points="744.4355,-249.969 752.827,-243.5011 742.2336,-243.3243 744.4355,-249.969"/>
</g>
<!-- Node19 -->
<g id="node20" class="node">
<title>Node19</title>
<polygon fill="#ffffff" stroke="#bfbfbf" points="830.5,-224.5 830.5,-243.5 866.5,-243.5 866.5,-224.5 830.5,-224.5"/>
<text text-anchor="middle" x="848.5" y="-231.5" font-family="Helvetica,sans-Serif" font-size="10.00" fill="#000000">new</text>
</g>
<!-- Node17&#45;&gt;Node19 -->
<g id="edge29" class="edge">
<title>Node17&#45;&gt;Node19</title>
<path fill="none" stroke="#191970" d="M651.8129,-283.0278C692.0633,-275.5196 756.5335,-262.4724 820.475,-244.0094"/>
<polygon fill="#191970" stroke="#191970" points="821.7041,-247.2964 830.3147,-241.1232 819.7338,-240.5794 821.7041,-247.2964"/>
</g>
<!-- Node20 -->
<g id="node21" class="node">
<title>Node20</title>
<polygon fill="#ffffff" stroke="#bfbfbf" points="640.5,-224.5 640.5,-243.5 732.5,-243.5 732.5,-224.5 640.5,-224.5"/>
<text text-anchor="middle" x="686.5" y="-231.5" font-family="Helvetica,sans-Serif" font-size="10.00" fill="#000000">unordered_map</text>
</g>
<!-- Node17&#45;&gt;Node20 -->
<g id="edge30" class="edge">
<title>Node17&#45;&gt;Node20</title>
<path fill="none" stroke="#191970" d="M625.3898,-280.2455C636.4254,-271.8943 652.5292,-259.7076 665.4353,-249.9408"/>
<polygon fill="#191970" stroke="#191970" points="667.8959,-252.4681 673.7579,-243.6427 663.6717,-246.8862 667.8959,-252.4681"/>
</g>
<!-- Node21 -->
<g id="node22" class="node">
<title>Node21</title>
<g id="a_node22"><a xlink:href="datatype_8h.html" target="_top" xlink:title="pdi/datatype.h">
<polygon fill="#ffffff" stroke="#000000" points="923,-224.5 923,-243.5 1006,-243.5 1006,-224.5 923,-224.5"/>
<text text-anchor="middle" x="964.5" y="-231.5" font-family="Helvetica,sans-Serif" font-size="10.00" fill="#000000">pdi/datatype.h</text>
</a>
</g>
</g>
<!-- Node17&#45;&gt;Node21 -->
<g id="edge32" class="edge">
<title>Node17&#45;&gt;Node21</title>
<path fill="none" stroke="#191970" d="M651.5151,-283.7931C715.2373,-273.6554 841.6567,-253.5433 912.7811,-242.228"/>
<polygon fill="#191970" stroke="#191970" points="913.5337,-245.6524 922.8596,-240.6246 912.4338,-238.7393 913.5337,-245.6524"/>
</g>
<!-- Node21&#45;&gt;Node9 -->
<g id="edge33" class="edge">
<title>Node21&#45;&gt;Node9</title>
<path fill="none" stroke="#191970" d="M946.677,-224.3636C916.7338,-208.2622 857.4544,-176.7867 835.5,-168 801.0824,-154.2252 760.9232,-142.4202 730.1069,-134.2188"/>
<polygon fill="#191970" stroke="#191970" points="730.5969,-130.729 720.0362,-131.5779 728.8213,-137.5001 730.5969,-130.729"/>
</g>
<!-- Node22 -->
<g id="node23" class="node">
<title>Node22</title>
<g id="a_node23"><a xlink:href="datatype__template_8h.html" target="_top" xlink:title="pdi/datatype_template.h">
<polygon fill="#ffffff" stroke="#000000" points="887.5,-168.5 887.5,-187.5 1017.5,-187.5 1017.5,-168.5 887.5,-168.5"/>
<text text-anchor="middle" x="952.5" y="-175.5" font-family="Helvetica,sans-Serif" font-size="10.00" fill="#000000">pdi/datatype_template.h</text>
</a>
</g>
</g>
<!-- Node21&#45;&gt;Node22 -->
<g id="edge34" class="edge">
<title>Node21&#45;&gt;Node22</title>
<path fill="none" stroke="#191970" d="M962.4098,-224.2455C960.8439,-216.9382 958.6488,-206.6944 956.7224,-197.7046"/>
<polygon fill="#191970" stroke="#191970" points="960.084,-196.6873 954.5663,-187.6427 953.2393,-198.1541 960.084,-196.6873"/>
</g>
<!-- Node22&#45;&gt;Node8 -->
<g id="edge35" class="edge">
<title>Node22&#45;&gt;Node8</title>
<path fill="none" stroke="#191970" d="M929.4518,-168.4862C860.8342,-140.1625 657.7184,-56.3211 578.0691,-23.4438"/>
<polygon fill="#191970" stroke="#191970" points="579.126,-20.0936 568.5471,-19.5133 576.4551,-26.5641 579.126,-20.0936"/>
</g>
<!-- Node22&#45;&gt;Node9 -->
<g id="edge36" class="edge">
<title>Node22&#45;&gt;Node9</title>
<path fill="none" stroke="#191970" d="M906.0506,-168.4369C857.0772,-158.3541 780.2152,-142.5296 730.0884,-132.2094"/>
<polygon fill="#191970" stroke="#191970" points="730.6271,-128.747 720.1267,-130.1584 729.2155,-135.6032 730.6271,-128.747"/>
</g>
<!-- Node23&#45;&gt;Node9 -->
<g id="edge39" class="edge">
<title>Node23&#45;&gt;Node9</title>
<path fill="none" stroke="#191970" d="M990.9788,-280.2527C1011.6053,-257.8768 1056.3972,-202.135 1026.5,-168 1007.2778,-146.0531 821.1769,-131.0946 730.1468,-125.03"/>
<polygon fill="#191970" stroke="#191970" points="730.2682,-121.5305 720.0606,-124.3685 729.8101,-128.5155 730.2682,-121.5305"/>
</g>
<!-- Node23&#45;&gt;Node21 -->
<g id="edge40" class="edge">
<title>Node23&#45;&gt;Node21</title>
<path fill="none" stroke="#191970" d="M978.5388,-280.2455C976.2962,-272.8579 973.1423,-262.4689 970.3919,-253.4087"/>
<polygon fill="#191970" stroke="#191970" points="973.6812,-252.1948 967.4272,-243.6427 966.983,-254.2282 973.6812,-252.1948"/>
</g>
</g>
</svg>
        <g id="navigator" transform="translate(0 0)" fill="#404254">
                <rect fill="#f2f5e9" fill-opacity="0.5" stroke="#606060" stroke-width=".5" x="0" y="0" width="60" height="60"/>
                <use id="zoomplus" xlink:href="#zoomPlus" x="17" y="9" onmousedown="handleZoom(evt,'in')"/>
                <use id="zoomminus" xlink:href="#zoomMin" x="42" y="9" onmousedown="handleZoom(evt,'out')"/>
                <use id="reset" xlink:href="#resetDef" x="30" y="36" onmousedown="handleReset()"/>
                <g id="arrowUp" xlink:href="#dirArrow" transform="translate(30 24)" onmousedown="handlePan(0,-1)">
                  <use xlink:href="#rim" fill="#404040">
                        <set attributeName="fill" to="#808080" begin="arrowUp.mouseover" end="arrowUp.mouseout"/>
                  </use>
                  <path fill="none" stroke="white" stroke-width="1.5" d="M0,-3.0v7 M-2.5,-0.5L0,-3.0L2.5,-0.5"/>
                </g>
                <g id="arrowRight" xlink:href="#dirArrow" transform="rotate(90) translate(36 -43)" onmousedown="handlePan(1,0)">
                  <use xlink:href="#rim" fill="#404040">
                        <set attributeName="fill" to="#808080" begin="arrowRight.mouseover" end="arrowRight.mouseout"/>
                  </use>
                  <path fill="none" stroke="white" stroke-width="1.5" d="M0,-3.0v7 M-2.5,-0.5L0,-3.0L2.5,-0.5"/>
                </g>
                <g id="arrowDown" xlink:href="#dirArrow" transform="rotate(180) translate(-30 -48)" onmousedown="handlePan(0,1)">
                  <use xlink:href="#rim" fill="#404040">
                        <set attributeName="fill" to="#808080" begin="arrowDown.mouseover" end="arrowDown.mouseout"/>
                  </use>
                  <path fill="none" stroke="white" stroke-width="1.5" d="M0,-3.0v7 M-2.5,-0.5L0,-3.0L2.5,-0.5"/>
                </g>
                <g id="arrowLeft" xlink:href="#dirArrow" transform="rotate(270) translate(-36 17)" onmousedown="handlePan(-1,0)">
                  <use xlink:href="#rim" fill="#404040">
                        <set attributeName="fill" to="#808080" begin="arrowLeft.mouseover" end="arrowLeft.mouseout"/>
                  </use>
                  <path fill="none" stroke="white" stroke-width="1.5" d="M0,-3.0v7 M-2.5,-0.5L0,-3.0L2.5,-0.5"/>
                </g>
        </g>
        <svg viewBox="0 0 15 15" width="100%" height="30px" preserveAspectRatio="xMaxYMin meet">
         <g id="arrow_out" transform="scale(0.3 0.3)">
          <a xlink:href="scalar__datatype_8cxx__incl_org.svg" target="_base">
           <rect id="button" ry="5" rx="5" y="6" x="6" height="38" width="38"
                fill="#f2f5e9" fill-opacity="0.5" stroke="#606060" stroke-width="1.0"/>
           <path id="arrow"
             d="M 11.500037,31.436501 C 11.940474,20.09759 22.043105,11.32322 32.158766,21.979434 L 37.068811,17.246167 C 37.068811,17.246167 37.088388,32 37.088388,32 L 22.160133,31.978069 C 22.160133,31.978069 26.997745,27.140456 26.997745,27.140456 C 18.528582,18.264221 13.291696,25.230495 11.500037,31.436501 z"
             style="fill:#404040;"/>
          </a>
         </g>
        </svg>
</svg>
