<?xml version="1.0" encoding="UTF-8" standalone="no"?>
<!DOCTYPE svg PUBLIC "-//W3C//DTD SVG 1.1//EN"
 "http://www.w3.org/Graphics/SVG/1.1/DTD/svg11.dtd">
<!-- Generated by graphviz version 2.40.1 (20161225.0304)
 -->
<!-- Title: /home/jbigot/data/projects/pdi/pdi/include/pdi/scalar_datatype.h Pages: 1 -->
<svg width="352pt" height="330pt"
 viewBox="0.00 0.00 351.50 330.00" xmlns="http://www.w3.org/2000/svg" xmlns:xlink="http://www.w3.org/1999/xlink">
<g id="graph0" class="graph" transform="scale(1 1) rotate(0) translate(4 326)">
<title>/home/jbigot/data/projects/pdi/pdi/include/pdi/scalar_datatype.h</title>
<polygon fill="#ffffff" stroke="transparent" points="-4,4 -4,-326 347.5,-326 347.5,4 -4,4"/>
<!-- Node0 -->
<g id="node1" class="node">
<title>Node0</title>
<polygon fill="#bfbfbf" stroke="#000000" points="113.5,-280.5 113.5,-321.5 251.5,-321.5 251.5,-280.5 113.5,-280.5"/>
<text text-anchor="start" x="121.5" y="-309.5" font-family="Helvetica,sans-Serif" font-size="10.00" fill="#000000">/home/jbigot/data/projects</text>
<text text-anchor="start" x="121.5" y="-298.5" font-family="Helvetica,sans-Serif" font-size="10.00" fill="#000000">/pdi/pdi/include/pdi/scalar</text>
<text text-anchor="middle" x="182.5" y="-287.5" font-family="Helvetica,sans-Serif" font-size="10.00" fill="#000000">_datatype.h</text>
</g>
<!-- Node1 -->
<g id="node2" class="node">
<title>Node1</title>
<g id="a_node2"><a xlink:href="pdi__fwd_8h.html" target="_top" xlink:title="pdi/pdi_fwd.h">
<polygon fill="#ffffff" stroke="#000000" points="146,-112.5 146,-131.5 225,-131.5 225,-112.5 146,-112.5"/>
<text text-anchor="middle" x="185.5" y="-119.5" font-family="Helvetica,sans-Serif" font-size="10.00" fill="#000000">pdi/pdi_fwd.h</text>
</a>
</g>
</g>
<!-- Node0&#45;&gt;Node1 -->
<g id="edge1" class="edge">
<title>Node0&#45;&gt;Node1</title>
<path fill="none" stroke="#191970" d="M175.2597,-280.4431C171.8636,-269.7283 168.1964,-256.3205 166.5,-244 161.5049,-207.7221 171.6377,-165.5329 178.9324,-141.4774"/>
<polygon fill="#191970" stroke="#191970" points="182.3188,-142.3779 182.0197,-131.7873 175.6491,-140.2529 182.3188,-142.3779"/>
</g>
<!-- Node8 -->
<g id="node9" class="node">
<title>Node8</title>
<g id="a_node9"><a xlink:href="datatype_8h.html" target="_top" xlink:title="pdi/datatype.h">
<polygon fill="#ffffff" stroke="#000000" points="176,-224.5 176,-243.5 259,-243.5 259,-224.5 176,-224.5"/>
<text text-anchor="middle" x="217.5" y="-231.5" font-family="Helvetica,sans-Serif" font-size="10.00" fill="#000000">pdi/datatype.h</text>
</a>
</g>
</g>
<!-- Node0&#45;&gt;Node8 -->
<g id="edge8" class="edge">
<title>Node0&#45;&gt;Node8</title>
<path fill="none" stroke="#191970" d="M193.3824,-280.168C197.9401,-271.4433 203.2001,-261.374 207.6425,-252.87"/>
<polygon fill="#191970" stroke="#191970" points="210.8628,-254.2646 212.3908,-243.7805 204.6583,-251.0234 210.8628,-254.2646"/>
</g>
<!-- Node2 -->
<g id="node3" class="node">
<title>Node2</title>
<polygon fill="#ffffff" stroke="#bfbfbf" points="94.5,-56.5 94.5,-75.5 148.5,-75.5 148.5,-56.5 94.5,-56.5"/>
<text text-anchor="middle" x="121.5" y="-63.5" font-family="Helvetica,sans-Serif" font-size="10.00" fill="#000000">memory</text>
</g>
<!-- Node1&#45;&gt;Node2 -->
<g id="edge2" class="edge">
<title>Node1&#45;&gt;Node2</title>
<path fill="none" stroke="#191970" d="M174.3521,-112.2455C164.9913,-104.0549 151.4142,-92.1749 140.3651,-82.5069"/>
<polygon fill="#191970" stroke="#191970" points="142.3508,-79.5937 132.5202,-75.6427 137.7412,-84.8618 142.3508,-79.5937"/>
</g>
<!-- Node3 -->
<g id="node4" class="node">
<title>Node3</title>
<g id="a_node4"><a xlink:href="pdi_8h.html" target="_top" xlink:title="pdi.h">
<polygon fill="#ffffff" stroke="#000000" points="167,-56.5 167,-75.5 206,-75.5 206,-56.5 167,-56.5"/>
<text text-anchor="middle" x="186.5" y="-63.5" font-family="Helvetica,sans-Serif" font-size="10.00" fill="#000000">pdi.h</text>
</a>
</g>
</g>
<!-- Node1&#45;&gt;Node3 -->
<g id="edge3" class="edge">
<title>Node1&#45;&gt;Node3</title>
<path fill="none" stroke="#191970" d="M185.6742,-112.2455C185.8047,-104.9382 185.9876,-94.6944 186.1481,-85.7046"/>
<polygon fill="#191970" stroke="#191970" points="189.6486,-85.7036 186.3278,-75.6427 182.6497,-85.5786 189.6486,-85.7036"/>
</g>
<!-- Node4 -->
<g id="node5" class="node">
<title>Node4</title>
<polygon fill="#ffffff" stroke="#bfbfbf" points="0,-.5 0,-19.5 41,-19.5 41,-.5 0,-.5"/>
<text text-anchor="middle" x="20.5" y="-7.5" font-family="Helvetica,sans-Serif" font-size="10.00" fill="#000000">mpi.h</text>
</g>
<!-- Node3&#45;&gt;Node4 -->
<g id="edge4" class="edge">
<title>Node3&#45;&gt;Node4</title>
<path fill="none" stroke="#191970" d="M166.852,-59.2007C163.7251,-58.1256 160.525,-57.0294 157.5,-56 120.9032,-43.5465 78.7317,-29.4204 50.953,-20.1464"/>
<polygon fill="#191970" stroke="#191970" points="52.0007,-16.8063 41.4069,-16.9612 49.7851,-23.4464 52.0007,-16.8063"/>
</g>
<!-- Node5 -->
<g id="node6" class="node">
<title>Node5</title>
<polygon fill="#ffffff" stroke="#bfbfbf" points="245,-.5 245,-19.5 312,-19.5 312,-.5 245,-.5"/>
<text text-anchor="middle" x="278.5" y="-7.5" font-family="Helvetica,sans-Serif" font-size="10.00" fill="#000000">paraconf.h</text>
</g>
<!-- Node3&#45;&gt;Node5 -->
<g id="edge5" class="edge">
<title>Node3&#45;&gt;Node5</title>
<path fill="none" stroke="#191970" d="M202.5252,-56.2455C216.6408,-47.6534 237.4263,-35.0014 253.6899,-25.1018"/>
<polygon fill="#191970" stroke="#191970" points="255.9363,-27.8319 262.6585,-19.6427 252.2966,-21.8525 255.9363,-27.8319"/>
</g>
<!-- Node6 -->
<g id="node7" class="node">
<title>Node6</title>
<polygon fill="#ffffff" stroke="#bfbfbf" points="59.5,-.5 59.5,-19.5 131.5,-19.5 131.5,-.5 59.5,-.5"/>
<text text-anchor="middle" x="95.5" y="-7.5" font-family="Helvetica,sans-Serif" font-size="10.00" fill="#000000">pdi/export.h</text>
</g>
<!-- Node3&#45;&gt;Node6 -->
<g id="edge6" class="edge">
<title>Node3&#45;&gt;Node6</title>
<path fill="none" stroke="#191970" d="M170.649,-56.2455C156.6868,-47.6534 136.1272,-35.0014 120.0404,-25.1018"/>
<polygon fill="#191970" stroke="#191970" points="121.5203,-21.9029 111.1693,-19.6427 117.8516,-27.8645 121.5203,-21.9029"/>
</g>
<!-- Node7 -->
<g id="node8" class="node">
<title>Node7</title>
<polygon fill="#ffffff" stroke="#bfbfbf" points="150,-.5 150,-19.5 227,-19.5 227,-.5 150,-.5"/>
<text text-anchor="middle" x="188.5" y="-7.5" font-family="Helvetica,sans-Serif" font-size="10.00" fill="#000000">pdi/version.h</text>
</g>
<!-- Node3&#45;&gt;Node7 -->
<g id="edge7" class="edge">
<title>Node3&#45;&gt;Node7</title>
<path fill="none" stroke="#191970" d="M186.8484,-56.2455C187.1093,-48.9382 187.4752,-38.6944 187.7963,-29.7046"/>
<polygon fill="#191970" stroke="#191970" points="191.2964,-29.7613 188.1556,-19.6427 184.3008,-29.5113 191.2964,-29.7613"/>
</g>
<!-- Node8&#45;&gt;Node1 -->
<g id="edge9" class="edge">
<title>Node8&#45;&gt;Node1</title>
<path fill="none" stroke="#191970" d="M214.7717,-224.4509C209.5289,-206.1013 197.9545,-165.5908 191.0341,-141.3693"/>
<polygon fill="#191970" stroke="#191970" points="194.334,-140.1786 188.2214,-131.5249 187.6033,-142.1017 194.334,-140.1786"/>
</g>
<!-- Node9 -->
<g id="node10" class="node">
<title>Node9</title>
<g id="a_node10"><a xlink:href="datatype__template_8h.html" target="_top" xlink:title="pdi/datatype_template.h">
<polygon fill="#ffffff" stroke="#000000" points="213.5,-168.5 213.5,-187.5 343.5,-187.5 343.5,-168.5 213.5,-168.5"/>
<text text-anchor="middle" x="278.5" y="-175.5" font-family="Helvetica,sans-Serif" font-size="10.00" fill="#000000">pdi/datatype_template.h</text>
</a>
</g>
</g>
<!-- Node8&#45;&gt;Node9 -->
<g id="edge10" class="edge">
<title>Node8&#45;&gt;Node9</title>
<path fill="none" stroke="#191970" d="M228.1254,-224.2455C237.0473,-216.0549 249.988,-204.1749 260.5192,-194.5069"/>
<polygon fill="#191970" stroke="#191970" points="262.9968,-196.9837 267.9964,-187.6427 258.2629,-191.8271 262.9968,-196.9837"/>
</g>
<!-- Node9&#45;&gt;Node1 -->
<g id="edge12" class="edge">
<title>Node9&#45;&gt;Node1</title>
<path fill="none" stroke="#191970" d="M262.3006,-168.2455C247.8982,-159.5731 226.6268,-146.7645 210.1201,-136.825"/>
<polygon fill="#191970" stroke="#191970" points="211.886,-133.8028 201.5137,-131.6427 208.275,-139.7996 211.886,-133.8028"/>
</g>
<!-- Node9&#45;&gt;Node5 -->
<g id="edge11" class="edge">
<title>Node9&#45;&gt;Node5</title>
<path fill="none" stroke="#191970" d="M278.5,-168.4862C278.5,-141.9293 278.5,-66.5651 278.5,-30.1655"/>
<polygon fill="#191970" stroke="#191970" points="282.0001,-29.8278 278.5,-19.8279 275.0001,-29.8279 282.0001,-29.8278"/>
</g>
</g>
</svg>
