<?xml version="1.0" encoding="UTF-8" standalone="no"?>
<!DOCTYPE svg PUBLIC "-//W3C//DTD SVG 1.1//EN"
 "http://www.w3.org/Graphics/SVG/1.1/DTD/svg11.dtd">
<!-- Generated by graphviz version 2.40.1 (20161225.0304)
 -->
<!-- Title: /home/jbigot/data/projects/pdi/pdi/include/pdi/scalar_datatype.h Pages: 1 -->
<svg width="867pt" height="117pt"
 viewBox="0.00 0.00 866.50 117.00" xmlns="http://www.w3.org/2000/svg" xmlns:xlink="http://www.w3.org/1999/xlink">
<g id="graph0" class="graph" transform="scale(1 1) rotate(0) translate(4 113)">
<title>/home/jbigot/data/projects/pdi/pdi/include/pdi/scalar_datatype.h</title>
<polygon fill="#ffffff" stroke="transparent" points="-4,4 -4,-113 862.5,-113 862.5,4 -4,4"/>
<!-- Node10 -->
<g id="node1" class="node">
<title>Node10</title>
<polygon fill="#bfbfbf" stroke="#000000" points="379,-67.5 379,-108.5 517,-108.5 517,-67.5 379,-67.5"/>
<text text-anchor="start" x="387" y="-96.5" font-family="Helvetica,sans-Serif" font-size="10.00" fill="#000000">/home/jbigot/data/projects</text>
<text text-anchor="start" x="387" y="-85.5" font-family="Helvetica,sans-Serif" font-size="10.00" fill="#000000">/pdi/pdi/include/pdi/scalar</text>
<text text-anchor="middle" x="448" y="-74.5" font-family="Helvetica,sans-Serif" font-size="10.00" fill="#000000">_datatype.h</text>
</g>
<!-- Node11 -->
<g id="node2" class="node">
<title>Node11</title>
<g id="a_node2"><a xlink:href="data__descriptor_8cxx.html" target="_top" xlink:title="/home/jbigot/data/projects\l/pdi/pdi/src/data_descriptor.cxx">
<polygon fill="#ffffff" stroke="#000000" points="0,-.5 0,-30.5 164,-30.5 164,-.5 0,-.5"/>
<text text-anchor="start" x="8" y="-18.5" font-family="Helvetica,sans-Serif" font-size="10.00" fill="#000000">/home/jbigot/data/projects</text>
<text text-anchor="middle" x="82" y="-7.5" font-family="Helvetica,sans-Serif" font-size="10.00" fill="#000000">/pdi/pdi/src/data_descriptor.cxx</text>
</a>
</g>
</g>
<!-- Node10&#45;&gt;Node11 -->
<g id="edge1" class="edge">
<title>Node10&#45;&gt;Node11</title>
<path fill="none" stroke="#191970" d="M368.9071,-72.3327C306.3739,-59.9456 219.6306,-42.7629 157.9326,-30.5413"/>
<polygon fill="#191970" stroke="#191970" points="368.2384,-75.7682 378.7279,-74.2781 369.5986,-68.9016 368.2384,-75.7682"/>
</g>
<!-- Node12 -->
<g id="node3" class="node">
<title>Node12</title>
<g id="a_node3"><a xlink:href="datatype__template_8cxx.html" target="_top" xlink:title="/home/jbigot/data/projects\l/pdi/pdi/src/datatype_template.cxx">
<polygon fill="#ffffff" stroke="#000000" points="182.5,-.5 182.5,-30.5 359.5,-30.5 359.5,-.5 182.5,-.5"/>
<text text-anchor="start" x="190.5" y="-18.5" font-family="Helvetica,sans-Serif" font-size="10.00" fill="#000000">/home/jbigot/data/projects</text>
<text text-anchor="middle" x="271" y="-7.5" font-family="Helvetica,sans-Serif" font-size="10.00" fill="#000000">/pdi/pdi/src/datatype_template.cxx</text>
</a>
</g>
</g>
<!-- Node10&#45;&gt;Node12 -->
<g id="edge2" class="edge">
<title>Node10&#45;&gt;Node12</title>
<path fill="none" stroke="#191970" d="M388.4956,-63.6267C361.8067,-52.6948 331.1626,-40.1429 307.8626,-30.5991"/>
<polygon fill="#191970" stroke="#191970" points="387.1719,-66.8667 397.7524,-67.4183 389.8252,-60.389 387.1719,-66.8667"/>
</g>
<!-- Node13 -->
<g id="node4" class="node">
<title>Node13</title>
<g id="a_node4"><a xlink:href="expression_8cxx.html" target="_top" xlink:title="/home/jbigot/data/projects\l/pdi/pdi/src/expression.cxx">
<polygon fill="#ffffff" stroke="#000000" points="377.5,-.5 377.5,-30.5 518.5,-30.5 518.5,-.5 377.5,-.5"/>
<text text-anchor="start" x="385.5" y="-18.5" font-family="Helvetica,sans-Serif" font-size="10.00" fill="#000000">/home/jbigot/data/projects</text>
<text text-anchor="middle" x="448" y="-7.5" font-family="Helvetica,sans-Serif" font-size="10.00" fill="#000000">/pdi/pdi/src/expression.cxx</text>
</a>
</g>
</g>
<!-- Node10&#45;&gt;Node13 -->
<g id="edge3" class="edge">
<title>Node10&#45;&gt;Node13</title>
<path fill="none" stroke="#191970" d="M448,-57.3279C448,-48.0871 448,-38.3508 448,-30.5991"/>
<polygon fill="#191970" stroke="#191970" points="444.5001,-57.4183 448,-67.4183 451.5001,-57.4184 444.5001,-57.4183"/>
</g>
<!-- Node14 -->
<g id="node5" class="node">
<title>Node14</title>
<g id="a_node5"><a xlink:href="ref__any_8cxx.html" target="_top" xlink:title="/home/jbigot/data/projects\l/pdi/pdi/src/ref_any.cxx">
<polygon fill="#ffffff" stroke="#000000" points="537,-.5 537,-30.5 675,-30.5 675,-.5 537,-.5"/>
<text text-anchor="start" x="545" y="-18.5" font-family="Helvetica,sans-Serif" font-size="10.00" fill="#000000">/home/jbigot/data/projects</text>
<text text-anchor="middle" x="606" y="-7.5" font-family="Helvetica,sans-Serif" font-size="10.00" fill="#000000">/pdi/pdi/src/ref_any.cxx</text>
</a>
</g>
</g>
<!-- Node10&#45;&gt;Node14 -->
<g id="edge4" class="edge">
<title>Node10&#45;&gt;Node14</title>
<path fill="none" stroke="#191970" d="M502.055,-63.1963C525.6565,-52.3665 552.568,-40.0178 573.0944,-30.5991"/>
<polygon fill="#191970" stroke="#191970" points="500.483,-60.0667 492.8538,-67.4183 503.4024,-66.4289 500.483,-60.0667"/>
</g>
<!-- Node15 -->
<g id="node6" class="node">
<title>Node15</title>
<g id="a_node6"><a xlink:href="scalar__datatype_8cxx.html" target="_top" xlink:title="/home/jbigot/data/projects\l/pdi/pdi/src/scalar_datatype.cxx">
<polygon fill="#ffffff" stroke="#000000" points="693.5,-.5 693.5,-30.5 858.5,-30.5 858.5,-.5 693.5,-.5"/>
<text text-anchor="start" x="701.5" y="-18.5" font-family="Helvetica,sans-Serif" font-size="10.00" fill="#000000">/home/jbigot/data/projects</text>
<text text-anchor="middle" x="776" y="-7.5" font-family="Helvetica,sans-Serif" font-size="10.00" fill="#000000">/pdi/pdi/src/scalar_datatype.cxx</text>
</a>
</g>
</g>
<!-- Node10&#45;&gt;Node15 -->
<g id="edge5" class="edge">
<title>Node10&#45;&gt;Node15</title>
<path fill="none" stroke="#191970" d="M527.2621,-70.4802C582.5169,-58.2669 655.4656,-42.1425 708.0592,-30.5174"/>
<polygon fill="#191970" stroke="#191970" points="526.1685,-67.1373 517.1596,-72.7132 527.6793,-73.9724 526.1685,-67.1373"/>
</g>
</g>
</svg>
