<?xml version="1.0" encoding="UTF-8" standalone="no"?>
<!DOCTYPE svg PUBLIC "-//W3C//DTD SVG 1.1//EN"
 "http://www.w3.org/Graphics/SVG/1.1/DTD/svg11.dtd">
<!-- Generated by graphviz version 2.40.1 (20161225.0304)
 -->
<!-- Title: PDI::Expression::Impl::Operation::parse Pages: 1 -->
<svg width="622pt" height="69pt"
 viewBox="0.00 0.00 622.00 68.50" xmlns="http://www.w3.org/2000/svg" xmlns:xlink="http://www.w3.org/1999/xlink">
<g id="graph0" class="graph" transform="scale(1 1) rotate(0) translate(4 64.5)">
<title>PDI::Expression::Impl::Operation::parse</title>
<polygon fill="#ffffff" stroke="transparent" points="-4,4 -4,-64.5 618,-64.5 618,4 -4,4"/>
<!-- Node7 -->
<g id="node1" class="node">
<title>Node7</title>
<polygon fill="#bfbfbf" stroke="#000000" points="0,-30 0,-60 115,-60 115,-30 0,-30"/>
<text text-anchor="start" x="8" y="-48" font-family="Helvetica,sans-Serif" font-size="10.00" fill="#000000">PDI::Expression::Impl</text>
<text text-anchor="middle" x="57.5" y="-37" font-family="Helvetica,sans-Serif" font-size="10.00" fill="#000000">::Operation::parse</text>
</g>
<!-- Node8 -->
<g id="node2" class="node">
<title>Node8</title>
<g id="a_node2"><a xlink:href="classPDI_1_1Expression.html#abb55fe61cfcc9fc60e587d1b8b5e87de" target="_top" xlink:title="PDI::Expression::Expression">
<polygon fill="#ffffff" stroke="#000000" points="466,-36.5 466,-55.5 614,-55.5 614,-36.5 466,-36.5"/>
<text text-anchor="middle" x="540" y="-43.5" font-family="Helvetica,sans-Serif" font-size="10.00" fill="#000000">PDI::Expression::Expression</text>
</a>
</g>
</g>
<!-- Node7&#45;&gt;Node8 -->
<g id="edge1" class="edge">
<title>Node7&#45;&gt;Node8</title>
<path fill="none" stroke="#191970" d="M125.3796,-49.8684C133.9993,-50.3358 142.7035,-50.7341 151,-51 260.5279,-54.5107 387.4775,-51.5628 465.7693,-48.933"/>
<polygon fill="#191970" stroke="#191970" points="125.5131,-46.3704 115.3291,-49.2918 125.1122,-53.3589 125.5131,-46.3704"/>
</g>
<!-- Node9 -->
<g id="node3" class="node">
<title>Node9</title>
<g id="a_node3"><a xlink:href="structPDI_1_1Expression_1_1Impl_1_1Reference__expression.html#a1e35e94523d137348848fb2fdb287216" target="_top" xlink:title="PDI::Expression::Impl\l::Reference_expression\l::parse">
<polygon fill="#ffffff" stroke="#000000" points="151,-.5 151,-41.5 279,-41.5 279,-.5 151,-.5"/>
<text text-anchor="start" x="159" y="-29.5" font-family="Helvetica,sans-Serif" font-size="10.00" fill="#000000">PDI::Expression::Impl</text>
<text text-anchor="start" x="159" y="-18.5" font-family="Helvetica,sans-Serif" font-size="10.00" fill="#000000">::Reference_expression</text>
<text text-anchor="middle" x="215" y="-7.5" font-family="Helvetica,sans-Serif" font-size="10.00" fill="#000000">::parse</text>
</a>
</g>
</g>
<!-- Node7&#45;&gt;Node9 -->
<g id="edge2" class="edge">
<title>Node7&#45;&gt;Node9</title>
<path fill="none" stroke="#191970" d="M125.1616,-34.6897C133.6926,-33.3897 142.4008,-32.0627 150.8748,-30.7715"/>
<polygon fill="#191970" stroke="#191970" points="124.6115,-31.233 115.2529,-36.1996 125.666,-38.1531 124.6115,-31.233"/>
</g>
<!-- Node10 -->
<g id="node4" class="node">
<title>Node10</title>
<g id="a_node4"><a xlink:href="structPDI_1_1Expression_1_1Impl_1_1String__literal.html#a6a113b6b984ff9ae864a2c4ac3dd3365" target="_top" xlink:title="PDI::Expression::Impl\l::String_literal::parse">
<polygon fill="#ffffff" stroke="#000000" points="315,-9 315,-39 430,-39 430,-9 315,-9"/>
<text text-anchor="start" x="323" y="-27" font-family="Helvetica,sans-Serif" font-size="10.00" fill="#000000">PDI::Expression::Impl</text>
<text text-anchor="middle" x="372.5" y="-16" font-family="Helvetica,sans-Serif" font-size="10.00" fill="#000000">::String_literal::parse</text>
</a>
</g>
</g>
<!-- Node9&#45;&gt;Node10 -->
<g id="edge3" class="edge">
<title>Node9&#45;&gt;Node10</title>
<path fill="none" stroke="#191970" d="M289.1336,-22.4121C297.764,-22.5765 306.4686,-22.7423 314.8309,-22.9015"/>
<polygon fill="#191970" stroke="#191970" points="289.1262,-18.9114 279.0613,-22.2202 288.9928,-25.9101 289.1262,-18.9114"/>
</g>
<!-- Node10&#45;&gt;Node8 -->
<g id="edge4" class="edge">
<title>Node10&#45;&gt;Node8</title>
<path fill="none" stroke="#191970" d="M440.1583,-32.8865C449.1454,-34.0669 458.3893,-35.281 467.4549,-36.4717"/>
<polygon fill="#191970" stroke="#191970" points="440.5147,-29.4033 430.144,-31.5712 439.603,-36.3437 440.5147,-29.4033"/>
</g>
</g>
</svg>
