<?xml version="1.0" encoding="UTF-8" standalone="no"?>
<!DOCTYPE svg PUBLIC "-//W3C//DTD SVG 1.1//EN"
 "http://www.w3.org/Graphics/SVG/1.1/DTD/svg11.dtd">
<!-- Generated by graphviz version 2.40.1 (20161225.0304)
 -->
<!-- Title: PDI::Expression::Impl::String_literal::parse Pages: 1 -->
<svg width="589pt" height="110pt"
 viewBox="0.00 0.00 589.00 110.00" xmlns="http://www.w3.org/2000/svg" xmlns:xlink="http://www.w3.org/1999/xlink">
<g id="graph0" class="graph" transform="scale(1 1) rotate(0) translate(4 106)">
<title>PDI::Expression::Impl::String_literal::parse</title>
<polygon fill="#ffffff" stroke="transparent" points="-4,4 -4,-106 585,-106 585,4 -4,4"/>
<!-- Node2 -->
<g id="node1" class="node">
<title>Node2</title>
<polygon fill="#bfbfbf" stroke="#000000" points="0,-68.5 0,-98.5 115,-98.5 115,-68.5 0,-68.5"/>
<text text-anchor="start" x="8" y="-86.5" font-family="Helvetica,sans-Serif" font-size="10.00" fill="#000000">PDI::Expression::Impl</text>
<text text-anchor="middle" x="57.5" y="-75.5" font-family="Helvetica,sans-Serif" font-size="10.00" fill="#000000">::String_literal::parse</text>
</g>
<!-- Node3 -->
<g id="node2" class="node">
<title>Node3</title>
<g id="a_node2"><a xlink:href="structPDI_1_1Expression_1_1Impl.html#a6cdce6e298de06f6c558ee9a96642d31" target="_top" xlink:title="PDI::Expression::Impl\l::parse_term">
<polygon fill="#ffffff" stroke="#000000" points="466,-71.5 466,-101.5 581,-101.5 581,-71.5 466,-71.5"/>
<text text-anchor="start" x="474" y="-89.5" font-family="Helvetica,sans-Serif" font-size="10.00" fill="#000000">PDI::Expression::Impl</text>
<text text-anchor="middle" x="523.5" y="-78.5" font-family="Helvetica,sans-Serif" font-size="10.00" fill="#000000">::parse_term</text>
</a>
</g>
</g>
<!-- Node2&#45;&gt;Node3 -->
<g id="edge1" class="edge">
<title>Node2&#45;&gt;Node3</title>
<path fill="none" stroke="#191970" d="M115.3291,-87.7918C127.1248,-88.5037 139.457,-89.13 151,-89.5 274.9364,-93.4725 306.0159,-91.4885 430,-89.5 438.2869,-89.3671 446.9854,-89.168 455.602,-88.9343"/>
<polygon fill="#191970" stroke="#191970" points="455.7546,-92.4314 465.65,-88.646 455.5538,-85.4343 455.7546,-92.4314"/>
</g>
<!-- Node4 -->
<g id="node3" class="node">
<title>Node4</title>
<g id="a_node3"><a xlink:href="structPDI_1_1Expression_1_1Impl_1_1Reference__expression.html#a1e35e94523d137348848fb2fdb287216" target="_top" xlink:title="PDI::Expression::Impl\l::Reference_expression\l::parse">
<polygon fill="#ffffff" stroke="#000000" points="151,-39 151,-80 279,-80 279,-39 151,-39"/>
<text text-anchor="start" x="159" y="-68" font-family="Helvetica,sans-Serif" font-size="10.00" fill="#000000">PDI::Expression::Impl</text>
<text text-anchor="start" x="159" y="-57" font-family="Helvetica,sans-Serif" font-size="10.00" fill="#000000">::Reference_expression</text>
<text text-anchor="middle" x="215" y="-46" font-family="Helvetica,sans-Serif" font-size="10.00" fill="#000000">::parse</text>
</a>
</g>
</g>
<!-- Node2&#45;&gt;Node4 -->
<g id="edge2" class="edge">
<title>Node2&#45;&gt;Node4</title>
<path fill="none" stroke="#191970" d="M115.2529,-74.6996C123.5823,-73.4303 132.2498,-72.1096 140.8441,-70.7999"/>
<polygon fill="#191970" stroke="#191970" points="141.5162,-74.238 150.8748,-69.2715 140.4617,-67.3179 141.5162,-74.238"/>
</g>
<!-- Node5 -->
<g id="node4" class="node">
<title>Node5</title>
<g id="a_node4"><a xlink:href="structPDI_1_1Expression_1_1Impl.html#a4df2c86a5deaf2ad3670ab249203c5f8" target="_top" xlink:title="PDI::Expression::Impl\l::parse_id">
<polygon fill="#ffffff" stroke="#000000" points="315,-49.5 315,-79.5 430,-79.5 430,-49.5 315,-49.5"/>
<text text-anchor="start" x="323" y="-67.5" font-family="Helvetica,sans-Serif" font-size="10.00" fill="#000000">PDI::Expression::Impl</text>
<text text-anchor="middle" x="372.5" y="-56.5" font-family="Helvetica,sans-Serif" font-size="10.00" fill="#000000">::parse_id</text>
</a>
</g>
</g>
<!-- Node4&#45;&gt;Node5 -->
<g id="edge3" class="edge">
<title>Node4&#45;&gt;Node5</title>
<path fill="none" stroke="#191970" d="M279.0613,-61.5337C287.4774,-61.8009 296.1255,-62.0754 304.6026,-62.3445"/>
<polygon fill="#191970" stroke="#191970" points="304.7248,-65.8501 314.8309,-62.6692 304.947,-58.8536 304.7248,-65.8501"/>
</g>
<!-- Node6 -->
<g id="node5" class="node">
<title>Node6</title>
<g id="a_node5"><a xlink:href="structPDI_1_1Expression_1_1Impl_1_1Operation.html#a5116425b93990eb079c296765a875fd7" target="_top" xlink:title="PDI::Expression::Impl\l::Operation::parse">
<polygon fill="#ffffff" stroke="#000000" points="315,-.5 315,-30.5 430,-30.5 430,-.5 315,-.5"/>
<text text-anchor="start" x="323" y="-18.5" font-family="Helvetica,sans-Serif" font-size="10.00" fill="#000000">PDI::Expression::Impl</text>
<text text-anchor="middle" x="372.5" y="-7.5" font-family="Helvetica,sans-Serif" font-size="10.00" fill="#000000">::Operation::parse</text>
</a>
</g>
</g>
<!-- Node4&#45;&gt;Node6 -->
<g id="edge4" class="edge">
<title>Node4&#45;&gt;Node6</title>
<path fill="none" stroke="#191970" d="M279.0613,-41.6035C288.8979,-38.8555 299.0515,-36.0189 308.8785,-33.2736"/>
<polygon fill="#191970" stroke="#191970" points="309.8834,-36.627 318.5728,-30.5654 307.9999,-29.8851 309.8834,-36.627"/>
</g>
<!-- Node6&#45;&gt;Node3 -->
<g id="edge5" class="edge">
<title>Node6&#45;&gt;Node3</title>
<path fill="none" stroke="#191970" d="M409.7839,-30.6122C416.5479,-33.4812 423.5123,-36.5199 430,-39.5 448.5269,-48.0102 468.7776,-58.0907 485.6807,-66.7295"/>
<polygon fill="#191970" stroke="#191970" points="484.2007,-69.904 494.6948,-71.3614 487.4,-63.6779 484.2007,-69.904"/>
</g>
<!-- Node7 -->
<g id="node6" class="node">
<title>Node7</title>
<g id="a_node6"><a xlink:href="structPDI_1_1Expression_1_1Impl_1_1Int__literal.html#adece4188b33ff22d6561cf94f94d5231" target="_top" xlink:title="PDI::Expression::Impl\l::Int_literal::parse">
<polygon fill="#ffffff" stroke="#000000" points="466,-.5 466,-30.5 581,-30.5 581,-.5 466,-.5"/>
<text text-anchor="start" x="474" y="-18.5" font-family="Helvetica,sans-Serif" font-size="10.00" fill="#000000">PDI::Expression::Impl</text>
<text text-anchor="middle" x="523.5" y="-7.5" font-family="Helvetica,sans-Serif" font-size="10.00" fill="#000000">::Int_literal::parse</text>
</a>
</g>
</g>
<!-- Node6&#45;&gt;Node7 -->
<g id="edge6" class="edge">
<title>Node6&#45;&gt;Node7</title>
<path fill="none" stroke="#191970" d="M430.0174,-15.5C438.4639,-15.5 447.2292,-15.5 455.8561,-15.5"/>
<polygon fill="#191970" stroke="#191970" points="455.8926,-19.0001 465.8925,-15.5 455.8925,-12.0001 455.8926,-19.0001"/>
</g>
</g>
</svg>
