<?xml version="1.0" encoding="UTF-8" standalone="no"?>
<!DOCTYPE svg PUBLIC "-//W3C//DTD SVG 1.1//EN"
 "http://www.w3.org/Graphics/SVG/1.1/DTD/svg11.dtd">
<!-- Generated by graphviz version 2.40.1 (20161225.0304)
 -->
<!-- Title: PDI::Expression::Impl::String_literal::parse Pages: 1 -->
<!--zoomable 110 -->
<svg id="main" version="1.1" xmlns="http://www.w3.org/2000/svg" xmlns:xlink="http://www.w3.org/1999/xlink" xml:space="preserve" onload="init(evt)">
<style type="text/css"><![CDATA[
.edge:hover path { stroke: red; }
.edge:hover polygon { stroke: red; fill: red; }
]]></style>
<script type="text/javascript"><![CDATA[
var edges = document.getElementsByTagName('g');
if (edges && edges.length) {
  for (var i=0;i<edges.length;i++) {
    if (edges[i].id.substr(0,4)=='edge') {
      edges[i].setAttribute('class','edge');
    }
  }
}
]]></script>
        <defs>
                <circle id="rim" cx="0" cy="0" r="7"/>
                <circle id="rim2" cx="0" cy="0" r="3.5"/>
                <g id="zoomPlus">
                        <use xlink:href="#rim" fill="#404040">
                                <set attributeName="fill" to="#808080" begin="zoomplus.mouseover" end="zoomplus.mouseout"/>
                        </use>
                        <path d="M-4,0h8M0,-4v8" fill="none" stroke="white" stroke-width="1.5" pointer-events="none"/>
                </g>
                <g id="zoomMin">
                        <use xlink:href="#rim" fill="#404040">
                                <set attributeName="fill" to="#808080" begin="zoomminus.mouseover" end="zoomminus.mouseout"/>
                        </use>
                        <path d="M-4,0h8" fill="none" stroke="white" stroke-width="1.5" pointer-events="none"/>
                </g>
                <g id="dirArrow">
                        <path fill="none" stroke="white" stroke-width="1.5" d="M0,-3.0v7 M-2.5,-0.5L0,-3.0L2.5,-0.5"/>
                </g>
               <g id="resetDef">
                       <use xlink:href="#rim2" fill="#404040">
                               <set attributeName="fill" to="#808080" begin="reset.mouseover" end="reset.mouseout"/>
                       </use>
               </g>
        </defs>

<script type="text/javascript">
var viewWidth = 589;
var viewHeight = 110;
var sectionId = 'dynsection-2';
</script>
<script xlink:href="svgpan.js"/>
<svg id="graph" class="graph">
<g id="viewport">
<title>PDI::Expression::Impl::String_literal::parse</title>
<polygon fill="#ffffff" stroke="transparent" points="-4,4 -4,-106 585,-106 585,4 -4,4"/>
<!-- Node2 -->
<g id="node1" class="node">
<title>Node2</title>
<polygon fill="#bfbfbf" stroke="#000000" points="0,-68.5 0,-98.5 115,-98.5 115,-68.5 0,-68.5"/>
<text text-anchor="start" x="8" y="-86.5" font-family="Helvetica,sans-Serif" font-size="10.00" fill="#000000">PDI::Expression::Impl</text>
<text text-anchor="middle" x="57.5" y="-75.5" font-family="Helvetica,sans-Serif" font-size="10.00" fill="#000000">::String_literal::parse</text>
</g>
<!-- Node3 -->
<g id="node2" class="node">
<title>Node3</title>
<g id="a_node2"><a xlink:href="structPDI_1_1Expression_1_1Impl.html#a6cdce6e298de06f6c558ee9a96642d31" target="_top" xlink:title="PDI::Expression::Impl\l::parse_term">
<polygon fill="#ffffff" stroke="#000000" points="466,-71.5 466,-101.5 581,-101.5 581,-71.5 466,-71.5"/>
<text text-anchor="start" x="474" y="-89.5" font-family="Helvetica,sans-Serif" font-size="10.00" fill="#000000">PDI::Expression::Impl</text>
<text text-anchor="middle" x="523.5" y="-78.5" font-family="Helvetica,sans-Serif" font-size="10.00" fill="#000000">::parse_term</text>
</a>
</g>
</g>
<!-- Node2&#45;&gt;Node3 -->
<g id="edge1" class="edge">
<title>Node2&#45;&gt;Node3</title>
<path fill="none" stroke="#191970" d="M115.3291,-87.7918C127.1248,-88.5037 139.457,-89.13 151,-89.5 274.9364,-93.4725 306.0159,-91.4885 430,-89.5 438.2869,-89.3671 446.9854,-89.168 455.602,-88.9343"/>
<polygon fill="#191970" stroke="#191970" points="455.7546,-92.4314 465.65,-88.646 455.5538,-85.4343 455.7546,-92.4314"/>
</g>
<!-- Node4 -->
<g id="node3" class="node">
<title>Node4</title>
<g id="a_node3"><a xlink:href="structPDI_1_1Expression_1_1Impl_1_1Reference__expression.html#a1e35e94523d137348848fb2fdb287216" target="_top" xlink:title="PDI::Expression::Impl\l::Reference_expression\l::parse">
<polygon fill="#ffffff" stroke="#000000" points="151,-39 151,-80 279,-80 279,-39 151,-39"/>
<text text-anchor="start" x="159" y="-68" font-family="Helvetica,sans-Serif" font-size="10.00" fill="#000000">PDI::Expression::Impl</text>
<text text-anchor="start" x="159" y="-57" font-family="Helvetica,sans-Serif" font-size="10.00" fill="#000000">::Reference_expression</text>
<text text-anchor="middle" x="215" y="-46" font-family="Helvetica,sans-Serif" font-size="10.00" fill="#000000">::parse</text>
</a>
</g>
</g>
<!-- Node2&#45;&gt;Node4 -->
<g id="edge2" class="edge">
<title>Node2&#45;&gt;Node4</title>
<path fill="none" stroke="#191970" d="M115.2529,-74.6996C123.5823,-73.4303 132.2498,-72.1096 140.8441,-70.7999"/>
<polygon fill="#191970" stroke="#191970" points="141.5162,-74.238 150.8748,-69.2715 140.4617,-67.3179 141.5162,-74.238"/>
</g>
<!-- Node5 -->
<g id="node4" class="node">
<title>Node5</title>
<g id="a_node4"><a xlink:href="structPDI_1_1Expression_1_1Impl.html#a4df2c86a5deaf2ad3670ab249203c5f8" target="_top" xlink:title="PDI::Expression::Impl\l::parse_id">
<polygon fill="#ffffff" stroke="#000000" points="315,-49.5 315,-79.5 430,-79.5 430,-49.5 315,-49.5"/>
<text text-anchor="start" x="323" y="-67.5" font-family="Helvetica,sans-Serif" font-size="10.00" fill="#000000">PDI::Expression::Impl</text>
<text text-anchor="middle" x="372.5" y="-56.5" font-family="Helvetica,sans-Serif" font-size="10.00" fill="#000000">::parse_id</text>
</a>
</g>
</g>
<!-- Node4&#45;&gt;Node5 -->
<g id="edge3" class="edge">
<title>Node4&#45;&gt;Node5</title>
<path fill="none" stroke="#191970" d="M279.0613,-61.5337C287.4774,-61.8009 296.1255,-62.0754 304.6026,-62.3445"/>
<polygon fill="#191970" stroke="#191970" points="304.7248,-65.8501 314.8309,-62.6692 304.947,-58.8536 304.7248,-65.8501"/>
</g>
<!-- Node6 -->
<g id="node5" class="node">
<title>Node6</title>
<g id="a_node5"><a xlink:href="structPDI_1_1Expression_1_1Impl_1_1Operation.html#a5116425b93990eb079c296765a875fd7" target="_top" xlink:title="PDI::Expression::Impl\l::Operation::parse">
<polygon fill="#ffffff" stroke="#000000" points="315,-.5 315,-30.5 430,-30.5 430,-.5 315,-.5"/>
<text text-anchor="start" x="323" y="-18.5" font-family="Helvetica,sans-Serif" font-size="10.00" fill="#000000">PDI::Expression::Impl</text>
<text text-anchor="middle" x="372.5" y="-7.5" font-family="Helvetica,sans-Serif" font-size="10.00" fill="#000000">::Operation::parse</text>
</a>
</g>
</g>
<!-- Node4&#45;&gt;Node6 -->
<g id="edge4" class="edge">
<title>Node4&#45;&gt;Node6</title>
<path fill="none" stroke="#191970" d="M279.0613,-41.6035C288.8979,-38.8555 299.0515,-36.0189 308.8785,-33.2736"/>
<polygon fill="#191970" stroke="#191970" points="309.8834,-36.627 318.5728,-30.5654 307.9999,-29.8851 309.8834,-36.627"/>
</g>
<!-- Node6&#45;&gt;Node3 -->
<g id="edge5" class="edge">
<title>Node6&#45;&gt;Node3</title>
<path fill="none" stroke="#191970" d="M409.7839,-30.6122C416.5479,-33.4812 423.5123,-36.5199 430,-39.5 448.5269,-48.0102 468.7776,-58.0907 485.6807,-66.7295"/>
<polygon fill="#191970" stroke="#191970" points="484.2007,-69.904 494.6948,-71.3614 487.4,-63.6779 484.2007,-69.904"/>
</g>
<!-- Node7 -->
<g id="node6" class="node">
<title>Node7</title>
<g id="a_node6"><a xlink:href="structPDI_1_1Expression_1_1Impl_1_1Int__literal.html#adece4188b33ff22d6561cf94f94d5231" target="_top" xlink:title="PDI::Expression::Impl\l::Int_literal::parse">
<polygon fill="#ffffff" stroke="#000000" points="466,-.5 466,-30.5 581,-30.5 581,-.5 466,-.5"/>
<text text-anchor="start" x="474" y="-18.5" font-family="Helvetica,sans-Serif" font-size="10.00" fill="#000000">PDI::Expression::Impl</text>
<text text-anchor="middle" x="523.5" y="-7.5" font-family="Helvetica,sans-Serif" font-size="10.00" fill="#000000">::Int_literal::parse</text>
</a>
</g>
</g>
<!-- Node6&#45;&gt;Node7 -->
<g id="edge6" class="edge">
<title>Node6&#45;&gt;Node7</title>
<path fill="none" stroke="#191970" d="M430.0174,-15.5C438.4639,-15.5 447.2292,-15.5 455.8561,-15.5"/>
<polygon fill="#191970" stroke="#191970" points="455.8926,-19.0001 465.8925,-15.5 455.8925,-12.0001 455.8926,-19.0001"/>
</g>
</g>
</svg>
        <g id="navigator" transform="translate(0 0)" fill="#404254">
                <rect fill="#f2f5e9" fill-opacity="0.5" stroke="#606060" stroke-width=".5" x="0" y="0" width="60" height="60"/>
                <use id="zoomplus" xlink:href="#zoomPlus" x="17" y="9" onmousedown="handleZoom(evt,'in')"/>
                <use id="zoomminus" xlink:href="#zoomMin" x="42" y="9" onmousedown="handleZoom(evt,'out')"/>
                <use id="reset" xlink:href="#resetDef" x="30" y="36" onmousedown="handleReset()"/>
                <g id="arrowUp" xlink:href="#dirArrow" transform="translate(30 24)" onmousedown="handlePan(0,-1)">
                  <use xlink:href="#rim" fill="#404040">
                        <set attributeName="fill" to="#808080" begin="arrowUp.mouseover" end="arrowUp.mouseout"/>
                  </use>
                  <path fill="none" stroke="white" stroke-width="1.5" d="M0,-3.0v7 M-2.5,-0.5L0,-3.0L2.5,-0.5"/>
                </g>
                <g id="arrowRight" xlink:href="#dirArrow" transform="rotate(90) translate(36 -43)" onmousedown="handlePan(1,0)">
                  <use xlink:href="#rim" fill="#404040">
                        <set attributeName="fill" to="#808080" begin="arrowRight.mouseover" end="arrowRight.mouseout"/>
                  </use>
                  <path fill="none" stroke="white" stroke-width="1.5" d="M0,-3.0v7 M-2.5,-0.5L0,-3.0L2.5,-0.5"/>
                </g>
                <g id="arrowDown" xlink:href="#dirArrow" transform="rotate(180) translate(-30 -48)" onmousedown="handlePan(0,1)">
                  <use xlink:href="#rim" fill="#404040">
                        <set attributeName="fill" to="#808080" begin="arrowDown.mouseover" end="arrowDown.mouseout"/>
                  </use>
                  <path fill="none" stroke="white" stroke-width="1.5" d="M0,-3.0v7 M-2.5,-0.5L0,-3.0L2.5,-0.5"/>
                </g>
                <g id="arrowLeft" xlink:href="#dirArrow" transform="rotate(270) translate(-36 17)" onmousedown="handlePan(-1,0)">
                  <use xlink:href="#rim" fill="#404040">
                        <set attributeName="fill" to="#808080" begin="arrowLeft.mouseover" end="arrowLeft.mouseout"/>
                  </use>
                  <path fill="none" stroke="white" stroke-width="1.5" d="M0,-3.0v7 M-2.5,-0.5L0,-3.0L2.5,-0.5"/>
                </g>
        </g>
        <svg viewBox="0 0 15 15" width="100%" height="30px" preserveAspectRatio="xMaxYMin meet">
         <g id="arrow_out" transform="scale(0.3 0.3)">
          <a xlink:href="structPDI_1_1Expression_1_1Impl_1_1String__literal_a6a113b6b984ff9ae864a2c4ac3dd3365_cgraph_org.svg" target="_base">
           <rect id="button" ry="5" rx="5" y="6" x="6" height="38" width="38"
                fill="#f2f5e9" fill-opacity="0.5" stroke="#606060" stroke-width="1.0"/>
           <path id="arrow"
             d="M 11.500037,31.436501 C 11.940474,20.09759 22.043105,11.32322 32.158766,21.979434 L 37.068811,17.246167 C 37.068811,17.246167 37.088388,32 37.088388,32 L 22.160133,31.978069 C 22.160133,31.978069 26.997745,27.140456 26.997745,27.140456 C 18.528582,18.264221 13.291696,25.230495 11.500037,31.436501 z"
             style="fill:#404040;"/>
          </a>
         </g>
        </svg>
</svg>
