<?xml version="1.0" encoding="UTF-8" standalone="no"?>
<!DOCTYPE svg PUBLIC "-//W3C//DTD SVG 1.1//EN"
 "http://www.w3.org/Graphics/SVG/1.1/DTD/svg11.dtd">
<!-- Generated by graphviz version 2.40.1 (20161225.0304)
 -->
<!-- Title: PDI::Expression::Impl::Int_literal::parse Pages: 1 -->
<svg width="773pt" height="69pt"
 viewBox="0.00 0.00 773.00 68.50" xmlns="http://www.w3.org/2000/svg" xmlns:xlink="http://www.w3.org/1999/xlink">
<g id="graph0" class="graph" transform="scale(1 1) rotate(0) translate(4 64.5)">
<title>PDI::Expression::Impl::Int_literal::parse</title>
<polygon fill="#ffffff" stroke="transparent" points="-4,4 -4,-64.5 769,-64.5 769,4 -4,4"/>
<!-- Node5 -->
<g id="node1" class="node">
<title>Node5</title>
<polygon fill="#bfbfbf" stroke="#000000" points="0,-30 0,-60 115,-60 115,-30 0,-30"/>
<text text-anchor="start" x="8" y="-48" font-family="Helvetica,sans-Serif" font-size="10.00" fill="#000000">PDI::Expression::Impl</text>
<text text-anchor="middle" x="57.5" y="-37" font-family="Helvetica,sans-Serif" font-size="10.00" fill="#000000">::Int_literal::parse</text>
</g>
<!-- Node6 -->
<g id="node2" class="node">
<title>Node6</title>
<g id="a_node2"><a xlink:href="structPDI_1_1Expression_1_1Impl_1_1Operation.html#a5116425b93990eb079c296765a875fd7" target="_top" xlink:title="PDI::Expression::Impl\l::Operation::parse">
<polygon fill="#ffffff" stroke="#000000" points="151,-30 151,-60 266,-60 266,-30 151,-30"/>
<text text-anchor="start" x="159" y="-48" font-family="Helvetica,sans-Serif" font-size="10.00" fill="#000000">PDI::Expression::Impl</text>
<text text-anchor="middle" x="208.5" y="-37" font-family="Helvetica,sans-Serif" font-size="10.00" fill="#000000">::Operation::parse</text>
</a>
</g>
</g>
<!-- Node5&#45;&gt;Node6 -->
<g id="edge1" class="edge">
<title>Node5&#45;&gt;Node6</title>
<path fill="none" stroke="#191970" d="M125.0519,-45C133.6779,-45 142.4438,-45 150.8925,-45"/>
<polygon fill="#191970" stroke="#191970" points="125.0174,-41.5001 115.0174,-45 125.0173,-48.5001 125.0174,-41.5001"/>
</g>
<!-- Node7 -->
<g id="node3" class="node">
<title>Node7</title>
<g id="a_node3"><a xlink:href="classPDI_1_1Expression.html#abb55fe61cfcc9fc60e587d1b8b5e87de" target="_top" xlink:title="PDI::Expression::Expression">
<polygon fill="#ffffff" stroke="#000000" points="617,-36.5 617,-55.5 765,-55.5 765,-36.5 617,-36.5"/>
<text text-anchor="middle" x="691" y="-43.5" font-family="Helvetica,sans-Serif" font-size="10.00" fill="#000000">PDI::Expression::Expression</text>
</a>
</g>
</g>
<!-- Node6&#45;&gt;Node7 -->
<g id="edge2" class="edge">
<title>Node6&#45;&gt;Node7</title>
<path fill="none" stroke="#191970" d="M276.3796,-49.8684C284.9993,-50.3358 293.7035,-50.7341 302,-51 411.5279,-54.5107 538.4775,-51.5628 616.7693,-48.933"/>
<polygon fill="#191970" stroke="#191970" points="276.5131,-46.3704 266.3291,-49.2918 276.1122,-53.3589 276.5131,-46.3704"/>
</g>
<!-- Node8 -->
<g id="node4" class="node">
<title>Node8</title>
<g id="a_node4"><a xlink:href="structPDI_1_1Expression_1_1Impl_1_1Reference__expression.html#a1e35e94523d137348848fb2fdb287216" target="_top" xlink:title="PDI::Expression::Impl\l::Reference_expression\l::parse">
<polygon fill="#ffffff" stroke="#000000" points="302,-.5 302,-41.5 430,-41.5 430,-.5 302,-.5"/>
<text text-anchor="start" x="310" y="-29.5" font-family="Helvetica,sans-Serif" font-size="10.00" fill="#000000">PDI::Expression::Impl</text>
<text text-anchor="start" x="310" y="-18.5" font-family="Helvetica,sans-Serif" font-size="10.00" fill="#000000">::Reference_expression</text>
<text text-anchor="middle" x="366" y="-7.5" font-family="Helvetica,sans-Serif" font-size="10.00" fill="#000000">::parse</text>
</a>
</g>
</g>
<!-- Node6&#45;&gt;Node8 -->
<g id="edge3" class="edge">
<title>Node6&#45;&gt;Node8</title>
<path fill="none" stroke="#191970" d="M276.1616,-34.6897C284.6926,-33.3897 293.4008,-32.0627 301.8748,-30.7715"/>
<polygon fill="#191970" stroke="#191970" points="275.6115,-31.233 266.2529,-36.1996 276.666,-38.1531 275.6115,-31.233"/>
</g>
<!-- Node9 -->
<g id="node5" class="node">
<title>Node9</title>
<g id="a_node5"><a xlink:href="structPDI_1_1Expression_1_1Impl_1_1String__literal.html#a6a113b6b984ff9ae864a2c4ac3dd3365" target="_top" xlink:title="PDI::Expression::Impl\l::String_literal::parse">
<polygon fill="#ffffff" stroke="#000000" points="466,-9 466,-39 581,-39 581,-9 466,-9"/>
<text text-anchor="start" x="474" y="-27" font-family="Helvetica,sans-Serif" font-size="10.00" fill="#000000">PDI::Expression::Impl</text>
<text text-anchor="middle" x="523.5" y="-16" font-family="Helvetica,sans-Serif" font-size="10.00" fill="#000000">::String_literal::parse</text>
</a>
</g>
</g>
<!-- Node8&#45;&gt;Node9 -->
<g id="edge4" class="edge">
<title>Node8&#45;&gt;Node9</title>
<path fill="none" stroke="#191970" d="M440.1336,-22.4121C448.764,-22.5765 457.4686,-22.7423 465.8309,-22.9015"/>
<polygon fill="#191970" stroke="#191970" points="440.1262,-18.9114 430.0613,-22.2202 439.9928,-25.9101 440.1262,-18.9114"/>
</g>
<!-- Node9&#45;&gt;Node7 -->
<g id="edge5" class="edge">
<title>Node9&#45;&gt;Node7</title>
<path fill="none" stroke="#191970" d="M591.1583,-32.8865C600.1454,-34.0669 609.3893,-35.281 618.4549,-36.4717"/>
<polygon fill="#191970" stroke="#191970" points="591.5147,-29.4033 581.144,-31.5712 590.603,-36.3437 591.5147,-29.4033"/>
</g>
</g>
</svg>
