<?xml version="1.0" encoding="UTF-8" standalone="no"?>
<!DOCTYPE svg PUBLIC "-//W3C//DTD SVG 1.1//EN"
 "http://www.w3.org/Graphics/SVG/1.1/DTD/svg11.dtd">
<!-- Generated by graphviz version 2.40.1 (20161225.0304)
 -->
<!-- Title: PDI::Expression::Impl::Int_literal::to_long Pages: 1 -->
<svg width="287pt" height="100pt"
 viewBox="0.00 0.00 287.00 99.50" xmlns="http://www.w3.org/2000/svg" xmlns:xlink="http://www.w3.org/1999/xlink">
<g id="graph0" class="graph" transform="scale(1 1) rotate(0) translate(4 95.5)">
<title>PDI::Expression::Impl::Int_literal::to_long</title>
<polygon fill="#ffffff" stroke="transparent" points="-4,4 -4,-95.5 283,-95.5 283,4 -4,4"/>
<!-- Node11 -->
<g id="node1" class="node">
<title>Node11</title>
<polygon fill="#bfbfbf" stroke="#000000" points="0,-27.5 0,-57.5 115,-57.5 115,-27.5 0,-27.5"/>
<text text-anchor="start" x="8" y="-45.5" font-family="Helvetica,sans-Serif" font-size="10.00" fill="#000000">PDI::Expression::Impl</text>
<text text-anchor="middle" x="57.5" y="-34.5" font-family="Helvetica,sans-Serif" font-size="10.00" fill="#000000">::Int_literal::to_long</text>
</g>
<!-- Node12 -->
<g id="node2" class="node">
<title>Node12</title>
<g id="a_node2"><a xlink:href="structPDI_1_1Expression_1_1Impl_1_1Reference__expression.html#a6521d256707281f5733433be63fd4b3d" target="_top" xlink:title="PDI::Expression::Impl\l::Reference_expression\l::to_ref">
<polygon fill="#ffffff" stroke="#000000" points="151,-50 151,-91 279,-91 279,-50 151,-50"/>
<text text-anchor="start" x="159" y="-79" font-family="Helvetica,sans-Serif" font-size="10.00" fill="#000000">PDI::Expression::Impl</text>
<text text-anchor="start" x="159" y="-68" font-family="Helvetica,sans-Serif" font-size="10.00" fill="#000000">::Reference_expression</text>
<text text-anchor="middle" x="215" y="-57" font-family="Helvetica,sans-Serif" font-size="10.00" fill="#000000">::to_ref</text>
</a>
</g>
</g>
<!-- Node11&#45;&gt;Node12 -->
<g id="edge1" class="edge">
<title>Node11&#45;&gt;Node12</title>
<path fill="none" stroke="#191970" d="M125.1616,-54.5287C133.6926,-56.0454 142.4008,-57.5935 150.8748,-59.1"/>
<polygon fill="#191970" stroke="#191970" points="125.7111,-51.0716 115.2529,-52.7672 124.4858,-57.9636 125.7111,-51.0716"/>
</g>
<!-- Node13 -->
<g id="node3" class="node">
<title>Node13</title>
<g id="a_node3"><a xlink:href="structPDI_1_1Expression_1_1Impl_1_1Operation.html#a01cbb7dd6bf75567f0a016d684f6c9ed" target="_top" xlink:title="PDI::Expression::Impl\l::Operation::to_ref">
<polygon fill="#ffffff" stroke="#000000" points="157.5,-.5 157.5,-30.5 272.5,-30.5 272.5,-.5 157.5,-.5"/>
<text text-anchor="start" x="165.5" y="-18.5" font-family="Helvetica,sans-Serif" font-size="10.00" fill="#000000">PDI::Expression::Impl</text>
<text text-anchor="middle" x="215" y="-7.5" font-family="Helvetica,sans-Serif" font-size="10.00" fill="#000000">::Operation::to_ref</text>
</a>
</g>
</g>
<!-- Node11&#45;&gt;Node13 -->
<g id="edge2" class="edge">
<title>Node11&#45;&gt;Node13</title>
<path fill="none" stroke="#191970" d="M125.3386,-30.8705C135.9717,-29.0477 146.8755,-27.1785 157.2541,-25.3993"/>
<polygon fill="#191970" stroke="#191970" points="124.5177,-27.4601 115.2529,-32.5995 125.7005,-34.3595 124.5177,-27.4601"/>
</g>
</g>
</svg>
