<?xml version="1.0" encoding="UTF-8" standalone="no"?>
<!DOCTYPE svg PUBLIC "-//W3C//DTD SVG 1.1//EN"
 "http://www.w3.org/Graphics/SVG/1.1/DTD/svg11.dtd">
<!-- Generated by graphviz version 2.40.1 (20161225.0304)
 -->
<!-- Title: PDI::Expression::Impl::Reference_expression::to_long Pages: 1 -->
<svg width="267pt" height="66pt"
 viewBox="0.00 0.00 267.00 66.00" xmlns="http://www.w3.org/2000/svg" xmlns:xlink="http://www.w3.org/1999/xlink">
<g id="graph0" class="graph" transform="scale(1 1) rotate(0) translate(4 62)">
<title>PDI::Expression::Impl::Reference_expression::to_long</title>
<polygon fill="#ffffff" stroke="transparent" points="-4,4 -4,-62 263,-62 263,4 -4,4"/>
<!-- Node10 -->
<g id="node1" class="node">
<title>Node10</title>
<polygon fill="#bfbfbf" stroke="#000000" points="0,-8.5 0,-49.5 128,-49.5 128,-8.5 0,-8.5"/>
<text text-anchor="start" x="8" y="-37.5" font-family="Helvetica,sans-Serif" font-size="10.00" fill="#000000">PDI::Expression::Impl</text>
<text text-anchor="start" x="8" y="-26.5" font-family="Helvetica,sans-Serif" font-size="10.00" fill="#000000">::Reference_expression</text>
<text text-anchor="middle" x="64" y="-15.5" font-family="Helvetica,sans-Serif" font-size="10.00" fill="#000000">::to_long</text>
</g>
<!-- Node11 -->
<g id="node2" class="node">
<title>Node11</title>
<g id="a_node2"><a xlink:href="classPDI_1_1Error.html#a96f2da1344848f7862d6d4227ba7c82a" target="_top" xlink:title="PDI::Error::status">
<polygon fill="#ffffff" stroke="#000000" points="164,-38.5 164,-57.5 259,-57.5 259,-38.5 164,-38.5"/>
<text text-anchor="middle" x="211.5" y="-45.5" font-family="Helvetica,sans-Serif" font-size="10.00" fill="#000000">PDI::Error::status</text>
</a>
</g>
</g>
<!-- Node10&#45;&gt;Node11 -->
<g id="edge1" class="edge">
<title>Node10&#45;&gt;Node11</title>
<path fill="none" stroke="#191970" d="M128.2666,-37.2784C136.7662,-38.3733 145.4367,-39.4902 153.8163,-40.5696"/>
<polygon fill="#191970" stroke="#191970" points="153.4971,-44.0573 163.8624,-41.8636 154.3915,-37.1146 153.4971,-44.0573"/>
</g>
<!-- Node12 -->
<g id="node3" class="node">
<title>Node12</title>
<g id="a_node3"><a xlink:href="classPDI_1_1Error.html#aca3b34b8350235c8455bfe56236c4454" target="_top" xlink:title="PDI::Error::what">
<polygon fill="#ffffff" stroke="#000000" points="167,-.5 167,-19.5 256,-19.5 256,-.5 167,-.5"/>
<text text-anchor="middle" x="211.5" y="-7.5" font-family="Helvetica,sans-Serif" font-size="10.00" fill="#000000">PDI::Error::what</text>
</a>
</g>
</g>
<!-- Node10&#45;&gt;Node12 -->
<g id="edge2" class="edge">
<title>Node10&#45;&gt;Node12</title>
<path fill="none" stroke="#191970" d="M128.2666,-20.7216C137.8446,-19.4878 147.6396,-18.2261 156.9908,-17.0215"/>
<polygon fill="#191970" stroke="#191970" points="157.4616,-20.4899 166.9325,-15.7409 156.5673,-13.5472 157.4616,-20.4899"/>
</g>
</g>
</svg>
