<?xml version="1.0" encoding="UTF-8" standalone="no"?>
<!DOCTYPE svg PUBLIC "-//W3C//DTD SVG 1.1//EN"
 "http://www.w3.org/Graphics/SVG/1.1/DTD/svg11.dtd">
<!-- Generated by graphviz version 2.40.1 (20161225.0304)
 -->
<!-- Title: PDI::Expression::Impl::parse_id Pages: 1 -->
<svg width="622pt" height="50pt"
 viewBox="0.00 0.00 622.00 50.00" xmlns="http://www.w3.org/2000/svg" xmlns:xlink="http://www.w3.org/1999/xlink">
<g id="graph0" class="graph" transform="scale(1 1) rotate(0) translate(4 46)">
<title>PDI::Expression::Impl::parse_id</title>
<polygon fill="#ffffff" stroke="transparent" points="-4,4 -4,-46 618,-46 618,4 -4,4"/>
<!-- Node6 -->
<g id="node1" class="node">
<title>Node6</title>
<polygon fill="#bfbfbf" stroke="#000000" points="0,-6 0,-36 115,-36 115,-6 0,-6"/>
<text text-anchor="start" x="8" y="-24" font-family="Helvetica,sans-Serif" font-size="10.00" fill="#000000">PDI::Expression::Impl</text>
<text text-anchor="middle" x="57.5" y="-13" font-family="Helvetica,sans-Serif" font-size="10.00" fill="#000000">::parse_id</text>
</g>
<!-- Node7 -->
<g id="node2" class="node">
<title>Node7</title>
<g id="a_node2"><a xlink:href="structPDI_1_1Expression_1_1Impl_1_1Reference__expression.html#a1e35e94523d137348848fb2fdb287216" target="_top" xlink:title="PDI::Expression::Impl\l::Reference_expression\l::parse">
<polygon fill="#ffffff" stroke="#000000" points="151,-.5 151,-41.5 279,-41.5 279,-.5 151,-.5"/>
<text text-anchor="start" x="159" y="-29.5" font-family="Helvetica,sans-Serif" font-size="10.00" fill="#000000">PDI::Expression::Impl</text>
<text text-anchor="start" x="159" y="-18.5" font-family="Helvetica,sans-Serif" font-size="10.00" fill="#000000">::Reference_expression</text>
<text text-anchor="middle" x="215" y="-7.5" font-family="Helvetica,sans-Serif" font-size="10.00" fill="#000000">::parse</text>
</a>
</g>
</g>
<!-- Node6&#45;&gt;Node7 -->
<g id="edge1" class="edge">
<title>Node6&#45;&gt;Node7</title>
<path fill="none" stroke="#191970" d="M125.4398,-21C133.8819,-21 142.4929,-21 150.8748,-21"/>
<polygon fill="#191970" stroke="#191970" points="125.2529,-17.5001 115.2529,-21 125.2528,-24.5001 125.2529,-17.5001"/>
</g>
<!-- Node8 -->
<g id="node3" class="node">
<title>Node8</title>
<g id="a_node3"><a xlink:href="structPDI_1_1Expression_1_1Impl_1_1String__literal.html#a6a113b6b984ff9ae864a2c4ac3dd3365" target="_top" xlink:title="PDI::Expression::Impl\l::String_literal::parse">
<polygon fill="#ffffff" stroke="#000000" points="315,-6 315,-36 430,-36 430,-6 315,-6"/>
<text text-anchor="start" x="323" y="-24" font-family="Helvetica,sans-Serif" font-size="10.00" fill="#000000">PDI::Expression::Impl</text>
<text text-anchor="middle" x="372.5" y="-13" font-family="Helvetica,sans-Serif" font-size="10.00" fill="#000000">::String_literal::parse</text>
</a>
</g>
</g>
<!-- Node7&#45;&gt;Node8 -->
<g id="edge2" class="edge">
<title>Node7&#45;&gt;Node8</title>
<path fill="none" stroke="#191970" d="M289.1336,-21C297.764,-21 306.4686,-21 314.8309,-21"/>
<polygon fill="#191970" stroke="#191970" points="289.0613,-17.5001 279.0613,-21 289.0612,-24.5001 289.0613,-17.5001"/>
</g>
<!-- Node9 -->
<g id="node4" class="node">
<title>Node9</title>
<g id="a_node4"><a xlink:href="classPDI_1_1Expression.html#abb55fe61cfcc9fc60e587d1b8b5e87de" target="_top" xlink:title="PDI::Expression::Expression">
<polygon fill="#ffffff" stroke="#000000" points="466,-11.5 466,-30.5 614,-30.5 614,-11.5 466,-11.5"/>
<text text-anchor="middle" x="540" y="-18.5" font-family="Helvetica,sans-Serif" font-size="10.00" fill="#000000">PDI::Expression::Expression</text>
</a>
</g>
</g>
<!-- Node8&#45;&gt;Node9 -->
<g id="edge3" class="edge">
<title>Node8&#45;&gt;Node9</title>
<path fill="none" stroke="#191970" d="M440.3159,-21C448.7662,-21 457.4413,-21 465.9797,-21"/>
<polygon fill="#191970" stroke="#191970" points="440.144,-17.5001 430.144,-21 440.144,-24.5001 440.144,-17.5001"/>
</g>
</g>
</svg>
